<svg xmlns="http://www.w3.org/2000/svg" viewBox="0 0 990 248.09556"><defs><style>.cls-1{fill:#fff;}</style></defs><g id="Layer_2" data-name="Layer 2"><g id="Laag_1" data-name="Laag 1"><path class="cls-1" d="M71.43224,97.817l11.99-53.271c3.66759-15.25495,4.2522-18.33793,6.96014-32.04312l1.15818-1.16371c16.41314.00552,21.23891-.193,39.96291-.56806l1.35673,1.15267c.182,16.02156.375,20.26273,1.34019,41.31412L135.342,83.16873c1.72073,36.10228,2.11783,44.59565,3.2705,63.31413l-.97068,1.16369c-14.28428-.204-18.72951,0-30.31136.57358l-1.15818-1.16922c-.182-24.13989-.182-27.22288-.75557-54.04864L105.04719,41.259l-14.6924,63.14316c-4.82577,21.42091-6.96014,31.07246-9.078,42.07521L79.90907,147.641c-9.84458-.204-13.12611,0-23.35674.56256l-1.15818-1.15267c-2.69692-12.34845-5.96741-27.22288-9.05591-40.735L32.07049,42.78667,30.90128,87.1948c-.98171,40.15042-.98171,44.40262-.98722,59.26048L28.95994,147.63c-10.42918-.00551-13.89822-.00551-25.29256.56255l-.97067-1.15267c1.75382-31.65706,1.94685-35.14264,3.09952-55.99L7.55557,48.5721c.57909-18.13939.77764-27.22287.97067-36.09677l1.15818-1.16371c16.99775.00552,22.20958.00552,40.93909-.557l1.15267,1.15819c2.11782,10.22512,2.32188,10.82076,6.9436,31.078Z"/><path class="cls-1" d="M204.061,136.67687c-5.40486,5.77439-13.71621,12.93859-26.64929,12.92757-20.85837-.011-22.77214-18.735-23.35674-23.37328-.57909-5.79092-.57909-12.17749-.57358-23.56079l.00552-10.22512c.20956-27.79645.011-32.42919-.56807-45.55529l.96515-1.15818A235.88546,235.88546,0,0,0,182.083,44.59014l1.14715,1.14715c0,6.75609-.39708,39.76988-.39708,47.11056-.00551,4.62723-.00551,20.45576.57358,23.94135.19854,2.11782,1.35121,9.06141,9.26,9.0559,5.59238.011,8.49887-3.083,11.00275-5.58134l.00551-15.83405c0-3.66759-.56806-41.50164-1.13613-57.53423l1.15267-1.14715c12.74556-.193,16.02707-.38055,28.381-1.14716l1.15267,1.14716c-.193,11.97342-.39157,18.74054-.39157,37.06744,0,4.04813-.011,28.96566.17649,40.15042.193,10.81523.38055,17.57133.57358,23.55528l-.96515,1.16369c-13.71071-.204-16.02156-.011-28.0005.364l-.96515-.76661Z"/><path class="cls-1" d="M280.88728,147.70721c-12.74-.204-16.40761-.20957-29.90875.56255l-.98171-1.15266c.39708-11.97895.78314-24.912.79419-52.32791,0-17.57133.011-35.52871-.17649-53.08349-.36953-19.3086-.95964-25.87716-1.53322-35.13714l.97066-1.16921C262.97952,3.29807,267.62329,2.526,279.58017,0l1.16923,1.1637c-.20957,11.20682-.20957,18.33242-.2151,34.365,0,6.381.182,49.80748.364,75.28756.38055,16.9867.76109,26.45075,1.14715,35.72726Z"/><path class="cls-1" d="M343.08183,67.00376c-8.49887-.17648-8.68637-.18751-13.33016-.18751V91.14917c-.19856,5.20632-.19856,12.16094-.20407,17.36726,0,9.85561.18749,19.31411,8.87391,19.31411a11.31453,11.31453,0,0,0,6.37552-1.9303l1.14716.95964c-.57911,8.49888-.76661,9.84458-.95966,18.928l-1.16369,1.53873a55.74374,55.74374,0,0,1-15.83406,1.92479c-4.24666.00551-16.41315-.00551-22.96517-8.69742-4.82577-6.55753-4.82577-15.06743-4.62723-28.7616l.00551-11.58185c0-4.82577.193-28.38657.19855-33.78041-3.469-.00551-5.41038.182-9.453.38055l-.96515-1.16921c.38054-8.68087.38054-8.68087.77763-18.906l1.15267-1.15267a65.229,65.229,0,0,0,8.6919,0c0-3.48008,0-5.41039-.19854-23.56631l.97066-1.34571c12.75107-3.083,16.42417-4.25219,27.62-7.71572l1.35123.97067c-.39157,8.49888-.58462,10.81524-.78315,32.24167,6.9381-.20407,8.49337-.20407,14.09126-.57909l1.16369,1.15818c-.58462,8.88494-.58462,10.04312-.97619,18.917Z"/><path class="cls-1" d="M385.91262,147.72928c-12.35948-.193-17.00326-.20406-30.49887.57358l-1.16921-1.1637c.58463-12.354.98722-24.52043.98722-46.33292.011-30.49889-.9541-41.12109-1.72071-51.35174l.95966-1.15266c13.52321-1.93583,16.99775-2.52044,30.30586-5.40487l1.16369,1.15818c-.19305,2.69692-.19856,5.41039-.19856,7.91979-.193,11.58737-.39708,22.97068-.39157,34.56907-.00551,20.06969.36952,39.95739,1.72071,60.02709ZM383.05577,27.449c-11.58735,1.35121-15.05642,1.73176-26.83679,3.84958l-1.16369-1.15818c.20408-10.21961.00551-12.74-.36952-23.36225l1.15266-1.15267c13.32465-1.3457,15.63-1.73177,27.41039-3.469l1.1637,1.15818c-.39158,11.00828-.19857,13.90374-.20408,22.9762Z"/><path class="cls-1" d="M469.34055,40.2166c-4.83128-4.05916-10.80972-8.89045-21.61393-8.89045-9.85562,0-16.22012,5.78541-16.22563,14.09677,0,6.18251,3.07745,10.42367,9.271,15.0509,1.91928,1.73728,12.34846,8.6919,14.6593,10.23614,12.15545,8.50439,21.99449,17.38381,21.989,36.6869-.00552,12.93859-4.63273,22.78867-10.04863,28.95463-10.04312,11.39986-23.7428,13.89822-36.8744,13.89271-7.53921.00551-18.917-1.15818-28.95463-6.177l-1.15267-1.9303c.19305-4.05365.57356-8.30585.77764-12.558.19856-3.66208.38054-7.34069.38606-10.99724l1.54424-.57909a34.66144,34.66144,0,0,0,23.93585,9.46954c14.4718.00551,18.3324-10.22512,18.3324-16.7992.01654-8.48233-5.39933-13.12058-14.6593-19.49612l-8.1073-5.61444c-10.03761-7.14214-22.58462-16.016-22.57911-37.255.00551-13.89823,5.22286-23.35122,10.82626-28.7616,9.078-8.87391,21.23339-10.80973,32.04862-10.7987,9.839.00552,19.8822,1.74279,28.76714,6.1825l.7666,1.54977c-.38606,4.05364-.77212,8.10178-.97068,12.15543l-.57911,11.01379Z"/><path class="cls-1" d="M534.36439,139.66058c-3.083,2.88443-10.2251,9.83355-22.97619,9.83906-14.47732-.00551-25.86064-11.20683-25.85513-31.86664.011-29.13111,25.49663-35.71622,48.27425-39.95187,0-6.552.00552-13.90373-13.70519-13.90373-12.751-.00552-20.46127,5.02431-24.70242,7.73226l-1.35674-.78315c.57911-8.88494.77212-11.3833.97068-19.49612l1.1637-1.54425c11.19578-5.0188,25.67309-6.3645,32.82629-6.359,7.52268,0,22.77212,1.15818,29.90874,13.51768,4.25221,7.5282,4.24666,16.41865,3.86611,32.25821l-.20407,15.24392c-.20408,16.20908-.011,27.22288,1.5277,42.26826L562.75089,147.79c-12.93308-.193-15.82855-.00551-27.01331.36953l-1.36776-.96515Zm-.364-44.21509c-8.1018,1.1637-20.84733,3.276-20.85836,18.917,0,8.11281,4.24666,13.31913,10.42918,13.31913a13.6757,13.6757,0,0,0,10.41815-5.2008Z"/><path class="cls-1" d="M624.94,67.092c-5.6034-.193-8.69744-.182-12.161-.193-.022,45.5608.75559,63.70019,1.31812,79.92029l-1.15818.96515c-13.88718.00551-16.78265.00551-29.53374.56807l-.95966-1.15267c0-2.31636.011-4.82577.20959-7.14767.36952-13.50114.38606-56.183.38606-73.36276-4.24115,0-5.39382.193-9.65706.3971l-.9541-1.16371c.38606-7.14765.57355-9.83906.97068-19.11l1.16369-1.14716a63.72382,63.72382,0,0,0,8.48234.375c-.17647-15.05641-.375-27.41038,5.80748-35.32466C596.57551.68938,610.86529.69489,615.29949.68938a68.91236,68.91236,0,0,1,13.51214,1.35673l.77212,1.14716c-.77763,8.49887-.97068,10.62773-1.16369,20.08072l-1.34572,1.15267a8.28782,8.28782,0,0,0-4.64378-1.35121,8.67838,8.67838,0,0,0-7.51717,4.07019c-2.32739,3.447-2.32187,7.12008-2.32739,19.09351,5.984,0,7.91426.00551,13.51766-.375l1.15267,1.15267c-.77212,8.49888-.77763,10.42919-1.15267,18.92805Z"/><path class="cls-1" d="M662.0019,102.81375c.36953,16.99223,9.646,25.67863,24.12335,25.68414,11.57086,0,18.33791-4.81475,21.0238-6.93808l1.36777.77212c-.59565,8.30585-.7887,11.96793-.99269,20.06419l-.76665,1.56079c-4.05366,3.46905-16.20359,6.17147-27.41039,6.17147-33.21236-.011-46.53146-21.05691-46.52043-53.50264A86.81107,86.81107,0,0,1,635.154,75.5909c5.813-23.54977,22.03311-32.23616,39.0033-32.24168A40.45974,40.45974,0,0,1,690.576,46.63627C708.72089,54.76562,711.8039,72.91052,711.80946,91.64c.00555,3.67311-.19853,7.32966-.19306,10.03761l-1.36776,1.15266Zm21.41542-18.3269a56.85575,56.85575,0,0,0-.5736-9.85561c-.95962-6.359-4.03708-11.58186-9.646-11.58186-2.70247.00551-10.80973,1.15267-11.39986,21.42092Z"/><path class="cls-1" d="M754.27623,44.16c-.19305,4.43971-.19305,5.02431-.1875,9.657,4.44523-4.05916,11.41089-10.23614,22.40815-10.23614,11.77485,0,18.906,7.1642,22.95414,13.5287,6.76159,10.41815,8.11278,24.71346,8.12388,34.172-.022,13.69968-1.96888,43.432-28.99325,54.05416-8.31138,3.083-13.32465,2.88442-23.75934,2.87891.193,14.08574.76665,31.46955,1.15822,39.18526l-1.16369,1.15818c-3.8606-.193-7.71573-.39157-11.38328-.39157-5.995,0-10.99171.38055-17.96292.78315l-1.15267-1.17474c.57907-15.43695.77767-30.88493.7887-46.13437.011-30.68639.02205-61.58787-2.67486-92.08676l.96517-1.15266c14.09677-1.93583,17.75885-2.70244,29.54472-5.20632Zm1.14156,83.40035a13.48541,13.48541,0,0,0,2.69691.193h1.54424c16.99775-1.73176,17.38377-24.708,17.39488-34.172,0-5.20081-.38611-14.10228-3.276-20.45576-.59009-1.36224-3.287-6.95462-9.271-6.96013-4.25217,0-7.15315,2.89546-9.47507,5.20632.011,20.26823.20408,29.55578.386,56.18851"/><path class="cls-1" d="M864.09418,139.74884c-3.072,2.88994-10.22514,9.83906-22.95414,9.83906-14.48834,0-25.87718-11.2013-25.88265-31.86664,0-29.14215,25.51321-35.70519,48.27977-39.94636,0-6.55753.00555-13.89271-13.68315-13.89822-12.7566,0-20.46131,5.0188-24.71348,7.71572l-1.34572-.77765c.568-8.88493.77768-11.3833.94859-19.4906l1.17472-1.54425c11.17921-5.0188,25.68968-6.3645,32.82079-6.3645,7.52823.00551,22.76664,1.16921,29.93082,13.52871,4.23013,7.52269,4.22466,16.41314,3.83855,32.24168l-.20407,15.24943c-.17647,16.20356.00555,27.22287,1.53322,42.26825l-1.34572,1.17474c-12.93308-.204-15.823,0-27.01882.36953l-1.35675-.97067Zm-.364-44.19857c-8.1073,1.14716-20.85288,3.2705-20.84186,18.91151-.011,8.1073,4.23568,13.31913,10.41264,13.32465,5.5979,0,8.87943-3.48008,10.42922-5.21184Z"/><path class="cls-1" d="M920.2717,187.6591c4.8368-11.20129,6.94909-17.58235,13.1316-36.30084-8.67535-30.49887-24.28884-80.12435-32.96418-104.07673l.94859-1.14715c14.09121-.193,16.8047-.38055,30.50442-1.34019l1.5498,1.15267c2.11228,10.24167,2.70246,13.13162,7.90323,34.1775l7.32962,29.15869,7.93084-31.089c3.651-13.89272,3.85513-15.0509,7.52823-31.453l1.15822-1.15818c10.80421.20406,13.5177.19854,23.94683-.38055L990,46.34949c-5.01327,15.255-6.177,19.50715-17.58237,56.75659l-9.65155,31.67361c-7.73222,26.82025-11.01931,38.58964-14.11334,52.49337l-1.34572,1.15818c-12.54151,0-15.05639,0-26.08125.39158Z"/><path class="cls-1" d="M0,223.33654H6.64a7.51028,7.51028,0,0,0,3.04238,5.34663,11.7458,11.7458,0,0,0,7.39221,2.11052,11.35759,11.35759,0,0,0,7.03179-1.96332,6.339,6.339,0,0,0,2.58457-5.33148,5.39786,5.39786,0,0,0-1.71763-4.18639,12.48865,12.48865,0,0,0-5.44621-2.485L12.004,214.92913a19.72706,19.72706,0,0,1-4.05544-1.47195A15.34707,15.34707,0,0,1,4.563,211.15185,9.44488,9.44488,0,0,1,2.143,207.68411a11.98584,11.98584,0,0,1-.86693-4.66044,11.63041,11.63041,0,0,1,2.24039-7.11513,13.49746,13.49746,0,0,1,5.7893-4.49594,20.22654,20.22654,0,0,1,7.83379-1.47194,20.32173,20.32173,0,0,1,7.71906,1.42216,13.44789,13.44789,0,0,1,5.75683,4.39852,11.69075,11.69075,0,0,1,2.32265,7.06535H26.429a7.44938,7.44938,0,0,0-2.69821-5.19944A10.06242,10.06242,0,0,0,17.041,195.599a10.62712,10.62712,0,0,0-6.52528,1.84859A6.0005,6.0005,0,0,0,8.047,202.5323q0,4.71132,6.24711,6.21465l7.45715,1.89838a28.134,28.134,0,0,1,3.82706,1.21,17.23685,17.23685,0,0,1,3.222,1.71655,10.7737,10.7737,0,0,1,2.51854,2.32265,10.2528,10.2528,0,0,1,1.58668,3.07377,12.64565,12.64565,0,0,1,.58877,3.97426,11.82148,11.82148,0,0,1-4.72646,9.99192q-4.72755,3.58462-12.2821,3.58246a23.374,23.374,0,0,1-6.34561-.80091,15.01847,15.01847,0,0,1-4.67776-2.11051,13.01654,13.01654,0,0,1-3.07486-3.05862A12.16719,12.16719,0,0,1,.605,226.99909,14.46548,14.46548,0,0,1,0,223.33654Z"/><path class="cls-1" d="M41.14742,235.60132V201.12746h6.509v4.44831h.32686a8.34037,8.34037,0,0,1,3.222-3.51752,10.135,10.135,0,0,1,5.60964-1.4871,12.279,12.279,0,0,1,6.37807,1.4871,7.91092,7.91092,0,0,1,3.46774,4.17123h.29439a8.70171,8.70171,0,0,1,3.77727-4.024,13.06462,13.06462,0,0,1,6.75473-1.63429q5.39642,0,8.4388,3.10624a11.5439,11.5439,0,0,1,3.0413,8.43988v23.484h-6.574V213.65416a7.60891,7.60891,0,0,0-1.815-5.3488,6.64284,6.64284,0,0,0-5.15182-1.97847,6.65052,6.65052,0,0,0-5.25031,2.12567,8.23014,8.23014,0,0,0-1.88,5.65834v21.49042H61.81962V214.1109a8.17174,8.17174,0,0,0-1.86483-5.78822,6.73047,6.73047,0,0,0-5.16805-1.99579,6.806,6.806,0,0,0-5.06956,2.02826,7.76941,7.76941,0,0,0-1.9947,5.69081v21.55536Z"/><path class="cls-1" d="M117.55555,231.08808a10.41464,10.41464,0,0,1-3.81083,3.64739,11.91609,11.91609,0,0,1-6.035,1.42216,11.58338,11.58338,0,0,1-8.14442-2.84648,9.78978,9.78978,0,0,1-3.10732-7.587,9.253,9.253,0,0,1,3.15711-7.37706q3.156-2.73067,8.97779-2.73176h8.86416v-3.85953q0-5.7211-6.67247-5.72328-6.18217,0-6.70494,5.16914h-6.3456a10.49694,10.49694,0,0,1,3.51644-7.73639q3.28752-2.89626,9.796-2.8941,6.14972,0,9.58389,2.74691,3.43365,2.74692,3.43418,8.50482v23.77844H117.785v-4.51324Zm-7.915-.16452a8.04178,8.04178,0,0,0,5.57609-2.01094,6.43645,6.43645,0,0,0,2.24039-4.9873v-3.63225h-7.94744a7.17346,7.17346,0,0,0-4.77625,1.37454,4.65587,4.65587,0,0,0-1.60182,3.72966,4.83113,4.83113,0,0,0,1.88,4.10413A7.45391,7.45391,0,0,0,109.64058,230.92356Z"/><path class="cls-1" d="M133.90931,235.60132V201.12746h6.574v4.25133h.22945a9.31283,9.31283,0,0,1,.93187-1.65162,8.52884,8.52884,0,0,1,1.43948-1.48926,6.47961,6.47961,0,0,1,2.45252-1.21,13.247,13.247,0,0,1,3.54891-.42426,15.41329,15.41329,0,0,1,2.29018.16234v5.92026a15.411,15.411,0,0,0-2.9439-.19482q-7.85111,0-7.85,8.17581v20.93411Z"/><path class="cls-1" d="M161.123,201.25733v-8.6347h6.509v8.6347h6.76987v5.33148h-6.76987v19.00327q0,2.91252,1.16024,3.94179,1.16077,1.02928,4.23617,1.03037.7192,0,1.57044-.06494v5.13449a22.79517,22.79517,0,0,1-8.30784-.34417,6.50724,6.50724,0,0,1-3.17335-1.84643,7.17242,7.17242,0,0,1-1.6029-3.05862,18.31956,18.31956,0,0,1-.45782-4.46563V206.58881h-4.7427v-5.33148Z"/><path class="cls-1" d="M195.36852,190.9537h16.77912q6.57506,0,10.532,3.95911a13.89192,13.89192,0,0,1,3.958,10.269,13.71716,13.71716,0,0,1-3.958,10.2387q-3.958,3.89309-10.56446,3.892H202.07346v16.28882h-6.70494Zm6.70494,5.69081V213.7191h6.28067a26.2921,26.2921,0,0,0,4.82387-.37665,10.46534,10.46534,0,0,0,3.51644-1.30743,5.69436,5.69436,0,0,0,2.28909-2.617,10.40064,10.40064,0,0,0,.75329-4.23618,8.55911,8.55911,0,0,0-2.22415-6.2969,8.37763,8.37763,0,0,0-6.21465-2.24039Z"/><path class="cls-1" d="M251.33282,231.08808a10.41464,10.41464,0,0,1-3.81083,3.64739,11.91609,11.91609,0,0,1-6.035,1.42216,11.58338,11.58338,0,0,1-8.14442-2.84648,9.78978,9.78978,0,0,1-3.10732-7.587,9.253,9.253,0,0,1,3.15711-7.37706q3.156-2.73067,8.9778-2.73176h8.86415v-3.85953q0-5.7211-6.67247-5.72328-6.18217,0-6.70493,5.16914h-6.34561a10.49694,10.49694,0,0,1,3.51644-7.73639q3.28752-2.89626,9.796-2.8941,6.14971,0,9.58389,2.74691,3.43365,2.74692,3.43419,8.50482v23.77844h-6.27959v-4.51324Zm-7.915-.16452a8.04177,8.04177,0,0,0,5.57608-2.01094,6.43645,6.43645,0,0,0,2.24039-4.9873v-3.63225H243.2869a7.17348,7.17348,0,0,0-4.77626,1.37454,4.65587,4.65587,0,0,0-1.60182,3.72966,4.83116,4.83116,0,0,0,1.88,4.10413A7.45392,7.45392,0,0,0,243.41786,230.92356Z"/><path class="cls-1" d="M295.42413,201.12746q-11.939,34.14485-11.97148,34.27688l-.88316,2.38759a33.08585,33.08585,0,0,1-1.341,3.19066,19.3503,19.3503,0,0,1-1.70032,2.76423,10.08192,10.08192,0,0,1-2.29017,2.32048,10.96348,10.96348,0,0,1-3.05862,1.4568,13.528,13.528,0,0,1-4.07167.57146,25.2496,25.2496,0,0,1-3.892-.29439v-5.1345a15.61446,15.61446,0,0,0,2.61595.16235,6.66462,6.66462,0,0,0,4.46455-1.29012,7.41283,7.41283,0,0,0,2.143-3.94179l.45782-1.63646-12.46177-34.83319h7.32619l8.63578,28.25922h.29439l8.69964-28.25922Z"/><path class="cls-1" d="M301.73727,235.60132V201.12746h6.509v4.44831h.32685a8.34037,8.34037,0,0,1,3.22205-3.51752,10.135,10.135,0,0,1,5.60964-1.4871,12.27909,12.27909,0,0,1,6.37808,1.4871,7.911,7.911,0,0,1,3.46773,4.17123h.29439a8.70168,8.70168,0,0,1,3.77728-4.024,13.06456,13.06456,0,0,1,6.75472-1.63429q5.39642,0,8.4388,3.10624a11.5439,11.5439,0,0,1,3.0413,8.43988v23.484h-6.574V213.65416a7.60891,7.60891,0,0,0-1.815-5.3488,7.61987,7.61987,0,0,0-10.40212.1472,8.23014,8.23014,0,0,0-1.88,5.65834v21.49042h-6.47657V214.1109a8.17174,8.17174,0,0,0-1.86483-5.78822,6.73047,6.73047,0,0,0-5.168-1.99579,6.806,6.806,0,0,0-5.06956,2.02826,7.76941,7.76941,0,0,0-1.9947,5.69081v21.55536Z"/><path class="cls-1" d="M372.289,236.1901q-7.26016,0-11.137-4.38337-3.87522-4.38337-3.87576-11.808v-3.0413q0-7.45822,3.81083-11.93792,3.81029-4.48078,10.77768-4.48078,7.03125,0,10.7766,4.46346,3.74535,4.46454,3.74589,11.8903v3.00884h-22.537v.98057a11.27928,11.27928,0,0,0,2.143,7.01556,7.369,7.369,0,0,0,6.26335,2.83134,7.72331,7.72331,0,0,0,4.92236-1.39186,5.96317,5.96317,0,0,0,2.20792-3.45042h6.57506a11.26192,11.26192,0,0,1-1.12885,3.53268,13.17423,13.17423,0,0,1-2.42006,3.27075,11.219,11.219,0,0,1-4.17015,2.53478A17.14527,17.14527,0,0,1,372.289,236.1901Zm-8.43881-21.12893h16.028v-.09958a9.75508,9.75508,0,0,0-2.15921-6.55665,8.01267,8.01267,0,0,0-11.70956.01515,9.77634,9.77634,0,0,0-2.15922,6.5415Z"/><path class="cls-1" d="M394.10628,235.60132V201.12746h6.509v4.67559h.22945a8.53172,8.53172,0,0,1,3.63008-3.71233,12.30064,12.30064,0,0,1,6.28067-1.51957,12.44127,12.44127,0,0,1,8.81437,3.20365q3.4515,3.208,3.4515,8.96372v22.8628h-6.64V214.99406q0-8.60115-7.75261-8.60223a7.5494,7.5494,0,0,0-5.87048,2.27286q-2.078,2.27611-2.077,6.55882v20.37781Z"/><path class="cls-1" d="M434.1097,201.25733v-8.6347h6.509v8.6347h6.76988v5.33148h-6.76988v19.00327q0,2.91252,1.16024,3.94179,1.16079,1.02928,4.23618,1.03037.7192,0,1.57044-.06494v5.13449a22.79517,22.79517,0,0,1-8.30784-.34417,6.50715,6.50715,0,0,1-3.17335-1.84643,7.17255,7.17255,0,0,1-1.60291-3.05862,18.32011,18.32011,0,0,1-.45781-4.46563V206.58881H429.301v-5.33148Z"/><path class="cls-1" d="M465.14938,223.33654h6.63892a7.51635,7.51635,0,0,0,3.0413,5.34663,11.75,11.75,0,0,0,7.39221,2.11052,11.35883,11.35883,0,0,0,7.03287-1.96332,6.33616,6.33616,0,0,0,2.58457-5.33148,5.40444,5.40444,0,0,0-1.71655-4.18639,12.49473,12.49473,0,0,0-5.44621-2.485l-7.52424-1.89837a19.78355,19.78355,0,0,1-4.05652-1.47195,15.33405,15.33405,0,0,1-3.38331-2.30533,9.44967,9.44967,0,0,1-2.42222-3.46774,11.9856,11.9856,0,0,1-.86585-4.66044,11.63041,11.63041,0,0,1,2.24039-7.11513,13.48785,13.48785,0,0,1,5.79038-4.49594,21.62036,21.62036,0,0,1,15.55285-.04978,13.45757,13.45757,0,0,1,5.75575,4.39852,11.68375,11.68375,0,0,1,2.32265,7.06535h-6.509a7.44643,7.44643,0,0,0-2.69929-5.19944,10.05735,10.05735,0,0,0-6.6887-2.02825,10.62151,10.62151,0,0,0-6.52419,1.84859,5.99866,5.99866,0,0,0-2.46984,5.08471q0,4.71132,6.24711,6.21465l7.45715,1.89838a28.134,28.134,0,0,1,3.82706,1.21,17.16053,17.16053,0,0,1,3.221,1.71655,10.73679,10.73679,0,0,1,2.51962,2.32265,10.2778,10.2778,0,0,1,1.58668,3.07377,12.64565,12.64565,0,0,1,.58878,3.97426,11.81959,11.81959,0,0,1-4.72755,9.99192q-4.72431,3.58462-12.2821,3.58246a23.36028,23.36028,0,0,1-6.34453-.80091,15.007,15.007,0,0,1-4.67776-2.11051,12.97117,12.97117,0,0,1-3.07377-3.05862,12.14468,12.14468,0,0,1-1.78366-3.54783A14.46445,14.46445,0,0,1,465.14938,223.33654Z"/><path class="cls-1" d="M519.64173,236.1901q-7.26015,0-11.137-4.38337t-3.87685-11.808v-3.0413q0-7.45822,3.81191-11.93792,3.80866-4.48078,10.77769-4.48078,7.03287,0,10.77768,4.46346,3.74373,4.46454,3.74481,11.8903v3.00884H511.204v.98057a11.29169,11.29169,0,0,0,2.14082,7.01556,7.37242,7.37242,0,0,0,6.26443,2.83134,7.72334,7.72334,0,0,0,4.92237-1.39186,5.96322,5.96322,0,0,0,2.20792-3.45042h6.574a11.20391,11.20391,0,0,1-1.12778,3.53268,13.2012,13.2012,0,0,1-2.42,3.27075,11.2239,11.2239,0,0,1-4.17124,2.53478A17.13465,17.13465,0,0,1,519.64173,236.1901ZM511.204,215.06117h16.02691v-.09958a9.76562,9.76562,0,0,0-2.15813-6.55665,8.01391,8.01391,0,0,0-11.71064.01515,9.77576,9.77576,0,0,0-2.15814,6.5415Z"/><path class="cls-1" d="M541.95039,235.60132V201.12746h6.574v4.25133h.22945a9.44936,9.44936,0,0,1,.93079-1.65162,8.56877,8.56877,0,0,1,1.43948-1.48926,6.482,6.482,0,0,1,2.45469-1.21,13.2273,13.2273,0,0,1,3.54782-.42426,15.41329,15.41329,0,0,1,2.29018.16234v5.92026a15.41873,15.41873,0,0,0-2.9439-.19482q-7.85111,0-7.8511,8.17581v20.93411Z"/><path class="cls-1" d="M574.16655,235.60132,562.194,201.12746h7.26232l8.0784,27.89989h.26192l8.73427-27.89989h6.99824L581.167,235.60132Z"/><path class="cls-1" d="M600.15292,195.41933a3.6068,3.6068,0,0,1-1.16024-2.73176,3.55015,3.55015,0,0,1,1.16024-2.71444,4.08862,4.08862,0,0,1,2.89627-1.08015,4.258,4.258,0,0,1,2.99151,1.06283,3.53652,3.53652,0,0,1,1.16241,2.73176,3.58156,3.58156,0,0,1-1.16241,2.74691,4.211,4.211,0,0,1-2.99151,1.08015A4.06266,4.06266,0,0,1,600.15292,195.41933Zm-.342,40.182V201.12746h6.574v34.47386Z"/><path class="cls-1" d="M615.05205,220.13073v-3.69719q0-7.03287,3.89417-11.46387,3.88983-4.43208,10.76037-4.431,6.18217,0,9.7971,3.27075a10.41305,10.41305,0,0,1,3.67987,7.81647h-6.31422a6.28419,6.28419,0,0,0-2.12566-3.85953,7.7835,7.7835,0,0,0-11.00714,1.22734,12.9491,12.9491,0,0,0-2.07588,7.60434v3.56515a11.97928,11.97928,0,0,0,2.17545,7.42467,7.10508,7.10508,0,0,0,6.00035,2.879,8.02127,8.02127,0,0,0,4.97215-1.37454,6.00026,6.00026,0,0,0,2.29018-3.53268h6.31206a9.947,9.947,0,0,1-3.90716,7.5394,14.89435,14.89435,0,0,1-9.7971,3.09109q-6.93547,0-10.79284-4.39852Q615.05314,227.392,615.05205,220.13073Z"/><path class="cls-1" d="M664.08305,236.1901q-7.26016,0-11.137-4.38337t-3.87685-11.808v-3.0413q0-7.45822,3.81191-11.93792,3.80867-4.48078,10.77769-4.48078,7.03287,0,10.77768,4.46346,3.74373,4.46454,3.74481,11.8903v3.00884H655.64533v.98057a11.29168,11.29168,0,0,0,2.14081,7.01556,7.37244,7.37244,0,0,0,6.26444,2.83134,7.72331,7.72331,0,0,0,4.92236-1.39186,5.96317,5.96317,0,0,0,2.20792-3.45042h6.574a11.20414,11.20414,0,0,1-1.12777,3.53268,13.2015,13.2015,0,0,1-2.42006,3.27075,11.22382,11.22382,0,0,1-4.17124,2.53478A17.13463,17.13463,0,0,1,664.08305,236.1901Zm-8.43772-21.12893h16.0269v-.09958a9.76562,9.76562,0,0,0-2.15813-6.55665,8.01391,8.01391,0,0,0-11.71064.01515,9.77576,9.77576,0,0,0-2.15813,6.5415Z"/><path class="cls-1" d="M684.331,211.06959a10.18618,10.18618,0,0,1,1.06283-4.7427,8.66265,8.66265,0,0,1,2.92658-3.30322,14.04235,14.04235,0,0,1,4.17124-1.86374,18.921,18.921,0,0,1,4.95483-.62125q5.91918,0,9.2408,2.8941a9.4948,9.4948,0,0,1,3.32054,7.50694H703.988a5.92414,5.92414,0,0,0-1.76634-3.84438q-1.60074-1.617-4.97215-1.61915a7.81343,7.81343,0,0,0-4.7427,1.32476,4.282,4.282,0,0,0-1.79881,3.64739,3.37274,3.37274,0,0,0,.54116,1.88107,6.15332,6.15332,0,0,0,1.06283,1.29228,5.49625,5.49625,0,0,0,1.91353.88317c.92646.28356,1.57369.46323,1.946.539q.55524.11364,2.29018.40912c.12988.02164.23378.039.30954.04978s.16884.026.27924.04762c.10823.02165.20564.04546.29439.06494q2.12351.39288,3.695.81823a18.53735,18.53735,0,0,1,3.14088,1.17756,8.964,8.964,0,0,1,2.54993,1.75118,7.48944,7.48944,0,0,1,1.58667,2.50231,9.15323,9.15323,0,0,1,.6061,3.4331,9.49949,9.49949,0,0,1-3.77944,8.01346q-3.77621,2.88-10.22138,2.879-5.98411,0-9.60013-2.69929a8.64162,8.64162,0,0,1-3.61276-7.31h6.40946a5.29438,5.29438,0,0,0,2.1603,3.6474,8.112,8.112,0,0,0,4.93752,1.35722,8.73057,8.73057,0,0,0,5.46352-1.42216,4.479,4.479,0,0,0,1.79881-3.67987q0-2.6495-2.9439-3.892a37.12187,37.12187,0,0,0-5.6908-1.407q-2.19169-.45781-3.66472-.86585a20.23006,20.23006,0,0,1-3.09109-1.1624,8.73964,8.73964,0,0,1-2.56725-1.71655,7.56905,7.56905,0,0,1-1.56935-2.48716A9.11315,9.11315,0,0,1,684.331,211.06959Z"/></g></g></svg>