<svg xmlns="http://www.w3.org/2000/svg" viewBox="0 0 990 208.33862"><defs><style>.cls-1{fill:#00abee;}.cls-2{fill:#969595;}</style></defs><g id="Layer_2" data-name="Layer 2"><g id="Layer_1-2" data-name="Layer 1"><path class="cls-1" d="M59.29226,86.34025l9.76911-43.40379C72.04963,30.50713,72.526,27.9952,74.73231,16.82858l.94365-.94815c13.373.00449,17.3049-.15728,32.56071-.46284l1.10543.93916c.14829,13.05394.30557,16.50953,1.09195,33.66164l.93018,24.38683c1.402,29.41518,1.72555,36.33534,2.66471,51.58666l-.79088.94815c-11.63845-.16626-15.2603,0-24.69689.46734l-.94365-.95266c-.14829-19.66853-.14829-22.18047-.61562-44.03739l-.30107-42.15906-11.971,51.44736c-3.93191,17.45319-5.67093,25.317-7.39648,34.28176l-1.11441.94814c-8.0211-.16626-10.6948,0-19.03045.45835l-.94366-.93916c-2.19737-10.06119-4.86208-22.18047-7.37851-33.18981L27.22136,41.503l-.95264,36.18255c-.79987,32.7135-.79987,36.17807-.80436,48.28386l-.77739.95715c-8.49742-.0045-11.3239-.0045-20.6077.45835l-.79088-.93916c1.429-25.79333,1.58624-28.63329,2.52541-45.61915L7.24726,46.21681c.47183-14.77948.6336-22.18046.79087-29.41068l.94366-.94816c13.84931.0045,18.09577.0045,33.35607-.45385l.93917.94366c1.72555,8.33115,1.89181,8.81646,5.65746,25.32149Z"/><path class="cls-1" d="M167.35463,118.00223c-4.40374,4.70481-11.17561,10.542-21.71314,10.533-16.99484-.009-18.55412-15.2648-19.03044-19.04392-.47183-4.71829-.47183-9.9219-.46734-19.1967l.00449-8.33116c.17075-22.64781.009-26.42244-.46284-37.11723l.78638-.94365a192.19165,192.19165,0,0,0,22.97583-.93019l.93467.93468c0,5.50467-.32353,32.40343-.32353,38.38442-.0045,3.77015-.0045,16.66681.46733,19.50677.16177,1.72555,1.10093,7.383,7.54478,7.37851,4.55652.009,6.92465-2.51194,8.96475-4.54753l.00449-12.90116c0-2.98826-.46285-33.81442-.92569-46.87735l.93916-.93467c10.38474-.15728,13.05843-.31006,23.12413-.93467l.93916.93467c-.15728,9.75563-.319,15.26929-.319,30.20156,0,3.29831-.009,23.60044.1438,32.71349.15727,8.812.31006,14.31664.46733,19.19221l-.78637.94814c-11.17112-.16625-13.05394-.009-22.81407.29659l-.78638-.62461Z"/><path class="cls-1" d="M229.95063,126.98945c-10.38024-.16626-13.36848-.17075-24.36885.45835l-.79987-.93916c.32353-9.76013.63808-20.29763.64708-42.63538,0-14.31665.009-28.94784-.1438-43.251-.30108-15.73213-.78189-21.084-1.24922-28.6288l.79087-.95264c10.533-1.71206,14.31665-2.34117,24.05879-4.39925l.95266.94816c-.17075,9.131-.17075,14.93676-.17526,27.99969,0,5.19911.14829,40.58181.29659,61.34229.31006,13.84032.62012,21.55137.93467,29.10962Z"/><path class="cls-1" d="M280.62509,61.23444c-6.92466-.1438-7.07742-.15279-10.86106-.15279V80.90747c-.16178,4.242-.16178,9.90841-.16627,14.15038,0,8.03009.15276,15.73662,7.23022,15.73662a9.21886,9.21886,0,0,0,5.19461-1.57275l.93467.78188c-.47184,6.92466-.62461,8.0211-.7819,15.42207l-.94815,1.25372a45.41852,45.41852,0,0,1-12.90117,1.56826c-3.46006.0045-13.373-.00449-18.7114-7.08642-3.93191-5.3429-3.93191-12.27654-3.77014-23.43418l.00449-9.43659c0-3.93191.15727-23.12861.16176-27.52337-2.82648-.00449-4.40822.1483-7.70205.31006l-.78638-.95264c.31006-7.07294.31006-7.07294.6336-15.4041l.93916-.93916a53.14878,53.14878,0,0,0,7.08193,0c0-2.83547,0-4.40824-.16176-19.2012l.79087-1.09644c10.38923-2.51193,13.382-3.46458,22.504-6.28657l1.10094.79088c-.319,6.92465-.47633,8.812-.63808,26.26965,5.653-.16627,6.92016-.16627,11.48118-.47183l.94814.94365c-.47633,7.23921-.47633,8.18287-.79537,15.41309Z"/><path class="cls-1" d="M315.52247,127.00743c-10.07017-.15728-13.85381-.16626-24.84967.46734l-.95263-.94815c.47633-10.0657.80436-19.97859.80436-37.75083.009-24.84967-.77738-33.50436-1.402-41.84l.7819-.93916c11.01835-1.57726,13.84931-2.05359,24.69241-4.40374l.94814.94366c-.15729,2.19737-.16178,4.40823-.16178,6.45282-.15729,9.44108-.32353,18.7159-.319,28.166-.00449,16.35225.30107,32.55622,1.402,48.90847Zm-2.32768-98.00117c-9.44107,1.10094-12.26758,1.411-21.8659,3.13654l-.94815-.94365c.16628-8.32667.00449-10.38025-.30108-19.03494l.93917-.93917c10.85656-1.09644,12.73489-1.411,22.33325-2.82648l.94815.94366c-.31905,8.96925-.16179,11.3284-.16628,18.72039Z"/><path d="M383.49732,39.409c-3.9364-3.3073-8.80747-7.2437-17.61046-7.2437-8.03009,0-13.21571,4.71379-13.22021,11.48567,0,5.03734,2.50743,8.49292,7.55376,12.26306,1.56378,1.41549,10.06119,7.08193,11.944,8.34014,9.90393,6.92915,17.92052,14.16386,17.916,29.8915-.00449,10.542-3.77461,18.5676-8.18735,23.59146-8.18286,9.2883-19.345,11.3239-30.04427,11.31941-6.14275.00449-15.41309-.94365-23.59146-5.03284l-.93916-1.57275c.15729-3.30281.46732-6.76738.63359-10.232.16179-2.98376.31006-5.981.31455-8.96026l1.25821-.47182a28.2412,28.2412,0,0,0,19.50229,7.71552c11.79124.00449,14.93675-8.33115,14.93675-13.68754.01348-6.91117-4.39923-10.6903-11.944-15.88491l-6.60562-4.5745c-8.17837-5.81922-18.40134-13.04944-18.39685-30.35434.00449-11.32391,4.25544-19.026,8.821-23.43419,7.3965-7.23022,17.30039-8.80748,26.11236-8.79849a52.5343,52.5343,0,0,1,23.43869,5.03734l.62461,1.26271c-.31455,3.3028-.6291,6.60111-.79088,9.90392l-.47185,8.97374Z"/><path d="M436.477,120.43327c-2.51192,2.35016-8.33114,8.01211-18.72038,8.01661-11.79573-.0045-21.07056-9.131-21.06607-25.96409.009-23.73525,20.774-29.10062,39.33257-32.55172,0-5.33841.00449-11.32839-11.16662-11.32839a34.724,34.724,0,0,0-20.12687,6.3l-1.10544-.63809c.47184-7.23921.6291-9.27481.79089-15.88491l.94814-1.25822c9.122-4.08918,20.91776-5.18562,26.746-5.18113,6.12928,0,18.55411.94365,24.36884,11.01384,3.46459,6.13378,3.46006,13.37748,3.15,26.28313l-.16627,12.42034a272.558,272.558,0,0,0,1.24473,34.439l-1.10095.95715c-10.53752-.15728-12.89667-.00449-22.00972.30108l-1.11442-.78638ZM436.18041,84.408c-6.60112.94815-16.98584,2.6692-16.99482,15.41309,0,6.6101,3.46006,10.85207,8.49741,10.85207a11.14257,11.14257,0,0,0,8.48843-4.23748Z"/><path d="M510.2756,61.30634c-4.56551-.15728-7.08644-.14829-9.90842-.15728-.018,37.12172.61563,51.90122,1.074,65.11692l-.94365.78638c-11.3149.00449-13.67406.00449-24.06331.46284l-.7819-.93916c0-1.88731.009-3.93191.17077-5.82373.30107-11.00036.31455-45.77641.31455-59.774-3.45558,0-4.39474.15727-7.86831.32354l-.77738-.94815c.31455-5.82372.46732-8.01661.79088-15.57037l.94815-.93467a51.92,51.92,0,0,0,6.91118.30557c-.14378-12.26756-.30557-22.33325,4.73178-28.78158,6.29106-8.16939,17.934-8.1649,21.54686-8.16939a56.14775,56.14775,0,0,1,11.00933,1.10543l.62911.93467c-.6336,6.92466-.79089,8.65919-.94815,16.36124l-1.09645.93916a6.75276,6.75276,0,0,0-3.78364-1.10093,7.07094,7.07094,0,0,0-6.12479,3.31628c-1.89629,2.80851-1.8918,5.80126-1.89629,15.55689,4.87557,0,6.44832.00449,11.01383-.30557l.93916.93916c-.6291,6.92466-.63359,8.49742-.93916,15.42207Z"/><path d="M540.47264,90.41146c.30107,13.84481,7.85932,20.92226,19.65505,20.92675,9.42763,0,14.94125-3.92293,17.12963-5.653l1.11442.6291c-.48531,6.76738-.64261,9.75115-.80881,16.34776l-.62465,1.2717c-3.30281,2.82649-13.20224,5.02835-22.33325,5.02835-27.06054-.009-37.91258-17.15661-37.9036-43.59253A70.73118,70.73118,0,0,1,518.59772,68.231c4.73627-19.18772,17.952-26.26515,31.77885-26.26965a32.96533,32.96533,0,0,1,13.3775,2.6782c14.784,6.62357,17.2959,21.40756,17.30043,36.66786.00453,2.99275-.16175,5.972-.15729,8.17837l-1.11442.93917Zm17.4487-14.93227a46.32277,46.32277,0,0,0-.46735-8.03009c-.78187-5.18113-3.2893-9.43659-7.85929-9.43659-2.2019.0045-8.80748.93917-9.2883,17.45319Z"/><path d="M615.65529,42.62191c-.15729,3.61736-.15729,4.09367-.15277,7.86831,3.62185-3.3073,9.29729-8.34014,18.25756-8.34014,9.59384,0,15.40407,5.8372,18.70242,11.02283,5.50916,8.48843,6.61008,20.13586,6.61913,27.84241-.018,11.16212-1.6042,35.38719-23.62293,44.04187-6.77189,2.51194-10.85657,2.35016-19.35848,2.34567.1573,11.47668.62465,25.64055.94369,31.9271l-.94814.94366c-3.14552-.15728-6.28657-.31905-9.2748-.31905-4.88458,0-8.95575.31006-14.6357.63809l-.93917-.95715c.47181-12.57761.63363-25.16421.64261-37.589.009-25.00245.018-50.18016-2.1794-75.02983l.78639-.93917c11.48567-1.57725,14.46944-2.20186,24.07226-4.242Zm.93011,67.95238a10.98812,10.98812,0,0,0,2.19737.15727H620.041c13.84931-1.411,14.16383-20.13137,14.17288-27.84241,0-4.23748-.31459-11.49016-2.66918-16.6668-.48079-1.10992-2.67816-5.66644-7.55376-5.67093-3.46455,0-5.8282,2.35914-7.72,4.242.009,16.514.16627,24.08126.31451,45.7809"/><path d="M705.132,120.50518c-2.503,2.35465-8.33117,8.01661-18.70242,8.01661-11.80471,0-21.084-9.12652-21.08849-25.96409,0-23.74424,20.78748-29.09163,39.33707-32.54723,0-5.3429.00452-11.31941-11.14867-11.3239a34.88552,34.88552,0,0,0-20.13588,6.28656l-1.09646-.6336c.46283-7.23921.63363-9.27481.77289-15.88042l.95713-1.25822c9.10852-4.08918,20.93126-5.18562,26.7415-5.18562,6.1338.00449,18.54965.95264,24.38684,11.02283,3.44659,6.12929,3.44213,13.373,3.12754,26.26966l-.16627,12.42483a278.59494,278.59494,0,0,0,1.24922,34.439l-1.09645.95715c-10.53753-.16626-12.89219,0-22.01421.30108l-1.10544-.79087Zm-.29655-36.01181c-6.60561.93467-16.99037,2.66472-16.98139,15.40859-.009,6.60561,3.45112,10.85208,8.48394,10.85657a11.17011,11.17011,0,0,0,8.49745-4.24646Z"/><path d="M750.904,159.54118c3.94089-9.12651,5.66192-14.32563,10.69927-29.577-7.06844-24.84966-19.78989-65.28318-26.85834-84.79894l.77289-.93467c11.48115-.15728,13.692-.31006,24.85419-1.092l1.26273.93917c1.721,8.34463,2.2019,10.69929,6.43934,27.84691l5.972,23.75772L780.50787,70.352c2.97478-11.31941,3.141-12.26307,6.1338-25.62706l.94369-.94366c8.803.16627,11.01386.16177,19.51124-.31006l.62012.93468c-4.08468,12.42933-5.03282,15.8939-14.32565,46.24375l-7.86382,25.80681c-6.3,21.85243-8.97824,31.44181-11.49918,42.7702l-1.09645.94365c-10.21848,0-12.26754,0-21.25031.31905Z"/><path class="cls-2" d="M908.76,0a11.39356,11.39356,0,1,0,11.38233,11.4003A11.38873,11.38873,0,0,0,908.76,0"/><path class="cls-2" d="M853.82567,23.34881a11.39756,11.39756,0,1,0,16.11861.00449,11.40719,11.40719,0,0,0-16.11861-.00449"/><path class="cls-2" d="M966.64674,39.49884a11.40391,11.40391,0,1,0-16.12759-.00449,11.42079,11.42079,0,0,0,16.12759.00449"/><path class="cls-2" d="M841.83672,68.35233A11.398,11.398,0,1,0,853.228,79.75262a11.39348,11.39348,0,0,0-11.39132-11.40029"/><path class="cls-2" d="M853.79865,120.05581a11.396,11.396,0,1,0,16.10963,0,11.38553,11.38553,0,0,0-16.10963,0"/><path class="cls-2" d="M910.198,136.75407a11.39131,11.39131,0,1,0,11.39133,11.40477A11.404,11.404,0,0,0,910.198,136.75407"/><path class="cls-2" d="M950.49221,120.08277a11.396,11.396,0,1,0,16.132.009,11.43047,11.43047,0,0,0-16.132-.009"/><path class="cls-2" d="M978.60422,68.40175A11.3958,11.3958,0,1,0,990,79.79756a11.39822,11.39822,0,0,0-11.39578-11.39581"/><path d="M0,188.20113H5.40058a6.10836,6.10836,0,0,0,2.47449,4.34862,9.55329,9.55329,0,0,0,6.01237,1.71657,9.23759,9.23759,0,0,0,5.71924-1.59685,5.15569,5.15569,0,0,0,2.10214-4.3363,4.39029,4.39029,0,0,0-1.397-3.405,10.15755,10.15755,0,0,0-4.42962-2.02115l-6.11889-1.544a16.04333,16.04333,0,0,1-3.29844-1.1972,12.48211,12.48211,0,0,1-2.75355-1.875A7.682,7.682,0,0,1,1.743,175.47038a9.74858,9.74858,0,0,1-.70511-3.79053,9.45949,9.45949,0,0,1,1.8222-5.787,10.978,10.978,0,0,1,4.70867-3.65672,16.45107,16.45107,0,0,1,6.37153-1.19719,16.52846,16.52846,0,0,1,6.27823,1.1567,10.93772,10.93772,0,0,1,4.68226,3.57749,9.50859,9.50859,0,0,1,1.8891,5.74653H21.49579a6.05888,6.05888,0,0,0-2.19457-4.22891,8.18413,8.18413,0,0,0-5.44106-1.64966,8.64347,8.64347,0,0,0-5.30727,1.50353A4.88047,4.88047,0,0,0,6.545,171.2802q0,3.8319,5.081,5.05462l6.0652,1.544a22.88286,22.88286,0,0,1,3.1127.98417,14.01888,14.01888,0,0,1,2.62062,1.39613,8.76271,8.76271,0,0,1,2.04843,1.88911,8.339,8.339,0,0,1,1.29051,2.5,10.28514,10.28514,0,0,1,.47887,3.23242,9.61491,9.61491,0,0,1-3.84422,8.12683,16.08867,16.08867,0,0,1-9.98952,2.91376,19.01059,19.01059,0,0,1-5.16114-.65142,12.21513,12.21513,0,0,1-3.80461-1.71656,10.58647,10.58647,0,0,1-2.5009-2.4877A9.89621,9.89621,0,0,1,.49208,191.18,11.76534,11.76534,0,0,1,0,188.20113Z"/><path d="M33.46684,198.17656v-28.039H38.7609v3.618h.26585a6.78351,6.78351,0,0,1,2.62062-2.86094,8.24316,8.24316,0,0,1,4.56254-1.20952,9.987,9.987,0,0,1,5.18754,1.20952,6.43422,6.43422,0,0,1,2.82045,3.39263h.23944a7.0775,7.0775,0,0,1,3.07221-3.27291,10.6259,10.6259,0,0,1,5.49389-1.32924,9.1649,9.1649,0,0,1,6.86361,2.52643,9.38915,9.38915,0,0,1,2.47362,6.8645v19.10051H67.01379v-17.8505a6.18855,6.18855,0,0,0-1.47625-4.35039,5.40284,5.40284,0,0,0-4.19017-1.60917,5.40912,5.40912,0,0,0-4.27029,1.72889,6.69391,6.69391,0,0,0-1.52906,4.60215v17.479H50.28037v-17.479a6.64642,6.64642,0,0,0-1.51674-4.70779,5.47416,5.47416,0,0,0-4.20338-1.62325,5.53559,5.53559,0,0,0-4.12328,1.64966,6.31918,6.31918,0,0,0-1.62237,4.62856v17.53184Z"/><path d="M95.61263,194.50576a8.4707,8.4707,0,0,1-3.0995,2.96657,9.6918,9.6918,0,0,1-4.90849,1.1567,9.42121,9.42121,0,0,1-6.62418-2.31516,7.96242,7.96242,0,0,1-2.52731-6.17083A7.5258,7.5258,0,0,1,81.021,184.143q2.56692-2.221,7.302-2.22185h7.20957V178.782q0-4.65321-5.427-4.655-5.02821,0-5.45339,4.20426H79.491a8.53759,8.53759,0,0,1,2.86006-6.29231q2.67388-2.35564,7.9675-2.35389,5.0018,0,7.795,2.23417,2.79272,2.23417,2.79316,6.91732v19.33995H95.79925v-3.6708Zm-6.43756-.13381a6.54072,6.54072,0,0,0,4.53525-1.63557,5.235,5.235,0,0,0,1.8222-4.05638v-2.95425h-6.464a5.8344,5.8344,0,0,0-3.88472,1.118A3.78677,3.78677,0,0,0,83.881,189.8772a3.92939,3.92939,0,0,0,1.52906,3.33805A6.06256,6.06256,0,0,0,89.17507,194.372Z"/><path d="M108.9138,198.17656v-28.039h5.34688v3.45777h.18662a7.57527,7.57527,0,0,1,.75793-1.34332,6.93713,6.93713,0,0,1,1.17078-1.21128,5.2702,5.2702,0,0,1,1.99474-.98416,10.77433,10.77433,0,0,1,2.88647-.34507,12.53594,12.53594,0,0,1,1.86269.132v4.81518a12.535,12.535,0,0,0-2.39439-.15845q-6.38562,0-6.38474,6.64971v17.02655Z"/><path d="M131.0478,170.24322v-7.023h5.29406v7.023h5.50621v4.33631h-5.50621v15.45612q0,2.36886.94367,3.206a5.29645,5.29645,0,0,0,3.44545.838q.585,0,1.2773-.05282V198.203a18.54022,18.54022,0,0,1-6.7571-.27993,5.29255,5.29255,0,0,1-2.581-1.50177,5.83367,5.83367,0,0,1-1.30371-2.4877,14.90047,14.90047,0,0,1-.37236-3.63207v-15.722h-3.85743v-4.33631Z"/><path d="M158.901,161.86287h13.64713a11.57741,11.57741,0,0,1,8.56609,3.2201,11.29885,11.29885,0,0,1,3.21922,8.35218,11.15673,11.15673,0,0,1-3.21922,8.32754,11.72,11.72,0,0,1-8.5925,3.16552h-8.16733v13.24835H158.901Zm5.45339,4.62856v13.88744h5.10832a21.38441,21.38441,0,0,0,3.92345-.30634,8.51164,8.51164,0,0,0,2.86006-1.06339,4.63142,4.63142,0,0,0,1.86182-2.12854,8.45939,8.45939,0,0,0,.61268-3.44545,6.96146,6.96146,0,0,0-1.809-5.12152,6.81384,6.81384,0,0,0-5.05462-1.8222Z"/><path d="M204.419,194.50576a8.47059,8.47059,0,0,1-3.09949,2.96657,9.69181,9.69181,0,0,1-4.9085,1.1567,9.42123,9.42123,0,0,1-6.62418-2.31516,7.96242,7.96242,0,0,1-2.52731-6.17083,7.52578,7.52578,0,0,1,2.56781-6.00005q2.56692-2.221,7.302-2.22185h7.20957V178.782q0-4.65321-5.427-4.655-5.02821,0-5.45339,4.20426h-5.16114a8.53767,8.53767,0,0,1,2.86006-6.29231q2.67388-2.35564,7.9675-2.35389,5.00181,0,7.795,2.23417,2.79271,2.23417,2.79315,6.91732v19.33995h-5.10743v-3.6708Zm-6.43755-.13381a6.54074,6.54074,0,0,0,4.53525-1.63557,5.235,5.235,0,0,0,1.8222-4.05638v-2.95425h-6.464a5.83437,5.83437,0,0,0-3.88471,1.118,3.78677,3.78677,0,0,0-1.30283,3.03348,3.92939,3.92939,0,0,0,1.52906,3.33805A6.06256,6.06256,0,0,0,197.98148,194.372Z"/><path d="M240.28026,170.13759q-9.71047,27.77136-9.73688,27.87876l-.71831,1.94192a26.91224,26.91224,0,0,1-1.09068,2.59509,15.7388,15.7388,0,0,1-1.38294,2.24826,8.1999,8.1999,0,0,1-1.86269,1.88734,8.91673,8.91673,0,0,1-2.4877,1.18487,11.00274,11.00274,0,0,1-3.31165.46479,20.5368,20.5368,0,0,1-3.16552-.23943v-4.1761a12.69957,12.69957,0,0,0,2.12766.132,5.42063,5.42063,0,0,0,3.6312-1.04931,6.0292,6.0292,0,0,0,1.743-3.206l.37236-1.331-10.13565-28.33123h5.95868l7.02383,22.98435h.23944l7.07576-22.98435Z"/><path d="M245.415,198.17656v-28.039h5.29406v3.618h.26585a6.78351,6.78351,0,0,1,2.62062-2.86094,8.24316,8.24316,0,0,1,4.56254-1.20952,9.987,9.987,0,0,1,5.18754,1.20952,6.43422,6.43422,0,0,1,2.82045,3.39263h.23944a7.0775,7.0775,0,0,1,3.07221-3.27291,10.62587,10.62587,0,0,1,5.49389-1.32924,9.1649,9.1649,0,0,1,6.86361,2.52643,9.38915,9.38915,0,0,1,2.47361,6.8645v19.10051h-5.34687v-17.8505a6.18855,6.18855,0,0,0-1.47625-4.35039,6.19754,6.19754,0,0,0-8.46046.11972,6.69391,6.69391,0,0,0-1.52906,4.60215v17.479h-5.26765v-17.479a6.64642,6.64642,0,0,0-1.51674-4.70779,5.47416,5.47416,0,0,0-4.20338-1.62325,5.53559,5.53559,0,0,0-4.12328,1.64966,6.31918,6.31918,0,0,0-1.62237,4.62856v17.53184Z"/><path d="M302.79753,198.65544q-5.905,0-9.05818-3.56517-3.15187-3.56517-3.15231-9.604V183.0127q0-6.06608,3.0995-9.70959,3.09906-3.6444,8.76592-3.6444,5.7188,0,8.765,3.63031,3.04625,3.6312,3.04668,9.67086v2.44721H295.93392v.79754a9.17389,9.17389,0,0,0,1.743,5.706,5.99351,5.99351,0,0,0,5.09423,2.30284,6.2817,6.2817,0,0,0,4.00356-1.13205,4.85014,4.85014,0,0,0,1.79579-2.80636h5.34776a9.15989,9.15989,0,0,1-.91814,2.87326,10.71516,10.71516,0,0,1-1.96833,2.66024,9.12487,9.12487,0,0,1-3.39176,2.06163A13.94458,13.94458,0,0,1,302.79753,198.65544Zm-6.86361-17.185h13.0362v-.081a7.93417,7.93417,0,0,0-1.75618-5.3328,6.517,6.517,0,0,0-9.52385.01233,7.9515,7.9515,0,0,0-1.75617,5.32047Z"/><path d="M320.5424,198.17656v-28.039h5.29406v3.80285h.18663a6.93914,6.93914,0,0,1,2.95249-3.01939,10.0045,10.0045,0,0,1,5.10832-1.23593,10.11894,10.11894,0,0,1,7.16907,2.60566,9.4612,9.4612,0,0,1,2.80725,7.29055v18.59523h-5.40058V181.41585q0-6.99565-6.30551-6.99654a6.14023,6.14023,0,0,0-4.77469,1.84861,7.64338,7.64338,0,0,0-1.68928,5.33456v16.57408Z"/><path d="M353.07878,170.24322v-7.023h5.29406v7.023h5.50621v4.33631h-5.50621v15.45612q0,2.36886.94367,3.206a5.29646,5.29646,0,0,0,3.44545.838q.585,0,1.2773-.05282V198.203a18.54022,18.54022,0,0,1-6.7571-.27993,5.29259,5.29259,0,0,1-2.581-1.50177,5.83377,5.83377,0,0,1-1.30371-2.4877,14.90047,14.90047,0,0,1-.37236-3.63207v-15.722h-3.85743v-4.33631Z"/><path d="M378.3246,188.20113h5.39969a6.11333,6.11333,0,0,0,2.47362,4.34862,9.55672,9.55672,0,0,0,6.01237,1.71657,9.2386,9.2386,0,0,0,5.72012-1.59685,5.15345,5.15345,0,0,0,2.10213-4.3363,4.39562,4.39562,0,0,0-1.39614-3.405,10.16246,10.16246,0,0,0-4.42961-2.02115l-6.11977-1.544a16.08966,16.08966,0,0,1-3.29933-1.1972,12.47144,12.47144,0,0,1-2.75178-1.875,7.68578,7.68578,0,0,1-1.97009-2.82045,9.74853,9.74853,0,0,1-.70423-3.79053,9.45949,9.45949,0,0,1,1.8222-5.787,10.97012,10.97012,0,0,1,4.70955-3.65672,17.58467,17.58467,0,0,1,12.64975-.04049,10.94549,10.94549,0,0,1,4.68138,3.57749,9.50276,9.50276,0,0,1,1.8891,5.74653H399.8195a6.05647,6.05647,0,0,0-2.19544-4.22891,8.18,8.18,0,0,0-5.44019-1.64966,8.63893,8.63893,0,0,0-5.30638,1.50353,4.879,4.879,0,0,0-2.00882,4.1356q0,3.8319,5.081,5.05462l6.06519,1.544a22.883,22.883,0,0,1,3.11271.98417,13.957,13.957,0,0,1,2.61974,1.39613,8.73283,8.73283,0,0,1,2.04931,1.88911,8.35922,8.35922,0,0,1,1.29051,2.5,10.28514,10.28514,0,0,1,.47887,3.23242,9.61337,9.61337,0,0,1-3.8451,8.12683,16.08517,16.08517,0,0,1-9.98953,2.91376,18.9994,18.9994,0,0,1-5.16025-.65142,12.20565,12.20565,0,0,1-3.80461-1.71656,10.54969,10.54969,0,0,1-2.5-2.4877A9.87759,9.87759,0,0,1,378.8158,191.18,11.76369,11.76369,0,0,1,378.3246,188.20113Z"/><path d="M422.64541,198.65544q-5.905,0-9.05818-3.56517t-3.1532-9.604V183.0127q0-6.06608,3.10038-9.70959,3.09774-3.6444,8.76592-3.6444,5.72013,0,8.76592,3.63031,3.04492,3.6312,3.04581,9.67086v2.44721H415.78267v.79754a9.184,9.184,0,0,0,1.74121,5.706,5.9963,5.9963,0,0,0,5.09512,2.30284,6.28169,6.28169,0,0,0,4.00355-1.13205,4.85009,4.85009,0,0,0,1.79579-2.80636h5.34688a9.11255,9.11255,0,0,1-.91726,2.87326,10.73693,10.73693,0,0,1-1.96833,2.66024,9.1288,9.1288,0,0,1-3.39263,2.06163A13.936,13.936,0,0,1,422.64541,198.65544Zm-6.86274-17.185H428.818v-.081a7.94281,7.94281,0,0,0-1.7553-5.3328,6.518,6.518,0,0,0-9.52473.01233,7.951,7.951,0,0,0-1.7553,5.32047Z"/><path d="M440.78993,198.17656v-28.039h5.34688v3.45777h.18662a7.686,7.686,0,0,1,.75705-1.34332,6.96967,6.96967,0,0,1,1.17078-1.21128,5.2722,5.2722,0,0,1,1.9965-.98416,10.75838,10.75838,0,0,1,2.88559-.34507,12.53594,12.53594,0,0,1,1.86269.132v4.81518a12.54133,12.54133,0,0,0-2.39439-.15845q-6.38562,0-6.38562,6.64971v17.02655Z"/><path d="M466.99262,198.17656l-9.73776-28.039h5.90674l6.57048,22.6921h.213l7.10394-22.6921H482.741l-10.05466,28.039Z"/><path d="M488.12837,165.49494a2.93356,2.93356,0,0,1-.94367-2.22185,2.88749,2.88749,0,0,1,.94367-2.20776,3.32544,3.32544,0,0,1,2.35566-.87853,3.46322,3.46322,0,0,1,2.43312.86444,2.87642,2.87642,0,0,1,.94543,2.22185,2.91309,2.91309,0,0,1-.94543,2.23418,3.425,3.425,0,0,1-2.43312.87852A3.30433,3.30433,0,0,1,488.12837,165.49494Zm-.27817,32.68162v-28.039h5.34688v28.039Z"/><path d="M500.24643,185.59371v-3.00707a13.60955,13.60955,0,0,1,3.16729-9.324,11.0379,11.0379,0,0,1,8.75183-3.6039,11.42762,11.42762,0,0,1,7.96838,2.66023,8.46937,8.46937,0,0,1,2.993,6.35745h-5.13561a5.11123,5.11123,0,0,0-1.72889-3.13911,6.33063,6.33063,0,0,0-8.95254.99825,10.532,10.532,0,0,0-1.6884,6.18491v2.89968a9.74326,9.74326,0,0,0,1.76938,6.03878,5.77886,5.77886,0,0,0,4.88033,2.34157,6.524,6.524,0,0,0,4.044-1.118,4.88026,4.88026,0,0,0,1.86269-2.87326h5.13385a8.09039,8.09039,0,0,1-3.17785,6.1321,12.1142,12.1142,0,0,1-7.96838,2.5141q-5.64089,0-8.77824-3.57749Q500.24731,191.49957,500.24643,185.59371Z"/><path d="M540.1253,198.65544q-5.905,0-9.05817-3.56517t-3.1532-9.604V183.0127q0-6.06608,3.10038-9.70959,3.09774-3.6444,8.76592-3.6444,5.72012,0,8.76592,3.63031,3.04493,3.6312,3.0458,9.67086v2.44721H533.26257v.79754a9.184,9.184,0,0,0,1.74121,5.706,5.99628,5.99628,0,0,0,5.09511,2.30284,6.2817,6.2817,0,0,0,4.00356-1.13205,4.85014,4.85014,0,0,0,1.79579-2.80636h5.34688a9.11281,9.11281,0,0,1-.91726,2.87326,10.73718,10.73718,0,0,1-1.96833,2.66024,9.12885,9.12885,0,0,1-3.39264,2.06163A13.936,13.936,0,0,1,540.1253,198.65544Zm-6.86273-17.185h13.03532v-.081a7.9428,7.9428,0,0,0-1.75529-5.3328,6.51805,6.51805,0,0,0-9.52474.01233,7.951,7.951,0,0,0-1.75529,5.32047Z"/><path d="M556.59376,178.22393a8.28485,8.28485,0,0,1,.86444-3.85743,7.04583,7.04583,0,0,1,2.3803-2.68665,11.42141,11.42141,0,0,1,3.39264-1.51585,15.38933,15.38933,0,0,1,4.03-.50529q4.81431,0,7.51591,2.35389a7.7225,7.7225,0,0,1,2.70073,6.10569h-4.89617a4.81834,4.81834,0,0,0-1.43663-3.12679,5.48137,5.48137,0,0,0-4.044-1.31691,6.355,6.355,0,0,0-3.85743,1.07747,3.48274,3.48274,0,0,0-1.463,2.96658,2.74311,2.74311,0,0,0,.44015,1.52994,5.00453,5.00453,0,0,0,.86444,1.05107,4.47,4.47,0,0,0,1.55635.71831c.75353.23064,1.27994.37677,1.58276.43839q.45159.09243,1.86269.33275c.10564.0176.19015.03169.25177.04049s.13732.02113.22711.03873c.088.01761.16726.037.23944.05282q1.72713.31955,3.00531.6655a15.07757,15.07757,0,0,1,2.5546.95775,7.29079,7.29079,0,0,1,2.074,1.42431,6.09141,6.09141,0,0,1,1.2905,2.03523,7.44461,7.44461,0,0,1,.493,2.79228,7.7263,7.7263,0,0,1-3.074,6.51766q-3.07134,2.34246-8.31346,2.34157a12.7436,12.7436,0,0,1-7.80816-2.19544,7.02856,7.02856,0,0,1-2.93841-5.94547h5.21307a4.30613,4.30613,0,0,0,1.75706,2.96657,6.59786,6.59786,0,0,0,4.01588,1.10388,7.10091,7.10091,0,0,0,4.4437-1.1567,3.64292,3.64292,0,0,0,1.463-2.993,3.34337,3.34337,0,0,0-2.39438-3.16552,30.19239,30.19239,0,0,0-4.62857-1.14438q-1.78259-.37236-2.98066-.70423a16.4542,16.4542,0,0,1-2.5141-.94543,7.108,7.108,0,0,1-2.08805-1.39614,6.15614,6.15614,0,0,1-1.27642-2.0229A7.4121,7.4121,0,0,1,556.59376,178.22393Z"/></g></g></svg>