<?xml version="1.0" encoding="UTF-8"?>
<svg width="330px" height="80px" viewBox="0 0 330 80" version="1.1" xmlns="http://www.w3.org/2000/svg" xmlns:xlink="http://www.w3.org/1999/xlink">
    <!-- Generator: Sketch 60.1 (88133) - https://sketch.com -->
    <title>MultiSafepay - no tagline  inverted@1,5x</title>
    <desc>Created with Sketch.</desc>
    <defs>
        <polygon id="path-1" points="0.723503333 0.486385714 22.3941033 0.486385714 22.3941033 39 0.723503333 39"></polygon>
        <polygon id="path-3" points="0.233297478 0.445151515 7.56539229 0.445151515 7.56539229 7.76053181 0.233297478 7.76053181"></polygon>
        <polygon id="path-5" points="0.599625836 0.343515152 7.93132476 0.343515152 7.93132476 7.66054545 0.599625836 7.66054545"></polygon>
    </defs>
    <g id="MultiSafepay---no-tagline--inverted" stroke="none" stroke-width="1" fill="none" fill-rule="evenodd">
        <g id="Group-45" transform="translate(5.000000, 14.000000)">
            <path d="M18.2058419,28.800447 L21.3812331,14.8491356 C22.3529985,10.8544821 22.5077789,10.0475053 23.2250344,6.45831233 L23.5322016,6.15382256 C27.8796153,6.15461139 29.1577501,6.10254837 34.1171047,6.004733 L34.4761314,6.30606745 C34.5247994,10.5018735 34.575861,11.6125512 34.8311688,17.1257094 L35.133549,24.9643491 C35.5899118,34.4193089 35.6944284,36.6430309 36,41.544843 L35.7422987,41.8501216 C31.9589557,41.7964809 30.7821462,41.8501216 27.7136652,42 L27.4072958,41.6939326 C27.3594256,35.3722199 27.3594256,34.5652431 27.2070387,27.539102 L27.1097026,13.9893069 L23.2178538,30.5248373 C21.939719,36.135022 21.3740526,38.6624449 20.8131732,41.5432653 L20.4509552,41.8485439 C17.843624,41.7956921 16.9747795,41.8485439 14.2645273,41.9960558 L13.95736,41.6939326 C13.243296,38.4597147 12.376845,34.5652431 11.5590621,31.0257467 L7.77970835,14.3884567 L7.4701476,26.0190197 C7.21005275,36.533383 7.21005275,37.6472161 7.20845707,41.5377435 L6.95554275,41.8453886 C4.19343114,41.8438109 3.27512078,41.8438109 0.256903506,41.9929005 L0,41.6915661 C0.46434112,33.4009247 0.515402686,32.4874554 0.820176411,27.0279379 L1.2861132,15.9038061 C1.44009574,11.1534501 1.49275298,8.77511668 1.54381455,6.450424 L1.85018395,6.14593422 C6.35317583,6.14751189 7.7334338,6.14751189 12.6943841,6 L12.9991578,6.30370094 C13.5600372,8.98100226 13.6142901,9.13719131 14.8381721,14.4420974 L18.2058419,28.800447 Z" id="Fill-1" fill="#00ABEE"></path>
            <path d="M53.3143764,38.5537067 C51.9075803,40.093333 49.7432786,42.0032085 46.3760642,42 C40.9464899,41.9975865 40.4477595,37.0044426 40.2956311,35.7684046 C40.1450709,34.2239594 40.1450709,32.521295 40.1466393,29.4862152 L40.1482076,26.7595427 C40.2023152,19.3481334 40.1505601,18.1128985 40,14.6127986 L40.2517177,14.3043914 C43.4189694,14.3059977 44.2243092,14.307604 47.5930919,14 L47.8910754,14.3059977 C47.8910754,16.1074489 47.7883495,24.9099029 47.7883495,26.8671639 C47.7867812,28.1007925 47.7867812,32.3213122 47.9373413,33.2505494 C47.9890963,33.8151593 48.2886482,35.6664054 50.3478715,35.6647991 C51.8040702,35.6680117 52.5607916,34.8431832 53.2124347,34.1773771 L53.214003,29.9552511 C53.214003,28.9770222 53.0657954,18.8895383 52.9183719,14.6144049 L53.2179238,14.3092103 C56.5357356,14.2578091 57.390478,14.2072111 60.606348,14.0032126 L60.9066841,14.3092103 C60.8564974,17.5017062 60.8047423,19.3055667 60.8047423,24.1918925 C60.8047423,25.2713175 60.8016057,31.9157247 60.850224,34.8977969 C60.9011949,37.7810825 60.9498133,39.5825337 61,41.17838 L60.7482823,41.4883935 C57.179537,41.4345828 56.5780807,41.4851809 53.4594473,41.5855738 L53.2077296,41.3815754 L53.3143764,38.5537067 Z" id="Fill-3" fill="#00ABEE"></path>
            <path d="M72.6842105,41.8518406 C69.2064145,41.7987567 68.2047697,41.7971721 64.5180921,42 L64.2508224,41.6973428 C64.3585526,38.5463798 64.4638158,35.1442589 64.4671053,27.9327767 C64.4671053,23.3113116 64.4703947,18.5876402 64.4194079,13.9701365 C64.3182566,8.89151633 64.1570724,7.1635178 64,4.72799854 L64.265625,4.42058752 C67.7952303,3.8675646 69.0625,3.66473671 72.3273026,3 L72.6463816,3.30661872 C72.5896382,6.25396148 72.5896382,8.12853486 72.5879934,12.3451365 C72.5879934,14.0240127 72.6373355,25.4465505 72.6866776,32.1485861 C72.7911184,36.617138 72.8947368,39.1057411 73,41.5460141 L72.6842105,41.8518406 Z" id="Fill-5" fill="#00ABEE"></path>
            <path d="M89.2815859,20.2761748 C87.147518,20.2292346 87.100632,20.2268479 85.9345325,20.2268479 L85.9345325,26.6536724 C85.8846216,28.0284623 85.8846216,29.8654935 85.8831092,31.241079 C85.8831092,33.8442692 85.9307514,36.3416451 88.1117053,36.3416451 C88.8883487,36.3416451 89.4199752,36.0353406 89.7118781,35.8324636 L90,36.0854631 C89.8548047,38.3306351 89.8071625,38.6862665 89.7587641,41.0849885 L89.4668611,41.491538 C88.352185,41.8471694 86.9955167,42 85.4913844,42 C84.4258629,42.0015151 81.3714687,41.9991283 79.7259223,39.7030382 C78.5144493,37.9702301 78.5144493,35.7226714 78.5643602,32.1058919 L78.5658726,29.0468252 C78.5658726,27.7722804 78.6142711,21.5491284 78.6157835,20.1250116 C77.7446119,20.1234204 77.2576028,20.1727473 76.2419921,20.2252567 L76,19.9165654 C76.0952844,17.6236577 76.0952844,17.6236577 76.1951061,14.9226093 L76.4847405,14.617896 C77.4065792,14.6696097 77.6463026,14.6696097 78.6664506,14.617896 C78.6664506,13.6989826 78.6664506,13.1890056 78.6165397,8.3931528 L78.8608005,8.03831698 C82.0619024,7.22362666 82.9837412,6.91493541 85.7946308,6 L86.134176,6.25618192 C86.0358667,8.50135386 85.9874683,9.11316719 85.9375574,14.7730372 C87.6791444,14.7189367 88.0693567,14.7189367 89.4751796,14.6194872 L89.7678388,14.9257916 C89.6203749,17.2727999 89.6203749,17.5783087 89.5220656,19.9221346 L89.2815859,20.2761748 Z" id="Fill-7" fill="#00ABEE"></path>
            <path d="M99.9232633,9.74958264 C96.815832,10.1104928 95.8852989,10.2117727 92.726979,10.7768503 L92.414378,10.4681877 C92.4693053,7.74006059 92.4159935,7.06807642 92.315832,4.23384653 L92.6243942,3.92598776 C96.1978998,3.56668522 96.815832,3.46379769 99.9749596,3 L100.287561,3.30946639 C100.182553,6.24658381 100.234249,7.01984789 100.232633,9.44092005 L99.9232633,9.74958264 Z M100.689822,41.8472763 C97.3747981,41.7950288 96.1300485,41.7926173 92.5105008,42 L92.1970921,41.688926 C92.3537964,38.3933098 92.4620355,35.1459222 92.4620355,29.3255426 C92.4652666,21.1869783 92.2059774,18.3519446 92,15.6222099 L92.2576737,15.3143511 C95.8844911,14.797502 96.815832,14.6415631 100.384491,13.8715143 L100.697092,14.1809806 C100.645396,14.9003895 100.64378,15.6246213 100.64378,16.294194 C100.592084,19.3864465 100.537157,22.4240401 100.538772,25.5195078 C100.537157,30.875286 100.638126,36.1820318 101,41.5378099 L100.689822,41.8472763 Z" id="Fill-9" fill="#00ABEE"></path>
            <path d="M121.911737,13.2292285 C120.663293,12.1674952 119.119084,10.9041272 116.32721,10.9041272 C113.780511,10.9041272 112.135897,12.4171758 112.13434,14.591051 C112.13434,16.20728 112.929016,17.3162714 114.530043,18.5260801 C115.02584,18.9805461 117.720423,20.7991975 118.317403,21.2032547 C121.458748,23.4267509 124.001556,25.7487017 124,30.7958728 C123.998443,34.1795567 122.802926,36.7551262 121.403486,38.367417 C118.807752,41.3478314 115.267901,42.0015692 111.874377,42 C109.926993,42.0015692 106.986457,41.6967541 104.393058,40.3845526 L104.094957,39.879678 C104.14477,38.8203077 104.243618,37.7081657 104.296545,36.5960238 C104.347915,35.6390461 104.394614,34.676555 104.396171,33.720365 L104.794677,33.5691389 C106.49066,35.1853678 108.683998,36.0462539 110.980075,36.0446786 C114.719178,36.0462539 115.716999,33.3714423 115.716999,31.6528207 C115.72089,29.4348379 114.322229,28.2218785 111.928861,26.5544532 L109.834371,25.0862999 C107.240193,23.2188151 103.998444,20.8984396 104,15.3448186 C104.001557,11.7106664 105.349627,9.23906483 106.797323,7.82368306 C109.143213,5.50330759 112.28378,4.99764532 115.078767,5 C117.620797,5.0015835 120.215753,5.45604943 122.51183,6.6170248 L122.709526,7.02265731 C122.6099,8.08202764 122.510273,9.14061034 122.458903,10.2007683 L122.309464,13.0811529 L121.911737,13.2292285 Z" id="Fill-11" fill="#FFFFFF"></path>
            <path d="M139.337065,27.7450122 C137.275264,28.0516394 134.030364,28.6084935 134.027297,32.7336621 C134.027297,34.8729033 135.108419,36.2463708 136.682564,36.2463708 C138.107192,36.244782 138.942953,35.3312554 139.334764,34.874492 L139.337065,27.7450122 Z M139.429842,39.4055843 C138.645453,40.1665917 136.82748,41.9984113 133.581046,42.0000053 C129.896029,41.9984113 126.998468,39.0449398 127.000001,33.5963491 C127.002301,25.913987 133.489803,24.1766976 139.287992,23.059812 C139.287992,21.332055 139.289526,19.3929954 135.799264,19.3929954 C132.553597,19.3914066 130.590708,20.7180062 129.511119,21.4321458 L129.16608,21.2256093 C129.313296,18.8830092 129.362369,18.2236812 129.412974,16.0844401 L129.708941,15.6769278 C132.558964,14.3535057 136.243981,13.9984218 138.065021,14.0000053 C139.980371,14.0000053 143.861677,14.3058434 145.678883,17.5651477 C146.760772,19.5502808 146.760005,21.8952641 146.662627,26.0720668 L146.610488,30.0923785 C146.558349,34.3668889 146.608188,37.2711094 147.000001,41.2389926 L146.655726,41.5495916 C143.363287,41.4979575 142.626437,41.5480029 139.779481,41.6465049 L139.431375,41.3923062 L139.429842,39.4055843 Z" id="Fill-13" fill="#FFFFFF"></path>
            <path d="M163.781028,20.5377884 C162.310672,20.4868735 161.498024,20.4892601 160.589723,20.4868735 C160.583399,32.5202864 160.788142,37.3102625 160.935178,41.5950676 L160.631621,41.849642 C156.987352,41.8512331 156.226877,41.8512331 152.880632,42 L152.629249,41.6953063 C152.629249,41.0835322 152.631621,40.4200477 152.683794,39.8074781 C152.781028,36.2410501 152.78498,24.9689737 152.78498,20.4311854 C151.671937,20.4311854 151.36917,20.4821002 150.250593,20.5361973 L150,20.2291169 C150.101976,18.3412888 150.150988,17.6300716 150.255336,15.1821798 L150.560474,14.8790772 C151.52332,14.9761337 151.774704,14.9777247 152.786561,14.9777247 C152.740711,11.0015911 152.688538,7.73826571 154.310672,5.64836913 C156.336759,3 160.086957,3.00159109 161.251383,3 C163.026877,3 164.192885,3.25298329 164.796838,3.35799523 L165,3.66109785 C164.795257,5.9061257 164.745455,6.46778043 164.694071,8.96499602 L164.341502,9.26889419 C163.98498,9.06523469 163.679842,8.91249006 163.12253,8.91249006 C162.161265,8.91249006 161.505929,9.42243437 161.150198,9.98727128 C160.53834,10.8973747 160.539921,11.8679395 160.53834,15.0302307 C162.109881,15.0302307 162.61581,15.0318218 164.086957,14.9315831 L164.389723,15.2354813 C164.186561,17.4805091 164.18498,17.9896579 164.086957,20.2346858 L163.781028,20.5377884 Z" id="Fill-15" fill="#FFFFFF"></path>
            <path d="M177.810578,24.7872154 C177.813629,23.9760219 177.813629,23.1166464 177.665662,22.2027702 C177.422355,20.5353607 176.64286,19.1657311 175.222683,19.1657311 C174.538527,19.1673108 172.486059,19.4682502 172.335804,24.7824762 L177.810578,24.7872154 Z M172.388432,29.5927671 C172.481483,34.0491974 174.830647,36.3263844 178.495496,36.3279641 C181.42585,36.3279641 183.13891,35.0657564 183.820015,34.5089001 L184.166288,34.7111061 C184.01527,36.8895596 183.965694,37.8500381 183.914592,39.9724111 L183.720099,40.3823521 C182.693484,41.2914892 179.617451,42 176.779386,42 C168.369682,41.9976304 164.996953,36.4780389 165.000002,27.97038 C165.003055,26.151316 165.146446,24.2753815 165.589583,22.4539479 C167.061625,16.2787667 171.168849,14.0007899 175.46599,14 C176.887692,14.0023696 178.304818,14.255917 179.62279,14.861745 C184.21739,16.9935964 184.998411,21.751756 184.999969,26.6631499 C185.001462,27.6259979 184.948834,28.5848966 184.95036,29.2949872 L184.604087,29.5975063 L172.388432,29.5927671 Z" id="Fill-17" fill="#FFFFFF"></path>
            <g id="Group-21" transform="translate(188.000000, 13.000000)">
                <mask id="mask-2" fill="white">
                    <use xlink:href="#path-1"></use>
                </mask>
                <g id="Clip-20"></g>
                <path d="M9.11927,22.7784673 C9.36613667,22.8294061 9.56010333,22.8270184 9.80620333,22.8294061 L10.1987367,22.8294061 C14.5250367,22.3717531 14.62317,16.3012837 14.6262367,13.8005082 C14.6262367,12.4259571 14.5281033,10.0740184 13.7921033,8.39542653 C13.6418367,8.03567143 12.95567,6.55765102 11.43307,6.55605918 C10.34977,6.55605918 9.61223667,7.32093673 9.02113667,7.93220204 C9.02343667,13.2871408 9.07250333,15.7417531 9.11927,22.7784673 L9.11927,22.7784673 Z M8.82870333,0.74187551 C8.77963667,1.91505918 8.77963667,2.06867143 8.78117,3.2935898 C9.91200333,2.22069184 11.6853033,0.588263265 14.4844033,0.588263265 C17.4813033,0.588263265 19.2960033,2.48175306 20.3264033,4.16352857 C22.04757,6.91581429 22.3918033,10.6932429 22.3941033,13.1924265 C22.3887367,16.8122633 21.89347,24.6687735 15.01417,27.4751816 C12.8997033,28.290202 11.62397,28.2376714 8.96747,28.2360796 C9.01653667,31.9577939 9.16297,36.5518347 9.26263667,38.5901816 L8.96670333,38.8966102 C7.98383667,38.8456714 7.00173667,38.7931408 6.06870333,38.7931408 C4.54303667,38.7931408 3.27113667,38.8934265 1.49707,39.0000796 L1.20343667,38.6896714 C1.35063667,34.6105898 1.40200333,30.5283245 1.40430333,26.4993857 C1.40660333,18.3905694 1.40967,10.2260388 0.723503333,2.16656939 L0.968836667,1.86252857 C4.55683667,1.35075306 5.48910333,1.14779388 8.48907,0.486385714 L8.82870333,0.74187551 Z" id="Fill-19" fill="#FFFFFF" mask="url(#mask-2)"></path>
            </g>
            <path d="M225.337179,27.7489787 C223.274083,28.0516341 220.029555,28.6108715 220.032615,32.7360418 C220.029555,34.8744893 221.110553,36.2487517 222.682984,36.2503404 C224.107448,36.2503404 224.942347,35.3320472 225.337179,34.8760781 L225.337179,27.7489787 Z M225.429946,39.4047889 C224.648714,40.166591 222.827884,42 219.587956,42 C215.899529,42 213.000767,39.0457331 213,33.5955515 C213,25.9108034 219.493656,24.1798684 225.28888,23.0613936 C225.28888,21.3320472 225.289646,19.3969587 221.805919,19.3961643 C218.558324,19.3961643 216.597961,20.7195869 215.514662,21.4305493 L215.17273,21.2256015 C215.317629,18.8822061 215.370529,18.2236723 215.414229,16.0852247 L215.713229,15.6785066 C218.558324,14.355084 222.252118,14 224.066815,14 C225.983478,14.0007944 229.861272,14.3082161 231.685169,17.5675216 C232.762334,19.5518611 232.7608,21.8960508 232.662667,26.0704721 L232.609767,30.092374 C232.565301,34.3652973 232.611301,37.2711076 233,41.2389923 L232.658067,41.5495915 C229.366006,41.4947798 228.630774,41.5495915 225.781079,41.6465048 L225.435313,41.3899228 L225.429946,39.4047889 Z" id="Fill-22" fill="#FFFFFF"></path>
            <path d="M241.093233,51.692446 C242.334824,48.7369081 242.877876,47.0537059 244.465256,42.1153589 C242.237354,34.0688891 238.227903,20.9759913 236,14.6556383 L236.242903,14.3536473 C239.862471,14.3027857 240.559465,14.2535135 244.07692,14 L244.475313,14.3043751 C245.01759,17.0063995 245.169985,17.7685294 246.50518,23.3211896 L248.388067,31.014012 L250.424896,22.8117785 C251.361698,19.1465618 251.414301,18.841392 252.358065,14.5133846 L252.655119,14.2082148 C255.429941,14.2614606 256.126934,14.2598712 258.805059,14.108081 L259,14.4100719 C257.712767,18.4352936 257.414167,19.5566338 254.485403,29.3848503 L252.006088,37.7412582 C250.020315,44.8173833 249.176342,47.9223273 248.381878,51.5907228 L248.036863,51.8966873 C244.815687,51.8966873 244.16975,51.8966873 241.337683,52 L241.093233,51.692446 Z" id="Fill-24" fill="#FFFFFF"></path>
            <g id="Group-44" transform="translate(266.000000, 0.000000)">
                <g id="Group-28" transform="translate(21.316521, 0.000000)">
                    <mask id="mask-4" fill="white">
                        <use xlink:href="#path-3"></use>
                    </mask>
                    <g id="Clip-27"></g>
                    <path d="M3.90368657,0.445071589 C1.87703809,0.44349697 0.233297478,2.07834545 0.233297478,4.1008303 C0.233297478,6.12173939 1.87545908,7.76053181 3.89737056,7.76053181 C5.92322954,7.76367879 7.56539229,6.12567879 7.56539229,4.1047697 C7.56697015,2.08386061 5.92638755,0.44349697 3.90368657,0.445071589" id="Fill-26" fill="#FFFFFF" mask="url(#mask-4)"></path>
                </g>
                <path d="M7.54818003,7.94071515 C6.11444663,9.36835152 6.11760463,11.6831394 7.54502203,13.1162909 C8.97638693,14.5431394 11.2990982,14.5447152 12.7312526,13.1162909 C14.1657755,11.6886545 14.1689335,9.36992727 12.7328316,7.94229091 C11.3006772,6.51150303 8.97875543,6.51150303 7.54818003,7.94071515" id="Fill-29" fill="#FFFFFF"></path>
                <path d="M43.8412937,13.1253515 C45.2702901,11.6945636 45.2726586,9.37741212 43.8412937,7.9482 C42.4107183,6.51977576 40.0903755,6.51977576 38.6550631,7.94662424 C37.2268562,9.37583636 37.2236982,11.6929879 38.6534841,13.1237758 C40.0887965,14.5506242 42.4075603,14.5522 43.8412937,13.1253515" id="Fill-31" fill="#FFFFFF"></path>
                <path d="M3.69162666,22.3879697 C1.66892568,22.3879697 0.0236060731,24.0267576 0.0267595268,26.0484545 C0.0236060731,28.0677879 1.66497818,29.7065769 3.69162666,29.7065769 C5.71274864,29.7081515 7.3564918,28.0717273 7.3564918,26.0484545 C7.35885775,24.0283333 5.71590664,22.3895455 3.69162666,22.3879697" id="Fill-33" fill="#FFFFFF"></path>
                <path d="M7.53973237,38.9861333 C6.10599897,40.4121939 6.10599897,42.7317091 7.53973237,44.1609212 C8.96478127,45.5909212 11.2859135,45.5909212 12.7212259,44.162497 C14.1557488,42.7356485 14.1541698,40.4145576 12.7212259,38.9861333 C11.2890715,37.5561333 8.96793927,37.5561333 7.53973237,38.9861333" id="Fill-35" fill="#FFFFFF"></path>
                <path d="M25.6827759,44.3473322 C23.6616539,44.3457576 22.014755,45.9845455 22.014755,48.0070303 C22.0139658,50.0263636 23.6561274,51.662 25.6796179,51.6604344 C27.7062664,51.6651515 29.347643,50.0263636 29.347643,48.0078182 C29.3507965,45.9884848 27.7086349,44.3473322 25.6827759,44.3473322" id="Fill-37" fill="#FFFFFF"></path>
                <path d="M38.6447996,38.9953515 C37.2173822,40.4206242 37.2189612,42.7401394 38.6447996,44.1693515 C40.075375,45.5993515 42.3972968,45.602503 43.8278722,44.1693515 C45.2608161,42.7432909 45.2600266,40.4245636 43.8341882,38.9977152 C42.3988758,37.5677152 40.078533,37.5661394 38.6447996,38.9953515" id="Fill-39" fill="#FFFFFF"></path>
                <g id="Group-43" transform="translate(43.422542, 22.060606)">
                    <mask id="mask-6" fill="white">
                        <use xlink:href="#path-5"></use>
                    </mask>
                    <g id="Clip-42"></g>
                    <path d="M4.26527792,0.343515152 C2.24099794,0.343515152 0.60357334,1.97915152 0.599625836,4.00084848 C0.601204838,6.02254545 2.23941894,7.6589697 4.26527792,7.66054545 C6.2887684,7.6589697 7.9301405,6.02569697 7.93171951,4.00163636 C7.9301405,1.97915152 6.2879789,0.343515152 4.26527792,0.343515152" id="Fill-41" fill="#FFFFFF" mask="url(#mask-6)"></path>
                </g>
            </g>
        </g>
    </g>
</svg>