<?xml version="1.0" encoding="UTF-8"?>
<svg width="330px" height="80px" viewBox="0 0 330 80" version="1.1" xmlns="http://www.w3.org/2000/svg" xmlns:xlink="http://www.w3.org/1999/xlink">
    <!-- Generator: Sketch 60.1 (88133) - https://sketch.com -->
    <title>MulitSafepay - Tagline@1,5x</title>
    <desc>Created with Sketch.</desc>
    <defs>
        <polygon id="path-1" points="0.0821444224 0.737151155 7.75661518 0.737151155 7.75661518 7.71424326 0.0821444224 7.71424326"></polygon>
        <polygon id="path-3" points="0 65.0792079 313 65.0792079 313 0 0 0"></polygon>
    </defs>
    <g id="MulitSafepay---Tagline" stroke="none" stroke-width="1" fill="none" fill-rule="evenodd">
        <g id="Group-79" transform="translate(6.000000, 8.000000)">
            <path d="M18.2724735,27.4091748 L21.279314,13.7985482 C22.1994978,9.90045248 22.3460624,9.11313719 23.0252457,5.61139272 L23.3161084,5.31432165 C27.43276,5.31509126 28.643051,5.26506634 33.3391616,5.16886457 L33.679131,5.4636268 C33.7252157,9.55720456 33.7735669,10.6400517 34.015323,16.0196547 L34.3016527,23.6665411 C34.7337916,32.8911365 34.8327605,35.0606789 35.1221122,39.8430613 L34.8780897,40.140902 C31.2955678,40.0893379 30.1812237,40.140902 27.2756186,40.2871287 L26.9855114,39.989288 C26.9401821,33.8208305 26.9401821,33.0335152 26.795884,26.1793314 L26.7037145,12.9588992 L23.0184463,29.092321 C21.8081552,34.5650474 21.2725146,37.0308912 20.7414068,39.8422917 L20.3984155,40.1393628 C17.9294822,40.0877986 17.1067563,40.1393628 14.5403651,40.2832806 L14.2495024,39.989288 C13.573341,36.8338699 12.7528816,33.0335152 11.9785068,29.581026 L8.39976233,13.3490936 L8.10663316,24.6955153 C7.86034423,34.9537025 7.86034423,36.0403977 7.85883325,39.8361348 L7.6193437,40.1362843 C5.00384583,40.1355147 4.13427966,40.1355147 1.27627029,40.2809718 L1.0330033,39.9862096 C1.47269705,31.8975647 1.52104825,31.0071211 1.80964449,25.6798518 L2.25084922,14.8267528 C2.39665832,10.1921363 2.44652049,7.87174953 2.4948717,5.60446619 L2.78497891,5.30662551 C7.0489506,5.30816474 8.35594405,5.30816474 13.0535656,5.1650165 L13.3421618,5.46054834 C13.8732696,8.07261883 13.9246427,8.22500244 15.0835606,13.4006577 L18.2724735,27.4091748 Z" id="Fill-1" fill="#00ABEE"></path>
            <path d="M52.3529776,37.8865437 C50.9689537,39.4201375 48.8396863,41.3225297 45.5269782,41.320132 C40.1852942,41.3169298 39.6946369,36.3441499 39.544971,35.1121549 C39.396848,33.5737612 39.396848,31.8777681 39.398391,28.8545803 L39.3999339,26.1385913 C39.4531656,18.7562213 39.4022484,17.5258263 39.2541254,14.0402404 L39.5017685,13.7322417 C42.6177508,13.7338417 43.4100543,13.7354417 46.7243054,13.4290429 L47.0174654,13.7338417 C47.0174654,15.5282344 46.9164023,24.2961988 46.9164023,26.2457909 C46.9148594,27.4745859 46.9148594,31.6785689 47.0629823,32.6041651 C47.1138996,33.1673628 47.4086025,35.0105553 49.4344925,35.0097553 C50.8671192,35.0121553 51.6115913,34.1905587 52.252686,33.5273614 L52.2542289,29.3217784 C52.2542289,28.3481824 52.1084204,18.2994231 51.9633833,14.0410404 L52.2580863,13.7370417 C55.5221916,13.6858419 56.3630979,13.6362421 59.5269116,13.4322429 L59.822386,13.7370417 C59.7730117,16.9170288 59.7220945,18.7138215 59.7220945,23.5818017 C59.7220945,24.6561974 59.7190086,31.2737705 59.7668399,34.2449585 C59.8169857,37.1177468 59.8648171,38.9113395 59.9141914,40.5017331 L59.6665484,40.8097318 C56.1555715,40.756132 55.5638512,40.8065318 52.4957002,40.9065314 L52.2480571,40.7033322 L52.3529776,37.8865437 Z" id="Fill-3" fill="#00ABEE"></path>
            <path d="M73.0532685,40.1419312 C69.8598687,40.089132 68.9401333,40.0875791 65.5549331,40.2871287 L65.3095193,39.9897455 C65.40844,36.9017739 65.5050952,33.5676652 65.5081157,26.5011252 C65.5081157,21.9712719 65.5111362,17.3420321 65.4643188,12.8176141 C65.3714391,7.83974482 65.2234357,6.14629094 65.0792079,3.76023694 L65.3231115,3.45819496 C68.5640838,2.91700406 69.7277228,2.71745447 72.7255467,2.0660066 L73.018533,2.36649567 C72.9664298,5.25491769 72.9664298,7.09201622 72.9649195,11.2250997 C72.9649195,12.8696367 73.0102267,24.063825 73.0555338,30.6318793 C73.151434,35.0110998 73.246579,37.4499529 73.3432343,39.8414421 L73.0532685,40.1419312 Z" id="Fill-5" fill="#00ABEE"></path>
            <path d="M89.129163,19.715658 C86.9246638,19.6712095 86.8762304,19.6689494 85.6716458,19.6689494 L85.6716458,25.7546363 C85.6200877,27.0572054 85.6200877,28.7959731 85.6185253,30.0985422 C85.6185253,32.5635543 85.6677399,34.9283687 87.9206725,34.9283687 C88.7229477,34.9283687 89.2721195,34.638323 89.5736563,34.4462148 L89.8712871,34.6865384 C89.7212999,36.8117826 89.6720854,37.1485371 89.6220897,39.4199342 L89.3205529,39.804904 C88.1690887,40.1416584 86.7676459,40.2871287 85.2138724,40.2871287 C84.1131851,40.2885647 80.9579858,40.2855512 79.258131,38.1113382 C78.0066754,36.4712614 78.0066754,34.3430037 78.0582335,30.9174505 L78.0597958,28.0207599 C78.0597958,26.8138683 78.1097915,20.9210429 78.1113539,19.5725186 C77.2114308,19.5710118 76.7083487,19.6177205 75.6592196,19.6674426 L75.4092409,19.3751368 C75.50767,17.2039372 75.50767,17.2039372 75.6107862,14.6462612 L75.9099794,14.3584755 C76.8622418,14.4066909 77.1098769,14.4066909 78.1636932,14.3584755 C78.1636932,13.4875849 78.1636932,13.0046776 78.1121351,8.4641434 L78.3644573,8.127389 C81.6712062,7.35669603 82.6234686,7.06439019 85.5271269,6.1980198 L85.8778782,6.44060351 C85.7763243,8.56584775 85.7263286,9.14518587 85.6747705,14.5046285 C87.4738356,14.4533996 87.8769262,14.4533996 89.3291459,14.3599823 L89.6314639,14.6492746 C89.4791331,16.871703 89.4791331,17.1609954 89.3775793,19.3804103 L89.129163,19.715658 Z" id="Fill-7" fill="#00ABEE"></path>
            <path d="M98.1796301,9.53438328 C95.3263085,9.87853319 94.4718696,9.97510978 91.5718208,10.5139458 L91.2847828,10.2196172 C91.3352184,7.61894759 91.2862662,6.9774031 91.1942953,4.27479155 L91.4776249,3.98122938 C94.7589077,3.63861243 95.3263085,3.54050288 98.227099,3.0990099 L98.514137,3.39333855 C98.417716,6.19482613 98.4651848,6.93141425 98.4637014,9.24005463 L98.1796301,9.53438328 Z M98.8835039,40.1414973 C95.8395652,40.0924426 94.6966048,40.0893766 91.3730451,40.2871287 L91.0852653,39.9912671 C91.2291552,36.8479291 91.3285431,33.7521128 91.3285431,28.2012584 C91.3315099,20.4406396 91.093424,17.7372615 90.9042904,15.1342925 L91.1408929,14.8407303 C94.4711279,14.3478831 95.3263085,14.1991858 98.6031411,13.4656637 L98.8901792,13.7599923 C98.8427103,14.4467592 98.8412269,15.1373584 98.8412269,15.775837 C98.7937581,18.7237224 98.7433225,21.6210201 98.7448059,24.5719715 C98.7433225,29.6790335 98.836035,34.7401067 99.1683168,39.8464022 L98.8835039,40.1414973 Z" id="Fill-9" fill="#00ABEE"></path>
            <path d="M120.77021,12.1727359 C119.480564,11.1352252 117.885391,9.90144938 115.001376,9.90144938 C112.370626,9.90144938 110.671735,11.3792095 110.670127,13.5034897 C110.670127,15.0828459 111.49103,16.1665367 113.144896,17.3487448 C113.657056,17.7928425 116.440569,19.570003 117.057251,19.9648421 C120.302271,22.1376113 122.929,24.4065888 122.927393,29.3386133 C122.925784,32.644332 121.690811,35.1619119 120.245186,36.7374198 C117.563783,39.6506084 113.907106,40.2886621 110.401585,40.2871287 C108.38993,40.2886621 105.352347,39.9908011 102.673357,38.7085363 L102.365418,38.2151799 C102.416875,37.1799781 102.518985,36.0932087 102.573658,35.0064393 C102.626724,34.0712942 102.674965,33.1307614 102.676573,32.196386 L103.08823,32.04861 C104.840187,33.6279661 107.105912,34.4692119 109.477767,34.4684422 C113.340273,34.4692119 114.371025,31.8561933 114.371025,30.1760108 C114.375045,28.0086292 112.930223,26.8233424 110.457866,25.1939579 L108.294252,23.7592991 C105.614457,21.9344193 102.265719,19.666981 102.267327,14.2400608 C102.268935,10.6888185 103.661496,8.27360421 105.156971,6.89128274 C107.580283,4.62307484 110.824498,4.12894879 113.71173,4.1320132 C116.337655,4.13279713 119.018253,4.57689484 121.390108,5.71138362 L121.594329,6.10776199 C121.491415,7.14296377 121.3885,8.17739587 121.335435,9.21336731 L121.181063,12.0280386 L120.77021,12.1727359 Z" id="Fill-11" fill="#000000"></path>
            <path d="M137.737629,27.1205915 C135.607782,27.426026 132.255789,27.9807141 132.252621,32.0898372 C132.252621,34.2215487 133.369424,35.5888825 134.995521,35.5888825 C136.467166,35.5873 137.33051,34.6781179 137.735252,34.2231312 L137.737629,27.1205915 Z M137.833468,38.7358077 C137.023191,39.4938551 135.14522,41.3185495 131.791642,41.320132 C127.985007,41.3185495 124.991816,38.3765661 124.9934,32.9491685 C124.995777,25.2966884 131.697387,23.5669477 137.686937,22.4544064 C137.686937,20.7325786 137.688521,18.8010613 134.083069,18.8010613 C130.730283,18.80027 128.702612,20.1217095 127.587394,20.8330713 L127.230967,20.6265469 C127.383042,18.2930588 127.433734,17.6370867 127.48601,15.5053752 L127.791745,15.1002393 C130.735828,13.7811735 134.542463,13.4274709 136.423603,13.4290481 C138.402166,13.4290481 142.411568,13.7336967 144.288748,16.9803233 C145.406343,18.9577349 145.405551,21.293597 145.304959,25.4549446 L145.251099,29.4588273 C145.197239,33.7167113 145.248723,36.6104265 145.653465,40.5620847 L145.297831,40.8714756 C141.89673,40.8200423 141.135561,40.869893 138.194647,40.9680119 L137.835052,40.7148019 L137.833468,38.7358077 Z" id="Fill-13" fill="#000000"></path>
            <path d="M161.006263,18.7890158 C159.588639,18.7404663 158.805135,18.7427421 157.92941,18.7404663 C157.923313,30.214825 158.120713,34.7830247 158.262475,38.8680056 L157.969804,39.1107528 C154.456232,39.11227 153.723031,39.11227 150.496795,39.2541254 L150.254427,38.9635873 C150.254427,38.3802353 150.256713,37.7483339 150.307016,37.1634648 C150.400762,33.7634862 150.404573,23.014335 150.404573,18.6873654 C149.331447,18.6873654 149.039539,18.7366734 147.961078,18.7874986 L147.719472,18.4946848 C147.817791,16.6945622 147.865045,16.0163871 147.965651,13.6822207 L148.259846,13.3931998 C149.18816,13.4857471 149.430528,13.4872643 150.406097,13.4872643 C150.361892,9.69585583 150.311589,6.58413963 151.875548,4.5913365 C153.828972,2.0660066 157.444674,2.06752377 158.56734,2.0660066 C160.279159,2.0660066 161.40335,2.30799526 161.985642,2.40812849 L162.181518,2.69714943 C161.984118,4.83711808 161.936102,5.37343777 161.886561,7.7538779 L161.546636,8.04365742 C161.202901,7.84945963 160.908706,7.70381128 160.371381,7.70381128 C159.44459,7.70381128 158.812757,8.19006435 158.469784,8.72865979 C157.879869,9.59723977 157.881394,10.521955 157.879869,13.5373309 C159.39505,13.5373309 159.882834,13.5388481 161.30122,13.4432664 L161.593128,13.7330459 C161.397252,15.8737731 161.395728,16.3600262 161.30122,18.4999948 L161.006263,18.7890158 Z" id="Fill-15" fill="#000000"></path>
            <path d="M176.447891,24.1742996 C176.451042,23.3662613 176.451042,22.5102286 176.298192,21.599907 C176.046856,19.9389831 175.241634,18.5746809 173.774587,18.5746809 C173.067852,18.5762545 170.947645,18.8760234 170.792431,24.1703656 L176.447891,24.1742996 Z M170.846796,28.9611592 C170.942918,33.3994687 173.369613,35.6685849 177.155414,35.6701585 C180.182479,35.6701585 181.952075,34.4128604 182.655659,33.8581701 L183.01336,34.0595895 C182.857358,36.2295696 182.806146,37.1863121 182.753357,39.3004297 L182.552446,39.7087762 C181.491949,40.6143771 178.314397,41.320132 175.382666,41.320132 C166.695414,41.3177716 163.211374,35.8196495 163.214524,27.3450827 C163.217677,25.5330942 163.3658,23.6644565 163.823563,21.8508945 C165.344187,15.6997327 169.586963,13.4306165 174.025923,13.4290429 C175.494546,13.4321901 176.958442,13.6839644 178.319912,14.287436 C183.066149,16.4109952 183.872946,21.1506471 183.874555,26.0429372 C183.876097,27.0020401 183.821733,27.957209 183.823309,28.6645375 L183.465608,28.96588 L170.846796,28.9611592 Z" id="Fill-17" fill="#000000"></path>
            <path d="M194.745279,34.954638 C195.004169,35.003055 195.207583,35.0007494 195.465669,35.003055 L195.877321,35.003055 C200.414335,34.5619221 200.517248,28.6996193 200.520464,26.2849162 C200.520464,24.9576748 200.417551,22.6866857 199.645704,21.0658681 C199.488118,20.7184952 198.768532,19.2913457 197.171773,19.2898087 C196.035711,19.2898087 195.262256,20.029129 194.642366,20.618587 C194.644778,25.7899866 194.696234,28.1593468 194.745279,34.954638 L194.745279,34.954638 Z M194.44056,13.6757392 C194.389104,14.8085439 194.389104,14.9568691 194.390712,16.1396279 C195.576623,15.1036572 197.436292,13.5281825 200.371723,13.5281825 C203.514587,13.5281825 205.417673,15.3557331 206.498259,16.9796248 C208.303255,19.6371816 208.664255,23.2845976 208.666667,25.6985322 C208.661039,29.1930118 208.14165,36.7791145 200.927292,39.4889309 C198.709839,40.2766682 197.371971,40.2251771 194.586085,40.2236401 C194.637542,43.8180279 194.791107,48.2531812 194.895628,50.2213717 L194.585281,50.5172536 C193.554544,50.4688365 192.52461,50.4173454 191.546134,50.4173454 C189.946159,50.4173454 188.612311,50.5141795 186.751838,50.6171617 L186.443903,50.3174373 C186.598272,46.3787506 186.652141,42.4369898 186.654553,38.5467202 C186.656965,30.7169954 186.660181,22.8334739 185.940594,15.0521661 L186.197876,14.7578213 C189.960631,14.2636602 190.938304,14.0684551 194.084385,13.4290429 L194.44056,13.6757392 Z" id="Fill-19" fill="#000000"></path>
            <path d="M222.444017,27.1245425 C220.312831,27.4260208 216.961223,27.9838742 216.964385,32.0929988 C216.961223,34.2223373 218.077898,35.5920455 219.702224,35.5928368 C221.173701,35.5928368 222.036154,34.6781154 222.444017,34.2239198 L222.444017,27.1245425 Z M222.539845,38.7350155 C221.73283,39.4946457 219.851906,41.320132 216.50505,41.320132 C212.694892,41.320132 209.700462,38.3773562 209.69967,32.9491654 C209.69967,25.2935172 216.407638,23.5693149 222.394123,22.4551906 C222.394123,20.7325708 222.394915,18.8058005 218.796213,18.8042179 C215.441437,18.8042179 213.416375,20.1224928 212.297325,20.8306897 L211.944107,20.6265391 C212.093789,18.2922588 212.148435,17.6362865 212.193577,15.5061568 L212.502444,15.1010206 C215.441437,13.7827457 219.257138,13.4290429 221.131726,13.4290429 C223.111646,13.4306255 227.117419,13.7360601 229.001511,16.982688 C230.114226,18.9593091 230.112642,21.2943807 230.01127,25.4525648 L229.956624,29.4588228 C229.91069,33.7159171 229.958208,36.6104247 230.359736,40.5620844 L230.006518,40.8714754 C226.605808,40.816877 225.846311,40.8714754 222.902566,40.9680118 L222.545389,40.7124278 L222.539845,38.7350155 Z" id="Fill-21" fill="#000000"></path>
            <path d="M236.654066,50.3252955 C237.936634,47.5132478 238.497608,45.9110081 240.137377,41.2124159 C237.835946,33.5565989 233.69417,21.099356 231.392739,15.0866096 L231.643659,14.7985241 C235.382685,14.7501318 236.102681,14.7032517 239.736225,14.4620462 L240.147765,14.751644 C240.70794,17.3224863 240.865364,18.047615 242.244624,23.3306958 L244.189653,30.6500349 L246.293704,22.8467726 C247.261424,19.3587445 247.315763,19.0683906 248.290675,14.9505062 L248.597532,14.6601523 C251.463932,14.7115691 252.183928,14.7100569 254.95044,14.5648799 L255.151815,14.8522093 C253.8221,18.6820081 253.513644,19.7489077 250.488222,29.0999683 L247.927081,37.050676 C245.875771,43.7840143 245.003944,46.7382144 244.18326,50.2277547 L243.826858,50.5188648 C240.499373,50.5188648 239.832118,50.5188648 236.906584,50.6171617 L236.654066,50.3252955 Z" id="Fill-23" fill="#000000"></path>
            <path d="M286.662698,0 C284.663986,-0.00155644473 283.042904,1.61442215 283.042904,3.61356291 C283.042904,5.61114609 284.662429,7.2310231 286.656469,7.2310231 C288.654402,7.23413375 290.273927,5.61504002 290.273927,3.61823562 C290.275484,1.61987365 288.657516,-0.00155644473 286.662698,0" id="Fill-25" fill="#969595"></path>
            <path d="M269.640158,7.25696363 C268.226721,8.66836962 268.229834,10.9548006 269.637044,12.3716561 C271.048146,13.7807266 273.337977,13.7822836 274.749857,12.3716561 C276.164072,10.9602501 276.167186,8.66914811 274.751414,7.25852061 C273.339533,5.84477914 271.050481,5.84477914 269.640158,7.25696363" id="Fill-27" fill="#969595"></path>
            <path d="M304.711028,12.3724059 C306.120458,10.9586264 306.122794,8.66901991 304.711028,7.25679746 C303.300039,5.84535353 301.011467,5.84535353 299.595806,7.25524044 C298.187154,8.66746289 298.184039,10.9570694 299.594249,12.3708489 C301.009909,13.7807358 303.296925,13.7822928 304.711028,12.3724059" id="Fill-29" fill="#969595"></path>
            <path d="M265.998351,21.6930693 C264.002889,21.6930693 262.379727,23.3122455 262.382838,25.3089699 C262.379727,27.3041375 263.998995,28.9240924 265.998351,28.9240924 C267.992254,28.9248706 269.613861,27.3088082 269.613861,25.3089699 C269.616195,23.3138024 267.99537,21.6946262 265.998351,21.6930693" id="Fill-31" fill="#969595"></path>
            <path d="M269.641335,37.2151934 C268.227366,38.6231822 268.227366,40.9145693 269.641335,42.3264498 C271.04674,43.7391087 273.335877,43.7391087 274.751404,42.3280065 C276.166152,40.9192393 276.164595,38.6255172 274.751404,37.2151934 C273.338991,35.8017562 271.049855,35.8017562 269.641335,37.2151934" id="Fill-33" fill="#969595"></path>
            <path d="M286.659971,42.3531353 C284.666925,42.3515785 283.042904,43.9717995 283.042904,45.9721492 C283.042126,47.9678252 284.661476,49.5857093 286.656857,49.5841584 C288.655352,49.5880462 290.273927,47.9678252 290.273927,45.9721492 C290.277037,43.9764732 288.657688,42.3531353 286.659971,42.3531353" id="Fill-35" fill="#969595"></path>
            <path d="M299.59373,37.2132244 C298.18525,38.6214405 298.186808,40.9131973 299.59373,42.3253056 C301.005326,43.7381923 303.296443,43.7413061 304.708039,42.3253056 C306.121972,40.9163111 306.121193,38.6253327 304.714271,37.2163382 C303.298001,35.802673 301.008442,35.8011161 299.59373,37.2132244" id="Fill-37" fill="#969595"></path>
            <g id="Group-41" transform="translate(304.735974, 21.693069)">
                <mask id="mask-2" fill="white">
                    <use xlink:href="#path-1"></use>
                </mask>
                <g id="Clip-40"></g>
                <path d="M3.91913188,0.737151155 C1.80023551,0.737151155 0.0862764356,2.29679832 0.0821444224,4.2245703 C0.0837972277,6.15234227 1.79858271,7.71274071 3.91913188,7.71424326 C6.03720185,7.71274071 7.75529294,6.15534737 7.75694574,4.22607285 C7.75529294,2.29679832 6.03637545,0.737151155 3.91913188,0.737151155" id="Fill-39" fill="#969595" mask="url(#mask-2)"></path>
            </g>
            <path d="M0,58.4724304 L1.63791514,58.4724304 C1.69151964,59.0466186 1.94167395,59.5212272 2.38837808,59.8946503 C2.83508221,60.2696795 3.44334433,60.4567925 4.21241994,60.4567925 C4.94427021,60.4567925 5.52275206,60.2825284 5.94786549,59.9340002 C6.37297892,59.5862751 6.58516338,59.1132726 6.58516338,58.5157957 C6.58516338,58.0516268 6.44445158,57.6806129 6.16153896,57.4011479 C5.87862635,57.1216829 5.43117771,56.9024474 4.81770404,56.7402292 L2.96164838,56.2343012 C2.5960955,56.1363278 2.26255642,56.005429 1.96103113,55.8432108 C1.65950584,55.6801896 1.38106027,55.4762122 1.12569441,55.2296727 C0.870328546,54.9823301 0.670800702,54.674758 0.528599887,54.3069563 C0.386399072,53.9383516 0.314926412,53.5247756 0.314926412,53.0662281 C0.314926412,52.3402615 0.498819612,51.7090561 0.867350519,51.1726118 C1.23588143,50.6361675 1.71236583,50.2370465 2.29605923,49.9760519 C2.87975262,49.7142542 3.52375108,49.5841584 4.2287991,49.5841584 C4.92267951,49.5841584 5.55774388,49.7102389 6.1332477,49.9623998 C6.70875152,50.2153639 7.1822579,50.6056512 7.55376684,51.1332618 C7.92527577,51.6616755 8.11586953,52.2888657 8.12703714,53.0132261 L6.52039128,53.0132261 C6.47199833,52.4510839 6.25013528,51.9893242 5.85480213,51.6295531 C5.45946897,51.2697821 4.90927839,51.0906996 4.20423037,51.0906996 C3.5371522,51.0906996 3.00036274,51.2545239 2.59460649,51.5821726 C2.18810573,51.9098212 1.98559986,52.3611411 1.98559986,52.9353293 C1.98559986,53.7713151 2.4985651,54.3222145 3.52672911,54.5896336 L5.36640561,55.0947586 C5.71632385,55.1871105 6.03125026,55.2947206 6.31118485,55.4159827 C6.59037493,55.5380479 6.85541938,55.6906293 7.10557369,55.8737271 C7.35572801,56.0560218 7.56270092,56.2624083 7.72723694,56.4912805 C7.89102845,56.7201527 8.02206167,56.9931932 8.11884756,57.309599 C8.21563346,57.6260048 8.2640264,57.9785483 8.2640264,58.3672295 C8.2640264,59.505166 7.87539381,60.3917446 7.09812862,61.0269654 C6.32011893,61.6629892 5.3105676,61.980198 4.0672411,61.980198 C3.49173728,61.980198 2.96983796,61.9087256 2.50154313,61.767387 C2.0332483,61.6244423 1.64908275,61.4373292 1.34755746,61.2044417 C1.04603217,60.9723573 0.793644337,60.7009229 0.588904945,60.3917446 C0.384165552,60.0809603 0.238242203,59.7653576 0.148901377,59.4473457 C0.0603050575,59.1277276 0.0104230964,58.8024882 0,58.4724304" id="Fill-42" fill="#000000"></path>
            <path d="M10.330033,61.980198 L10.330033,52.8305241 L12.0172022,52.8305241 L12.0172022,54.0109722 L12.1024602,54.0109722 C12.2604612,53.6521929 12.5389184,53.3414643 12.9370497,53.0779858 C13.3359631,52.8145072 13.8201345,52.6831683 14.3911283,52.6831683 C15.0638058,52.6831683 15.615245,52.8145072 16.0446636,53.0779858 C16.4740822,53.3414643 16.7736583,53.7098538 16.9433921,54.1847559 L17.020046,54.1847559 C17.1952551,53.7619089 17.5214255,53.4063329 17.9993394,53.1172272 C18.4764712,52.8273207 19.0607621,52.6831683 19.7498655,52.6831683 C20.6822279,52.6831683 21.4112226,52.9570579 21.9376319,53.5072396 C22.463259,54.0566205 22.7260726,54.8038105 22.7260726,55.7472079 L22.7260726,61.980198 L21.0216954,61.980198 L21.0216954,56.1556397 C21.0216954,55.5582081 20.8652587,55.0865094 20.5508211,54.7357385 C20.2379478,54.3857685 19.7921034,54.210383 19.2156343,54.210383 C18.63369,54.210383 18.1800238,54.398582 17.8546355,54.77498 C17.5300295,55.1513779 17.3673354,55.6519071 17.3673354,56.2765676 L17.3673354,61.980198 L15.6887702,61.980198 L15.6887702,56.2765676 C15.6887702,55.605458 15.5276405,55.0929161 15.205381,54.7405436 C14.8831215,54.388171 14.4364949,54.210383 13.8655011,54.210383 C13.3343987,54.210383 12.8963761,54.3889719 12.5514333,54.7493529 C12.2064905,55.1081322 12.0344102,55.611064 12.0344102,56.258949 L12.0344102,61.980198 L10.330033,61.980198 Z" id="Fill-44" fill="#000000"></path>
            <path d="M28.2451713,60.6125241 C28.8276682,60.6125241 29.3145313,60.4375249 29.7057606,60.0875265 C30.0969898,59.7367398 30.2929996,59.3023949 30.2929996,58.7844919 L30.2929996,57.8361854 L28.2111858,57.8361854 C27.6563516,57.8361854 27.2398307,57.9560046 26.9600425,58.1948549 C26.6802543,58.4337052 26.5403602,58.7584785 26.5403602,59.1691748 C26.5403602,59.6366276 26.7039652,59.9937206 27.0327558,60.241242 C27.3615465,60.4887634 27.7654215,60.6125241 28.2451713,60.6125241 L28.2451713,60.6125241 Z M30.3182912,60.6558797 C30.084344,61.0429275 29.7516016,61.359818 29.3200638,61.6089159 C28.8893165,61.8564373 28.3621449,61.980198 27.7393396,61.980198 C26.8604569,61.980198 26.149131,61.7326766 25.6061522,61.2368456 C25.0639638,60.7410145 24.7920792,60.0796436 24.7920792,59.2543095 C24.7920792,58.4455294 25.0679156,57.8030774 25.6195884,57.3269535 C26.1704708,56.8516178 26.95451,56.6135558 27.9709157,56.6135558 L30.2929996,56.6135558 L30.2929996,55.6053397 C30.2929996,54.6089478 29.7105027,54.1099636 28.5447186,54.1099636 C27.4658743,54.1099636 26.8802159,54.5600742 26.7885339,55.4610836 L25.1264024,55.4610836 C25.1667109,54.617619 25.4733714,53.9436355 26.0479646,53.4391333 C26.6217675,52.9354194 27.4769394,52.6831683 28.6134801,52.6831683 C29.6875822,52.6831683 30.5237854,52.9228069 31.1236702,53.4012957 C31.7235551,53.8797845 32.0231023,54.6199838 32.0231023,55.6226819 L32.0231023,61.8351536 L30.3783587,61.8351536 L30.3783587,60.6558797 L30.3182912,60.6558797 Z" id="Fill-46" fill="#000000"></path>
            <path d="M34.0891089,61.980198 L34.0891089,52.8226358 L35.6444132,52.8226358 L35.6444132,53.9520017 L35.6986597,53.9520017 C35.7650403,53.7836789 35.8385586,53.6377991 35.9185008,53.5135608 C35.998443,53.388521 36.1119324,53.2562674 36.2596828,53.1176015 C36.4067194,52.9797371 36.5994372,52.8715296 36.8399776,52.7961851 C37.0790905,52.7208406 37.359602,52.6831683 37.6786571,52.6831683 C37.8699474,52.6831683 38.0505311,52.697596 38.2211221,52.7264513 L38.2211221,54.2990673 C38.0812232,54.2646012 37.8492481,54.2477689 37.5244828,54.2477689 C36.2860923,54.2477689 35.6672539,54.971557 35.6672539,56.4199346 L35.6672539,61.980198 L34.0891089,61.980198 Z" id="Fill-48" fill="#000000"></path>
            <path d="M40.612084,52.8858042 L40.612084,50.6171617 L42.4508265,50.6171617 L42.4508265,52.8858042 L44.3637324,52.8858042 L44.3637324,54.2869546 L42.4508265,54.2869546 L42.4508265,59.2801883 C42.4508265,59.790851 42.5599406,60.1365791 42.7790211,60.3165797 C42.9972493,60.4973733 43.3961976,60.5869772 43.975866,60.5869772 C44.1105537,60.5869772 44.2588806,60.5814265 44.4191419,60.5695322 L44.4191419,61.9199335 C44.1727828,61.9587883 43.8710142,61.980198 43.5138362,61.980198 C42.9350202,61.980198 42.4542363,61.9294489 42.0723371,61.8287437 C41.6904379,61.7288315 41.3912266,61.5670688 41.1755559,61.3434557 C40.9598851,61.1206355 40.8090008,60.8526169 40.722903,60.5393999 C40.6368052,60.2277688 40.5941825,59.8368423 40.5941825,59.3666204 L40.5941825,54.2869546 L39.2541254,54.2869546 L39.2541254,52.8858042 L40.612084,52.8858042 Z" id="Fill-50" fill="#000000"></path>
            <path d="M51.3561035,52.0654746 L51.3561035,56.4111814 L53.0164048,56.4111814 C53.5172066,56.4111814 53.9422501,56.3789284 54.290738,56.3151903 C54.6392258,56.2522202 54.9494358,56.1408706 55.2205705,55.9826773 C55.4909078,55.825252 55.6926639,55.6017849 55.8250414,55.3161155 C55.9582164,55.0304461 56.0244052,54.6718236 56.0244052,54.238712 C56.0244052,53.5506481 55.8282312,53.01617 55.4366808,52.6360454 C55.044333,52.2566888 54.4964814,52.0654746 53.7939235,52.0654746 L51.3561035,52.0654746 Z M49.5841584,50.6171617 L54.0188058,50.6171617 C55.1775079,50.6171617 56.1049481,50.9535143 56.8019238,51.6254517 C57.499697,52.2966211 57.8481848,53.1682198 57.8481848,54.238712 C57.8481848,55.3153476 57.499697,56.1831066 56.8019238,56.844293 C56.1049481,57.5047114 55.1743181,57.8349206 54.0100338,57.8349206 L51.3561035,57.8349206 L51.3561035,61.980198 L49.5841584,61.980198 L49.5841584,50.6171617 Z" id="Fill-52" fill="#000000"></path>
            <path d="M62.3342803,60.6125241 C62.9167771,60.6125241 63.4036402,60.4375249 63.7948695,60.0875265 C64.1860987,59.7367398 64.3813182,59.3023949 64.3813182,58.7844919 L64.3813182,57.8361854 L62.3002947,57.8361854 C61.7454605,57.8361854 61.3289396,57.9560046 61.0491514,58.1948549 C60.7693632,58.4337052 60.6294691,58.7584785 60.6294691,59.1691748 C60.6294691,59.6366276 60.7930741,59.9937206 61.1218647,60.241242 C61.4506554,60.4887634 61.8545304,60.6125241 62.3342803,60.6125241 L62.3342803,60.6125241 Z M64.4074001,60.6558797 C64.1734529,61.0429275 63.8407105,61.359818 63.4091727,61.6089159 C62.977635,61.8564373 62.4512538,61.980198 61.8284485,61.980198 C60.9495658,61.980198 60.2382399,61.7326766 59.6952611,61.2368456 C59.1530727,60.7410145 58.8811881,60.0796436 58.8811881,59.2543095 C58.8811881,58.4455294 59.1570245,57.8030774 59.7086973,57.3269535 C60.2595797,56.8516178 61.0436189,56.6135558 62.0600246,56.6135558 L64.3813182,56.6135558 L64.3813182,55.6053397 C64.3813182,54.6089478 63.7996116,54.1099636 62.6338275,54.1099636 C61.5541928,54.1099636 60.9685345,54.5600742 60.8776429,55.4610836 L59.2155113,55.4610836 C59.2558198,54.617619 59.5624803,53.9436355 60.1370735,53.4391333 C60.7108764,52.9354194 61.5660483,52.6831683 62.702589,52.6831683 C63.7766911,52.6831683 64.6128943,52.9228069 65.2127791,53.4012957 C65.812664,53.8797845 66.1122112,54.6199838 66.1122112,55.6226819 L66.1122112,61.8351536 L64.4674676,61.8351536 L64.4674676,60.6558797 L64.4074001,60.6558797 Z" id="Fill-54" fill="#000000"></path>
            <path d="M76.4422442,52.6831683 C74.3859811,58.6912456 73.3555111,61.7072303 73.3492753,61.7295296 L73.1216677,62.3594858 C73.003187,62.6884009 72.8878243,62.9687354 72.7747999,63.202082 C72.6625551,63.4354286 72.5160132,63.678332 72.3359538,63.9315887 C72.1551149,64.184049 71.9586864,64.388725 71.74433,64.5440239 C71.5299735,64.6993229 71.2665099,64.827544 70.9539392,64.9286874 C70.6413685,65.0290344 70.2906034,65.0792079 69.9024233,65.0792079 C69.5586735,65.0792079 69.2234979,65.053723 68.8968966,65.0019567 L68.8968966,63.6464758 C69.0488948,63.6751464 69.274164,63.6894817 69.5727041,63.6894817 C70.0848212,63.6894817 70.4691038,63.5755958 70.7263316,63.3494168 C70.9827799,63.1208487 71.1667367,62.7744126 71.279761,62.3085159 L71.3974622,61.8768645 L68.1782178,52.6831683 L70.07157,52.6831683 L72.3016568,60.1414986 L72.3780456,60.1414986 L74.6252809,52.6831683 L76.4422442,52.6831683 Z" id="Fill-56" fill="#000000"></path>
            <path d="M77.4752475,61.980198 L77.4752475,52.8305241 L79.1624167,52.8305241 L79.1624167,54.0109722 L79.2476747,54.0109722 C79.4056757,53.6521929 79.6841329,53.3414643 80.0822642,53.0779858 C80.4811776,52.8145072 80.965349,52.6831683 81.5363428,52.6831683 C82.2098025,52.6831683 82.7604595,52.8145072 83.1898781,53.0779858 C83.6192967,53.3414643 83.9188729,53.7098538 84.0893888,54.1847559 L84.1652606,54.1847559 C84.3404696,53.7619089 84.66664,53.4063329 85.144554,53.1172272 C85.6224679,52.8273207 86.2059766,52.6831683 86.89508,52.6831683 C87.8282246,52.6831683 88.5572193,52.9570579 89.0828464,53.5072396 C89.6084736,54.0566205 89.8712871,54.8038105 89.8712871,55.7472079 L89.8712871,61.980198 L88.1669099,61.980198 L88.1669099,56.1556397 C88.1669099,55.5582081 88.0104733,55.0865094 87.6968178,54.7357385 C87.3831623,54.3857685 86.9381001,54.210383 86.3608489,54.210383 C85.7789045,54.210383 85.3252383,54.398582 85.0006322,54.77498 C84.675244,55.1513779 84.5133321,55.6519071 84.5133321,56.2765676 L84.5133321,61.980198 L82.8339847,61.980198 L82.8339847,56.2765676 C82.8339847,55.605458 82.672855,55.0929161 82.3505955,54.7405436 C82.028336,54.388171 81.5817094,54.210383 81.0114978,54.210383 C80.4796133,54.210383 80.0415907,54.3889719 79.6966479,54.7493529 C79.3517051,55.1081322 79.1796248,55.611064 79.1796248,56.258949 L79.1796248,61.980198 L77.4752475,61.980198 Z" id="Fill-58" fill="#000000"></path>
            <path d="M92.5368361,56.4696522 L96.5185086,56.4696522 L96.5185086,56.4444719 C96.5185086,55.7441455 96.3393634,55.1744418 95.9818224,54.733787 C95.6242814,54.2931322 95.1400644,54.0728047 94.5276724,54.0728047 C93.9152804,54.0728047 93.4310634,54.293919 93.0735224,54.7385083 C92.7159814,55.1815237 92.5368361,55.7504406 92.5368361,56.4444719 L92.5368361,56.4696522 Z M94.6333606,61.980198 C93.4310634,61.980198 92.5083528,61.5993464 91.8667278,60.8368562 C91.2251029,60.0743659 90.9042904,59.0482697 90.9042904,57.7577806 L90.9042904,56.964602 C90.9042904,55.6670309 91.2191064,54.6299183 91.8502375,53.8516905 C92.4813685,53.0726757 93.3740967,52.6831683 94.5276724,52.6831683 C95.6924915,52.6831683 96.5844701,53.0711019 97.2051073,53.8469692 C97.8249949,54.6228364 98.1353135,55.6568014 98.1353135,56.9472905 L98.1353135,57.7318135 L92.5368361,57.7318135 L92.5368361,57.9883375 C92.5368361,58.715418 92.7144823,59.3260396 93.069025,59.817055 C93.4243173,60.3096441 93.9430141,60.5551518 94.6251154,60.5551518 C95.1505583,60.5551518 95.5583199,60.4347586 95.8476508,60.1923985 C96.1377312,59.9508252 96.3206243,59.6510226 96.3963301,59.2929905 L98.0296253,59.2929905 C97.9861507,59.6108915 97.8932051,59.918563 97.7492892,60.2144312 C97.6061229,60.5102995 97.4052403,60.7943644 97.1481406,61.067413 C96.8910409,61.3396748 96.5454929,61.5607891 96.1122461,61.7283953 C95.6789994,61.8960015 95.1857877,61.980198 94.6333606,61.980198 L94.6333606,61.980198 Z" id="Fill-60" fill="#000000"></path>
            <path d="M101.234323,61.980198 L101.234323,52.8305241 L102.861926,52.8305241 L102.861926,54.0710357 L102.919273,54.0710357 C103.088296,53.6842267 103.390878,53.3550787 103.827018,53.0867951 C104.263159,52.8177106 104.786829,52.6831683 105.398028,52.6831683 C106.292191,52.6831683 107.026386,52.9658672 107.601366,53.5328667 C108.177102,54.100667 108.465347,54.8935053 108.465347,55.9121823 L108.465347,61.980198 L106.804543,61.980198 L106.804543,56.5112157 C106.804543,54.9896069 106.157878,54.2272008 104.865304,54.2272008 C104.23373,54.2272008 103.744016,54.4282133 103.397669,54.8310393 C103.051323,55.2338652 102.878527,55.8136782 102.878527,56.5712792 L102.878527,61.980198 L101.234323,61.980198 Z" id="Fill-62" fill="#000000"></path>
            <path d="M110.856937,52.8858042 L110.856937,50.6171617 L112.695376,50.6171617 L112.695376,52.8858042 L114.607114,52.8858042 L114.607114,54.2869546 L112.695376,54.2869546 L112.695376,59.2801883 C112.695376,59.790851 112.804472,60.1365791 113.023516,60.3165797 C113.241708,60.4973733 113.640591,60.5869772 114.219311,60.5869772 C114.354829,60.5869772 114.503132,60.5814265 114.663366,60.5695322 L114.663366,61.9199335 C114.417048,61.9587883 114.114477,61.980198 113.757358,61.980198 C113.178637,61.980198 112.698785,61.9294489 112.316096,61.8287437 C111.93426,61.7288315 111.635951,61.5670688 111.420316,61.3434557 C111.20468,61.1206355 111.053821,60.8526169 110.967737,60.5393999 C110.880801,60.2277688 110.838186,59.8368423 110.838186,59.3666204 L110.838186,54.2869546 L109.49835,54.2869546 L109.49835,52.8858042 L110.856937,52.8858042 Z" id="Fill-64" fill="#000000"></path>
            <path d="M119.828383,58.4724304 L121.466298,58.4724304 C121.519902,59.0466186 121.770057,59.5212272 122.216761,59.8946503 C122.663465,60.2696795 123.271727,60.4567925 124.040803,60.4567925 C124.772653,60.4567925 125.35039,60.2825284 125.775504,59.9340002 C126.201362,59.5862751 126.413546,59.1132726 126.413546,58.5157957 C126.413546,58.0516268 126.27209,57.6806129 125.989922,57.4011479 C125.707009,57.1216829 125.259561,56.9024474 124.646087,56.7402292 L122.790031,56.2343012 C122.423734,56.1363278 122.090939,56.005429 121.788669,55.8432108 C121.487889,55.6801896 121.209443,55.4762122 120.954077,55.2296727 C120.697967,54.9823301 120.499184,54.674758 120.356238,54.3069563 C120.214037,53.9383516 120.142565,53.5247756 120.142565,53.0662281 C120.142565,52.3402615 120.327202,51.7090561 120.695733,51.1726118 C121.064264,50.6361675 121.540004,50.2370465 122.124442,49.9760519 C122.707391,49.7142542 123.352134,49.5841584 124.057182,49.5841584 C124.751062,49.5841584 125.386127,49.7102389 125.961631,49.9623998 C126.537134,50.2153639 127.010641,50.6056512 127.38215,51.1332618 C127.752914,51.6616755 127.944252,52.2888657 127.95542,53.0132261 L126.348774,53.0132261 C126.300381,52.4510839 126.078518,51.9893242 125.683185,51.6295531 C125.287852,51.2697821 124.737661,51.0906996 124.032613,51.0906996 C123.365535,51.0906996 122.828746,51.2545239 122.422989,51.5821726 C122.016489,51.9098212 121.813983,52.3611411 121.813983,52.9353293 C121.813983,53.7713151 122.326948,54.3222145 123.355112,54.5896336 L125.194788,55.0947586 C125.544707,55.1871105 125.859633,55.2947206 126.138823,55.4159827 C126.418758,55.5380479 126.683802,55.6906293 126.933957,55.8737271 C127.184111,56.0560218 127.391828,56.2624083 127.55562,56.4912805 C127.719411,56.7201527 127.8497,56.9931932 127.94723,57.309599 C128.044016,57.6260048 128.092409,57.9785483 128.092409,58.3672295 C128.092409,59.505166 127.703777,60.3917446 126.925767,61.0269654 C126.148502,61.6629892 125.138206,61.980198 123.895624,61.980198 C123.319376,61.980198 122.797476,61.9087256 122.329926,61.767387 C121.861631,61.6244423 121.476721,61.4373292 121.17594,61.2044417 C120.874415,60.9723573 120.621283,60.7009229 120.417288,60.3917446 C120.213293,60.0809603 120.065881,59.7653576 119.977284,59.4473457 C119.888688,59.1277276 119.838806,58.8024882 119.828383,58.4724304" id="Fill-66" fill="#000000"></path>
            <path d="M131.792291,56.4696522 L135.773551,56.4696522 L135.773551,56.4444719 C135.773551,55.7441455 135.593675,55.1744418 135.23692,54.733787 C134.879417,54.2931322 134.3945,54.0728047 133.782921,54.0728047 C133.169843,54.0728047 132.685676,54.293919 132.328172,54.7385083 C131.970669,55.1815237 131.792291,55.7504406 131.792291,56.4444719 L131.792291,56.4696522 Z M133.887849,61.980198 C132.685676,61.980198 131.763811,61.5993464 131.121503,60.8368562 C130.479945,60.0743659 130.158416,59.0482697 130.158416,57.7577806 L130.158416,56.964602 C130.158416,55.6670309 130.474698,54.6299183 131.105764,53.8516905 C131.73608,53.0726757 132.628716,52.6831683 133.782921,52.6831683 C134.94687,52.6831683 135.838756,53.0711019 136.460079,53.8469692 C137.079902,54.6228364 137.389439,55.6568014 137.389439,56.9472905 L137.389439,57.7318135 L131.792291,57.7318135 L131.792291,57.9883375 C131.792291,58.715418 131.969919,59.3260396 132.323676,59.817055 C132.678931,60.3096441 133.197574,60.5551518 133.880354,60.5551518 C134.404993,60.5551518 134.812712,60.4347586 135.102763,60.1923985 C135.392064,59.9508252 135.574938,59.6510226 135.650636,59.2929905 L137.283762,59.2929905 C137.241041,59.6108915 137.147356,59.918563 137.003455,60.2144312 C136.860303,60.5102995 136.659441,60.7943644 136.402368,61.067413 C136.145295,61.3396748 135.799783,61.5607891 135.366581,61.7283953 C134.933379,61.8960015 134.440968,61.980198 133.887849,61.980198 L133.887849,61.980198 Z" id="Fill-68" fill="#000000"></path>
            <path d="M139.455446,61.980198 L139.455446,52.8226358 L141.01075,52.8226358 L141.01075,53.9520017 L141.064283,53.9520017 C141.132091,53.7836789 141.204895,53.6377991 141.284837,53.5135608 C141.36478,53.388521 141.478269,53.2562674 141.625306,53.1176015 C141.772342,52.9797371 141.965774,52.8715296 142.206314,52.7961851 C142.445427,52.7208406 142.725225,52.6831683 143.044994,52.6831683 C143.236284,52.6831683 143.416154,52.697596 143.587459,52.7264513 L143.587459,54.2990673 C143.44756,54.2646012 143.215585,54.2477689 142.890106,54.2477689 C141.652429,54.2477689 141.033591,54.971557 141.033591,56.4199346 L141.033591,61.980198 L139.455446,61.980198 Z" id="Fill-70" fill="#000000"></path>
            <polygon id="Fill-72" fill="#000000" points="147.777568 61.980198 144.620462 52.6831683 146.535259 52.6831683 148.665728 60.207049 148.734967 60.207049 151.03893 52.6831683 152.884488 52.6831683 149.623923 61.980198"></polygon>
            <mask id="mask-4" fill="white">
                <use xlink:href="#path-3"></use>
            </mask>
            <g id="Clip-75"></g>
            <path d="M154.123941,61.980198 L155.777049,61.980198 L155.777049,52.8313122 L154.123941,52.8313122 L154.123941,61.980198 Z M154.209708,51.3162407 C154.015403,51.1216517 153.917492,50.8806176 153.917492,50.5915368 C153.917492,50.3016553 154.015403,50.061422 154.209708,49.8708369 C154.404772,49.679451 154.647653,49.5841584 154.938351,49.5841584 C155.245747,49.5841584 155.496218,49.6778494 155.690523,49.866833 C155.885587,50.0550157 155.983498,50.2960498 155.983498,50.5915368 C155.983498,50.886223 155.885587,51.1296595 155.690523,51.3202446 C155.496218,51.5108297 155.245747,51.6061222 154.938351,51.6061222 C154.647653,51.6061222 154.404772,51.5092281 154.209708,51.3162407 L154.209708,51.3162407 Z" id="Fill-74" fill="#000000" mask="url(#mask-4)"></path>
            <path d="M157.016502,57.7924035 L157.016502,56.8276842 C157.016502,55.605654 157.347388,54.6086725 158.009161,53.8391003 C158.670164,53.0679544 159.585873,52.6831683 160.75321,52.6831683 C161.804352,52.6831683 162.636954,52.9664464 163.251787,53.5361501 C163.865851,54.1042801 164.179039,54.7841475 164.189812,55.5749655 L162.579241,55.5749655 C162.53538,55.2043434 162.354546,54.869131 162.037511,54.5677545 C161.720476,54.2663781 161.303405,54.1152965 160.786299,54.1152965 C160.10298,54.1152965 159.584334,54.3726074 159.231132,54.8880162 C158.87793,55.4018511 158.700945,56.0636203 158.700945,56.8709628 L158.700945,57.8010592 C158.700945,58.5910904 158.886395,59.2371218 159.255756,59.7367929 C159.625888,60.236464 160.136068,60.4874798 160.786299,60.4874798 C161.32572,60.4874798 161.748178,60.3678735 162.05444,60.1294478 C162.359933,59.8902352 162.554617,59.5833506 162.638493,59.2080071 L164.247525,59.2080071 C164.220592,59.9807268 163.888167,60.6362008 163.251787,61.1744292 C162.614639,61.7110838 161.782036,61.980198 160.75321,61.980198 C159.574331,61.980198 158.657083,61.5977726 158.000696,60.8329217 C157.34508,60.0688578 157.016502,59.0545648 157.016502,57.7924035" id="Fill-76" fill="#000000" mask="url(#mask-4)"></path>
            <path d="M167.946657,56.4696522 L171.927917,56.4696522 L171.927917,56.4444719 C171.927917,55.7441455 171.748041,55.1744418 171.392036,54.733787 C171.033783,54.2931322 170.549616,54.0728047 169.937287,54.0728047 C169.324959,54.0728047 168.840042,54.293919 168.483288,54.7385083 C168.125035,55.1815237 167.946657,55.7504406 167.946657,56.4444719 L167.946657,56.4696522 Z M170.042964,61.980198 C168.840042,61.980198 167.918177,61.5993464 167.275869,60.8368562 C166.634311,60.0743659 166.313531,59.0482697 166.313531,57.7577806 L166.313531,56.964602 C166.313531,55.6670309 166.629064,54.6299183 167.26013,53.8516905 C167.891195,53.0726757 168.783082,52.6831683 169.937287,52.6831683 C171.101986,52.6831683 171.993122,53.0711019 172.614445,53.8469692 C173.234268,54.6228364 173.544554,55.6568014 173.544554,56.9472905 L173.544554,57.7318135 L167.946657,57.7318135 L167.946657,57.9883375 C167.946657,58.715418 168.124285,59.3260396 168.478791,59.817055 C168.834047,60.3096441 169.35194,60.5551518 170.03472,60.5551518 C170.559359,60.5551518 170.967078,60.4347586 171.257129,60.1923985 C171.547179,59.9508252 171.730053,59.6510226 171.805002,59.2929905 L173.438128,59.2929905 C173.395407,59.6108915 173.302471,59.918563 173.15857,60.2144312 C173.014669,60.5102995 172.813807,60.7943644 172.556734,61.067413 C172.299661,61.3396748 171.954899,61.5607891 171.521697,61.7283953 C171.087745,61.8960015 170.595334,61.980198 170.042964,61.980198 L170.042964,61.980198 Z" id="Fill-77" fill="#000000" mask="url(#mask-4)"></path>
            <path d="M175.775722,55.4293921 C175.775722,54.9627701 175.869528,54.55123 176.058742,54.1924111 C176.246352,53.834379 176.505319,53.5471665 176.835642,53.3307735 C177.165965,53.1151674 177.535573,52.9530694 177.943666,52.8452663 C178.352561,52.7366764 178.791121,52.6831683 179.260949,52.6831683 C180.308842,52.6831683 181.127433,52.9341842 181.715921,53.4377897 C182.303607,53.9406083 182.598653,54.5937217 182.598653,55.3955561 L180.999153,55.3955561 C180.970289,55.0084093 180.813145,54.6747707 180.529324,54.3930664 C180.245503,54.111362 179.804538,53.9705099 179.208033,53.9705099 C178.686893,53.9705099 178.265972,54.0853949 177.947675,54.3159518 C177.629379,54.5465087 177.46983,54.8636228 177.46983,55.2672941 C177.46983,55.4490642 177.517935,55.6119491 177.614145,55.7575225 C177.709554,55.903096 177.803359,56.0148335 177.896363,56.0950956 C177.989366,56.173784 178.158537,56.2508985 178.404675,56.3256525 C178.650814,56.3988327 178.823191,56.4460457 178.921807,56.4649309 C179.020423,56.4853899 179.223266,56.5207996 179.530338,56.5719471 C179.564814,56.5782421 179.592875,56.5821765 179.612117,56.5853241 C179.632963,56.5884716 179.657817,56.592406 179.686681,56.5971273 C179.715544,56.6034224 179.7412,56.6097175 179.765252,56.6144388 C180.140474,56.6828976 180.469193,56.754504 180.7466,56.8276842 C181.024809,56.9016513 181.303017,57.004733 181.581226,57.1353557 C181.859435,57.2659784 182.084728,57.4178469 182.258709,57.5917482 C182.432689,57.7648626 182.573798,57.9820425 182.680432,58.2440747 C182.787065,58.5053201 182.841584,58.8043358 182.841584,59.1395482 C182.841584,60.0326611 182.507253,60.7290531 181.837788,61.2295111 C181.168323,61.729969 180.263142,61.980198 179.121444,61.980198 C178.061524,61.980198 177.210863,61.7449198 176.570261,61.2767241 C175.929659,60.8069546 175.610561,60.1719395 175.610561,59.3701051 L177.313487,59.3701051 C177.371214,59.7682682 177.562833,60.0853823 177.887544,60.3214474 C178.212254,60.5575125 178.64921,60.6747581 179.200016,60.6747581 C179.847833,60.6747581 180.332895,60.5512174 180.651191,60.304136 C180.970289,60.0570545 181.129037,59.7367929 181.129037,59.3449249 C181.129037,58.8838111 180.869268,58.5454511 180.346524,58.329845 C180.086756,58.2267633 179.581651,58.1047963 178.834416,57.9631573 C178.446366,57.8828951 178.122458,57.8073543 177.861086,57.7373217 C177.600516,57.6657153 177.327117,57.5649942 177.040089,57.4335846 C176.753863,57.3029619 176.526165,57.153454 176.357796,56.9866347 C176.19023,56.8190285 176.050724,56.6018486 175.940884,56.3374557 C175.830242,56.0730629 175.775722,55.7708996 175.775722,55.4293921" id="Fill-78" fill="#000000" mask="url(#mask-4)"></path>
        </g>
    </g>
</svg>