<?xml version="1.0" encoding="UTF-8"?>
<svg width="250px" height="250px" viewBox="0 0 250 250" version="1.1" xmlns="http://www.w3.org/2000/svg" xmlns:xlink="http://www.w3.org/1999/xlink">
    <!-- Generator: Sketch 60.1 (88133) - https://sketch.com -->
    <title>MultiSafepa social media icon - tagline@1,5x</title>
    <desc>Created with Sketch.</desc>
    <defs>
        <polygon id="path-1" points="0.687866667 0.200778947 22 0.200778947 22 33.6540947 0.687866667 33.6540947"></polygon>
        <polygon id="path-3" points="0 0.764161538 7.7288 0.764161538 7.7288 10.9950077 0 10.9950077"></polygon>
        <polygon id="path-5" points="0 57 229 57 229 0 0 0"></polygon>
    </defs>
    <g id="MultiSafepa-social-media-icon---tagline" stroke="none" stroke-width="1" fill="none" fill-rule="evenodd">
        <g id="Group-27" fill="#006193">
            <polygon id="Fill-1" points="0 250 250 250 250 0 0 0"></polygon>
        </g>
        <g id="Group-64" transform="translate(9.000000, 103.000000)">
            <path d="M16.6770399,22.6332175 L19.4121532,10.6201311 C20.24859,7.18012666 20.3812601,6.48517626 20.998923,3.39438435 L21.2633846,3.13204058 C25.0071422,3.13290926 26.1080407,3.08773749 30.3780858,3.00347475 L30.6882351,3.26408115 C30.7295298,6.87695455 30.7734603,7.83338004 30.9931128,12.58076 L31.25406,19.329597 C31.6467987,27.470941 31.7372956,29.386398 32,33.6082217 L31.7785903,33.8705655 C28.5198254,33.824525 27.506788,33.8705655 24.8648074,34 L24.6012244,33.7359188 C24.5590511,28.2927198 24.5590511,27.5969007 24.4281382,21.5473575 L24.3446702,9.87914028 L20.9927727,24.1178053 C19.8927529,28.949448 19.4051243,31.1255114 18.9227673,33.6064843 L18.6108608,33.8696968 C16.3651334,33.8227876 15.6165575,33.8696968 13.2829691,33.9956566 L13.0193861,33.7359188 C12.404359,30.9509051 11.6584191,27.5969007 10.9537738,24.5504119 L7.69940198,10.2231407 L7.43318312,20.2382447 C7.20913754,29.2925797 7.20913754,30.2516113 7.20738032,33.6012722 L6.99036363,33.8670907 C4.61108749,33.8653534 3.82033841,33.8653534 1.22140974,33.9930505 L1,33.7333128 C1.39976759,26.5944348 1.4436981,25.8082722 1.70640252,21.1078014 L2.10792733,11.5279101 C2.23971884,7.43725831 2.28540657,5.388892 2.32933707,3.38830354 L2.59379871,3.12509107 C6.47022645,3.12682845 7.65898591,3.12682845 11.9307882,3 L12.1934926,3.26147509 C12.6767282,5.56697304 12.7232945,5.70161968 13.7776266,10.2700499 L16.6770399,22.6332175 Z" id="Fill-1" fill="#FEFEFE"></path>
            <path d="M47.0460363,31.9223404 C45.7730181,33.2970146 43.8149475,35.0027479 40.7689589,35 C35.8556351,34.9981626 35.40468,30.5403296 35.2676695,29.4361883 C35.130659,28.0569287 35.130659,26.5364418 35.1324737,23.8265269 L35.1333811,21.3926473 C35.1823782,14.775136 35.1361032,13.6719118 35,10.5474853 L35.2268386,10.27145 C38.0922636,10.2732841 38.8217765,10.2742012 41.8686724,10 L42.139064,10.2732841 C42.139064,11.8808919 42.0456065,19.7410207 42.0456065,21.4880217 C42.0446991,22.5894118 42.0446991,26.358532 42.1808023,27.187555 C42.2270774,27.6919385 42.4992837,29.3444822 44.3620821,29.3435652 C45.6795606,29.3463163 46.3637058,28.6099165 46.9534862,28.0147439 L46.9543935,24.2456237 C46.9543935,23.3725818 46.8210124,14.3652098 46.686724,10.5484024 L46.9589303,10.2760353 C49.9604585,10.2292652 50.7335244,10.1843292 53.6434097,10.0027512 L53.915616,10.2760353 C53.8702483,13.1262605 53.8230659,14.7366195 53.8230659,19.0999951 C53.8230659,20.0638261 53.8203438,25.9953759 53.8648042,28.6585207 C53.9101719,31.2336276 53.9546323,32.8412354 54,34.266348 L53.7722541,34.5423833 C50.5429799,34.4946961 49.9985673,34.5396321 47.1776027,34.6295041 L46.9498567,34.447009 L47.0460363,31.9223404 Z" id="Fill-3" fill="#FEFEFE"></path>
            <path d="M65.7195279,33.8710314 C62.6268552,33.8242141 61.7368237,33.8233307 58.4599743,34 L58.2225079,33.7358794 C58.3188033,30.9886724 58.412294,28.0232788 58.4150987,21.736503 C58.4150987,17.7075604 58.4179035,13.5893998 58.372093,9.56399065 C58.2823419,5.13577553 58.1393012,3.62967004 58,1.50610548 L58.2355966,1.23845155 C61.3731448,0.756144453 62.5006427,0.579475188 65.4025944,0 L65.6858712,0.26677059 C65.6353862,2.83642505 65.6353862,4.47061574 65.6335164,8.14710314 C65.6335164,9.610808 65.678392,19.5687711 65.7213977,25.4112237 C65.8148884,29.306781 65.9065093,31.4771629 66,33.6042608 L65.7195279,33.8710314 Z" id="Fill-5" fill="#FEFEFE"></path>
            <path d="M79.3327577,15.2929243 C77.3516855,15.2526225 77.3076817,15.2508703 76.2255457,15.2508703 L76.2255457,20.7844823 C76.1788477,21.9690047 76.1788477,23.5504122 76.1779497,24.7349346 C76.1779497,26.976065 76.2219536,29.1278305 78.2470296,29.1278305 C78.9681542,29.1278305 79.4620752,28.8623643 79.7323846,28.6888914 L80,28.9070467 C79.8652943,30.8397808 79.8212904,31.1455487 79.7763885,33.2114539 L79.505181,33.5619043 C78.4706411,33.8676723 77.2097955,34 75.8142443,34 C74.8237082,34.0008435 71.9877038,33.9982151 70.4601409,32.0216748 C69.3348991,30.5296321 69.3348991,28.5942697 69.3815971,25.4796417 L69.3824952,22.8460069 C69.3824952,21.7482209 69.4273971,16.388958 69.4291931,15.1623816 C68.6200608,15.1615054 68.1674496,15.2035595 67.2254076,15.249118 L67,14.9827757 C67.0889058,13.0088638 67.0889058,13.0088638 67.1814037,10.6836253 L67.4499171,10.4207875 C68.3066455,10.4645938 68.5293589,10.4645938 69.4767892,10.4207875 C69.4767892,9.62964568 69.4767892,9.19070653 69.4300912,5.06152455 L69.6563968,4.75488044 C72.628903,4.05397962 73.4856314,3.78851343 76.0953302,3 L76.4105416,3.22078376 C76.3189417,5.15439391 76.2740398,5.68094565 76.2273418,10.5539586 C77.8456065,10.507524 78.2084139,10.507524 79.5132633,10.4225397 L79.7844708,10.6853775 C79.6479691,12.7066003 79.6479691,12.9703142 79.5572672,14.9880325 L79.3327577,15.2929243 Z" id="Fill-7" fill="#FEFEFE"></path>
            <path d="M89.0431589,5.88413284 C86.2809917,6.19868213 85.4536272,6.28740116 82.6455464,6.78028466 L82.3682277,6.51054296 C82.4168962,4.13305219 82.369146,3.5469689 82.2800735,1.07538218 L82.5555556,0.806536637 C85.7318641,0.493779652 86.2809917,0.40416447 89.0890725,0 L89.3663912,0.269741697 C89.2727273,2.83004744 89.318641,3.50395361 89.3177227,5.61439114 L89.0431589,5.88413284 Z M89.7245179,33.8655772 C86.7777778,33.8207696 85.671258,33.8180812 82.4536272,34 L82.1753903,33.728466 C82.3140496,30.8545071 82.4104683,28.0244597 82.4104683,22.9495519 C82.4132231,15.854718 82.1827365,13.3831313 82,11.002952 L82.2286501,10.7350026 C85.4527089,10.2851344 86.2809917,10.1489193 89.4536272,9.47770163 L89.7309458,9.74744333 C89.6850321,10.3747496 89.6831956,11.0056405 89.6831956,11.5899315 C89.6372819,14.2855561 89.5886134,16.9336848 89.5895317,19.6319979 C89.5886134,24.3009489 89.677686,28.9268846 90,33.5958355 L89.7245179,33.8655772 Z" id="Fill-9" fill="#FEFEFE"></path>
            <path d="M108.120539,9.11663711 C106.997163,8.19841905 105.606828,7.10596608 103.094013,7.10596608 C100.802469,7.10596608 99.3225505,8.41447036 99.3207589,10.2944652 C99.3207589,11.6927005 100.03653,12.6518637 101.477032,13.6981444 C101.923158,14.090173 104.349077,15.6635144 104.885682,16.0128554 C107.712935,17.936409 110.000896,19.9444665 110,24.3090513 C109.998208,27.2353269 108.922311,29.4629204 107.662768,30.8585422 C105.327328,33.4363479 102.141741,34.000869 99.0878419,34 C97.3337983,34.000869 94.6883996,33.7377743 92.3538554,32.6026338 L92.0860009,32.1661753 C92.1307926,31.2496996 92.2194802,30.2879228 92.2669595,29.326146 C92.312647,28.4985301 92.3547512,27.6656872 92.3565429,26.8389424 L92.7157724,26.7082663 C94.2413783,28.1065015 96.2157971,28.8504847 98.2824869,28.8496135 C101.647241,28.8504847 102.544867,26.537516 102.544867,25.050421 C102.549346,23.1320944 101.289803,22.0832002 99.136217,20.6414062 L97.2504858,19.3712336 C94.9168374,17.7560758 91.9982092,15.7497607 92,10.9461038 C92.0008967,7.80290578 93.2147522,5.66591443 94.5172953,4.44191408 C96.6287767,2.43472775 99.4560298,1.99739809 101.970637,2 C104.258598,2.00088279 106.594038,2.39378254 108.660727,3.39824688 L108.838998,3.74845908 C108.749415,4.66493479 108.659832,5.58053931 108.613248,6.49701502 L108.477977,8.98857444 L108.120539,9.11663711 Z" id="Fill-11" fill="#FEFEFE"></path>
            <path d="M123.103942,21.2714323 C121.247107,21.54536 118.327712,22.0433279 118.325064,25.7259321 C118.325064,27.6361697 119.29849,28.862495 120.714062,28.862495 C121.997255,28.8606809 122.749167,28.0452471 123.101295,27.6379837 L123.103942,21.2714323 Z M123.1869,31.6824991 C122.480879,32.3618761 120.844676,33.9981859 117.923515,34.0000077 C114.606982,33.9981859 111.999118,31.361405 112,26.4960136 C112.002648,19.6369365 117.84144,18.0858889 123.059816,17.0890461 C123.059816,15.5461619 123.060698,13.8146123 119.919788,13.8146123 C116.998628,13.8137052 115.231811,14.9973994 114.260149,15.6359594 L113.9495,15.4509221 C114.081879,13.3592755 114.126888,12.770603 114.171897,10.8603655 L114.43842,10.4966403 C117.00304,9.31476016 120.320455,8.99820132 121.959306,9.00000767 C123.682879,9.00000767 127.175917,9.27212903 128.811238,12.1819306 C129.785546,13.9552043 129.783781,16.048665 129.697294,19.7784356 L129.649637,23.3676141 C129.603746,27.1844611 129.647872,29.7777038 130,33.320623 L129.690233,33.5963648 C126.727594,33.5519196 126.063934,33.5954578 123.501961,33.6834412 L123.188665,33.4566798 L123.1869,31.6824991 Z" id="Fill-13" fill="#FEFEFE"></path>
            <path d="M143.943317,15.2894895 C142.668464,15.2451413 141.964885,15.2478022 141.177192,15.2451413 C141.171935,25.7352673 141.348925,29.9119818 141.476848,33.6469882 L141.213992,33.8696163 C138.055335,33.8705032 137.396441,33.8705032 134.496259,34 L134.278089,33.7339107 C134.278089,33.2017322 134.280717,32.6234315 134.325403,32.0885921 C134.409517,28.9806694 134.413022,19.1522187 134.413022,15.1972452 C133.448339,15.1972452 133.186358,15.2415934 132.216418,15.2886025 L132,15.0207393 C132.087619,13.3745337 132.130552,12.7554327 132.220799,10.6205097 L132.485408,10.3561944 C133.319539,10.441343 133.53771,10.4422299 134.414774,10.4422299 C134.374469,6.97508674 134.328907,4.13059244 135.735189,2.3087679 C137.491946,0 140.741727,0.00177392847 141.751095,0 C143.289681,0 144.300802,0.220854094 144.823886,0.312211411 L145,0.576526752 C144.822134,2.53405682 144.779201,3.02366108 144.734515,5.20027131 L144.428725,5.46547361 C144.120307,5.28808077 143.855699,5.15503613 143.372919,5.15503613 C142.539664,5.15503613 141.971895,5.59940521 141.6626,6.09167036 C141.133383,6.88550335 141.134259,7.73166723 141.133383,10.4883521 C142.494103,10.4883521 142.933949,10.489239 144.207926,10.4014296 L144.470783,10.6675188 C144.294669,12.6241619 144.292916,13.068531 144.207926,15.0251741 L143.943317,15.2894895 Z" id="Fill-15" fill="#FEFEFE"></path>
            <path d="M157.529151,19.6311328 C157.531784,18.9069264 157.531784,18.1403319 157.399225,17.3232323 C157.180634,15.8351371 156.479211,14.6121934 155.201023,14.6121934 C154.584754,14.6139971 152.736825,14.8818543 152.60251,19.6275253 L157.529151,19.6311328 Z M152.649037,23.9222583 C152.733313,27.9004329 154.847239,29.9341631 158.146298,29.9350649 C160.783438,29.9350649 162.325866,28.8077201 162.937746,28.3107864 L163.249392,28.4920635 C163.113321,30.4356061 163.070305,31.29329 163.023778,33.1890332 L162.84908,33.5542929 C161.924677,34.3659812 159.155855,35 156.601236,35 C149.033065,34.9972944 145.99737,30.0694444 146.000002,22.4729437 C146.002637,20.8486652 146.132563,19.1738817 146.530241,17.5487013 C147.854956,12.034632 151.551692,10.0009019 155.419614,10 C156.69868,10.0027056 157.974234,10.2281746 159.160245,10.7693001 C163.295919,12.6731602 163.99822,16.9209957 163.999988,21.3059163 C164.000854,22.1663059 163.954326,23.0221861 163.955204,23.6562049 L163.644436,23.9258658 L152.649037,23.9222583 Z" id="Fill-17" fill="#FEFEFE"></path>
            <path d="M174.748269,29.6795285 C174.976293,29.7244569 175.154549,29.7217612 175.381668,29.7244569 L175.744514,29.7244569 C179.737637,29.3210001 179.827218,23.9610445 179.829933,21.7532639 C179.829933,20.5401977 179.740352,18.4645066 179.061711,16.9818701 C178.922363,16.6646757 178.288965,15.3599556 176.882821,15.3581585 C175.884767,15.3581585 175.203411,16.0338813 174.656879,16.5730218 C174.659594,21.3003859 174.705741,23.4668323 174.748269,29.6795285 L174.748269,29.6795285 Z M174.479528,10.2255405 C174.434285,11.2606903 174.434285,11.3972726 174.436095,12.4782494 C175.480297,11.5311592 177.116274,10.0898568 179.699634,10.0898568 C182.464869,10.0898568 184.14066,11.7611925 185.091662,13.2456261 C186.680586,15.6762514 186.997285,19.0108357 187,21.2177176 C186.994571,24.4130239 186.536714,31.3481685 180.190065,33.8264179 C178.236484,34.5452719 177.059268,34.499445 174.608922,34.4976479 C174.654165,37.7828109 174.788083,41.838945 174.880378,43.6387758 L174.607112,43.9074475 C173.700448,43.8634177 172.794689,43.8166922 171.933267,43.8166922 C170.525313,43.8166922 169.350812,43.906549 167.71393,44 L167.443379,43.7250383 C167.579107,40.1253766 167.626159,36.5212221 167.627969,32.9646916 C167.630684,25.8058037 167.633398,18.5974946 167,11.4835351 L167.226214,11.2148634 C170.537981,10.7628839 171.398498,10.5840689 174.166448,10 L174.479528,10.2255405 Z" id="Fill-19" fill="#FEFEFE"></path>
            <path d="M200.103191,22.2759597 C198.24663,22.5462593 195.326781,23.0460417 195.329423,26.7286481 C195.326781,28.6379798 196.299181,29.865213 197.714545,29.8670271 C198.996667,29.8670271 199.748468,29.0470575 200.103191,28.6397939 L200.103191,22.2759597 Z M200.187019,32.6834047 C199.482867,33.3636891 197.844257,35 194.92882,35 C191.610128,35 189.000882,32.3632175 189,27.496009 C189,20.6342065 194.84411,19.0895073 200.059072,18.0908497 C200.059072,16.5461505 200.059954,14.819135 196.9248,14.818228 C194.003186,14.818228 192.237512,16.0001088 191.263346,16.635041 L190.95539,16.4518177 C191.085102,14.3592628 191.133634,13.771497 191.173342,11.8621653 L191.442473,11.4984399 C194.003186,10.316559 197.327173,10 198.959606,10 C200.68469,10.000907 204.174567,10.275742 205.816707,13.1855453 C206.784695,14.957006 206.783813,17.050468 206.695573,20.7775198 L206.648806,24.3685146 C206.608216,28.1835498 206.649689,30.7786082 207,34.3206226 L206.692044,34.5972716 C203.728957,34.5491982 203.06716,34.5972716 200.502034,34.684348 L200.192313,34.4557724 L200.187019,32.6834047 Z" id="Fill-21" fill="#FEFEFE"></path>
            <g id="Group-25" transform="translate(207.000000, 11.000000)">
                <mask id="mask-2" fill="white">
                    <use xlink:href="#path-1"></use>
                </mask>
                <g id="Clip-24"></g>
                <path d="M5.40686667,33.3838842 C6.5582,30.7819895 7.06145,29.3003053 8.53178333,24.9518842 C6.46745,17.8682526 2.7522,6.34135789 0.687866667,0.777884211 L0.914283333,0.511252632 C4.26653333,0.466515789 4.91278333,0.423568421 8.17245,0.200778947 L8.54095,0.467410526 C9.0442,2.84651579 9.18445,3.51846316 10.42195,8.40641053 L12.1663667,15.1786737 L14.0537833,7.95814737 C14.9227833,4.73172632 14.9713667,4.46241053 15.84495,0.652621053 L16.1208667,0.383305263 C18.6912,0.430726316 19.3365333,0.428936842 21.8188667,0.295621053 L22.0003667,0.561357895 C20.8068667,4.10451579 20.5300333,5.09230526 17.8157833,13.7444105 L15.5195333,21.1009368 C13.6788667,27.3300947 12.89695,30.0644105 12.1608667,33.2935158 L11.84095,33.5628316 C8.85628333,33.5628316 8.2577,33.5628316 5.6342,33.6540947 L5.40686667,33.3838842 Z" id="Fill-23" fill="#FEFEFE" mask="url(#mask-2)"></path>
            </g>
            <g id="Group-28" transform="translate(0.000000, 44.000000)">
                <mask id="mask-4" fill="white">
                    <use xlink:href="#path-3"></use>
                </mask>
                <g id="Clip-27"></g>
                <path d="M-8.88888889e-05,8.10031538 L1.53235556,8.10031538 C1.58213333,8.57416154 1.81591111,8.96508462 2.23457778,9.27477692 C2.65146667,9.58362308 3.22035556,9.73846923 3.94035556,9.73846923 C4.62391111,9.73846923 5.16524444,9.59462308 5.56257778,9.30693077 C5.95991111,9.01923846 6.15902222,8.62916154 6.15902222,8.13585385 C6.15902222,7.75254615 6.02657778,7.44623846 5.76257778,7.21608462 C5.49857778,6.98593077 5.07902222,6.80485385 4.50568889,6.67031538 L2.76968889,6.25316154 C2.42746667,6.17193077 2.11546667,6.06446923 1.83368889,5.92993077 C1.55191111,5.79539231 1.29235556,5.62700769 1.05324444,5.42308462 C0.814133333,5.22000769 0.627466667,4.96616154 0.494133333,4.66239231 C0.3608,4.35777692 0.295022222,4.01677692 0.295022222,3.63854615 C0.295022222,3.03946923 0.466577778,2.51823846 0.811466667,2.07485385 C1.15635556,1.63231538 1.60168889,1.30316154 2.14746667,1.08739231 C2.69324444,0.871623077 3.29591111,0.764161538 3.95457778,0.764161538 C4.60435556,0.764161538 5.19813333,0.868238462 5.73591111,1.07639231 C6.27457778,1.28454615 6.71724444,1.60693077 7.0648,2.0427 C7.41146667,2.47846923 7.59013333,2.99631538 7.6008,3.59454615 L6.09857778,3.59454615 C6.05324444,3.13000769 5.84524444,2.74923846 5.47635556,2.45223846 C5.10568889,2.15608462 4.59191111,2.00716154 3.93235556,2.00716154 C3.30835556,2.00716154 2.80613333,2.14254615 2.42657778,2.41331538 C2.04702222,2.68408462 1.8568,3.05639231 1.8568,3.53023846 C1.8568,4.21985385 2.3368,4.67508462 3.29857778,4.89508462 L5.01857778,5.31223846 C5.34657778,5.38839231 5.6408,5.47723846 5.90213333,5.57877692 C6.16346667,5.67862308 6.41146667,5.80385385 6.64613333,5.95531538 C6.87991111,6.10593077 7.07368889,6.27600769 7.22657778,6.4647 C7.38035556,6.65423846 7.50213333,6.87931538 7.5928,7.13993077 C7.68346667,7.40139231 7.7288,7.69246923 7.7288,8.01316154 C7.7288,8.95239231 7.36524444,9.68346923 6.63813333,10.2080846 C5.91102222,10.7327 4.96613333,10.9950077 3.80435556,10.9950077 C3.26568889,10.9950077 2.77768889,10.9366231 2.33946667,10.8190077 C1.90213333,10.7013923 1.54213333,10.5473923 1.26035556,10.3553154 C0.978577778,10.1632385 0.742133333,9.93985385 0.551022222,9.68346923 C0.359911111,9.42793077 0.222133333,9.16816154 0.139466667,8.90416154 C0.0568,8.64100769 0.00968888889,8.37277692 -8.88888889e-05,8.10031538" id="Fill-26" fill="#FEFEFE" mask="url(#mask-4)"></path>
            </g>
            <path d="M10,55 L10,46.1435012 L11.4975028,46.1435012 L11.4975028,47.2855729 L11.572821,47.2855729 C11.7128242,46.938201 11.9600451,46.6373433 12.3135976,46.3820101 C12.66715,46.1276666 13.0977928,46 13.6037538,46 C14.2009828,46 14.6901079,46.1276666 15.0711294,46.3820101 C15.4521508,46.6373433 15.7179797,46.9946118 15.8695022,47.4538157 L15.9368455,47.4538157 C16.0919124,47.0450847 16.3816659,46.6996921 16.8052199,46.4196173 C17.2296601,46.1405322 17.7471403,46 18.3594329,46 C19.1870469,46 19.8338972,46.2662195 20.30087,46.7986585 C20.7669567,47.3301078 21,48.0525621 21,48.9660216 L21,55 L19.4883196,55 L19.4883196,49.361887 C19.4883196,48.7839235 19.3483164,48.3266989 19.0700822,47.9872443 C18.7918479,47.6477898 18.3966489,47.4785573 17.8853714,47.4785573 C17.3687772,47.4785573 16.9656034,47.661645 16.677622,48.0248516 C16.3887546,48.3890477 16.245207,48.8739828 16.245207,49.4786673 L16.245207,55 L14.7556791,55 L14.7556791,49.4786673 C14.7556791,48.829448 14.6121315,48.3336266 14.3259223,47.991203 C14.0405993,47.6497691 13.6445143,47.4785573 13.1376671,47.4785573 C12.6662639,47.4785573 12.2772676,47.6517484 11.9715644,48.00011 C11.664975,48.3474819 11.5125665,48.835386 11.5125665,49.461843 L11.5125665,55 L10,55 Z" id="Fill-29" fill="#FEFEFE"></path>
            <path d="M25.3427296,53.6760121 C25.9063634,53.6760121 26.3781747,53.5064949 26.7562099,53.1684347 C27.1352219,52.8284261 27.3247279,52.4075557 27.3247279,51.906798 L27.3247279,50.9871184 L25.3095172,50.9871184 C24.7732347,50.9871184 24.368825,51.1030526 24.0982417,51.3358952 C23.8276584,51.5667893 23.6918783,51.8814679 23.6918783,52.2779822 C23.6918783,52.7310024 23.8511024,53.0768565 24.1685738,53.3165187 C24.487022,53.556181 24.8777561,53.6760121 25.3427296,53.6760121 L25.3427296,53.6760121 Z M27.3501256,53.7179043 C27.1234999,54.0929855 26.8011443,54.3998701 26.3830589,54.6405066 C25.9659503,54.8801689 25.4560424,55 24.8533352,55 C24.001535,55 23.3128663,54.7603377 22.7873291,54.280039 C22.2627686,53.8007144 22,53.1606408 22,52.3607924 C22,51.5784802 22.266676,50.9559428 22.8000279,50.4951288 C23.3333798,50.035289 24.0923807,49.8043949 25.0770304,49.8043949 L27.3247279,49.8043949 L27.3247279,48.8282096 C27.3247279,47.8637151 26.7610941,47.3814679 25.6328496,47.3814679 C24.5876361,47.3814679 24.0210717,47.8169517 23.9321797,48.6888937 L22.3233324,48.6888937 C22.3624058,47.8724832 22.6593637,47.2197445 23.2151828,46.7316519 C23.771002,46.2435592 24.5983812,46 25.6992744,46 C26.7386268,46 27.5484231,46.2308941 28.12964,46.6946309 C28.70988,47.1583676 29,47.8754059 29,48.8457458 L29,54.8597099 L27.4077589,54.8597099 L27.4077589,53.7179043 L27.3501256,53.7179043 Z" id="Fill-31" fill="#FEFEFE"></path>
            <path d="M31,55 L31,46.1347276 L32.505955,46.1347276 L32.505955,47.2274078 L32.5580062,47.2274078 C32.6232907,47.0649422 32.6938685,46.9242708 32.7715042,46.8034122 C32.8491398,46.6825537 32.9585355,46.5547606 33.1014557,46.420033 C33.2434936,46.2853054 33.4305249,46.1822785 33.6634318,46.1079802 C33.8954566,46.0356632 34.1662991,46 34.4759594,46 C34.6603441,46 34.8359065,46.013869 35,46.041607 L35,47.5632361 C34.8650199,47.5305449 34.6400529,47.5137039 34.3259815,47.5137039 C33.1279224,47.5137039 32.5280106,48.2140892 32.5280106,49.6158503 L32.5280106,55 L31,55 Z" id="Fill-33" fill="#FEFEFE"></path>
            <path d="M37.0524542,46.9966144 L37.0524542,45 L38.4756688,45 L38.4756688,46.9966144 L39.9570255,46.9966144 L39.9570255,48.2305773 L38.4756688,48.2305773 L38.4756688,52.6247327 C38.4756688,53.0737705 38.5607752,53.3784747 38.7301454,53.5370634 C38.8986728,53.6956522 39.2079208,53.7749465 39.6562039,53.7749465 C39.7615336,53.7749465 39.8761323,53.7704918 40,53.7606914 L40,54.9474341 C39.8087213,54.983072 39.5753107,55 39.2989256,55 C38.8506425,55 38.4781968,54.9572345 38.182431,54.8681397 C37.8866653,54.7799359 37.6557826,54.6373842 37.4889404,54.4404847 C37.3212555,54.2444761 37.2049716,54.0083749 37.1384032,53.7339629 C37.0709922,53.45866 37.0372867,53.1138632 37.0372867,52.7004633 L37.0372867,48.2305773 L36,48.2305773 L36,46.9966144 L37.0524542,46.9966144 Z" id="Fill-35" fill="#FEFEFE"></path>
            <path d="M45.7156935,45.2751273 L45.7156935,49.0996463 L47.3220005,49.0996463 C47.8078344,49.0996463 48.2187731,49.0711759 48.5567874,49.0150979 C48.8938162,48.9598827 49.1933974,48.8606678 49.4555309,48.7217669 C49.7186499,48.582866 49.9137719,48.3870244 50.0418822,48.1359676 C50.1699926,47.884048 50.2340478,47.5682857 50.2340478,47.1878181 C50.2340478,46.5821758 50.0448386,46.1119834 49.6654348,45.777241 C49.286031,45.4424985 48.7558512,45.2751273 48.0758808,45.2751273 L45.7156935,45.2751273 Z M44,44 L48.2926829,44 C49.4141414,44 50.3118995,44.2959192 50.9869426,44.8877577 C51.6619857,45.4778708 52,46.2448451 52,47.1878181 C52,48.1342421 51.6619857,48.8986282 50.9869426,49.4801139 C50.3118995,50.0615995 49.411185,50.3523423 48.2847992,50.3523423 L45.7156935,50.3523423 L45.7156935,54 L44,54 L44,44 Z" id="Fill-37" fill="#FEFEFE"></path>
            <path d="M56.3427296,53.6760121 C56.9063634,53.6760121 57.3781747,53.5064949 57.7562099,53.1684347 C58.1352219,52.8284261 58.3247279,52.4075557 58.3247279,51.906798 L58.3247279,50.9871184 L56.3095172,50.9871184 C55.7732347,50.9871184 55.368825,51.1030526 55.0982417,51.3358952 C54.8276584,51.5667893 54.6918783,51.8814679 54.6918783,52.2779822 C54.6918783,52.7310024 54.8511024,53.0768565 55.1685738,53.3165187 C55.487022,53.556181 55.8777561,53.6760121 56.3427296,53.6760121 L56.3427296,53.6760121 Z M58.3501256,53.7179043 C58.1234999,54.0929855 57.8011443,54.3998701 57.3830589,54.6405066 C56.9659503,54.8801689 56.4560424,55 55.8533352,55 C55.001535,55 54.3128663,54.7603377 53.7873291,54.280039 C53.2627686,53.8007144 53,53.1606408 53,52.3607924 C53,51.5784802 53.266676,50.9559428 53.8000279,50.4951288 C54.3333798,50.035289 55.0923807,49.8043949 56.0770304,49.8043949 L58.3247279,49.8043949 L58.3247279,48.8282096 C58.3247279,47.8637151 57.7610941,47.3814679 56.6328496,47.3814679 C55.5876361,47.3814679 55.0210717,47.8169517 54.9321797,48.6888937 L53.3233324,48.6888937 C53.3624058,47.8724832 53.6593637,47.2197445 54.2151828,46.7316519 C54.771002,46.2435592 55.5983812,46 56.6992744,46 C57.7386268,46 58.5484231,46.2308941 59.12964,46.6946309 C59.70988,47.1583676 60,47.8754059 60,48.8457458 L60,54.8597099 L58.4077589,54.8597099 L58.4077589,53.7179043 L58.3501256,53.7179043 Z" id="Fill-39" fill="#FEFEFE"></path>
            <path d="M69,47 C67.0096339,51.8466207 66.0115607,54.2793635 66.0057803,54.2974081 L65.7851638,54.8067585 C65.6705202,55.0716864 65.5587669,55.2980643 65.4499037,55.4858924 C65.3410405,55.6737205 65.199422,55.8697507 65.0250482,56.0739829 C64.849711,56.2790354 64.6589595,56.4430774 64.4518304,56.5685696 C64.2447013,56.6932415 63.9894027,56.7965879 63.6868979,56.8786089 C63.3843931,56.9598097 63.044316,57 62.6685934,57 C62.3362235,57 62.0115607,56.9794948 61.694605,56.937664 L61.694605,55.8443241 C61.8420039,55.8681102 62.0606936,55.878773 62.349711,55.878773 C62.8458574,55.878773 63.2177264,55.7877297 63.4662813,55.6040026 C63.7138728,55.4210958 63.8930636,55.1414042 64.0019268,54.7649278 L64.1165703,54.4163386 L61,47 L62.8323699,47 L64.9913295,53.0170604 L65.0655106,53.0170604 L67.2408478,47 L69,47 Z" id="Fill-41" fill="#FEFEFE"></path>
            <path d="M70,55 L70,46.1435012 L71.4966167,46.1435012 L71.4966167,47.2855729 L71.5719349,47.2855729 C71.7128242,46.938201 71.9600451,46.6373433 72.3135976,46.3820101 C72.66715,46.1276666 73.0969067,46 73.6037538,46 C74.2009828,46 74.6892218,46.1276666 75.0711294,46.3820101 C75.4521508,46.6373433 75.7179797,46.9946118 75.8686161,47.4538157 L75.9359594,47.4538157 C76.0919124,47.0450847 76.3816659,46.6996921 76.8052199,46.4196173 C77.228774,46.1405322 77.7471403,46 78.3594329,46 C79.1861608,46 79.8338972,46.2662195 80.2999839,46.7986585 C80.7660706,47.3301078 81,48.0525621 81,48.9660216 L81,55 L79.4874335,55 L79.4874335,49.361887 C79.4874335,48.7839235 79.3483164,48.3266989 79.0700822,47.9872443 C78.7918479,47.6477898 78.3966489,47.4785573 77.8844853,47.4785573 C77.3678911,47.4785573 76.9656034,47.661645 76.677622,48.0248516 C76.3887546,48.3890477 76.2443209,48.8739828 76.2443209,49.4786673 L76.2443209,55 L74.754793,55 L74.754793,49.4786673 C74.754793,48.829448 74.6121315,48.3336266 74.3259223,47.991203 C74.0405993,47.6497691 73.6436282,47.4785573 73.1376671,47.4785573 C72.6653778,47.4785573 72.2772676,47.6517484 71.9715644,48.00011 C71.664975,48.3474819 71.5125665,48.835386 71.5125665,49.461843 L71.5125665,55 L70,55 Z" id="Fill-43" fill="#FEFEFE"></path>
            <path d="M83.5809738,49.6670989 L87.4347711,49.6670989 L87.4347711,49.6418152 C87.4347711,48.9640194 87.2615771,48.4126418 86.9151892,47.9857374 C86.5697274,47.5598055 86.1001588,47.3458671 85.5083355,47.3458671 C84.9155861,47.3458671 84.4460175,47.560778 84.1005557,47.9896272 C83.7541678,48.4204214 83.5809738,48.9698541 83.5809738,49.6418152 L83.5809738,49.6670989 Z M85.6102143,55 C84.4460175,55 83.5541148,54.6314425 82.931728,53.8943274 C82.3111934,53.1562399 82,52.1623987 82,50.9128039 L82,50.1455429 C82,48.8901135 82.3056364,47.8855754 82.9169092,47.1319287 C83.5272559,46.3773096 84.3913734,46 85.5083355,46 C86.6345594,46 87.4986769,46.3763371 88.0988357,47.1280389 C88.6989944,47.8787682 89,48.8794165 89,50.1290113 L89,50.8884927 L83.5809738,50.8884927 L83.5809738,51.1364668 C83.5809738,51.8405186 83.7532416,52.4317666 84.0959248,52.9072934 C84.4395343,53.3837925 84.9415189,53.6220421 85.6018788,53.6220421 C86.1103467,53.6220421 86.5048955,53.504376 86.7855253,53.2709887 C87.0661551,53.0366288 87.2430537,52.7468395 87.3162212,52.3996759 L88.897195,52.3996759 C88.8555173,52.7079417 88.7647526,53.0055105 88.6258269,53.29141 C88.4869013,53.5773096 88.2933316,53.8534846 88.0441916,54.1170178 C87.7950516,54.3815235 87.4607039,54.5944895 87.0411485,54.7568882 C86.621593,54.9192869 86.144615,55 85.6102143,55 L85.6102143,55 Z" id="Fill-45" fill="#FEFEFE"></path>
            <path d="M91,55 L91,46.1435012 L92.5751399,46.1435012 L92.5751399,47.3449527 L92.6310951,47.3449527 C92.7942979,46.9698702 93.0880629,46.6511986 93.5095923,46.3909171 C93.9329869,46.1306356 94.4393818,46 95.0306422,46 C95.8960831,46 96.6076472,46.2751265 97.1644018,46.8224104 C97.722089,47.3726633 98,48.1396525 98,49.1253574 L98,55 L96.3922196,55 L96.3922196,49.7053002 C96.3922196,48.2326809 95.7664535,47.4953816 94.515854,47.4953816 C93.9031442,47.4953816 93.4293898,47.6903453 93.094591,48.079283 C92.7588596,48.4692105 92.5919265,49.0313393 92.5919265,49.76468 L92.5919265,55 L91,55 Z" id="Fill-47" fill="#FEFEFE"></path>
            <path d="M101.052454,46.9966144 L101.052454,45 L102.475669,45 L102.475669,46.9966144 L103.957025,46.9966144 L103.957025,48.2305773 L102.475669,48.2305773 L102.475669,52.6247327 C102.475669,53.0737705 102.560775,53.3784747 102.730145,53.5370634 C102.898673,53.6956522 103.207921,53.7749465 103.656204,53.7749465 C103.761534,53.7749465 103.876132,53.7704918 104,53.7606914 L104,54.9474341 C103.808721,54.983072 103.575311,55 103.298926,55 C102.850643,55 102.478197,54.9572345 102.182431,54.8681397 C101.886665,54.7799359 101.655783,54.6373842 101.48894,54.4404847 C101.321256,54.2444761 101.204972,54.0083749 101.138403,53.7339629 C101.070992,53.45866 101.038129,53.1138632 101.038129,52.7004633 L101.038129,48.2305773 L100,48.2305773 L100,46.9966144 L101.052454,46.9966144 Z" id="Fill-49" fill="#FEFEFE"></path>
            <path d="M107,51.1706228 L108.586199,51.1706228 C108.637723,51.6337772 108.879701,52.0158796 109.312133,52.3185841 C109.744566,52.6204615 110.33341,52.7718137 111.077746,52.7718137 C111.786199,52.7718137 112.346521,52.6312133 112.757792,52.3500124 C113.169063,52.0688115 113.375158,51.6875362 113.375158,51.2053594 C113.375158,50.8307005 113.238068,50.5313043 112.964807,50.3063436 C112.691547,50.0813828 112.257274,49.9043917 111.66383,49.7728889 L109.866935,49.3651476 C109.512708,49.2857497 109.189764,49.1807129 108.898102,49.0492102 C108.60644,48.9177074 108.33686,48.7531222 108.090282,48.5538003 C107.842783,48.3553056 107.649569,48.1071872 107.511558,47.8102721 C107.373548,47.51253 107.304543,47.1792242 107.304543,46.8095277 C107.304543,46.2239682 107.483036,45.7144984 107.840023,45.2811182 C108.19609,44.848565 108.657044,44.5268381 109.222887,44.3159375 C109.786889,44.1050368 110.411616,44 111.093387,44 C111.765037,44 112.380564,44.1017286 112.937205,44.3051857 C113.494767,44.5086428 113.952961,44.8237532 114.311788,45.2496899 C114.671535,45.6756265 114.856469,46.1817881 114.86659,46.7665206 L113.311673,46.7665206 C113.26567,46.3124638 113.050374,45.9402862 112.667625,45.6499876 C112.284876,45.3605161 111.752156,45.2149533 111.069465,45.2149533 C110.424497,45.2149533 109.904658,45.3472831 109.511788,45.6119428 C109.117999,45.8766024 108.922024,46.2405095 108.922024,46.7036639 C108.922024,47.377719 109.418861,47.822678 110.413456,48.037714 L112.19471,48.4454553 C112.533295,48.5198908 112.837838,48.6067323 113.109258,48.7059797 C113.379758,48.8035729 113.636458,48.925978 113.878436,49.074022 C114.120414,49.2212389 114.321909,49.3874783 114.480161,49.571913 C114.638413,49.7571748 114.764462,49.9771731 114.859229,50.231908 C114.953076,50.48747 115,50.7719792 115,51.0854354 C115,52.0034737 114.623692,52.7180548 113.870155,53.2308329 C113.118459,53.743611 112.140426,54 110.936975,54 C110.379413,54 109.875216,53.9429328 109.421622,53.8279712 C108.968028,53.7130097 108.59632,53.5624845 108.304658,53.3747415 C108.012996,53.1869986 107.767338,52.9686544 107.570443,52.7180548 C107.372628,52.4682822 107.230017,52.2143743 107.144451,51.9563312 C107.057964,51.699115 107.010121,51.4369366 107,51.1706228" id="Fill-51" fill="#FEFEFE"></path>
            <path d="M118.581183,49.6670989 L122.43549,49.6670989 L122.43549,49.6418152 C122.43549,48.9640194 122.262273,48.4126418 121.91584,47.9857374 C121.570332,47.5598055 121.100701,47.3458671 120.507873,47.3458671 C119.915046,47.3458671 119.446341,47.560778 119.099907,47.9896272 C118.7544,48.4204214 118.581183,48.9698541 118.581183,49.6418152 L118.581183,49.6670989 Z M120.609766,55 C119.446341,55 118.553394,54.6314425 117.931851,53.8943274 C117.310308,53.1562399 117,52.1623987 117,50.9128039 L117,50.1455429 C117,48.8901135 117.305677,47.8855754 117.916104,47.1319287 C118.526532,46.3773096 119.39169,46 120.507873,46 C121.635173,46 122.498478,46.3763371 123.099643,47.1280389 C123.699881,47.8787682 124,48.8794165 124,50.1290113 L124,50.8884927 L118.581183,50.8884927 L118.581183,51.1364668 C118.581183,51.8405186 118.753474,52.4317666 119.096202,52.9072934 C119.439857,53.3837925 119.941908,53.6220421 120.602355,53.6220421 C121.110891,53.6220421 121.505492,53.504376 121.786159,53.2709887 C122.066825,53.0366288 122.243748,52.7468395 122.316925,52.3996759 L123.898108,52.3996759 C123.856425,52.7079417 123.765648,53.0055105 123.626704,53.29141 C123.48776,53.5773096 123.293238,53.8534846 123.044065,54.1170178 C122.794892,54.3815235 122.4605,54.5944895 122.041816,54.7568882 C121.622205,54.9192869 121.145163,55 120.609766,55 L120.609766,55 Z" id="Fill-53" fill="#FEFEFE"></path>
            <path d="M125,55 L125,46.1347276 L126.505955,46.1347276 L126.505955,47.2274078 L126.558006,47.2274078 C126.623291,47.0649422 126.693869,46.9242708 126.771504,46.8034122 C126.84914,46.6825537 126.958536,46.5547606 127.101456,46.420033 C127.243494,46.2853054 127.430525,46.1822785 127.663432,46.1079802 C127.895457,46.0356632 128.166299,46 128.475959,46 C128.660344,46 128.835024,46.013869 129,46.041607 L129,47.5632361 C128.86502,47.5305449 128.640053,47.5137039 128.325981,47.5137039 C127.127922,47.5137039 126.528011,48.2140892 126.528011,49.6158503 L126.528011,55 L125,55 Z" id="Fill-55" fill="#FEFEFE"></path>
            <polygon id="Fill-57" fill="#FEFEFE" points="133.056799 54 130 46 131.853946 46 133.917384 52.4740194 133.98328 52.4740194 136.213917 46 138 46 134.843865 54"></polygon>
            <mask id="mask-6" fill="white">
                <use xlink:href="#path-5"></use>
            </mask>
            <g id="Clip-60"></g>
            <path d="M139.198968,54 L140.801032,54 L140.801032,46.6193814 L139.198968,46.6193814 L139.198968,54 Z M139.282496,45.3962887 C139.094791,45.2404124 139,45.0449485 139,44.8115464 C139,44.5781443 139.094791,44.3851546 139.282496,44.2309278 C139.47114,44.076701 139.70671,44 139.988268,44 C140.285781,44 140.52886,44.0758763 140.717504,44.2268041 C140.906147,44.3793814 141,44.5731959 141,44.8115464 C141,45.0498969 140.906147,45.2453608 140.717504,45.3995876 C140.52886,45.5538144 140.285781,45.6313402 139.988268,45.6313402 C139.70671,45.6313402 139.47114,45.5529897 139.282496,45.3962887 L139.282496,45.3962887 Z" id="Fill-59" fill="#FEFEFE" mask="url(#mask-6)"></path>
            <path d="M142,50.9458671 L142,50.0132901 C142,48.8288493 142.320429,47.865154 142.961288,47.1183144 C143.601195,46.3734198 144.487368,46 145.616952,46 C146.634338,46 147.440641,46.2752026 148.03586,46.8265802 C148.630128,47.376013 148.932491,48.0343598 148.943901,48.7996759 L147.385493,48.7996759 C147.341755,48.4418152 147.167753,48.1170178 146.860636,47.8252836 C146.554469,47.532577 146.150367,47.3876823 145.64928,47.3876823 C144.987503,47.3876823 144.485466,47.6366288 144.143168,48.1345219 C143.802771,48.6324149 143.631622,49.2722853 143.631622,50.0541329 L143.631622,50.9546191 C143.631622,51.7199352 143.810378,52.3442464 144.167889,52.8294976 C144.525401,53.3128039 145.019832,53.5559157 145.64928,53.5559157 C146.171285,53.5559157 146.580141,53.439222 146.8768,53.208752 C147.172507,52.9773096 147.361722,52.6797407 147.441592,52.3160454 L149,52.3160454 C148.973377,53.0658023 148.651997,53.6998379 148.03586,54.2200972 C147.418772,54.7393841 146.61342,55 145.616952,55 C144.475958,55 143.587884,54.63047 142.95273,53.8894652 C142.317577,53.1494327 142,52.1682334 142,50.9458671" id="Fill-61" fill="#FEFEFE" mask="url(#mask-6)"></path>
            <path d="M151.5819,49.6670989 L155.434771,49.6670989 L155.434771,49.6418152 C155.434771,48.9640194 155.262503,48.4126418 154.916115,47.9857374 C154.570654,47.5598055 154.101085,47.3458671 153.508336,47.3458671 C152.915586,47.3458671 152.446944,47.560778 152.100556,47.9896272 C151.755094,48.4204214 151.5819,48.9698541 151.5819,49.6418152 L151.5819,49.6670989 Z M153.610214,55 C152.446944,55 151.554115,54.6314425 150.932654,53.8943274 C150.311193,53.1562399 150,52.1623987 150,50.9128039 L150,50.1455429 C150,48.8901135 150.306563,47.8855754 150.916909,47.1319287 C151.527256,46.3773096 152.391373,46 153.508336,46 C154.635486,46 155.498677,46.3763371 156.099762,47.1280389 C156.698994,47.8787682 157,48.8794165 157,50.1290113 L157,50.8884927 L151.5819,50.8884927 L151.5819,51.1364668 C151.5819,51.8405186 151.754168,52.4317666 152.096851,52.9072934 C152.44046,53.3837925 152.942445,53.6220421 153.602805,53.6220421 C154.110347,53.6220421 154.504895,53.504376 154.786451,53.2709887 C155.067081,53.0366288 155.243054,52.7468395 155.317147,52.3996759 L156.897195,52.3996759 C156.855517,52.7079417 156.765679,53.0055105 156.625827,53.29141 C156.487827,53.5773096 156.293332,53.8534846 156.044192,54.1170178 C155.795052,54.3815235 155.460704,54.5944895 155.041148,54.7568882 C154.621593,54.9192869 154.145541,55 153.610214,55 L153.610214,55 Z" id="Fill-62" fill="#FEFEFE" mask="url(#mask-6)"></path>
            <path d="M158.159541,48.658671 C158.159541,48.206483 158.250708,47.8077796 158.433041,47.4615883 C158.615374,47.1144246 158.866082,46.8363047 159.186155,46.6272285 C159.506229,46.4171799 159.863958,46.2606159 160.259343,46.156564 C160.654728,46.0515397 161.078851,46 161.533692,46 C162.549405,46 163.341166,46.2431118 163.910957,46.7312804 C164.479757,47.2175041 164.765147,47.8486224 164.765147,48.6256078 L163.217299,48.6256078 C163.188562,48.2512156 163.036948,47.9273906 162.762458,47.6551053 C162.486976,47.3828201 162.061863,47.2466775 161.483154,47.2466775 C160.978766,47.2466775 160.571489,47.3575365 160.263307,47.5811994 C159.955125,47.8038898 159.799547,48.1111831 159.799547,48.5011345 C159.799547,48.6781199 159.846121,48.8366288 159.93927,48.9766613 C160.032418,49.1166937 160.122593,49.2256078 160.212769,49.3024311 C160.301954,49.3792545 160.46645,49.4531605 160.704275,49.526094 C160.944083,49.5970827 161.110561,49.6427877 161.205691,49.6612642 C161.300821,49.6807131 161.497027,49.7147488 161.7953,49.765316 C161.828001,49.7711507 161.854757,49.7740681 161.874575,49.7769854 C161.894394,49.7799028 161.918177,49.7837925 161.945923,49.7896272 C161.97466,49.7944895 161.999434,49.8012966 162.021234,49.8061588 C162.386891,49.8722853 162.703992,49.9403566 162.972537,50.0132901 C163.242072,50.0842788 163.510617,50.1834684 163.780153,50.3098865 C164.048698,50.4363047 164.268686,50.5831442 164.436155,50.7513776 C164.604615,50.919611 164.741365,51.1296596 164.844422,51.3834684 C164.948471,51.6372771 165,51.9251216 165,52.249919 C165,53.1144246 164.675963,53.7883306 164.028879,54.2726094 C163.380804,54.7568882 162.504813,55 161.398924,55 C160.37231,55 159.548839,54.7724473 158.928511,54.3183144 C158.309173,53.865154 158,53.2495948 158,52.4735818 L159.648924,52.4735818 C159.705408,52.8576985 159.889723,53.1659643 160.203851,53.393517 C160.518969,53.6220421 160.942101,53.7367909 161.475227,53.7367909 C162.102492,53.7367909 162.571206,53.6171799 162.880379,53.3779579 C163.188562,53.1377634 163.342157,52.8285251 163.342157,52.4482982 C163.342157,52.0019449 163.09145,51.6752026 162.58607,51.4661264 C162.333381,51.3659643 161.844847,51.2482982 161.121461,51.1102107 C160.744904,51.0333874 160.431767,50.9604538 160.179077,50.8923825 C159.926387,50.8233387 159.661806,50.7251216 159.383352,50.5987034 C159.105889,50.4713128 158.8859,50.328363 158.723386,50.1659643 C158.560872,50.0035656 158.426104,49.793517 158.319083,49.5367909 C158.213052,49.2820097 158.159541,48.9893031 158.159541,48.658671" id="Fill-63" fill="#FEFEFE" mask="url(#mask-6)"></path>
        </g>
    </g>
</svg>