<?xml version="1.0" encoding="UTF-8"?>
<svg width="330px" height="80px" viewBox="0 0 330 80" version="1.1" xmlns="http://www.w3.org/2000/svg" xmlns:xlink="http://www.w3.org/1999/xlink">
    <!-- Generator: Sketch 60.1 (88133) - https://sketch.com -->
    <title>MultiSafepay - no tagline@1,5x</title>
    <desc>Created with Sketch.</desc>
    <defs>
        <polygon id="path-1" points="0.2364 0.452 7.66600115 0.452 7.66600115 7.87976461 0.2364 7.87976461"></polygon>
        <polygon id="path-3" points="0.621409091 0.34864 8.21945455 0.34864 8.21945455 7.77824 0.621409091 7.77824"></polygon>
    </defs>
    <g id="MultiSafepay---no-tagline" stroke="none" stroke-width="1" fill="none" fill-rule="evenodd">
        <g id="Group-43" transform="translate(8.000000, 14.000000)">
            <path d="M17.7001241,27.6668201 L20.78731,14.1035148 C21.7320819,10.2189719 21.8825628,9.4343939 22.5798945,5.94482426 L22.8785293,5.64878605 C27.1051815,5.64955298 28.3478126,5.59970199 33.1694074,5.50383469 L33.5184611,5.79757209 C33.5657772,9.87691735 33.6154204,10.9559996 33.8636364,16.3168989 L34.1576171,23.9371987 C34.6013031,33.1297221 34.7029165,35.2917214 35,40.0574766 L34.749457,40.3542817 C31.071207,40.3028968 29.9270866,40.3542817 26.9438411,40.5 L26.645982,40.2031948 C26.5994415,34.0561837 26.5994415,33.2716057 26.4512876,26.4412525 L26.3566553,13.266785 L22.5729134,29.3441143 C21.3302823,34.7978131 20.7803289,37.2550837 20.2350295,40.0567096 L19.8828731,40.3527478 C17.3479677,40.301363 16.5032578,40.3527478 13.8682904,40.4961653 L13.5696556,40.2031948 C12.8754266,37.0587475 12.0330437,33.2716057 11.237977,29.8311202 L7.56360534,13.6556228 L7.2626435,24.9625953 C7.0097735,35.185117 7.0097735,36.268034 7.00822215,40.0505741 L6.76233323,40.3496801 C4.07694694,40.3489131 3.18414521,40.3489131 0.249767298,40.4938645 L0,40.2001271 C0.451442755,32.1396047 0.501085945,31.252257 0.797393733,25.9435095 L1.25038784,15.1281444 C1.40009308,10.5096415 1.45128762,8.19732229 1.50093081,5.93792182 L1.79878995,5.64111666 C6.17669873,5.64265054 7.5186162,5.64265054 12.3417623,5.5 L12.6380701,5.79450434 C13.1833695,8.39749321 13.2361154,8.54934701 14.4260006,13.7070076 L17.7001241,27.6668201 Z" id="Fill-1" fill="#00ABEE"></path>
            <path d="M52.3143764,38.176111 C50.9075803,39.6607081 48.7432786,41.5023211 45.3760642,41.5 C39.9464899,41.4969001 39.4477595,36.682995 39.2956311,35.4903608 C39.1450709,34.001117 39.1450709,32.359309 39.1466393,29.4327087 L39.1482076,26.8034926 C39.2023152,19.656981 39.1505601,18.4658957 39,15.0916704 L39.2517177,14.7935119 C42.4189694,14.7950608 43.2243092,14.7966097 46.5930919,14.5 L46.8910754,14.7950608 C46.8910754,16.5321247 46.7883495,25.0199624 46.7883495,26.9072672 C46.7867812,28.0968036 46.7867812,32.166474 46.9373413,33.0624985 C46.9890963,33.6077027 47.2886482,35.3920072 49.3478715,35.3912328 C50.8040702,35.3935561 51.5607916,34.5982086 52.2124347,33.9561997 L52.214003,29.8849804 C52.214003,28.9424896 52.0657954,19.214777 51.9183719,15.0924449 L52.2179238,14.7981585 C55.5357356,14.7485945 56.390478,14.7005794 59.606348,14.5030978 L59.9066841,14.7981585 C59.8564974,17.8765486 59.8047423,19.6159358 59.8047423,24.3283895 C59.8047423,25.3684594 59.8016057,31.7746085 59.850224,34.6508703 C59.9011949,37.4318763 59.9498133,39.1681657 60,40.707748 L59.7482823,41.0059065 C56.179537,40.9540192 55.5780807,41.0028088 52.4594473,41.0996135 L52.2077296,40.9029063 L52.3143764,38.176111 Z" id="Fill-3" fill="#00ABEE"></path>
            <path d="M71.6842105,40.3556425 C68.2064145,40.3031488 67.2047697,40.3016049 63.5180921,40.5 L63.2508224,40.2043372 C63.3585526,37.1342306 63.4638158,33.8194109 63.4671053,26.7937532 C63.4671053,22.2901067 63.4703947,17.6876486 63.4194079,13.1894058 C63.3182566,8.2403352 63.1570724,6.55667852 63,4.18442864 L63.265625,3.88413408 C66.7952303,3.34607415 68.0625,3.14767902 71.3273026,2.5 L71.6463816,2.79875063 C71.5896382,5.67046216 71.5896382,7.49693245 71.5879934,11.6061046 C71.5879934,13.2411275 71.6373355,24.3705536 71.6866776,30.9006094 C71.7911184,35.2544947 71.8947368,37.6792382 72,40.0568918 L71.6842105,40.3556425 Z" id="Fill-5" fill="#00ABEE"></path>
            <path d="M87.2815859,20.3788414 C85.147518,20.3332052 85.100632,20.3308847 83.9345325,20.3308847 L83.9345325,26.5791866 C83.8846216,27.9165614 83.8846216,29.7017906 83.8831092,31.0391654 C83.8831092,33.5700448 83.9307514,35.9980492 86.1117053,35.9980492 C86.8883487,35.9980492 87.4199752,35.7002532 87.7118781,35.5030117 L88,35.749757 C87.8548047,37.9317896 87.8071625,38.2775424 87.7587641,40.6096333 L87.4668611,41.0048898 C86.352185,41.3506426 84.9955167,41.5 83.4913844,41.5 C82.4258629,41.5014744 79.3714687,41.4983804 77.7259223,39.2660705 C76.5144493,37.5821694 76.5144493,35.3970427 76.5643602,31.8799557 L76.5658726,28.905863 C76.5658726,27.6667222 76.6142711,21.6164353 76.6157835,20.2318772 C75.7446119,20.2303302 75.2576028,20.2782869 74.2419921,20.3293377 L74,20.0292212 C74.0952844,17.8000053 74.0952844,17.8000053 74.1951061,15.1739858 L74.4847405,14.8785103 C75.4065792,14.9280141 75.6463026,14.9280141 76.6664506,14.8785103 C76.6664506,13.9843488 76.6664506,13.4885377 76.6165397,8.82667642 L76.8608005,8.48092364 C80.0619024,7.68963708 80.9837412,7.38952057 83.7946308,6.5 L84.134176,6.74906576 C84.0358667,8.9310984 83.9874683,9.52591695 83.9375574,15.0285686 C85.6791444,14.9759708 86.0693567,14.9759708 87.4751796,14.8800573 L87.7678388,15.1770798 C87.6203749,17.4588935 87.6203749,17.755916 87.5220656,20.0346357 L87.2815859,20.3788414 Z" id="Fill-7" fill="#00ABEE"></path>
            <path d="M97.9232633,10.0758687 C94.815832,10.427532 93.8852989,10.5262171 90.726979,11.0768169 L90.414378,10.7760625 C90.4693053,8.11861577 90.4159935,7.46306525 90.315832,4.70145101 L90.6243942,4.40147986 C94.1978998,4.05138299 94.815832,3.95113154 97.9749596,3.5 L98.2875606,3.80075436 C98.1825525,6.66340327 98.2342488,7.41607239 98.2326333,9.77511439 L97.9232633,10.0758687 Z M98.6898223,41.3511892 C95.3747981,41.3010635 94.1300485,41.2979307 90.5105008,41.5 L90.1970921,41.1976792 C90.3537964,37.9857166 90.4620355,34.8223134 90.4620355,29.1502741 C90.4652666,21.2202275 90.2059774,18.4578301 90,15.7980337 L90.2576737,15.4980626 C93.8844911,14.9944557 94.815832,14.8425121 98.3844911,14.0929758 L98.6970921,14.3937302 C98.6453958,15.0954903 98.6437803,15.8011666 98.6437803,16.4535842 C98.592084,19.4658271 98.5371567,22.4263778 98.5387722,25.4417536 C98.5371567,30.6603116 98.638126,35.8318768 99,41.0496517 L98.6898223,41.3511892 Z" id="Fill-9" fill="#00ABEE"></path>
            <path d="M120.911737,13.5062258 C119.663293,12.4731662 118.119084,11.2446837 115.32721,11.2446837 C112.780511,11.2446837 111.135897,12.7161038 111.13434,14.8312703 C111.13434,16.4038506 111.929016,17.482892 113.530043,18.6600281 C114.02584,19.1022205 116.720423,20.8717565 117.317403,21.2649016 C120.458748,23.4283491 123.001556,25.6875921 123,30.5984568 C122.998443,33.889993 121.802926,36.3967718 120.403486,37.9655203 C117.807752,40.8662105 114.267901,41.5015268 110.874377,41.5 C108.926993,41.5015268 105.986457,41.2049437 103.393058,39.9281802 L103.094957,39.4369404 C103.14477,38.40618 103.243618,37.3240731 103.296545,36.2419662 C103.347915,35.3108331 103.394614,34.3743355 103.396171,33.4439688 L103.794677,33.2968268 C105.49066,34.8694071 107.683998,35.7070436 109.980075,35.7062773 C113.719178,35.7070436 114.716999,33.1052356 114.716999,31.4322616 C114.72089,29.2741787 113.322229,28.0939771 110.928861,26.4715831 L108.834371,25.0430794 C106.240193,23.2260288 102.998444,20.9683185 103,15.5646813 C103.001557,12.0286747 104.349627,9.62382243 105.797323,8.2474315 C108.143213,5.98895485 111.28378,5.49694874 114.078767,5.5 C116.620797,5.50078056 119.215753,5.94297297 121.51183,7.07259448 L121.709526,7.46727228 C121.6099,8.49803275 121.510273,9.52802685 121.458903,10.5595537 L121.309464,13.3621492 L120.911737,13.5062258 Z" id="Fill-11" fill="#000000"></path>
            <path d="M137.337065,27.7541163 C135.275265,28.0497926 132.030364,28.5867591 132.027297,32.5646011 C132.027297,34.6282072 133.108419,35.9518565 134.682564,35.9518565 C136.107192,35.9503245 136.942954,35.0701896 137.334765,34.6297392 L137.337065,27.7541163 Z M137.429842,38.9982415 C136.645453,39.7320702 134.827481,41.498468 131.581046,41.5 C127.896029,41.498468 124.998467,38.6504772 125,33.3964779 C125.002301,25.9884846 131.489803,24.3140069 137.287993,23.2370098 C137.287993,21.5701922 137.289526,19.7003843 133.799264,19.7003843 C130.553597,19.6996183 128.590707,20.9788396 127.511118,21.6674742 L127.166079,21.4675481 C127.313296,19.2086118 127.362368,18.5735972 127.412974,16.5099911 L127.708941,16.1177987 C130.558964,14.8408755 134.243981,14.4984731 136.065021,14.5 C137.980371,14.5 141.861678,14.7949154 143.678884,17.9378165 C144.760773,19.8520524 144.760006,22.1132867 144.662628,26.1416847 L144.610489,30.0176486 C144.55835,34.1394987 144.608189,36.9407635 145,40.7661713 L144.655728,41.0656776 C141.363288,41.0158875 140.626438,41.0641456 137.779482,41.1591297 L137.431376,40.9140094 L137.429842,38.9982415 Z" id="Fill-13" fill="#000000"></path>
            <path d="M160.781028,20.5881015 C159.310672,20.5384921 158.498024,20.5408176 157.589723,20.5384921 C157.583399,32.263356 157.788142,36.9312874 157.935178,41.1054505 L157.631621,41.3534973 C153.987352,41.3550476 153.226877,41.3550476 149.880632,41.5 L149.629249,41.2031189 C149.629249,40.6070314 149.631621,39.9613345 149.683794,39.3636966 C149.781028,35.8894906 149.78498,24.9056667 149.78498,20.4842319 C148.671937,20.4842319 148.36917,20.5346164 147.250593,20.5865512 L147,20.2873447 C147.101976,18.4479224 147.150988,17.7549416 147.255336,15.3698162 L147.560474,15.0744854 C148.52332,15.1690533 148.774704,15.1706036 149.786561,15.1706036 C149.740711,11.2964221 149.688538,8.11677172 151.310672,6.08046223 C153.336759,3.5 157.086957,3.50155029 158.251383,3.5 C160.026877,3.5 161.192885,3.74727169 161.796838,3.84959101 L162,4.14492177 C161.795257,6.33160965 161.745455,6.87963813 161.694071,9.31204741 L161.341502,9.60815332 C160.98498,9.40971585 160.679842,9.26088775 160.12253,9.26088775 C159.161265,9.26088775 158.505929,9.75775656 158.150198,10.3081105 C157.53834,11.1956531 157.539921,12.1405565 157.53834,15.2217633 C159.109881,15.2217633 159.61581,15.2233135 161.086957,15.1256451 L161.389723,15.421751 C161.186561,17.609214 161.18498,18.1060829 161.086957,20.2927707 L160.781028,20.5881015 Z" id="Fill-15" fill="#000000"></path>
            <path d="M175.810597,24.2872154 C175.813648,23.4760219 175.813648,22.6166464 175.665681,21.7027702 C175.422374,20.0353607 174.642877,18.6657311 173.222698,18.6657311 C172.538541,18.6673108 170.48607,18.9682502 170.335814,24.2832661 L175.810597,24.2872154 Z M170.388442,29.0927671 C170.481493,33.5484076 172.830662,35.8263844 176.495517,35.8279641 C179.425876,35.8279641 181.138938,34.5657564 181.820044,34.0089001 L182.166318,34.2111061 C182.0153,36.3895596 181.965723,37.3500381 181.914621,39.4724111 L181.720128,39.8823521 C180.693511,40.7914892 177.617474,41.5 174.779404,41.5 C166.369686,41.4976304 162.996951,35.9780389 163,27.47038 C163.003053,25.651316 163.146444,23.7753815 163.589582,21.9547378 C165.061626,15.7795565 169.168857,13.5015797 173.466005,13.5 C174.887709,13.5031595 176.304838,13.755917 177.622813,14.361745 C182.21742,16.4935964 182.998442,21.251756 183,26.1631499 C183.001493,27.1259979 182.948865,28.0848966 182.950391,28.7949872 L182.604117,29.0975063 L170.388442,29.0927671 Z" id="Fill-17" fill="#000000"></path>
            <path d="M194.523385,35.4955362 C194.774004,35.5450102 194.970919,35.5426543 195.22076,35.5450102 L195.61926,35.5450102 C200.011321,35.0942466 200.110946,29.1039596 200.114059,26.6365393 C200.114059,25.280322 200.014434,22.9597532 199.267247,21.3035504 C199.114696,20.9485937 198.418099,19.490287 196.872355,19.4887164 C195.772589,19.4887164 195.023845,20.2441774 194.42376,20.8465044 C194.426095,26.1308045 194.475907,28.551892 194.523385,35.4955362 L194.523385,35.4955362 Z M194.228402,13.7520821 C194.178589,14.9096179 194.178589,15.0611813 194.180146,16.2697617 C195.328168,15.211174 197.128423,13.601304 199.97007,13.601304 C203.012524,13.601304 204.854808,15.4687532 205.90087,17.1280973 C207.648199,19.8436731 207.997665,23.5707186 208,26.0373535 C207.994552,29.6081237 207.491757,37.3598442 200.507889,40.1288206 C198.361282,40.9337556 197.066157,40.8811403 194.369278,40.8795697 C194.41909,44.5524293 194.567749,49.0844097 194.668931,51.0955692 L194.368499,51.3979107 C193.370693,51.3484366 192.373664,51.2958214 191.426449,51.2958214 C189.877591,51.2958214 188.586358,51.3947695 186.785325,51.5 L186.487228,51.193732 C186.636666,47.169057 186.688813,43.1412408 186.691148,39.1660398 C186.693483,31.1653785 186.696597,23.109746 186,15.1585588 L186.249062,14.8577879 C189.891601,14.3528385 190.838039,14.1533716 193.883606,13.5 L194.228402,13.7520821 Z" id="Fill-19" fill="#000000"></path>
            <path d="M222.337179,27.7579437 C220.274083,28.0497901 217.029555,28.5898207 217.032615,32.5676634 C217.029555,34.6289719 218.110553,35.9549194 219.682984,35.9556854 C221.107448,35.9556854 221.942347,35.0701884 222.337179,34.6305039 L222.337179,27.7579437 Z M222.429946,38.997475 C221.648714,39.7328359 219.827884,41.5 216.587956,41.5 C212.899529,41.5 210.000767,38.6512426 210,33.3964764 C210,25.9854176 216.493656,24.3163016 222.28888,23.2377724 C222.28888,21.5701884 222.289646,19.7049762 218.805919,19.7034442 C215.558324,19.7034442 213.597961,20.9796017 212.514662,21.6651725 L212.17273,21.4675443 C212.317629,19.2078416 212.370529,18.5728268 212.414229,16.5107524 L212.713229,16.1185599 C215.558324,14.8424024 219.252118,14.5 221.066815,14.5 C222.983478,14.501532 226.861272,14.7972084 228.685169,17.9401101 C229.762334,19.8535803 229.7608,22.114049 229.662667,26.1393838 L229.609767,30.0176464 C229.565301,34.1387313 229.611301,36.9407626 230,40.7661711 L229.658067,41.0656775 C226.366006,41.0128234 225.630774,41.0656775 222.781079,41.1591296 L222.435313,40.9117113 L222.429946,38.997475 Z" id="Fill-21" fill="#000000"></path>
            <path d="M237.093233,51.2013134 C238.334824,48.3235528 238.877876,46.6838715 240.465256,41.875481 C238.237354,34.0407604 234.227903,21.2924126 232,15.1391584 L232.242903,14.8443408 C235.862471,14.7948176 236.559465,14.7468421 240.07692,14.5 L240.475313,14.7963652 C241.01759,17.4272838 241.169985,18.1693575 242.50518,23.5758951 L244.388067,31.0662749 L246.424896,23.0806634 C247.361698,19.511126 247.414301,19.2139869 248.358065,14.9998745 L248.655119,14.7027355 C251.429941,14.7553539 252.126934,14.7538063 254.805059,14.6052367 L255,14.8992806 C253.712767,18.8185754 253.414167,19.9104066 250.485403,29.4799858 L248.006088,37.6164882 C246.020315,44.5071733 245.176342,47.5304082 244.381878,51.1014932 L244.036863,51.3994061 C240.815687,51.3994061 240.16975,51.3994061 237.337683,51.5 L237.093233,51.2013134 Z" id="Fill-23" fill="#000000"></path>
            <g id="Group-27" transform="translate(283.000000, 0.500000)">
                <mask id="mask-2" fill="white">
                    <use xlink:href="#path-1"></use>
                </mask>
                <g id="Clip-26"></g>
                <path d="M3.9556,0.451758844 C1.902,0.45016 0.2364,2.11016 0.2364,4.16376 C0.2364,6.21576 1.9004,7.87976461 3.9492,7.87976461 C6.002,7.88296 7.66600115,6.21976 7.66600115,4.16856 C7.6676,2.11576 6.0052,0.45016 3.9556,0.451758844" id="Fill-25" fill="#969595" mask="url(#mask-2)"></path>
            </g>
            <path d="M269.025456,8.52511175 C267.657177,9.8914249 267.660191,12.104807 269.022442,13.4763955 C270.388461,14.8404478 272.605134,14.841955 273.971906,13.4763955 C275.340939,12.1100823 275.343953,9.89217852 273.973413,8.52661899 C272.606641,7.15804498 270.390721,7.15804498 269.025456,8.52511175" id="Fill-28" fill="#969595"></path>
            <path d="M304.975851,13.4771214 C306.340252,12.1085106 306.342513,9.89205442 304.975851,8.5249509 C303.609942,7.15860102 301.394487,7.15860102 300.024055,8.52344362 C298.660408,9.89054714 298.657393,12.1070033 300.022548,13.4756141 C301.392979,14.8404567 303.606927,14.841964 304.975851,13.4771214" id="Fill-30" fill="#969595"></path>
            <path d="M265.5,22.5 C263.568292,22.5 261.996988,24.0674453 262,26.0003767 C261.996988,27.9318008 263.564522,29.5 265.5,29.5 C267.430202,29.5007533 269,27.9363223 269,26.0003767 C269.00226,24.0689525 267.433218,22.5015072 265.5,22.5" id="Fill-32" fill="#969595"></path>
            <path d="M269.026596,38.5262096 C267.657801,39.8892148 267.657801,42.1073946 269.026596,43.4741671 C270.3871,44.841693 272.603101,44.841693 273.973404,43.475674 C275.342952,42.1119153 275.341445,39.8914751 273.973404,38.5262096 C272.606116,37.1579301 270.390115,37.1579301 269.026596,38.5262096" id="Fill-34" fill="#969595"></path>
            <path d="M287.501505,44.5 C285.572135,44.498493 284,46.0669497 284,48.0033904 C283.999247,49.9353068 285.56686,51.5015013 287.498491,51.5 C289.433136,51.5037635 291,49.9353068 291,48.0033904 C291.00301,46.0714741 289.435397,44.5 287.501505,44.5" id="Fill-36" fill="#969595"></path>
            <path d="M300.022045,38.5243035 C298.658564,39.8875286 298.660073,42.1060663 300.022045,43.4730594 C301.388542,44.840806 303.606461,44.8438203 304.972958,43.4730594 C306.341718,42.1090807 306.340963,39.8912965 304.978991,38.5273178 C303.607969,37.1588176 301.391559,37.1573105 300.022045,38.5243035" id="Fill-38" fill="#969595"></path>
            <g id="Group-42" transform="translate(304.000000, 21.500000)">
                <mask id="mask-4" fill="white">
                    <use xlink:href="#path-3"></use>
                </mask>
                <g id="Clip-41"></g>
                <path d="M4.42022727,0.34864 C2.32240909,0.34864 0.6255,2.00944 0.621409091,4.06224 C0.623045455,6.11504 2.32077273,7.77664 4.42022727,7.77824 C6.51722727,7.77664 8.21822727,6.11824 8.21986364,4.06384 C8.21822727,2.00944 6.51640909,0.34864 4.42022727,0.34864" id="Fill-40" fill="#969595" mask="url(#mask-4)"></path>
            </g>
        </g>
    </g>
</svg>