<?xml version="1.0" encoding="UTF-8"?>
<svg width="250px" height="250px" viewBox="0 0 250 250" version="1.1" xmlns="http://www.w3.org/2000/svg" xmlns:xlink="http://www.w3.org/1999/xlink">
    <!-- Generator: Sketch 60.1 (88133) - https://sketch.com -->
    <title>MultiSafepay - icon@1,5x</title>
    <desc>Created with Sketch.</desc>
    <defs>
        <polygon id="path-1" points="0 0 139 0 139 140 0 140"></polygon>
    </defs>
    <g id="MultiSafepay---icon" stroke="none" stroke-width="1" fill="none" fill-rule="evenodd">
        <g id="Group-27" fill="#00ABEE">
            <polygon id="Fill-1" points="0 250 251 250 251 0 0 0"></polygon>
        </g>
        <g id="Group-3" transform="translate(55.000000, 57.000000)">
            <mask id="mask-2" fill="white">
                <use xlink:href="#path-1"></use>
            </mask>
            <g id="Clip-2"></g>
            <path d="M70.2949368,88.6672007 L82.5572508,34.4143972 C86.3080657,18.8781244 86.905944,15.7382968 89.6754878,1.77994762 L90.8596265,0.595392478 C107.644903,0.600732321 112.579857,0.398708267 131.728942,0.0169095024 L133.116842,1.18989498 C133.302729,17.5075648 133.500235,21.8266077 134.487762,43.2660767 L135.65492,73.7485697 C137.414595,110.516948 137.821224,119.167493 139,138.229842 L138.007111,139.415287 C123.397968,139.207923 118.852663,139.415287 107.007702,140 L105.823564,138.809215 C105.636783,114.224579 105.636783,111.083861 105.050522,83.763445 L104.672492,31.0663158 L89.6468898,95.3740433 C84.7119362,117.189971 82.5286527,127.019732 80.363243,138.225392 L78.9646189,139.410837 C68.8963127,139.202583 65.5405086,139.410837 55.0771916,139.98309 L53.893053,138.809215 C51.1351271,126.232995 47.7900473,111.083861 44.6317485,97.3230859 L30.0404796,32.62199 L28.8447231,77.849569 C27.840216,118.740306 27.840216,123.070918 27.8348539,138.202253 L26.8589449,139.399268 C16.1927605,139.393038 12.6457068,139.393038 0.99288906,139.971521 L0,138.797645 C1.79363487,106.557454 1.99114026,103.007349 3.16991674,81.7761334 L4.96891375,38.5145066 C5.56053621,20.0404302 5.76429743,10.7900425 5.96180281,1.75235843 L7.14594143,0.566913317 C24.52999,0.572253159 29.8590607,0.572253159 49.0144019,0 L50.1931784,1.1792153 C52.3585881,11.5927988 52.5677114,12.199761 57.2944353,32.8302439 L70.2949368,88.6672007 Z" id="Fill-1" fill="#FFFFFF" mask="url(#mask-2)"></path>
        </g>
    </g>
</svg>