<?xml version="1.0" encoding="UTF-8"?>
<svg width="330px" height="80px" viewBox="0 0 330 80" version="1.1" xmlns="http://www.w3.org/2000/svg" xmlns:xlink="http://www.w3.org/1999/xlink">
    <!-- Generator: Sketch 60.1 (88133) - https://sketch.com -->
    <title>MulitSafepay - Tagline - inverted@1,5x</title>
    <desc>Created with Sketch.</desc>
    <defs>
        <polygon id="path-1" points="0.0784683102 0.773224242 7.40949255 0.773224242 7.40949255 8.09025455 0.0784683102 8.09025455"></polygon>
        <polygon id="path-3" points="0 66 313 66 313 0 0 0"></polygon>
    </defs>
    <g id="MulitSafepay---Tagline---inverted" stroke="none" stroke-width="1" fill="none" fill-rule="evenodd">
        <g id="Group-80" transform="translate(7.000000, 6.000000)">
            <path d="M18.7001241,26.800447 L21.78731,12.8491356 C22.7320819,8.85448211 22.8825628,8.04750531 23.5798945,4.45831233 L23.8785293,4.15382256 C28.1051815,4.15461139 29.3478126,4.10254837 34.1694074,4.004733 L34.5184611,4.30606745 C34.5657772,8.50187348 34.6154204,9.61255122 34.8636364,15.1257094 L35.1576171,22.9643491 C35.6013031,32.4193089 35.7029165,34.6430309 36,39.544843 L35.749457,39.8501216 C32.071207,39.7964809 30.9270866,39.8501216 27.9438411,40 L27.645982,39.6939326 C27.5994415,33.3722199 27.5994415,32.5652431 27.4512876,25.539102 L27.3566553,11.9893069 L23.5729134,28.5248373 C22.3302823,34.135022 21.7803289,36.6624449 21.2350295,39.5432653 L20.8828731,39.8485439 C18.3479677,39.7956921 17.5032578,39.8485439 14.8682904,39.9960558 L14.5696556,39.6939326 C13.8754266,36.4597147 13.0330437,32.5652431 12.237977,29.0257467 L8.56360534,12.3884567 L8.2626435,24.0190197 C8.0097735,34.533383 8.0097735,35.6472161 8.00822215,39.5377435 L7.76233323,39.8453886 C5.07694694,39.8438109 4.18414521,39.8438109 1.2497673,39.9929005 L1,39.6915661 C1.45144276,31.4009247 1.50108594,30.4874554 1.79739373,25.0279379 L2.25038784,13.9038061 C2.40009308,9.15345005 2.45128762,6.77511668 2.50093081,4.450424 L2.79878995,4.14593422 C7.17669873,4.14751189 8.5186162,4.14751189 13.3417623,4 L13.6380701,4.30370094 C14.1833695,6.98100226 14.2361154,7.13719131 15.4260006,12.4420974 L18.7001241,26.800447 Z" id="Fill-1" fill="#00ABEE"></path>
            <path d="M53.3143764,36.6767886 C51.9075803,38.1614283 49.7432786,40.0030939 46.3760642,40 C40.9464899,39.9976727 40.4477595,35.1828554 40.2956311,33.9909616 C40.1450709,32.5016752 40.1450709,30.8598202 40.1466393,27.9331361 L40.1482076,25.3038447 C40.2023152,18.1571286 40.1505601,16.9660092 40,13.5909129 L40.2517177,13.2935203 C43.4189694,13.2950692 44.2243092,13.2966181 47.5930919,13 L47.8910754,13.2950692 C47.8910754,15.0321828 47.7883495,23.5202635 47.7883495,25.4076223 C47.7867812,26.5971928 47.7867812,30.6669796 47.9373413,31.5630298 C47.9890963,32.1074751 48.2886482,33.8926052 50.3478715,33.8910563 C51.8040702,33.8941541 52.5607916,33.0987838 53.2124347,32.4567565 L53.214003,28.3854207 C53.214003,27.4421285 53.0657954,17.714912 52.9183719,13.5924618 L53.2179238,13.2981671 C56.5357356,13.2486016 57.390478,13.1998107 60.606348,13.0030978 L60.9066841,13.2981671 C60.8564974,16.3766452 60.8047423,18.1160822 60.8047423,22.8278964 C60.8047423,23.8687705 60.8016057,30.2758774 60.850224,33.151447 C60.9011949,35.9317582 60.9498133,37.6688717 61,39.2077236 L60.7482823,39.5066651 C57.179537,39.4547763 56.5780807,39.5035673 53.4594473,39.6003748 L53.2077296,39.403662 L53.3143764,36.6767886 Z" id="Fill-3" fill="#00ABEE"></path>
            <path d="M72.6842105,39.8556395 C69.2064145,39.8039168 68.2047697,39.8023728 64.5180921,40 L64.2508224,39.7051032 C64.3585526,36.6349342 64.4638158,33.3200471 64.4671053,26.2934747 C64.4671053,21.7905087 64.4703947,17.1879571 64.4194079,12.688851 C64.3182566,7.74045181 64.1570724,6.05676093 64,3.68369088 L64.265625,3.3841622 C67.7952303,2.84531936 69.0625,2.64769218 72.3273026,2 L72.6463816,2.2987567 C72.5896382,5.17052657 72.5896382,6.99703397 72.5879934,11.1055176 C72.5879934,12.7413457 72.6373355,23.8709979 72.6866776,30.4011864 C72.7911184,34.7551601 72.8947368,37.1799529 73,39.5576548 L72.6842105,39.8556395 Z" id="Fill-5" fill="#00ABEE"></path>
            <path d="M88.2815859,18.8796144 C86.147518,18.8339781 86.100632,18.8316576 84.9345325,18.8316576 L84.9345325,25.0799593 C84.8846216,26.4165606 84.8846216,28.2025632 84.8831092,29.5399379 C84.8831092,32.0708173 84.9307514,34.4988216 87.1117053,34.4988216 C87.8883487,34.4988216 88.4199752,34.2010256 88.7118781,34.0037841 L89,34.2497558 C88.8548047,36.4325619 88.8071625,36.7783146 88.7587641,39.1104055 L88.4668611,39.505662 C87.352185,39.8514147 85.9955167,40 84.4913844,40 C83.4258629,40.001473 80.3714687,39.9991525 78.7259223,37.7668427 C77.5144493,36.0821681 77.5144493,33.8970416 77.5643602,30.3807282 L77.5658726,27.4066356 C77.5658726,26.1674949 77.6142711,20.1172082 77.6157835,18.7326501 C76.7446119,18.7311031 76.2576028,18.7790599 75.2419921,18.8301106 L75,18.5299942 C75.0952844,16.3007783 75.0952844,16.3007783 75.1951061,13.674759 L75.4847405,13.37851 C76.4065792,13.4287872 76.6463026,13.4287872 77.6664506,13.37851 C77.6664506,12.485122 77.6664506,11.989311 77.6165397,7.32667633 L77.8608005,6.98169706 C81.0619024,6.18963703 81.9837412,5.88952054 84.7946308,5 L85.134176,5.24906575 C85.0358667,7.43187181 84.9874683,8.02669032 84.9375574,13.5293417 C86.6791444,13.476744 87.0693567,13.476744 88.4751796,13.380057 L88.7678388,13.677853 C88.6203749,15.9596665 88.6203749,16.2566891 88.5220656,18.5354086 L88.2815859,18.8796144 Z" id="Fill-7" fill="#00ABEE"></path>
            <path d="M98.9232633,9.40345019 C95.815832,9.74585214 94.8852989,9.84193821 91.726979,10.3780375 L91.414378,10.0852037 C91.4693053,7.49698056 91.4159935,6.85945712 91.315832,4.17057235 L91.6243942,3.87850121 C95.1978998,3.53762444 95.815832,3.44001319 98.9749596,3 L99.2875606,3.29359632 C99.1825525,6.08009233 99.2342488,6.81370185 99.2326333,9.11061646 L98.9232633,9.40345019 Z M99.6898223,39.8551083 C96.3747981,39.8055401 95.1300485,39.8032523 91.5105008,40 L91.1970921,39.7048785 C91.3537964,36.5782683 91.4620355,33.4974134 91.4620355,27.9755147 C91.4652666,20.2543127 91.2059774,17.5646654 91,14.974917 L91.2576737,14.6828459 C94.8844911,14.1925019 95.815832,14.0445599 99.3844911,13.3140007 L99.6970921,13.607597 C99.6453958,14.2901132 99.6437803,14.9772048 99.6437803,15.6124405 C99.592084,18.546116 99.5371567,21.4279354 99.5387722,24.3646613 C99.5371567,29.4457841 99.638126,34.4803891 100,39.561512 L99.6898223,39.8551083 Z" id="Fill-9" fill="#00ABEE"></path>
            <path d="M120.911737,12.2292285 C119.663293,11.1674952 118.119084,9.9041272 115.32721,9.9041272 C112.780511,9.9041272 111.135897,11.4171758 111.13434,13.591051 C111.13434,15.20728 111.929016,16.3162714 113.530043,17.5260801 C114.02584,17.9805461 116.720423,19.7991975 117.317403,20.2032547 C120.458748,22.4267509 123.001556,24.7487017 123,29.7958728 C122.998443,33.1795567 121.802926,35.7551262 120.403486,37.367417 C117.807752,40.3478314 114.267901,41.0015692 110.874377,41 C108.926993,41.0015692 105.986457,40.6967541 103.393058,39.3845526 L103.094957,38.879678 C103.14477,37.8203077 103.243618,36.7081657 103.296545,35.5960238 C103.347915,34.6390461 103.394614,33.676555 103.396171,32.720365 L103.794677,32.5691389 C105.49066,34.1853678 107.683998,35.0462539 109.980075,35.0446786 C113.719178,35.0462539 114.716999,32.3714423 114.716999,30.6528207 C114.72089,28.4348379 113.322229,27.2218785 110.928861,25.5544532 L108.834371,24.0862999 C106.240193,22.2188151 102.998444,19.8984396 103,14.3448186 C103.001557,10.7106664 104.349627,8.23906483 105.797323,6.82368306 C108.143213,4.50330759 111.28378,3.99764532 114.078767,4 C116.620797,4.0015835 119.215753,4.45604943 121.51183,5.6170248 L121.709526,6.02265731 C121.6099,7.08202764 121.510273,8.14061034 121.458903,9.20076831 L121.309464,12.0811529 L120.911737,12.2292285 Z" id="Fill-11" fill="#FFFFFF"></path>
            <path d="M138.953919,26.7450122 C136.789028,27.0516394 133.381882,27.6084935 133.378662,31.7336621 C133.378662,33.8729033 134.513841,35.2463708 136.166693,35.2463708 C137.662552,35.244782 138.540102,34.3312554 138.951503,33.874492 L138.953919,26.7450122 Z M139.051335,38.4055843 C138.227726,39.1665917 136.318855,40.9984113 132.910099,41.0000053 C129.040831,40.9984113 125.998391,38.0449398 126.000001,32.5963491 C126.002417,24.913987 132.814293,23.1766976 138.902393,22.059812 C138.902393,20.332055 138.904003,18.3929954 135.239228,18.3929954 C131.831277,18.3914066 129.770243,19.7180062 128.636675,20.4321458 L128.274384,20.2256093 C128.428961,17.8830092 128.480487,17.2236812 128.533623,15.0844401 L128.844388,14.6769278 C131.836912,13.3535057 135.706181,12.9984218 137.618272,13.0000053 C139.62939,13.0000053 143.704762,13.3058434 145.612828,16.5651477 C146.748812,18.5502808 146.748006,20.8952641 146.64576,25.0720668 L146.591014,29.0923785 C146.536267,33.3668889 146.588598,36.2711094 147.000001,40.2389926 L146.638514,40.5495916 C143.181452,40.4979575 142.40776,40.5480029 139.418456,40.6465049 L139.052945,40.3923062 L139.051335,38.4055843 Z" id="Fill-13" fill="#FFFFFF"></path>
            <path d="M161.781028,19.0881015 C160.310672,19.0384921 159.498024,19.0408176 158.589723,19.0384921 C158.583399,30.763356 158.788142,35.4305122 158.935178,39.6054505 L158.631621,39.8534973 C154.987352,39.8550476 154.226877,39.8550476 150.880632,40 L150.629249,39.7031189 C150.629249,39.1070314 150.631621,38.4605593 150.683794,37.8636966 C150.781028,34.3887155 150.78498,23.4056667 150.78498,18.9842319 C149.671937,18.9842319 149.36917,19.0338413 148.250593,19.0865512 L148,18.7873447 C148.101976,16.9479224 148.150988,16.2549416 148.255336,13.8698162 L148.560474,13.5744854 C149.52332,13.6690533 149.774704,13.6706036 150.786561,13.6706036 C150.740711,9.79642209 150.688538,6.61677172 152.310672,4.58046223 C154.336759,2 158.086957,2.00155029 159.251383,2 C161.026877,2 162.192885,2.24649654 162.796838,2.34881586 L163,2.64414663 C162.795257,4.83160965 162.745455,5.37886298 162.694071,7.81204741 L162.341502,8.10815332 C161.98498,7.90971585 161.679842,7.76088775 161.12253,7.76088775 C160.161265,7.76088775 159.505929,8.25775656 159.150198,8.80811048 C158.53834,9.69487791 158.539921,10.6405565 158.53834,13.7217633 C160.109881,13.7217633 160.61581,13.7233135 162.086957,13.6256451 L162.389723,13.921751 C162.186561,16.109214 162.18498,16.6053077 162.086957,18.7927707 L161.781028,19.0881015 Z" id="Fill-15" fill="#FFFFFF"></path>
            <path d="M176.451107,23.7872154 C176.45431,22.9760219 176.45431,22.1166464 176.298945,21.2027702 C176.043473,19.5353607 175.225003,18.1657311 173.733817,18.1657311 C173.015454,18.1673108 170.860362,18.4682502 170.702594,23.7824762 L176.451107,23.7872154 Z M170.757853,28.5927671 C170.855557,33.0491974 173.32218,35.3263844 177.170271,35.3279641 C180.247143,35.3279641 182.045855,34.0657564 182.761016,33.5089001 L183.124602,33.7111061 C182.966034,35.8895596 182.913978,36.8500381 182.860321,38.9724111 L182.656104,39.3823521 C181.578158,40.2914892 178.348324,41 175.368355,41 C166.538166,40.9976304 162.996801,35.4780389 163.000002,26.97038 C163.003208,25.151316 163.153768,23.2753815 163.619063,21.4539479 C165.164706,15.2787667 169.477291,13.0007899 173.989289,13 C175.482076,13.0023696 176.970058,13.255917 178.35393,13.861745 C183.178259,15.9935964 183.998331,20.751756 183.999967,25.6631499 C184.001535,26.6259979 183.946276,27.5848966 183.947878,28.2949872 L183.584291,28.5975063 L170.757853,28.5927671 Z" id="Fill-17" fill="#FFFFFF"></path>
            <path d="M195.523385,35.4159416 C195.774004,35.4648784 195.970919,35.4625845 196.22076,35.4648784 L196.61926,35.4648784 C201.011321,35.0252123 201.110946,29.1933291 201.114059,26.7908409 C201.114059,25.4703135 201.014434,23.2108124 200.267247,21.5981938 C200.114696,21.2525781 199.418099,19.8326479 197.872355,19.8311186 C196.772589,19.8311186 196.023845,20.5659344 195.42376,21.1531753 C195.426095,26.2976503 195.475907,28.6557895 195.523385,35.4159416 L195.523385,35.4159416 Z M195.228402,14.2454483 C195.178589,15.3725227 195.178589,15.5200975 195.180146,16.6968733 C196.328168,15.6661431 198.128423,14.0978735 200.97007,14.0978735 C204.012524,14.0978735 205.854808,15.9169439 206.90087,17.5326211 C208.648199,20.1767344 208.997665,23.8056996 209,26.2066585 C208.994552,29.6842258 208.491757,37.2319535 201.507889,39.9280622 C199.361282,40.71105 198.066157,40.660584 195.369278,40.6590547 C195.41909,44.2344954 195.567749,48.6479778 195.668931,50.6062122 L195.368499,50.9005972 C194.370693,50.8516605 193.373664,50.8011945 192.426449,50.8011945 C190.877591,50.8011945 189.586358,50.8975387 187.785325,51 L187.487228,50.7017917 C187.636666,46.7830292 187.688813,42.8612081 187.691148,38.9906177 C187.693483,31.2005001 187.696597,23.356858 187,15.6141478 L187.249062,15.3220567 C190.891601,14.8303953 191.838039,14.635413 194.883606,14 L195.228402,14.2454483 Z" id="Fill-19" fill="#FFFFFF"></path>
            <path d="M222.954038,26.7489787 C220.787787,27.0516341 217.381033,27.6108715 217.384246,31.7360418 C217.381033,33.8744893 218.516081,35.2487517 220.167133,35.2503404 C221.662821,35.2503404 222.539464,34.3320472 222.954038,33.8760781 L222.954038,26.7489787 Z M223.051443,38.4047889 C222.23115,39.166591 220.319278,41 216.917353,41 C213.044505,41 210.000805,38.0457331 210,32.5955515 C210,24.9108034 216.818339,23.1798684 222.903323,22.0613936 C222.903323,20.3320472 222.904128,18.3969587 219.246215,18.3961643 C215.83624,18.3961643 213.777859,19.7195869 212.640396,20.4305493 L212.281366,20.2256015 C212.433511,17.8822061 212.489056,17.2236723 212.534941,15.0852247 L212.84889,14.6785066 C215.83624,13.355084 219.714724,13 221.620156,13 C223.632652,13.0007944 227.704335,13.3082161 229.619427,16.5675216 C230.75045,18.5518611 230.74884,20.8960508 230.645801,25.0704721 L230.590256,29.092374 C230.543566,33.3652973 230.591866,36.2711076 231,40.2389923 L230.640971,40.5495915 C227.184306,40.4947798 226.412313,40.5495915 223.420133,40.6465048 L223.057078,40.3899228 L223.051443,38.4047889 Z" id="Fill-21" fill="#FFFFFF"></path>
            <path d="M238.093233,50.7005396 C239.334824,47.822779 239.877876,46.1838715 241.465256,41.375481 C239.237354,33.5407604 235.227903,20.7924126 233,14.6383846 L233.242903,14.3443408 C236.862471,14.2948176 237.559465,14.2468421 241.07692,14 L241.475313,14.2963652 C242.01759,16.9272838 242.169985,17.6693575 243.50518,23.0758951 L245.388067,30.5662749 L247.424896,22.5798896 C248.361698,19.011126 248.414301,18.7139869 249.358065,14.4998745 L249.655119,14.2027355 C252.429941,14.2545801 253.126934,14.2530325 255.805059,14.1052367 L256,14.3992806 C254.712767,18.3185754 254.414167,19.4104066 251.485403,28.9799858 L249.006088,37.1164882 C247.020315,44.0063995 246.176342,47.0296344 245.381878,50.6014932 L245.036863,50.8994061 C241.815687,50.8994061 241.16975,50.8994061 238.337683,51 L238.093233,50.7005396 Z" id="Fill-23" fill="#FFFFFF"></path>
            <g id="Group-42" transform="translate(262.000000, 0.000000)">
                <path d="M25.4859388,0.0869018922 C23.4594986,0.0853272727 21.815927,1.72017576 21.815927,3.74266061 C21.815927,5.7635697 23.4579198,7.40236212 25.4796234,7.40236212 C27.5052742,7.40550909 29.1472681,5.76750909 29.1472681,3.7466 C29.1488458,1.72569091 27.5084318,0.0853272727 25.4859388,0.0869018922" id="Fill-25" fill="#FFFFFF"></path>
                <path d="M7.81572789,7.58246667 C6.38214186,9.01010303 6.38529954,11.3248909 7.81257021,12.7580424 C9.24378798,14.1848909 11.5662605,14.1864667 12.9982677,12.7580424 C14.4326431,11.3304061 14.4358008,9.01167879 12.9998465,7.58404242 C11.5678393,6.15325455 9.24615624,6.15325455 7.81572789,7.58246667" id="Fill-27" fill="#FFFFFF"></path>
                <path d="M44.105111,12.7671818 C45.5339605,11.3363939 45.5363288,9.01924242 44.105111,7.5900303 C42.6746826,6.16160606 40.3545784,6.16160606 38.9194135,7.58845455 C37.4913534,9.01766667 37.4881957,11.3348182 38.9178347,12.7656061 C40.3529995,14.1924545 42.671525,14.1940303 44.105111,12.7671818" id="Fill-29" fill="#FFFFFF"></path>
                <path d="M3.95957093,22.0297212 C1.93707786,22.0297212 0.291927375,23.6685091 0.295080505,25.6902061 C0.291927375,27.7095394 1.93313077,29.3483284 3.95957093,29.3483284 C5.98048516,29.349903 7.62405936,27.7134788 7.62405936,25.6902061 C7.62642506,23.6700848 5.98364284,22.031297 3.95957093,22.0297212" id="Fill-31" fill="#FFFFFF"></path>
                <path d="M7.80720216,38.6278848 C6.37361613,40.0539455 6.37361613,42.3734606 7.80720216,43.8026727 C9.23210457,45.2326727 11.5529983,45.2326727 12.9881631,43.8042485 C14.4225386,42.3774 14.4209597,40.0563091 12.9881631,38.6278848 C11.5561559,37.1978848 9.23526225,37.1978848 7.80720216,38.6278848" id="Fill-33" fill="#FFFFFF"></path>
                <path d="M25.9484597,43.9891625 C23.9275455,43.9875879 22.2808159,45.6263758 22.2808159,47.6488606 C22.2800268,49.6681939 23.9220196,51.3038303 25.9453021,51.3022647 C27.9717422,51.3069818 29.6129502,49.6681939 29.6129502,47.6496485 C29.6161033,45.6303152 27.9741105,43.9891625 25.9484597,43.9891625" id="Fill-35" fill="#FFFFFF"></path>
                <path d="M38.9091511,38.6371818 C37.4818804,40.0624545 37.4834592,42.3819697 38.9091511,43.8111818 C40.3395794,45.2411818 42.6612625,45.2443333 44.0916909,43.8111818 C45.5244875,42.3851212 45.523698,40.0663939 44.0980062,38.6395455 C42.6628413,37.2095455 40.3427371,37.2079697 38.9091511,38.6371818" id="Fill-37" fill="#FFFFFF"></path>
                <g id="Group-41" transform="translate(44.207499, 21.272727)">
                    <mask id="mask-2" fill="white">
                        <use xlink:href="#path-1"></use>
                    </mask>
                    <g id="Clip-40"></g>
                    <path d="M3.74374361,0.773224242 C1.7196717,0.773224242 0.0824154083,2.40886061 0.0784683102,4.43055758 C0.0800471495,6.45225455 1.71809286,8.08867879 3.74374361,8.09025455 C5.76702609,8.08867879 7.40822948,6.45540606 7.40980832,4.43134545 C7.40822948,2.40886061 5.76623667,0.773224242 3.74374361,0.773224242" id="Fill-39" fill="#FFFFFF" mask="url(#mask-2)"></path>
                </g>
            </g>
            <path d="M0,59.6040816 L1.78378378,59.6040816 C1.84216216,60.1607386 2.11459459,60.6194363 2.60108108,60.9817298 C3.08756757,61.3440233 3.75,61.5259475 4.58756757,61.5259475 C5.38459459,61.5259475 6.01459459,61.35724 6.47756757,61.0198251 C6.94054054,60.6831876 7.17162162,60.2252672 7.17162162,59.6468416 C7.17162162,59.1966958 7.01837838,58.8375121 6.71027027,58.5677357 C6.40216216,58.2971817 5.91486486,58.0849368 5.24675676,57.9278912 L3.22540541,57.4380952 C2.8272973,57.3432459 2.46405405,57.2165209 2.13567568,57.0594752 C1.8072973,56.9016521 1.50405405,56.7041788 1.22594595,56.464723 C0.947837838,56.2260447 0.730540541,55.9282799 0.575675676,55.5714286 C0.420810811,55.2145773 0.342972973,54.814966 0.342972973,54.3710398 C0.342972973,53.6682216 0.543243243,53.0571429 0.944594595,52.5378037 C1.34594595,52.0184645 1.86486486,51.63207 2.50054054,51.3793975 C3.13621622,51.1259475 3.83756757,51 4.60540541,51 C5.36108108,51 6.0527027,51.1220603 6.67945946,51.3661808 C7.30621622,51.6110787 7.82189189,51.9889213 8.22648649,52.4997085 C8.63108108,53.0112731 8.83864865,53.6176871 8.85081081,54.3197279 L7.10108108,54.3197279 C7.04837838,53.7755102 6.80675676,53.3284742 6.37621622,52.9801749 C5.94567568,52.6318756 5.34648649,52.4577259 4.57864865,52.4577259 C3.85216216,52.4577259 3.26756757,52.617104 2.82567568,52.9343052 C2.38297297,53.2515063 2.16243243,53.6884354 2.16243243,54.2435374 C2.16243243,55.0528669 2.72108108,55.5869776 3.84081081,55.8450923 L5.84432432,56.3348882 C6.22540541,56.4242954 6.56837838,56.5276968 6.87324324,56.6458698 C7.1772973,56.7640428 7.46594595,56.911759 7.73837838,57.0890185 C8.01081081,57.2655005 8.23621622,57.4653061 8.41540541,57.6868805 C8.59378378,57.9084548 8.73648649,58.1727891 8.84189189,58.4791059 C8.9472973,58.7846453 9,59.126725 9,59.5030126 C9,60.6046647 8.57675676,61.4621963 7.73027027,62.0779397 C6.88297297,62.6936832 5.78351351,63 4.42945946,63 C3.8027027,63 3.23432432,62.9315841 2.72432432,62.7947522 C2.21432432,62.6563654 1.79594595,62.4744412 1.46756757,62.249757 C1.13918919,62.0250729 0.864324324,61.7622935 0.641351351,61.4621963 C0.418378378,61.1620991 0.259459459,60.8565598 0.162162162,60.5479106 C0.0656756757,60.238484 0.0113513514,59.9243926 0,59.6040816" id="Fill-43" fill="#FFFFFF"></path>
            <path d="M11,62 L11,53.1426479 L12.633266,53.1426479 L12.633266,54.285382 L12.7158001,54.285382 C12.8687532,53.9380653 13.138314,53.6372642 13.5237254,53.3814282 C13.909894,53.1271427 14.3785967,53 14.9313478,53 C15.5825341,53 16.1163554,53.1271427 16.5320545,53.3814282 C16.9477537,53.6372642 17.2377587,53.9938841 17.4020697,54.4536136 L17.4762746,54.4536136 C17.6458859,54.044276 17.9616355,53.7000603 18.4242807,53.419416 C18.8861686,53.1395469 19.451792,53 20.1188794,53 C21.0214538,53 21.727158,53.2651391 22.2367491,53.7977431 C22.745583,54.3295719 23,55.05289 23,55.966147 L23,62 L21.3500757,62 L21.3500757,56.3615298 C21.3500757,55.7831855 21.1986371,55.326557 20.8942453,54.9862176 C20.591368,54.648204 20.1597678,54.4784219 19.6017163,54.4784219 C19.0383645,54.4784219 18.5991923,54.6606081 18.2841999,55.0242054 C17.9699647,55.3893531 17.8124685,55.8731157 17.8124685,56.4785942 L17.8124685,62 L16.1875315,62 L16.1875315,56.4785942 C16.1875315,55.8289258 16.0315497,55.3319838 15.7195861,54.9908692 C15.4076224,54.6497545 14.975265,54.4784219 14.4225139,54.4784219 C13.9083796,54.4784219 13.4843513,54.651305 13.1504291,54.999397 C12.8165068,55.3467138 12.6499243,55.8343527 12.6499243,56.4615385 L12.6499243,62 L11,62 Z" id="Fill-45" fill="#FFFFFF"></path>
            <path d="M28.3427697,60.6766726 C28.9066565,60.6766726 29.3779648,60.5064869 29.7566947,60.168405 C30.1354246,59.8287967 30.3251721,59.4082931 30.3251721,58.9068939 L30.3251721,57.9888069 L28.3098699,57.9888069 C27.7727621,57.9888069 27.3695486,58.1040448 27.0986993,58.3360468 C26.82785,58.5672857 26.6924254,58.8809463 26.6924254,59.2793182 C26.6924254,59.7318748 26.8508034,60.0775884 27.1690895,60.3172221 C27.4873757,60.5568558 27.8783474,60.6766726 28.3427697,60.6766726 L28.3427697,60.6766726 Z M30.3496557,60.7186467 C30.1231829,61.0933605 29.8010712,61.4001526 29.3833206,61.6413126 C28.9663351,61.8801832 28.4560061,62 27.8530987,62 C27.0022953,62 26.3136955,61.7611295 25.7880643,61.2803358 C25.2631982,60.8010684 25,60.1607733 25,59.36174 C25,58.57797 25.2670237,57.956754 25.8010712,57.4958026 C26.3343535,57.0356143 27.0933435,56.8051386 28.0772762,56.8051386 L30.3251721,56.8051386 L30.3251721,55.828288 C30.3251721,54.8644111 29.7612854,54.3813279 28.6327467,54.3813279 C27.5883703,54.3813279 27.0214231,54.8170949 26.9326702,55.6886288 L25.3236419,55.6886288 C25.3626626,54.8728059 25.6595256,54.219537 26.2157613,53.7318748 C26.7712318,53.2442127 27.5990819,53 28.6993114,53 C29.7390972,53 30.5485845,53.232002 31.1293037,53.6952429 C31.710023,54.1577207 32,54.8750954 32,55.8458408 L32,61.8603409 L30.4078041,61.8603409 L30.4078041,60.7186467 L30.3496557,60.7186467 Z" id="Fill-47" fill="#FFFFFF"></path>
            <path d="M35,62 L35,53.1350116 L36.5056141,53.1350116 L36.5056141,54.2275196 L36.5581275,54.2275196 C36.6223873,54.0653505 36.6935567,53.9241314 36.7709449,53.8038624 C36.848333,53.6820416 36.9581966,53.5547892 37.1012265,53.4197776 C37.2435654,53.2863178 37.4301261,53.1823433 37.6629815,53.109406 C37.894455,53.0364687 38.1660045,53 38.4748661,53 C38.6600449,53 38.8348592,53.0139667 39,53.0419002 L39,54.5642728 C38.8645707,54.5309078 38.6400069,54.5146133 38.3256176,54.5146133 C37.1267922,54.5146133 36.527725,55.2152772 36.527725,56.6166049 L36.527725,62 L35,62 Z" id="Fill-49" fill="#FFFFFF"></path>
            <path d="M41.0516587,54.1969295 L41.0516587,52 L42.475656,52 L42.475656,54.1969295 L43.9570886,54.1969295 L43.9570886,55.5533147 L42.475656,55.5533147 L42.475656,60.3870202 C42.475656,60.8813678 42.5601584,61.2160502 42.7298234,61.3903001 C42.8988282,61.5645499 43.2077901,61.6520586 43.656709,61.6520586 C43.7610167,61.6520586 43.8758871,61.6466853 44,61.635171 L44,62.9424285 C43.8092094,62.9800419 43.5755075,63 43.2988942,63 C42.8506354,63 42.4782967,62.9516399 42.1825384,62.8541521 C41.88678,62.757432 41.6550586,62.6008374 41.4880343,62.3843685 C41.3210101,62.1678995 41.2041591,61.9092114 41.1374814,61.6060014 C41.0708038,61.3043266 41.037795,60.9258897 41.037795,60.4706909 L41.037795,55.5533147 L40,55.5533147 L40,54.1969295 L41.0516587,54.1969295 Z" id="Fill-51" fill="#FFFFFF"></path>
            <path d="M51.7153334,52.5294992 L51.7153334,57.1188079 L53.32259,57.1188079 C53.8073917,57.1188079 54.2188555,57.0847469 54.5562096,57.017436 C54.8935636,56.950125 55.1938628,56.8333446 55.456335,56.6662837 C55.7180353,56.4992228 55.9133456,56.26404 56.0414938,55.9623572 C56.170414,55.6606745 56.2344881,55.281949 56.2344881,54.8237481 C56.2344881,54.0979253 56.0445817,53.5334865 55.6655409,53.1320538 C55.2857281,52.7306211 54.7553797,52.5294992 54.0752678,52.5294992 L51.7153334,52.5294992 Z M50,51 L54.2929654,51 C55.4146483,51 56.3124578,51.3552071 56.9871659,52.0648104 C57.662646,52.7736028 58,53.6932486 58,54.8237481 C58,55.9615463 57.662646,56.8779482 56.9871659,57.5761979 C56.3124578,58.2736365 55.4115604,58.6223559 54.2844736,58.6223559 L51.7153334,58.6223559 L51.7153334,63 L50,63 L50,51 Z" id="Fill-53" fill="#FFFFFF"></path>
            <path d="M62.3427697,60.6766726 C62.9066565,60.6766726 63.3779648,60.5064869 63.7566947,60.168405 C64.1354246,59.8287967 64.324407,59.4082931 64.324407,58.9068939 L64.324407,57.9888069 L62.3098699,57.9888069 C61.7727621,57.9888069 61.3695486,58.1040448 61.0986993,58.3360468 C60.82785,58.5672857 60.6924254,58.8809463 60.6924254,59.2793182 C60.6924254,59.7318748 60.8508034,60.0775884 61.1690895,60.3172221 C61.4873757,60.5568558 61.8783474,60.6766726 62.3427697,60.6766726 L62.3427697,60.6766726 Z M64.3496557,60.7186467 C64.1231829,61.0933605 63.8010712,61.4001526 63.3833206,61.6413126 C62.96557,61.8801832 62.4560061,62 61.8530987,62 C61.0022953,62 60.3136955,61.7611295 59.7880643,61.2803358 C59.2631982,60.8010684 59,60.1607733 59,59.36174 C59,58.57797 59.2670237,57.956754 59.8010712,57.4958026 C60.3343535,57.0356143 61.0933435,56.8051386 62.0772762,56.8051386 L64.324407,56.8051386 L64.324407,55.828288 C64.324407,54.8644111 63.7612854,54.3813279 62.6327467,54.3813279 C61.5876052,54.3813279 61.020658,54.8170949 60.9326702,55.6886288 L59.3236419,55.6886288 C59.3626626,54.8728059 59.6595256,54.219537 60.2157613,53.7318748 C60.7712318,53.2442127 61.5990819,53 62.6993114,53 C63.7390972,53 64.5485845,53.232002 65.1293037,53.6952429 C65.710023,54.1577207 66,54.8750954 66,55.8458408 L66,61.8603409 L64.4078041,61.8603409 L64.4078041,60.7186467 L64.3496557,60.7186467 Z" id="Fill-55" fill="#FFFFFF"></path>
            <path d="M76,54 C74.0094322,59.815355 73.0118846,62.7349823 73.005848,62.7573402 L72.7855122,63.3671699 C72.6708168,63.6855766 72.5591398,63.9569547 72.4497265,64.1828461 C72.3410677,64.4079666 72.1992077,64.6438805 72.024901,64.8890459 C71.8498397,65.1334404 71.6596869,65.3308063 71.4521788,65.4819146 C71.2446708,65.6322518 70.9896246,65.7563765 70.6870402,65.8542885 C70.3844558,65.9514295 70.0448972,66 69.669119,66 C69.3363516,66 69.0118846,65.9753293 68.6957178,65.9252168 L68.6957178,64.6130421 C68.8428598,64.6407967 69.0609319,64.653903 69.349934,64.653903 C69.8456895,64.653903 70.2176948,64.5444266 70.4667044,64.3254738 C70.7149594,64.1034372 70.893039,63.7688403 71.0024524,63.3178285 L71.1163931,62.8999679 L68,54 L69.8328617,54 L71.9916997,61.220045 L72.065648,61.220045 L74.2410866,54 L76,54 Z" id="Fill-57" fill="#FFFFFF"></path>
            <path d="M78,62 L78,53.1426479 L79.633266,53.1426479 L79.633266,54.285382 L79.7158001,54.285382 C79.8687532,53.9380653 80.138314,53.6372642 80.5237254,53.3814282 C80.909894,53.1271427 81.3785967,53 81.9313478,53 C82.5832913,53 83.1163554,53.1271427 83.5320545,53.3814282 C83.9477537,53.6372642 84.2377587,53.9938841 84.4028269,54.4536136 L84.4762746,54.4536136 C84.6458859,54.044276 84.9616355,53.7000603 85.4242807,53.419416 C85.8869258,53.1395469 86.451792,53 87.1188794,53 C88.022211,53 88.7279152,53.2651391 89.2367491,53.7977431 C89.745583,54.3295719 90,55.05289 90,55.966147 L90,62 L88.3500757,62 L88.3500757,56.3615298 C88.3500757,55.7831855 88.1986371,55.326557 87.8950025,54.9862176 C87.591368,54.648204 87.160525,54.4784219 86.6017163,54.4784219 C86.0383645,54.4784219 85.5991923,54.6606081 85.2849571,55.0242054 C84.9699647,55.3893531 84.8132256,55.8731157 84.8132256,56.4785942 L84.8132256,62 L83.1875315,62 L83.1875315,56.4785942 C83.1875315,55.8289258 83.0315497,55.3319838 82.7195861,54.9908692 C82.4076224,54.6497545 81.975265,54.4784219 81.4232711,54.4784219 C80.9083796,54.4784219 80.4843513,54.651305 80.1504291,54.999397 C79.8165068,55.3467138 79.6499243,55.8343527 79.6499243,56.4615385 L79.6499243,62 L78,62 Z" id="Fill-59" fill="#FFFFFF"></path>
            <path d="M93.5803877,56.6658202 L97.4348502,56.6658202 L97.4348502,56.6406805 C97.4348502,55.9634332 97.2614284,55.4118842 96.9153105,54.9852717 C96.5691925,54.5586592 96.1004457,54.345353 95.5076189,54.345353 C94.9147922,54.345353 94.4460454,54.559421 94.0999274,54.9890808 C93.7538095,55.4187405 93.5803877,55.9695277 93.5803877,56.6406805 L93.5803877,56.6658202 Z M95.6099305,62 C94.4460454,62 93.5528143,61.6320467 92.9316886,60.8938547 C92.3105629,60.1556628 92,59.1622651 92,57.9128999 L92,57.1449975 C92,55.888776 92.304758,54.8847131 92.9157251,54.1305231 C93.5266922,53.377095 94.3908987,53 95.5076189,53 C96.6352234,53 97.4987043,53.3748095 98.0995128,54.1259523 C98.6995957,54.8778568 99,55.8788725 99,57.1282377 L99,57.8877603 L93.5803877,57.8877603 L93.5803877,58.1353479 C93.5803877,58.8400203 93.7523582,59.4304215 94.0955738,59.9065515 C94.4395149,60.3834434 94.9416399,60.6211275 95.6019488,60.6211275 C96.1106043,60.6211275 96.5053384,60.5045708 96.7854255,60.269934 C97.0662382,60.0360589 97.2432881,59.7458101 97.3165751,59.3991874 L98.8976884,59.3991874 C98.8556028,59.7069578 98.7656266,60.0048248 98.6263087,60.2912646 C98.4877164,60.5777044 98.2932518,60.8527171 98.0443661,61.1170645 C97.7954805,61.3806501 97.4609723,61.5947181 97.0415673,61.7569832 C96.6221623,61.9192483 96.1447082,62 95.6099305,62 L95.6099305,62 Z" id="Fill-61" fill="#FFFFFF"></path>
            <path d="M102,62 L102,53.1426479 L103.575603,53.1426479 L103.575603,54.3435266 L103.631118,54.3435266 C103.794741,53.9690757 104.087655,53.6504436 104.509861,53.3899561 C104.932067,53.1302438 105.439007,53 106.030679,53 C106.896275,53 107.607012,53.273667 108.163623,53.8225515 C108.720964,54.3722112 109,55.1389439 109,56.1258506 L109,62 L107.392257,62 L107.392257,56.7049703 C107.392257,55.2319752 106.766253,54.4947024 105.514974,54.4947024 C104.903579,54.4947024 104.429511,54.6892928 104.094229,55.0784736 C103.758948,55.4684297 103.591673,56.0304936 103.591673,56.7638901 L103.591673,62 L102,62 Z" id="Fill-63" fill="#FFFFFF"></path>
            <path d="M112.052145,54.1969295 L112.052145,52 L113.475908,52 L113.475908,54.1969295 L114.956436,54.1969295 L114.956436,55.5533147 L113.475908,55.5533147 L113.475908,60.3870202 C113.475908,60.8813678 113.560396,61.2160502 113.730033,61.3903001 C113.89901,61.5645499 114.207921,61.6520586 114.656106,61.6520586 C114.761056,61.6520586 114.875908,61.6466853 115,61.635171 L115,62.9424285 C114.809241,62.9800419 114.574917,63 114.29835,63 C113.850165,63 113.478548,62.9516399 113.182178,62.8541521 C112.886469,62.757432 112.655446,62.6008374 112.488449,62.3843685 C112.321452,62.1678995 112.20462,61.9092114 112.137954,61.6060014 C112.070627,61.3043266 112.037624,60.9258897 112.037624,60.4706909 L112.037624,55.5533147 L111,55.5533147 L111,54.1969295 L112.052145,54.1969295 Z" id="Fill-65" fill="#FFFFFF"></path>
            <path d="M120,59.6040816 L121.783784,59.6040816 C121.842162,60.1607386 122.114595,60.6194363 122.601081,60.9817298 C123.087568,61.3440233 123.75,61.5259475 124.587568,61.5259475 C125.384595,61.5259475 126.013784,61.35724 126.476757,61.0198251 C126.940541,60.6831876 127.171622,60.2252672 127.171622,59.6468416 C127.171622,59.1966958 127.017568,58.8375121 126.71027,58.5677357 C126.402162,58.2971817 125.914865,58.0849368 125.246757,57.9278912 L123.225405,57.4380952 C122.826486,57.3432459 122.464054,57.2165209 122.134865,57.0594752 C121.807297,56.9016521 121.504054,56.7041788 121.225946,56.464723 C120.947027,56.2260447 120.730541,55.9282799 120.574865,55.5714286 C120.42,55.2145773 120.342162,54.814966 120.342162,54.3710398 C120.342162,53.6682216 120.543243,53.0571429 120.944595,52.5378037 C121.345946,52.0184645 121.864054,51.63207 122.500541,51.3793975 C123.135405,51.1259475 123.837568,51 124.605405,51 C125.361081,51 126.052703,51.1220603 126.679459,51.3661808 C127.306216,51.6110787 127.821892,51.9889213 128.226486,52.4997085 C128.63027,53.0112731 128.838649,53.6176871 128.850811,54.3197279 L127.101081,54.3197279 C127.048378,53.7755102 126.806757,53.3284742 126.376216,52.9801749 C125.945676,52.6318756 125.346486,52.4577259 124.578649,52.4577259 C123.852162,52.4577259 123.267568,52.617104 122.825676,52.9343052 C122.382973,53.2515063 122.162432,53.6884354 122.162432,54.2435374 C122.162432,55.0528669 122.721081,55.5869776 123.840811,55.8450923 L125.844324,56.3348882 C126.225405,56.4242954 126.568378,56.5276968 126.872432,56.6458698 C127.177297,56.7640428 127.465946,56.911759 127.738378,57.0890185 C128.010811,57.2655005 128.237027,57.4653061 128.415405,57.6868805 C128.593784,57.9084548 128.735676,58.1727891 128.841892,58.4791059 C128.947297,58.7846453 129,59.126725 129,59.5030126 C129,60.6046647 128.576757,61.4621963 127.729459,62.0779397 C126.882973,62.6936832 125.782703,63 124.429459,63 C123.801892,63 123.233514,62.9315841 122.724324,62.7947522 C122.214324,62.6563654 121.795135,62.4744412 121.467568,62.249757 C121.139189,62.0250729 120.863514,61.7622935 120.641351,61.4621963 C120.419189,61.1620991 120.258649,60.8565598 120.162162,60.5479106 C120.065676,60.238484 120.011351,59.9243926 120,59.6040816" id="Fill-67" fill="#FFFFFF"></path>
            <path d="M131.581675,56.6658202 L135.435738,56.6658202 L135.435738,56.6406805 C135.435738,55.9634332 135.261609,55.4118842 134.916252,54.9852717 C134.57017,54.5586592 134.100746,54.345353 133.508706,54.345353 C132.915216,54.345353 132.446517,54.559421 132.100435,54.9890808 C131.754353,55.4187405 131.581675,55.9695277 131.581675,56.6406805 L131.581675,56.6658202 Z M133.610282,62 C132.446517,62 131.554104,61.6320467 130.932318,60.8938547 C130.311256,60.1556628 130,59.1622651 130,57.9128999 L130,57.1449975 C130,55.888776 130.306177,54.8847131 130.917081,54.1305231 C131.52726,53.377095 132.391376,53 133.508706,53 C134.635468,53 135.49886,53.3748095 136.100332,54.1259523 C136.700352,54.8778568 137,55.8788725 137,57.1282377 L137,57.8877603 L131.581675,57.8877603 L131.581675,58.1353479 C131.581675,58.8400203 131.753628,59.4304215 132.096082,59.9065515 C132.439988,60.3834434 132.942061,60.6211275 133.603027,60.6211275 C134.110904,60.6211275 134.505597,60.5045708 134.786381,60.269934 C135.066439,60.0360589 135.24347,59.7458101 135.31675,59.3991874 L136.897699,59.3991874 C136.856343,59.7069578 136.765651,60.0048248 136.626347,60.2912646 C136.487769,60.5777044 136.293325,60.8527171 136.044465,61.1170645 C135.795605,61.3806501 135.461132,61.5947181 135.04177,61.7569832 C134.622409,61.9192483 134.14573,62 133.610282,62 L133.610282,62 Z" id="Fill-69" fill="#FFFFFF"></path>
            <path d="M140,62 L140,53.1350116 L141.505614,53.1350116 L141.505614,54.2275196 L141.557437,54.2275196 C141.623078,54.0653505 141.693557,53.9241314 141.770945,53.8038624 C141.848333,53.6820416 141.958197,53.5547892 142.100535,53.4197776 C142.242874,53.2863178 142.430126,53.1823433 142.662982,53.109406 C142.894455,53.0364687 143.165314,53 143.474866,53 C143.660045,53 143.834168,53.0139667 144,53.0419002 L144,54.5642728 C143.864571,54.5309078 143.640007,54.5146133 143.324927,54.5146133 C142.126792,54.5146133 141.527725,55.2152772 141.527725,56.6166049 L141.527725,62 L140,62 Z" id="Fill-71" fill="#FFFFFF"></path>
            <polygon id="Fill-73" fill="#FFFFFF" points="148.05624 62 145 53 146.853621 53 148.916025 60.2835011 148.983051 60.2835011 151.213405 53 153 53 149.843606 62"></polygon>
            <mask id="mask-4" fill="white">
                <use xlink:href="#path-3"></use>
            </mask>
            <g id="Clip-76"></g>
            <path d="M154.199853,63 L155.800882,63 L155.800882,54.1434109 L154.199853,54.1434109 L154.199853,63 Z M154.28288,52.675969 C154.094783,52.4883721 154,52.2550388 154,51.9744186 C154,51.6945736 154.094783,51.4620155 154.28288,51.2775194 C154.471712,51.0922481 154.706833,51 154.988244,51 C155.285819,51 155.528288,51.0906977 155.716385,51.2728682 C155.905217,51.4550388 156,51.6891473 156,51.9744186 C156,52.2604651 155.905217,52.496124 155.716385,52.6806202 C155.528288,52.8658915 155.285819,52.9581395 154.988244,52.9581395 C154.706833,52.9581395 154.471712,52.8643411 154.28288,52.675969 L154.28288,52.675969 Z" id="Fill-75" fill="#FFFFFF" mask="url(#mask-4)"></path>
            <path d="M159,57.9464195 L159,57.0124429 C159,55.829355 159.320315,54.8641442 159.960945,54.1183342 C160.60083,53.3725241 161.487283,53 162.617325,53 C163.634883,53 164.440885,53.2742509 165.036075,53.8257999 C165.63052,54.3758253 165.933702,55.0340274 165.944131,55.7988827 L164.385016,55.7988827 C164.342556,55.4408329 164.1675,55.1163027 163.860594,54.8245302 C163.553687,54.5327577 163.149941,54.3864906 162.649356,54.3864906 C161.987868,54.3864906 161.485793,54.6356018 161.143876,55.1345861 C160.801958,55.6320467 160.630627,56.2719655 160.630627,57.0543423 L160.630627,57.9547994 C160.630627,58.7196546 160.810152,59.3443372 161.167713,59.8288471 C161.526019,60.3125952 162.0199,60.555612 162.649356,60.555612 C163.171544,60.555612 163.580504,60.4390554 163.876982,60.2089893 C164.172715,59.9773997 164.361179,59.6795328 164.442375,59.3169121 L166,59.3169121 C165.973928,60.0650076 165.652123,60.6995937 165.036075,61.2199086 C164.419283,61.7402235 163.613281,62 162.617325,62 C161.476109,62 160.588166,61.6305231 159.952751,60.8900457 C159.31808,60.1495683 159,59.1683596 159,57.9464195" id="Fill-77" fill="#FFFFFF" mask="url(#mask-4)"></path>
            <path d="M169.580949,56.6658202 L173.435012,56.6658202 L173.435012,56.6406805 C173.435012,55.9634332 173.260883,55.4118842 172.916252,54.9852717 C172.569444,54.5586592 172.100746,54.345353 171.507981,54.345353 C170.915216,54.345353 170.445792,54.559421 170.100435,54.9890808 C169.753628,55.4187405 169.580949,55.9695277 169.580949,56.6406805 L169.580949,56.6658202 Z M171.610282,62 C170.445792,62 169.553379,61.6320467 168.931592,60.8938547 C168.310531,60.1556628 168,59.1622651 168,57.9128999 L168,57.1449975 C168,55.888776 168.305452,54.8847131 168.916356,54.1305231 C169.52726,53.377095 170.390651,53 171.507981,53 C172.635468,53 173.498134,53.3748095 174.099606,54.1259523 C174.699627,54.8778568 175,55.8788725 175,57.1282377 L175,57.8877603 L169.580949,57.8877603 L169.580949,58.1353479 C169.580949,58.8400203 169.752902,59.4304215 170.096082,59.9065515 C170.439988,60.3834434 170.941335,60.6211275 171.602301,60.6211275 C172.110178,60.6211275 172.504871,60.5045708 172.785655,60.269934 C173.066439,60.0360589 173.24347,59.7458101 173.316024,59.3991874 L174.896973,59.3991874 C174.855618,59.7069578 174.765651,60.0048248 174.626347,60.2912646 C174.487044,60.5777044 174.2926,60.8527171 174.04374,61.1170645 C173.79488,61.3806501 173.461132,61.5947181 173.04177,61.7569832 C172.621683,61.9192483 172.145004,62 171.610282,62 L171.610282,62 Z" id="Fill-78" fill="#FFFFFF" mask="url(#mask-4)"></path>
            <path d="M176.159885,55.65871 C176.159885,55.2069578 176.250693,54.8085322 176.433862,54.4611478 C176.615478,54.1145251 176.866171,53.8357034 177.185941,53.626968 C177.50571,53.4182326 177.86351,53.2613002 178.258565,53.1569325 C178.654396,53.0518029 179.078944,53 179.533762,53 C180.548176,53 181.340614,53.2430168 181.9103,53.7305739 C182.479211,54.2166074 182.76483,54.8496699 182.76483,55.6251905 L181.216432,55.6251905 C181.188491,55.2511427 181.036368,54.9273743 180.761614,54.6554088 C180.486861,54.3826816 180.059984,54.2463179 179.482537,54.2463179 C178.978046,54.2463179 178.570573,54.3575419 178.262446,54.5807517 C177.954319,54.8039614 177.799867,55.1102082 177.799867,55.5017776 C177.799867,55.6777552 177.846435,55.8354495 177.939572,55.976384 C178.031933,56.1173184 178.122741,56.2254952 178.212773,56.3031996 C178.302805,56.3793804 178.466571,56.4540376 178.704845,56.5256475 C178.94312,56.5972575 179.10999,56.642966 179.205455,56.6612494 C179.30092,56.6810564 179.497284,56.7153377 179.794545,56.7648553 C179.827919,56.7701879 179.855084,56.7747588 179.873711,56.777806 C179.893891,56.7808532 179.917951,56.7846623 179.945892,56.7892331 C179.973833,56.7945658 179.998669,56.801422 180.021954,56.8059929 C180.385187,56.8722702 180.703404,56.9415947 180.971948,57.0124429 C181.241268,57.0840528 181.510589,57.1838497 181.779909,57.309548 C182.049229,57.4367699 182.267325,57.5830371 182.435747,57.7521585 C182.604169,57.9197562 182.740769,58.1300152 182.843996,58.3836973 C182.947223,58.6366176 183,58.9261046 183,59.2506348 C183,60.1152869 182.67635,60.789487 182.028274,61.2732351 C181.380197,61.7585069 180.503936,62 179.398714,62 C178.372658,62 177.549174,61.7729812 176.929039,61.3189436 C176.308903,60.864906 176,60.250127 176,59.4738446 L177.64852,59.4738446 C177.704402,59.8593195 177.889899,60.1655663 178.204236,60.3941087 C178.518572,60.6226511 178.941568,60.7369223 179.474775,60.7369223 C180.101896,60.7369223 180.57146,60.6173184 180.879588,60.3773489 C181.188491,60.138903 181.342167,59.8288471 181.342167,59.4494667 C181.342167,59.0030472 181.090697,58.6754698 180.584655,58.4667344 C180.333185,58.3669375 179.844218,58.2480955 179.120856,58.11097 C178.745205,58.0340274 178.431644,57.9608939 178.178623,57.8930929 C177.926378,57.8237684 177.661714,57.7254952 177.383856,57.599035 C177.106775,57.4725749 176.886351,57.3278314 176.723362,57.1663281 C176.561149,57.0033012 176.4261,56.793804 176.319769,56.5370747 C176.212662,56.281869 176.159885,55.9893347 176.159885,55.65871" id="Fill-79" fill="#FFFFFF" mask="url(#mask-4)"></path>
        </g>
    </g>
</svg>