<?xml version="1.0" encoding="UTF-8"?>
<svg width="268px" height="80px" viewBox="0 0 268 80" version="1.1" xmlns="http://www.w3.org/2000/svg" xmlns:xlink="http://www.w3.org/1999/xlink">
    <!-- Generator: Sketch 60.1 (88133) - https://sketch.com -->
    <title>MultiSafepay white - tagline@1,5x</title>
    <desc>Created with Sketch.</desc>
    <defs>
        <polygon id="path-1" points="0.7504 0.2244 24 0.2244 24 37.6134 0.7504 37.6134"></polygon>
        <polygon id="path-3" points="0 0.9031 8.6949 0.9031 8.6949 12.9941 0 12.9941"></polygon>
        <polygon id="path-5" points="0 64.4046 257 64.4046 257 -0.0004 0 -0.0004"></polygon>
    </defs>
    <g id="MultiSafepay-white---tagline" stroke="none" stroke-width="1" fill="none" fill-rule="evenodd">
        <g id="Group-64" transform="translate(5.000000, 5.000000)">
            <path d="M18.5434,25.3928 L21.6564,11.5638 C22.6084,7.6038 22.7594,6.8038 23.4624,3.2458 L23.7634,2.9438 C28.0244,2.9448 29.2774,2.8928 34.1374,2.7958 L34.4904,3.0958 C34.5374,7.2548 34.5874,8.3558 34.8374,13.8208 L35.1344,21.5898 C35.5814,30.9618 35.6844,33.1668 35.9834,38.0268 L35.7314,38.3288 C32.0224,38.2758 30.8694,38.3288 27.8624,38.4778 L27.5624,38.1738 C27.5144,31.9078 27.5144,31.1068 27.3654,24.1428 L27.2704,10.7108 L23.4554,27.1018 C22.2034,32.6638 21.6484,35.1688 21.0994,38.0248 L20.7444,38.3278 C18.1884,38.2738 17.3364,38.3278 14.6804,38.4728 L14.3804,38.1738 C13.6804,34.9678 12.8314,31.1068 12.0294,27.5998 L8.3254,11.1068 L8.0224,22.6358 C7.7674,33.0588 7.7674,34.1628 7.7654,38.0188 L7.5184,38.3248 C4.8104,38.3228 3.9104,38.3228 0.9524,38.4698 L0.7004,38.1708 C1.1554,29.9528 1.2054,29.0478 1.5044,23.6368 L1.9614,12.6088 C2.1114,7.8998 2.1634,5.5418 2.2134,3.2388 L2.5144,2.9358 C6.9264,2.9378 8.2794,2.9378 13.1414,2.7918 L13.4404,3.0928 C13.9904,5.7468 14.0434,5.9018 15.2434,11.1608 L18.5434,25.3928 Z" id="Fill-1" fill="#FEFEFE"></path>
            <path d="M52.9736,35.4807 C51.5706,36.9797 49.4126,38.8397 46.0556,38.8367036 C40.6406,38.8347 40.1436,33.9737 39.9926,32.7697 C39.8416,31.2657 39.8416,29.6077 39.8436,26.6527 L39.8446,23.9987 C39.8986,16.7827 39.8476,15.5797 39.6976,12.1727 L39.9476,11.8717 C43.1056,11.8737 43.9096,11.8747 47.2676,11.5757 L47.5656,11.8737 C47.5656,13.6267 47.4626,22.1977 47.4626,24.1027 C47.4616,25.3037 47.4616,29.4137 47.6116,30.3177 C47.6626,30.8677 47.9626,32.6697 50.0156,32.6687 C51.4676,32.6717 52.2216,31.8687 52.8716,31.2197 L52.8726,27.1097 C52.8726,26.1577 52.7256,16.3357 52.5776,12.1737 L52.8776,11.8767 C56.1856,11.8257 57.0376,11.7767 60.2446,11.5787 L60.5446,11.8767 C60.4946,14.9847 60.4426,16.7407 60.4426,21.4987 C60.4426,22.5497 60.4396,29.0177 60.4886,31.9217 C60.5386,34.7297 60.5876,36.4827 60.6376,38.0367 L60.3866,38.3377 C56.8276,38.2857 56.2276,38.3347 53.1186,38.4327 L52.8676,38.2337 L52.9736,35.4807 Z" id="Fill-3" fill="#FEFEFE"></path>
            <path d="M72.9174,38.3439 C69.6094,38.2909 68.6574,38.2899 65.1524,38.4899 L64.8984,38.1909 C65.0014,35.0809 65.1014,31.7239 65.1044,24.6069 C65.1044,20.0459 65.1074,15.3839 65.0584,10.8269 C64.9624,5.8139 64.8094,4.1089 64.6604,1.7049 L64.9124,1.4019 C68.2684,0.8559 69.4744,0.6559 72.5784,-0.0001 L72.8814,0.3019 C72.8274,3.2109 72.8274,5.0609 72.8254,9.2229 C72.8254,10.8799 72.8734,22.1529 72.9194,28.7669 C73.0194,33.1769 73.1174,35.6339 73.2174,38.0419 L72.9174,38.3439 Z" id="Fill-5" fill="#FEFEFE"></path>
            <path d="M89.0624,17.3938 C86.8564,17.3478 86.8074,17.3458 85.6024,17.3458 L85.6024,23.6618 C85.5504,25.0138 85.5504,26.8188 85.5494,28.1708 C85.5494,30.7288 85.5984,33.1848 87.8534,33.1848 C88.6564,33.1848 89.2064,32.8818 89.5074,32.6838 L89.8054,32.9328 C89.6554,35.1388 89.6064,35.4878 89.5564,37.8458 L89.2544,38.2458 C88.1024,38.5948 86.6984,38.7458373 85.1444,38.7458373 C84.0414,38.7468 80.8834,38.7438 79.1824,36.4878 C77.9294,34.7848 77.9294,32.5758 77.9814,29.0208 L77.9824,26.0148 C77.9824,24.7618 78.0324,18.6448 78.0344,17.2448 C77.1334,17.2438 76.6294,17.2918 75.5804,17.3438 L75.3294,17.0398 C75.4284,14.7868 75.4284,14.7868 75.5314,12.1328 L75.8304,11.8328 C76.7844,11.8828 77.0324,11.8828 78.0874,11.8328 C78.0874,10.9298 78.0874,10.4288 78.0354,5.7158 L78.2874,5.3658 C81.5974,4.5658 82.5514,4.2628 85.4574,3.3628 L85.8084,3.6148 C85.7064,5.8218 85.6564,6.4228 85.6044,11.9848 C87.4064,11.9318 87.8104,11.9318 89.2634,11.8348 L89.5654,12.1348 C89.4134,14.4418 89.4134,14.7428 89.3124,17.0458 L89.0624,17.3938 Z" id="Fill-7" fill="#FEFEFE"></path>
            <path d="M99.4399,7.1257 C96.4319,7.4767 95.5309,7.5757 92.4729,8.1257 L92.1709,7.8247 C92.2239,5.1717 92.1719,4.5177 92.0749,1.7597 L92.3749,1.4597 C95.8339,1.1107 96.4319,1.0107 99.4899,0.5597 L99.7919,0.8607 C99.6899,3.7177 99.7399,4.4697 99.7389,6.8247 L99.4399,7.1257 Z M100.1819,38.3497 C96.9729,38.2997 95.7679,38.2967 92.2639,38.4997 L91.9609,38.1967 C92.1119,34.9897 92.2169,31.8317 92.2169,26.1687 C92.2199,18.2517 91.9689,15.4937 91.7699,12.8377 L92.0189,12.5387 C95.5299,12.0367 96.4319,11.8847 99.8869,11.1357 L100.1889,11.4367 C100.1389,12.1367 100.1369,12.8407 100.1369,13.4927 C100.0869,16.5007 100.0339,19.4557 100.0349,22.4667 C100.0339,27.6767 100.1309,32.8387 100.4819,38.0487 L100.1819,38.3497 Z" id="Fill-9" fill="#FEFEFE"></path>
            <path d="M121.8388,10.4401 C120.5848,9.3861 119.0328,8.1321 116.2278,8.1321 C113.6698,8.1321 112.0178,9.6341 112.0158,11.7921 C112.0158,13.3971 112.8148,14.4981 114.4228,15.6991 C114.9208,16.1491 117.6288,17.9551 118.2278,18.3561 C121.3838,20.5641 123.9378,22.8691 123.9368,27.8791 C123.9348,31.2381 122.7338,33.7951 121.3278,35.3971 C118.7208,38.3561 115.1648,39.0041 111.7558,39.0031025 C109.7978,39.0041 106.8448,38.7021 104.2388,37.3991 L103.9398,36.8981 C103.9898,35.8461 104.0888,34.7421 104.1418,33.6381 C104.1928,32.6881 104.2398,31.7321 104.2418,30.7831 L104.6428,30.6331 C106.3458,32.2381 108.5498,33.0921 110.8568,33.0911 C114.6128,33.0921 115.6148,30.4371 115.6148,28.7301 C115.6198,26.5281 114.2138,25.3241 111.8098,23.6691 L109.7048,22.2111 C107.0998,20.3571 103.8418,18.0541 103.843799,12.5401 C103.8448,8.9321 105.1998,6.4791 106.6538,5.0741 C109.0108,2.7701 112.1668,2.2681 114.9738,2.27108667 C117.5278,2.2721 120.1348,2.7231 122.4418,3.8761 L122.6408,4.2781 C122.5408,5.3301 122.4408,6.3811 122.3888,7.4331 L122.2378,10.2931 L121.8388,10.4401 Z" id="Fill-11" fill="#FEFEFE"></path>
            <path d="M138.6245,24.7771 C136.5205,25.0791 133.2125,25.6281 133.2095,29.6881 C133.2095,31.7941 134.3125,33.1461 135.9165,33.1461 C137.3705,33.1441 138.2225,32.2451 138.6215,31.7961 L138.6245,24.7771 Z M138.7185,36.2551 C137.9185,37.0041 136.0645,38.8081 132.7545,38.8101 C128.9965,38.8081 126.0415,35.9011 126.0425,30.5371 C126.0455,22.9751 132.6615,21.2651 138.5745,20.1661 C138.5745,18.4651 138.5755,16.5561 135.0165,16.5561 C131.7065,16.5551 129.7045,17.8601 128.6035,18.5641 L128.2515,18.3601 C128.4015,16.0541 128.4525,15.4051 128.5035,13.2991 L128.8055,12.8981 C131.7115,11.5951 135.4705,11.2461 137.3275,11.2480915 C139.2805,11.2480915 143.2385,11.5481 145.0915,14.7561 C146.1955,16.7111 146.1935,19.0191 146.0955,23.1311 L146.0415,27.0881 C145.9895,31.2961 146.0395,34.1551 146.4385,38.0611 L146.0875,38.3651 C142.7305,38.3161 141.9785,38.3641 139.0755,38.4611 L138.7205,38.2111 L138.7185,36.2551 Z" id="Fill-13" fill="#FEFEFE"></path>
            <path d="M162.2319,17.4167 C160.7769,17.3667 159.9739,17.3697 159.0749,17.3667 C159.0689,29.1937 159.2709,33.9027 159.4169,38.1137 L159.1169,38.3647 C155.5119,38.3657 154.7599,38.3657 151.4499,38.5117 L151.2009,38.2117 C151.2009,37.6117 151.2039,36.9597 151.2549,36.3567 C151.3509,32.8527 151.3549,21.7717 151.3549,17.3127 C150.2539,17.3127 149.9549,17.3627 148.8479,17.4157 L148.6009,17.1137 C148.7009,15.2577 148.7499,14.5597 148.8529,12.1527 L149.1549,11.8547 C150.1069,11.9507 150.3559,11.9517 151.3569,11.9517 C151.3109,8.0427 151.2589,4.8357 152.8639,2.7817 C154.8689,0.1787 158.5779,0.1807 159.7299,0.1787 C161.4859,0.1787 162.6399,0.4277 163.2369,0.5307 L163.4379,0.8287 C163.2349,3.0357 163.1859,3.5877 163.1349,6.0417 L162.7859,6.3407 C162.4339,6.1407 162.1319,5.9907 161.5809,5.9907 C160.6299,5.9907 159.9819,6.4917 159.6289,7.0467 C159.0249,7.9417 159.0259,8.8957 159.0249,12.0037 C160.5779,12.0037 161.0799,12.0047 162.5339,11.9057 L162.8339,12.2057 C162.6329,14.4117 162.6309,14.9127 162.5339,17.1187 L162.2319,17.4167 Z" id="Fill-15" fill="#FEFEFE"></path>
            <path d="M177.412,21.9323 C177.415,21.1293 177.415,20.2793 177.264,19.3733 C177.015,17.7233 176.216,16.3673 174.76,16.3673 C174.058,16.3693 171.953,16.6663 171.8,21.9283 L177.412,21.9323 Z M171.853,26.6903 C171.949,31.1013 174.357,33.3563 178.115,33.3573 C181.119,33.3573 182.876,32.1073 183.573,31.5563 L183.928,31.7573 C183.773,33.9123 183.724,34.8633 183.671,36.9653 L183.472,37.3703 C182.419,38.2703 179.265,38.9733 176.355,38.9733 C167.734,38.9703 164.276,33.5063 164.278998,25.0833 C164.282,23.2823 164.43,21.4253 164.883,19.6233 C166.392,13.5093 170.603,11.2543 175.009,11.2533 C176.466,11.2563 177.919,11.5063 179.27,12.1063 C183.981,14.2173 184.781,18.9273 184.783014,23.7893 C184.784,24.7433 184.731,25.6923 184.732,26.3953 L184.378,26.6943 L171.853,26.6903 Z" id="Fill-17" fill="#FEFEFE"></path>
            <path d="M196.1035,33.114 C196.3555,33.164 196.5525,33.161 196.8035,33.164 L197.2045,33.164 C201.6175,32.715 201.7165,26.75 201.7195,24.293 C201.7195,22.943 201.6205,20.633 200.8705,18.983 C200.7165,18.63 200.0165,17.178 198.4625,17.176 C197.3595,17.176 196.6065,17.928 196.0025,18.528 C196.0055,23.789 196.0565,26.2 196.1035,33.114 L196.1035,33.114 Z M195.8065,11.464 C195.7565,12.616 195.7565,12.768 195.7585,13.971 C196.9125,12.917 198.7205,11.313 201.5755,11.313 C204.6315,11.313 206.4835,13.173 207.5345,14.825 C209.2905,17.53 209.6405,21.241 209.6435,23.697 C209.6375,27.253 209.1315,34.971 202.1175,37.729 C199.9585,38.529 198.6575,38.478 195.9495,38.476 C195.9995,42.132 196.1475,46.646 196.2495,48.649 L195.9475,48.948 C194.9455,48.899 193.9445,48.847 192.9925,48.847 C191.4365,48.847 190.1385,48.947 188.3295,49.051 L188.0305,48.745 C188.1805,44.739 188.2325,40.728 188.2345,36.77 C188.2375,28.803 188.2405,20.781 187.5405,12.864 L187.7905,12.565 C191.4505,12.062 192.4015,11.863 195.4605,11.213 L195.8065,11.464 Z" id="Fill-19" fill="#FEFEFE"></path>
            <path d="M224.2206,24.8044 C222.1166,25.1024 218.8076,25.6534 218.810594,29.7134 C218.8076,31.8184 219.9096,33.1714 221.5136,33.1734 C222.9666,33.1734 223.8186,32.2694 224.2206,31.8204 L224.2206,24.8044 Z M224.3156,36.2784 C223.5176,37.0284 221.6606,38.8324 218.3566,38.8324 C214.5956,38.8324 211.6386,35.9254 211.6376,30.5594 C211.6376,22.9944 218.2606,21.2914 224.1706,20.1904 C224.1706,18.4874 224.1716,16.5834 220.6186,16.5824 C217.3076,16.5824 215.3066,17.8854 214.2026,18.5854 L213.8536,18.3834 C214.0006,16.0764 214.0556,15.4284 214.1006,13.3234 L214.4056,12.9224 C217.3076,11.6194 221.0746,11.2704 222.9246,11.2704 C224.8796,11.2714 228.8346,11.5744 230.6956,14.7824 C231.7926,16.7354 231.7916,19.0434 231.6916,23.1524 L231.6386,27.1114 C231.5926,31.3174 231.6396,34.1784 232.0366,38.0834 L231.6876,38.3884 C228.3296,38.3354 227.5796,38.3884 224.6726,38.4844 L224.3216,38.2324 L224.3156,36.2784 Z" id="Fill-21" fill="#FEFEFE"></path>
            <g id="Group-25" transform="translate(233.000000, 11.404600)">
                <mask id="mask-2" fill="white">
                    <use xlink:href="#path-1"></use>
                </mask>
                <g id="Clip-24"></g>
                <path d="M5.8984,37.3114 C7.1544,34.4034 7.7034,32.7474 9.3074,27.8874 C7.0554,19.9704 3.0024,7.0874 0.7504,0.8694 L0.9974,0.5714 C4.6544,0.5214 5.3594,0.4734 8.9154,0.2244 L9.3174,0.5224 C9.8664,3.1814 10.0194,3.9324 11.3694,9.3954 L13.2724,16.9644 L15.3314,8.8944 C16.2794,5.2884 16.3324,4.9874 17.2854,0.7294 L17.5864,0.4284 C20.3904,0.4814 21.0944,0.4794 23.8024,0.3304 L24.0004,0.6274 C22.6984,4.5874 22.3964,5.6914 19.4354,15.3614 L16.9304,23.5834 C14.9224,30.5454 14.0694,33.6014 13.2664,37.2104 L12.9174,37.5114 C9.6614,37.5114 9.0084,37.5114 6.1464,37.6134 L5.8984,37.3114 Z" id="Fill-23" fill="#FEFEFE" mask="url(#mask-2)"></path>
            </g>
            <g id="Group-28" transform="translate(0.000000, 48.404600)">
                <mask id="mask-4" fill="white">
                    <use xlink:href="#path-3"></use>
                </mask>
                <g id="Clip-27"></g>
                <path d="M-0.0001,9.5731 L1.7239,9.5731 C1.7799,10.1331 2.0429,10.5951 2.5139,10.9611 C2.9829,11.3261 3.6229,11.5091 4.4329,11.5091 C5.2019,11.5091 5.8109,11.3391 6.2579,10.9991 C6.7049,10.6591 6.9289,10.1981 6.9289,9.6151 C6.9289,9.1621 6.7799,8.8001 6.4829,8.5281 C6.1859,8.2561 5.7139,8.0421 5.0689,7.8831 L3.1159,7.3901 C2.7309,7.2941 2.3799,7.1671 2.0629,7.0081 C1.7459,6.8491 1.4539,6.6501 1.1849,6.4091 C0.9159,6.1691 0.7059,5.8691 0.5559,5.5101 C0.4059,5.1501 0.3319,4.7471 0.3319,4.3001 C0.3319,3.5921 0.5249,2.9761 0.9129,2.4521 C1.3009,1.9291 1.8019,1.5401 2.4159,1.2851 C3.0299,1.0301 3.7079,0.9031 4.4489,0.9031 C5.1799,0.9031 5.8479,1.0261 6.4529,1.2721 C7.0589,1.5181 7.5569,1.8991 7.9479,2.4141 C8.3379,2.9291 8.5389,3.5411 8.5509,4.2481 L6.8609,4.2481 C6.8099,3.6991 6.5759,3.2491 6.1609,2.8981 C5.7439,2.5481 5.1659,2.3721 4.4239,2.3721 C3.7219,2.3721 3.1569,2.5321 2.7299,2.8521 C2.3029,3.1721 2.0889,3.6121 2.0889,4.1721 C2.0889,4.9871 2.6289,5.5251 3.7109,5.7851 L5.6459,6.2781 C6.0149,6.3681 6.3459,6.4731 6.6399,6.5931 C6.9339,6.7111 7.2129,6.8591 7.4769,7.0381 C7.7399,7.2161 7.9579,7.4171 8.1299,7.6401 C8.3029,7.8641 8.4399,8.1301 8.5419,8.4381 C8.6439,8.7471 8.6949,9.0911 8.6949,9.4701 C8.6949,10.5801 8.2859,11.4441 7.4679,12.0641 C6.6499,12.6841 5.5869,12.9941 4.2799,12.9941 C3.6739,12.9941 3.1249,12.9251 2.6319,12.7861 C2.1399,12.6471 1.7349,12.4651 1.4179,12.2381 C1.1009,12.0111 0.8349,11.7471 0.6199,11.4441 C0.4049,11.1421 0.2499,10.8351 0.1569,10.5231 C0.0639,10.2121 0.0109,9.8951 -0.0001,9.5731" id="Fill-26" fill="#FEFEFE" mask="url(#mask-4)"></path>
            </g>
            <path d="M10.6816,61.1613 L10.6816,52.2123 L12.3716,52.2123 L12.3716,53.3663 L12.4566,53.3663 C12.6146,53.0153 12.8936,52.7113 13.2926,52.4533 C13.6916,52.1963 14.1776,52.0673 14.7486,52.0673 C15.4226,52.0673 15.9746,52.1963 16.4046,52.4533 C16.8346,52.7113 17.1346,53.0723 17.3056,53.5363 L17.3816,53.5363 C17.5566,53.1233 17.8836,52.7743 18.3616,52.4913 C18.8406,52.2093 19.4246,52.0673 20.1156,52.0673 C21.0496,52.0673 21.7796,52.3363 22.3066,52.8743 C22.8326,53.4113 23.0956,54.1413 23.0956,55.0643 L23.0956,61.1613 L21.3896,61.1613 L21.3896,55.4643 C21.3896,54.8803 21.2316,54.4183 20.9176,54.0753 C20.6036,53.7323 20.1576,53.5613 19.5806,53.5613 C18.9976,53.5613 18.5426,53.7463 18.2176,54.1133 C17.8916,54.4813 17.7296,54.9713 17.7296,55.5823 L17.7296,61.1613 L16.0486,61.1613 L16.0486,55.5823 C16.0486,54.9263 15.8866,54.4253 15.5636,54.0793 C15.2416,53.7343 14.7946,53.5613 14.2226,53.5613 C13.6906,53.5613 13.2516,53.7363 12.9066,54.0883 C12.5606,54.4393 12.3886,54.9323 12.3886,55.5653 L12.3886,61.1613 L10.6816,61.1613 Z" id="Fill-29" fill="#FEFEFE"></path>
            <path d="M28.4623,59.9465 C29.0393,59.9465 29.5223,59.7725 29.9093,59.4255 C30.2973,59.0765 30.4913,58.6445 30.4913,58.1305 L30.4913,57.1865 L28.4283,57.1865 C27.8793,57.1865 27.4653,57.3055 27.1883,57.5445 C26.9113,57.7815 26.7723,58.1045 26.7723,58.5115 C26.7723,58.9765 26.9353,59.3315 27.2603,59.5775 C27.5863,59.8235 27.9863,59.9465 28.4623,59.9465 L28.4623,59.9465 Z M30.5173,59.9895 C30.2853,60.3745 29.9553,60.6895 29.5273,60.9365 C29.1003,61.1825 28.5783,61.3055 27.9613,61.3055 C27.0893,61.3055 26.3843,61.0595 25.8463,60.5665 C25.3093,60.0745 25.0403,59.4175 25.0403,58.5965 C25.0403,57.7935 25.3133,57.1545 25.8593,56.6815 C26.4053,56.2095 27.1823,55.9725 28.1903,55.9725 L30.4913,55.9725 L30.4913,54.9705 C30.4913,53.9805 29.9143,53.4855 28.7593,53.4855 C27.6893,53.4855 27.1093,53.9325 27.0183,54.8275 L25.3713,54.8275 C25.4113,53.9895 25.7153,53.3195 26.2843,52.8185 C26.8533,52.3175 27.7003,52.0675 28.8273,52.0675 C29.8913,52.0675 30.7203,52.3045 31.3153,52.7805 C31.9093,53.2565 32.2063,53.9925 32.2063,54.9885 L32.2063,61.1615 L30.5763,61.1615 L30.5763,59.9895 L30.5173,59.9895 Z" id="Fill-31" fill="#FEFEFE"></path>
            <path d="M34.7621,61.1613 L34.7621,52.2123 L36.4691,52.2123 L36.4691,53.3153 L36.5281,53.3153 C36.6021,53.1513 36.6821,53.0093 36.7701,52.8873 C36.8581,52.7653 36.9821,52.6363 37.1441,52.5003 C37.3051,52.3643 37.5171,52.2603 37.7811,52.1853 C38.0441,52.1123 38.3511,52.0763 38.7021,52.0763 C38.9111,52.0763 39.1101,52.0903 39.2961,52.1183 L39.2961,53.6543 C39.1431,53.6213 38.8881,53.6043 38.5321,53.6043 C37.1741,53.6043 36.4941,54.3113 36.4941,55.7263 L36.4941,61.1613 L34.7621,61.1613 Z" id="Fill-33" fill="#FEFEFE"></path>
            <path d="M41.8271,52.2453 L41.8271,50.0043 L43.5161,50.0043 L43.5161,52.2453 L45.2741,52.2453 L45.2741,53.6303 L43.5161,53.6303 L43.5161,58.5623 C43.5161,59.0663 43.6171,59.4083 43.8181,59.5863 C44.0181,59.7643 44.3851,59.8533 44.9171,59.8533 C45.0421,59.8533 45.1781,59.8483 45.3251,59.8373 L45.3251,61.1693 C45.0981,61.2093 44.8211,61.2283 44.4931,61.2283 C43.9611,61.2283 43.5191,61.1803 43.1681,61.0803 C42.8171,60.9813 42.5431,60.8213 42.3451,60.6003 C42.1461,60.3803 42.0081,60.1153 41.9291,59.8073 C41.8491,59.4983 41.8091,59.1113 41.8091,58.6473 L41.8091,53.6303 L40.5781,53.6303 L40.5781,52.2453 L41.8271,52.2453 Z" id="Fill-35" fill="#FEFEFE"></path>
            <path d="M52.4575,51.048 L52.4575,55.481 L54.0875,55.481 C54.5805,55.481 54.9975,55.448 55.3405,55.383 C55.6825,55.319 55.9865,55.204 56.2525,55.043 C56.5195,54.882 56.7175,54.655 56.8475,54.364 C56.9775,54.072 57.0425,53.706 57.0425,53.265 C57.0425,52.563 56.8505,52.018 56.4655,51.63 C56.0805,51.242 55.5425,51.048 54.8525,51.048 L52.4575,51.048 Z M50.7165,49.57 L55.0725,49.57 C56.2105,49.57 57.1215,49.913 57.8065,50.599 C58.4915,51.283 58.8345,52.172 58.8345,53.265 C58.8345,54.362 58.4915,55.248 57.8065,55.922 C57.1215,56.596 56.2075,56.933 55.0645,56.933 L52.4575,56.933 L52.4575,61.161 L50.7165,61.161 L50.7165,49.57 Z" id="Fill-37" fill="#FEFEFE"></path>
            <path d="M63.1904,59.9465 C63.7674,59.9465 64.2504,59.7725 64.6374,59.4255 C65.0254,59.0765 65.2194,58.6445 65.2194,58.1305 L65.2194,57.1865 L63.1564,57.1865 C62.6074,57.1865 62.1934,57.3055 61.9164,57.5445 C61.6394,57.7815 61.5004,58.1045 61.5004,58.5115 C61.5004,58.9765 61.6634,59.3315 61.9884,59.5775 C62.3144,59.8235 62.7144,59.9465 63.1904,59.9465 L63.1904,59.9465 Z M65.2454,59.9895 C65.0134,60.3745 64.6834,60.6895 64.2554,60.9365 C63.8284,61.1825 63.3064,61.3055 62.6894,61.3055 C61.8174,61.3055 61.1124,61.0595 60.5744,60.5665 C60.0374,60.0745 59.7684,59.4175 59.7684,58.5965 C59.7684,57.7935 60.0414,57.1545 60.5874,56.6815 C61.1334,56.2095 61.9104,55.9725 62.9184,55.9725 L65.2194,55.9725 L65.2194,54.9705 C65.2194,53.9805 64.6424,53.4855 63.4874,53.4855 C62.4174,53.4855 61.8374,53.9325 61.7464,54.8275 L60.0994,54.8275 C60.1394,53.9895 60.4434,53.3195 61.0124,52.8185 C61.5814,52.3175 62.4284,52.0675 63.5554,52.0675 C64.6194,52.0675 65.4484,52.3045 66.0434,52.7805 C66.6374,53.2565 66.9344,53.9925 66.9344,54.9885 L66.9344,61.1615 L65.3044,61.1615 L65.3044,59.9895 L65.2454,59.9895 Z" id="Fill-39" fill="#FEFEFE"></path>
            <path d="M76.6909,52.2121 C74.6249,58.1211 73.5889,61.0871 73.5829,61.1091 L73.3539,61.7301 C73.2349,62.0531 73.1189,62.3291 73.0059,62.5581 C72.8929,62.7871 72.7459,63.0261 72.5649,63.2751 C72.3829,63.5251 72.1849,63.7251 71.9699,63.8781 C71.7549,64.0301 71.4899,64.1561 71.1759,64.2561 C70.8619,64.3551 70.5089,64.4041 70.1189,64.4041 C69.7739,64.4041 69.4369,64.3791 69.1079,64.3281 L69.1079,62.9951 C69.2609,63.0241 69.4879,63.0371 69.7879,63.0371 C70.3029,63.0371 70.6889,62.9261 70.9469,62.7021 C71.2039,62.4791 71.3899,62.1381 71.5029,61.6791 L71.6219,61.2541 L68.3869,52.2121 L70.2889,52.2121 L72.5299,59.5481 L72.6069,59.5481 L74.8649,52.2121 L76.6909,52.2121 Z" id="Fill-41" fill="#FEFEFE"></path>
            <path d="M78.33,61.1613 L78.33,52.2123 L80.019,52.2123 L80.019,53.3663 L80.104,53.3663 C80.263,53.0153 80.542,52.7113 80.941,52.4533 C81.34,52.1963 81.825,52.0673 82.397,52.0673 C83.071,52.0673 83.622,52.1963 84.053,52.4533 C84.483,52.7113 84.783,53.0723 84.953,53.5363 L85.029,53.5363 C85.205,53.1233 85.532,52.7743 86.01,52.4913 C86.488,52.2093 87.073,52.0673 87.764,52.0673 C88.697,52.0673 89.428,52.3363 89.954,52.8743 C90.48,53.4113 90.744,54.1413 90.744,55.0643 L90.744,61.1613 L89.037,61.1613 L89.037,55.4643 C89.037,54.8803 88.88,54.4183 88.566,54.0753 C88.252,53.7323 87.806,53.5613 87.228,53.5613 C86.645,53.5613 86.191,53.7463 85.866,54.1133 C85.54,54.4813 85.377,54.9713 85.377,55.5823 L85.377,61.1613 L83.696,61.1613 L83.696,55.5823 C83.696,54.9263 83.535,54.4253 83.212,54.0793 C82.89,53.7343 82.442,53.5613 81.871,53.5613 C81.338,53.5613 80.9,53.7363 80.555,54.0883 C80.209,54.4393 80.037,54.9323 80.037,55.5653 L80.037,61.1613 L78.33,61.1613 Z" id="Fill-43" fill="#FEFEFE"></path>
            <path d="M94.454,55.8293 L98.615,55.8293 L98.615,55.8033 C98.615,55.1063 98.428,54.5393 98.054,54.1003 C97.681,53.6623 97.174,53.4423 96.535,53.4423 C95.895,53.4423 95.388,53.6633 95.015,54.1043 C94.641,54.5473 94.454,55.1123 94.454,55.8033 L94.454,55.8293 Z M96.645,61.3133 C95.388,61.3133 94.425,60.9343 93.753,60.1763 C93.083,59.4173 92.747,58.3953 92.747,57.1103 L92.747,56.3213 C92.747,55.0303 93.077,53.9973 93.737,53.2223 C94.396,52.4463 95.329,52.0583 96.535,52.0583 C97.751,52.0583 98.684,52.4453 99.332,53.2183 C99.98,53.9903 100.305,55.0193 100.305,56.3043 L100.305,57.0853 L94.454,57.0853 L94.454,57.3403 C94.454,58.0643 94.64,58.6723 95.01,59.1613 C95.381,59.6513 95.923,59.8963 96.636,59.8963 C97.185,59.8963 97.611,59.7753 97.914,59.5353 C98.217,59.2943 98.408,58.9963 98.487,58.6393 L100.194,58.6393 C100.149,58.9563 100.051,59.2623 99.901,59.5563 C99.751,59.8503 99.542,60.1343 99.273,60.4053 C99.004,60.6773 98.643,60.8963 98.19,61.0633 C97.737,61.2303 97.222,61.3133 96.645,61.3133 L96.645,61.3133 Z" id="Fill-45" fill="#FEFEFE"></path>
            <path d="M102.3085,61.1613 L102.3085,52.2123 L103.9975,52.2123 L103.9975,53.4263 L104.0575,53.4263 C104.2325,53.0473 104.5475,52.7253 104.9995,52.4623 C105.4535,52.1993 105.9965,52.0673 106.6305,52.0673 C107.5585,52.0673 108.3215,52.3453 108.9185,52.8983 C109.5165,53.4543 109.8145,54.2293 109.8145,55.2253 L109.8145,61.1613 L108.0905,61.1613 L108.0905,55.8113 C108.0905,54.3233 107.4195,53.5783 106.0785,53.5783 C105.4215,53.5783 104.9135,53.7753 104.5545,54.1683 C104.1945,54.5623 104.0155,55.1303 104.0155,55.8713 L104.0155,61.1613 L102.3085,61.1613 Z" id="Fill-47" fill="#FEFEFE"></path>
            <path d="M112.6933,52.2453 L112.6933,50.0043 L114.3823,50.0043 L114.3823,52.2453 L116.1403,52.2453 L116.1403,53.6303 L114.3823,53.6303 L114.3823,58.5623 C114.3823,59.0663 114.4833,59.4083 114.6843,59.5863 C114.8843,59.7643 115.2513,59.8533 115.7833,59.8533 C115.9083,59.8533 116.0443,59.8483 116.1913,59.8373 L116.1913,61.1693 C115.9643,61.2093 115.6873,61.2283 115.3593,61.2283 C114.8273,61.2283 114.3853,61.1803 114.0343,61.0803 C113.6833,60.9813 113.4093,60.8213 113.2113,60.6003 C113.0123,60.3803 112.8743,60.1153 112.7953,59.8073 C112.7153,59.4983 112.6763,59.1113 112.6763,58.6473 L112.6763,53.6303 L111.4443,53.6303 L111.4443,52.2453 L112.6933,52.2453 Z" id="Fill-49" fill="#FEFEFE"></path>
            <path d="M120.7509,57.9777 L122.4749,57.9777 C122.5309,58.5377 122.7939,58.9997 123.2639,59.3657 C123.7339,59.7307 124.3739,59.9137 125.1829,59.9137 C125.9529,59.9137 126.5619,59.7437 127.0089,59.4037 C127.4559,59.0637 127.6799,58.6027 127.6799,58.0197 C127.6799,57.5667 127.5309,57.2047 127.2339,56.9327 C126.9369,56.6607 126.4649,56.4467 125.8199,56.2877 L123.8669,55.7947 C123.4819,55.6987 123.1309,55.5717 122.8139,55.4127 C122.4969,55.2537 122.2039,55.0547 121.9359,54.8137 C121.6669,54.5737 121.4569,54.2737 121.3069,53.9147 C121.1569,53.5547 121.0819,53.1517 121.0819,52.7047 C121.0819,51.9967 121.2759,51.3807 121.6639,50.8567 C122.0509,50.3337 122.5519,49.9447 123.1669,49.6897 C123.7799,49.4347 124.4589,49.3077 125.1999,49.3077 C125.9299,49.3077 126.5989,49.4307 127.2039,49.6767 C127.8099,49.9227 128.3079,50.3037 128.6979,50.8187 C129.0889,51.3337 129.2899,51.9457 129.3009,52.6527 L127.6109,52.6527 C127.5609,52.1037 127.3269,51.6537 126.9109,51.3027 C126.4949,50.9527 125.9159,50.7767 125.1739,50.7767 C124.4729,50.7767 123.9079,50.9367 123.4809,51.2567 C123.0529,51.5767 122.8399,52.0167 122.8399,52.5767 C122.8399,53.3917 123.3799,53.9297 124.4609,54.1897 L126.3969,54.6827 C126.7649,54.7727 127.0959,54.8777 127.3909,54.9977 C127.6849,55.1157 127.9639,55.2637 128.2269,55.4427 C128.4899,55.6207 128.7089,55.8217 128.8809,56.0447 C129.0529,56.2687 129.1899,56.5347 129.2929,56.8427 C129.3949,57.1517 129.4459,57.4957 129.4459,57.8747 C129.4459,58.9847 129.0369,59.8487 128.2179,60.4687 C127.4009,61.0887 126.3379,61.3987 125.0299,61.3987 C124.4239,61.3987 123.8759,61.3297 123.3829,61.1907 C122.8899,61.0517 122.4859,60.8697 122.1689,60.6427 C121.8519,60.4157 121.5849,60.1517 121.3709,59.8487 C121.1559,59.5467 121.0009,59.2397 120.9079,58.9277 C120.8139,58.6167 120.7619,58.2997 120.7509,57.9777" id="Fill-51" fill="#FEFEFE"></path>
            <path d="M132.7065,55.8293 L136.8675,55.8293 L136.8675,55.8033 C136.8675,55.1063 136.6805,54.5393 136.3065,54.1003 C135.9335,53.6623 135.4265,53.4423 134.7865,53.4423 C134.1465,53.4423 133.6405,53.6633 133.2665,54.1043 C132.8935,54.5473 132.7065,55.1123 132.7065,55.8033 L132.7065,55.8293 Z M134.8965,61.3133 C133.6405,61.3133 132.6765,60.9343 132.0055,60.1763 C131.3345,59.4173 130.9995,58.3953 130.9995,57.1103 L130.9995,56.3213 C130.9995,55.0303 131.3295,53.9973 131.9885,53.2223 C132.6475,52.4463 133.5815,52.0583 134.7865,52.0583 C136.0035,52.0583 136.9355,52.4453 137.5845,53.2183 C138.2325,53.9903 138.5565,55.0193 138.5565,56.3043 L138.5565,57.0853 L132.7065,57.0853 L132.7065,57.3403 C132.7065,58.0643 132.8925,58.6723 133.2625,59.1613 C133.6335,59.6513 134.1755,59.8963 134.8885,59.8963 C135.4375,59.8963 135.8635,59.7753 136.1665,59.5353 C136.4695,59.2943 136.6605,58.9963 136.7395,58.6393 L138.4465,58.6393 C138.4015,58.9563 138.3035,59.2623 138.1535,59.5563 C138.0035,59.8503 137.7935,60.1343 137.5245,60.4053 C137.2555,60.6773 136.8945,60.8963 136.4425,61.0633 C135.9895,61.2303 135.4745,61.3133 134.8965,61.3133 L134.8965,61.3133 Z" id="Fill-53" fill="#FEFEFE"></path>
            <path d="M140.6879,61.1613 L140.6879,52.2123 L142.3949,52.2123 L142.3949,53.3153 L142.4539,53.3153 C142.5279,53.1513 142.6079,53.0093 142.6959,52.8873 C142.7839,52.7653 142.9079,52.6363 143.0699,52.5003 C143.2309,52.3643 143.4429,52.2603 143.7069,52.1853 C143.9699,52.1123 144.2769,52.0763 144.6279,52.0763 C144.8369,52.0763 145.0349,52.0903 145.2219,52.1183 L145.2219,53.6543 C145.0689,53.6213 144.8139,53.6043 144.4579,53.6043 C143.0999,53.6043 142.4199,54.3113 142.4199,55.7263 L142.4199,61.1613 L140.6879,61.1613 Z" id="Fill-55" fill="#FEFEFE"></path>
            <polygon id="Fill-57" fill="#FEFEFE" points="149.0512 61.1613 145.9432 52.2123 147.8282 52.2123 149.9262 59.4543 149.9932 59.4543 152.2612 52.2123 154.0772 52.2123 150.8682 61.1613"></polygon>
            <mask id="mask-6" fill="white">
                <use xlink:href="#path-5"></use>
            </mask>
            <g id="Clip-60"></g>
            <path d="M155.708,61.1616 L157.415,61.1616 L157.415,52.2126 L155.708,52.2126 L155.708,61.1616 Z M155.797,50.7296 C155.597,50.5406 155.496,50.3036 155.496,50.0206 C155.496,49.7376 155.597,49.5036 155.797,49.3166 C155.998,49.1296 156.249,49.0366 156.549,49.0366 C156.866,49.0366 157.125,49.1286 157.326,49.3116 C157.527,49.4966 157.627,49.7316 157.627,50.0206 C157.627,50.3096 157.527,50.5466 157.326,50.7336 C157.125,50.9206 156.866,51.0146 156.549,51.0146 C156.249,51.0146 155.998,50.9196 155.797,50.7296 L155.797,50.7296 Z" id="Fill-59" fill="#FEFEFE" mask="url(#mask-6)"></path>
            <path d="M159.665,57.1447 L159.665,56.1857 C159.665,54.9677 160.002,53.9767 160.676,53.2087 C161.349,52.4427 162.281,52.0587 163.469,52.0587 C164.539,52.0587 165.387,52.3417 166.013,52.9087 C166.638,53.4737 166.956,54.1507 166.968,54.9377 L165.329,54.9377 C165.283,54.5697 165.1,54.2357 164.777,53.9357 C164.455,53.6347 164.03,53.4857 163.503,53.4857 C162.807,53.4857 162.279,53.7417 161.919,54.2537 C161.561,54.7657 161.381,55.4237 161.381,56.2277 L161.381,57.1537 C161.381,57.9407 161.569,58.5827 161.945,59.0817 C162.321,59.5787 162.841,59.8287 163.503,59.8287 C164.052,59.8287 164.482,59.7087 164.794,59.4717 C165.105,59.2337 165.304,58.9277 165.388,58.5537 L167.027,58.5537 C166.999,59.3247 166.661,59.9767 166.013,60.5117 C165.364,61.0457 164.517,61.3137 163.469,61.3137 C162.269,61.3137 161.335,60.9337 160.667,60.1717 C159.999,59.4107 159.665,58.4017 159.665,57.1447" id="Fill-61" fill="#FEFEFE" mask="url(#mask-6)"></path>
            <path d="M170.2031,55.8293 L174.3631,55.8293 L174.3631,55.8033 C174.3631,55.1063 174.1771,54.5393 173.8031,54.1003 C173.4301,53.6623 172.9231,53.4423 172.2831,53.4423 C171.6431,53.4423 171.1371,53.6633 170.7631,54.1043 C170.3901,54.5473 170.2031,55.1123 170.2031,55.8033 L170.2031,55.8293 Z M172.3931,61.3133 C171.1371,61.3133 170.1731,60.9343 169.5021,60.1763 C168.8311,59.4173 168.4951,58.3953 168.4951,57.1103 L168.4951,56.3213 C168.4951,55.0303 168.8261,53.9973 169.4851,53.2223 C170.1441,52.4463 171.0771,52.0583 172.2831,52.0583 C173.5001,52.0583 174.4321,52.4453 175.0811,53.2183 C175.7281,53.9903 176.0531,55.0193 176.0531,56.3043 L176.0531,57.0853 L170.2031,57.0853 L170.2031,57.3403 C170.2031,58.0643 170.3891,58.6723 170.7591,59.1613 C171.1301,59.6513 171.6721,59.8963 172.3851,59.8963 C172.9331,59.8963 173.3591,59.7753 173.6631,59.5353 C173.9661,59.2943 174.1561,58.9963 174.2361,58.6393 L175.9421,58.6393 C175.8971,58.9563 175.8001,59.2623 175.6491,59.5563 C175.5001,59.8503 175.2901,60.1343 175.0211,60.4053 C174.7521,60.6773 174.3911,60.8963 173.9381,61.0633 C173.4851,61.2303 172.9711,61.3133 172.3931,61.3133 L172.3931,61.3133 Z" id="Fill-62" fill="#FEFEFE" mask="url(#mask-6)"></path>
            <path d="M177.6494,54.7932 C177.6494,54.3282 177.7414,53.9182 177.9254,53.5622 C178.1094,53.2052 178.3624,52.9192 178.6854,52.7042 C179.0084,52.4882 179.3694,52.3272 179.7684,52.2202 C180.1674,52.1122 180.5954,52.0592 181.0544,52.0592 C182.0794,52.0592 182.8784,52.3092 183.4534,52.8112 C184.0274,53.3112 184.3154,53.9602 184.3154,54.7592 L182.7534,54.7592 C182.7244,54.3742 182.5714,54.0412 182.2944,53.7612 C182.0164,53.4812 181.5874,53.3412 181.0034,53.3412 C180.4944,53.3412 180.0834,53.4552 179.7724,53.6852 C179.4614,53.9142 179.3044,54.2302 179.3044,54.6312 C179.3044,54.8132 179.3514,54.9762 179.4454,55.1202 C179.5394,55.2642 179.6304,55.3762 179.7214,55.4552 C179.8114,55.5342 179.9774,55.6102 180.2174,55.6852 C180.4594,55.7582 180.6274,55.8052 180.7234,55.8242 C180.8194,55.8442 181.0174,55.8792 181.3184,55.9312 C181.3514,55.9372 181.3784,55.9402 181.3984,55.9432 C181.4184,55.9462 181.4424,55.9502 181.4704,55.9562 C181.4994,55.9612 181.5244,55.9682 181.5464,55.9732 C181.9154,56.0412 182.2354,56.1112 182.5064,56.1862 C182.7784,56.2592 183.0494,56.3612 183.3214,56.4912 C183.5924,56.6212 183.8144,56.7722 183.9834,56.9452 C184.1534,57.1182 184.2914,57.3342 184.3954,57.5952 C184.5004,57.8562 184.5524,58.1522 184.5524,58.4862 C184.5524,59.3752 184.2254,60.0682 183.5724,60.5662 C182.9184,61.0642 182.0344,61.3142 180.9184,61.3142 C179.8824,61.3142 179.0514,61.0802 178.4254,60.6132 C177.8004,60.1472 177.4884,59.5142 177.4884,58.7162 L179.1524,58.7162 C179.2094,59.1112 179.3954,59.4282 179.7124,59.6622 C180.0304,59.8972 180.4574,60.0152 180.9954,60.0152 C181.6284,60.0152 182.1014,59.8922 182.4134,59.6462 C182.7244,59.3992 182.8794,59.0812 182.8794,58.6902 C182.8794,58.2312 182.6264,57.8952 182.1164,57.6802 C181.8614,57.5772 181.3684,57.4562 180.6384,57.3142 C180.2584,57.2352 179.9424,57.1602 179.6874,57.0902 C179.4324,57.0192 179.1654,56.9182 178.8844,56.7882 C178.6044,56.6572 178.3824,56.5102 178.2184,56.3432 C178.0544,56.1762 177.9184,55.9602 177.8104,55.6962 C177.7034,55.4342 177.6494,55.1332 177.6494,54.7932" id="Fill-63" fill="#FEFEFE" mask="url(#mask-6)"></path>
        </g>
    </g>
</svg>