<?xml version="1.0" encoding="UTF-8"?>
<svg width="268px" height="59px" viewBox="0 0 268 59" version="1.1" xmlns="http://www.w3.org/2000/svg" xmlns:xlink="http://www.w3.org/1999/xlink">
    <!-- Generator: Sketch 60.1 (88133) - https://sketch.com -->
    <title>MultiSafepay - Black@1,5x</title>
    <desc>Created with Sketch.</desc>
    <defs>
        <polygon id="path-1" points="0.8404 0.1624 22.9434 0.1624 22.9434 38 0.8404 38"></polygon>
        <polygon id="path-3" points="0.0503 0.5785 23.3 0.5785 23.3 37.9675 0.0503 37.9675"></polygon>
    </defs>
    <g id="MultiSafepay---Black" stroke="none" stroke-width="1" fill="none" fill-rule="evenodd">
        <g id="Group-27" transform="translate(6.000000, 4.000000)">
            <path d="M17.8433,25.3928 L20.9563,11.5638 C21.9083,7.6038 22.0593,6.8038 22.7623,3.2458 L23.0633,2.9438 C27.3243,2.9448 28.5773,2.8928 33.4373,2.7958 L33.7903,3.0958 C33.8373,7.2548 33.8873,8.3558 34.1373,13.8208 L34.4343,21.5898 C34.8813,30.9618 34.9843,33.1668 35.2833,38.0268 L35.0313,38.3288 C31.3223,38.2758 30.1693,38.3288 27.1623,38.4778 L26.8623,38.1738 C26.8143,31.9078 26.8143,31.1068 26.6653,24.1428 L26.5703,10.7108 L22.7553,27.1018 C21.5033,32.6638 20.9483,35.1688 20.3993,38.0248 L20.0443,38.3278 C17.4883,38.2738 16.6363,38.3278 13.9803,38.4728 L13.6803,38.1738 C12.9803,34.9678 12.1313,31.1068 11.3293,27.5998 L7.6253,11.1068 L7.3223,22.6358 C7.0673,33.0588 7.0673,34.1628 7.0653,38.0188 L6.8183,38.3248 C4.1103,38.3228 3.2103,38.3228 0.2523,38.4698 L0.0003,38.1708 C0.4553,29.9528 0.5053,29.0478 0.8043,23.6368 L1.2613,12.6088 C1.4113,7.8998 1.4633,5.5418 1.5133,3.2388 L1.8143,2.9358 C6.2263,2.9378 7.5793,2.9378 12.4413,2.7918 L12.7403,3.0928 C13.2903,5.7468 13.3433,5.9018 14.5433,11.1608 L17.8433,25.3928 Z" id="Fill-1" fill="#010202"></path>
            <path d="M52.2735,35.4807 C50.8705,36.9797 48.7125,38.8397 45.3555,38.8367036 C39.9405,38.8347 39.4435,33.9737 39.2925,32.7697 C39.1415,31.2657 39.1415,29.6077 39.1435,26.6527 L39.1445,23.9987 C39.1985,16.7827 39.1475,15.5797 38.9975,12.1727 L39.2475,11.8717 C42.4055,11.8737 43.2095,11.8747 46.5675,11.5757 L46.8655,11.8737 C46.8655,13.6267 46.7625,22.1977 46.7625,24.1027 C46.7615,25.3037 46.7615,29.4137 46.9115,30.3177 C46.9625,30.8677 47.2625,32.6697 49.3155,32.6687 C50.7675,32.6717 51.5215,31.8687 52.1715,31.2197 L52.1725,27.1097 C52.1725,26.1577 52.0255,16.3357 51.8775,12.1737 L52.1775,11.8767 C55.4855,11.8257 56.3375,11.7767 59.5445,11.5787 L59.8445,11.8767 C59.7945,14.9847 59.7425,16.7407 59.7425,21.4987 C59.7425,22.5497 59.7395,29.0177 59.7885,31.9217 C59.8385,34.7297 59.8875,36.4827 59.9375,38.0367 L59.6865,38.3377 C56.1275,38.2857 55.5275,38.3347 52.4185,38.4327 L52.1675,38.2337 L52.2735,35.4807 Z" id="Fill-3" fill="#010202"></path>
            <path d="M72.2174,38.344 C68.9094,38.291 67.9574,38.29 64.4524,38.49 L64.1984,38.191 C64.3014,35.081 64.4014,31.724 64.4044,24.607 C64.4044,20.046 64.4074,15.384 64.3584,10.827 C64.2624,5.814 64.1094,4.109 63.9604,1.705 L64.2124,1.402 C67.5684,0.856 68.7744,0.656 71.8784,0 L72.1814,0.302 C72.1274,3.211 72.1274,5.061 72.1254,9.223 C72.1254,10.88 72.1734,22.153 72.2194,28.767 C72.3194,33.177 72.4174,35.634 72.5174,38.042 L72.2174,38.344 Z" id="Fill-5" fill="#010202"></path>
            <path d="M88.3624,17.3938 C86.1564,17.3478 86.1074,17.3458 84.9024,17.3458 L84.9024,23.6618 C84.8504,25.0138 84.8504,26.8188 84.8494,28.1708 C84.8494,30.7288 84.8984,33.1848 87.1534,33.1848 C87.9564,33.1848 88.5064,32.8818 88.8074,32.6838 L89.1054,32.9328 C88.9554,35.1388 88.9064,35.4878 88.8564,37.8458 L88.5544,38.2458 C87.4024,38.5948 85.9984,38.7458373 84.4444,38.7458373 C83.3414,38.7468 80.1834,38.7438 78.4824,36.4878 C77.2294,34.7848 77.2294,32.5758 77.2814,29.0208 L77.2824,26.0148 C77.2824,24.7618 77.3324,18.6448 77.3344,17.2448 C76.4334,17.2438 75.9294,17.2918 74.8804,17.3438 L74.6294,17.0398 C74.7284,14.7868 74.7284,14.7868 74.8314,12.1328 L75.1304,11.8328 C76.0844,11.8828 76.3324,11.8828 77.3874,11.8328 C77.3874,10.9298 77.3874,10.4288 77.3354,5.7158 L77.5874,5.3658 C80.8974,4.5658 81.8514,4.2628 84.7574,3.3628 L85.1084,3.6148 C85.0064,5.8218 84.9564,6.4228 84.9044,11.9848 C86.7064,11.9318 87.1104,11.9318 88.5634,11.8348 L88.8654,12.1348 C88.7134,14.4418 88.7134,14.7428 88.6124,17.0458 L88.3624,17.3938 Z" id="Fill-7" fill="#010202"></path>
            <path d="M98.7398,7.1257 C95.7318,7.4767 94.8308,7.5757 91.7728,8.1257 L91.4708,7.8247 C91.5238,5.1717 91.4718,4.5177 91.3748,1.7597 L91.6748,1.4597 C95.1338,1.1107 95.7318,1.0107 98.7898,0.5597 L99.0918,0.8607 C98.9898,3.7177 99.0398,4.4697 99.0388,6.8247 L98.7398,7.1257 Z M99.4818,38.3497 C96.2728,38.2997 95.0678,38.2967 91.5638,38.4997 L91.2608,38.1967 C91.4118,34.9897 91.5168,31.8317 91.5168,26.1687 C91.5198,18.2517 91.2688,15.4937 91.0698,12.8377 L91.3188,12.5387 C94.8298,12.0367 95.7318,11.8847 99.1868,11.1357 L99.4888,11.4367 C99.4388,12.1367 99.4368,12.8407 99.4368,13.4927 C99.3868,16.5007 99.3338,19.4557 99.3348,22.4667 C99.3338,27.6767 99.4308,32.8387 99.7818,38.0487 L99.4818,38.3497 Z" id="Fill-9" fill="#010202"></path>
            <path d="M121.1387,10.4402 C119.8847,9.3862 118.3327,8.1322 115.5277,8.1322 C112.9697,8.1322 111.3177,9.6342 111.3157,11.7922 C111.3157,13.3972 112.1147,14.4982 113.7227,15.6992 C114.2207,16.1492 116.9287,17.9552 117.5277,18.3562 C120.6837,20.5642 123.2377,22.8692 123.2367,27.8792 C123.2347,31.2382 122.0337,33.7952 120.6277,35.3972 C118.0207,38.3562 114.4647,39.0042 111.0557,39.0032025 C109.0977,39.0042 106.1447,38.7022 103.5387,37.3992 L103.2397,36.8982 C103.2897,35.8462 103.3887,34.7422 103.4417,33.6382 C103.4927,32.6882 103.5397,31.7322 103.5417,30.7832 L103.9427,30.6332 C105.6457,32.2382 107.8497,33.0922 110.1567,33.0912 C113.9127,33.0922 114.9147,30.4372 114.9147,28.7302 C114.9197,26.5282 113.5137,25.3242 111.1097,23.6692 L109.0047,22.2112 C106.3997,20.3572 103.1417,18.0542 103.143699,12.5402 C103.1447,8.9322 104.4997,6.4792 105.9537,5.0742 C108.3107,2.7702 111.4667,2.2682 114.2737,2.27118667 C116.8277,2.2722 119.4347,2.7232 121.7417,3.8762 L121.9407,4.2782 C121.8407,5.3302 121.7407,6.3812 121.6887,7.4332 L121.5377,10.2932 L121.1387,10.4402 Z" id="Fill-11" fill="#010202"></path>
            <path d="M137.9244,24.7771 C135.8204,25.0791 132.5124,25.6281 132.5094,29.6881 C132.5094,31.7941 133.6124,33.1461 135.2164,33.1461 C136.6704,33.1441 137.5224,32.2451 137.9214,31.7961 L137.9244,24.7771 Z M138.0184,36.2551 C137.2184,37.0041 135.3644,38.8081 132.0544,38.8101 C128.2964,38.8081 125.3414,35.9011 125.3424,30.5371 C125.3454,22.9751 131.9614,21.2651 137.8744,20.1661 C137.8744,18.4651 137.8754,16.5561 134.3164,16.5561 C131.0064,16.5551 129.0044,17.8601 127.9034,18.5641 L127.5514,18.3601 C127.7014,16.0541 127.7524,15.4051 127.8034,13.2991 L128.1054,12.8981 C131.0114,11.5951 134.7704,11.2461 136.6274,11.2480915 C138.5804,11.2480915 142.5384,11.5481 144.3914,14.7561 C145.4954,16.7111 145.4934,19.0191 145.3954,23.1311 L145.3414,27.0881 C145.2894,31.2961 145.3394,34.1551 145.7384,38.0611 L145.3874,38.3651 C142.0304,38.3161 141.2784,38.3641 138.3754,38.4611 L138.0204,38.2111 L138.0184,36.2551 Z" id="Fill-13" fill="#010202"></path>
            <path d="M161.5318,17.4167 C160.0768,17.3667 159.2738,17.3697 158.3748,17.3667 C158.3688,29.1937 158.5708,33.9027 158.7168,38.1137 L158.4168,38.3647 C154.8118,38.3657 154.0598,38.3657 150.7498,38.5117 L150.5008,38.2117 C150.5008,37.6117 150.5038,36.9597 150.5548,36.3567 C150.6508,32.8527 150.6548,21.7717 150.6548,17.3127 C149.5538,17.3127 149.2548,17.3627 148.1478,17.4157 L147.9008,17.1137 C148.0008,15.2577 148.0498,14.5597 148.1528,12.1527 L148.4548,11.8547 C149.4068,11.9507 149.6558,11.9517 150.6568,11.9517 C150.6108,8.0427 150.5588,4.8357 152.1638,2.7817 C154.1688,0.1787 157.8778,0.1807 159.0298,0.1787 C160.7858,0.1787 161.9398,0.4277 162.5368,0.5307 L162.7378,0.8287 C162.5348,3.0357 162.4858,3.5877 162.4348,6.0417 L162.0858,6.3407 C161.7338,6.1407 161.4318,5.9907 160.8808,5.9907 C159.9298,5.9907 159.2818,6.4917 158.9288,7.0467 C158.3248,7.9417 158.3258,8.8957 158.3248,12.0037 C159.8778,12.0037 160.3798,12.0047 161.8338,11.9057 L162.1338,12.2057 C161.9328,14.4117 161.9308,14.9127 161.8338,17.1187 L161.5318,17.4167 Z" id="Fill-15" fill="#010202"></path>
            <path d="M176.712,21.9324 C176.715,21.1294 176.715,20.2794 176.564,19.3734 C176.315,17.7234 175.516,16.3674 174.06,16.3674 C173.358,16.3694 171.253,16.6664 171.1,21.9284 L176.712,21.9324 Z M171.153,26.6904 C171.249,31.1014 173.657,33.3564 177.415,33.3574 C180.419,33.3574 182.176,32.1074 182.873,31.5564 L183.228,31.7574 C183.073,33.9124 183.024,34.8634 182.971,36.9654 L182.772,37.3704 C181.719,38.2704 178.565,38.9734 175.655,38.9734 C167.034,38.9704 163.576,33.5064 163.578998,25.0834 C163.582,23.2824 163.73,21.4254 164.183,19.6234 C165.692,13.5094 169.903,11.2544 174.309,11.2534 C175.766,11.2564 177.219,11.5064 178.57,12.1064 C183.281,14.2174 184.081,18.9274 184.083014,23.7894 C184.084,24.7434 184.031,25.6924 184.032,26.3954 L183.678,26.6944 L171.153,26.6904 Z" id="Fill-17" fill="#010202"></path>
            <g id="Group-21" transform="translate(186.000000, 11.050600)">
                <mask id="mask-2" fill="white">
                    <use xlink:href="#path-1"></use>
                </mask>
                <g id="Clip-20"></g>
                <path d="M9.4034,22.0634 C9.6554,22.1134 9.8524,22.1104 10.1034,22.1134 L10.5044,22.1134 C14.9174,21.6644 15.0164,15.6994 15.0194,13.2424 C15.0194,11.8924 14.9204,9.5824 14.1704,7.9324 C14.0164,7.5794 13.3164,6.1274 11.7624,6.1254 C10.6594,6.1254 9.9064,6.8774 9.3024,7.4774 C9.3054,12.7384 9.3564,15.1494 9.4034,22.0634 L9.4034,22.0634 Z M9.1064,0.4134 C9.0564,1.5654 9.0564,1.7174 9.0584,2.9204 C10.2124,1.8664 12.0204,0.2624 14.8754,0.2624 C17.9314,0.2624 19.7834,2.1224 20.8344,3.7744 C22.5904,6.4794 22.9404,10.1904 22.9434,12.6464 C22.9374,16.2024 22.4314,23.9204 15.4174,26.6784 C13.2584,27.4784 11.9574,27.4274 9.2494,27.4254 C9.2994,31.0814 9.4474,35.5954 9.5494,37.5984 L9.2474,37.8974 C8.2454,37.8484 7.2444,37.7964 6.2924,37.7964 C4.7364,37.7964 3.4384,37.8964 1.6294,38.0004 L1.3304,37.6944 C1.4804,33.6884 1.5324,29.6774 1.5344,25.7194 C1.5374,17.7524 1.5404,9.7304 0.8404,1.8134 L1.0904,1.5144 C4.7504,1.0114 5.7014,0.8124 8.7604,0.1624 L9.1064,0.4134 Z" id="Fill-19" fill="#010202" mask="url(#mask-2)"></path>
            </g>
            <path d="M223.5206,24.8044 C221.4166,25.1024 218.1076,25.6534 218.110594,29.7134 C218.1076,31.8184 219.2096,33.1714 220.8136,33.1734 C222.2666,33.1734 223.1186,32.2694 223.5206,31.8204 L223.5206,24.8044 Z M223.6156,36.2784 C222.8176,37.0284 220.9606,38.8324 217.6566,38.8324 C213.8956,38.8324 210.9386,35.9254 210.9376,30.5594 C210.9376,22.9944 217.5606,21.2914 223.4706,20.1904 C223.4706,18.4874 223.4716,16.5834 219.9186,16.5824 C216.6076,16.5824 214.6066,17.8854 213.5026,18.5854 L213.1536,18.3834 C213.3006,16.0764 213.3556,15.4284 213.4006,13.3234 L213.7056,12.9224 C216.6076,11.6194 220.3746,11.2704 222.2246,11.2704 C224.1796,11.2714 228.1346,11.5744 229.9956,14.7824 C231.0926,16.7354 231.0916,19.0434 230.9916,23.1524 L230.9386,27.1114 C230.8926,31.3174 230.9396,34.1784 231.3366,38.0834 L230.9876,38.3884 C227.6296,38.3354 226.8796,38.3884 223.9726,38.4844 L223.6216,38.2324 L223.6156,36.2784 Z" id="Fill-22" fill="#010202"></path>
            <g id="Group-26" transform="translate(233.000000, 11.050600)">
                <mask id="mask-4" fill="white">
                    <use xlink:href="#path-3"></use>
                </mask>
                <g id="Clip-25"></g>
                <path d="M5.1983,37.6655 C6.4543,34.7575 7.0033,33.1015 8.6073,28.2415 C6.3553,20.3245 2.3023,7.4415 0.0503,1.2235 L0.2973,0.9255 C3.9543,0.8755 4.6593,0.8275 8.2153,0.5785 L8.6173,0.8765 C9.1663,3.5355 9.3193,4.2865 10.6693,9.7495 L12.5723,17.3185 L14.6313,9.2485 C15.5793,5.6425 15.6323,5.3415 16.5853,1.0835 L16.8863,0.7825 C19.6903,0.8355 20.3943,0.8335 23.1023,0.6845 L23.3003,0.9815 C21.9983,4.9415 21.6963,6.0455 18.7353,15.7155 L16.2303,23.9375 C14.2223,30.8995 13.3693,33.9555 12.5663,37.5645 L12.2173,37.8655 C8.9613,37.8655 8.3083,37.8655 5.4463,37.9675 L5.1983,37.6655 Z" id="Fill-24" fill="#010202" mask="url(#mask-4)"></path>
            </g>
        </g>
    </g>
</svg>