<?xml version="1.0" encoding="UTF-8"?>
<svg id="Layer_1" data-name="Layer 1" xmlns="http://www.w3.org/2000/svg" xmlns:xlink="http://www.w3.org/1999/xlink" viewBox="0 0 70 40">
  <defs>
    <style>
      .cls-1 {
        clip-path: url(#clippath);
      }

      .cls-2 {
        fill: none;
      }

      .cls-2, .cls-3, .cls-4, .cls-5, .cls-6, .cls-7, .cls-8, .cls-9, .cls-10, .cls-11, .cls-12, .cls-13, .cls-14, .cls-15 {
        stroke-width: 0px;
      }

      .cls-3 {
        fill: #fff;
        fill-rule: evenodd;
      }

      .cls-4 {
        fill: #3394d7;
      }

      .cls-5 {
        fill: #2872bc;
      }

      .cls-6 {
        fill: #62b64f;
      }

      .cls-7 {
        fill: #2f9b47;
      }

      .cls-8 {
        fill: #3db8ad;
      }

      .cls-9 {
        fill: #238647;
      }

      .cls-10 {
        fill: #1d5c84;
      }

      .cls-11 {
        fill: #e13030;
      }

      .cls-12 {
        fill: #89cc53;
      }

      .cls-13 {
        fill: #993233;
      }

      .cls-14 {
        fill: #f5c836;
      }

      .cls-15 {
        fill: #f28825;
      }
    </style>
    <clipPath id="clippath">
      <rect class="cls-2" x="15" width="40" height="40"/>
    </clipPath>
  </defs>
  <g id="bunq_App_Icon_Square" data-name="bunq App Icon Square">
    <rect class="cls-2" x="15" width="40" height="40"/>
    <g class="cls-1">
      <g>
        <g>
          <rect class="cls-9" x="14.99991" y="-.00007" width="6.66667" height="39.99998"/>
          <rect class="cls-7" x="18.33339" y="-.00007" width="6.66667" height="39.99998"/>
          <rect class="cls-6" x="21.66687" y="-.00007" width="6.66667" height="39.99998"/>
          <rect class="cls-12" x="24.99991" y="-.00007" width="6.66667" height="39.99998"/>
          <rect class="cls-8" x="28.33339" y="-.00007" width="6.66667" height="39.99998"/>
          <rect class="cls-4" x="31.66687" y="-.00007" width="6.66667" height="39.99998"/>
          <rect class="cls-5" x="34.99991" y="-.00007" width="6.66667" height="39.99998"/>
          <rect class="cls-10" x="38.33339" y="-.00007" width="6.66667" height="39.99998"/>
          <rect class="cls-13" x="41.66674" y="-.00007" width="6.66667" height="39.99998"/>
          <rect class="cls-11" x="45.00004" y="-.00007" width="6.66667" height="39.99998"/>
          <rect class="cls-15" x="48.33339" y="-.00007" width="6.66667" height="39.99998"/>
          <rect class="cls-14" x="51.66644" y="-.00007" width="3.33332" height="39.99998"/>
        </g>
        <g>
          <path class="cls-3" d="m32.99993,16.83322h1.33333v3.5c0,1.65567-1.34433,3-3,3s-3-1.34433-3-3v-3.5h1.33333v3.5c0,1.01183.74683,1.83333,1.66666,1.83333s1.66666-.8215,1.66666-1.83333v-3.5Z"/>
          <path class="cls-3" d="m40.34084,23.16656h1.33333v-3.5c0-1.65567-1.34433-3-3-3s-3,1.34433-3,3v3.5h1.33333v-3.5c0-1.01183.74683-1.83333,1.66666-1.83333s1.66666.8215,1.66666,1.83333v3.5Z"/>
          <path class="cls-3" d="m21.49917,23.16656h-1.16666v-3h.005c-.00334-.05517-.005-.11083-.005-.16667v-6h1.33333v3.33384c.55666-.41883,1.25-.66717,2-.66717,1.84,0,3.33333,1.49367,3.33333,3.33334s-1.49332,3.33334-3.33333,3.33334c-.79667,0-1.52834-.28017-2.10166-.74717l-.065.5805Zm2.08333-5.33334c1.15,0,2.08333.97083,2.08333,2.16667s-.93333,2.16667-2.08333,2.16667-2.08333-.97083-2.08333-2.16667.93333-2.16667,2.08333-2.16667Z"/>
          <path class="cls-3" d="m48.50058,16.83322h1.16666v3h-.005c.00334.05517.005.11083.005.16667v6h-1.33333v-3.33384c-.55666.41883-1.25.66717-2,.66717-1.84,0-3.33333-1.49367-3.33333-3.33334s1.49332-3.33334,3.33333-3.33334c.79667,0,1.52834.28017,2.10166.74717l.065-.5805Zm-2.08333,5.33334c-1.15,0-2.08333-.97083-2.08333-2.16667s.93333-2.16667,2.08333-2.16667,2.08333.97083,2.08333,2.16667-.93333,2.16667-2.08333,2.16667Z"/>
        </g>
      </g>
    </g>
  </g>
</svg>