<?xml version="1.0" encoding="UTF-8"?>
<svg id="Layer_1" data-name="Layer 1" xmlns="http://www.w3.org/2000/svg" xmlns:xlink="http://www.w3.org/1999/xlink" viewBox="0 0 70 40">
  <defs>
    <style>
      .cls-1 {
        fill: url(#linear-gradient);
        stroke-width: 0px;
      }
    </style>
    <linearGradient id="linear-gradient" x1="15.00001" y1="-60.72439" x2="54.99999" y2="-60.72439" gradientTransform="translate(0 -40.72439) scale(1 -1)" gradientUnits="userSpaceOnUse">
      <stop offset=".59896" stop-color="#005c9b"/>
      <stop offset="1" stop-color="#0076b3"/>
    </linearGradient>
  </defs>
  <path class="cls-1" d="m19.76191,0C17.13334,0,15.00001,2.13334,15.00001,4.76191v30.47618c0,2.62857,2.13333,4.7619,4.7619,4.7619h30.47618c2.62857,0,4.7619-2.13333,4.7619-4.7619v-5.71428c-1.10476,1.12381-2.58152,1.90476-5.84819,1.90476-2.76191,0-5.58038-1.53248-5.58038-5.27533,0-3.53333,2.27581-4.38124,5.33295-4.82885l3.60124-.6101c1.06667-.2381,2.49438-.23895,2.49438-2.50562,0-1.18095-1.61905-2.01819-2.85714-2.01819-1.96191,0-2.85676.97143-3.1901,1.90476h-4.71543c.76191-4.99047,4.50619-5.71428,8.11571-5.71428.7619,0,1.69457.06581,2.64695.27533v-7.89438C54.99999,2.13334,52.86666,0,50.23809,0h-30.47618Zm.95238,8.57142h4.7619v8.57142h8.57142v-8.57142h4.7619v22.85713h-4.7619v-10.47619h-8.57142v10.47619h-4.7619V8.57143Zm33.33142,14.30428c-.48181.37362-1.1881.65828-3.18267.96352-1.79038.30667-3.51181.56552-3.51181,2.23219s1.39372,1.95686,2.32324,1.95686c2.13429,0,4.37124-2.00733,4.37124-4.21876v-.93381Z"/>
</svg>