<svg xmlns="http://www.w3.org/2000/svg" viewBox="0 0 100 100.04319"><defs><style>.cls-1,.cls-4{fill:#010202;}.cls-2,.cls-3{fill:#cd2073;}.cls-2,.cls-4,.cls-5,.cls-6,.cls-7{fill-rule:evenodd;}.cls-5{fill:#fff;}.cls-6{fill:#0a0c0b;}.cls-7{fill:#d50a73;}</style></defs><g id="Layer_2" data-name="Layer 2"><g id="Layer_1-2" data-name="Layer 1"><rect class="cls-1" y="94.75106" width="0.0216" height="5.28135"/><rect class="cls-1" y="70.88239" width="0.0216" height="5.28135"/><path class="cls-2" d="M100,53.16989V64.39141H81.54228c.216-.486.432-.972.62642-1.46884a30.17139,30.17139,0,0,0,1.19883-3.81251H94.70785V53.1699H100Z"/><path class="cls-2" d="M100,35.6842V46.90571H94.70785V40.96555H83.36753a31.54523,31.54523,0,0,0-1.81445-5.28135Z"/><path class="cls-2" d="M64.143,79.05821V100.0324H35.8462V94.75105h7.301V80.94826h5.28135V94.75105H58.85085V80.28945A39.08681,39.08681,0,0,0,64.143,79.05821Z"/><path class="cls-2" d="M100,70.88239v29.15H70.73118V85.452h5.29215v9.28826H94.70785V76.16374H87.79566V85.452H82.51431V76.16374H70.85v-.0108a27.44872,27.44872,0,0,0,4.41733-3.19689A26.8292,26.8292,0,0,0,77.341,70.88239Z"/><rect class="cls-3" x="0.0216" y="35.6842" width="14.2888" height="5.28135"/><polygon class="cls-2" points="14.31 59.11 14.31 64.391 0.022 64.391 0.022 46.798 5.303 46.798 5.303 59.11 14.31 59.11"/><path class="cls-4" d="M23.85787,80.94826V94.75105H5.303V76.17453H14.3104V70.89318H.0216v29.15H29.15V80.94826Z"/><rect class="cls-1" x="10.19549" y="81.05627" width="8.80225" height="8.80225"/><rect class="cls-1" y="23.86867" width="0.0216" height="5.28135"/><rect class="cls-1" width="0.0216" height="5.29215"/><rect class="cls-1" x="10.20126" y="10.17791" width="8.79145" height="8.79145"/><path class="cls-4" d="M.0216,0V29.15H14.3104V23.86867H5.303V5.29215H23.85787V19.09494H29.15V0Z"/><rect class="cls-1" x="70.57997" width="0.0216" height="5.29215"/><rect class="cls-1" x="81.02569" y="10.18187" width="8.79145" height="8.79145"/><path class="cls-4" d="M70.60158,0V23.69586A26.21918,26.21918,0,0,1,77.341,29.15H99.73V0ZM94.44864,23.86867H75.89372V5.29215H94.44864Z"/><path class="cls-2" d="M64.143,0V20.94179a40.63084,40.63084,0,0,0-5.28135-1.20964v-14.44H35.8462V0Z"/><rect class="cls-3" x="43.14721" y="10.19549" width="5.28135" height="8.89945"/><g id="Page-1"><g id="Logo-iDeal"><path class="cls-5" d="M77.21136,49.9622c0,15.67124-9.46106,23.78227-26.87115,23.78227H21.5142V26.29874H50.32941C66.95107,26.29874,77.21136,33.859,77.21136,49.9622Z"/><path class="cls-4" d="M50.34021,23.83627H19.06253V76.19613H50.34021c18.91133,0,29.33363-9.32066,29.33363-26.24473C79.67383,40.20953,75.86132,23.83627,50.34021,23.83627ZM21.5142,73.73366V26.29874H50.32941c16.61086,0,26.87115,7.54941,26.87115,23.65266,0,15.67124-9.46106,23.78226-26.87115,23.78226Z"/><polygon id="Fill-5" class="cls-6" points="25.489 69.964 34.712 69.964 34.712 53.537 25.489 53.537 25.489 69.964"/><path id="Fill-6" class="cls-6" d="M35.8246,45.27487a5.735,5.735,0,1,1-5.735-5.735,5.7386,5.7386,0,0,1,5.735,5.735Z"/><path id="Fill-7" class="cls-7" d="M39.3023,42.60719v5.35695H40.944c1.134,0,2.19246-.324,2.19246-2.72167,0-2.33287-1.16643-2.63528-2.19246-2.63528Zm27.40037-2.66767h2.65687v8.01382h3.94211c-1.08-14.53721-12.51755-17.6801-22.91824-17.6801H39.3023v9.67708H40.944c2.99168,0,4.84933,2.03045,4.84933,5.29214,0,3.3697-1.81445,5.37856-4.84933,5.37856H39.3023V69.986H50.38341c16.90247,0,22.77784-7.85182,22.99384-19.36494H66.70267Zm-7.39821,5.96177h1.92245L60.35209,42.888h-.162ZM55.15714,50.621l3.21849-10.6707h3.78011L65.37423,50.621H62.60935l-.60481-2.06286h-3.4777L57.922,50.621Zm-1.28523-2.66768v2.65688H47.29453V39.93952H53.6667V42.5964H49.9622v1.242h3.4993v2.65688H49.9622v1.458Z"/></g></g></g></g></svg>