<svg id="logo" xmlns="http://www.w3.org/2000/svg" xmlns:xlink="http://www.w3.org/1999/xlink" viewBox="0 0 70 40"><defs><style>.cls-1{fill:#fff;}.cls-1,.cls-3,.cls-4,.cls-5,.cls-6{fill-rule:evenodd;}.cls-2{mask:url(#mask);}.cls-3{fill:#d40d47;}.cls-4{fill:#fabb2e;}.cls-5{fill:#2aabce;}.cls-6{fill:#555390;}.cls-7{mask:url(#mask-2-2);}.cls-8{mask:url(#mask-3);}</style><mask id="mask" x="0" y="19.01325" width="6.46154" height="6.28803" maskUnits="userSpaceOnUse"><g id="mask-2"><polygon id="path-1" class="cls-1" points="0.01 19.013 0.01 25.292 6.462 25.292 6.462 19.013 0.01 19.013"/></g></mask><mask id="mask-2-2" x="48.49946" y="16.79015" width="14.14563" height="8.50143" maskUnits="userSpaceOnUse"><g id="mask-4"><polygon id="path-3" class="cls-1" points="48.499 25.292 62.645 25.292 62.645 16.79 48.499 16.79 48.499 25.292"/></g></mask><mask id="mask-3" x="48.49946" y="16.79015" width="14.14563" height="8.51113" maskUnits="userSpaceOnUse"><g id="mask-4-2" data-name="mask-4"><polygon id="path-3-2" data-name="path-3" class="cls-1" points="48.499 25.292 62.645 25.292 62.645 16.79 48.499 16.79 48.499 25.292"/></g></mask></defs><g class="cls-2"><path id="Fill-1" class="cls-3" d="M3.36284,25.30128a3.36321,3.36321,0,0,1-1.65994-6.288L2.283,20.03344A2.18969,2.18969,0,1,0,5.3806,22.7903l1.08094.45719a3.35876,3.35876,0,0,1-3.0987,2.05379"/></g><path id="Fill-4" class="cls-4" d="M6.46154,23.24749,5.38028,22.7903A2.19017,2.19017,0,0,0,2.283,20.03344L1.7029,19.01325a3.36422,3.36422,0,0,1,4.75864,4.23424"/><path id="Fill-5" class="cls-5" d="M6.10322,15.87238A3.32568,3.32568,0,1,0,9.4289,19.19806,3.32951,3.32951,0,0,0,6.10322,15.87238ZM1.60371,19.19806a4.49943,4.49943,0,1,1,4.49951,4.49951A4.50449,4.50449,0,0,1,1.60371,19.19806Z"/><path id="Fill-6" class="cls-6" d="M6.10322,23.69757a4.50453,4.50453,0,0,1-4.49951-4.49951.58684.58684,0,0,1,1.17367,0,3.3294,3.3294,0,0,0,3.32584,3.32568.58692.58692,0,0,1,0,1.17383"/><g class="cls-7"><path id="Fill-7" class="cls-3" d="M59.36707,21.60258a1.53441,1.53441,0,1,1,1.53441-1.53441A1.53446,1.53446,0,0,1,59.36707,21.60258Zm0-4.81243a3.278,3.278,0,1,0,3.278,3.278,3.278,3.278,0,0,0-3.278-3.278Z"/></g><g class="cls-8"><path id="Fill-9" class="cls-3" d="M55.24252,16.94653H53.9939c-.18724,0-.29629.01535-.3748.17141l-1.56074,3.52778h-.01551l-1.57657-3.52778a.281.281,0,0,0-.26559-.17141H48.79585a.27546.27546,0,0,0-.26511.40566l2.54394,5.40095-.92455,2.12649a.27966.27966,0,0,0,.26559.42165H51.758a.31355.31355,0,0,0,.26559-.1874L55.508,17.35219a.26732.26732,0,0,0-.26543-.40566"/></g><path id="Fill-11" class="cls-3" d="M43.81912,19.28772a1.23054,1.23054,0,0,1,1.21777-1.06138,1.1661,1.1661,0,0,1,1.13942,1.06138Zm1.26446-2.49757a3.2792,3.2792,0,0,0,.01535,6.556,3.274,3.274,0,0,0,2.20678-.725.33708.33708,0,0,0,.05428-.44831l-.44669-.64071a.33808.33808,0,0,0-.43489-.10339,2.9055,2.9055,0,0,1-1.39015.30986c-.90565,0-1.36251-.44863-1.40968-1.08853h3.99611a.30205.30205,0,0,0,.2966-.26559,3.84977,3.84977,0,0,0,.03135-.42132,2.92718,2.92718,0,0,0-2.91906-3.173Z"/><path id="Fill-12" class="cls-3" d="M22.45326,16.79015a3.18008,3.18008,0,0,0-2.201.968,2.45871,2.45871,0,0,0-2.02924-.968,2.84113,2.84113,0,0,0-1.91728.7462c-.10614-.16558-.23473-.40936-.23473-.40936a.32647.32647,0,0,0-.27916-.18046h-.72165a.29623.29623,0,0,0-.29677.29645v5.65071a.3069.3069,0,0,0,.29677.29645h1.264a.3069.3069,0,0,0,.29677-.29645V19.45945a1.37919,1.37919,0,0,1,1.31114-.98352c.79612,0,1.15541.51519,1.15541,1.32682v3.09094a.296.296,0,0,0,.29629.29645h1.17075a.307.307,0,0,0,.29677-.29645V19.72488c0-.2811-.016-.59338-.016-.59338a1.57189,1.57189,0,0,1,1.31179-.65557c.78012,0,1.17059.51519,1.17059,1.32682v3.09094a.296.296,0,0,0,.29629.29645h1.26462a.296.296,0,0,0,.29628-.29645V19.91228c0-1.63893-.7336-3.12213-2.73166-3.12213"/><path id="Fill-13" class="cls-3" d="M69.70323,16.94653h-1.1861c-.25024,0-.34346.0622-.34346.29645v3.24668a1.37849,1.37849,0,0,1-1.24911,1.17076c-.71761,0-1.13958-.51519-1.13958-1.34249V17.243a.29608.29608,0,0,0-.29611-.29645h-1.28a.29623.29623,0,0,0-.29677.29645v3.02826c0,1.59208.70226,3.075,2.63828,3.075a2.667,2.667,0,0,0,1.917-.746l.00016.00549c.10614.16559.2349.40921.2349.40921a.326.326,0,0,0,.279.18061h.7218A.29647.29647,0,0,0,70,22.89886V17.243a.29633.29633,0,0,0-.29677-.29645"/><path id="Fill-14" class="cls-3" d="M37.85371,16.79015a3.07393,3.07393,0,0,0-2.038.76656l-.00436-.02036c-.10614-.16558-.2349-.40936-.2349-.40936a.32577.32577,0,0,0-.279-.18046h-.72165a.29623.29623,0,0,0-.29677.29645v5.65071a.3069.3069,0,0,0,.29677.29645h1.264a.3069.3069,0,0,0,.29677-.29645v-3.468a1.56522,1.56522,0,0,1,1.45169-.94976c.74927,0,1.1706.51519,1.1706,1.32682v3.09094a.29654.29654,0,0,0,.29677.29645h1.28a.3069.3069,0,0,0,.29677-.29645V19.89661c0-1.62326-.796-3.10646-2.77867-3.10646"/><path id="Fill-15" class="cls-3" d="M29.73111,21.60258a1.53441,1.53441,0,1,1,1.53457-1.53441A1.53433,1.53433,0,0,1,29.73111,21.60258Zm0-4.81243a3.278,3.278,0,1,0,3.278,3.278,3.27811,3.27811,0,0,0-3.278-3.278Z"/></svg>