<svg width="60" height="40" viewBox="0 0 60 40" xmlns="http://www.w3.org/2000/svg">
  <title>
    rabobank
  </title>
  <defs>
    <linearGradient x1=".001%" y1="50.001%" x2="100.002%" y2="50.001%" id="a">
      <stop stop-color="#CA581A" offset="0%"/>
      <stop stop-color="#6E2E2B" offset="100%"/>
    </linearGradient>
    <linearGradient x1="-17.882%" y1="63.722%" x2="99.665%" y2="40.506%" id="b">
      <stop stop-color="#FFE07D" offset="0%"/>
      <stop stop-color="#EE7203" offset="100%"/>
    </linearGradient>
    <linearGradient x1="9.329%" y1="33.923%" x2="99.212%" y2="72.485%" id="c">
      <stop stop-color="#2D2C86" offset="0%"/>
      <stop stop-color="#282674" offset="100%"/>
    </linearGradient>
  </defs>
  <g fill="none" fill-rule="evenodd">
    <path d="M42.48 25.165c.627.62 1.138 1.294 1.5 2.018 1.155 2.312.73 4.862-1.568 7.085-2.637 2.548-7.123 4.115-12.333 4.115s-9.697-1.567-12.334-4.115c-2.3-2.223-2.723-4.773-1.57-7.085.363-.724.868-1.393 1.496-2.02-.736.7-1.317 1.32-1.844 2.362-1.126 2.22-.767 5.395 1.61 7.695 2.703 2.614 6.93 4.188 12.684 4.188 5.77 0 9.996-1.622 12.586-4.188 2.54-2.516 2.638-5.792 1.597-7.766-.434-.82-1.017-1.577-1.825-2.29z" fill="url(#a)"/>
    <path d="M38.25 22.49c-2.44-.997-5.285-1.51-8.17-1.51-2.887 0-5.73.513-8.172 1.51-2.673 1.092-4.74 2.712-5.73 4.693-1.155 2.312-.73 4.862 1.57 7.085 2.635 2.548 7.12 4.115 12.332 4.115 5.21 0 9.696-1.567 12.332-4.115 2.3-2.223 2.724-4.773 1.57-7.085-.99-1.98-3.06-3.6-5.73-4.694z" fill="#EE7203"/>
    <path d="M30.563 23.604c-.48-.97-.382-1.852-.284-2.624h-.202c-2.886 0-5.73.512-8.17 1.51-2.674 1.092-4.74 2.713-5.73 4.695-1.156 2.31-.732 4.86 1.568 7.083.16.156.33.308.504.457 9.705-.558 14.775-6.154 12.313-11.12z" fill="url(#b)"/>
    <path d="M23.83 23.768c1.802.452 3.517.99 5.26 1.625.347-1.022.713-2.038 1.133-3.034.42.994.785 2.01 1.13 3.03 1.744-.633 3.428-1.15 5.23-1.6-1.267.784-2.388 1.594-3.563 2.505 2.384.3 4.614.688 6.963 1.19-2.34-.05-4.544.03-6.88.178 1.647 1.376 3.06 2.708 4.59 4.206-2.1-1.183-4.07-2.175-6.258-3.194-.425 1.803-.825 3.61-1.21 5.422-.388-1.81-.743-3.533-1.167-5.334-2.188 1.017-4.178 1.987-6.347 3.12 1.534-1.497 2.986-2.796 4.635-4.17-2.337-.15-4.578-.18-6.97-.215 2.346-.5 4.666-.89 7.048-1.19-1.174-.91-2.327-1.757-3.594-2.542zm6.394 3.154v-3.984c-.41 1.107-.773 2.23-1.114 3.36.374.204.744.412 1.114.624zm-5.344-2.715c1.445.63 2.852 1.334 4.23 2.09-.343.035-.685.07-1.027.11-1.038-.775-2.102-1.514-3.203-2.2zm5.344 2.715c2.783.005 5.563.14 8.332.414-2.43-.433-4.792-.764-7.228-1.044-.37.206-.74.416-1.104.63zm5.338-2.716c-1.446.626-2.854 1.33-4.234 2.086l-.17-.557c1.447-.568 2.914-1.083 4.404-1.53zm-5.485 2.716c.06 1.923.13 3.963.147 5.825.363-1.723.74-3.44 1.144-5.155-.38-.227-.907-.45-1.29-.67zm6.28 3.965c-1.624-1.155-3.284-2.258-4.99-3.295.35-.027.698-.054 1.047-.076 1.354 1.08 2.665 2.207 3.942 3.37zm-6.133-3.965c-2.802.037-4.99.162-7.72.394 2.358.008 4.19.096 6.585.282.375-.23.753-.455 1.134-.676zm-6.13 3.966c1.625-1.154 3.287-2.255 4.995-3.29.05.214.1.428.148.643-1.745.827-3.46 1.712-5.144 2.648z" fill="#FFF"/>
    <path d="M30.223 22.426c.42.995.785 2.01 1.13 3.03 1.687-.612 3.31-1.11 5.05-1.552l.18-.114c-1.802.45-3.486.966-5.23 1.6-.345-1.02-.712-2.036-1.13-3.03-.42.995-.786 2.01-1.132 3.033-1.743-.636-3.458-1.173-5.26-1.625l.178.113c1.742.445 3.397.966 5.083 1.58.347-1.022.713-2.038 1.133-3.034z" fill="#C51A1B"/>
    <path d="M27.34 27.712c-1.623 1.357-3.12 2.696-4.63 4.173.055-.03.188-.105.24-.136 1.484-1.442 2.797-2.61 4.39-3.937v-.1z" fill="#C8411B"/>
    <path d="M30.224 26.922v.066-.066zM30.165 26.955l-.056.034c-.343.198-.683.402-1.02.608l.014.065c.372-.227.744-.443 1.12-.662v-.08c-.02.013-.04.024-.06.035z" fill="#C00D0D"/>
    <path d="M29.11 26.298l-.104.01c-.308.032-.616.063-.923.098-1.038-.774-2.102-1.513-3.203-2.2v.08c1.1.687 2.165 1.426 3.203 2.2.342-.038.684-.073 1.027-.107.334.18.648.353.98.542h.133c-.363-.21-.746-.423-1.113-.624zM24.094 30.983c1.685-.937 3.4-1.823 5.144-2.648v-.094c-1.745.826-3.46 1.712-5.144 2.648v.095z" fill="#C8411B"/>
    <path d="M31.368 27.592c-.398 1.694-.785 3.452-1.144 5.155v.067c.363-1.722.738-3.43 1.14-5.142 1.163.707 2.853 1.794 4.993 3.315v-.1c-1.624-1.155-3.284-2.258-4.99-3.295zM33.177 27.726l-.074-.063v.107c1.59 1.327 2.86 2.516 4.34 3.96l.25.14c-1.556-1.524-2.947-2.83-4.516-4.144z" fill="#A81815"/>
    <path d="M27.35 26.32c-2.36.298-4.654.685-6.976 1.18.114 0 .25.007.368.006 2.232-.467 4.417-.83 6.68-1.116v-.08l-.073.01zM29.09 27.598c-2.196-.187-4.38-.294-6.58-.277v.067c2.17-.015 4.325.09 6.49.27l.09-.06" fill="#C8411B"/>
    <path d="M33.02 26.295c2.384.3 4.614.688 6.963 1.19-.117-.004-.276-.007-.392-.01-2.234-.465-4.304-.815-6.57-1.1v-.08zM30.224 26.922c2.783.005 5.563.14 8.332.414v.073c-2.73-.27-5.462-.406-8.206-.416-.02-.012-.05-.028-.068-.04l-.058-.032h.115M31.328 26.292c.034.004.065.01.1.013 1.347-.735 2.722-1.42 4.132-2.032v-.067c-1.447.628-2.852 1.33-4.232 2.086" fill="#A81815"/>
    <path d="M31.328 26.292l-.17-.557v.066l.153.502.018-.01" fill="#C00D0D"/>
    <path d="M30.5 37.854c-.082.06-.195.12-.276.18-.083-.06-.197-.12-.28-.18 0-.746-.002-1.492 0-2.237.08-.055.2-.11.28-.165.08.055.19.11.27.165.003.745.004 1.49.005 2.237zM17.018 32.44l-.132.254c.083.032.243.082.314.11.794-.417 1.58-.834 2.36-1.236.03-.118.047-.183.08-.272-.08-.02-.16-.04-.24-.062-.797.39-1.59.792-2.382 1.207zM16.434 27.85l-.218.172c.04.052.085.114.12.163.743-.104 1.485-.194 2.228-.268l.218-.206-.13-.13c-.74.075-1.48.165-2.218.27zM19.283 24.145l-.226.096c.008.045.016.125.023.17.546.075 1.092.166 1.636.27.07-.04.165-.095.23-.13-.01-.047-.02-.094-.028-.14-.544-.102-1.09-.19-1.635-.265zM35.983 21.863l.207.002c.03.027.056.055.084.082-.286.178-.568.364-.844.556l-.22.003-.08-.09c.28-.19.564-.376.853-.553zM30.028 21.086c.052-.015.104-.03.156-.047l.16.046c0 .22.003.44.005.66l-.166.054c-.054-.02-.108-.036-.162-.055 0-.22.003-.44.006-.66zM24.05 21.96c.026-.027.086-.074.112-.1.07 0 .14-.003.21-.004.29.177.572.36.852.552l-.083.09c-.07 0-.176.02-.248.02-.277-.193-.557-.38-.843-.558zM22.308 36.488c-.112.026-.255.025-.367.053-.024-.078-.08-.156-.104-.235.555-.652 1.115-1.3 1.685-1.943.11-.024.254-.047.364-.07.026.067.077.18.107.244-.567.646-1.127 1.296-1.682 1.952zM43.243 32.44l.133.254c-.083.032-.243.082-.315.11-.793-.417-1.577-.834-2.36-1.236-.028-.118-.046-.183-.08-.272.08-.02.16-.04.24-.062.8.39 1.592.792 2.383 1.207zM43.828 27.85l.216.172c-.04.052-.084.114-.12.163-.742-.104-1.484-.194-2.227-.268-.07-.066-.153-.145-.22-.206.046-.043.09-.087.132-.13.74.075 1.478.165 2.218.27zM40.98 24.145l.224.096c-.007.045-.015.125-.023.17-.545.075-1.09.166-1.635.27-.07-.04-.164-.095-.23-.13l.03-.14c.542-.102 1.088-.19 1.634-.265zM37.953 36.488c.09.013.255.035.368.053.037-.076.072-.154.105-.235-.554-.652-1.116-1.3-1.684-1.943-.11-.024-.253-.047-.363-.07-.026.067-.077.18-.107.244.57.646 1.128 1.296 1.683 1.952z" fill="#FFF"/>
    <path d="M17.01 32.574c-.02.04-.054.1-.074.14-.017-.008-.03-.012-.05-.02l.132-.253c.79-.414 1.585-.816 2.382-1.206l.24.062c-.017.048-.03.09-.043.134-.065-.02-.152-.032-.215-.05-.797.392-1.58.78-2.372 1.194zM16.46 27.952l-.19.14c-.023-.026-.026-.035-.053-.07l.217-.172c.74-.105 1.48-.196 2.217-.27.045.043.09.087.132.13l-.044.044-.077-.072c-.74.075-1.463.164-2.2.27zM19.072 24.354l-.015-.113c.075-.03.15-.063.226-.095.545.074 1.09.163 1.635.265.01.046.02.094.028.14-.012.007-1.117-.214-1.66-.287-.058.024-.154.066-.214.09z" fill="#CA581A"/>
    <path d="M36.19 21.98l.013.01.07-.043-.083-.082c-.068 0-.138 0-.207-.002-.29.177-.572.362-.852.553l.065.07c.26-.174.522-.345.788-.51l.207.004z" fill="#A81815"/>
    <path d="M30.028 21.2l.156-.046c.053.015.106.03.16.047v-.114c-.054-.015-.107-.03-.16-.047l-.156.046v.115z" fill="#B6110E"/>
    <path d="M24.38 21.956c.265.163.52.348.78.523l.064-.072c-.28-.19-.563-.375-.85-.552-.072 0-.14.003-.212.003-.026.026-.088.074-.115.1l.07.045.05-.047.212-.002z" fill="#C8411B"/>
    <path d="M23.863 34.386c.03.04.066.136.1.184.01-.01.02-.023.028-.033-.01-.03-.076-.178-.106-.245-.11.024-.253.047-.363.07-.57.643-1.13 1.29-1.684 1.944.01.028.034.063.043.09.355-.416 1.123-1.322 1.683-1.954.088-.02.208-.035.3-.056zM43.25 32.574c.022.04.055.1.075.14l.05-.02-.133-.253c-.79-.414-1.584-.816-2.38-1.206-.082.02-.16.042-.24.062l.042.134c.065-.02.152-.032.215-.05.796.392 1.58.78 2.37 1.194zM43.802 27.952l.19.14.052-.07-.216-.172c-.74-.105-1.48-.196-2.22-.27-.042.043-.085.087-.13.13.016.014.03.028.045.044l.077-.072c.74.075 1.464.164 2.202.27zM41.19 24.354c.004-.044.006-.064.014-.113-.075-.03-.15-.063-.225-.095-.547.074-1.093.163-1.637.265-.01.046-.02.094-.028.14.012.007 1.117-.214 1.66-.287l.214.09zM36.398 34.386c-.03.04-.066.136-.098.184l-.03-.033c.01-.03.077-.178.107-.245.11.024.253.047.364.07.57.643 1.13 1.29 1.685 1.944l-.037.09c-.357-.416-1.13-1.32-1.69-1.953-.088-.02-.208-.036-.3-.057zM30.446 35.697l.053 2.157-.005-2.237c-.08-.056-.19-.11-.27-.165-.082.055-.2.11-.28.165v2.237l.05-2.158c.067-.043.164-.087.23-.13.063.043.157.088.22.13z" fill="#A81815"/>
    <path d="M19.225 27.613c.988-4.35 7.107-5.64 10.945-5.64s9.958 1.292 10.946 5.64c1.23 5.413-6.967 7.428-10.945 7.428-3.977 0-12.176-2.015-10.945-7.427zm.4-.03c.93-4.203 6.85-5.45 10.545-5.45 3.696 0 9.616 1.248 10.545 5.45 1.15 5.197-6.72 7.12-10.544 7.12-3.822 0-11.695-1.923-10.545-7.12z" fill="#C8411B"/>
    <path d="M19.26 27.746c.988-4.348 6.852-5.664 10.945-5.664 4.08 0 9.957 1.316 10.947 5.665 1.23 5.412-6.968 7.427-10.946 7.427-3.978 0-12.177-2.016-10.947-7.428zm.4-.03c.93-4.203 6.85-5.45 10.545-5.45 3.695 0 9.616 1.248 10.546 5.45 1.152 5.198-6.72 7.12-10.544 7.12-3.823 0-11.696-1.923-10.546-7.12z" fill="#FFF"/>
    <path d="M43.273 28.643l-1.795-.268-.238-.054c-.302-.06-.876-.38-1.127-.762-.25-.382-.855-1.038-1.185-1.446-.458-.568-1.502-1.086-1.655-1.32-.152-.233-.404-.644-.474-.805-.07-.163-.234-.295-.505-.278-.27.015-.294.107-.525.12-.23.015-.556-.034-.556-.034-.14-.03-.24-.046-.336-.046-.144.235-.363.378-.896.378-.038 0-.068-.004-.093-.01.054.115.55.185.634.18.085-.005.554.125.66.144.216.04.175-.034.52.162.573.327 1.43 1.225 1.6 2.005.095.43.845 1.135.935 1.532-1.005-.074-2.338-.728-2.338-.728l-.167-.08s-.597-.296-1.51-.337c-1.726-.153-2.38-.38-2.553-.436-.356-.117-.306-.177-.596-.19-.055-.004-.108-.006-.157-.008-.034.065-.082.13-.15.195-.32.302-.54.527-.81.937-.072.11-.195.18-.342.217.33-.073.973-.243.973-.243.61-.08 1.537.187 1.537.187.342.07.907.285.907.285s2.458.74 3.06 1.172c.396.284 2.44 1.037 2.982 1.222.542.184 1.862.893 1.862.893.338.285 2.312 1.136 2.854 1.314.697-1.19.94-2.404.745-3.638l-1.264-.26z" fill="#4F2644" opacity=".45"/>
    <path d="M42.368 26.628c-.175-.002-.374.044-.374.044l-.488.285c-.06.1.16.23.16.23s.618.04.616.198c.455.238 1.423.266 1.918.29-.065-.164-.138-.33-.22-.492-.077-.156-.163-.31-.255-.463-.03-.01-.402-.112-1.357-.092zM38.718 32.562s-.117-.148-.744-.15c-.398 0 .173.926.173.926.358.236 1.65.6 1.92.634.27.035 1.17.3 1.17.3s.47.06.95.205c.077-.07.152-.14.225-.21.278-.268.53-.542.753-.82-1.09-.022-2.636-.04-3.81-.644-.12-.345-.637-.24-.637-.24z" fill="#4F2644" opacity=".45"/>
    <path d="M35.408 15.69s-.363-.325-.368-.344c-.027-.114.102-.266.133-.457-.038-.014-.075-.032-.11-.047-.09-.33-.16-.923 0-1.24.078-.156.17-.36.118-.54-.3-1.01-.89-1.89-1.308-2.847-.113-.26-.094-.447-.11-.713-.324-.35-.697-1.268-.877-1.835-.377.937-.627 2.015-.627 2.264 0 1.055 1.086 1.566.71 3.32-.073.338-.202.806-.33 1.29.224 1.222.224 2.11.557 3.525.464.453.852 1.034 1.058 1.77.128.456.52 1.528 1.018 1.69.31.1-1.048.344-1.434-.13-.37-.458-1.01-.823-1.312-1.31-.24-.387-.617-1.213-.854-1.604l-.29 1.502c.395 1.605.16 1.96-.192 3.26-.152.564-1.304-2.068-1.306-2.273 0-.572-.037-.783-.173-1.286-.242-.465-.216-1.123-.184-1.623.056-.836.05-2.413.086-2.828-.29-.704-1.036-1.976-1.11-2.692-.116-1.115.075-2.244-.083-3.356-.195.557-.4 1.264-.84 1.69-.66.64-1.266 1.348-1.854 2.05-.214.287-.024.428-.356.89-.326.454-.152.25-.22.682-.012.075-.05.133-.075.16-.175.144-.36.267-.61.164-.485-.24-.52-.594-.553-1.05-.064-.87.59-.912.96-1.44.726-1.033 1.094-2.768 1.87-3.548.05-.155.232-.712.58-1.54.01-1.03.27-1.946 1.343-2.37.44-.17 1.017-.216 1.038-.815.003-.072-.012-.255-.06-.32-.176-.142-.3-.145-.386-.245-.173-.22-.318-1.636-.298-1.727.252-1.2.834-1.6 1.573-1.565.873.043 1.565.456 1.528 1.612-.03.93-1.004 2.124.454 2.577.557.172.663.053 1.142.527.537.53.667 1.475.757 2.35l.547 1.253c1.004 1.665.64 2.19 1.01 3.886.096.438.26.825.295 1.784.017.458-.35 1.478-.857 1.495z" fill="#FAB650"/>
    <path d="M24.944 14.433c.046-.444-.02-.407.268-.818.266-.382.138-.576.374-.904.58-.712 1.126-1.43 1.776-2.083.434-.436 1.025-1.9 1.164-2.414.027-.076.07-.113.087-.048.09.98.23 1.8.196 2.765-.075 2.026-.02 1.813.835 3.705.07-.76.258-1.865.71-2.238-.527 1.97-.56 4.782-.615 5.647-.028.44-.15 1.134.065 1.54.072.274.077.687.083 1l.014 3.46-.308 1.516c-.11.44-.684 1.175-1.107 1.404-.135.073-.45.24-.45.388 0 .24 1.567.687 1.924.142.27-.41.49-.635.81-.937.494-.466-.053-.945.012-1.576.113-1.098.593-2.052.75-3.09.095-.624.08-1.175-.21-1.888l.208-1.983c.23.34.448.884.67 1.337.39.803.396.88 1.073 1.54.228.222.463.485.635.753.318.5.537.993.51 1.587-.236.42-.337.393-.638.646.01.015-.083.246.203.246 1.02 0 .893-.526 1.28-1.207.248-.44.963-1.108.18-1.34-.248-.073-.48-.218-.622-.453-.543-.896-.564-.872-.847-1.697-.17-.5-.518-.902-.93-1.23-.252-.562-.35-.96-.432-1.56-.11-.81-.184-1.39-.323-2.217.398-1.554.602-1.883-.075-3.38-.155-.343-.243-.708-.243-1.114 0-.497.277-1.614.546-2.192.094-.236.226-.456.412-.527.164.603.73 1.843 1.058 2.146.02.243.01.49.108.72.413.977 1.008 1.866 1.304 2.897.102.354-.033.525-.136.81-.03.14-.04.536.022.83l.14.077c-.023.09-.086.34-.136.454.018.14.193.22.193.22.228-.05.552-.86.54-1.184-.034-.992-.246-1.436-.305-1.732-.336-1.682-.142-2.144-1.097-3.77l-.544-1.324c-.067-.678-.34-2.224-1.222-2.503-.148-.046-.297-.055-.52-.126-1.153-.37-1.15-1.24-.835-2.195.28-.847.316-1.847-.95-1.953-.784-.064-1.02.544-1.188 1.244.004.077.043 1.214.214 1.458.335.246.523.174.5.79-.017.515-.35.82-.802.976-.737.256-1.113.405-1.36 1.153-.08.236-.146.573-.148 1.077v.034c-.21.514-.476 1.104-.637 1.656-.907.895-1.356 2.934-2.275 3.795-.61.572-.794.608-.57 1.49.023.09.315.32.377.35.044.018.286-.122.284-.172z" fill="url(#c)"/>
  </g>
</svg>
