<svg width="60" height="40" viewBox="0 0 60 40" xmlns="http://www.w3.org/2000/svg"><title>regio</title><desc>Created with Sketch.</desc><g fill="#CB0F13"><path d="M47.422 12.492c0 2.703-.848 3.815-2.231 3.815-1.351 0-2.199-1.113-2.199-3.815 0-2.639.848-3.815 2.199-3.815 1.383.032 2.231 1.176 2.231 3.815m2.074 0c0-3.402-1.634-5.532-4.273-5.532s-4.273 2.098-4.273 5.532 1.634 5.501 4.273 5.501c2.671 0 4.273-2.098 4.273-5.501m-9.552 4.896v-9.793c0-.254-.251-.477-.471-.477h-.974c-.251 0-.503.223-.503.477v9.793c0 .254.251.477.503.477h.974c.251.032.471-.191.471-.477m.377-14.022c0-.763-.597-1.367-1.351-1.367s-1.351.636-1.351 1.367c0 .763.597 1.399 1.351 1.399s1.351-.636 1.351-1.399m-6.033 7.504c0 2.003-.943 2.416-1.948 2.416-1.068 0-1.948-.35-1.948-2.416 0-1.971.88-2.321 1.948-2.321 1.068-.032 1.948.35 1.948 2.321m2.796 8.012c0-1.844-1.288-2.893-3.268-2.893h-1.822c-.786 0-1.131-.127-1.131-.604 0-.254.189-.477.408-.699.314.095.691.127 1.068.127 2.451 0 3.99-1.494 3.99-3.943 0-.763-.314-1.494-.786-2.13l.723-.095c.251-.032.44-.191.44-.477v-.572c0-.286-.189-.509-.471-.509h-2.514l-1.351-.095c-2.357 0-3.959 1.399-3.959 3.879 0 1.463.628 2.575 1.571 3.211-.534.477-.974 1.081-.974 1.844 0 1.304 1.131 1.749 2.419 1.749h2.137c1.194 0 1.634.477 1.634 1.399 0 .986-1.068 1.59-2.388 1.59-1.037 0-2.168-.191-2.357-1.367-.031-.286-.22-.445-.471-.477l-1.1-.032c-.251 0-.471.191-.471.477.031 2.416 2.231 3.116 4.367 3.116 1.948.032 4.305-.922 4.305-3.497m-11.563-7.408h-3.928c.22-2.321 1.194-2.862 2.011-2.862 1.383 0 1.854 1.431 1.917 2.862m2.042 1.049c0-4.102-1.76-5.532-3.99-5.532-2.419 0-4.053 2.098-4.053 5.469 0 3.656 1.697 5.532 4.713 5.532 1.288 0 2.011-.191 2.734-.509.251-.095.377-.318.283-.604l-.251-.699c-.094-.254-.251-.413-.597-.318-.628.191-1.225.382-2.074.382-1.98 0-2.639-1.145-2.734-3.211h5.467c.283-.032.503-.254.503-.509m-10.903-5.596c0 1.526-1.005 2.48-2.639 2.48h-1.98v-4.642h2.231c1.571 0 2.388.954 2.388 2.162m3.016 10.365c-.754-2.162-1.508-4.102-1.791-4.642-.471-1.049-1.32-2.098-2.514-2.321l.189-.032c2.231-.318 3.205-1.971 3.205-3.656 0-1.431-.786-3.72-4.43-3.72h-3.833c-.251 0-.503.223-.503.477v13.99c0 .254.251.477.503.477h1.068c.251 0 .471-.223.471-.477v-6.232h1.037c1.508 0 2.168.922 2.671 1.876.628 1.145 1.037 2.766 1.602 4.483.094.286.283.35.534.35h1.445c.408.032.471-.223.346-.572"/><path d="M45.568 37.865l-3.613-5.564 2.954-4.07c.189-.254.063-.541-.251-.541h-1.414c-.314 0-.503.159-.628.382l-2.671 4.102v-9.03c0-.286-.22-.477-.471-.477h-1.005c-.251 0-.471.191-.471.477v14.816c0 .254.22.477.471.477h1.005c.251 0 .471-.223.471-.477v-5.31l3.173 5.373c.157.254.346.413.597.413h1.571c.314 0 .44-.318.283-.572zm-8.829.095v-7.631c0-1.653-1.068-2.766-2.702-2.766-1.163 0-2.074.445-3.016 1.526l-.22-.986c-.063-.286-.22-.413-.534-.413h-.66c-.251 0-.503.191-.503.477v9.793c0 .254.251.477.503.477h1.005c.251 0 .471-.223.471-.477v-6.041c0-1.494 1.037-2.639 2.388-2.639.911 0 1.257.477 1.257 1.494v7.186c0 .254.251.477.503.477h1.005c.283 0 .503-.223.503-.477zm-10.872-3.084c0 .827-.911 2.035-2.294 2.035-.817 0-1.383-.477-1.383-1.558 0-1.653.974-2.067 2.294-2.098l1.383-.032v1.653zm2.231 3.084l-.126-.636c-.126-.668-.094-1.272-.094-1.812v-3.879c0-1.812-.283-4.07-3.77-4.07-.943 0-2.011.254-2.671.413-.251.064-.377.286-.314.572l.189.827c.063.286.283.445.566.35.597-.159 1.257-.382 2.105-.382 1.571 0 1.917.604 1.917 1.876v.541l-2.451.159c-1.791.127-3.299 1.081-3.299 3.434 0 2.003 1.068 3.179 2.828 3.179 1.194 0 2.357-.445 3.048-1.526l.157.986c.031.318.251.445.503.445h1.005c.283 0 .44-.191.408-.477zm-10.84-3.943c0 1.622-.911 2.607-2.419 2.607h-2.765v-5.214h2.357c1.791 0 2.828 1.113 2.828 2.607zm-.534-6.55c0 1.367-.848 2.257-2.482 2.257h-2.168v-4.483h2.325c1.571 0 2.325.827 2.325 2.226zm2.734 6.772c0-1.939-1.068-3.497-3.173-3.752 1.791-.541 2.514-1.653 2.514-3.307 0-2.194-1.477-3.72-4.022-3.72h-4.273c-.251 0-.503.223-.503.477v13.99c0 .254.251.477.503.477h4.493c2.796.032 4.462-1.494 4.462-4.165z"/></g></svg>