<svg width="60" height="40" viewBox="0 0 60 40" xmlns="http://www.w3.org/2000/svg"><title>triodos</title><desc>Created with Sketch.</desc><path d="M49.89 20.806c.067-5.634-2.35-11.108-5.571-14.359-2.025-2.038-3.881-3.291-6.598-4.548l-.294.591c1.293.756 2.361 1.595 3.665 2.779 3.524 3.5 5.845 9.437 5.866 14.364-.02.691-.02 1.663-.146 2.487-.708-2.077-1.918-3.838-3.519-5.418-.44-.508-1.089-1.159-1.612-1.467-.035 1.098-.499 3.511-1.026 4.838.666.621 1.037 1.039 1.759 1.608 1.415 1.567 2.389 3.513 2.347 5.128.043.939-.374 1.913-1.174 2.641-.688.758-2.219 1.312-3.811 1.319-1.749-.007-4.444-.981-5.866-2.055 2.861-2.822 4.58-5.93 5.719-9.816.39-1.683.623-3.354.586-4.982.037-3.06-.705-5.936-2.053-8.203-2.043-3.624-5.198-5.668-9.384-5.714-4.869.046-9.468 2.46-12.902 6.004-3.946 3.925-5.897 8.798-5.866 13.773-.031.918.013 1.756.146 2.785h.588c.024-1.541.209-2.935.586-4.688.83-3.071 2.966-6.503 5.718-9.229 1.892-1.914 4.029-3.308 6.012-4.102-1.428 1.674-2.402 3.579-3.079 5.71-.111.652-.296 1.582-.294 2.197.926-.525 3.247-1.358 4.691-1.608.368-2.116 1.156-4.487 2.787-6.01.738-.841 1.664-1.351 2.787-1.316 1.805-.035 3.197 1.262 4.103 2.779.856 1.501 1.415 4.236 1.174 6.154-1.942-.615-3.798-.894-5.719-.878-1.794-.017-3.65.262-5.718.878-3.179.82-6.15 2.493-8.356 4.694-2.206 2.205-3.97 5.361-3.959 8.641-.011 3.356 1.707 6.185 3.959 8.502 3.83 3.81 9.262 5.76 14.662 5.712 4.259.048 8.112-1.44 11.583-3.953l-.294-.444c-2.761 1.471-5.682 2.214-8.942 2.197-4.542.017-9.42-1.375-12.757-3.953.926.118 1.808.213 2.639.142 1.627.07 4.462-.347 5.866-1.168-.847-.571-2.705-2.195-3.665-3.371-1.407.573-3.125.989-4.693 1.024-1.402-.035-2.985-.36-3.957-1.467-.649-.654-1.024-1.537-1.026-2.485.002-1.929 1.071-3.552 2.345-4.84.956-1.031 2.21-1.914 3.227-2.345 1.026 3.912 2.838 7.065 5.718 9.964 3.48 3.413 8.079 5.363 12.169 5.426 3.012-.017 5.614-.9 7.77-3.081 2.347-2.365 3.88-6.542 3.813-10.84zm-15.248-3.227c-.986 3.025-2.792 5.76-4.985 7.913-2.127-2.293-3.567-5.263-4.251-8.207 1.196-.303 2.496-.442 3.811-.44 1.84-.002 3.652.277 5.425.734z" fill="#00937B"/></svg>