<svg id="Capa_1" data-name="Capa 1" xmlns="http://www.w3.org/2000/svg" viewBox="0 0 60 40"><defs><style>.cls-1{fill:#2f9037;}.cls-2{fill:#fff;}</style></defs><path class="cls-1" d="M38.97866,1.55V38.54c0,1.45-1.75988,1.46-1.75988,1.46H22.75988C21,40,21,38.55,21,38.55V1.45C21,0,22.75988,0,22.75988,0h14.5289C39.04866,0,39.04866,1.55,38.97866,1.55Z"/><polygon class="cls-2" points="26.079 6.608 25.56 6.608 25.56 3.919 24.942 4.129 24.842 3.719 25.67 3.409 26.079 3.409 26.079 6.608"/><polygon class="cls-2" points="29.272 3.819 27.935 6.608 27.316 6.608 28.763 3.919 27.216 3.919 27.216 3.409 29.272 3.409 29.272 3.819"/><path class="cls-2" d="M31.02761,6.70834a1.70248,1.70248,0,0,1-1.23715-.51989l.40909-.40987a.93.93,0,0,0,.82806.41988.49279.49279,0,0,0,.51882-.51989c0-.30992-.30928-.51989-.71832-.51989h-.30928L30.419,4.84876l.82811-.92976H29.91018V3.40912h2.06526v.40993l-.92786.92976c.70839.11,1.11743.30992,1.11743.92976A1.0033,1.0033,0,0,1,31.02761,6.70834Z"/><polygon class="cls-2" points="35.158 3.819 33.711 6.608 33.093 6.608 34.54 3.919 32.993 3.919 32.993 3.409 35.158 3.409 35.158 3.819"/><path class="cls-2" d="M35.44,26.94a6.27411,6.27411,0,0,1-1.57,3.21,12.916,12.916,0,0,1-2.28,1.97,3.8989,3.8989,0,0,0-.62006.47.63348.63348,0,0,0-.11.46V40H29.14V33.05a.63348.63348,0,0,0-.11-.46,3.8989,3.8989,0,0,0-.62006-.47,12.916,12.916,0,0,1-2.28-1.97,6.27411,6.27411,0,0,1-1.57-3.21,4.56306,4.56306,0,0,1,.21-2.39,1.76065,1.76065,0,0,1,.53-.72.78079.78079,0,0,0,.1-.84,5.35217,5.35217,0,0,1-.53-1.34,2.94559,2.94559,0,0,1-.1-1.35,2.29029,2.29029,0,0,1,.53-1.13c.21-.31.52-.31.73-.72a7.12175,7.12175,0,0,1-.42-2.28,3.67278,3.67278,0,0,1,.1-1.04c.22-.62.63-.72.94-.93.22-.1.31995-.1.53-.21s.21-.1.21-.52c0-1.66.2-3.11,1.03-3.94995a2.66036,2.66036,0,0,1,3.16,0c.83.84,1.03,2.29,1.03,3.94995,0,.42,0,.41.21.52s.31.11.53.21c.31.21.72.31.94.93a3.67278,3.67278,0,0,1,.1,1.04,7.12175,7.12175,0,0,1-.42,2.28c.21.41.52.41.73.72a2.29029,2.29029,0,0,1,.53,1.13,2.94559,2.94559,0,0,1-.1,1.35,5.35217,5.35217,0,0,1-.53,1.34.78079.78079,0,0,0,.1.84,1.76065,1.76065,0,0,1,.53.72A4.56306,4.56306,0,0,1,35.44,26.94Z"/></svg>