<svg width="60" height="40" viewBox="0 0 60 40" xmlns="http://www.w3.org/2000/svg"><title>asn</title><desc>Created with Sketch.</desc><g fill="#EA5540"><path d="M20.439 23.455c.252-1.193.665-2.347 1.228-3.429.337-.631.589-1.303.748-2 .071-.304.111-.615.119-.927-.042-2.482-1.81-4.598-4.248-5.084-2.437-.486-4.884.791-5.877 3.066-1.111-4.347.352-8.946 3.772-11.856 3.419-2.91 8.199-3.624 12.321-1.839 4.122 1.784 6.869 5.755 7.08 10.236.128 2.659-.814 5.103-2.249 7.31-1.875 2.884-4.002 5.582-4.002 9.187.001 5.09 3.289 9.6 8.14 11.165-4.577 1.313-9.509.134-12.995-3.105-3.487-3.239-5.018-8.066-4.036-12.719" id="Shape"/><ellipse cx="39.918" cy="17.459" rx="1.149" ry="1.147"/><path d="M44.435 31.015c-.099-1.955 1.012-3.771 2.8-4.576v-.048c-3.135-.615-6.329.739-8.062 3.419-1.733 2.68-1.656 6.144.195 8.744 2.411-1.121 4.441-2.921 5.842-5.178-.464-.704-.732-1.519-.775-2.36zM46.073 12.563c.76-1.954.585-4.147-.475-5.956-.217 1.566-.846 3.046-1.822 4.29l-.066.105c-.414-.215-.858-.44-1.321-.651-.331-.168-.65-.359-.955-.571-1.219-.704-2.107-1.863-2.47-3.222-1.004 3.327.209 6.924 3.024 8.967 2.133 1.616 3.729 3.838 4.578 6.374.725-.974 1.204-2.108 1.395-3.305.064-.397.096-.798.097-1.2 0-2.119-.581-3.582-1.985-4.831z"/></g></svg>