<svg width="70" height="40" viewBox="0 0 70 40" xmlns="http://www.w3.org/2000/svg"><title>banktransfer-nl</title><desc>Created with Sketch.</desc><path d="M12.83 8.175c-3.032 0-4.937 2.124-4.937 5.537 0 3.406 1.868 5.544 4.937 5.544 3.062 0 4.922-2.146 4.922-5.544 0-3.406-1.875-5.537-4.922-5.537zm0 1.531c2.007 0 3.245 1.553 3.245 4.006 0 2.439-1.238 4.014-3.245 4.014-2.029 0-3.259-1.575-3.259-4.014 0-2.454 1.267-4.006 3.259-4.006zm13.349 1.318h-1.67l-1.978 6.292h-.125l-1.985-6.292h-1.685l2.878 7.976h1.692l2.871-7.976zm4.201 1.187c1.165 0 1.926.813 1.963 2.065h-4.028c.088-1.245.901-2.065 2.065-2.065zm1.956 4.636c-.293.623-.945.967-1.897.967-1.26 0-2.073-.886-2.124-2.285v-.088h5.632v-.549c0-2.505-1.34-4.021-3.56-4.021-2.249 0-3.677 1.619-3.677 4.167 0 2.549 1.399 4.116 3.684 4.116 1.824 0 3.098-.879 3.457-2.307h-1.516zm3.139 2.153h1.575v-4.709c0-1.121.842-1.875 2.036-1.875.278 0 .747.051.879.095v-1.553c-.168-.044-.469-.066-.703-.066-1.04 0-1.926.571-2.153 1.355h-.117v-1.223h-1.516v7.976zm-23.048 13c2.366 0 4.058-1.399 4.058-3.347 0-1.091-.703-1.882-1.853-2.087l.029-.125c1.384-.256 2.322-1.348 2.322-2.703 0-1.392-1.187-2.307-2.996-2.307h-3.896l-2.249 10.569h4.585zm-.959-9.192h1.919c1.274 0 1.919.432 1.919 1.296 0 1.055-1.018 1.787-2.483 1.787h-2.029l.674-3.083zm-1.685 7.778l.74-3.406h2.256c1.318 0 2.007.513 2.007 1.487 0 1.106-1.077 1.919-2.52 1.919h-2.483zm9.65-1.926c0-1.985 1.047-3.391 2.549-3.391 1.128 0 1.802.828 1.802 2.197 0 1.802-1.121 3.281-2.49 3.281-1.128 0-1.86-.82-1.86-2.087zm1.707 3.494c2.483 0 4.307-2.08 4.307-4.907 0-2.021-1.348-3.376-3.347-3.376-2.512 0-4.321 2.058-4.321 4.9 0 2.021 1.362 3.384 3.362 3.384zm8.728 0c1.897 0 3.201-.967 3.545-2.3h-1.597c-.3.564-.886.923-1.846.923-.938 0-1.875-.601-1.875-2.065l.007-.322h5.676c.051-.337.103-.923.103-1.245-.007-2.058-1.414-3.274-3.149-3.274-2.468 0-4.204 1.978-4.204 4.907 0 2.153 1.458 3.376 3.34 3.376zm-1.575-4.922c.337-1.208 1.201-2.021 2.336-2.021 1.099 0 1.692.776 1.692 1.707l-.022.315h-4.006zm9.035-.066h-.125l1.333-6.255h-1.582l-2.358 11.089h1.589l.623-2.9.901-.688 2.051 3.589h1.787l-2.563-4.519 4.043-3.457h-1.963l-3.735 3.142zm5.212 4.834h1.575l1.692-7.976h-1.575l-1.692 7.976zm2.996-9.375c.586 0 1.011-.432 1.011-.974 0-.535-.425-.952-1.011-.952-.586 0-1.018.432-1.018.974 0 .535.432.952 1.018.952zm.554 9.375h1.589l1.025-4.79c.242-1.091 1.025-1.897 2.146-1.897.974 0 1.516.593 1.516 1.45 0 .212-.029.439-.088.703l-.967 4.534h1.589l1.018-4.812c.066-.33.103-.645.103-.93 0-1.289-.908-2.366-2.424-2.366-1.165 0-1.919.601-2.424 1.355h-.117l.256-1.223h-1.531l-1.692 7.976zm11.752 3.04c2.131 0 3.538-1.033 3.889-2.681l1.794-8.335h-1.531l-.308 1.436h-.125c-.308-.923-1.318-1.567-2.432-1.567-2.234 0-3.955 2.043-3.955 4.863 0 1.853 1.238 3.113 2.849 3.113 1.003 0 1.824-.388 2.38-1.172l.125.007-.337 1.443c-.227.959-.93 1.604-2.241 1.604-1.099 0-1.758-.469-1.853-1.047h-1.619c.059 1.289 1.399 2.336 3.362 2.336zm.762-4.49c-1.099 0-1.794-.762-1.794-2.021 0-1.926 1.069-3.208 2.534-3.208 1.135 0 1.86.769 1.86 1.978 0 1.904-1.128 3.252-2.6 3.252z" fill="#18799F"/></svg>