<svg width="70" height="40" viewBox="0 0 70 40" xmlns="http://www.w3.org/2000/svg"><title>banktransfer-de</title><desc>Created with Sketch.</desc><path d="M9.072 7.45c.549 0 .974-.425.974-.981 0-.557-.425-.989-.974-.989-.557 0-.981.432-.981.989 0 .557.425.981.981.981zm3.127 0c.549 0 .974-.425.974-.981 0-.557-.425-.989-.974-.989-.549 0-.981.432-.981.989 0 .557.432.981.981.981zm-4.204.981h-1.641v6.929c0 2.292 1.626 3.896 4.277 3.896 2.651 0 4.285-1.604 4.285-3.896v-6.929h-1.641v6.782c0 1.479-.959 2.505-2.644 2.505-1.677 0-2.637-1.025-2.637-2.505v-6.782zm13.283 10.701c2.014 0 3.296-1.597 3.296-4.124 0-2.534-1.274-4.116-3.296-4.116-1.091 0-2.029.527-2.454 1.399h-.125v-4.38h-1.575v11.089h1.516v-1.26h.117c.476.879 1.406 1.392 2.52 1.392zm-.454-6.826c1.333 0 2.131 1.025 2.131 2.703 0 1.692-.798 2.71-2.131 2.71-1.326 0-2.146-1.033-2.153-2.703.007-1.67.835-2.71 2.153-2.71zm8.552-.095c1.165 0 1.926.813 1.963 2.065h-4.028c.088-1.245.901-2.065 2.065-2.065zm1.956 4.636c-.293.623-.945.967-1.897.967-1.26 0-2.073-.886-2.124-2.285v-.088h5.632v-.549c0-2.505-1.34-4.021-3.56-4.021-2.249 0-3.677 1.619-3.677 4.167 0 2.549 1.399 4.116 3.684 4.116 1.824 0 3.098-.879 3.457-2.307h-1.516zm3.139 2.153h1.575v-4.709c0-1.121.842-1.875 2.036-1.875.278 0 .747.051.879.095v-1.553c-.168-.044-.469-.066-.703-.066-1.04 0-1.926.571-2.153 1.355h-.117v-1.223h-1.516v7.976zm-20.997 4.244h.095l.645 7.756h1.597l5.046-10.569h-1.692l-3.706 8.093h-.103l-.593-8.093h-1.406l-3.948 8.093h-.103l-.315-8.093h-1.567l.608 10.569h1.582l3.86-7.756zm9.965 7.91c1.897 0 3.201-.967 3.545-2.3h-1.597c-.3.564-.886.923-1.846.923-.938 0-1.875-.601-1.875-2.065l.007-.322h5.676c.051-.337.103-.923.103-1.245-.007-2.058-1.414-3.274-3.149-3.274-2.468 0-4.204 1.978-4.204 4.907 0 2.153 1.458 3.376 3.34 3.376zm-1.575-4.922c.337-1.208 1.201-2.021 2.336-2.021 1.099 0 1.692.776 1.692 1.707l-.022.315h-4.006zm6.325 4.768h1.575l1.692-7.976h-1.575l-1.692 7.976zm2.996-9.375c.586 0 1.011-.432 1.011-.974 0-.535-.425-.952-1.011-.952-.586 0-1.018.432-1.018.974 0 .535.432.952 1.018.952zm.583 7.17c.095 1.406 1.399 2.358 3.259 2.358 1.926 0 3.303-1.033 3.303-2.498 0-1.055-.557-1.699-1.882-2.131l-1.15-.396c-.681-.22-1.033-.52-1.033-.952 0-.593.645-1.025 1.531-1.025.857 0 1.472.381 1.611.981h1.509c-.176-1.355-1.326-2.263-3.105-2.263-1.794 0-3.098.989-3.098 2.468 0 1.055.615 1.699 1.86 2.117l1.223.41c.696.227.93.535.93.945 0 .63-.674 1.069-1.663 1.069-.923 0-1.553-.454-1.721-1.084h-1.575zm16.008-5.771h-1.582l-1.011 4.731c-.249 1.15-1.069 1.956-2.227 1.956-.974 0-1.443-.454-1.443-1.384 0-.176.044-.527.095-.776l.959-4.526h-1.597l-.996 4.783c-.066.337-.11.784-.11 1.025 0 1.362.952 2.322 2.395 2.322 1.172 0 1.978-.535 2.432-1.289h.125l-.249 1.135h1.523l1.685-7.976zm.188 7.976h1.589l1.025-4.79c.242-1.091 1.025-1.897 2.146-1.897.974 0 1.516.593 1.516 1.45 0 .212-.029.439-.088.703l-.967 4.534h1.589l1.018-4.812c.066-.33.103-.645.103-.93 0-1.289-.908-2.366-2.424-2.366-1.165 0-1.919.601-2.424 1.355h-.117l.256-1.223h-1.531l-1.692 7.976zm11.752 3.04c2.131 0 3.538-1.033 3.889-2.681l1.794-8.335h-1.531l-.308 1.436h-.125c-.308-.923-1.318-1.567-2.432-1.567-2.234 0-3.955 2.043-3.955 4.863 0 1.853 1.238 3.113 2.849 3.113 1.003 0 1.824-.388 2.38-1.172l.125.007-.337 1.443c-.227.959-.93 1.604-2.241 1.604-1.099 0-1.758-.469-1.853-1.047h-1.619c.059 1.289 1.399 2.336 3.362 2.336zm.762-4.49c-1.099 0-1.794-.762-1.794-2.021 0-1.926 1.069-3.208 2.534-3.208 1.135 0 1.86.769 1.86 1.978 0 1.904-1.128 3.252-2.6 3.252z" fill="#18799F"/></svg>