<svg width="70" height="40" viewBox="0 0 70 40" xmlns="http://www.w3.org/2000/svg" xmlns:xlink="http://www.w3.org/1999/xlink"><title>biketotaal</title><desc>Created with Sketch.</desc><defs><path id="a" d="M.06.625h458.909v341.315h-458.909z"/></defs><g fill="none"><path d="M7.25 2h55.726v35.598h-55.726z"/><g><path d="M52.752 5.622h-21.211v.004l-5.689.004c-12.249 0-18.601 9.246-18.601 14.505 0 6.818 2.978 11.043 10.224 11.043h21.749v-.004l5.15-.004c12.249 0 18.602-9.245 18.602-14.504 0-7.52-3.613-11.043-10.224-11.043" id="Shape" fill="#E53439"/><path d="M10.856 19.009c-.526.426-1.66 3.18-1.438 4.021.079.298.294.365.383.38.558.094 1.271-.227 2.452-.76 1.203-.544 2.013-1.001 4.424-1.749-1.949 2.807-6.076 8.796-6.989 10.614-.676 1.347-1.711 3.801-1.043 5.1.226.44.618.708 1.162.796 2.197.355 5.326-2.952 6.003-4.387.075-.159.303-.641-.002-.908-.321-.28-.824-.014-1.461.323-.321.169-.916.484-1.073.43l.02.016c-.018-.03-.15-.335.605-2.005.487-1.078 4.855-8.706 6.203-11.051 1.854-.498 3.771-.877 5.561-1.241 3.878-.789 4.874-1.048 4.992-1.582.041-.188-.045-.367-.229-.481-1.052-.645-7.779.174-9.815.44-3.978.52-8.919 1.367-9.754 2.043" id="Shape" fill="#2E2D2E"/><path d="M30.111 16.98c0 .198-2.553.618-4.568 1.028-1.799.366-3.838.782-5.709 1.285l-.119.032-.061.107c-1.733 3.012-5.814 10.134-6.298 11.205-.704 1.558-.841 2.333-.475 2.674.393.367 1.05.02 1.746-.348.287-.151.677-.482.79-.4.244.176-.787 1.395-2.088 2.586-1.316 1.205-2.564 1.816-3.426 1.677-.352-.057-.59-.214-.727-.482-.395-.767-.004-2.473 1.045-4.564.921-1.835 5.936-9.097 7.452-11.28l.491-.708-.824.256c-2.447.758-4.115 1.511-5.332 2.06-1.04.469-1.794.831-2.018.726-.177-.4.789-2.999 1.243-3.366 1.392-1.127 18.879-3.445 18.879-2.49" id="Shape" fill="#fff"/><path d="M23.85 24.885c.03 1.467-1.787 3.97-2.903 3.998-.364.009-.624-.167-.777-.316-.212-.206-.307-.44-.307-.54 0-1.112.823-2.14 1.484-2.965.556-.694.957-1.195.846-1.664-.051-.216-.203-.383-.451-.497-.663-.305-1.405-.215-2.148.258-1.582 1.008-3.023 3.744-3.023 5.741 0 .314.114 3.065 4.053 3.065 3.927 0 5.934-3.824 6.055-6.408.081-1.739-.973-3.011-1.986-3.456-.666-.293-1.301-.232-1.698.164-.168.167-.388.424-.37.731.019.32.273.521.518.715.342.269.695.549.708 1.176M35.896 20.316c.012-.132-.046-.245-.137-.345-.246-.269-2.554.028-2.554.028.11-.244.162-.34.261-.429.738-.661 1.681-1.892 1.47-2.56-.071-.224-.259-.371-.517-.402-.593-.072-2.947.858-3.478 1.917l-.065.13-1.058 2.11c-1.117.284-1.638.557-1.917.893l-.078.093c-.607.722-1.15 1.47-1.017 2.057.038.166.151.385.457.533.322.157.855-.029.855-.029-1.573 3.3-2.223 4.881-2.341 5.62-.166 1.035.334 1.608.812 1.783 1.593.585 4.893-2.766 5.615-4.276.352-.736.14-1.059-.099-1.201-.628-.371-1.379.287-2.105.922-.292.256-.566.588-.715.538-.149-.049.624-1.76 2.427-4.965l.262-.104c2.61-1.041 3.863-1.652 3.923-2.313" id="Shape" fill="#2E2D2E"/><path d="M31.234 22.356c-.764 1.359-1.435 2.635-1.889 3.593-.856 1.806-.756 2.077-.701 2.223.041.11.121.193.228.231.43.158.912-.264 1.521-.797.431-.377 1.151-1.009 1.407-.857l-.011-.013c.07.171-.324 1.055-1.552 2.323-1.393 1.438-2.841 2.321-3.443 2.1-.279-.102-.538-.454-.429-1.133.075-.47.569-1.879 2.498-5.925l.334-.699-.718.299c-.42.175-.737.208-.97.103-.105-.048-.117-.1-.123-.124-.086-.381.651-1.257.893-1.546l.081-.096c.128-.155.536-.408 1.747-.731l.13-.034.06-.121 1.111-2.228.066-.13c.417-.831 2.749-1.711 2.897-1.646.286.124-.421 1.194-1.304 1.985-.193.173-.315.446-.457.762l-.174.371-.272.54.595-.116c1.789-.348 2.6-.453 2.58-.267-.025.222-2.553 1.246-3.588 1.659l-.369.147-.097.039-.051.091" id="Shape" fill="#fff"/><path d="M35.936 26.642c-.276-.013-.287-.124-.296-.214-.105-1.085 2.45-4.135 2.982-4.264 0 0 .194.075.217.11.082.123.189.25.509.33.47.117 1.007-.502 1.173-1.134.162-.618-.015-1.373-.997-1.64-1.288-.35-3.136 1.365-3.87 2.118-1.925 1.975-3.62 4.802-3.135 6.385.125.409.458.936 1.332 1.12 1.185.25 2.339-.614 3.103-1.187.238-.178.476-.535.631-.42.05.038-.21.52-.018.763.156.199.429.315.834.354 1.314.128 3.769-2.032 3.958-2.993.061-.311-.084-.567-.37-.651-.691-.204-1.373.7-1.45.637-.123-.101.424-1.332.925-2.265 1.076-2 1.708-3.261 1.43-3.902-.078-.18-.222-.303-.416-.354-.992-.264-1.729 1.149-2.663 2.939-1.01 1.935-2.267 4.343-3.877 4.269" id="Shape" fill="#2E2D2E"/><path d="M23.414 22.682c.217-.216.604-.231 1.037-.041.833.367 1.699 1.426 1.631 2.886-.06 1.284-.625 2.749-1.475 3.826-.726.92-2.007 2.016-3.985 2.016-3.36 0-3.457-2.219-3.457-2.472 0-1.794 1.335-4.341 2.747-5.241.571-.364 1.102-.438 1.578-.219l.121.095c.045.189-.385.726-.731 1.158-.719.898-1.614 2.015-1.614 3.335 0 .299.191.678.486.965.333.324.762.496 1.209.485 1.545-.038 3.518-2.928 3.483-4.603-.019-.906-.569-1.34-.933-1.628-.109-.086-.291-.23-.294-.284 0-.001-.002-.08.196-.278M42.322 20.008l.019.007c.279.268-.899 2.46-1.402 3.396-.902 1.679-1.404 2.652-1.211 3.134.053.134.158.234.294.279.457.152.767-.207 1.015-.496.782-.91 1.098-.482-.028.629-.897.885-2.003 1.47-2.552 1.417-.323-.032-.406-.108-.424-.131-.034-.043-.018-.159-.003-.261.025-.175.084-.587-.337-.71-.29-.085-.595.143-1.098.52-.678.508-1.701 1.274-2.621 1.081-.48-.101-.769-.334-.885-.712-.398-1.3 1.209-3.969 2.993-5.799 1.335-1.37 2.625-2.139 3.286-1.959.423.115.623.34.612.688-.014.464-.46 1.096-.644.856-.128-.167-.261-.291-.653-.366-.526-.101-1.533 1.063-2.087 1.765-.58.735-1.883 2.539-1.474 3.429.091.198.301.438.786.461 1.992.092 3.289-2.394 4.433-4.588.68-1.303 1.451-2.78 1.98-2.639" id="Shape" fill="#fff"/><path d="M56.686 16.797c-1.174 1.528-1.763 2.189-1.763 2.189l.061-.154c.013-.028.362-.853 1.424-2.667 1.803-3.079 2.3-3.181 2.402-3.097.133.11.035.922-2.123 3.729m-10.985 7.989c-.276-.013-.287-.124-.296-.214-.106-1.085 2.473-4.234 2.982-4.264.346-.021.346.437.726.44.484.004 1.007-.502 1.172-1.134.162-.617-.015-1.373-.997-1.639-1.288-.35-3.136 1.365-3.87 2.118-1.924 1.975-3.62 4.802-3.135 6.385.125.409.458.936 1.332 1.12 1.184.25 2.339-.615 3.102-1.187.238-.178.402-.487.489-.425.087.062-.068.526.123.769.157.199.43.315.835.354.904.088 2.258-.844 3.133-1.748.051-.053.178-.244.208-.093.18.891.728 1.342 1.632 1.342 1.998 0 4.188-2.665 4.375-3.924.096-.644-.314-.82-.442-.858-.829-.25-1.242.442-1.608 1.053-.385.643-.782 1.308-1.655 1.308-.177 0-.409-.029-.51-.17-.075-.104-.078-.261-.062-.388l.013-.116.129-.119c3.716-3.597 7.956-8.366 7.514-11.032-.118-.715-.547-1.251-1.274-1.593-.473-.222-.987-.201-1.528.064-2.951 1.445-5.967 9.719-6.479 12.049-.576.551-1.327 1.446-1.426 1.376-.125-.09.542-1.491 1.043-2.423 1.075-2 1.708-3.261 1.43-3.902-.078-.18-.222-.303-.417-.354-.992-.264-1.729 1.149-2.663 2.939-1.01 1.935-2.267 4.343-3.878 4.269" id="Shape" fill="#2E2D2E"/><path d="M58.961 12.453c-.456-.17-1.143.126-3.068 3.413-1.074 1.835-2.115 4.773-2.128 4.8 0 0-.115.338.099.115 0 0 .884-.799 1.235-1.189.586-.65 1.419-1.601 2.061-2.435 2.248-2.924 2.345-3.828 2.222-4.253-.062-.216-.208-.372-.421-.452m-6.874 5.699l.018.007c.279.269-.899 2.46-1.403 3.396-.902 1.679-1.403 2.652-1.211 3.135.054.134.158.233.295.278.457.152.766-.207 1.015-.496l.024-.028c.055-.057.814-.786 1.278-1.23l.065-.062.02-.088c.634-2.886 3.699-10.49 6.165-11.698.375-.184.706-.204 1.01-.06.547.258.855.635.941 1.153.317 1.915-2.352 5.708-7.517 10.68l-.05.048-.023.066c-.023.066-.22.657.098 1.105.198.28.534.422.997.422 1.211 0 1.763-.923 2.166-1.597.393-.656.574-.894.924-.788l.015.007c.016.016.061.185-.112.596-.506 1.202-2.226 3.018-3.663 3.018-.95 0-1.065-.656-1.098-1.27-.01-.182-.02-.37-.215-.448-.113-.045-.241-.02-.333.065l-.177.164-.447.422c-.794.821-2.002 1.632-2.646 1.569-.323-.031-.406-.108-.424-.13-.034-.044-.018-.16-.003-.261.025-.175.084-.586-.337-.71-.29-.085-.595.143-1.099.521-.678.507-1.701 1.274-2.621 1.08-.48-.101-.77-.334-.886-.712-.397-1.3 1.21-3.969 2.993-5.799 1.336-1.37 2.625-2.138 3.287-1.959.423.115.623.34.612.688-.015.464-.197.938-.487.938-.103 0-.133-.046-.158-.083-.116-.175-.261-.291-.653-.366-.526-.101-1.533 1.063-2.087 1.765-.58.735-1.882 2.54-1.474 3.429.091.198.301.439.786.461 1.992.092 3.289-2.394 4.434-4.588.68-1.303 1.451-2.78 1.98-2.639" id="Shape" fill="#fff"/><path d="M50.453 9.767c.503-.41 1.163-.649 1.838-.649.389 0 .698.113.847.31.065.087.118.22.12.336l-2.805.003zm5.628 1.729c.707-1.411.802-2.606.276-3.453-.535-.86-1.684-1.315-3.325-1.315-3.154 0-6.045 1.702-7.364 4.336-.796 1.59-.545 2.599-.193 3.165.577.93 1.827 1.42 3.615 1.42 1.936 0 4.576-.734 6.18-2.794l.373-.478h-3.803l-.083.07c-.527.446-1.051.645-1.7.645-.539 0-.905-.113-1.032-.316-.13-.209-.042-.542.082-.829v.003h6.747l.082-.164.145-.289zM24.621 6.194h.079c.309 0 1.131 0 1.274.23.049.079.017.243-.087.452-.418.835-1.243.947-2.077.947v.014l.811-1.644zm-2.217 4.446h.175l.286-.002c.586-.006 1.568-.015 1.754.282.086.137-.021.397-.093.539-.53 1.058-2.01 1.055-2.99 1.054h-.058l.927-1.874zm-.688 4.751c1.503 0 5.163-.328 6.683-3.362.503-1.004.596-1.812.277-2.401-.184-.34-.496-.593-.932-.758l.061-.013c.866-.482 1.523-1.184 1.995-2.127.505-1.009.578-1.817.215-2.401-.423-.681-1.384-1.012-2.937-1.012h-5.121l-.082.164-5.75 11.48-.215.429h5.807zM43.116 2.16h-3.3930000000000002l-.083.164-6.545 13.066h3.875l1.432-2.873 1.725 2.873h5.211l-2.849-4.405 6.082-3.445.973-.554h-5.594l-.07.042-3.873 2.292 3.376-6.732.215-.429zM35.377 6.986h-3.3930000000000002l-.082.164-3.912 7.811-.215.429h3.875l.082-.164 3.912-7.811.215-.429z" id="Shape" fill="#2E2D2E"/><path id="Shape" fill="#fff" d="M31.288 14.797h-2.548l3.623-7.218h2.531z"/><path d="M36.052 2.434c-1.094 0-2.369.77-2.843 1.717-.249.498-.256.984-.018 1.367.243.391.719.615 1.306.615 1.093 0 2.369-.77 2.843-1.717.25-.498.256-.984.018-1.367-.243-.391-.719-.616-1.306-.616" id="Shape" fill="#2E2D2E"/><path d="M36.807 4.151c-.377.753-1.435 1.389-2.311 1.389-.376 0-.667-.122-.799-.334-.125-.202-.109-.482.045-.79.377-.753 1.435-1.389 2.31-1.389.376 0 .667.122.799.335.125.201.11.482-.045.79" id="Shape" fill="#fff"/><path fill="#fff" d="M44.093 7.58h3.209l-5.64 3.21 2.579 4.008h-3.805l-2.081-3.502-1.758 3.502h-2.547l6.038-12.044h2.548l-4.069 8.119zM53.776 10.136c.115-.397.056-.775-.162-1.065-.267-.353-.737-.547-1.323-.547-1.085 0-2.143.519-2.762 1.353l-.35.473h4.535l.062-.215zm1.716 1.221h-6.76l-.083.164c-.327.653-.371 1.181-.131 1.567.246.397.764.598 1.538.598 1.035 0 1.99-.716 1.99-.716h2.342l-.04.036c-1.682 1.51-3.46 2.051-5.258 2.051-1.548 0-2.652-.405-3.108-1.14-.39-.628-.314-1.523.219-2.588 1.219-2.434 3.9-4.008 6.831-4.008 1.423 0 2.398.358 2.818 1.034.412.664.307 1.658-.302 2.877l-.056.125zM23.34 8.417h.388c.956 0 2.126-.145 2.693-1.276.207-.414.228-.76.061-1.029-.293-.472-1.04-.511-1.781-.511h-.431l-.082.164-1.113 2.223-.215.429h.482zm-2.349 4.689h.544c1.058.002 2.83.004 3.524-1.383.226-.451.247-.827.065-1.118-.363-.578-1.373-.569-2.265-.561l-.28.002h-.536l-.082.165-1.236 2.466-.214.429h.481zm1.331-9.196h4.757c1.311 0 2.129.246 2.43.731.247.398.166 1.011-.241 1.824-.538 1.074-1.347 1.793-2.473 2.198l-.112.041-.257.514.42.05c.68.08 1.12.297 1.307.642.219.403.12 1.045-.286 1.855-1.371 2.738-4.757 3.033-6.149 3.033h-4.854l5.46-10.887z"/></g><g transform="translate(61 -154)"><mask id="b"><use xlink:href="#a"/></mask><path d="M458.663 252.758l-40.343-234.736c-1.742-10.151-10.535-17.326-20.481-17.397h-.305c-1.118.008-2.266.1-3.41.293l-376.721 64.755c-10.202 1.749-17.393 10.593-17.403 20.585v.042c.001 1.174.098 2.364.306 3.553l40.343 234.758c1.75 10.187 10.628 17.397 20.62 17.389 1.189 0 2.371-.097 3.568-.299l376.728-64.748c10.209-1.75 17.404-10.628 17.404-20.627 0-1.182-.105-2.364-.306-3.568" fill="#225A99" mask="url(#b)"/></g></g></svg>