<svg width="70" height="40" viewBox="0 0 70 40" xmlns="http://www.w3.org/2000/svg"><title>bloemencadeau</title><desc>Created with Sketch.</desc><g transform="translate(4 3)" fill="none"><rect fill="#D70080" width="63" height="34" rx="3.8"/><path d="M8.655 17.326c-.003 1.195.085 2.467.066 3.677.439.152 1.011.068 1.417-.046.539-.352.47-1.294.338-2.503-.238-1.208-.947-1.216-1.821-1.128m-.01-5.705c-.061 1.462-.002 2.892.011 4.243.377-.02 1.222.05 1.415-.298.474-.853.415-2.236.179-3.318-.173-.737-1.032-.665-1.605-.627m1.962 10.934c-1.146.012-2.397.088-3.589.007-.003-3.427.017-7.545.044-10.956l-1.508-.031c-.051-.534-.04-1.037.015-1.572.498-.005 1.025-.011 1.568-.001 1.448 0 3.707-.306 4.306.819.768 1.422.533 3.657.271 4.555-.16.583-.474.885-.654 1.045 1.349.74 1.458 4.087.881 5.303-.295.616-.821.826-1.334.831M15.1 8.754l.012 1.194c-.009.582.104 1.414.176 2.56.651-1.327.922-2.949.962-3.436.165-1.652-1.158-1.214-1.149-.318m1.869 12.272c.36-.193.808-.654 2.027-2.473.228.217.472.498.687.873-1.021 2.007-1.782 2.769-2.202 3.041-.734.495-3.342.617-3.525-1.141-.143-.706-.14-1.963-.177-2.702-.061-1.665-.004-3.489-.176-8.816.052-.833-.312-2.621 1.131-3.108.586-.195 2.363-.434 2.71 1.04.378 1.615-.022 2.358-.477 3.683-.322.978-.664 1.501-1.476 3.348-.034 1.164.144 3.928.314 5.907.035.486.73.574 1.165.349M21.71 15.271c-.14-.392-.039-.896.185-1.149-.891-.069-1.264.296-1.274.862-.043 1.761-.127 5.534.042 5.862.2.391 1.558.471 1.702-.175.101-.504.218-2.344.196-4.623-.499-.199-.713-.385-.852-.777m2.472 1.483c-.023.754-.076 1.462-.102 1.887-.061 1.478-.156 2.532-.349 2.927-.369.773-1.166 1.081-2.357 1.109-.83.024-2.235-.307-2.379-1.185-.128-.706-.07-2.561-.036-3.725.033-1.226.082-2.39.146-3.585.051-.975.877-1.298 1.887-1.372.648-.054 3.103-.41 3.184 1.726.273.139.648-.007 1.145-.106.346-.067.797-.244 1.637-.693.155.439.264.768.343 1.144-.313.381-.898.67-1.47.864-.24.081-.857.276-1.641.237l-.008.77M28.665 14.331c-.692.133-.782 1.722-.822 2.335.513.01 1.025.021 1.444-.33.299-.239.429-.853.425-1.262-.007-.77-.476-.86-1.048-.743m-.943 3.782c-.112.881-.235 2.141.222 2.623.64.669 2.06.968 4.486-2.327.229.249.533.513.718.92-2.757 4.933-5.972 3.097-6.398 2.708-.929-.886-.696-3.325-.576-4.929.149-1.778.384-3.886 1.618-4.198.993-.247 2.29-.26 2.901.519.656.826.544 3.201-.519 4.014-.928.717-1.608.599-2.452.67M37.7 22.219c-.542.038-1.086.027-1.674-.013-.157-2.152-.129-3.912-.261-6.709-.038-.786-.94-.587-1.151-.428-.255.112-.494.367-.715.935l.122 6.301-1.674.002c-.149-2.859-.182-6.348-.213-9.491.512-.052 1.131-.059 1.674-.033l.059 1.43c.58-.808 1.656-1.778 2.793-1.256.197.092.623.496.766 1.218.356-.57.861-1.361 1.978-1.31.528.026 1.258.709 1.309 1.196.314 2.873.239 4.351.284 5.985.04 1.021 1.12.381 2.32-1.754.228.186.548.513.778.92-.859 1.581-1.991 3.07-3.408 3.132-.995.042-1.148-.192-1.236-1.464-.143-2.294.032-2.94-.249-5.451-.1-.942-1.167-.632-1.61.378.115 2.498.087 4.274.108 6.411M45.566 14.151c-.693.133-.783 1.721-.822 2.335.513.01 1.026.021 1.444-.33.3-.239.429-.853.425-1.262-.008-.77-.476-.86-1.048-.743m-.943 3.782c-.112.881-.236 2.14.221 2.623.64.669 2.061.968 4.487-2.327.228.249.532.513.718.92-2.757 4.933-5.972 3.096-6.398 2.708-.929-.886-.696-3.325-.576-4.929.149-1.778.384-3.886 1.618-4.198.993-.246 2.29-.26 2.901.519.656.826.544 3.201-.519 4.014-.928.717-1.608.599-2.452.67M52.754 15.051c-.237-1.066-1.357-.017-1.969.649.14 1.916.265 3.974.409 6.314-.708.102-1.145.154-1.732.223l-.456-9.646c.542-.069.964-.089 1.432-.094.049.377.038.864.151 1.539.613-.557 1.568-1.588 2.747-1.302 1.179.286 1.085 3.022 1.144 4.436.055 1.037.12 3.016.242 3.189.352.499 1.201-.626 2.045-2.207.228.218.549.576.764.966-.383.932-1.096 2.039-1.904 2.692-.853.685-2.418 1.047-2.603-.852-.235-2.449-.174-5.5-.268-5.907M32.716 5.509c-.223.066-.508-.054-.647-.292-.181-.307-.171-.67.074-.913.401-.418 1.042.005 1.069.48.023.382-.234.564-.496.726M33.151 6.906c-.191-.138-.282-.443-.194-.706.112-.34.389-.562.724-.52.565.059.657.843.323 1.166-.268.26-.567.169-.853.06M32.39 8.146c-.019-.241.15-.509.401-.604.324-.126.663-.044.845.253.315.492-.208 1.064-.66 1-.363-.051-.485-.349-.586-.649M30.986 8.307c.167-.168.473-.201.702-.059.299.182.453.507.348.842-.166.566-.922.506-1.161.101-.193-.325-.049-.613.111-.884M29.971 7.293c.231.028.449.253.49.528.055.356-.089.687-.404.814-.525.226-.96-.421-.812-.87.119-.361.424-.429.726-.472M30.086 5.83c.125.204.097.523-.081.73-.229.27-.565.364-.86.191-.5-.279-.297-1.041.131-1.206.344-.133.586.07.81.286M31.25 4.991c-.071.23-.326.41-.592.397-.346-.013-.629-.224-.688-.571-.11-.58.584-.899.977-.66.317.192.321.516.303.834M31.996 7.28c-.168.167-.473.199-.703.056-.298-.183-.45-.51-.344-.844.168-.565.924-.502 1.161-.095.191.326.046.613-.115.883" id="Shape" fill="#fff" fill-rule="nonzero"/><path d="M20.775 27.305c-.237-.203-.732-.618-1.437-.618-.893 0-1.416.655-1.416 1.265 0 .56.46 1.221 1.5 1.221.642 0 1.214-.291 1.514-.53l.328.698c-.509.393-1.29.589-1.848.589-1.214 0-2.218-.691-2.218-1.999 0-1.33 1.172-1.999 2.176-1.999.934 0 1.444.429 1.827.713l-.426.661zM23.608 28.265h1.395l-.698-1.483-.698 1.483zm.209-2.217h.962l1.772 3.765h-.823l-.363-.792h-2.113l-.363.792h-.823l1.751-3.765zM28.23 29.057h1.234c.635 0 1.102-.378 1.102-1.142 0-.887-.537-1.113-1.102-1.113h-1.234v2.254zm1.234-3.009c.83 0 1.827.421 1.827 1.824 0 1.243-.746 1.941-1.827 1.941h-1.96v-3.765h1.96zM35.8 26.048v.755h-2.483v.684h1.312v.755h-1.312v.814h2.567v.756h-3.292v-3.765zM38.35 28.265h1.395l-.698-1.483-.698 1.483zm.209-2.217h.963l1.771 3.765h-.823l-.363-.792h-2.114l-.362.792h-.823l1.751-3.765zM43.091 26.048v2.29c0 .451.112.836 1.018.836.963 0 1.019-.429 1.019-.836v-2.29h.725v2.29c0 .792-.363 1.592-1.75 1.592-1.256 0-1.737-.698-1.737-1.592v-2.29h.725zM9.951 28.134c-.168.167-.473.199-.703.055-.298-.183-.451-.51-.344-.844.168-.565.924-.501 1.161-.096.191.327.046.614-.115.884M12.165 28.134c-.168.167-.473.199-.703.055-.298-.183-.451-.51-.344-.844.168-.565.924-.501 1.161-.096.191.327.046.614-.115.884M14.38 28.134c-.168.167-.473.199-.703.055-.298-.183-.451-.51-.344-.844.168-.565.924-.501 1.161-.096.191.327.045.614-.115.884M49.544 28.134c-.167.167-.473.199-.702.055-.298-.183-.45-.51-.344-.844.168-.565.924-.501 1.161-.096.191.327.046.614-.115.884M51.759 28.134c-.168.167-.474.199-.702.055-.298-.183-.45-.51-.344-.844.167-.565.924-.501 1.161-.096.191.327.046.614-.115.884M53.974 28.134c-.168.167-.474.199-.703.055-.298-.183-.45-.51-.344-.844.168-.565.924-.501 1.161-.096.191.327.046.614-.115.884" fill="#fff" fill-rule="nonzero"/></g></svg>