<svg width="70" height="40" viewBox="0 0 70 40" xmlns="http://www.w3.org/2000/svg"><title>boekenbladkado</title><desc>Created with Sketch.</desc><g fill="none"><path d="M40.889 15.895h-2.04v2.604h2.04c.9 0 1.404-.552 1.404-1.308s-.504-1.296-1.404-1.296zm-.12-3.612h-1.92v2.448h1.92c.828 0 1.392-.432 1.392-1.224s-.564-1.224-1.392-1.224zm.24 7.381h-3.456v-8.545h3.324c1.584 0 2.58.9 2.58 2.34 0 .924-.576 1.584-1.152 1.812.66.264 1.284.9 1.284 1.98 0 1.572-1.068 2.412-2.58 2.412z" fill="#91C33F"/><path d="M46.996 19.663c-1.164 0-1.668-.78-1.668-1.68v-6.865h1.224v6.793c0 .468.168.708.66.708h.54v1.044h-.756" fill="#91C33F"/><path d="M52.348 16.975h-1.428c-.72 0-1.092.324-1.092.876s.348.864 1.116.864c.468 0 .816-.036 1.14-.348.18-.18.264-.468.264-.9v-.492zm.024 2.688v-.552c-.444.444-.864.624-1.62.624-.756 0-1.26-.18-1.632-.552-.312-.324-.48-.792-.48-1.308 0-1.02.708-1.752 2.1-1.752h1.608v-.432c0-.768-.384-1.14-1.332-1.14-.672 0-.996.156-1.332.588l-.804-.756c.576-.672 1.176-.876 2.184-.876 1.668 0 2.508.708 2.508 2.088v4.068h-1.2z" fill="#91C33F"/><path d="M57.664 14.599c-1.104 0-1.272.936-1.272 2.016s.168 2.028 1.272 2.028 1.26-.948 1.26-2.028-.156-2.016-1.26-2.016zm1.284 5.064v-.648c-.456.552-.948.72-1.608.72-.612 0-1.152-.204-1.488-.54-.612-.612-.684-1.656-.684-2.58 0-.924.072-1.956.684-2.568.336-.336.864-.54 1.476-.54.648 0 1.152.156 1.596.684v-3.072h1.224v8.545h-1.2z" fill="#91C33F"/><path fill="#777776" d="M47.982 28.876l-1.967-3.177-1.21 1.387v1.79h-.908v-8.976h.908v6.001l2.799-3.227h1.135l-2.105 2.37 2.471 3.832h-1.122"/><path d="M54.171 26.014h-1.74c-.933 0-1.387.378-1.387 1.097 0 .718.441 1.059 1.424 1.059.53 0 .996-.038 1.387-.416.214-.202.315-.555.315-1.072v-.668zm0 2.862v-.593c-.504.504-.958.668-1.79.668-.857 0-1.361-.164-1.752-.567-.303-.303-.466-.769-.466-1.261 0-1.084.756-1.79 2.143-1.79h1.866v-.593c0-.908-.454-1.361-1.588-1.361-.794 0-1.198.189-1.563.706l-.618-.567c.555-.718 1.185-.92 2.194-.92 1.664 0 2.483.719 2.483 2.068v4.21h-.908z" fill="#777776"/><path d="M59.428 23.405c-1.349 0-1.563 1.16-1.563 2.37 0 1.21.214 2.37 1.563 2.37s1.551-1.16 1.551-2.37c0-1.21-.202-2.37-1.551-2.37zm1.563 5.471v-.744c-.504.656-1.084.819-1.765.819-.63 0-1.185-.214-1.513-.542-.63-.63-.756-1.664-.756-2.635 0-.971.126-2.004.756-2.635.328-.328.883-.542 1.513-.542.681 0 1.248.151 1.752.794v-3.492h.908v8.976h-.895z" fill="#777776"/><path d="M67.496 23.858c-.29-.29-.693-.454-1.135-.454-.441 0-.832.164-1.122.454-.454.454-.504 1.223-.504 1.916 0 .693.05 1.462.504 1.916.29.29.681.454 1.122.454.441 0 .844-.164 1.135-.454.454-.454.492-1.223.492-1.916 0-.693-.038-1.462-.492-1.916zm.643 4.387c-.429.429-1.021.706-1.777.706-.757 0-1.349-.277-1.778-.706-.63-.643-.756-1.513-.756-2.471 0-.958.126-1.828.756-2.471.429-.429 1.021-.706 1.778-.706.756 0 1.349.277 1.777.706.63.643.756 1.513.756 2.471 0 .958-.126 1.828-.756 2.471z" fill="#777776"/><path d="M4.336 15.895h-2.04v2.604h2.04c.9 0 1.404-.552 1.404-1.308s-.504-1.296-1.404-1.296zm-.12-3.612h-1.92v2.448h1.92c.828 0 1.392-.432 1.392-1.224s-.564-1.224-1.392-1.224zm.24 7.381h-3.456v-8.545h3.324c1.584 0 2.58.9 2.58 2.34 0 .924-.576 1.584-1.152 1.812.66.264 1.284.9 1.284 1.98 0 1.572-1.068 2.412-2.58 2.412z" fill="#91C33F"/><path d="M11.956 14.947c-.228-.228-.54-.348-.9-.348s-.66.12-.888.348c-.372.372-.42 1.008-.42 1.668 0 .66.048 1.296.42 1.668.228.228.528.36.888.36s.672-.132.9-.36c.372-.372.42-1.008.42-1.668 0-.66-.048-1.296-.42-1.668zm.924 4.068c-.396.408-.996.72-1.824.72-.828 0-1.416-.312-1.812-.72-.576-.6-.72-1.368-.72-2.4 0-1.02.144-1.788.72-2.388.396-.408.984-.72 1.812-.72.828 0 1.428.312 1.824.72.576.6.72 1.368.72 2.388 0 1.032-.144 1.8-.72 2.4z" fill="#91C33F"/><path d="M18.724 15.295c-.192-.456-.624-.768-1.2-.768s-1.02.312-1.212.768c-.12.276-.144.456-.156.828h2.736c-.012-.372-.048-.552-.168-.828zm-2.568 1.68c0 1.044.552 1.704 1.548 1.704.684 0 1.044-.192 1.476-.624l.78.732c-.624.624-1.212.948-2.28.948-1.524 0-2.736-.804-2.736-3.12 0-1.968 1.02-3.108 2.58-3.108 1.632 0 2.58 1.2 2.58 2.928v.54h-3.948z" fill="#91C33F"/><g fill="#91C33F"><path d="M25.552 19.663l-1.704-2.808-.9 1.02v1.788h-1.224v-8.545h1.224v5.268l2.364-2.808h1.488l-2.112 2.388 2.376 3.696h-1.512"/><path d="M31.499 12.705c-1.212 0-2.028.865-2.028 2.052 0 .816.42 1.484 1.583 2.893l.94-.643c.816-.569 1.582-1.187 1.582-2.201 0-1.187-.89-2.102-2.077-2.102zm-.94 7.097c-1.508 1.038-3.017 2.028-3.017 4.03 0 2.102 1.533 3.511 3.709 3.511 1.31 0 2.646-.346 4.154-1.706l-4.847-5.835zm7.492 9.05l-1.583-1.929c-.717.668-2.374 2.077-5.193 2.077-3.412 0-5.564-2.052-5.564-5.118 0-2.646 1.879-3.981 3.808-5.267-.865-1.038-1.904-2.25-1.904-3.833 0-2.102 1.632-3.684 3.882-3.684 2.201 0 3.833 1.607 3.833 3.709 0 1.409-.841 2.374-1.954 3.14 0 0-.89.593-1.311.89l4.5 5.415c.717-1.088.964-2.053.989-4.031h1.78c-.024 2.225-.494 4.031-1.632 5.39l2.695 3.239h-2.349z"/></g></g></svg>