<?xml version="1.0" encoding="UTF-8"?>
<svg width="60px" height="40px" viewBox="0 0 60 40" version="1.1" xmlns="http://www.w3.org/2000/svg" xmlns:xlink="http://www.w3.org/1999/xlink">
    <!-- Generator: Sketch 51.2 (57519) - http://www.bohemiancoding.com/sketch -->
    <title>bunq</title>
    <desc>Created with Sketch.</desc>
    <defs></defs>
    <g id="bunq" stroke="none" stroke-width="1" fill="none" fill-rule="evenodd">
        <rect id="Rectangle-path" fill="#238647" x="10.000982" y="0.000344282992" width="6.61154948" height="39.6694557"></rect>
        <rect id="Rectangle-path" fill="#2F9B47" x="13.3069043" y="0.000344282992" width="6.61154948" height="39.6694557"></rect>
        <rect id="Rectangle-path" fill="#62B64F" x="16.6128267" y="0.000344282992" width="6.61154948" height="39.6694557"></rect>
        <rect id="Rectangle-path" fill="#89CC53" x="19.9183018" y="0.000344282992" width="6.61154948" height="39.6694557"></rect>
        <rect id="Rectangle-path" fill="#3DB8AD" x="23.2242241" y="0.000344282992" width="6.61154948" height="39.6694557"></rect>
        <rect id="Rectangle-path" fill="#3394D7" x="26.5301464" y="0.000344282992" width="6.61154948" height="39.6694557"></rect>
        <rect id="Rectangle-path" fill="#2872BC" x="29.8356215" y="0.000344282992" width="6.61154948" height="39.6694557"></rect>
        <rect id="Rectangle-path" fill="#1D5C84" x="33.1415438" y="0.000344282992" width="6.61154948" height="39.6694557"></rect>
        <rect id="Rectangle-path" fill="#993233" x="36.447332" y="0.000344282992" width="6.61154948" height="39.6694557"></rect>
        <rect id="Rectangle-path" fill="#E13030" x="39.7530754" y="0.000344282992" width="6.61154948" height="39.6694557"></rect>
        <rect id="Rectangle-path" fill="#F28825" x="43.0588636" y="0.000344282992" width="6.61154948" height="39.6694557"></rect>
        <rect id="Rectangle-path" fill="#F5C836" x="46.3643566" y="0.000344282992" width="3.30576132" height="39.6694557"></rect>
        <g id="Group" transform="translate(15.123023, 13.884613)" fill="#FFFFFF">
            <g transform="translate(8.101077, 2.809923)" id="Shape">
                <path d="M4.62807568,0 L5.95038302,0 L5.95038302,3.47108141 C5.95038302,5.11306821 4.61716664,6.44629406 2.97519151,6.44629406 C1.33321637,6.44629406 0,5.11306821 0,3.47108141 L0,0 L1.32230734,0 L1.32230734,3.47108141 C1.32230734,4.47455452 2.06296473,5.28926692 2.97519151,5.28926692 C3.88741828,5.28926692 4.62807568,4.47455452 4.62807568,3.47108141 L4.62807568,0 Z"></path>
            </g>
            <g transform="translate(18.356485, 5.867780) scale(-1, 1) rotate(-180.000000) translate(-18.356485, -5.867780) translate(15.381293, 2.644633)" id="Shape">
                <path d="M4.62807568,0 L5.95038302,0 L5.95038302,3.47108141 C5.95038302,5.11306821 4.61716664,6.44629406 2.97519151,6.44629406 C1.33321637,6.44629406 0,5.11306821 0,3.47108141 L0,0 L1.32230734,0 L1.32230734,3.47108141 C1.32230734,4.47455452 2.06296473,5.28926692 2.97519151,5.28926692 C3.88741828,5.28926692 4.62807568,4.47455452 4.62807568,3.47108141 L4.62807568,0 Z"></path>
            </g>
            <g transform="translate(0.166463, 0.000000)" id="Shape">
                <path d="M1.15701892,9.09092752 L0,9.09092752 L0,6.11571487 L0.00495865251,6.11571487 C0.00165288417,6.06100402 0,6.0057973 0,5.95042528 L0,0 L1.32230734,0 L1.32230734,3.30628769 C1.87437065,2.89091495 2.56197046,2.64463346 3.30576834,2.64463346 C5.13055247,2.64463346 6.61153668,4.12595878 6.61153668,5.95042528 C6.61153668,7.77489179 5.13055247,9.25621711 3.30576834,9.25621711 C2.51568971,9.25621711 1.79007356,8.9783653 1.2214814,8.51522387 L1.15701892,9.09092752 Z M3.22312413,3.8016606 C4.36361421,3.8016606 5.28922935,4.76447247 5.28922935,5.95042528 C5.28922935,7.1363781 4.36361421,8.09918997 3.22312413,8.09918997 C2.08263406,8.09918997 1.15701892,7.1363781 1.15701892,5.95042528 C1.15701892,4.76447247 2.08263406,3.8016606 3.22312413,3.8016606 Z"></path>
            </g>
            <g transform="translate(25.952917, 7.272742) rotate(180.000000) translate(-25.952917, -7.272742) translate(22.647149, 2.644633)" id="Shape">
                <path d="M1.15701892,9.09092752 L0,9.09092752 L0,6.11571487 L0.00495865251,6.11571487 C0.00165288417,6.06100402 0,6.0057973 0,5.95042528 L0,0 L1.32230734,0 L1.32230734,3.30628769 C1.87437065,2.89091495 2.56197046,2.64463346 3.30576834,2.64463346 C5.13055247,2.64463346 6.61153668,4.12595878 6.61153668,5.95042528 C6.61153668,7.77489179 5.13055247,9.25621711 3.30576834,9.25621711 C2.51568971,9.25621711 1.79007356,8.9783653 1.2214814,8.51522387 L1.15701892,9.09092752 Z M3.22312413,3.8016606 C4.36361421,3.8016606 5.28922935,4.76447247 5.28922935,5.95042528 C5.28922935,7.1363781 4.36361421,8.09918997 3.22312413,8.09918997 C2.08263406,8.09918997 1.15701892,7.1363781 1.15701892,5.95042528 C1.15701892,4.76447247 2.08263406,3.8016606 3.22312413,3.8016606 Z"></path>
            </g>
        </g>
    </g>
</svg>