<svg width="70" height="40" viewBox="0 0 70 40" xmlns="http://www.w3.org/2000/svg"><title>busch-vanderworp</title><desc>Created with Sketch.</desc><g fill-rule="nonzero" fill="none"><path d="M34.111 1.119c-.338.126-.72.468-.889.802-.162.304-.213 1.143-.096 1.492.198.616.588.883 1.97 1.373.669.245.882.586.669 1.069-.169.371-.897.534-1.411.319-.132-.059-.345-.193-.47-.304l-.243-.208-.368.401c-.198.215-.36.438-.368.49 0 .134.64.52 1.103.661.617.186 1.558.163 2.043-.045.698-.312 1.066-.905 1.058-1.714 0-.594-.074-.794-.426-1.188-.323-.356-.566-.497-1.455-.809-.779-.267-.926-.386-.926-.727 0-.349.103-.512.375-.609.426-.148.956-.045 1.294.245l.198.178.426-.379.426-.371-.162-.178c-.088-.096-.345-.267-.566-.379-.353-.171-.515-.2-1.147-.215-.515-.015-.823.015-1.036.096zM44.431 1.141c-1.235.401-1.999 1.418-2.095 2.791-.096 1.373.544 2.546 1.691 3.08.926.438 2.014.445 2.896.03l.39-.186v-1.403l-.368.252c-1.264.876-2.742.497-3.124-.802-.309-1.039.051-2.13.838-2.523.47-.237.831-.289 1.316-.186.5.104.735.215 1.081.52l.257.23v-.705c0-.831-.015-.846-.801-1.091-.603-.193-1.5-.193-2.08-.007zM11.074 4.155v3.095l1.757-.03 1.749-.022.507-.26c.441-.23.529-.312.706-.661.154-.304.206-.497.206-.831 0-.854-.397-1.395-1.132-1.544l-.206-.045.279-.186c.382-.245.544-.594.544-1.15 0-.616-.213-.98-.698-1.225-.353-.178-.434-.186-2.036-.215l-1.676-.022v3.095zm2.536-2.041c.397.089.551.304.551.735-.007.594-.235.75-1.132.75h-.632v-1.558h.463c.25 0 .588.037.75.074zm.853 2.731c.147.163.213.319.213.497 0 .698-.368.92-1.522.928h-.757v-1.722l.926.03.926.022.213.245zM21.967 3.242c.029 2.071.037 2.197.198 2.613.397 1.009 1.132 1.47 2.36 1.477 1.419.015 2.227-.542 2.543-1.744.074-.289.103-.928.103-2.457v-2.056h-1.308l-.029 2.093c-.022 1.692-.051 2.152-.147 2.36-.257.601-.934.876-1.558.638-.72-.282-.772-.475-.779-3.036v-2.056h-1.412l.029 2.167zM53.266 4.155v3.08h1.396v-2.598h2.5v2.598h1.324v-6.16h-1.324v2.376h-2.5v-2.376h-1.396zM12.963 11.718c-1.088.304-1.448 1.38-.779 2.33.125.178.221.334.206.341l-.279.156c-.485.245-.882.698-1.007 1.128-.198.683-.044 1.284.434 1.707.434.379.823.49 1.647.453.662-.03.772-.052 1.279-.312l.559-.289.25.275.25.275.772-.022.772-.022-.566-.601c-.316-.327-.573-.631-.573-.668 0-.037.198-.267.441-.512.492-.497.492-.475-.081-.935l-.272-.215-.426.445-.434.453-.5-.512-.492-.505.323-.23c.845-.609 1.088-1.588.559-2.264-.338-.445-1.375-.675-2.08-.475zm1.007.794c.096.052.221.186.272.304.125.304-.051.661-.456.928l-.309.2-.243-.282c-.397-.468-.419-.913-.044-1.121.243-.126.537-.141.779-.03zm-.265 3.266c.294.312.529.601.529.646 0 .111-.61.393-.948.438-.691.096-1.183-.579-.845-1.158.125-.215.537-.527.654-.505.044.007.316.267.61.579z" id="Shape" fill="#00A4D5"/><path d="M21.387 11.703c.037.082 2.293 5.745 2.382 5.975.029.067.243.096.713.096h.684l.728-1.841 1.213-3.08.492-1.239h-1.419l-.845 2.301c-.463 1.262-.853 2.279-.867 2.264-.022-.015-.404-1.046-.86-2.279l-.823-2.249-.72-.022c-.559-.015-.706 0-.676.074zM34.221 11.814l-.573 1.544c-.279.735-.757 2.004-1.066 2.828-.309.824-.559 1.514-.559 1.544 0 .022.309.045.691.045h.691l.169-.557.162-.557 1.367.015 1.36.022.162.52.162.52.713.022c.559.015.706 0 .676-.074l-1.066-2.805c-.573-1.492-1.088-2.835-1.154-2.991l-.11-.275h-1.544l-.081.2zm1.338 2.227c.25.772.47 1.44.492 1.484.022.074-.206.096-.978.096-.779 0-1-.022-.97-.096l.5-1.477c.257-.764.478-1.395.485-1.395.007 0 .213.623.47 1.388zM42.681 14.694v3.08h1.25l.015-2.063.022-2.056 1.323 2.056 1.316 2.063h1.44v-6.16h-1.25v2.041c0 1.121-.022 2.041-.051 2.041-.037-.007-.64-.913-1.345-2.026l-1.294-2.019-.713-.022-.713-.022v3.087zM53.266 14.694v3.08h1.529c2.117 0 2.771-.178 3.477-.943.794-.854.963-2.516.375-3.718-.235-.49-.632-.861-1.22-1.136-.617-.289-1.183-.364-2.779-.364h-1.382v3.08zm3.256-1.744c.632.238.948.675 1.044 1.418.11.905-.235 1.677-.889 1.996-.294.141-.522.178-1.183.208l-.831.037v-3.807h.735c.551 0 .823.037 1.125.148zM44.821 22.19c-.412.134-1.014.549-1.279.891-.492.623-.772 1.662-.684 2.523.169 1.662 1.198 2.731 2.734 2.843.941.059 1.72-.223 2.315-.854.595-.616.875-1.358.875-2.323 0-1.388-.603-2.449-1.676-2.954-.353-.163-.537-.2-1.191-.215-.515-.015-.882.015-1.095.089zm1.779 1.299c.757.527 1.007 1.818.544 2.843-.338.75-1.088 1.098-1.786.831-.713-.275-1.095-.965-1.081-1.967.007-.868.323-1.484.941-1.818.331-.178 1.044-.119 1.382.111zM11.074 25.233v3.08h5.292v-1.188h-3.896v-1.41h3.676v-1.114h-3.676v-1.262h3.896v-1.188h-5.292zM21.364 25.233v3.08h1.396l.015-1.277.022-1.269 1.176 1.269 1.176 1.262.956.007.956.007-1.235-1.247-1.235-1.254.404-.089c.926-.208 1.463-.846 1.463-1.744 0-.623-.213-1.084-.647-1.38-.544-.379-.978-.445-2.808-.445h-1.639v3.08zm3.102-1.967c.507.141.72.683.47 1.18-.162.312-.434.401-1.345.438l-.831.03v-1.722h.72c.39 0 .838.037.985.074zM30.92 22.168l.831 3.065.831 3.043.669.022.669.022.537-2.234c.36-1.492.559-2.197.595-2.1.029.074.257.95.5 1.952.25 1.002.478 1.945.522 2.093l.074.282h1.308l.11-.393c.206-.712 1.514-5.678 1.514-5.722 0-.022-.272-.045-.61-.045h-.61l-.5 2.13c-.272 1.18-.522 2.182-.551 2.227-.029.052-.294-.905-.588-2.13l-.537-2.227h-1.3010000000000002l-.074.275-.522 2.1c-.243 1.002-.47 1.878-.5 1.952-.037.096-.235-.609-.595-2.093l-.537-2.234h-.617c-.338 0-.617.007-.617.015zM53.266 25.225v3.088h1.396v-1.225c0-1.017.015-1.225.103-1.225.059 0 .154.059.206.134.051.082.559.631 1.125 1.225l1.022 1.091h1.852l-1.235-1.239-1.235-1.239.463-.111c.25-.067.566-.2.698-.289 1.125-.809.963-2.494-.294-3.065-.368-.163-.485-.178-2.242-.2l-1.86-.03v3.088zm3.095-1.959c.397.111.617.393.617.779 0 .238-.044.371-.176.512-.243.26-.573.341-1.419.341h-.72v-.802c0-.445.022-.831.051-.854.074-.082 1.353-.059 1.647.022zM11 35.772v3.08h1.47v-2.36l1.088-.03c1.029-.022 1.103-.037 1.566-.252.772-.371 1.058-.891 1.007-1.811-.029-.609-.265-1.017-.764-1.336-.47-.297-1.022-.371-2.808-.371h-1.558v3.08zm3.014-1.974c.654.134.97.846.559 1.291-.235.252-.61.349-1.419.349h-.684v-1.708h.61c.331.007.75.037.934.067zM20.96 37.42c-.081.022-.235.126-.345.23-.169.156-.206.26-.206.534 0 .393.125.609.434.742.669.275 1.301-.371 1.036-1.069-.11-.312-.573-.527-.919-.438z" fill="#F18821"/></g></svg>