<?xml version="1.0" encoding="UTF-8"?>
<svg width="320px" height="200px" viewBox="0 0 320 200" version="1.1" xmlns="http://www.w3.org/2000/svg" xmlns:xlink="http://www.w3.org/1999/xlink">
    <!-- Generator: Sketch 49.3 (51167) - http://www.bohemiancoding.com/sketch -->
    <title>abn</title>
    <desc>Created with Sketch.</desc>
    <defs>
        <rect id="path-1" x="0" y="0" width="320" height="200" rx="25"></rect>
        <linearGradient x1="50%" y1="0%" x2="50%" y2="100%" id="linearGradient-3">
            <stop stop-color="#DCEDDD" offset="0%"></stop>
            <stop stop-color="#54A381" offset="100%"></stop>
        </linearGradient>
        <linearGradient x1="3.061617e-15%" y1="50%" x2="73.4016263%" y2="50%" id="linearGradient-4">
            <stop stop-color="#FFFFFF" stop-opacity="0.5" offset="0%"></stop>
            <stop stop-color="#5EAA86" offset="100%"></stop>
        </linearGradient>
        <polygon id="path-5" points="0.00436548223 36.995739 42.9963621 36.995739 42.9963621 0.00113627639 0.00436548223 0.00113627639"></polygon>
    </defs>
    <g id="abn" stroke="none" stroke-width="1" fill="none" fill-rule="evenodd">
        <g id="Group">
            <mask id="mask-2" fill="white">
                <use xlink:href="#path-1"></use>
            </mask>
            <use id="Mask" fill="#D8D8D8" xlink:href="#path-1"></use>
            <g mask="url(#mask-2)">
                <g transform="translate(-43.000000, -54.000000)">
                    <rect id="Rectangle-2" fill="url(#linearGradient-3)" x="43" y="54" width="320" height="200"></rect>
                    <ellipse id="Oval-2" fill-opacity="0.5" fill="#7CA985" cx="201.5" cy="222" rx="201.5" ry="101"></ellipse>
                    <polygon id="Rectangle" fill-opacity="0.280000001" fill="url(#linearGradient-4)" points="312.442783 16 453.442783 20.8558673 453.442783 310.855867 29 299.892683"></polygon>
                    <rect id="Rectangle-3" fill-opacity="0.1" fill="#D8D8D8" transform="translate(199.615805, 155.708532) rotate(-34.000000) translate(-199.615805, -155.708532) " x="165.115805" y="-8.83935028" width="69" height="329.095765"></rect>
                    <rect id="Rectangle-3-Copy" fill-opacity="0.05" fill="#D8D8D8" transform="translate(208.454752, 157.826733) rotate(-148.000000) translate(-208.454752, -157.826733) " x="173.954752" y="-6.72114943" width="69" height="329.095765"></rect>
                </g>
            </g>
        </g>
        <g id="abn-amro_logo" transform="translate(25.000000, 25.000000)">
            <polyline id="Fill-1" fill="#808180" points="48.1674499 2.40994898 51.0004845 9.57193878 51.0004845 2.40994898 52.925286 2.40994898 52.925286 12.5479592 50.2018614 12.5479592 47.3155513 4.99923469 47.3181004 12.5479592 45.3762201 12.5479592 45.3843771 2.40994898 48.1674499 2.40994898"></polyline>
            <polyline id="Fill-2" fill="#808180" points="72.3797754 2.40994898 74.0759255 9.49591837 75.7743697 2.40994898 79.0736288 2.40994898 79.0736288 12.5479592 77.0338643 12.5479592 77.0338643 4.5619898 74.9823742 12.5479592 73.0440626 12.5479592 71.0575737 4.5994898 71.0575737 12.5479592 69.0302996 12.5479592 69.0302996 2.40994898 72.3797754 2.40994898"></polyline>
            <path d="M86.200314,2.42678571 C87.0114276,2.50535714 87.7422455,2.98979592 88.0425257,3.74515306 C88.3971011,4.69056122 88.4014345,6.09591837 87.729755,6.90943878 C87.3792581,7.26147959 86.9104845,7.48647959 86.3333754,7.58010204 C86.4730643,7.60612245 86.6390087,7.67015306 86.8411498,7.70688776 C87.4559851,7.81632653 87.8207568,8.14209184 88.0330942,8.61122449 C88.4141799,9.58316327 88.148567,10.8272959 88.3410216,11.8816327 L88.4694947,12.5479592 L86.3983766,12.5479592 C86.0438012,11.4410714 86.487594,9.90153061 86.0078594,8.88852041 C85.6846375,8.28571429 84.7664631,8.33469388 84.0534887,8.35510204 L84.0534887,12.5479592 L82.0323324,12.5479592 L82.0231558,2.40994898 C82.0231558,2.40994898 85.3902201,2.34846939 86.200314,2.42678571 Z M84.0534887,3.92066327 L84.0534887,6.81505102 C84.0534887,6.81505102 85.4266718,7.00841837 85.9171125,6.38163265 C86.2334519,5.86760204 86.2102554,5.02244898 86.0188204,4.45586735 C85.6647548,3.75408163 84.7295016,3.92959184 84.0534887,3.92066327 L84.0534887,3.92066327 Z" id="Fill-3" fill="#808180"></path>
            <path d="M30.457033,2.40994898 L33.228635,12.5479592 L31.0869078,12.5479592 L30.4812492,10.3170918 L27.5579776,10.3170918 L26.9439071,12.5479592 L24.9051622,12.5479592 L27.6918037,2.40994898 L30.457033,2.40994898 Z M29.0027896,4.24260204 L27.983672,8.76428571 L27.9778092,8.76428571 L30.0272601,8.76428571 L29.0499473,4.46938776 L29.0027896,4.24260204 L29.0027896,4.24260204 Z" id="Fill-4" fill="#808180"></path>
            <polyline id="Fill-5" fill="#00A087" points="9.33239404 6.38418367 9.33239404 24.9964286 0 15.6558673 0 0.1125 18.5312169 0.1125 18.5312169 15.6443878 9.33239404 6.38418367"></polyline>
            <path d="M40.6476984,2.53571429 C41.2446902,2.63826531 41.9301347,3.23316327 42.1215697,3.93596939 C42.3400248,4.8002551 42.3446132,5.86760204 41.6984243,6.61352041 C41.4032422,6.93877551 40.9979404,7.10306122 40.5934032,7.26632653 C40.908723,7.36683673 41.2161406,7.48035714 41.5138718,7.64158163 C42.470792,8.22678571 42.5199891,9.55739796 42.361437,10.6392857 C42.2125714,11.477551 41.4534589,12.2561224 40.6688557,12.442602 C40.3591439,12.5158163 39.9614892,12.5479592 39.5900899,12.5479592 L35.5832094,12.5479592 L35.5832094,2.40994898 C37.1159642,2.40739796 39.5255985,2.34234694 40.6476984,2.53571429 Z M39.1325322,6.53061224 C39.852644,6.51530612 40.104237,6.07831633 40.2102783,5.69923469 C40.3160646,5.18647959 40.2671225,4.6119898 39.8401535,4.20076531 L39.6372477,4.05280612 C39.3456343,3.84489796 38.3509878,3.89591837 37.6765043,3.90739796 C37.6757396,4.74591837 37.6958773,5.66530612 37.6765043,6.53061224 L39.1325322,6.53061224 Z M37.6765043,8.07066327 L37.6765043,11.0076531 L37.6765043,11.0334184 C38.4998534,10.9862245 39.3374773,11.2170918 39.9579205,10.7561224 C40.4692636,10.2941327 40.4560084,9.37908163 40.2474947,8.78137755 C39.8126236,7.86377551 38.5454817,8.11071429 37.6765043,8.07066327 L37.6765043,8.07066327 Z" id="Fill-6" fill="#808180"></path>
            <polyline id="Fill-7" fill="#808180" points="56.2031329 7.97704082 57.5159031 6.66326531 56.2148586 5.36020408 54.9023434 6.675 56.2031329 7.97704082"></polyline>
            <g id="Group-11" transform="translate(58.373665, 2.040816)" fill="#808180">
                <path d="M5.63114683,0.369132653 L8.4019841,10.5071429 L6.26127652,10.5071429 L5.6558728,8.27627551 L2.7310718,8.27627551 L2.11827578,10.5071429 L0.079021118,10.5071429 L2.86464298,0.369132653 L5.63114683,0.369132653 Z M4.17613863,2.20280612 L3.15829565,6.72346939 L3.15166807,6.72346939 L5.20137391,6.72346939 L4.22304149,2.42857143 L4.17613863,2.20280612 L4.17613863,2.20280612 Z" id="Fill-8"></path>
                <path d="M39.0690604,1.67142857 C39.7491518,3.20892857 39.5911096,5.15663265 39.6010509,6.8869898 C39.6046196,7.6877551 39.4200671,9.3744898 38.4236363,10.1084184 C37.7221327,10.5971939 36.8855284,10.7520408 35.9676089,10.7380102 C34.7522132,10.719898 33.5408959,10.2841837 33.0438276,9.07219388 C32.539367,7.76989796 32.6507612,5.91122449 32.6489769,4.28877551 C32.6482122,3.10969388 32.8014112,1.61147959 33.8796671,0.797193878 C34.9836686,0.0900510204 36.7669968,0.111479592 37.956647,0.620663265 C38.3846355,0.801785714 38.8577426,1.22270408 39.0690604,1.67142857 Z M37.4488725,3.66377551 C37.371126,1.67397959 36.4358728,1.72117347 36.046885,1.72117347 C35.625524,1.72117347 34.8962355,1.94158163 34.8233322,3.61377551 L34.8233322,7.17857143 C34.9400795,8.93443878 35.3713819,9.27372449 36.1488477,9.27372449 C36.9584318,9.27372449 37.4409704,8.90076531 37.4488725,7.04285714 L37.4488725,3.66377551 L37.4488725,3.66377551 Z" id="Fill-10"></path>
            </g>
            <polyline id="Fill-12" fill="#F3B229" points="9.33239404 25 9.33239404 6.38061224 18.5312169 15.6390306 9.33239404 25"></polyline>
        </g>
        <g id="iDeal_betalen-cmyk" transform="translate(261.000000, 16.000000)">
            <g id="Group-3">
                <mask id="mask-6" fill="white">
                    <use xlink:href="#path-5"></use>
                </mask>
                <g id="Clip-2"></g>
                <path d="M0,0.00113627639 L0,37 L22.0977073,37 C36.6751438,37 42.9963621,29.0302284 42.9963621,18.4634971 C42.9963621,7.93866603 36.6751438,0.00113627639 22.0977073,0.00113627639 L0,0.00113627639" id="Fill-1" fill="#FFFFFE" mask="url(#mask-6)"></path>
            </g>
            <path d="M4.29956345,4.20202111 L4.29956345,32.7991152 L22.1007631,32.7991152 C32.8481438,32.7991152 38.6968714,27.9119904 38.6968714,18.4634971 C38.6968714,8.7550096 32.3584822,4.20202111 22.1007631,4.20202111 L4.29956345,4.20202111 Z M2.38799154,2.33540307 L22.1007631,2.33540307 C35.4811844,2.33540307 40.6072792,9.46745489 40.6072792,18.4634971 C40.6072792,29.2510211 33.4466514,34.6643129 22.1007631,34.6643129 L2.38799154,34.6643129 L2.38799154,2.33540307 L2.38799154,2.33540307 Z" id="Fill-4" fill="#1A1919"></path>
            <polygon id="Fill-5" fill="#1A1919" points="6.68748223 30.4671209 12.385819 30.4671209 12.385819 20.5675969 6.68748223 20.5675969"></polygon>
            <path d="M13.0773113,15.5790595 C13.0773113,17.488572 11.4926413,19.0364645 9.53581387,19.0364645 C7.5806599,19.0364645 5.99482572,17.488572 5.99482572,15.5790595 C5.99482572,13.6706833 7.5806599,12.1227908 9.53581387,12.1227908 C11.4926413,12.1227908 13.0773113,13.6706833 13.0773113,15.5790595" id="Fill-6" fill="#1A1919"></path>
            <path d="M15.2536497,13.9678906 L15.2536497,17.1949155 L16.2678968,17.1949155 C16.9715398,17.1949155 17.6208325,16.9955701 17.6208325,15.5539194 C17.6208325,14.1481324 16.8994365,13.9678906 16.2678968,13.9678906 L15.2536497,13.9678906 Z M32.182335,12.3614798 L33.8244839,12.3614798 L33.8244839,17.1949155 L36.2558393,17.1949155 C35.5899577,8.42676775 28.5241337,6.53152975 22.1025821,6.53152975 L15.2554687,6.53152975 L15.2554687,12.3651017 L16.2678968,12.3651017 C18.1166785,12.3651017 19.2629086,13.587167 19.2629086,15.5539194 C19.2629086,17.5840192 18.1440355,18.7965681 16.2678968,18.7965681 L15.2554687,18.7965681 L15.2554687,30.4683282 L22.1025821,30.4683282 C32.5413232,30.4683282 36.174423,25.7350979 36.3022589,18.7952898 L32.182335,18.7952898 L32.182335,12.3614798 Z M27.6076734,15.9525393 L28.7966853,15.9525393 L28.2520914,14.1337159 L28.1530677,14.1337159 L27.6076734,15.9525393 Z M25.046736,18.7988407 L27.0360863,12.3614798 L29.371401,12.3614798 L31.3571134,18.7988407 L29.6483181,18.7988407 L29.2765973,17.5529846 L27.1289983,17.5529846 L26.7555313,18.7988407 L25.046736,18.7988407 Z M24.3369814,17.1949155 L24.3369814,18.7965681 L20.2759188,18.7965681 L20.2759188,12.3651017 L24.2061624,12.3651017 L24.2061624,13.9666833 L21.9179222,13.9666833 L21.9179222,14.7101631 L24.0833469,14.7101631 L24.0833469,16.3141593 L21.9179222,16.3141593 L21.9179222,17.1949155 L24.3369814,17.1949155 L24.3369814,17.1949155 Z" id="Fill-7" fill="#C91A68"></path>
        </g>
    </g>
</svg>