<?xml version="1.0" encoding="UTF-8"?>
<svg width="320px" height="200px" viewBox="0 0 320 200" version="1.1" xmlns="http://www.w3.org/2000/svg" xmlns:xlink="http://www.w3.org/1999/xlink">
    <!-- Generator: Sketch 49.3 (51167) - http://www.bohemiancoding.com/sketch -->
    <title>moneyou</title>
    <desc>Created with Sketch.</desc>
    <defs>
        <polygon id="path-1" points="0.00436548223 36.995739 42.9963621 36.995739 42.9963621 0.00113627639 0.00436548223 0.00113627639"></polygon>
    </defs>
    <g id="moneyou" stroke="none" stroke-width="1" fill="none" fill-rule="evenodd">
        <g id="Group" fill="#F9F9F9">
            <g id="Rectangle-2">
                <rect x="0" y="0" width="320" height="200" rx="25"></rect>
            </g>
        </g>
        <g transform="translate(26.000000, 22.000000)" fill-rule="nonzero">
            <g id="Group-2" transform="translate(0.000000, 8.363636)">
                <path d="M7.32718894,14.5666667 C3.35253456,14.5666667 0.138248848,11.3257576 0.138248848,7.31818182 C0.138248848,4.70454545 1.52073733,2.3 3.76728111,1.01060606 L5.01152074,3.20606061 C3.55990783,4.04242424 2.62672811,5.61060606 2.62672811,7.31818182 C2.62672811,9.93181818 4.73502304,12.0575758 7.32718894,12.0575758 C9.2281106,12.0575758 10.921659,10.9424242 11.6474654,9.16515152 L13.9631336,10.1409091 C12.8225806,12.8242424 10.2304147,14.5666667 7.32718894,14.5666667 Z" id="Shape" fill="#D40D47"></path>
                <path d="M13.9631336,10.1409091 L11.6474654,9.16515152 C11.8894009,8.57272727 12.0276498,7.98030303 12.0276498,7.31818182 C12.0276498,4.70454545 9.91935484,2.57878788 7.32718894,2.57878788 C6.53225806,2.57878788 5.70276498,2.78787879 5.01152074,3.20606061 L3.76728111,1.01060606 C4.83870968,0.383333333 6.08294931,0.0696969697 7.32718894,0.0696969697 C11.3018433,0.0696969697 14.516129,3.31060606 14.516129,7.31818182 C14.516129,8.29393939 14.343318,9.23484848 13.9631336,10.1409091 Z" id="Shape" fill="#FABB2E"></path>
            </g>
            <g id="Group-4" transform="translate(3.000000, 0.000000)">
                <path d="M10.202765,19.480303 C4.88018433,19.480303 0.559907834,15.1242424 0.559907834,9.75757576 C0.559907834,4.39090909 4.88018433,0.0348484848 10.202765,0.0348484848 C15.5253456,0.0348484848 19.8110599,4.42575758 19.8110599,9.75757576 C19.8110599,15.0893939 15.4907834,19.480303 10.202765,19.480303 Z M10.202765,2.57878788 C6.26267281,2.57878788 3.08294931,5.78484848 3.08294931,9.75757576 C3.08294931,13.730303 6.26267281,16.9363636 10.202765,16.9363636 C14.1428571,16.9363636 17.3225806,13.730303 17.3225806,9.75757576 C17.3225806,5.78484848 14.1082949,2.57878788 10.202765,2.57878788 Z" id="Shape" fill="#2AABCE"></path>
                <path d="M10.202765,19.480303 C4.88018433,19.480303 0.559907834,15.1242424 0.559907834,9.75757576 C0.559907834,9.06060606 1.11290323,8.5030303 1.80414747,8.5030303 C2.49539171,8.5030303 3.0483871,9.06060606 3.0483871,9.75757576 C3.0483871,13.730303 6.2281106,16.9363636 10.1682028,16.9363636 C10.859447,16.9363636 11.4124424,17.4939394 11.4124424,18.1909091 C11.4124424,18.8878788 10.8940092,19.480303 10.202765,19.480303 Z" id="Shape" fill="#555390"></path>
            </g>
            <g id="Group" transform="translate(31.451613, 4.530303)" fill="#D40D47">
                <g id="Shape">
                    <path d="M95.702765,0.0348484848 C91.8317972,0.0348484848 88.6866359,3.20606061 88.6866359,7.10909091 C88.6866359,11.0121212 91.8317972,14.1833333 95.702765,14.1833333 C99.5737327,14.1833333 102.718894,11.0121212 102.718894,7.10909091 C102.718894,3.20606061 99.5737327,0.0348484848 95.702765,0.0348484848 Z M95.702765,10.419697 C93.90553,10.419697 92.4193548,8.92121212 92.4193548,7.10909091 C92.4193548,5.2969697 93.90553,3.79848485 95.702765,3.79848485 C97.5,3.79848485 98.9861751,5.2969697 98.9861751,7.10909091 C98.9861751,8.92121212 97.5,10.419697 95.702765,10.419697 Z"></path>
                    <path d="M86.8548387,0.383333333 L84.1935484,0.383333333 C83.7788018,0.383333333 83.5714286,0.418181818 83.3986175,0.766666667 L80.0460829,8.36363636 L80.0115207,8.36363636 L76.624424,0.766666667 C76.5207373,0.557575758 76.3479263,0.383333333 76.0714286,0.383333333 L73.0645161,0.383333333 C72.5806452,0.383333333 72.3041475,0.836363636 72.5115207,1.25454545 L77.937788,12.8939394 L75.9677419,17.4939394 C75.7258065,17.9818182 76.0368664,18.4 76.5207373,18.4 L79.3894009,18.4 C79.6658986,18.4 79.8732719,18.1909091 79.9423963,17.9818182 L87.4078341,1.25454545 C87.6843318,0.801515152 87.4078341,0.383333333 86.8548387,0.383333333 Z"></path>
                    <path d="M65.1497696,0.0348484848 C61.1751152,0.0348484848 58.3410138,3.31060606 58.3410138,7.10909091 C58.3410138,10.9772727 61.1751152,14.1833333 65.1843318,14.1833333 C67.2926267,14.1833333 68.8133641,13.5560606 69.9193548,12.6151515 C70.1958525,12.3712121 70.2304147,11.9530303 70.0230415,11.6393939 L69.0552995,10.2454545 C68.8479263,9.93181818 68.4331797,9.86212121 68.1221198,10.0363636 C67.3271889,10.4545455 66.3940092,10.6984848 65.1497696,10.6984848 C63.2142857,10.6984848 62.2465438,9.72272727 62.1428571,8.36363636 L70.6797235,8.36363636 C70.9907834,8.36363636 71.2672811,8.11969697 71.3018433,7.80606061 C71.3364055,7.56212121 71.3709677,7.14393939 71.3709677,6.9 C71.3709677,3.24090909 69.1589862,0.0348484848 65.1497696,0.0348484848 Z M62.4193548,5.43636364 C62.5921659,4.1469697 63.6981567,3.13636364 65.0115207,3.13636364 C66.2903226,3.13636364 67.3617512,4.18181818 67.4654378,5.43636364 L62.4193548,5.43636364 Z"></path>
                    <path d="M16.7281106,0.0348484848 C14.3087558,0.0348484848 12.5806452,1.53333333 12.0276498,2.12575758 C10.921659,0.766666667 9.57373272,0.0348484848 7.67281106,0.0348484848 C5.70276498,0.0348484848 4.3202765,0.975757576 3.55990783,1.63787879 C3.31797235,1.28939394 3.04147465,0.766666667 3.04147465,0.766666667 C2.90322581,0.557575758 2.73041475,0.383333333 2.45391705,0.383333333 L0.898617512,0.383333333 C0.552995392,0.383333333 0.276497696,0.662121212 0.276497696,1.01060606 L0.276497696,13.2075758 C0.276497696,13.5560606 0.587557604,13.8348485 0.898617512,13.8348485 L3.59447005,13.8348485 C3.94009217,13.8348485 4.21658986,13.5212121 4.21658986,13.2075758 L4.21658986,5.78484848 C4.56221198,4.87878788 5.35714286,3.65909091 7.01612903,3.65909091 C8.70967742,3.65909091 9.50460829,4.77424242 9.50460829,6.51666667 L9.50460829,13.1727273 C9.50460829,13.5212121 9.78110599,13.8 10.1267281,13.8 L12.6152074,13.8 C12.9608295,13.8 13.2373272,13.4863636 13.2373272,13.1727273 L13.2373272,6.37727273 C13.2373272,5.78484848 13.202765,5.08787879 13.202765,5.08787879 C13.202765,5.08787879 14.0668203,3.65909091 16.0023041,3.65909091 C17.6612903,3.65909091 18.4907834,4.77424242 18.4907834,6.51666667 L18.4907834,13.1727273 C18.4907834,13.5212121 18.7672811,13.8 19.1129032,13.8 L21.8087558,13.8 C22.1889401,13.8 22.4308756,13.4863636 22.4308756,13.1727273 L22.4308756,6.76060606 C22.5691244,3.24090909 20.9792627,0.0348484848 16.7281106,0.0348484848 Z"></path>
                    <path d="M117.822581,0.383333333 L115.299539,0.383333333 C114.781106,0.383333333 114.573733,0.522727273 114.573733,1.01060606 L114.573733,8.01515152 C114.366359,9.23484848 113.294931,10.5242424 111.912442,10.5242424 C110.391705,10.5242424 109.458525,9.40909091 109.458525,7.63181818 L109.458525,1.01060606 C109.458525,0.627272727 109.147465,0.383333333 108.836406,0.383333333 L106.105991,0.383333333 C105.760369,0.383333333 105.483871,0.662121212 105.483871,1.01060606 L105.483871,7.52727273 C105.483871,10.9772727 106.970046,14.1484848 111.117512,14.1484848 C113.294931,14.1484848 114.539171,13.1727273 115.230415,12.5454545 C115.47235,12.8939394 115.748848,13.4166667 115.748848,13.4166667 C115.887097,13.6257576 116.059908,13.8 116.336406,13.8 L117.891705,13.8 C118.237327,13.8 118.513825,13.5212121 118.513825,13.1727273 L118.513825,0.975757576 C118.4447,0.627272727 118.133641,0.383333333 117.822581,0.383333333 Z"></path>
                    <path d="M49.6658986,0.0348484848 C47.5230415,0.0348484848 46.0368664,1.04545455 45.3110599,1.67272727 L45.3110599,1.63787879 C45.0691244,1.28939394 44.7926267,0.766666667 44.7926267,0.766666667 C44.6543779,0.557575758 44.4815668,0.383333333 44.2050691,0.383333333 L42.6497696,0.383333333 C42.3041475,0.383333333 42.0276498,0.662121212 42.0276498,1.01060606 L42.0276498,13.2075758 C42.0276498,13.5560606 42.3387097,13.8348485 42.6497696,13.8348485 L45.3456221,13.8348485 C45.6912442,13.8348485 45.9677419,13.5212121 45.9677419,13.2075758 L45.9677419,5.71515152 C46.3133641,4.80909091 47.3847926,3.65909091 49.078341,3.65909091 C50.6682028,3.65909091 51.5668203,4.77424242 51.5668203,6.51666667 L51.5668203,13.1727273 C51.5668203,13.5212121 51.843318,13.8 52.1889401,13.8 L54.9193548,13.8 C55.264977,13.8 55.5414747,13.4863636 55.5414747,13.1727273 L55.5414747,6.72575758 C55.6105991,3.24090909 53.9170507,0.0348484848 49.6658986,0.0348484848 Z"></path>
                </g>
                <path d="M32.281106,0.0348484848 C28.4101382,0.0348484848 25.264977,3.20606061 25.264977,7.10909091 C25.264977,11.0121212 28.4101382,14.1833333 32.281106,14.1833333 C36.1520737,14.1833333 39.297235,11.0121212 39.297235,7.10909091 C39.297235,3.20606061 36.1520737,0.0348484848 32.281106,0.0348484848 Z M32.281106,10.419697 C30.483871,10.419697 28.9976959,8.92121212 28.9976959,7.10909091 C28.9976959,5.2969697 30.483871,3.79848485 32.281106,3.79848485 C34.078341,3.79848485 35.5645161,5.2969697 35.5645161,7.10909091 C35.5645161,8.92121212 34.1129032,10.419697 32.281106,10.419697 Z" id="Shape"></path>
            </g>
        </g>
        <g id="iDeal_betalen-cmyk" transform="translate(261.000000, 16.000000)">
            <g id="Group-3">
                <mask id="mask-2" fill="white">
                    <use xlink:href="#path-1"></use>
                </mask>
                <g id="Clip-2"></g>
                <path d="M0,0.00113627639 L0,37 L22.0977073,37 C36.6751438,37 42.9963621,29.0302284 42.9963621,18.4634971 C42.9963621,7.93866603 36.6751438,0.00113627639 22.0977073,0.00113627639 L0,0.00113627639" id="Fill-1" fill="#FFFFFE" mask="url(#mask-2)"></path>
            </g>
            <path d="M4.29956345,4.20202111 L4.29956345,32.7991152 L22.1007631,32.7991152 C32.8481438,32.7991152 38.6968714,27.9119904 38.6968714,18.4634971 C38.6968714,8.7550096 32.3584822,4.20202111 22.1007631,4.20202111 L4.29956345,4.20202111 Z M2.38799154,2.33540307 L22.1007631,2.33540307 C35.4811844,2.33540307 40.6072792,9.46745489 40.6072792,18.4634971 C40.6072792,29.2510211 33.4466514,34.6643129 22.1007631,34.6643129 L2.38799154,34.6643129 L2.38799154,2.33540307 L2.38799154,2.33540307 Z" id="Fill-4" fill="#1A1919"></path>
            <polygon id="Fill-5" fill="#1A1919" points="6.68748223 30.4671209 12.385819 30.4671209 12.385819 20.5675969 6.68748223 20.5675969"></polygon>
            <path d="M13.0773113,15.5790595 C13.0773113,17.488572 11.4926413,19.0364645 9.53581387,19.0364645 C7.5806599,19.0364645 5.99482572,17.488572 5.99482572,15.5790595 C5.99482572,13.6706833 7.5806599,12.1227908 9.53581387,12.1227908 C11.4926413,12.1227908 13.0773113,13.6706833 13.0773113,15.5790595" id="Fill-6" fill="#1A1919"></path>
            <path d="M15.2536497,13.9678906 L15.2536497,17.1949155 L16.2678968,17.1949155 C16.9715398,17.1949155 17.6208325,16.9955701 17.6208325,15.5539194 C17.6208325,14.1481324 16.8994365,13.9678906 16.2678968,13.9678906 L15.2536497,13.9678906 Z M32.182335,12.3614798 L33.8244839,12.3614798 L33.8244839,17.1949155 L36.2558393,17.1949155 C35.5899577,8.42676775 28.5241337,6.53152975 22.1025821,6.53152975 L15.2554687,6.53152975 L15.2554687,12.3651017 L16.2678968,12.3651017 C18.1166785,12.3651017 19.2629086,13.587167 19.2629086,15.5539194 C19.2629086,17.5840192 18.1440355,18.7965681 16.2678968,18.7965681 L15.2554687,18.7965681 L15.2554687,30.4683282 L22.1025821,30.4683282 C32.5413232,30.4683282 36.174423,25.7350979 36.3022589,18.7952898 L32.182335,18.7952898 L32.182335,12.3614798 Z M27.6076734,15.9525393 L28.7966853,15.9525393 L28.2520914,14.1337159 L28.1530677,14.1337159 L27.6076734,15.9525393 Z M25.046736,18.7988407 L27.0360863,12.3614798 L29.371401,12.3614798 L31.3571134,18.7988407 L29.6483181,18.7988407 L29.2765973,17.5529846 L27.1289983,17.5529846 L26.7555313,18.7988407 L25.046736,18.7988407 Z M24.3369814,17.1949155 L24.3369814,18.7965681 L20.2759188,18.7965681 L20.2759188,12.3651017 L24.2061624,12.3651017 L24.2061624,13.9666833 L21.9179222,13.9666833 L21.9179222,14.7101631 L24.0833469,14.7101631 L24.0833469,16.3141593 L21.9179222,16.3141593 L21.9179222,17.1949155 L24.3369814,17.1949155 L24.3369814,17.1949155 Z" id="Fill-7" fill="#C91A68"></path>
        </g>
    </g>
</svg>