<?xml version="1.0" encoding="UTF-8"?>
<svg width="320px" height="200px" viewBox="0 0 320 200" version="1.1" xmlns="http://www.w3.org/2000/svg" xmlns:xlink="http://www.w3.org/1999/xlink">
    <!-- Generator: Sketch 49.3 (51167) - http://www.bohemiancoding.com/sketch -->
    <title>regiobank</title>
    <desc>Created with Sketch.</desc>
    <defs>
        <rect id="path-1" x="0" y="0" width="320" height="200" rx="25"></rect>
        <polygon id="path-3" points="0.00436548223 36.995739 42.9963621 36.995739 42.9963621 0.00113627639 0.00436548223 0.00113627639"></polygon>
    </defs>
    <g id="regiobank" stroke="none" stroke-width="1" fill="none" fill-rule="evenodd">
        <g id="Group">
            <mask id="mask-2" fill="white">
                <use xlink:href="#path-1"></use>
            </mask>
            <use id="Mask" fill="#D8D8D8" xlink:href="#path-1"></use>
            <g mask="url(#mask-2)">
                <g transform="translate(-5.000000, 0.000000)">
                    <rect id="Rectangle-2" fill="#C03724" x="5" y="0" width="320" height="200"></rect>
                    <rect id="Rectangle-2-Copy" fill="#FFFFFF" x="0" y="0" width="339" height="65"></rect>
                </g>
            </g>
        </g>
        <g id="iDeal_betalen-cmyk" transform="translate(261.000000, 16.000000)">
            <g id="Group-3">
                <mask id="mask-4" fill="white">
                    <use xlink:href="#path-3"></use>
                </mask>
                <g id="Clip-2"></g>
                <path d="M0,0.00113627639 L0,37 L22.0977073,37 C36.6751438,37 42.9963621,29.0302284 42.9963621,18.4634971 C42.9963621,7.93866603 36.6751438,0.00113627639 22.0977073,0.00113627639 L0,0.00113627639" id="Fill-1" fill="#FFFFFE" mask="url(#mask-4)"></path>
            </g>
            <path d="M4.29956345,4.20202111 L4.29956345,32.7991152 L22.1007631,32.7991152 C32.8481438,32.7991152 38.6968714,27.9119904 38.6968714,18.4634971 C38.6968714,8.7550096 32.3584822,4.20202111 22.1007631,4.20202111 L4.29956345,4.20202111 Z M2.38799154,2.33540307 L22.1007631,2.33540307 C35.4811844,2.33540307 40.6072792,9.46745489 40.6072792,18.4634971 C40.6072792,29.2510211 33.4466514,34.6643129 22.1007631,34.6643129 L2.38799154,34.6643129 L2.38799154,2.33540307 L2.38799154,2.33540307 Z" id="Fill-4" fill="#1A1919"></path>
            <polygon id="Fill-5" fill="#1A1919" points="6.68748223 30.4671209 12.385819 30.4671209 12.385819 20.5675969 6.68748223 20.5675969"></polygon>
            <path d="M13.0773113,15.5790595 C13.0773113,17.488572 11.4926413,19.0364645 9.53581387,19.0364645 C7.5806599,19.0364645 5.99482572,17.488572 5.99482572,15.5790595 C5.99482572,13.6706833 7.5806599,12.1227908 9.53581387,12.1227908 C11.4926413,12.1227908 13.0773113,13.6706833 13.0773113,15.5790595" id="Fill-6" fill="#1A1919"></path>
            <path d="M15.2536497,13.9678906 L15.2536497,17.1949155 L16.2678968,17.1949155 C16.9715398,17.1949155 17.6208325,16.9955701 17.6208325,15.5539194 C17.6208325,14.1481324 16.8994365,13.9678906 16.2678968,13.9678906 L15.2536497,13.9678906 Z M32.182335,12.3614798 L33.8244839,12.3614798 L33.8244839,17.1949155 L36.2558393,17.1949155 C35.5899577,8.42676775 28.5241337,6.53152975 22.1025821,6.53152975 L15.2554687,6.53152975 L15.2554687,12.3651017 L16.2678968,12.3651017 C18.1166785,12.3651017 19.2629086,13.587167 19.2629086,15.5539194 C19.2629086,17.5840192 18.1440355,18.7965681 16.2678968,18.7965681 L15.2554687,18.7965681 L15.2554687,30.4683282 L22.1025821,30.4683282 C32.5413232,30.4683282 36.174423,25.7350979 36.3022589,18.7952898 L32.182335,18.7952898 L32.182335,12.3614798 Z M27.6076734,15.9525393 L28.7966853,15.9525393 L28.2520914,14.1337159 L28.1530677,14.1337159 L27.6076734,15.9525393 Z M25.046736,18.7988407 L27.0360863,12.3614798 L29.371401,12.3614798 L31.3571134,18.7988407 L29.6483181,18.7988407 L29.2765973,17.5529846 L27.1289983,17.5529846 L26.7555313,18.7988407 L25.046736,18.7988407 Z M24.3369814,17.1949155 L24.3369814,18.7965681 L20.2759188,18.7965681 L20.2759188,12.3651017 L24.2061624,12.3651017 L24.2061624,13.9666833 L21.9179222,13.9666833 L21.9179222,14.7101631 L24.0833469,14.7101631 L24.0833469,16.3141593 L21.9179222,16.3141593 L21.9179222,17.1949155 L24.3369814,17.1949155 L24.3369814,17.1949155 Z" id="Fill-7" fill="#C91A68"></path>
        </g>
        <g id="logo-regiobank" transform="translate(20.000000, 17.000000)" fill="#CB0F13">
            <g id="RB_logo">
                <g id="Group">
                    <g id="Shape">
                        <path d="M61.8639344,17.5753846 C61.8639344,22.0215385 60.4696721,23.8523077 58.197541,23.8523077 C55.9770492,23.8523077 54.5827869,22.0215385 54.5827869,17.5753846 C54.5827869,13.2338462 55.9770492,11.2984615 58.197541,11.2984615 C60.4696721,11.3507692 61.8639344,13.2338462 61.8639344,17.5753846 M65.2721311,17.5753846 C65.2721311,11.9784615 62.5868852,8.47384615 58.2491803,8.47384615 C53.9114754,8.47384615 51.2262295,11.9261538 51.2262295,17.5753846 C51.2262295,23.2246154 53.9114754,26.6246154 58.2491803,26.6246154 C62.6385246,26.6246154 65.2721311,23.1723077 65.2721311,17.5753846 M49.5737705,25.6307692 L49.5737705,9.52 C49.5737705,9.10153846 49.1606557,8.73538462 48.7991803,8.73538462 L47.1983607,8.73538462 C46.7852459,8.73538462 46.3721311,9.10153846 46.3721311,9.52 L46.3721311,25.6307692 C46.3721311,26.0492308 46.7852459,26.4153846 47.1983607,26.4153846 L48.7991803,26.4153846 C49.2122951,26.4676923 49.5737705,26.1015385 49.5737705,25.6307692 M50.1934426,2.56307692 C50.1934426,1.30769231 49.2122951,0.313846154 47.9729508,0.313846154 C46.7336066,0.313846154 45.752459,1.36 45.752459,2.56307692 C45.752459,3.81846154 46.7336066,4.86461538 47.9729508,4.86461538 C49.2122951,4.86461538 50.1934426,3.81846154 50.1934426,2.56307692 M40.2786885,14.9076923 C40.2786885,18.2030769 38.7295082,18.8830769 37.0770492,18.8830769 C35.3213115,18.8830769 33.8754098,18.3076923 33.8754098,14.9076923 C33.8754098,11.6646154 35.3213115,11.0892308 37.0770492,11.0892308 C38.8327869,11.0369231 40.2786885,11.6646154 40.2786885,14.9076923 M44.8745902,28.0892308 C44.8745902,25.0553846 42.757377,23.3292308 39.5040984,23.3292308 L36.5090164,23.3292308 C35.2180328,23.3292308 34.65,23.12 34.65,22.3353846 C34.65,21.9169231 34.9598361,21.5507692 35.3213115,21.1846154 C35.8377049,21.3415385 36.457377,21.3938462 37.0770492,21.3938462 C41.104918,21.3938462 43.6352459,18.9353846 43.6352459,14.9076923 C43.6352459,13.6523077 43.1188525,12.4492308 42.3442623,11.4030769 L43.5319672,11.2461538 C43.945082,11.1938462 44.254918,10.9323077 44.254918,10.4615385 L44.254918,9.52 C44.254918,9.04923077 43.945082,8.68307692 43.4803279,8.68307692 L39.3491803,8.68307692 C38.5745902,8.68307692 37.8516393,8.52615385 37.1286885,8.52615385 C33.2557377,8.52615385 30.6221311,10.8276923 30.6221311,14.9076923 C30.6221311,17.3138462 31.654918,19.1446154 33.2040984,20.1907692 C32.3262295,20.9753846 31.6032787,21.9692308 31.6032787,23.2246154 C31.6032787,25.3692308 33.4622951,26.1015385 35.5795082,26.1015385 L39.0909836,26.1015385 C41.0532787,26.1015385 41.7762295,26.8861538 41.7762295,28.4030769 C41.7762295,30.0246154 40.0204918,31.0184615 37.8516393,31.0184615 C36.147541,31.0184615 34.2885246,30.7046154 33.9786885,28.7692308 C33.9270492,28.2984615 33.6172131,28.0369231 33.2040984,27.9846154 L31.3967213,27.9323077 C30.9836066,27.9323077 30.6221311,28.2461538 30.6221311,28.7169231 C30.6737705,32.6923077 34.2885246,33.8430769 37.8,33.8430769 C41.0016393,33.8953846 44.8745902,32.3261538 44.8745902,28.0892308 M25.8713115,15.9015385 L19.4163934,15.9015385 C19.7778689,12.0830769 21.3786885,11.1938462 22.7213115,11.1938462 C24.9934426,11.1938462 25.7680328,13.5476923 25.8713115,15.9015385 M29.2278689,17.6276923 C29.2278689,10.88 26.3360656,8.52615385 22.6696721,8.52615385 C18.6934426,8.52615385 16.0081967,11.9784615 16.0081967,17.5230769 C16.0081967,23.5384615 18.7967213,26.6246154 23.7540984,26.6246154 C25.8713115,26.6246154 27.0590164,26.3107692 28.2467213,25.7876923 C28.6598361,25.6307692 28.8663934,25.2646154 28.7114754,24.7938462 L28.2983607,23.6430769 C28.1434426,23.2246154 27.8852459,22.9630769 27.3172131,23.12 C26.2844262,23.4338462 25.3032787,23.7476923 23.9090164,23.7476923 C20.6557377,23.7476923 19.5713115,21.8646154 19.4163934,18.4646154 L28.4016393,18.4646154 C28.8663934,18.4123077 29.2278689,18.0461538 29.2278689,17.6276923 M11.3090164,8.42153846 C11.3090164,10.9323077 9.65655738,12.5015385 6.97131148,12.5015385 L3.71803279,12.5015385 L3.71803279,4.86461538 L7.38442623,4.86461538 C9.96639344,4.86461538 11.3090164,6.43384615 11.3090164,8.42153846 M16.2663934,25.4738462 C15.0270492,21.9169231 13.7877049,18.7261538 13.3229508,17.8369231 C12.5483607,16.1107692 11.1540984,14.3846154 9.19180328,14.0184615 C9.24344262,14.0184615 9.39836066,13.9661538 9.50163934,13.9661538 C13.1680328,13.4430769 14.7688525,10.7230769 14.7688525,7.95076923 C14.7688525,5.59692308 13.4778689,1.83076923 7.48770492,1.83076923 L1.18770492,1.83076923 C0.774590164,1.83076923 0.36147541,2.19692308 0.36147541,2.61538462 L0.36147541,25.6307692 C0.36147541,26.0492308 0.774590164,26.4153846 1.18770492,26.4153846 L2.94344262,26.4153846 C3.35655738,26.4153846 3.71803279,26.0492308 3.71803279,25.6307692 L3.71803279,15.3784615 L5.42213115,15.3784615 C7.90081967,15.3784615 8.9852459,16.8953846 9.81147541,18.4646154 C10.8442623,20.3476923 11.5155738,23.0153846 12.445082,25.84 C12.6,26.3107692 12.9098361,26.4153846 13.3229508,26.4153846 L15.6983607,26.4153846 C16.3696721,26.4676923 16.4729508,26.0492308 16.2663934,25.4738462"></path>
                        <path d="M125.690164,25.4738462 L119.751639,16.32 L124.605738,9.62461538 C124.915574,9.20615385 124.709016,8.73538462 124.192623,8.73538462 L121.868852,8.73538462 C121.352459,8.73538462 121.042623,8.99692308 120.836066,9.36307692 L116.446721,16.1107692 L116.446721,1.25538462 C116.446721,0.784615385 116.085246,0.470769231 115.672131,0.470769231 L114.019672,0.470769231 C113.606557,0.470769231 113.245082,0.784615385 113.245082,1.25538462 L113.245082,25.6307692 C113.245082,26.0492308 113.606557,26.4153846 114.019672,26.4153846 L115.672131,26.4153846 C116.085246,26.4153846 116.446721,26.0492308 116.446721,25.6307692 L116.446721,16.8953846 L121.662295,25.7353846 C121.920492,26.1538462 122.230328,26.4153846 122.643443,26.4153846 L125.22541,26.4153846 C125.741803,26.4153846 125.948361,25.8923077 125.690164,25.4738462 L125.690164,25.4738462 Z M111.179508,25.6307692 L111.179508,13.0769231 C111.179508,10.3569231 109.42377,8.52615385 106.738525,8.52615385 C104.827869,8.52615385 103.330328,9.25846154 101.781148,11.0369231 L101.419672,9.41538462 C101.316393,8.94461538 101.058197,8.73538462 100.541803,8.73538462 L99.457377,8.73538462 C99.0442623,8.73538462 98.6311475,9.04923077 98.6311475,9.52 L98.6311475,25.6307692 C98.6311475,26.0492308 99.0442623,26.4153846 99.457377,26.4153846 L101.109836,26.4153846 C101.522951,26.4153846 101.884426,26.0492308 101.884426,25.6307692 L101.884426,15.6923077 C101.884426,13.2338462 103.588525,11.3507692 105.809016,11.3507692 C107.306557,11.3507692 107.87459,12.1353846 107.87459,13.8092308 L107.87459,25.6307692 C107.87459,26.0492308 108.287705,26.4153846 108.70082,26.4153846 L110.353279,26.4153846 C110.818033,26.4153846 111.179508,26.0492308 111.179508,25.6307692 L111.179508,25.6307692 Z M93.3122951,20.5569231 C93.3122951,21.9169231 91.8147541,23.9046154 89.542623,23.9046154 C88.2,23.9046154 87.2704918,23.12 87.2704918,21.3415385 C87.2704918,18.6215385 88.8713115,17.9415385 91.0401639,17.8892308 L93.3122951,17.8369231 L93.3122951,20.5569231 Z M96.9786885,25.6307692 L96.7721311,24.5846154 C96.5655738,23.4861538 96.6172131,22.4923077 96.6172131,21.6030769 L96.6172131,15.2215385 C96.6172131,12.24 96.152459,8.52615385 90.4204918,8.52615385 C88.8713115,8.52615385 87.1155738,8.94461538 86.0311475,9.20615385 C85.6180328,9.31076923 85.4114754,9.67692308 85.5147541,10.1476923 L85.8245902,11.5076923 C85.9278689,11.9784615 86.2893443,12.24 86.7540984,12.0830769 C87.7352459,11.8215385 88.8196721,11.4553846 90.2139344,11.4553846 C92.7959016,11.4553846 93.3639344,12.4492308 93.3639344,14.5415385 L93.3639344,15.4307692 L89.3360656,15.6923077 C86.392623,15.9015385 83.9139344,17.4707692 83.9139344,21.3415385 C83.9139344,24.6369231 85.6696721,26.5723077 88.5614754,26.5723077 C90.5237705,26.5723077 92.4344262,25.84 93.5704918,24.0615385 L93.8286885,25.6830769 C93.8803279,26.2061538 94.2418033,26.4153846 94.654918,26.4153846 L96.307377,26.4153846 C96.7721311,26.4153846 97.0303279,26.1015385 96.9786885,25.6307692 L96.9786885,25.6307692 Z M79.1631148,19.1446154 C79.1631148,21.8123077 77.6655738,23.4338462 75.1868852,23.4338462 L70.642623,23.4338462 L70.642623,14.8553846 L74.5155738,14.8553846 C77.4590164,14.8553846 79.1631148,16.6861538 79.1631148,19.1446154 L79.1631148,19.1446154 Z M78.2852459,8.36923077 C78.2852459,10.6184615 76.8909836,12.0830769 74.2057377,12.0830769 L70.642623,12.0830769 L70.642623,4.70769231 L74.4639344,4.70769231 C77.0459016,4.70769231 78.2852459,6.06769231 78.2852459,8.36923077 L78.2852459,8.36923077 Z M82.7778689,19.5107692 C82.7778689,16.32 81.0221311,13.7569231 77.5622951,13.3384615 C80.5057377,12.4492308 81.6934426,10.6184615 81.6934426,7.89846154 C81.6934426,4.28923077 79.2663934,1.77846154 75.0836066,1.77846154 L68.0606557,1.77846154 C67.647541,1.77846154 67.2344262,2.14461538 67.2344262,2.56307692 L67.2344262,25.5784615 C67.2344262,25.9969231 67.647541,26.3630769 68.0606557,26.3630769 L75.445082,26.3630769 C80.0409836,26.4153846 82.7778689,23.9046154 82.7778689,19.5107692 L82.7778689,19.5107692 Z"></path>
                    </g>
                </g>
            </g>
        </g>
    </g>
</svg>