<?xml version="1.0" encoding="UTF-8"?>
<svg width="320px" height="200px" viewBox="0 0 320 200" version="1.1" xmlns="http://www.w3.org/2000/svg" xmlns:xlink="http://www.w3.org/1999/xlink">
    <!-- Generator: Sketch 49.3 (51167) - http://www.bohemiancoding.com/sketch -->
    <title>sns</title>
    <desc>Created with Sketch.</desc>
    <defs>
        <rect id="path-1" x="0" y="0" width="320" height="200" rx="25"></rect>
        <polygon id="path-3" points="0.00436548223 36.995739 42.9963621 36.995739 42.9963621 0.00113627639 0.00436548223 0.00113627639"></polygon>
        <linearGradient x1="42.6460743%" y1="34.8020826%" x2="82.49354%" y2="57.5500462%" id="linearGradient-5">
            <stop stop-color="#EF4130" offset="0%"></stop>
            <stop stop-color="#C53526" offset="100%"></stop>
        </linearGradient>
        <linearGradient x1="-1.77844548%" y1="31.4715691%" x2="98.2196578%" y2="88.5580907%" id="linearGradient-6">
            <stop stop-color="#D3D2EA" offset="0%"></stop>
            <stop stop-color="#8785C0" offset="100%"></stop>
        </linearGradient>
        <linearGradient x1="92.3921472%" y1="62.9203068%" x2="-21.8523898%" y2="44.9035542%" id="linearGradient-7">
            <stop stop-color="#7474B6" offset="0%"></stop>
            <stop stop-color="#BBBADD" offset="100%"></stop>
        </linearGradient>
        <linearGradient x1="103.96829%" y1="96.6201313%" x2="1.28678833%" y2="1.76697948%" id="linearGradient-8">
            <stop stop-color="#6867AF" offset="0%"></stop>
            <stop stop-color="#C0C2E2" offset="100%"></stop>
        </linearGradient>
        <linearGradient x1="20.514422%" y1="25.7125429%" x2="66.078211%" y2="122.205719%" id="linearGradient-9">
            <stop stop-color="#EF4130" offset="0%"></stop>
            <stop stop-color="#A82B1C" offset="100%"></stop>
        </linearGradient>
        <linearGradient x1="3.54833136%" y1="1.75354559%" x2="105.996051%" y2="102.574441%" id="linearGradient-10">
            <stop stop-color="#F15A38" offset="0%"></stop>
            <stop stop-color="#831B0A" offset="100%"></stop>
        </linearGradient>
        <linearGradient x1="42.8222328%" y1="-12.8308518%" x2="79.9301798%" y2="111.273621%" id="linearGradient-11">
            <stop stop-color="#EEEDF7" offset="0%"></stop>
            <stop stop-color="#B0AED7" offset="100%"></stop>
        </linearGradient>
        <linearGradient x1="-90.3283228%" y1="45.6745328%" x2="174.878856%" y2="54.319673%" id="linearGradient-12">
            <stop stop-color="#FFFFFF" offset="0%"></stop>
            <stop stop-color="#B0AED7" offset="100%"></stop>
        </linearGradient>
        <linearGradient x1="13.4003842%" y1="47.8525803%" x2="97.5510887%" y2="88.9416356%" id="linearGradient-13">
            <stop stop-color="#FFEF97" offset="0%"></stop>
            <stop stop-color="#FFD540" offset="100%"></stop>
        </linearGradient>
        <linearGradient x1="6.81416962%" y1="23.3681086%" x2="123.716568%" y2="58.0214186%" id="linearGradient-14">
            <stop stop-color="#F8A084" offset="0%"></stop>
            <stop stop-color="#EF4130" offset="100%"></stop>
        </linearGradient>
        <linearGradient x1="-1.97189273%" y1="99.6722416%" x2="102.411102%" y2="-6.395152%" id="linearGradient-15">
            <stop stop-color="#F8A084" offset="0%"></stop>
            <stop stop-color="#EF4130" offset="100%"></stop>
        </linearGradient>
        <linearGradient x1="-7.12236506%" y1="38.8040146%" x2="85.9320846%" y2="60.6711513%" id="linearGradient-16">
            <stop stop-color="#426AB3" offset="0%"></stop>
            <stop stop-color="#143F90" offset="100%"></stop>
        </linearGradient>
        <linearGradient x1="1.08115139%" y1="51.8991252%" x2="101.238841%" y2="51.8991252%" id="linearGradient-17">
            <stop stop-color="#426AB3" offset="0%"></stop>
            <stop stop-color="#375FA9" offset="14.99%"></stop>
            <stop stop-color="#244E9B" offset="48.11%"></stop>
            <stop stop-color="#184393" offset="77.52%"></stop>
            <stop stop-color="#143F90" offset="100%"></stop>
        </linearGradient>
        <linearGradient x1="-2.47670718%" y1="24.5644715%" x2="107.706227%" y2="75.115587%" id="linearGradient-18">
            <stop stop-color="#5664A4" offset="0%"></stop>
            <stop stop-color="#40559A" offset="24.1%"></stop>
            <stop stop-color="#2A4791" offset="53.66%"></stop>
            <stop stop-color="#193F8C" offset="79.92%"></stop>
            <stop stop-color="#133C8B" offset="100%"></stop>
        </linearGradient>
        <linearGradient x1="49.7336007%" y1="0.674282353%" x2="57.025657%" y2="102.582906%" id="linearGradient-19">
            <stop stop-color="#FFFFFF" offset="0%"></stop>
            <stop stop-color="#D1D0E8" offset="100%"></stop>
        </linearGradient>
        <linearGradient x1="-17.7238477%" y1="39.003616%" x2="122.599907%" y2="61.8656378%" id="linearGradient-20">
            <stop stop-color="#FFFFFF" offset="0%"></stop>
            <stop stop-color="#C7C6E3" offset="100%"></stop>
        </linearGradient>
        <linearGradient x1="5.09561591%" y1="12.3222985%" x2="94.1860272%" y2="55.6219172%" id="linearGradient-21">
            <stop stop-color="#C7C6E3" offset="0%"></stop>
            <stop stop-color="#7474B6" offset="100%"></stop>
        </linearGradient>
        <linearGradient x1="-2.15185378%" y1="0.168299656%" x2="60.7840815%" y2="89.322633%" id="linearGradient-22">
            <stop stop-color="#EF4130" offset="0%"></stop>
            <stop stop-color="#B22E20" offset="100%"></stop>
        </linearGradient>
        <linearGradient x1="-1.44687091%" y1="104.896914%" x2="102.935398%" y2="-1.1696288%" id="linearGradient-23">
            <stop stop-color="#EF4130" offset="0%"></stop>
            <stop stop-color="#9E2718" offset="100%"></stop>
        </linearGradient>
        <linearGradient x1="40.3731817%" y1="42.1605523%" x2="105.745278%" y2="95.8645223%" id="linearGradient-24">
            <stop stop-color="#F8ABA6" offset="0%"></stop>
            <stop stop-color="#F48594" offset="100%"></stop>
        </linearGradient>
        <linearGradient x1="1.39883108%" y1="48.6454856%" x2="101.5526%" y2="48.6454856%" id="linearGradient-25">
            <stop stop-color="#F8ABA6" offset="0%"></stop>
            <stop stop-color="#F37C90" offset="100%"></stop>
        </linearGradient>
    </defs>
    <g id="sns" stroke="none" stroke-width="1" fill="none" fill-rule="evenodd">
        <g id="Group">
            <mask id="mask-2" fill="white">
                <use xlink:href="#path-1"></use>
            </mask>
            <use id="Mask" fill="#D8D8D8" xlink:href="#path-1"></use>
            <g mask="url(#mask-2)">
                <rect id="Rectangle-2" fill="#572771" x="0" y="0" width="320" height="200"></rect>
                <rect id="Rectangle-2-Copy" fill="#60CBF7" x="271" y="0" width="33" height="200"></rect>
            </g>
        </g>
        <g id="iDeal_betalen-cmyk" transform="translate(261.000000, 16.000000)">
            <g id="Group-3">
                <mask id="mask-4" fill="white">
                    <use xlink:href="#path-3"></use>
                </mask>
                <g id="Clip-2"></g>
                <path d="M0,0.00113627639 L0,37 L22.0977073,37 C36.6751438,37 42.9963621,29.0302284 42.9963621,18.4634971 C42.9963621,7.93866603 36.6751438,0.00113627639 22.0977073,0.00113627639 L0,0.00113627639" id="Fill-1" fill="#FFFFFE" mask="url(#mask-4)"></path>
            </g>
            <path d="M4.29956345,4.20202111 L4.29956345,32.7991152 L22.1007631,32.7991152 C32.8481438,32.7991152 38.6968714,27.9119904 38.6968714,18.4634971 C38.6968714,8.7550096 32.3584822,4.20202111 22.1007631,4.20202111 L4.29956345,4.20202111 Z M2.38799154,2.33540307 L22.1007631,2.33540307 C35.4811844,2.33540307 40.6072792,9.46745489 40.6072792,18.4634971 C40.6072792,29.2510211 33.4466514,34.6643129 22.1007631,34.6643129 L2.38799154,34.6643129 L2.38799154,2.33540307 L2.38799154,2.33540307 Z" id="Fill-4" fill="#1A1919"></path>
            <polygon id="Fill-5" fill="#1A1919" points="6.68748223 30.4671209 12.385819 30.4671209 12.385819 20.5675969 6.68748223 20.5675969"></polygon>
            <path d="M13.0773113,15.5790595 C13.0773113,17.488572 11.4926413,19.0364645 9.53581387,19.0364645 C7.5806599,19.0364645 5.99482572,17.488572 5.99482572,15.5790595 C5.99482572,13.6706833 7.5806599,12.1227908 9.53581387,12.1227908 C11.4926413,12.1227908 13.0773113,13.6706833 13.0773113,15.5790595" id="Fill-6" fill="#1A1919"></path>
            <path d="M15.2536497,13.9678906 L15.2536497,17.1949155 L16.2678968,17.1949155 C16.9715398,17.1949155 17.6208325,16.9955701 17.6208325,15.5539194 C17.6208325,14.1481324 16.8994365,13.9678906 16.2678968,13.9678906 L15.2536497,13.9678906 Z M32.182335,12.3614798 L33.8244839,12.3614798 L33.8244839,17.1949155 L36.2558393,17.1949155 C35.5899577,8.42676775 28.5241337,6.53152975 22.1025821,6.53152975 L15.2554687,6.53152975 L15.2554687,12.3651017 L16.2678968,12.3651017 C18.1166785,12.3651017 19.2629086,13.587167 19.2629086,15.5539194 C19.2629086,17.5840192 18.1440355,18.7965681 16.2678968,18.7965681 L15.2554687,18.7965681 L15.2554687,30.4683282 L22.1025821,30.4683282 C32.5413232,30.4683282 36.174423,25.7350979 36.3022589,18.7952898 L32.182335,18.7952898 L32.182335,12.3614798 Z M27.6076734,15.9525393 L28.7966853,15.9525393 L28.2520914,14.1337159 L28.1530677,14.1337159 L27.6076734,15.9525393 Z M25.046736,18.7988407 L27.0360863,12.3614798 L29.371401,12.3614798 L31.3571134,18.7988407 L29.6483181,18.7988407 L29.2765973,17.5529846 L27.1289983,17.5529846 L26.7555313,18.7988407 L25.046736,18.7988407 Z M24.3369814,17.1949155 L24.3369814,18.7965681 L20.2759188,18.7965681 L20.2759188,12.3651017 L24.2061624,12.3651017 L24.2061624,13.9666833 L21.9179222,13.9666833 L21.9179222,14.7101631 L24.0833469,14.7101631 L24.0833469,16.3141593 L21.9179222,16.3141593 L21.9179222,17.1949155 L24.3369814,17.1949155 L24.3369814,17.1949155 Z" id="Fill-7" fill="#C91A68"></path>
        </g>
        <g id="SNS_Reaal-(1)" transform="translate(59.000000, 22.000000)" fill="#FFFFFF">
            <g id="Group-108">
                <path d="M10.5920577,0.511347826 C9.60471154,0.315565217 8.61819231,0.241217391 7.50267308,0.241217391 C3.61530769,0.241217391 0.696269231,2.12634783 0.696269231,5.50173913 C0.696269231,11.0720435 7.09003846,10.6086087 7.09003846,13.6106087 C7.09003846,15.1091304 5.91167308,15.9839565 3.55411538,15.9839565 C2.59571154,15.9839565 1.23376923,15.7014348 0.301,15.3379565 L0,18.610087 C1.12461538,18.9165652 2.19961538,18.9991739 3.37963462,18.9991739 C7.46380769,18.9991739 10.6433269,17.128087 10.6433269,13.3578261 C10.6433269,8.06178261 4.19167308,8.98947826 4.19167308,5.22665217 C4.19167308,3.92804348 5.58007692,3.14243478 7.37946154,3.14243478 C8.53963462,3.14243478 9.4815,3.29030435 10.2819615,3.59513043 L10.5920577,0.511347826" id="Fill-106"></path>
            </g>
            <path d="M42.4145385,0.511347826 C41.4263654,0.315565217 40.4398462,0.241217391 39.3243269,0.241217391 C35.4369615,0.241217391 32.5170962,2.12634783 32.5170962,5.50173913 C32.5170962,11.0720435 38.9116923,10.6086087 38.9116923,13.6106087 C38.9116923,15.1091304 37.7341538,15.9839565 35.3757692,15.9839565 C34.4173654,15.9839565 33.0554231,15.7014348 32.1226538,15.3379565 L31.8216538,18.610087 C32.9462692,18.9165652 34.0212692,18.9991739 35.2004615,18.9991739 C39.2862885,18.9991739 42.4649808,17.128087 42.4649808,13.3578261 C42.4649808,8.06178261 36.0141538,8.98947826 36.0141538,5.22665217 C36.0141538,3.92804348 37.4017308,3.14243478 39.2019423,3.14243478 C40.3604615,3.14243478 41.3039808,3.29030435 42.1036154,3.59513043 L42.4145385,0.511347826" id="Fill-109"></path>
            <path d="M26.2903654,0.456826087 L25.7090385,7.59669565 C25.5932692,9.40913043 25.4791538,11.9096957 25.4460769,14.3879565 L25.3609038,14.392087 C24.7374038,12.5416522 23.4151538,9.64786957 22.6998654,8.24847826 C22.6982115,8.246 18.9894615,0.456 18.9894615,0.456 L14.9673077,0.456826087 L13.3209038,18.7331739 L16.5996538,18.7323478 L17.1801538,11.5908261 C17.29675,9.7783913 17.4116923,7.27947826 17.4431154,4.80121739 L17.5282885,4.79708696 C18.1526154,6.64752174 19.4732115,9.54130435 20.1901538,10.9398696 C20.1909808,10.9423478 23.8989038,18.7331739 23.8989038,18.7331739 L27.9227115,18.7323478 L29.5674615,0.456 L26.2903654,0.456826087" id="Fill-110"></path>
        </g>
        <g id="logo_sns" transform="translate(15.000000, 16.000000)">
            <g id="Logo">
                <circle id="Oval" fill="#FFFFFF" cx="16.9575221" cy="16.9575221" r="16.3097345"></circle>
                <g id="Group" transform="translate(16.823009, 13.460177)">
                    <polyline id="Shape" fill="url(#linearGradient-5)" points="0.134513274 3.49734513 6.18761062 0.134513274 15.8389381 8.00353982 0.134513274 3.49734513"></polyline>
                    <polygon id="Shape" fill="#EF4130" points="6.18761062 0.134513274 15.8389381 8.00353982 14.8973451 7.49911504 6.18761062 0.403539823"></polygon>
                    <polygon id="Shape" fill="#F58768" points="0.134513274 3.49734513 6.18761062 0.134513274 6.18761062 0.403539823 0.70619469 3.4300885"></polygon>
                    <polygon id="Shape" fill="#BC3223" points="15.8389381 8.00353982 0.134513274 3.49734513 0.70619469 3.4300885 14.8973451 7.49911504"></polygon>
                </g>
                <g id="Group" transform="translate(16.823009, 1.017699)">
                    <polyline id="Shape" fill="#F8ABA6" points="0.134513274 15.939823 6.18761062 12.5769912 4.64070796 0.23539823 0.134513274 15.939823"></polyline>
                    <polygon id="Shape" fill="#D37482" points="4.64070796 0.23539823 0.134513274 15.939823 0.504424779 15.5026549 4.57345133 1.31150442"></polygon>
                    <polygon id="Shape" fill="#D79592" points="6.18761062 12.5769912 4.64070796 0.23539823 4.57345133 1.31150442 5.95221239 12.4761062"></polygon>
                    <polygon id="Shape" fill="#FBCBC5" points="0.134513274 15.939823 6.18761062 12.5769912 5.95221239 12.4761062 0.504424779 15.5026549"></polygon>
                </g>
                <polyline id="Shape" points="16.9575221 16.9575221 20.320354 23.0106195 12.4513274 32.6619469 16.9575221 16.9575221"></polyline>
                <polygon id="Shape" fill="#F7F6FB" points="20.320354 23.0106195 12.4513274 32.6619469 12.9557522 31.6867257 20.0513274 23.0106195"></polygon>
                <polygon id="Shape" fill="#EEEDF6" points="16.9575221 16.9575221 20.320354 23.0106195 20.0513274 23.0106195 17.0247788 17.5292035"></polygon>
                <polygon id="Shape" fill="#D3D2EA" points="12.4513274 32.6619469 16.9575221 16.9575221 17.0247788 17.5292035 12.9557522 31.6867257"></polygon>
                <g id="Group" transform="translate(16.823009, 16.823009)">
                    <polyline id="Shape" fill="#293896" points="0.134513274 0.134513274 3.49734513 6.18761062 15.8389381 4.64070796 0.134513274 0.134513274"></polyline>
                    <polygon id="Shape" fill="#464EA1" points="15.8389381 4.64070796 0.134513274 0.134513274 0.571681416 0.504424779 14.7628319 4.53982301"></polygon>
                    <polygon id="Shape" fill="#1F2879" points="3.49734513 6.18761062 15.8389381 4.64070796 14.7628319 4.53982301 3.63185841 5.95221239"></polygon>
                    <polygon id="Shape" fill="#8785C0" points="0.134513274 0.134513274 3.49734513 6.18761062 3.63185841 5.95221239 0.571681416 0.504424779"></polygon>
                </g>
                <g id="Group" transform="translate(1.017699, 12.451327)">
                    <polyline id="Shape" fill="url(#linearGradient-6)" points="15.939823 4.50619469 9.88672566 7.86902655 0.23539823 0 15.939823 4.50619469"></polyline>
                    <polygon id="Shape" fill="#B0AED7" points="9.88672566 7.86902655 0.23539823 0 1.21061947 0.504424779 9.92035398 7.6"></polygon>
                    <polygon id="Shape" fill="#A5A3D1" points="15.939823 4.50619469 9.88672566 7.86902655 9.92035398 7.6 15.3681416 4.57345133"></polygon>
                    <polygon id="Shape" fill="#C7C4E2" points="0.23539823 0 15.939823 4.50619469 15.3681416 4.57345133 1.21061947 0.504424779"></polygon>
                </g>
                <g id="Group" transform="translate(10.769912, 16.823009)">
                    <polyline id="Shape" fill="#FFDE17" points="6.18761062 0.134513274 0.134513274 3.49734513 1.68141593 15.8389381 6.18761062 0.134513274"></polyline>
                    <polygon id="Shape" fill="#D3B382" points="1.68141593 15.8389381 6.18761062 0.134513274 5.85132743 0.571681416 1.78230088 14.7628319"></polygon>
                    <polygon id="Shape" fill="#E8C446" points="0.134513274 3.49734513 1.68141593 15.8389381 1.78230088 14.7628319 0.369911504 3.63185841"></polygon>
                    <polygon id="Shape" fill="#FFE06F" points="6.18761062 0.134513274 0.134513274 3.49734513 0.369911504 3.63185841 5.85132743 0.571681416"></polygon>
                </g>
                <g id="Group" transform="translate(13.460177, 1.017699)">
                    <polyline id="Shape" fill="#EF4130" points="3.49734513 15.939823 0.134513274 9.88672566 8.00353982 0.23539823 3.49734513 15.939823"></polyline>
                    <polygon id="Shape" fill="#F26246" points="0.134513274 9.88672566 8.00353982 0.23539823 7.49911504 1.21061947 0.403539823 9.92035398"></polygon>
                    <polygon id="Shape" fill="#D93B2B" points="3.49734513 15.939823 0.134513274 9.88672566 0.403539823 9.92035398 3.4300885 15.3681416"></polygon>
                    <polygon id="Shape" fill="#C53526" points="8.00353982 0.23539823 3.49734513 15.939823 3.4300885 15.3681416 7.49911504 1.21061947"></polygon>
                </g>
                <g id="Group" transform="translate(1.017699, 10.769912)">
                    <polyline id="Shape" fill="#EEEDF7" points="15.939823 6.18761062 12.5769912 0.134513274 0.23539823 1.68141593 15.939823 6.18761062"></polyline>
                    <polygon id="Shape" fill="#F6F4F9" points="0.23539823 1.68141593 15.939823 6.18761062 15.5026549 5.81769912 1.31150442 1.78230088"></polygon>
                    <polygon id="Shape" fill="#D3D2EA" points="12.5769912 0.134513274 0.23539823 1.68141593 1.31150442 1.78230088 12.4761062 0.369911504"></polygon>
                    <polygon id="Shape" fill="#F7F6FB" points="15.939823 6.18761062 12.5769912 0.134513274 12.4761062 0.369911504 15.5026549 5.81769912"></polygon>
                </g>
                <g id="Group" transform="translate(21.194690, 1.017699)">
                    <path d="M7.53274336,4.60707965 C5.58230088,2.58938053 3.12743363,1.07610619 0.269026549,0.23539823 L1.8159292,12.5769912 L7.53274336,4.60707965 Z" id="Shape" fill="url(#linearGradient-7)"></path>
                    <path d="M0.269026549,0.23539823 L1.8159292,12.5769912 L1.95044248,12.0053097 L0.504424779,0.302654867 C0.437168142,0.302654867 0.336283186,0.269026549 0.269026549,0.23539823 L0.269026549,0.23539823 Z" id="Shape" fill="#8785C0"></path>
                    <path d="M7.36460177,4.43893805 L1.9840708,12.0053097 L1.84955752,12.5769912 L7.53274336,4.57345133 C7.46548673,4.53982301 7.43185841,4.47256637 7.36460177,4.43893805 Z" id="Shape" fill="#9A98CB"></path>
                    <path d="M7.53274336,4.60707965 C5.58230088,2.58938053 3.12743363,1.07610619 0.269026549,0.23539823 L0.571681416,0.773451327 C3.12743363,1.58053097 5.34690265,2.99292035 7.12920354,4.77522124 L7.53274336,4.60707965 Z" id="Shape" fill="url(#linearGradient-8)"></path>
                </g>
                <g id="Group" transform="translate(22.876106, 5.389381)">
                    <path d="M0.134513274,8.20530973 L5.81769912,0.201769912 C7.80176991,2.25309735 9.21415929,4.80884956 9.92035398,7.6 L0.134513274,8.20530973 Z" id="Shape" fill="url(#linearGradient-9)"></path>
                    <path d="M5.85132743,0.23539823 L0.134513274,8.20530973 L0.571681416,7.9699115 L5.98584071,0.403539823 C5.95221239,0.336283186 5.88495575,0.269026549 5.85132743,0.23539823 Z" id="Shape" fill="#F37557"></path>
                    <path d="M9.88672566,7.39823009 L0.605309735,7.9699115 L0.168141593,8.20530973 L9.9539823,7.6 C9.92035398,7.53274336 9.88672566,7.46548673 9.88672566,7.39823009 Z" id="Shape" fill="#A82B1C"></path>
                    <path d="M9.44955752,7.43185841 C8.77699115,4.94336283 7.49911504,2.65663717 5.75044248,0.739823009 L5.85132743,0.201769912 C7.83539823,2.25309735 9.24778761,4.80884956 9.9539823,7.6 L9.44955752,7.43185841 Z" id="Shape" fill="url(#linearGradient-10)"></path>
                </g>
                <g id="Group" transform="translate(22.876106, 12.787611)">
                    <path d="M0.134513274,0.807079646 L9.92035398,0.201769912 C10.5929204,2.8920354 10.5929204,5.7840708 9.78584071,8.64247788 L0.134513274,0.807079646 Z" id="Shape" fill="url(#linearGradient-11)"></path>
                    <path d="M9.9539823,0.23539823 L0.168141593,0.840707965 L0.739823009,1.00884956 L10.0212389,0.437168142 C9.98761062,0.369911504 9.9539823,0.302654867 9.9539823,0.23539823 Z" id="Shape" fill="#C7C6E3"></path>
                    <path d="M9.78584071,8.67610619 C9.81946903,8.60884956 9.81946903,8.5079646 9.85309735,8.44070796 L0.70619469,1.00884956 L0.134513274,0.840707965 L9.78584071,8.67610619 L9.78584071,8.67610619 Z" id="Shape" fill="#EEEDF7"></path>
                    <path d="M9.48318584,8.1380531 C10.1557522,5.54867257 10.1557522,2.92566372 9.55044248,0.47079646 L9.9539823,0.23539823 C10.6265487,2.92566372 10.6265487,5.81769912 9.81946903,8.67610619 L9.48318584,8.1380531 Z" id="Shape" fill="url(#linearGradient-12)"></path>
                </g>
                <g id="Group" transform="translate(1.017699, 5.053097)">
                    <path d="M4.60707965,0.168141593 C2.58938053,2.08495575 1.07610619,4.53982301 0.23539823,7.39823009 L12.5769912,5.85132743 L4.60707965,0.168141593 Z" id="Shape" fill="url(#linearGradient-13)"></path>
                    <path d="M0.23539823,7.39823009 L12.5769912,5.85132743 L12.0053097,5.71681416 L0.302654867,7.16283186 C0.302654867,7.2300885 0.269026549,7.33097345 0.23539823,7.39823009 L0.23539823,7.39823009 Z" id="Shape" fill="#FFCB1F"></path>
                    <path d="M4.43893805,0.302654867 L12.0053097,5.68318584 L12.5769912,5.81769912 L4.60707965,0.168141593 C4.53982301,0.201769912 4.50619469,0.269026549 4.43893805,0.302654867 Z" id="Shape" fill="#FFDE17"></path>
                    <path d="M4.60707965,0.168141593 C2.58938053,2.08495575 1.07610619,4.53982301 0.23539823,7.39823009 L0.773451327,7.09557522 C1.58053097,4.53982301 2.99292035,2.32035398 4.77522124,0.538053097 L4.60707965,0.168141593 Z" id="Shape" fill="#FFFAC2"></path>
                </g>
                <g id="Group" transform="translate(5.389381, 1.017699)">
                    <path d="M8.20530973,9.88672566 L0.23539823,4.20353982 C2.28672566,2.21946903 4.84247788,0.807079646 7.63362832,0.100884956 L8.20530973,9.88672566 Z" id="Shape" fill="url(#linearGradient-14)"></path>
                    <path d="M0.23539823,4.20353982 L8.20530973,9.88672566 L7.9699115,9.44955752 L0.403539823,4.03539823 C0.336283186,4.10265487 0.269026549,4.13628319 0.23539823,4.20353982 Z" id="Shape" fill="#EF4130"></path>
                    <path d="M7.39823009,0.134513274 L7.9699115,9.4159292 L8.20530973,9.85309735 L7.63362832,0.100884956 C7.56637168,0.100884956 7.46548673,0.134513274 7.39823009,0.134513274 Z" id="Shape" fill="#EF4130"></path>
                    <path d="M7.43185841,0.605309735 C4.94336283,1.27787611 2.65663717,2.55575221 0.739823009,4.30442478 L0.201769912,4.20353982 C2.25309735,2.21946903 4.80884956,0.807079646 7.6,0.100884956 L7.43185841,0.605309735 Z" id="Shape" fill="url(#linearGradient-15)"></path>
                </g>
                <g id="Group" transform="translate(12.787611, 0.345133)">
                    <path d="M0.807079646,10.559292 L0.23539823,0.773451327 C2.92566372,0.100884956 5.81769912,0.100884956 8.67610619,0.907964602 L0.807079646,10.559292 Z" id="Shape" fill="url(#linearGradient-16)"></path>
                    <path d="M0.23539823,0.773451327 L0.840707965,10.559292 L1.00884956,9.98761062 L0.437168142,0.70619469 C0.369911504,0.739823009 0.302654867,0.739823009 0.23539823,0.773451327 Z" id="Shape" fill="#17479E"></path>
                    <path d="M8.67610619,0.907964602 C8.60884956,0.874336283 8.5079646,0.874336283 8.44070796,0.840707965 L1.00884956,9.98761062 L0.840707965,10.559292 L8.67610619,0.907964602 L8.67610619,0.907964602 Z" id="Shape" fill="#2E3192"></path>
                    <path d="M8.1380531,1.21061947 C5.54867257,0.538053097 2.92566372,0.538053097 0.47079646,1.14336283 L0.23539823,0.739823009 C2.92566372,0.0672566372 5.81769912,0.0672566372 8.67610619,0.874336283 L8.1380531,1.21061947 Z" id="Shape" fill="url(#linearGradient-17)"></path>
                </g>
                <g id="Group" transform="translate(5.053097, 20.185841)">
                    <path d="M0.168141593,8.1380531 C2.08495575,10.1221239 4.57345133,11.6690265 7.43185841,12.4761062 L5.88495575,0.134513274 L0.168141593,8.1380531 Z" id="Shape" fill="#293896"></path>
                    <path d="M7.39823009,12.4761062 L5.85132743,0.134513274 L5.71681416,0.70619469 L7.19646018,12.4088496 C7.26371681,12.4424779 7.33097345,12.4424779 7.39823009,12.4761062 L7.39823009,12.4761062 Z" id="Shape" fill="#1F2879"></path>
                    <path d="M0.302654867,8.27256637 L5.68318584,0.70619469 L5.81769912,0.134513274 L0.168141593,8.1380531 C0.201769912,8.17168142 0.269026549,8.23893805 0.302654867,8.27256637 Z" id="Shape" fill="#595DA9"></path>
                    <path d="M0.168141593,8.1380531 C2.08495575,10.1221239 4.57345133,11.6690265 7.43185841,12.4761062 L7.12920354,11.9380531 C4.57345133,11.1309735 2.3539823,9.71858407 0.571681416,7.93628319 L0.168141593,8.1380531 Z" id="Shape" fill="url(#linearGradient-18)"></path>
                </g>
                <g id="Group" transform="translate(1.017699, 20.185841)">
                    <path d="M9.88672566,0.134513274 L4.20353982,8.1380531 C2.21946903,6.05309735 0.773451327,3.49734513 0.100884956,0.739823009 L9.88672566,0.134513274 Z" id="Shape" fill="url(#linearGradient-19)"></path>
                    <path d="M4.20353982,8.1380531 L9.88672566,0.134513274 L9.44955752,0.369911504 L4.03539823,7.9699115 C4.10265487,8.00353982 4.13628319,8.07079646 4.20353982,8.1380531 Z" id="Shape" fill="#A5A3D1"></path>
                    <path d="M0.134513274,0.94159292 L9.4159292,0.369911504 L9.85309735,0.134513274 L0.100884956,0.739823009 C0.100884956,0.807079646 0.134513274,0.874336283 0.134513274,0.94159292 Z" id="Shape" fill="#D1D0E8"></path>
                    <path d="M0.605309735,0.907964602 C1.27787611,3.39646018 2.55575221,5.68318584 4.30442478,7.6 L4.20353982,8.1380531 C2.21946903,6.05309735 0.773451327,3.49734513 0.100884956,0.739823009 L0.605309735,0.907964602 Z" id="Shape" fill="url(#linearGradient-20)"></path>
                </g>
                <g id="Group" transform="translate(0.345133, 12.451327)">
                    <path d="M10.559292,7.86902655 L0.773451327,8.47433628 C0.100884956,5.7840708 0.100884956,2.8920354 0.907964602,0.0336283186 L10.559292,7.86902655 Z" id="Shape" fill="#EF4130"></path>
                    <path d="M0.773451327,8.47433628 L10.559292,7.86902655 L9.98761062,7.70088496 L0.70619469,8.23893805 C0.739823009,8.30619469 0.739823009,8.37345133 0.773451327,8.47433628 Z" id="Shape" fill="#CF381E"></path>
                    <path d="M0.907964602,0 C0.874336283,0.0672566372 0.874336283,0.168141593 0.840707965,0.23539823 L9.98761062,7.70088496 L10.559292,7.86902655 L0.907964602,0 L0.907964602,0 Z" id="Shape" fill="#F37557"></path>
                    <path d="M1.21061947,0.538053097 C0.538053097,3.12743363 0.538053097,5.75044248 1.14336283,8.20530973 L0.739823009,8.44070796 C0.0672566372,5.75044248 0.0672566372,2.85840708 0.874336283,0 L1.21061947,0.538053097 Z" id="Shape" fill="#F37557"></path>
                </g>
                <g id="Group" transform="translate(20.185841, 21.194690)">
                    <path d="M8.1380531,7.53274336 C10.1221239,5.6159292 11.6690265,3.12743363 12.4761062,0.269026549 L0.134513274,1.8159292 L8.1380531,7.53274336 Z" id="Shape" fill="url(#linearGradient-21)"></path>
                    <path d="M12.4761062,0.269026549 L0.134513274,1.8159292 L0.70619469,1.95044248 L12.4088496,0.47079646 C12.4424779,0.437168142 12.4424779,0.336283186 12.4761062,0.269026549 L12.4761062,0.269026549 Z" id="Shape" fill="#7474B6"></path>
                    <path d="M8.27256637,7.36460177 L0.70619469,1.9840708 L0.134513274,1.84955752 L8.1380531,7.53274336 C8.17168142,7.46548673 8.23893805,7.39823009 8.27256637,7.36460177 Z" id="Shape" fill="#C7C6E3"></path>
                    <path d="M8.1380531,7.53274336 C10.1221239,5.6159292 11.6690265,3.12743363 12.4761062,0.269026549 L11.9380531,0.571681416 C11.1309735,3.12743363 9.71858407,5.34690265 7.93628319,7.12920354 L8.1380531,7.53274336 Z" id="Shape" fill="#6264AD"></path>
                </g>
                <g id="Group" transform="translate(20.185841, 22.876106)">
                    <path d="M0.134513274,0.134513274 L8.1380531,5.81769912 C6.08672566,7.80176991 3.53097345,9.21415929 0.739823009,9.92035398 L0.134513274,0.134513274 Z" id="Shape" fill="url(#linearGradient-22)"></path>
                    <path d="M8.1380531,5.85132743 L0.134513274,0.134513274 L0.369911504,0.571681416 L7.93628319,5.98584071 C8.00353982,5.95221239 8.07079646,5.88495575 8.1380531,5.85132743 Z" id="Shape" fill="#EF4130"></path>
                    <path d="M0.94159292,9.88672566 L0.369911504,0.605309735 L0.134513274,0.168141593 L0.739823009,9.9539823 C0.807079646,9.92035398 0.874336283,9.88672566 0.94159292,9.88672566 Z" id="Shape" fill="#EF4130"></path>
                    <path d="M0.907964602,9.44955752 C3.39646018,8.77699115 5.68318584,7.49911504 7.6,5.75044248 L8.1380531,5.85132743 C6.08672566,7.83539823 3.53097345,9.24778761 0.739823009,9.9539823 L0.907964602,9.44955752 Z" id="Shape" fill="url(#linearGradient-23)"></path>
                </g>
                <g id="Group" transform="translate(12.451327, 22.876106)">
                    <path d="M7.86902655,0.134513274 L8.47433628,9.92035398 C5.7840708,10.5929204 2.8920354,10.5929204 0.0336283186,9.78584071 L7.86902655,0.134513274 Z" id="Shape" fill="url(#linearGradient-24)"></path>
                    <path d="M8.47433628,9.92035398 L7.86902655,0.134513274 L7.70088496,0.70619469 L8.27256637,9.98761062 C8.30619469,9.9539823 8.40707965,9.9539823 8.47433628,9.92035398 Z" id="Shape" fill="#F8ABA6"></path>
                    <path d="M0,9.78584071 C0.0672566372,9.81946903 0.168141593,9.81946903 0.23539823,9.85309735 L7.66725664,0.70619469 L7.83539823,0.134513274 L0,9.78584071 L0,9.78584071 Z" id="Shape" fill="#FCD3CD"></path>
                    <path d="M0.538053097,9.48318584 C3.12743363,10.1557522 5.75044248,10.1557522 8.20530973,9.55044248 L8.44070796,9.9539823 C5.75044248,10.6265487 2.85840708,10.6265487 0,9.81946903 L0.538053097,9.48318584 Z" id="Shape" fill="url(#linearGradient-25)"></path>
                </g>
            </g>
        </g>
    </g>
</svg>