<?xml version="1.0" encoding="UTF-8"?>
<svg width="320px" height="200px" viewBox="0 0 320 200" version="1.1" xmlns="http://www.w3.org/2000/svg" xmlns:xlink="http://www.w3.org/1999/xlink">
    <!-- Generator: Sketch 49.3 (51167) - http://www.bohemiancoding.com/sketch -->
    <title>mastercard</title>
    <desc>Created with Sketch.</desc>
    <defs>
        <rect id="path-1" x="0" y="0" width="320" height="200" rx="25"></rect>
        <linearGradient x1="50%" y1="0%" x2="50%" y2="100%" id="linearGradient-3">
            <stop stop-color="#E8E8E8" offset="0%"></stop>
            <stop stop-color="#525252" offset="100%"></stop>
        </linearGradient>
        <linearGradient x1="3.061617e-15%" y1="50%" x2="73.4016263%" y2="50%" id="linearGradient-4">
            <stop stop-color="#FFFFFF" stop-opacity="0.5" offset="0%"></stop>
            <stop stop-color="#9E9E9E" offset="100%"></stop>
        </linearGradient>
    </defs>
    <g id="mastercard" stroke="none" stroke-width="1" fill="none" fill-rule="evenodd">
        <g id="Group">
            <mask id="mask-2" fill="white">
                <use xlink:href="#path-1"></use>
            </mask>
            <use id="Mask" fill="#D8D8D8" xlink:href="#path-1"></use>
            <g mask="url(#mask-2)">
                <g transform="translate(-43.000000, -55.000000)">
                    <rect id="Rectangle-2" fill="url(#linearGradient-3)" x="43" y="54" width="320" height="200"></rect>
                    <ellipse id="Oval-2" fill-opacity="0.5" fill="#B5B5B5" cx="201.5" cy="222" rx="201.5" ry="101"></ellipse>
                    <polygon id="Rectangle" fill-opacity="0.280000001" fill="url(#linearGradient-4)" points="312.442783 16 453.442783 20.8558673 453.442783 310.855867 29 299.892683"></polygon>
                    <rect id="Rectangle-3" fill-opacity="0.1" fill="#999999" transform="translate(199.615805, 155.708532) rotate(-34.000000) translate(-199.615805, -155.708532) " x="165.115805" y="-8.83935028" width="69" height="329.095765"></rect>
                    <rect id="Rectangle-3-Copy" fill-opacity="0.05" fill="#D8D8D8" transform="translate(208.454752, 157.826733) rotate(-148.000000) translate(-208.454752, -157.826733) " x="173.954752" y="-6.72114943" width="69" height="329.095765"></rect>
                </g>
            </g>
        </g>
        <g id="MasterCard-logo" transform="translate(224.000000, 23.000000)">
            <path d="M65.5798358,51.4563591 L65.5798358,51.5916068 L65.7040117,51.5916068 C65.7321085,51.5916068 65.7549003,51.5862914 65.7721906,51.5756606 C65.7896774,51.5634548 65.7975367,51.5461305 65.7975367,51.5232939 C65.7975367,51.5006542 65.7896774,51.4845111 65.7721906,51.4725022 C65.7549003,51.4618713 65.7321085,51.4563591 65.7040117,51.4563591 L65.5798358,51.4563591 Z M65.7053871,51.3612722 C65.7708152,51.3612722 65.8203284,51.3760372 65.8564809,51.4041892 C65.8912581,51.4337193 65.9085484,51.4738802 65.9085484,51.5232939 C65.9085484,51.5648329 65.8951877,51.5996784 65.8670909,51.6278304 C65.8389941,51.6546043 65.798912,51.6707474 65.7468446,51.6774409 L65.912478,51.8687958 L65.7829971,51.8687958 L65.6291525,51.6786221 L65.5798358,51.6786221 L65.5798358,51.8687958 L65.4713783,51.8687958 L65.4713783,51.3612722 L65.7053871,51.3612722 Z M65.6733607,52.0430233 C65.7321085,52.0430233 65.7869267,52.0321956 65.8378152,52.0095559 C65.8885073,51.9880973 65.9325191,51.9571892 65.9714223,51.9184064 C66.010129,51.8796235 66.0396012,51.8353284 66.0621965,51.7831586 C66.0836129,51.7309888 66.0942229,51.6760628 66.0942229,51.6171995 C66.0942229,51.5581394 66.0836129,51.5032134 66.0621965,51.4510436 C66.0396012,51.3988738 66.010129,51.3545787 65.9714223,51.3157959 C65.9325191,51.277013 65.8885073,51.247483 65.8378152,51.2248432 C65.7869267,51.2033847 65.7321085,51.192557 65.6733607,51.192557 C65.6132375,51.192557 65.557044,51.2033847 65.5049765,51.2248432 C65.4527126,51.247483 65.4087009,51.277013 65.3699941,51.3157959 C65.3310909,51.3545787 65.3018152,51.3988738 65.2790235,51.4510436 C65.257607,51.5032134 65.2469971,51.5581394 65.2469971,51.6171995 C65.2469971,51.6760628 65.257607,51.7309888 65.2790235,51.7831586 C65.3018152,51.8353284 65.3310909,51.8796235 65.3699941,51.9184064 C65.4087009,51.9571892 65.4527126,51.9880973 65.5049765,52.0095559 C65.557044,52.0321956 65.6132375,52.0430233 65.6733607,52.0430233 L65.6733607,52.0430233 Z M65.6733607,51.0706962 C65.7493988,51.0706962 65.8217038,51.0840832 65.8898827,51.1136133 C65.9566862,51.1417653 66.015434,51.1805481 66.0661261,51.2301586 C66.1156393,51.2795723 66.1557214,51.3386325 66.1851935,51.4041892 C66.2132903,51.4711241 66.2280264,51.5421931 66.2280264,51.6171995 C66.2280264,51.6920091 66.2132903,51.7630781 66.1851935,51.8286349 C66.1557214,51.8955698 66.1156393,51.9532518 66.0661261,52.0028624 C66.015434,52.052276 65.9566862,52.0912557 65.8898827,52.120589 C65.8217038,52.150119 65.7493988,52.163506 65.6733607,52.163506 C65.5945718,52.163506 65.5208915,52.150119 65.4527126,52.120589 C65.3845337,52.0912557 65.3257859,52.052276 65.2762727,52.0028624 C65.2255806,51.9532518 65.1868739,51.8955698 65.1574018,51.8286349 C65.129305,51.7630781 65.1147654,51.6920091 65.1147654,51.6171995 C65.1147654,51.5421931 65.129305,51.4711241 65.1574018,51.4041892 C65.1868739,51.3386325 65.2255806,51.2795723 65.2762727,51.2301586 C65.3257859,51.1805481 65.3845337,51.1417653 65.4527126,51.1136133 C65.5208915,51.0840832 65.5945718,51.0706962 65.6733607,51.0706962 L65.6733607,51.0706962 Z M14.4566745,49.1169862 C14.4566745,48.1501714 15.0875748,47.3560092 16.1218504,47.3560092 C17.1095601,47.3560092 17.7752375,48.1153259 17.7752375,49.1169862 C17.7752375,50.1186465 17.1095601,50.8779632 16.1218504,50.8779632 C15.0875748,50.8779632 14.4566745,50.083801 14.4566745,49.1169862 L14.4566745,49.1169862 Z M18.9004839,49.1169862 L18.9004839,46.3663578 L17.7070587,46.3663578 L17.7070587,47.0347219 C17.3274575,46.5392072 16.7527507,46.2285508 15.9723284,46.2285508 C14.4327038,46.2285508 13.2270968,47.4377091 13.2270968,49.1169862 C13.2270968,50.7976414 14.4327038,52.0054217 15.9723284,52.0054217 C16.7527507,52.0054217 17.3274575,51.6947652 17.7070587,51.2006286 L17.7070587,51.8674177 L18.9004839,51.8674177 L18.9004839,49.1169862 Z M59.2368416,49.1169862 C59.2368416,48.1501714 59.8689208,47.3560092 60.9022141,47.3560092 C61.8897273,47.3560092 62.5565836,48.1153259 62.5565836,49.1169862 C62.5565836,50.1186465 61.8897273,50.8779632 60.9022141,50.8779632 C59.8689208,50.8779632 59.2368416,50.083801 59.2368416,49.1169862 L59.2368416,49.1169862 Z M63.6820264,49.1169862 L63.6820264,44.1569173 L62.4872258,44.1569173 L62.4872258,47.0347219 C62.1088035,46.5392072 61.5342933,46.2285508 60.7536745,46.2285508 C59.2140499,46.2285508 58.0086393,47.4377091 58.0086393,49.1169862 C58.0086393,50.7976414 59.2140499,52.0054217 60.7536745,52.0054217 C61.5342933,52.0054217 62.1088035,51.6947652 62.4872258,51.2006286 L62.4872258,51.8674177 L63.6820264,51.8674177 L63.6820264,49.1169862 Z M33.7167185,47.298524 C34.4865308,47.298524 34.9796979,47.7818329 35.1066246,48.6336773 L32.2586334,48.6336773 C32.3841848,47.839515 32.8667419,47.298524 33.7167185,47.298524 L33.7167185,47.298524 Z M33.7395103,46.2285508 C32.1317067,46.2285508 31.0064604,47.4028636 31.0064604,49.1169862 C31.0064604,50.8659543 32.1784692,52.0054217 33.8210499,52.0054217 C34.6468592,52.0054217 35.4046862,51.7979236 36.0715425,51.234096 L35.4862258,50.3489811 C35.0264604,50.7173196 34.4411437,50.9234396 33.8890323,50.9234396 C33.1194164,50.9234396 32.4189619,50.5673068 32.2466481,49.5776554 L36.324217,49.5776554 C36.3362023,49.4276426 36.3468123,49.2776298 36.3468123,49.1169862 C36.3362023,47.4028636 35.2791349,46.2285508 33.7395103,46.2285508 L33.7395103,46.2285508 Z M48.1533519,49.1169862 C48.1533519,48.1501714 48.7856276,47.3560092 49.8199032,47.3560092 C50.8076129,47.3560092 51.4730938,48.1153259 51.4730938,49.1169862 C51.4730938,50.1186465 50.8076129,50.8779632 49.8199032,50.8779632 C48.7856276,50.8779632 48.1533519,50.083801 48.1533519,49.1169862 L48.1533519,49.1169862 Z M52.5985367,49.1169862 L52.5985367,46.3663578 L51.4037361,46.3663578 L51.4037361,47.0347219 C51.0255103,46.5392072 50.4508035,46.2285508 49.6701848,46.2285508 C48.1307566,46.2285508 46.9251496,47.4377091 46.9251496,49.1169862 C46.9251496,50.7976414 48.1307566,52.0054217 49.6701848,52.0054217 C50.4508035,52.0054217 51.0255103,51.6947652 51.4037361,51.2006286 L51.4037361,51.8674177 L52.5985367,51.8674177 L52.5985367,49.1169862 Z M41.4122874,49.1169862 C41.4122874,50.7854357 42.5723109,52.0054217 44.3404428,52.0054217 C45.1676276,52.0054217 45.7195425,51.8219414 46.3158622,51.3492633 L45.7423343,50.3824485 C45.2945543,50.7051138 44.823,50.8779632 44.3070411,50.8779632 C43.3527331,50.8659543 42.6524751,50.1761317 42.6524751,49.1169862 C42.6524751,48.0590219 43.3527331,47.368215 44.3070411,47.3560092 C44.823,47.3560092 45.2945543,47.5288586 45.7423343,47.8515239 L46.3158622,46.8847091 C45.7195425,46.4134091 45.1676276,46.2285508 44.3404428,46.2285508 C42.5723109,46.2285508 41.4122874,47.4485368 41.4122874,49.1169862 L41.4122874,49.1169862 Z M56.8016569,46.2285508 C56.1135806,46.2285508 55.6658006,46.5512161 55.3557537,47.0347219 L55.3557537,46.3663578 L54.1729384,46.3663578 L54.1729384,51.8674177 L55.3663636,51.8674177 L55.3663636,48.7834932 C55.3663636,47.8743605 55.7579501,47.368215 56.5385689,47.368215 C56.7790616,47.368215 57.0315396,47.4028636 57.2855894,47.506022 L57.6518299,46.3785636 C57.3885455,46.2754052 57.0437214,46.2285508 56.8016569,46.2285508 L56.8016569,46.2285508 Z M24.8037537,46.8043873 C24.2304223,46.4240399 23.4378182,46.2285508 22.5650499,46.2285508 C21.1751437,46.2285508 20.2797801,46.896718 20.2797801,47.9895278 C20.2797801,48.8866516 20.945261,49.4396515 22.1734633,49.6125009 L22.7375601,49.6928228 C23.3910557,49.7851535 23.7011026,49.9566248 23.7011026,50.2672812 C23.7011026,50.693105 23.2655044,50.9354485 22.4501085,50.9354485 C21.6229238,50.9354485 21.0254252,50.6704652 20.6232287,50.3596119 L20.0605073,51.2917781 C20.7153783,51.775087 21.5427595,52.0054217 22.4381232,52.0054217 C24.0231349,52.0054217 24.9428622,51.2583107 24.9428622,50.2109772 C24.9428622,49.2441624 24.2182405,48.7380169 23.0234399,48.5651675 L22.460915,48.4836645 C21.944956,48.4153515 21.5307742,48.3121931 21.5307742,47.9438546 C21.5307742,47.5408675 21.9209853,47.298524 22.5758563,47.298524 C23.2774897,47.298524 23.9537771,47.5637041 24.2877947,47.7712021 L24.8037537,46.8043873 Z M40.2066804,46.2285508 C39.5170323,46.2285508 39.0692522,46.5512161 38.7592053,47.0347219 L38.7592053,46.3663578 L37.5765865,46.3663578 L37.5765865,51.8674177 L38.7700117,51.8674177 L38.7700117,48.7834932 C38.7700117,47.8743605 39.1615982,47.368215 39.9420205,47.368215 C40.1825132,47.368215 40.436563,47.4028636 40.6892375,47.506022 L41.0566569,46.3785636 C40.7919971,46.2754052 40.447173,46.2285508 40.2066804,46.2285508 L40.2066804,46.2285508 Z M30.0187507,46.3663578 L28.0661232,46.3663578 L28.0661232,44.6979084 L26.8605161,44.6979084 L26.8605161,46.3663578 L25.7458798,46.3663578 L25.7458798,47.4605457 L26.8605161,47.4605457 L26.8605161,49.9686337 C26.8605161,51.2461049 27.3536833,52.0054217 28.7663812,52.0054217 C29.2837155,52.0054217 29.8810176,51.844778 30.2592434,51.5795979 L29.9157947,50.5552979 C29.5589853,50.7627959 29.1687742,50.8659543 28.8587273,50.8659543 C28.2612287,50.8659543 28.0661232,50.4976158 28.0661232,49.9457971 L28.0661232,47.4605457 L30.0187507,47.4605457 L30.0187507,46.3663578 Z M12.1700293,51.8674177 L12.1700293,48.4153515 C12.1700293,47.1150437 11.3440235,46.2405597 10.0116862,46.2285508 C9.31123167,46.2177231 8.58680645,46.4360488 8.08165396,47.2073745 C7.70342815,46.5966924 7.1061261,46.2285508 6.26675953,46.2285508 C5.68124633,46.2285508 5.10673607,46.4012033 4.65895601,47.0453528 L4.65895601,46.3663578 L3.46415543,46.3663578 L3.46415543,51.8674177 L4.67094135,51.8674177 L4.67094135,48.8183387 C4.67094135,47.8621547 5.19888563,47.3560092 6.01408504,47.3560092 C6.80668915,47.3560092 7.20888563,47.8743605 7.20888563,48.8063298 L7.20888563,51.8674177 L8.41449267,51.8674177 L8.41449267,48.8183387 C8.41449267,47.8621547 8.96640762,47.3560092 9.75901173,47.3560092 C10.5742111,47.3560092 10.9644223,47.8743605 10.9644223,48.8063298 L10.9644223,51.8674177 L12.1700293,51.8674177 L12.1700293,51.8674177 Z" id="Fill-1" fill="#FFFFFF"></path>
            <polygon id="Fill-2" fill="#E15D29" points="24.4068622 37.0208754 42.498827 37.0208754 42.498827 4.44565492 24.4068622 4.44565492"></polygon>
            <path d="M25.5562757,20.7332651 C25.5562757,14.1248273 28.6447595,8.23948257 33.453434,4.44565492 C29.9358358,1.67100872 25.4987067,0.0159462425 20.6752962,0.0159462425 C9.25641349,0.0159462425 0,9.29193457 0,20.7332651 C0,32.1745957 9.25641349,41.450584 20.6752962,41.450584 C25.4987067,41.450584 29.9358358,39.7955216 33.453434,37.0208754 C28.6447595,33.2272446 25.5562757,27.341703 25.5562757,20.7332651" id="Fill-3" fill="#D2232C"></path>
            <path d="M66.2614282,33.5699904 L66.2614282,32.7665754 L66.0515865,32.7665754 L65.8108974,33.3195753 L65.5704047,32.7665754 L65.360563,32.7665754 L65.360563,33.5699904 L65.5075308,33.5699904 L65.5075308,32.9634425 L65.7334839,33.4869124 L65.887132,33.4869124 L66.113085,32.9620645 L66.113085,33.5699904 L66.2614282,33.5699904 Z M64.9341994,33.5699904 L64.9341994,32.9030043 L65.2027889,32.9030043 L65.2027889,32.7677566 L64.5186422,32.7677566 L64.5186422,32.9030043 L64.7872317,32.9030043 L64.7872317,33.5699904 L64.9341994,33.5699904 Z M66.906868,20.7318871 C66.906868,32.1745957 57.6504545,41.449206 46.2315718,41.449206 C41.4081613,41.449206 36.9710323,39.7941435 33.4548094,37.0194973 C38.2634839,33.2272446 41.3507889,27.3405218 41.3507889,20.7318871 C41.3507889,14.1234492 38.2634839,8.2381045 33.4548094,4.44427685 C36.9710323,1.67100872 41.4081613,0.0159462425 46.2315718,0.0159462425 C57.6504545,0.0159462425 66.906868,9.2905565 66.906868,20.7318871 L66.906868,20.7318871 Z" id="Fill-4" fill="#EC972D"></path>
        </g>
    </g>
</svg>