<?xml version="1.0" encoding="UTF-8"?>
<svg width="320px" height="200px" viewBox="0 0 320 200" version="1.1" xmlns="http://www.w3.org/2000/svg" xmlns:xlink="http://www.w3.org/1999/xlink">
    <!-- Generator: Sketch 49.3 (51167) - http://www.bohemiancoding.com/sketch -->
    <title>knab</title>
    <desc>Created with Sketch.</desc>
    <defs>
        <polygon id="path-1" points="0.00436548223 36.995739 42.9963621 36.995739 42.9963621 0.00113627639 0.00436548223 0.00113627639"></polygon>
    </defs>
    <g id="knab" stroke="none" stroke-width="1" fill="none" fill-rule="evenodd">
        <g id="Group" fill="#EFE9E4">
            <g id="Rectangle-2">
                <rect x="0" y="0" width="320" height="200" rx="25"></rect>
            </g>
        </g>
        <g id="Logo-blauw" transform="translate(26.000000, 22.000000)" fill="#00374E">
            <path d="M25.4622664,5.87371429 C23.2740719,5.87371429 21.887186,6.993 21.0552812,8.36042857 L20.9932389,8.36042857 L21.0229852,6.15228571 L16.8168584,6.15228571 C16.4467294,6.15228571 16.0906237,6.622 16.0906237,7.07071429 L16.0906237,20.587 C16.0906237,21.0384286 16.4455962,21.4792857 16.8382474,21.4792857 L21.0229852,21.4792857 L21.0229852,13.8944286 C21.0229852,11.6854286 21.6104038,9.94528571 23.7349979,9.94528571 C25.7717696,9.94528571 26.0788647,11.4684286 26.0788647,13.4901429 L26.0788647,20.5767143 C26.0788647,21.0462857 26.4290211,21.4792857 26.7990085,21.4792857 L31.0102347,21.4792857 L31.0102347,12.4335714 C31.0102347,8.73228571 29.8699598,5.87371429 25.4622664,5.87371429" id="Fill-1"></path>
            <path d="M56.9092051,17.6637143 C54.8394292,17.6637143 53.4283214,16.0484286 53.4283214,13.6844286 C53.4283214,11.3205714 54.8394292,9.70342857 56.9092051,9.70342857 C58.9792643,9.70342857 60.3576512,11.3205714 60.3576512,13.6844286 C60.3576512,16.0484286 58.9792643,17.6637143 56.9092051,17.6637143 Z M57.9772389,5.87371429 C55.9952854,5.87371429 54.6314884,6.58285714 53.8080825,7.33371429 C53.825222,6.78657143 53.8447696,5.983 53.8447696,5.18871429 L53.8447696,0.0304285714 L49.6410507,0.0304285714 C49.2710634,0.0304285714 48.9146744,0.505428571 48.9146744,0.938428571 L48.9146744,20.5767143 C48.9146744,21.0462857 49.2619979,21.4792857 49.6523827,21.4792857 L53.5992918,21.4792857 L53.5791776,20.2234286 C54.7047209,21.3112857 56.2411882,21.8214286 57.9467844,21.8214286 C62.3536279,21.8214286 65.1300909,18.3384286 65.1300909,13.8322857 C65.1300909,9.32471429 62.3536279,5.87371429 57.9772389,5.87371429 L57.9772389,5.87371429 Z" id="Fill-2"></path>
            <path d="M15.2271311,6.15228571 L10.1451882,6.15228571 C9.75338689,6.15228571 9.36385201,6.37471429 9.11299154,6.64014286 L4.93136998,11.2205714 L4.93136998,0.0304285714 L0.726234672,0.0304285714 C0.356247357,0.0304285714 0,0.500142857 0,0.933142857 L0,20.5905714 C0,21.0305714 0.294205074,21.4792857 0.729634249,21.4792857 L4.93136998,21.4792857 L4.93136998,16.8481429 L6.28765962,15.51 L9.65805708,20.904 C9.97294292,21.3451429 10.409222,21.4792857 10.9137759,21.4792857 L15.6910317,21.4792857 L9.67944609,11.9044286 L15.2271311,6.15228571" id="Fill-3"></path>
            <path d="M42.1396004,17.2505714 C41.8296723,17.7814286 40.9362918,18.6517143 39.610315,18.6517143 C38.2537421,18.6517143 37.2991691,17.9344286 37.2991691,16.7544286 C37.2991691,15.6045714 38.1935412,14.9508571 39.7026702,14.89 L42.1396004,14.734 L42.1396004,17.2505714 Z M45.2206089,7.64557143 C44.0180085,6.52585714 42.3855032,5.87371429 39.5488393,5.87371429 C37.1212579,5.87371429 35.041,6.53357143 33.6777696,7.13328571 C33.3266216,7.29614286 33.1885137,7.774 33.3295962,8.13985714 L34.3409704,10.6612857 C35.1113996,10.1635714 37.0532664,9.29257143 38.9949915,9.29257143 C40.9681628,9.29257143 42.1074461,10.1334286 42.1074461,11.7478571 L42.1074461,12.0914286 L38.286463,12.2477143 C35.4809619,12.3711429 32.3665243,13.522 32.3665243,16.9397143 C32.3665243,20.3607143 35.2038964,21.8214286 37.8840381,21.8214286 C40.3514228,21.8214286 41.5833446,20.5152857 42.2315307,19.8635714 L42.2941395,20.9078571 C42.3138288,21.1941429 42.5889112,21.4792857 42.9692389,21.4792857 L47.0405159,21.4792857 L47.0405159,12.8378571 C47.0405159,10.2561429 46.3930381,8.764 45.2206089,7.64557143 L45.2206089,7.64557143 Z" id="Fill-4"></path>
            <path d="M65.6223214,20.2222857 L65.4482347,20.2222857 L65.4482347,20.6382857 L65.6223214,20.6382857 C65.7632622,20.6382857 65.8874884,20.5995714 65.8874884,20.4312857 C65.8874884,20.2571429 65.7632622,20.2222857 65.6223214,20.2222857 Z M66.2679577,21.4742857 L65.9067526,21.4742857 L65.598241,20.8835714 L65.4482347,20.8835714 L65.4482347,21.4742857 L65.1470888,21.4742857 L65.1470888,19.9728571 L65.6710486,19.9728571 C65.9991078,19.9728571 66.2025159,20.1408571 66.2025159,20.4262857 C66.2025159,20.7094286 66.0182304,20.8112857 65.8992452,20.8461429 L66.2679577,21.4742857 Z M65.6415856,19.637 C65.0306533,19.637 64.5616533,20.1098571 64.5616533,20.7211429 C64.5616533,21.3358571 65.0306533,21.8101429 65.6415856,21.8101429 C66.2488351,21.8101429 66.7151438,21.3358571 66.7151438,20.7211429 C66.7151438,20.1098571 66.2488351,19.637 65.6415856,19.637 Z M65.6415856,22 C64.930649,22 64.3681607,21.4418571 64.3681607,20.7211429 C64.3681607,20.0012857 64.930649,19.4432857 65.6415856,19.4432857 C66.351389,19.4432857 66.911186,20.0012857 66.911186,20.7211429 C66.911186,21.4418571 66.351389,22 65.6415856,22 L65.6415856,22 Z" id="Fill-5"></path>
        </g>
        <g id="Logo-blauw-Copy" transform="translate(26.000000, 22.000000)" fill="#00374E">
            <path d="M25.4622664,5.87371429 C23.2740719,5.87371429 21.887186,6.993 21.0552812,8.36042857 L20.9932389,8.36042857 L21.0229852,6.15228571 L16.8168584,6.15228571 C16.4467294,6.15228571 16.0906237,6.622 16.0906237,7.07071429 L16.0906237,20.587 C16.0906237,21.0384286 16.4455962,21.4792857 16.8382474,21.4792857 L21.0229852,21.4792857 L21.0229852,13.8944286 C21.0229852,11.6854286 21.6104038,9.94528571 23.7349979,9.94528571 C25.7717696,9.94528571 26.0788647,11.4684286 26.0788647,13.4901429 L26.0788647,20.5767143 C26.0788647,21.0462857 26.4290211,21.4792857 26.7990085,21.4792857 L31.0102347,21.4792857 L31.0102347,12.4335714 C31.0102347,8.73228571 29.8699598,5.87371429 25.4622664,5.87371429" id="Fill-1"></path>
            <path d="M56.9092051,17.6637143 C54.8394292,17.6637143 53.4283214,16.0484286 53.4283214,13.6844286 C53.4283214,11.3205714 54.8394292,9.70342857 56.9092051,9.70342857 C58.9792643,9.70342857 60.3576512,11.3205714 60.3576512,13.6844286 C60.3576512,16.0484286 58.9792643,17.6637143 56.9092051,17.6637143 Z M57.9772389,5.87371429 C55.9952854,5.87371429 54.6314884,6.58285714 53.8080825,7.33371429 C53.825222,6.78657143 53.8447696,5.983 53.8447696,5.18871429 L53.8447696,0.0304285714 L49.6410507,0.0304285714 C49.2710634,0.0304285714 48.9146744,0.505428571 48.9146744,0.938428571 L48.9146744,20.5767143 C48.9146744,21.0462857 49.2619979,21.4792857 49.6523827,21.4792857 L53.5992918,21.4792857 L53.5791776,20.2234286 C54.7047209,21.3112857 56.2411882,21.8214286 57.9467844,21.8214286 C62.3536279,21.8214286 65.1300909,18.3384286 65.1300909,13.8322857 C65.1300909,9.32471429 62.3536279,5.87371429 57.9772389,5.87371429 L57.9772389,5.87371429 Z" id="Fill-2"></path>
            <path d="M15.2271311,6.15228571 L10.1451882,6.15228571 C9.75338689,6.15228571 9.36385201,6.37471429 9.11299154,6.64014286 L4.93136998,11.2205714 L4.93136998,0.0304285714 L0.726234672,0.0304285714 C0.356247357,0.0304285714 0,0.500142857 0,0.933142857 L0,20.5905714 C0,21.0305714 0.294205074,21.4792857 0.729634249,21.4792857 L4.93136998,21.4792857 L4.93136998,16.8481429 L6.28765962,15.51 L9.65805708,20.904 C9.97294292,21.3451429 10.409222,21.4792857 10.9137759,21.4792857 L15.6910317,21.4792857 L9.67944609,11.9044286 L15.2271311,6.15228571" id="Fill-3"></path>
            <path d="M42.1396004,17.2505714 C41.8296723,17.7814286 40.9362918,18.6517143 39.610315,18.6517143 C38.2537421,18.6517143 37.2991691,17.9344286 37.2991691,16.7544286 C37.2991691,15.6045714 38.1935412,14.9508571 39.7026702,14.89 L42.1396004,14.734 L42.1396004,17.2505714 Z M45.2206089,7.64557143 C44.0180085,6.52585714 42.3855032,5.87371429 39.5488393,5.87371429 C37.1212579,5.87371429 35.041,6.53357143 33.6777696,7.13328571 C33.3266216,7.29614286 33.1885137,7.774 33.3295962,8.13985714 L34.3409704,10.6612857 C35.1113996,10.1635714 37.0532664,9.29257143 38.9949915,9.29257143 C40.9681628,9.29257143 42.1074461,10.1334286 42.1074461,11.7478571 L42.1074461,12.0914286 L38.286463,12.2477143 C35.4809619,12.3711429 32.3665243,13.522 32.3665243,16.9397143 C32.3665243,20.3607143 35.2038964,21.8214286 37.8840381,21.8214286 C40.3514228,21.8214286 41.5833446,20.5152857 42.2315307,19.8635714 L42.2941395,20.9078571 C42.3138288,21.1941429 42.5889112,21.4792857 42.9692389,21.4792857 L47.0405159,21.4792857 L47.0405159,12.8378571 C47.0405159,10.2561429 46.3930381,8.764 45.2206089,7.64557143 L45.2206089,7.64557143 Z" id="Fill-4"></path>
            <path d="M65.6223214,20.2222857 L65.4482347,20.2222857 L65.4482347,20.6382857 L65.6223214,20.6382857 C65.7632622,20.6382857 65.8874884,20.5995714 65.8874884,20.4312857 C65.8874884,20.2571429 65.7632622,20.2222857 65.6223214,20.2222857 Z M66.2679577,21.4742857 L65.9067526,21.4742857 L65.598241,20.8835714 L65.4482347,20.8835714 L65.4482347,21.4742857 L65.1470888,21.4742857 L65.1470888,19.9728571 L65.6710486,19.9728571 C65.9991078,19.9728571 66.2025159,20.1408571 66.2025159,20.4262857 C66.2025159,20.7094286 66.0182304,20.8112857 65.8992452,20.8461429 L66.2679577,21.4742857 Z M65.6415856,19.637 C65.0306533,19.637 64.5616533,20.1098571 64.5616533,20.7211429 C64.5616533,21.3358571 65.0306533,21.8101429 65.6415856,21.8101429 C66.2488351,21.8101429 66.7151438,21.3358571 66.7151438,20.7211429 C66.7151438,20.1098571 66.2488351,19.637 65.6415856,19.637 Z M65.6415856,22 C64.930649,22 64.3681607,21.4418571 64.3681607,20.7211429 C64.3681607,20.0012857 64.930649,19.4432857 65.6415856,19.4432857 C66.351389,19.4432857 66.911186,20.0012857 66.911186,20.7211429 C66.911186,21.4418571 66.351389,22 65.6415856,22 L65.6415856,22 Z" id="Fill-5"></path>
        </g>
        <g id="knab-footer" transform="translate(114.000000, 12.000000)">
            <g id="Blob">
                <g id="Shape_34" transform="translate(81.529412, 6.022059)" fill="#E74F59">
                    <path d="M42.4740441,8.16220588 C41.2873178,6.97525317 39.6776357,6.30841104 37.9991912,6.30841104 C36.3207467,6.30841104 34.7110645,6.97525317 33.5243382,8.16220588 C30.9070588,10.7794853 30.5827941,11.8263971 29.3135294,11.8263971 C27.2150735,11.8263971 25.8161029,7.58779412 21.7303676,3.73830882 C16.6718382,-1.02838235 8.84779412,-1.17661765 3.93286765,3.73830882 C1.57197272,6.09797956 0.245532801,9.29911472 0.245532801,12.6370588 C0.245532801,15.9750029 1.57197272,19.1761381 3.93286765,21.5358088 C8.84779412,26.4507353 16.5745588,26.2005882 21.7303676,21.5358088 C25.1675735,18.4228676 26.8676471,13.5727941 29.3181618,13.5727941 C30.8468382,13.5727941 31.5555882,15.1338971 33.5289706,17.1072794 C35.1105013,18.7835127 37.4782832,19.4673887 39.7099909,18.8925163 C41.9416985,18.317644 43.6844087,16.5749338 44.259281,14.3432262 C44.8341534,12.1115185 44.1502774,9.74373662 42.4740441,8.16220588 L42.4740441,8.16220588 Z" id="Shape"></path>
                </g>
                <g id="Shape_29" transform="translate(12.507353, 12.507353)" fill="#003852">
                    <path d="M77.9763971,10.00125 C73.0826526,5.12351192 65.1652886,5.12351192 60.2715441,10.00125 C56.0607353,14.1703676 52.0259559,17.5427206 47.3009559,17.5427206 C43.4561029,17.5427206 40.5469853,14.0452941 32.1438971,5.54955882 C26.7637695,0.169203992 18.6723369,-1.44041524 11.6426822,1.47127611 C4.61302754,4.38296745 0.0295485031,11.2425502 0.0295485031,18.8513603 C0.0295485031,26.4601704 4.61302754,33.3197531 11.6426822,36.2314445 C18.6723369,39.1431358 26.7637695,37.5335166 32.1438971,32.1531618 C39.4676471,24.8294118 42.7149265,19.9469118 47.3472794,19.9469118 C51.9796324,19.9469118 55.125,22.5641912 60.2761765,27.7061029 C65.1652366,32.5938839 73.0909323,32.5928469 77.9787132,27.7037868 C82.8664942,22.8147266 82.8654572,14.8890309 77.9763971,10.00125 L77.9763971,10.00125 Z" id="Shape"></path>
                </g>
                <g id="Shape_30" transform="translate(18.529412, 18.529412)" fill="#E9E8E2">
                    <circle id="Oval" cx="12.9288971" cy="12.8223529" r="12.5861029"></circle>
                </g>
                <g id="Shape_23_copy" transform="translate(2.779412, 46.786765)" fill="#00B1AC">
                    <circle id="Oval" cx="3.51132353" cy="3.37698529" r="3.14536765"></circle>
                </g>
                <g id="Shape_47" fill="#00B1AC">
                    <path d="M31.4583088,25.0841912 C27.6783088,25.0841912 27.1270588,26.3349265 25.4733088,24.6811765 C23.0320588,22.2352941 25.1675735,19.6689706 25.1675735,12.5073529 C25.03603,5.65161357 19.440788,0.162699594 12.5837868,0.162699594 C5.72678552,0.162699594 0.131543511,5.65161357 0,12.5073529 C0.022880382,19.4464078 5.64241571,25.0659431 12.5814706,25.0888235 C19.6133824,25.0888235 22.2769853,22.9579412 24.7506618,25.4316176 C26.4553676,27.1363235 25.1675735,27.6644118 25.1675735,31.3749265 C25.1675735,34.8492036 27.9840317,37.6656618 31.4583088,37.6656618 C34.932586,37.6656618 37.7490441,34.8492036 37.7490441,31.3749265 C37.7490441,27.9006493 34.932586,25.0841912 31.4583088,25.0841912 Z" id="Shape"></path>
                </g>
                <g id="Shape_48" transform="translate(50.029412, 50.029412)" fill="#FCC11F">
                    <circle id="Oval" cx="6.53161765" cy="6.42507353" r="6.29073529"></circle>
                </g>
            </g>
        </g>
        <g id="iDeal_betalen-cmyk" transform="translate(261.000000, 16.000000)">
            <g id="Group-3">
                <mask id="mask-2" fill="white">
                    <use xlink:href="#path-1"></use>
                </mask>
                <g id="Clip-2"></g>
                <path d="M0,0.00113627639 L0,37 L22.0977073,37 C36.6751438,37 42.9963621,29.0302284 42.9963621,18.4634971 C42.9963621,7.93866603 36.6751438,0.00113627639 22.0977073,0.00113627639 L0,0.00113627639" id="Fill-1" fill="#FFFFFE" mask="url(#mask-2)"></path>
            </g>
            <path d="M4.29956345,4.20202111 L4.29956345,32.7991152 L22.1007631,32.7991152 C32.8481438,32.7991152 38.6968714,27.9119904 38.6968714,18.4634971 C38.6968714,8.7550096 32.3584822,4.20202111 22.1007631,4.20202111 L4.29956345,4.20202111 Z M2.38799154,2.33540307 L22.1007631,2.33540307 C35.4811844,2.33540307 40.6072792,9.46745489 40.6072792,18.4634971 C40.6072792,29.2510211 33.4466514,34.6643129 22.1007631,34.6643129 L2.38799154,34.6643129 L2.38799154,2.33540307 L2.38799154,2.33540307 Z" id="Fill-4" fill="#1A1919"></path>
            <polygon id="Fill-5" fill="#1A1919" points="6.68748223 30.4671209 12.385819 30.4671209 12.385819 20.5675969 6.68748223 20.5675969"></polygon>
            <path d="M13.0773113,15.5790595 C13.0773113,17.488572 11.4926413,19.0364645 9.53581387,19.0364645 C7.5806599,19.0364645 5.99482572,17.488572 5.99482572,15.5790595 C5.99482572,13.6706833 7.5806599,12.1227908 9.53581387,12.1227908 C11.4926413,12.1227908 13.0773113,13.6706833 13.0773113,15.5790595" id="Fill-6" fill="#1A1919"></path>
            <path d="M15.2536497,13.9678906 L15.2536497,17.1949155 L16.2678968,17.1949155 C16.9715398,17.1949155 17.6208325,16.9955701 17.6208325,15.5539194 C17.6208325,14.1481324 16.8994365,13.9678906 16.2678968,13.9678906 L15.2536497,13.9678906 Z M32.182335,12.3614798 L33.8244839,12.3614798 L33.8244839,17.1949155 L36.2558393,17.1949155 C35.5899577,8.42676775 28.5241337,6.53152975 22.1025821,6.53152975 L15.2554687,6.53152975 L15.2554687,12.3651017 L16.2678968,12.3651017 C18.1166785,12.3651017 19.2629086,13.587167 19.2629086,15.5539194 C19.2629086,17.5840192 18.1440355,18.7965681 16.2678968,18.7965681 L15.2554687,18.7965681 L15.2554687,30.4683282 L22.1025821,30.4683282 C32.5413232,30.4683282 36.174423,25.7350979 36.3022589,18.7952898 L32.182335,18.7952898 L32.182335,12.3614798 Z M27.6076734,15.9525393 L28.7966853,15.9525393 L28.2520914,14.1337159 L28.1530677,14.1337159 L27.6076734,15.9525393 Z M25.046736,18.7988407 L27.0360863,12.3614798 L29.371401,12.3614798 L31.3571134,18.7988407 L29.6483181,18.7988407 L29.2765973,17.5529846 L27.1289983,17.5529846 L26.7555313,18.7988407 L25.046736,18.7988407 Z M24.3369814,17.1949155 L24.3369814,18.7965681 L20.2759188,18.7965681 L20.2759188,12.3651017 L24.2061624,12.3651017 L24.2061624,13.9666833 L21.9179222,13.9666833 L21.9179222,14.7101631 L24.0833469,14.7101631 L24.0833469,16.3141593 L21.9179222,16.3141593 L21.9179222,17.1949155 L24.3369814,17.1949155 L24.3369814,17.1949155 Z" id="Fill-7" fill="#C91A68"></path>
        </g>
    </g>
</svg>