<svg width="350" height="40" viewBox="0 0 350 40" xmlns="http://www.w3.org/2000/svg"><title>creditcards</title><desc>Created with Sketch.</desc><defs><radialGradient cx="17.541%" cy="17.466%" fx="17.541%" fy="17.466%" r="93.287%" id="a"><stop stop-color="#9DD5F6" offset="0%"/><stop stop-color="#98D3F5" offset="7.11%"/><stop stop-color="#89CEF3" offset="15.75%"/><stop stop-color="#70C6EF" offset="25.16%"/><stop stop-color="#4EBBEA" offset="35.14%"/><stop stop-color="#23ADE3" offset="45.46%"/><stop stop-color="#0DA6E0" offset="50%"/><stop stop-color="#2E77BC" offset="100%"/></radialGradient></defs><g fill="none"><g><path id="Fill-2" fill="#004F8B" d="M24.529 30.164l3.523-20.671h5.634l-3.525 20.671h-5.632"/><path d="M50.595 10.002c-1.116-.419-2.865-.868-5.05-.868-5.567 0-9.489 2.803-9.522 6.821-.031 2.97 2.8 4.627 4.937 5.616 2.193 1.013 2.931 1.659 2.92 2.564-.014 1.385-1.751 2.019-3.371 2.019-2.255 0-3.453-.313-5.303-1.085l-.726-.329-.791 4.627c1.316.577 3.75 1.077 6.276 1.103 5.923 0 9.767-2.771 9.811-7.062.021-2.351-1.48-4.141-4.73-5.616-1.97-.956-3.176-1.595-3.163-2.563 0-.859 1.021-1.778 3.227-1.778 1.842-.029 3.177.373 4.217.792l.505.238.764-4.48" id="Fill-3" fill="#004F8B"/><path d="M65.043 9.513h-4.354c-1.349 0-2.358.368-2.95 1.714l-8.368 18.943h5.917s.967-2.547 1.186-3.106l7.215.009c.169.723.686 3.098.686 3.098h5.228l-4.56-20.658m-6.947 13.323c.466-1.191 2.245-5.778 2.245-5.778l.747-1.973.381 1.782s1.079 4.934 1.304 5.969h-4.677" id="Fill-4" fill="#004F8B"/><path d="M19.803 9.509l-5.516 14.096-.588-2.865c-1.027-3.302-4.226-6.88-7.803-8.671l5.044 18.077 5.961-.007 8.87-20.631h-5.968" fill="#004F8B"/><path d="M9.17 9.496h-9.085l-.072.43c7.068 1.711 11.745 5.846 13.687 10.814l-1.975-9.499c-.341-1.309-1.33-1.699-2.554-1.745" fill="#EE9F2D"/></g><g><path d="M139.355 38.509v.102h.093l.051-.012.019-.04-.019-.038-.051-.012h-.093zm.094-.072l.113.032.039.09-.031.079-.09.037.124.144h-.097l-.115-.144h-.037v.144h-.081v-.383h.175zm-.024.515l.123-.025.1-.069.068-.102.024-.125-.024-.125-.068-.102-.1-.069-.123-.024-.126.024-.101.069-.068.102-.024.125.024.125.068.102.101.069.126.025zm0-.734l.162.032.132.088.089.131.032.161-.032.16-.089.131-.132.089-.162.032-.165-.032-.132-.089-.089-.131-.032-.16.032-.161.089-.131.132-.088.165-.032zm-38.221-1.474c0-.73.471-1.329 1.243-1.329.737 0 1.234.573 1.234 1.329s-.497 1.329-1.234 1.329c-.772 0-1.243-.599-1.243-1.329zm3.316 0v-2.076h-.891v.504c-.283-.374-.712-.608-1.295-.608-1.149 0-2.049.913-2.049 2.18 0 1.268.9 2.18 2.049 2.18.582 0 1.011-.234 1.295-.607v.503h.891v-2.076zm30.102 0c0-.73.472-1.329 1.243-1.329.737 0 1.235.573 1.235 1.329s-.498 1.329-1.235 1.329c-.771 0-1.243-.599-1.243-1.329zm3.317 0v-3.743h-.892v2.172c-.282-.374-.711-.608-1.294-.608-1.149 0-2.049.913-2.049 2.18 0 1.268.9 2.18 2.049 2.18.583 0 1.011-.234 1.294-.607v.503h.892v-2.076zm-22.362-1.372c.574 0 .943.365 1.037 1.008h-2.125c.094-.599.454-1.008 1.088-1.008zm.017-.808c-1.2 0-2.04.886-2.04 2.18 0 1.32.875 2.18 2.1 2.18.616 0 1.182-.157 1.679-.582l-.437-.668c-.343.278-.78.434-1.192.434-.574 0-1.097-.269-1.226-1.016h3.043l.017-.348c-.008-1.294-.797-2.18-1.946-2.18zm10.757 2.18c0-.73.472-1.329 1.244-1.329.737 0 1.234.573 1.234 1.329s-.497 1.329-1.234 1.329c-.772 0-1.244-.599-1.244-1.329zm3.317 0v-2.076h-.892v.504c-.282-.374-.711-.608-1.294-.608-1.149 0-2.049.913-2.049 2.18 0 1.268.9 2.18 2.049 2.18.583 0 1.011-.234 1.294-.607v.503h.892v-2.076zm-8.348 0c0 1.259.866 2.18 2.185 2.18.617 0 1.029-.138 1.474-.495l-.428-.73c-.334.244-.686.374-1.071.374-.712-.009-1.235-.53-1.235-1.329 0-.798.523-1.32 1.235-1.329.385 0 .737.13 1.071.374l.428-.73c-.445-.356-.857-.495-1.474-.495-1.32 0-2.185.921-2.185 2.18zm11.485-2.18c-.513 0-.848.244-1.079.608v-.504h-.883v4.152h.891v-2.327c0-.686.292-1.068.875-1.068.179 0 .368.026.557.104l.273-.851c-.196-.078-.454-.113-.634-.113zm-23.879.435c-.428-.287-1.019-.435-1.671-.435-1.037 0-1.705.504-1.705 1.329 0 .677.497 1.094 1.413 1.225l.421.061c.488.07.719.199.719.434 0 .321-.325.504-.934.504-.617 0-1.063-.2-1.363-.435l-.42.704c.489.365 1.106.539 1.774.539 1.183 0 1.869-.564 1.869-1.354 0-.73-.541-1.112-1.432-1.242l-.42-.062c-.385-.052-.694-.129-.694-.407 0-.304.291-.487.78-.487.524 0 1.028.2 1.278.357l.385-.73zm11.495-.435c-.515 0-.849.244-1.08.608v-.504h-.883v4.152h.891v-2.327c0-.686.292-1.068.875-1.068.179 0 .369.026.558.104l.274-.851c-.198-.078-.455-.113-.634-.113zm-7.603.104h-1.457v-1.259h-.9v1.259h-.832v.826h.832v1.893c0 .964.368 1.537 1.422 1.537.386 0 .832-.121 1.114-.321l-.256-.773c-.266.157-.557.234-.789.234-.446 0-.591-.278-.591-.694v-1.876h1.457v-.826zm-13.32 4.152v-2.605c0-.981-.616-1.641-1.611-1.65-.523-.008-1.063.157-1.44.739-.282-.461-.728-.739-1.354-.739-.437 0-.866.13-1.2.616v-.512h-.892v4.152h.901v-2.301c0-.722.394-1.104 1.002-1.104.591 0 .892.391.892 1.095v2.31h.9v-2.301c0-.722.412-1.104 1.003-1.104.608 0 .9.391.9 1.095v2.31h.9z" fill="#000"/><path fill="#E15D29" d="M108 27.585h13.501v-24.585h-13.501z"/><path d="M109.072 15.636c0-4.988 2.305-9.429 5.893-12.293-2.625-2.094-5.936-3.343-9.536-3.343-8.522 0-15.429 7.001-15.429 15.636 0 8.635 6.908 15.636 15.429 15.636 3.6 0 6.911-1.249 9.536-3.343-3.589-2.863-5.893-7.305-5.893-12.293" fill="#D3222B"/><path d="M139.483 25.324v-.606h-.157l-.18.417-.179-.417h-.157v.606h.11v-.458l.169.395h.115l.169-.396v.459h.111zm-.99 0v-.503h.2v-.102h-.511v.102h.2v.503h.11zm1.472-9.689c0 8.636-6.908 15.636-15.429 15.636-3.6 0-6.911-1.249-9.535-3.343 3.589-2.862 5.893-7.305 5.893-12.293 0-4.988-2.304-9.429-5.893-12.293 2.624-2.093 5.935-3.342 9.535-3.342 8.522 0 15.429 7 15.429 15.635z" fill="#ED972D"/></g><g><path d="M199.661.084h-39.571v39.854h39.571v-13.153c.157-.228.235-.52.235-.876 0-.408-.078-.661-.235-.874" id="Shape" fill="url(#a)"/><path d="M163.657 17.33l-.761-1.862-.757 1.862h1.518zm16.771-.741c-.153.093-.334.096-.55.096h-1.351v-1.037h1.37c.194 0 .396.009.527.084.144.068.234.213.234.413 0 .204-.085.368-.229.444zm9.639.741l-.77-1.862-.765 1.862h1.535zm-17.968 2.015h-1.14l-.004-3.657-1.613 3.657h-.977l-1.617-3.66v3.66h-2.262l-.427-1.042h-2.316l-.432 1.042h-1.208l1.992-4.67h1.652l1.892 4.421v-4.421h1.815l1.456 3.168 1.337-3.168h1.852v4.67zm4.544 0h-3.716v-4.67h3.716v.972h-2.603v.842h2.541v.957h-2.541v.933h2.603v.966zm5.239-3.412c0 .745-.495 1.129-.784 1.245.243.093.451.257.55.393.157.232.184.44.184.857v.917h-1.122l-.004-.589c0-.281.027-.685-.176-.91-.163-.164-.41-.2-.811-.2h-1.194v1.698h-1.112v-4.67h2.558c.568 0 .987.015 1.347.224.352.209.563.513.563 1.034zm1.78 3.412h-1.135v-4.67h1.135v4.67zm13.166 0h-1.576l-2.108-3.505v3.505h-2.265l-.433-1.042h-2.31l-.42 1.042h-1.301c-.541 0-1.225-.12-1.613-.516-.391-.396-.594-.934-.594-1.783 0-.693.122-1.326.6-1.826.36-.373.923-.545 1.689-.545h1.077v1.001h-1.054c-.406 0-.635.061-.856.277-.19.197-.32.568-.32 1.058 0 .5.099.861.306 1.097.171.185.482.241.775.241h.5l1.568-3.672h1.667l1.883 4.417v-4.417h1.693l1.955 3.252v-3.252h1.139v4.669zm-36.738.917h1.9l.428-1.037h.959l.427 1.037h3.739v-.793l.334.796h1.941l.334-.808v.805h9.292l-.004-1.703h.18c.126.004.163.016.163.225v1.478h4.806v-.396c.388.208.991.396 1.784.396h2.022l.433-1.037h.959l.423 1.037h3.896v-.985l.59.985h3.122v-6.513h-3.09v.769l-.433-.769h-3.171v.769l-.397-.769h-4.283c-.717 0-1.347.1-1.856.38v-.38h-2.956v.38c-.324-.288-.765-.38-1.256-.38h-10.798l-.724 1.682-.744-1.682h-3.401v.769l-.374-.769h-2.9l-1.347 3.096v3.416zM199.661 23.706h-2.027c-.202 0-.337.008-.45.084-.117.076-.163.188-.163.336 0 .176.099.296.243.348.117.041.243.053.429.053l.603.016c.608.015 1.014.12 1.262.376l.103.116v-1.329zm0 3.079c-.27.396-.797.597-1.509.597h-2.148v-1.002h2.139c.212 0 .361-.028.45-.116.077-.072.132-.177.132-.305 0-.136-.054-.244-.136-.309-.081-.071-.198-.104-.392-.104-1.044-.036-2.347.032-2.347-1.446 0-.677.429-1.391 1.596-1.391h2.215v-.929h-2.058c-.621 0-1.072.149-1.392.381v-.381h-3.045c-.487 0-1.058.121-1.329.381v-.381h-5.437v.381c-.433-.313-1.163-.381-1.5-.381h-3.586v.381c-.342-.333-1.104-.381-1.568-.381h-4.014l-.918.997-.86-.997h-5.996v6.517h5.883l.946-1.013.892 1.013 3.626.003v-1.533h.356c.481.007 1.049-.012 1.549-.229v1.759h2.991v-1.699h.144c.184 0 .202.008.202.192v1.506h9.086c.577 0 1.18-.148 1.514-.417v.417h2.882c.6 0 1.185-.084 1.631-.3v-1.214zm-4.437-1.866c.217.225.333.509.333.99 0 1.005-.626 1.474-1.747 1.474h-2.166v-1.002h2.158c.211 0 .361-.028.454-.116.076-.072.131-.177.131-.305 0-.136-.059-.244-.136-.309-.085-.071-.202-.104-.396-.104-1.04-.036-2.343.032-2.343-1.446 0-.677.424-1.391 1.59-1.391h2.23v.994h-2.04c-.202 0-.334.008-.446.084-.122.076-.167.188-.167.336 0 .176.103.296.243.348.117.041.243.053.433.053l.599.016c.604.015 1.018.12 1.27.376zm-10.036-.288c-.149.089-.333.096-.549.096h-1.351v-1.049h1.37c.198 0 .396.004.531.084.144.076.23.22.23.42 0 .2-.086.361-.23.448zm.672.581c.248.092.45.256.545.392.157.228.18.441.184.853v.926h-1.117v-.584c0-.281.027-.697-.18-.914-.163-.167-.41-.207-.816-.207h-1.189v1.706h-1.118v-4.671h2.568c.563 0 .973.025 1.338.22.351.213.572.504.572 1.037 0 .745-.496 1.126-.788 1.243zm1.405-2.5h3.712v.966h-2.604v.849h2.541v.953h-2.541v.929l2.604.004v.969h-3.712v-4.671zm-7.504 2.155h-1.437v-1.189h1.45c.402 0 .68.164.68.573 0 .404-.266.617-.693.617zm-2.545 2.09l-1.708-1.903 1.708-1.842v3.745zm-4.41-.549h-2.735v-.929h2.442v-.953h-2.442v-.849h2.788l1.217 1.361-1.27 1.37zm8.842-2.159c0 1.297-.965 1.565-1.937 1.565h-1.388v1.567h-2.162l-1.37-1.546-1.423 1.546h-4.406v-4.671h4.473l1.368 1.531 1.415-1.531h3.554c.883 0 1.874.245 1.874 1.539z" id="Shape" fill="#fff"/></g><g><path d="M275.787 35.766c0 1.853-1.528 3.369-3.395 3.369h-48.997c-1.867 0-3.395-1.516-3.395-3.369v-32.397c0-1.853 1.528-3.369 3.395-3.369h48.997c1.867 0 3.395 1.516 3.395 3.369l-.001 32.397z" id="Shape" fill="#fff"/><path d="M265.528 11h-13.387l-1.361 1.521-4.418 4.936-1.361 1.521h-13.21l1.341-1.54.635-.729 1.341-1.54h-6.088c-1.112 0-2.022.926-2.022 2.057v4.341c0 1.132.91 2.058 2.022 2.058h23.303c1.112 0 2.631-.688 3.376-1.528l3.525-3.978 6.304-7.118z" id="Shape" fill="#005596"/><path d="M267.509 7c1.112 0 2.022.926 2.022 2.058v4.341c0 1.132-.91 2.058-2.022 2.058h-6.067l1.353-1.528.671-.758 1.353-1.528h-13.386l-7.141 7.984h-13.291l9.532-10.695.361-.405c.747-.838 2.268-1.524 3.38-1.524h23.235999999999997z" id="Shape" fill="#fd0"/><path d="M270.241 32.995v-.633c0-.092-.057-.138-.173-.138h-.404c-.126 0-.203-.023-.231-.07-.027-.046-.042-.152-.042-.315v-2.379h.676l.115-.05.049-.115v-.668l-.049-.115-.115-.05h-.676v-.867l-.041-.102-.106-.037h-.024l-.999.172-.115.057-.049.106v.67h-.659l-.12.053-.054.119v.54l.054.11.12.061.659.106v2.371c0 .289.03.525.09.707.06.182.147.326.262.429.115.104.258.173.43.208s.37.053.594.053l.321-.016.33-.048c.104-.015.156-.07.156-.161zm-3.552-.084v-.728l-.045-.102-.111-.037h-.016l-.441.041c-.14.011-.328.016-.564.016-.093 0-.181-.015-.264-.045-.082-.03-.154-.082-.214-.155s-.109-.172-.144-.294c-.036-.123-.054-.274-.054-.454v-.687c0-.18.018-.332.054-.454.035-.123.084-.221.144-.295.06-.073.132-.125.214-.155.082-.03.17-.045.264-.045.236 0 .424.005.564.016l.441.041h.016l.111-.037.045-.102v-.728l-.042-.127-.132-.061-.449-.082c-.184-.027-.399-.041-.647-.041-.583 0-1.048.177-1.397.532-.349.355-.523.867-.523 1.537v.687c0 .67.174 1.183.523 1.537.349.355.814.532 1.397.532.247 0 .463-.014.647-.041l.449-.082.132-.061.042-.126zm-5.364-.867l-.317.127c-.113.036-.232.053-.359.053-.176 0-.306-.024-.392-.073-.086-.049-.128-.161-.128-.335v-.075l.033-.262c.022-.076.06-.139.115-.188.055-.049.129-.085.222-.11.093-.024.211-.037.354-.037h.47v.9zm1.31-1.979c0-.299-.045-.555-.136-.764-.09-.21-.218-.381-.383-.515-.165-.133-.366-.232-.606-.294-.239-.062-.506-.094-.803-.094-.275 0-.542.019-.803.057-.261.038-.468.076-.622.115-.104.027-.156.087-.156.18v.662l.041.115.107.033h.042l.247-.021.333-.021.387-.012.399-.004c.192 0 .343.036.453.106.11.071.165.224.165.458v.295h-.445c-.708 0-1.224.11-1.545.331-.321.221-.482.571-.482 1.05v.074c0 .267.04.49.12.67.079.18.186.324.317.433.132.109.282.187.449.233.167.046.342.07.523.07.247 0 .46-.033.638-.098s.348-.155.507-.27v.131l.049.115.115.049h.923l.115-.049.049-.115v-2.919zm-4.4 2.929v-.633c0-.092-.057-.138-.173-.138h-.404c-.126 0-.203-.023-.231-.07-.027-.046-.042-.152-.042-.315v-2.379h.676l.115-.05.049-.115v-.668l-.049-.115-.115-.05h-.676v-.867l-.041-.102-.106-.037h-.024l-.999.172-.115.057-.049.106v.67h-.659l-.12.053-.054.119v.54l.054.11.12.061.659.106v2.371c0 .289.03.525.09.707.06.182.147.326.262.429.115.103.258.173.43.208s.37.053.594.053l.321-.016.33-.048c.104-.015.156-.07.156-.161zm-3.593-.018v-2.723c0-.256-.021-.498-.062-.724-.042-.226-.115-.422-.222-.589-.107-.166-.255-.298-.445-.396-.189-.098-.432-.147-.729-.147-.264 0-.497.032-.701.095-.203.063-.418.175-.643.333v-.198l-.049-.115-.115-.05h-.923l-.115.049-.049.115v4.35l.054.119.12.053h.997l.115-.053.049-.118v-3.215c.143-.076.277-.139.404-.187.126-.049.25-.073.371-.073.126 0 .229.012.309.037.079.024.142.067.186.127.044.06.074.139.09.236l.024.359v2.716l.049.118.115.053h.997l.12-.053.053-.118zm-6.238-1.881c0 .67-.243 1.005-.729 1.005-.241 0-.423-.084-.549-.253-.126-.169-.189-.42-.189-.752v-.573c0-.333.063-.582.189-.748.126-.166.308-.25.549-.25.486 0 .729.333.729.998v.573zm1.335-.573c0-.327-.046-.621-.136-.883-.091-.262-.223-.484-.396-.667-.173-.182-.388-.324-.644-.425-.256-.101-.552-.152-.887-.152-.335 0-.632.05-.887.152-.256.101-.472.242-.648.425-.177.182-.31.405-.401.667-.091.262-.136.556-.136.883v.572c0 .327.045.621.136.883.09.262.224.484.401.667.176.182.392.324.648.425.256.101.552.152.887.152.336 0 .632-.05.887-.152.256-.101.47-.242.644-.425.173-.182.305-.405.396-.667.091-.262.136-.556.136-.883v-.572zm-4.573 2.388v-.728l-.045-.102-.111-.037h-.016l-.441.041c-.14.011-.329.016-.564.016-.093 0-.181-.015-.264-.045-.082-.03-.154-.082-.214-.155s-.109-.172-.144-.294c-.036-.123-.054-.274-.054-.454v-.687c0-.18.018-.332.054-.454.036-.123.084-.221.144-.295.06-.073.132-.125.214-.155.082-.03.17-.045.264-.045.236 0 .424.005.564.016l.441.041h.016l.111-.037.045-.102v-.728l-.042-.127-.132-.061-.449-.082c-.184-.027-.399-.041-.647-.041-.582 0-1.048.177-1.396.532-.349.355-.523.867-.523 1.537v.687c0 .67.174 1.183.523 1.537.349.355.814.532 1.396.532.247 0 .463-.014.647-.041l.449-.082.132-.061.042-.126zm-4.054.065v-2.723c0-.256-.021-.498-.062-.724-.042-.226-.115-.422-.222-.589-.107-.166-.255-.298-.445-.396-.189-.098-.432-.147-.729-.147-.264 0-.497.032-.701.095-.203.063-.418.175-.643.333v-.198l-.049-.115-.115-.05h-.923l-.115.049-.049.115v4.35l.054.119.12.053h.997l.115-.053.049-.118v-3.215c.143-.076.277-.139.404-.187.126-.049.25-.073.371-.073.126 0 .229.012.309.037.079.024.141.067.185.127.044.06.075.139.09.236l.025.359v2.716l.049.118.115.053h.997l.12-.053.054-.118zm-6.353-.932l-.317.127c-.113.036-.232.053-.359.053-.176 0-.306-.024-.392-.073-.085-.049-.128-.161-.128-.335v-.075l.033-.262c.022-.076.06-.139.115-.188.055-.049.129-.085.222-.11.093-.024.211-.037.354-.037h.47v.9zm1.31-1.979c0-.299-.045-.555-.136-.764-.09-.21-.218-.381-.383-.515-.165-.133-.366-.232-.606-.294-.239-.062-.506-.094-.803-.094-.275 0-.542.019-.803.057-.261.038-.468.076-.622.115-.104.027-.156.087-.156.18v.662l.042.115.107.033h.041l.247-.021.334-.021.387-.012.399-.004c.192 0 .343.036.453.106.11.071.165.224.165.458v.295h-.445c-.708 0-1.224.11-1.545.331-.321.221-.482.571-.482 1.05v.074c0 .267.04.49.12.67.079.18.186.324.317.433.132.109.282.187.449.233.167.046.342.07.523.07.247 0 .46-.033.638-.098s.348-.155.507-.27v.131l.049.115.115.049h.923l.115-.049.049-.115-.001-2.919zm-5.884 1.292c0 .229-.081.406-.243.532-.162.125-.454.188-.878.188h-.136l-.198-.004-.198-.004h-.144v-1.529h.923c.33 0 .558.072.684.216.126.144.189.315.189.511v.091zm-.033-2.437c0 .087-.013.17-.042.25-.027.079-.073.147-.136.204-.064.057-.148.104-.255.139-.107.036-.243.053-.408.053h-.923v-1.415l.128-.004.181-.004h.317c.423 0 .718.053.886.159.167.106.252.271.252.495v.123zm1.401 2.347c0-.284-.067-.528-.202-.736-.134-.207-.311-.365-.531-.474.22-.109.39-.27.511-.482.121-.213.181-.452.181-.719v-.147c0-.327-.063-.599-.189-.818-.126-.218-.304-.393-.531-.523-.228-.131-.501-.225-.82-.282-.319-.057-.673-.085-1.063-.085l-.412.008-.416.021-.371.028-.276.033c-.159.027-.272.076-.338.147s-.099.199-.099.384v4.971c0 .185.034.313.103.384.068.071.185.12.35.147l.296.041.375.028.416.021.42.008c.357 0 .693-.027 1.01-.082.316-.055.59-.152.824-.29.233-.139.419-.327.556-.564.137-.237.206-.536.206-.895l-.001-.123z" fill="#005596"/></g><g id="maestro"><path fill="#6C6BBD" d="M328.48 28.058h-13.48v-24.058h13.48z"/><g><path d="M346.233 25.341v-.647h-.156l-.18.444-.179-.444h-.157v.647h.111v-.488l.168.421h.115l.168-.422v.489h.11zm-.988 0v-.537h.2v-.109h-.509v.109h.2v.537h.11z" fill="#0099DF"/><path d="M315.903 15.86c0-4.88 2.301-9.228 5.884-12.029-2.62-2.049-5.927-3.271-9.521-3.271-8.508 0-15.405 6.85-15.405 15.301 0 8.45 6.897 15.301 15.405 15.301 3.594 0 6.901-1.223 9.521-3.271-3.583-2.802-5.884-7.149-5.884-12.029" fill="#D32011"/><path d="M346.714 15.86c0 8.45-6.897 15.301-15.405 15.301-3.594 0-6.901-1.223-9.522-3.271 3.584-2.802 5.885-7.149 5.885-12.029s-2.301-9.228-5.885-12.029c2.621-2.049 5.928-3.271 9.522-3.271 8.508 0 15.405 6.85 15.405 15.301" fill="#0099DF"/><path d="M333.089 34.687c.179 0 .437.034.634.111l-.274.833c-.188-.077-.376-.102-.556-.102-.582 0-.873.374-.873 1.045v2.278h-.89v-4.062h.882v.493c.231-.357.565-.595 1.078-.595zm-3.289.91h-1.455v1.836c0 .408.145.68.591.68.231 0 .522-.077.787-.23l.257.756c-.282.196-.727.315-1.112.315-1.053 0-1.42-.561-1.42-1.505v-1.852h-.831v-.807h.831v-1.232h.898v1.232h1.455v.807zm-11.391.867c.095-.587.454-.986 1.087-.986.573 0 .941.357 1.035.986h-2.123zm3.047.357c-.009-1.267-.796-2.133-1.943-2.133-1.198 0-2.036.867-2.036 2.133 0 1.291.873 2.132 2.097 2.132.616 0 1.18-.153 1.677-.569l-.437-.655c-.342.272-.779.425-1.189.425-.573 0-1.095-.264-1.223-.994h3.037l.018-.339zm3.91-.994c-.248-.154-.752-.349-1.274-.349-.488 0-.779.179-.779.477 0 .271.308.348.693.399l.419.059c.89.128 1.429.502 1.429 1.216 0 .773-.685 1.326-1.865 1.326-.668 0-1.284-.17-1.772-.527l.419-.689c.3.23.745.425 1.362.425.607 0 .932-.178.932-.493 0-.229-.231-.357-.719-.424l-.419-.059c-.916-.128-1.412-.536-1.412-1.198 0-.807.668-1.301 1.703-1.301.65 0 1.241.145 1.668.425l-.385.714zm10.975-.3c-.183 0-.353.032-.51.095-.157.064-.293.154-.407.268-.115.115-.205.253-.27.413-.066.161-.098.338-.098.53 0 .194.032.37.098.53.066.161.156.299.27.413.115.115.251.204.407.268.158.064.327.095.51.095s.354-.031.51-.095c.158-.064.295-.154.409-.268.117-.115.207-.253.273-.413.066-.161.098-.337.098-.53s-.032-.37-.098-.53c-.067-.161-.157-.299-.273-.413-.115-.115-.252-.204-.409-.268-.157-.063-.327-.095-.51-.095zm0-.839c.317 0 .611.054.882.164.27.109.504.26.701.451.198.192.352.418.463.679.112.262.167.546.167.852 0 .306-.056.59-.167.852-.112.261-.265.488-.463.68-.197.192-.431.341-.701.451-.27.109-.564.163-.882.163-.317 0-.611-.054-.882-.163-.27-.11-.502-.26-.698-.451-.196-.192-.35-.419-.461-.68-.112-.262-.167-.546-.167-.852 0-.306.056-.59.167-.852.112-.261.265-.487.461-.679.196-.192.428-.342.698-.451.27-.11.564-.164.882-.164zm-23.132 2.133c0-.714.471-1.301 1.241-1.301.736 0 1.232.561 1.232 1.301 0 .739-.497 1.3-1.232 1.3-.77 0-1.241-.586-1.241-1.3zm3.312 0v-2.031h-.889v.493c-.283-.366-.71-.595-1.292-.595-1.147 0-2.045.892-2.045 2.133 0 1.24.898 2.133 2.045 2.133.582 0 1.009-.23 1.292-.595v.493h.889v-2.031zm-5.014 2.031v-2.55c0-.96-.616-1.606-1.608-1.615-.522-.009-1.062.153-1.438.723-.282-.45-.728-.723-1.353-.723-.436 0-.864.127-1.198.603v-.501h-.889v4.062h.898v-2.252c0-.705.394-1.08 1.001-1.08.591 0 .89.382.89 1.071v2.261h.898v-2.252c0-.705.411-1.08 1.001-1.08.608 0 .899.382.899 1.071v2.261h.898z" fill="#110F0D"/></g><path d="M339.347 39.522v-.1h.093l.05.013.02.038-.02.037-.05.013h-.093zm.094.07l.112-.032.039-.088-.031-.077-.089-.037.123-.141h-.096l-.115.14h-.037v-.14h-.08v.375h.174zm-.024-.503l.122.024.1.067.068.1.024.123-.024.123-.068.1-.1.066-.122.024-.124-.024-.102-.066-.067-.1-.024-.123.024-.123.067-.1.102-.067.124-.024zm0 .718l.161-.032.132-.087.088-.128.032-.157-.032-.157-.088-.127-.132-.088-.161-.032-.164.032-.132.088-.088.127-.032.157.032.157.088.128.132.087.164.032z" fill="#242021"/></g></g></svg>