<svg width="70" height="40" viewBox="0 0 70 40" xmlns="http://www.w3.org/2000/svg"><title>dankort</title><desc>Created with Sketch.</desc><g fill="none"><path d="M7.88 4.627c1.176-1.02 2.832-1.53 4.344-1.53h45.264c1.512 0 3 .51 4.344 1.53 1.848 1.36 3 3.376 3.168 5.586v19.769c-.168 3.206-2.496 6.096-5.688 6.751-1.176.34-2.328.17-3.504.17h-43.44c-1.68 0-3.336-.68-4.68-1.87-1.512-1.36-2.496-3.206-2.664-5.246v-19.769c0-2.016 1.176-4.031 2.856-5.391zm3.648-.461c-3 .34-5.256 3.327-5.424 6.387v18.943c0 3.206 2.76 6.266 5.952 6.266h45.504c3.336 0 5.952-2.623 6.096-6.023v-19.356c0-3.206-2.832-6.096-6.192-6.266h-45.264c-.312 0-.432.024-.672.049z" id="Shape" fill="#000"/><path d="M8.696 5.404c1.128-.947 2.712-1.433 4.176-1.433h43.464c1.464 0 2.928.146 4.968 1.676 1.776 1.287 2.328 2.817 2.328 4.979v18.603c.144 3.497-2.52 6.387-5.52 6.484h-45.6c-1.896 0-2.952-.389-4.248-1.506-1.464-1.287-2.16-3.254-2.328-5.173v-18.579c.024-1.87 1.152-3.764 2.76-5.051z" id="Shape" fill="#fff"/><path d="M11.048 8.343c.84-.51 1.68-1.02 2.832-1.02h39.57599999999999c1.512 0 3-.17 4.344.34 1.344.68 2.496 1.87 3 3.376.336 1.53.168 2.866.168 4.396v12.847c-.168 1.53-1.008 2.866-2.16 3.716-.84.51-1.848.85-2.832 1.02h-40.943999999999996c-.672 0-1.512 0-2.16-.17-1.344-.34-2.496-1.36-3.168-2.526-.504-.85-.672-1.7-.672-2.696h18.048c2.016-.17 3.84-1.02 5.184-2.356 1.008-1.02 1.68-2.356 2.16-3.716l-.504 6.266h9.36c0-2.696.168-5.246.336-7.941l4.848 7.091c.168.34.336.68.672.68h11.352c-2.328-2.696-4.512-5.586-6.672-8.451 2.016-2.186 4.008-4.566 6.336-6.581h-11.184c-1.848 2.04-3.504 4.396-5.352 6.411.168-2.186.336-4.396.504-6.411h-9.528l-.336 5.756c-.504-2.04-1.848-4.056-3.672-4.906-1.344-.51-2.832-.85-4.176-.85h-17.712c.168-1.724 1.008-3.424 2.352-4.274zM18.392 17.644c1.512 0 3.168-.34 4.512.34.84.34 1.512 1.19 1.176 2.04-.336.85-1.176 1.53-2.016 1.7-1.344.34-2.664 0-4.008.17.168-1.53.168-2.89.336-4.25z" fill="#ED1C24"/></g></svg>