<?xml version="1.0" encoding="utf-8"?>
<!-- Generator: Adobe Illustrator 24.0.1, SVG Export Plug-In . SVG Version: 6.00 Build 0)  -->
<svg version="1.1" id="Layer_1" xmlns="http://www.w3.org/2000/svg" xmlns:xlink="http://www.w3.org/1999/xlink" x="0px" y="0px"
	 viewBox="0 0 70 40" style="enable-background:new 0 0 70 40;" xml:space="preserve">
<style type="text/css">
	.st0{fill:#18799F;}
	.st1{fill:#56BCDB;}
</style>
<title>banktransfer-en</title>
<desc>Created with Sketch.</desc>
<g>
	<path class="st0" d="M6.2,30.8l1-7h2.3c0.7,0,1.2,0.2,1.6,0.5s0.6,0.7,0.5,1.4c-0.1,0.3-0.2,0.6-0.4,0.8s-0.5,0.4-0.8,0.6
		c0.5,0.1,0.7,0.3,1,0.6c0.2,0.4,0.3,0.7,0.2,1.2c-0.1,0.7-0.4,1.1-0.8,1.5c-0.5,0.3-1,0.5-1.8,0.5H6.2z M7.7,27.5L7.3,30h1.9
		c0.4,0,0.7-0.1,1-0.3c0.3-0.2,0.5-0.6,0.5-0.9c0.1-0.4,0-0.7-0.2-0.9c-0.2-0.2-0.6-0.4-0.9-0.4H9.5C9.5,27.5,7.7,27.5,7.7,27.5z
		 M7.8,26.7h1.6c0.4,0,0.7-0.1,0.9-0.3c0.3-0.2,0.4-0.5,0.5-0.8c0.1-0.4,0-0.7-0.2-0.8c-0.2-0.2-0.6-0.3-1-0.3H8.2L7.8,26.7z"/>
	<path class="st0" d="M15.2,30.8c0-0.2,0-0.3,0-0.5c0-0.1,0-0.2,0-0.4c-0.2,0.3-0.5,0.5-0.7,0.7c-0.3,0.2-0.7,0.3-0.9,0.3
		c-0.6,0-0.9-0.2-1.1-0.5c-0.3-0.3-0.4-0.7-0.3-1.1c0.1-0.5,0.4-0.9,0.7-1.2c0.5-0.3,1-0.4,1.7-0.4h1l0.1-0.6c0.1-0.3,0-0.6-0.2-0.7
		c-0.2-0.2-0.4-0.3-0.7-0.3c-0.3,0-0.6,0.1-0.7,0.2c-0.2,0.2-0.4,0.4-0.4,0.6h-0.9l0,0c0-0.4,0.3-0.7,0.7-1c0.5-0.3,0.9-0.5,1.5-0.5
		c0.6,0,1,0.2,1.3,0.5c0.3,0.3,0.5,0.7,0.4,1.3l-0.4,2.5c0,0.2-0.1,0.4-0.1,0.6c0,0.2,0,0.4,0,0.5L15.2,30.8L15.2,30.8z M13.8,30.1
		c0.4,0,0.7-0.1,0.9-0.3c0.3-0.2,0.6-0.4,0.7-0.7l0.1-0.8h-1c-0.4,0-0.7,0.1-0.9,0.3c-0.3,0.2-0.4,0.5-0.5,0.7c0,0.3,0,0.5,0.1,0.6
		C13.2,29.9,13.4,30.1,13.8,30.1z"/>
	<path class="st0" d="M18.6,26.3c0.2-0.3,0.5-0.5,0.7-0.7c0.3-0.2,0.6-0.2,0.9-0.2c0.6,0,0.9,0.2,1.2,0.5c0.3,0.4,0.4,0.8,0.3,1.5
		l-0.5,3.3h-0.9l0.5-3.3c0.1-0.5,0-0.8-0.1-1c-0.2-0.2-0.4-0.3-0.8-0.3c-0.3,0-0.6,0.1-0.7,0.2c-0.2,0.1-0.4,0.3-0.6,0.5l-0.6,3.8
		h-0.9l0.7-5.2h0.8L18.6,26.3z"/>
	<path class="st0" d="M24,28.3h-0.5l-0.4,2.4h-0.9l1.1-7.6h0.9l-0.7,4.4h0.5l1.9-2.1h1.1l0,0l-2.2,2.3l1.7,2.8h-1.1L24,28.3z"/>
	<path class="st0" d="M35.6,24.9h-2.1l-0.8,6h-1.4l0.8-6h-2l0.2-1.1h5.4L35.6,24.9z"/>
	<path class="st0" d="M38,26.7h-0.6c-0.2,0-0.4,0-0.6,0.1c-0.2,0.1-0.3,0.2-0.4,0.4l-0.5,3.5h-1.4l0.7-5.2h1.3l-0.1,0.7
		c0.2-0.3,0.4-0.5,0.6-0.7c0.2-0.2,0.5-0.2,0.7-0.2c0.1,0,0.1,0,0.2,0c0.1,0,0.1,0,0.2,0L38,26.7z"/>
	<path class="st0" d="M40.8,30.8c0-0.1-0.1-0.3-0.1-0.4c0-0.1,0-0.3,0-0.4c-0.2,0.3-0.4,0.5-0.7,0.7c-0.3,0.2-0.6,0.3-0.8,0.3
		c-0.6,0-0.9-0.2-1.2-0.5c-0.3-0.3-0.4-0.7-0.3-1.1c0.1-0.6,0.4-0.9,0.7-1.2c0.5-0.3,1-0.4,1.8-0.4H41l0.1-0.4c0-0.3,0-0.5-0.1-0.6
		c-0.1-0.1-0.3-0.2-0.6-0.2c-0.2,0-0.4,0.1-0.6,0.2c-0.2,0.1-0.2,0.3-0.3,0.5h-1.4l0,0c0.1-0.5,0.3-0.8,0.7-1.1
		c0.5-0.3,1-0.5,1.7-0.5c0.6,0,1.1,0.2,1.4,0.5c0.3,0.3,0.5,0.7,0.4,1.3l-0.3,2.1c0,0.3-0.1,0.5-0.1,0.7c0,0.2,0,0.5,0.1,0.7h-1.3
		C40.8,30.9,40.8,30.8,40.8,30.8z M39.7,29.8c0.3,0,0.5-0.1,0.7-0.2c0.2-0.1,0.4-0.3,0.5-0.5l0.1-0.7h-0.7c-0.3,0-0.6,0.1-0.7,0.2
		c-0.2,0.2-0.3,0.4-0.3,0.6c0,0.2,0,0.3,0.1,0.5C39.3,29.8,39.5,29.8,39.7,29.8z"/>
	<path class="st0" d="M44.7,26.3c0.2-0.3,0.5-0.5,0.7-0.6s0.6-0.2,0.8-0.2c0.5,0,0.9,0.2,1.1,0.6s0.3,0.8,0.2,1.6l-0.5,3.2h-1.4
		l0.5-3.2c0.1-0.4,0-0.7-0.1-0.8c-0.1-0.2-0.3-0.2-0.6-0.2c-0.2,0-0.4,0-0.6,0.1c-0.2,0.1-0.3,0.2-0.5,0.4l-0.6,3.7h-1.3l0.7-5.2
		h1.3V26.3z"/>
	<path class="st0" d="M50.9,29.4c0-0.2,0-0.3-0.2-0.4c-0.2-0.1-0.4-0.2-0.7-0.3c-0.6-0.1-1-0.3-1.3-0.6c-0.3-0.3-0.4-0.6-0.4-1
		c0.1-0.5,0.3-0.8,0.7-1.1c0.4-0.3,0.9-0.5,1.6-0.5s1.1,0.2,1.5,0.5c0.4,0.3,0.5,0.7,0.5,1.2l0,0h-1.4c0-0.2,0-0.4-0.1-0.6
		c-0.1-0.1-0.3-0.2-0.6-0.2c-0.2,0-0.4,0.1-0.6,0.2c-0.2,0.1-0.3,0.3-0.3,0.4c0,0.2,0,0.3,0.2,0.4c0.2,0.1,0.4,0.2,0.8,0.3
		c0.7,0.1,1,0.3,1.3,0.6c0.3,0.3,0.4,0.6,0.4,1c-0.1,0.5-0.3,0.8-0.7,1.1s-1,0.5-1.7,0.5c-0.7,0-1.2-0.2-1.6-0.6
		c-0.4-0.4-0.5-0.7-0.5-1.2l0,0h1.2c0,0.3,0,0.5,0.2,0.7c0.2,0.1,0.4,0.2,0.7,0.2c0.3,0,0.5-0.1,0.7-0.2
		C50.7,29.6,50.8,29.5,50.9,29.4z"/>
	<path class="st0" d="M52.9,30.8l0.7-4.2h-0.7l0.2-1h0.7l0.1-0.6c0.1-0.7,0.3-1,0.7-1.4c0.4-0.3,0.8-0.5,1.5-0.5c0.1,0,0.2,0,0.4,0
		c0.2,0,0.3,0,0.4,0.1l-0.3,1c-0.1,0-0.2,0-0.2,0c-0.1,0-0.2,0-0.3,0c-0.2,0-0.4,0.1-0.6,0.2c-0.2,0.1-0.2,0.3-0.3,0.6l-0.1,0.6h1
		l-0.2,1h-1l-0.7,4.2C54.3,30.8,52.9,30.8,52.9,30.8z"/>
	<path class="st0" d="M57.7,30.8c-0.7,0-1.3-0.3-1.7-0.7c-0.4-0.5-0.6-1.1-0.4-1.9V28c0.1-0.8,0.5-1.5,0.9-2s1.1-0.7,1.9-0.7
		c0.7,0,1.2,0.2,1.5,0.7c0.3,0.5,0.5,1,0.3,1.7l-0.1,0.7h-3.1l0,0c0,0.4,0,0.7,0.2,0.8c0.2,0.2,0.5,0.3,0.8,0.3c0.3,0,0.6,0,0.8-0.1
		s0.5-0.2,0.7-0.3L60,30c-0.3,0.2-0.6,0.3-0.9,0.5C58.6,30.8,58.1,30.8,57.7,30.8z M58.3,26.6c-0.3,0-0.5,0.1-0.7,0.3
		c-0.2,0.2-0.3,0.5-0.4,0.7l0,0h1.7v-0.1c0.1-0.3,0-0.6-0.1-0.7C58.8,26.6,58.6,26.6,58.3,26.6z"/>
	<path class="st0" d="M63.6,26.7h-0.6c-0.2,0-0.4,0-0.6,0.1c-0.2,0.1-0.3,0.2-0.4,0.4l-0.6,3.5h-1.4l0.7-5.2h1.3l-0.1,0.7
		c0.2-0.3,0.4-0.5,0.6-0.7c0.2-0.2,0.5-0.2,0.7-0.2c0.1,0,0.1,0,0.2,0c0.1,0,0.1,0,0.2,0L63.6,26.7z"/>
</g>
<g>
	<path class="st1" d="M7.2,19.6l1.5-9.9h3.1c1,0,1.8,0.4,2.4,1.2c0.6,0.8,0.8,1.8,0.6,3l-0.2,1.6c-0.2,1.3-0.7,2.3-1.5,3
		c-0.8,0.7-1.7,1.1-2.7,1.1H7.2z M10.4,11.2l-1,6.9h1.1c0.5,0,0.9-0.2,1.3-0.7c0.4-0.5,0.6-1.1,0.8-1.9l0.3-1.7
		c0.1-0.8,0.1-1.4-0.2-1.9s-0.6-0.7-1.1-0.7C11.6,11.2,10.4,11.2,10.4,11.2z"/>
	<path class="st1" d="M16.9,19.6H15l1.5-9.9h1.9L16.9,19.6z"/>
	<path class="st1" d="M20.8,15.6l-0.6,4h-1.9l1.5-9.9h3c0.9,0,1.7,0.3,2.2,0.8s0.7,1.2,0.6,2.1c-0.1,0.5-0.3,1-0.6,1.4
		c-0.3,0.4-0.7,0.7-1.2,0.9c0.5,0.2,0.8,0.5,1,0.9s0.2,0.9,0.1,1.5L24.8,18c0,0.3-0.1,0.6,0,0.9c0,0.3,0.1,0.5,0.2,0.7v0.1h-2
		c-0.1-0.1-0.2-0.4-0.2-0.7c0-0.3,0-0.7,0.1-1l0.1-0.7c0.1-0.5,0-0.9-0.1-1.2c-0.2-0.3-0.4-0.4-0.8-0.4L20.8,15.6L20.8,15.6z
		 M21,14.1h1c0.4,0,0.7-0.1,1-0.4s0.4-0.6,0.5-1c0.1-0.5,0-0.9-0.1-1.1c-0.2-0.3-0.5-0.4-0.9-0.4h-1L21,14.1z"/>
	<path class="st1" d="M31.3,15.2h-3l-0.4,2.9h3.6l-0.2,1.5h-5.5l1.5-9.9h5.5l-0.2,1.5H29l-0.4,2.5h3L31.3,15.2z"/>
	<path class="st1" d="M39.1,16.5L39.1,16.5c-0.1,1.1-0.5,2-1.1,2.5s-1.5,0.8-2.5,0.8s-1.8-0.3-2.4-0.9c-0.5-0.6-0.7-1.5-0.6-2.7
		l0.4-2.9c0.2-1.2,0.6-2.1,1.3-2.7c0.7-0.6,1.6-0.9,2.6-0.9s1.8,0.3,2.3,0.8s0.7,1.3,0.5,2.4l0,0h-1.9c0.1-0.7,0.1-1.1-0.1-1.4
		c-0.2-0.2-0.5-0.4-1.1-0.4c-0.5,0-0.8,0.2-1.1,0.5c-0.3,0.4-0.5,0.9-0.6,1.6l-0.4,2.9c-0.1,0.7-0.1,1.3,0.1,1.6
		c0.2,0.3,0.6,0.5,1.1,0.5s0.8-0.1,1.1-0.4s0.4-0.7,0.5-1.3C37.2,16.5,39.1,16.5,39.1,16.5z"/>
	<path class="st1" d="M46.6,11.2h-2.3L43,19.6h-1.9l1.3-8.4h-2.3l0.2-1.5h6.5L46.6,11.2z"/>
</g>
<g id="Send_Money">
	<g>
		<path class="st1" d="M64,19.9H50.3c-0.2,0-0.3-0.2-0.3-0.4l1-7.9c0-0.2,0.2-0.4,0.4-0.4h13.7c0.2,0,0.3,0.2,0.3,0.4l-1,7.9
			C64.4,19.7,64.2,19.9,64,19.9z M50.8,19.1h13l0.9-7.2h-13L50.8,19.1z"/>
		<path class="st1" d="M62,18.4h-9.4c-0.2,0-0.3-0.2-0.3-0.4c0-0.2-0.1-0.4-0.3-0.4s-0.3-0.2-0.3-0.4l0.4-3.6c0-0.2,0.2-0.4,0.4-0.4
			s0.4-0.2,0.4-0.4s0.2-0.4,0.4-0.4h9.4c0.2,0,0.3,0.2,0.3,0.4s0.1,0.4,0.3,0.4s0.3,0.2,0.3,0.4l-0.4,3.6c0,0.2-0.2,0.4-0.4,0.4
			s-0.4,0.2-0.4,0.4C62.4,18.3,62.2,18.4,62,18.4z M53,17.7h8.8c0.1-0.3,0.4-0.6,0.7-0.7l0.4-3c-0.3-0.1-0.5-0.4-0.6-0.7h-8.8
			c-0.1,0.3-0.4,0.6-0.7,0.7l-0.4,3C52.8,17.1,53,17.4,53,17.7z"/>
		<path class="st1" d="M57.5,17c-0.8,0-1.4-0.6-1.3-1.4c0.1-0.8,0.8-1.4,1.6-1.4s1.4,0.6,1.3,1.4C59,16.3,58.3,17,57.5,17z
			 M57.8,14.8c-0.4,0-0.8,0.3-0.8,0.7s0.2,0.7,0.6,0.7c0.4,0,0.8-0.3,0.8-0.7C58.5,15.1,58.2,14.8,57.8,14.8z"/>
		<path class="st1" d="M54.4,15.9h-0.7c-0.2,0-0.3-0.2-0.3-0.4s0.2-0.4,0.4-0.4h0.7c0.2,0,0.3,0.2,0.3,0.4S54.6,15.9,54.4,15.9z"/>
		<path class="st1" d="M61.6,15.9h-0.7c-0.2,0-0.3-0.2-0.3-0.4s0.2-0.4,0.4-0.4h0.7c0.2,0,0.3,0.2,0.3,0.4S61.8,15.9,61.6,15.9z"/>
		<path class="st1" d="M49,19.1h-1.4c-0.2,0-0.3-0.2-0.3-0.4s0.2-0.4,0.4-0.4H49c0.2,0,0.3,0.2,0.3,0.4C49.3,19,49.2,19.1,49,19.1z"
			/>
		<path class="st1" d="M49.2,17h-2.9c-0.2,0-0.3-0.2-0.3-0.4c0-0.2,0.2-0.4,0.4-0.4h2.9c0.2,0,0.3,0.2,0.3,0.4
			C49.6,16.8,49.4,17,49.2,17z"/>
		<path class="st1" d="M49.8,12.6h-2.2c-0.2,0-0.3-0.2-0.3-0.4s0.2-0.4,0.4-0.4h2.2c0.2,0,0.3,0.2,0.3,0.4S50,12.6,49.8,12.6z"/>
		<path class="st1" d="M49.5,14.8h-4.3c-0.2,0-0.3-0.2-0.3-0.4s0.2-0.4,0.4-0.4h4.3c0.2,0,0.3,0.2,0.3,0.4
			C49.9,14.7,49.7,14.8,49.5,14.8z"/>
	</g>
</g>
</svg>
