<svg width="70" height="40" viewBox="0 0 70 40" xmlns="http://www.w3.org/2000/svg"><title>eps</title><desc>Created with Sketch.</desc><g fill="none"><path d="M49.769 20.371h-4.243c-.472 0-.856-.377-.856-.849s.384-.888.856-.888h6.46v-3.196h-6.46c-2.255 0-4.089 1.844-4.089 4.1 0 2.256 1.834 4.1 4.089 4.1h4.185c.472 0 .856.376.856.848s-.384.82-.856.82h-8.975c-.762 1.459-1.503 2.71-3.007 3.335h12.04c2.217-.032 4.03-1.914 4.03-4.15 0-2.236-1.813-4.087-4.03-4.119" fill="#71706F"/><path d="M33.504 25.304h-3.269v-3.291c0-1.839 1.46-3.335 3.269-3.335 1.81 0 3.282 1.496 3.282 3.335s-1.472 3.291-3.282 3.291m0-9.867c-3.596 0-6.525 2.956-6.525 6.587v13.702h3.256v-7.087h3.263c3.596 0 6.515-2.995 6.515-6.626 0-3.632-2.912-6.576-6.508-6.576" fill="#71706F"/><path d="M16.671 28.639c-3.078 0-5.667-2.2-6.367-5.075 0 0-.202-.95-.202-1.576 0-.626.192-1.586.192-1.586.705-2.867 3.29-5.003 6.364-5.003 3.615 0 6.581 2.947 6.581 6.573v1.595h-9.604c.567 1.112 1.714 1.737 3.037 1.737h8.633l.012-9.403c0-1.402-1.143-2.549-2.541-2.549h-12.236c-1.398 0-2.541 1.112-2.541 2.514v12.274c0 1.402 1.143 2.583 2.541 2.583h12.236c1.254 0 2.3-.903 2.503-2.085h-8.607z" fill="#C8036F"/><path d="M16.657 18.519c-1.318 0-2.463.809-3.033 1.851h6.066c-.569-1.042-1.715-1.851-3.033-1.851" fill="#C8036F"/><path d="M22.199 9.361c0-2.996-2.482-5.424-5.543-5.424-3.011 0-5.459 2.349-5.54 5.276v1.6669999999999998c0 .195.158.388.358.388h2.039c.199 0 .374-.193.374-.388v-1.519c0-1.496 1.242-2.713 2.771-2.713s2.771 1.217 2.771 2.713v1.519c0 .195.162.388.361.388h2.04c.199 0 .371-.193.371-.388v-1.519z" fill="#C8036F"/><path d="M36.354 32.35c0 .144.111.209.229.209.127 0 .295-.103.295-.292 0-.135-.098-.209-.209-.209-.147 0-.315.094-.315.292zm-.983.004c0 .14.107.205.221.205.143 0 .299-.103.299-.296 0-.135-.09-.205-.209-.205-.147 0-.311.094-.311.296zm1.785.524l-.295 1.674c-.147.846-.7 1.234-1.45 1.234-.635 0-1.126-.415-.983-1.233l.295-1.676h.455l-.295 1.674c-.09.522.143.819.586.819.455 0 .844-.271.938-.818l.295-1.676h.455z" fill="#71706F"/><path d="M37.936 34.83c-.016.337.201.554.516.554.397 0 .782-.308.807-.776.016-.341-.205-.542-.512-.542-.393 0-.786.316-.811.764zm.319-1.953l-.205 1.157c.176-.238.528-.364.774-.364.508 0 .86.299.86.853 0 .785-.545 1.256-1.241 1.256-.27 0-.5-.101-.639-.355l-.078.302h-.397l.504-2.849h.422z" fill="#71706F"/><path d="M41.807 34.545c.033-.347-.172-.489-.512-.489-.307 0-.59.141-.713.489h1.224zm-1.294.347c-.016.278.201.505.569.505.205 0 .475-.08.622-.22l.229.266c-.25.23-.618.344-.929.344-.581 0-.921-.349-.921-.883 0-.711.557-1.24 1.269-1.24.651 0 1.02.395.799 1.228h-1.638z" fill="#71706F"/><path d="M43.277 33.712l-.021.268c.197-.259.434-.312.651-.312.197 0 .373.07.467.173l-.254.37c-.09-.082-.18-.123-.336-.123-.291 0-.577.175-.643.549l-.192 1.091h-.422l.356-2.015h.393z" fill="#71706F"/><path fill="#71706F" d="M46.407 33.712l.213 1.594.77-1.594h.471l-1.056 2.015h-.496l-.201-1.329-.324.66-.352.669h-.491l-.356-2.015h.475l.209 1.594.774-1.594z"/><path d="M49.696 34.545c.033-.347-.172-.489-.512-.489-.307 0-.59.141-.713.489h1.224zm-1.294.347c-.016.278.201.505.569.505.205 0 .475-.08.622-.22l.229.266c-.25.23-.618.344-.929.344-.581 0-.921-.349-.921-.883 0-.711.557-1.24 1.269-1.24.651 0 1.02.395.799 1.228h-1.638z" fill="#71706F"/><path d="M50.823 33.163c0 .144.107.218.221.218.164 0 .315-.107.315-.308 0-.136-.102-.214-.213-.214-.152 0-.324.099-.324.304zm.373.549l-.356 2.015h-.422l.356-2.015h.422z" fill="#71706F"/><path d="M53.067 34.21c-.131-.148-.299-.189-.5-.189-.279 0-.475.095-.475.271 0 .148.16.21.397.23.369.033.839.156.741.678-.07.378-.446.6-.971.6-.328 0-.643-.074-.856-.374l.274-.3c.151.209.418.296.655.3.201 0 .438-.074.475-.263.037-.181-.123-.25-.418-.279-.344-.033-.721-.16-.721-.542 0-.505.544-.682.954-.682.311 0 .541.07.729.271l-.287.279z" fill="#71706F"/><path d="M54.399 33.712l-.192 1.085c-.061.345.094.584.446.584.332 0 .614-.276.671-.612l.184-1.056h.422l-.356 2.015h-.381l.029-.292c-.237.226-.471.332-.753.332-.496 0-.79-.356-.684-.968l.193-1.087h.422z" fill="#71706F"/><path d="M57.782 35.727l.193-1.079c.061-.349-.057-.581-.442-.581-.336 0-.618.271-.676.604l-.184 1.055h-.422l.356-2.015h.385l-.029.294c.233-.218.475-.325.737-.325.491 0 .811.343.7.963l-.193 1.082h-.426z" fill="#71706F"/><path d="M59.33 34.843c0 .345.225.554.549.554.872 0 1.106-1.343.233-1.343-.414 0-.782.308-.782.789zm-.119 1.162c-.029.278.184.39.541.39.311 0 .647-.174.725-.618l.061-.346c-.184.259-.52.361-.77.361-.516 0-.876-.308-.876-.867 0-.797.59-1.257 1.257-1.257.283 0 .537.135.627.365l.07-.321h.409l-.352 2.075c-.131.768-.7 1.007-1.22 1.007-.623 0-.966-.302-.881-.789h.409z" fill="#71706F"/></g></svg>