<svg width="70" height="40" viewBox="0 0 70 40" xmlns="http://www.w3.org/2000/svg"><title>ideal-qr</title><desc>Created with Sketch.</desc><g fill="none"><path fill="#B9215E" d="M47.593 1.41h7.358v-1.4h-7.358z"/><path id="Fill-5" fill="#B9215E" d="M53.549 7.368h1.402v-7.358h-1.402z"/><path fill="#B9215E" d="M53.549 39.954h1.402v-7.358h-1.402z"/><path fill="#B9215E" d="M47.593 39.952h7.358v-1.4h-7.358z"/><path fill="#B9215E" d="M15.007 39.952h7.358v-1.4h-7.358z"/><path fill="#B9215E" d="M15.007 39.954h1.402v-7.358h-1.402z"/><path fill="#B9215E" d="M15.007 7.368h1.402v-7.358h-1.402z"/><path fill="#B9215E" d="M15.007 1.41h7.358v-1.4h-7.358z"/><path d="M20 7.001v25.999h15.321c10.107 0 14.49-5.6 14.49-13.026 0-7.396-4.383-12.974-14.49-12.974h-15.321" fill="#fff"/><path d="M22.981 9.953v20.095h12.342c7.452 0 11.507-3.434 11.507-10.074 0-6.822-4.395-10.022-11.507-10.022h-12.342zm-1.325-1.312h13.668c9.277 0 12.831 5.012 12.831 11.333 0 7.58-4.965 11.384-12.831 11.384h-13.668v-22.718z" fill="#1A1918"/><path fill="#1A1918" d="M24.637 28.409h3.951v-6.956h-3.951z"/><path d="M29.067 17.947c0 1.342-1.099 2.43-2.455 2.43s-2.455-1.088-2.455-2.43c0-1.341 1.1-2.429 2.455-2.429 1.357 0 2.455 1.088 2.455 2.429" fill="#1A1918"/><path d="M30.576 16.815v2.268h.703c.488 0 .938-.14.938-1.153 0-.988-.5-1.115-.938-1.115h-.703zm11.737-1.129h1.139v3.396h1.686c-.462-6.161-5.361-7.493-9.813-7.493h-4.747v4.099h.702c1.282 0 2.077.859 2.077 2.241 0 1.427-.776 2.279-2.077 2.279h-.702v8.202h4.747c7.238 0 9.757-3.326 9.845-8.203h-2.857v-4.521zm-3.172 2.523h.824l-.378-1.278h-.069l-.378 1.278zm-1.776 2l1.379-4.524h1.619l1.377 4.524h-1.185l-.258-.875h-1.489l-.259.875h-1.185zm-.492-1.127v1.125h-2.816v-4.519h2.725v1.125h-1.587v.522h1.501v1.127h-1.501v.619h1.677z" fill="#C91967"/></g></svg>