<svg width="60" height="40" viewBox="0 0 60 40" xmlns="http://www.w3.org/2000/svg"><title>ing</title><desc>Created with Sketch.</desc><path d="M55.915 35.945c-2.309 2.344-4.625 2.618-6.529 2.618h-1.225c-.818.414-1.361.687-2.043.687h-6.668c0-.687.276-.825.276-1.239 0-.414.543-1.099.815-1.099l.545 1.237c.409-.138.543-.414.543-.825 0-.551-.682-1.24-.682-1.24l.549-.551c.27.139.406.551.539.551.545 0 .818-.276.818-.412 0-.139-.409-.413-.679-.689-.409-.415-.679-.551-1.088-.551-.818 0-1.907 1.928-2.04 2.892l-.276 1.926h-1.085c.137-.961-.136-1.652.137-2.478.133-.138.406.14.679.276 0-.276.409-.551.27-.965-.133-.276-.679-.551-.679-.551.137-.274.409-.965.409-.965s1.088.415.949.277c0-.277-.27-.277-.133-.551l.952.138v-.415c-.27-.136-.818-.412-1.497-.412-.949.139-.815.275-.949.551-1.091.138-1.773.412-2.316.412l-1.225 1.516c.137.689 0 1.514.273 2.065.137.413.273.691.545 1.101h-12.381c.273-.41.406-.961.815-1.239 0 .138.137.138.273.277h.815c.409 0 .682 0 .818-.277l-1.497-.687.137-1.24c0-.965-.815-1.239-1.361-1.239-.409 0-1.088.274-1.228.687-.406-.274-.679-.55-1.088-.687v-1.101c.818-.415 1.497 0 2.179.272h.543l-.27-.272c-.546-.966-1.634-1.103-2.858-.966-.409.138-.409 1.103-.815.551-.546 0-.815.276-1.225.276l-.682.275c-.273.136-.137.136-.273.414-.27.689-.679 1.239-.952 1.79 0 .689-.273 1.514 0 2.065l.682 1.101h-16.055c-.546-.825-.679-1.514-.679-2.478 0-.689.406-1.24.679-1.514 0-.691 0-1.102.952-1.929.409-.414 1.225-.551 1.77-.276.542-.551 1.088-.825 1.767-.825.679 0 1.361 0 1.907.549 0 0 .406-1.654.679-2.479.273-1.102.955-2.617 1.634-3.995-.679-2.203-1.497-4.269-1.77-6.334 0-.138.137-.414.137-.414l.273-.277c.273-.41.273-.961.543-1.239-.27 0-.543.277-.679.277s-.409.414-.409.551c-.137-.138-.137-.277-.137-.551 0-.413-.133-.827-.133-1.104 0-.412.406-.825.679-.825l.137-1.516-.952.965v-1.79c.137-.138.406-.276.543-.551 0-2.205.137-4.133.682-5.923.137-.553.543-.825.815-1.239v-1.516c.409-.277.682-.689 1.091-.825-.139-.14-.409-.14-.682-.14.409-.965.952-1.516 1.631-2.065.273-.274.545-.551.818-.689.27 0 .27.138.27.138.679 0 1.088.277 1.907.277-.273-.277-.682-.551-1.088-.551l.133-.14c.545-.276.955-.551 1.497-.551.273.551.682.827.818 1.242l.406.274c-.136-.551.137-1.24-.406-1.79.406 0 1.361.549 2.176.965l1.225-.415c-.133.551-.409 1.24-.409 1.929l.682-.963c0-.415.406-.691.542-1.242.679-.138 1.225-.138 1.767 0-.542.275-.406.691-.406.965h.137c.27 0 .815-.274 1.088-.414.546 0 .815.14 1.225.414-.409.136-.815.277-.952.551h1.77l.136-.274c1.361.963 1.903 2.479 2.446 3.993-.27-.138-.406-.276-.679-.276.137.276.137.825.409.825.543 0 .679.413.952.691.543.549 1.497 1.101 1.767 2.064.952 1.929.815 2.479 1.225 3.719-.273-.274-.815-.138-1.088-.551 0 .414.273.827.679 1.24.273.14.545.276.818.276.409.551.543 1.376.679 2.065-.27 0-.406-.274-.815-.414v.14c0 .687.273.963.952 1.238v1.514c1.225.829 2.585 1.516 3.946 1.516 1.088 0 2.449-.413 3.401-.825-.133-.691.136-1.518.679-1.929.409-.413 1.088-.551 1.637-.551 1.358 0 2.719.963 3.807 2.067 1.361 1.652 2.449 3.856 2.858 4.543 1.358 3.444 1.358 6.474 1.358 7.576 0 1.928-.27 3.307-.539 4.546.539.413 1.358.413 1.767.413 1.631 0 3.128-.964 4.219-2.067 1.767-1.929 2.991-4.822 2.991-9.089 0-3.307-1.225-7.027-4.489-10.608-1.091-1.101-2.179-2.065-3.81-2.753-1.228-.274-2.449.412-3.946.138-.818-.275-1.77-.965-2.449-1.654l.133-.136c.276.412.818.274 1.364.412.133-.138-.137-.412-.137-.551.406-.275 1.088-.275 1.631-.275-.409-.825-1.225-.412-1.631-.687-.273-.138-.409-.138-.682 0 0 .138.273.412.273.687l-.818-.276h-.679c-.543-.55-.815-1.788-1.77-2.202v-.277c1.634-.276 3.131-1.103 4.898-.825.273 0 .545 0 .682.138l-.409.412c.409.276.819.689 1.497.689h.137c-.137-.413-.409-.689-.409-.963.549.274.955.55 1.497 1.24.819 1.514 2.179 2.891 3.674 3.993.819.549 1.634 1.238 2.179 1.79 3.943 3.857 5.304 8.541 5.304 12.808-.002 1.929-.138 6.889-4.085 10.605zm-37.957 3.306c-.273-.961-1.088-1.514-.819-2.615.273-.138.955-.138.955-.827 0-.136-.136-.275-.409-.275l-.409.139c0-.139.137-.413.409-.689l1.091-.415c-.276.551-.276 1.24-.276 1.929 0 .276.137 1.652.682 2.753h-1.225zm18.774-2.615c0 .963.273 1.654.409 2.615h-1.091c-.27-.687-.679-1.375-.679-2.338 0-.277.136-.829.273-.829.273.413.273.689.546.829.27-.14.27-.415.27-.829 0-.14 0-.551-.27-.825l.952-.14c0 .414-.409.965-.409 1.516zm-15.919 2.615h-.815c-.273-.961-.543-1.926-.543-2.891.133-.276.27-.687.543-.827l.815.827h.137c0 .965-.137 1.79-.137 2.891zm1.497 0h-.818s.409-2.338.409-2.753c0-.277.409-.689.682-.689.409 0 .682.276.682.689 0 .415-.546 1.652-.955 2.753zm22.178-33.193c-.545.277-.815.691-1.497.691.406.136.542.272.815.272.137-.136.409-.272.682-.136.406.136.679 0 1.088 0-.273-.274-.682-.414-1.088-.827zm-34.423.691c-.27.272-.409.549-.679.963v.551l.679-.276v-1.238zm38.506 1.788c-.139-.274-.409-.687-.679-1.239-.549 0-.955.276-1.228.414.409 0 .818.413 1.088.825.409 0 .679.276 1.088.691l-.27-.691zm-22.451 6.612c-1.497-.825-2.722-1.101-4.219-1.101v-.276c.682-.139 1.225-.965 1.364-1.514.406-.415.815-.966.679-1.516 0 0 0-.136.137-.276 0-.138.133-.414 0-.414-.137.276-.409.276-.546.414.273-.827.409-1.929.137-2.617l.682-.138.542-.691c.546-.272.273-1.239.546-1.788-.273-.691-.409-1.238-.818-1.516-.27-.687-1.088-.413-1.497-.827-.815-.138-1.225.414-1.767.691-.137 0-.137.274-.273.136l-.409 1.239c-.952-.136-1.9 0-2.582.415-.409-.275-.818-.275-1.361-.415-.273 0-.682 0-.955-.136-.27-.551-.27-1.102-.815-1.239-.406-.277-.406-.277-.406-.551-.273-.14-.682-.277-1.091-.277-.545-.274-.952.138-1.494.277-.139.274-.409.274-.545.274-.406.691-.679.964-.815 1.652 0 .553.273.827.409 1.38.273.414.812.963 1.494 1.239-.273.689-.273 2.205 0 2.892l-.274.139c0 .686.546 1.514 1.088 2.202.273 0 .273.414.409.553v.412c-1.497-.139-2.719.276-3.943.965-.273.136 0 .412 0 .825.679-.55 1.631-.965 2.446-1.239h1.361v.825c-1.088.689-2.176.965-3.128 1.929 0 .276-.137.549 0 .687 0 0 .546-.412.818-.551.949-.687 1.627-1.239 2.582-1.652.273.413.409.689.682.964.679-.275 1.221-.551 1.903-.964.409-.138.815 0 1.225-.274v-.965c-.409-.14-.815-.551-.682-1.102-.133 0-.27.14-.543.14 0 0-.409-.14-.409-.277 0-.276 0-.551.137-.551.545-.412 1.088-.274 1.77-.274.542 0 1.903 0 1.903.549 0 .414 0 .553-.273.689-.133 0-.406 0-.406-.136-.137.549-.546.963-1.088.963l.133.549c0 .276.139.689.409.689.952.275 1.767.689 2.449 1.24.137-.413.406-.689.546-.827 1.494.276 2.722 1.378 3.674 2.343v-.827c-.952-.965-2.179-1.516-3.404-2.203v-.691c1.634.139 2.995.551 4.219 1.378v-.827zm-16.734-5.37c-.273.55-.273.963-.409 1.513l.409 1.516c0-.827.546-1.516.409-2.755l.409-.551-.819.277zm16.464.274l-.545 2.341.815-.274.137-.829c0-.411-.273-.825-.406-1.238zm2.31 5.235c0-.14 0-.551-.409-.415-.27-.136-.27-.549-.406-.825-.137.55 0 .965 0 1.24.273.687.542.963 1.225.963 0-.276-.273-.689-.409-.963zm-8.162 1.514c-1.221-.551-3.264-.827-5.034 0 0 .689.137 1.516.545 1.929l.543-.691v1.238c.409.277.682.277.952.277 0-.277.273-.551.409-.687 0-.138 0-.551.273-.551 0 .414 0 .687.273.961v.277c.409.276.818 0 1.088 0 0-.551.137-.825.137-1.239v-.277c.273.277.542.691.542.965.679-.274.819-1.378.952-1.928-.273-.276-.406-.276-.679-.276zm8.572 1.102c-.409-.14-.682 0-1.088.136 0 .277.137.277.27.691h.818c.273 0 .545.274.815 0-.409 0-.542-.413-.815-.827zm14.012.413c-.27-.277-1.085 0-1.085-.553-.139-.138-.409-.274-.818 0-.409.14-.952 1.104-.679 1.378.133-.138 1.088-.412 1.358-.412.545 0 1.088.274 1.77.412-.136-.274-.273-.551-.545-.825zm-16.052.961l-.679.691c.27.549.949.276 1.631.276l-.952-.966zm-2.176 1.24c0-.963-.819-.963-1.228-1.376.139.413.139 1.102.409 1.652.409.277.819.827 1.497.689-.409-.412-.679-.689-.679-.965zm-10.751-.963c.137.827.409 1.516.815 2.065l.139-1.376-.955-.689zm-1.361.413v-.138c-.27-.276-.543-.553-.949-.689 0 .413.133.963.27 1.376.27.553.952 1.24 1.767 1.376-.136-.823-.815-1.376-1.088-1.926zm29.389-.138c-.543 0-.952.414-1.361.687 0 .276-.137.553 0 .965.409-.412 1.088-.827 1.497-.827l1.225.138c0-.412-.679-.963-1.361-.963zm-11.021.687l-.815.553c.679.412 1.497.275 1.903 0-.406 0-.815-.277-1.088-.553zm-7.89 1.376c0-.548-.137-1.239-.409-1.79-.273.689-.679 1.654 0 2.618.273.413.955.274 1.361.136-.136-.274-.815-.551-.951-.965zm-12.788-.548c-.136.136-.546.412-.546.687l.137.963c.273-.689.815-.963 1.225-1.376l-.815-.274zm18.774.274s-.545.414-.955.414c.409.551 1.091.825 2.179.825l.543-.136c-.543-.138-1.225-.689-1.767-1.103zm-8.029-.274c-.273.274-.543.412-.815.961-.137.551.815.689 1.361.966-.409-.551-.409-1.24-.545-1.928zm23.675.412l-.679.136-.682-.548c-.137 0-.409.274-.679.274l-.955.138c-.409 0-.409.55-1.088.55l.137 1.102c.543-.551 1.77-1.102 2.176-1.102.682 0 2.043.415 2.858.828-.137-.551-.546-1.378-1.088-1.378zm-27.891 0c-.409-.276-.682-.276-.952-.276 0 .551.543 1.24 1.088 1.791.136-.551-.137-.966-.137-1.516zm1.225.827l.409.965c.682-.276.682-1.242.682-1.929-.276.414-.682.688-1.091.965zm19.865.689c-.137-.277-.409-.415-.546-.551-.546-.138-.955-.965-1.77-.965.815.965 1.497 1.791 2.316 2.48v-.965zm-5.308-.415c-.137.277-.137.551-.137.965 0 .276.409.827.409.827.27-.276.409-.412.409-.691 0-.41-.409-.824-.682-1.101zm-5.85 0c-.273.138-.818.138-1.225.415.273.276.543.55 1.088.965.409.276 1.225.276 1.631.276-.679-.415-1.221-1.24-1.494-1.655zm-15.1.415c0 .55-.273 1.101-.273 1.79l.406-.414c.406-.412.815-1.101.815-1.514-.409-.139-.679 0-.949.138zm34.147 1.101c-.409-.136-.546-.551-1.088-.551l-.679.276-1.091-.276c-.679 0-.545.415-1.903.415v1.099c.27.138.409.138.679.138.409 0 .955-.274.955-.825 0-.276.543.138.815 0 0 0 .27-.276.546-.276.406 0 .27.414.543.689 0 .274.815.551 1.497.551 0-.551-.273-.965-.273-1.24zm-20.408.689l-.409-.689h-.27c-.409.14-.955.14-1.634.276.952.687 1.903 1.378 3.131 1.102h.27c-.27-.277-.815-.689-1.088-.689zm-11.973-.55c-.273.55-.818 1.514-1.767 1.788.539 0 1.221.276 1.767-.274l.543-1.514c-.273 0-.273-.14-.543 0zm20.953.961v-.825c-.273 0-.409-.136-.409-.136s-.273.687-.273 1.239c.137.412.682.825.682.825s.27 0 .406-.276c.137-.274-.136-.55-.406-.827zm-12.521 0c-.133 0-.27-.138-.27-.412l-1.634-.414c0 .138 0 .414.136.414.679.412.679 1.238 1.497 1.514.27 0 .952 0 1.225-.276-.273-.274-.545-.549-.955-.827zm-5.847-.687l-.955.965c-.406.138-.679.275-.952.549.545.276 1.088 0 1.497 0 .543-.274.815-.827 1.225-1.514h-.815zm20.814 1.79s0-.414.273-.414c0-.274.273-.274.273-.274-.546-.553-.546-1.516-1.225-1.516-.273-.275-.409-.415-.409-.687-.409-.277-.952-.414-1.358-.414.406.276.815.55.949.965.409.963.955 1.652 1.228 2.615l.542 1.791c0 .413 0 .687.273.687l.137-2.203c-.136-.275-.409-.413-.682-.551zm-19.32-.687c-.136.412-.406.963-.679 1.238-.273.276-.546.414-.682.689.682-.276 1.225-.414 1.634-.551.546-.689.815-.965.955-1.514-.409 0-.682 0-1.228.138zm27.076.412c0-.412-.818-.412-1.634-.412l-1.361.412c.137.414.409.827.409.827.682-.139.952-.275 1.361-.275.542 0 .815.136.815.551 0 .276.682.414.955.414 0-.965-.546-1.24-.546-1.516zm-5.986 0c0-.274-.273-.274-.543-.274l-.273.274h.137c.406.687.679 1.24.952 1.929-.137-.413.137-.827.137-1.242 0-.274-.273-.55-.41-.688zm-5.171 2.203c.137-.274.137-.551.137-.687 0-.689-.409-.965-.409-.829-.27.277-.679.553-.679 1.102 0 .413.679.689.679.689.139.277-.133.277-.133.551.406.414.679.829.679 1.652l.273-1.926c0-.277-.679-.277-.546-.552zm11.157.14c-.409 0-.543-.276-.952-.414-.682-.139-.409-.413-1.228-.413-.406.274-.539.551-.539.827v.825c.406-.138.539-.689.949-.689 1.497 0 1.088 1.38 1.77 1.38v-1.515zm-23.402-.276c-.27 0-.409.136-.815.136 0 0 0 .276.137.553.27.274.952.55 1.088.55h.137l-.546-1.239zm6.532.412c-.273 0-.679 0-.815-.136-.679-.827-1.225.687-1.907.413-.27.274-.679.55-.679.825l.137.138c.409-.138.815-.275 1.088-.551.682-.138 1.225.551 1.631.138.273-.138.409.138.546.138.273.415.682.415 1.225.415-.409-.416-.543-1.103-1.225-1.38zm8.299.965c.137-.414 0-1.101-.137-1.376 0-.415.137-.965-.136-1.38-.137.415-.952.553-.952 1.242 0 .274.409.414.409.827l-.137.963c0 .276.409.14.543.14.409 0 .273 1.101 0 1.652.273-.415.955-1.102.955-1.652 0-.277-.546 0-.546-.415zm-17.416-.688h-1.494l.543.825c.409.138.818.138 1.225-.138l-.273-.687zm-4.898.55v-.276l-1.088-.827c-.409-.687-1.221-.413-2.037-.687l-.819.963v.277c.546-.277 1.088-.277 1.497-.277l.949.277c.139.412.409.687.818.963.679 0 1.088.689 1.361 1.514 0 0 .137-1.375.137-1.652-.273-.138-.682-.138-.819-.276zm30.067.965c-.406 0-.815-.551-1.221-.412-.273-.14-.679.136-.955.136 0 .276-.273.276-.133.965.543 0 1.358-.414 1.767.136.137.138.137.965.952 1.102 0-.551.137-.687.137-1.102-.137-.136-.27-.549-.546-.825zm-14.691.963c-.955-.963-2.176-.963-3.401-.963h-.952l-1.088.412-.546 1.242c.679-.691 1.361-.691 1.903-.965.273.136.137.274.273.274.409 0 .955 0 1.361-.138.409 0 .815 0 1.225.138.27.551.815.551 1.361.827l-.136-.827zm17.686-.687c-.273.414-.273.965-.679 1.239l.815.827c.273-.413.273-.687.273-1.239 0-.139-.273-.827-.409-.827zm-33.471 1.378c-.133-.14-.406-.414-.27-.691-.409-.274-.818-.414-1.225-.963-.406-.138-.543-.551-.952-.551-.27-.275-.679-.275-1.088-.275-.545 0-.545.551-.818.827 0 0 0 .275.139.412.406-.136.679-.412 1.225-.412.406.549.815.825 1.361 1.24 0 0 1.221.414 1.358.55.137.138-.137.277-.137.413.406.276.137.966.406 1.239l.682-.687c-.273-.551 0-1.101-.682-1.101zm17.962-.413c0-.551-.682-1.102-1.088-1.652v.412c.273.963.815 1.928.542 3.169.137 0 .273.272.546.55.137-.689 0-1.516 0-2.479zm11.43 1.101l-.815-.138c.133-.275.133-.413.133-.549-.273 0-.409-.14-.682-.414-.27 0-.27 0-.406.274l-.952.827c.543 0 .409-.274 1.088-.274.27 0 .409.551.409.825.679 0 1.088.277 1.494.549l.273-.272c0-.415-.273-.69-.543-.828zm-30.48 1.101l-1.085-.412c-.137-.276-.137-.412-.137-.689 0-.551-.679-.551-1.088-.827l-.545-.274h-.679c-.273.274-.409.55-.409.827.409.136.409-.139.679 0 .545.274 1.497.412 2.452 1.375l.679 1.791.273-.963-.139-.828zm33.88.14v-.551c0-.551-.273-.827-.682-.963l-.406.687c.406.965 1.088 1.239 1.088 1.79 0-.136.133-.274.406-.551 0-.274-.406-.274-.406-.412zm-16.598 0c0-.412-.139-.827-.545-1.103-.818-.276-1.497-.689-2.449-.689l-.815.138c-.409.139-.952 0-1.361.275l-.409.966 1.634-.415c.273-.276.273.276.543.415.409.272.545 1.101 1.088.824.818.415.682 1.24.682 1.929l.679-.413-.133-.965c-.276-.551-.546-.551-.955-.825.409-.55-.273-.689-.406-.965h.952c.409.276.543.551.543.965.815 0 .955.965 1.225 1.514l.409-1.24c-.001-.274-.41-.274-.679-.412zm-3.131.963l-.679-.136c0-.415-.273-.415-.409-.689-.273-.138-.542 0-.542 0l-.273.274c.273 0 .543.551 1.088.551.543.14.273.965.682 1.378l.27-.413c.137-.276 0-.688-.136-.965zm-17.959-.551l.409-.551-.546-.136c-.679.136-.955.136-1.494.687-.818.828-.818 2.756-.818 3.582v.139l1.088-1.791c.137-.413.137-.689.409-.825.543 0 .952.412.952.412-.137.689-.273 1.24-.273 1.928 0 0 1.361-1.239 1.361-2.203-.001-.55-.679-.963-1.089-1.24zm-3.268 0c0-.412 0-.824.409-.963l-1.225.139c-.273.272-.542.824-.679 1.239-.273.55-.409 1.237-.409 1.929 0 .412 0 1.237.273 1.651.273-.274.543-.413.815-.551-.406-1.376-.273-1.652.137-2.479.546 0 .818.551.952.964.276-.413.409-.825.409-1.238 0-.552-.543-.691-.682-.691zm-2.719.277l-1.088 1.239v1.652c.273.414.679.827.815.827 0 0 .137-.413.137-.551 0-.687-.273-1.239 0-1.928.273 0 .545.413.679.413.273-.689 0-1.239-.543-1.652zm10.881-28.374c-.406-.689-1.088 0-1.358-.963.136-.689.27-1.654 1.225-1.791h.273c.679.277 1.903.414 1.903 1.516-.406.138-1.634.825-2.043 1.239zm10.751.549h-.273c-.273-.686-1.088-1.513-1.907-1.788 0-.691.276-.965.682-1.238l.818-.277c.542.277.952.551 1.361.825.27.691.27 1.516 0 2.207l-.682.272zm-3.81.277c-.406 0-.137-.827-.679-.827-.137 0-.273 0-.137-.136.137-.277.409 0 .679 0 .409-.277.409.55.952.55.137.136.137.136.137.413h-.952zm-3.401 0h-1.088c0-.277.273-.549.679-.687.409-.14.952-.553 1.225-.276l-.815.963zm-.409 4.269c-.406.413-.679.691-.679.965-.409.275-.815.275-1.088.551-.273-.276 0-.963.133-1.102.409-.413 1.091-.413 1.228-1.101v-1.378c0-.274-.137.138-.409 0-.273.138-.546.138-.679 0-.273-.138-.545-.274-.545-.689-.273 0-.682-.276-.682-.55h2.5860000000000003c.273.138.546.274.546.55 0 .966-.409 1.929-.409 2.755zm5.986-2.755c-.27 0-.27.551-.546.689-.27.277-.679.138-1.088.138-.27-.138-.406-.276-.406-.412l-.137.136c.137.415.137 1.102.137 1.654l.679.274c0 .966.815.689 1.361 1.102-.137.413-.27.689-.546.827-.27-.414-.679-.414-1.088-.689 0-.551-.543-.965-.949-.965 0-.961 0-1.928-.273-2.755h.273c.133-.412.543-.412.815-.55l2.313.138c.137.136 0 .136 0 .136-.137.276-.409.276-.546.276zm-7.48 6.06c-.273-.136-.139-.549-.139-.549.545 0 .955-.276 1.228 0-.136 0-.682.274-1.088.549zm5.441-.276l.137-.274h1.088v.689l-1.225-.415z" fill="#F58220"/></svg>