<svg width="70" height="40" viewBox="0 0 70 40" xmlns="http://www.w3.org/2000/svg"><title>jcb</title><desc>Created with Sketch.</desc><defs><linearGradient x1="0%" y1="50%" x2="100.001%" y2="50%" id="a"><stop stop-color="#007B40" offset="0%"/><stop stop-color="#55B330" offset="100%"/></linearGradient><linearGradient x1="0%" y1="50%" y2="50%" id="b"><stop stop-color="#1D2970" offset="0%"/><stop stop-color="#006DBA" offset="100%"/></linearGradient><linearGradient x1="0%" y1="50%" y2="50%" id="c"><stop stop-color="#6E2B2F" offset="0%"/><stop stop-color="#E30138" offset="100%"/></linearGradient></defs><g fill="none"><path d="M57.842 30.474c0 3.978-3.191 7.203-7.13 7.203h-38.711v-28.473c0-3.979 3.192-7.204 7.131-7.204h38.711v28.474z" id="Shape" fill="#fff"/><path d="M45.491 21.063h2.9649999999999976l.049.002.049.003.049.004.049.005.049.006.049.007.03.006.019.004.049.013.049.015.049.017.049.019.049.022.049.024.049.027.049.029.049.032.049.036.049.039.049.044.049.048.049.054.049.06.049.068.049.079.049.094.049.117.049.168.035.316c0 .111-.012.217-.035.317l-.049.168-.049.118-.049.094-.049.079-.049.068-.049.06-.049.054-.049.048-.049.043-.049.039-.049.036-.049.032-.049.029-.049.026-.049.024-.049.021-.049.019-.049.017-.049.015-.049.012-.019.004-.03.006-.049.008-.049.006-.049.005-.049.004-.049.003-.049.002h-2.9649999999999976v-2.715zm3.958-3.073l.03.289-.03.289-.049.169-.049.114-.049.09-.049.075-.049.064-.049.056-.049.05-.049.044-.049.04-.049.036-.049.032-.049.029-.049.026-.049.023-.049.021-.049.018-.049.016-.049.014-.049.012-.049.01-.012.002-.037.005-.049.006-.049.005-.049.004-.049.003-.049.001h-2.671999999999998v-2.505h2.692999999999998l.028.001.049.003.049.004.049.004.049.005.037.005.012.002.049.01.049.012.049.014.049.016.049.019.049.021.049.023.049.026.049.029.049.032.049.036.049.04.049.044.049.05.049.056.049.064.049.075.049.09.049.114.049.169zm6.096-12.99h.02v25.729l-.02.456-.049.392-.049.258-.049.207-.049.176-.049.157-.049.14-.049.129-.049.119-.049.112-.049.105-.049.099-.049.094-.049.089-.049.086-.049.082-.049.079-.049.076-.049.073-.049.071-.049.068-.049.065-.049.064-.049.062-.049.059-.049.058-.049.056-.049.055-.049.053-.049.051-.049.051-.049.048-.049.048-.049.046-.049.045-.049.044-.049.043-.049.042-.049.041-.049.04-.049.039-.049.038-.049.037-.049.036-.049.035-.049.034-.049.033-.049.033-.049.032-.049.031-.049.03-.049.029-.049.029-.049.028-.049.027-.049.026-.049.026-.049.025-.049.025-.049.024-.049.023-.049.023-.049.022-.049.022-.049.02-.049.02-.049.019-.049.019-.049.018-.049.017-.049.017-.049.016-.049.016-.049.015-.049.015-.049.015-.049.013-.049.013-.049.013-.049.012-.049.012-.049.011-.049.011-.049.01-.049.01-.049.009-.049.008-.049.008-.049.007-.049.007-.049.007-.049.006-.049.006-.049.005-.049.004-.049.004-.049.003-.049.003-.049.003-.049.002-.049.002-.049.001-.049.001-.049.001h-7.456000000000022v-10.491h7.9460000000000255l.049-.001.049-.001.049-.002.049-.002.049-.003.049-.003.049-.004.049-.005.049-.005.049-.006.049-.006.049-.007.049-.007.049-.008.049-.008.049-.009.049-.009.049-.01.049-.011.049-.011.049-.012.049-.013.049-.013.049-.014.049-.015.049-.016.049-.016.049-.017.049-.018.049-.019.049-.02.049-.02.049-.021.049-.022.049-.023.049-.024.049-.025.049-.027.049-.028.049-.029.049-.03.049-.032.049-.033.049-.034.049-.036.049-.038.049-.04.049-.042.049-.044.049-.046.049-.049.049-.052.049-.055.049-.058.049-.062.049-.067.049-.073.049-.079.049-.088.049-.098.049-.113.049-.133.049-.17.049-.259.022-.331-.022-.322-.049-.25-.049-.163-.049-.129-.049-.108-.049-.094-.049-.085-.049-.076-.049-.07-.049-.065-.049-.06-.049-.056-.049-.053-.049-.05-.049-.047-.049-.044-.049-.042-.049-.04-.049-.038-.049-.037-.049-.035-.049-.033-.049-.032-.049-.031-.049-.029-.049-.028-.049-.027-.049-.026-.049-.025-.049-.024-.049-.023-.049-.022-.049-.021-.049-.02-.049-.019-.049-.018-.049-.017-.049-.017-.049-.016-.049-.015-.049-.015-.049-.014-.049-.013-.049-.013-.049-.012-.049-.011-.049-.011-.049-.01-.049-.01-.049-.009-.049-.008-.049-.008-.049-.007-.049-.007-.049-.006-.049-.006-.049-.005-.049-.005-.049-.004-.045-.004v-.06l.045-.007.049-.008.049-.009.049-.01.049-.01.049-.011.049-.011.049-.012.049-.013.049-.014.049-.015.049-.015.049-.016.049-.017.049-.018.049-.019.049-.02.049-.021.049-.022.049-.023.049-.024.049-.026.049-.027.049-.028.049-.03.049-.031.049-.033.049-.034.049-.036.049-.038.049-.04.049-.043.049-.045.049-.048.049-.05.049-.054.049-.058.049-.062.049-.067.049-.072.049-.079.049-.088.049-.099.049-.114.049-.136.049-.175.049-.294.012-.239-.012-.249-.049-.3-.049-.177-.049-.135-.049-.112-.049-.097-.049-.086-.049-.077-.049-.07-.049-.065-.049-.06-.049-.055-.049-.052-.049-.049-.049-.046-.049-.043-.049-.041-.049-.039-.049-.037-.049-.035-.049-.033-.049-.032-.049-.03-.049-.029-.049-.027-.049-.026-.049-.025-.049-.024-.049-.023-.049-.022-.049-.021-.049-.02-.049-.019-.049-.018-.049-.017-.049-.016-.049-.016-.049-.015-.049-.014-.049-.013-.049-.013-.049-.012-.049-.011-.049-.011-.049-.01-.049-.009-.049-.009-.049-.008-.049-.008-.049-.007-.049-.007-.049-.006-.049-.005-.049-.005-.049-.004-.049-.004-.049-.004-.049-.003-.02-.001-.03-.002-.049-.003-.049-.003-.049-.003-.049-.002-.049-.002-.049-.002-.049-.002-.049-.001-.049-.001h-7.21100000000002v-5.344c0-.359.037-.71.106-1.049l.049-.216.049-.182.049-.16.049-.144.049-.132.049-.122.049-.113.049-.106.049-.1.049-.095.049-.091.049-.087.049-.083.049-.08.049-.076.049-.074.049-.071.049-.068.049-.066.049-.065.049-.062.049-.06.049-.059.049-.056.049-.055.049-.053.049-.052.049-.051.049-.049.049-.048.049-.046.049-.046.049-.044.049-.043.049-.042.049-.041.049-.04.049-.039.049-.038.049-.037.049-.036.049-.035.049-.034.049-.034.049-.033.049-.032.049-.031.049-.031.049-.029.049-.029.049-.028.049-.028.049-.026.049-.026.049-.025.049-.025.049-.024.049-.023.049-.023.049-.022.049-.022.049-.021.049-.02.049-.02.049-.019.049-.019.049-.017.049-.017.049-.016.049-.016.049-.016.049-.015.049-.015.049-.014.049-.013.049-.013.049-.012.049-.012.049-.011.049-.011.049-.01.049-.01.049-.01.049-.008.049-.008.049-.008.049-.007.049-.007.049-.006.049-.006.049-.005.049-.004.049-.004.049-.004.049-.003.049-.003.049-.002.049-.002.049-.002.049-.001.049-.001h7.448000000000023z" id="Shape" fill="url(#a)"/><path d="M15.105 22.906l-.105-.051v-12.709c0-.358.036-.708.105-1.046l.049-.216.049-.182.049-.16.049-.145.049-.132.049-.122.049-.113.049-.106.049-.1.049-.095.049-.091.049-.087.049-.083.049-.079.049-.076.049-.074.049-.072.049-.068.049-.066.049-.065.049-.062.049-.06.049-.059.049-.056.049-.055.049-.053.049-.052.049-.051.049-.049.049-.048.049-.046.049-.046.049-.044.049-.043.049-.042.049-.041.049-.04.049-.039.049-.038.049-.037.049-.036.049-.035.049-.034.049-.034.049-.033.049-.032.049-.031.049-.031.049-.029.049-.029.049-.028.049-.028.049-.026.049-.026.049-.025.049-.025.049-.024.049-.023.049-.023.049-.022.049-.022.049-.021.049-.02.049-.02.049-.019.049-.019.049-.017.049-.017.049-.017.049-.016.049-.016.049-.015.049-.015.049-.014.049-.013.049-.013.049-.012.049-.012.049-.011.049-.011.049-.01.049-.01.049-.009.049-.009.049-.008.049-.008.049-.007.049-.007.049-.006.049-.006.049-.006.049-.004.049-.004.049-.004.049-.003.049-.003.049-.002.049-.002.049-.002.049-.001.049-.001h7.490000000000022v25.729c0 .224-.014.444-.042.661l-.049.309-.049.231-.049.192-.049.166-.049.148-.049.135-.049.125-.049.116-.049.109-.049.102-.049.097-.049.092-.049.088-.049.084-.049.08-.049.077-.049.075-.049.072-.049.069-.049.067-.049.065-.049.062-.049.061-.049.059-.049.057-.049.056-.049.054-.049.053-.049.051-.049.05-.049.048-.049.047-.049.046-.049.044-.049.044-.049.042-.049.042-.049.04-.049.04-.049.038-.049.038-.049.036-.049.036-.049.034-.049.034-.049.033-.049.033-.049.031-.049.031-.049.03-.049.029-.049.028-.049.028-.049.027-.049.026-.049.026-.049.025-.049.025-.049.023-.049.023-.049.022-.049.022-.049.021-.049.02-.049.02-.049.019-.049.019-.049.018-.049.017-.049.017-.049.016-.049.016-.049.015-.049.015-.049.014-.049.013-.049.013-.049.012-.049.012-.049.011-.049.011-.049.011-.049.009-.049.01-.049.009-.049.008-.049.008-.049.007-.049.007-.049.007-.049.006-.049.006-.049.005-.049.004-.049.004-.049.003-.049.003-.049.003-.049.002-.049.002-.049.001-.049.001-.046.001h-7.459000000000023v-10.845l.105.028.049.012.049.012.049.012.049.012.049.012.049.011.049.011.049.011.049.011.049.011.049.011.049.01.049.01.049.01.049.01.049.01.049.01.049.01.049.01.049.009.049.009.049.009.049.009.049.009.049.009.049.009.049.009.049.008.049.008.049.008.049.008.049.008.049.008.049.008.049.008.049.008.049.007.049.007.049.007.049.007.049.007.049.007.049.007.049.007.049.007.049.007.049.006.049.006.049.006.049.006.049.006.049.006.049.006.049.006.049.006.049.005.049.005.049.005.049.005.049.005.049.005.049.005.049.005.049.005.049.005.049.004.049.004.049.004.049.004.049.004.049.004.049.004.049.004.049.003.049.003.049.003.049.003.049.003.049.003.049.003.049.003.049.003.049.003.049.002.049.002.049.002.049.002.049.002.049.002.049.002.049.002.049.001.049.001.049.001.049.001.049.001.049.001.049.001.049.001h.049l.049.001h.39199999999999996l.049-.001.049-.001.049-.001.049-.001.049-.001.049-.002.049-.002.049-.002.049-.002.049-.002.049-.002.049-.002.049-.002.049-.003.049-.003.049-.003.049-.003.049-.003.049-.004.049-.004.049-.004.049-.004.049-.004.049-.004.049-.004.049-.005.049-.005.049-.005.049-.005.049-.006.049-.006.049-.006.049-.006.049-.006.049-.007.049-.007.049-.007.049-.007.049-.007.049-.007.049-.008.049-.008.049-.008.049-.008.049-.009.049-.009.049-.009.049-.01.049-.01.049-.01.049-.01.049-.011.049-.011.049-.011.049-.012.049-.012.049-.012.049-.013.049-.013.049-.013.049-.014.049-.014.049-.014.049-.015.049-.016.049-.016.049-.017.049-.017.049-.017.049-.018.049-.018.049-.018.049-.019.049-.019.049-.02.049-.021.049-.021.049-.022.049-.022.049-.023.049-.024.049-.024.049-.026.049-.025.049-.027.049-.027.049-.028.049-.029.049-.03.049-.031.049-.031.049-.033.049-.033.049-.035.049-.036.049-.038.049-.038.049-.04.049-.041.049-.043.049-.045.049-.046.049-.048.049-.05.049-.052.049-.055.049-.057.049-.06.049-.063.049-.067.049-.07.049-.074.049-.079.049-.085.049-.091.049-.099.049-.108.049-.119.049-.134.049-.154.049-.184.049-.233.049-.356c.017-.168.025-.339.025-.512v-5.97h-4.373999999999999v5.97l-.012.276-.049.336-.049.198-.049.152-.049.126-.049.109-.049.096-.049.086-.049.079-.049.072-.049.067-.049.061-.049.057-.049.054-.049.05-.049.047-.049.044-.049.042-.049.039-.049.037-.049.035-.049.033-.049.032-.049.03-.049.028-.049.027-.049.025-.049.024-.049.023-.049.022-.049.02-.049.019-.049.018-.049.017-.049.016-.049.015-.049.014-.049.013-.049.012-.049.011-.049.011-.049.01-.049.009-.049.008-.049.008-.049.007-.049.006-.049.006-.049.005-.049.004-.049.003-.049.003-.049.002-.049.002-.049.001h-.14700000000000002l-.049-.001-.049-.001-.049-.001-.049-.002-.049-.002-.049-.002-.049-.003-.049-.003-.049-.003-.049-.003-.049-.004-.049-.004-.049-.004-.049-.005-.049-.005-.049-.005-.049-.006-.049-.006-.049-.006-.049-.007-.049-.007-.049-.007-.049-.007-.049-.008-.049-.008-.049-.008-.049-.009-.049-.009-.049-.009-.049-.009-.049-.01-.049-.01-.049-.01-.049-.011-.049-.011-.049-.011-.049-.011-.049-.012-.049-.012-.049-.012-.049-.012-.049-.013-.049-.013-.049-.013-.049-.014-.049-.014-.049-.014-.049-.014-.049-.015-.049-.015-.049-.015-.049-.015-.049-.016-.049-.016-.049-.016-.049-.017-.049-.017-.049-.017-.049-.017-.049-.018-.049-.018-.049-.018-.049-.018-.049-.018-.049-.019-.049-.019-.049-.019-.049-.019-.049-.02-.049-.02-.049-.02-.049-.02-.049-.021-.049-.021-.049-.021-.049-.021-.049-.021-.049-.022-.049-.022-.049-.022-.049-.022-.049-.023-.049-.023-.049-.023-.049-.023-.049-.023z" id="Shape" fill="url(#b)"/><path d="M29.105 16.795l-.105.089v-6.737c0-.358.036-.708.105-1.046l.049-.216.049-.182.049-.16.049-.144.049-.132.049-.122.049-.113.049-.106.049-.1.049-.095.049-.091.049-.087.049-.083.049-.079.049-.076.049-.074.049-.072.049-.068.049-.066.049-.065.049-.062.049-.06.049-.059.049-.056.049-.055.049-.053.049-.052.049-.051.049-.049.049-.048.049-.046.049-.046.049-.044.049-.043.049-.042.049-.041.049-.04.049-.039.049-.038.049-.037.049-.036.049-.035.049-.034.049-.034.049-.033.049-.032.049-.031.049-.031.049-.029.049-.029.049-.028.049-.028.049-.026.049-.026.049-.025.049-.025.049-.024.049-.023.049-.023.049-.022.049-.022.049-.021.049-.02.049-.02.049-.019.049-.019.049-.017.049-.017.049-.017.049-.016.049-.016.049-.015.049-.015.049-.014.049-.013.049-.013.049-.012.049-.012.049-.011.049-.011.049-.01.049-.01.049-.01.049-.009.049-.008.049-.008.049-.007.049-.007.049-.006.049-.006.049-.006.049-.004.049-.004.049-.004.049-.003.049-.003.049-.002.049-.002.049-.002.049-.001.049-.001h7.490000000000022v25.729c0 .224-.014.444-.042.66l-.049.309-.049.231-.049.192-.049.166-.049.148-.049.135-.049.124-.049.116-.049.108-.049.102-.049.097-.049.092-.049.088-.049.084-.049.08-.049.077-.049.075-.049.072-.049.069-.049.067-.049.065-.049.062-.049.061-.049.059-.049.057-.049.056-.049.054-.049.053-.049.051-.049.05-.049.048-.049.047-.049.046-.049.044-.049.044-.049.042-.049.042-.049.04-.049.04-.049.038-.049.038-.049.036-.049.036-.049.034-.049.034-.049.033-.049.033-.049.031-.049.031-.049.03-.049.029-.049.028-.049.028-.049.027-.049.026-.049.026-.049.025-.049.025-.049.023-.049.023-.049.022-.049.022-.049.021-.049.02-.049.02-.049.019-.049.019-.049.018-.049.017-.049.017-.049.016-.049.016-.049.015-.049.015-.049.014-.049.013-.049.013-.049.012-.049.012-.049.011-.049.011-.049.011-.049.01-.049.009-.049.009-.049.008-.049.008-.049.007-.049.007-.049.007-.049.006-.049.006-.049.005-.049.004-.049.004-.049.003-.049.003-.049.003-.049.002-.049.002-.049.001-.049.001-.046.001h-7.458000000000022v-11.881l.105.088.049.04.049.039.049.038.049.036.049.036.049.035.049.034.049.033.049.032.049.032.049.031.049.03.049.03.049.029.049.028.049.027.049.027.049.026.049.026.049.025.049.025.049.024.049.024.049.023.049.023.049.022.049.022.049.021.049.021.049.02.049.02.049.02.049.019.049.019.049.018.049.018.049.017.049.017.049.017.049.017.049.016.049.016.049.015.049.015.049.015.049.014.049.014.049.014.049.014.049.013.049.013.049.013.049.012.049.012.049.012.049.011.049.011.049.011.049.011.049.011.049.01.049.01.049.01.049.01.049.009.049.009.049.009.049.009.049.009.049.008.049.008.049.008.049.008.049.008.049.007.049.007.049.007.049.007.049.007.049.006.049.006.049.006.049.006.049.006.049.006.049.005.049.005.049.005.049.005.049.005.049.004.049.004.049.004.049.004.049.004.049.004.049.003.049.003.049.003.049.003.049.003.049.003.049.002.049.002.049.002.049.002.049.002.049.002.049.002.049.002.049.002.049.001.049.001.049.001.049.001.049.001.049.001h.48999999999999994l.049-.001.049-.001.049-.001.049-.001.049-.001.049-.001.049-.001.049-.001.049-.001.049-.001.049-.002.049-.002.049-.002.049-.002.049-.002.049-.002.024-.001.025-.001.049-.002.049-.003.049-.003.049-.003.049-.003.049-.003.049-.003.049-.004.049-.004.049-.004.049-.004.049-.004.049-.004.049-.004.049-.005.049-.005.049-.005.049-.005.049-.005.049-.005.049-.005.049-.006.049-.006.049-.006.049-.006.049-.006.049-.006.049-.006.049-.006.049-.007.049-.007.049-.007.049-.007.049-.007.049-.007.049-.007.049-.007.049-.007.049-.008.049-.008.049-.008.049-.008.049-.008.049-.008.049-.008.049-.008.049-.008.049-.008.049-.009.049-.009.049-.009.049-.009.049-.009.049-.009.049-.009.049-.009.049-.009.049-.009.049-.01.049-.01.049-.01.049-.01.049-.01.049-.01.049-.01.049-.01.049-.01.049-.01.049-.011.049-.011.049-.011.049-.011.049-.011.049-.011.049-.011.049-.011.049-.011.049-.012.049-.012.049-.012.049-.012v-2.177l-.049.025-.049.024-.049.024-.049.024-.049.024-.049.024-.049.023-.049.023-.049.023-.049.023-.049.022-.049.022-.049.022-.049.022-.049.021-.049.021-.049.021-.049.021-.049.02-.049.02-.049.02-.049.02-.049.019-.049.019-.049.019-.049.018-.049.018-.049.018-.049.018-.049.017-.049.017-.049.017-.049.016-.049.016-.049.016-.049.016-.049.015-.049.015-.049.015-.049.014-.049.014-.049.014-.049.014-.049.013-.049.013-.049.013-.049.012-.049.012-.049.012-.049.012-.049.011-.049.011-.049.011-.049.01-.049.01-.049.01-.049.01-.049.009-.049.009-.049.009-.049.009-.049.008-.049.008-.049.008-.049.007-.049.007-.049.007-.049.007-.049.006-.049.006-.049.006-.049.006-.049.005-.049.005-.049.005-.049.005-.049.004-.049.004-.03.002-.019.001-.049.003-.049.003-.049.003-.049.003-.049.002-.049.002-.049.002-.049.001-.049.001-.049.001h-.098l-.049-.001-.049-.001-.049-.001-.049-.002-.049-.002-.049-.003-.049-.003-.049-.003-.049-.004-.049-.004-.049-.005-.049-.005-.049-.006-.049-.006-.049-.007-.049-.007-.049-.007-.049-.008-.049-.008-.049-.009-.049-.009-.049-.01-.049-.01-.049-.011-.049-.012-.049-.013-.049-.013-.049-.014-.049-.014-.049-.015-.049-.015-.049-.016-.049-.017-.049-.018-.049-.018-.049-.019-.049-.02-.049-.021-.049-.021-.049-.023-.049-.023-.049-.025-.049-.026-.049-.026-.049-.028-.049-.028-.049-.03-.049-.031-.049-.032-.049-.034-.049-.035-.049-.036-.049-.038-.049-.04-.049-.041-.049-.044-.049-.045-.049-.047-.049-.049-.049-.052-.049-.055-.049-.058-.049-.061-.049-.064-.049-.068-.049-.072-.049-.077-.049-.083-.049-.089-.049-.097-.049-.106-.049-.117-.049-.133-.049-.152-.049-.182-.049-.235-.049-.364-.02-.445.02-.445.049-.364.049-.235.049-.182.049-.152.049-.133.049-.117.049-.106.049-.097.049-.09.049-.083.049-.077.049-.072.049-.068.049-.064.049-.061.049-.058.049-.055.049-.052.049-.049.049-.047.049-.045.049-.044.049-.041.049-.04.049-.038.049-.036.049-.035.049-.034.049-.032.049-.031.049-.03.049-.028.049-.028.049-.026.049-.026.049-.025.049-.023.049-.023.049-.021.049-.021.049-.02.049-.019.049-.018.049-.018.049-.017.049-.016.049-.015.049-.015.049-.014.049-.014.049-.013.049-.013.049-.012.049-.011.049-.01.049-.01.049-.009.049-.009.049-.008.049-.008.049-.007.049-.007.049-.007.049-.006.049-.006.049-.005.049-.005.049-.004.049-.004.049-.003.049-.003.049-.003.049-.002.049-.002.049-.001.049-.001.049-.001h.098l.049.001.049.001.049.001.049.002.049.002.049.002.049.003.049.003.049.003.049.003.019.001.03.002.049.004.049.004.049.005.049.005.049.005.049.005.049.006.049.006.049.006.049.006.049.007.049.007.049.007.049.007.049.008.049.008.049.008.049.009.049.009.049.009.049.009.049.01.049.01.049.01.049.01.049.011.049.011.049.011.049.012.049.012.049.012.049.012.049.013.049.013.049.013.049.014.049.014.049.014.049.014.049.015.049.015.049.015.049.016.049.016.049.016.049.016.049.017.049.017.049.017.049.018.049.018.049.018.049.018.049.019.049.019.049.019.049.02.049.02.049.02.049.02.049.021.049.021.049.021.049.021.049.022.049.022.049.022.049.023.049.023.049.023.049.023.049.024.049.024.049.024.049.024.049.024.049.025.049.025v-2.178l-.049-.012-.049-.012-.049-.012-.049-.012-.049-.011-.049-.011-.049-.011-.049-.011-.049-.011-.049-.011-.049-.011-.049-.011-.049-.011-.049-.01-.049-.01-.049-.01-.049-.01-.049-.01-.049-.01-.049-.01-.049-.01-.049-.01-.049-.01-.049-.009-.049-.009-.049-.009-.049-.009-.049-.009-.049-.009-.049-.009-.049-.009-.049-.009-.049-.009-.049-.008-.049-.008-.049-.008-.049-.008-.049-.008-.049-.008-.049-.008-.049-.008-.049-.008-.049-.008-.049-.007-.049-.007-.049-.007-.049-.007-.049-.007-.049-.007-.049-.007-.049-.007-.049-.007-.049-.006-.049-.006-.049-.006-.049-.006-.049-.006-.049-.006-.049-.006-.049-.006-.049-.005-.049-.005-.049-.005-.049-.005-.049-.005-.049-.005-.049-.005-.049-.004-.049-.004-.049-.004-.049-.004-.049-.004-.049-.004-.049-.004-.049-.003-.049-.003-.049-.003-.049-.003-.049-.003-.049-.003-.049-.002-.025-.001-.024-.001-.049-.002-.049-.002-.049-.002-.049-.002-.049-.002-.049-.002-.049-.001-.049-.001-.049-.001-.049-.001-.049-.001-.049-.001-.049-.001-.049-.001-.049-.001-.049-.001h-.48999999999999994l-.049.001-.049.001-.049.001-.049.001-.049.001-.049.001-.049.002-.049.002-.049.002-.049.002-.049.002-.049.002-.049.002-.049.002-.049.002-.049.003-.049.003-.049.003-.049.003-.049.003-.049.003-.049.004-.049.004-.049.004-.049.004-.049.004-.049.004-.049.005-.049.005-.049.005-.049.005-.049.005-.049.006-.049.006-.049.006-.049.006-.049.006-.049.006-.049.007-.049.007-.049.007-.049.007-.049.007-.049.008-.049.008-.049.008-.049.008-.049.008-.049.009-.049.009-.049.009-.049.009-.049.009-.049.01-.049.01-.049.01-.049.01-.049.011-.049.011-.049.011-.049.011-.049.011-.049.012-.049.012-.049.012-.049.013-.049.013-.049.013-.049.014-.049.014-.049.014-.049.015-.049.015-.049.015-.049.015-.049.016-.049.016-.049.017-.049.017-.049.017-.049.017-.049.018-.049.018-.049.019-.049.019-.049.02-.049.02-.049.02-.049.021-.049.021-.049.022-.049.022-.049.023-.049.023-.049.024-.049.024-.049.025-.049.025-.049.026-.049.026-.049.027-.049.027-.049.028-.049.029-.049.03-.049.03-.049.031-.049.032-.049.032-.049.033-.049.034-.049.035-.049.036-.049.036-.049.038-.049.039-.049.04z" fill="url(#c)"/></g></svg>