<svg width="70" height="40" viewBox="0 0 70 40" xmlns="http://www.w3.org/2000/svg"><title>kellygiftcard</title><desc>Created with Sketch.</desc><path d="M5.021 26.875h1.202c.134 0 .257.017.369.052.112.037.209.089.289.157.083.07.146.157.192.261.088.215.088.457 0 .671-.044.098-.108.186-.187.258-.082.075-.178.132-.292.174-.114.045-.238.066-.377.066h-.527v1.067h.298v.349h-.966v-.349h.282v-2.358h-.282v-.349zm.666.349v.96h.536l.206-.031c.121-.035.22-.125.267-.244l.039-.207c.007-.132-.042-.26-.134-.352-.088-.084-.231-.126-.425-.126h-.488zm4.017 2.358h.246l-.235-.692h-1.144l-.231.692h.306v.349h-.966v-.349h.258l.926-2.707h.578l.925 2.707h.299v.349h-.966v-.349h.002zm-1.02-1.027h.918l-.464-1.367-.456 1.367h.002zm4.418-1.116l-.139-.136c-.105-.064-.225-.097-.347-.098l-.26.035-.187.096c-.092.075-.146.189-.146.31 0 .087.015.16.046.214l.117.131.155.077.165.058.394.131.314.132c.092.051.168.11.23.176.061.068.109.148.139.235.074.215.064.451-.027.659-.051.108-.119.2-.211.279-.09.08-.197.143-.323.188-.124.044-.262.066-.411.066-.153 0-.284-.017-.391-.052-.099-.03-.193-.079-.275-.143-.071-.057-.131-.127-.177-.206l-.104-.235h-.15v-.347h.493c0 .15.017.254.048.317l.129.153.195.092c.162.044.331.044.493 0l.182-.094.116-.15.039-.197c0-.082-.017-.152-.049-.209l-.129-.146-.17-.098-.18-.068-.43-.124-.258-.113c-.155-.085-.272-.227-.328-.397-.067-.207-.06-.432.02-.634.044-.101.111-.192.197-.267.085-.077.192-.138.316-.181.234-.077.484-.086.723-.026.167.048.318.143.435.274l.141.216h.148v.345h-.481c.006-.093-.016-.185-.063-.265l.002.002zm3.045 0l-.138-.136c-.105-.064-.225-.097-.347-.098l-.262.035-.185.096c-.093.075-.147.189-.148.31 0 .087.015.16.046.214l.117.131.156.077.163.058.396.132.316.132c.09.051.167.11.228.176.062.068.11.148.141.235.074.215.063.451-.029.659-.051.108-.119.2-.211.279-.09.08-.197.143-.323.188-.124.044-.262.066-.411.066-.153 0-.284-.017-.391-.052-.099-.03-.192-.079-.274-.143-.071-.057-.132-.126-.178-.206l-.104-.235h-.15v-.347h.495c0 .15.017.254.046.317l.129.153.195.092c.162.044.331.044.493 0l.182-.094.116-.15.041-.197c0-.082-.017-.152-.051-.209l-.127-.146-.172-.098-.18-.068-.43-.124-.258-.113c-.155-.085-.272-.227-.328-.397-.066-.207-.058-.432.022-.634.044-.101.109-.192.196-.267.085-.077.192-.138.316-.181.234-.077.484-.086.722-.026.168.047.319.142.437.274l.139.216h.148v.345h-.481c.006-.093-.016-.185-.063-.265zm1.583-.565h.95v.349h-.282v2.358h.282v.349h-.952v-.349h.282v-2.358h-.282v-.349h.002zm3.468 3.115c-.387.005-.757-.16-1.018-.453-.135-.148-.239-.324-.304-.516-.14-.4-.14-.838.002-1.238.07-.195.168-.363.294-.506.406-.461 1.057-.598 1.607-.338.172.08.326.195.452.338.128.148.228.319.292.506.068.192.104.399.104.619 0 .22-.034.427-.105.619-.066.186-.166.358-.294.506-.263.297-.636.466-1.027.464h-.002zm0-.375c.156 0 .297-.033.425-.099.124-.064.234-.155.323-.265.088-.11.156-.239.204-.385.101-.307.099-.641-.007-.947-.047-.145-.122-.279-.221-.394-.185-.21-.447-.331-.723-.336-.156 0-.297.035-.425.099-.126.066-.235.153-.323.265-.092.115-.162.246-.207.387-.048.149-.072.305-.071.462 0 .188.026.356.08.502.092.266.282.486.529.612.129.068.273.102.418.099h-.002zm4.359-2.74h.966v.349h-.253v2.705h-.502l-1.384-2.533v2.186h.306v.349h-.966v-.349h.274v-2.358h-.282v-.352h.801l1.36 2.508.014-.098v-2.057h-.333v-.351zm3.567 0h2.132v.865h-.403v-.516h-1.063v.981h1.023v.338h-1.023v1.039h.299v.349h-.966v-.349h.282v-2.358h-.282v-.349zm4.396 3.115c-.387.005-.757-.16-1.018-.453-.135-.148-.239-.324-.304-.516-.141-.4-.141-.838 0-1.238.071-.195.17-.363.296-.506.406-.461 1.057-.598 1.606-.338.172.08.326.195.452.338.128.148.228.319.292.506.068.192.102.399.102.619 0 .22-.034.427-.102.619-.066.186-.167.358-.296.506-.263.297-.637.466-1.029.464zm0-.375c.156 0 .297-.033.425-.099.124-.064.234-.155.323-.265.088-.11.156-.239.204-.385.101-.307.099-.641-.007-.947-.047-.145-.122-.279-.221-.394-.186-.21-.448-.332-.724-.336-.155 0-.296.035-.423.099-.127.066-.235.153-.323.265-.092.115-.162.246-.207.387-.048.149-.072.305-.071.462 0 .188.026.356.08.502.092.266.282.486.529.612.129.068.272.102.416.099zm2.518-2.74h1.239c.131 0 .255.017.366.052.112.037.209.089.289.157.083.07.146.157.192.261.046.103.068.221.068.356l-.039.227c-.054.153-.152.285-.282.378l-.212.115.099.063c.113.107.194.245.233.397l.165.666h.257l.003.383h-.578l-.221-.931c-.027-.138-.092-.265-.187-.366-.094-.083-.216-.125-.34-.119h-.383v1.067h.297v.349h-.966v-.349h.282v-2.358h-.282v-.349zm.668.349v.96h.571l.204-.03c.12-.034.218-.123.267-.241l.039-.209c0-.152-.044-.27-.134-.354-.088-.085-.23-.127-.425-.127h-.522zm4.413-.349h2.132v.865h-.403v-.516h-1.061v.981h1.022v.338h-1.022v1.039h.297v.349h-.966v-.349h.282v-2.358h-.282v-.349zm4.721 2.707h.248l-.236-.692h-1.144l-.23.692h.306v.349h-.966v-.349h.258l.926-2.707h.58l.925 2.707h.297v.349h-.966v-.349zm-1.02-1.027h.918l-.462-1.367-.456 1.367zm4.42-1.116l-.139-.136c-.105-.064-.225-.097-.347-.098l-.262.035-.185.096c-.093.075-.147.189-.148.31 0 .087.017.16.046.214l.117.131.156.077.163.058.396.132.316.132c.09.051.167.11.228.176.062.068.11.148.141.235.074.215.064.451-.027.659-.051.108-.121.2-.211.279-.092.08-.199.143-.323.188-.126.044-.264.066-.411.066-.153 0-.284-.017-.393-.052-.099-.03-.192-.079-.274-.143-.071-.057-.132-.126-.178-.206l-.102-.235h-.151v-.347h.495c0 .15.017.254.046.317l.129.153.196.092c.162.044.331.044.493 0l.182-.094.116-.15.041-.197c0-.082-.017-.152-.051-.209l-.127-.146-.172-.098-.18-.068-.43-.124-.258-.113c-.155-.085-.272-.227-.328-.397-.066-.207-.058-.432.022-.634.044-.101.109-.192.196-.267.087-.077.192-.138.318-.181.234-.077.484-.086.722-.026.167.048.318.143.435.274l.139.216h.148v.345h-.481c.006-.093-.016-.185-.063-.265h.002zm3.672-.565h.966v.347h-.282v2.36h.282v.349h-.966v-.349h.297v-1.098h-1.72v1.098h.297v.349h-.966v-.349h.282v-2.36h-.282v-.347h.966v.347h-.297v.924h1.72v-.924h-.297v-.347zm2.196 0h.952v.349h-.284v2.358h.282v.349h-.95v-.349h.284v-2.358h-.284v-.349zm3.468 3.115c-.386.004-.756-.161-1.017-.453-.136-.148-.24-.324-.306-.516-.14-.4-.14-.838.002-1.238.07-.195.17-.363.294-.506.406-.461 1.057-.598 1.606-.338.172.08.326.195.452.338.128.148.228.319.292.506.068.192.104.399.104.619 0 .22-.034.427-.104.619-.066.186-.167.358-.296.506-.263.297-.636.466-1.027.464h-.002zm0-.375c.156 0 .297-.033.425-.099.124-.064.234-.155.323-.265.088-.11.156-.239.204-.385.101-.307.099-.641-.007-.947-.047-.145-.122-.279-.221-.394-.185-.21-.447-.331-.722-.336-.156 0-.297.035-.425.099-.126.066-.235.153-.323.265-.091.115-.161.246-.206.387-.049.149-.074.305-.073.462 0 .188.027.356.08.502.093.267.283.486.53.612.129.068.272.102.416.099h-.002zm4.361-2.74h.964v.349h-.255v2.705h-.502l-1.384-2.533v2.186h.306v.349h-.966v-.349h.275v-2.358h-.284v-.352h.802l1.358 2.508.015-.098v-2.057h-.333v-.349l.002-.002zm-61.936-15.875h5.095v2.216h-1.256v3.554l3.808-3.41v-2.36h4.06v2.378h-.887l-3.964 3.497 3.8 3.948h.966v2.393h-3.949v-2.393l-3.832-3.932v4.117h1.258v2.209h-5.097v-2.21h1.232v-7.792h-1.232v-2.214zm16.009 0h9.469v4.166h-2.562v-1.733h-3.053v2.409h2.363v2.336h-2.363v2.829h3.053v-2.167h2.56v4.375h-9.469v-2.21h1.248v-7.572h-1.248v-2.433h.002zm13.85 0h5.095v2.216h-1.256v7.792h2.591c.068 0 .136-.019.201-.059l.173-.157.121-.209.048-.22v-1.635h2.545v4.489h-9.517v-2.21h1.233v-7.792h-1.233v-2.214zm13.583 0h5.095v2.216h-1.256v7.792h2.591c.068 0 .136-.019.201-.059l.173-.157.121-.209.048-.22v-1.635h2.543v4.489h-9.515v-2.21h1.233v-7.792h-1.233v-2.214zm13.065 0h5.095v2.216h-.996l1.593 2.805 1.688-2.805h-1.139v-2.216h5.097v2.216h-.879l-3.541 4.933v2.859h1.445v2.209h-5.307v-2.21h1.318v-2.894l-3.329-4.898h-1.044v-2.214z" fill="#000"/></svg>