<svg width="70" height="40" viewBox="0 0 70 40" xmlns="http://www.w3.org/2000/svg"><title>kidsnteens</title><desc>Created with Sketch.</desc><g transform="translate(3 12)" fill="none"><rect fill="#000" x="52.749" y="10.4" width="13.251" height="5.6" rx="2.039"/><path d="M54.466 13.005h.614v.927c0 .467-.223.735-.654.735-.431 0-.654-.267-.654-.735v-1.52c0-.467.223-.735.654-.735.431 0 .654.267.654.735v.284h-.415v-.313c0-.209-.088-.288-.227-.288-.14 0-.228.079-.228.288v1.578c0 .209.088.284.228.284.139 0 .227-.075.227-.284v-.538h-.2v-.417" fill="#FFFFFE"/><path fill="#FFFFFE" d="M56.56 13.009h.566v.417h-.566v1.207h-.439v-2.922h1.161v.417h-.722v.881"/><path fill="#FFFFFE" d="M55.811 13.426v1.207h-.439v-2.922h.439v1.298z"/><path fill="#FFFFFE" d="M57.365 11.711h1.356v.417h-.459v2.505h-.439v-2.505h-.459v-.417"/><path d="M60.185 13.544v.388c0 .467-.223.735-.654.735-.431 0-.654-.267-.654-.735v-1.52c0-.467.223-.735.654-.735.431 0 .654.267.654.735v.284h-.415v-.313c0-.209-.088-.288-.227-.288-.14 0-.228.079-.228.288v1.578c0 .209.088.284.228.284s.227-.075.227-.284v-.417h.415" fill="#FFFFFE"/><path d="M60.871 13.706h.423l-.208-1.478h-.008l-.207 1.478zm1.001.927h-.443l-.076-.53h-.538l-.076.53h-.403l.447-2.922h.642l.447 2.922z" fill="#FFFFFE"/><path d="M62.514 12.128v.898h.171c.163 0 .263-.075.263-.309v-.288c0-.209-.068-.301-.223-.301h-.211zm.479 2.505c-.024-.075-.04-.121-.04-.359v-.459c0-.271-.088-.372-.287-.372h-.152v1.19h-.439v-2.922h.662c.455 0 .651.221.651.672v.23c0 .301-.092.493-.287.589v.008c.219.096.291.313.291.618v.451c0 .142.004.246.048.355h-.447z" fill="#FFFFFE"/><path d="M64.117 12.128v2.088h.247c.14 0 .223-.075.223-.284v-1.52c0-.209-.084-.284-.223-.284h-.247zm-.439-.417h.694c.439 0 .654.255.654.722v1.478c0 .468-.215.722-.654.722h-.694v-2.922z" fill="#FFFFFE"/><g><path d="M1.692 5.255l.365.259c.104.08.217.152.337.216.147.108.283.217.406.325l.389.322.119.083.098.097c.087.107.184.198.29.271l.318.221c.138.094.27.191.394.294l.373.309c.076.042.11.081.103.117.002.114.039.211.114.29.075.079.12.171.135.276.006.153-.055.275-.182.367-.127.093-.264.11-.409.053-.303-.117-.569-.295-.799-.534-.148-.108-.285-.233-.414-.375-.071-.066-.168-.125-.291-.177-.185-.103-.358-.217-.521-.341-.162-.124-.314-.258-.454-.402-.156-.186-.318-.347-.483-.485l-.314-.334-.035.087-.117.95c-.038.314-.059.628-.061.943.003.165-.069.282-.215.351-.137.084-.277.06-.42-.073-.106-.137-.145-.272-.118-.405l-.012-.211c.009-.048-.009-.109-.054-.182l-.075-.121-.03-.167c-.006-.153.004-.305.028-.458.024-.153.039-.304.045-.454.037-.371.078-.741.122-1.11l.135-1.089c.008-.162.03-.316.065-.459.034-.144.061-.29.078-.438.047-.419.078-.848.094-1.287.003-.138.046-.23.127-.275l.044-.038.03-.06.05-.16.05-.16c.064-.201.187-.3.367-.299.083.006.162.048.237.127.075.08.108.169.1.268l.005.475-.016.489c-.01.289-.03.562-.064.82l-.095.794-.004.113.073-.003.329-.241.329-.241.991-.655c.327-.219.663-.436 1.008-.652l.639-.391c.219-.129.442-.251.67-.365.149-.081.274-.073.375.025.076.042.122.099.138.172l.002.218c-.021.046-.014.098.023.156.102.212.063.381-.119.505-.228.177-.458.345-.688.503l-.699.463c-.233.139-.461.282-.683.429-.222.147-.45.29-.683.429l-.508.325-.505.306-.246.098-.281.091zm7.29 1.355v1.206l-.009.167-.027.167c-.024.099-.03.201-.018.306l.053.306c.047.136.035.278-.036.427l-.035.167c0 .099-.036.207-.107.325-.071.118-.154.201-.248.25-.118.037-.225.031-.319-.018-.13-.123-.213-.26-.248-.408l-.053-.501-.035-.353-.036-.352-.062-.918-.062-.899-.098-1.076c-.03-.358-.05-.717-.062-1.076 0-.222-.006-.442-.018-.658-.012-.216-.012-.436 0-.658l-.009-.223.009-.241c0-.123.047-.21.141-.26.059-.025.121-.028.186-.009.065.019.115.059.151.121l.115.102.115.121c.153.074.248.198.283.371.095.284.162.569.204.853.041.285.091.575.151.872.035.322.056.637.062.946l.009.946zm3.372.463l.035.019.109-.165.127-.165.191-.33.192-.312c.06-.085.106-.171.137-.257.031-.086.077-.172.138-.257l.22-.469c.074-.153.124-.316.15-.489l.076-.333.077-.333c.027-.197.039-.392.037-.583-.003-.192-.032-.375-.088-.549l-.118-.345c-.045-.118-.114-.234-.207-.347l-.314-.303-.385-.304-.272-.172c-.088-.051-.191-.084-.309-.098-.071-.026-.11.035-.118.183-.008.148 0 .334.026.557.025.223.06.456.103.698l.096.605c.042.335.069.669.081 1.003l.027 1.002c.019.297.022.591.012.882l-.024.862zm.154 1.338l-.039.25c-.025.067-.085.113-.179.136-.084.048-.161.056-.231.023l-.193-.106-.187.034-.186-.003c-.153-.04-.246-.147-.278-.321-.045-.125-.008-.241.112-.35l.162-.127.162-.146-.008-.056-.008-.056-.12-.791c-.037-.267-.083-.53-.137-.791-.032-.186-.053-.375-.061-.567l-.043-.603-.09-.948c-.03-.31-.067-.626-.108-.948-.02-.235-.031-.467-.032-.697l.002-.658.014-.315.032-.278-.017-.019c-.107.047-.19.015-.247-.097-.034-.062-.039-.124-.014-.186l.091-.165.036-.027.054-.045.117-.109.1-.146c.037-.098.115-.134.232-.107.059.026.124.027.195.003.38-.104.747-.146 1.101-.128l.194.069.194.069.387.174c.117.052.228.128.333.229l.061.085.061.066c.116.138.238.264.366.378l.384.36.261.283c.081.088.156.189.225.301.116.126.196.26.241.403.045.143.078.289.099.438.039.483-.016.952-.166 1.407-.087.246-.168.495-.243.747-.075.252-.163.507-.261.765-.038.123-.087.239-.148.35l-.201.33c-.134.245-.304.502-.51.77-.268.44-.639.73-1.114.87l-.206.117-.189.135z" stroke="#131614" stroke-width="3.822"/><path d="M18.964 9.609l-.504-.193c-.168-.065-.324-.158-.467-.28l-.464-.422-.478-.444-.227-.3-.223-.318c-.063-.103-.073-.213-.03-.33.043-.117.118-.201.226-.251l.095-.063.099-.081c.036-.055.077-.077.123-.066.046.011.074.049.084.115l.115.141.195.15.161.142c.097.111.203.199.316.263.113.065.227.142.341.232l.258.155.269.101.171-.036.121-.143c.065-.137.108-.282.129-.435l.043-.456-.033-.103-.05-.107-.282-.465-.279-.483-.384-.755-.384-.755-.122-.323-.105-.319-.043-.267-.03-.245c-.038-.275-.039-.541-.003-.799.037-.257.092-.504.167-.74.086-.233.236-.401.452-.502.224-.087.436-.114.635-.08s.394.111.586.232l.242.142.246.124.344.175.319.207.219.165.209.125c.171.103.326.228.465.375.194.223.227.439.098.65-.06.113-.151.183-.272.212-.121.029-.243.017-.364-.038l-.233-.102-.232-.102-.267-.11-.271-.092-.28-.094-.297-.098c-.131-.069-.283-.091-.458-.069l-.157.097-.03.183c.009.129.035.249.077.36l.155.34c.147.275.301.549.461.82.16.272.293.559.398.862l.134.354.112.368.125.352.146.338.221.583c.068.193.109.399.123.618.002.33-.052.641-.162.931-.032.094-.086.173-.16.238l-.234.164c-.235.135-.471.194-.71.177l-.217-.003-.231-.025z" stroke="#131614" stroke-width="3.822"/><path d="M26.962 1.401l-.032-.133-.057-.146c-.203.044-.408.115-.615.212-.207.098-.393.208-.557.331-.164.124-.297.256-.399.398-.101.141-.152.278-.152.411 0 .142.034.305.101.49.068.186.148.331.241.437.127-.053.241-.121.342-.205.101-.084.194-.179.279-.285l.241-.325.253-.325.114-.133c.068-.088.125-.192.171-.311l.095-.311-.025-.106zm-3.698 7.024l.127.039.139.013c.143 0 .291-.022.443-.066l.418-.133c.279-.124.515-.239.709-.345.194-.106.357-.207.487-.305.131-.097.242-.194.336-.292l.266-.305-.279-.437c-.093-.15-.19-.291-.291-.424v.013l-.361-.517-.203-.285-.088-.133-.032-.073-.222.199-.171.146-.317.384-.456.464-.279.371c-.093.097-.175.205-.247.325l-.184.351-.12.318-.044.199c0 .115.038.221.114.318.076.098.16.155.253.173zm4.129-2.783l.31-.437c.097-.141.196-.314.298-.517l.051-.093.095-.166.127-.153.146-.066.121.059.126.146.095.192.038.199c0 .071-.019.17-.057.298-.038.128-.07.201-.095.219l-.627.895-.304.417-.12.146-.063.08.475.51.475.523.184.199.139.139.089.133.032.192c0 .124-.034.245-.101.365-.068.119-.186.179-.354.179l-.127-.027-.259-.139c-.114-.075-.268-.19-.463-.345-.194-.154-.435-.369-.722-.643l-.773.729c-.262.248-.534.471-.817.669-.283.199-.578.365-.887.497-.308.133-.631.203-.969.212l-.165.013-.152-.027c-.194-.009-.361-.051-.5-.126-.139-.075-.272-.179-.399-.311-.059-.062-.118-.15-.177-.265-.059-.115-.114-.243-.165-.385-.05-.141-.09-.289-.12-.444-.03-.155-.044-.303-.044-.444 0-.221.015-.411.044-.57.03-.159.08-.307.152-.444s.171-.278.298-.424c.127-.146.285-.313.475-.503l.69-.676c.27-.26.583-.581.937-.961l.051-.04v-.04l.114-.106-.152-.225-.089-.186c-.152-.221-.26-.433-.323-.636s-.095-.398-.095-.583c0-.327.072-.641.216-.941.143-.3.342-.565.595-.795.253-.23.551-.411.893-.543.342-.133.711-.199 1.108-.199.405 0 .707.058.905.172.199.115.336.287.412.517.084.106.126.208.126.305 0 .106-.021.234-.063.384-.042.15-.122.362-.24.636s-.249.513-.393.716c-.144.203-.283.38-.418.53l-.443.497c-.152.163-.291.281-.418.351l-.101.146.507 1.087.164.225.038.066.139.139.139.139.393-.464z" stroke="#131614" stroke-width="4.077"/><path d="M31.582 2.452l-.112-.03-.108-.048-.137-.075-.133-.093-.113-.097-.118-.079-.331-.183c-.114-.056-.238-.089-.369-.098l-.086-.023c-.206-.055-.305-.177-.295-.366.015-.213.133-.322.354-.327.086-.002.159-.027.219-.075.121-.095.251-.105.391-.03.18.061.358.082.533.065l.357.038.357.038c.278.01.547.034.806.071.259.037.515.089.767.156l.236.044.228.003.165.034.13.102c.048.051.11.074.185.069.286-.026.458.097.514.367.065.234-.02.435-.256.602-.144.089-.294.142-.45.158l-.458.041-.301-.003-.301-.004-.24-.026-.245-.008-.02.158-.02.157c-.007.33-.04.653-.099.969-.059.317-.097.638-.115.965-.033.285-.083.565-.15.841-.067.276-.123.554-.167.836-.023.198-.057.387-.101.567l-.123.58c-.027.21-.045.422-.054.636-.01.214-.011.431-.003.65-.016.264-.148.433-.398.507-.115.021-.227-.022-.335-.127l-.094-.063-.116-.05c-.22-.097-.314-.262-.282-.496l.088-.924.104-.919c.032-.234.071-.469.117-.706.045-.237.08-.479.104-.729l.089-.703.076-.726c.035-.246.081-.495.136-.749l.158-.762.014-.13zm3.179 8.539l.006-.232.006-.232-.003-.372.015-.371c.016-.247.013-.489-.007-.725-.02-.237-.035-.474-.044-.709l-.011-.112c.006-.087-.024-.169-.091-.248-.078-.08-.124-.188-.139-.326-.038-.151 0-.279.113-.382l.065-.051.066-.051c.005-.632-.007-1.277-.037-1.936l-.106-.007c-.127-.058-.221-.152-.284-.28-.084-.167-.117-.302-.098-.407.019-.104.109-.218.271-.343l.102-.077.137-.056c.074-.044.12-.109.137-.195l.087-.254.089-.273c.056-.132.149-.2.28-.203.13-.003.233.053.309.17l.094.202c.019.069.02.153.002.251l-.011.167.142-.009.124.009c.203-.023.408-.03.614-.022l.648.017.642-.039c.214-.016.422-.023.623-.022l.382-.001.381.017c.094.007.174.053.24.138.066.085.095.177.089.276-.016.247-.142.374-.38.382l-.204.004-.205.005-.09.012c-.065.095-.138.161-.217.198l-.228.086c-.181.05-.359.09-.532.121-.174.031-.345.072-.514.122l-.181.043-.626.067c-.215.022-.43.051-.645.085-.006.285-.018.569-.036.853l-.054.851.08-.004.063-.005c.437-.167.852-.263 1.244-.285l.359-.049.341-.051c.191-.024.398-.028.623-.012.141.01.242.104.302.281l.054.264-.037.165-.087.105-.088.124-.088.124-.125.14-.156.082c-.239.021-.465.051-.681.092-.216.041-.443.078-.682.111-.18.037-.362.052-.545.046l-.523-.009-.106-.007-.021.194-.021.194-.041.648c-.014.222-.022.438-.024.649-.008.136-.005.266.011.391l.046.394.004.074.003.093.108-.011c.312-.065.613-.137.902-.216l.903-.234.367-.049.385-.047c.096-.018.19-.015.283.01.093.025.185.072.275.14.184.075.24.234.165.476-.028.06-.038.134-.032.221.017.101.006.184-.034.249-.039.065-.097.127-.171.183-.209.122-.419.206-.629.254l-.64.141c-.275.043-.553.073-.832.091-.28.018-.567.029-.864.033l-.116.01-.116.01-.043.109c-.079.131-.178.192-.296.184-.13-.009-.226-.078-.289-.206l-.022-.067-.022-.066-.05-.059c-.069-.03-.129-.074-.178-.133l-.14-.168c-.088-.105-.119-.222-.093-.351.026-.128.095-.225.205-.292l.073-.032.075-.069z" stroke="#131614" stroke-width="3.822"/><path d="M40.5 8.611l.048-.226.048-.226.065-.366.083-.361c.061-.239.103-.477.126-.713.023-.237.052-.471.087-.705l.01-.112c.021-.083.007-.171-.044-.262-.062-.094-.087-.21-.077-.348-.009-.156.051-.274.181-.352l.074-.037.074-.037c.121-.619.227-1.254.32-1.907l-.103-.029c-.114-.083-.189-.193-.228-.332-.052-.181-.059-.32-.022-.419.037-.098.146-.193.328-.283l.115-.054.144-.027c.081-.029.137-.083.17-.163l.132-.232.137-.25c.079-.118.183-.166.312-.143.128.023.219.099.272.229l.055.217c.006.072-.009.154-.044.247l-.041.161.141.02.12.033c.203.018.405.052.607.102l.632.147.637.091c.213.027.418.062.615.104l.375.075.371.094c.091.025.162.087.21.183.049.097.061.193.037.289-.061.239-.208.339-.443.299l-.202-.037-.202-.037-.09-.006c-.082.08-.165.13-.249.151l-.239.039c-.187.012-.368.016-.544.012-.176-.004-.352.001-.527.016l-.185.006-.627-.059-.649-.046c-.059.278-.123.555-.192.829l-.21.825.08.013.062.008c.46-.077.884-.087 1.273-.03l.361.024.344.019c.192.015.396.053.613.113.137.038.218.15.245.337l.005.27-.067.154-.104.086-.109.104-.109.104-.148.113-.168.049c-.238-.028-.466-.043-.685-.047-.219-.003-.449-.013-.69-.029-.183 0-.364-.021-.543-.065l-.512-.114-.103-.029-.057.186-.056.186-.159.627c-.055.215-.102.426-.142.632-.034.131-.054.26-.062.386l-.027.396-.01.074-.014.092.107.011c.318-.001.626-.011.925-.031l.929-.049.369.026.387.031c.097.002.189.024.276.067.087.043.168.108.244.193.167.111.192.277.075.5-.038.054-.062.124-.072.21-.002.102-.028.181-.078.237-.051.057-.118.105-.202.145-.228.078-.449.118-.664.123l-.654.01c-.278-.013-.556-.039-.833-.078-.278-.039-.562-.086-.853-.142l-.116-.013-.116-.013-.062.098c-.102.112-.21.153-.324.121-.126-.035-.207-.122-.245-.261l-.01-.07-.01-.07-.037-.068c-.062-.043-.113-.098-.15-.166l-.107-.193c-.067-.121-.076-.242-.027-.363s.134-.203.255-.246l.077-.017.087-.053zm7.442-1.574l.018.39.018.39c.011.272.018.541.018.807s.012.541.035.825c.024.272.053.547.089.825.035.278.065.56.088.844.059.248.095.482.107.705.012.161-.042.285-.16.371-.118.087-.242.099-.372.037-.095-.049-.18-.108-.257-.176l-.222-.213c-.071-.049-.095-.117-.071-.204.012-.21.006-.408-.018-.594-.024-.185-.042-.377-.053-.575l-.035-.547c-.012-.179-.036-.355-.071-.529-.024-.173-.042-.353-.053-.538l-.053-.557-.062-.593-.044-.594-.071-.927c-.024-.309-.035-.618-.035-.927l.018-.529.053-.529c.035-.161.112-.303.23-.427.071-.074.156-.114.257-.121.1-.006.186.028.257.102l.098.111.08.149.204.529.204.529c.071.173.136.35.195.529.059.179.13.35.213.51.094.21.195.414.301.612l.319.594c.153.272.316.535.487.788.171.254.34.51.505.77l.275.427.275.427.062.093.08.111.035-.111v-2.634l.018-.501.035-.482c.012-.223.015-.445.009-.668-.006-.223.003-.439.027-.649l.062-.863c.018-.29.062-.578.133-.862.035-.123.097-.223.186-.297.089-.074.192-.099.31-.074.107.013.195.062.266.148.071.087.106.192.106.315l.035.603.035.603v1.577c.012.272.018.538.018.798v.798l-.027.621-.027.621c-.024.235-.038.467-.044.696l-.027.714-.009.325.009.306-.036.185-.035.185-.08.204-.097.223c-.071.161-.189.244-.354.25-.166.007-.307-.065-.425-.213-.107-.173-.216-.337-.328-.491-.113-.155-.221-.318-.328-.492l-.346-.557-.345-.538-.337-.464c-.106-.148-.207-.303-.301-.463-.177-.247-.34-.501-.487-.761-.148-.26-.287-.526-.417-.798l-.053-.083-.053-.083-.036.018z" stroke="#131614" stroke-width="3.822"/><path d="M57.108 9.628l-.536.011c-.179.004-.357-.024-.532-.083l-.579-.217-.599-.233-.315-.193-.318-.212c-.095-.072-.142-.171-.142-.296-.001-.125.041-.232.123-.32l.067-.095.064-.114c.014-.065.045-.101.091-.109.047-.007.086.018.119.075l.156.088.234.066.199.071c.129.067.258.109.386.126s.26.046.398.086l.294.047.286-.009.147-.099c.032-.03.053-.09.063-.179.014-.152.003-.303-.031-.455l-.118-.441-.066-.083-.083-.081-.425-.326-.427-.345-.619-.557-.619-.557-.226-.255-.208-.257-.133-.232-.112-.217c-.131-.241-.224-.489-.279-.743-.055-.254-.089-.505-.101-.753-.001-.25.081-.463.247-.64.179-.166.366-.271.563-.316.197-.044.405-.046.627-.007l.275.04.272.022.381.033.369.072.261.071.238.037c.196.031.384.089.563.173.259.134.364.323.316.569-.017.128-.077.228-.18.301-.103.073-.22.107-.352.103l-.252-.006-.252-.007-.287-.001-.284.018-.293.019-.31.022c-.146-.014-.296.023-.45.11l-.112.15.035.182c.053.117.119.219.198.306l.262.258c.232.201.471.397.714.589.243.192.466.41.669.653l.247.279.232.301.238.281.253.26.408.46c.13.155.24.331.328.529.117.307.174.617.172.93.003.1-.019.194-.066.283l-.162.242c-.172.215-.372.36-.6.434l-.204.08-.224.064z" stroke="#131614" stroke-width="3.822"/><path d="M1.692 5.255l.365.259c.104.08.217.152.337.216.147.108.283.217.406.325l.389.322.119.083.098.097c.087.107.184.198.29.271l.318.221c.138.094.27.191.394.294l.373.309c.076.042.11.081.103.117.002.114.039.211.114.29.075.079.12.171.135.276.006.153-.055.275-.182.367-.127.093-.264.11-.409.053-.303-.117-.569-.295-.799-.534-.148-.108-.285-.233-.414-.375-.071-.066-.168-.125-.291-.177-.185-.103-.358-.217-.521-.341-.162-.124-.314-.258-.454-.402-.156-.186-.318-.347-.483-.485l-.314-.334-.035.087-.117.95c-.038.314-.059.628-.061.943.003.165-.069.282-.215.351-.137.084-.277.06-.42-.073-.106-.137-.145-.272-.118-.405l-.012-.211c.009-.048-.009-.109-.054-.182l-.075-.121-.03-.167c-.006-.153.004-.305.028-.458.024-.153.039-.304.045-.454.037-.371.078-.741.122-1.11l.135-1.089c.008-.162.03-.316.065-.459.034-.144.061-.29.078-.438.047-.419.078-.848.094-1.287.003-.138.046-.23.127-.275l.044-.038.03-.06.05-.16.05-.16c.064-.201.187-.3.367-.299.083.006.162.048.237.127.075.08.108.169.1.268l.005.475-.016.489c-.01.289-.03.562-.064.82l-.095.794-.004.113.073-.003.329-.241.329-.241.991-.655c.327-.219.663-.436 1.008-.652l.639-.391c.219-.129.442-.251.67-.365.149-.081.274-.073.375.025.076.042.122.099.138.172l.002.218c-.021.046-.014.098.023.156.102.212.063.381-.119.505-.228.177-.458.345-.688.503l-.699.463c-.233.139-.461.282-.683.429-.222.147-.45.29-.683.429l-.508.325-.505.306-.246.098-.281.091zm7.29 1.355v1.206l-.009.167-.027.167c-.024.099-.03.201-.018.306l.053.306c.047.136.035.278-.036.427l-.035.167c0 .099-.036.207-.107.325-.071.118-.154.201-.248.25-.118.037-.225.031-.319-.018-.13-.123-.213-.26-.248-.408l-.053-.501-.035-.353-.036-.352-.062-.918-.062-.899-.098-1.076c-.03-.358-.05-.717-.062-1.076 0-.222-.006-.442-.018-.658-.012-.216-.012-.436 0-.658l-.009-.223.009-.241c0-.123.047-.21.141-.26.059-.025.121-.028.186-.009.065.019.115.059.151.121l.115.102.115.121c.153.074.248.198.283.371.095.284.162.569.204.853.041.285.091.575.151.872.035.322.056.637.062.946l.009.946zm3.372.463l.035.019.109-.165.127-.165.191-.33.192-.312c.06-.085.106-.171.137-.257.031-.086.077-.172.138-.257l.22-.469c.074-.153.124-.316.15-.489l.076-.333.077-.333c.027-.197.039-.392.037-.583-.003-.192-.032-.375-.088-.549l-.118-.345c-.045-.118-.114-.234-.207-.347l-.314-.303-.385-.304-.272-.172c-.088-.051-.191-.084-.309-.098-.071-.026-.11.035-.118.183-.008.148 0 .334.026.557.025.223.06.456.103.698l.096.605c.042.335.069.669.081 1.003l.027 1.002c.019.297.022.591.012.882l-.024.862zm.154 1.338l-.039.25c-.025.067-.085.113-.179.136-.084.048-.161.056-.231.023l-.193-.106-.187.034-.186-.003c-.153-.04-.246-.147-.278-.321-.045-.125-.008-.241.112-.35l.162-.127.162-.146-.008-.056-.008-.056-.12-.791c-.037-.267-.083-.53-.137-.791-.032-.186-.053-.375-.061-.567l-.043-.603-.09-.948c-.03-.31-.067-.626-.108-.948-.02-.235-.031-.467-.032-.697l.002-.658.014-.315.032-.278-.017-.019c-.107.047-.19.015-.247-.097-.034-.062-.039-.124-.014-.186l.091-.165.036-.027.054-.045.117-.109.1-.146c.037-.098.115-.134.232-.107.059.026.124.027.195.003.38-.104.747-.146 1.101-.128l.194.069.194.069.387.174c.117.052.228.128.333.229l.061.085.061.066c.116.138.238.264.366.378l.384.36.261.283c.081.088.156.189.225.301.116.126.196.26.241.403.045.143.078.289.099.438.039.483-.016.952-.166 1.407-.087.246-.168.495-.243.747-.075.252-.163.507-.261.765-.038.123-.087.239-.148.35l-.201.33c-.134.245-.304.502-.51.77-.268.44-.639.73-1.114.87l-.206.117-.189.135z" stroke="#FFFFFE" stroke-width="3.058"/><path d="M18.964 9.609l-.504-.193c-.168-.065-.324-.158-.467-.28l-.464-.422-.478-.444-.227-.3-.223-.318c-.063-.103-.073-.213-.03-.33.043-.117.118-.201.226-.251l.095-.063.099-.081c.036-.055.077-.077.123-.066.046.011.074.049.084.115l.115.141.195.15.161.142c.097.111.203.199.316.263.113.065.227.142.341.232l.258.155.269.101.171-.036.121-.143c.065-.137.108-.282.129-.435l.043-.456-.033-.103-.05-.107-.282-.465-.279-.483-.384-.755-.384-.755-.122-.323-.105-.319-.043-.267-.03-.245c-.038-.275-.039-.541-.003-.799.037-.257.092-.504.167-.74.086-.233.236-.401.452-.502.224-.087.436-.114.635-.08s.394.111.586.232l.242.142.246.124.344.175.319.207.219.165.209.125c.171.103.326.228.465.375.194.223.227.439.098.65-.06.113-.151.183-.272.212-.121.029-.243.017-.364-.038l-.233-.102-.232-.102-.267-.11-.271-.092-.28-.094-.297-.098c-.131-.069-.283-.091-.458-.069l-.157.097-.03.183c.009.129.035.249.077.36l.155.34c.147.275.301.549.461.82.16.272.293.559.398.862l.134.354.112.368.125.352.146.338.221.583c.068.193.109.399.123.618.002.33-.052.641-.162.931-.032.094-.086.173-.16.238l-.234.164c-.235.135-.471.194-.71.177l-.217-.003-.231-.025z" stroke="#FFFFFE" stroke-width="3.058"/><path d="M26.962 1.401l-.032-.133-.057-.146c-.203.044-.408.115-.615.212-.207.098-.393.208-.557.331-.164.124-.297.256-.399.398-.101.141-.152.278-.152.411 0 .142.034.305.101.49.068.186.148.331.241.437.127-.053.241-.121.342-.205.101-.084.194-.179.279-.285l.241-.325.253-.325.114-.133c.068-.088.125-.192.171-.311l.095-.311-.025-.106zm-3.698 7.024l.127.039.139.013c.143 0 .291-.022.443-.066l.418-.133c.279-.124.515-.239.709-.345.194-.106.357-.207.487-.305.131-.097.242-.194.336-.292l.266-.305-.279-.437c-.093-.15-.19-.291-.291-.424v.013l-.361-.517-.203-.285-.088-.133-.032-.073-.222.199-.171.146-.317.384-.456.464-.279.371c-.093.097-.175.205-.247.325l-.184.351-.12.318-.044.199c0 .115.038.221.114.318.076.098.16.155.253.173zm4.129-2.783l.31-.437c.097-.141.196-.314.298-.517l.051-.093.095-.166.127-.153.146-.066.121.059.126.146.095.192.038.199c0 .071-.019.17-.057.298-.038.128-.07.201-.095.219l-.627.895-.304.417-.12.146-.063.08.475.51.475.523.184.199.139.139.089.133.032.192c0 .124-.034.245-.101.365-.068.119-.186.179-.354.179l-.127-.027-.259-.139c-.114-.075-.268-.19-.463-.345-.194-.154-.435-.369-.722-.643l-.773.729c-.262.248-.534.471-.817.669-.283.199-.578.365-.887.497-.308.133-.631.203-.969.212l-.165.013-.152-.027c-.194-.009-.361-.051-.5-.126-.139-.075-.272-.179-.399-.311-.059-.062-.118-.15-.177-.265-.059-.115-.114-.243-.165-.385-.05-.141-.09-.289-.12-.444-.03-.155-.044-.303-.044-.444 0-.221.015-.411.044-.57.03-.159.08-.307.152-.444s.171-.278.298-.424c.127-.146.285-.313.475-.503l.69-.676c.27-.26.583-.581.937-.961l.051-.04v-.04l.114-.106-.152-.225-.089-.186c-.152-.221-.26-.433-.323-.636s-.095-.398-.095-.583c0-.327.072-.641.216-.941.143-.3.342-.565.595-.795.253-.23.551-.411.893-.543.342-.133.711-.199 1.108-.199.405 0 .707.058.905.172.199.115.336.287.412.517.084.106.126.208.126.305 0 .106-.021.234-.063.384-.042.15-.122.362-.24.636s-.249.513-.393.716c-.144.203-.283.38-.418.53l-.443.497c-.152.163-.291.281-.418.351l-.101.146.507 1.087.164.225.038.066.139.139.139.139.393-.464z" stroke="#FFFFFE" stroke-width="3.313"/><path d="M31.582 2.452l-.112-.03-.108-.048-.137-.075-.133-.093-.113-.097-.118-.079-.331-.183c-.114-.056-.238-.089-.369-.098l-.086-.023c-.206-.055-.305-.177-.295-.366.015-.213.133-.322.354-.327.086-.002.159-.027.219-.075.121-.095.251-.105.391-.03.18.061.358.082.533.065l.357.038.357.038c.278.01.547.034.806.071.259.037.515.089.767.156l.236.044.228.003.165.034.13.102c.048.051.11.074.185.069.286-.026.458.097.514.367.065.234-.02.435-.256.602-.144.089-.294.142-.45.158l-.458.041-.301-.003-.301-.004-.24-.026-.245-.008-.02.158-.02.157c-.007.33-.04.653-.099.969-.059.317-.097.638-.115.965-.033.285-.083.565-.15.841-.067.276-.123.554-.167.836-.023.198-.057.387-.101.567l-.123.58c-.027.21-.045.422-.054.636-.01.214-.011.431-.003.65-.016.264-.148.433-.398.507-.115.021-.227-.022-.335-.127l-.094-.063-.116-.05c-.22-.097-.314-.262-.282-.496l.088-.924.104-.919c.032-.234.071-.469.117-.706.045-.237.08-.479.104-.729l.089-.703.076-.726c.035-.246.081-.495.136-.749l.158-.762.014-.13zm3.179 8.539l.006-.232.006-.232-.003-.372.015-.371c.016-.247.013-.489-.007-.725-.02-.237-.035-.474-.044-.709l-.011-.112c.006-.087-.024-.169-.091-.248-.078-.08-.124-.188-.139-.326-.038-.151 0-.279.113-.382l.065-.051.066-.051c.005-.632-.007-1.277-.037-1.936l-.106-.007c-.127-.058-.221-.152-.284-.28-.084-.167-.117-.302-.098-.407.019-.104.109-.218.271-.343l.102-.077.137-.056c.074-.044.12-.109.137-.195l.087-.254.089-.273c.056-.132.149-.2.28-.203.13-.003.233.053.309.17l.094.202c.019.069.02.153.002.251l-.011.167.142-.009.124.009c.203-.023.408-.03.614-.022l.648.017.642-.039c.214-.016.422-.023.623-.022l.382-.001.381.017c.094.007.174.053.24.138.066.085.095.177.089.276-.016.247-.142.374-.38.382l-.204.004-.205.005-.09.012c-.065.095-.138.161-.217.198l-.228.086c-.181.05-.359.09-.532.121-.174.031-.345.072-.514.122l-.181.043-.626.067c-.215.022-.43.051-.645.085-.006.285-.018.569-.036.853l-.054.851.08-.004.063-.005c.437-.167.852-.263 1.244-.285l.359-.049.341-.051c.191-.024.398-.028.623-.012.141.01.242.104.302.281l.054.264-.037.165-.087.105-.088.124-.088.124-.125.14-.156.082c-.239.021-.465.051-.681.092-.216.041-.443.078-.682.111-.18.037-.362.052-.545.046l-.523-.009-.106-.007-.021.194-.021.194-.041.648c-.014.222-.022.438-.024.649-.008.136-.005.266.011.391l.046.394.004.074.003.093.108-.011c.312-.065.613-.137.902-.216l.903-.234.367-.049.385-.047c.096-.018.19-.015.283.01.093.025.185.072.275.14.184.075.24.234.165.476-.028.06-.038.134-.032.221.017.101.006.184-.034.249-.039.065-.097.127-.171.183-.209.122-.419.206-.629.254l-.64.141c-.275.043-.553.073-.832.091-.28.018-.567.029-.864.033l-.116.01-.116.01-.043.109c-.079.131-.178.192-.296.184-.13-.009-.226-.078-.289-.206l-.022-.067-.022-.066-.05-.059c-.069-.03-.129-.074-.178-.133l-.14-.168c-.088-.105-.119-.222-.093-.351.026-.128.095-.225.205-.292l.073-.032.075-.069z" stroke="#FFFFFE" stroke-width="3.058"/><path d="M40.5 8.611l.048-.226.048-.226.065-.366.083-.361c.061-.239.103-.477.126-.713.023-.237.052-.471.087-.705l.01-.112c.021-.083.007-.171-.044-.262-.062-.094-.087-.21-.077-.348-.009-.156.051-.274.181-.352l.074-.037.074-.037c.121-.619.227-1.254.32-1.907l-.103-.029c-.114-.083-.189-.193-.228-.332-.052-.181-.059-.32-.022-.419.037-.098.146-.193.328-.283l.115-.054.144-.027c.081-.029.137-.083.17-.163l.132-.232.137-.25c.079-.118.183-.166.312-.143.128.023.219.099.272.229l.055.217c.006.072-.009.154-.044.247l-.041.161.141.02.12.033c.203.018.405.052.607.102l.632.147.637.091c.213.027.418.062.615.104l.375.075.371.094c.091.025.162.087.21.183.049.097.061.193.037.289-.061.239-.208.339-.443.299l-.202-.037-.202-.037-.09-.006c-.082.08-.165.13-.249.151l-.239.039c-.187.012-.368.016-.544.012-.176-.004-.352.001-.527.016l-.185.006-.627-.059-.649-.046c-.059.278-.123.555-.192.829l-.21.825.08.013.062.008c.46-.077.884-.087 1.273-.03l.361.024.344.019c.192.015.396.053.613.113.137.038.218.15.245.337l.005.27-.067.154-.104.086-.109.104-.109.104-.148.113-.168.049c-.238-.028-.466-.043-.685-.047-.219-.003-.449-.013-.69-.029-.183 0-.364-.021-.543-.065l-.512-.114-.103-.029-.057.186-.056.186-.159.627c-.055.215-.102.426-.142.632-.034.131-.054.26-.062.386l-.027.396-.01.074-.014.092.107.011c.318-.001.626-.011.925-.031l.929-.049.369.026.387.031c.097.002.189.024.276.067.087.043.168.108.244.193.167.111.192.277.075.5-.038.054-.062.124-.072.21-.002.102-.028.181-.078.237-.051.057-.118.105-.202.145-.228.078-.449.118-.664.123l-.654.01c-.278-.013-.556-.039-.833-.078-.278-.039-.562-.086-.853-.142l-.116-.013-.116-.013-.062.098c-.102.112-.21.153-.324.121-.126-.035-.207-.122-.245-.261l-.01-.07-.01-.07-.037-.068c-.062-.043-.113-.098-.15-.166l-.107-.193c-.067-.121-.076-.242-.027-.363s.134-.203.255-.246l.077-.017.087-.053zm7.442-1.574l.018.39.018.39c.011.272.018.541.018.807s.012.541.035.825c.024.272.053.547.089.825.035.278.065.56.088.844.059.248.095.482.107.705.012.161-.042.285-.16.371-.118.087-.242.099-.372.037-.095-.049-.18-.108-.257-.176l-.222-.213c-.071-.049-.095-.117-.071-.204.012-.21.006-.408-.018-.594-.024-.185-.042-.377-.053-.575l-.035-.547c-.012-.179-.036-.355-.071-.529-.024-.173-.042-.353-.053-.538l-.053-.557-.062-.593-.044-.594-.071-.927c-.024-.309-.035-.618-.035-.927l.018-.529.053-.529c.035-.161.112-.303.23-.427.071-.074.156-.114.257-.121.1-.006.186.028.257.102l.098.111.08.149.204.529.204.529c.071.173.136.35.195.529.059.179.13.35.213.51.094.21.195.414.301.612l.319.594c.153.272.316.535.487.788.171.254.34.51.505.77l.275.427.275.427.062.093.08.111.035-.111v-2.634l.018-.501.035-.482c.012-.223.015-.445.009-.668-.006-.223.003-.439.027-.649l.062-.863c.018-.29.062-.578.133-.862.035-.123.097-.223.186-.297.089-.074.192-.099.31-.074.107.013.195.062.266.148.071.087.106.192.106.315l.035.603.035.603v1.577c.012.272.018.538.018.798v.798l-.027.621-.027.621c-.024.235-.038.467-.044.696l-.027.714-.009.325.009.306-.036.185-.035.185-.08.204-.097.223c-.071.161-.189.244-.354.25-.166.007-.307-.065-.425-.213-.107-.173-.216-.337-.328-.491-.113-.155-.221-.318-.328-.492l-.346-.557-.345-.538-.337-.464c-.106-.148-.207-.303-.301-.463-.177-.247-.34-.501-.487-.761-.148-.26-.287-.526-.417-.798l-.053-.083-.053-.083-.036.018z" stroke="#FFFFFE" stroke-width="3.058"/><path d="M57.108 9.628l-.536.011c-.179.004-.357-.024-.532-.083l-.579-.217-.599-.233-.315-.193-.318-.212c-.095-.072-.142-.171-.142-.296-.001-.125.041-.232.123-.32l.067-.095.064-.114c.014-.065.045-.101.091-.109.047-.007.086.018.119.075l.156.088.234.066.199.071c.129.067.258.109.386.126s.26.046.398.086l.294.047.286-.009.147-.099c.032-.03.053-.09.063-.179.014-.152.003-.303-.031-.455l-.118-.441-.066-.083-.083-.081-.425-.326-.427-.345-.619-.557-.619-.557-.226-.255-.208-.257-.133-.232-.112-.217c-.131-.241-.224-.489-.279-.743-.055-.254-.089-.505-.101-.753-.001-.25.081-.463.247-.64.179-.166.366-.271.563-.316.197-.044.405-.046.627-.007l.275.04.272.022.381.033.369.072.261.071.238.037c.196.031.384.089.563.173.259.134.364.323.316.569-.017.128-.077.228-.18.301-.103.073-.22.107-.352.103l-.252-.006-.252-.007-.287-.001-.284.018-.293.019-.31.022c-.146-.014-.296.023-.45.11l-.112.15.035.182c.053.117.119.219.198.306l.262.258c.232.201.471.397.714.589.243.192.466.41.669.653l.247.279.232.301.238.281.253.26.408.46c.13.155.24.331.328.529.117.307.174.617.172.93.003.1-.019.194-.066.283l-.162.242c-.172.215-.372.36-.6.434l-.204.08-.224.064z" stroke="#FFFFFE" stroke-width="3.058"/></g><path d="M1.692 5.255l.365.259c.104.08.217.152.337.216.147.108.283.217.406.325l.389.322.119.083.098.097c.087.107.184.198.29.271l.318.221c.138.094.27.191.394.294l.373.309c.076.042.11.081.103.117.002.114.039.211.114.29.075.079.12.171.135.276.006.153-.055.275-.182.367-.127.093-.264.11-.409.053-.303-.117-.569-.295-.799-.534-.148-.108-.285-.233-.414-.375-.071-.066-.168-.125-.291-.177-.185-.103-.358-.217-.521-.341-.162-.124-.314-.258-.454-.402-.156-.186-.318-.347-.483-.485l-.314-.334-.035.087-.117.95c-.038.314-.059.628-.061.943.003.165-.069.282-.215.351-.137.084-.277.06-.42-.073-.106-.137-.145-.272-.118-.405l-.012-.211c.009-.048-.009-.109-.054-.182l-.075-.121-.03-.167c-.006-.153.004-.305.028-.458.024-.153.039-.304.045-.454.037-.371.078-.741.122-1.11l.135-1.089c.008-.162.03-.316.065-.459.034-.144.061-.29.078-.438.047-.419.078-.848.094-1.287.003-.138.046-.23.127-.275l.044-.038.03-.06.05-.16.05-.16c.064-.201.187-.3.367-.299.083.006.162.048.237.127.075.08.108.169.1.268l.005.475-.016.489c-.01.289-.03.562-.064.82l-.095.794-.004.113.073-.003.329-.241.329-.241.991-.655c.327-.219.663-.436 1.008-.652l.639-.391c.219-.129.442-.251.67-.365.149-.081.274-.073.375.025.076.042.122.099.138.172l.002.218c-.021.046-.014.098.023.156.102.212.063.381-.119.505-.228.177-.458.345-.688.503l-.699.463c-.233.139-.461.282-.683.429-.222.147-.45.29-.683.429l-.508.325-.505.306-.246.098-.281.091" fill="#DB3256"/><path d="M8.982 6.61v1.206l-.009.167-.027.167c-.024.099-.03.201-.018.306l.053.306c.047.136.035.278-.036.427l-.035.167c0 .099-.036.207-.107.325-.071.118-.154.201-.248.25-.118.037-.225.031-.319-.018-.13-.123-.213-.26-.248-.408l-.053-.501-.035-.353-.036-.352-.062-.918-.062-.899-.098-1.076c-.03-.358-.05-.717-.062-1.076 0-.222-.006-.442-.018-.658-.012-.216-.012-.436 0-.658l-.009-.223.009-.241c0-.123.047-.21.141-.26.059-.025.121-.028.186-.009.065.019.115.059.151.121l.115.102.115.121c.153.074.248.198.283.371.095.284.162.569.204.853.041.285.091.575.151.872.035.322.056.637.062.946l.009.946" fill="#E67855"/><path d="M12.354 7.073l.035.019.109-.165.127-.165.191-.33.192-.312c.06-.085.106-.171.137-.257.031-.086.077-.172.138-.257l.22-.469c.074-.153.124-.316.15-.489l.076-.333.077-.333c.027-.197.039-.392.037-.583-.003-.192-.032-.375-.088-.549l-.118-.345c-.045-.118-.114-.234-.207-.347l-.314-.303-.385-.304-.272-.172c-.088-.051-.191-.084-.309-.098-.071-.026-.11.035-.118.183-.008.148 0 .334.026.557.025.223.06.456.103.698l.096.605c.042.335.069.669.081 1.003l.027 1.002c.019.297.022.591.012.882l-.024.862zm.154 1.338l-.039.25c-.025.067-.085.113-.179.136-.084.048-.161.056-.231.023l-.193-.106-.187.034-.186-.003c-.153-.04-.246-.147-.278-.321-.045-.125-.008-.241.112-.35l.162-.127.162-.146-.008-.056-.008-.056-.12-.791c-.037-.267-.083-.53-.137-.791-.032-.186-.053-.375-.061-.567l-.043-.603-.09-.948c-.03-.31-.067-.626-.108-.948-.02-.235-.031-.467-.032-.697l.002-.658.014-.315.032-.278-.017-.019c-.107.047-.19.015-.247-.097-.034-.062-.039-.124-.014-.186l.091-.165.036-.027.054-.045.117-.109.1-.146c.037-.098.115-.134.232-.107.059.026.124.027.195.003.38-.104.747-.146 1.101-.128l.194.069.194.069.387.174c.117.052.228.128.333.229l.061.085.061.066c.116.138.238.264.366.378l.384.36.261.283c.081.088.156.189.225.301.116.126.196.26.241.403.045.143.078.289.099.438.039.483-.016.952-.166 1.407-.087.246-.168.495-.243.747-.075.252-.163.507-.261.765-.038.123-.087.239-.148.35l-.201.33c-.134.245-.304.502-.51.77-.268.44-.639.73-1.114.87l-.206.117-.189.135z" fill="#F2C174"/><path d="M18.964 9.609l-.504-.193c-.168-.065-.324-.158-.467-.28l-.464-.422-.478-.444-.227-.3-.223-.318c-.063-.103-.073-.213-.03-.33.043-.117.118-.201.226-.251l.095-.063.099-.081c.036-.055.077-.077.123-.066.046.011.074.049.084.115l.115.141.195.15.161.142c.097.111.203.199.316.263.113.065.227.142.341.232l.258.155.269.101.171-.036.121-.143c.065-.137.108-.282.129-.435l.043-.456-.033-.103-.05-.107-.282-.465-.279-.483-.384-.755-.384-.755-.122-.323-.105-.319-.043-.267-.03-.245c-.038-.275-.039-.541-.003-.799.037-.257.092-.504.167-.74.086-.233.236-.401.452-.502.224-.087.436-.114.635-.08s.394.111.586.232l.242.142.246.124.344.175.319.207.219.165.209.125c.171.103.326.228.465.375.194.223.227.439.098.65-.06.113-.151.183-.272.212-.121.029-.243.017-.364-.038l-.233-.102-.232-.102-.267-.11-.271-.092-.28-.094-.297-.098c-.131-.069-.283-.091-.458-.069l-.157.097-.03.183c.009.129.035.249.077.36l.155.34c.147.275.301.549.461.82.16.272.293.559.398.862l.134.354.112.368.125.352.146.338.221.583c.068.193.109.399.123.618.002.33-.052.641-.162.931-.032.094-.086.173-.16.238l-.234.164c-.235.135-.471.194-.71.177l-.217-.003-.231-.025" fill="#99C277"/><path d="M26.962 1.401l-.032-.133-.057-.146c-.203.044-.408.115-.615.212-.207.098-.393.208-.557.331-.164.124-.297.256-.399.398-.101.141-.152.278-.152.411 0 .142.034.305.101.49.068.186.148.331.241.437.127-.053.241-.121.342-.205.101-.084.194-.179.279-.285l.241-.325.253-.325.114-.133c.068-.088.125-.192.171-.311l.095-.311-.025-.106zm-3.698 7.024l.127.039.139.013c.143 0 .291-.022.443-.066l.418-.133c.279-.124.515-.239.709-.345.194-.106.357-.207.487-.305.131-.097.242-.194.336-.292l.266-.305-.279-.437c-.093-.15-.19-.291-.291-.424v.013l-.361-.517-.203-.285-.088-.133-.032-.073-.222.199-.171.146-.317.384-.456.464-.279.371c-.093.097-.175.205-.247.325l-.184.351-.12.318-.044.199c0 .115.038.221.114.318.076.098.16.155.253.173zm4.129-2.783l.31-.437c.097-.141.196-.314.298-.517l.051-.093.095-.166.127-.153.146-.066.121.059.126.146.095.192.038.199c0 .071-.019.17-.057.298-.038.128-.07.201-.095.219l-.627.895-.304.417-.12.146-.063.08.475.51.475.523.184.199.139.139.089.133.032.192c0 .124-.034.245-.101.365-.068.119-.186.179-.354.179l-.127-.027-.259-.139c-.114-.075-.268-.19-.463-.345-.194-.154-.435-.369-.722-.643l-.773.729c-.262.248-.534.471-.817.669-.283.199-.578.365-.887.497-.308.133-.631.203-.969.212l-.165.013-.152-.027c-.194-.009-.361-.051-.5-.126-.139-.075-.272-.179-.399-.311-.059-.062-.118-.15-.177-.265-.059-.115-.114-.243-.165-.385-.05-.141-.09-.289-.12-.444-.03-.155-.044-.303-.044-.444 0-.221.015-.411.044-.57.03-.159.08-.307.152-.444s.171-.278.298-.424c.127-.146.285-.313.475-.503l.69-.676c.27-.26.583-.581.937-.961l.051-.04v-.04l.114-.106-.152-.225-.089-.186c-.152-.221-.26-.433-.323-.636s-.095-.398-.095-.583c0-.327.072-.641.216-.941.143-.3.342-.565.595-.795.253-.23.551-.411.893-.543.342-.133.711-.199 1.108-.199.405 0 .707.058.905.172.199.115.336.287.412.517.084.106.126.208.126.305 0 .106-.021.234-.063.384-.042.15-.122.362-.24.636s-.249.513-.393.716c-.144.203-.283.38-.418.53l-.443.497c-.152.163-.291.281-.418.351l-.101.146.507 1.087.164.225.038.066.139.139.139.139.393-.464z" fill="#96D0C4"/><path d="M31.582 2.452l-.112-.03-.108-.048-.137-.075-.133-.093-.113-.097-.118-.079-.331-.183c-.114-.056-.238-.089-.369-.098l-.086-.023c-.206-.055-.305-.177-.295-.366.015-.213.133-.322.354-.327.086-.002.159-.027.219-.075.121-.095.251-.105.391-.03.18.061.358.082.533.065l.357.038.357.038c.278.01.547.034.806.071.259.037.515.089.767.156l.236.044.228.003.165.034.13.102c.048.051.11.074.185.069.286-.026.458.097.514.367.065.234-.02.435-.256.602-.144.089-.294.142-.45.158l-.458.041-.301-.003-.301-.004-.24-.026-.245-.008-.02.158-.02.157c-.007.33-.04.653-.099.969-.059.317-.097.638-.115.965-.033.285-.083.565-.15.841-.067.276-.123.554-.167.836-.023.198-.057.387-.101.567l-.123.58c-.027.21-.045.422-.054.636-.01.214-.011.431-.003.65-.016.264-.148.433-.398.507-.115.021-.227-.022-.335-.127l-.094-.063-.116-.05c-.22-.097-.314-.262-.282-.496l.088-.924.104-.919c.032-.234.071-.469.117-.706.045-.237.08-.479.104-.729l.089-.703.076-.726c.035-.246.081-.495.136-.749l.158-.762.014-.13" fill="#1B5B8D"/><path d="M34.761 10.991l.006-.232.006-.232-.003-.372.015-.371c.016-.247.013-.489-.007-.725-.02-.237-.035-.474-.044-.709l-.011-.112c.006-.087-.024-.169-.091-.248-.078-.08-.124-.188-.139-.326-.038-.151 0-.279.113-.382l.065-.051.066-.051c.005-.632-.007-1.277-.037-1.936l-.106-.007c-.127-.058-.221-.152-.284-.28-.084-.167-.117-.302-.098-.407.019-.104.109-.218.271-.343l.102-.077.137-.056c.074-.044.12-.109.137-.195l.087-.254.089-.273c.056-.132.149-.2.28-.203.13-.003.233.053.309.17l.094.202c.019.069.02.153.002.251l-.011.167.142-.009.124.009c.203-.023.408-.03.614-.022l.648.017.642-.039c.214-.016.422-.023.623-.022l.382-.001.381.017c.094.007.174.053.24.138.066.085.095.177.089.276-.016.247-.142.374-.38.382l-.204.004-.205.005-.09.012c-.065.095-.138.161-.217.198l-.228.086c-.181.05-.359.09-.532.121-.174.031-.345.072-.514.122l-.181.043-.626.067c-.215.022-.43.051-.645.085-.006.285-.018.569-.036.853l-.054.851.08-.004.063-.005c.437-.167.852-.263 1.244-.285l.359-.049.341-.051c.191-.024.398-.028.623-.012.141.01.242.104.302.281l.054.264-.037.165-.087.105-.088.124-.088.124-.125.14-.156.082c-.239.021-.465.051-.681.092-.216.041-.443.078-.682.111-.18.037-.362.052-.545.046l-.523-.009-.106-.007-.021.194-.021.194-.041.648c-.014.222-.022.438-.024.649-.008.136-.005.266.011.391l.046.394.004.074.003.093.108-.011c.312-.065.613-.137.902-.216l.903-.234.367-.049.385-.047c.096-.018.19-.015.283.01.093.025.185.072.275.14.184.075.24.234.165.476-.028.06-.038.134-.032.221.017.101.006.184-.034.249-.039.065-.097.127-.171.183-.209.122-.419.206-.629.254l-.64.141c-.275.043-.553.073-.832.091-.28.018-.567.029-.864.033l-.116.01-.116.01-.043.109c-.079.131-.178.192-.296.184-.13-.009-.226-.078-.289-.206l-.022-.067-.022-.066-.05-.059c-.069-.03-.129-.074-.178-.133l-.14-.168c-.088-.105-.119-.222-.093-.351.026-.128.095-.225.205-.292l.073-.032.075-.069" fill="#E46D81"/><path d="M40.5 8.611l.048-.226.048-.226.065-.366.083-.361c.061-.239.103-.477.126-.713.023-.237.052-.471.087-.705l.01-.112c.021-.083.007-.171-.044-.262-.062-.094-.087-.21-.077-.348-.009-.156.051-.274.181-.352l.074-.037.074-.037c.121-.619.227-1.254.32-1.907l-.103-.029c-.114-.083-.189-.193-.228-.332-.052-.181-.059-.32-.022-.419.037-.098.146-.193.328-.283l.115-.054.144-.027c.081-.029.137-.083.17-.163l.132-.232.137-.25c.079-.118.183-.166.312-.143.128.023.219.099.272.229l.055.217c.006.072-.009.154-.044.247l-.041.161.141.02.12.033c.203.018.405.052.607.102l.632.147.637.091c.213.027.418.062.615.104l.375.075.371.094c.091.025.162.087.21.183.049.097.061.193.037.289-.061.239-.208.339-.443.299l-.202-.037-.202-.037-.09-.006c-.082.08-.165.13-.249.151l-.239.039c-.187.012-.368.016-.544.012-.176-.004-.352.001-.527.016l-.185.006-.627-.059-.649-.046c-.059.278-.123.555-.192.829l-.21.825.08.013.062.008c.46-.077.884-.087 1.273-.03l.361.024.344.019c.192.015.396.053.613.113.137.038.218.15.245.337l.005.27-.067.154-.104.086-.109.104-.109.104-.148.113-.168.049c-.238-.028-.466-.043-.685-.047-.219-.003-.449-.013-.69-.029-.183 0-.364-.021-.543-.065l-.512-.114-.103-.029-.057.186-.056.186-.159.627c-.055.215-.102.426-.142.632-.034.131-.054.26-.062.386l-.027.396-.01.074-.014.092.107.011c.318-.001.626-.011.925-.031l.929-.049.369.026.387.031c.097.002.189.024.276.067.087.043.168.108.244.193.167.111.192.277.075.5-.038.054-.062.124-.072.21-.002.102-.028.181-.078.237-.051.057-.118.105-.202.145-.228.078-.449.118-.664.123l-.654.01c-.278-.013-.556-.039-.833-.078-.278-.039-.562-.086-.853-.142l-.116-.013-.116-.013-.062.098c-.102.112-.21.153-.324.121-.126-.035-.207-.122-.245-.261l-.01-.07-.01-.07-.037-.068c-.062-.043-.113-.098-.15-.166l-.107-.193c-.067-.121-.076-.242-.027-.363s.134-.203.255-.246l.077-.017.087-.053" fill="#DB3256"/><path d="M47.942 7.037l.018.39.018.39c.011.272.018.541.018.807s.012.541.035.825c.024.272.053.547.089.825.035.278.065.56.088.844.059.248.095.482.107.705.012.161-.042.285-.16.371-.118.087-.242.099-.372.037-.095-.049-.18-.108-.257-.176l-.222-.213c-.071-.049-.095-.117-.071-.204.012-.21.006-.408-.018-.594-.024-.185-.042-.377-.053-.575l-.035-.547c-.012-.179-.036-.355-.071-.529-.024-.173-.042-.353-.053-.538l-.053-.557-.062-.593-.044-.594-.071-.927c-.024-.309-.035-.618-.035-.927l.018-.529.053-.529c.035-.161.112-.303.23-.427.071-.074.156-.114.257-.121.1-.006.186.028.257.102l.098.111.08.149.204.529.204.529c.071.173.136.35.195.529.059.179.13.35.213.51.094.21.195.414.301.612l.319.594c.153.272.316.535.487.788.171.254.34.51.505.77l.275.427.275.427.062.093.08.111.035-.111v-2.634l.018-.501.035-.482c.012-.223.015-.445.009-.668-.006-.223.003-.439.027-.649l.062-.863c.018-.29.062-.578.133-.862.035-.123.097-.223.186-.297.089-.074.192-.099.31-.074.107.013.195.062.266.148.071.087.106.192.106.315l.035.603.035.603v1.577c.012.272.018.538.018.798v.798l-.027.621-.027.621c-.024.235-.038.467-.044.696l-.027.714-.009.325.009.306-.036.185-.035.185-.08.204-.097.223c-.071.161-.189.244-.354.25-.166.007-.307-.065-.425-.213-.107-.173-.216-.337-.328-.491-.113-.155-.221-.318-.328-.492l-.346-.557-.345-.538-.337-.464c-.106-.148-.207-.303-.301-.463-.177-.247-.34-.501-.487-.761-.148-.26-.287-.526-.417-.798l-.053-.083-.053-.083-.036.018" fill="#E67855"/><path d="M57.108 9.628l-.536.011c-.179.004-.357-.024-.532-.083l-.579-.217-.599-.233-.315-.193-.318-.212c-.095-.072-.142-.171-.142-.296-.001-.125.041-.232.123-.32l.067-.095.064-.114c.014-.065.045-.101.091-.109.047-.007.086.018.119.075l.156.088.234.066.199.071c.129.067.258.109.386.126s.26.046.398.086l.294.047.286-.009.147-.099c.032-.03.053-.09.063-.179.014-.152.003-.303-.031-.455l-.118-.441-.066-.083-.083-.081-.425-.326-.427-.345-.619-.557-.619-.557-.226-.255-.208-.257-.133-.232-.112-.217c-.131-.241-.224-.489-.279-.743-.055-.254-.089-.505-.101-.753-.001-.25.081-.463.247-.64.179-.166.366-.271.563-.316.197-.044.405-.046.627-.007l.275.04.272.022.381.033.369.072.261.071.238.037c.196.031.384.089.563.173.259.134.364.323.316.569-.017.128-.077.228-.18.301-.103.073-.22.107-.352.103l-.252-.006-.252-.007-.287-.001-.284.018-.293.019-.31.022c-.146-.014-.296.023-.45.11l-.112.15.035.182c.053.117.119.219.198.306l.262.258c.232.201.471.397.714.589.243.192.466.41.669.653l.247.279.232.301.238.281.253.26.408.46c.13.155.24.331.328.529.117.307.174.617.172.93.003.1-.019.194-.066.283l-.162.242c-.172.215-.372.36-.6.434l-.204.08-.224.064" fill="#F1CB82"/></g></svg>