<svg width="60" height="40" viewBox="0 0 60 40" xmlns="http://www.w3.org/2000/svg"><title>knab</title><desc>Created with Sketch.</desc><g fill="#00374E"><path d="M22.802 15.26c-1.96 0-3.202 1.002-3.947 2.227h-.056l.027-1.977h-3.767c-.331 0-.65.421-.65.822v12.104c0 .404.318.799.67.799h3.748v-6.792c0-1.978.526-3.537 2.429-3.537 1.824 0 2.099 1.364 2.099 3.174v6.346c0 .421.314.808.645.808h3.771v-8.101c0-3.315-1.021-5.874-4.968-5.874"/><path d="M50.963 25.818c-1.854 0-3.117-1.447-3.117-3.564s1.264-3.565 3.117-3.565c1.854 0 3.088 1.448 3.088 3.565s-1.234 3.564-3.088 3.564zm.956-10.558c-1.775 0-2.996.635-3.734 1.307.015-.49.033-1.21.033-1.921v-4.619h-3.765c-.331 0-.65.425-.65.813v17.587c0 .421.311.808.661.808h3.535l-.018-1.125c1.008.974 2.384 1.431 3.911 1.431 3.946 0 6.433-3.119 6.433-7.154 0-4.037-2.486-7.127-6.406-7.127z"/><path d="M13.636 15.51h-4.551c-.351 0-.7.199-.924.437l-3.745 4.102v-10.021h-3.766c-.331 0-.65.421-.65.808v17.604c0 .394.263.796.653.796h3.763v-4.147l1.215-1.198 3.018 4.83c.282.395.673.515 1.125.515h4.278l-5.384-8.574 4.968-5.151"/><path d="M37.737 25.448c-.278.475-1.078 1.255-2.265 1.255-1.215 0-2.07-.642-2.07-1.699 0-1.03.801-1.615 2.152-1.67l2.182-.14v2.254zm2.759-8.601c-1.077-1.003-2.539-1.587-5.079-1.587-2.174 0-4.037.591-5.258 1.128-.314.146-.438.574-.312.901l.906 2.258c.69-.446 2.429-1.226 4.168-1.226 1.767 0 2.787.753 2.787 2.199v.308l-3.422.14c-2.512.111-5.301 1.141-5.301 4.202 0 3.064 2.541 4.372 4.941 4.372 2.21 0 3.313-1.17 3.893-1.753l.056.935c.018.256.264.512.605.512h3.646v-7.739c0-2.312-.58-3.648-1.63-4.65z"/><path d="M58.766 28.11h-.156v.373h.156c.126 0 .237-.035.237-.185 0-.156-.111-.187-.237-.187zm.578 1.121h-.323l-.276-.529h-.134v.529h-.27v-1.345h.469c.294 0 .476.15.476.406 0 .254-.165.345-.272.376l.33.563zm-.561-1.645c-.547 0-.967.423-.967.971 0 .55.42.975.967.975.544 0 .961-.425.961-.975 0-.547-.418-.971-.961-.971zm0 2.116c-.637 0-1.14-.5-1.14-1.145s.504-1.144 1.14-1.144c.636 0 1.137.5 1.137 1.144 0 .645-.501 1.145-1.137 1.145z"/></g></svg>