<svg width="60" height="40" viewBox="0 0 60 40" xmlns="http://www.w3.org/2000/svg"><title>moneyou</title><desc>Created with Sketch.</desc><g fill-rule="nonzero" fill="none"><path d="M22.606 39.818c-6.97 0-12.606-5.636-12.606-12.606 0-4.545 2.424-8.727 6.364-10.97l2.182 3.818c-2.545 1.455-4.182 4.182-4.182 7.152 0 4.545 3.697 8.242 8.242 8.242 3.333 0 6.303-1.939 7.576-5.03l4.061 1.697c-2 4.667-6.545 7.697-11.636 7.697z" id="Shape" fill="#D40D47"/><path d="M34.242 32.121l-4.061-1.697c.424-1.03.667-2.061.667-3.212 0-4.545-3.697-8.242-8.242-8.242-1.394 0-2.848.364-4.061 1.091l-2.182-3.818c1.879-1.091 4.061-1.636 6.242-1.636 6.97 0 12.606 5.636 12.606 12.606 0 1.697-.303 3.333-.97 4.909z" id="Shape" fill="#FABB2E"/><path d="M32.909 33.818c-9.333 0-16.909-7.576-16.909-16.909 0-9.333 7.576-16.909 16.909-16.909 9.333 0 16.848 7.636 16.848 16.909s-7.576 16.909-16.848 16.909zm0-29.394c-6.909 0-12.485 5.576-12.485 12.485s5.576 12.485 12.485 12.485 12.485-5.576 12.485-12.485-5.636-12.485-12.485-12.485z" id="Shape" fill="#2AABCE"/><path d="M32.909 33.818c-9.333 0-16.909-7.576-16.909-16.909 0-1.212.97-2.182 2.182-2.182s2.182.97 2.182 2.182c0 6.909 5.576 12.485 12.485 12.485 1.212 0 2.182.97 2.182 2.182s-.909 2.242-2.121 2.242z" fill="#555390"/></g></svg>