<svg width="70" height="40" viewBox="0 0 70 40" xmlns="http://www.w3.org/2000/svg"><title>nationalevrijetijdscheque</title><desc>Created with Sketch.</desc><g fill="none"><g><g><path d="M25.716 30.53c-10.34-.224-9.733-12.847-9.618-15.537.101-2.362-.334-16.323 12.675-13.574 11.958 2.526 15.674 2.181 20.681 2.244 4.503.056 5.108 5.54 4.781 10.171-.736 10.441 3.701 16.559-3.447 22.138-5.893 4.599-13.412 3.081-16.678.705-3.28-2.387-3.726-6.044-8.395-6.146" fill="#FFFFFE"/><path d="M25.716 30.53c-10.34-.224-9.733-12.847-9.618-15.537.101-2.362-.334-16.323 12.675-13.574 11.958 2.526 15.674 2.181 20.681 2.244 4.503.056 5.108 5.54 4.781 10.171-.736 10.441 3.701 16.559-3.447 22.138-5.893 4.599-13.412 3.081-16.678.705-3.28-2.387-3.726-6.044-8.395-6.146z" stroke="#1A1919" stroke-width=".5" stroke-dasharray="0.9363989126486857,0.9363989126486857"/><path d="M26.65 29.538c-9.57-.208-9.008-11.89-8.901-14.38.094-2.186-.309-15.107 11.731-12.563 11.067 2.338 14.506 2.019 19.14 2.077 4.168.052 4.727 5.127 4.425 9.413-.681 9.663 3.425 15.325-3.19 20.489-5.454 4.257-12.413 2.852-15.435.652-3.036-2.209-3.448-5.594-7.769-5.688" fill="#000105"/></g><path fill="#FFFFFE" d="M23.576 9.855h-.017v4.231h-.819v-5.841h1.141l.918 3.496h.017v-3.496h.81v5.841h-.935l-1.116-4.231"/><path d="M27.149 12.233h.877l-.43-2.954h-.017l-.43 2.954zm2.076 1.852h-.918l-.157-1.06h-1.116l-.157 1.06h-.835l.926-5.841h1.331l.926 5.841z" fill="#FFFFFE"/><path fill="#FFFFFE" d="M29.076 8.244h2.812v.834h-.951v5.007h-.91v-5.007h-.951v-.834"/><path fill="#FFFFFE" d="M32.285 14.085h.91v-5.841h-.91z"/><path d="M34.691 12.742c0 .417.182.576.471.576s.471-.159.471-.576v-3.154c0-.417-.182-.576-.471-.576s-.471.159-.471.576v3.154zm-.91-3.096c0-.935.488-1.469 1.381-1.469s1.381.534 1.381 1.469v3.037c0 .935-.488 1.469-1.381 1.469s-1.381-.534-1.381-1.469v-3.037z" fill="#FFFFFE"/><path fill="#FFFFFE" d="M37.958 9.855h-.017v4.231h-.819v-5.841h1.141l.918 3.496h.016v-3.496h.81v5.841h-.934l-1.116-4.231"/><path d="M41.531 12.233h.877l-.43-2.954h-.016l-.43 2.954zm2.076 1.852h-.918l-.157-1.06h-1.116l-.157 1.06h-.835l.926-5.841h1.331l.926 5.841z" fill="#FFFFFE"/><path fill="#FFFFFE" d="M44.029 8.244h.91v5.007h1.497v.834h-2.407v-5.841"/><path fill="#FFFFFE" d="M47.742 10.706h1.249v.834h-1.249v1.711h1.571v.834h-2.481v-5.841h2.481v.834h-1.571v1.627"/><path d="M26.29 15.442l-.061.551-.061.505v.015l-.015.092-.015.092-.273 1.73-.243 1.699c-.091.561-.175 1.118-.25 1.669-.076.551-.154 1.102-.235 1.653l-.182 1.24-.182 1.255c-.03.235-.086.419-.167.551-.121 0-.187-.015-.197-.046l-.03.031v-.015l-.091-.658v-.015l-.395-2.373c-.061-.357-.116-.729-.167-1.117l-.137-1.118-.159-.98-.159-.98v-.015l-.182-1.24c-.061-.408-.127-.806-.197-1.194-.051-.306-.083-.546-.099-.72l-.038-.475-.008-.084-.008-.084h.137c.071 0 .126.041.167.122l.076.574c.03.199.071.411.121.635l.159.796c.055.286.099.607.129.965l.061.467.076.528.167 1.072c.061.388.116.822.167 1.301l.045.383.083.72c.025.245.063.474.114.689l.068.429.053.413.061.444c.02.153.051.296.091.429l.137-.873.152-1.033.152-1.026.137-.88c.051-.326.099-.661.144-1.003.045-.342.093-.676.144-1.003v-.015l.607-4.133h.121c.121 0 .182.01.182.031" fill="#FFFFFE"/><path d="M28.581 17.218c-.091-.745-.273-1.184-.546-1.317l-.319-.168-.212-.031-.288-.031c-.162 0-.278.036-.349.107v.199l.015.329v.314l-.008.436-.008.436v.796l.008.452.008.452.03 1.347v.995l.243.061.243.046h.197c.212 0 .387-.066.523-.199s.243-.311.319-.536c.076-.224.126-.48.152-.766.025-.286.038-.582.038-.888v-.666l-.008-.605-.015-.475-.023-.291zm0-1.225c.067.174.122.347.165.52.043.174.074.332.093.475l.045.276c.03.184.043.385.038.605-.005.219-.003.538.008.957v.429l-.015.612v.092c0 .163-.015.342-.045.536s-.075.383-.135.566c-.06.184-.133.342-.218.475-.085.133-.178.22-.279.26-.06.021-.09.072-.09.153 0 .071.025.209.075.413.09.388.173.725.249 1.011l.264.995v.015l.241.88c.071.26.147.569.228.926v.061l.008.038.008.038v.061c-.02.031-.071.046-.152.046-.061 0-.134-.123-.219-.367-.086-.245-.171-.523-.256-.834-.085-.311-.161-.617-.226-.919l-.143-.635-.422-1.73-.211.031c-.151 0-.382-.031-.693-.092l.045 2.648c.01.275.013.528.008.758-.005.23.002.462.023.697v.107c0 .204-.015.327-.045.367l-.205-.008-.114-.038v-2.205l-.008-.444-.008-.429v-.015c-.02-.235-.025-.503-.015-.804.01-.301 0-.574-.03-.819v-1.179l.008-.635.008-.635v-1.891l-.015-.635-.015-1.087c.01-.204.066-.306.167-.306l.273.015.349.015h.106l.319.031c.243.061.422.135.539.222.116.087.215.212.296.375z" fill="#FFFFFE"/><path d="M32.935 15.825l-.008.941-.023.788c-.01.266-.015.557-.015.873v.888l.008.873.023.873.03.88c.01.291.015.579.015.865v2.143c-.011.245-.032.467-.064.666s-.091.385-.176.559l-.413.398-.182.031c-.202 0-.385-.122-.546-.367-.162-.245-.283-.525-.364-.842.04-.082.101-.123.182-.123.091 0 .152.061.182.184v.015l.182.406c.071.138.157.248.258.329v.031h.121v-.015c.233-.143.377-.375.432-.697.055-.321.083-.804.083-1.447v-1.378l-.008-.628-.023-.658-.023-.704-.008-.704v-.628l.015-.658.008-.658.008-.643-.008-.781-.023-.781v-.153l-.25-.061-.235-.015-.121.008-.152.054h-.106c-.061 0-.091-.031-.091-.092 0-.153.038-.24.114-.26.076-.02.164-.025.265-.015h.091l.137.008.137.008h.387l.079-.008.095-.008c.111 0 .21.013.296.038.086.026.129.084.129.176 0 .092-.041.143-.121.153l-.091-.031-.091-.015-.137.046v.138" fill="#FFFFFE"/><path d="M35.818 15.335l.19.008.205.023.083.092.023.123c0 .051-.051.077-.152.077-.132 0-.256-.01-.372-.031l-.341-.031-.508.008-.523.038v.184c0 .735-.008 1.467-.023 2.197s-.023 1.462-.023 2.197l-.03.199.44.015.455.015h.152c.101 0 .162.061.182.184v.031l-.137.046h-.212l-.144-.015h-.144l-.281.008-.281.023v.138l-.015.429v1.026l.008.306.008.322v.184l-.015 1.286.008.191.008.589v.949l.301.038.315.008c.11 0 .221-.013.331-.038.11-.025.23-.038.361-.038.09 0 .163.021.218.061.055.041.083.118.083.23v.015l-.303-.015-.167.008-.228.015-.326.015-.463-.008h-.197l-.152-.061c-.041-.041-.061-.163-.061-.367.02-.316.025-.653.015-1.01-.01-.357-.015-.74-.015-1.148l-.008-.873-.008-.888v-1.286l.008-.742.015-.574.015-.498.008-.528v-.337l.008-.758c.005-.189.002-.36-.008-.513v-.015l-.023-.452-.008-.589v-.077l-.015-.107v-.123l.079-.099.207-.038.155.008.167.008h.228l.561-.015.349-.015" fill="#FFFFFE"/><path d="M39.338 15.565v.061l-.698-.031h-.326c-.106.01-.215.005-.326-.015v.122c-.02.306-.03.602-.03.888v.888c0 .827.002 1.659.008 2.495.005.837.033 1.669.083 2.495v3.368c0 .337-.058.566-.174.689h-.015l-.022-.008-.036-.008-.072-.138c.02-.245.028-.5.023-.765l-.008-1.01-.015-.934c0-.561-.013-1.15-.038-1.768-.025-.617-.033-1.212-.023-1.783v-1.607l.008-.681.008-.651v-1.34l-.03-.237h-.425l-.531.031h-.137l-.106-.038-.045-.176c.01-.061.106-.092.288-.092l.25.008.296.008h.835c.263 0 .526-.015.789-.046l.281.015c.106.01.164.041.174.092l.015.168" fill="#FFFFFE"/><path d="M42.718 15.825l-.008.941-.023.788c-.01.266-.015.557-.015.873v.888l.008.873.023.873.03.88c.01.291.015.579.015.865v2.143c-.011.245-.032.467-.064.666s-.09.385-.175.559l-.412.398-.182.031c-.202 0-.384-.122-.545-.367-.162-.245-.283-.525-.363-.842.04-.082.101-.123.182-.123.091 0 .151.061.182.184v.015c.05.133.111.268.182.406s.156.248.257.329v.031h.121v-.015c.232-.143.376-.375.431-.697.055-.321.083-.804.083-1.447v-1.378l-.007-.628-.023-.658-.023-.704-.008-.704v-.628l.015-.658.008-.658.007-.643-.007-.781-.023-.781v-.153l-.25-.061-.235-.015-.121.008-.151.054h-.106c-.061 0-.091-.031-.091-.092 0-.153.038-.24.114-.26.076-.02.164-.025.265-.015h.091l.136.008.136.008h.387l.079-.008.094-.008c.111 0 .209.013.295.038.086.026.129.084.129.176 0 .092-.04.143-.121.153l-.091-.031-.091-.015-.136.046v.138" fill="#FFFFFE"/><path d="M45.049 15.702l-.046-.008-.046-.008c-.214 0-.469.041-.765.123v.153c.02.419.033.809.038 1.171l.008 1.202v.811l-.008.605-.008.574v.964l-.015.582-.015.674.008.138.008.123.03 3.307.168.031.382-.015c.122 0 .301-.02.535-.061v-.015c.224-.082.413-.327.566-.735.153-.408.229-.893.229-1.454v-2.358c0-.378.008-.755.023-1.133.015-.377.023-.755.023-1.133 0-.939-.028-1.633-.084-2.082-.056-.449-.135-.75-.237-.903-.235-.316-.459-.5-.673-.551h-.122zm1.404 8.619c0 .327-.043.625-.13.895-.086.271-.211.518-.374.743v.015c-.102.174-.234.294-.397.36s-.361.099-.595.099l-.153-.015v-.015l-.153.031h-.305l-.305.008-.153.023.008-.038.008-.115v-.291l-.008-.444-.015-.612-.015-.834-.008-1.11c0-.48.005-.997.015-1.554.01-.556.025-1.171.045-1.845v-.551l-.008-.375-.008-.344v-.628c0-.551.002-1.005.008-1.362.005-.357-.008-.668-.038-.934l.139-.031h.778l.462-.015.069.023.115.023c.677.225 1.02.985 1.031 2.281.01.388.015.735.015 1.041v1.684c-.02.357-.03.704-.03 1.041v2.847z" fill="#FFFFFE"/><path d="M49.26 22.617c.077.297.141.593.194.889.053.296.079.598.079.904v.315l-.015.176c-.02.153-.055.317-.105.491-.05.174-.113.342-.189.506-.075.164-.161.307-.257.429-.095.123-.188.204-.279.245-.101.051-.216.077-.347.077-.272 0-.525-.11-.762-.329-.236-.219-.4-.574-.49-1.064-.051-.286-.083-.571-.099-.857-.015-.286-.023-.577-.023-.873v-.23l.008-.168.023-.237.045-.207.076-.092.099.023.083.069v.367l-.008.123-.008.138v.429c0 .174.008.342.023.505l.053.49.076.436.106.421c.04.133.088.25.144.352.055.102.119.174.19.214l.159.123.159.046c.202 0 .402-.115.599-.345.197-.23.321-.575.372-1.035l.03-.245v-.322c0-.46-.074-.92-.22-1.38-.147-.46-.291-.879-.432-1.257l-.099-.238-.068-.177v-.015c-.101-.235-.195-.439-.281-.613l-.25-.475c-.142-.245-.276-.496-.402-.751-.127-.256-.23-.526-.311-.813-.081-.347-.121-.695-.121-1.043 0-.347.048-.715.144-1.104.096-.388.21-.7.341-.935.071-.112.139-.194.205-.245.066-.051.175-.087.326-.107h.061l.03-.008.045-.008c.141 0 .27.022.387.066.116.044.22.119.311.227.334.52.501 1.213.501 2.081v.077c0 .082-.056.123-.167.123l-.061-.015c-.03-.265-.066-.515-.106-.75-.041-.235-.091-.469-.152-.704v-.015c-.192-.51-.435-.765-.728-.765l-.144.031-.159.153c-.081.082-.149.192-.205.33-.056.138-.104.296-.144.475-.041.179-.068.368-.083.567l-.038.575v.061c0 .44.061.81.182 1.112.121.301.258.585.41.851l.228.445.212.383.432.881c.147.302.266.626.357.974l.061.245" fill="#FFFFFE"/></g><path d="M30.464 18.048v.729c0 .253-.006.516-.018.79l-.027.964-.009.964c0 .395.006.774.018 1.139l.036 1.093.027.858.009.888v.379l-.027.288-.08.228c-.036.061-.083.091-.143.091l-.116-.076c-.042-.051-.063-.162-.063-.334v-7.212l-.009-.349-.009-.38v-.167l-.009-.349-.018-.661-.027-1.101.027-.334c.018-.111.056-.167.116-.167l.152.023.116.068.054 2.627" fill="#FFFFFE"/><path d="M40.464 18.048v.729c0 .253-.006.516-.018.79l-.027.964-.009.964c0 .395.006.774.018 1.139l.036 1.093.027.858.009.888v.379l-.027.288-.08.228c-.036.061-.083.091-.143.091l-.116-.076c-.042-.051-.063-.162-.063-.334v-7.212l-.009-.349-.009-.38v-.167l-.009-.349-.018-.661-.027-1.101.027-.334c.018-.111.056-.167.116-.167l.152.023.116.068.054 2.627" fill="#FFFFFE"/><g fill="#fff"><path d="M43.39 31.92c-.176.12-.376.2-.576.2-.744 0-.896-1.008-.232-1.984.632-.92 1.28-1.288 1.68-1.288.352 0 .512.28.488.576.136-.24.272-.44.344-.512.088-.088.136-.064.2.024.096.2.088.552-.176 1.024-.488.872-1.44 2.52-2.072 4.032-.04.088-.088.096-.144.032-.112-.128-.208-.28-.072-.736.096-.336.304-.848.56-1.368zm.664-1.264c.504-.88.576-1.384.344-1.4-.256-.016-.84.496-1.28 1.2-.432.688-.528 1.416-.216 1.416.328 0 .744-.504 1.152-1.216z"/><path d="M46.702 31.352c-.28.376-.704.784-1.152.752-.568-.04-.584-.632-.408-1.16.176-.528.584-1.312 1.104-2.04.064-.088.144-.08.208-.008.176.264.136.624-.152 1.08-.296.472-.456.792-.624 1.176-.168.392-.144.68.04.696.312.024.752-.536 1.184-1.232.504-.816.736-1.368.992-1.712.08-.112.136-.128.2-.048.12.144.184.496-.008.896-.176.36-.576.96-.76 1.368-.208.456-.176.792.112.776.336-.016.744-.544 1.056-1.104.04-.072.112-.08.144-.008.032.064.04.28-.072.504-.232.448-.728.856-1.2.856-.52 0-.728-.328-.664-.792z"/><path d="M49.106 30.632c-.256.736-.064 1.24.36 1.264.664.032 1.248-.608 1.592-1.136.04-.064.104-.064.136.008.032.064.008.288-.136.496-.336.488-.952.856-1.568.864-1.016.016-1.368-.984-.848-2.016.52-1.032 1.336-1.448 1.736-1.216.2.12.344.24.472.416.144.192.08.68-.256 1.088-.392.48-.928.688-1.488.232zm.072-.176c.392.248.72-.096.952-.4.256-.336.432-.752.32-.84-.168-.136-.832.344-1.208 1.104l-.064.136zM40.306 30.632c-.256.736-.064 1.24.36 1.264.664.032 1.248-.608 1.592-1.136.04-.064.104-.064.136.008.032.064.008.288-.136.496-.336.488-.952.856-1.568.864-1.016.016-1.368-.984-.848-2.016.52-1.032 1.336-1.448 1.736-1.216.2.12.344.24.472.416.144.192.08.68-.256 1.088-.392.48-.928.688-1.488.232zm.072-.176c.392.248.72-.096.952-.4.256-.336.432-.752.32-.84-.168-.136-.832.344-1.208 1.104l-.064.136z"/><path d="M39.784 31.272c-.224.456-.712.856-1.184.856-.672 0-.84-.488-.6-1.184.264-.776.96-1.608.832-1.68-.112-.064-.984.48-1.448 1.24-.288.472-.584 1.032-.776 1.52-.032.072-.088.088-.136.032-.128-.144-.2-.368-.032-.848.28-.8 1.944-3.616 2.592-4.424.072-.096.152-.088.192.008.104.232.08.632-.224 1.136-.192.32-.616.968-.96 1.504.328-.32.744-.584.96-.56.272.032.52.432.312.84-.176.352-.56.936-.744 1.352-.2.464-.16.84.136.824.328-.016.768-.592 1.016-1.104.032-.072.112-.072.144-.008.04.088.04.256-.08.496z"/><path d="M36.082 28.912c.216.128.344.256.44.44.168.336-.152.76-.312 1.192-.032.096-.064.12-.168.064-.192-.096-.304-.336-.192-.696.088-.288.328-.632.216-.72-.136-.112-.736.4-1.096 1.128-.44.904-.272 1.568.2 1.576.672.008 1.248-.632 1.576-1.136.04-.064.112-.072.144.008.024.064-.008.264-.144.48-.304.472-.936.864-1.544.872-1.016.016-1.36-.976-.84-2.008.512-1.008 1.32-1.44 1.72-1.2z"/></g></g></svg>