<svg width="70" height="40" viewBox="0 0 70 40" xmlns="http://www.w3.org/2000/svg"><title>oilandvinegar</title><desc>Created with Sketch.</desc><g fill-rule="nonzero" fill="none"><path d="M55.721 12.204c3.379 9.5-3.245 20.609-14.796 24.81-11.555 4.202-23.661-.092-27.042-9.593-3.379-9.5 3.245-20.607 14.796-24.809 11.557-4.201 23.663.093 27.043 9.592" id="Shape" fill="#9C9400"/><path d="M48.307 21.928c-.23-.198-1.05-1.016-1.05-1.016-.42.44-1.375 1.023-2.915 1.023-1.796 0-2.974-1.114-2.974-2.411 0-1.01.732-1.787 2.062-2.552-.673-.648-1.443-1.412-1.443-2.372 0-1.438 1.386-2.227 2.635-2.227 1.079 0 2.257.66 2.257 1.852 0 .998-.769 1.568-2.272 2.437l2.973 2.993c.184-.377.294-1.023.294-1.542 0-.804-.339-.882-.998-.882v-.388c.33.013.508.038 1.055.038.869 0 1.2-.025 1.514-.038v.388c-.851 0-.899.117-1.024 1.05-.041.311-.237 1.179-.518 1.723.891.889 1.39 1.332 1.995 1.622.835.4 1.549.129 1.675-.559.03-.415.05-.833.05-1.256 0-9.391-7.528-17.003-16.816-17.003-9.294 0-16.823 7.613-16.823 17.003 0 9.391 7.529 17.004 16.823 17.004 8.418 0 15.39-6.253 16.623-14.415-.528.762-1.763.695-3.12-.473M44.382 16.403c.84-.571 1.487-.998 1.487-1.853 0-.687-.549-1.686-1.683-1.686-.589 0-1.416.453-1.416 1.349 0 .687 1.457 2.048 1.611 2.19M42.489 19.161c0 .985.955 2.229 2.578 2.229.803 0 1.613-.426 1.911-.817l-3.295-3.329c-.939.57-1.193 1.218-1.193 1.917" id="Shape" fill="#1D1D1B"/><path d="M26.836 23.954v3.01c0 .345.108.492.502.498v.186l-.885-.018-.88.018v-.186c.392-.006.502-.152.502-.498v-3.01c0-.345-.11-.49-.553-.497-.485.006-.568.061-.83.712l-1.426 3.52h-.159l-1.735-3.792c-.169-.374-.308-.43-.59-.441v-.185l.967.019.972-.019v.185h-.242c-.216 0-.314.085-.314.234 0 .062.02.11.229.589l1.083 2.453.915-2.624c.055-.166.103-.307.103-.417 0-.19-.164-.234-.425-.234v-.185l.715.019.738-.019.931.019.885-.019v.185c-.395.006-.502.152-.502.496zm.765 3.694c.18-.013.508-.018.651-.018.146 0 .473.005.653.018v-.186c-.38-.036-.494-.098-.501-.551l-.048-2.888 3.271 3.667h.242v-3.736c0-.345.11-.49.502-.497v-.185l-.67.019-.654-.019v.185c.436 0 .522.16.522.528l.017 2.526-2.847-3.239-.487.019-.651-.019v.185c.392.006.5.152.5.497v3.01c0 .345-.108.492-.5.498v.186zm5.03 0c.119-.006.485-.018.952-.018.951 0 1.719.012 2.305.018 0-.315.057-.83.093-1.124h-.209c-.143.775-.573.888-1.189.888-.571 0-.687-.151-.687-.435v-1.462h.463c.526 0 .677.122.677.608h.208l-.014-.769.014-.662h-.208c-.043.386-.121.59-.672.59h-.467v-1.777h.528c.726 0 .987.211 1.084.8h.193l-.022-1.032c-.564.006-1.308.019-2.233.019l-.814-.019v.185c.394.006.504.152.504.497v3.01c0 .345-.11.492-.504.498v.186zm7.646-4.196c-.303-.099-.865-.259-1.555-.259-1.815 0-2.489 1.224-2.489 2.219 0 .669.298 2.316 2.321 2.316.812 0 1.496-.258 1.772-.399v-.959c0-.271.091-.462.437-.462v-.184c-.194.007-.426.025-.794.025-.376 0-.608-.018-.8-.025v.184c.355 0 .443.093.443.399v.892c-.211.166-.478.271-.76.271-.935 0-1.753-.874-1.753-2.261 0-.933.467-1.756 1.572-1.756.912 0 1.413.46 1.455 1.105h.151v-1.105zm8.845 4.117v.147l-.279.012c-.804 0-1.138-.282-1.476-1.013l-.236-.511c-.254-.546-.337-.589-.742-.596v1.357c0 .345.108.492.501.498v.186l-.882-.018-.849.017v.001l-.022-.001-.014.001v-.001l-.889-.017-.926.018v-.186c.341 0 .435-.06.435-.228 0-.065-.043-.195-.169-.502l-.243-.58h-1.386l-.174.499c-.149.431-.163.518-.163.579 0 .16.072.225.447.232v.186l-.725-.018-.726.018v-.186c.418-.025.534-.085.866-.909l1.33-3.262h.103l1.64 3.718c.151.347.295.447.594.452.382-.008.489-.156.489-.496v-3.01c0-.345-.109-.49-.503-.497v-.185l.75.019 1.184-.019c1.055 0 1.388.535 1.388 1.136 0 .418-.255.884-.841 1.07l.757 1.412c.27.511.416.627.76.677zm-5.885-1.647l-.653-1.58-.555 1.58h1.208zm4.421-1.346c0-.449-.224-1.118-1.009-1.118l-.259.023v1.9c.115.024.278.042.399.042.542 0 .87-.253.87-.848zM29.784 13.149c-.42-.545-.923-.927-1.083-1.325-.147-.358-.105-.603-.006-.743l.017-.133-.103-.059s-7.427-.778-7.427 5.681c0 4.039 3.249 5.223 4.898 5.223 1.275 0 4.813-.857 4.813-4.933 0-1.99-.491-2.917-1.108-3.712m-3.711 8.178c-2.022 0-3.523-2.197-3.523-4.774 0-5.118 5.273-5.103 5.273-5.103s-.211.552.316 1.443c.528.889 1.337 1.533 1.337 3.674 0 2.462-1.194 4.759-3.403 4.759M30.835 12.657v.383h.226c.577 0 .829.215.829 1.04v6.196c0 .825-.252 1.041-.829 1.041h-.226v.382c.44-.013 1.044-.038 1.607-.038.553 0 1.084.025 1.61.038v-.382h-.227c-.575 0-.83-.216-.83-1.041v-6.196c0-.825.254-1.04.83-1.04h.227v-.383c-.527.015-1.057.038-1.61.038-.563 0-1.167-.023-1.607-.038" id="Shape" fill="#fff"/><path d="M40.545 19.452c-.205 1.446-.692 1.815-2.238 1.815-1.145 0-1.574-.329-1.574-1.281v-5.905c0-.825.251-1.04.828-1.04h.29v-.383c-.59.016-1.118.039-1.672.039-.563 0-1.165-.023-1.604-.039v.383h.225c.578 0 .829.215.829 1.04v6.196c0 .825-.25 1.042-.829 1.042h-.225v.381c.439-.013 1.669-.038 3.008-.038 1.01 0 2.242.025 3.25.038l.07-2.247h-.357z" id="Shape" fill="#fff"/><path d="M49.756 15.21c-1.991-6.733-8.298-11.506-15.559-11.188-1.688.074-3.3.421-4.799.99.836-.152 1.691-.254 2.564-.292 7.689-.336 14.507 3.986 17.793 10.49" fill="#4D4D4D"/></g></svg>