<svg width="70" height="40" viewBox="0 0 70 40" xmlns="http://www.w3.org/2000/svg"><title>payafter-en</title><desc>Created with Sketch.</desc><g fill="none"><path d="M12.894 31.188c.667.032 1.402.049 2.207.049.803 0 1.538-.017 2.205-.049v-14.896c-.667-.034-1.402-.051-2.205-.051-.806 0-1.541.018-2.207.051v14.896zM6.181 18.725v10.029c0 1.034.822 1.867 1.835 1.867 0 0 1.314.336 3.898.515v-14.791c-2.584.177-3.898.512-3.898.512-1.013 0-1.835.839-1.835 1.868zm16.006-1.868s-1.314-.335-3.9-.512v14.791c2.587-.178 3.9-.515 3.9-.515 1.009 0 1.828-.833 1.828-1.867v-10.029c0-1.029-.819-1.868-1.828-1.868zM12.028 7.978c-1.276-.489-4.687 3.158-4.223 4.581.465 1.424 3.767 3.047 3.767 3.047l2.854-.24s-1.124-6.901-2.399-7.388zm-2.151 5.062c-.229-.698 1.444-2.486 2.069-2.245.625.237 1.175 3.618 1.175 3.618l-1.399.117s-1.615-.793-1.845-1.489zM15.777 15.366l2.853.24s3.302-1.624 3.764-3.047c.464-1.422-2.946-5.07-4.22-4.581-1.276.487-2.396 7.388-2.396 7.388zm2.702-.837l-1.4-.117s.551-3.381 1.177-3.618c.622-.241 2.293 1.547 2.07 2.245-.228.696-1.847 1.489-1.847 1.489z" id="Shape" fill="#fff"/><path d="M12.894 30.337c.667.028 1.402.048 2.207.048.803 0 1.538-.02 2.205-.048v-14.898c-.667-.029-1.402-.048-2.205-.048-.806 0-1.541.02-2.207.048v14.898zM6.181 17.873v10.029c0 1.03.822 1.866 1.835 1.866 0 0 1.314.338 3.898.515v-14.792c-2.584.175-3.898.513-3.898.513-1.013 0-1.835.835-1.835 1.868zm16.006-1.868s-1.314-.338-3.9-.513v14.792c2.587-.178 3.9-.515 3.9-.515 1.009 0 1.828-.835 1.828-1.866v-10.029c0-1.033-.819-1.868-1.828-1.868zM12.028 7.123c-1.276-.489-4.687 3.16-4.223 4.584.465 1.424 3.767 3.045 3.767 3.045l2.854-.241s-1.124-6.898-2.399-7.388zm-2.151 5.064c-.229-.699 1.444-2.485 2.069-2.246.625.24 1.175 3.62 1.175 3.62l-1.399.119s-1.615-.795-1.845-1.492zM15.777 14.511l2.853.241s3.302-1.62 3.764-3.045c.464-1.424-2.946-5.073-4.22-4.584-1.276.489-2.396 7.388-2.396 7.388zm2.702-.832l-1.4-.119s.551-3.379 1.177-3.62c.622-.238 2.293 1.547 2.07 2.246-.228.697-1.847 1.492-1.847 1.492z" id="Shape" fill="#191315"/><path d="M10.799 21.567c0-2.192-1.745-3.965-3.891-3.965-2.15 0-3.893 1.773-3.893 3.965 0 2.188 1.742 3.966 3.893 3.966 2.147 0 3.891-1.778 3.891-3.966z" id="Shape" fill="#29ABE2"/><path id="Shape" fill="#fff" d="M9.831 20.164l-1.161-1.183-2.505 3.865-1.782-2.236-1.158 1.183 2.74 2.795.029-.028.031.028z"/><path d="M27.968 9.263l2.033-.04c.501 0 .99.04 1.428.21.938.38 1.414 1.285 1.414 2.557 0 .931-.257 1.587-.604 2.033-.746.97-1.814.983-2.933.97.013 2.269.025 2.768.065 3.462l-.065.078c-.593-.013-.709 0-1.286.027l-.078-.079c.025-.59.039-1.35.039-2.688 0-1.114-.013-3.41-.026-4.381-.013-1.088-.026-1.442-.052-2.072l.065-.078zm2.471 4.615c.99-.301 1.069-1.455 1.069-1.94 0-.512-.105-1.063-.49-1.404-.349-.302-.823-.302-1.041-.302-.232 0-.528.014-.695.027 0 1.626 0 2.098.025 3.711.669 0 .926-.027 1.132-.092zM36.68 18.035c-.284.237-.746.603-1.532.603-1.157 0-1.838-.93-1.838-2.058 0-1.98 1.826-2.373 2.792-2.57l.566-.105c0-.721 0-1.363-1.133-1.363-.837 0-1.299.301-1.582.498l-.09-.052c.039-.394.039-.486.051-.918l.064-.092c.618-.288 1.35-.394 1.89-.394.451 0 1.364.04 1.801.84.246.459.232.931.219 1.967v1.364c0 1.259 0 1.809.077 2.701l-.077.078c-.54 0-.631 0-1.12.027l-.077-.079-.013-.446zm-.013-3.291c-.85.184-1.057.223-1.352.381-.72.354-.798.943-.798 1.337 0 .84.541 1.194 1.055 1.194.554 0 .913-.34 1.094-.511v-2.4zM40.592 18.134l-.169-.489c-.322-1.049-1.455-4.646-1.905-5.813l.064-.092c.593 0 .746-.013 1.313-.052l.103.078c.114.525.154.656.399 1.508.128.406.244.813.36 1.22l.643 2.269.708-2.491c.245-.866.399-1.443.643-2.466l.091-.078c.475 0 .554 0 1.079-.014l.065.08c-.257.748-.255.976-.846 2.865l-.66 2.324c-.682 1.836-.967 1.881-3.163 3.923l-.09.079c-.326-.252-.555-.546-.725-.728l-.064-.079c.528-.516 1.122-1.057 1.73-1.587l.426-.456z" id="Shape" fill="#191315"/><path d="M48.537 18.035c-.283.237-.746.603-1.53.603-1.158 0-1.84-.93-1.84-2.058 0-1.98 1.827-2.373 2.792-2.57l.566-.105c0-.721 0-1.363-1.132-1.363-.837 0-1.299.301-1.582.498l-.09-.052c.039-.394.039-.486.051-.918l.065-.092c.617-.288 1.35-.394 1.889-.394.452 0 1.364.04 1.801.84.244.459.231.931.219 1.967v1.364c0 1.259 0 1.809.078 2.701l-.078.078c-.54 0-.629 0-1.119.027l-.077-.079-.013-.446zm-.013-3.291c-.85.184-1.055.223-1.35.381-.721.354-.799.943-.799 1.337 0 .84.54 1.194 1.055 1.194.553 0 .914-.34 1.093-.511v-2.4zM53.502 12.712c-.347-.013-.437-.013-.989-.013l.011 2.622c.026 1.246.026 1.521.091 3.147l-.077.065c-.579 0-.683 0-1.209.027l-.065-.066c.012-.59.012-.865.012-1.731v-4.078c-.359 0-.399 0-.746.027l-.064-.079c.026-.354.026-.433.039-.839l.076-.08c.336.027.374.027.683.027l-.013-.473c-.013-.589-.013-.97.064-1.337.206-.931.875-1.324 1.749-1.324.257 0 .462.039.617.066l.065.091c-.039.354-.053.446-.065.839l-.077.079c-.09-.039-.167-.079-.321-.079-.309 0-.49.158-.567.263-.204.262-.204.708-.204 1.298v.59l1.054-.026.077.092c-.038.393-.038.472-.051.813l-.091.079zM56.68 12.699c-.464-.013-.836-.013-1.029-.013v3.6319999999999997c0 .761 0 1.324.656 1.324.244 0 .386-.079.476-.144l.077.052c-.039.381-.039.459-.052.853l-.078.105c-.206.079-.489.13-.849.13-.81 0-1.313-.367-1.455-1.153-.039-.288-.039-.591-.039-1.154l.013-.735v-2.924l-.708.027-.063-.079.051-.825.065-.08.655.027c0-.669 0-.891-.025-1.626l.064-.079c.515-.118.605-.144 1.184-.314l.077.065c-.039.616-.039.957-.039 1.967l.618-.026.45-.014.064.08c-.039.38-.039.525-.051.825l-.064.079zM58.532 15.229c0 .499.038.97.244 1.417.476 1.049 1.467 1.049 1.685 1.049.734 0 1.158-.315 1.389-.485l.091.039c-.039.433-.039.537-.065.957l-.064.105c-.091.052-.245.144-.528.222-.398.118-.835.144-1.118.144-.566 0-1.479-.079-2.174-.957-.567-.721-.72-1.666-.72-2.596 0-2.439 1.17-3.135 1.569-3.331.308-.145.655-.21 1.004-.21.347 0 .681.066.976.21 1.274.616 1.352 2.15 1.326 3.357l-.09.078h-3.525v.001zm2.367-.879c0-.249 0-.511-.065-.813-.192-.944-.822-1.049-1.041-1.049-.143 0-.528.027-.837.499-.323.459-.374 1.036-.399 1.363h2.341zM64.436 18.534c-.489-.013-.631-.013-1.21.027l-.076-.079c.025-.708.039-1.324.039-2.413 0-2.451-.026-3.16-.117-4.156l.064-.079c.579-.066.695-.079 1.249-.223l.091.079-.025 1.193c.153-.393.487-1.299 1.44-1.299.207 0 .322.04.463.08l.052.091c-.078.577-.091.708-.116 1.272l-.091.053c-.128-.091-.296-.21-.604-.21-.283 0-.527.13-.695.288-.437.447-.449 1.076-.449 2.177 0 .866.025 2.256.063 3.121l-.078.078z" id="Shape" fill="#29ABE2"/><path d="M27.917 21.649l2.379-.026c1.184 0 3.886 0 3.886 4.38 0 1.074-.14 2.164-.656 3.108-.964 1.784-2.559 1.784-3.884 1.796-.798 0-.888 0-1.634.026l-.078-.079c.013-.655.026-1.101.026-2.098 0-.852-.026-3.985-.039-5.021-.013-.813-.039-1.429-.065-2.006l.065-.079zm1.364 1.036v.879c0 1.181 0 3.567.012 4.669.013.235.039 1.363.039 1.626h.798c.515-.014 1.067-.04 1.582-.459.952-.76 1.068-2.426 1.068-3.448 0-1.626-.373-2.584-1.132-3.017-.489-.276-1.029-.262-1.505-.262l-.862.013zM36.342 27.602c0 .499.038.97.244 1.416.476 1.049 1.468 1.049 1.687 1.049.732 0 1.157-.315 1.388-.486l.091.039c-.04.433-.04.538-.065.957l-.065.106c-.089.053-.243.144-.526.223-.399.119-.837.144-1.12.144-.564 0-1.479-.079-2.173-.958-.566-.721-.72-1.666-.72-2.596 0-2.438 1.17-3.134 1.568-3.33.311-.144.657-.21 1.004-.21.348 0 .682.066.978.21 1.274.616 1.352 2.15 1.326 3.357l-.09.079h-3.526zm2.367-.879c0-.249 0-.511-.064-.812-.193-.945-.823-1.049-1.043-1.049-.142 0-.528.026-.837.498-.321.459-.372 1.036-.398 1.363h2.342zM42.272 30.906c-.514-.012-.694-.012-1.247.026l-.065-.079c.012-.865.026-1.822.026-3.147 0-1.561 0-3.12-.04-4.682-.025-1.008-.051-1.349-.091-1.848l.065-.078c.579-.079.746-.118 1.26-.223l.078.079c-.013.694-.025 1.351-.025 2.596 0 .76.012 5.285.116 7.277l-.078.079zM44.961 30.906c-.54-.012-.721-.012-1.274.026l-.077-.079c.039-.786.051-1.612.051-2.898 0-2.583-.051-3.225-.091-3.671l.078-.079c.565-.066.707-.091 1.273-.21l.064.079c-.025.8-.038 1.535-.038 2.478 0 2.335.038 3.344.076 4.275l-.064.079zm-.077-8.654c-.464.039-.657.066-1.171.157l-.091-.078.013-.577-.013-.551.091-.078c.54-.053.681-.066 1.182-.144l.091.078c-.025.525-.025.708-.013 1.115l-.09.078zM48.317 29.674l.578-2.386c.451-1.783.566-2.307.708-3.108l.09-.078h.566l.219-.014h.257l.064.079c-.309 1.037-.593 2.032-.81 2.819l-.514 1.876c-.169.63-.336 1.259-.515 1.966l-.091.079c-.553 0-.695 0-1.312.026l-.102-.079-1.094-3.906c-.322-1.194-.425-1.549-.785-2.742l.064-.078c.593-.014.732-.026 1.261-.066l.09.079c.128.76.244 1.311.823 3.423l.503 2.11zM52.408 27.602c0 .499.039.97.244 1.416.476 1.049 1.468 1.049 1.686 1.049.734 0 1.158-.315 1.388-.486l.091.039c-.039.433-.039.538-.064.957l-.065.106c-.088.053-.243.144-.526.223-.399.119-.837.144-1.121.144-.565 0-1.478-.079-2.174-.958-.565-.721-.72-1.666-.72-2.596 0-2.438 1.17-3.134 1.569-3.33.31-.144.658-.21 1.005-.21.347 0 .681.066.978.21 1.273.616 1.35 2.15 1.325 3.357l-.091.079h-3.525zm2.367-.879c0-.249 0-.511-.064-.812-.193-.945-.822-1.049-1.043-1.049-.141 0-.526.026-.835.498-.321.459-.373 1.036-.399 1.363h2.341zM58.311 30.906c-.489-.012-.629-.012-1.209.026l-.077-.079c.025-.707.039-1.323.039-2.412 0-2.452-.026-3.161-.116-4.156l.064-.079c.579-.066.695-.078 1.247-.223l.091.078-.026 1.193c.155-.392.49-1.298 1.441-1.298.206 0 .322.039.462.079l.052.093c-.077.577-.09.708-.116 1.271l-.091.053c-.128-.091-.295-.21-.605-.21-.283 0-.526.131-.694.289-.437.446-.451 1.074-.451 2.177 0 .865.026 2.256.065 3.12l-.078.079zM62.67 30.933l-.156-.498c-.32-1.049-1.607-5.062-2.058-6.228l.065-.091c.591 0 .746-.013 1.311-.053l.102.079c.116.525.155.655.4 1.508.128.407.245.813.36 1.22l.643 2.268.707-2.492c.245-.865.4-1.441.644-2.464l.091-.078c.475 0 .552 0 1.08-.014l.063.079c-.257.747-.32.931-.913 2.819l-.759 2.413c-.771 2.57-1.003 3.397-1.183 4.156l-.09.079c-.515-.013-.643-.013-1.17 0l-.065-.079c.257-.629.412-1.047.799-2.216l.128-.407z" fill="#89898A"/></g></svg>