<svg width="70" height="40" viewBox="0 0 70 40" xmlns="http://www.w3.org/2000/svg"><title>siebel</title><desc>Created with Sketch.</desc><path d="M44.65 35.317h-19.297c-4.07-4.416-11.19-9.209-8.785-16.364.867-2.572 3.034-4.205 5.875-4.755-4.614 5.752-2.601 11.929 1.753 18.07h4.87c-6.413-7.616-6.683-12.849-.701-17.821l.149.035c1.106.28 2.089.613 2.963.987-3.39 3.66-4.577 9.176-.995 16.799h3.923c-2.227-5.04-3.414-10.761.596-14.56 4.008 3.799 2.819 9.52.591 14.56h3.928c3.582-7.623 2.392-13.139-.999-16.799.876-.375 1.861-.707 2.963-.987l.149-.035c5.986 4.972 5.712 10.205-.701 17.821h4.873c4.35-6.141 6.363-12.318 1.75-18.07 2.84.55 5.012 2.183 5.877 4.755 2.404 7.155-4.718 11.947-8.784 16.364m-6.792-23.949c-1 .374-1.956.821-2.856 1.342-.901-.521-1.861-.968-2.861-1.342.932-.842 1.863-1.798 2.861-3.05.995 1.252 1.926 2.208 2.856 3.05m20.133 9.532c-.153-4.881-4.268-12.29-15.035-10.816h-.004c-2.646-1.809-4.322-3.453-5.643-5.02.349-.553.709-1.138 1.086-1.774l-2.582-2.292c-.282.355-.55.707-.811 1.063-.266-.356-.534-.708-.812-1.063l-2.582 2.292c.373.636.735 1.221 1.086 1.774-1.327 1.566-2.999 3.211-5.644 5.02h-.006c-10.77-1.475-14.881 5.935-15.035 10.816-.31 9.941 8.226 13.206 10.963 18.099h24.057c2.737-4.894 11.27-8.159 10.963-18.099" fill="#1A1919"/></svg>