<svg width="60" height="40" viewBox="0 0 60 40" xmlns="http://www.w3.org/2000/svg"><title>sns</title><desc>Created with Sketch.</desc><defs><linearGradient x1="42.646%" y1="34.802%" x2="82.494%" y2="57.55%" id="a"><stop stop-color="#EF4130" offset="0%"/><stop stop-color="#C53526" offset="100%"/></linearGradient><linearGradient x1="-1.778%" y1="31.472%" x2="98.22%" y2="88.558%" id="b"><stop stop-color="#D3D2EA" offset="0%"/><stop stop-color="#8785C0" offset="100%"/></linearGradient><linearGradient x1="92.392%" y1="62.92%" x2="-21.852%" y2="44.904%" id="c"><stop stop-color="#7474B6" offset="0%"/><stop stop-color="#BBBADD" offset="100%"/></linearGradient><linearGradient x1="103.968%" y1="96.62%" x2="1.287%" y2="1.767%" id="d"><stop stop-color="#6867AF" offset="0%"/><stop stop-color="#C0C2E2" offset="100%"/></linearGradient><linearGradient x1="20.514%" y1="25.713%" x2="66.078%" y2="122.206%" id="e"><stop stop-color="#EF4130" offset="0%"/><stop stop-color="#A82B1C" offset="100%"/></linearGradient><linearGradient x1="3.548%" y1="1.754%" x2="105.996%" y2="102.574%" id="f"><stop stop-color="#F15A38" offset="0%"/><stop stop-color="#831B0A" offset="100%"/></linearGradient><linearGradient x1="42.822%" y1="-12.831%" x2="79.93%" y2="111.274%" id="g"><stop stop-color="#EEEDF7" offset="0%"/><stop stop-color="#B0AED7" offset="100%"/></linearGradient><linearGradient x1="-90.328%" y1="45.675%" x2="174.879%" y2="54.32%" id="h"><stop stop-color="#fff" offset="0%"/><stop stop-color="#B0AED7" offset="100%"/></linearGradient><linearGradient x1="13.4%" y1="47.853%" x2="97.551%" y2="88.942%" id="i"><stop stop-color="#FFEF97" offset="0%"/><stop stop-color="#FFD540" offset="100%"/></linearGradient><linearGradient x1="6.814%" y1="23.368%" x2="123.717%" y2="58.021%" id="j"><stop stop-color="#F8A084" offset="0%"/><stop stop-color="#EF4130" offset="100%"/></linearGradient><linearGradient x1="-1.972%" y1="99.672%" x2="102.411%" y2="-6.395%" id="k"><stop stop-color="#F8A084" offset="0%"/><stop stop-color="#EF4130" offset="100%"/></linearGradient><linearGradient x1="-7.122%" y1="38.804%" x2="85.932%" y2="60.671%" id="l"><stop stop-color="#426AB3" offset="0%"/><stop stop-color="#143F90" offset="100%"/></linearGradient><linearGradient x1="1.081%" y1="51.899%" x2="101.239%" y2="51.899%" id="m"><stop stop-color="#426AB3" offset="0%"/><stop stop-color="#375FA9" offset="14.99%"/><stop stop-color="#244E9B" offset="48.11%"/><stop stop-color="#184393" offset="77.52%"/><stop stop-color="#143F90" offset="100%"/></linearGradient><linearGradient x1="-2.477%" y1="24.564%" x2="107.706%" y2="75.116%" id="n"><stop stop-color="#5664A4" offset="0%"/><stop stop-color="#40559A" offset="24.1%"/><stop stop-color="#2A4791" offset="53.66%"/><stop stop-color="#193F8C" offset="79.92%"/><stop stop-color="#133C8B" offset="100%"/></linearGradient><linearGradient x1="49.734%" y1=".674%" x2="57.026%" y2="102.583%" id="o"><stop stop-color="#fff" offset="0%"/><stop stop-color="#D1D0E8" offset="100%"/></linearGradient><linearGradient x1="-17.724%" y1="39.004%" x2="122.6%" y2="61.866%" id="p"><stop stop-color="#fff" offset="0%"/><stop stop-color="#C7C6E3" offset="100%"/></linearGradient><linearGradient x1="5.096%" y1="12.322%" x2="94.186%" y2="55.622%" id="q"><stop stop-color="#C7C6E3" offset="0%"/><stop stop-color="#7474B6" offset="100%"/></linearGradient><linearGradient x1="-2.152%" y1=".168%" x2="60.784%" y2="89.323%" id="r"><stop stop-color="#EF4130" offset="0%"/><stop stop-color="#B22E20" offset="100%"/></linearGradient><linearGradient x1="-1.447%" y1="104.897%" x2="102.935%" y2="-1.17%" id="s"><stop stop-color="#EF4130" offset="0%"/><stop stop-color="#9E2718" offset="100%"/></linearGradient><linearGradient x1="40.373%" y1="42.161%" x2="105.745%" y2="95.865%" id="t"><stop stop-color="#F8ABA6" offset="0%"/><stop stop-color="#F48594" offset="100%"/></linearGradient><linearGradient x1="1.399%" y1="48.645%" x2="101.553%" y2="48.645%" id="u"><stop stop-color="#F8ABA6" offset="0%"/><stop stop-color="#F37C90" offset="100%"/></linearGradient></defs><g fill="none"><ellipse fill="#fff" cx="29.866" cy="19.866" rx="19.412" ry="19.412"/><path id="Shape" fill="url(#a)" d="M29.866 19.866l7.204-4.002 11.487 9.366-18.692-5.363"/><path id="Shape" fill="#EF4130" d="M37.07 15.863l11.487 9.366-1.121-.6-10.366-8.445z"/><path id="Shape" fill="#F58768" d="M29.866 19.866l7.204-4.002v.32l-6.524 3.602z"/><path id="Shape" fill="#BC3223" d="M48.557 25.229l-18.692-5.363.68-.08 16.891 4.843z"/><path id="Shape" fill="#F8ABA6" d="M29.866 19.866l7.204-4.002-1.841-14.689-5.363 18.692"/><path id="Shape" fill="#D37482" d="M35.229 1.174l-5.363 18.692.44-.52 4.843-16.891z"/><path id="Shape" fill="#D79592" d="M37.07 15.863l-1.841-14.689-.08 1.281 1.641 13.288z"/><path id="Shape" fill="#FBCBC5" d="M29.866 19.866l7.204-4.002-.28-.12-6.484 3.602z"/><path id="Shape" d="M29.866 19.866l4.002 7.204-9.366 11.487 5.363-18.692"/><path id="Shape" fill="#F7F6FB" d="M33.868 27.07l-9.366 11.487.6-1.161 8.445-10.326z"/><path id="Shape" fill="#EEEDF6" d="M29.866 19.866l4.002 7.204h-.32l-3.602-6.524z"/><path id="Shape" fill="#D3D2EA" d="M24.502 38.557l5.363-18.692.08.68-4.843 16.851z"/><path id="Shape" fill="#293896" d="M29.866 19.866l4.002 7.204 14.689-1.841-18.692-5.363"/><path id="Shape" fill="#464EA1" d="M48.557 25.229l-18.692-5.363.52.44 16.891 4.803z"/><path id="Shape" fill="#1F2879" d="M33.868 27.07l14.689-1.841-1.281-.12-13.248 1.681z"/><path id="Shape" fill="#8785C0" d="M29.866 19.866l4.002 7.204.16-.28-3.642-6.484z"/><path id="Shape" fill="url(#b)" d="M29.866 19.866l-7.204 4.002-11.487-9.366 18.692 5.363"/><path id="Shape" fill="#B0AED7" d="M22.661 23.868l-11.487-9.366 1.161.6 10.366 8.445z"/><path id="Shape" fill="#A5A3D1" d="M29.866 19.866l-7.204 4.002.04-.32 6.484-3.602z"/><path id="Shape" fill="#C7C4E2" d="M11.174 14.502l18.692 5.363-.68.08-16.851-4.843z"/><path id="Shape" fill="#FFDE17" d="M29.866 19.866l-7.204 4.002 1.841 14.689 5.363-18.692"/><path id="Shape" fill="#D3B382" d="M24.502 38.557l5.363-18.692-.4.52-4.843 16.891z"/><path id="Shape" fill="#E8C446" d="M22.661 23.868l1.841 14.689.12-1.281-1.681-13.248z"/><path id="Shape" fill="#FFE06F" d="M29.866 19.866l-7.204 4.002.28.16 6.524-3.642z"/><path id="Shape" fill="#EF4130" d="M29.866 19.866l-4.002-7.204 9.366-11.487-5.363 18.692"/><path id="Shape" fill="#F26246" d="M25.863 12.661l9.366-11.487-.6 1.161-8.445 10.366z"/><path id="Shape" fill="#D93B2B" d="M29.866 19.866l-4.002-7.204.32.04 3.602 6.484z"/><path id="Shape" fill="#C53526" d="M35.229 1.174l-5.363 18.692-.08-.68 4.843-16.851z"/><path id="Shape" fill="#EEEDF7" d="M29.866 19.866l-4.002-7.204-14.689 1.841 18.692 5.363"/><path id="Shape" fill="#F6F4F9" d="M11.174 14.502l18.692 5.363-.52-.44-16.891-4.803z"/><path id="Shape" fill="#D3D2EA" d="M25.863 12.661l-14.689 1.841 1.281.12 13.288-1.681z"/><path id="Shape" fill="#F7F6FB" d="M29.866 19.866l-4.002-7.204-.12.28 3.602 6.484z"/><path d="M43.874 6.377c-2.321-2.401-5.243-4.203-8.645-5.203l1.841 14.689 6.804-9.486z" id="Shape" fill="url(#c)"/><path d="M35.229 1.174l1.841 14.689.16-.68-1.721-13.929c-.08 0-.2-.04-.28-.08z" id="Shape" fill="#8785C0"/><path d="M43.674 6.177l-6.404 9.006-.16.68 6.764-9.526-.2-.16z" id="Shape" fill="#9A98CB"/><path d="M43.874 6.377c-2.321-2.401-5.243-4.203-8.645-5.203l.36.64c3.042.961 5.684 2.642 7.805 4.763l.48-.2z" id="Shape" fill="url(#d)"/><path d="M37.07 15.863l6.764-9.526c2.361 2.442 4.043 5.483 4.883 8.805l-11.647.72z" id="Shape" fill="url(#e)"/><path d="M43.874 6.377l-6.804 9.486.52-.28 6.444-9.006-.16-.2z" id="Shape" fill="#F37557"/><path d="M48.677 14.903l-11.047.68-.52.28 11.647-.72c-.04-.08-.08-.16-.08-.24z" id="Shape" fill="#A82B1C"/><path d="M48.157 14.943c-.8-2.962-2.321-5.684-4.403-7.965l.12-.64c2.361 2.442 4.043 5.483 4.883 8.805l-.6-.2z" id="Shape" fill="url(#f)"/><path d="M37.07 15.863l11.647-.72c.8 3.202.8 6.644-.16 10.046l-11.487-9.326z" id="Shape" fill="url(#g)"/><path d="M48.757 15.183l-11.647.72.68.2 11.047-.68c-.04-.08-.08-.16-.08-.24z" id="Shape" fill="#C7C6E3"/><path d="M48.557 25.229l.08-.28-10.887-8.846-.68-.2 11.487 9.326z" id="Shape" fill="#EEEDF7"/><path d="M48.197 24.589c.8-3.082.8-6.204.08-9.126l.48-.28c.8 3.202.8 6.644-.16 10.046l-.4-.64z" id="Shape" fill="url(#h)"/><path d="M16.377 5.897c-2.401 2.281-4.203 5.203-5.203 8.605l14.689-1.841-9.486-6.764z" id="Shape" fill="url(#i)"/><path d="M11.174 14.502l14.689-1.841-.68-.16-13.929 1.721c0 .08-.04.2-.08.28z" id="Shape" fill="#FFCB1F"/><path d="M16.177 6.057l9.006 6.404.68.16-9.486-6.724-.2.16z" id="Shape" fill="#FFDE17"/><path d="M16.377 5.897c-2.401 2.281-4.203 5.203-5.203 8.605l.64-.36c.961-3.042 2.642-5.684 4.763-7.805l-.2-.44z" id="Shape" fill="#FFFAC2"/><path d="M25.863 12.661l-9.486-6.764c2.442-2.361 5.483-4.043 8.805-4.883l.68 11.647z" id="Shape" fill="url(#j)"/><path d="M16.377 5.897l9.486 6.764-.28-.52-9.006-6.444-.2.2zM24.903 1.054l.68 11.047.28.52-.68-11.607-.28.04z" id="Shape" fill="#EF4130"/><path d="M24.943 1.614c-2.962.8-5.684 2.321-7.965 4.403l-.64-.12c2.442-2.361 5.483-4.043 8.805-4.883l-.2.6z" id="Shape" fill="url(#k)"/><path d="M25.863 12.661l-.68-11.647c3.202-.8 6.644-.8 10.046.16l-9.366 11.487z" id="Shape" fill="url(#l)"/><path d="M25.183 1.014l.72 11.647.2-.68-.68-11.047-.24.08z" id="Shape" fill="#17479E"/><path d="M35.229 1.174l-.28-.08-8.846 10.887-.2.68 9.326-11.487z" id="Shape" fill="#2E3192"/><path d="M34.589 1.534c-3.082-.8-6.204-.8-9.126-.08l-.28-.48c3.202-.8 6.644-.8 10.046.16l-.64.4z" id="Shape" fill="url(#m)"/><path d="M15.897 33.394c2.281 2.361 5.243 4.203 8.645 5.163l-1.841-14.689-6.804 9.526z" id="Shape" fill="#293896"/><path d="M24.502 38.557l-1.841-14.689-.16.68 1.761 13.929.24.08z" id="Shape" fill="#1F2879"/><path d="M16.057 33.554l6.404-9.006.16-.68-6.724 9.526.16.16z" id="Shape" fill="#595DA9"/><path d="M15.897 33.394c2.281 2.361 5.243 4.203 8.645 5.163l-.36-.64c-3.042-.961-5.684-2.642-7.805-4.763l-.48.24z" id="Shape" fill="url(#n)"/><path d="M22.661 23.868l-6.764 9.526c-2.361-2.482-4.083-5.523-4.883-8.805l11.647-.72z" id="Shape" fill="url(#o)"/><path d="M15.897 33.394l6.764-9.526-.52.28-6.444 9.046.2.2z" id="Shape" fill="#A5A3D1"/><path d="M11.054 24.829l11.047-.68.52-.28-11.607.72.04.24z" id="Shape" fill="#D1D0E8"/><path d="M11.614 24.789c.8 2.962 2.321 5.684 4.403 7.965l-.12.64c-2.361-2.482-4.083-5.523-4.883-8.805l.6.2z" id="Shape" fill="url(#p)"/><path d="M22.661 23.868l-11.647.72c-.8-3.202-.8-6.644.16-10.046l11.487 9.326z" id="Shape" fill="#EF4130"/><path d="M11.014 24.589l11.647-.72-.68-.2-11.047.64.08.28z" id="Shape" fill="#CF381E"/><path d="M11.174 14.502l-.08.28 10.887 8.886.68.2-11.487-9.366zM11.534 15.143c-.8 3.082-.8 6.204-.08 9.126l-.48.28c-.8-3.202-.8-6.644.16-10.046l.4.64z" id="Shape" fill="#F37557"/><path d="M43.394 33.874c2.361-2.281 4.203-5.243 5.163-8.645l-14.689 1.841 9.526 6.804z" id="Shape" fill="url(#q)"/><path d="M48.557 25.229l-14.689 1.841.68.16 13.929-1.761.08-.24z" id="Shape" fill="#7474B6"/><path d="M43.554 33.674l-9.006-6.404-.68-.16 9.526 6.764.16-.2z" id="Shape" fill="#C7C6E3"/><path d="M43.394 33.874c2.361-2.281 4.203-5.243 5.163-8.645l-.64.36c-.961 3.042-2.642 5.684-4.763 7.805l.24.48z" id="Shape" fill="#6264AD"/><path d="M33.868 27.07l9.526 6.764c-2.442 2.361-5.483 4.043-8.805 4.883l-.72-11.647z" id="Shape" fill="url(#r)"/><path d="M43.394 33.874l-9.526-6.804.28.52 9.006 6.444.24-.16zM34.829 38.677l-.68-11.047-.28-.52.72 11.647c.08-.04.16-.08.24-.08z" id="Shape" fill="#EF4130"/><path d="M34.789 38.157c2.962-.8 5.684-2.321 7.965-4.403l.64.12c-2.442 2.361-5.483 4.043-8.805 4.883l.2-.6z" id="Shape" fill="url(#s)"/><path d="M33.868 27.07l.72 11.647c-3.202.8-6.644.8-10.046-.16l9.326-11.487z" id="Shape" fill="url(#t)"/><path d="M34.589 38.717l-.72-11.647-.2.68.68 11.047.24-.08z" id="Shape" fill="#F8ABA6"/><path d="M24.502 38.557l.28.08 8.846-10.887.2-.68-9.326 11.487z" id="Shape" fill="#FCD3CD"/><path d="M25.143 38.197c3.082.8 6.204.8 9.126.08l.28.48c-3.202.8-6.644.8-10.046-.16l.64-.4z" fill="url(#u)"/></g></svg>