<svg width="70" height="40" viewBox="0 0 70 40" xmlns="http://www.w3.org/2000/svg"><title>sofort-de</title><desc>Created with Sketch.</desc><g fill="none"><path d="M23.543 10.299c-.944 0-1.859.219-2.718.627-1.227.586-2.341 1.564-3.25 2.862-.59.842-1.096 1.819-1.492 2.911-.746 2.062-.738 3.734.025 4.836.433.623 1.332 1.367 3.16 1.369h.007c3.33 0 5.816-2.202 7.391-6.545.416-1.149.965-3.293-.038-4.741-.606-.875-1.642-1.319-3.085-1.32zm20.095 0c-.943 0-1.859.219-2.718.627-1.228.586-2.341 1.564-3.25 2.862-.591.842-1.096 1.819-1.492 2.911-.747 2.062-.738 3.734.026 4.836.432.623 1.33 1.367 3.16 1.369h.006c3.331 0 5.818-2.202 7.391-6.545.417-1.149.965-3.293-.038-4.741-.606-.875-1.643-1.319-3.086-1.32zm-30.79.175c-1.096 0-2.161 0-3.115.488-.953.488-1.796 1.465-2.444 3.42-.141.42-.215.782-.224 1.096-.01.315.045.583.163.816.146.284.383.551.678.777.296.226.65.409 1.032.526l.458.132.704.209c.105.032.22.074.325.138.105.062.199.147.258.263.039.077.06.162.062.253.003.091-.013.189-.048.293-.089.265-.224.436-.481.541-.256.105-.634.138-1.207.142h-7.153l-1.131 3.133h7.657c.721 0 2.038 0 3.303-.543 1.266-.542 2.48-1.626 2.994-3.796.193-.815.133-1.479-.183-2.001-.318-.521-.892-.9-1.729-1.142l-.407-.119-.602-.175c-.214-.062-.379-.187-.476-.346-.097-.159-.126-.351-.071-.549.058-.205.197-.368.397-.481.202-.112.466-.174.775-.174h4.451l.091-.141c.813-1.16 1.797-2.099 2.875-2.762h-6.951zm20.004 0c-1.981 0-3.455 1.011-4.151 2.903l-3.364 9.324h3.686l1.729-4.793 3.257.002.927-2.567-3.247-.002.523-1.486c.109-.267.369-.478.75-.478l3.841.001.092-.142c.813-1.16 1.964-2.099 3.042-2.762h-7.084zm17.099.007l-4.414 12.228h3.749l1.604-4.304c.079.177 1.025 4.304 1.025 4.304h3.942s-.717-3.032-1.244-4.257c-.136-.315-.277-.668-.466-.963 1.113-.417 2.727-1.313 3.395-3.128.41-1.116.387-2.018-.069-2.68-.553-.803-1.678-1.197-3.441-1.2h-4.081zm7.69 0c.237.189.442.405.612.652.436.634.603 1.388.503 2.251h2.232l-3.364 9.327h3.362l3.367-9.327h4.319l1.048-2.903h-12.079zm-5.22 2.524h.619c1.131.001 1.553.335 1.17 1.376-.36.978-1.006 1.582-2.236 1.582h-.005l-.636-.001 1.088-2.957zm-29.763.061h.001c1.152.001 1.415.675.404 3.465-1.039 2.868-1.793 3.59-2.928 3.59h-.002c-1.106-.001-1.494-.706-.459-3.561.773-2.131 1.773-3.494 2.984-3.494zm20.095 0h.001c1.151.001 1.415.675.403 3.465-1.038 2.868-1.793 3.59-2.927 3.59h-.003c-1.106-.001-1.492-.706-.458-3.561.772-2.131 1.773-3.494 2.983-3.494z" fill="#EE7F00"/><path d="M3.966 23.997c-.21 0-.367.039-.472.114-.104.077-.192.214-.263.412-.069.19-.079.321-.031.396.048.076.177.113.389.113.212 0 .37-.039.474-.117.104-.078.191-.214.261-.409.069-.192.081-.324.034-.398-.046-.074-.177-.11-.392-.11zm1.807 0c-.213 0-.37.039-.474.114-.104.077-.191.214-.262.412-.068.19-.079.321-.033.396.046.076.175.113.388.113.212 0 .37-.039.476-.117.105-.078.193-.214.263-.409.069-.192.08-.324.032-.398-.048-.074-.178-.11-.39-.11zm33.737 1.414c-.246 0-.49.032-.732.095-.242.064-.468.161-.675.29-.208.13-.394.292-.561.488-.166.196-.295.424-.388.682-.082.226-.118.418-.11.58.007.161.043.301.107.419.063.118.147.22.252.304.104.085.216.161.335.227l.35.19c.113.06.211.123.292.192.082.068.14.146.174.233.035.088.03.193-.014.315-.038.105-.092.202-.162.288-.07.087-.152.159-.245.217-.095.059-.199.104-.316.136-.116.032-.24.048-.373.048-.202 0-.37-.023-.506-.069-.136-.046-.25-.097-.34-.152l-.215-.152-.14-.069-.08.023-.077.077-.078.142-.087.216-.084.294.02.157.13.125.255.135c.106.043.232.08.38.111s.314.046.499.046c.273 0 .542-.036.808-.108.266-.072.514-.18.745-.324.231-.143.437-.321.619-.536.182-.214.324-.463.427-.747.078-.217.113-.405.104-.565-.009-.16-.045-.299-.11-.417s-.151-.22-.258-.305c-.107-.084-.221-.16-.34-.227l-.353-.19c-.116-.06-.216-.124-.301-.192-.085-.068-.144-.146-.177-.233-.033-.087-.028-.191.015-.311l.127-.229c.054-.072.121-.134.198-.185.078-.051.166-.092.265-.121.099-.029.208-.044.326-.044.151 0 .284.018.398.056l.289.125.198.127.124.058.082-.025.071-.079.07-.138.08-.204.061-.181.03-.121.003-.077-.03-.071-.132-.104-.253-.113-.326-.079c-.121-.02-.244-.029-.37-.029zm17.173.004c-.422 0-.827.065-1.218.196s-.751.319-1.083.565c-.331.246-.627.545-.886.897s-.468.749-.628 1.191c-.154.428-.231.811-.227 1.149.001.338.077.625.226.859.15.235.371.414.665.538.292.124.653.185 1.08.185l.444-.021.453-.062.448-.1.373-.112c.103-.037.18-.086.232-.148l.122-.219.775-2.148.032-.148-.02-.11-.066-.069-.11-.024h-1.807l-.074.024-.075.071-.077.127-.081.195c-.054.151-.079.257-.074.319.006.063.033.094.082.094h1.013l-.452 1.251c-.122.056-.247.097-.376.125-.128.027-.253.042-.375.042-.249 0-.461-.04-.637-.121-.176-.081-.309-.2-.397-.359-.089-.158-.132-.355-.129-.589.004-.235.061-.508.172-.816.101-.281.234-.538.398-.77.163-.232.349-.431.558-.597.209-.165.435-.293.676-.384.242-.09.493-.135.752-.135.242 0 .446.025.612.075.164.05.303.105.415.163l.259.163.147.075.071-.021.072-.073.079-.14.086-.208.088-.315-.02-.165-.146-.138c-.075-.052-.176-.102-.301-.148s-.277-.085-.456-.117-.384-.048-.615-.048zm-33.806.067l-.333.011-.19.056-.095.132-.044.236-.484 4.709.004.161.087.092.21.042.378.01.37-.01.236-.044.152-.094.114-.157 2.045-3.42h.008l-.378 3.42v.161l.087.092.21.042.375.01.351-.01.238-.042.163-.092.127-.161 2.923-4.696.132-.244.009-.136-.126-.056-.279-.011-.306.011-.179.037-.105.075-.075.115-2.426 4.121h-.008l.472-4.105.003-.134-.065-.077-.169-.036-.313-.009-.302.011-.189.037-.119.077-.09.129-2.457 4.105h-.004l.553-4.134.011-.123-.054-.067-.161-.029-.306-.007zm12.905 0l-.265.012-.179.034-.111.054-.055.075-1.839 5.097v.076l.069.054.156.034.258.012.27-.012.177-.034.11-.054.053-.076 1.839-5.097.001-.075-.07-.054-.153-.034-.26-.012zm-33.083 0l-.269.013-.179.034-.108.054-.053.075-1.184 3.283c-.124.345-.184.646-.179.903.006.258.069.472.192.644.122.173.302.301.539.386.236.085.523.127.859.127.359 0 .692-.047 1.002-.142.31-.095.591-.232.843-.413.253-.18.475-.402.665-.664.191-.261.346-.557.466-.888l1.168-3.237.002-.075-.067-.054-.151-.034-.254-.013-.267.013-.179.034-.106.054-.052.075-1.172 3.249c-.068.189-.155.358-.259.507-.105.149-.223.274-.353.375-.13.102-.273.178-.427.232-.153.052-.316.079-.487.079-.169 0-.312-.025-.43-.077-.117-.052-.207-.129-.268-.231-.061-.103-.089-.233-.085-.39.004-.157.045-.342.122-.557l1.15-3.186v-.075l-.069-.054-.153-.034-.256-.013zm40.12 0l-.269.012-.179.033-.109.054-.052.075-1.184 3.282c-.124.345-.184.646-.179.903.004.258.068.472.19.644.123.173.303.301.54.386.236.085.523.127.859.127.358 0 .692-.047 1.002-.142.31-.095.59-.232.843-.413.253-.181.474-.402.665-.663.191-.261.346-.558.466-.888l1.168-3.237.002-.075-.067-.054-.152-.033-.254-.012-.267.012-.179.033-.106.054-.052.075-1.172 3.249c-.069.189-.155.358-.259.507-.105.149-.222.273-.353.375-.13.102-.273.178-.427.231-.154.053-.317.08-.487.08-.168 0-.311-.026-.429-.077-.117-.052-.207-.129-.268-.231-.061-.103-.089-.233-.084-.39.004-.157.045-.342.122-.557l1.149-3.186v-.075l-.069-.054-.153-.033-.256-.012zm9.298.008l-.249.011-.166.035-.103.058-.052.075-.915 2.532-.211.604-.201.609h-.004l-.033-.334-.038-.34-.047-.346-.053-.353-.33-1.973-.055-.273-.096-.173-.16-.091-.255-.027h-.583c-.11 0-.215.033-.315.098s-.173.163-.219.294l-1.75 4.851-.007.075.055.056.137.036.235.012.249-.012.163-.036.099-.056.049-.075 1.02-2.824.213-.615.192-.599h.008l.032.507.06.486.421 2.523.063.34.096.208.156.107.241.029h.462l.164-.023.159-.073.134-.125.095-.172 1.751-4.851.006-.075-.051-.058-.134-.035-.231-.01zm-38.609.017c-.092 0-.178.027-.26.081-.082.055-.144.143-.188.265l-1.698 4.705c-.044.123-.045.211-.002.265.043.054.109.082.2.082h2.688l.077-.024.077-.072.079-.132.083-.202.063-.202.016-.132-.025-.073-.06-.022h-1.927l.549-1.522h1.617l.076-.021.076-.069.077-.127.083-.2.061-.198.015-.129-.026-.071-.06-.023h-1.616l.475-1.318h1.911l.075-.023.076-.073.078-.132.082-.198.064-.206.017-.133-.024-.072-.058-.021h-2.671zm4.487 0c-.091 0-.177.027-.259.081-.082.055-.145.143-.189.265l-1.768 4.902-.002.075.068.054.155.034.258.012.269-.012.177-.034.109-.054.054-.075.742-2.057h.34c.115 0 .211.018.286.055.075.036.134.089.176.16.042.071.071.159.088.265l.039.363.045 1.205.01.085.064.059.151.031.275.009.33-.009.192-.029.098-.052.045-.077.02-.115.001-.231-.067-1.064-.037-.344-.078-.271-.125-.202-.174-.142c.185-.053.357-.123.518-.209.161-.086.306-.188.436-.305.13-.117.245-.249.344-.398.099-.148.181-.313.247-.494.077-.215.114-.404.111-.57-.004-.165-.044-.308-.121-.429-.076-.121-.187-.219-.333-.294-.145-.076-.319-.128-.524-.159l-.24-.021-.344-.009h-1.386zm13.066 0c-.091 0-.178.027-.259.081-.082.055-.145.143-.189.265l-1.698 4.705c-.044.123-.045.211-.003.265.043.054.11.082.201.082h2.688l.077-.024.077-.072.079-.132.083-.202.063-.202.016-.132-.025-.073-.06-.022h-1.927l.549-1.522h1.617l.076-.021.077-.069.077-.127.083-.2.061-.198.016-.129-.026-.071-.06-.023h-1.617l.476-1.318h1.91l.075-.023.075-.073.078-.132.083-.198.064-.206.017-.133-.023-.072-.059-.021h-2.671zm-22.685 0c-.091 0-.178.027-.259.081-.082.054-.144.142-.189.265l-1.698 4.705c-.044.122-.045.21-.002.264.043.054.109.082.2.082h1.423c.215 0 .415-.013.599-.04.185-.026.364-.067.538-.123.174-.056.341-.126.501-.213.16-.086.306-.189.442-.308.135-.12.257-.258.366-.414.109-.156.198-.329.267-.521.066-.183.098-.349.096-.497-.002-.147-.031-.276-.087-.385-.056-.11-.135-.2-.238-.27-.103-.069-.225-.118-.367-.146.134-.044.261-.103.38-.175s.226-.156.324-.25c.097-.095.183-.2.258-.315.075-.115.135-.238.183-.369.085-.233.116-.437.096-.609-.02-.173-.088-.316-.203-.428-.115-.113-.276-.197-.484-.253-.207-.056-.475-.083-.802-.083h-1.344zm.448.821h.55c.168 0 .297.016.387.046.09.031.157.074.203.132.046.057.069.128.071.215.002.087-.016.183-.055.292-.035.098-.084.19-.146.278-.062.087-.136.164-.222.229-.085.065-.182.117-.289.154-.108.037-.239.057-.397.057h-.607l.506-1.402zm9.634.017h.488l.288.013.176.032c.164.051.264.137.3.259.036.122.021.273-.043.45-.043.117-.1.223-.172.317-.072.095-.16.176-.262.244-.102.068-.217.12-.347.158-.129.037-.271.056-.425.056h-.554l.552-1.531zm-10.429 2.186h.645c.198 0 .353.018.464.054.111.036.195.087.251.154.055.067.086.15.091.248.006.099-.013.21-.059.336-.043.12-.103.226-.179.319-.077.093-.165.171-.263.233-.098.063-.205.11-.32.142-.115.032-.248.047-.399.047h-.786l.553-1.534z" fill="#383A41"/></g></svg>