<svg width="70" height="40" viewBox="0 0 70 40" xmlns="http://www.w3.org/2000/svg"><title>sportenfit</title><desc>Created with Sketch.</desc><g fill="#231F20"><path d="M1 18.048l.419-1.486c.837.249 1.533.434 2.37.434 1.019 0 1.256-.199 1.387-.961.038-.184.052-.342.052-.459 0-.396-.261-.5-1.321-.776-1.454-.369-1.99-.882-1.99-1.909 0-.276.038-.591.105-.945.379-1.947.903-2.341 3.271-2.341.668 0 1.767.145 2.539.342l-.339 1.617c-.772-.183-1.767-.303-2.355-.303-.943 0-1.128.131-1.245.83l-.052.473c0 .42.261.486 1.283.749 1.623.409 2.067.909 2.067 1.802 0 .276-.038.579-.104.934-.315 1.801-.943 2.576-3.417 2.576-.718 0-1.99-.248-2.67-.577"/><path d="M14.05 12.485c.027-.159.038-.289.038-.382 0-.446-.261-.656-.849-.656h-1.625l-.47 2.709h1.585c.889 0 1.085-.317 1.204-.975l.118-.696zm-3.208 3.34l-.47 2.669h-1.925l1.533-8.757h3.325c1.871 0 2.773.724 2.773 1.972 0 .183-.038.461-.077.669l-.171.988c-.288 1.631-.957 2.458-3.259 2.458h-1.729z"/><path d="M22.216 12.181c0-.538-.353-.866-1.283-.866-.995 0-1.517.434-1.648 1.131l-.59 3.341-.027.301c0 .527.342.83 1.283.83.995 0 1.519-.382 1.65-1.131l.59-3.341.025-.265m-5.497 4.116c0-.131.014-.276.039-.407l.63-3.616c.286-1.631 1.28-2.669 3.741-2.669 2.069 0 3.039 1.183 3.039 2.379 0 .118-.013.262-.04.395l-.628 3.576c-.288 1.669-1.27 2.671-3.849 2.671-2.053 0-2.931-1.144-2.931-2.329"/><path d="M30.516 12.446l.038-.368c0-.448-.274-.631-.943-.631h-1.596l-.459 2.641h1.65c.851 0 1.074-.314 1.191-.986l.119-.656zm-1.939 3.313h-1.321l-.47 2.737h-1.925l1.531-8.759h3.338c1.871 0 2.787.71 2.787 1.997 0 .172-.025.344-.051.541l-.183 1.051c-.184 1.092-.576 1.789-1.664 2.171l1.65 2.999h-2.161l-1.531-2.737z"/><path d="M37.204 18.494h-1.938l1.231-7.047h-2.357l.301-1.71h6.65l-.301 1.71h-2.357z"/><path d="M47.196 16.548l-2.616-3.089c-1.411.394-2.179 1.038-2.377 2.289-.245 1.563.428 2.431 2.195 2.431 1.179 0 2.093-.486 2.798-1.631m-2.375-3.537l.286.344c1.544-.5 2.179-.948 2.359-2.092.142-.907-.187-1.472-1.313-1.472-1.008 0-1.618.63-1.751 1.472-.112.71.054 1.314.419 1.748m3.1-1.735c-.205 1.3-.952 1.893-2.537 2.393l2.064 2.433c.267-.527.497-1.158.709-1.92h.457c-.259.907-.536 1.656-.867 2.262l1.549 1.8-.367.342-1.445-1.707c-.81 1.235-1.843 1.735-3.18 1.735-2.173 0-2.839-1.092-2.56-2.854.236-1.497 1.153-2.169 2.571-2.614-.378-.579-.489-1.131-.369-1.882.173-1.104 1.042-1.893 2.274-1.893 1.427 0 1.877.789 1.702 1.906"/><path d="M53.013 13.378h3.338l-.302 1.698h-3.336l-.59 3.418h-1.925l1.531-8.757h5.538l-.302 1.71h-3.613z"/><path d="M58.836 9.737h1.925l-1.531 8.757h-1.925z"/><path d="M64.899 18.494h-1.938l1.231-7.047h-2.357l.302-1.71h6.65l-.302 1.71h-2.356z"/><path d="M12.975 28.449c0 1.368.603 1.854 2.186 1.854.563 0 1.348-.065 1.939-.172l.092.672c-.655.131-1.468.196-2.096.196-2.107 0-2.893-.907-2.893-2.537v-3.947c0-1.63.786-2.538 2.893-2.538.628 0 1.441.066 2.096.197l-.092.672c-.59-.106-1.376-.172-1.939-.172-1.582 0-2.186.486-2.186 1.855v3.919z"/><path d="M20.489 27.897h3.586l-1.794-5.34-1.792 5.34zm3.82.669h-4.056l-.813 2.302h-.758l3.036-8.759h1.139l3.036 8.759h-.758l-.826-2.302z"/><path d="M28.616 30.172h2.121c1.467 0 1.938-.606 1.938-1.854v-3.657c0-1.248-.471-1.854-1.938-1.854h-2.121v7.366zm2.107-8.062c2.123 0 2.724 1.106 2.724 2.591v3.576c0 1.486-.601 2.592-2.724 2.592h-2.879v-8.759h2.879z"/><path d="M35.867 22.11h4.909v.696h-4.137v3.25h3.849v.696h-3.849v3.42h4.151v.696h-4.923z"/><path d="M44.27 27.897h3.586l-1.792-5.34-1.794 5.34zm3.822.669h-4.059l-.81 2.302h-.759l3.037-8.759h1.139l3.037 8.759h-.761l-.823-2.302z"/><path d="M57.581 22.11v6.273c0 1.486-.889 2.616-3.01 2.616-2.121 0-3.01-1.131-3.01-2.616v-6.273h.772v6.273c0 1.223.772 1.92 2.238 1.92 1.465 0 2.238-.696 2.238-1.92v-6.273h.772z"/></g></svg>