<svg width="70" height="40" viewBox="0 0 70 40" xmlns="http://www.w3.org/2000/svg"><title>trustpay</title><desc>Created with Sketch.</desc><g fill="none"><path d="M45.323 19.87c-.51 0-1.02.016-1.529-.006-.291-.013-.406.068-.462.361-.24 1.263-.521 2.519-.763 3.782-.049.253-.145.324-.394.318-.645-.014-1.291-.013-1.937 0-.257.005-.346-.025-.284-.323.657-3.148 1.294-6.3 1.938-9.45.142-.695.299-1.387.425-2.084.043-.236.119-.335.384-.33 1.987.043 3.976-.072 5.96.078.287.022.575.06.854.124 1.264.288 1.896 1.088 1.874 2.405-.016.948-.223 1.863-.62 2.733-.744 1.629-2.15 2.248-3.868 2.364-.524.036-1.053.006-1.579.006v.023zm1-5.627c-.565 0-1.022.006-1.48-.003-.203-.004-.305.06-.345.266-.196 1.002-.404 2.001-.609 3-.034.166-.029.282.206.274.998-.038 2.002.077 2.994-.106.567-.104 1.011-.379 1.255-.899.227-.483.346-.994.36-1.528.012-.464-.209-.739-.667-.858-.599-.157-1.212-.109-1.713-.146zM51.366 18.092c.352-1.62 1.324-2.55 2.938-2.804 1.199-.189 2.405-.222 3.589.087 1.183.309 1.651 1.02 1.427 2.184-.411 2.138-.856 4.27-1.277 6.407-.054.274-.161.376-.465.363-.642-.028-1.285-.008-1.92-.008-.05-.22.112-.387.022-.593-1.069.742-2.281.876-3.545.788-1.542-.108-2.214-.972-1.898-2.447.376-1.755 1.54-2.717 3.624-2.999.79-.107 1.577-.255 2.37-.319.558-.045.506-.434.572-.766.066-.336-.009-.668-.373-.778-.711-.215-1.437-.224-2.146.041-.179.067-.352.19-.4.362-.14.51-.519.504-.943.487-.507-.02-1.017-.004-1.575-.004zm2.622 4.707c1.208-.011 1.855-.514 2.169-1.683.24-.895.24-.895-.67-.772l-.152.016c-.612.124-1.253.129-1.829.395-.551.254-.908.946-.749 1.485.165.558.688.495 1.129.559l.102.001zM63.823 21.864l1.575-3.048c.539-1.045 1.082-2.088 1.61-3.139.1-.198.195-.309.448-.303.73.018 1.461.006 2.195.006.033.2-.105.321-.182.456-1.761 3.082-3.526 6.163-5.295 9.241-.231.402-.49.79-.734 1.186-.719 1.173-1.778 1.702-3.184 1.666-1.262-.032-1.263-.003-1.003-1.19l.021-.096c-.007-.516.24-.68.771-.634.847.075 1.404-.371 1.776-1.08.122-.233.158-.454.09-.711-.739-2.768-1.185-5.584-1.473-8.428-.033-.321.028-.434.381-.417.611.028 1.225.026 1.835 0 .345-.015.457.075.463.429.035 2 .251 3.983.707 6.062z" id="Shape" fill="#171919"/><path d="M28.247 24.536c-.642.014-1.419-.056-2.157-.341-1.039-.4-1.542-1.176-1.493-2.236.013-.285.093-.418.414-.406.56.021 1.122.012 1.682.003.231-.004.358.021.389.306.063.593.298.784.908.876.577.087 1.152.067 1.727-.013.203-.028.398-.09.568-.205.308-.208.426-.516.403-.86-.021-.31-.283-.442-.55-.516-.751-.206-1.506-.394-2.26-.589l-.737-.19c-1.33-.381-1.758-1.108-1.472-2.432.296-1.371 1.145-2.209 2.532-2.543 1.239-.299 2.494-.317 3.74-.077 1.262.244 1.845 1.049 1.752 2.282-.019.246-.088.353-.358.347-.595-.014-1.19-.012-1.785-.001-.23.004-.331-.055-.34-.301-.016-.429-.279-.626-.715-.689-.515-.074-1.017-.027-1.522.042-.115.016-.231.06-.336.111-.317.155-.473.41-.478.757-.006.359.263.496.539.572.799.222 1.607.412 2.411.614l.393.102c1.617.471 2.084 1.329 1.567 2.89-.471 1.42-1.589 2.072-3.003 2.366-.552.114-1.112.131-1.818.131zM20.533 23.472c-1.248 1.172-2.685 1.193-4.139.972-1.123-.17-1.59-.806-1.571-1.964.016-.995.298-1.954.491-2.924.254-1.278.532-2.551.779-3.83.05-.26.141-.36.42-.35.56.02 1.122.026 1.682-.001.379-.018.402.113.335.431-.383 1.824-.754 3.651-1.106 5.481-.174.902.132 1.256 1.076 1.322 1.386.098 2.118-.389 2.423-1.721.378-1.656.705-3.324 1.031-4.992.075-.38.193-.57.644-.526.522.05 1.052.017 1.579.01.219-.003.352.015.294.295-.577 2.778-1.147 5.557-1.708 8.338-.051.253-.168.319-.412.312-.492-.014-.987-.023-1.478.002-.373.019-.56-.05-.394-.454.036-.088.028-.192.054-.402zM1.96 24.32l1.463-7.177c.168-.825.314-1.655.515-2.472.086-.352-.038-.381-.338-.377l-3.01.01c-.296.004-.382-.058-.301-.358.124-.462.226-.933.284-1.406.043-.351.214-.406.537-.405 3.078.011 6.155.014 9.233-.002.403-.002.51.09.388.466-.086.266-.116.548-.175.822-.19.879-.191.878-1.137.878-.799 0-1.599.014-2.397-.007-.318-.008-.435.089-.496.396-.601 3.011-1.231 6.016-1.824 9.028-.093.47-.261.656-.775.616-.638-.05-1.285-.012-1.966-.012zM36.861 24.483c-.372-.025-.746-.031-1.115-.08-.75-.099-1.069-.456-1.072-1.194-.004-1.015.297-1.986.481-2.973.16-.858.342-1.714.534-2.566.068-.3.012-.402-.331-.4-.799.006-.8-.013-.652-.772l.043-.193c.19-.862.19-.876 1.1-.916.279-.012.336-.146.376-.359.096-.502.219-.999.297-1.504.04-.258.128-.378.415-.369.577.017 1.155.02 1.732 0 .335-.012.359.142.305.394-.11.516-.199 1.036-.322 1.549-.057.236.02.29.242.283l.968-.005c.24-.01.297.092.247.298l-.084.386c-.082.387-.044.884-.28 1.13-.248.258-.773.085-1.174.076-.315-.007-.392.115-.444.386-.264 1.376-.555 2.747-.826 4.121-.124.626.036.806.698.834.69.03.69.03.563.67-.215 1.086-.215 1.086-1.344 1.151l-.356.022-.002.03zM11.82 16.229c.789-.784 1.71-1.097 2.794-1.04.311.016.419.077.329.409-.143.525-.242 1.063-.329 1.6-.039.238-.145.293-.371.281-.305-.016-.616-.03-.916.012-.854.117-1.394.633-1.736 1.371-.486 1.05-.624 2.188-.868 3.298-.135.613-.271 1.226-.378 1.843-.042.246-.134.33-.391.323-.595-.016-1.191-.02-1.785.001-.315.011-.322-.116-.272-.357.569-2.748 1.137-5.496 1.688-8.247.055-.273.159-.354.43-.346.509.017 1.021.022 1.53-.001.352-.016.464.082.339.418-.05.135-.044.29-.064.436z" fill="#0AA5DF"/></g></svg>