<svg width="70" height="40" viewBox="0 0 70 40" xmlns="http://www.w3.org/2000/svg"><title>twikey</title><desc>Created with Sketch.</desc><defs><linearGradient x1="65.917%" y1="9.441%" x2="15.512%" y2="99.758%" id="a"><stop stop-color="#CD2B27" offset="0%"/><stop stop-color="#F68B1E" offset="100%"/></linearGradient><linearGradient x1="64.446%" y1="-20.139%" x2="34.674%" y2="95.212%" id="b"><stop stop-color="#CD2B27" offset="0%"/><stop stop-color="#F68B1E" offset="100%"/></linearGradient></defs><g fill="none"><path d="M2.329 23.013h-1.13v-1.858h1.13v-2.018l2.275-.85v2.867h1.982l.696 1.858h-2.678v4.335c0 .709.11 1.208.33 1.5.217.292.602.441 1.146.441.549 0 1.057-.159 1.53-.478v2.124c-.528.186-1.282.265-2.257.265-.973 0-1.718-.287-2.241-.844-.523-.558-.785-1.354-.785-2.379v-4.978l.003.013zm15.972 8.225h-.832l-2.676-6.08-2.668 6.08h-.837l-3.68-10.083h2.396l1.954 5.907 2.39-5.907h.819l2.466 5.947 2.113-5.947h2.239l-3.688 10.083h.003zm5.231-.186v-7.999h-1.25l.792-1.893h2.759v9.903h-2.302v-.011zm15.208-5.981h4.791c-.157-1.444-.947-2.169-2.367-2.169-1.297 0-2.108.725-2.422 2.172l-.003-.003zm6.886 1.742h-6.965c.042.788.309 1.402.8 1.84.492.425 1.151.637 1.988.637 1.036 0 1.826-.292 2.367-.823l.889 1.752c-.785.664-1.988.982-3.583.982-1.491 0-2.668-.451-3.531-1.327-.863-.892-1.282-2.124-1.282-3.712 0-1.566.471-2.827 1.438-3.796.957-.966 2.092-1.45 3.426-1.45 1.412 0 2.55.425 3.408 1.282.85.85 1.282 1.943 1.282 3.265 0 .284-.068.717-.196 1.288l-.042.061zm5.498 5.833c-.243.658-.764 1.205-1.561 1.641-.8.451-1.726.664-2.791.664v-2.044c1.752 0 2.642-.425 2.642-1.327 0-.584-.235-1.487-.732-2.708l-3.06-7.699h2.38l2.655 6.823 2.39-6.826h2.354l-4.274 11.49-.003-.013zM34.294 31.055l-3.962-6.101 3.254-3.796h2.723l-3.295 3.749 3.97 6.149h-2.694.005zm-4.281 0h-2.275v-13.593l2.275-.552v14.145z" fill="#1B407D" fill-rule="nonzero"/><path d="M58.748 10.241c-.018-.173-.065-.358-.141-.531-.429-1.349-1.538-2.888-3.784-4.248-1.465-.876-2.354-.361-1.962 1.049.235.876.68 1.327.863 2.283.183.956-.785 2.389.418 3.372-.392.796-.758 1.646-1.02 2.363-.34.903-.052 1.943 1.622 1.946 3.818 0 4.551-3.629 3.965-6.281l.039.048z" fill="url(#a)"/><path d="M67.522 10.867c-2.537-.629-4.394-.319-5.631.345-.173.066-.332.165-.466.279-2.241 1.479-4.224 4.593-1.491 7.301 1.208 1.2 2.139.653 2.511-.231.306-.717.638-1.566.91-2.427 1.53.154 1.852-1.566 2.636-2.116.779-.547 1.404-.573 2.192-1.03 1.255-.743.981-1.726-.662-2.124v.003z" fill="url(#b)"/><path d="M25.878 18.088c0 .69-.549 1.248-1.224 1.248-.675 0-1.221-.558-1.221-1.248 0-.682.549-1.24 1.221-1.24.68 0 1.224.558 1.224 1.242v-.003z" fill="#1B407D" fill-rule="nonzero"/></g></svg>