<svg width="70" height="40" viewBox="0 0 70 40" xmlns="http://www.w3.org/2000/svg"><title>u-pas</title><desc>Created with Sketch.</desc><defs><linearGradient x1="92.898%" y1="107.014%" x2="-16.76%" y2="50%" id="a"><stop stop-color="#E87100" offset="0%"/><stop stop-color="#DD000C" offset="51.487%"/><stop stop-color="#B9006B" offset="100%"/></linearGradient></defs><path d="M47.581 23.386c-1.331-1.941-2.045-4.285-2.045-6.804v-2.052l-.007.003.005-.356.001-.023.002-.186v-8.774000000000001c-.034-1.125-.513-2.181-1.349-2.972-.835-.788-1.93-1.222-3.084-1.222h-.01c-1.152 0-2.244.434-3.075 1.222-.83.788-1.306 1.842-1.34 2.968v8.765c0 1.576-1.306 2.859-2.911 2.859s-2.911-1.283-2.911-2.859v-8.764c-.069-2.309-2.063-4.19-4.444-4.19h-.008c-1.154 0-2.245.435-3.072 1.225-.825.788-1.299 1.842-1.333 2.969v8.77l.021.678.001.024c.368 6.087 5.528 10.857 11.747 10.857 2.055 0 4.08-.53 5.855-1.534l.105-.06.105.06c1.78 1.009 3.812 1.543 5.877 1.543 1.118 0 2.222-.154 3.288-.458l-.025-.025.007-.002c-.523-.512-.991-1.068-1.401-1.663zm-23.271 6.949c.489-.632 1.191-.947 2.106-.947.879 0 1.57.269 2.072.807.503.538.772 1.305.809 2.301l.013.494-.013.507c-.036.961-.308 1.717-.815 2.268-.508.552-1.196.827-2.066.827-.879 0-1.536-.293-1.97-.88v2.949c0 .098-.032.178-.096.24-.063.062-.145.093-.245.093h-1.753c-.1 0-.184-.032-.252-.093-.068-.063-.102-.143-.102-.24v-8.807c0-.098.034-.178.102-.24.068-.062.152-.093.252-.093h1.617c.1 0 .181.031.244.093.064.063.096.143.096.24v.48zm.455 4.063c.195.226.482.34.863.34.408 0 .7-.118.877-.353.177-.236.279-.563.306-.981l.013-.413-.013-.414c-.027-.418-.13-.745-.306-.981-.177-.236-.469-.354-.877-.354-.39 0-.68.123-.869.367-.191.245-.295.554-.312.928l-.014.507.014.494c.018.346.124.633.319.861zm15.854-4.704c.467-.204 1.026-.306 1.679-.306.661 0 1.234.1 1.719.3.485.2.854.441 1.107.721.254.28.381.536.381.767 0 .08-.029.151-.088.214-.059.062-.129.093-.21.093h-1.495c-.082 0-.145-.018-.19-.053-.108-.054-.217-.12-.326-.2-.163-.107-.306-.189-.428-.247-.123-.058-.279-.086-.469-.086-.227 0-.404.049-.53.147-.127.098-.191.222-.191.374 0 .133.038.243.116.327.077.085.236.167.476.247.24.08.604.165 1.094.254.887.151 1.533.42 1.936.807.403.387.605.839.605 1.355 0 .667-.301 1.199-.904 1.594-.602.396-1.447.594-2.534.594-.743 0-1.363-.102-1.861-.307-.498-.205-.868-.449-1.108-.734-.24-.285-.359-.543-.359-.774 0-.089.033-.162.101-.22.068-.058.142-.087.224-.087h1.644l.136.053.258.173c.172.125.333.22.483.287.149.067.328.1.536.1.245 0 .446-.047.605-.14.159-.093.238-.225.238-.394 0-.142-.044-.258-.129-.347-.087-.089-.249-.176-.489-.26-.24-.085-.605-.171-1.094-.26-1.567-.311-2.351-1.023-2.351-2.135 0-.364.12-.714.36-1.047.24-.334.593-.603 1.06-.808zm-9.326.501c.503-.539 1.194-.807 2.073-.807.915 0 1.617.316 2.106.947v-.48c0-.098.032-.178.095-.24s.145-.093.245-.093h1.617c.1 0 .184.031.252.093.068.063.102.143.102.24v6.408c0 .098-.034.178-.102.24-.068.062-.152.093-.252.093h-1.753c-.099 0-.181-.031-.244-.093s-.095-.142-.095-.24v-.55c-.435.587-1.091.88-1.97.88-.87 0-1.558-.276-2.066-.827-.507-.551-.779-1.308-.815-2.268l-.013-.507.013-.494c.036-.996.306-1.763.808-2.301zm1.877 4.203c.219.227.544.34.974.34.46 0 .79-.118.99-.353.2-.236.315-.563.346-.981l.015-.413-.015-.414c-.031-.418-.146-.745-.346-.981-.199-.236-.529-.354-.99-.354-.44 0-.767.122-.982.367-.215.245-.367.559-.387.933l-.016.507.016.494c.02.347.175.629.395.856z" fill="url(#a)" fill-rule="nonzero"/></svg>