<svg width="60" height="40" viewBox="0 0 60 40" xmlns="http://www.w3.org/2000/svg"><title>van-lanschot</title><desc>Created with Sketch.</desc><g fill="none"><path d="M30.305 39.603c.227 0 .386-.113.454-.203l.409-.541c.794-.924 2.996-2.862 7.694-2.997 6.037-.203 6.423-4.259 6.423-5.859v-29.791l-29.983.023v29.791c0 1.6.386 5.656 6.423 5.859 4.698.113 6.9 2.073 7.694 2.997l.409.541c.091.068.25.18.477.18z" id="Shape" fill="#639653"/><path id="Shape" fill="#fff" d="M31.326 13.192v.856h.908v-.856h1.226v1.532h-6.287v-1.532h1.203v.856h.908v-.856zM30.078 12.787v-.023c0-.068-.023-.203-.159-.293-.204-.113-1.248-.834-1.453-1.87-.113-.541-.113-1.014.113-1.307.068-.09.182-.225.182-.293l-.25-.789c-.023-.248-.045-.654.136-.856.182-.225.363-.18.295-.406-.045-.158-.159-.428-.159-.789 0-.248.045-.631.318-.721.227-.068.272-.113.295-.158.023-.045 0-.631.045-.901.045-.225.159-.924.772-.992h.182c.613.068.726.766.772.992.045.27.023.856.045.901.023.045.068.09.295.158.272.09.34.496.34.721 0 .361-.113.631-.159.789-.068.225.113.18.295.406.182.225.159.631.136.856l-.25.789c0 .068.113.203.182.293.204.27.227.744.113 1.307-.182 1.037-1.248 1.78-1.453 1.87-.136.068-.159.203-.159.293v.023h-.477zM30.305 15.716h2.565l.34-.563h-5.81l.34.563zM30.305 22.792h3.586l.681 4.552h-2.769l-.409-1.961s-.136-.586-1.067-.586c-.931 0-1.067.586-1.067.586l-.409 1.961h-2.769l.681-4.552h3.541"/><path id="Shape" fill="#fff" d="M33.664 22.341l-.295-.586h-6.128l-.295.586zM24.29 11.142h.091c.636.068.772.811.817 1.059.045.27.023.924.045.946.023.045.091.09.318.18.295.09.363.518.363.789 0 .406-.113.676-.159.834-.068.225.113.203.318.451.204.225.182.676.136.924-.045.293-.272.721-.272.856 0 .068.136.203.204.293.227.315.25.811.113 1.397-.204 1.104-1.316 1.893-1.521 2.028-.159.09-.136.315-.136.383v4.417h-.613v-4.417c0-.068.023-.293-.136-.383-.204-.135-1.316-.901-1.521-2.028-.113-.586-.113-1.082.113-1.397.068-.09.204-.225.204-.293 0-.135-.227-.563-.272-.856-.045-.248-.068-.699.136-.924.204-.248.386-.203.318-.451-.045-.158-.159-.451-.159-.834 0-.27.068-.699.363-.789.227-.068.295-.135.318-.18.023-.045 0-.676.045-.946.045-.248.182-.992.817-1.059h.068zM36.32 11.142h-.091c-.658.068-.794.811-.817 1.059-.045.27-.023.924-.045.946-.023.045-.068.09-.318.18-.295.09-.363.518-.363.789 0 .406.113.676.159.834.068.225-.113.203-.318.451-.204.225-.182.676-.136.924.045.293.272.721.272.856 0 .068-.136.203-.204.293-.227.315-.25.811-.113 1.397.227 1.104 1.316 1.893 1.521 2.028.159.09.136.315.136.383v4.417h.613v-4.417c0-.068-.023-.293.136-.383.227-.135 1.316-.901 1.521-2.028.113-.586.113-1.082-.113-1.397-.068-.09-.204-.225-.204-.293 0-.135.227-.563.272-.856.045-.248.068-.699-.136-.924-.204-.248-.386-.203-.318-.451.045-.158.159-.451.159-.834 0-.27-.068-.699-.363-.789-.227-.068-.295-.135-.318-.18-.023-.045 0-.676-.045-.946-.045-.248-.182-.992-.817-1.059h-.068zM32.666 16.122h-4.721l-.477 5.206h5.697l-.499-5.206zm-3.359 3.245h-.862v-1.622h.862v1.622zm2.883 0h-.862v-1.622h.862v1.622zM31.326 13.192v.856h.908v-.856h1.226v1.532h-6.287v-1.532h1.203v.856h.908v-.856zM30.078 12.787v-.023c0-.068-.023-.203-.159-.293-.204-.113-1.248-.834-1.453-1.87-.113-.541-.113-1.014.113-1.307.068-.09.182-.225.182-.293l-.25-.789c-.023-.248-.045-.654.136-.856.182-.225.363-.18.295-.406-.045-.158-.159-.428-.159-.789 0-.248.045-.631.318-.721.227-.068.272-.113.295-.158.023-.045 0-.631.045-.901.045-.225.159-.924.772-.992h.182c.613.068.726.766.772.992.045.27.023.856.045.901.023.045.068.09.295.158.272.09.34.496.34.721 0 .361-.113.631-.159.789-.068.225.113.18.295.406.182.225.159.631.136.856l-.25.789c0 .068.113.203.182.293.204.27.227.744.113 1.307-.182 1.037-1.248 1.78-1.453 1.87-.136.068-.159.203-.159.293v.023h-.477zM30.305 15.716h2.565l.34-.563h-5.81l.34.563zM30.305 22.792h3.586l.681 4.552h-2.769l-.409-1.961s-.136-.586-1.067-.586c-.931 0-1.067.586-1.067.586l-.409 1.961h-2.769l.681-4.552h3.541"/><path fill="#fff" d="M33.664 22.341l-.295-.586h-6.128l-.295.586zM24.29 11.142h.091c.636.068.772.811.817 1.059.045.27.023.924.045.946.023.045.091.09.318.18.295.09.363.518.363.789 0 .406-.113.676-.159.834-.068.225.113.203.318.451.204.225.182.676.136.924-.045.293-.272.721-.272.856 0 .068.136.203.204.293.227.315.25.811.113 1.397-.204 1.104-1.316 1.893-1.521 2.028-.159.09-.136.315-.136.383v4.417h-.613v-4.417c0-.068.023-.293-.136-.383-.204-.135-1.316-.901-1.521-2.028-.113-.586-.113-1.082.113-1.397.068-.09.204-.225.204-.293 0-.135-.227-.563-.272-.856-.045-.248-.068-.699.136-.924.204-.248.386-.203.318-.451-.045-.158-.159-.451-.159-.834 0-.27.068-.699.363-.789.227-.068.295-.135.318-.18.023-.045 0-.676.045-.946.045-.248.182-.992.817-1.059h.068zM36.32 11.142h-.091c-.658.068-.794.811-.817 1.059-.045.27-.023.924-.045.946-.023.045-.068.09-.318.18-.295.09-.363.518-.363.789 0 .406.113.676.159.834.068.225-.113.203-.318.451-.204.225-.182.676-.136.924.045.293.272.721.272.856 0 .068-.136.203-.204.293-.227.315-.25.811-.113 1.397.227 1.104 1.316 1.893 1.521 2.028.159.09.136.315.136.383v4.417h.613v-4.417c0-.068-.023-.293.136-.383.227-.135 1.316-.901 1.521-2.028.113-.586.113-1.082-.113-1.397-.068-.09-.204-.225-.204-.293 0-.135.227-.563.272-.856.045-.248.068-.699-.136-.924-.204-.248-.386-.203-.318-.451.045-.158.159-.451.159-.834 0-.27-.068-.699-.363-.789-.227-.068-.295-.135-.318-.18-.023-.045 0-.676-.045-.946-.045-.248-.182-.992-.817-1.059h-.068zM32.666 16.122h-4.721l-.477 5.206h5.697l-.499-5.206zm-3.359 3.245h-.862v-1.622h.862v1.622zm2.883 0h-.862v-1.622h.862v1.622zM27.014 29.147v2.479l.045.068.409.023v.248h-1.589v-.248l.431-.023.045-.068v-1.915l-.045-.045-.545.09v-.248l.862-.315h.386zM32.302 31.175c0 .473-.431.811-1.135.811-.567 0-.885-.248-.885-.563 0-.203.136-.361.34-.361l.204.045.136.541.204.023c.272 0 .454-.203.454-.518 0-.293-.204-.496-.499-.496l-.272.023v-.361l.136.023c.34 0 .545-.18.545-.451 0-.315-.182-.496-.499-.496h-.068v.586c-.091.045-.182.068-.272.068-.204 0-.34-.135-.34-.338 0-.338.363-.608.953-.608.567 0 .908.293.908.699 0 .338-.25.586-.704.654.522.068.794.338.794.721zM33.097 32.009l1.203-2.231h-.999l-.068.383h-.318v-.992h1.952v.361l-1.294 2.479zM28.126 32.009l1.203-2.231h-1.021l-.068.383h-.318v-.992h1.952v.361l-1.271 2.479z"/></g></svg>