<?xml version="1.0" encoding="UTF-8"?>
<svg width="320px" height="200px" viewBox="0 0 320 200" version="1.1" xmlns="http://www.w3.org/2000/svg" xmlns:xlink="http://www.w3.org/1999/xlink">
    <!-- Generator: Sketch 49.3 (51167) - http://www.bohemiancoding.com/sketch -->
    <title>triodos</title>
    <desc>Created with Sketch.</desc>
    <defs>
        <polygon id="path-1" points="0.00436548223 36.995739 42.9963621 36.995739 42.9963621 0.00113627639 0.00436548223 0.00113627639"></polygon>
    </defs>
    <g id="triodos" stroke="none" stroke-width="1" fill="none" fill-rule="evenodd">
        <g id="Group" opacity="0.751981431" fill="#94B52B">
            <g id="Rectangle-2">
                <rect x="0" y="0" width="320" height="200" rx="25"></rect>
            </g>
        </g>
        <g id="Triodos_Bank-(1)" transform="translate(25.000000, 25.000000)">
            <path d="M69.2361404,12.3856364 C69.2271345,9.25118182 64.6014035,9.60054545 64.6276023,7.45609091 C64.6014035,6.72463636 65.1147368,6.16990909 65.7304094,6.15927273 C67.2736842,6.16990909 67.7264327,7.83327273 67.8083041,8.49436364 L68.5877193,8.49436364 C68.6106433,7.66963636 68.588538,6.76472727 68.3920468,5.96454545 C67.8901754,5.697 67.0059649,5.38854545 65.9260819,5.38036364 C62.2582456,5.38854545 62.2582456,7.91509091 62.2254971,8.10409091 C62.2582456,11.3678182 66.8831579,10.7713636 66.8995322,13.23 C66.8831579,13.9565455 66.3894737,14.5726364 65.5363743,14.5930909 C63.9840936,14.5726364 63.0589474,12.9289091 62.9394152,11.8014545 L62.0961404,11.8014545 C62.114152,13.0311818 62.2778947,13.8943636 62.4850292,14.7223636 C63.2235088,15.0856364 64.1077193,15.3523636 65.3415205,15.3711818 C68.0956725,15.3523636 69.2271345,13.9761818 69.2361404,12.3856364 Z M60.7976608,10.1798182 C60.777193,6.86781818 58.3505263,5.38854545 55.6692398,5.38036364 C53.0673684,5.38854545 50.4368421,6.94963636 50.4106433,10.5054545 C50.4368421,13.9344545 52.8823392,15.3523636 55.5390643,15.3711818 C58.1450292,15.3523636 60.777193,13.833 60.7976608,10.1798182 Z M50.0864327,14.4613636 L50.0209357,13.9434545 L49.5665497,13.9434545 C48.6684211,13.9344545 48.6684211,13.4615455 48.6585965,11.8014545 L48.6585965,0.253636364 C47.5590643,0.252 46.6330994,0.376363636 44.9580117,0.707727273 L44.9580117,1.22727273 C45.0087719,1.25918182 45.2560234,1.21745455 45.477076,1.22727273 C46.2024561,1.21745455 46.2024561,2.01927273 46.1909942,3.82336364 L46.1909942,5.50881818 C45.8111111,5.44990909 45.4418713,5.38854545 44.8278363,5.38036364 C43.1388304,5.38854545 38.9453801,6.066 38.9208187,10.7631818 C38.9453801,13.8943636 41.2066667,15.3523636 43.4646784,15.3711818 C44.8032749,15.3523636 45.791462,14.6945455 46.3211696,14.3967273 L46.8402339,15.3711818 C47.9291228,15.147 49.0597661,14.8999091 50.0864327,14.4613636 Z M37.2326316,10.1798182 C37.2588304,6.86781818 34.8329825,5.38854545 32.1688889,5.38036364 C29.5498246,5.38854545 26.9184795,6.94963636 26.9111111,10.5054545 C26.9184795,13.9344545 29.3639766,15.3523636 31.9748538,15.3711818 C34.6266667,15.3523636 37.2588304,13.833 37.2326316,10.1798182 Z M24.4443275,2.20172727 C24.4721637,1.44327273 23.8139181,0.806727273 23.0164912,0.837818182 C22.2108772,0.806727273 21.594386,1.44327273 21.5878363,2.20172727 C21.594386,3.06654545 22.2108772,3.68263636 23.0164912,3.69245455 C23.8139181,3.68263636 24.4721637,3.08863636 24.4443275,2.20172727 Z M25.6781287,15.0471818 L25.6781287,14.526 L25.222924,14.4613636 C24.5139181,14.4073636 24.4107602,14.1815455 24.3796491,13.1007273 L24.3796491,5.38036364 C23.3407018,5.44990909 22.2108772,5.61354545 20.6790643,6.15927273 L20.6790643,6.74263636 C20.7502924,6.70254545 21.017193,6.60027273 21.3283041,6.61254545 C21.9439766,6.60027273 21.9439766,7.52481818 21.9128655,8.235 L21.9128655,13.1007273 C21.9439766,14.1815455 21.84,14.4073636 21.0687719,14.4613636 L20.6790643,14.526 L20.6790643,15.0471818 L25.6781287,15.0471818 Z M19.705614,6.28690909 C19.3945029,5.98418182 18.8795322,5.38854545 18.0174269,5.38036364 C16.968655,5.38854545 16.105731,6.37527273 15.6808187,6.80645455 C15.6947368,6.19036364 15.5907602,5.75836364 15.5506433,5.38036364 C14.0491228,5.61354545 13.6168421,5.75836364 12.045731,6.28690909 L12.045731,6.80645455 C12.1980117,6.76472727 12.425614,6.68290909 12.7596491,6.67636364 C13.3499415,6.68290909 13.3499415,7.60827273 13.3433918,8.298 L13.3433918,13.1007273 C13.3499415,14.1815455 13.2476023,14.4073636 12.500117,14.4613636 L12.045731,14.526 L12.045731,15.0471818 L17.4983626,15.0471818 L17.4983626,14.526 L16.654269,14.3967273 C15.8167251,14.3050909 15.8167251,14.0383636 15.8101754,12.582 L15.8101754,7.58618182 C16.0844444,7.25890909 16.3316959,7.17545455 16.654269,7.19509091 C16.9277193,7.17545455 18.1197661,7.66963636 18.4718129,7.78090909 C19.1063158,7.299 19.3945029,6.94963636 19.705614,6.28690909 Z M12.4354386,4.99090909 C12.4452632,4.68981818 12.2602339,1.93745455 12.1750877,1.48663636 L0.74994152,1.48663636 C0.666432749,1.93745455 0.481403509,4.68981818 0.490409357,4.99090909 L1.20432749,4.99090909 C1.75614035,2.799 1.98210526,2.26554545 4.32035088,2.26554545 L5.09976608,2.26554545 L5.09976608,12.0608182 C5.12678363,14.1619091 5.12678363,14.2838182 3.80128655,14.4613636 L3.28140351,14.526 L3.28140351,15.0471818 L9.64362573,15.0471818 L9.64362573,14.526 L9.12374269,14.4613636 C7.79988304,14.2838182 7.79988304,14.1619091 7.82608187,12.0608182 L7.82608187,2.26554545 L8.60467836,2.26554545 C10.9445614,2.26554545 11.1705263,2.799 11.7207018,4.99090909 L12.4354386,4.99090909 Z M58.1360234,10.6339091 C58.1450292,12.2293636 57.6939181,14.5726364 55.7985965,14.5930909 C53.8083041,14.5726364 53.0673684,12.2089091 53.0722807,10.0513636 C53.0673684,8.34627273 53.5823392,6.16990909 55.474386,6.15927273 C57.528538,6.16990909 58.1450292,8.44936364 58.1360234,10.6339091 Z M46.1909942,13.8141818 C45.9748538,13.9761818 45.5433918,14.1619091 45.0226901,14.1373636 C43.3647953,14.1619091 41.5759064,12.5582727 41.5824561,9.79036364 C41.5759064,7.70972727 42.6238596,6.16990909 44.4389474,6.15927273 C45.4197661,6.16990909 45.8111111,6.53890909 46.1909942,6.87272727 L46.1909942,13.8141818 Z M34.6364912,10.6339091 C34.6266667,12.2293636 34.1755556,14.5726364 32.234386,14.5930909 C30.2899415,14.5726364 29.5498246,12.2089091 29.5727485,10.0513636 C29.5498246,8.34627273 30.0639766,6.16990909 31.9101754,6.15927273 C34.0101754,6.16990909 34.6266667,8.44936364 34.6364912,10.6339091 Z M139.735556,15.0471818 L139.735556,14.526 C138.933216,14.5112727 138.749006,14.3050909 135.451228,9.14154545 C137.761637,6.786 137.783743,6.47754545 139.021637,6.28690909 L139.411345,6.22227273 L139.411345,5.70272727 L134.866667,5.70272727 L134.866667,6.22227273 L135.515906,6.28690909 C135.809825,6.354 136.158596,6.41536364 136.165146,6.61254545 C136.158596,6.88827273 135.953099,7.17545455 135.256374,8.04027273 L134.541637,8.81672727 C133.794152,9.66190909 133.36269,9.702 132.594737,9.72572727 L132.594737,0.253636364 C131.513216,0.252 130.587251,0.376363636 128.894971,0.707727273 L128.894971,1.22727273 C128.963743,1.25918182 129.209357,1.21745455 129.478713,1.22727273 C130.155789,1.21745455 130.155789,2.01927273 130.127953,3.82336364 L130.127953,13.1007273 C130.155789,14.1815455 130.032164,14.4073636 129.28386,14.4613636 L128.894971,14.526 L128.894971,15.0471818 L133.892398,15.0471818 L133.892398,14.526 L133.43883,14.4613636 C132.725731,14.4073636 132.622573,14.1815455 132.594737,13.1007273 L132.594737,10.5054545 L132.854269,10.5054545 C133.712281,10.4841818 133.732749,11.0380909 134.801988,12.6466364 C135.871228,14.2838182 135.994035,15.0447273 138.177544,15.0471818 L139.735556,15.0471818 Z M128.050058,15.0471818 L128.050058,14.526 L127.660351,14.4613636 C126.907953,14.4073636 126.804795,14.1815455 126.817076,13.1007273 L126.817076,9.07854545 C126.804795,6.27218182 125.551345,5.38854545 123.701053,5.38036364 C121.953099,5.38854545 120.967368,6.12818182 120.455673,6.61254545 L120.455673,5.38036364 C119.383158,5.44990909 118.294269,5.61354545 116.755088,6.15927273 L116.755088,6.74263636 C116.833684,6.70254545 117.101404,6.60027273 117.404327,6.61254545 C118.027368,6.60027273 118.027368,7.52481818 118.053567,8.235 L118.053567,13.1007273 C118.027368,14.1815455 117.923392,14.4073636 117.209474,14.4613636 L116.820585,14.526 L116.820585,15.0471818 L121.753333,15.0471818 L121.753333,14.526 L121.364444,14.4613636 C120.596491,14.4073636 120.494152,14.1815455 120.520351,13.1007273 L120.520351,7.39145455 C120.823275,7.011 121.356257,6.58063636 122.207719,6.61254545 C124.338012,6.58063636 124.338012,8.55163636 124.350292,10.1798182 L124.350292,13.1007273 C124.338012,14.1815455 124.234035,14.4073636 123.506199,14.4613636 L123.051813,14.526 L123.051813,15.0471818 L128.050058,15.0471818 Z M116.105848,14.8524545 L116.04117,14.5930909 L115.910994,14.5930909 C114.572398,14.5930909 114.572398,13.0720909 114.547836,11.6067273 L114.547836,9.07854545 C114.572398,6.72463636 114.119649,5.38854545 111.561988,5.38036364 C109.453801,5.38854545 108.034971,6.55936364 107.082807,7.58618182 C107.274386,8.05909091 107.377544,8.22436364 107.66655,8.62363636 L107.862222,8.62363636 C108.138129,7.99690909 108.734971,6.58063636 110.328187,6.61254545 C111.77731,6.58063636 112.105614,7.66963636 112.081053,8.88381818 L112.081053,9.40254545 C110.399415,9.82636364 106.78152,10.5242727 106.757778,13.1007273 C106.78152,14.4286364 107.871228,15.3523636 109.484912,15.3711818 C110.914386,15.3523636 111.756842,14.7158182 112.340585,14.3320909 C112.660702,14.8180909 113.031579,15.3523636 114.352982,15.3711818 C115.251111,15.3523636 115.847953,14.9833636 116.105848,14.8524545 Z M105.459298,11.1542727 C105.465848,8.65472727 103.266784,7.83327273 102.019064,7.64918182 L102.019064,7.58618182 C103.080936,7.27936364 104.807602,6.51845455 104.810877,4.34209091 C104.807602,1.485 101.394386,1.485 100.396374,1.48663636 L94.2945029,1.48663636 L94.2945029,2.007 L94.7488889,2.07081818 C95.7419883,2.205 95.7419883,2.205 95.7223392,4.47218182 L95.7223392,11.9961818 C95.7419883,14.3247273 95.7624561,14.3247273 94.7488889,14.4613636 L94.2945029,14.526 L94.2945029,15.0471818 L99.6169591,15.0471818 C102.690409,15.0447273 105.465848,14.1815455 105.459298,11.1542727 Z M112.211228,13.6832727 C112.023743,13.7912727 111.633216,14.1619091 110.912749,14.1373636 C110.008889,14.1619091 109.413684,13.4222727 109.419415,12.4519091 C109.413684,10.9145455 110.708889,10.2984545 111.886199,10.3107273 C111.962339,10.2984545 112.023743,10.3180909 112.081053,10.3107273 L112.081053,12.582 C112.105614,12.9493636 112.167836,13.4615455 112.211228,13.6832727 Z M102.14924,4.79536364 C102.135322,7.03145455 100.737778,7.46427273 99.1625731,7.45609091 L98.3839766,7.45609091 L98.3839766,2.39563636 C98.7638596,2.30645455 99.1134503,2.26554545 99.4876023,2.26554545 C101.045614,2.26554545 102.135322,3.23181818 102.14924,4.79536364 Z M102.79848,11.4774545 C102.793567,13.0925455 101.97076,14.2633636 100.072164,14.2666364 C99.5244444,14.2633636 98.9497076,14.1398182 98.3839766,13.9434545 L98.3839766,8.235 L99.2927485,8.235 C101.785731,8.24481818 102.793567,9.846 102.79848,11.4774545 L102.79848,11.4774545 Z" id="Fill-2" fill="#002C66"></path>
            <path d="M91.0483041,9.40254545 C91.0777778,6.90790909 90.0077193,4.48445455 88.5815205,3.04527273 C87.6850292,2.14281818 86.8630409,1.58809091 85.6603509,1.03172727 L85.5301754,1.29354545 C86.1024561,1.62818182 86.5756725,1.99963636 87.1528655,2.52409091 C88.7133333,4.07372727 89.7408187,6.70254545 89.7498246,8.88381818 C89.7408187,9.18981818 89.7408187,9.62018182 89.6851462,9.98509091 C89.3715789,9.06545455 88.8361404,8.28572727 88.1271345,7.58618182 C87.9322807,7.36118182 87.6449123,7.07318182 87.4132164,6.93654545 C87.3976608,7.42254545 87.1921637,8.49109091 86.9588304,9.07854545 C87.2535673,9.35345455 87.4181287,9.53836364 87.7374269,9.79036364 C88.3637427,10.4841818 88.7952047,11.3457273 88.7763743,12.0608182 C88.7952047,12.4764545 88.6109942,12.9076364 88.2564912,13.23 C87.9519298,13.5654545 87.2740351,13.8109091 86.5691228,13.8141818 C85.7946199,13.8109091 84.6017544,13.3797273 83.9721637,12.9043636 C85.2387135,11.655 86.000117,10.2788182 86.5044444,8.55818182 C86.677193,7.81281818 86.7803509,7.07318182 86.7639766,6.35236364 C86.7803509,4.99745455 86.4520468,3.72436364 85.8552047,2.72045455 C84.9505263,1.116 83.5538012,0.211090909 81.7002339,0.190636364 C79.5445614,0.211090909 77.5084211,1.27963636 75.9880702,2.84890909 C74.2409357,4.58672727 73.377193,6.74427273 73.3911111,8.94681818 C73.377193,9.35345455 73.3968421,9.72409091 73.4557895,10.1798182 L73.7161404,10.1798182 C73.7267836,9.49745455 73.808655,8.88054545 73.9756725,8.10409091 C74.3432749,6.74427273 75.2888889,5.22490909 76.5071345,4.01809091 C77.3446784,3.17045455 78.2911111,2.55354545 79.1687719,2.20172727 C78.5367251,2.943 78.1052632,3.78654545 77.805614,4.72990909 C77.7564912,5.01872727 77.6746199,5.43027273 77.6754386,5.70272727 C78.085614,5.47036364 79.1130994,5.10136364 79.7525146,4.99090909 C79.9154386,4.05409091 80.2642105,3.00436364 80.9863158,2.33018182 C81.3129825,1.95790909 81.7231579,1.73209091 82.220117,1.74763636 C83.0191813,1.73209091 83.6356725,2.30645455 84.0368421,2.97818182 C84.4159064,3.64254545 84.6631579,4.85345455 84.5567251,5.70272727 C83.697076,5.43027273 82.8750877,5.30672727 82.0244444,5.31409091 C81.2302924,5.30672727 80.4083041,5.43027273 79.4929825,5.70272727 C78.085614,6.066 76.7699415,6.80645455 75.7932164,7.78090909 C74.8164912,8.757 74.0354386,10.1544545 74.0403509,11.6067273 C74.0354386,13.0925455 74.7960234,14.3451818 75.7932164,15.3711818 C77.4887719,17.0582727 79.894152,17.9214545 82.2847953,17.9001818 C84.1702924,17.9214545 85.8764912,17.2628182 87.4132164,16.1500909 L87.2830409,15.9537273 C86.0607018,16.605 84.7671345,16.9339091 83.3237427,16.9265455 C81.3129825,16.9339091 79.1532164,16.3178182 77.6754386,15.1764545 C78.085614,15.2288182 78.4761404,15.2705455 78.8437427,15.2394545 C79.5642105,15.2705455 80.8192982,15.0856364 81.4407018,14.7223636 C81.065731,14.4695455 80.242924,13.7503636 79.8180117,13.23 C79.1949708,13.4836364 78.434386,13.6677273 77.740117,13.6832727 C77.1195322,13.6677273 76.4187135,13.5237273 75.9880702,13.0336364 C75.7007018,12.744 75.5345029,12.3529091 75.5336842,11.9331818 C75.5345029,11.079 76.0077193,10.3606364 76.5718129,9.79036364 C76.9950877,9.33381818 77.5501754,8.94272727 78.0004678,8.75209091 C78.4548538,10.4841818 79.257193,11.88 80.5319298,13.1637273 C82.0727485,14.6749091 84.1088889,15.5380909 85.919883,15.5659091 C87.2535673,15.5585455 88.4054971,15.1674545 89.360117,14.202 C90.3990643,13.1547273 91.0777778,11.3056364 91.0483041,9.40254545 Z M84.297193,7.974 C83.8608187,9.31336364 83.0609357,10.5242727 82.0899415,11.4774545 C81.1484211,10.4620909 80.5106433,9.14727273 80.2077193,7.84390909 C80.7374269,7.70972727 81.3129825,7.64836364 81.8950877,7.64918182 C82.7097076,7.64836364 83.5120468,7.77190909 84.297193,7.974 L84.297193,7.974 Z" id="Fill-3" fill="#00937B"></path>
        </g>
        <g id="iDeal_betalen-cmyk" transform="translate(261.000000, 16.000000)">
            <g id="Group-3">
                <mask id="mask-2" fill="white">
                    <use xlink:href="#path-1"></use>
                </mask>
                <g id="Clip-2"></g>
                <path d="M0,0.00113627639 L0,37 L22.0977073,37 C36.6751438,37 42.9963621,29.0302284 42.9963621,18.4634971 C42.9963621,7.93866603 36.6751438,0.00113627639 22.0977073,0.00113627639 L0,0.00113627639" id="Fill-1" fill="#FFFFFE" mask="url(#mask-2)"></path>
            </g>
            <path d="M4.29956345,4.20202111 L4.29956345,32.7991152 L22.1007631,32.7991152 C32.8481438,32.7991152 38.6968714,27.9119904 38.6968714,18.4634971 C38.6968714,8.7550096 32.3584822,4.20202111 22.1007631,4.20202111 L4.29956345,4.20202111 Z M2.38799154,2.33540307 L22.1007631,2.33540307 C35.4811844,2.33540307 40.6072792,9.46745489 40.6072792,18.4634971 C40.6072792,29.2510211 33.4466514,34.6643129 22.1007631,34.6643129 L2.38799154,34.6643129 L2.38799154,2.33540307 L2.38799154,2.33540307 Z" id="Fill-4" fill="#1A1919"></path>
            <polygon id="Fill-5" fill="#1A1919" points="6.68748223 30.4671209 12.385819 30.4671209 12.385819 20.5675969 6.68748223 20.5675969"></polygon>
            <path d="M13.0773113,15.5790595 C13.0773113,17.488572 11.4926413,19.0364645 9.53581387,19.0364645 C7.5806599,19.0364645 5.99482572,17.488572 5.99482572,15.5790595 C5.99482572,13.6706833 7.5806599,12.1227908 9.53581387,12.1227908 C11.4926413,12.1227908 13.0773113,13.6706833 13.0773113,15.5790595" id="Fill-6" fill="#1A1919"></path>
            <path d="M15.2536497,13.9678906 L15.2536497,17.1949155 L16.2678968,17.1949155 C16.9715398,17.1949155 17.6208325,16.9955701 17.6208325,15.5539194 C17.6208325,14.1481324 16.8994365,13.9678906 16.2678968,13.9678906 L15.2536497,13.9678906 Z M32.182335,12.3614798 L33.8244839,12.3614798 L33.8244839,17.1949155 L36.2558393,17.1949155 C35.5899577,8.42676775 28.5241337,6.53152975 22.1025821,6.53152975 L15.2554687,6.53152975 L15.2554687,12.3651017 L16.2678968,12.3651017 C18.1166785,12.3651017 19.2629086,13.587167 19.2629086,15.5539194 C19.2629086,17.5840192 18.1440355,18.7965681 16.2678968,18.7965681 L15.2554687,18.7965681 L15.2554687,30.4683282 L22.1025821,30.4683282 C32.5413232,30.4683282 36.174423,25.7350979 36.3022589,18.7952898 L32.182335,18.7952898 L32.182335,12.3614798 Z M27.6076734,15.9525393 L28.7966853,15.9525393 L28.2520914,14.1337159 L28.1530677,14.1337159 L27.6076734,15.9525393 Z M25.046736,18.7988407 L27.0360863,12.3614798 L29.371401,12.3614798 L31.3571134,18.7988407 L29.6483181,18.7988407 L29.2765973,17.5529846 L27.1289983,17.5529846 L26.7555313,18.7988407 L25.046736,18.7988407 Z M24.3369814,17.1949155 L24.3369814,18.7965681 L20.2759188,18.7965681 L20.2759188,12.3651017 L24.2061624,12.3651017 L24.2061624,13.9666833 L21.9179222,13.9666833 L21.9179222,14.7101631 L24.0833469,14.7101631 L24.0833469,16.3141593 L21.9179222,16.3141593 L21.9179222,17.1949155 L24.3369814,17.1949155 L24.3369814,17.1949155 Z" id="Fill-7" fill="#C91A68"></path>
        </g>
    </g>
</svg>