<?xml version="1.0" encoding="UTF-8"?>
<svg width="320px" height="200px" viewBox="0 0 320 200" version="1.1" xmlns="http://www.w3.org/2000/svg" xmlns:xlink="http://www.w3.org/1999/xlink">
    <!-- Generator: Sketch 49.3 (51167) - http://www.bohemiancoding.com/sketch -->
    <title>ASN</title>
    <desc>Created with Sketch.</desc>
    <defs>
        <linearGradient x1="50%" y1="100%" x2="50%" y2="2.10459184%" id="linearGradient-1">
            <stop stop-color="#A9C7DD" offset="0%"></stop>
            <stop stop-color="#7BB1DA" offset="100%"></stop>
        </linearGradient>
        <polygon id="path-2" points="0.00436548223 36.995739 42.9963621 36.995739 42.9963621 0.00113627639 0.00436548223 0.00113627639"></polygon>
    </defs>
    <g id="ASN" stroke="none" stroke-width="1" fill="none" fill-rule="evenodd">
        <g id="Group">
            <g>
                <rect id="Rectangle-2" fill="url(#linearGradient-1)" x="0" y="0" width="320" height="200" rx="25"></rect>
                <g id="orca-whale-black-silhouette" opacity="0.266757246" transform="translate(115.969796, 121.142968) rotate(-44.000000) translate(-115.969796, -121.142968) translate(34.469796, 73.142968)">
                    <g id="Слой_1" transform="translate(-0.000000, 0.000000)">
                        <path d="M162.58686,62.7011837 C162.58686,62.7011837 161.569597,61.0299205 161.477073,59.0801694 C161.477073,59.0801694 162.03205,52.1167967 151.76623,43.7606487 C151.76623,43.7606487 134.564116,29.091157 108.761113,21.6635258 C108.761113,21.6635258 104.876776,20.9207795 102.749559,16.0000432 C102.749559,16.0000432 99.6050793,0.680522443 93.9636213,0.587805128 C93.9636213,0.587805128 92.2988574,3.65167568 92.8538345,6.15857047 C92.8538345,6.15857047 89.2469019,15.0716942 89.0620211,18.1355648 C89.0620211,18.1355648 87.6748295,19.5281722 84.9002789,20.8280622 C84.9002789,20.8280622 51.69853,27.6985496 30.1497934,56.6663279 C30.1497934,56.6663279 23.6759534,64.6509347 19.0517582,80.5275992 C19.0517582,80.5275992 2.86707469,82.1988624 1.3500312e-13,87.4909719 C1.3500312e-13,87.4909719 4.71671934,85.6341061 7.30622185,89.2549524 C7.30622185,89.2549524 9.24839056,91.8545645 12.3928701,91.5760766 C12.3928701,91.5760766 9.61831949,92.8759667 9.89572436,95.1970909 C9.89572436,95.1970909 14.5199196,93.7115983 18.2192089,89.9049814 C18.2192089,89.9049814 35.3287984,75.6997481 39.9529937,71.6144754 C39.9529937,71.6144754 47.6291444,64.6511027 58.3572507,63.2584954 C58.3572507,63.2584954 77.03908,59.9161369 91.3741188,60.9373711 C91.3741188,60.9373711 109.686019,62.2372612 111.350616,61.9586053 C111.350616,61.9586053 102.934607,68.7363754 106.171443,71.7073607 C106.171443,71.7073607 118.656837,71.800246 125.870535,65.6723369 C125.870535,65.6723369 127.72018,75.2353217 137.708428,66.5079685 C137.708428,66.5079685 151.395799,68.0588 155.372828,67.7149733 C155.372828,67.7149733 159.904499,67.3436001 160.736881,65.7652222 C160.737215,65.7650542 164.1591,65.0223079 162.58686,62.7011837 Z M90.5417369,60.3268142 C90.5417369,60.3268142 77.8714619,59.8229157 65.4785918,61.4012936 C65.4785918,61.4012936 69.9179062,59.915801 77.8714619,59.8229157 C77.8714619,59.8229157 81.8483234,58.615911 75.0969112,56.0162989 C75.0969112,56.0162989 70.935169,53.6951746 60.4844675,58.7087962 C60.4844675,58.7087962 49.2939083,62.2369252 55.2129385,53.7880599 C55.2129385,53.7880599 67.6983326,39.2112855 82.5881812,47.892448 C82.5881812,47.892448 92.7613104,55.0347047 90.5417369,60.3268142 Z M86.6573994,29.1840422 C78.9812487,20.5494063 56.2302012,34.1047786 56.2302012,34.1047786 C79.7211065,19.5280042 88.9694971,22.034899 88.9694971,22.034899 C101.82482,23.334789 97.5705538,30.4941782 97.5705538,30.4941782 C95.443337,34.5898648 105.709158,34.1047786 105.709158,34.1047786 C92.4839056,36.7974439 86.6573994,29.1840422 86.6573994,29.1840422 Z M150.19399,47.1031751 C156.66783,51.3740504 154.910709,54.3450357 154.910709,54.3450357 C152.506087,56.1090162 148.724313,51.9310261 148.724313,51.9310261 C147.439517,50.5384188 143.905031,46.4531461 143.905031,46.4531461 C138.078525,40.5111755 150.19399,47.1031751 150.19399,47.1031751 Z M145.014817,66.6581302 C145.014817,66.6581302 139.280835,65.8799431 138.078525,65.9728284 C138.078525,65.9728284 142.887768,60.6587153 139.003431,57.2234716 C139.003431,57.2234716 138.057443,55.8308642 140.518784,56.2022374 C140.518784,56.2022374 150.933848,52.5812231 152.96854,58.0591032 C152.96854,58.0591032 151.76623,58.8351068 154.54078,60.1647268 C154.54078,60.1647268 156.760354,62.7013516 159.904833,65.3009638 C159.904833,65.3007958 156.852878,68.4575516 145.014817,66.6581302 Z" id="Shape" fill="#000000"></path>
                        <path d="M145.014817,66.6581302 C145.014817,66.6581302 139.280835,65.8799431 138.078525,65.9728284 C138.078525,65.9728284 142.887768,60.6587153 139.003431,57.2234716 C139.003431,57.2234716 138.057443,55.8308642 140.518784,56.2022374 C140.518784,56.2022374 150.933848,52.5812231 152.96854,58.0591032 C152.96854,58.0591032 151.76623,58.8351068 154.54078,60.1647268 C154.54078,60.1647268 156.760354,62.7013516 159.904833,65.3009638 C159.904833,65.3007958 156.852878,68.4575516 145.014817,66.6581302 Z" id="Path" fill="#FFFFFF"></path>
                        <path d="M150.19399,47.1031751 C156.66783,51.3740504 154.910709,54.3450357 154.910709,54.3450357 C152.506087,56.1090162 148.724313,51.9310261 148.724313,51.9310261 C147.439517,50.5384188 143.905031,46.4531461 143.905031,46.4531461 C138.078525,40.5111755 150.19399,47.1031751 150.19399,47.1031751 Z" id="Path" fill="#FFFFFF"></path>
                        <path d="M86.6573994,29.1840422 C78.9812487,20.5494063 56.2302012,34.1047786 56.2302012,34.1047786 C79.7211065,19.5280042 88.9694971,22.034899 88.9694971,22.034899 C101.82482,23.334789 97.5705538,30.4941782 97.5705538,30.4941782 C95.443337,34.5898648 105.709158,34.1047786 105.709158,34.1047786 C92.4839056,36.7974439 86.6573994,29.1840422 86.6573994,29.1840422 Z" id="Path" fill="#FFFFFF"></path>
                        <path d="M90.5417369,60.3268142 C90.5417369,60.3268142 77.8714619,59.8229157 65.4785918,61.4012936 C65.4785918,61.4012936 69.9179062,59.915801 77.8714619,59.8229157 C77.8714619,59.8229157 81.8483234,58.615911 75.0969112,56.0162989 C75.0969112,56.0162989 70.935169,53.6951746 60.4844675,58.7087962 C60.4844675,58.7087962 49.2939083,62.2369252 55.2129385,53.7880599 C55.2129385,53.7880599 67.6983326,39.2112855 82.5881812,47.892448 C82.5881812,47.892448 92.7613104,55.0347047 90.5417369,60.3268142 Z" id="Path" fill="#FFFFFF"></path>
                    </g>
                </g>
            </g>
        </g>
        <g id="logo_asnbank" transform="translate(20.000000, 16.000000)">
            <g id="Layer_1">
                <path d="M12.3251876,10.115 L21.1772983,29.495 C22.0243902,31.3225 22.4055816,31.96 24.565666,31.96 L24.565666,32.895 L15.0782364,32.895 L15.0782364,31.96 C15.8406191,31.9175 17.1959662,31.96 17.1959662,30.77 C17.1959662,30.3025 17.0689024,29.7925 16.8571295,29.325 L15.332364,26.01 L6.69202627,26.01 L5.25196998,29.1125 C5.040197,29.58 4.82842402,30.175 4.82842402,30.6425 C4.82842402,31.4075 5.37903377,31.8325 7.28499062,31.9175 L7.28499062,32.8525 L0.296482176,32.8525 L0.296482176,31.9175 C0.804737336,31.875 1.99066604,32.0875 3.55778612,28.6025 L11.9439962,10.115 L12.3251876,10.115 L12.3251876,10.115 Z M10.9698405,16.575 L7.36969981,24.395 L14.5276266,24.395 L10.9698405,16.575 Z M40.321576,10.5825 L40.4486398,18.02 L39.5591932,18.02 C38.1614916,12.9625 35.1119606,12.24 33.6295497,12.24 C31.5965291,12.24 30.241182,13.4725 30.241182,14.96 C30.241182,16.7875 32.020075,17.9775 35.1966698,19.635 C35.704925,19.9325 39.7709662,22.0575 40.9145403,23.885 C41.7192777,25.2025 41.8463415,26.3075 41.8463415,27.0725 C41.8463415,30.7275 38.6273921,33.405 34.7307692,33.405 C33.8836773,33.405 32.867167,33.3625 30.9188555,32.47 C30.4953096,32.2575 29.7752814,31.96 29.3093809,31.96 C28.7587711,31.96 28.1658068,32.3 27.7846154,33.405 L26.9375235,33.405 L26.9375235,25.5425 L27.7846154,25.5425 C28.8011257,28.4325 31.1306285,31.705 34.2225141,31.705 C36.0437617,31.705 38.0767824,30.4725 38.0767824,28.305 C38.0767824,26.0525 36.2555347,24.905 33.2483583,23.3325 C30.7494371,22.015 26.7681051,19.9325 26.7681051,16.1925 C26.7681051,13.9825 28.5469981,10.5825 33.2060038,10.5825 C35.2390244,10.5825 36.5096623,11.135 37.3567542,11.5175 C37.907364,11.7725 38.119137,11.8575 38.4156191,11.8575 C39.2627111,11.8575 39.4744841,10.965 39.6015478,10.54 L40.321576,10.54 L40.321576,10.5825 Z M50.5713884,11.05 L64.9719512,26.35 L64.9719512,14.5775 C64.9719512,12.9625 64.3366323,11.9425 62.4306754,11.9425 L61.6259381,11.9425 L61.6259381,11.05 L69.7580206,11.05 L69.7580206,11.985 L69.1227017,11.985 C67.301454,11.985 66.7084897,13.1325 66.7084897,14.4925 L66.7084897,32.895 L65.8613977,32.895 L50.1478424,16.3625 L50.1478424,29.41 C50.1478424,30.77 50.8678705,31.96 52.4349906,31.96 L53.4515009,31.96 L53.4515009,32.895 L45.4464822,32.895 L45.4464822,31.96 L45.9970919,31.96 C47.3100844,31.96 48.4113039,31.4925 48.4113039,29.3675 L48.4113039,14.5775 C46.0818011,12.155 45.5311914,11.9425 43.7522983,11.9425 L43.7522983,11.05 L50.5713884,11.05 L50.5713884,11.05 Z" id="Shape" fill="#000000"></path>
                <path d="M74.4170263,13.0475 C73.8240619,12.07 73.4428705,10.88 73.4428705,9.69 C73.4428705,4.165 78.1442308,0.2975 83.5656191,0.2975 C90.723546,0.2975 93.2648218,6.5875 93.2648218,14.3225 C93.2648218,14.4075 88.2669794,18.275 88.2669794,25.075 C88.2669794,30.345 90.723546,32.0025 93.1801126,32.98 L93.3071764,33.49 C93.3071764,33.49 79.8384146,36.1675 79.8384146,23.715 C79.8384146,19.21 82.422045,17.0425 82.422045,13.0475 C82.422045,11.7725 81.2361163,9.9875 78.6948405,9.9875 C76.2382739,9.9875 74.9252814,11.6875 74.9252814,13.005 L74.4170263,13.0475 M103.514634,27.1575 C103.514634,27.1575 103.38757,24.8625 101.947514,24.8625 C100.676876,24.8625 99.9992026,26.01 99.9992026,26.01 C99.9992026,26.01 101.439259,27.1575 101.439259,28.985 C101.439259,30.855 97.6273452,32.6825 96.0178705,32.98 C95.6366792,32.0875 95.4249062,31.0675 95.4249062,30.09 C95.4249062,26.01 98.177955,22.185 102.625188,22.185 C105.928846,22.185 104.022889,27.285 104.022889,27.285 L103.514634,27.1575 M98.2626642,15.215 C98.2626642,15.7675 97.8391182,16.1925 97.2885084,16.1925 C96.7378987,16.1925 96.3143527,15.725 96.3143527,15.215 C96.3143527,14.6625 96.7378987,14.2375 97.2885084,14.2375 C97.8391182,14.195 98.2626642,14.6625 98.2626642,15.215 M102.667542,10.285 C102.667542,10.285 103.514634,7.31 101.778096,4.2925 L101.227486,4.505 C101.396904,7.14 100.549812,9.0525 100.549812,9.0525 C99.7874296,8.755 98.177955,8.8825 98.177955,8.8825 C98.177955,8.8825 97.2037992,7.055 97.2461538,4.505 L96.7378987,4.335 C95.9331614,5.695 95.4249062,7.735 95.6366792,9.2225 C96.1025797,11.985 96.4414165,11.22 99.6180113,13.6425 C103.048734,16.2775 101.566323,19.21 101.566323,19.21 L102.37106,19.38 C102.37106,19.38 104.065244,16.2775 104.065244,14.025 C104.065244,11.73 102.667542,10.285 102.667542,10.285" id="Shape" fill="#D10600"></path>
            </g>
        </g>
        <g id="iDeal_betalen-cmyk" transform="translate(261.000000, 16.000000)">
            <g id="Group-3">
                <mask id="mask-3" fill="white">
                    <use xlink:href="#path-2"></use>
                </mask>
                <g id="Clip-2"></g>
                <path d="M0,0.00113627639 L0,37 L22.0977073,37 C36.6751438,37 42.9963621,29.0302284 42.9963621,18.4634971 C42.9963621,7.93866603 36.6751438,0.00113627639 22.0977073,0.00113627639 L0,0.00113627639" id="Fill-1" fill="#FFFFFE" mask="url(#mask-3)"></path>
            </g>
            <path d="M4.29956345,4.20202111 L4.29956345,32.7991152 L22.1007631,32.7991152 C32.8481438,32.7991152 38.6968714,27.9119904 38.6968714,18.4634971 C38.6968714,8.7550096 32.3584822,4.20202111 22.1007631,4.20202111 L4.29956345,4.20202111 Z M2.38799154,2.33540307 L22.1007631,2.33540307 C35.4811844,2.33540307 40.6072792,9.46745489 40.6072792,18.4634971 C40.6072792,29.2510211 33.4466514,34.6643129 22.1007631,34.6643129 L2.38799154,34.6643129 L2.38799154,2.33540307 L2.38799154,2.33540307 Z" id="Fill-4" fill="#1A1919"></path>
            <polygon id="Fill-5" fill="#1A1919" points="6.68748223 30.4671209 12.385819 30.4671209 12.385819 20.5675969 6.68748223 20.5675969"></polygon>
            <path d="M13.0773113,15.5790595 C13.0773113,17.488572 11.4926413,19.0364645 9.53581387,19.0364645 C7.5806599,19.0364645 5.99482572,17.488572 5.99482572,15.5790595 C5.99482572,13.6706833 7.5806599,12.1227908 9.53581387,12.1227908 C11.4926413,12.1227908 13.0773113,13.6706833 13.0773113,15.5790595" id="Fill-6" fill="#1A1919"></path>
            <path d="M15.2536497,13.9678906 L15.2536497,17.1949155 L16.2678968,17.1949155 C16.9715398,17.1949155 17.6208325,16.9955701 17.6208325,15.5539194 C17.6208325,14.1481324 16.8994365,13.9678906 16.2678968,13.9678906 L15.2536497,13.9678906 Z M32.182335,12.3614798 L33.8244839,12.3614798 L33.8244839,17.1949155 L36.2558393,17.1949155 C35.5899577,8.42676775 28.5241337,6.53152975 22.1025821,6.53152975 L15.2554687,6.53152975 L15.2554687,12.3651017 L16.2678968,12.3651017 C18.1166785,12.3651017 19.2629086,13.587167 19.2629086,15.5539194 C19.2629086,17.5840192 18.1440355,18.7965681 16.2678968,18.7965681 L15.2554687,18.7965681 L15.2554687,30.4683282 L22.1025821,30.4683282 C32.5413232,30.4683282 36.174423,25.7350979 36.3022589,18.7952898 L32.182335,18.7952898 L32.182335,12.3614798 Z M27.6076734,15.9525393 L28.7966853,15.9525393 L28.2520914,14.1337159 L28.1530677,14.1337159 L27.6076734,15.9525393 Z M25.046736,18.7988407 L27.0360863,12.3614798 L29.371401,12.3614798 L31.3571134,18.7988407 L29.6483181,18.7988407 L29.2765973,17.5529846 L27.1289983,17.5529846 L26.7555313,18.7988407 L25.046736,18.7988407 Z M24.3369814,17.1949155 L24.3369814,18.7965681 L20.2759188,18.7965681 L20.2759188,12.3651017 L24.2061624,12.3651017 L24.2061624,13.9666833 L21.9179222,13.9666833 L21.9179222,14.7101631 L24.0833469,14.7101631 L24.0833469,16.3141593 L21.9179222,16.3141593 L21.9179222,17.1949155 L24.3369814,17.1949155 L24.3369814,17.1949155 Z" id="Fill-7" fill="#C91A68"></path>
        </g>
    </g>
</svg>