<?xml version="1.0" encoding="utf-8"?>
<!-- Generator: Adobe Illustrator 16.0.0, SVG Export Plug-In . SVG Version: 6.00 Build 0)  -->
<!DOCTYPE svg PUBLIC "-//W3C//DTD SVG 1.1//EN" "http://www.w3.org/Graphics/SVG/1.1/DTD/svg11.dtd">
<svg version="1.1" id="Capa_1" xmlns="http://www.w3.org/2000/svg" xmlns:xlink="http://www.w3.org/1999/xlink" x="0px" y="0px"
	 width="320px" height="200px" viewBox="0 0 320 200" enable-background="new 0 0 320 200" xml:space="preserve">
<title>regiobank</title>
<desc>Created with Sketch.</desc>
<g id="regiobank">
	<g id="Group">
		<g id="Mask">
			<path id="path-1_1_" fill="#D8D8D8" d="M25,0h270c13.807,0,25,11.193,25,25v150c0,13.807-11.193,25-25,25H25
				c-13.807,0-25-11.193-25-25V25C0,11.193,11.193,0,25,0z"/>
		</g>
		<defs>
			<filter id="Adobe_OpacityMaskFilter" filterUnits="userSpaceOnUse" x="-5" y="0" width="339" height="200">
				<feColorMatrix  type="matrix" values="1 0 0 0 0  0 1 0 0 0  0 0 1 0 0  0 0 0 1 0"/>
			</filter>
		</defs>
		<mask maskUnits="userSpaceOnUse" x="-5" y="0" width="339" height="200" id="mask-2">
			<g filter="url(#Adobe_OpacityMaskFilter)">
				<path id="path-1" fill="#FFFFFF" d="M25,0h270c13.807,0,25,11.193,25,25v150c0,13.807-11.193,25-25,25H25
					c-13.807,0-25-11.193-25-25V25C0,11.193,11.193,0,25,0z"/>
			</g>
		</mask>
		<g mask="url(#mask-2)">
			<g transform="translate(-5.000000, 0.000000)">
				<rect id="Rectangle-2" x="5" fill="#004894" width="320" height="200"/>
				<rect id="Rectangle-2-Copy" fill="#FFFFFF" width="339" height="65"/>
			</g>
		</g>
	</g>
	<g id="iDeal_betalen-cmyk" transform="translate(261.000000, 16.000000)">
		<g id="Group-3">
			<g id="Clip-2">
			</g>
			<defs>
				<filter id="Adobe_OpacityMaskFilter_1_" filterUnits="userSpaceOnUse" x="0" y="0.001" width="42.996" height="36.999">
					<feColorMatrix  type="matrix" values="1 0 0 0 0  0 1 0 0 0  0 0 1 0 0  0 0 0 1 0"/>
				</filter>
			</defs>
			<mask maskUnits="userSpaceOnUse" x="0" y="0.001" width="42.996" height="36.999" id="mask-4">
				<g filter="url(#Adobe_OpacityMaskFilter_1_)">
					<polygon id="path-3" fill="#FFFFFF" points="0.004,36.996 42.996,36.996 42.996,0.001 0.004,0.001 					"/>
				</g>
			</mask>
			<path id="Fill-1" mask="url(#mask-4)" fill="#FFFFFE" d="M0,0.001V37h22.098c14.578,0,20.898-7.97,20.898-18.537
				c0-10.525-6.32-18.462-20.898-18.462H0"/>
		</g>
		<path id="Fill-4" fill="#1A1919" d="M4.299,4.202v28.597h17.802c10.747,0,16.597-4.887,16.597-14.336
			c0-9.708-6.339-14.261-16.597-14.261H4.299z M2.389,2.335h19.712c13.38,0,18.507,7.132,18.507,16.128
			c0,10.788-7.16,16.201-18.507,16.201H2.389V2.335L2.389,2.335z"/>
		<polygon id="Fill-5" fill="#1A1919" points="6.688,30.467 12.386,30.467 12.386,20.567 6.688,20.567 		"/>
		<path id="Fill-6" fill="#1A1919" d="M13.077,15.579c0,1.91-1.585,3.458-3.542,3.458c-1.955,0-3.541-1.548-3.541-3.458
			c0-1.908,1.586-3.457,3.541-3.457C11.492,12.123,13.077,13.671,13.077,15.579"/>
		<path id="Fill-7" fill="#C91A68" d="M15.254,13.968v3.227h1.014c0.704,0,1.354-0.199,1.354-1.641c0-1.406-0.722-1.586-1.354-1.586
			H15.254z M32.182,12.361h1.643v4.833h2.432C35.59,8.427,28.523,6.532,22.103,6.532h-6.847v5.833h1.012
			c1.85,0,2.995,1.222,2.995,3.188c0,2.03-1.118,3.243-2.995,3.243h-1.012v11.672h6.847c10.438,0,14.071-4.733,14.2-11.673h-4.121
			V12.361z M27.607,15.953h1.189l-0.545-1.819h-0.1L27.607,15.953z M25.047,18.799l1.989-6.438h2.335l1.986,6.438h-1.709
			l-0.371-1.246h-2.148l-0.373,1.246H25.047z M24.337,17.195v1.602h-4.062v-6.431h3.931v1.602h-2.288v0.743h2.166v1.604h-2.166
			v0.881H24.337L24.337,17.195z"/>
	</g>
	<g>
		<path fill="#004894" d="M25.137,40.468v-7.734h-6.832v7.734h-3.047V23.3h3.047v6.727h6.832V23.3h3.012v17.168H25.137z"/>
		<path fill="#004894" d="M38.473,39.214c-0.266,0.438-0.729,0.795-1.389,1.072s-1.35,0.416-2.068,0.416
			c-1.352,0-2.414-0.338-3.188-1.014s-1.16-1.635-1.16-2.877c0-1.453,0.545-2.59,1.635-3.41s2.639-1.23,4.646-1.23
			c0.344,0,0.75,0.059,1.219,0.176c0-1.477-0.934-2.215-2.801-2.215c-1.102,0-2.023,0.184-2.766,0.551l-0.633-2.273
			c1.008-0.484,2.207-0.727,3.598-0.727c1.914,0,3.316,0.436,4.207,1.307s1.336,2.521,1.336,4.951v2.684
			c0,1.672,0.336,2.723,1.008,3.152c-0.242,0.422-0.512,0.682-0.809,0.779s-0.637,0.146-1.02,0.146
			c-0.422,0-0.801-0.156-1.137-0.469S38.59,39.582,38.473,39.214z M38.191,34.562c-0.5-0.102-0.875-0.152-1.125-0.152
			c-2.313,0-3.469,0.758-3.469,2.273c0,1.125,0.652,1.688,1.957,1.688c1.758,0,2.637-0.879,2.637-2.637V34.562z"/>
		<path fill="#004894" d="M52.348,40.468v-7.254c0-1.07-0.205-1.852-0.615-2.344s-1.08-0.738-2.01-0.738
			c-0.43,0-0.889,0.121-1.377,0.363s-0.869,0.543-1.143,0.902v9.07h-2.93V27.917h2.109l0.539,1.172
			c0.797-0.938,1.973-1.406,3.527-1.406c1.492,0,2.67,0.447,3.533,1.342s1.295,2.143,1.295,3.744v7.699H52.348z"/>
		<path fill="#004894" d="M66.516,40.468v-0.762c-0.242,0.266-0.652,0.498-1.23,0.697s-1.176,0.299-1.793,0.299
			c-1.75,0-3.127-0.555-4.131-1.664s-1.506-2.656-1.506-4.641s0.576-3.6,1.729-4.846s2.596-1.869,4.33-1.869
			c0.953,0,1.82,0.195,2.602,0.586v-5.027l2.93-0.703v17.93H66.516z M66.516,30.917c-0.625-0.5-1.277-0.75-1.957-0.75
			c-1.172,0-2.074,0.357-2.707,1.072s-0.949,1.74-0.949,3.076c0,2.609,1.258,3.914,3.773,3.914c0.281,0,0.627-0.084,1.037-0.252
			s0.678-0.338,0.803-0.51V30.917z"/>
		<path fill="#004894" d="M83.578,35.089h-8.965c0.055,1,0.398,1.777,1.031,2.332s1.484,0.832,2.555,0.832
			c1.336,0,2.352-0.348,3.047-1.043l1.137,2.238c-1.031,0.836-2.57,1.254-4.617,1.254c-1.914,0-3.428-0.561-4.541-1.682
			s-1.67-2.686-1.67-4.693c0-1.977,0.611-3.578,1.834-4.805s2.689-1.84,4.4-1.84c1.82,0,3.281,0.543,4.383,1.629
			s1.652,2.469,1.652,4.148C83.824,33.82,83.742,34.363,83.578,35.089z M74.719,32.886h6.164c-0.203-1.836-1.219-2.754-3.047-2.754
			C76.164,30.132,75.125,31.05,74.719,32.886z"/>
		<path fill="#004894" d="M86.672,23.242l2.93-0.703v14.109c0,1.547,0.461,2.469,1.383,2.766c-0.453,0.859-1.227,1.289-2.32,1.289
			c-1.328,0-1.992-0.922-1.992-2.766V23.242z"/>
		<path fill="#004894" d="M92.473,39.66l1.043-2.332c0.875,0.695,1.863,1.043,2.965,1.043c1.141,0,1.711-0.406,1.711-1.219
			c0-0.477-0.172-0.867-0.516-1.172s-1.012-0.664-2.004-1.078c-2.164-0.898-3.246-2.156-3.246-3.773
			c0-1.086,0.414-1.932,1.242-2.537s1.887-0.908,3.176-0.908c1.305,0,2.531,0.293,3.68,0.879l-0.844,2.273
			c-0.641-0.547-1.531-0.82-2.672-0.82c-1.023,0-1.535,0.406-1.535,1.219c0,0.32,0.168,0.609,0.504,0.867s1.055,0.604,2.156,1.037
			s1.895,0.959,2.379,1.576s0.727,1.363,0.727,2.238c0,1.164-0.432,2.08-1.295,2.748s-2.037,1.002-3.521,1.002
			c-0.836,0-1.506-0.068-2.01-0.205S93.262,40.082,92.473,39.66z"/>
		<path fill="#004894" d="M105.656,39.777L105,40.703h-1.652V23.242l2.93-0.703v5.859c0.781-0.477,1.633-0.715,2.555-0.715
			c1.836,0,3.316,0.58,4.441,1.74s1.688,2.646,1.688,4.459c0,2.102-0.566,3.764-1.699,4.986s-2.668,1.834-4.605,1.834
			C107.492,40.703,106.492,40.394,105.656,39.777z M106.277,30.906v6.551c0.43,0.508,1.012,0.762,1.746,0.762
			c1.414,0,2.416-0.336,3.006-1.008s0.885-1.746,0.885-3.223c0-2.547-1.219-3.82-3.656-3.82
			C107.391,30.167,106.73,30.414,106.277,30.906z"/>
		<path fill="#004894" d="M124.523,39.214c-0.266,0.438-0.729,0.795-1.389,1.072s-1.35,0.416-2.068,0.416
			c-1.352,0-2.414-0.338-3.188-1.014s-1.16-1.635-1.16-2.877c0-1.453,0.545-2.59,1.635-3.41s2.639-1.23,4.646-1.23
			c0.344,0,0.75,0.059,1.219,0.176c0-1.477-0.934-2.215-2.801-2.215c-1.102,0-2.023,0.184-2.766,0.551l-0.633-2.273
			c1.008-0.484,2.207-0.727,3.598-0.727c1.914,0,3.316,0.436,4.207,1.307s1.336,2.521,1.336,4.951v2.684
			c0,1.672,0.336,2.723,1.008,3.152c-0.242,0.422-0.512,0.682-0.809,0.779s-0.637,0.146-1.02,0.146
			c-0.422,0-0.801-0.156-1.137-0.469S124.641,39.582,124.523,39.214z M124.242,34.562c-0.5-0.102-0.875-0.152-1.125-0.152
			c-2.313,0-3.469,0.758-3.469,2.273c0,1.125,0.652,1.688,1.957,1.688c1.758,0,2.637-0.879,2.637-2.637V34.562z"/>
		<path fill="#004894" d="M138.398,40.468v-7.254c0-1.07-0.205-1.852-0.615-2.344s-1.08-0.738-2.01-0.738
			c-0.43,0-0.889,0.121-1.377,0.363s-0.869,0.543-1.143,0.902v9.07h-2.93V27.917h2.109l0.539,1.172
			c0.797-0.938,1.973-1.406,3.527-1.406c1.492,0,2.67,0.447,3.533,1.342s1.295,2.143,1.295,3.744v7.699H138.398z"/>
		<path fill="#004894" d="M152.52,40.468l-3.691-5.684l-1.406,1.488v4.195h-2.93V23.242l2.93-0.703v10.195l4.184-4.816h3.527
			l-4.242,4.758L156,40.468H152.52z"/>
		<path fill="#004894" d="M168.844,35.089h-8.965c0.055,1,0.398,1.777,1.031,2.332s1.484,0.832,2.555,0.832
			c1.336,0,2.352-0.348,3.047-1.043l1.137,2.238c-1.031,0.836-2.57,1.254-4.617,1.254c-1.914,0-3.428-0.561-4.541-1.682
			s-1.67-2.686-1.67-4.693c0-1.977,0.611-3.578,1.834-4.805s2.689-1.84,4.4-1.84c1.82,0,3.281,0.543,4.383,1.629
			s1.652,2.469,1.652,4.148C169.09,33.82,169.008,34.363,168.844,35.089z M159.984,32.886h6.164
			c-0.203-1.836-1.219-2.754-3.047-2.754C161.43,30.132,160.391,31.05,159.984,32.886z"/>
		<path fill="#004894" d="M179.508,40.468v-7.254c0-1.07-0.205-1.852-0.615-2.344s-1.08-0.738-2.01-0.738
			c-0.43,0-0.889,0.121-1.377,0.363s-0.869,0.543-1.143,0.902v9.07h-2.93V27.917h2.109l0.539,1.172
			c0.797-0.938,1.973-1.406,3.527-1.406c1.492,0,2.67,0.447,3.533,1.342s1.295,2.143,1.295,3.744v7.699H179.508z"/>
	</g>
</g>
</svg>
