<?xml version="1.0" encoding="UTF-8"?>
<svg width="320px" height="200px" viewBox="0 0 320 200" version="1.1" xmlns="http://www.w3.org/2000/svg" xmlns:xlink="http://www.w3.org/1999/xlink">
    <!-- Generator: Sketch 49.3 (51167) - http://www.bohemiancoding.com/sketch -->
    <title>van lanschot</title>
    <desc>Created with Sketch.</desc>
    <defs>
        <polygon id="path-1" points="0.00436548223 36.995739 42.9963621 36.995739 42.9963621 0.00113627639 0.00436548223 0.00113627639"></polygon>
    </defs>
    <g id="van-lanschot" stroke="none" stroke-width="1" fill="none" fill-rule="evenodd">
        <g id="Group" fill="#424242">
            <g id="Rectangle-2">
                <rect x="0" y="0" width="320" height="200" rx="25"></rect>
            </g>
        </g>
        <g id="iDeal_betalen-cmyk" transform="translate(261.000000, 16.000000)">
            <g id="Group-3">
                <mask id="mask-2" fill="white">
                    <use xlink:href="#path-1"></use>
                </mask>
                <g id="Clip-2"></g>
                <path d="M0,0.00113627639 L0,37 L22.0977073,37 C36.6751438,37 42.9963621,29.0302284 42.9963621,18.4634971 C42.9963621,7.93866603 36.6751438,0.00113627639 22.0977073,0.00113627639 L0,0.00113627639" id="Fill-1" fill="#FFFFFE" mask="url(#mask-2)"></path>
            </g>
            <path d="M4.29956345,4.20202111 L4.29956345,32.7991152 L22.1007631,32.7991152 C32.8481438,32.7991152 38.6968714,27.9119904 38.6968714,18.4634971 C38.6968714,8.7550096 32.3584822,4.20202111 22.1007631,4.20202111 L4.29956345,4.20202111 Z M2.38799154,2.33540307 L22.1007631,2.33540307 C35.4811844,2.33540307 40.6072792,9.46745489 40.6072792,18.4634971 C40.6072792,29.2510211 33.4466514,34.6643129 22.1007631,34.6643129 L2.38799154,34.6643129 L2.38799154,2.33540307 L2.38799154,2.33540307 Z" id="Fill-4" fill="#1A1919"></path>
            <polygon id="Fill-5" fill="#1A1919" points="6.68748223 30.4671209 12.385819 30.4671209 12.385819 20.5675969 6.68748223 20.5675969"></polygon>
            <path d="M13.0773113,15.5790595 C13.0773113,17.488572 11.4926413,19.0364645 9.53581387,19.0364645 C7.5806599,19.0364645 5.99482572,17.488572 5.99482572,15.5790595 C5.99482572,13.6706833 7.5806599,12.1227908 9.53581387,12.1227908 C11.4926413,12.1227908 13.0773113,13.6706833 13.0773113,15.5790595" id="Fill-6" fill="#1A1919"></path>
            <path d="M15.2536497,13.9678906 L15.2536497,17.1949155 L16.2678968,17.1949155 C16.9715398,17.1949155 17.6208325,16.9955701 17.6208325,15.5539194 C17.6208325,14.1481324 16.8994365,13.9678906 16.2678968,13.9678906 L15.2536497,13.9678906 Z M32.182335,12.3614798 L33.8244839,12.3614798 L33.8244839,17.1949155 L36.2558393,17.1949155 C35.5899577,8.42676775 28.5241337,6.53152975 22.1025821,6.53152975 L15.2554687,6.53152975 L15.2554687,12.3651017 L16.2678968,12.3651017 C18.1166785,12.3651017 19.2629086,13.587167 19.2629086,15.5539194 C19.2629086,17.5840192 18.1440355,18.7965681 16.2678968,18.7965681 L15.2554687,18.7965681 L15.2554687,30.4683282 L22.1025821,30.4683282 C32.5413232,30.4683282 36.174423,25.7350979 36.3022589,18.7952898 L32.182335,18.7952898 L32.182335,12.3614798 Z M27.6076734,15.9525393 L28.7966853,15.9525393 L28.2520914,14.1337159 L28.1530677,14.1337159 L27.6076734,15.9525393 Z M25.046736,18.7988407 L27.0360863,12.3614798 L29.371401,12.3614798 L31.3571134,18.7988407 L29.6483181,18.7988407 L29.2765973,17.5529846 L27.1289983,17.5529846 L26.7555313,18.7988407 L25.046736,18.7988407 Z M24.3369814,17.1949155 L24.3369814,18.7965681 L20.2759188,18.7965681 L20.2759188,12.3651017 L24.2061624,12.3651017 L24.2061624,13.9666833 L21.9179222,13.9666833 L21.9179222,14.7101631 L24.0833469,14.7101631 L24.0833469,16.3141593 L21.9179222,16.3141593 L21.9179222,17.1949155 L24.3369814,17.1949155 L24.3369814,17.1949155 Z" id="Fill-7" fill="#C91A68"></path>
        </g>
        <g id="Logo_VanLanschot_RGB" transform="translate(18.000000, 15.000000)">
            <g id="Layer_1">
                <g id="Group">
                    <path d="M14.7826955,38.9335227 C15.0039933,38.9335227 15.1589018,38.8227273 15.2252912,38.7340909 C15.2916805,38.6676136 15.5351082,38.3130682 15.6236273,38.2022727 C16.3981697,37.29375 18.5447587,35.3880682 23.125624,35.2551136 C29.0121464,35.0556818 29.3883527,31.0670455 29.3883527,29.49375 L29.3883527,0.199431818 L0.154908486,0.221590909 L0.154908486,29.5159091 C0.154908486,31.0892045 0.531114809,35.0778409 6.41763727,35.2772727 C10.9985025,35.3880682 13.1450915,37.3159091 13.9196339,38.2244318 C14.0081531,38.3352273 14.2737105,38.6897727 14.31797,38.75625 C14.4064892,38.8227273 14.5613977,38.9335227 14.7826955,38.9335227 L14.7826955,38.9335227 Z" id="Shape" fill="#639653"></path>
                    <path d="M132.933611,0.199431818 L31.4906822,0.199431818 L31.4906822,29.4494318 L31.4906822,29.4494318 C31.4906822,31.6653409 30.8267887,33.4823864 29.5875208,34.8119318 L115.119135,34.8119318 L126.471714,34.8119318 C130.034609,34.8119318 132.911481,31.93125 132.911481,28.3636364 L132.933611,0.199431818 Z" id="Shape" fill="#000000"></path>
                    <g transform="translate(36.956739, 12.630682)" fill="#FFFFFF" id="Shape">
                        <polygon points="4.2046589 0.952840909 4.2046589 1.70625 3.45224626 1.75056818 3.31946755 1.95 5.22262895 7.35681818 7.10366057 1.95 6.94875208 1.75056818 6.17420965 1.70625 6.17420965 0.952840909 9.2281198 0.952840909 9.2281198 1.70625 8.34292845 1.88352273 5.55457571 9.70568182 3.89484193 9.70568182 1.04009983 1.83920455 0.154908486 1.70625 0.154908486 0.952840909"></polygon>
                        <path d="M10.6886855,9.88295455 C9.62645591,9.88295455 8.87404326,9.12954545 8.87404326,8.08806818 C8.87404326,7.29034091 9.33876872,6.60340909 10.0469218,6.31534091 C10.5780366,6.11590909 11.5517471,5.82784091 12.9459235,5.51761364 L12.9459235,5.14090909 C12.9459235,4.29886364 12.481198,3.85568182 11.5960067,3.85568182 L11.3968386,3.85568182 L11.3968386,5.20738636 L9.91414309,5.20738636 C9.38302829,5.20738636 9.16173045,5.07443182 9.16173045,4.67556818 C9.16173045,3.92215909 10.3567388,3.08011364 12.3705491,3.08011364 C13.4549085,3.08011364 14.2515807,3.39034091 14.6720466,3.96647727 C15.0261231,4.43181818 15.0261231,4.98579545 15.0261231,5.71704545 L15.0261231,8.81931818 L15.1589018,8.97443182 L15.8449251,9.06306818 L15.8449251,9.72784091 L13.1008319,9.72784091 L12.9237937,8.99659091 C12.0607321,9.59488636 11.3083195,9.88295455 10.6886855,9.88295455 Z M12.9459235,6.38181818 C11.6845258,6.55909091 11.1091514,6.89147727 11.1091514,7.66704545 C11.1091514,8.22102273 11.4853577,8.57556818 12.0607321,8.57556818 C12.3041597,8.57556818 12.6139767,8.48693182 12.9680532,8.33181818 L12.9459235,6.38181818 Z"></path>
                        <path d="M16.8628952,9.01875 L17.5046589,8.95227273 L17.6374376,8.775 L17.6374376,4.47613636 L16.774376,4.47613636 L16.774376,3.83352273 L18.9873544,3.08011364 L19.7176373,3.08011364 L19.7176373,3.92215909 C20.6913478,3.4125 21.4216306,3.08011364 22.0412646,3.08011364 C23.324792,3.08011364 23.833777,3.85568182 23.833777,5.45113636 L23.833777,8.775 L23.9665557,8.95227273 L24.6304493,9.01875 L24.6304493,9.70568182 L21.1560732,9.70568182 L21.1560732,9.01875 L21.6429285,8.95227273 L21.7978369,8.775 L21.7978369,6.00511364 C21.7978369,4.94147727 21.5101498,4.47613636 20.4921797,4.47613636 C20.2044925,4.47613636 19.9389351,4.49829545 19.7176373,4.54261364 L19.7176373,8.79715909 L19.8725458,8.97443182 L20.3815308,9.04090909 L20.3815308,9.72784091 L16.8407654,9.72784091 L16.8407654,9.01875 L16.8628952,9.01875 Z"></path>
                        <polygon points="28.7908486 8.95227273 29.5432612 8.88579545 29.7866889 8.64204545 29.7866889 1.95 29.6317804 1.75056818 28.8129784 1.70625 28.8129784 0.952840909 33.0397671 0.952840909 33.0397671 1.70625 32.1988353 1.75056818 31.9996672 1.95 31.9996672 8.79715909 34.1019967 8.79715909 34.2569052 8.57556818 34.4339434 6.93579545 35.6510815 6.93579545 35.6510815 9.68352273 28.8129784 9.68352273 28.8129784 8.95227273"></polygon>
                        <path d="M38.4173045,9.88295455 C37.3550749,9.88295455 36.6026622,9.12954545 36.6026622,8.08806818 C36.6026622,7.29034091 37.0673877,6.60340909 37.7755408,6.31534091 C38.3066556,6.11590909 39.2803661,5.82784091 40.6745424,5.51761364 L40.6745424,5.14090909 C40.6745424,4.29886364 40.209817,3.85568182 39.3246256,3.85568182 L39.1254576,3.85568182 L39.1254576,5.20738636 L37.6427621,5.20738636 C37.1116473,5.20738636 36.8903494,5.07443182 36.8903494,4.67556818 C36.8903494,3.92215909 38.0853577,3.08011364 40.0770383,3.08011364 C41.1613977,3.08011364 41.9580699,3.39034091 42.3785358,3.96647727 C42.7326123,4.43181818 42.7326123,4.98579545 42.7326123,5.71704545 L42.7326123,8.81931818 L42.865391,8.97443182 L43.5514143,9.06306818 L43.5514143,9.72784091 L40.8073211,9.72784091 L40.6302829,8.99659091 C39.7893511,9.59488636 39.0369384,9.88295455 38.4173045,9.88295455 Z M40.6524126,6.38181818 C39.391015,6.55909091 38.8156406,6.89147727 38.8156406,7.66704545 C38.8156406,8.22102273 39.1918469,8.57556818 39.7672213,8.57556818 C40.0106489,8.57556818 40.3204659,8.48693182 40.6745424,8.33181818 L40.6745424,6.38181818 L40.6524126,6.38181818 Z"></path>
                        <path d="M44.6136439,9.01875 L45.2554077,8.95227273 L45.3881864,8.775 L45.3881864,4.47613636 L44.5251248,4.47613636 L44.5251248,3.83352273 L46.7381032,3.08011364 L47.468386,3.08011364 L47.468386,3.92215909 C48.4420965,3.4125 49.1723794,3.08011364 49.7920133,3.08011364 C51.0755408,3.08011364 51.5845258,3.85568182 51.5845258,5.45113636 L51.5845258,8.775 L51.7173045,8.95227273 L52.381198,9.01875 L52.381198,9.70568182 L48.906822,9.70568182 L48.906822,9.01875 L49.3936772,8.95227273 L49.5485857,8.775 L49.5485857,6.00511364 C49.5485857,4.94147727 49.2608985,4.47613636 48.2429285,4.47613636 C47.9552413,4.47613636 47.6896839,4.49829545 47.468386,4.54261364 L47.468386,8.79715909 L47.6232945,8.97443182 L48.1544093,9.04090909 L48.1544093,9.72784091 L44.6136439,9.72784091 L44.6136439,9.01875 L44.6136439,9.01875 Z"></path>
                        <path d="M58.7324459,5.40681818 L57.8472546,5.40681818 L57.6923461,4.36534091 L57.5374376,4.18806818 C57.2054908,4.03295455 56.9178037,3.94431818 56.6301165,3.94431818 C56.0326123,3.94431818 55.6785358,4.21022727 55.6785358,4.67556818 C55.6785358,5.31818182 56.3866889,5.42897727 57.3603993,5.85 C58.5111481,6.3375 59.0422629,6.78068182 59.0422629,7.71136364 C59.0422629,8.88579545 57.8693844,9.86079545 56.1875208,9.86079545 C55.4351082,9.86079545 54.5499168,9.75 53.5540765,9.48409091 L53.5540765,7.3125 L54.4613977,7.3125 L54.5941764,8.50909091 L54.7269551,8.68636364 C55.1916805,8.90795455 55.5900166,9.01875 55.9883527,9.01875 C56.6079867,9.01875 56.9620632,8.73068182 56.9620632,8.26534091 C56.9620632,7.68920455 56.5194676,7.57840909 55.7891847,7.24602273 C54.3950083,6.60340909 53.6204659,6.16022727 53.6204659,5.14090909 C53.6204659,3.96647727 54.6605657,3.08011364 56.3866889,3.08011364 C57.0505824,3.08011364 57.8251248,3.19090909 58.7545757,3.43465909 L58.7545757,5.40681818 L58.7324459,5.40681818 Z"></path>
                        <path d="M63.3133111,9.81647727 C62.206822,9.81647727 61.4765391,9.57272727 60.7905158,8.79715909 C60.2815308,8.19886364 59.9938436,7.42329545 59.9938436,6.53693182 C59.9938436,4.47613636 61.4544093,3.10227273 63.6231281,3.10227273 C65.0836938,3.10227273 66.0131448,3.81136364 66.0131448,4.76420455 C66.0131448,5.40681818 65.5484193,5.82784091 64.862396,5.82784091 C64.5083195,5.82784091 64.1985025,5.71704545 63.8665557,5.51761364 L63.8665557,3.78920455 C62.8707155,3.9 62.2732113,4.78636364 62.2732113,6.29318182 C62.2732113,7.68920455 63.0477537,8.59772727 64.1099834,8.59772727 C64.6410982,8.59772727 65.2607321,8.35397727 66.0352745,7.93295455 L66.0352745,9.08522727 C65.1058236,9.55056818 64.2648918,9.81647727 63.3133111,9.81647727 Z"></path>
                        <path d="M69.775208,0 L69.775208,3.92215909 C70.7489185,3.4125 71.5013311,3.08011364 72.1209651,3.08011364 C73.4044925,3.08011364 73.9134775,3.85568182 73.9134775,5.45113636 L73.9134775,8.775 L74.0462562,8.95227273 L74.7101498,9.01875 L74.7101498,9.70568182 L71.2357737,9.70568182 L71.2357737,9.01875 L71.722629,8.95227273 L71.8554077,8.775 L71.8554077,6.00511364 C71.8554077,4.94147727 71.5898502,4.49829545 70.5497504,4.49829545 C70.2620632,4.49829545 69.9965058,4.49829545 69.7530782,4.54261364 L69.7530782,8.79715909 L69.9301165,8.97443182 L70.4391015,9.04090909 L70.4391015,9.72784091 L66.8983361,9.72784091 L66.8983361,9.04090909 L67.5400998,8.97443182 L67.6950083,8.79715909 L67.6950083,1.39602273 L66.809817,1.39602273 L66.809817,0.775568182 L69.0449251,0.0221590909 L69.775208,0 Z"></path>
                        <path d="M82.5440932,6.44829545 C82.5440932,8.55340909 81.2605657,9.81647727 78.9590682,9.81647727 C76.6797005,9.81647727 75.396173,8.55340909 75.396173,6.44829545 C75.396173,4.34318182 76.7239601,3.10227273 79.0475874,3.10227273 C81.2605657,3.10227273 82.5440932,4.3875 82.5440932,6.44829545 Z M77.7198003,6.44829545 C77.7198003,8.15454545 78.0960067,8.99659091 78.981198,8.99659091 C79.8442596,8.99659091 80.2204659,8.17670455 80.2204659,6.51477273 C80.2204659,4.74204545 79.8663894,3.92215909 78.981198,3.92215909 C78.1181364,3.92215909 77.7198003,4.74204545 77.7198003,6.44829545 Z"></path>
                        <path d="M83.3407654,4.3875 L83.3407654,3.78920455 L84.402995,3.08011364 L85.1775374,1.57329545 L86.2840266,1.57329545 L86.2840266,3.43465909 L88.1650582,3.43465909 L88.1650582,4.40965909 L86.2840266,4.40965909 L86.2840266,7.44545455 C86.2840266,8.33181818 86.5274542,8.57556818 87.4790349,8.57556818 C87.6560732,8.57556818 87.8995008,8.55340909 88.1650582,8.48693182 L88.1650582,9.24034091 C87.2134775,9.61704545 86.4610649,9.77215909 85.8856905,9.77215909 C85.221797,9.77215909 84.6906822,9.52840909 84.4251248,9.15170455 C84.2480865,8.88579545 84.203827,8.42045455 84.203827,7.75568182 L84.203827,4.3875 L83.3407654,4.3875 Z"></path>
                    </g>
                    <g transform="translate(6.860233, 3.323864)" fill="#FFFFFF" id="Shape">
                        <polygon points="8.91830283 9.63920455 8.91830283 10.48125 9.80349418 10.48125 9.80349418 9.63920455 10.9985025 9.63920455 10.9985025 11.1460227 7.92246256 11.1460227 4.86855241 11.1460227 4.86855241 9.63920455 6.04143095 9.63920455 6.04143095 10.48125 6.9266223 10.48125 6.9266223 9.63920455"></polygon>
                        <path d="M7.70116473,9.24034091 L7.70116473,9.21818182 C7.70116473,9.15170455 7.67903494,9.01875 7.54625624,8.93011364 C7.34708819,8.81931818 6.32911814,8.11022727 6.12995008,7.09090909 C6.01930116,6.55909091 6.01930116,6.09375 6.240599,5.80568182 C6.30698835,5.71704545 6.41763727,5.58409091 6.41763727,5.51761364 C6.41763727,5.38465909 6.21846922,5.00795455 6.17420965,4.74204545 C6.15207987,4.49829545 6.12995008,4.09943182 6.30698835,3.9 C6.48402662,3.67840909 6.66106489,3.72272727 6.59467554,3.50113636 C6.55041597,3.34602273 6.43976705,3.08011364 6.43976705,2.72556818 C6.43976705,2.48181818 6.48402662,2.10511364 6.74958403,2.01647727 C6.97088186,1.95 7.01514143,1.90568182 7.03727121,1.86136364 C7.059401,1.81704545 7.03727121,1.24090909 7.08153078,0.975 C7.12579035,0.753409091 7.23643927,0.0664772727 7.83394343,0 L7.92246256,0 L8.0109817,0 C8.60848586,0.0664772727 8.71913478,0.753409091 8.76339434,0.975 C8.80765391,1.24090909 8.78552413,1.81704545 8.80765391,1.86136364 C8.82978369,1.90568182 8.87404326,1.95 9.0953411,2.01647727 C9.3608985,2.10511364 9.42728785,2.50397727 9.42728785,2.72556818 C9.42728785,3.08011364 9.31663894,3.34602273 9.27237937,3.50113636 C9.20599002,3.72272727 9.38302829,3.67840909 9.56006656,3.9 C9.73710483,4.12159091 9.71497504,4.52045455 9.69284526,4.74204545 C9.64858569,5.00795455 9.44941764,5.38465909 9.44941764,5.51761364 C9.44941764,5.58409091 9.56006656,5.71704545 9.62645591,5.80568182 C9.82562396,6.07159091 9.84775374,6.53693182 9.73710483,7.09090909 C9.56006656,8.11022727 8.51996672,8.84147727 8.32079867,8.93011364 C8.18801997,8.99659091 8.16589018,9.12954545 8.16589018,9.21818182 L8.16589018,9.24034091 L7.70116473,9.24034091 L7.70116473,9.24034091 Z"></path>
                        <polygon points="7.92246256 12.1210227 10.4231281 12.1210227 10.7550749 11.5670455 7.92246256 11.5670455 5.08985025 11.5670455 5.421797 12.1210227"></polygon>
                        <path d="M7.92246256,19.0789773 L11.4189684,19.0789773 L12.0828619,23.5551136 L9.38302829,23.5551136 L8.98469218,21.6272727 C8.98469218,21.6272727 8.85191348,21.0511364 7.94459235,21.0511364 C7.03727121,21.0511364 6.90449251,21.6272727 6.90449251,21.6272727 L6.50615641,23.5551136 L3.8063228,23.5551136 L4.47021631,19.0789773 L7.92246256,19.0789773"></path>
                        <polygon points="11.1976705 18.6357955 10.9099834 18.0596591 8.89617304 18.0596591 7.92246256 18.0596591 4.93494176 18.0596591 4.64725458 18.6357955"></polygon>
                        <path d="M2.05806988,7.62272727 L2.14658902,7.62272727 C2.76622296,7.68920455 2.89900166,8.42045455 2.94326123,8.66420455 C2.9875208,8.93011364 2.96539101,9.57272727 2.9875208,9.59488636 C3.00965058,9.63920455 3.07603993,9.68352273 3.29733777,9.77215909 C3.58502496,9.86079545 3.65141431,10.2818182 3.65141431,10.5477273 C3.65141431,10.9465909 3.54076539,11.2125 3.49650582,11.3676136 C3.43011647,11.5892045 3.60715474,11.5670455 3.8063228,11.8107955 C4.00549085,12.0323864 3.98336106,12.4755682 3.9391015,12.7193182 C3.89484193,13.0073864 3.67354409,13.4284091 3.67354409,13.5613636 C3.67354409,13.6278409 3.8063228,13.7607955 3.87271215,13.8494318 C4.09400998,14.1596591 4.11613977,14.6471591 3.98336106,15.2232955 C3.78419301,16.3090909 2.69983361,17.0846591 2.50066556,17.2176136 C2.34575707,17.30625 2.36788686,17.5278409 2.36788686,17.5943182 L2.36788686,17.5943182 L2.36788686,21.9375 L2.36788686,21.9375 L1.7703827,21.9375 L1.7703827,17.5943182 L1.7703827,17.5943182 C1.7703827,17.5278409 1.79251248,17.30625 1.63760399,17.2176136 C1.43843594,17.0846591 0.354076539,16.33125 0.154908486,15.2232955 C0.0442595674,14.6471591 0.0442595674,14.1596591 0.265557404,13.8494318 C0.331946755,13.7607955 0.464725458,13.6278409 0.464725458,13.5613636 C0.464725458,13.4284091 0.243427621,13.0073864 0.199168053,12.7193182 C0.154908486,12.4755682 0.132778702,12.0323864 0.331946755,11.8107955 C0.531114809,11.5670455 0.708153078,11.6113636 0.641763727,11.3676136 C0.59750416,11.2125 0.486855241,10.9244318 0.486855241,10.5477273 C0.486855241,10.2818182 0.553244592,9.86079545 0.84093178,9.77215909 C1.06222962,9.70568182 1.12861897,9.63920455 1.15074875,9.59488636 C1.17287854,9.55056818 1.15074875,8.93011364 1.19500832,8.66420455 C1.23926789,8.42045455 1.37204659,7.68920455 1.99168053,7.62272727 L2.05806988,7.62272727 Z"></path>
                        <path d="M13.7868552,7.62272727 L13.6983361,7.62272727 C13.0565724,7.68920455 12.9237937,8.42045455 12.9016639,8.66420455 C12.8574043,8.93011364 12.8795341,9.57272727 12.8574043,9.59488636 C12.8352745,9.63920455 12.791015,9.68352273 12.5475874,9.77215909 C12.2599002,9.86079545 12.1935108,10.2818182 12.1935108,10.5477273 C12.1935108,10.9465909 12.3041597,11.2125 12.3484193,11.3676136 C12.4148087,11.5892045 12.2377704,11.5670455 12.0386023,11.8107955 C11.8394343,12.0323864 11.8615641,12.4755682 11.9058236,12.7193182 C11.9500832,13.0073864 12.171381,13.4284091 12.171381,13.5613636 C12.171381,13.6278409 12.0386023,13.7607955 11.972213,13.8494318 C11.7509151,14.1596591 11.7287854,14.6471591 11.8615641,15.2232955 C12.0828619,16.3090909 13.1450915,17.0846591 13.3442596,17.2176136 C13.4991681,17.30625 13.4770383,17.5278409 13.4770383,17.5943182 L13.4770383,17.5943182 L13.4770383,21.9375 L13.4770383,21.9375 L14.0745424,21.9375 L14.0745424,17.5943182 L14.0745424,17.5943182 C14.0745424,17.5278409 14.0524126,17.30625 14.2073211,17.2176136 C14.428619,17.0846591 15.4908486,16.33125 15.6900166,15.2232955 C15.8006656,14.6471591 15.8006656,14.1596591 15.5793677,13.8494318 C15.5129784,13.7607955 15.3801997,13.6278409 15.3801997,13.5613636 C15.3801997,13.4284091 15.6014975,13.0073864 15.6457571,12.7193182 C15.6900166,12.4755682 15.7121464,12.0323864 15.5129784,11.8107955 C15.3138103,11.5670455 15.136772,11.6113636 15.2031614,11.3676136 C15.247421,11.2125 15.3580699,10.9244318 15.3580699,10.5477273 C15.3580699,10.2818182 15.2916805,9.86079545 15.0039933,9.77215909 C14.7826955,9.70568182 14.7163062,9.63920455 14.6941764,9.59488636 C14.6720466,9.55056818 14.6941764,8.93011364 14.6499168,8.66420455 C14.6056572,8.42045455 14.4728785,7.68920455 13.8532446,7.62272727 L13.7868552,7.62272727 Z"></path>
                        <path d="M10.2239601,12.5198864 L5.62096506,12.5198864 L5.1562396,17.6386364 L10.7108153,17.6386364 L10.2239601,12.5198864 Z M6.94875208,15.7107955 L6.1078203,15.7107955 L6.1078203,14.1153409 L6.94875208,14.1153409 L6.94875208,15.7107955 Z M9.75923461,15.7107955 L8.91830283,15.7107955 L8.91830283,14.1153409 L9.75923461,14.1153409 L9.75923461,15.7107955 Z"></path>
                        <polygon points="8.91830283 9.63920455 8.91830283 10.48125 9.80349418 10.48125 9.80349418 9.63920455 10.9985025 9.63920455 10.9985025 11.1460227 7.92246256 11.1460227 4.86855241 11.1460227 4.86855241 9.63920455 6.04143095 9.63920455 6.04143095 10.48125 6.9266223 10.48125 6.9266223 9.63920455"></polygon>
                        <path d="M7.70116473,9.24034091 L7.70116473,9.21818182 C7.70116473,9.15170455 7.67903494,9.01875 7.54625624,8.93011364 C7.34708819,8.81931818 6.32911814,8.11022727 6.12995008,7.09090909 C6.01930116,6.55909091 6.01930116,6.09375 6.240599,5.80568182 C6.30698835,5.71704545 6.41763727,5.58409091 6.41763727,5.51761364 C6.41763727,5.38465909 6.21846922,5.00795455 6.17420965,4.74204545 C6.15207987,4.49829545 6.12995008,4.09943182 6.30698835,3.9 C6.48402662,3.67840909 6.66106489,3.72272727 6.59467554,3.50113636 C6.55041597,3.34602273 6.43976705,3.08011364 6.43976705,2.72556818 C6.43976705,2.48181818 6.48402662,2.10511364 6.74958403,2.01647727 C6.97088186,1.95 7.01514143,1.90568182 7.03727121,1.86136364 C7.059401,1.81704545 7.03727121,1.24090909 7.08153078,0.975 C7.12579035,0.753409091 7.23643927,0.0664772727 7.83394343,0 L7.92246256,0 L8.0109817,0 C8.60848586,0.0664772727 8.71913478,0.753409091 8.76339434,0.975 C8.80765391,1.24090909 8.78552413,1.81704545 8.80765391,1.86136364 C8.82978369,1.90568182 8.87404326,1.95 9.0953411,2.01647727 C9.3608985,2.10511364 9.42728785,2.50397727 9.42728785,2.72556818 C9.42728785,3.08011364 9.31663894,3.34602273 9.27237937,3.50113636 C9.20599002,3.72272727 9.38302829,3.67840909 9.56006656,3.9 C9.73710483,4.12159091 9.71497504,4.52045455 9.69284526,4.74204545 C9.64858569,5.00795455 9.44941764,5.38465909 9.44941764,5.51761364 C9.44941764,5.58409091 9.56006656,5.71704545 9.62645591,5.80568182 C9.82562396,6.07159091 9.84775374,6.53693182 9.73710483,7.09090909 C9.56006656,8.11022727 8.51996672,8.84147727 8.32079867,8.93011364 C8.18801997,8.99659091 8.16589018,9.12954545 8.16589018,9.21818182 L8.16589018,9.24034091 L7.70116473,9.24034091 L7.70116473,9.24034091 Z"></path>
                        <polygon points="7.92246256 12.1210227 10.4231281 12.1210227 10.7550749 11.5670455 7.92246256 11.5670455 5.08985025 11.5670455 5.421797 12.1210227"></polygon>
                        <path d="M7.92246256,19.0789773 L11.4189684,19.0789773 L12.0828619,23.5551136 L9.38302829,23.5551136 L8.98469218,21.6272727 C8.98469218,21.6272727 8.85191348,21.0511364 7.94459235,21.0511364 C7.03727121,21.0511364 6.90449251,21.6272727 6.90449251,21.6272727 L6.50615641,23.5551136 L3.8063228,23.5551136 L4.47021631,19.0789773 L7.92246256,19.0789773"></path>
                        <polygon points="11.1976705 18.6357955 10.9099834 18.0596591 8.89617304 18.0596591 7.92246256 18.0596591 4.93494176 18.0596591 4.64725458 18.6357955"></polygon>
                        <path d="M2.05806988,7.62272727 L2.14658902,7.62272727 C2.76622296,7.68920455 2.89900166,8.42045455 2.94326123,8.66420455 C2.9875208,8.93011364 2.96539101,9.57272727 2.9875208,9.59488636 C3.00965058,9.63920455 3.07603993,9.68352273 3.29733777,9.77215909 C3.58502496,9.86079545 3.65141431,10.2818182 3.65141431,10.5477273 C3.65141431,10.9465909 3.54076539,11.2125 3.49650582,11.3676136 C3.43011647,11.5892045 3.60715474,11.5670455 3.8063228,11.8107955 C4.00549085,12.0323864 3.98336106,12.4755682 3.9391015,12.7193182 C3.89484193,13.0073864 3.67354409,13.4284091 3.67354409,13.5613636 C3.67354409,13.6278409 3.8063228,13.7607955 3.87271215,13.8494318 C4.09400998,14.1596591 4.11613977,14.6471591 3.98336106,15.2232955 C3.78419301,16.3090909 2.69983361,17.0846591 2.50066556,17.2176136 C2.34575707,17.30625 2.36788686,17.5278409 2.36788686,17.5943182 L2.36788686,17.5943182 L2.36788686,21.9375 L2.36788686,21.9375 L1.7703827,21.9375 L1.7703827,17.5943182 L1.7703827,17.5943182 C1.7703827,17.5278409 1.79251248,17.30625 1.63760399,17.2176136 C1.43843594,17.0846591 0.354076539,16.33125 0.154908486,15.2232955 C0.0442595674,14.6471591 0.0442595674,14.1596591 0.265557404,13.8494318 C0.331946755,13.7607955 0.464725458,13.6278409 0.464725458,13.5613636 C0.464725458,13.4284091 0.243427621,13.0073864 0.199168053,12.7193182 C0.154908486,12.4755682 0.132778702,12.0323864 0.331946755,11.8107955 C0.531114809,11.5670455 0.708153078,11.6113636 0.641763727,11.3676136 C0.59750416,11.2125 0.486855241,10.9244318 0.486855241,10.5477273 C0.486855241,10.2818182 0.553244592,9.86079545 0.84093178,9.77215909 C1.06222962,9.70568182 1.12861897,9.63920455 1.15074875,9.59488636 C1.17287854,9.55056818 1.15074875,8.93011364 1.19500832,8.66420455 C1.23926789,8.42045455 1.37204659,7.68920455 1.99168053,7.62272727 L2.05806988,7.62272727 Z"></path>
                        <path d="M13.7868552,7.62272727 L13.6983361,7.62272727 C13.0565724,7.68920455 12.9237937,8.42045455 12.9016639,8.66420455 C12.8574043,8.93011364 12.8795341,9.57272727 12.8574043,9.59488636 C12.8352745,9.63920455 12.791015,9.68352273 12.5475874,9.77215909 C12.2599002,9.86079545 12.1935108,10.2818182 12.1935108,10.5477273 C12.1935108,10.9465909 12.3041597,11.2125 12.3484193,11.3676136 C12.4148087,11.5892045 12.2377704,11.5670455 12.0386023,11.8107955 C11.8394343,12.0323864 11.8615641,12.4755682 11.9058236,12.7193182 C11.9500832,13.0073864 12.171381,13.4284091 12.171381,13.5613636 C12.171381,13.6278409 12.0386023,13.7607955 11.972213,13.8494318 C11.7509151,14.1596591 11.7287854,14.6471591 11.8615641,15.2232955 C12.0828619,16.3090909 13.1450915,17.0846591 13.3442596,17.2176136 C13.4991681,17.30625 13.4770383,17.5278409 13.4770383,17.5943182 L13.4770383,17.5943182 L13.4770383,21.9375 L13.4770383,21.9375 L14.0745424,21.9375 L14.0745424,17.5943182 L14.0745424,17.5943182 C14.0745424,17.5278409 14.0524126,17.30625 14.2073211,17.2176136 C14.428619,17.0846591 15.4908486,16.33125 15.6900166,15.2232955 C15.8006656,14.6471591 15.8006656,14.1596591 15.5793677,13.8494318 C15.5129784,13.7607955 15.3801997,13.6278409 15.3801997,13.5613636 C15.3801997,13.4284091 15.6014975,13.0073864 15.6457571,12.7193182 C15.6900166,12.4755682 15.7121464,12.0323864 15.5129784,11.8107955 C15.3138103,11.5670455 15.136772,11.6113636 15.2031614,11.3676136 C15.247421,11.2125 15.3580699,10.9244318 15.3580699,10.5477273 C15.3580699,10.2818182 15.2916805,9.86079545 15.0039933,9.77215909 C14.7826955,9.70568182 14.7163062,9.63920455 14.6941764,9.59488636 C14.6720466,9.55056818 14.6941764,8.93011364 14.6499168,8.66420455 C14.6056572,8.42045455 14.4728785,7.68920455 13.8532446,7.62272727 L13.7868552,7.62272727 Z"></path>
                        <path d="M10.2239601,12.5198864 L5.62096506,12.5198864 L5.1562396,17.6386364 L10.7108153,17.6386364 L10.2239601,12.5198864 Z M6.94875208,15.7107955 L6.1078203,15.7107955 L6.1078203,14.1153409 L6.94875208,14.1153409 L6.94875208,15.7107955 Z M9.75923461,15.7107955 L8.91830283,15.7107955 L8.91830283,14.1153409 L9.75923461,14.1153409 L9.75923461,15.7107955 Z"></path>
                        <g transform="translate(3.319468, 25.261364)">
                            <polygon points="1.39417637 0.0664772727 1.39417637 2.50397727 1.43843594 2.57045455 1.83677205 2.59261364 1.83677205 2.83636364 0.287687188 2.83636364 0.287687188 2.59261364 0.708153078 2.57045455 0.752412646 2.50397727 0.752412646 0.620454545 0.708153078 0.576136364 0.17703827 0.664772727 0.17703827 0.421022727 1.01797005 0.110795455 1.39417637 0.110795455"></polygon>
                            <path d="M6.55041597,2.06079545 C6.55041597,2.52613636 6.12995008,2.85852273 5.44392679,2.85852273 C4.8906822,2.85852273 4.58086522,2.61477273 4.58086522,2.30454545 C4.58086522,2.10511364 4.71364393,1.95 4.91281198,1.95 C4.97920133,1.95 5.04559068,1.97215909 5.11198003,1.99431818 L5.24475874,2.52613636 C5.33327787,2.54829545 5.39966722,2.54829545 5.44392679,2.54829545 C5.70948419,2.54829545 5.88652246,2.34886364 5.88652246,2.03863636 C5.88652246,1.75056818 5.68735441,1.55113636 5.39966722,1.55113636 C5.2890183,1.55113636 5.20049917,1.55113636 5.13410982,1.57329545 L5.13410982,1.21875 C5.17836938,1.21875 5.24475874,1.24090909 5.26688852,1.24090909 C5.59883527,1.24090909 5.79800333,1.06363636 5.79800333,0.797727273 C5.79800333,0.4875 5.62096506,0.310227273 5.31114809,0.310227273 L5.24475874,0.310227273 L5.24475874,0.886363636 C5.1562396,0.930681818 5.06772047,0.952840909 4.97920133,0.952840909 C4.78003328,0.952840909 4.64725458,0.819886364 4.64725458,0.620454545 C4.64725458,0.288068182 5.00133111,0.0221590909 5.57670549,0.0221590909 C6.12995008,0.0221590909 6.46189684,0.310227273 6.46189684,0.709090909 C6.46189684,1.04147727 6.21846922,1.28522727 5.77587354,1.35170455 C6.28485857,1.41818182 6.55041597,1.68409091 6.55041597,2.06079545 Z"></path>
                            <polygon points="7.3249584 2.88068182 8.49783694 0.686931818 7.52412646 0.686931818 7.4577371 1.06363636 7.14792013 1.06363636 7.14792013 0.0886363636 9.05108153 0.0886363636 9.05108153 0.443181818 7.78968386 2.88068182"></polygon>
                            <polygon points="2.47853577 2.88068182 3.65141431 0.686931818 2.65557404 0.686931818 2.58918469 1.06363636 2.27936772 1.06363636 2.27936772 0.0886363636 4.18252912 0.0886363636 4.18252912 0.443181818 2.94326123 2.88068182"></polygon>
                        </g>
                    </g>
                </g>
            </g>
        </g>
    </g>
</svg>