<?xml version="1.0" encoding="UTF-8"?>
<svg width="320px" height="200px" viewBox="0 0 320 200" version="1.1" xmlns="http://www.w3.org/2000/svg" xmlns:xlink="http://www.w3.org/1999/xlink">
    <!-- Generator: Sketch 49.3 (51167) - http://www.bohemiancoding.com/sketch -->
    <title>bunq</title>
    <desc>Created with Sketch.</desc>
    <defs>
        <rect id="path-1" x="0" y="0" width="320" height="200" rx="25"></rect>
        <polygon id="path-3" points="0.00436548223 36.995739 42.9963621 36.995739 42.9963621 0.00113627639 0.00436548223 0.00113627639"></polygon>
    </defs>
    <g id="bunq" stroke="none" stroke-width="1" fill="none" fill-rule="evenodd">
        <g id="Group">
            <mask id="mask-2" fill="white">
                <use xlink:href="#path-1"></use>
            </mask>
            <use id="Mask" fill="#D8D8D8" xlink:href="#path-1"></use>
            <g mask="url(#mask-2)">
                <rect id="Rectangle-2" fill="#F1B400" x="0" y="0" width="320" height="200"></rect>
                <rect id="Rectangle-2-Copy" fill="#F55D00" x="0" y="0" width="296.56338" height="200"></rect>
                <rect id="Rectangle-2-Copy-2" fill="#F0170D" x="0" y="0" width="265.014085" height="200"></rect>
                <rect id="Rectangle-2-Copy-3" fill="#771315" x="0" y="0" width="237.971831" height="200"></rect>
                <rect id="Rectangle-2-Copy-4" fill="#394567" x="0" y="0" width="208.225352" height="200"></rect>
                <rect id="Rectangle-2-Copy-5" fill="#1C52A8" x="0" y="0" width="178.478873" height="200"></rect>
                <rect id="Rectangle-2-Copy-6" fill="#2489D4" x="0" y="0" width="141.521127" height="200"></rect>
                <rect id="Rectangle-2-Copy-7" fill="#00B5A9" x="7.10542736e-15" y="0" width="110.873239" height="200"></rect>
                <rect id="Rectangle-2-Copy-8" fill="#8AB949" x="-7.10542736e-15" y="0" width="82.028169" height="200"></rect>
                <rect id="Rectangle-2-Copy-9" fill="#59B92D" x="0" y="0" width="53.1830986" height="200"></rect>
                <rect id="Rectangle-2-Copy-10" fill="#2D983C" x="-3.55271368e-15" y="0" width="23.4366197" height="200"></rect>
            </g>
        </g>
        <g id="iDeal_betalen-cmyk" transform="translate(261.000000, 16.000000)">
            <g id="Group-3">
                <mask id="mask-4" fill="white">
                    <use xlink:href="#path-3"></use>
                </mask>
                <g id="Clip-2"></g>
                <path d="M0,0.00113627639 L0,37 L22.0977073,37 C36.6751438,37 42.9963621,29.0302284 42.9963621,18.4634971 C42.9963621,7.93866603 36.6751438,0.00113627639 22.0977073,0.00113627639 L0,0.00113627639" id="Fill-1" fill="#FFFFFE" mask="url(#mask-4)"></path>
            </g>
            <path d="M4.29956345,4.20202111 L4.29956345,32.7991152 L22.1007631,32.7991152 C32.8481438,32.7991152 38.6968714,27.9119904 38.6968714,18.4634971 C38.6968714,8.7550096 32.3584822,4.20202111 22.1007631,4.20202111 L4.29956345,4.20202111 Z M2.38799154,2.33540307 L22.1007631,2.33540307 C35.4811844,2.33540307 40.6072792,9.46745489 40.6072792,18.4634971 C40.6072792,29.2510211 33.4466514,34.6643129 22.1007631,34.6643129 L2.38799154,34.6643129 L2.38799154,2.33540307 L2.38799154,2.33540307 Z" id="Fill-4" fill="#1A1919"></path>
            <polygon id="Fill-5" fill="#1A1919" points="6.68748223 30.4671209 12.385819 30.4671209 12.385819 20.5675969 6.68748223 20.5675969"></polygon>
            <path d="M13.0773113,15.5790595 C13.0773113,17.488572 11.4926413,19.0364645 9.53581387,19.0364645 C7.5806599,19.0364645 5.99482572,17.488572 5.99482572,15.5790595 C5.99482572,13.6706833 7.5806599,12.1227908 9.53581387,12.1227908 C11.4926413,12.1227908 13.0773113,13.6706833 13.0773113,15.5790595" id="Fill-6" fill="#1A1919"></path>
            <path d="M15.2536497,13.9678906 L15.2536497,17.1949155 L16.2678968,17.1949155 C16.9715398,17.1949155 17.6208325,16.9955701 17.6208325,15.5539194 C17.6208325,14.1481324 16.8994365,13.9678906 16.2678968,13.9678906 L15.2536497,13.9678906 Z M32.182335,12.3614798 L33.8244839,12.3614798 L33.8244839,17.1949155 L36.2558393,17.1949155 C35.5899577,8.42676775 28.5241337,6.53152975 22.1025821,6.53152975 L15.2554687,6.53152975 L15.2554687,12.3651017 L16.2678968,12.3651017 C18.1166785,12.3651017 19.2629086,13.587167 19.2629086,15.5539194 C19.2629086,17.5840192 18.1440355,18.7965681 16.2678968,18.7965681 L15.2554687,18.7965681 L15.2554687,30.4683282 L22.1025821,30.4683282 C32.5413232,30.4683282 36.174423,25.7350979 36.3022589,18.7952898 L32.182335,18.7952898 L32.182335,12.3614798 Z M27.6076734,15.9525393 L28.7966853,15.9525393 L28.2520914,14.1337159 L28.1530677,14.1337159 L27.6076734,15.9525393 Z M25.046736,18.7988407 L27.0360863,12.3614798 L29.371401,12.3614798 L31.3571134,18.7988407 L29.6483181,18.7988407 L29.2765973,17.5529846 L27.1289983,17.5529846 L26.7555313,18.7988407 L25.046736,18.7988407 Z M24.3369814,17.1949155 L24.3369814,18.7965681 L20.2759188,18.7965681 L20.2759188,12.3651017 L24.2061624,12.3651017 L24.2061624,13.9666833 L21.9179222,13.9666833 L21.9179222,14.7101631 L24.0833469,14.7101631 L24.0833469,16.3141593 L21.9179222,16.3141593 L21.9179222,17.1949155 L24.3369814,17.1949155 L24.3369814,17.1949155 Z" id="Fill-7" fill="#C91A68"></path>
        </g>
        <g id="bunqlogo" transform="translate(21.000000, 18.000000)" fill="#FFFFFF">
            <g id="Layer_1">
                <g id="Group">
                    <path d="M10.1445991,25.4864474 C5.5374903,25.4864474 1.78963927,21.7024344 1.78963927,17.0512226 L1.78963927,2.77643283 L1.37686764,2.77643283 C0.616444135,2.77643283 0,2.15495979 0,1.38833282 C0,0.621705841 0.616444135,0 1.37686764,0 L3.16673783,0 C3.92681495,0 4.54360547,0.621822244 4.54360547,1.38833282 L4.54360547,17.0512226 C4.54360547,20.1713921 7.05625901,22.7097818 10.1445991,22.7097818 C13.2395204,22.7097818 15.7576006,20.1712757 15.7576006,17.0512226 C15.7576006,13.9311696 13.2395204,11.3926635 10.1445991,11.3926635 L8.60724123,11.3840497 C7.84693319,11.3799756 7.23302918,10.7553597 7.23730123,9.98849995 C7.24134235,9.22396822 7.85720918,8.6078497 8.61439978,8.6078497 L8.62178926,8.6078497 L10.1522195,8.61588147 C14.7585201,8.61588147 18.5120287,12.3995453 18.5120287,17.0511062 C18.5121441,21.7024344 14.7585201,25.4864474 10.1445991,25.4864474 Z" id="Shape"></path>
                    <path d="M37.1878959,22.3916537 L36.9152934,22.3916537 L36.9152934,20.548187 L36.9152934,20.1958366 C36.9152934,20.1958366 36.9441586,18.7626888 35.7789302,18.4181374 C34.7780023,18.1222422 34.219173,19.0668486 33.7446299,19.7856342 C33.3311655,20.4116469 32.9374449,20.9133417 32.3639521,21.3986238 C31.3206501,22.2811877 29.9977026,22.701168 28.6405787,22.5816226 C25.8392737,22.3345001 23.7594819,19.8356872 24.0041429,17.0112966 C24.0078377,16.9703229 24.0095696,16.9300476 24.0095696,16.8897724 L24.0095696,10.1267861 C24.0095696,9.35992636 23.3931255,8.73810412 22.632471,8.73810412 L20.9663746,8.73810412 C20.2060666,8.73810412 19.589276,9.35980996 19.589276,10.1262041 C19.589276,10.8927147 20.2060666,11.5145369 20.9663746,11.5148861 L21.2556034,11.5148861 L21.2556034,16.8322695 C20.9140709,21.1561574 24.1072493,24.969271 28.4011134,25.348394 C30.4878328,25.5319608 32.5273288,24.8854612 34.1346558,23.525647 C34.1441236,23.5177316 34.1523213,23.5090015 34.1612118,23.5008533 L34.1612118,23.7827802 C34.1612118,24.5498728 34.7780023,25.171113 35.5383103,25.171113 C35.5575923,25.171113 35.5762969,25.1689013 35.5953479,25.1683193 L37.1881268,25.1683193 C37.9485503,25.1683193 38.5649945,24.5464971 38.5649945,23.7798701 C38.5647635,23.0134759 37.9483194,22.3916537 37.1878959,22.3916537 Z" id="Shape"></path>
                    <g transform="translate(32.559889, 8.730189)" id="Shape">
                        <path d="M28.4657714,0.00791537113 C33.0728802,0.00791537113 36.8207312,3.79192838 36.8207312,8.44314014 L36.8207312,22.7180464 L37.2335028,22.7180464 C37.9939263,22.7180464 38.6103705,23.3395194 38.6103705,24.10603 C38.6103705,24.8726569 37.9939263,25.4944792 37.2335028,25.4944792 L35.4436326,25.4944792 C34.6834401,25.4944792 34.0666495,24.8726569 34.0666495,24.10603 L34.0666495,8.44314014 C34.0666495,5.32297068 31.553996,2.784581 28.4656559,2.784581 C25.3707346,2.784581 22.8527699,5.32297068 22.8527699,8.44314014 C22.8527699,11.5633096 25.37085,14.1016993 28.4656559,14.1016993 L30.0028983,14.1103131 C30.7633218,14.1142707 31.3771104,14.7388867 31.3728383,15.5057464 C31.3689127,16.2702782 30.7530458,16.8863967 29.9957398,16.8863967 L29.9883503,16.8863967 L28.4580355,16.8783649 C23.8517349,16.8783649 20.0982264,13.0947011 20.0982264,8.44314014 C20.0982264,3.79192838 23.8518504,0.00791537113 28.4657714,0.00791537113 Z"></path>
                        <path d="M1.42235911,3.10270908 L1.69496158,3.10270908 L1.69496158,4.94617573 L1.69496158,5.29852615 C1.69496158,5.29852615 1.66609643,6.73179034 2.83132479,7.07634179 C3.83225272,7.37223699 4.39108202,6.42751416 4.86562508,5.70884502 C5.27897402,5.08283229 5.67269466,4.58102104 6.24630291,4.09585535 C7.28960488,3.21329147 8.61243695,2.79331119 9.96967629,2.91274017 C12.7710968,3.15997912 14.8507731,5.65867554 14.6061121,8.4830662 C14.6024173,8.52403989 14.6006854,8.56431516 14.6006854,8.60459043 L14.6006854,15.3675766 C14.6006854,16.1344364 15.2171296,16.7562587 15.977784,16.7562587 L17.6438804,16.7562587 C18.4043039,16.7562587 19.0210944,16.1345528 19.0210944,15.3682751 C19.0210944,14.6016481 18.4043039,13.9798258 17.6438804,13.979593 L17.3547671,13.979593 L17.3547671,8.66209327 C17.6961841,4.33808899 14.5031212,0.525091752 10.209257,0.145968756 C8.12253763,-0.0377144154 6.08292616,0.608901564 4.47571463,1.96871576 C4.46624687,1.97674754 4.45804916,1.98547773 4.4491587,1.9935095 L4.4491587,1.71169901 C4.4491587,0.94449002 3.83236818,0.323366191 3.07206014,0.323366191 C3.05277822,0.323366191 3.0340736,0.325461436 3.01502261,0.326276254 L1.42224365,0.326276254 C0.66193561,0.326276254 0.0453760152,0.947982095 0.0453760152,1.71460907 C0.0456069364,2.48088684 0.662051071,3.10270908 1.42235911,3.10270908 Z"></path>
                    </g>
                </g>
            </g>
        </g>
    </g>
</svg>