<?xml version="1.0" encoding="UTF-8"?>
<svg width="320px" height="200px" viewBox="0 0 320 200" version="1.1" xmlns="http://www.w3.org/2000/svg" xmlns:xlink="http://www.w3.org/1999/xlink">
    <!-- Generator: Sketch 49.3 (51167) - http://www.bohemiancoding.com/sketch -->
    <title>bancontact</title>
    <desc>Created with Sketch.</desc>
    <defs></defs>
    <g id="bancontact" stroke="none" stroke-width="1" fill="none" fill-rule="evenodd">
        <g id="Group">
            <g>
                <rect id="Rectangle-2" fill="#0A5796" x="0" y="0" width="320" height="200" rx="25"></rect>
                <g id="Group-2" transform="translate(31.000000, 48.000000)">
                    <path d="M230.144382,28 L150.185474,28 L115.664941,66.8352912 L115.664941,66.8363124 L107.533024,75.98424 L28.6308466,75.98424 L48.4327843,53.0705093 L12.0767701,53.0705093 C5.43490424,53.0705093 0,58.6391239 0,65.4444141 L0,91.5534859 C0,98.3597973 5.43490424,103.928412 12.0767701,103.928412 L151.263666,103.928412 C157.905532,103.928412 166.978695,99.7925437 171.426364,94.7375937 L230.144382,28" id="Fill-2" fill="#004C81"></path>
                    <path d="M246.067612,0 C252.709478,0 258.144382,5.56861456 258.144382,12.374926 L258.144382,38.4829765 C258.144382,45.2882667 252.709478,50.8579025 246.067612,50.8579025 L209.830148,50.8579025 L217.911988,41.6629996 L217.91301,41.6629996 L230.002043,27.9104721 L150.044157,27.9104721 L107.391708,75.929433 L28,75.929433 L87.0900203,9.16630924 C91.553019,4.12463492 100.638446,0 107.280311,0 L246.067612,0" id="Fill-3" fill-opacity="0.1" fill="#FFFFFF"></path>
                </g>
            </g>
        </g>
        <g id="BC_logo_ORGNL_cmyk" transform="translate(25.000000, 23.000000)">
            <path d="M50.9008073,32.8614545 C50.9008073,34.5623377 49.508055,35.9538701 47.8060275,35.9538701 L3.14297248,35.9538701 C1.44094495,35.9538701 0.0481926606,34.5623377 0.0481926606,32.8614545 L0.0481926606,3.12405195 C0.0481926606,1.42332468 1.44094495,0.0317922078 3.14297248,0.0317922078 L47.8060275,0.0317922078 C49.508055,0.0317922078 50.9008073,1.42332468 50.9008073,3.12405195 L50.9008073,32.8614545" id="Fill-1" fill="#FFFFFE"></path>
            <path d="M40.9032477,10.0678442 L28.7008349,10.0678442 L23.4327064,15.9944416 L23.4327064,15.9945974 L22.1917064,17.3906494 L10.1505596,17.3906494 L13.1725046,13.8938182 L7.62426606,13.8938182 C6.61066055,13.8938182 5.78124771,14.7436364 5.78124771,15.7821818 L5.78124771,19.7666494 C5.78124771,20.8053506 6.61066055,21.6551688 7.62426606,21.6551688 L28.8653761,21.6551688 C29.8789817,21.6551688 31.2636239,21.024 31.9423761,20.2525714 L40.9032477,10.0678442" id="Fill-2" fill="#004C81"></path>
            <path d="M43.3549908,5.80846753 C44.3685963,5.80846753 45.1980092,6.65828571 45.1980092,7.69698701 L45.1980092,11.6812987 C45.1980092,12.7198442 44.3685963,13.5698182 43.3549908,13.5698182 L37.824844,13.5698182 L39.0582018,12.1665974 L39.0583578,12.1665974 L40.9032477,10.0678442 L28.7009908,10.0678442 L22.1918624,17.3959481 L10.0760092,17.3959481 L19.0936514,7.20732468 C19.7747431,6.43792208 21.1612569,5.80846753 22.1748624,5.80846753 L43.3549908,5.80846753" id="Fill-3" fill="#FFDA1A"></path>
            <path d="M9.93470642,28.4284675 C9.93470642,28.1683636 9.87325688,27.9431688 9.75066972,27.753039 C9.62792661,27.5629091 9.46650459,27.4178182 9.26624771,27.3177662 C9.46650459,27.2177143 9.62168807,27.069974 9.73195413,26.8748571 C9.84206422,26.6797403 9.89711927,26.4596883 9.89711927,26.2145455 L9.89711927,26.0794286 C9.89711927,25.7791169 9.83956881,25.528987 9.72446789,25.3288831 C9.60921101,25.1287792 9.44763303,24.9685714 9.23988991,24.8485714 C9.03214679,24.7284156 8.78291743,24.6422338 8.49266972,24.5895584 C8.20211009,24.537039 7.87926606,24.5108571 7.52366972,24.5108571 C7.40357798,24.5108571 7.27833945,24.5133506 7.14826606,24.5183377 C7.01788073,24.5233247 6.89155046,24.5295584 6.7689633,24.537039 C6.64622018,24.5445195 6.53345872,24.5534026 6.43099083,24.5633766 C6.32821101,24.5735065 6.24430275,24.5834805 6.17926606,24.5932987 C6.03406422,24.6185455 5.93144037,24.6634286 5.8713945,24.7284156 C5.81134862,24.7935584 5.78124771,24.9112208 5.78124771,25.0812468 L5.78124771,29.6443636 C5.78124771,29.8143896 5.81244037,29.9320519 5.87513761,29.997039 C5.9376789,30.0621818 6.04404587,30.1070649 6.1943945,30.1321558 C6.26941284,30.1471169 6.35955963,30.1595844 6.4646789,30.1697143 C6.56979817,30.1796883 6.68365138,30.1884156 6.8063945,30.1958961 C6.92913761,30.2033766 7.05546789,30.2096104 7.18569725,30.2147532 C7.31592661,30.2195844 7.44350459,30.2222338 7.56874312,30.2222338 C7.89423853,30.2222338 8.20086239,30.1971429 8.48892661,30.1471169 C8.7766789,30.0972468 9.027,30.0082597 9.23988991,29.8806234 C9.45277982,29.7531429 9.62168807,29.5804675 9.74692661,29.3629091 C9.87200917,29.1451948 9.93470642,28.8712208 9.93470642,28.540987 L9.93470642,28.4284675 Z M8.65783486,26.2745455 C8.65783486,26.3546494 8.6453578,26.431013 8.62024771,26.5034805 C8.59513761,26.5759481 8.5539633,26.6384416 8.49641284,26.6911169 C8.43870642,26.7436364 8.36119266,26.7861818 8.26355963,26.8185974 C8.16592661,26.8511688 8.04193578,26.8673766 7.89174312,26.8673766 L7.05063303,26.8673766 L7.05063303,25.569039 C7.07558716,25.569039 7.11442202,25.5677922 7.16698165,25.5652987 C7.21954128,25.5628052 7.27459633,25.5615584 7.33214679,25.5615584 L7.62130275,25.5615584 C8.00684404,25.5615584 8.2760367,25.6103377 8.42872477,25.7078961 C8.58141284,25.8054545 8.65783486,25.9567792 8.65783486,26.1618701 L8.65783486,26.2745455 Z M8.68793578,28.5110649 C8.68793578,28.7211429 8.61400917,28.8838442 8.46631193,28.9988571 C8.31861468,29.114026 8.05191743,29.1715325 7.66637615,29.1715325 L7.54254128,29.1715325 C7.48483486,29.1715325 7.42478899,29.1702857 7.36224771,29.1677922 C7.29955046,29.1652987 7.23950459,29.1638961 7.18195413,29.1638961 L7.05063303,29.1638961 L7.05063303,27.7605195 L7.89174312,27.7605195 C8.19212844,27.7605195 8.39987156,27.8269091 8.51512844,27.9593766 C8.63022936,28.092 8.68793578,28.2483117 8.68793578,28.4284675 L8.68793578,28.5110649 Z M14.050578,27.3252468 C14.050578,27.0501818 14.0092477,26.8161039 13.9265872,26.6234805 C13.8440826,26.431013 13.727578,26.2732987 13.5773853,26.1506494 C13.4271927,26.0281558 13.243156,25.9380779 13.0252752,25.8805714 C12.8075505,25.8230649 12.5634679,25.7942338 12.2930275,25.7942338 C12.0425505,25.7942338 11.7984679,25.8118442 11.5607798,25.8467532 C11.3227798,25.8818182 11.1337523,25.9168831 10.9936972,25.9517922 C10.8985596,25.9768831 10.8509908,26.0318961 10.8509908,26.1168312 L10.8509908,26.7247792 C10.8509908,26.774961 10.8634679,26.810026 10.888578,26.8298182 C10.9135321,26.8499221 10.9459725,26.8598961 10.986211,26.8598961 L11.0236422,26.8598961 C11.083844,26.8549091 11.1588624,26.8486753 11.2490092,26.8411948 C11.339156,26.8337143 11.4405321,26.8274805 11.5532936,26.8223377 C11.6658991,26.8175065 11.7834954,26.8137662 11.9062385,26.8111169 C12.0288257,26.8086234 12.1503211,26.8073766 12.2705688,26.8073766 C12.4457156,26.8073766 12.5834312,26.8399481 12.6835596,26.9049351 C12.7836881,26.9700779 12.8337523,27.1101818 12.8337523,27.3252468 L12.8337523,27.5954805 L12.4282477,27.5954805 C11.7822477,27.5954805 11.3127982,27.6967792 11.0198991,27.8993766 C10.727,28.101974 10.5805505,28.4234805 10.5805505,28.8637403 L10.5805505,28.9313766 C10.5805505,29.1765195 10.6168899,29.3816104 10.6894128,29.5466494 C10.7619358,29.7118442 10.8584771,29.8444675 10.9785688,29.9445195 C11.0988165,30.0445714 11.2351284,30.1159481 11.3879725,30.1583377 C11.5406606,30.2008831 11.6997431,30.2222338 11.8649083,30.2222338 C12.0902752,30.2222338 12.2842936,30.1921558 12.4469633,30.1321558 C12.609633,30.0721558 12.7635688,29.9895584 12.9089266,29.8845195 L12.9089266,30.0045195 C12.9089266,30.0445714 12.9238991,30.0796364 12.954,30.1095584 C12.9841009,30.1396364 13.0190367,30.1545974 13.0591193,30.1545974 L13.9003853,30.1545974 C13.9403119,30.1545974 13.9754037,30.1396364 14.0055046,30.1095584 C14.0356055,30.0796364 14.050578,30.0445714 14.050578,30.0045195 L14.050578,27.3252468 Z M12.856367,29.1414545 C12.7662202,29.1864935 12.6696789,29.2252987 12.567211,29.2577143 C12.4644312,29.2904416 12.3555688,29.3064935 12.2404679,29.3064935 C12.0801376,29.3064935 11.9612936,29.2840519 11.8836239,29.239013 C11.8059541,29.193974 11.7672752,29.0914286 11.7672752,28.9313766 L11.7672752,28.8637403 C11.7672752,28.7736623 11.7772569,28.6937143 11.7973761,28.6235844 C11.8173394,28.5536104 11.8524312,28.4959481 11.9024954,28.4509091 C11.9524037,28.406026 12.0200917,28.3722078 12.1052477,28.3496104 C12.1904037,28.3271688 12.2980183,28.3159481 12.4282477,28.3159481 L12.856367,28.3159481 L12.856367,29.1414545 Z M18.6471284,29.997039 L18.6471284,27.4977662 C18.6471284,27.2627532 18.6284128,27.0412987 18.5908257,26.8337143 C18.5532385,26.6261299 18.4857064,26.445974 18.3880734,26.2932468 C18.2904404,26.1406753 18.1552202,26.0192727 17.9824128,25.9293506 C17.8097615,25.8392727 17.5881376,25.7942338 17.3176972,25.7942338 C17.0773578,25.7942338 16.8644679,25.8232208 16.6793394,25.8811948 C16.494055,25.9391688 16.298789,26.0412468 16.0935413,26.1874286 L16.0935413,26.0055584 C16.0935413,25.9653506 16.0784128,25.929974 16.0484679,25.8997403 C16.018367,25.8695065 15.9832752,25.8542338 15.9431927,25.8542338 L15.1020826,25.8542338 C15.061844,25.8542338 15.0269083,25.8691948 14.9969633,25.8992727 C14.9668624,25.9293506 14.9518899,25.9644156 14.9518899,26.0043117 L14.9518899,29.997039 C14.9518899,30.0370909 14.9679541,30.0734026 15.0007064,30.1058182 C15.0331468,30.1383896 15.0694862,30.1545974 15.1095688,30.1545974 L16.018367,30.1545974 C16.0584495,30.1545974 16.0935413,30.1383896 16.1234862,30.105974 C16.1535872,30.0735584 16.1685596,30.0374026 16.1685596,29.9973506 L16.1685596,27.0469091 C16.298789,26.9770909 16.4213761,26.9197403 16.536633,26.8748571 C16.6517339,26.8298182 16.7643394,26.8073766 16.8746055,26.8073766 C16.9897064,26.8073766 17.0835963,26.8185974 17.1562752,26.8411948 C17.2287982,26.8636364 17.2851009,26.9022857 17.3251835,26.9572987 C17.3652661,27.0121558 17.3928716,27.0844675 17.407844,27.1742338 C17.4228165,27.2641558 17.4304587,27.374026 17.4304587,27.5038442 L17.4304587,29.9973506 C17.4304587,30.0374026 17.4454312,30.0735584 17.4755321,30.105974 C17.5054771,30.1383896 17.5404128,30.1545974 17.5806514,30.1545974 L18.4894495,30.1545974 C18.5293761,30.1545974 18.5657156,30.1383896 18.5983119,30.1058182 C18.6309083,30.0734026 18.6471284,30.0370909 18.6471284,29.997039 L18.6471284,29.997039 Z M22.3425229,29.937039 L22.3425229,29.2690909 C22.3425229,29.229039 22.3286422,29.1977143 22.3011927,29.1752727 C22.2735872,29.1526753 22.2397431,29.1414545 22.1998165,29.1414545 L22.1846881,29.1414545 C22.0444771,29.1564156 21.9106606,29.169039 21.7829266,29.179013 C21.6551927,29.188987 21.483633,29.193974 21.2684037,29.193974 C21.1832477,29.193974 21.1032385,29.1802597 21.0280642,29.1526753 C20.9528899,29.1252468 20.8878532,29.0777143 20.8327982,29.0100779 C20.7775872,28.9425974 20.7339174,28.8525195 20.7013211,28.74 C20.6687248,28.6273247 20.6525046,28.4884675 20.6525046,28.3234286 L20.6525046,27.693039 C20.6525046,27.5278442 20.6687248,27.388987 20.7013211,27.2764675 C20.7339174,27.1637922 20.7775872,27.0738701 20.8327982,27.0062338 C20.8878532,26.9387532 20.9528899,26.8912208 21.0280642,26.8636364 C21.1032385,26.8362078 21.1832477,26.8223377 21.2684037,26.8223377 C21.483633,26.8223377 21.6551927,26.8274805 21.7829266,26.8374545 C21.9106606,26.8474286 22.0444771,26.8598961 22.1846881,26.8748571 L22.1998165,26.8748571 C22.2397431,26.8748571 22.2735872,26.8636364 22.3011927,26.8411948 C22.3286422,26.8185974 22.3425229,26.7874286 22.3425229,26.7473766 L22.3425229,26.0794286 C22.3425229,26.0244156 22.3298899,25.9856104 22.3049358,25.963013 C22.2798257,25.9405714 22.2397431,25.9217143 22.1846881,25.9067532 C22.0795688,25.8818182 21.9431009,25.8568831 21.7754404,25.8316364 C21.6076239,25.8067013 21.4111101,25.7942338 21.1857431,25.7942338 C20.655,25.7942338 20.2306239,25.9567792 19.9127706,26.282026 C19.5947615,26.6072727 19.4358349,27.0776104 19.4358349,27.693039 L19.4358349,28.3234286 C19.4358349,28.9388571 19.5947615,29.4091948 19.9127706,29.7342857 C20.2306239,30.0596883 20.655,30.2222338 21.1857431,30.2222338 C21.4111101,30.2222338 21.6076239,30.2096104 21.7754404,30.1846753 C21.9431009,30.1595844 22.0795688,30.1346494 22.1846881,30.1095584 C22.2397431,30.0945974 22.2798257,30.0758961 22.3049358,30.0532987 C22.3298899,30.0308571 22.3425229,29.9920519 22.3425229,29.937039 L22.3425229,29.937039 Z M26.5111101,27.7455584 C26.5111101,27.4452468 26.4696239,27.1751688 26.3868073,26.935013 C26.3039908,26.6948571 26.1835872,26.491013 26.0255963,26.3233247 C25.8676055,26.1557922 25.6718716,26.0256623 25.4387064,25.9330909 C25.2053853,25.8405195 24.9355688,25.7942338 24.6295688,25.7942338 C24.3235688,25.7942338 24.0539083,25.8405195 23.8205872,25.9330909 C23.5872661,26.0256623 23.3902844,26.1557922 23.2297982,26.3233247 C23.069156,26.491013 22.9475046,26.6948571 22.864844,26.935013 C22.7818716,27.1751688 22.7405413,27.4452468 22.7405413,27.7455584 L22.7405413,28.2709091 C22.7405413,28.5710649 22.7818716,28.8412987 22.864844,29.0814545 C22.9475046,29.3216104 23.069156,29.5254545 23.2297982,29.6931429 C23.3902844,29.8608312 23.5872661,29.9908052 23.8205872,30.0833766 C24.0539083,30.1757922 24.3235688,30.2222338 24.6295688,30.2222338 C24.9355688,30.2222338 25.2053853,30.1757922 25.4387064,30.0833766 C25.6718716,29.9908052 25.8676055,29.8608312 26.0255963,29.6931429 C26.1835872,29.5254545 26.3039908,29.3216104 26.3868073,29.0814545 C26.4696239,28.8412987 26.5111101,28.5710649 26.5111101,28.2709091 L26.5111101,27.7455584 Z M25.2942844,28.2709091 C25.2942844,28.8863377 25.0726606,29.193974 24.6295688,29.193974 C24.4104404,29.193974 24.2437156,29.1165195 24.1292385,28.9612987 C24.0146055,28.8062338 23.957367,28.5760519 23.957367,28.2709091 L23.957367,27.7455584 C23.957367,27.4404156 24.0146055,27.2114805 24.1292385,27.0587532 C24.2437156,26.9061818 24.4104404,26.8298182 24.6295688,26.8298182 C25.0726606,26.8298182 25.2942844,27.1351169 25.2942844,27.7455584 L25.2942844,28.2709091 Z M30.9799266,29.997039 L30.9799266,27.4977662 C30.9799266,27.2627532 30.961055,27.0412987 30.9236239,26.8337143 C30.8860367,26.6261299 30.8183486,26.445974 30.7207156,26.2932468 C30.6230826,26.1406753 30.4878624,26.0192727 30.315211,25.9293506 C30.1424037,25.8392727 29.9209358,25.7942338 29.6504954,25.7942338 C29.410156,25.7942338 29.1972661,25.8232208 29.0119817,25.8811948 C28.8266972,25.9391688 28.6314312,26.0412468 28.4261835,26.1874286 L28.4261835,26.0055584 C28.4261835,25.9653506 28.411211,25.929974 28.3811101,25.8997403 C28.3511651,25.8695065 28.3160734,25.8542338 28.2759908,25.8542338 L27.4347248,25.8542338 C27.3946422,25.8542338 27.3597064,25.8691948 27.3296055,25.8992727 C27.2996606,25.9293506 27.2845321,25.9644156 27.2845321,26.0043117 L27.2845321,29.997039 C27.2845321,30.0370909 27.3007523,30.0734026 27.3333486,30.1058182 C27.365945,30.1383896 27.4021284,30.1545974 27.442367,30.1545974 L28.3511651,30.1545974 C28.3910917,30.1545974 28.4261835,30.1383896 28.4562844,30.105974 C28.4862294,30.0735584 28.5013578,30.0374026 28.5013578,29.9973506 L28.5013578,27.0469091 C28.6314312,26.9770909 28.7541743,26.9197403 28.8692752,26.8748571 C28.9845321,26.8298182 29.0971376,26.8073766 29.2074037,26.8073766 C29.3225046,26.8073766 29.4163945,26.8185974 29.4889174,26.8411948 C29.5614404,26.8636364 29.6178991,26.9022857 29.6579817,26.9572987 C29.6980642,27.0121558 29.7255138,27.0844675 29.7406422,27.1742338 C29.7556147,27.2641558 29.7631009,27.374026 29.7631009,27.5038442 L29.7631009,29.9973506 C29.7631009,30.0374026 29.7782294,30.0735584 29.8081743,30.105974 C29.8382752,30.1383896 29.873211,30.1545974 29.9132936,30.1545974 L30.8220917,30.1545974 C30.8621743,30.1545974 30.8985138,30.1383896 30.9311101,30.1058182 C30.9635505,30.0734026 30.9799266,30.0370909 30.9799266,29.997039 L30.9799266,29.997039 Z M34.2546881,30.0138701 L34.2546881,29.433039 C34.2546881,29.3487273 34.2021284,29.3064935 34.0970092,29.3064935 L33.7289358,29.3064935 C33.6136789,29.3064935 33.5436514,29.2852987 33.5186972,29.2427532 C33.4935872,29.2003636 33.4811101,29.1038961 33.4811101,28.9538182 L33.4811101,26.7698182 L34.0970092,26.7698182 C34.1369358,26.7698182 34.1720275,26.7547013 34.2021284,26.7244675 C34.2322294,26.6942338 34.2472018,26.6588571 34.2472018,26.6184935 L34.2472018,26.0055584 C34.2472018,25.9653506 34.2322294,25.9298182 34.2021284,25.8995844 C34.1720275,25.8693506 34.1369358,25.8542338 34.0970092,25.8542338 L33.4811101,25.8542338 L33.4811101,25.0586494 C33.4811101,25.0187532 33.468633,24.9874286 33.4438349,24.9648312 C33.4188807,24.9423896 33.3864404,24.9311688 33.3466697,24.9311688 L33.324367,24.9311688 L32.4136972,25.0887273 C32.3737706,25.0988571 32.3388349,25.1163117 32.3090459,25.1412468 C32.2792569,25.1663377 32.2642844,25.1987532 32.2642844,25.2388052 L32.2642844,25.8542338 L31.6635138,25.8542338 C31.6232752,25.8542338 31.5870917,25.8705974 31.5544954,25.903013 C31.5218991,25.9355844 31.5056789,25.9718961 31.5056789,26.0117922 L31.5056789,26.5072208 C31.5056789,26.5472727 31.5218991,26.5810909 31.5544954,26.6085195 C31.5870917,26.6361039 31.6232752,26.6548052 31.6635138,26.6647792 L32.2642844,26.7623377 L32.2642844,28.9388571 C32.2642844,29.2041039 32.2917339,29.4204156 32.3463211,29.5879481 C32.4010642,29.7556364 32.4807615,29.887013 32.5852569,29.9820779 C32.6897523,30.0771429 32.8204495,30.1408831 32.9771927,30.1734545 C33.1339358,30.2058701 33.3143853,30.2222338 33.5186972,30.2222338 C33.6286514,30.2222338 33.7264404,30.2170909 33.8115963,30.2072727 C33.8965963,30.1972987 33.9967248,30.1824935 34.1119817,30.1625455 C34.2071193,30.1478961 34.2546881,30.0981818 34.2546881,30.0138701 L34.2546881,30.0138701 Z M38.2654404,27.3252468 C38.2654404,27.0501818 38.2241101,26.8161039 38.1414495,26.6234805 C38.058789,26.431013 37.9424404,26.2732987 37.7922477,26.1506494 C37.642055,26.0281558 37.4580183,25.9380779 37.2401376,25.8805714 C37.0224128,25.8230649 36.7783303,25.7942338 36.5078899,25.7942338 C36.2574128,25.7942338 36.0133303,25.8118442 35.7756422,25.8467532 C35.5376422,25.8818182 35.3486147,25.9168831 35.2085596,25.9517922 C35.1132661,25.9768831 35.0658532,26.0318961 35.0658532,26.1168312 L35.0658532,26.7247792 C35.0658532,26.774961 35.0781743,26.810026 35.1032844,26.8298182 C35.1283945,26.8499221 35.1608349,26.8598961 35.2009174,26.8598961 L35.2385046,26.8598961 C35.2987064,26.8549091 35.3737248,26.8486753 35.4638716,26.8411948 C35.5540183,26.8337143 35.6553945,26.8274805 35.768,26.8223377 C35.8807615,26.8175065 35.9983578,26.8137662 36.1211009,26.8111169 C36.2436881,26.8086234 36.3651835,26.8073766 36.4852752,26.8073766 C36.660578,26.8073766 36.7982936,26.8399481 36.898422,26.9049351 C36.9985505,26.9700779 37.0486147,27.1101818 37.0486147,27.3252468 L37.0486147,27.5954805 L36.6431101,27.5954805 C35.9971101,27.5954805 35.5276606,27.6967792 35.2347615,27.8993766 C34.9418624,28.101974 34.7954128,28.4234805 34.7954128,28.8637403 L34.7954128,28.9313766 C34.7954128,29.1765195 34.8315963,29.3816104 34.9042752,29.5466494 C34.9767982,29.7118442 35.0733394,29.8444675 35.1934312,29.9445195 C35.3136789,30.0445714 35.4499908,30.1159481 35.6028349,30.1583377 C35.7555229,30.2008831 35.9144495,30.2222338 36.0797706,30.2222338 C36.3051376,30.2222338 36.499,30.1921558 36.6618257,30.1321558 C36.8244954,30.0721558 36.9784312,29.9895584 37.123789,29.8845195 L37.123789,30.0045195 C37.123789,30.0445714 37.1387615,30.0796364 37.1688624,30.1095584 C37.1988073,30.1396364 37.2338991,30.1545974 37.2739817,30.1545974 L38.1152477,30.1545974 C38.1551743,30.1545974 38.1902661,30.1396364 38.220367,30.1095584 C38.2503119,30.0796364 38.2654404,30.0445714 38.2654404,30.0045195 L38.2654404,27.3252468 Z M37.0712294,29.1414545 C36.9810826,29.1864935 36.8845413,29.2252987 36.7820734,29.2577143 C36.6792936,29.2904416 36.5704312,29.3064935 36.4553303,29.3064935 C36.295,29.3064935 36.176156,29.2840519 36.0984862,29.239013 C36.0208165,29.193974 35.9821376,29.0914286 35.9821376,28.9313766 L35.9821376,28.8637403 C35.9821376,28.7736623 35.9921193,28.6937143 36.0122385,28.6235844 C36.0320459,28.5536104 36.0671376,28.4959481 36.1173578,28.4509091 C36.1672661,28.406026 36.2349541,28.3722078 36.3201101,28.3496104 C36.4052661,28.3271688 36.5128807,28.3159481 36.6431101,28.3159481 L37.0712294,28.3159481 L37.0712294,29.1414545 Z M41.9606789,29.937039 L41.9606789,29.2690909 C41.9606789,29.229039 41.9467982,29.1977143 41.9193486,29.1752727 C41.8917431,29.1526753 41.858055,29.1414545 41.8179725,29.1414545 L41.803,29.1414545 C41.662789,29.1564156 41.5288165,29.169039 41.4010826,29.179013 C41.2735046,29.188987 41.101945,29.193974 40.8867156,29.193974 C40.8014037,29.193974 40.7213945,29.1802597 40.6463761,29.1526753 C40.5712018,29.1252468 40.5060092,29.0777143 40.4509541,29.0100779 C40.3958991,28.9425974 40.3520734,28.8525195 40.319633,28.74 C40.2868807,28.6273247 40.2708165,28.4884675 40.2708165,28.3234286 L40.2708165,27.693039 C40.2708165,27.5278442 40.2868807,27.388987 40.319633,27.2764675 C40.3520734,27.1637922 40.3958991,27.0738701 40.4509541,27.0062338 C40.5060092,26.9387532 40.5712018,26.8912208 40.6463761,26.8636364 C40.7213945,26.8362078 40.8014037,26.8223377 40.8867156,26.8223377 C41.101945,26.8223377 41.2735046,26.8274805 41.4010826,26.8374545 C41.5288165,26.8474286 41.662789,26.8598961 41.803,26.8748571 L41.8179725,26.8748571 C41.858055,26.8748571 41.8917431,26.8636364 41.9193486,26.8411948 C41.9467982,26.8185974 41.9606789,26.7874286 41.9606789,26.7473766 L41.9606789,26.0794286 C41.9606789,26.0244156 41.9482018,25.9856104 41.9230917,25.963013 C41.8979817,25.9405714 41.858055,25.9217143 41.803,25.9067532 C41.6978807,25.8818182 41.5612569,25.8568831 41.3935963,25.8316364 C41.2257798,25.8067013 41.029422,25.7942338 40.804055,25.7942338 C40.273156,25.7942338 39.8489358,25.9567792 39.5309266,26.282026 C39.2129174,26.6072727 39.0539908,27.0776104 39.0539908,27.693039 L39.0539908,28.3234286 C39.0539908,28.9388571 39.2129174,29.4091948 39.5309266,29.7342857 C39.8489358,30.0596883 40.273156,30.2222338 40.804055,30.2222338 C41.029422,30.2222338 41.2257798,30.2096104 41.3935963,30.1846753 C41.5612569,30.1595844 41.6978807,30.1346494 41.803,30.1095584 C41.858055,30.0945974 41.8979817,30.0758961 41.9230917,30.0532987 C41.9482018,30.0308571 41.9606789,29.9920519 41.9606789,29.937039 L41.9606789,29.937039 Z M45.1978532,30.0138701 L45.1978532,29.433039 C45.1978532,29.3487273 45.1452936,29.3064935 45.0401743,29.3064935 L44.6721009,29.3064935 C44.556844,29.3064935 44.4868165,29.2852987 44.4618624,29.2427532 C44.4367523,29.2003636 44.4242752,29.1038961 44.4242752,28.9538182 L44.4242752,26.7698182 L45.0401743,26.7698182 C45.0801009,26.7698182 45.1151927,26.7547013 45.1452936,26.7244675 C45.1752385,26.6942338 45.190367,26.6588571 45.190367,26.6184935 L45.190367,26.0055584 C45.190367,25.9653506 45.1752385,25.9298182 45.1452936,25.8995844 C45.1151927,25.8693506 45.0801009,25.8542338 45.0401743,25.8542338 L44.4242752,25.8542338 L44.4242752,25.0586494 C44.4242752,25.0187532 44.4117982,24.9874286 44.386844,24.9648312 C44.3620459,24.9423896 44.3296055,24.9311688 44.2898349,24.9311688 L44.2673761,24.9311688 L43.3567064,25.0887273 C43.3167798,25.0988571 43.282,25.1163117 43.252211,25.1412468 C43.222422,25.1663377 43.2074495,25.1987532 43.2074495,25.2388052 L43.2074495,25.8542338 L42.6066789,25.8542338 C42.5664404,25.8542338 42.5302569,25.8705974 42.4976606,25.903013 C42.4650642,25.9355844 42.448844,25.9718961 42.448844,26.0117922 L42.448844,26.5072208 C42.448844,26.5472727 42.4650642,26.5810909 42.4976606,26.6085195 C42.5302569,26.6361039 42.5664404,26.6548052 42.6066789,26.6647792 L43.2074495,26.7623377 L43.2074495,28.9388571 C43.2074495,29.2041039 43.2348991,29.4204156 43.2894862,29.5879481 C43.3442294,29.7556364 43.4239266,29.887013 43.528422,29.9820779 C43.6329174,30.0771429 43.7634587,30.1408831 43.9203578,30.1734545 C44.0771009,30.2058701 44.2575505,30.2222338 44.4618624,30.2222338 C44.5718165,30.2222338 44.6694495,30.2170909 44.7547615,30.2072727 C44.8397615,30.1972987 44.9398899,30.1824935 45.0551468,30.1625455 C45.1501284,30.1478961 45.1978532,30.0981818 45.1978532,30.0138701 L45.1978532,30.0138701 Z" id="Fill-4" fill="#004C81"></path>
        </g>
    </g>
</svg>