<?xml version="1.0" encoding="UTF-8"?>
<svg width="320px" height="200px" viewBox="0 0 320 200" version="1.1" xmlns="http://www.w3.org/2000/svg" xmlns:xlink="http://www.w3.org/1999/xlink">
    <!-- Generator: Sketch 49.3 (51167) - http://www.bohemiancoding.com/sketch -->
    <title>ing</title>
    <desc>Created with Sketch.</desc>
    <defs>
        <rect id="path-1" x="0" y="0" width="320" height="200" rx="25"></rect>
        <polygon id="path-3" points="0.00436548223 36.995739 42.9963621 36.995739 42.9963621 0.00113627639 0.00436548223 0.00113627639"></polygon>
    </defs>
    <g id="ing" stroke="none" stroke-width="1" fill="none" fill-rule="evenodd">
        <g id="Group">
            <g>
                <mask id="mask-2" fill="white">
                    <use xlink:href="#path-1"></use>
                </mask>
                <use id="Rectangle-2" fill="#FC6429" xlink:href="#path-1"></use>
                <g id="ING" mask="url(#mask-2)" opacity="0.358242754">
                    <g transform="translate(69.000000, 15.000000)" id="lion">
                        <g>
                            <path d="M300.660013,254.330824 C305.345389,253.612902 310.322018,253.720908 314.051324,250.283781 C329.880297,252.723443 345.930876,248.797112 358.372448,240.048639 C364.925643,234.737293 370.826684,228.587313 375.613366,221.859184 C379.811209,215.937922 383.135294,210.410564 385.281702,203.777735 C386.883594,199.692572 388.143581,195.429518 389.099651,191.064811 C393.614074,170.448402 391.239728,147.405037 384.559901,127.805152 C383.331573,124.16472 381.932292,120.638647 380.41271,117.277759 C372.067676,99.9714107 360.708805,81.299106 343.220955,70.3460427 C333.375334,64.1833562 324.302167,54.6534286 318.7367,44.7804237 C315.716532,42.0485112 312.816664,38.4207854 308.89741,37.7727503 C309.967449,39.5453169 311.151456,41.2734104 311.442709,43.3509346 L311.214772,43.6431857 C307.054918,43.7638981 303.806813,41.5656615 300.963929,38.8909285 L304.098066,36.0383035 C302.914059,35.4410947 301.552767,35.2060232 300.242128,34.9074188 C288.281756,33.5414625 278.442466,39.0751738 267.830723,41.7435535 L267.65977,42.334409 C274.181307,45.2505668 275.536267,52.455192 279.33522,57.3218084 C280.272296,56.1972769 281.874188,57.0168507 283.184827,56.9151981 C285.077972,57.0168507 286.857148,58.3955135 288.693309,57.9126639 C288.750294,56.3243426 287.85754,55.0600389 287.572618,53.636903 C288.693309,53.1032271 290.048269,53.5797235 291.301924,53.636903 C294.739977,55.6572477 300.242128,53.2874724 302.382205,57.9126639 C298.469283,58.1540887 294.796961,58.986369 291.118308,59.8821822 C291.36524,61.3688509 292.846832,62.5569152 292.7202,64.0435839 C289.586063,62.7348072 286.255647,61.9025269 282.766942,61.4959166 L282.583326,62.0232393 C287.028101,67.2519928 293.131753,70.3460427 299.362037,72.1884953 C308.308573,74.2660195 316.18507,69.9902587 324.83402,71.4769274 C346.051176,81.2228666 364.178516,103.535604 372.067676,124.704749 C372.453903,125.721275 372.827466,126.750507 373.175704,127.805152 C379.77322,147.138199 381.026874,170.899485 374.416695,191.064811 C370.896332,199.451148 367.021399,207.367341 360.81011,214.184416 C358.461091,217.081514 355.858807,219.667301 353.04125,221.859184 C344.139036,228.803324 333.179055,231.878314 321.870837,228.758851 C321.161699,228.269649 319.737091,228.148936 319.977691,226.910046 C320.37025,225.251838 320.737482,223.574571 321.060393,221.859184 C322.928212,212.189484 323.79564,202.024228 323.289113,191.858972 C323.276449,191.426949 323.270118,190.988572 323.251123,190.556549 C322.630627,175.797867 319.705433,162.532208 314.298256,149.768459 C310.828545,142.449474 306.706681,134.457042 301.527441,127.290536 C295.341478,118.751721 287.654929,111.369204 277.790313,107.677945 C271.743645,106.076918 264.278701,105.77196 259.713626,110.822822 C256.459189,113.6818 255.104229,117.538244 255.566435,121.769532 C250.475837,125.009707 244.745749,126.763214 238.502802,127.290536 C236.976889,127.423955 235.406655,127.995751 233.817426,127.970338 C232.310508,128.046577 230.84791,127.983044 229.397977,127.805152 C221.901375,126.87122 214.309799,122.81147 208.541722,118.167219 C208.421422,115.079523 208.237805,112.163365 208.117505,108.891423 C204.806084,107.169683 202.070838,103.897741 201.8429,100.034944 L202.134153,99.7426925 C204.039962,100.333548 205.686175,101.273834 207.408367,102.29036 C206.635913,97.6524617 205.749491,93.0780965 203.444792,89.0310539 C201.304715,88.1352407 199.17097,87.4236728 197.163856,86.3499676 C194.846494,84.8188259 193.364902,82.010674 193.016665,79.4630067 C195.087095,81.4833513 198.702432,80.7654301 200.304324,82.9064871 C197.512093,74.6408633 197.461441,65.1871752 192.896365,57.6394726 C190.585335,52.0485818 184.538667,49.4945612 180.397808,45.3966924 C178.795916,43.427174 178.143762,40.6952614 175.243894,40.3903038 C172.869548,39.7994483 172.685932,37.1310685 172.28071,35.402975 C173.755971,35.580867 174.996962,36.584686 176.237954,36.8261109 C172.806232,27.6773804 169.786064,17.5057711 160.48496,11.6798087 L158.883068,12.6899811 C155.274062,13.223657 151.418124,13.4650818 147.809118,13.5857942 C149.404679,11.2096656 152.247562,10.19314 154.501608,9.11308159 C151.886662,7.16262308 149.746584,6.68612671 146.479484,6.15245076 C144.592671,8.05208299 141.167281,9.00507574 138.735951,9.53875168 L138.432035,9.29732685 C138.37505,7.16262308 137.89385,4.55142294 141.097634,4.00504043 C138.01415,2.51837173 132.904557,3.12193381 129.764089,4.00504043 C128.883998,6.32398946 126.345031,8.40151366 126.522315,11.1461328 C124.692486,13.045765 123.39451,15.6061389 121.488702,16.9720952 C121.431718,12.3913767 123.369184,8.1727954 124.198622,4.30999811 C121.539355,5.32017043 118.829434,6.74965956 116.214488,7.99490342 C112.010313,5.55524197 107.5782,3.12193381 103.076441,1.27312786 C102.664887,1.09523588 101.778465,0.923697188 101.955749,1.69879796 C105.805356,4.48789009 104.317432,9.72299695 104.728985,13.6938001 L102.291324,11.6798087 C101.113648,8.64929178 97.6945898,6.44470187 97.0994204,3.12193381 C93.0661981,3.89703458 90.4892413,4.95803318 86.7536036,6.56541429 L86.2407449,6.87037197 C89.0203126,6.87037197 91.3946585,9.05590202 92.7559502,11.2668452 C88.551775,11.4955635 84.8161373,9.84370936 80.6626148,9.41803927 C80.2510615,9.00507574 79.8964925,8.52222608 79.2380073,8.58575893 C77.1675776,9.3608597 75.388401,10.8475284 73.5585718,12.2706642 C69.4746967,16.3177068 65.3211742,20.7777129 63.3647132,26.1335322 C64.7323364,26.3622504 66.4545287,26.3050709 67.4485882,27.1309979 C65.200874,28.5033075 63.244413,30.8222565 61.0536831,32.1246799 C60.2812292,35.2187298 60.407861,38.7384497 60.2242449,42.1183973 C58.5020527,44.742304 56.1973542,47.0485465 55.0703313,49.9774109 C51.3980096,61.9152334 50.4419396,75.1872458 50.9864563,88.7324495 C49.7961175,89.8696875 48.2512098,90.5812555 47.1305185,91.4770686 L47.2508187,103.592783 L47.5420718,103.592783 C48.0739253,101.045116 51.0940933,99.62198 52.9365858,97.8938865 L53.5254236,97.8938865 C53.2278389,100.625799 52.8796015,103.364065 52.8162856,106.15951 L49.3845642,109.012135 C45.9401797,112.042652 48.8463792,116.623371 48.5551261,120.428989 C48.7957264,121.432808 48.9666793,122.919476 49.6758173,123.160901 C50.0937022,121.674232 51.3980096,120.60688 52.2274478,119.29175 C53.7090397,118.94232 55.0070154,117.741549 56.3683071,117.576364 C55.6021848,120.549701 54.6017937,123.459505 53.4051234,126.318484 C52.8416119,126.686974 52.1704635,127.195237 51.6006205,127.805152 C50.9991195,128.453187 50.5052555,129.190169 50.3849553,130.003389 C53.056886,144.088622 57.248398,157.995963 62.041411,171.255269 C58.7933058,176.78898 56.9444817,183.30745 54.22823,189.0127 C53.842003,189.813214 53.4937656,190.632788 53.164523,191.452362 C50.4419396,198.364736 49.6125014,206.096684 46.2314328,212.735867 C44.857478,211.789227 43.3758861,211.064953 41.8436415,210.410564 C35.4424048,208.275861 28.0344455,209.641817 23.3554011,214.578319 C19.2018786,213.809572 14.940719,214.52114 11.673619,216.719376 C9.34359419,218.472883 7.53275969,220.601233 6.49437906,223.079015 C5.78524107,224.807108 5.46233002,226.687681 5.56996704,228.733438 C2.91069958,230.569538 1.48609201,233.422163 0.599669522,236.287494 C-0.647653549,242.704312 1.6063922,249.381615 5.27871393,254.330824 L300.660013,254.330824" id="Fill-5" stroke="#FFFFFF" stroke-width="13" fill="#FF5816"></path>
                            <path d="M80.3397038,69.2977506 C80.3143774,69.2723375 80.2763879,69.2469243 80.2510615,69.2405711 C80.2510615,69.2469243 80.2510615,69.2723375 80.2637247,69.2977506 L80.3397038,69.2977506" id="Fill-7" fill="#FFFFFE"></path>
                            <path d="M101.87977,122.144375 L105.438123,118.700895 C105.735708,118.700895 105.963645,118.764428 106.147261,119.005853 L105.843345,125.600563 C107.565537,127.207944 109.699283,127.74162 111.946997,127.862332 C112.130613,126.070706 113.491905,124.831815 114.264359,123.281613 C114.910181,122.03637 114.504959,120.187564 115.802935,119.29175 L116.214488,119.717421 C116.638705,121.674232 116.518404,123.872469 117.531459,125.600563 C117.645427,126.547202 117.81638,127.74162 117.93668,128.5739 C120.551627,128.694612 122.91331,127.970338 124.933086,127.030052 C124.812786,124.768282 125.58524,122.919476 125.933478,120.841952 C126.477994,120.124031 125.281324,118.821607 126.762916,118.88514 C127.592354,120.657707 129.080277,122.506513 129.909716,124.406145 C133.341437,120.899132 134.759713,116.318413 135.595483,111.572509 C134.595092,110.193846 133.050184,110.193846 131.859845,109.31074 C121.792618,106.038798 108.863513,105.378056 99.1508553,110.435271 C98.4987016,114.482314 99.3281398,118.94232 101.87977,122.144375" id="Fill-8" fill="#FFFFFE"></path>
                            <path d="M62.041411,187.170248 L62.7568806,188.301132 C65.7137328,188.116887 68.391995,186.814464 71.2918628,186.871643 C73.2419923,188.066061 75.7936228,188.008881 77.8070681,189.0127 C79.4089602,191.210937 81.1311524,193.714131 83.4928352,195.2008 C88.2985114,195.912368 90.9577789,201.083942 92.6229868,204.88956 L92.6229868,203.040754 C93.3321248,200.493086 92.5660025,197.513396 91.6099325,195.2008 C90.4259254,194.000029 88.7100647,193.231282 87.4690732,192.16393 C87.2284728,191.395182 87.4057573,191.026692 87.6463577,190.315124 C85.8038653,188.358312 83.0812819,187.284607 80.8335677,185.747112 C77.6867679,181.166393 71.6401002,182.411637 66.8470872,181.166393 L62.041411,187.170248" id="Fill-14" fill="#FFFFFE"></path>
                            <path d="M61.9464372,143.548593 C62.4719591,145.397399 63.1114496,147.716348 63.4660186,149.673159 C65.124895,145.988254 68.3983266,144.3364 71.304526,141.29953 C69.6393181,140.162292 67.57522,139.628616 65.7390591,139.266479 L65.7390591,139.158473 C64.4284202,140.467249 62.4149748,141.769673 61.9464372,143.548593" id="Fill-15" fill="#FFFFFE"></path>
                            <path d="M72.7101388,163.110357 L75.3757379,160.378445 C78.0476685,157.652885 80.2383984,154.495303 80.6499517,150.988289 C78.7568065,149.857405 76.2684919,150.626152 74.4323311,151.280541 C73.7738458,155.149691 72.7734547,158.955309 72.7101388,163.110357" id="Fill-16" fill="#FFFFFE"></path>
                            <path d="M74.6665999,171.503047 C78.7568065,171.744472 82.7203813,172.564045 86.0444657,170.257803 L89.3558868,159.546164 C88.2985114,159.488985 87.2284728,159.018842 86.2280817,159.368272 C84.0310203,164.247595 79.6368974,169.057032 74.6665999,171.503047" id="Fill-17" fill="#FFFFFE"></path>
                            <path d="M75.8696018,133.561229 C78.5288693,137.493912 82.9799765,141.890385 87.5387207,143.135629 C87.0068672,138.1483 82.7457077,134.692113 80.5549778,130.409999 L80.4346776,128.986863 C78.7124854,127.315949 76.6420557,126.191418 74.8565476,125.295605 C74.5652944,128.154583 75.3377483,130.892849 75.8696018,133.561229" id="Fill-18" fill="#FFFFFE"></path>
                            <path d="M90.3056252,171.97319 C93.452425,172.513219 96.827162,171.97319 99.7270299,171.071023 C103.943868,170.073558 106.254898,165.43566 107.673174,161.807934 L102.398961,161.807934 L96.7005303,167.392471 C94.4654793,168.586889 92.3190705,170.378515 90.3056252,171.97319" id="Fill-19" fill="#FFFFFE"></path>
                            <path d="M89.6724663,128.154583 C90.5588887,132.792481 92.5153498,137.011062 95.1872804,141.000925 L95.8964184,132.138093 L89.6724663,128.154583" id="Fill-20" fill="#FFFFFE"></path>
                            <path d="M109.09145,151.280541 C109.446019,148.307203 108.217691,144.863723 107.869454,141.833206 C106.083945,140.632435 103.589299,140.753147 101.765802,139.571436 C101.87977,144.272867 105.54576,148.250024 109.09145,151.280541" id="Fill-21" fill="#FFFFFE"></path>
                            <path d="M103.703268,181.490411 C107.438906,180.295993 111.047911,178.99357 114.479633,177.081231 C116.670363,173.942708 119.994447,171.071023 120.469316,167.392471 C117.746733,168.161219 115.372387,167.284466 112.827088,168.523356 C111.288512,171.318802 110.338773,174.476384 107.37559,176.490376 C106.90072,178.51072 104.709991,179.88303 103.703268,181.490411" id="Fill-22" fill="#FFFFFE"></path>
                            <path d="M116.917295,146.699822 L118.633155,154.558836 C122.780346,151.159828 123.622447,146.229679 123.51481,141.000925 C121.140465,143.726485 119.753847,145.397399 116.917295,146.699822" id="Fill-24" fill="#FFFFFE"></path>
                            <path d="M128.580082,160.56269 C128.643398,161.687221 128.940982,162.760927 129.599468,163.65674 C134.221528,165.314947 134.690065,170.969371 138.963888,173.104075 C141.749787,174.355672 144.940908,172.80547 147.372239,171.680939 C145.542409,169.603415 143.459316,168.161219 141.686471,165.962982 C140.432817,165.43566 139.191825,164.660559 139.255141,163.110357 L128.580082,160.56269" id="Fill-25" fill="#FFFFFE"></path>
                            <path d="M132.258735,188.62515 C134.278512,190.944099 137.001095,192.12581 139.843979,192.780198 C139.375441,192.12581 140.141564,192.780198 140.261864,192.367235 L136.697179,184.527281 C134.930666,184.571754 133.088173,184.933891 131.435629,184.819532 C131.543266,186.121956 131.847182,187.430732 132.258735,188.62515" id="Fill-26" fill="#FFFFFE"></path>
                            <path d="M138.546003,151.992109 C136.880795,148.129311 136.18432,143.440587 135.715783,139.158473 C133.930275,141.29953 132.100445,142.665486 130.435237,144.863723 C129.669115,149.266549 135.931057,150.340254 138.546003,151.992109" id="Fill-27" fill="#FFFFFE"></path>
                            <path d="M145.770346,147.957773 C147.904092,150.753218 152.583136,149.793872 155.198083,148.961592 C153.95076,146.820534 149.936532,145.575291 149.227394,143.256342 C148.803178,139.158473 147.986403,135.174963 146.669432,131.426525 C144.599002,136.477386 142.098025,142.487594 145.770346,147.957773" id="Fill-28" fill="#FFFFFE"></path>
                            <path d="M149.505984,160.56269 C155.42602,164.901984 161.232087,169.952845 169.532801,168.116746 C170.121639,167.691076 171.134693,167.754609 171.254993,166.979508 C168.823663,165.43566 166.22138,164.247595 163.726733,162.824459 L160.88385,158.656704 L159.585874,158.656704 C156.375758,159.73041 152.937705,160.13702 149.505984,160.56269" id="Fill-29" fill="#FFFFFE"></path>
                            <path d="M154.381308,135.702286 C156.692338,138.739156 160.130391,141.058105 164.036981,140.289357 C162.029868,138.326192 159.718837,136.235962 159.592206,133.44687 C160.187375,128.154583 154.381308,127.74162 151.538424,124.997 C152.475499,128.5739 152.367862,132.551056 154.381308,135.702286" id="Fill-31" fill="#FFFFFE"></path>
                            <path d="M156.913943,194.81325 L158.040966,195.340572 C160.459633,194.209687 162.897295,192.900911 165.448926,191.947918 C169.412501,190.823387 172.495984,195.340572 175.820069,192.494301 C177.06106,191.598487 178.118436,192.900911 179.068174,193.618832 C180.492782,196.236385 183.816866,196.05214 186.292517,196.770061 C185.057857,193.38376 183.519281,188.745862 179.188474,188.19948 C177.472614,187.430732 175.452837,187.500619 173.79396,186.484093 C169.241548,181.433231 166.278364,190.645495 161.295403,188.377372 C159.522558,190.353243 157.331828,192.189343 156.913943,194.81325" id="Fill-33" fill="#FFFFFE"></path>
                            <path d="M165.448926,151.280541 C167.399055,154.558836 171.191677,156.572827 174.218177,158.834596 C176.693828,159.971834 179.960928,160.257732 182.632859,159.666877 C180.081228,157.589353 177.770198,155.213224 175.636453,152.703676 C174.807015,151.521965 174.623398,150.04165 173.502707,148.961592 C170.710476,149.501621 167.57634,149.444441 165.448926,151.280541" id="Fill-35" fill="#FFFFFE"></path>
                            <path d="M168.716026,130.003389 C171.444941,133.383337 175.649116,132.01738 179.505054,132.138093 L179.505054,131.731483 L173.578686,126.725094 C171.913478,127.265123 170.146965,128.745439 168.716026,130.003389" id="Fill-36" fill="#FFFFFE"></path>
                            <path d="M59.6354071,73.9292954 L63.0671285,84.6345807 C63.0038126,78.5671935 65.7897118,73.5163319 65.200874,67.3282323 L67.7525045,63.5226145 L62.3579905,65.1871752 C60.9333829,67.9190878 59.7557073,70.6637069 59.6354071,73.9292954" id="Fill-37" fill="#FFFFFE"></path>
                            <path d="M61.9464372,55.3777031 L66.61915,52.6457906 L66.61915,45.6825902 C64.6690205,46.8833611 63.5926504,48.8973524 62.0667374,50.5047335 L61.9464372,55.3777031" id="Fill-38" fill="#FFFFFE"></path>
                            <path d="M158.05363,66.2037008 C156.920275,67.6903695 155.210746,68.0461535 153.79247,68.3447579 C156.274453,63.7640394 157.464792,57.3980478 155.501999,52.2201205 C156.812638,51.7499774 158.237246,51.5212591 159.471905,50.7969846 L159.351605,50.6889788 L162.618705,47.8236472 C166.943181,44.8503098 165.277973,39.2085927 166.879865,34.9900115 C164.746119,31.6545369 164.100297,27.6138476 161.016813,24.8184022 L161.200429,24.704043 C158.762768,21.6099932 154.381308,21.9594239 151.057223,20.4155756 C146.669432,18.9289069 143.301027,21.9594239 140.160558,23.9924751 C138.799267,24.2211934 139.628705,26.0128198 138.147113,25.9492869 C137.317675,28.1475235 136.304621,30.5300054 135.715783,32.9633136 C129.8464,32.1246799 123.51481,32.7917749 118.829434,36.1145429 C116.334788,34.2784436 113.31462,33.9163063 110.408421,33.084026 C108.281007,32.6710625 105.843345,33.4461632 104.317432,32.2453924 C102.063386,29.6977251 101.582186,25.0534737 97.7262477,24.4054386 C96.3712876,23.9289423 96.0800345,22.4422736 96.0800345,21.1271436 C93.5220725,20.7205333 91.2680267,19.532469 88.7797122,18.9860865 C84.9997534,17.2643463 81.9732538,20.0089654 79.1240387,21.8450648 C77.8767156,22.385094 76.4584396,22.5566327 75.2744324,23.2809072 C73.1470185,26.6036753 71.1209099,29.9963295 69.7659498,33.6748815 C70.1838347,36.7053984 71.4818105,39.3864847 73.0267183,41.9405053 C74.38801,45.8096559 78.6491695,48.8401728 82.2645069,50.3903744 C80.5549778,56.2735163 80.5549778,63.2938963 82.2645069,69.2405711 C82.2645069,69.2405711 82.1632015,69.3104572 82.1632015,69.2977506 C82.1632015,69.3104572 81.9732538,69.4692893 81.9732538,69.4692893 C81.4097424,69.4692893 80.8082414,69.5772952 80.3397038,69.2977506 L80.2637247,69.2977506 C81.0931629,74.9775874 83.758762,79.9458563 88.0705742,84.2089106 C89.6091504,84.7552931 89.260913,86.5913925 89.9130666,87.78581 C90.3246199,88.319486 90.3816042,89.4440174 90.1979882,89.9268671 C80.9665311,89.6219094 72.7291336,91.9472117 65.3211742,96.165793 C63.4280291,97.1187857 64.2574672,99.7426925 64.0801827,101.572439 C69.2910807,98.1353114 74.9198634,95.5685842 81.1438156,94.450406 C83.8030831,94.2661608 86.8295827,93.6117724 89.3812132,94.3296936 L89.6724663,99.4377348 C82.6254075,103.12264 74.9198634,105.263697 68.8731958,111.331084 C68.993496,113.167184 68.6452586,115.314594 69.1707805,116.864796 L74.5652944,112.455616 C79.7698608,108.478459 85.2213591,105.079452 91.2110424,102.881215 C92.8129345,104.793554 94.4781425,106.813899 96.6055564,107.989256 C100.220894,105.676661 104.133816,103.95492 108.281007,102.881215 C110.471737,101.572439 113.966774,102.760503 115.38505,100.149303 L116.398104,94.7363039 C116.214488,94.6155914 116.106851,94.3868732 115.802935,94.450406 C113.023367,92.8430249 111.180875,90.0475795 111.421475,86.7756377 C110.471737,87.2457808 109.40803,87.5443852 108.281007,87.6079181 C107.331269,87.3664932 106.444846,87.137775 106.026961,86.1784289 C105.963645,84.9840114 105.374807,83.2050915 106.552483,82.3156316 C110.408421,79.9331498 115.38505,79.8124373 120.24771,80.1745746 C123.863048,80.6447177 129.080277,80.4604724 130.314937,84.7552931 C130.150316,86.000537 130.257953,87.3664932 129.016961,88.1987736 C127.712654,88.9103415 126.231062,88.1352407 125.040723,87.6079181 C124.103648,90.5177226 122.501756,93.7960177 119.234656,94.7363039 L119.658873,98.1924909 C120.070426,99.7426925 120.184395,102.29036 122.622056,101.756684 C128.250839,103.12264 133.221137,106.038798 138.147113,109.190027 C139.799658,107.519113 141.110297,105.613128 142.287972,103.897741 C151.057223,106.871078 158.642467,113.472141 165.866811,119.596708 L166.177058,114.603026 C159.294621,108.478459 151.646061,104.139166 143.706248,100.746511 C144.010165,99.1391304 144.364734,97.5889288 144.421718,95.8735419 C153.849454,96.4008645 162.783327,99.3170224 170.552187,103.897741 L170.431886,99.62198 C162.257805,95.2191535 153.311269,92.3029957 143.528964,92.1886366 C143.180727,91.6422541 143.060426,90.8798599 143.117411,90.3398306 C147.866103,89.5647299 151.234508,84.6345807 152.367862,80.3461133 C154.792861,77.5506679 158.29423,74.5201509 157.464792,70.3587492 C157.572429,70.0220251 157.692729,69.6598879 157.813029,69.2977506 C158.142272,68.2558119 158.401867,67.1757534 158.05363,66.2037008" id="Fill-39" fill="#000000"></path>
                            <path d="M166.291027,81.4833513 L171.147356,79.9331498 L171.679209,77.2012372 C173.046833,73.2177275 170.146965,70.2443901 168.716026,67.0868074 L166.291027,81.4833513" id="Fill-40" fill="#FFFFFE"></path>
                            <path d="M178.548984,100.333548 C180.866345,102.881215 183.11406,106.991791 187.210598,105.73384 C186.906681,104.018453 185.956943,102.595317 185.368105,101.045116 C184.298067,99.7871655 183.949829,96.2229726 181.816084,97.480923 C180.214192,96.4008645 179.802638,94.6155914 178.795916,93.1924556 C178.321047,95.3906922 178.6123,98.1353114 178.548984,100.333548" id="Fill-41" fill="#FFFFFE"></path>
                            <path d="M179.384754,117.741549 C180.277508,119.005853 180.511776,120.60688 181.398199,121.737765 C182.993759,122.798764 185.368105,122.627225 187.318235,122.449333 C189.097411,122.03637 190.224434,123.993181 191.883311,122.855943 C189.812881,121.55352 188.571889,119.171038 186.609097,117.455651 C184.298067,115.606845 181.816084,117.214226 179.384754,117.741549" id="Fill-42" fill="#FFFFFE"></path>
                            <path d="M182.525222,145.397399 C186.609097,147.83706 191.813663,150.219542 197.265161,149.387262 C197.860331,149.082304 198.867053,149.145837 198.97469,148.427916 C195.606285,147.233498 192.060595,143.847197 188.514905,143.135629 C186.552112,140.105112 184.006814,143.91073 181.512167,143.669305 C181.575483,144.380873 182.284621,144.920902 182.525222,145.397399" id="Fill-43" fill="#FFFFFE"></path>
                            <path d="M195.859549,137.011062 C198.943033,139.393544 203.856346,139.628616 207.408367,138.434198 C205.154322,137.195308 202.672339,135.822998 200.829846,134.158437 L195.859549,137.011062" id="Fill-45" fill="#FFFFFE"></path>
                            <path d="M210.479188,155.270404 C210.181603,157.767245 211.84048,159.851122 213.619656,161.096366 C214.27181,159.609697 215.335517,158.364453 215.455817,156.693539 C214.923964,154.133166 213.505688,151.826923 211.188326,150.09883 C210.770441,151.76339 210.301904,153.358065 210.479188,155.270404" id="Fill-46" fill="#FFFFFE"></path>
                            <path d="M210.656473,182.373517 C210.238588,185.168963 213.322072,185.5311 214.620047,187.074948 C215.696418,188.377372 213.910909,189.273185 213.910909,190.524782 C216.164955,193.434587 217.462931,196.770061 217.462931,200.632859 C218.355685,197.011486 219.716977,193.555299 220.198177,189.813214 C219.957577,187.202014 215.816718,187.729337 216.468871,184.819532 C217.640215,181.846195 216.228271,178.930037 215.455817,176.261657 C215.215217,175.835987 214.683363,175.003707 214.214826,175.245132 C213.144787,177.684793 210.479188,179.40018 210.656473,182.373517" id="Fill-47" fill="#FFFFFE"></path>
                            <path d="M218.779901,168.224752 L221.863385,174.228606 C223.224677,174.063421 224.098436,172.741937 225.174807,171.801651 C226.004245,169.298457 223.807183,167.691076 223.161361,165.677084 C222.616844,164.247595 223.161361,162.34161 222.148307,161.096366 C221.382185,160.61987 220.489431,159.851122 219.596676,160.07984 L218.779901,168.224752" id="Fill-48" fill="#FFFFFE"></path>
                            <path d="M222.743476,152.417779 C225.174807,153.904447 227.954374,156.045504 229.25235,158.656704 C231.335443,164.724092 234.646864,170.19427 237.084526,176.077412 C237.97728,180.175281 238.686418,183.841126 239.807109,187.888169 C240.231326,188.949167 239.984394,191.026692 241.649602,190.855153 C242.118139,186.337967 243.010893,181.998674 243.067878,177.297243 C241.586286,175.340431 239.623493,174.508151 237.793664,173.313733 L237.793664,172.90077 C238.034264,171.890597 238.863702,170.702533 240.111025,170.886778 C240.636547,170.276863 242.238439,169.686007 241.529301,168.625009 C238.445817,165.530959 238.623102,160.200553 233.703457,159.24756 C231.987596,158.535992 231.569712,156.757072 231.398759,155.086158 C229.087729,153.1357 225.643344,152.468605 222.743476,152.417779" id="Fill-49" fill="#FFFFFE"></path>
                            <path d="M225.580028,184.635287 C228.606528,187.430732 227.542821,191.471422 227.30222,195.21986 C226.833683,197.481629 229.676566,196.179206 230.569321,197.360917 C232.39915,200.092829 231.335443,204.082692 230.676958,207.05603 C232.27885,204.610015 234.121342,202.475311 235.362334,199.800578 C235.299018,198.790406 236.603325,198.31391 236.552672,197.068666 C237.084526,195.340572 235.07108,196.115673 234.241642,195.937781 C233.532504,195.753536 232.76005,195.283393 232.987988,194.3304 C234.532895,191.357063 233.108288,187.786516 232.51945,184.819532 C231.810312,182.373517 232.817035,179.114282 231.690012,176.973225 C229.796867,179.584425 224.161752,180.175281 225.580028,184.635287" id="Fill-50" fill="#FFFFFE"></path>
                            <path d="M231.101174,142.424061 C236.375388,147.773527 240.231326,153.15476 245.910761,158.326334 C246.031061,156.020091 245.733477,153.866328 245.613176,151.604558 C244.777407,150.016237 243.23883,148.815466 241.934523,147.633755 C237.736679,147.208085 235.539618,141.528248 231.101174,142.424061" id="Fill-51" fill="#FFFFFE"></path>
                            <path d="M244.904038,170.766066 C245.018007,171.293388 245.258607,171.763532 245.486545,172.309914 C247.803906,176.115532 249.994636,180.035509 251.596528,184.139731 C251.121659,179.743257 254.084843,174.266726 250.178252,170.886778 C249.646399,169.457289 247.860891,169.927432 246.740199,170.048145 L244.904038,170.766066" id="Fill-52" fill="#FFFFFE"></path>
                            <path d="M84.2146364,24.8184022 L85.9368286,24.9962941 C90.5588887,27.3152432 98.030164,28.5033075 98.4353857,35.2187298 C93.7690045,37.0675357 89.260913,39.57073 85.5316069,43.3636412 C82.6823918,40.4538366 76.9333088,42.0612177 75.989902,36.9468233 C76.8826561,32.1246799 78.5921852,26.0699993 84.2146364,24.8184022" id="Fill-64" fill="#E7792B"></path>
                            <path d="M88.6720752,54.9647396 C94.053926,54.4945965 99.2711555,55.2569907 104.842954,54.7868476 C106.204246,55.3777031 107.628853,56.5721207 108.281007,57.938077 C108.097391,64.3548949 106.147261,70.4794616 105.843345,77.0805248 C103.424678,78.0970504 101.050332,80.1110417 100.461494,82.7857747 C98.2707644,83.4401631 96.3079717,84.7552931 94.1742262,85.7591121 C93.2244878,83.7387675 93.4017723,80.7082505 95.0669802,79.0500431 C97.3780103,75.7717481 103.361362,76.5468488 102.880161,71.3752748 C104.425069,68.8784338 102.943477,65.6636716 103.000462,63.0524714 C102.411624,61.0893064 101.822786,63.7005065 100.873048,63.643327 C98.9799024,64.0499372 97.0171097,64.1770029 95.3708965,63.2367167 C94.1172419,61.9152334 92.5723341,60.8542348 92.2240967,59.0626084 C90.5588887,58.2303281 88.6150909,56.9215514 87.7793211,55.1934579 L88.6720752,54.9647396" id="Fill-65" fill="#E7792B"></path>
                            <path d="M95.1872804,93.7324848 C97.7262477,94.0882688 100.398178,92.9637373 102.588908,94.2026279 C102.114039,95.0412615 100.873048,95.3906922 99.8726564,95.6321171 L95.8964184,97.480923 C94.4148266,97.1187857 95.2442647,94.7363039 95.1872804,93.7324848" id="Fill-66" fill="#E7792B"></path>
                            <path d="M105.558424,44.0752091 C108.097391,43.2429287 110.832637,41.5275418 113.555221,42.3598221 C111.59876,44.3229872 110.060183,46.8833611 108.578592,49.2531364 L100.461494,49.0815977 C101.341585,46.9405406 103.589299,45.1552675 105.558424,44.0752091" id="Fill-67" fill="#E7792B"></path>
                            <path d="M129.320878,42.1183973 C132.689283,41.5275418 132.505667,45.924015 135.595483,46.1082603 C136.133668,46.8198282 136.906122,47.4742166 136.602205,48.5352152 C134.823029,49.2531364 132.220746,48.8973524 130.194637,49.3674955 C127.53537,47.8808268 129.257562,43.2429287 125.040723,43.5478864 C124.812786,43.1984557 124.331585,42.4805345 124.933086,42.2391097 C126.231062,41.7689666 127.940591,41.9405053 129.320878,42.1183973" id="Fill-68" fill="#E7792B"></path>
                            <path d="M127.187132,58.0587894 C128.668724,55.9685586 130.92277,55.7970199 133.050184,55.3777031 L148.397956,55.6763075 C149.043778,56.2735163 147.809118,56.8071923 147.809118,57.5187602 C146.853048,58.4082201 145.491757,58.6496449 144.662318,59.4882785 C142.648873,59.5454581 142.819826,61.9152334 141.40155,62.931759 C139.204488,65.1299956 136.013368,64.1261766 133.461737,63.7640394 C132.568983,63.109651 131.568592,62.2138378 131.150707,61.2036655 L130.435237,61.9152334 C131.327992,65.2507081 131.087391,68.9356134 131.739545,72.315561 L135.411867,74.7615757 C135.468851,80.2317542 141.882751,78.7514387 144.662318,81.7819557 C144.010165,83.7387675 142.705857,85.4096814 141.287581,87.0742421 C139.033536,84.8760055 136.481905,83.4401631 133.759322,82.4935236 C133.518721,79.2787614 130.030016,77.3854825 128.067223,75.7717481 C127.53537,69.952139 127.415069,64.0054642 126.477994,58.3510405 L127.187132,58.0587894" id="Fill-69" fill="#E7792B"></path>
                            <path d="M132.752599,94.7363039 L139.869305,94.7363039 L138.976551,98.484742 L131.859845,95.4478718 C131.695224,94.8570163 132.341046,94.6791243 132.752599,94.7363039" id="Fill-70" fill="#E7792B"></path>
                            <path d="M145.555072,27.378776 L150.829286,25.7078621 C153.849454,27.1309979 156.692338,28.9226243 159.471905,30.9429689 C161.668967,34.9900115 161.301735,40.4538366 160.307675,44.9710223 C158.699452,46.7626486 155.210746,44.9710223 153.91277,47.8236472 L153.67217,47.8236472 C151.709377,42.2391097 146.14391,37.251781 140.989997,34.6850538 C141.819435,31.8324288 142.705857,29.0433367 145.555072,27.378776" id="Fill-71" fill="#E7792B"></path>
                            <path d="M269.13503,253.905154 L300.748655,253.905154 C305.4277,253.193586 310.404329,253.314298 314.139966,249.858111 C329.962608,252.297772 346.019518,248.371442 358.461091,239.635675 C365.020617,234.317976 370.921658,228.167996 375.689345,221.44622 C379.89352,215.524959 383.217604,209.991247 385.364013,203.364771 C386.965905,199.273256 388.232223,195.016555 389.181961,190.645495 C393.696384,170.035438 391.32837,146.992073 384.654875,127.379482 C383.413884,123.73905 382.027266,120.225683 380.495021,116.864796 C372.149986,99.5584472 360.81011,80.8924958 343.309598,69.9394324 C333.457645,63.7767459 324.384478,54.2277585 318.825342,44.3674602 C315.798843,41.6228411 312.892643,38.0014686 308.986053,37.3470802 C310.056091,39.1323533 311.240098,40.8477403 311.537683,42.9316178 L311.297083,43.2302222 C307.156223,43.3509346 303.889123,41.152698 301.04624,38.4716117 L304.19304,35.6189867 C302.996369,35.0281312 301.635078,34.7867064 300.337102,34.4944553 C288.364067,33.128499 278.524777,38.6495037 267.925697,41.3305899 L267.748412,41.9277987 C274.263618,44.8376033 275.624909,52.0295219 279.417531,56.9151981 C280.36727,55.7779601 281.969162,56.6102404 283.273469,56.489528 C285.160283,56.6102404 286.945791,57.9761967 288.77562,57.4997003 C288.832604,55.8986725 287.952513,54.6534286 287.654929,53.2302928 C288.77562,52.6839103 290.143243,53.1667599 291.390566,53.2302928 C294.815956,55.2442842 300.337102,52.8618023 302.470847,57.4997003 C298.557925,57.7474784 294.879272,58.5670522 291.20695,59.4628654 C291.447551,60.9495341 292.929142,62.1439517 292.808842,63.6306204 C289.662042,62.3091371 286.356953,61.4959166 282.849252,61.0702465 L282.6783,61.5975692 C287.123075,66.832676 293.220396,69.9267258 299.444348,71.7755318 C308.390883,73.853056 316.26738,69.5772952 324.916331,71.0639639 C346.139818,80.8162564 364.260826,103.12264 372.149986,124.291786 C372.536213,125.314665 372.909777,126.337544 373.264346,127.379482 C379.861862,146.712529 381.115517,170.486521 374.499006,190.645495 C370.984974,199.044537 367.10371,206.941671 360.892421,213.771452 C358.543401,216.662197 355.941118,219.247984 353.123561,221.44622 C344.221346,228.396714 333.261366,231.452644 321.96581,228.333181 C321.256672,227.863038 319.825733,227.742326 320.060002,226.497082 C320.465224,224.845228 320.826124,223.148901 321.149035,221.44622 C323.023186,211.770167 323.884282,201.604911 323.390418,191.452362 C323.365092,191.013985 323.352429,190.581962 323.339765,190.143585 C322.712938,175.391257 319.787744,162.119245 314.380567,149.361849 C310.923519,142.036511 306.795323,134.050432 301.616083,126.877573 C295.436452,118.326051 287.737239,110.943534 277.878955,107.258629 C271.832287,105.651248 264.361012,105.358996 259.808599,110.409858 C256.547831,113.262483 255.180208,117.12528 255.655077,121.350215 C250.558148,124.603097 244.828059,126.35025 238.585112,126.877573 C237.059199,127.017345 235.488965,127.570081 233.9124,127.557374 C232.39915,127.633614 230.930221,127.557374 229.499282,127.379482 C221.983686,126.445549 214.39211,122.398507 208.624032,117.741549 C208.503732,114.666559 208.326448,111.737695 208.199816,108.478459 C204.888395,106.750366 202.172143,103.472071 201.931543,99.62198 L202.229127,99.3170224 C204.122272,99.9078779 205.781149,100.867224 207.490678,101.877396 C206.724556,97.2394982 205.844465,92.6587797 203.533435,88.6180904 C201.399689,87.7286305 199.25328,87.0107093 197.239835,85.9370041 C194.928805,84.3931558 193.447213,81.6040637 193.105307,79.0373366 C195.169405,81.0703878 198.784743,80.3524666 200.386635,82.4935236 C197.607067,74.2278998 197.543751,64.7742117 192.978675,57.2265091 C190.667645,51.629265 184.620978,49.0815977 180.480118,44.9710223 C178.878226,43.0142105 178.226073,40.2822979 175.326205,39.9773402 C172.951859,39.3864847 172.774574,36.7053984 172.363021,34.9900115 C173.844613,35.1615502 175.085604,36.1717225 176.339259,36.4131473 C172.888543,27.2517103 169.868375,17.0928076 160.573602,11.2668452 L158.97171,12.2706642 C155.356373,12.8170468 151.500435,13.045765 147.891429,13.1664774 C149.493321,10.7839955 152.329873,9.78017651 154.583919,8.70011806 C151.968972,6.74965956 149.828895,6.26680989 146.561795,5.72678067 C144.674982,7.64547274 141.255923,8.58575893 138.824593,9.11308159 L138.53334,8.88436332 C138.470024,6.74965956 137.97616,4.12575284 141.179944,3.5920769 C138.09646,2.1054082 133.005863,2.69626371 129.859063,3.5920769 C128.966309,5.91102593 126.440005,7.99490342 126.610958,10.7204627 C124.781128,12.6328015 123.476821,15.1804688 121.571013,16.5591316 C121.526691,11.9784131 123.451495,7.75347859 124.280933,3.89703458 C121.621665,4.90085361 118.911745,6.32398946 116.309462,7.58193989 C112.098955,5.14227844 107.666843,2.69626371 103.171414,0.866517623 C102.747198,0.682272357 101.860775,0.498027092 102.03806,1.27312786 C105.893998,4.06857328 104.399743,9.29732685 104.811296,13.2871898 L102.379966,11.2668452 C101.195959,8.23632825 97.7769004,6.03809163 97.181731,2.69626371 C93.1548403,3.47771777 90.5715519,4.55142294 86.8422459,6.15245076 L86.3230556,6.44470187 C89.1026232,6.44470187 91.4769692,8.64929178 92.8382609,10.8475284 C88.6340856,11.0889532 84.898448,9.41803927 80.7575887,9.00507574 C80.3397038,8.58575893 79.9914664,8.10926255 79.3266495,8.1727954 C77.2562199,8.94789617 75.4833749,10.4345649 73.6408824,11.8577007 C69.5570074,15.8920367 65.4034849,20.3711026 63.4470238,25.7078621 C64.8146471,25.9492869 66.5305078,25.8921073 67.5372304,26.7243877 C65.2958479,28.090344 63.3330552,30.409293 61.1423254,31.7117164 C60.3698715,34.8057662 60.4901717,38.3127796 60.3065556,41.711787 C58.5970265,44.3229872 56.2859965,46.6419362 55.152642,49.5517408 C51.4803203,61.5022699 50.5305819,74.7615757 51.0750986,88.319486 C49.8784282,89.4440174 48.339852,90.1682919 47.2191607,91.0513985 L47.3394609,103.186173 L47.630714,103.186173 C48.1688991,100.625799 51.1890672,99.19631 53.0188964,97.480923 L53.6140658,97.480923 C53.3228127,100.212836 52.9619121,102.944748 52.9049278,105.746547 L49.4668749,108.599172 C46.0351536,111.629689 48.941353,116.197701 48.6374367,120.003318 C48.8843687,121.019844 49.04899,122.506513 49.7707912,122.747938 C50.1823445,121.261269 51.4803203,120.187564 52.3097584,118.88514 C53.7913503,118.51665 55.0956577,117.334939 56.4506178,117.157047 C55.6971587,120.124031 54.6841044,123.040189 53.4937656,125.892814 C52.9239226,126.261304 52.2527741,126.77592 51.6829311,127.379482 C51.0814301,128.033871 50.6002294,128.777205 50.4799292,129.590426 C53.1391966,143.682012 57.3307087,157.589353 62.1363849,170.848658 C58.8756164,176.369663 57.033124,182.88178 54.3105406,188.599737 C53.9243137,189.400251 53.5760763,190.207118 53.2531652,191.039398 C50.5305819,197.951772 49.6948121,205.677367 46.3137435,212.322903 C44.9524518,211.363557 43.4708599,210.658342 41.9322838,209.997601 C35.5183839,207.862897 28.1167561,209.228853 23.4440433,214.159002 C19.2905208,213.383902 15.0293613,214.09547 11.7622613,216.293706 C9.42590485,218.059919 7.61507035,220.18827 6.58302131,222.666051 C5.8865465,224.381438 5.55097227,226.268364 5.66494087,228.307768 C2.99301024,230.156574 1.56840267,233.009199 0.69464336,235.861824 C-0.5590113,242.291349 1.69503445,248.975004 5.36735618,253.905154 L269.13503,253.905154" id="Fill-72" fill="#FFFFFE"></path>
                            <path d="M384.654875,127.379482 C383.413884,123.73905 382.027266,120.225683 380.495021,116.864796 C372.149986,99.5584472 360.81011,80.8924958 343.309598,69.9394324 C333.457645,63.7767459 324.384478,54.2277585 318.825342,44.3674602 C315.798843,41.6228411 312.892643,38.0014686 308.986053,37.3470802 C310.056091,39.1323533 311.240098,40.8477403 311.537683,42.9316178 L311.297083,43.2302222 C307.156223,43.3509346 303.889123,41.152698 301.04624,38.4716117 L304.19304,35.6189867 C302.996369,35.0281312 301.635078,34.7867064 300.337102,34.4944553 C288.364067,33.128499 278.524777,38.6495037 267.925697,41.3305899 L267.748412,41.9277987 C274.263618,44.8376033 275.624909,52.0295219 279.417531,56.9151981 C280.36727,55.7779601 281.969162,56.6102404 283.273469,56.489528 C285.160283,56.6102404 286.945791,57.9761967 288.77562,57.4997003 C288.832604,55.8986725 287.952513,54.6534286 287.654929,53.2302928 C288.77562,52.6839103 290.143243,53.1667599 291.390566,53.2302928 C294.815956,55.2442842 300.337102,52.8618023 302.470847,57.4997003 C298.557925,57.7474784 294.879272,58.5670522 291.20695,59.4628654 C291.447551,60.9495341 292.929142,62.1439517 292.808842,63.6306204 C289.662042,62.3091371 286.356953,61.4959166 282.849252,61.0702465 L282.6783,61.5975692 C287.123075,66.832676 293.220396,69.9267258 299.444348,71.7755318 C308.390883,73.853056 316.26738,69.5772952 324.916331,71.0639639 C346.139818,80.8162564 364.260826,103.12264 372.149986,124.291786 C372.536213,125.314665 372.909777,126.337544 373.264346,127.379482 C379.861862,146.712529 381.115517,170.486521 374.499006,190.645495 C370.984974,199.044537 367.10371,206.941671 360.892421,213.771452 C358.543401,216.662197 355.941118,219.247984 353.123561,221.44622 C344.221346,228.396714 333.261366,231.452644 321.96581,228.333181 C321.256672,227.863038 319.825733,227.742326 320.060002,226.497082 C320.465224,224.845228 320.826124,223.148901 321.149035,221.44622 C323.023186,211.770167 323.884282,201.604911 323.390418,191.452362 C323.365092,191.013985 323.352429,190.581962 323.339765,190.143585 C322.712938,175.391257 319.787744,162.119245 314.380567,149.361849 C310.923519,142.036511 306.795323,134.050432 301.616083,126.877573 C295.436452,118.326051 287.737239,110.943534 277.878955,107.258629 C271.832287,105.651248 264.361012,105.358996 259.808599,110.409858 C256.547831,113.262483 255.180208,117.12528 255.655077,121.350215 C250.558148,124.603097 244.828059,126.35025 238.585112,126.877573 C237.059199,127.017345 235.488965,127.570081 233.9124,127.557374 C232.39915,127.633614 230.930221,127.557374 229.499282,127.379482 C221.983686,126.445549 214.39211,122.398507 208.624032,117.741549 C208.503732,114.666559 208.326448,111.737695 208.199816,108.478459 C204.888395,106.750366 202.172143,103.472071 201.931543,99.62198 L202.229127,99.3170224 C204.122272,99.9078779 205.781149,100.867224 207.490678,101.877396 C206.724556,97.2394982 205.844465,92.6587797 203.533435,88.6180904 C201.399689,87.7286305 199.25328,87.0107093 197.239835,85.9370041 C194.928805,84.3931558 193.447213,81.6040637 193.105307,79.0373366 C195.169405,81.0703878 198.784743,80.3524666 200.386635,82.4935236 C197.607067,74.2278998 197.543751,64.7742117 192.978675,57.2265091 C190.667645,51.629265 184.620978,49.0815977 180.480118,44.9710223 C178.878226,43.0142105 178.226073,40.2822979 175.326205,39.9773402 C172.951859,39.3864847 172.774574,36.7053984 172.363021,34.9900115 C173.844613,35.1615502 175.085604,36.1717225 176.339259,36.4131473 C172.888543,27.2517103 169.868375,17.0928076 160.573602,11.2668452 L158.97171,12.2706642 C155.356373,12.8170468 151.500435,13.045765 147.891429,13.1664774 C149.493321,10.7839955 152.329873,9.78017651 154.583919,8.70011806 C151.968972,6.74965956 149.828895,6.26680989 146.561795,5.72678067 C144.674982,7.64547274 141.255923,8.58575893 138.824593,9.11308159 L138.53334,8.88436332 C138.470024,6.74965956 137.97616,4.12575284 141.179944,3.5920769 C138.09646,2.1054082 133.005863,2.69626371 129.859063,3.5920769 C128.966309,5.91102593 126.440005,7.99490342 126.610958,10.7204627 C124.781128,12.6328015 123.476821,15.1804688 121.571013,16.5591316 C121.526691,11.9784131 123.451495,7.75347859 124.280933,3.89703458 C121.621665,4.90085361 118.911745,6.32398946 116.309462,7.58193989 C112.098955,5.14227844 107.666843,2.69626371 103.171414,0.866517623 C102.747198,0.682272357 101.860775,0.498027092 102.03806,1.27312786 C105.893998,4.06857328 104.399743,9.29732685 104.811296,13.2871898 L102.379966,11.2668452 C101.195959,8.23632825 97.7769004,6.03809163 97.181731,2.69626371 C93.1548403,3.47771777 90.5715519,4.55142294 86.8422459,6.15245076 L86.3230556,6.44470187 C89.1026232,6.44470187 91.4769692,8.64929178 92.8382609,10.8475284 C88.6340856,11.0889532 84.898448,9.41803927 80.7575887,9.00507574 C80.3397038,8.58575893 79.9914664,8.10926255 79.3266495,8.1727954 C77.2562199,8.94789617 75.4833749,10.4345649 73.6408824,11.8577007 C69.5570074,15.8920367 65.4034849,20.3711026 63.4470238,25.7078621 C64.8146471,25.9492869 66.5305078,25.8921073 67.5372304,26.7243877 C65.2958479,28.090344 63.3330552,30.409293 61.1423254,31.7117164 C60.3698715,34.8057662 60.4901717,38.3127796 60.3065556,41.711787 C58.5970265,44.3229872 56.2859965,46.6419362 55.152642,49.5517408 C51.4803203,61.5022699 50.5305819,74.7615757 51.0750986,88.319486 C49.8784282,89.4440174 48.339852,90.1682919 47.2191607,91.0513985 L47.3394609,103.186173 L47.630714,103.186173 C48.1688991,100.625799 51.1890672,99.19631 53.0188964,97.480923 L53.6140658,97.480923 C53.3228127,100.212836 52.9619121,102.944748 52.9049278,105.746547 L49.4668749,108.599172 C46.0351536,111.629689 48.941353,116.197701 48.6374367,120.003318 C48.8843687,121.019844 49.04899,122.506513 49.7707912,122.747938 C50.1823445,121.261269 51.4803203,120.187564 52.3097584,118.88514 C53.7913503,118.51665 55.0956577,117.334939 56.4506178,117.157047 C55.6971587,120.124031 54.6841044,123.040189 53.4937656,125.892814 C52.9239226,126.261304 52.2527741,126.77592 51.6829311,127.379482 C51.0814301,128.033871 50.6002294,128.777205 50.4799292,129.590426 C53.1391966,143.682012 57.3307087,157.589353 62.1363849,170.848658 C58.8756164,176.369663 57.033124,182.88178 54.3105406,188.599737 C53.9243137,189.400251 53.5760763,190.207118 53.2531652,191.039398 C50.5305819,197.951772 49.6948121,205.677367 46.3137435,212.322903 C44.9524518,211.363557 43.4708599,210.658342 41.9322838,209.997601 C35.5183839,207.862897 28.1167561,209.228853 23.4440433,214.159002 C19.2905208,213.383902 15.0293613,214.09547 11.7622613,216.293706 C9.42590485,218.059919 7.61507035,220.18827 6.58302131,222.666051 C5.8865465,224.381438 5.55097227,226.268364 5.66494087,228.307768 C2.99301024,230.156574 1.56840267,233.009199 0.69464336,235.861824 C-0.5590113,242.291349 1.69503445,248.975004 5.36735618,253.905154 L110.072847,253.905154 C108.53427,252.069054 107.109663,249.50868 106.033293,247.310444 C103.785579,243.911436 105.330486,239.101999 105.089886,235.175669 C107.2173,230.861789 109.389035,226.509789 111.826697,222.278501 C112.326892,221.433514 112.814425,220.601233 113.327283,219.775306 L118.126628,217.932854 C120.671927,217.932854 122.818336,216.090401 125.237003,216.744789 C128.497771,220.016731 128.497771,213.479201 131.644571,213.180597 C138.989214,212.227604 146.276874,212.939172 150.417733,219.184451 C150.417733,220.016731 151.728372,220.016731 151.430787,220.798185 C150.481049,221.084083 149.588295,220.493228 148.587904,220.493228 C144.086144,219.362343 138.805598,216.503365 134.367154,219.063739 C134.196201,220.13109 133.961933,221.217502 133.75299,222.278501 C133.531385,223.415739 133.328774,224.527564 133.2338,225.601269 C136.133668,226.433549 138.564998,228.517427 140.762059,230.779196 C142.243651,227.863038 145.38412,226.560615 148.170019,225.601269 C150.601349,226.134945 153.260617,226.198478 155.280393,227.742326 C159.016031,231.198513 157.173539,237.081655 156.825301,241.478128 C160.200038,243.37776 163.929344,244.451465 167.361066,246.293918 C165.765505,247.729761 163.644423,248.320616 161.68163,249.032184 L155.995863,247.901299 C155.343709,247.424803 154.210355,247.424803 153.969754,246.592523 C152.082941,248.612867 149.765579,251.293953 148.587904,253.905154 L229.758877,253.905154 C228.688839,251.465492 227.447847,249.56586 225.966255,247.310444 C224.307379,243.739898 224.965864,238.860575 224.78858,235.054957 L232.373823,223.460212 C236.514683,223.403032 241.200059,221.859184 245.70815,222.627931 C245.936087,222.532632 246.151362,222.41192 246.353972,222.278501 C248.221791,220.988784 248.791634,217.977327 251.571202,218.352171 C256.547831,216.986214 260.340453,219.247984 264.076091,221.509753 C263.95579,221.808358 263.829159,222.062489 263.696195,222.278501 C262.132293,224.794402 259.207098,221.98625 257.073353,222.748644 C256.18693,223.70799 257.497569,224.826168 257.662191,225.906226 C258.440976,226.967225 256.896068,226.846513 256.364215,227.030758 C255.123223,227.20865 253.761932,226.910046 252.812193,225.906226 C252.571593,225.601269 252.755209,225.251838 252.28034,225.188305 C251.210301,226.967225 249.671725,228.574606 249.260172,230.594951 C250.621463,231.910081 252.451293,233.212504 253.11611,234.883418 C254.477401,236.846583 252.046071,238.326899 251.571202,240.054992 C251.393917,240.404423 250.849401,240.404423 250.678448,240.054992 C249.431125,239.343424 248.367418,237.558151 247.006126,238.021941 C245.815787,243.320581 247.417679,248.612867 246.708541,253.905154 C249.019571,254.451536 251.735823,253.784441 254.230469,253.905154 L255.243524,242.729725 C256.307231,235.474274 260.581053,229.41324 265.614667,223.873175 C271.059833,220.137444 274.567534,227.513608 278.581761,230.067628 C279.233915,230.181987 279.005978,230.899909 279.297231,231.306519 C279.233915,232.500936 277.999255,232.977433 277.169817,233.33957 C274.675171,234.216323 272.83901,231.490764 271.300434,229.883383 C269.818842,231.490764 269.166688,233.625468 267.444496,234.883418 L268.033334,235.054957 C270.002458,237.024475 271.889272,239.101999 272.313488,241.725906 C272.066556,244.089328 270.88888,246.414631 268.748803,247.609048 C267.159574,244.864429 265.842604,241.833912 264.785229,239.04482 C264.842213,239.165532 264.721913,239.222712 264.601612,239.343424 C261.340844,240.226531 260.460753,243.911436 259.916236,246.89748 C260.099853,249.807285 257.909123,250.995349 258.49796,253.905154 L300.748655,253.905154 C305.4277,253.193586 310.404329,253.314298 314.139966,249.858111 C329.962608,252.297772 346.019518,248.371442 358.461091,239.635675 C365.020617,234.317976 370.921658,228.167996 375.689345,221.44622 C379.89352,215.524959 383.217604,209.991247 385.364013,203.364771 C386.965905,199.273256 388.232223,195.016555 389.181961,190.645495 C393.696384,170.035438 391.32837,146.992073 384.654875,127.379482" id="Fill-73" fill="#FF5816"></path>
                            <path d="M80.4220144,68.8784338 C80.3966881,68.8657272 80.3713617,68.8403141 80.3397038,68.814901 C80.3397038,68.8403141 80.352367,68.8530207 80.352367,68.8784338 L80.4220144,68.8784338" id="Fill-79" fill="#FFFFFE"></path>
                            <path d="M101.968412,121.737765 L105.520434,118.287931 C105.818019,118.287931 106.058619,118.351464 106.229572,118.580183 L105.938319,125.181246 C107.65418,126.782274 109.781594,127.315949 112.035639,127.436662 C112.212924,125.664095 113.580547,124.406145 114.346669,122.855943 C114.998823,121.6107 114.58727,119.768247 115.891577,118.88514 L116.309462,119.29175 C116.721015,121.261269 116.600715,123.459505 117.613769,125.181246 C117.73407,126.134238 117.898691,127.315949 118.018991,128.154583 C120.633937,128.268942 123.008283,127.557374 125.015397,126.604382 C124.895097,124.348965 125.673882,122.506513 126.02212,120.428989 C126.560305,119.717421 125.363635,118.402291 126.845226,118.45947 C127.680996,120.251097 129.162588,122.087196 129.992026,123.993181 C133.423748,120.486168 134.854687,115.911803 135.677793,111.146839 C134.677402,109.787236 133.138826,109.787236 131.942156,108.891423 C121.874929,105.625834 108.964819,104.971446 99.2458291,110.022308 C98.5873438,114.056644 99.4104504,118.51665 101.968412,121.737765" id="Fill-80" fill="#FFFFFE"></path>
                            <path d="M62.1363849,186.750931 L62.8518544,187.888169 C65.8150382,187.703924 68.4743056,186.4015 71.3741735,186.45868 C73.3306346,187.646744 75.882265,187.583211 77.8893788,188.599737 C79.4912708,190.797973 81.2197947,193.288461 83.5751459,194.77513 C88.3808221,195.486698 91.0400895,200.670978 92.7052975,204.470243 L92.7052975,202.634143 C93.4144355,200.067416 92.6419816,197.094079 91.7049064,194.77513 C90.5145676,193.593419 88.7923754,192.818318 87.5513839,191.757319 C87.3107835,190.982219 87.4943996,190.620081 87.7286684,189.908514 C85.8861759,187.945348 83.1635926,186.871643 80.9158784,185.327795 C77.7690786,180.747077 71.7350741,181.998674 66.9357295,180.747077 L62.1363849,186.750931" id="Fill-86" fill="#FFFFFE"></path>
                            <path d="M62.0287479,143.135629 C62.5606013,144.984435 63.2000919,147.297031 63.5609924,149.266549 C65.2135372,145.575291 68.4869688,143.91073 71.3868367,140.880213 C69.7279603,139.749328 67.6575306,139.209299 65.8213698,138.859868 L65.8213698,138.739156 C64.5107308,140.041579 62.4972855,141.363063 62.0287479,143.135629" id="Fill-87" fill="#FFFFFE"></path>
                            <path d="M72.7987811,162.703747 L75.4580485,159.971834 C78.1299792,157.227215 80.3270406,154.075986 80.7322623,150.568973 C78.8454487,149.444441 76.3508026,150.219542 74.5209733,150.867577 C73.8688196,154.724021 72.8557654,158.535992 72.7987811,162.703747" id="Fill-88" fill="#FFFFFE"></path>
                            <path d="M74.7489105,171.090083 C78.8454487,171.318802 82.8216868,172.151082 86.1331079,169.832133 L89.4571922,159.139554 C88.3808221,159.076021 87.3107835,158.593172 86.3103924,158.955309 C84.1196625,163.828279 79.7382028,168.644069 74.7489105,171.090083" id="Fill-89" fill="#FFFFFE"></path>
                            <path d="M75.9519125,133.154618 C78.6175115,137.068242 83.0749503,141.464715 87.6210314,142.722666 C87.0955095,137.72263 82.8280183,134.27915 80.6372885,130.003389 L80.5169883,128.5739 C78.794796,126.902986 76.7243664,125.772101 74.9451898,124.888995 C74.6539367,127.74162 75.4263906,130.473532 75.9519125,133.154618" id="Fill-90" fill="#FFFFFE"></path>
                            <path d="M90.3942674,171.560226 C93.5347357,172.093902 96.9221359,171.560226 99.8220037,170.664413 C104.026179,169.647888 106.343541,165.022696 107.761817,161.39497 L102.487603,161.39497 L96.8018357,166.979508 C94.5477899,168.161219 92.4140444,169.952845 90.3942674,171.560226" id="Fill-91" fill="#FFFFFE"></path>
                            <path d="M89.7547769,127.74162 C90.647531,132.385871 92.6103236,136.598099 95.2759227,140.587962 L95.9787291,131.731483 L89.7547769,127.74162" id="Fill-92" fill="#FFFFFE"></path>
                            <path d="M109.180093,150.867577 C109.540993,147.89424 108.300002,144.444406 107.951764,141.420242 C106.166256,140.225825 103.690605,140.346537 101.848112,139.158473 C101.968412,143.847197 105.628071,147.83706 109.180093,150.867577" id="Fill-93" fill="#FFFFFE"></path>
                            <path d="M103.785579,181.071094 C107.514885,179.88303 111.136554,178.580606 114.580938,176.674621 C116.771668,173.517038 120.083089,170.664413 120.56429,166.979508 C117.829043,167.754609 115.467361,166.858795 112.91573,168.116746 C111.370822,170.905838 110.421084,174.063421 107.4579,176.077412 C106.989363,178.097757 104.798633,179.463713 103.785579,181.071094" id="Fill-94" fill="#FFFFFE"></path>
                            <path d="M116.999605,146.293212 L118.715466,154.133166 C122.862657,150.753218 123.717421,145.816715 123.597121,140.587962 C121.222775,143.319874 119.855152,144.984435 116.999605,146.293212" id="Fill-96" fill="#FFFFFE"></path>
                            <path d="M128.681387,160.13702 C128.738372,161.274258 129.029625,162.34161 129.681778,163.23107 C134.303838,164.901984 134.778708,170.543701 139.05253,172.684758 C141.832098,173.942708 145.035882,172.392507 147.454549,171.255269 C145.62472,169.177744 143.547959,167.754609 141.768782,165.556372 C140.527791,165.022696 139.280468,164.247595 139.337452,162.703747 L128.681387,160.13702" id="Fill-97" fill="#FFFFFE"></path>
                            <path d="M132.353709,188.212186 C134.367154,190.524782 137.083406,191.7192 139.932621,192.367235 C139.457752,191.7192 140.230206,192.367235 140.350506,191.954271 L136.798485,184.101611 C135.012976,184.165144 133.170484,184.527281 131.524271,184.406569 C131.644571,185.715345 131.929493,187.017769 132.353709,188.212186" id="Fill-98" fill="#FFFFFE"></path>
                            <path d="M138.628314,151.585498 C136.969438,147.716348 136.279294,143.014917 135.798094,138.739156 C134.025249,140.880213 132.182756,142.252523 130.517548,144.444406 C129.751426,148.840879 136.026031,149.914584 138.628314,151.585498" id="Fill-99" fill="#FFFFFE"></path>
                            <path d="M145.852657,147.532102 C147.999066,150.340254 152.671779,149.387262 155.280393,148.554981 C154.03307,146.413924 150.025174,145.149621 149.309705,142.849731 C148.898152,138.739156 148.068713,134.749293 146.758074,131.013561 C144.687645,136.070776 142.180335,142.074631 145.852657,147.532102" id="Fill-100" fill="#FFFFFE"></path>
                            <path d="M149.588295,160.13702 C155.508331,164.476314 161.327061,169.539882 169.615111,167.691076 C170.203949,167.284466 171.217003,167.328939 171.337304,166.566544 C168.905973,165.022696 166.30369,163.828279 163.809044,162.398789 L160.966161,158.243741 L159.668185,158.243741 C156.464401,159.30474 153.032679,159.73041 149.588295,160.13702" id="Fill-101" fill="#FFFFFE"></path>
                            <path d="M154.463618,135.295675 C156.774649,138.326192 160.20637,140.651495 164.125624,139.876394 C162.112178,137.906876 159.801148,135.822998 159.680848,133.033906 C160.269686,127.74162 154.463618,127.315949 151.620735,124.584037 C152.576805,128.154583 152.450173,132.138093 154.463618,135.295675" id="Fill-103" fill="#FFFFFE"></path>
                            <path d="M156.996254,194.387579 L158.123277,194.927609 C160.560939,193.796724 162.979606,192.494301 165.531236,191.534955 C169.494811,190.410423 172.578295,194.927609 175.902379,192.06863 C177.143371,191.185524 178.21341,192.494301 179.150485,193.205868 C180.587755,195.817069 183.899177,195.632823 186.393823,196.344391 C185.140168,192.95809 183.59526,188.326546 179.277116,187.786516 C177.561256,187.017769 175.541479,187.074948 173.888934,186.064776 C169.33019,181.007561 166.360675,190.232531 161.377714,187.970762 C159.6112,189.927573 157.414139,191.782733 156.996254,194.387579" id="Fill-105" fill="#FFFFFE"></path>
                            <path d="M165.531236,150.867577 C167.481366,154.133166 171.273988,156.166217 174.300487,158.421633 C176.795134,159.546164 180.04957,159.851122 182.721501,159.24756 C180.163539,157.163683 177.852509,154.787554 175.725095,152.297066 C174.895657,151.102649 174.712041,149.61598 173.591349,148.554981 C170.811782,149.082304 167.664982,149.018771 165.531236,150.867577" id="Fill-107" fill="#FFFFFE"></path>
                            <path d="M168.811,129.590426 C171.527251,132.970373 175.737758,131.61077 179.587364,131.731483 L179.587364,131.305812 L173.660997,126.318484 C172.002121,126.845806 170.229276,128.332475 168.811,129.590426" id="Fill-108" fill="#FFFFFE"></path>
                            <path d="M59.7177178,73.5163319 L63.1494391,84.2216171 C63.0861232,78.1542299 65.8846857,73.0906618 65.2958479,66.9152687 L67.8348151,63.109651 L62.4403011,64.7742117 C61.0220252,67.5061242 59.838018,70.2443901 59.7177178,73.5163319" id="Fill-109" fill="#FFFFFE"></path>
                            <path d="M62.0287479,54.9647396 L66.7141239,52.232827 L66.7141239,45.2759799 C64.7513312,46.457691 63.6939558,48.4907422 62.149048,50.0854167 L62.0287479,54.9647396" id="Fill-110" fill="#FFFFFE"></path>
                            <path d="M158.142272,65.784384 C157.015249,67.2646994 155.293057,67.6331899 153.874781,67.9190878 C156.369427,63.3510758 157.547102,56.9850842 155.596973,51.8135102 C156.894949,51.3370139 158.319556,51.1019423 159.560548,50.3903744 L159.440248,50.2633087 L162.707348,47.4106837 C167.025491,44.4436996 165.360283,38.7956292 166.968507,34.5706947 C164.834762,31.2479266 164.182608,27.1945308 161.099124,24.4054386 L161.28274,24.2847262 C158.85141,21.1843231 154.463618,21.5528137 151.152197,20.0089654 C146.758074,18.5159434 143.383337,21.5528137 140.242869,23.566805 C138.881577,23.8082298 139.711016,25.5871497 138.229424,25.5299701 C137.399986,27.7282067 136.386931,30.1043353 135.798094,32.55035 C129.92871,31.7117164 123.597121,32.3661048 118.911745,35.7015794 C116.417099,33.8527735 113.409594,33.5033428 110.497063,32.6710625 C108.363318,32.2453924 105.938319,33.0204931 104.399743,31.8324288 C102.145697,29.2847615 101.670828,24.6405102 97.81489,23.9924751 C96.4472667,23.5096255 96.1623452,22.0229568 96.1623452,20.7205333 C93.6107147,20.2948632 91.356669,19.1131522 88.874686,18.5794763 C85.0820641,16.8513827 82.0618961,19.5960019 79.2190125,21.4321012 C77.9653578,21.9594239 76.5470819,22.1436692 75.3630747,22.8552371 C73.2293291,26.1907117 71.2222154,29.5770127 69.8482605,33.261918 C70.272477,36.2924349 71.5704528,38.9671679 73.1090289,41.5275418 C74.4703206,45.3966924 78.7314801,48.4272093 82.3468176,49.9774109 C80.6372885,55.8605528 80.6372885,62.8682262 82.3468176,68.814901 C82.3468176,68.814901 82.2518437,68.8974937 82.2518437,68.8784338 C82.2518437,68.8974937 82.0618961,69.0563258 82.0618961,69.0563258 C81.5047162,69.0563258 80.890552,69.1643316 80.4220144,68.8784338 L80.352367,68.8784338 C81.1944683,74.5519173 83.8537358,79.5328928 88.165548,83.8023003 C89.7104558,84.3359763 89.3432236,86.1784289 89.9953773,87.3664932 C90.4132622,87.9065225 90.4765781,89.0310539 90.2992936,89.5075503 C81.0488418,89.2089459 72.8114442,91.5342482 65.4034849,95.7528295 C63.5103397,96.7121755 64.3397779,99.3170224 64.1624934,101.165828 C69.3797229,97.7096413 75.0021741,95.161974 81.2261263,94.0247359 C83.8917253,93.8531972 86.9118934,93.1924556 89.4635238,93.9040235 L89.7547769,99.0247713 C82.7077181,102.71603 75.0021741,104.850734 68.9681696,110.918121 C69.0758066,112.75422 68.7275692,114.895277 69.2594227,116.439126 L74.6539367,112.042652 C79.8648346,108.052789 85.3100013,104.666488 91.2933531,102.468252 C92.9015767,104.367884 94.5604531,106.400935 96.6941987,107.582646 C100.303205,105.263697 104.222458,103.535604 108.363318,102.468252 C110.554047,101.165828 114.061748,102.347539 115.480024,99.7426925 L116.480415,94.3296936 C116.309462,94.2026279 116.189162,93.9675564 115.891577,94.0247359 C113.105678,92.4173548 111.263185,89.6219094 111.503786,86.3626742 C110.554047,86.8328173 109.496672,87.137775 108.363318,87.182248 C107.426242,86.959883 106.533488,86.7121049 106.109272,85.7591121 C106.058619,84.5774011 105.457118,82.7857747 106.647457,81.9026681 C110.497063,79.5201862 115.480024,79.3994738 120.336353,79.7489045 C123.945359,80.2317542 129.162588,80.0538622 130.416243,84.3359763 C130.232627,85.5875734 130.352927,86.959883 129.099272,87.78581 C127.801296,88.5037313 126.319704,87.7286305 125.135697,87.182248 C124.185959,90.1047591 122.590398,93.3703476 119.335962,94.3296936 L119.741183,97.7731741 C120.152737,99.3170224 120.273037,101.877396 122.704367,101.337367 C128.326818,102.71603 133.316111,105.625834 138.229424,108.764357 C139.894632,107.112503 141.192608,105.206518 142.376615,103.472071 C151.152197,106.458115 158.724778,113.059178 165.968116,119.183745 L166.253038,114.183709 C159.376932,108.052789 151.741035,103.719849 143.794891,100.333548 C144.092475,98.7261669 144.459708,97.1759653 144.516692,95.4478718 C153.938097,95.9942543 162.8783,98.9040588 170.634497,103.472071 L170.514197,99.19631 C162.340115,94.7998367 153.39358,91.8836789 143.623938,91.7629665 C143.263037,91.2292905 143.142737,90.460543 143.206053,89.9268671 C147.948413,89.1517663 151.32315,84.2216171 152.450173,79.9331498 C154.887835,77.1440576 158.376541,74.1071874 157.547102,69.952139 C157.654739,69.6027083 157.77504,69.2405711 157.89534,68.8784338 C158.224582,67.8492016 158.490509,66.7500833 158.142272,65.784384" id="Fill-111" fill="#FFFFFE"></path>
                            <path d="M166.379669,81.0703878 L171.229667,79.5201862 L171.774183,76.794627 C173.135475,72.804764 170.229276,69.8314266 168.811,66.6738439 L166.379669,81.0703878" id="Fill-112" fill="#FFFFFE"></path>
                            <path d="M178.637626,99.9078779 C180.948656,102.468252 183.202702,106.566121 187.292908,105.32723 C186.995324,103.592783 186.039254,102.169647 185.456748,100.625799 C184.393041,99.3742019 184.03214,95.810009 181.904726,97.0616062 C180.296502,95.9942543 179.891281,94.2026279 178.878226,92.7794921 C178.409689,94.9777287 178.69461,97.7096413 178.637626,99.9078779" id="Fill-113" fill="#FFFFFE"></path>
                            <path d="M179.467064,117.334939 C180.359818,118.580183 180.600419,120.187564 181.48051,121.324802 C183.082402,122.3858 185.456748,122.207908 187.41954,122.03637 C189.186054,121.6107 190.319408,123.573865 191.965621,122.449333 C189.895192,121.140556 188.6542,118.764428 186.704071,117.029981 C184.393041,115.193882 181.904726,116.801263 179.467064,117.334939" id="Fill-114" fill="#FFFFFE"></path>
                            <path d="M182.607532,144.984435 C186.704071,147.417743 191.895974,149.793872 197.353804,148.961592 C197.942641,148.66934 198.949364,148.732873 199.069664,148.014952 C195.688596,146.820534 192.149237,143.440587 188.597216,142.722666 C186.647086,139.692149 184.095456,143.497766 181.60081,143.256342 C181.657794,143.974263 182.366932,144.501585 182.607532,144.984435" id="Fill-115" fill="#FFFFFE"></path>
                            <path d="M195.941859,136.598099 C199.025343,138.980581 203.938656,139.209299 207.490678,138.027588 C205.242964,136.782344 202.760981,135.403681 200.918488,133.745474 L195.941859,136.598099" id="Fill-117" fill="#FFFFFE"></path>
                            <path d="M210.561499,154.844733 C210.276577,157.347928 211.929122,159.425452 213.708299,160.683402 C214.354121,159.196734 215.417828,157.938783 215.538128,156.280576 C215.006274,153.726555 213.581667,151.401253 211.276968,149.673159 C210.865415,151.344073 210.384214,152.951455 210.561499,154.844733" id="Fill-118" fill="#FFFFFE"></path>
                            <path d="M210.745115,181.966907 C210.320898,184.755999 213.404382,185.118137 214.702358,186.668338 C215.778728,187.970762 213.99322,188.860222 213.99322,190.111819 C216.247266,193.021623 217.564236,196.344391 217.564236,200.213542 C218.437996,196.585816 219.799287,193.142336 220.280488,189.400251 C220.039888,186.776344 215.899028,187.316373 216.551182,184.406569 C217.728858,181.433231 216.310582,178.523427 215.538128,175.835987 C215.310191,175.429377 214.765674,174.590743 214.297136,174.838521 C213.227098,177.265476 210.561499,178.99357 210.745115,181.966907" id="Fill-119" fill="#FFFFFE"></path>
                            <path d="M218.862212,167.811788 L221.945696,173.821996 C223.300656,173.637751 224.19341,172.335327 225.257117,171.382334 C226.086555,168.891847 223.895826,167.284466 223.243672,165.251414 C222.711818,163.828279 223.243672,161.928646 222.230618,160.683402 C221.464495,160.200553 220.584404,159.425452 219.69165,159.666877 L218.862212,167.811788" id="Fill-120" fill="#FFFFFE"></path>
                            <path d="M222.825787,151.992109 C225.257117,153.478777 228.043016,155.619834 229.347324,158.243741 C231.424085,164.311128 234.735506,169.7686 237.173168,175.658095 C238.059591,179.762317 238.768729,183.428163 239.88942,187.462499 C240.313636,188.536204 240.073036,190.620081 241.731912,190.435836 C242.20045,185.918651 243.093204,181.579357 243.15652,176.877926 C241.668596,174.921114 239.724798,174.088834 237.875974,172.90077 L237.875974,172.481453 C238.116575,171.477634 238.952345,170.276863 240.193336,170.461108 C240.718858,169.870253 242.327082,169.273044 241.611612,168.199339 C238.528128,165.105289 238.705413,159.793943 233.798431,158.834596 C232.076239,158.123029 231.664685,156.331402 231.487401,154.679548 C229.170039,152.703676 225.738318,152.055641 222.825787,151.992109" id="Fill-121" fill="#FFFFFE"></path>
                            <path d="M225.675002,184.228677 C228.688839,187.017769 227.631463,191.064811 227.390863,194.81325 C226.922325,197.068666 229.758877,195.753536 230.651631,196.947953 C232.494124,199.679866 231.424085,203.669729 230.771931,206.643066 C232.373823,204.197052 234.203653,202.062348 235.444644,199.381262 C235.393991,198.377442 236.698299,197.894593 236.641315,196.649349 C237.173168,194.927609 235.159723,195.696356 234.323953,195.524817 C233.614815,195.340572 232.842361,194.870429 233.082961,193.917436 C234.615206,190.944099 233.19693,187.379906 232.601761,184.406569 C231.892623,181.966907 232.905677,178.688612 231.772322,176.553908 C229.879177,179.171462 224.244063,179.762317 225.675002,184.228677" id="Fill-122" fill="#FFFFFE"></path>
                            <path d="M231.183485,142.011098 C236.457698,147.366917 240.313636,152.741796 245.999403,157.91337 C246.113372,155.594421 245.815787,153.459717 245.70815,151.197948 C244.878712,149.590567 243.333804,148.402502 242.016834,147.208085 C237.81899,146.801475 235.62826,141.121638 231.183485,142.011098" id="Fill-123" fill="#FFFFFE"></path>
                            <path d="M244.980018,170.340396 C245.106649,170.886778 245.34725,171.356921 245.58785,171.890597 C247.89888,175.689862 250.08961,179.622545 251.691502,183.720414 C251.210301,179.317587 254.173485,173.853762 250.260563,170.461108 C249.728709,169.031619 247.962196,169.508115 246.828842,169.622474 L244.980018,170.340396" id="Fill-124" fill="#FFFFFE"></path>
                            <path d="M84.3096102,24.4054386 L86.0381341,24.5833306 C90.647531,26.9022797 98.1124746,28.090344 98.5366911,34.8057662 C93.8449835,36.6545722 89.3432236,39.1450599 85.6139176,42.9506776 C82.771034,40.0408731 77.0282826,41.6482542 76.0722127,36.540213 C76.9649668,31.7117164 78.6744958,25.6506825 84.3096102,24.4054386" id="Fill-136" fill="#FF5816"></path>
                            <path d="M88.7543858,54.5581294 C94.1488998,54.0752797 99.3661293,54.8440272 104.931596,54.3738841 C106.286556,54.9647396 107.711164,56.1464506 108.363318,57.5187602 C108.179701,63.9419313 106.229572,70.0728514 105.938319,76.6675613 C103.506989,77.6713803 101.138974,79.7044315 100.543805,82.3728112 C98.353075,83.0271996 96.3902824,84.3359763 94.2565368,85.3461486 C93.3194616,83.325804 93.484083,80.295287 95.1492909,78.6307263 C97.4666526,75.3651378 103.450004,76.127532 102.975135,70.955958 C104.520043,68.4654703 103.038451,65.2507081 103.082772,62.6395079 C102.493934,60.6699896 101.905097,63.2938963 100.955358,63.2367167 C99.062213,63.643327 97.1120836,63.7640394 95.4532072,62.8110466 C94.1995525,61.5022699 92.6736395,60.4285647 92.3064074,58.6496449 C90.647531,57.8173646 88.6910699,56.5149412 87.8616317,54.7868476 L88.7543858,54.5581294" id="Fill-137" fill="#FF5816"></path>
                            <path d="M95.2759227,93.3068147 C97.81489,93.6753053 100.486821,92.5380672 102.67755,93.7960177 C102.209013,94.628298 100.955358,94.9777287 99.9549671,95.2191535 L95.9787291,97.0616062 C94.5034688,96.7121755 95.332907,94.3296936 95.2759227,93.3068147" id="Fill-138" fill="#FF5816"></path>
                            <path d="M105.640734,43.6685988 C108.179701,42.8363185 110.914948,41.1209315 113.637531,41.9405053 C111.687402,43.9100237 110.142494,46.457691 108.660902,48.8401728 L100.543805,48.6559276 C101.436559,46.5212238 103.690605,44.742304 105.640734,43.6685988" id="Fill-139" fill="#FF5816"></path>
                            <path d="M129.403188,41.711787 C132.777925,41.1209315 132.594309,45.5174048 135.677793,45.6825902 C136.22231,46.3941581 136.988432,47.0485465 136.690848,48.1286049 C134.905339,48.8401728 132.303056,48.4907422 130.289611,48.954532 C127.61768,47.4742166 129.346204,42.8363185 125.135697,43.1349229 C124.895097,42.7727856 124.426559,42.0612177 125.015397,41.8324995 C126.319704,41.3496498 128.041897,41.5275418 129.403188,41.711787" id="Fill-140" fill="#FF5816"></path>
                            <path d="M127.269443,57.6394726 C128.751035,55.5555951 130.998749,55.3777031 133.138826,54.9647396 L148.480267,55.2569907 C149.13242,55.8605528 147.891429,56.3942287 147.891429,57.1057967 C146.94169,58.0016099 145.574067,58.2430347 144.750961,59.0626084 C142.731184,59.119788 142.9148,61.5022699 141.490192,62.5187955 C139.299462,64.7170321 136.10201,63.7005065 133.544048,63.3510758 C132.663957,62.6903342 131.657234,61.8072276 131.233018,60.790702 L130.517548,61.5022699 C131.410302,64.8377445 131.182365,68.5290031 131.834519,71.9089508 L135.50684,74.3486122 C135.570156,79.8124373 141.965061,78.3257686 144.750961,81.3562856 C144.092475,83.325804 142.7945,84.9840114 141.376224,86.648572 C139.122178,84.4503354 136.564216,83.0271996 133.847964,82.0742068 C133.601032,78.8721512 130.112326,76.9598124 128.162197,75.3651378 C127.61768,69.5264689 127.510043,63.5797941 126.560305,57.938077 L127.269443,57.6394726" id="Fill-141" fill="#FF5816"></path>
                            <path d="M132.83491,94.3296936 L139.951616,94.3296936 L139.065194,98.0717785 L131.942156,95.0412615 C131.771203,94.450406 132.423356,94.2661608 132.83491,94.3296936" id="Fill-142" fill="#FF5816"></path>
                            <path d="M145.637383,26.9658125 L150.911597,25.3012518 C153.938097,26.7243877 156.774649,28.5033075 159.560548,30.5300054 C161.751278,34.5706947 161.40304,40.0408731 160.389986,44.564412 C158.788094,46.3369785 155.293057,44.564412 153.995081,47.4106837 L153.75448,47.4106837 C151.804351,41.8324995 146.226221,36.8261109 141.072307,34.2784436 C141.901745,31.4258186 142.7945,28.6240199 145.637383,26.9658125" id="Fill-143" fill="#FF5816"></path>
                        </g>
                    </g>
                </g>
            </g>
        </g>
        <g id="ING-2" transform="translate(25.000000, 25.000000)" fill="#FFFFFE">
            <path d="M0.733418262,1.15325289 C1.48174529,1.15325289 2.00321238,1.29895798 2.32703163,1.59665348 C2.69000753,1.92920392 2.85222792,2.4800263 2.85222792,3.37996951 L2.85222792,14.6278311 C2.85222792,16.1843043 2.49733197,16.8785462 0.402762135,16.8785462 L0.115613392,16.8785462 L0.115613392,17.5693597 L9.52812542,17.5693597 L9.52812542,16.8819745 L9.24470589,16.8785462 C7.16940361,16.8562619 6.82010146,16.1660197 6.82010146,14.6278311 L6.82010146,3.37996951 C6.82010146,2.48231187 6.98170032,1.93434645 7.34405468,1.60179601 C7.67098161,1.29952937 8.20177171,1.15325289 8.96563709,1.15325289 L9.52812542,1.15325289 L9.52812542,0.453297066 L0.115613392,0.453297066 L0.115613392,1.15325289 L0.733418262,1.15325289" id="Fill-2"></path>
            <path d="M30.8392858,11.8314361 C30.8392858,11.8314361 30.6764439,11.1291947 30.652204,10.7360767 L30.652204,5.59868663 C30.6161551,2.60287569 31.0605519,1.11154124 28.2108182,1.1223977 L28.2108182,0.449868711 L34.7655165,0.449868711 L34.7655165,1.1223977 C31.8312542,1.11154124 32.1998239,2.60287569 32.183664,5.59868663 L32.183664,17.5939296 L31.2507413,17.5853587 L17.0971674,3.96907519 C17.0971674,3.96907519 17.2569016,4.6701738 17.2798984,5.06386324 L17.2798984,13.4759038 C17.1997205,16.5454243 17.6136622,16.9156867 19.7641701,16.8802604 L19.7641701,17.5807876 L12.9310245,17.5807876 L12.9310245,16.8802604 C15.0846401,16.8819745 15.5079048,16.619134 15.5054186,13.2262053 L15.5054186,13.4290496 L15.5054186,5.13871565 L15.4880157,3.82222731 C15.5681936,2.11890624 14.8838845,1.13153998 12.7949085,1.14753897 L12.7949085,0.473867197 L19.0854549,0.473867197 L30.8392858,11.8314361" id="Fill-3"></path>
            <path d="M54.5644845,0.123032195 L53.8422619,0.123032195 L53.8093206,0.351017807 C53.7595979,0.689853566 53.6141589,1.25838911 53.1933803,1.25838911 C53.0734243,1.25838911 52.7744664,1.2063924 52.4382164,1.06468705 C50.9751252,0.482438084 49.0788248,0.123032195 47.4833468,0.123032195 C44.3769195,0.123032195 41.5595055,1.1452534 39.5475997,3.00399323 C37.6985358,4.71188545 36.6879214,7.0351674 36.7022167,9.54700888 C36.7152689,11.952 37.7432863,13.9313036 39.8490437,15.598627 C41.9703395,17.2670931 44.3477074,17.9784768 47.8009507,17.9784768 C50.6786535,17.9784768 52.3250972,17.5985007 54.8528763,16.3517223 L55.2954086,16.1311648 L55.2954086,11.6423052 C55.2954086,9.72985448 55.5502375,9.43158759 57.2432964,9.36873441 L57.5192575,9.35902074 L57.5192575,8.69277707 L49.246639,8.69277707 L49.246639,9.35902074 L49.5226001,9.36873441 C51.4083345,9.43615873 51.763852,9.74699625 51.763852,11.3280393 L51.763852,15.4877768 C50.3654003,16.3368661 49.3485705,16.6585601 48.0657242,16.6585601 C46.1681807,16.6585601 44.4800941,15.9843169 43.1829525,14.7935349 C41.6651663,13.3964802 40.9242977,11.3617515 40.9242977,9.06246803 C40.9242977,6.58548149 41.641548,4.47247199 43.119556,3.11484338 C44.2954985,2.03319736 45.8586567,1.43266383 47.6412164,1.43266383 C49.2335867,1.43266383 51.0826506,2.0606242 52.3512017,2.98570867 C53.3835698,3.76280249 53.9193321,4.51361225 54.3220862,5.75524817 L54.3836181,5.94266492 L55.0896808,5.94266492 L54.5644845,0.123032195" id="Fill-4"></path>
        </g>
        <g id="iDeal_betalen-cmyk" transform="translate(261.000000, 16.000000)">
            <g id="Group-3">
                <mask id="mask-4" fill="white">
                    <use xlink:href="#path-3"></use>
                </mask>
                <g id="Clip-2"></g>
                <path d="M0,0.00113627639 L0,37 L22.0977073,37 C36.6751438,37 42.9963621,29.0302284 42.9963621,18.4634971 C42.9963621,7.93866603 36.6751438,0.00113627639 22.0977073,0.00113627639 L0,0.00113627639" id="Fill-1" fill="#FFFFFE" mask="url(#mask-4)"></path>
            </g>
            <path d="M4.29956345,4.20202111 L4.29956345,32.7991152 L22.1007631,32.7991152 C32.8481438,32.7991152 38.6968714,27.9119904 38.6968714,18.4634971 C38.6968714,8.7550096 32.3584822,4.20202111 22.1007631,4.20202111 L4.29956345,4.20202111 Z M2.38799154,2.33540307 L22.1007631,2.33540307 C35.4811844,2.33540307 40.6072792,9.46745489 40.6072792,18.4634971 C40.6072792,29.2510211 33.4466514,34.6643129 22.1007631,34.6643129 L2.38799154,34.6643129 L2.38799154,2.33540307 L2.38799154,2.33540307 Z" id="Fill-4" fill="#1A1919"></path>
            <polygon id="Fill-5" fill="#1A1919" points="6.68748223 30.4671209 12.385819 30.4671209 12.385819 20.5675969 6.68748223 20.5675969"></polygon>
            <path d="M13.0773113,15.5790595 C13.0773113,17.488572 11.4926413,19.0364645 9.53581387,19.0364645 C7.5806599,19.0364645 5.99482572,17.488572 5.99482572,15.5790595 C5.99482572,13.6706833 7.5806599,12.1227908 9.53581387,12.1227908 C11.4926413,12.1227908 13.0773113,13.6706833 13.0773113,15.5790595" id="Fill-6" fill="#1A1919"></path>
            <path d="M15.2536497,13.9678906 L15.2536497,17.1949155 L16.2678968,17.1949155 C16.9715398,17.1949155 17.6208325,16.9955701 17.6208325,15.5539194 C17.6208325,14.1481324 16.8994365,13.9678906 16.2678968,13.9678906 L15.2536497,13.9678906 Z M32.182335,12.3614798 L33.8244839,12.3614798 L33.8244839,17.1949155 L36.2558393,17.1949155 C35.5899577,8.42676775 28.5241337,6.53152975 22.1025821,6.53152975 L15.2554687,6.53152975 L15.2554687,12.3651017 L16.2678968,12.3651017 C18.1166785,12.3651017 19.2629086,13.587167 19.2629086,15.5539194 C19.2629086,17.5840192 18.1440355,18.7965681 16.2678968,18.7965681 L15.2554687,18.7965681 L15.2554687,30.4683282 L22.1025821,30.4683282 C32.5413232,30.4683282 36.174423,25.7350979 36.3022589,18.7952898 L32.182335,18.7952898 L32.182335,12.3614798 Z M27.6076734,15.9525393 L28.7966853,15.9525393 L28.2520914,14.1337159 L28.1530677,14.1337159 L27.6076734,15.9525393 Z M25.046736,18.7988407 L27.0360863,12.3614798 L29.371401,12.3614798 L31.3571134,18.7988407 L29.6483181,18.7988407 L29.2765973,17.5529846 L27.1289983,17.5529846 L26.7555313,18.7988407 L25.046736,18.7988407 Z M24.3369814,17.1949155 L24.3369814,18.7965681 L20.2759188,18.7965681 L20.2759188,12.3651017 L24.2061624,12.3651017 L24.2061624,13.9666833 L21.9179222,13.9666833 L21.9179222,14.7101631 L24.0833469,14.7101631 L24.0833469,16.3141593 L21.9179222,16.3141593 L21.9179222,17.1949155 L24.3369814,17.1949155 L24.3369814,17.1949155 Z" id="Fill-7" fill="#C91A68"></path>
        </g>
    </g>
</svg>