<?xml version="1.0" encoding="UTF-8"?>
<svg width="320px" height="200px" viewBox="0 0 320 200" version="1.1" xmlns="http://www.w3.org/2000/svg" xmlns:xlink="http://www.w3.org/1999/xlink">
    <!-- Generator: Sketch 49.3 (51167) - http://www.bohemiancoding.com/sketch -->
    <title>rabo</title>
    <desc>Created with Sketch.</desc>
    <defs>
        <radialGradient cx="50%" cy="50%" fx="50%" fy="50%" r="76.9294539%" gradientTransform="translate(0.500000,0.500000),scale(0.625000,1.000000),translate(-0.500000,-0.500000)" id="radialGradient-1">
            <stop stop-color="#FFD6B3" offset="0%"></stop>
            <stop stop-color="#FC862F" offset="100%"></stop>
        </radialGradient>
        <linearGradient x1="0.000895233242%" y1="50.0012912%" x2="100.001951%" y2="50.0012912%" id="linearGradient-2">
            <stop stop-color="#CA581A" offset="0%"></stop>
            <stop stop-color="#6E2E2B" offset="100%"></stop>
        </linearGradient>
        <linearGradient x1="-17.8821588%" y1="63.7217341%" x2="99.6647678%" y2="40.5059988%" id="linearGradient-3">
            <stop stop-color="#FFE07D" offset="0%"></stop>
            <stop stop-color="#EE7203" offset="100%"></stop>
        </linearGradient>
        <linearGradient x1="9.3291081%" y1="33.9228968%" x2="99.2117782%" y2="72.4848809%" id="linearGradient-4">
            <stop stop-color="#2D2C86" offset="0%"></stop>
            <stop stop-color="#282674" offset="100%"></stop>
        </linearGradient>
        <polygon id="path-5" points="0.00436548223 36.995739 42.9963621 36.995739 42.9963621 0.00113627639 0.00436548223 0.00113627639"></polygon>
    </defs>
    <g id="rabo" stroke="none" stroke-width="1" fill="none" fill-rule="evenodd">
        <g id="Group" fill="url(#radialGradient-1)">
            <g id="Rectangle-2">
                <rect x="0" y="0" width="320" height="200" rx="25"></rect>
            </g>
        </g>
        <g id="Layer_1" opacity="0.340919384" transform="translate(99.000000, 66.000000)">
            <g id="Group">
                <path d="M112.905907,18.4150148 C115.484919,20.9879174 117.584679,23.7885893 119.072276,26.7953988 C123.817505,36.3909765 122.074307,46.9752513 112.626024,56.2056347 C101.793662,66.7810023 83.3597328,73.287061 61.9557221,73.287061 C40.5491554,73.287061 22.115226,66.7810023 11.2828643,56.2056347 C1.83458089,46.9752513 0.0939394744,36.3909765 4.83405623,26.7953988 C6.32293087,23.7885893 8.39840933,21.0108216 10.9786994,18.409925 C7.95494195,21.3187555 5.56890852,23.8929305 3.40013577,28.2141853 C-1.22623864,37.4318442 0.252411968,50.6106532 10.0214744,60.1578777 C21.124773,71.006823 38.485179,77.5408757 62.1308087,77.5408757 C85.8403385,77.5408757 103.203301,70.810865 113.843962,60.1578777 C124.278864,49.711028 124.681435,36.1135815 120.403956,27.9189759 C118.623697,24.5087984 116.228717,21.3721986 112.905907,18.4150148 Z" id="Shape" fill-opacity="0.409999996" fill="url(#linearGradient-2)"></path>
                <g id="SVGID_2_-link" transform="translate(1.419230, 0.610834)" fill="#EE7203">
                    <path d="M94.1109351,6.69819936 C84.0786038,2.56017802 72.3950914,0.428817094 60.5364925,0.428817094 C48.6778936,0.428817094 36.9931032,2.56017802 26.96205,6.69819936 C15.9827178,11.2332264 7.48782532,17.9606923 3.41738264,26.1845643 C-1.32273412,35.7801421 0.417907301,46.3644168 9.86619072,55.5948002 C20.6985525,66.1701678 39.1312039,72.6762266 60.5390485,72.6762266 C81.9443372,72.6762266 100.376989,66.1701678 111.20935,55.5948002 C120.657634,46.3644168 122.400831,35.7801421 117.655602,26.1845643 C113.586438,17.9594198 105.088989,11.2332264 94.1109351,6.69819936 Z" id="SVGID_2_"></path>
                </g>
                <path d="M63.9455743,11.9344052 C61.9697802,7.90454244 62.3723514,4.25005373 62.7762007,1.04474138 C62.5027078,1.04219648 62.2253809,1.04219648 61.9518881,1.04219648 C50.0932892,1.04219648 38.4084988,3.16974004 28.3774455,7.31030629 C17.3981134,11.8453334 8.90449891,18.5727992 4.83405623,26.8004886 C0.0913834664,36.392249 1.83330289,46.9752513 11.2815863,56.2056347 C11.9435924,56.8520415 12.6375485,57.4831788 13.3545088,58.1015916 C53.2282329,55.7844523 74.0609758,32.5545269 63.9455743,11.9344052 Z" id="Shape" fill="url(#linearGradient-3)"></path>
                <path d="M36.2755101,12.6177131 C43.6853772,14.4933107 50.7297352,16.7251956 57.8955035,19.3629933 C59.3153659,15.1180858 60.8221326,10.9037172 62.5448819,6.76824076 C64.2663533,10.8986274 65.771842,15.1142684 67.1917044,19.3502687 C74.3561947,16.7213782 81.2740303,14.5798376 88.6838973,12.7093298 C83.4721971,15.9642679 78.8662708,19.3248197 74.0379717,23.1078263 C83.8325942,24.3484692 92.9971608,25.9632137 102.648647,28.042404 C93.0316669,27.8337215 83.9782867,28.1734668 74.3791988,28.7855173 C81.1487859,34.4975646 86.9496459,40.0263784 93.2425375,46.2448625 C84.6160107,41.3408237 76.5172995,37.2218892 67.5265415,32.9909787 C65.782066,40.4755548 64.1385529,47.9817626 62.549994,55.4994226 C60.960157,47.9843076 59.5019545,40.831842 57.758757,33.3549006 C48.769277,37.5769039 40.5938856,41.6054942 31.6810858,46.3123026 C37.9816455,40.0925461 43.94609,34.7011573 50.7220671,28.9916549 C41.1191452,28.375787 31.9124046,28.2485416 22.0794419,28.1072991 C31.721982,26.0331987 41.2546136,24.4133644 51.0441241,23.171449 C46.2196591,19.3858975 41.4808204,15.8739236 36.2755101,12.6177131 Z M62.549994,25.7087228 C62.5461599,20.1951784 62.5461599,14.681634 62.5448819,9.17190691 C60.8604727,13.7654669 59.3754321,18.4328292 57.9734617,23.1180059 C59.5083445,23.9654604 61.0304472,24.8294569 62.549994,25.7087228 Z M40.5951636,14.4398677 C46.5289361,17.0483989 52.3106261,19.9775887 57.9721837,23.1180059 C56.5638233,23.2605208 55.1580189,23.4093979 53.7522146,23.5684547 C49.4887933,20.3555076 45.1192977,17.2850754 40.5951636,14.4398677 Z M62.549994,25.7087228 C73.9842956,25.7303545 85.4083731,26.2953242 96.7838866,27.4265361 C86.7988415,25.6323756 77.0975133,24.2581249 67.0869081,23.0963742 C65.5622493,23.950191 64.0516486,24.8230946 62.549994,25.7087228 Z M84.4843763,14.4347778 C78.5429358,17.0356744 72.7574117,19.9623193 67.0856301,23.0963742 C66.8543114,22.3278118 66.6255486,21.5541596 66.3903959,20.7805074 C72.3343924,18.4264669 78.3601812,16.2861988 84.4843763,14.4347778 Z M61.9454981,25.7099953 C62.1883188,33.692101 62.4809817,42.1615567 62.55255,49.8904441 C64.0439806,42.739251 65.5941994,35.6058723 67.2492146,28.4915803 C65.6900497,27.5486917 63.522555,26.6248899 61.9454981,25.7099953 Z M87.7471204,42.167919 C81.0772177,37.3745837 74.2552324,32.7950207 67.2492146,28.4903079 C68.6818571,28.3783319 70.1144995,28.2689008 71.549698,28.1760117 C77.1128493,32.6537783 82.4970801,37.3376825 87.7471204,42.167919 Z M62.549994,25.7087228 C51.0377341,25.8652347 42.0533661,26.384396 30.8324912,27.3463715 C40.5197614,27.3769104 48.0484828,27.7421048 57.8878354,28.5170294 C59.4303862,27.5639612 60.9844391,26.6261624 62.549994,25.7087228 Z M37.3643695,42.1742813 C44.0419403,37.3847633 50.8703156,32.8115626 57.8865574,28.5170294 C58.0935941,29.4039301 58.2967967,30.2946481 58.5012774,31.1866385 C51.331675,34.6133579 44.2885951,38.2894783 37.3643695,42.1742813 Z" id="Shape" fill="#FFFFFF"></path>
                <path d="M62.5448819,7.0456358 C64.2663533,11.1772949 65.771842,15.3878461 67.1917044,19.6263913 C74.121042,17.0840277 80.7883888,15.015017 87.943933,13.1801379 C88.1918658,13.0198087 88.4359646,12.8620243 88.6838973,12.7080574 C81.2740303,14.5785652 74.3561947,16.7188333 67.1917044,19.3489963 C65.771842,15.1117235 64.2650753,10.8973549 62.5448819,6.76696831 C60.8221326,10.9024447 59.3153659,15.1168133 57.8955035,19.3617208 C50.7297352,16.7239231 43.6853772,14.4920383 36.2755101,12.6164407 C36.5221649,12.7716801 36.7675417,12.9320093 37.0129184,13.0872488 C44.1697407,14.9284901 50.9674439,17.0916624 57.8955035,19.636571 C59.3153659,15.3967533 60.8208546,11.1811122 62.5448819,7.0456358 Z" id="Shape" fill="#C51A1B"></path>
                <path d="M50.6977851,28.9903824 C44.0317163,34.6235375 37.8845172,40.1828903 31.6810858,46.3110302 C31.9047365,46.1825123 32.4491662,45.8758508 32.6689829,45.7498778 C38.7625059,39.7667978 44.1569607,34.9136571 50.6977851,29.4102923 L50.6977851,28.9903824 Z" id="Shape" fill="#C8411B"></path>
                <path d="M62.549994,25.7087228 L62.549994,25.7087228 L62.549994,25.9835729 L62.549994,25.9835729 L62.549994,25.7087228 Z" id="Shape" fill="#C00D0D"></path>
                <path d="M62.3097292,25.8474203 C62.233049,25.8945011 62.1550907,25.9403095 62.0771325,25.9861178 C60.6738841,26.815758 59.2757478,27.6593952 57.8865574,28.515757 L57.9491796,28.7867897 C59.4763944,27.8451736 61.0048871,26.9480933 62.548716,26.0382885 L62.548716,25.7074504 C62.4682017,25.7558036 62.3902435,25.8003395 62.3097292,25.8474203 Z" id="Shape" fill="#C00D0D"></path>
                <path d="M57.9721837,23.1180059 C57.8316033,23.1332753 57.6884668,23.1472723 57.5453304,23.1638142 C56.2801064,23.2923321 55.0174385,23.4246674 53.7522146,23.5684547 C49.4887933,20.3555076 45.1192977,17.2850754 40.5951636,14.4398677 L40.5951636,14.7732507 C45.1192977,17.6197309 49.4875153,20.6888907 53.7522146,23.9031102 C55.1580189,23.7427809 56.5638233,23.5951762 57.9721837,23.4539338 C59.34476,24.2110441 60.635544,24.9274359 61.9940622,25.7099953 C62.1538127,25.7099953 62.3864094,25.7087228 62.548716,25.7087228 C61.0547293,24.8421814 59.4827844,23.9527359 57.9721837,23.1180059 Z" id="Shape" fill="#C8411B"></path>
                <path d="M37.3643695,42.5661972 C44.2885951,38.6801218 51.331675,35.000184 58.5012774,31.5760095 L58.5012774,31.1853661 C51.331675,34.6120855 44.2885951,38.2894783 37.3643695,42.1730088 L37.3643695,42.5661972 L37.3643695,42.5661972 Z" id="Shape" fill="#C8411B"></path>
                <path d="M67.2492146,28.4903079 C65.6159255,35.5231627 64.0273666,42.823233 62.55255,49.8891716 L62.55255,50.1691116 C64.0439806,43.0191909 65.5826974,35.9303481 67.2377126,28.8236909 C72.0148914,31.756698 78.957009,36.2700934 87.7483984,42.5840116 L87.7483984,42.1666466 C81.0784957,37.3745837 74.2552324,32.7950207 67.2492146,28.4903079 Z" id="Shape" fill="#A81815"></path>
                <path d="M74.6846417,29.0489153 L74.3791988,28.7855173 L74.3791988,29.2308763 C80.9123551,34.7406033 86.1291674,39.6764535 92.2163003,45.6633509 C92.437395,45.7893239 93.0201648,46.1214345 93.2425375,46.2448625 C86.8435716,39.9220372 81.1308938,34.498837 74.6846417,29.0489153 Z" id="Shape" fill="#A81815"></path>
                <path d="M50.7374032,23.2096226 C41.051411,24.4489931 31.6210196,26.0535579 22.0794419,28.1060267 C22.5471914,28.1060267 23.1133472,28.137838 23.5913206,28.1327482 C32.7622772,26.1960728 41.7389772,24.6843971 51.0441241,23.5022871 L51.0441241,23.1701765 L50.7374032,23.2096226 Z" id="Shape" fill="#C8411B"></path>
                <path d="M57.8865574,28.5170294 C48.8702394,27.7408323 39.8948174,27.2967458 30.8516613,27.3654583 L30.8516613,27.6415809 C39.773407,27.5766857 48.6248626,28.0105926 57.5210483,28.7638856 C57.6437367,28.6799036 57.7638691,28.5959216 57.8865574,28.5170294" id="Shape" fill="#C8411B"></path>
                <path d="M74.0379717,23.1078263 C83.8325942,24.3484692 92.9971608,25.9632137 102.648647,28.042404 C102.168117,28.0322243 101.513779,28.0194998 101.035806,28.0105926 C91.8533472,26.0764621 83.3469527,24.6233193 74.0379717,23.4412093 L74.0379717,23.1078263 Z" id="Shape" fill="#A81815"></path>
                <path d="M62.549994,25.7087228 C73.9842956,25.7303545 85.4083731,26.2953242 96.7838866,27.4265361 L96.7838866,27.7319251 C85.5668456,26.6159827 74.3434147,26.0484681 63.0701416,26.009022 C62.9883493,25.9606688 62.8682169,25.8945011 62.7877027,25.8474203 C62.7059104,25.8003395 62.6279522,25.7532587 62.549994,25.7087228 C62.7071884,25.7087228 62.8656609,25.7099953 63.0241334,25.7099953" id="Shape" fill="#A81815"></path>
                <path d="M67.0856301,23.0963742 C67.2249325,23.1116436 67.3552889,23.1332753 67.4971474,23.1472723 C73.0334606,20.0971994 78.6809602,17.2532641 84.4754302,14.7147178 L84.4754302,14.4360503 C78.5314337,17.0407642 72.7574117,19.9623193 67.0856301,23.0963742" id="Shape" fill="#A81815"></path>
                <path d="M67.0856301,23.0963742 C66.8543114,22.3278118 66.6255486,21.5541596 66.3903959,20.7805074 L66.3903959,21.0566299 C66.5999886,21.7488451 66.8095812,22.4448776 67.0153399,23.1370927 C67.0370659,23.1243682 67.061348,23.1090987 67.0856301,23.0963742" id="Shape" fill="#C00D0D"></path>
                <path d="M63.6810275,71.0933498 C63.3461904,71.3427509 62.883553,71.5946968 62.549994,71.8428254 C62.2087669,71.5946968 61.7410174,71.3427509 61.3997904,71.0933498 C61.4061804,67.9961961 61.3908443,64.8990424 61.3985124,61.805706 C61.7333494,61.5753918 62.2164349,61.3501674 62.551272,61.1211256 C62.879719,61.3501674 63.3334104,61.5728469 63.6644134,61.805706 C63.6708034,64.8990424 63.6771935,67.9961961 63.6810275,71.0933498 Z" id="Shape" fill="#FFFFFF"></path>
                <path d="M8.292335,48.6218071 C8.10958043,48.974277 7.92938187,49.321657 7.74790531,49.6728544 C8.08913237,49.8051896 8.74602642,50.0125997 9.03996733,50.1334828 C12.3014335,48.3978552 15.5271155,46.6673174 18.7323495,44.9978573 C18.8563159,44.5054175 18.9304401,44.2369297 19.0659086,43.8679179 C18.7361835,43.781391 18.4077365,43.6974091 18.0792895,43.6108822 C14.8037653,45.2281716 11.5410211,46.898904 8.292335,48.6218071 Z" id="Shape" fill="#FFFFFF"></path>
                <path d="M5.89224353,29.5642593 C5.5944686,29.8009358 5.29797168,30.0376123 4.99764074,30.2755612 C5.16250326,30.490606 5.34397982,30.7476418 5.49222828,30.9525069 C8.54154578,30.5198725 11.5895853,30.1483158 14.6414588,29.8403819 C14.9251757,29.5655318 15.2689587,29.238511 15.5373396,28.9852926 C15.359697,28.8020592 15.1807765,28.6200982 14.9992999,28.4406822 C11.9653184,28.751161 8.92750298,29.1252626 5.89224353,29.5642593 Z" id="Shape" fill="#FFFFFF"></path>
                <path d="M17.596204,14.1815594 C17.286927,14.3138947 16.9789281,14.4462299 16.6709291,14.5785652 C16.7003232,14.7617986 16.7335513,15.0964541 16.7616674,15.278415 C19.0071204,15.5939837 21.2487393,15.9706302 23.4852463,16.4032646 C23.7727972,16.2365731 24.1625884,16.0075313 24.4322473,15.863744 C24.3926291,15.6690585 24.353011,15.4718281 24.3133929,15.2809599 C22.0781639,14.8572327 19.837823,14.4894934 17.596204,14.1815594 Z" id="Shape" fill="#FFFFFF"></path>
                <path d="M86.2122376,4.70940973 C86.4959545,4.71195464 86.7822274,4.715772 87.0646663,4.71831691 C87.1809647,4.83029289 87.293429,4.94354132 87.4071714,5.0555173 C86.2314077,5.79608569 85.0760921,6.56846544 83.9399466,7.36629428 C83.6408936,7.37011164 83.3418407,7.37265655 83.0427878,7.37647391 C82.9316014,7.2543183 82.8229711,7.12707287 82.7130627,7.00491726 C83.8619883,6.21217824 85.0262499,5.4423434 86.2122376,4.70940973 Z" id="Shape" fill="#FFFFFF"></path>
                <path d="M61.7448515,1.48501057 C61.9582781,1.42138785 62.1729828,1.35394778 62.3876875,1.28905261 C62.6049481,1.35394778 62.8222088,1.42138785 63.0420255,1.48501057 C63.0471375,2.39481538 63.0560835,3.30589265 63.0624736,4.21824237 C62.8375449,4.29586209 62.6113381,4.36839198 62.3864094,4.44601169 C62.1640368,4.36839198 61.9416641,4.29586209 61.7205694,4.21824237 C61.7256814,3.30843756 61.7346274,2.39481538 61.7448515,1.48501057 Z" id="Shape" fill="#FFFFFF"></path>
                <path d="M37.179059,5.11277774 C37.2889673,5.00080176 37.5369001,4.8048438 37.6455304,4.69286782 C37.9356373,4.69032291 38.2219102,4.68396064 38.5094611,4.68014328 C39.6954488,5.4143494 40.8571544,6.18036688 42.007358,6.97183345 C41.8936156,7.10035133 41.7773173,7.22505185 41.6661309,7.34975237 C41.369634,7.3433901 40.9402247,7.42737208 40.6437277,7.42355472 C39.5063042,6.62572588 38.3535446,5.84952877 37.179059,5.11277774 Z" id="Shape" fill="#FFFFFF"></path>
                <path d="M30.0273487,65.4194762 C29.5672673,65.5276348 28.9768294,65.5263623 28.518026,65.6396108 C28.4170637,65.3138625 28.188301,64.9881142 28.0886166,64.6623659 C30.3660197,61.9533107 32.6702609,59.2646148 35.0102862,56.5950057 C35.4639776,56.4970267 36.0480254,56.4015927 36.5017168,56.3048861 C36.6077912,56.5822812 36.8186618,57.0556342 36.9413502,57.3190322 C34.6077149,59.9988209 32.3047518,62.6976965 30.0273487,65.4194762 Z" id="Shape" fill="#FFFFFF"></path>
                <path d="M116.040851,48.6218071 C116.223605,48.974277 116.40636,49.321657 116.586558,49.6728544 C116.245331,49.8051896 115.589715,50.0125997 115.295774,50.1334828 C112.03303,48.3978552 108.808626,46.6673174 105.599558,44.9978573 C105.47687,44.5054175 105.404023,44.2369297 105.268555,43.8679179 C105.597002,43.781391 105.925449,43.6974091 106.256452,43.6108822 C109.531976,45.2281716 112.790886,46.898904 116.040851,48.6218071 Z" id="Shape" fill="#FFFFFF"></path>
                <path d="M118.443498,29.5642593 C118.738717,29.8009358 119.036492,30.0376123 119.334267,30.2755612 C119.169404,30.490606 118.987928,30.7476418 118.839679,30.9525069 C115.79164,30.5198725 112.742322,30.1483158 109.690449,29.8403819 C109.406732,29.5655318 109.062949,29.238511 108.792012,28.9852926 C108.973489,28.8020592 109.149853,28.6200982 109.330052,28.4406822 C112.367867,28.751161 115.405683,29.1252626 118.443498,29.5642593 Z" id="Shape" fill="#FFFFFF"></path>
                <path d="M106.739538,14.1815594 C107.044981,14.3138947 107.352979,14.4462299 107.663534,14.5785652 C107.63414,14.7617986 107.600912,15.0964541 107.571518,15.278415 C105.326065,15.5939837 103.085724,15.9706302 100.849217,16.4032646 C100.560388,16.2365731 100.173153,16.0075313 99.9022163,15.863744 C99.9405564,15.6690585 99.9801745,15.4718281 100.021071,15.2809599 C102.255022,14.8572327 104.495363,14.4894934 106.739538,14.1815594 Z" id="Shape" fill="#FFFFFF"></path>
                <path d="M94.3071148,65.4194762 C94.68157,65.4754642 95.3538001,65.5658084 95.8177156,65.6396108 C95.965964,65.3202247 96.1116565,64.9957489 96.2471249,64.6623659 C93.9709998,61.9533107 91.6629246,59.2646148 89.3254553,56.5950057 C88.8717639,56.4970267 88.2851601,56.4015927 87.8314687,56.3048861 C87.7253944,56.5822812 87.5158017,57.0556342 87.3918353,57.3190322 C89.7280266,59.9988209 92.0284338,62.6976965 94.3071148,65.4194762 Z" id="Shape" fill="#FFFFFF"></path>
                <path d="M8.2591069,49.1740523 C8.17475864,49.335654 8.03801221,49.5914173 7.95238595,49.7504741 C7.88465173,49.7212077 7.83097557,49.7059382 7.74790531,49.6728544 C7.92938187,49.321657 8.11085844,48.974277 8.292335,48.6218071 C11.5410211,46.898904 14.8024873,45.2281716 18.0792895,43.6121546 C18.4090145,43.6974091 18.7374615,43.7826635 19.0659086,43.8691904 C18.9956183,44.0664208 18.9470542,44.2445644 18.886988,44.422708 C18.6211632,44.3463607 18.2646001,44.2903728 18.0026092,44.2216602 C14.728363,45.842767 11.509071,47.4511492 8.2591069,49.1740523 Z" id="Shape" fill="#CA581A"></path>
                <path d="M5.99320584,29.9841692 C5.82706533,30.115232 5.37848593,30.4384354 5.21362342,30.5707706 C5.12416314,30.4587947 5.1113831,30.4231659 4.99891875,30.2755612 C5.29797168,30.0376123 5.5944686,29.8009358 5.89352153,29.5642593 C8.92878099,29.1252626 11.9665964,28.7498886 15.0018559,28.4394097 C15.1833325,28.6188258 15.362253,28.8020592 15.5398956,28.9840201 C15.4785514,29.0387357 15.4223192,29.0959961 15.358419,29.1634362 C15.2766268,29.0794542 15.1079302,28.9254873 15.040196,28.8656819 C12.0023806,29.1761607 9.0284653,29.5451725 5.99320584,29.9841692 Z" id="Shape" fill="#CA581A"></path>
                <path d="M16.7322733,15.0493733 C16.7079912,14.8686848 16.6990452,14.7847028 16.6709291,14.5785652 C16.9789281,14.4462299 17.286927,14.3138947 17.596204,14.1815594 C19.837823,14.4894934 22.0781639,14.8585051 24.3133929,15.2809599 C24.354289,15.4731005 24.3926291,15.670331 24.4322473,15.863744 C24.3798491,15.891738 19.842935,14.973026 17.612818,14.6714543 C17.3699973,14.7719782 16.975094,14.9437596 16.7322733,15.0493733 Z" id="Shape" fill="#CA581A"></path>
                <path d="M87.0646663,5.19294236 C87.0825584,5.20948426 87.0978944,5.22475372 87.1170645,5.24129562 C87.2129148,5.18021782 87.3100431,5.1165951 87.4071714,5.0555173 C87.294707,4.94354132 87.1809647,4.83156534 87.0646663,4.71831691 C86.7822274,4.715772 86.4959545,4.71195464 86.2122376,4.70940973 C85.0262499,5.44361585 83.8632663,6.21217824 82.7130627,7.00491726 C82.799967,7.1041687 82.8881493,7.20342013 82.9750536,7.2988542 C84.0396309,6.57101035 85.1182662,5.86352577 86.2122376,5.18403518 C86.4959545,5.18658009 86.7822274,5.19039745 87.0646663,5.19294236 Z" id="Shape" fill="#A81815"></path>
                <path d="M61.7448515,1.95963602 C61.9582781,1.89219594 62.1729828,1.82857323 62.3876875,1.76367806 C62.6049481,1.82857323 62.8222088,1.89219594 63.0420255,1.95963602 L63.0420255,1.48501057 C62.8222088,1.42138785 62.6049481,1.35394778 62.3876875,1.28905261 C62.1729828,1.35394778 61.9582781,1.42138785 61.7448515,1.48501057 L61.7448515,1.95963602 Z" id="Shape" fill="#B6110E"></path>
                <path d="M38.5337432,5.09369092 C39.6264366,5.7706366 40.6807899,6.53919899 41.7389772,7.26704284 C41.8297154,7.17160877 41.9166197,7.07235734 42.007358,6.9731059 C40.8584324,6.18163934 39.6954488,5.41562186 38.5094611,4.68141573 C38.2206322,4.6852331 37.9356373,4.69159537 37.6455304,4.69414028 C37.5369001,4.80611625 37.2812993,5.00207422 37.1713909,5.11405019 C37.2646852,5.175128 37.3618135,5.2362058 37.4563858,5.29728361 C37.4717219,5.2807417 37.6531984,5.12041246 37.6672565,5.10514301 C37.9573634,5.1000532 38.2449143,5.09623583 38.5337432,5.09369092 Z" id="Shape" fill="#C8411B"></path>
                <path d="M36.4160906,56.696802 C36.540057,56.864766 36.6857494,57.2579544 36.8237738,57.4577297 C36.863392,57.4119214 36.9030101,57.3648405 36.9413502,57.3203046 C36.9017321,57.1968766 36.6244052,56.5835536 36.5017168,56.3061586 C36.0480254,56.4028651 35.4639776,56.4982992 35.0102862,56.5962782 C32.6702609,59.2658873 30.3660197,61.9545832 28.0886166,64.6636383 C28.1244008,64.7819766 28.2253631,64.9283088 28.2624252,65.0441022 C29.7257397,63.3122919 32.8836876,59.5521895 35.1840947,56.9283887 C35.5444919,56.8431343 36.0378014,56.7833289 36.4160906,56.696802 Z" id="Shape" fill="#A81815"></path>
                <path d="M116.074079,49.1740523 C116.160983,49.335654 116.296451,49.5914173 116.3808,49.7504741 C116.45109,49.7212077 116.50221,49.7059382 116.58528,49.6728544 C116.405082,49.321657 116.222327,48.974277 116.039573,48.6218071 C112.789608,46.898904 109.530698,45.2281716 106.256452,43.6121546 C105.924171,43.6974091 105.595724,43.7826635 105.268555,43.8691904 C105.336289,44.0664208 105.387409,44.2445644 105.447476,44.422708 C105.7133,44.3463607 106.068585,44.2903728 106.330576,44.2216602 C109.603544,45.842767 112.826671,47.4511492 116.074079,49.1740523 Z" id="Shape" fill="#A81815"></path>
                <path d="M118.33998,29.9841692 C118.507398,30.115232 118.955978,30.4384354 119.12084,30.5707706 C119.206466,30.4587947 119.221802,30.4231659 119.334267,30.2755612 C119.036492,30.0376123 118.738717,29.8009358 118.443498,29.5642593 C115.405683,29.1252626 112.367867,28.7498886 109.330052,28.4394097 C109.149853,28.6188258 108.973489,28.8020592 108.792012,28.9840201 C108.854634,29.0387357 108.912144,29.0959961 108.976045,29.1634362 C109.056559,29.0794542 109.227811,28.9254873 109.29299,28.8656819 C112.332083,29.1761607 115.30472,29.5451725 118.33998,29.9841692 Z" id="Shape" fill="#A81815"></path>
                <path d="M107.60219,15.0493733 C107.625194,14.8686848 107.632862,14.7847028 107.663534,14.5785652 C107.354257,14.4462299 107.046259,14.3138947 106.739538,14.1815594 C104.495363,14.4894934 102.255022,14.8585051 100.019793,15.2809599 C99.9788965,15.4731005 99.9405564,15.670331 99.9009383,15.863744 C99.9520584,15.891738 104.491529,14.973026 106.719089,14.6714543 C106.963188,14.7719782 107.360647,14.9437596 107.60219,15.0493733 Z" id="Shape" fill="#A81815"></path>
                <path d="M87.918373,56.696802 C87.7931286,56.864766 87.6487141,57.2579544 87.5132457,57.4577297 C87.4710716,57.4119214 87.4327314,57.3648405 87.3918353,57.3203046 C87.4314534,57.1968766 87.7087803,56.5835536 87.8314687,56.3061586 C88.2851601,56.4028651 88.8717639,56.4982992 89.3254553,56.5962782 C91.6616466,59.2658873 93.9697218,61.9545832 96.2471249,64.6636383 C96.1960047,64.7908838 96.1487186,64.9130394 96.0924864,65.0441022 C94.6278938,63.3110194 91.45461,59.5534619 89.1529248,56.9296612 C88.7874157,56.8431343 88.2953841,56.7833289 87.918373,56.696802 Z" id="Shape" fill="#A81815"></path>
                <path d="M63.4624888,62.1378166 L63.6810275,71.0933498 L63.6644134,61.805706 C63.3334104,61.5741193 62.880997,61.3501674 62.551272,61.1211256 C62.2164349,61.3501674 61.7333494,61.5753918 61.3985124,61.805706 L61.3997904,71.0933498 L61.613217,62.1339992 C61.8841539,61.9545832 62.2854471,61.7738947 62.551272,61.5944786 C62.8145408,61.7738947 63.200498,61.9584005 63.4624888,62.1378166 Z" id="Shape" fill="#A81815"></path>
                <path d="M17.3572172,28.5768348 C21.4174359,10.5257983 46.5608862,5.161131 62.3288993,5.161131 C78.0994684,5.16494836 103.244197,10.5283432 107.304415,28.5806521 C112.360199,51.0483775 78.6758482,59.413492 62.3327333,59.413492 C45.9883404,59.413492 12.3014335,51.0458326 17.3572172,28.5768348 Z M19.0032864,28.4483169 C22.8232403,11.006786 47.14749,5.83425932 62.3288993,5.83425932 C77.5128646,5.83425932 101.837114,11.0093309 105.657068,28.4483169 C110.385683,50.0278691 78.0406802,58.0087024 62.3327333,58.0087024 C46.6260644,58.0061575 14.2759496,50.0278691 19.0032864,28.4483169 Z" id="Shape" fill="#C8411B"></path>
                <path d="M17.5003537,29.1316248 C21.5605723,11.0793159 45.6560594,5.61921454 62.4733137,5.61921454 C79.2343359,5.61921454 103.384777,11.0805883 107.44883,29.1341698 C112.505892,51.5993502 78.8215406,59.9657371 62.4758697,59.9657371 C46.1327548,59.9657371 12.4458479,51.5955328 17.5003537,29.1316248 Z M19.1477008,29.0005621 C22.9663767,11.5577587 47.2919044,6.38523202 62.4733137,6.38523202 C77.656001,6.38777693 101.980251,11.564121 105.802761,29.003107 C110.531375,50.5826592 78.1850946,58.5609476 62.4758697,58.5609476 C46.7679228,58.5609476 14.4203641,50.5813867 19.1477008,29.0005621 Z" id="Shape" fill="#FFFFFF"></path>
            </g>
        </g>
        <path d="M105.768532,38.6014961 C105.392991,41.0016977 104.154199,42.2584961 102.667239,42.2584961 C101.722224,42.2584961 101.179456,41.5982558 101.34052,40.5723566 L101.863565,37.3167597 C102.064073,36.110907 102.788447,35.1675891 104.073668,35.1675891 C105.50023,35.1671783 106.153934,36.138845 105.768532,38.6014961 Z M100.678187,43.3842326 C100.878695,43.3842326 101.360653,44.2277132 102.928556,44.2277132 C106.264459,44.2277132 108.172568,41.8168295 108.695613,38.7025659 C109.357946,34.8664341 107.489692,33.1186667 105.138659,33.1186667 C104.033813,33.1186667 103.207541,33.2176822 102.604785,33.5397907 L103.509535,28.2554031 L100.738175,28.2554031 L97.9865378,44.0383101 L100.075432,44.0383101 C100.075432,44.0383101 100.377426,43.3842326 100.69832,43.3842326 L100.678187,43.3842326 Z M130.159782,36.6540543 C130.582985,34.2620698 129.698369,33.098124 127.107384,33.098124 C125.177909,33.098124 124.41861,33.9469457 123.695468,34.6716899 L123.766139,33.3397054 L121.200628,33.3557287 L121.001353,35.3282326 L119.515215,44.0383101 L122.324375,44.0383101 L123.229946,38.3825116 C123.550429,36.4330155 124.897692,34.9461395 126.162369,34.9461395 C127.569619,34.9461395 127.551952,35.7497674 127.331722,36.9749302 L126.107311,44.0383101 L128.895106,44.0383101 L130.159782,36.6540543 Z M141.875094,33.1186667 L138.600822,33.1186667 L134.836375,37.1088682 L134.78255,37.0998295 L136.288822,28.2656744 L133.557728,28.2656744 L130.804036,44.0387209 L133.577039,44.0387209 L133.859722,42.4610465 L134.421801,39.0041318 C135.886985,39.0041318 136.712435,39.1660078 137.355456,42.0785426 L137.796737,44.0387209 L140.630139,44.0387209 C140.630139,44.0387209 139.926719,41.0555194 139.464483,39.8899302 C138.981293,38.6635349 138.454139,37.8545659 137.329571,37.6335271 L141.875094,33.1186667 Z M61.3606284,36.9909535 C63.3895347,36.5492868 64.443432,34.905876 64.7244713,33.8421783 C65.4467915,30.9078682 64.1418489,28.6165426 60.4036979,28.6580388 L56.1207251,28.6526977 L53.4323625,44.0383101 L56.2250876,44.0383101 L57.3295227,37.8594961 C59.9036616,37.7888295 60.2171601,38.4157907 60.7036375,41.4154264 L61.1445076,44.0383101 L64.0403625,44.0383101 C63.6993353,42.4515969 63.4778731,40.9540388 63.1976556,39.7469535 C62.8952508,38.4807054 62.4260302,37.4917829 61.2201088,37.0221783 L61.3606284,36.9909535 Z M61.9255831,33.3253256 C61.683577,34.6893566 60.6259819,35.6511628 59.3193958,35.6511628 L57.6717825,35.6511628 L58.5255831,30.7944729 L60.0224048,30.7866667 C61.8002659,30.7866667 62.1462236,31.957186 61.9255831,33.3253256 Z M74.5501631,36.2329302 C74.952,33.9017519 73.7054018,33.098124 71.193716,33.098124 C68.0603746,33.098124 66.6929789,34.5858217 66.6929789,34.5858217 L67.657716,36.2123876 C67.657716,36.2123876 68.6717583,35.0274884 70.692858,35.0274884 C71.8215347,35.0274884 71.8449547,35.5998062 71.7368943,36.2123876 L71.5158429,37.5977829 C67.4777523,37.4967132 65.4077583,38.3607364 64.9463444,41.0136124 C64.5638187,43.1837364 66.1908882,44.2297674 68.019287,44.2297674 C68.9630695,44.2297674 69.7281208,44.0876124 70.6517704,43.2831628 C70.8325559,43.8061783 71.1534502,44.0822713 71.5158429,44.1422558 C72.0988761,44.2642791 73.1034683,44.1270543 73.4046405,43.9051938 C73.3840967,43.583907 73.4046405,42.7626124 73.7460785,40.8336589 L74.5501631,36.2329302 Z M71.2343927,39.0653488 C70.7865378,42.2404186 70.3649789,42.5567752 68.8356979,42.5567752 C67.7908399,42.5567752 67.4017402,41.8406589 67.5800604,40.9006279 C67.8232991,39.6224651 68.788858,39.0653488 71.2343927,39.0653488 Z M118.856991,36.2329302 C119.257595,33.9017519 118.011819,33.098124 115.500133,33.098124 C112.366381,33.098124 110.999807,34.5858217 110.999807,34.5858217 L111.964133,36.2123876 C111.964133,36.2123876 112.978175,35.0274884 114.998864,35.0274884 C116.12713,35.0274884 116.151782,35.5998062 116.042489,36.2123876 L115.821849,37.5977829 C111.783347,37.4967132 109.714175,38.3607364 109.25235,41.0136124 C108.870647,43.1837364 110.497716,44.2297674 112.325293,44.2297674 C113.269486,44.2297674 114.034127,44.0876124 114.958187,43.2831628 C115.138973,43.8061783 115.459867,44.0822713 115.821849,44.1422558 C116.404882,44.2642791 117.409063,44.1270543 117.711057,43.9051938 C117.690924,43.583907 117.711057,42.7626124 118.052085,40.8336589 L118.856991,36.2329302 Z M115.54081,39.0653488 C115.092955,42.2404186 114.671396,42.5567752 113.142115,42.5567752 C112.097668,42.5567752 111.708157,41.8406589 111.887299,40.9006279 C112.128894,39.6224651 113.094864,39.0653488 115.54081,39.0653488 Z M80.1557462,44.2277132 C83.4912387,44.2277132 85.3997583,41.8168295 85.9211601,38.7025659 C86.5859577,34.8664341 84.7168822,33.1186667 82.3654381,33.1186667 C81.261003,33.1186667 80.4626707,33.2176822 79.8401934,33.5397907 L80.7449426,28.2554031 L77.9661873,28.2554031 L75.2129063,44.0383101 L77.3030332,44.0383101 C77.3030332,44.0383101 77.6042054,43.3842326 77.9066103,43.3842326 C78.1058852,43.3842326 78.5890755,44.2277132 80.1557462,44.2277132 Z M81.3197583,35.1671783 C82.7483746,35.1671783 83.3531843,36.1318605 83.0170876,38.6010853 C82.6719517,41.126186 81.4011118,42.2580853 79.894429,42.2580853 C78.949003,42.2580853 78.4078792,41.597845 78.5886647,40.5719457 L79.1108882,37.3163488 C79.3109849,36.1104961 80.0345378,35.1671783 81.300858,35.1671783 L81.3197583,35.1671783 Z M87.0921571,39.5608372 C87.5223444,35.5431085 89.3330755,33.0582713 93.6382356,33.0582713 C96.8364955,33.0582713 97.8936798,35.4983256 97.4643142,38.1195659 C96.7765076,42.3143721 95.1449184,44.2885194 91.0456073,44.2885194 C88.3917583,44.2881085 86.8189245,42.124969 87.0921571,39.5608372 Z M94.5495589,38.3143101 C94.7554079,37.2045969 94.9727613,35.0472093 93.0613656,35.0472093 C91.7765559,35.0472093 90.5759758,35.9178062 90.0377281,38.9733178 C89.7086163,40.8365349 90.0689547,42.3345039 91.5567372,42.3345039 C92.6459698,42.3345039 93.9722779,41.4355581 94.5495589,38.3143101 Z" id="Shape" fill="#FFFFFF"></path>
        <g id="Layer_1" transform="translate(16.000000, 15.000000)">
            <g id="Group">
                <path d="M27.7784374,25.7938308 C28.4129562,26.4291154 28.929564,27.1206393 29.29556,27.8630614 C30.4630369,30.2323399 30.034155,32.8457411 27.7095773,35.1248481 C25.0444724,37.7360499 20.5091406,39.3424842 15.2430745,39.3424842 C9.97637952,39.3424842 5.44104768,37.7360499 2.77594281,35.1248481 C0.451365141,32.8457411 0.0231120929,30.2323399 1.1893313,27.8630614 C1.55564172,27.1206393 2.06627531,26.4347708 2.70110857,25.7925741 C1.95716826,26.5108038 1.37012829,27.1464026 0.83654134,28.2133791 C-0.301693633,30.4893442 0.0621013572,33.7433712 2.46560084,36.1007105 C5.19736478,38.7794625 9.46857579,40.3928088 15.2861513,40.3928088 C21.1194484,40.3928088 25.3912882,38.7310778 28.0092287,36.1007105 C30.5765459,33.5212415 30.6755913,30.1638473 29.6231956,28.1404879 C29.1851952,27.2984687 28.5959542,26.5239997 27.7784374,25.7938308 Z" id="Shape" fill="url(#linearGradient-2)"></path>
                <g id="SVGID_2_-link" transform="translate(0.349176, 21.397737)" fill="#EE7203">
                    <path d="M23.1542777,1.65387639 C20.6860057,0.632142722 17.8114907,0.105880764 14.893899,0.105880764 C11.9763072,0.105880764 9.10147777,0.632142722 6.63352023,1.65387639 C3.93225596,2.77363616 1.84224274,4.43473883 0.840784618,6.46532452 C-0.325434585,8.83460298 0.102818463,11.4480042 2.42739613,13.7271112 C5.092501,16.338313 9.62751841,17.9447473 14.8945278,17.9447473 C20.1609084,17.9447473 24.6959258,16.338313 27.3610306,13.7271112 C29.6856083,11.4480042 30.1144902,8.83460298 28.9470133,6.46532452 C27.9458696,4.43442464 25.8552275,2.77363616 23.1542777,1.65387639 Z" id="SVGID_2_"></path>
                </g>
                <path d="M15.7326413,24.1936803 C15.2465332,23.1986525 15.3455785,22.2963096 15.4449383,21.5048744 C15.3776503,21.504246 15.3094191,21.504246 15.2421312,21.504246 C12.3245394,21.504246 9.44971002,22.0295654 6.98175248,23.0519275 C4.28048821,24.1716873 2.19078941,25.8327899 1.1893313,27.8643182 C0.0224832338,30.2326541 0.451050711,32.8457411 2.77562838,35.1248481 C2.93850289,35.2844547 3.10923813,35.4402911 3.28563311,35.5929856 C13.0958351,35.0208524 18.2213512,29.2850684 15.7326413,24.1936803 Z" id="Shape" fill="url(#linearGradient-3)"></path>
                <path d="M8.9249271,24.3623983 C10.7479896,24.8255088 12.4811253,25.3765915 14.2441318,26.0278996 C14.593463,24.9797743 14.9641755,23.9391894 15.3880265,22.9180841 C15.8115631,23.9379327 16.1819611,24.9788317 16.5312924,26.0247577 C18.2939844,25.3756489 19.9959916,24.8468735 21.8190541,24.3850197 C20.5368104,25.1887081 19.4036063,26.018474 18.2156915,26.9525497 C20.6254795,27.2588813 22.8802538,27.6575836 25.2548258,28.1709639 C22.8887434,28.1194374 20.6613245,28.2033251 18.2996441,28.3544487 C19.9651775,29.7648308 21.3923732,31.12997 22.9406243,32.6653982 C20.8182248,31.4545244 18.8256848,30.4375035 16.6136729,29.3928342 C16.1844766,31.2408777 15.7801202,33.0942624 15.3892842,34.9504747 C14.9981339,33.0948908 14.6393697,31.3288499 14.2104878,29.4826915 C11.9987904,30.5251615 9.98738455,31.5198751 7.79455286,32.68205 C9.34469055,31.1463077 10.8121333,29.8151006 12.4792387,28.4053469 C10.1166151,28.2532807 7.85146461,28.2218621 5.43224365,28.1869874 C7.80461461,27.6748639 10.1499446,27.2749048 12.558475,26.968259 C11.3715034,26.0335549 10.2055987,25.1664009 8.9249271,24.3623983 Z M15.3892842,27.5947464 C15.3883409,26.2333774 15.3883409,24.8720084 15.3880265,23.511582 C14.9736084,24.6457943 14.6082412,25.7982294 14.263312,26.9550632 C14.6409419,27.1643112 15.0154275,27.3776437 15.3892842,27.5947464 Z M9.98769898,24.812313 C11.4475954,25.4563948 12.8700747,26.1796515 14.2629976,26.9550632 C13.9164962,26.990252 13.5706237,27.0270118 13.2247512,27.0662851 C12.1758142,26.2729648 11.1007796,25.5148334 9.98769898,24.812313 Z M15.3892842,27.5947464 C18.2024854,27.6000875 21.0131712,27.7395862 23.8119086,28.0188978 C21.3552705,27.5758952 18.9684358,27.2365741 16.5055091,26.949722 C16.1303947,27.160541 15.7587389,27.3760727 15.3892842,27.5947464 Z M20.7858386,24.8110563 C19.3240556,25.4532529 17.900633,26.1758813 16.5051947,26.949722 C16.448283,26.7599535 16.3920001,26.5689283 16.334145,26.3779031 C17.7965569,25.7966585 19.2790922,25.2681972 20.7858386,24.8110563 Z M15.2405591,27.5950606 C15.3003007,29.5659509 15.372305,31.6571745 15.3899131,33.5655417 C15.7568524,31.7998151 16.1382554,30.038487 16.5454417,28.2818717 C16.1618376,28.0490597 15.6285651,27.8209605 15.2405591,27.5950606 Z M21.5885772,31.6587454 C19.9475694,30.4752059 18.2691445,29.3444496 16.5454417,28.2815575 C16.8979172,28.2539091 17.2503927,28.2268891 17.6034971,28.2039535 C18.972209,29.3095749 20.2969007,30.4660945 21.5885772,31.6587454 Z M15.3892842,27.5947464 C12.5569028,27.6333913 10.3464631,27.7615793 7.58577164,27.9991041 C9.96914764,28.0066445 11.8214521,28.096816 14.2422452,28.2881554 C14.6217617,28.0528299 15.004108,27.8212747 15.3892842,27.5947464 Z M9.19282108,31.6603164 C10.8357155,30.4777193 12.5157126,29.348534 14.2419308,28.2881554 C14.2928684,28.5071432 14.3428627,28.7270736 14.3931714,28.9473182 C12.6292216,29.7934217 10.8964004,30.7011058 9.19282108,31.6603164 Z" id="Shape" fill="#FFFFFF"></path>
                <path d="M15.3880265,22.9865767 C15.8115631,24.0067395 16.1819611,25.0463818 16.5312924,26.0929361 C18.2361294,25.465192 19.8765083,24.9543252 21.6369994,24.5012686 C21.6979987,24.4616812 21.7580548,24.4227221 21.8190541,24.3847055 C19.9959916,24.8465593 18.2939844,25.3750206 16.5312924,26.0244435 C16.1819611,24.9782033 15.8112487,23.9376185 15.3880265,22.91777 C14.9641755,23.9388752 14.593463,24.9794601 14.2441318,26.0275854 C12.4811253,25.3762773 10.7479896,24.8251946 8.9249271,24.3620841 C8.985612,24.4004148 9.04598248,24.4400023 9.10635295,24.478333 C10.8671584,24.9329605 12.5396092,25.4670771 14.2441318,26.0954496 C14.593463,25.0485811 14.963861,24.007682 15.3880265,22.9865767 Z" id="Shape" fill="#C51A1B"></path>
                <path d="M12.4732646,28.4050327 C10.8332,29.7959352 9.3207939,31.1686149 7.79455286,32.6817358 C7.84957804,32.650003 7.98352502,32.5742841 8.03760691,32.5431797 C9.536807,31.065876 10.8640141,29.8675697 12.4732646,28.5087142 L12.4732646,28.4050327 Z" id="Shape" fill="#C8411B"></path>
                <path d="M15.3892842,27.5947464 L15.3892842,27.5947464 L15.3892842,27.6626106 L15.3892842,27.6626106 L15.3892842,27.5947464 Z" id="Shape" fill="#C00D0D"></path>
                <path d="M15.3301715,27.6289927 C15.3113057,27.6406176 15.2921255,27.6519283 15.2729453,27.663239 C14.9277016,27.8680884 14.5837157,28.0763939 14.2419308,28.2878412 L14.2573378,28.3547629 C14.6330812,28.1222651 15.0091389,27.9007638 15.3889698,27.6761206 L15.3889698,27.5944322 C15.3691607,27.6063713 15.3499805,27.6173678 15.3301715,27.6289927 Z" id="Shape" fill="#C00D0D"></path>
                <path d="M14.2629976,26.9550632 C14.2284103,26.9588334 14.1931942,26.9622895 14.1579781,26.9663739 C13.8466929,26.9981067 13.5360365,27.0307821 13.2247512,27.0662851 C12.1758142,26.2729648 11.1007796,25.5148334 9.98769898,24.812313 L9.98769898,24.8946298 C11.1007796,25.5974644 12.1754998,26.3552816 13.2247512,27.1489161 C13.5706237,27.1093286 13.9164962,27.072883 14.2629976,27.0380084 C14.6006949,27.2249492 14.9182688,27.401836 15.2525074,27.5950606 C15.2918111,27.5950606 15.3490372,27.5947464 15.3889698,27.5947464 C15.0214017,27.3807855 14.6346533,27.1611694 14.2629976,26.9550632 Z" id="Shape" fill="#C8411B"></path>
                <path d="M9.19282108,31.7570857 C10.8964004,30.7975609 12.6292216,29.8889343 14.3931714,29.0434591 L14.3931714,28.947004 C12.6292216,29.7931075 10.8964004,30.7011058 9.19282108,31.6600022 L9.19282108,31.7570857 L9.19282108,31.7570857 Z" id="Shape" fill="#C8411B"></path>
                <path d="M16.5454417,28.2815575 C16.1436007,30.0180649 15.7527648,31.8205513 15.3899131,33.5652276 L15.3899131,33.6343485 C15.7568524,31.868936 16.1354256,30.1186045 16.5426118,28.3638743 C17.7179495,29.0880736 19.4259308,30.2024922 21.5888917,31.7614843 L21.5888917,31.6584312 C19.9478839,30.4752059 18.2691445,29.3444496 16.5454417,28.2815575 Z" id="Shape" fill="#A81815"></path>
                <path d="M18.3747928,28.4194853 L18.2996441,28.3544487 L18.2996441,28.4644139 C19.907008,29.8248403 21.1905094,31.0435688 22.6881374,32.521815 C22.7425337,32.5529195 22.8859136,32.6349221 22.9406243,32.6653982 C21.3662756,31.1042067 19.9607755,29.7651449 18.3747928,28.4194853 Z" id="Shape" fill="#A81815"></path>
                <path d="M12.4830119,26.9776846 C10.0999503,27.283702 7.77977468,27.6798908 5.43224365,28.1866733 C5.54732487,28.1866733 5.68661716,28.1945279 5.80421381,28.1932712 C8.06056026,27.7150797 10.2691134,27.3418264 12.558475,27.0499474 L12.558475,26.9679448 L12.4830119,26.9776846 Z" id="Shape" fill="#C8411B"></path>
                <path d="M14.2419308,28.2881554 C12.0236303,28.0965018 9.81539159,27.9868508 7.59048809,28.0038169 L7.59048809,28.0719953 C9.78552078,28.0559718 11.9632598,28.1631093 14.1520039,28.3491075 C14.1821892,28.3283713 14.2117456,28.307635 14.2419308,28.2881554" id="Shape" fill="#C8411B"></path>
                <path d="M18.2156915,26.9525497 C20.6254795,27.2588813 22.8802538,27.6575836 25.2548258,28.1709639 C25.1366003,28.1684505 24.9756124,28.1653086 24.8580157,28.1631093 C22.5988394,27.6855462 20.5059963,27.3267455 18.2156915,27.0348665 L18.2156915,26.9525497 Z" id="Shape" fill="#A81815"></path>
                <path d="M15.3892842,27.5947464 C18.2024854,27.6000875 21.0131712,27.7395862 23.8119086,28.0188978 L23.8119086,28.0943025 C21.0521604,27.8187612 18.2908401,27.6786341 15.5172571,27.6688943 C15.4971336,27.6569553 15.4675772,27.6406176 15.4477681,27.6289927 C15.4276446,27.6173678 15.4084644,27.6057429 15.3892842,27.5947464 C15.4279591,27.5947464 15.4669483,27.5950606 15.5059376,27.5950606" id="Shape" fill="#A81815"></path>
                <path d="M16.5051947,26.949722 C16.5394675,26.9534923 16.5715393,26.9588334 16.606441,26.9622895 C17.9685498,26.209185 19.358014,25.5069788 20.7836376,24.8801772 L20.7836376,24.8113704 C19.3212258,25.4545097 17.900633,26.1758813 16.5051947,26.949722" id="Shape" fill="#A81815"></path>
                <path d="M16.5051947,26.949722 C16.448283,26.7599535 16.3920001,26.5689283 16.334145,26.3779031 L16.334145,26.4460815 C16.3857115,26.6169988 16.4372779,26.7888587 16.4879011,26.959776 C16.4932464,26.9566341 16.4992205,26.9528639 16.5051947,26.949722" id="Shape" fill="#C00D0D"></path>
                <path d="M15.6675544,38.8008271 C15.5851738,38.8624076 15.4713503,38.9246165 15.3892842,38.9858828 C15.3053315,38.9246165 15.1902503,38.8624076 15.1062976,38.8008271 C15.1078698,38.0360978 15.1040966,37.2713685 15.1059832,36.5075817 C15.1883637,36.450714 15.3072181,36.3951031 15.3895987,36.3385495 C15.4704071,36.3951031 15.5820295,36.4500856 15.6634668,36.5075817 C15.6650389,37.2713685 15.6666111,38.0360978 15.6675544,38.8008271 Z" id="Shape" fill="#FFFFFF"></path>
                <path d="M2.04017766,33.2522981 C1.99521423,33.3393277 1.95087967,33.4251005 1.90623067,33.5118159 C1.99018336,33.5444913 2.15180015,33.5957036 2.22411895,33.6255513 C3.02654316,33.1970013 3.82016335,32.769708 4.60875266,32.3574956 C4.63925232,32.2359056 4.65748924,32.1696123 4.69081877,32.0784983 C4.60969595,32.0571336 4.52888755,32.0363973 4.44807916,32.0150326 C3.64219622,32.4143633 2.83945758,32.8268899 2.04017766,33.2522981 Z" id="Shape" fill="#FFFFFF"></path>
                <path d="M1.44967896,28.5467307 C1.37641688,28.6051693 1.30346922,28.663608 1.22957828,28.7223608 C1.27013969,28.7754583 1.31478869,28.8389239 1.35126251,28.8895079 C2.10149142,28.7826846 2.8514059,28.6909422 3.60226367,28.6149091 C3.67206703,28.5470449 3.75664858,28.466299 3.82267878,28.403776 C3.77897307,28.3585331 3.73495294,28.3136045 3.69030394,28.2693042 C2.94384819,28.3459657 2.19644915,28.4383364 1.44967896,28.5467307 Z" id="Shape" fill="#FFFFFF"></path>
                <path d="M4.32922479,24.7485332 C4.25313284,24.7812086 4.17735531,24.8138839 4.10157779,24.8465593 C4.10880967,24.8918021 4.11698484,24.9744331 4.12390229,25.0193617 C4.67635501,25.0972799 5.22786444,25.1902791 5.77811616,25.2971024 C5.84886281,25.255944 5.94476382,25.1993905 6.01110845,25.1638874 C6.00136114,25.1158169 5.99161382,25.067118 5.98186651,25.0199901 C5.43192922,24.9153661 4.88073422,24.8245663 4.32922479,24.7485332 Z" id="Shape" fill="#FFFFFF"></path>
                <path d="M21.2109474,22.4097308 C21.2807507,22.4103592 21.3511829,22.4113017 21.4206719,22.4119301 C21.449285,22.4395785 21.4769548,22.4675411 21.504939,22.4951895 C21.2156638,22.6780458 20.9314195,22.8687569 20.6518916,23.0657517 C20.5783151,23.0666942 20.5047386,23.0673226 20.4311621,23.0682652 C20.4038067,23.0381033 20.3770802,23.0066847 20.3500392,22.9765228 C20.6327114,22.7807848 20.9191567,22.5907021 21.2109474,22.4097308 Z" id="Shape" fill="#FFFFFF"></path>
                <path d="M15.1911936,21.6135829 C15.2437033,21.5978735 15.2965275,21.5812217 15.3493517,21.5651982 C15.4028047,21.5812217 15.4562577,21.5978735 15.5103396,21.6135829 C15.5115973,21.838226 15.5137983,22.0631834 15.5153705,22.2884549 C15.4600309,22.3076203 15.4043768,22.3255289 15.3490372,22.3446942 C15.2943265,22.3255289 15.2396158,22.3076203 15.1852194,22.2884549 C15.1864772,22.0638117 15.1886782,21.838226 15.1911936,21.6135829 Z" id="Shape" fill="#FFFFFF"></path>
                <path d="M9.14722879,22.5093278 C9.17426973,22.4816794 9.23526906,22.4332948 9.26199558,22.4056464 C9.33337108,22.405018 9.4038033,22.4034471 9.47454995,22.4025045 C9.76634058,22.58379 10.052157,22.7729301 10.3351436,22.9683539 C10.3071594,23.0000867 10.2785463,23.030877 10.2511909,23.0616673 C10.1782433,23.0600963 10.072595,23.0808326 9.9996473,23.0798901 C9.719805,22.8828953 9.43618955,22.6912417 9.14722879,22.5093278 Z" id="Shape" fill="#FFFFFF"></path>
                <path d="M7.38768103,37.3998707 C7.27448639,37.4265765 7.12921994,37.4262623 7.01633973,37.4542249 C6.99149979,37.3737932 6.9352169,37.2933615 6.9106914,37.2129298 C7.47100486,36.5440273 8.03792134,35.8801518 8.61364184,35.2209891 C8.72526433,35.1967967 8.86895864,35.1732328 8.98058113,35.1493546 C9.00667878,35.2178472 9.05855966,35.3347245 9.08874489,35.399761 C8.51459653,36.0614373 7.94799448,36.7278263 7.38768103,37.3998707 Z" id="Shape" fill="#FFFFFF"></path>
                <path d="M28.5497331,33.2522981 C28.5946965,33.3393277 28.6396599,33.4251005 28.6839945,33.5118159 C28.6000418,33.5444913 28.4387394,33.5957036 28.3664206,33.6255513 C27.563682,33.1970013 26.7703762,32.769708 25.9808436,32.3574956 C25.9506584,32.2359056 25.9327359,32.1696123 25.8994064,32.0784983 C25.9802148,32.0571336 26.0610232,32.0363973 26.1424604,32.0150326 C26.9483434,32.4143633 27.7501387,32.8268899 28.5497331,33.2522981 Z" id="Shape" fill="#FFFFFF"></path>
                <path d="M29.1408606,28.5467307 C29.2134938,28.6051693 29.2867559,28.663608 29.360018,28.7223608 C29.3194566,28.7754583 29.2748076,28.8389239 29.2383338,28.8895079 C28.4884193,28.7826846 27.7381904,28.6909422 26.9873326,28.6149091 C26.9175293,28.5470449 26.8329477,28.466299 26.7662887,28.403776 C26.8109377,28.3585331 26.8543289,28.3136045 26.8986635,28.2693042 C27.6460625,28.3459657 28.3934616,28.4383364 29.1408606,28.5467307 Z" id="Shape" fill="#FFFFFF"></path>
                <path d="M26.2613148,24.7485332 C26.3364635,24.7812086 26.412241,24.8138839 26.4886474,24.8465593 C26.4814155,24.8918021 26.4732403,24.9744331 26.4660084,25.0193617 C25.9135557,25.0972799 25.3623607,25.1902791 24.812109,25.2971024 C24.7410479,25.255944 24.6457758,25.1993905 24.5791167,25.1638874 C24.5885496,25.1158169 24.5982969,25.067118 24.6083586,25.0199901 C25.1579815,24.9153661 25.7091765,24.8245663 26.2613148,24.7485332 Z" id="Shape" fill="#FFFFFF"></path>
                <path d="M23.2025441,37.3998707 C23.294672,37.4136949 23.4600619,37.4360021 23.5741999,37.4542249 C23.6106737,37.3753641 23.6465187,37.2952466 23.6798482,37.2129298 C23.1198492,36.5440273 22.5519894,35.8801518 21.9768977,35.2209891 C21.8652753,35.1967967 21.7209521,35.1732328 21.6093296,35.1493546 C21.5832319,35.2178472 21.5316655,35.3347245 21.5011658,35.399761 C22.075943,36.0614373 22.6419162,36.7278263 23.2025441,37.3998707 Z" id="Shape" fill="#FFFFFF"></path>
                <path d="M2.03200249,33.3886549 C2.01125014,33.4285565 1.97760618,33.491708 1.9565394,33.5309813 C1.93987463,33.523755 1.92666859,33.5199847 1.90623067,33.5118159 C1.95087967,33.4251005 1.99552866,33.3393277 2.04017766,33.2522981 C2.83945758,32.8268899 3.64188179,32.4143633 4.44807916,32.0153468 C4.52920198,32.0363973 4.61001038,32.0574478 4.69081877,32.0788124 C4.67352515,32.1275113 4.66157682,32.1714974 4.64679863,32.2154835 C4.58139729,32.1966323 4.49367144,32.1828081 4.42921338,32.165842 C3.62364488,32.5661153 2.83159684,32.9632467 2.03200249,33.3886549 Z" id="Shape" fill="#CA581A"></path>
                <path d="M1.4745189,28.6504122 C1.43364306,28.6827733 1.32327828,28.7625766 1.28271687,28.795252 C1.2607068,28.7676036 1.25756251,28.7588064 1.22989271,28.7223608 C1.30346922,28.663608 1.37641688,28.6051693 1.44999339,28.5467307 C2.19676358,28.4383364 2.94416262,28.3456515 3.6909328,28.2689901 C3.7355818,28.3132903 3.77960193,28.3585331 3.82330764,28.4034618 C3.80821502,28.4169718 3.79438012,28.4311102 3.77865864,28.447762 C3.75853515,28.4270257 3.71703045,28.3890092 3.70036569,28.3742424 C2.95296664,28.4509039 2.22128908,28.5420179 1.4745189,28.6504122 Z" id="Shape" fill="#CA581A"></path>
                <path d="M4.11667041,24.9628082 C4.11069625,24.9181938 4.10849524,24.8974575 4.10157779,24.8465593 C4.17735531,24.8138839 4.25313284,24.7812086 4.32922479,24.7485332 C4.88073422,24.8245663 5.43192922,24.9156803 5.98186651,25.0199901 C5.99192825,25.0674322 6.00136114,25.1161311 6.01110845,25.1638874 C5.99821684,25.1707995 4.88199194,24.943957 4.33331237,24.8694949 C4.27357076,24.8943156 4.17641203,24.9367308 4.11667041,24.9628082 Z" id="Shape" fill="#CA581A"></path>
                <path d="M21.4206719,22.5291216 C21.4250739,22.533206 21.428847,22.5369762 21.4335635,22.5410606 C21.4571457,22.5259797 21.4810423,22.5102704 21.504939,22.4951895 C21.4772692,22.4675411 21.449285,22.4398927 21.4206719,22.4119301 C21.3511829,22.4113017 21.2807507,22.4103592 21.2109474,22.4097308 C20.9191567,22.5910163 20.6330258,22.7807848 20.3500392,22.9765228 C20.3714205,23.0010293 20.3931161,23.0255358 20.4144973,23.0490998 C20.6764171,22.8693853 20.9417957,22.6946977 21.2109474,22.5269223 C21.2807507,22.5275506 21.3511829,22.5284932 21.4206719,22.5291216 Z" id="Shape" fill="#A81815"></path>
                <path d="M15.1911936,21.7307743 C15.2437033,21.7141225 15.2965275,21.6984131 15.3493517,21.6823896 C15.4028047,21.6984131 15.4562577,21.7141225 15.5103396,21.7307743 L15.5103396,21.6135829 C15.4562577,21.5978735 15.4028047,21.5812217 15.3493517,21.5651982 C15.2965275,21.5812217 15.2437033,21.5978735 15.1911936,21.6135829 L15.1911936,21.7307743 Z" id="Shape" fill="#B6110E"></path>
                <path d="M9.48052411,22.504615 C9.74936138,22.6717621 10.0087658,22.8615306 10.2691134,23.0412451 C10.2914379,23.0176812 10.3128191,22.9931747 10.3351436,22.9686681 C10.0524715,22.7732443 9.76634058,22.5841042 9.47454995,22.4028187 C9.40348887,22.4037613 9.33337108,22.4053322 9.26199558,22.4059606 C9.23526906,22.433609 9.17238315,22.4819936 9.14534221,22.509642 C9.16829557,22.524723 9.19219222,22.5398039 9.21546,22.5548848 C9.21923316,22.5508004 9.26388215,22.511213 9.26734088,22.5074427 C9.33871639,22.506186 9.40946304,22.5052434 9.48052411,22.504615 Z" id="Shape" fill="#C8411B"></path>
                <path d="M8.95951435,35.246124 C8.99001402,35.2875965 9.02585898,35.3846801 9.05981738,35.4340073 C9.06956469,35.4226966 9.07931201,35.4110717 9.08874489,35.4000752 C9.07899758,35.3695992 9.01076637,35.2181614 8.98058113,35.1496688 C8.86895864,35.1735469 8.72526433,35.1971109 8.61364184,35.2213032 C8.03792134,35.880466 7.47100486,36.5443415 6.9106914,37.213244 C6.91949542,37.2424634 6.94433536,37.2785948 6.95345382,37.3071857 C7.31347565,36.8795782 8.09043107,35.9511579 8.65640426,35.3033059 C8.7450734,35.2822554 8.8664432,35.2674886 8.95951435,35.246124 Z" id="Shape" fill="#A81815"></path>
                <path d="M28.5579082,33.3886549 C28.5792894,33.4285565 28.612619,33.491708 28.6333713,33.5309813 C28.650665,33.523755 28.6632421,33.5199847 28.6836801,33.5118159 C28.6393455,33.4251005 28.5943821,33.3393277 28.5494186,33.2522981 C27.7498243,32.8268899 26.9480289,32.4143633 26.1424604,32.0153468 C26.0607087,32.0363973 25.9799003,32.0574478 25.8994064,32.0788124 C25.9160712,32.1275113 25.9286483,32.1714974 25.9434265,32.2154835 C26.0088279,32.1966323 26.0962393,32.1828081 26.1606973,32.165842 C26.9659514,32.5661153 27.7589427,32.9632467 28.5579082,33.3886549 Z" id="Shape" fill="#A81815"></path>
                <path d="M29.1153918,28.6504122 C29.1565821,28.6827733 29.2669469,28.7625766 29.3075083,28.795252 C29.3285751,28.7676036 29.3323482,28.7588064 29.360018,28.7223608 C29.2867559,28.663608 29.2134938,28.6051693 29.1408606,28.5467307 C28.3934616,28.4383364 27.6460625,28.3456515 26.8986635,28.2689901 C26.8543289,28.3132903 26.8109377,28.3585331 26.7662887,28.4034618 C26.7816957,28.4169718 26.795845,28.4311102 26.8115665,28.447762 C26.8313756,28.4270257 26.8735091,28.3890092 26.889545,28.3742424 C27.6372585,28.4509039 28.3686216,28.5420179 29.1153918,28.6504122 Z" id="Shape" fill="#A81815"></path>
                <path d="M26.4735547,24.9628082 C26.4792145,24.9181938 26.4811011,24.8974575 26.4886474,24.8465593 C26.4125554,24.8138839 26.3367779,24.7812086 26.2613148,24.7485332 C25.7091765,24.8245663 25.1579815,24.9156803 24.6080442,25.0199901 C24.5979825,25.0674322 24.5885496,25.1161311 24.5788023,25.1638874 C24.5913795,25.1707995 25.7082332,24.943957 26.2562839,24.8694949 C26.31634,24.8943156 26.4141276,24.9367308 26.4735547,24.9628082 Z" id="Shape" fill="#A81815"></path>
                <path d="M21.6307108,35.246124 C21.5998967,35.2875965 21.5643662,35.3846801 21.5310366,35.4340073 C21.5206605,35.4226966 21.5112276,35.4110717 21.5011658,35.4000752 C21.5109131,35.3695992 21.5791444,35.2181614 21.6093296,35.1496688 C21.7209521,35.1735469 21.8652753,35.1971109 21.9768977,35.2213032 C22.551675,35.880466 23.1195347,36.5443415 23.6798482,37.213244 C23.667271,37.2446627 23.6556371,37.2748245 23.6418022,37.3071857 C23.2814659,36.8792641 22.5007374,35.9514721 21.9344498,35.30362 C21.8445229,35.2822554 21.7234675,35.2674886 21.6307108,35.246124 Z" id="Shape" fill="#A81815"></path>
                <path d="M15.6137869,36.5895843 L15.6675544,38.8008271 L15.6634668,36.5075817 C15.5820295,36.4503998 15.4707215,36.3951031 15.3895987,36.3385495 C15.3072181,36.3951031 15.1883637,36.450714 15.1059832,36.5075817 L15.1062976,38.8008271 L15.1588074,36.5886418 C15.2254664,36.5443415 15.3241973,36.4997271 15.3895987,36.4554268 C15.4543711,36.4997271 15.5493289,36.5452841 15.6137869,36.5895843 Z" id="Shape" fill="#A81815"></path>
                <path d="M4.27042646,28.3029222 C5.26936914,23.8458761 11.4554561,22.5212669 15.3348879,22.5212669 C19.2149486,22.5222095 25.40135,23.8465045 26.4002927,28.3038647 C27.644176,33.8514512 19.3567563,35.9169116 15.3358312,35.9169116 C11.3145917,35.9169116 3.02654316,33.8508229 4.27042646,28.3029222 Z M4.67541172,28.2711894 C5.61524165,23.9646385 11.5997793,22.6874714 15.3348879,22.6874714 C19.0706254,22.6874714 25.055163,23.9652669 25.994993,28.2711894 C27.1583823,33.5994739 19.2004848,35.57005 15.3358312,35.57005 C11.471492,35.5694216 3.51233682,33.5994739 4.67541172,28.2711894 Z" id="Shape" fill="#C8411B"></path>
                <path d="M4.30564257,28.4399074 C5.30458525,23.9825471 11.23284,22.634374 15.3704185,22.634374 C19.494162,22.634374 25.4359372,23.9828613 26.4358232,28.4405357 C27.6800209,33.9874939 19.3926013,36.0532684 15.3710473,36.0532684 C11.3501222,36.0532684 3.0620737,33.9865513 4.30564257,28.4399074 Z M4.71094226,28.4075462 C5.65045776,24.1006812 11.6353098,22.8235141 15.3704185,22.8235141 C19.1058415,22.8241425 25.0903792,24.1022521 26.0308379,28.4081746 C27.1942273,33.7364591 19.2360153,35.7064068 15.3710473,35.7064068 C11.5063937,35.7064068 3.54786735,33.7361449 4.71094226,28.4075462 Z" id="Shape" fill="#FFFFFF"></path>
                <path d="M28.5799183,29.3585879 L26.7656598,29.0839892 L26.5251212,29.0286924 C26.220439,28.9652268 25.6393731,28.6375305 25.3859429,28.246997 C25.1328271,27.8558351 24.5218905,27.1831624 24.1882808,26.7646663 C23.7248116,26.1831076 22.6692716,25.6518186 22.5152011,25.4120945 C22.3611307,25.1729988 22.1067571,24.7519892 22.0356961,24.5867273 C21.9655783,24.4198944 21.8001883,24.2844801 21.5266346,24.3017604 C21.2530809,24.3184122 21.2291843,24.4123539 20.9955631,24.4264923 C20.761942,24.4406307 20.4339919,24.3909892 20.4339919,24.3909892 C20.2915554,24.3614557 20.19251,24.3438613 20.0937792,24.3438613 C19.9488271,24.584528 19.7268399,24.7315671 19.1882221,24.7315671 C19.1501761,24.7315671 19.1196764,24.7271685 19.0938932,24.7199422 C19.1495472,24.839333 19.6516912,24.9106533 19.7365872,24.9056263 C19.8224265,24.9002851 20.2962718,25.0335001 20.4041211,25.0532939 C20.6217064,25.0931955 20.5798872,25.018105 20.9295329,25.2194984 C21.5087121,25.5537925 22.37528,26.4749866 22.5472729,27.2745906 C22.6422307,27.7166506 23.4006347,28.4386506 23.4911905,28.8452076 C22.4771552,28.7701171 21.1288812,28.0990153 21.1288812,28.0990153 L20.9600326,28.0179552 C20.9600326,28.0179552 20.3572711,27.7141371 19.4337915,27.6720362 C17.6887075,27.5152573 17.0274622,27.2833878 16.8532682,27.224635 C16.4935608,27.1043016 16.5435551,27.0427211 16.2505068,27.0285828 C16.1948527,27.0254409 16.1420286,27.0229274 16.0920343,27.0207281 C16.0590192,27.0876498 16.010597,27.1539431 15.9414225,27.2205506 C15.6172457,27.5303382 15.3943151,27.7615793 15.122648,28.1810179 C15.0493859,28.2934966 14.9258151,28.3645027 14.7767755,28.4040901 C15.1100708,28.3280571 15.76094,28.1533695 15.76094,28.1533695 C16.3756497,28.0716811 17.3132786,28.3456515 17.3132786,28.3456515 C17.6585223,28.4160292 18.2295264,28.6375305 18.2295264,28.6375305 C18.2295264,28.6375305 20.7144631,29.3966045 21.3235131,29.8392929 C21.723782,30.1311719 23.7898985,30.9028133 24.3376348,31.0922676 C24.8853711,31.2810936 26.2194957,32.0081205 26.2194957,32.0081205 C26.561595,32.2999996 28.5572794,33.1721806 29.1050157,33.355037 C29.8093378,32.1350518 30.0549073,30.8896175 29.8583889,29.6250179 L29.85776,29.6247037 L28.5799183,29.3585879 Z" id="Shape" fill="#4F2644" opacity="0.45"></path>
                <path d="M27.6652427,27.2934418 C27.4888478,27.2915566 27.2876129,27.3383704 27.2876129,27.3383704 L26.7939585,27.6308778 C26.7320158,27.7336167 26.9552608,27.8662033 26.9552608,27.8662033 C26.9552608,27.8662033 27.5803468,27.9070475 27.5787746,28.0694818 C28.038785,28.3132903 29.0172898,28.3425096 29.5178617,28.3673303 L29.5178617,28.3663878 C29.4521459,28.1986123 29.3779405,28.0298943 29.2958744,27.8630614 C29.2169526,27.7025123 29.1298556,27.5438482 29.0374133,27.3880118 L29.03647,27.3880118 C29.0078569,27.3789004 28.6305415,27.2730197 27.6652427,27.2934418 Z" id="Shape" fill="#4F2644" opacity="0.45"></path>
                <path d="M23.9757264,33.3757733 C23.9757264,33.3757733 23.8578153,33.2240213 23.2239253,33.2221362 C22.8217699,33.221822 23.3984337,34.1712928 23.3984337,34.1712928 C23.7606566,34.4135304 25.0667969,34.7855269 25.3387785,34.8213442 C25.6110745,34.8568472 26.5219769,35.1289325 26.5219769,35.1289325 C26.5219769,35.1289325 26.9967655,35.1917697 27.4835025,35.3391231 C27.5605377,35.2678028 27.6363152,35.1967967 27.7102062,35.1248481 C27.9913062,34.8486784 28.2447364,34.56811 28.4714401,34.2831431 C27.369679,34.2605217 25.8063352,34.2416705 24.6190493,33.6227236 C24.4983083,33.2689499 23.9757264,33.3757733 23.9757264,33.3757733 Z" id="Shape" fill="#4F2644" opacity="0.45"></path>
                <path d="M20.6298815,16.0813915 C20.6298815,16.0813915 20.2632567,15.7489824 20.257597,15.7295029 C20.2308704,15.6123114 20.3610443,15.4567892 20.3921728,15.2613654 C20.3541268,15.2475412 20.3160809,15.2299468 20.2805503,15.2139233 C20.1909379,14.8768014 20.1179902,14.2675943 20.2805503,13.9424115 C20.3594721,13.7834333 20.453801,13.5748136 20.4000335,13.3885012 C20.0975523,12.3545143 19.4995073,11.4524856 19.076914,10.4712819 C18.9624616,10.2045378 18.9816418,10.0131984 18.9649771,9.74017053 C18.6385992,9.38168402 18.2609693,8.44069622 18.0789146,7.85945167 C17.6987693,8.82054739 17.4459679,9.92491204 17.4459679,10.1800313 C17.4459679,11.2617745 18.543327,11.7858372 18.1634962,13.5836108 C18.0896052,13.9301583 17.9591169,14.4099207 17.8292575,14.9053924 C18.0565901,16.1577387 18.0565901,17.0679363 18.3924009,18.5188484 C18.8621586,18.9825873 19.2542523,19.5782844 19.4627191,20.3332739 C19.5913207,20.800783 19.9868731,21.8991782 20.4909037,22.0647543 C20.8031322,22.1662365 19.4306472,22.4178996 19.041069,21.930911 C18.6672123,21.4624593 18.0207451,21.0882635 17.7144908,20.5896499 C17.4708079,20.1922043 17.090977,19.3457866 16.8513816,18.9445707 L16.5580189,20.4843975 C16.9573444,22.1294767 16.7186924,22.4929902 16.3640158,23.8273391 C16.2102598,24.4041851 15.0452983,21.7068962 15.0437262,21.4967056 C15.0437262,20.9101199 15.006309,20.6933313 14.8692178,20.1783801 C14.624906,19.7017596 14.6516325,19.0275159 14.6843332,18.5150781 C14.7406161,17.6576639 14.7333842,16.0411756 14.7708013,15.6157675 C14.4764952,14.8940817 13.7237509,13.5905229 13.6486022,12.8568981 C13.5316344,11.7132601 13.7246942,10.5564264 13.5652784,9.41687288 C13.3687599,9.98774929 13.1602931,10.7119486 12.7163186,11.1486675 C12.0509857,11.8043741 11.4369048,12.5304586 10.8429474,13.2486883 C10.6263054,13.5443376 10.8181074,13.6891774 10.4822967,14.1613993 C10.1527745,14.6273375 10.3294839,14.4174611 10.2606238,14.8617205 C10.2480466,14.9390103 10.2100007,14.9993341 10.1842174,15.0254115 C10.007508,15.1737074 9.82010803,15.3003245 9.56699224,15.1941295 C9.077111,14.9484359 9.04220932,14.5855508 9.00856536,14.1180416 C8.9441073,13.2260669 9.60472379,13.1833376 9.97889495,12.6438798 C10.713088,11.5835012 11.0847437,9.80552127 11.871132,9.0052889 C11.9204974,8.84631066 12.1044387,8.27606263 12.4562854,7.42650303 C12.4666616,6.37083725 12.7276381,5.43267713 13.8133633,4.99878593 C14.2579667,4.82221326 14.841548,4.77634207 14.8629292,4.16210796 C14.865759,4.08796001 14.8506664,3.89976245 14.803502,3.83346915 C14.6245916,3.68768673 14.4991342,3.68454487 14.4123516,3.58243434 C14.2365855,3.35684862 14.0910046,1.90562236 14.1104992,1.81262323 C14.3661305,0.581641529 14.955057,0.171314295 15.7015128,0.208074085 C16.5844309,0.252060159 17.2840367,0.675897402 17.2459907,1.86037954 C17.2151766,2.81393479 16.2300688,4.03769021 17.704429,4.50174329 C18.2672579,4.67831596 18.3744784,4.55609751 18.8583855,5.04245781 C19.4017197,5.58725676 19.5331513,6.55495039 19.6240214,7.4522663 L20.177103,8.73571711 C21.1920816,10.4423768 20.8251423,10.9815204 21.1980557,12.7192845 C21.2949,13.168885 21.4609188,13.5663306 21.4964494,14.548791 C21.513743,15.0181852 21.1420873,16.0637971 20.6298815,16.0813915 Z" id="Shape" fill="#FAB650"></path>
                <path d="M10.0524715,14.7935421 C10.0983782,14.3382862 10.0326624,14.3769311 10.3225665,13.9556074 C10.592347,13.5641313 10.4624876,13.3649372 10.7008252,13.0284438 C11.286293,12.2982749 11.8390602,11.5605656 12.4959035,10.8929199 C12.935476,10.446147 13.5325777,8.94496514 13.6734422,8.41807481 C13.7001687,8.34047081 13.7423022,8.30245428 13.7605392,8.36906176 C13.8523526,9.37477193 13.9947892,10.2139634 13.9586298,11.2030217 C13.88411,13.2794786 13.9407073,13.0620617 14.8044453,15.000905 C14.8764496,14.2214089 15.0651074,13.0893959 15.5204014,12.706717 C14.9890154,14.727563 14.9566292,17.6080224 14.9006607,18.494656 C14.8720476,18.9458275 14.7491057,19.6577735 14.9657476,20.0734419 C15.0383808,20.3543244 15.0437262,20.7778474 15.0500147,21.0998883 C15.0512725,21.2953122 15.0635352,24.6448517 15.0635352,24.6448517 L14.7528788,26.1994453 C14.6412563,26.6487316 14.0614482,27.4030928 13.633824,27.6377899 C13.4973616,27.7125662 13.1775868,27.8831693 13.1775868,28.0355497 C13.1775868,28.2812433 14.7626261,28.7402694 15.1235913,28.1813321 C15.394944,27.7618935 15.6181889,27.5306524 15.9423658,27.2208647 C16.4410511,26.7429875 15.8879695,26.2519144 15.9536853,25.6053191 C16.0681376,24.4789614 16.552988,23.5008996 16.7124038,22.4367508 C16.8079904,21.7973818 16.7913256,21.2324749 16.4992205,20.5019919 L16.7095739,18.4692069 C16.9428806,18.8204672 17.1629813,19.376891 17.3855974,19.8406299 C17.7811498,20.6637978 17.787124,20.7442295 18.4713227,21.4194158 C18.7017995,21.6465724 18.9398227,21.9164584 19.1133878,22.1916855 C19.4347348,22.7022382 19.6567221,23.2087064 19.628109,23.8182277 C19.3907147,24.2477203 19.2882107,24.2207003 18.9841573,24.4805323 C18.994219,24.4949849 18.8998902,24.7318813 19.1891653,24.7318813 C20.219551,24.7318813 20.092207,24.1936803 20.4817852,23.496501 C20.7336433,23.0447012 21.4565168,22.3600894 20.6638399,22.1228788 C20.4148117,22.0477882 20.1808761,21.898864 20.036553,21.6581973 C19.4863013,20.7401451 19.4655489,20.7640233 19.1797325,19.9188623 C19.0071106,19.4076812 18.655264,18.9945263 18.2389592,18.6589754 C17.9845857,18.0818153 17.8839683,17.6727448 17.8022166,17.0600816 C17.6915374,16.2303158 17.6154454,15.635247 17.474581,14.7869442 C17.8773653,13.1937057 18.083631,12.8562697 17.3994323,11.3236692 C17.242532,10.9705239 17.1535484,10.5960139 17.1535484,10.1800313 C17.1535484,9.67042118 17.434334,8.52615488 17.70663,7.93328544 C17.8015877,7.69199041 17.9352203,7.46577631 18.1229347,7.3928851 C18.2889535,8.01120363 18.8605865,9.28240117 19.1923096,9.59313137 C19.2124331,9.84322362 19.2026858,10.0948868 19.3011023,10.3311549 C19.7192936,11.3337232 20.3204829,12.2445491 20.6201342,13.3017858 C20.7232671,13.6643567 20.5858614,13.8399868 20.4820997,14.1328084 C20.4506567,14.2741922 20.4418527,14.6810634 20.5044242,14.9836247 L20.6474896,15.0609146 C20.6229641,15.1529711 20.5588205,15.4090329 20.5085117,15.5271669 C20.5270631,15.6704359 20.7031436,15.7524385 20.7031436,15.7524385 C20.9329916,15.7009119 21.2609417,14.8698893 21.2496222,14.5384228 C21.2140917,13.5217162 20.9996507,13.0664603 20.9402235,12.7635847 C20.600954,11.0393306 20.7965292,10.565852 19.8309161,8.89783721 L19.2812932,7.5414952 C19.2133764,6.84682941 18.9366784,5.262074 18.0465284,4.97679289 C17.896231,4.92966495 17.7459337,4.92023937 17.5201733,4.84734816 C16.3548974,4.47001048 16.3583561,3.57583643 16.6759299,2.59871721 C16.9586021,1.73062062 16.9960192,0.705430909 15.716291,0.597036655 C14.9236141,0.530743357 14.6840187,1.15377468 14.5148556,1.87200443 C14.520201,1.95023681 14.5595046,3.11555358 14.7321265,3.36596002 C15.0707671,3.61856576 15.2606825,3.54410362 15.2393013,4.17436122 C15.22075,4.70345086 14.8846248,5.01575198 14.4271298,5.17630115 C13.6825606,5.43833248 13.3017864,5.59134118 13.0511861,6.35858399 C12.9716354,6.59956484 12.9043475,6.94579808 12.9024609,7.46200608 L12.9024609,7.49688075 C12.6899065,8.02377108 12.4216981,8.62795123 12.2591381,9.19442902 C11.3422615,10.1118529 10.8879108,12.2011914 9.95940032,13.0840547 C9.3431184,13.6706404 9.15666168,13.707086 9.38305095,14.611314 C9.40568988,14.7027422 9.70093923,14.9383819 9.76382514,14.9713715 C9.80910299,14.9889659 10.0540436,14.8447544 10.0524715,14.7935421 Z" id="Shape" fill="url(#linearGradient-4)"></path>
            </g>
        </g>
        <g id="iDeal_betalen-cmyk" transform="translate(261.000000, 16.000000)">
            <g id="Group-3">
                <mask id="mask-6" fill="white">
                    <use xlink:href="#path-5"></use>
                </mask>
                <g id="Clip-2"></g>
                <path d="M0,0.00113627639 L0,37 L22.0977073,37 C36.6751438,37 42.9963621,29.0302284 42.9963621,18.4634971 C42.9963621,7.93866603 36.6751438,0.00113627639 22.0977073,0.00113627639 L0,0.00113627639" id="Fill-1" fill="#FFFFFE" mask="url(#mask-6)"></path>
            </g>
            <path d="M4.29956345,4.20202111 L4.29956345,32.7991152 L22.1007631,32.7991152 C32.8481438,32.7991152 38.6968714,27.9119904 38.6968714,18.4634971 C38.6968714,8.7550096 32.3584822,4.20202111 22.1007631,4.20202111 L4.29956345,4.20202111 Z M2.38799154,2.33540307 L22.1007631,2.33540307 C35.4811844,2.33540307 40.6072792,9.46745489 40.6072792,18.4634971 C40.6072792,29.2510211 33.4466514,34.6643129 22.1007631,34.6643129 L2.38799154,34.6643129 L2.38799154,2.33540307 L2.38799154,2.33540307 Z" id="Fill-4" fill="#1A1919"></path>
            <polygon id="Fill-5" fill="#1A1919" points="6.68748223 30.4671209 12.385819 30.4671209 12.385819 20.5675969 6.68748223 20.5675969"></polygon>
            <path d="M13.0773113,15.5790595 C13.0773113,17.488572 11.4926413,19.0364645 9.53581387,19.0364645 C7.5806599,19.0364645 5.99482572,17.488572 5.99482572,15.5790595 C5.99482572,13.6706833 7.5806599,12.1227908 9.53581387,12.1227908 C11.4926413,12.1227908 13.0773113,13.6706833 13.0773113,15.5790595" id="Fill-6" fill="#1A1919"></path>
            <path d="M15.2536497,13.9678906 L15.2536497,17.1949155 L16.2678968,17.1949155 C16.9715398,17.1949155 17.6208325,16.9955701 17.6208325,15.5539194 C17.6208325,14.1481324 16.8994365,13.9678906 16.2678968,13.9678906 L15.2536497,13.9678906 Z M32.182335,12.3614798 L33.8244839,12.3614798 L33.8244839,17.1949155 L36.2558393,17.1949155 C35.5899577,8.42676775 28.5241337,6.53152975 22.1025821,6.53152975 L15.2554687,6.53152975 L15.2554687,12.3651017 L16.2678968,12.3651017 C18.1166785,12.3651017 19.2629086,13.587167 19.2629086,15.5539194 C19.2629086,17.5840192 18.1440355,18.7965681 16.2678968,18.7965681 L15.2554687,18.7965681 L15.2554687,30.4683282 L22.1025821,30.4683282 C32.5413232,30.4683282 36.174423,25.7350979 36.3022589,18.7952898 L32.182335,18.7952898 L32.182335,12.3614798 Z M27.6076734,15.9525393 L28.7966853,15.9525393 L28.2520914,14.1337159 L28.1530677,14.1337159 L27.6076734,15.9525393 Z M25.046736,18.7988407 L27.0360863,12.3614798 L29.371401,12.3614798 L31.3571134,18.7988407 L29.6483181,18.7988407 L29.2765973,17.5529846 L27.1289983,17.5529846 L26.7555313,18.7988407 L25.046736,18.7988407 Z M24.3369814,17.1949155 L24.3369814,18.7965681 L20.2759188,18.7965681 L20.2759188,12.3651017 L24.2061624,12.3651017 L24.2061624,13.9666833 L21.9179222,13.9666833 L21.9179222,14.7101631 L24.0833469,14.7101631 L24.0833469,16.3141593 L21.9179222,16.3141593 L21.9179222,17.1949155 L24.3369814,17.1949155 L24.3369814,17.1949155 Z" id="Fill-7" fill="#C91A68"></path>
        </g>
    </g>
</svg>