<?xml version="1.0" encoding="UTF-8"?>
<svg width="320px" height="200px" viewBox="0 0 320 200" version="1.1" xmlns="http://www.w3.org/2000/svg" xmlns:xlink="http://www.w3.org/1999/xlink">
    <!-- Generator: Sketch 49.3 (51167) - http://www.bohemiancoding.com/sketch -->
    <title>visa</title>
    <desc>Created with Sketch.</desc>
    <defs>
        <radialGradient cx="49.0549117%" cy="51.1358103%" fx="49.0549117%" fy="51.1358103%" r="133.344262%" gradientTransform="translate(0.490549,0.511358),scale(0.625000,1.000000),rotate(90.000000),translate(-0.490549,-0.511358)" id="radialGradient-1">
            <stop stop-color="#0062AE" offset="0%"></stop>
            <stop stop-color="#033B7C" offset="100%"></stop>
        </radialGradient>
    </defs>
    <g id="visa" stroke="none" stroke-width="1" fill="none" fill-rule="evenodd">
        <g id="Group" fill="url(#radialGradient-1)">
            <g id="Rectangle-2">
                <rect x="0" y="0" width="320" height="200" rx="25"></rect>
            </g>
        </g>
        <g id="Visa" transform="translate(217.000000, 35.000000)">
            <polyline id="Fill-2" fill="#FFFFFF" points="27.1425 23.6302222 31.0349375 0.428888889 37.260125 0.428888889 33.3650625 23.6302222 27.1425 23.6302222"></polyline>
            <path d="M55.943125,1 C54.7098125,0.529777778 52.777375,0.0257777778 50.3636875,0.0257777778 C44.212875,0.0257777778 39.8794375,3.17244444 39.8426875,7.68222222 C39.808125,11.016 42.93625,12.876 45.2974375,13.9857778 C47.7203125,15.1226667 48.535375,15.848 48.5235625,16.8635556 C48.50825,18.4186667 46.5885,19.1293333 44.799125,19.1293333 C42.3075625,19.1293333 40.984125,18.7777778 38.9396875,17.9115556 L38.1373125,17.5426667 L37.263625,22.7364444 C38.717875,23.384 41.40675,23.9453333 44.198,23.9742222 C50.742125,23.9742222 54.9898125,20.8635556 55.038375,16.0475556 C55.062,13.4084444 53.403,11.3995556 49.812,9.744 C47.635875,8.67066667 46.30325,7.95422222 46.31725,6.86755556 C46.31725,5.90311111 47.445125,4.872 49.8824375,4.872 C51.918125,4.84 53.3925,5.29066667 54.541375,5.76088889 L55.0991875,6.02844444 L55.943125,1" id="Fill-3" fill="#FFFFFF"></path>
            <path d="M71.9061875,0.451111111 L67.095875,0.451111111 C65.60575,0.451111111 64.4905625,0.864 63.8360625,2.37511111 L54.5908125,23.6377778 L61.1279375,23.6377778 C61.1279375,23.6377778 62.19675,20.7786667 62.4386875,20.1511111 C63.153125,20.1511111 69.503,20.1608889 70.4108125,20.1608889 C70.5971875,20.9728889 71.1685625,23.6377778 71.1685625,23.6377778 L76.944875,23.6377778 L71.9061875,0.451111111 M64.23025,15.4053333 C64.74475,14.0684444 66.7104375,8.91955556 66.7104375,8.91955556 C66.67325,8.98133333 67.2214375,7.57644444 67.5355625,6.70533333 L67.9564375,8.70577778 C67.9564375,8.70577778 69.148625,14.244 69.3975625,15.4053333 L64.23025,15.4053333" id="Fill-4" fill="#FFFFFF"></path>
            <path d="M21.921375,0.445777778 L15.8265625,16.2675556 L15.1773125,13.052 C14.042875,9.34533333 10.507875,5.32977778 6.5555,3.31955556 L12.128375,23.6102222 L18.7149375,23.6026667 L28.515375,0.445777778 L21.921375,0.445777778" id="Fill-5" fill="#FFFFFF"></path>
            <path d="M10.17275,0.431555556 L0.13475,0.431555556 L0.055125,0.914222222 C7.8649375,2.83466667 13.03225,7.47555556 15.1773125,13.052 L12.994625,2.39022222 C12.6175,0.920888889 11.524625,0.482666667 10.17275,0.431555556" id="Fill-6" fill="#ED9F2D"></path>
        </g>
        <polygon id="Star-2" fill-opacity="0.1" fill="#E8E8E8" points="190 164.638832 105.947378 230.687372 142.789583 130.338457 54 70.8097838 160.822358 74.8392834 190 -28 219.177642 74.8392834 326 70.8097838 237.210417 130.338457 274.052622 230.687372"></polygon>
    </g>
</svg>