<svg width="54" height="54" viewBox="0 0 54 54" fill="none" xmlns="http://www.w3.org/2000/svg">
<path d="M54 9H0V44H54V9Z" fill="#282828"/>
<path d="M54 9H0V26.5H54V9Z" fill="#255A57"/>
<path d="M31.0914 17.2842C31.0731 17.2035 31.05 17.135 31.0334 17.0737L31.0152 17.0175C30.7105 16.1229 30.0067 15.5967 29.1406 15.602C28.9882 15.602 28.8591 15.6142 28.725 15.6458C28.0327 15.8072 27.213 16.3352 27.213 17.9297V20.4504C27.213 20.6311 27.2544 20.7363 27.2958 20.8223C27.3488 20.9275 27.4482 21.0082 27.5591 21.0398C27.5889 21.0468 27.6237 21.0521 27.6585 21.0521C27.7462 21.0521 27.829 21.0275 27.8986 20.9713C28.0807 20.8416 28.0807 20.617 28.0807 20.4311V17.9297C28.0807 17.086 28.3324 16.6755 28.9187 16.5509C29.3112 16.458 29.6986 16.5948 29.9388 16.8983C30.0564 17.0473 30.1259 17.1895 30.1557 17.314C30.2435 17.7613 30.2899 17.8981 30.3495 17.9841L30.3677 18.0086C30.4969 18.163 30.7254 18.2068 30.9125 18.1086C31.1791 17.9542 31.1493 17.5877 31.0914 17.2842Z" fill="white"/>
<path d="M10.0715 14.0564C9.74856 13.988 9.42072 13.988 9.1044 14.0564C7.95018 14.3038 7.2 15.2721 7.2 16.5263V20.4556C7.2 20.617 7.21824 20.7292 7.26456 20.8221L7.27122 20.8292C7.3242 20.9345 7.42356 21.0151 7.5345 21.0467C7.6521 21.0783 7.77462 21.0537 7.87398 20.9783C8.06772 20.8415 8.09094 20.6064 8.09094 20.438V18.8558H11.0916V20.4503C11.0916 20.6433 11.1446 20.7538 11.1744 20.8221C11.2274 20.9274 11.3267 21.0081 11.4377 21.0397C11.4675 21.0467 11.5023 21.052 11.537 21.052C11.6248 21.052 11.7076 21.0274 11.7772 20.9713C11.9527 20.8467 11.9759 20.6415 11.9759 20.431V16.521C11.9693 15.2668 11.2258 14.3038 10.0715 14.0564ZM11.085 17.9735H8.09592V16.5333C8.09592 15.9123 8.30124 15.4773 8.75166 15.1686C9.06798 14.9335 9.4836 14.8458 9.8943 14.9265C10.093 14.9633 10.2686 15.044 10.4209 15.1615L10.4275 15.1686C10.873 15.4843 11.0833 15.9193 11.0833 16.5333V17.9735H11.085Z" fill="white"/>
<path d="M26.5735 17.6874C26.1992 16.2034 24.7685 15.3474 23.3162 15.7316C22.5726 15.9298 21.9682 16.4087 21.6171 17.0788C21.266 17.7488 21.2015 18.5504 21.4349 19.3328C21.786 20.4818 22.7879 21.201 23.9305 21.201C24.1359 21.201 24.3528 21.1764 24.5632 21.1273C24.8861 21.0536 25.2023 20.9098 25.4839 20.7168C25.6942 20.5678 25.8714 20.4064 25.9641 20.2818C26.1098 20.0959 26.1992 19.9468 26.1811 19.7731C26.1695 19.6556 26.1115 19.5503 26.0221 19.4749C25.9277 19.4013 25.8052 19.3696 25.6942 19.3942L25.676 19.4013C25.565 19.4381 25.4773 19.4889 25.406 19.5626L25.3298 19.6626L25.2189 19.7678L25.2123 19.7749C24.9655 20.0363 24.6674 20.2151 24.3445 20.2836C23.4718 20.4941 22.6107 20.0046 22.2944 19.1223C22.2712 19.0486 22.253 18.9803 22.2365 18.9171H26.0684L26.1512 18.9048L26.2804 18.8978C26.4212 18.8855 26.5271 18.8294 26.5967 18.7241C26.7259 18.5312 26.7193 18.2453 26.5735 17.6874ZM22.2248 18.0716C22.2365 17.9909 22.2596 17.9225 22.2828 17.8418C22.5809 16.8367 23.5364 16.2964 24.4985 16.5946C25.1014 16.7806 25.5716 17.3015 25.724 17.9541C25.7356 18.0032 25.7472 18.0541 25.7538 18.1032L22.2248 18.0716Z" fill="white"/>
<path d="M20.8471 18.9101C20.8007 18.8049 20.7063 18.7242 20.6003 18.6874C20.4894 18.6505 20.3718 18.6681 20.2658 18.7242C20.0605 18.8294 20.0191 19.0662 20.0075 19.1469L19.9727 19.3452L19.9661 19.4066C19.8319 20.0205 19.3633 20.3556 18.7655 20.2626C18.378 20.2012 17.863 19.9837 17.863 18.854V18.7803H19.0354C19.1762 18.7803 19.6034 18.7803 19.6034 18.333C19.6034 18.1102 19.4444 17.9226 19.2573 17.9102C19.1695 17.898 19.0934 17.898 19.0056 17.898H17.863V16.1789C17.863 16.0176 17.8447 15.9053 17.7984 15.8123V15.8053C17.7454 15.7001 17.646 15.6194 17.5351 15.5878C17.4175 15.5562 17.2949 15.5807 17.1956 15.6562C17.0201 15.7807 16.9969 15.986 16.9969 16.1965V18.7592C16.9969 20.2187 17.4953 20.9502 18.6148 21.1432C18.7439 21.1677 18.8731 21.18 19.0023 21.18C19.8816 21.18 20.6202 20.6029 20.8537 19.6837C20.8719 19.6101 20.8835 19.5416 20.8951 19.4732V19.4697C20.9299 19.2013 20.9183 19.0522 20.8471 18.9101Z" fill="white"/>
<path d="M42.2013 18.1348C42.1897 17.912 42.1599 17.712 42.1069 17.5331C41.9248 16.863 41.4975 16.3035 40.9063 15.9562C40.2737 15.5895 39.5285 15.5089 38.8148 15.7334C37.8824 16.0245 37.1803 16.8192 36.9866 17.819C36.7001 19.3206 37.4967 20.7239 38.838 21.0905C39.0847 21.1589 39.3364 21.1905 39.5815 21.1905C39.9558 21.1905 40.3201 21.1098 40.648 20.9555C40.9179 20.8257 41.158 20.652 41.3452 20.4397V20.452C41.3452 20.6204 41.3452 20.7187 41.3915 20.8186L41.3982 20.8257C41.4511 20.9309 41.5505 21.0116 41.6615 21.0432C41.779 21.0747 41.9016 21.0502 42.001 20.9747C42.1831 20.8449 42.2113 20.6274 42.2113 20.4345V18.24L42.2013 18.1348ZM39.9972 20.2503C39.0301 20.4854 38.1342 19.9275 37.8758 18.9224V18.9154C37.8344 18.7855 37.8179 18.654 37.8063 18.5242C37.7533 17.6366 38.2567 16.8367 39.0367 16.5806C39.2238 16.5192 39.4176 16.4877 39.6047 16.4877C39.9674 16.4877 40.3135 16.5999 40.6132 16.8227C41.0636 17.1577 41.3336 17.7033 41.3518 18.319C41.3866 19.2697 40.8467 20.0468 39.9972 20.2503Z" fill="white"/>
<path d="M36.1883 14.8564C35.7545 14.3038 35.1036 13.9881 34.4015 14.0003C33.0833 14.0196 32.1924 15.03 32.1924 16.5211V20.4503C32.1924 20.631 32.2338 20.7363 32.2752 20.8222C32.3282 20.9274 32.4275 21.0081 32.5385 21.0398C32.5683 21.0468 32.6031 21.052 32.6378 21.052C32.7256 21.052 32.8084 21.0274 32.8779 20.9713C33.0601 20.8415 33.0833 20.624 33.0833 20.4311V18.6488H34.3667C35.5789 18.6488 36.4052 17.9788 36.6338 16.8123C36.7695 16.1106 36.6106 15.4037 36.1883 14.8564ZM34.3601 17.7613H34.3419L33.0932 17.7419V16.4386C33.0932 15.8545 33.176 15.5826 33.4394 15.2967C33.6977 15.0107 34.0371 14.8739 34.4412 14.8809C35.2328 14.9002 35.7826 15.5019 35.7776 16.3456C35.7611 17.1841 35.1815 17.7613 34.3601 17.7613Z" fill="white"/>
<path d="M46.8478 15.9737C46.7948 15.8685 46.6955 15.7878 46.5845 15.7562C46.4669 15.7247 46.3444 15.7492 46.2451 15.8247C46.0695 15.9492 46.0513 16.1597 46.0513 16.3649V18.8664C46.0513 19.3575 45.9106 19.7539 45.6589 19.989C45.4369 20.1942 45.1372 20.2749 44.7911 20.224C44.1933 20.1364 43.8654 19.6838 43.8654 18.9453V16.3527C43.8654 16.1983 43.8538 16.086 43.8074 15.9808C43.7545 15.8755 43.6551 15.7949 43.5441 15.7633C43.4266 15.7317 43.304 15.7562 43.2046 15.8317C43.0225 15.9615 42.9943 16.179 42.9943 16.372V18.9664C42.9943 20.003 43.4398 20.7345 44.2546 21.0327C44.8822 21.2625 45.5678 21.1502 46.0414 20.7784V20.7977C45.9652 21.3432 45.7019 21.673 45.2332 21.8028C44.9815 21.8765 44.7232 21.8589 44.5245 21.7537C44.3605 21.666 44.243 21.5677 44.1734 21.4625L44.0443 21.2888L43.9615 21.1889C43.9084 21.1152 43.867 21.0765 43.8439 21.059L43.8207 21.0345L43.7975 21.0222C43.6799 20.9485 43.5342 20.9415 43.41 21.0029C43.2808 21.0643 43.1881 21.1889 43.1632 21.3327C43.1335 21.5309 43.2096 21.6993 43.3454 21.9168L43.352 21.9238C43.4514 22.0729 43.5872 22.222 43.7329 22.3465C44.0492 22.6132 44.4649 22.75 44.9054 22.75C45.0925 22.75 45.2796 22.7255 45.4684 22.6764C46.4123 22.422 46.934 21.6204 46.934 20.4223V16.3527C46.9406 16.1597 46.8876 16.0545 46.8578 15.986L46.8478 15.9737Z" fill="white"/>
<path d="M16.4174 17.0737L16.3993 17.0175C16.0945 16.1229 15.3907 15.5967 14.5247 15.602C14.3657 15.602 14.2432 15.6142 14.109 15.6458C13.4168 15.8072 12.5971 16.3352 12.5971 17.9297V20.4504C12.5971 20.6433 12.65 20.7538 12.6799 20.817V20.824C12.7328 20.9293 12.8322 21.01 12.9432 21.0415C12.973 21.0485 13.0078 21.0538 13.0426 21.0538C13.1303 21.0538 13.2131 21.0293 13.2827 20.9732C13.4582 20.8486 13.4814 20.6381 13.4814 20.4328V19.8365L13.4632 18.7875H14.7118C15.1225 18.7875 15.2218 18.5647 15.2334 18.3717C15.2401 18.2103 15.1804 18.1103 15.134 18.056C15.0463 17.956 14.9056 17.9069 14.7118 17.9069H13.4582C13.4648 17.0877 13.7165 16.6842 14.2961 16.5545C14.6886 16.4615 15.0761 16.5983 15.3162 16.9018C15.4338 17.0561 15.5033 17.193 15.5332 17.3175C15.6209 17.7648 15.6673 17.9016 15.7269 17.9876L15.7451 18.0122C15.8743 18.1665 16.1028 18.2103 16.2899 18.1121C16.5649 17.9578 16.5367 17.5912 16.4771 17.2859C16.4588 17.2035 16.4407 17.135 16.4174 17.0737Z" fill="white"/>
<path d="M48.4127 14.4161C48.2902 14.2863 48.1379 14.2179 47.9557 14.2179C47.7802 14.2179 47.6278 14.2793 47.4986 14.4161C47.3761 14.5529 47.3115 14.7143 47.3115 14.9003C47.3115 15.0862 47.3761 15.2476 47.4986 15.3844C47.6212 15.5212 47.7736 15.5897 47.9557 15.5897C48.1312 15.5897 48.2836 15.5212 48.4127 15.3844C48.5353 15.2476 48.5999 15.0862 48.5999 14.9003C48.5999 14.7073 48.5419 14.5459 48.4127 14.4161ZM48.3416 15.316C48.2356 15.4335 48.1015 15.4897 47.9491 15.4897C47.7967 15.4897 47.6675 15.4335 47.5566 15.316C47.4457 15.1985 47.3927 15.0546 47.3927 14.8932C47.3927 14.7319 47.4506 14.595 47.5566 14.4775C47.6675 14.3652 47.7967 14.3039 47.9491 14.3039C48.1015 14.3039 48.2306 14.36 48.3416 14.4775C48.4525 14.5898 48.5055 14.7319 48.5055 14.8932C48.5055 15.0616 48.4475 15.1985 48.3416 15.316Z" fill="white"/>
<path d="M48.2423 14.7335C48.2423 14.6335 48.2009 14.5721 48.1314 14.5405C48.09 14.5213 48.0254 14.516 47.9377 14.516H47.6909V15.2667H47.8201V14.9686H47.9194C47.989 14.9686 48.0304 14.9756 48.0602 14.9931C48.1016 15.0247 48.1248 15.0808 48.1248 15.1668V15.2597V15.2667H48.2423L48.2357 15.2597C48.2291 15.2527 48.2291 15.2405 48.2291 15.2229V15.1106C48.2291 15.0738 48.2109 15.03 48.1877 14.9931C48.1579 14.9563 48.1181 14.9317 48.0652 14.9194C48.1115 14.9124 48.148 14.9001 48.1712 14.8826C48.2192 14.851 48.2423 14.8019 48.2423 14.7335ZM48.0436 14.8633C48.0205 14.8756 47.9791 14.8826 47.9261 14.8826H47.8151V14.609H47.9211C47.9906 14.609 48.0436 14.6212 48.0734 14.6405C48.1082 14.6598 48.1198 14.6967 48.1198 14.7458C48.1198 14.8019 48.09 14.844 48.0436 14.8633Z" fill="white"/>
<path d="M46.8 32.9083L44.9334 35.4908V37.5917H43.9065V35.4908L42.0399 32.9083H43.3129L44.4487 34.4991L45.5758 32.9083H46.8ZM36.4057 32.9083V33.8332H38.0512V37.5938H39.0694V33.8312H40.7131V32.9062L36.4057 32.9083ZM31.313 33.8332H32.8277C33.2779 33.8332 33.4871 34.0123 33.4871 34.3908C33.4871 34.7694 33.2779 34.9484 32.8277 34.9484H31.313V33.8332ZM34.7407 37.5938L33.5716 35.7887C34.1978 35.6097 34.5247 35.1347 34.5247 34.3908C34.5247 33.4262 33.9698 32.9102 32.9386 32.9102H30.2949V37.5938H31.313V35.8694H32.4358L33.539 37.5917L34.7407 37.5938ZM23.4697 32.9102V37.5938H27.484V36.6688H24.4897V35.6976H27.0626V34.7727H24.4897V33.8312H27.4859V32.9062L23.4697 32.9102ZM20.2762 32.9102L18.9663 36.3728L17.6476 32.9089H16.543L18.4165 37.5924H19.4609L21.3344 32.9089L20.2762 32.9102ZM13.3759 37.5917H14.394V32.9083H13.3759V37.5917ZM7.2 37.5917H8.21814V33.9818H7.2V37.5917ZM8.21814 33.9825H11.6389V32.9076H8.21814V33.9825Z" fill="#E7E4E2"/>
</svg>
