<svg id="Capa_1" data-name="Capa 1" xmlns="http://www.w3.org/2000/svg" viewBox="0 0 70 40"><defs><style>.cls-1{fill:#00a1e9;}.cls-2{fill:#fff;}.cls-3{fill:#3f3a39;}</style></defs><path class="cls-1" d="M20.68506,12.9011V27.13282A3.243,3.243,0,0,1,17.442,30.34194H3.243A3.243,3.243,0,0,1,0,27.0989V12.9011a3.243,3.243,0,0,1,3.243-3.243H17.442A3.24306,3.24306,0,0,1,20.68506,12.9011Z"/><path class="cls-2" d="M13.82356,21.28529a31.63206,31.63206,0,0,0,1.76713-4.195H11.48806V15.64359H16.545v-.87947H11.48806V12.438H9.135v2.32614h-5.057v.87947H9.135v1.44551H4.88269v.77305h8.21578a18.25121,18.25121,0,0,1-1.2198,2.78577,21.348,21.348,0,0,0-5.86974-1.15548c-3.91551,0-4.78328,1.96711-4.5985,3.7658.1497,1.435,1.21746,3.52957,4.4792,3.52957A8.60149,8.60149,0,0,0,12.757,23.04538c2.82319,1.30049,5.80544,2.90155,7.92691,4.08391V23.71786C18.44312,22.9495,16.08188,22.05249,13.82356,21.28529ZM5.41716,25.575c-2.75769,0-3.18457-1.55427-3.23135-2.48169-.04561-.81164.50289-2.339,3.61494-2.339a15.5087,15.5087,0,0,1,5.05694,1.45252c-1.16482,1.53439-3.03253,3.367-5.44054,3.367V25.575Z"/><path class="cls-3" d="M37.62833,17.40063H32.78079v-1.726h5.6211v-1.075h-5.6211V12.41247H30.2749a.50389.50389,0,0,0-.49677.51072v1.67643H24.19644v1.075h5.58169v1.72613h-4.711v1.074h9.38353a9.21532,9.21532,0,0,1-3.09395,4.18525,11.64887,11.64887,0,0,1-3.0767-3.116H25.76253a13.95926,13.95926,0,0,0,4.02409,4.27215,21.94406,21.94406,0,0,1-5.68831,2.52806V27.631a25.49609,25.49609,0,0,0,7.28238-2.78953A26.15821,26.15821,0,0,0,38.566,27.631V26.4128A30.01776,30.01776,0,0,1,33.00267,23.779a11.69164,11.69164,0,0,0,4.62565-6.37823"/><path class="cls-3" d="M53.37486,12.62788h-2.5233V15.2475H44.63192v1.05491h6.21964v9.41818a.4355.4355,0,0,1-.4074.39526H49.16144v1.09121h3.27078a.99086.99086,0,0,0,.94265-.97666V16.30231h1.02426v-1.0549H53.375Z"/><path class="cls-3" d="M48.05345,18.07952a.56316.56316,0,0,0-.4996-.31792H45.45151l1.63831,5.1247h2.48674Z"/><polygon class="cls-3" points="41.843 12.504 38.949 19.306 41.17 19.306 41.17 27.4 43.598 27.4 43.598 16.663 42.718 16.663 44.546 12.504 41.843 12.504"/><path class="cls-3" d="M69.99955,27.0283l-.88682-2.97666a.46115.46115,0,0,0-.43821-.32741H66.32339l.68218,2.28637H64.241V21.581H69.669v-1.054H64.241v-2.0851H69.669V17.388H56.124v1.054h5.42692v2.085H56.124v1.054h5.42692v4.42956H56.124V27.0646H70l-.01159-.0363Z"/><path class="cls-3" d="M58.94615,14.87322h7.905v1.55513h2.824v-1.8426l-.00091-.01049a.74985.74985,0,0,0-.73124-.75605H64.37318V12.36905H61.4184v1.45007H56.12307v2.60923h2.823Z"/></svg>