<svg id="Laag_1" data-name="Laag 1" xmlns="http://www.w3.org/2000/svg" viewBox="0 0 70 40"><defs><style>.cls-1{fill:#0075ff;}.cls-2{fill:#3f3a39;}.cls-3{fill:#3564f8;}</style></defs><path class="cls-1" d="M0,13.68394a3.80494,3.80494,0,0,1,.25317-.87587,2.77752,2.77752,0,0,1,1.543-1.45,2.85546,2.85546,0,0,1,1.06875-.19357c3.92344.00113,7.84689-.00459,11.77031.00386a2.76381,2.76381,0,0,1,2.62626,1.66253,2.28618,2.28618,0,0,1,.24,1.01648q.00447,4.57278.003,9.14557c0,.15776-.019.17146-.18034.13576a27.17914,27.17914,0,0,1-3.11364-.934c-.75228-.26379-1.49877-.54408-2.24783-.81705-.03-.01091-.06-.02164-.08967-.03331-.15828-.06229-.1616-.06421-.08195-.21093a15.33852,15.33852,0,0,0,.88664-1.937c.18556-.49525.32636-1.00489.46557-1.51479.03364-.12321-.0444-.11192-.12-.11191q-1.51743.00032-3.03485.00009c-.04557,0-.09121-.00217-.13668-.00023-.08621.00368-.12311-.03477-.1226-.12212q.003-.51945-.00026-1.03894c-.0006-.087.03526-.12655.12122-.12439.04553.00115.09112-.00056.13669-.00056q1.87969-.00008,3.75939-.00016c.19676,0,.19759-.0014.19819-.198.00031-.10025-.00639-.201.00158-.30062.01034-.1292-.0473-.16492-.16837-.16321-.369.00524-.73818.00185-1.10728.00184q-1.3739,0-2.74778-.00018c-.18948-.00008-.19283-.00367-.19295-.18906-.00035-.57872-.00419-1.15748.00278-1.73612.00167-.13919-.04157-.18-.17907-.17788-.48291.00732-.966.00229-1.449.00306-.28327.00046-.386.10113-.38748.38886-.00263.49213-.00081.98428-.00093,1.47641,0,.23462-.00012.23486-.22943.23487q-1.91386.00012-3.82774.00011c-.212,0-.21214.0004-.21246.21119-.00016.10481.0036.20976-.00072.31438-.0042.10166.04238.14114.13963.13469.04082-.00271.082-.00019.123-.00019q1.9002,0,3.8004.00012c.20495,0,.20524.00061.20543.20426q.0004.43062,0,.86124c-.00012.22031-.00028.22061-.21517.22064q-1.5516.00018-3.1032.0001c-.20862,0-.20871.0003-.20889.21136-.0001.11392.0026.2279-.00048.34174-.0023.0849.029.12943.11884.12425.04541-.00261.09111,0,.13668,0q3.16472,0,6.32945,0c.04556,0,.09117.00161.13669.00023.08555-.00258.11443.0306.089.11717a12.61827,12.61827,0,0,1-.90665,2.23878c-.0433.08373-.09754.07509-.16907.05223-.56416-.18025-1.13006-.35461-1.70186-.50962a15.22429,15.22429,0,0,0-2.44923-.48881,5.03274,5.03274,0,0,0-2.38165.24706,3.07535,3.07535,0,0,0-2.03153,2.38282A2.89415,2.89415,0,0,0,2.69845,25.295a4.16594,4.16594,0,0,0,2.03035.61263A6.40765,6.40765,0,0,0,9.11553,24.378a9.48451,9.48451,0,0,0,1.43679-1.41742.17586.17586,0,0,1,.254-.04653q.87276.408,1.74943.80761,1.72977.78539,3.479,1.52654c.45257.193.90446.38765,1.3578.57884a.15829.15829,0,0,1,.11321.1636,2.73506,2.73506,0,0,1-.86515,2.0547,2.80609,2.80609,0,0,1-2.03348.791q-5.86465-.0028-11.72931-.00137A2.7942,2.7942,0,0,1,.48609,27.609a2.67834,2.67834,0,0,1-.45982-1.173C.02016,26.39585.00888,26.35648,0,26.31675Z"/><path class="cls-2" d="M70,16.06284c-.15786.33386-.27338.68454-.405,1.02867Q67.70875,22.0244,65.827,26.959c-.16727.43823-.33638.8758-.49818,1.31605a.20611.20611,0,0,1-.22846.1586c-.71074-.00656-1.42157-.00281-2.13236-.0034-.18017-.00015-.19692-.029-.11026-.18836q.71168-1.30843,1.42635-2.61522a.33581.33581,0,0,0,.02253-.31836q-1.79119-4.50792-3.57539-9.01863c-.1132-.28573-.114-.28543.19713-.28543.88394,0,1.76789.00263,2.65179-.00282a.2042.2042,0,0,1,.231.16859q.89094,2.70537,1.79156,5.40754a.23246.23246,0,0,0,.01255.03894c.0224.04087.01384.11579.07994.11016.05181-.00441.0496-.06929.06166-.11122q.77048-2.67882,1.54091-5.35764c.0816-.28279.02676-.25306.33755-.25309Q68.8177,16.00461,70,16.00816Z"/><path class="cls-2" d="M26.24993,23.03558c-.67441,0-1.34884.00269-2.02321-.00241a.18435.18435,0,0,0-.20936.1598c-.192.68413-.39028,1.36649-.5861,2.04955-.05888.20537-.05836.20569-.26546.20571q-1.1073.00012-2.21459-.00015c-.17131-.00009-.17569-.007-.12147-.16818q1.42449-4.23512,2.84924-8.47012c.40535-1.2042.81464-2.40708,1.21684-3.61233a.18875.18875,0,0,1,.21341-.15316q1.70877.00611,3.41757-.0002a.18239.18239,0,0,1,.20886.15571q1.002,3.33672,2.01182,6.67109.81626,2.70114,1.63407,5.40182c.05269.17417.05233.17536-.128.17541-.98882.00027-1.97765-.00156-2.96646.0023a.17909.17909,0,0,1-.20914-.15552c-.18469-.69083-.38194-1.3783-.56623-2.06923a.21692.21692,0,0,0-.25225-.1939C27.58969,23.04058,26.91978,23.03556,26.24993,23.03558Zm.03295-2.05739c.4874,0,.97485-.00331,1.46218.00232.12256.00141.15761-.01831.12088-.1511q-.74646-2.69884-1.48354-5.4003c-.01044-.03809-.009-.09806-.05333-.10068-.06147-.00363-.05175.06569-.06305.10414-.17081.581-.33868,1.16288-.50746,1.74449q-.52536,1.81041-1.05079,3.62079c-.05148.17751-.04911.18016.14023.18026Q25.56544,20.97849,26.28288,20.97819Z"/><path class="cls-2" d="M42.40184,22.21306q0-2.99341,0-5.98683c0-.22166.0002-.22188.22712-.22191q1.196-.00014,2.392.00018c.17031.00009.17719.00723.178.17636.001.19592-.00069.39184.00125.58774.00038.03833-.0181.09064.029.11005.038.01565.0633-.02734.09093-.0488a5.26015,5.26015,0,0,1,1.0573-.67464,3.38166,3.38166,0,0,1,2.93385-.01413,3.4816,3.4816,0,0,1,1.6199,1.64542,5.64424,5.64424,0,0,1,.56915,2.19261,5.79044,5.79044,0,0,1-.4224,2.795,4.43492,4.43492,0,0,1-3.48626,2.73169,5.60174,5.60174,0,0,1-2.2213-.10131c-.16648-.03787-.16715-.03809-.1672.13278q-.00041,1.34636-.00026,2.6927c-.00006.19986-.00071.20042-.19372.20048-.811.00022-1.622-.003-2.433.003-.13917.001-.17733-.04212-.17707-.17886Q42.405,25.23382,42.40184,22.21306Zm2.80128-1.09559c0,.79286.00272,1.58574-.00276,2.37856a.184.184,0,0,0,.16285.21682,3.16332,3.16332,0,0,0,1.04453.0768,2.2143,2.2143,0,0,0,1.00085-.33632,2.58944,2.58944,0,0,0,1.08846-1.521,4.68245,4.68245,0,0,0,.17177-1.67474A3.57049,3.57049,0,0,0,48.48,19.255a1.7299,1.7299,0,0,0-2.053-1.216,3.016,3.016,0,0,0-1.098.46973.2356.2356,0,0,0-.128.23019C45.20486,19.53174,45.20312,20.3246,45.20312,21.11747Z"/><path class="cls-2" d="M60.10805,20.95733c0,.4739.01436.94834-.00358,1.42156a9.84605,9.84605,0,0,0,.1521,1.752c.05591.39649.11212.79294.17173,1.18888.01466.09741-.01934.13119-.11542.131q-1.27817-.00263-2.55632.00036a.12792.12792,0,0,1-.1467-.12255c-.04314-.23741-.096-.47315-.13453-.71125-.02042-.12633-.06189-.11553-.14694-.05205a5.62111,5.62111,0,0,1-1.53895.87423A2.88587,2.88587,0,0,1,52.60721,24.79a2.53165,2.53165,0,0,1-.713-1.618,3.45553,3.45553,0,0,1,.09793-1.23179,2.17453,2.17453,0,0,1,1.172-1.40226,8.60779,8.60779,0,0,1,1.9804-.65276c.65967-.159,1.32674-.28435,1.99359-.40891.13684-.02556.17995-.08105.16652-.21667A2.08689,2.08689,0,0,0,57.00156,18.21,1.05731,1.05731,0,0,0,56.234,17.765a3.30963,3.30963,0,0,0-1.596.2847c-.53344.20061-1.04911.44253-1.57007.67213-.18574.08186-.18454.08463-.22832-.10672-.1401-.6124-.27759-1.22543-.42254-1.83668-.02863-.12073-.00882-.17291.11988-.21162A17.7584,17.7584,0,0,1,55.25629,15.91a6.56641,6.56641,0,0,1,2.697.09229,2.753,2.753,0,0,1,2.04744,2.14807,4.35807,4.35807,0,0,1,.10756,1.0299Q60.10673,20.06877,60.10805,20.95733Zm-2.80219,1.08991q0-.49206.0003-.9841c.00017-.07647-.00146-.135-.11178-.10913a11.15571,11.15571,0,0,0-1.80193.54622,1.84505,1.84505,0,0,0-.444.26653,1.05628,1.05628,0,0,0-.31407,1.13075.93355.93355,0,0,0,.76571.77776,1.64049,1.64049,0,0,0,.62377-.006,4.11674,4.11674,0,0,0,1.16288-.46259.19412.19412,0,0,0,.121-.20275C57.30284,22.68513,57.30592,22.36616,57.30586,22.04724Z"/><path class="cls-2" d="M33.52344,19.02812q0-3.096,0-6.192c0-.22673.00026-.22688.22275-.2269q1.20287-.00009,2.40573.0001c.18315.00006.18759.00336.18761.17969q.00046,6.23983,0,12.47968c0,.17508-.00537.17938-.18838.17944q-1.21653.00042-2.43306,0c-.19384-.00006-.19457-.00062-.19459-.20071Q33.52328,22.13779,33.52344,19.02812Z"/><path class="cls-2" d="M40.99661,20.73867q0,2.25581-.00008,4.51162c0,.19715-.00054.19779-.19508.19785q-1.20993.00039-2.41987,0c-.18275-.00008-.186-.00279-.186-.181q-.0004-4.539,0-9.07794c0-.18224.00237-.18463.18215-.18472q1.20993-.00063,2.41987-.00007c.19839.00006.199.00074.199.19528Q40.99676,18.46918,40.99661,20.73867Z"/><path class="cls-3" d="M4.5541,20.732a6.92946,6.92946,0,0,1,2.71646.51314c.60224.22553,1.17918.5079,1.7595.78271.07017.03322.11715.06248.04938.14973a7.14777,7.14777,0,0,1-2.51785,2.13874,4.00982,4.00982,0,0,1-3.324.16354,2.01572,2.01572,0,0,1-1.21143-1.1356,1.60562,1.60562,0,0,1,.232-1.64935,2.52229,2.52229,0,0,1,1.57764-.87435A2.75333,2.75333,0,0,1,4.5541,20.732Z"/><path class="cls-1" d="M39.60216,12.22014a1.52465,1.52465,0,0,1,1.60649,1.57632,1.48522,1.48522,0,0,1-1.31341,1.47565,1.73,1.73,0,0,1-1.356-.32236,1.39858,1.39858,0,0,1-.53609-1.05014,1.47459,1.47459,0,0,1,.63032-1.39922A1.63808,1.63808,0,0,1,39.60216,12.22014Z"/></svg>