<svg id="Capa_1" data-name="Capa 1" xmlns="http://www.w3.org/2000/svg" viewBox="0 0 70 40"><defs><style>.cls-1,.cls-3{fill:#3f3a39;}.cls-1,.cls-4{fill-rule:evenodd;}.cls-2,.cls-4{fill:#00a1e9;}</style></defs><g id="HK"><polygon id="Fill-1" class="cls-1" points="67.159 13.295 67.159 15.122 66.753 15.122 66.753 13.295 66.144 13.295 66.144 12.991 67.666 12.991 67.666 13.295 67.159 13.295"/><polygon id="Fill-2" class="cls-1" points="69.696 12.991 69.087 14.31 68.376 12.991 68.072 12.991 68.072 15.122 68.376 15.122 68.376 13.701 68.884 14.716 69.188 14.716 69.696 13.701 69.696 15.122 70 15.122 70 12.991 69.696 12.991"/><ellipse class="cls-2" cx="18.41794" cy="13.75004" rx="1.34585" ry="1.19988"/><path class="cls-3" d="M12.528,13.86063V24.23486H15.034V13.28226H13.11084A.5817.5817,0,0,0,12.528,13.86063Z"/><path class="cls-3" d="M17.165,16.78126v7.45693H19.6698V16.19846h-1.922a.5828.5828,0,0,0-.5828.5828Z"/><path class="cls-3" d="M26.45335,16.01031a3.46174,3.46174,0,0,0-2.294.91149v-.72716H22.23393a.59018.59018,0,0,0-.58376.58376V27.44983H24.1593v-3.5332a2.52045,2.52045,0,0,0,1.5874.49156A4.31127,4.31127,0,0,0,29.874,19.84054,3.57014,3.57014,0,0,0,26.45335,16.01031Zm-.81929,7.53759A2.37041,2.37041,0,0,1,24.1593,22.575V18.2634a2.829,2.829,0,0,1,1.6284-.94218c.86024,0,1.65909,1.17771,1.65909,2.89824C27.44679,21.94006,26.65819,23.5479,25.63406,23.5479Z"/><path class="cls-3" d="M34.6464,16.01031a6.00355,6.00355,0,0,0-2.93925.47112l.26629.56326a6.74247,6.74247,0,0,1,2.17115-.30723c1.49526,0,1.63859.7988,1.63859,1.79224v.46087a6.36365,6.36365,0,0,0-1.7-.23559c-1.13677,0-3.15434.45061-3.15434,2.78566a2.70494,2.70494,0,0,0,2.97,2.85731,3.87487,3.87487,0,0,0,1.88436-.65545v.49162h2.50914V18.54C38.29231,16.85009,36.84831,16.01031,34.6464,16.01031Zm1.13677,6.81049a1.99241,1.99241,0,0,1-1.29035.52232,1.58463,1.58463,0,0,1-1.70009-1.76154,2.04269,2.04269,0,0,1,2.079-1.85368,1.341,1.341,0,0,1,.91143.297Z"/><path class="cls-3" d="M48.15339,16.19464H46.47246l-2.17589,4.95373-.06193-.12055-2.47257-4.83318H39.19533l3.82285,7.46849.094.18357-.40807.93447c-.63367,1.25628-2.4473,1.17222-2.4473,1.17222v1.05169a8.362,8.362,0,0,0,1.34695,0,2.99957,2.99957,0,0,0,2.32235-1.65881h0L45.12377,22.753h0Z"/><path class="cls-3" d="M6.64667,13.95179l-.30729-.66565H5.27431l-.87049,1.79223L0,24.23411H1.70009l.87049-1.81273H7.81412l.8398,1.81273h2.76517ZM2.93932,21.65328l2.3043-4.78268,2.21209,4.78268Z"/><path id="Fill-17" class="cls-4" d="M65.86547,24.23819H64.03889s-.04974,0-.10147-.10148L61.8819,20.60162l-1.11624,1.31919v2.31738H59.24352a.21826.21826,0,0,1-.203-.20295V16.39759a.21825.21825,0,0,1,.203-.203h1.52214v3.18927a.09938.09938,0,0,0,.10148.10147h.10147l2.60123-3.18927.10147-.10147h1.92805l-2.7027,3.08779Zm-8.753,0H55.59036a.21826.21826,0,0,1-.20295-.20295V21.00753a.21825.21825,0,0,0-.203-.20295H52.44459v3.43361H50.92245a.21826.21826,0,0,1-.203-.20295V16.39759a.21825.21825,0,0,1,.203-.203h1.52214v3.08779h2.73986a.21826.21826,0,0,0,.203-.203V16.39759a.21824.21824,0,0,1,.20295-.203H57.1125Z"/></g></svg>