<svg id="Capa_1" data-name="Capa 1" xmlns="http://www.w3.org/2000/svg" viewBox="0 0 70 40"><defs><style>.cls-1{fill:none;}.cls-2,.cls-5{fill:#3f3a39;}.cls-2,.cls-3,.cls-4{fill-rule:evenodd;}.cls-3{fill:#0075ff;}.cls-4{fill:#00b7ff;}</style></defs><g id="A_Partner-200X80-竖版" data-name="A+Partner-200X80-竖版"><g id="IA_Partner-200X80-竖版" data-name="IA+Partner-200X80-竖版"><rect id="矩形" class="cls-1" y="6" width="70" height="28"/><g id="编组-3"><path id="Fill-7726" class="cls-2" d="M35.1,17.1a.90783.90783,0,0,1,.3-.7,5.2418,5.2418,0,0,1,2.4-.9v2.2a3.19178,3.19178,0,0,1-1.6.6,1.13128,1.13128,0,0,1-1.1-1.2ZM27,12.6c1,0,1.8.8,1.8,2.5,0,2.2-1.2,3.2-2.5,3.2a2.76856,2.76856,0,0,1-.9-.1v-5a2.65967,2.65967,0,0,1,1.6-.6Zm23.3-2H47.7l-1.6,5.6H46l-1.9-5.6H41l3.7,9.3-1.5,2.8v.1h2.4ZM18.1,19.9h2.7V10.6H18.1Zm20,0h2.7l-.3-2.3V13.7c0-2.1-1.2-3.3-3.4-3.3a10.98668,10.98668,0,0,0-4.1.8l.5,2.1a8.071,8.071,0,0,1,3.1-1c.9,0,1.3.6,1.3,1.6V14c-3.1.6-4.1.9-4.7,1.5a2.33267,2.33267,0,0,0-.6,1.8A2.62079,2.62079,0,0,0,35.3,20a4.321,4.321,0,0,0,2.8-1.2ZM27,20a4.63247,4.63247,0,0,0,4.6-5c0-2.9-1.6-4.6-3.6-4.6a4.25133,4.25133,0,0,0-2.7,1.1v-.9H22.6V22.8h2.7v-3A4.95375,4.95375,0,0,0,27,20ZM4.7,15.5,6.3,9.9h.1l1.5,5.6ZM.9,19.9H3.4l.7-2.4H8.5l.7,2.4h3.2L8.7,7.7H5Zm12.6,0h2.7V7.3H13.5Z"/><path id="Fill-7728" class="cls-3" d="M17.9,8.4a1.49871,1.49871,0,0,0,1.6,1.5,1.50312,1.50312,0,1,0,0-3,1.44621,1.44621,0,0,0-1.6,1.5"/><path id="Fill-7732" class="cls-4" d="M58.2,16.6H55a1.538,1.538,0,0,1-1.5-1.5V13.5h4.7Z"/><path class="cls-3" d="M69,15v1.6H62.8a3.11555,3.11555,0,0,1-3.1-3.1V7.3h1.6a1.538,1.538,0,0,1,1.5,1.5v4.7h4.7A1.538,1.538,0,0,1,69,15Z"/><path id="Fill-7736" class="cls-4" d="M59.7,21.3V18.1h3.1v4.7H61.2a1.47268,1.47268,0,0,1-1.5-1.5"/><path class="cls-5" d="M4.45752,26.82617a2.97308,2.97308,0,0,1,1.88037.48828,1.818,1.818,0,0,1,.604,1.50293q0,2.18554-2.65869,2.18555H3.21973v2.3877H2.38868V26.82618ZM5.68506,29.9873a1.31988,1.31988,0,0,0,.416-1.07324,1.35585,1.35585,0,0,0-.3916-1.08691,2.04263,2.04263,0,0,0-1.31982-.334H3.21973v2.84277H4.37989A2.01017,2.01017,0,0,0,5.68506,29.9873Z"/><path class="cls-5" d="M13.44824,26.82617H14.5791l2.13672,6.32324v.24121h-.76367l-.57031-1.76953H12.6167l-.57031,1.76953h-.68653v-.24121Zm.55078.55078L12.83935,30.9541h2.31982Z"/><path class="cls-5" d="M26.95361,33.17773v.21289h-.86035l-1.91406-2.7168H23.04786v2.7168H22.2168V26.82617h2.16553a2.98424,2.98424,0,0,1,1.88525.46875,1.70465,1.70465,0,0,1,.57031,1.39746,1.82969,1.82969,0,0,1-1.78857,1.91406Zm-2.80371-3.1416a2.58553,2.58553,0,0,0,1.4165-.29492,1.115,1.115,0,0,0,.43018-.99121,1.41832,1.41832,0,0,0-.15967-.72461.94878.94878,0,0,0-.53174-.40137,3.22476,3.22476,0,0,0-1.0293-.13086h-1.228v2.543Z"/><path class="cls-5" d="M34.36914,33.39062h-.80273V27.49316H31.58448v-.667h4.76709v.667H34.36915Z"/><path class="cls-5" d="M42.76953,26.82617l3.626,5.58789-.00977-.47363c-.0127-.36035-.01953-.6123-.01953-.75391V26.82617h.7832v6.56445H46.14355l-3.63477-5.58789q.02929.561.0293,1.13086v4.457h-.77344V26.82617Z"/><path class="cls-5" d="M52.7959,26.81641h4.331v.67676h-3.5v2.10742h3.248V30.249H53.627v2.46484h3.5293v.67676H52.7959Z"/><path class="cls-5" d="M67.5,33.17773v.21289h-.86035l-1.915-2.7168H63.59375v2.7168h-.831V26.82617h2.165a2.98585,2.98585,0,0,1,1.88574.46875,1.70465,1.70465,0,0,1,.57031,1.39746,1.8301,1.8301,0,0,1-1.78906,1.91406Zm-2.80371-3.1416a2.58589,2.58589,0,0,0,1.416-.29492A1.11409,1.11409,0,0,0,66.543,28.75a1.41808,1.41808,0,0,0-.16016-.72461.94925.94925,0,0,0-.53125-.40137,3.22937,3.22937,0,0,0-1.03027-.13086H63.59375v2.543Z"/></g></g></g></svg>