<?xml version="1.0" encoding="UTF-8"?>
<svg id="Layer_2" data-name="Layer 2" xmlns="http://www.w3.org/2000/svg" viewBox="0 0 70 40">
  <defs>
    <style>
      .cls-1 {
        fill: #232f3e;
      }

      .cls-1, .cls-2 {
        fill-rule: evenodd;
      }

      .cls-2 {
        fill: #f90;
      }
    </style>
  </defs>
  <path class="cls-1" d="M5.44385,22.06356c-.0906,.07858-.22081,.09175-.32532,.0329-.4569-.38014-.53976-.55559-.78831-.91746-.75663,.77003-1.29151,1.00031-2.2699,1.00031-1.15871,0-2.06033-.71521-2.06033-2.14562,0-1.11728,.6092-1.87635,1.46209-2.24918,.74688-.32775,1.78984-.38745,2.5879-.47762v-.17789c0-.32775,.02559-.71521-.16692-.9991-.16814-.25343-.48736-.35699-.77247-.35699-.52513,0-.993,.26927-1.10753,.82608-.01452,.12989-.11446,.23383-.24368,.25343l-1.32319-.14499c-.13322-.01908-.22575-.14254-.20668-.27577,.00056-.00394,.00123-.00787,.00198-.01178,.30582-1.61805,1.76791-2.10663,3.0777-2.10663,.67012,0,1.54494,.17789,2.07129,.68475,.66891,.62626,.6092,1.46209,.6092,2.3698v2.14318c0,.64576,.26805,.92843,.52026,1.27567,.08773,.12184,.10722,.27414,0,.36552-.28145,.23515-.781,.66891-1.05514,.91381h0l-.01097-.00244Zm-1.38777-3.3555c0,.5361,.01218,.98326-.25708,1.46209-.21931,.38745-.56656,.62626-.95401,.62626-.52757,0-.83583-.40207-.83583-.9991,0-1.17211,1.05149-1.38533,2.04693-1.38533v.29607Z"/>
  <path class="cls-1" d="M9.21361,22.00995h-1.37558c-.12761-.00662-.2312-.10555-.24368-.23272v-7.06677c.00463-.14161,.1215-.25361,.26318-.25221h1.28298c.13146,.00725,.23643,.11222,.24368,.24368v.92234h.02559c.33384-.89309,.96376-1.30857,1.81177-1.30857s1.39995,.41548,1.78619,1.30857c.39426-1.05089,1.56578-1.5832,2.61667-1.18894,.34824,.13065,.65394,.35435,.88382,.64675,.43741,.59458,.34725,1.46209,.34725,2.21507v4.45816c-.00265,.1433-.12097,.25733-.26428,.25467-.00045,0-.00089-.00002-.00133-.00003h-1.37558c-.13532-.00705-.24194-.11793-.24368-.25343v-3.74539c0-.29729,.02559-1.04052-.03899-1.32319-.10235-.47518-.4106-.6092-.80902-.6092-.36519,.01116-.68863,.23876-.82243,.57874-.14134,.35821-.12915,.95158-.12915,1.35365v3.74417c-.00267,.1433-.121,.25731-.2643,.25465-.00003,0-.00006,0-.00009,0h-1.37924c-.13506-.00764-.24135-.11818-.24368-.25343v-3.74539c0-.78831,.12184-1.94945-.85289-1.94945s-.95036,1.12946-.95036,1.94945v3.74417c-.00265,.1433-.12097,.25733-.26428,.25467-.00045,0-.00089-.00002-.00133-.00003"/>
  <path class="cls-1" d="M24.54972,20.78179c-.25221-.34725-.52026-.62992-.52026-1.27446v-2.1444c0-.90893,.06458-1.74354-.6092-2.3698-.52757-.50686-1.40239-.68475-2.07129-.68475-1.30979,0-2.77188,.48736-3.07892,2.10663-.02615,.13202,.05968,.26023,.19169,.28638,.00471,.00093,.00946,.00173,.01422,.00238l1.33416,.14377c.12902-.01999,.22876-.12373,.24368-.25343,.11575-.55681,.58118-.82608,1.10632-.82608,.28389,0,.6092,.10478,.77247,.35821,.19373,.28267,.16814,.67012,.16814,.99788v.17423c-.79806,.08894-1.84223,.14865-2.5879,.4764-.86263,.37283-1.46818,1.1319-1.46818,2.2504,0,1.42919,.90162,2.1444,2.06033,2.1444,.97473,0,1.51326-.23028,2.26868-1.00031,.25099,.36552,.33263,.53732,.78953,.91746,.10441,.05845,.23415,.04582,.32531-.03168h0c.27414-.24368,.77369-.67865,1.05514-.91381,.11819-.08407,.09869-.23272,.00609-.35943Zm-2.70487-.61773c-.21809,.38624-.56656,.62504-.9528,.62504-.52757,0-.83583-.40207-.83583-.99788,0-1.17333,1.05149-1.38533,2.04693-1.38533v.29729c0,.53732,.00975,.98326-.2583,1.46087Z"/>
  <path class="cls-1" d="M25.71451,15.69615v-1.01006c-.00627-.13444,.09763-.2485,.23207-.25477,.00834-.00039,.01669-.00035,.02502,.00012h4.52395c.13921-.00472,.25589,.10431,.26061,.24352,.00012,.00371,.00017,.00742,.00013,.01113v.86629c0,.14499-.12184,.33506-.33994,.63479l-2.34422,3.34575c.86994-.02071,1.78984,.10966,2.58059,.55438,.14604,.07787,.23906,.22811,.24368,.39355v1.08195c0,.14865-.16205,.32044-.33384,.2315-1.50065-.77132-3.28192-.76814-4.77982,.00853-.15717,.08407-.32166-.08529-.32166-.23393v-1.02956c-.01437-.24269,.04418-.48413,.16814-.69327l2.71583-3.89891h-2.36859c-.13919,.00539-.25639-.10307-.26178-.24226-.00016-.00413-.00022-.00826-.00017-.01239"/>
  <path class="cls-1" d="M34.66251,15.74733c-1.01493,0-1.07951,1.38168-1.07951,2.24431s-.01218,2.70487,1.06611,2.70487,1.1185-1.48646,1.1185-2.39295c0-.59458-.02559-1.30857-.20591-1.87269-.15474-.48736-.46299-.68353-.89919-.68353Zm-.0134-1.4426c2.04327,0,3.14837,1.75451,3.14837,3.9842,0,2.15536-1.21841,3.86479-3.14837,3.86479-2.00428,0-3.09598-1.75451-3.09598-3.93912s1.1051-3.90987,3.09598-3.90987Z"/>
  <path class="cls-1" d="M40.46091,21.99533h-1.37193c-.13532-.00705-.24194-.11793-.24368-.25343v-7.06677c.01453-.13417,.12948-.23482,.2644-.2315h1.27689c.11629,.00373,.21588,.0844,.24368,.19738v1.08073h.02681c.38502-.9662,.92477-1.42676,1.87513-1.42676,.61651,0,1.21841,.22297,1.60708,.83217,.35943,.56534,.35943,1.51692,.35943,2.20045v4.44597c-.02012,.12972-.13315,.22452-.2644,.22175h-1.38411c-.12414-.00531-.22672-.09866-.24368-.22175v-3.83677c0-.77247,.09016-1.90315-.86142-1.90315-.35334,.01634-.66469,.23724-.79684,.56534-.19251,.43132-.2181,.86263-.2181,1.34025v3.80265c-.00529,.14344-.12454,.25619-.26805,.25343"/>
  <path class="cls-1" d="M51.66053,15.51705c-.69954,.00552-1.37827,.23861-1.93361,.66403v4.02075c.6157,.463,1.25049,.69409,1.90437,.69327,1.32725,0,1.99088-.8935,1.99088-2.6805s-.65388-2.68659-1.96164-2.69878v.00122Zm-2.03474-.18763c.34579-.30492,.7409-.54883,1.16845-.7213,.40391-.161,.83477-.24369,1.26958-.24368,.43219-.00804,.86091,.07845,1.25618,.25343,.37247,.17077,.69873,.4281,.95158,.75054,.27531,.35721,.47887,.76434,.59945,1.19891,.14612,.51506,.21671,1.0486,.20957,1.58393,.00664,.54673-.06893,1.09135-.22419,1.61561-.12997,.44487-.34287,.86116-.62748,1.22694-.26431,.33256-.5999,.60154-.98204,.78709-.40154,.18639-.84039,.27849-1.28298,.26927-.82719,.01369-1.62787-.29175-2.23578-.85289v3.3823c.02032,.13916-.07603,.26845-.21519,.28876-.0244,.00356-.04918,.00356-.07357,0h-.85289c-.13916,.02032-.26845-.07603-.28876-.21519-.00356-.02439-.00356-.04918,0-.07357V14.86764c-.01952-.13996,.07811-.26924,.21806-.28876,.02345-.00327,.04724-.00327,.0707,0h.63479c.16749-.01567,.31598,.10741,.33165,.27491,.00043,.00461,.00076,.00923,.00098,.01386l.07189,.46178Z"/>
  <path class="cls-1" d="M58.67978,21.00476c.34008-.00431,.67685-.06738,.99544-.18642,.35757-.13151,.69318-.31636,.99544-.54828v-1.47306c-.25004-.0588-.50301-.10435-.75785-.13646-.25573-.03354-.51334-.05064-.77125-.05117-1.08844,0-1.63227,.41873-1.63145,1.25618,0,.36552,.10113,.64698,.30338,.84436s.49102,.29567,.86629,.29485Zm-1.68871-5.16849l-.10844,.03655c-.03915,.0139-.0803,.02131-.12184,.02193-.12184,0-.18764-.08651-.18764-.26074v-.38624c-.00925-.09756,.01114-.19565,.05848-.28145,.0623-.06983,.14164-.12231,.23028-.1523,.36643-.14891,.74863-.2556,1.13921-.318,.44748-.08102,.90133-.1218,1.35609-.12184,.91381,0,1.58718,.18723,2.02012,.56169s.64982,.95645,.65063,1.74598v4.92968c.01952,.13996-.07811,.26924-.21806,.28876-.02345,.00327-.04724,.00327-.0707,0h-.62139c-.15871,.01564-.30005-.10033-.3157-.25904-.00049-.00502-.00086-.01006-.00109-.0151l-.07311-.4764c-.33986,.29445-.72764,.52852-1.14652,.69206-.39721,.15922-.82094,.2419-1.24887,.24368-.69206,0-1.24034-.19495-1.64485-.58484-.40451-.38989-.60758-.91178-.6092-1.56565,0-.7018,.25018-1.26227,.75054-1.6814,.50036-.41913,1.17373-.62829,2.02012-.62748,.61343,.00943,1.22361,.09123,1.81787,.24368v-.94792c0-.51985-.11534-.88538-.34603-1.09657s-.63479-.31719-1.21232-.318c-.71805,.00678-1.43133,.11759-2.11759,.32897Z"/>
  <path class="cls-1" d="M66.72371,23.1784c-.26074,.66363-.56168,1.14002-.90284,1.42919-.34115,.28917-.7879,.43335-1.34025,.43254-.27746,.0037-.55413-.03032-.82243-.10113-.09018-.01926-.17152-.06764-.2315-.13768-.05473-.08813-.07992-.19142-.07189-.29485v-.37527c0-.18276,.07189-.27414,.21688-.27414,.07295,.00332,.14549,.0127,.21688,.02802,.12833,.02217,.25848,.03196,.38867,.02924,.30631,.01932,.60926-.07286,.85289-.25952,.20226-.17301,.38502-.49061,.54828-.9528l.27414-.73105-2.78042-6.87304c-.05228-.10943-.08604-.22677-.09991-.34725,0-.11453,.06701-.17301,.20104-.17301h.86629c.11096-.01064,.22241,.01455,.318,.07189,.08149,.091,.14035,.19996,.17179,.318l2.02134,5.59859,1.94945-5.59859c.03144-.11804,.0903-.227,.17179-.318,.0956-.05733,.20704-.08253,.318-.07189h.80781c.13524,0,.20225,.05848,.20225,.17301-.01452,.12049-.04868,.2378-.10113,.34725l-3.17516,8.08049"/>
  <path class="cls-2" d="M27.58112,24.78061c-2.58424,1.90681-6.33572,2.92418-9.5572,2.92418-4.30978,.02197-8.47245-1.56619-11.67235-4.45328-.24368-.2181-.02681-.5166,.26439-.34725,3.32382,1.93361,7.43229,3.09841,11.67966,3.09841,3.06142-.01672,6.08941-.6378,8.91022-1.82761,.43619-.1852,.80293,.28754,.37527,.6092m1.07464-1.22694c.33141,.42279-.36552,2.16755-.67865,2.94611-.09504,.23515,.10844,.33019,.32166,.1523,1.38533-1.15993,1.74354-3.58943,1.46209-3.94033s-2.70487-.64819-4.18401,.39111c-.22784,.15961-.18885,.38014,.06458,.34968,.83217-.09991,2.68659-.32288,3.01678,.10113"/>
</svg>