<?xml version="1.0" encoding="UTF-8"?>
<svg id="Layer_1" data-name="Layer 1" xmlns="http://www.w3.org/2000/svg" viewBox="0 0 70 40">
  <defs>
    <style>
      .cls-1 {
        fill: #fff;
      }

      .cls-1, .cls-2 {
        stroke-width: 0px;
      }

      .cls-2 {
        fill: #0070ce;
      }
    </style>
  </defs>
  <rect class="cls-1" x="14.94362" width="39.99998" height="40"/>
  <g>
    <path class="cls-2" d="m53.43329,28.25023h-13.14437l-.83491-1.08382v1.08382h-2.84842v-1.72958c-.36013.13475-.76896.2147-1.22558.2147h-.46442v1.51487h-4.22236l-.64657-.90208-.626.90208h-6.86886v-6.62614h6.89562l.64003.8889.63254-.8889h24.22361V0H14.94362v16.24578l1.38751-3.23292h2.76109l.71333,1.65952v-1.65952h3.37386l.44465,1.31336.44424-1.31336h14.66001v.61691c.54893-.42322,1.26145-.61691,2.03992-.61691h4.55246l.71333,1.65952v-1.65952h2.72729l.79452,1.23217v-1.23217h2.92262v6.62656h-2.87564l-.74713-1.15841v1.15841h-4.0806l-.38368-.98368h-.86253l-.38327.98368h-2.45117c-.64778,0-1.38012-.13228-1.96612-.57159v.57159h-4.14157l-.83532-1.08423v1.08423h-15.20481l-.38368-.98368h-.86173l-.38408.98368h-1.97352v20.36058h39.99998v-12.18165c-.40717.26869-.92476.43188-1.51031.43188"/>
    <path class="cls-2" d="m53.43354,26.23726h-2.43758v1.05703h2.43099c1.02326,0,1.62943-.6198,1.62943-1.52888,0-.8547-.53203-1.35333-1.4675-1.35333h-1.11803c-.24931,0-.42442-.15495-.42442-.39026,0-.23572.17511-.38408.42442-.38408h2.03333l.46442-1.05744h-2.48452c-1.02366,0-1.63647.62639-1.63647,1.48191,0,.8889.57941,1.40072,1.47489,1.40072h1.11104c.24891,0,.43106.15495.43106.39068,0,.23531-.18215.38366-.43106.38366m-4.31673,0h-2.43718v1.05703h2.43059c1.02366,0,1.62983-.6198,1.62983-1.52888,0-.8547-.53203-1.35333-1.4683-1.35333h-1.11763c-.24891,0-.42402-.15495-.42402-.39026,0-.23572.17511-.38408.42402-.38408h2.03373l.46482-1.05744h-2.48537c-1.02321,0-1.63602.62639-1.63602,1.48191,0,.8889.57901,1.40072,1.47489,1.40072h1.11064c.24971,0,.43106.15495.43106.39068,0,.23531-.18135.38366-.43106.38366m-2.96921-2.59953v-1.05744h-3.83868v4.714h3.83868v-1.05703h-2.63991v-.80194h2.57894v-1.02984h-2.57894v-.76774h2.63991Zm-6.07434,0c.36391,0,.55225.22212.55225.48504,0,.26952-.18834.47763-.55225.47763h-1.29933v-.96267h1.29933Zm-1.29933,1.98674h.46442l1.40774,1.66982h1.47449l-1.52847-1.71721c.77475-.16814,1.23917-.74096,1.23917-1.4749,0-.90209-.6264-1.52189-1.63642-1.52189h-2.61928v4.714h1.19837v-1.66982Zm-2.91563-1.44812c0,.28971-.18915.52542-.5522.52542h-1.33354v-1.06404h1.33354c.36305,0,.5522.24232.5522.53862m-3.0841-1.59606v4.714h1.19837v-1.53548h1.41392c1.03724,0,1.67682-.67996,1.67682-1.58864,0-.94288-.626-1.58988-1.63647-1.58988h-2.65264Zm-1.60267,4.714h1.50166l-1.89892-2.37698,1.88533-2.33702h-1.46171l-1.11104,1.44812-1.11099-1.44812h-1.5013l1.88538,2.36339-1.87879,2.35061h1.46131l1.11104-1.46171,1.11803,1.46171Zm-3.7847-3.65656v-1.05744h-3.83833v4.714h3.83833v-1.05703h-2.63951v-.80194h2.57889v-1.02984h-2.57889v-.76774h2.63951Z"/>
    <path class="cls-2" d="m50.02718,18.6831h1.45472v-4.714h-1.19178v2.92302l-1.8792-2.92302h-1.51484v4.714h1.19178v-3.03016l1.93931,3.03016Zm-6.72669-1.98673l.65276-1.61625.6598,1.61625h-1.31256Zm2.12111,1.98673h1.34672l-2.01351-4.714h-1.55528l-2.0205,4.714h1.31955l.39067-.96266h2.14169l.39067.96266Zm-4.84835,0h.09437l.49118-1.05744h-.38403c-.75377,0-1.19842-.45743-1.19842-1.26597v-.06718c0-.70716.39726-1.23218,1.1786-1.23218h1.26598v-1.09124h-1.36035c-1.48148,0-2.276.98327-2.276,2.32342v.06718c0,1.4477.83532,2.32341,2.18867,2.32341m-3.96646,0h1.19917v-4.714h-1.19917v4.714Zm-2.23566-3.65655c.36345,0,.55265.22212.55265.48463,0,.26951-.1892.47845-.55265.47845h-1.29933v-.96307h1.29933Zm-1.29933,1.98631h.46442l1.40733,1.67024h1.47489l-1.52887-1.71721c.7743-.16855,1.23917-.74054,1.23917-1.47449,0-.90208-.6264-1.52229-1.63642-1.52229h-2.61934v4.714h1.19882v-1.67024Zm-1.8722-1.98631v-1.05745h-3.83868v4.714h3.83868v-1.05744h-2.63946v-.80112h2.57889v-1.03025h-2.57889v-.76774h2.63946Zm-8.10762,3.65655h1.04343l1.24621-3.48842v3.48842h1.18519v-4.714h-1.88579l-1.05042,3.00338-1.05746-3.00338h-1.90556v4.714h1.18564v-3.48842l1.23876,3.48842Zm-6.01996-1.98673l.65321-1.61625.66015,1.61625h-1.31337Zm2.12111,1.98673h1.34672l-2.01351-4.714h-1.55568l-2.0197,4.714h1.31996l.39067-.96266h2.14083l.39072.96266Z"/>
  </g>
</svg>