<svg xmlns="http://www.w3.org/2000/svg" viewBox="0 0 100 99.75002"><defs><style>.cls-1{fill:#016fd0;}.cls-2{fill:#fff;}</style></defs><g id="Layer_2" data-name="Layer 2"><g id="svg2"><path id="path3078" class="cls-1" d="M0,0H99.99V53.83462l-5.18948,7.72923L99.99,68.21318V99.75H0V48.9851l3.08969-3.54964L0,42.0458Z"/><path id="path3082" class="cls-2" d="M19.38806,69.49305V53.83462H35.96641l1.77982,2.31977L39.586,53.83462H99.99L100,68.34317a6.08325,6.08325,0,0,1-3.61964,1.14988H63.0437L61.0339,67.0233v2.46975H54.46456V65.28348a5.51264,5.51264,0,0,1-2.83972.58994H49.39506v3.61963h-9.949l-1.77982-2.36976-1.79982,2.36976Z"/><path id="path3080" class="cls-2" d="M0,42.0458l3.73963-8.71913H10.209l2.11979,4.87951V33.32667H20.368l1.25988,3.52964,1.21988-3.52964H58.93411v1.76982a7.79918,7.79918,0,0,1,5.0095-1.76982l11.70882.04,2.0898,4.81952V33.32667h6.72932l1.84982,2.76972V33.32667h6.78932V48.9851H86.32137l-1.76983-2.77972V48.9851h-9.879l-.9899-2.46975H71.0229L70.043,48.9851H63.34367a6.6405,6.6405,0,0,1-4.39956-1.73982V48.9851h-10.119l-2.0098-2.46975V48.9851H9.24908l-.98991-2.46975H5.60944l-.9899,2.46975H0Z"/><path id="path3046" class="cls-1" d="M5.05949,35.25648.02,46.9753H3.29967l.92991-2.34976H9.639l.9299,2.34976h3.35967L8.88911,35.25648ZM6.92931,37.9862l1.64983,4.09959H5.27947Z"/><path id="path3048" class="cls-1" d="M14.26857,46.9753V35.25648l4.66954.02,2.70973,7.55924,2.64973-7.57924h4.62954V46.98531H25.9974V38.34617l-3.10969,8.63914H20.318l-3.11969-8.64914V46.9753Z"/><path id="path3050" class="cls-1" d="M30.93691,46.9753V35.25648h9.559v2.61974H33.89661V39.886H40.346v2.46976H33.89661v2.07979H40.496v2.54975Z"/><path id="path3052" class="cls-1" d="M42.19578,35.25648V46.98531h2.92971V42.81572h1.22987L49.875,46.98531h3.57964L49.595,42.66574a3.57143,3.57143,0,0,0,3.21967-3.59964,3.79019,3.79019,0,0,0-4.09959-3.79962l-6.51934-.01Zm2.92971,2.61973h3.34966A1.35024,1.35024,0,0,1,49.865,39.10609,1.32292,1.32292,0,0,1,48.51515,40.336H45.12549V37.87621Z"/><path id="path3054" class="cls-1" d="M57.0043,46.9753H54.01459V35.25648H57.0043Z"/><path id="path3056" class="cls-1" d="M64.10359,46.9753h-.64994c-3.12968,0-5.0195-2.45975-5.0195-5.80942,0-3.42965,1.87982-5.90941,5.81942-5.90941h3.23968v2.77972H64.13359c-1.59984,0-2.73973,1.24988-2.73973,3.15969a2.86825,2.86825,0,0,0,3.15968,3.21968h.76993Z"/><path id="path3058" class="cls-1" d="M70.483,35.25648l-5.0395,11.72883h3.27967l.9299-2.34977h5.40946l.92991,2.34977h3.35966l-5.0395-11.72883Zm1.85981,2.72972,1.64983,4.09959H70.69293l1.64984-4.09959Z"/><path id="path3060" class="cls-1" d="M79.682,46.9753V35.25648h3.72962l4.75952,7.36926V35.25647h2.92971V46.9853H87.49125L82.61174,39.426V46.9853H79.682Z"/><path id="path3062" class="cls-1" d="M21.36786,67.49325V55.77442h9.56905v2.61974H24.33757V60.404h6.44935v2.46975H24.33757V64.9535h6.59934v2.53975Z"/><path id="path3064" class="cls-1" d="M68.23318,67.49325V55.77442h9.569v2.61974H71.20289V60.404h6.41935v2.46975H71.20289V64.9535h6.59934v2.53975Z"/><path id="path3066" class="cls-1" d="M31.30687,67.49325l4.65954-5.78942-4.76953-5.92941h3.68963l2.83972,3.66964,2.84971-3.66964h3.54965l-4.70953,5.85941,4.66953,5.85942H40.396l-2.75972-3.60964-2.68973,3.60964Z"/><path id="path3068" class="cls-1" d="M44.43556,55.77442V67.50325h3.0097V63.80362H50.535c2.60974,0,4.58954-1.38986,4.58954-4.07959a3.85564,3.85564,0,0,0-4.20958-3.93961H44.43556Zm3.0097,2.64974h3.24967A1.32972,1.32972,0,0,1,52.14479,59.774a1.3552,1.3552,0,0,1-1.45986,1.34987H47.44526V58.42416Z"/><path id="path3072" class="cls-1" d="M56.38437,55.77442V67.49325h2.9297V63.32367H60.544l3.51965,4.16958h3.57964l-3.84962-4.31957A3.57143,3.57143,0,0,0,67.0133,59.574a3.7902,3.7902,0,0,0-4.09959-3.79962Zm2.9397,2.61974h3.34966A1.35025,1.35025,0,0,1,64.0636,59.624a1.32293,1.32293,0,0,1-1.34987,1.22987H59.32407Z"/><path id="path3074" class="cls-1" d="M79.16209,67.49325V64.94351H85.0315c.86992,0,1.23988-.47,1.23988-.9799,0-.49-.37-.98991-1.23988-.98991H82.38177a3.279,3.279,0,0,1-3.58965-3.50964c0-1.87981,1.17988-3.68964,4.59954-3.68964h5.70943l-1.22988,2.63974h-4.9395c-.93991,0-1.22988.49995-1.22988.96991A1.01888,1.01888,0,0,0,82.78172,60.404h2.77972c2.56975,0,3.67963,1.45986,3.67963,3.36967a3.51268,3.51268,0,0,1-3.81962,3.72962H79.16209Z"/><path id="path3076" class="cls-1" d="M89.921,67.49325V64.94351h5.86941c.86992,0,1.23988-.47,1.23988-.9799,0-.49-.37-.98991-1.23988-.98991H93.14069A3.279,3.279,0,0,1,89.551,59.46406c0-1.87981,1.17989-3.68964,4.59954-3.68964H99.86l-1.22987,2.63974H93.69063c-.93991,0-1.22988.49995-1.22988.96991A1.01888,1.01888,0,0,0,93.54064,60.404h2.77972C98.89011,60.404,100,61.86382,100,63.77363a3.51267,3.51267,0,0,1-3.81962,3.72962H89.921Z"/></g></g></svg>