<?xml version="1.0" encoding="UTF-8"?>
<svg id="Layer_1" data-name="Layer 1" xmlns="http://www.w3.org/2000/svg" viewBox="0 0 70 40">
  <defs>
    <style>
      .cls-1 {
        fill: #006fcf;
      }

      .cls-2 {
        fill: #fff;
      }
    </style>
  </defs>
  <polygon class="cls-2" points="55 40 35.11976 40 15 40 15 19.8012 15 0 34.85192 0 55 0 55 19.998 55 40 55 40"/>
  <path class="cls-1" d="M55,40v-6.33816h-4.82567l-2.48449-2.7472-2.49704,2.7472h-15.91064v-12.80368h-5.13528l6.36976-14.41544h6.14304l2.19288,4.93848V6.44272h7.60392l1.32024,3.72144,1.32888-3.72144h5.8944V0H15V40H55Zm-4.0128-7.9412h4.0128l-5.30824-5.62912,5.30824-5.56512h-3.94896l-3.27816,3.58224-3.24664-3.58224h-4.01376l5.2772,5.59712-5.2772,5.59712h3.90208l3.29424-3.61416,3.27841,3.61416h0Zm.9388-5.6244l3.074,3.27032v-6.51336l-3.074,3.24304h0Zm-17.89016,3.03376v-1.7432h6.31656v-2.52672h-6.31656v-1.74296h6.4764v-2.59072h-9.53096v11.19424h9.53096v-2.59064h-6.4764Zm17.9416-10.22808h3.02256V8.04584h-4.70168l-2.5108,6.97224-2.49464-6.97224h-4.78144v11.19424h3.02232v-7.83592l2.87864,7.83592h2.68648l2.87856-7.85208v7.85208h0Zm-14.90424,0h3.43824l-4.9412-11.19424h-3.93408l-4.94168,11.19424h3.35832l.92768-2.2388h5.1492l.94352,2.2388h0Zm-1.9988-4.7496h-3.03864l1.51936-3.66208,1.51928,3.66208h0Z"/>
</svg>