<?xml version="1.0" encoding="UTF-8"?>
<svg id="Artwork" xmlns="http://www.w3.org/2000/svg" viewBox="0 0 70 40">
  <defs>
    <style>
      .cls-1, .cls-2 {
        stroke-width: 0px;
      }

      .cls-2 {
        fill: #fff;
      }
    </style>
  </defs>
  <path class="cls-1" d="m60.64524,0H9.35483C9.14121,0,8.92721,0,8.71398.00125c-.18025.00128-.36008.00328-.53992.00819-.3922.01061-.78777.03375-1.17507.10335-.39349.07082-.75965.18633-1.11686.3682-.35117.17859-.67267.41217-.95129.69091-.27874.27873-.51232.59971-.69087.95126-.18191.35721-.29749.72348-.36782,1.11727-.06998.38741-.09328.7829-.10385,1.17469-.00483.17983-.0069.35967-.00808.53946-.00125.21369-.00083.42723-.00083.64131v28.80864c0,.21407-.00042.42724.00083.64135.00117.1798.00325.35963.00808.53946.01057.39144.03386.78693.10385,1.17423.07033.39394.18591.76006.36782,1.11731.17855.35155.41214.67294.69087.95125.27862.27919.60012.51273.95129.69087.35721.18236.72337.29791,1.11686.36869.3873.06915.78286.09271,1.17507.10332.17983.00408.35967.00649.53992.00732.21324.00166.42723.00166.64085.00166h51.29041c.21324,0,.42724,0,.64043-.00166.17984-.00083.35967-.00325.54033-.00732.39138-.01061.78686-.03416,1.17511-.10332.39296-.07078.75919-.18633,1.11644-.36869.35155-.17813.67211-.41168.9513-.69087.27828-.27832.51186-.59971.69087-.95125.18232-.35725.29779-.72337.36778-1.11731.07002-.3873.09275-.78279.10336-1.17423.00491-.17983.00733-.35966.00816-.53946.00166-.21411.00166-.42727.00166-.64135V5.59589c0-.21407,0-.42761-.00166-.64131-.00083-.1798-.00325-.35963-.00816-.53946-.01061-.39179-.03333-.78728-.10336-1.17469-.06998-.39379-.18546-.76006-.36778-1.11727-.17901-.35155-.41259-.67252-.69087-.95126-.27919-.27873-.59975-.51232-.9513-.69091-.35725-.18187-.72348-.29738-1.11644-.3682-.38824-.06961-.78373-.09275-1.17511-.10335-.18065-.00491-.36049-.00691-.54033-.00819-.2132-.00125-.4272-.00125-.64043-.00125h0Z"/>
  <path class="cls-2" d="m60.64524,1.33328l.63096.00121c.17093.00121.34185.00306.51372.00774.29897.00808.6487.02427.97469.08271.28338.05104.52104.12865.74911.24476.22517.11442.43146.26435.61159.44422.18082.18108.33094.38771.44687.61537.11547.2263.19259.46283.24332.74828.05828.32245.0744.67313.0826.97394.0046.16979.00687.33958.0077.51341.00162.21022.00158.42033.00158.63096v28.80864c0,.21063.00003.42037-.00162.63508-.00079.16975-.00306.33954-.0077.50964-.00816.30036-.02427.65085-.08327.97711-.05002.28153-.1271.51809-.24321.74553-.11559.22709-.26549.4335-.44551.61345-.18115.18119-.38677.33067-.61461.44615-.22638.11555-.46363.19309-.74421.24359-.3326.05926-.69698.07557-.97141.08301-.17266.00389-.34449.00622-.52051.00706-.20977.00162-.42029.00159-.6301.00159H9.34648c-.20739,0-.41519,0-.62636-.00162-.17217-.0008-.34396-.0031-.51005-.00687-.2807-.00759-.64531-.02386-.97519-.08278-.28299-.05089-.52025-.12842-.7496-.24548-.22569-.11445-.43116-.26378-.61239-.44532-.17983-.17953-.32928-.3853-.44483-.61273-.11566-.22721-.19304-.46449-.24393-.74938-.05882-.32562-.07497-.67471-.08305-.97304-.00461-.17081-.00653-.34158-.00763-.51138l-.00083-.50126.00004-.13235V5.59589l-.00004-.13235.00079-.5002c.00113-.17081.00306-.34158.00767-.51224.00807-.29863.02423-.64787.08353-.97621.05043-.28232.12778-.5196.24404-.74794.11464-.2257.26435-.43173.44513-.61247.18006-.18013.3862-.32988.61333-.44539.2269-.11555.46461-.19312.7476-.24404.32607-.05859.67603-.07474.97575-.08286.17085-.00464.3417-.00649.51126-.00766l.63308-.00125h51.29041"/>
  <g>
    <g>
      <path class="cls-1" d="m20.81634,13.45369c.53498-.66915.89802-1.56762.80227-2.48575-.78314.03894-1.73881.51666-2.2921,1.18634-.49679.57347-.9365,1.50956-.82187,2.3892.87912.07626,1.75742-.43942,2.3117-1.08979"/>
      <path class="cls-1" d="m21.60862,14.71523c-1.27669-.07605-2.36218.72458-2.97187.72458-.61002,0-1.54364-.68626-2.55344-.66776-1.31431.0193-2.53383.76242-3.20079,1.94433-1.37181,2.3644-.36202,5.87163.972,7.79731.64783.95269,1.42857,2.00167,2.45732,1.96399.972-.03814,1.35298-.62938,2.53448-.62938,1.18063,0,1.52382.62938,2.55273.61032,1.06701-.01908,1.73408-.95317,2.3819-1.90679.74318-1.08602,1.04741-2.13466,1.06655-2.19222-.01914-.01907-2.0575-.80103-2.0764-3.14578-.01924-1.96329,1.60034-2.89714,1.67657-2.95505-.9146-1.35269-2.34363-1.50522-2.83906-1.54354"/>
    </g>
    <g>
      <path class="cls-1" d="m32.72503,12.05824c2.77486,0,4.7071,1.91274,4.7071,4.69753,0,2.79474-1.97199,4.71742-4.77668,4.71742h-3.0723v4.88583h-2.21974v-14.30078h5.36162Zm-3.14189,7.55172h2.547c1.93262,0,3.03254-1.04048,3.03254-2.84425,0-1.80358-1.09993-2.83431-3.02261-2.83431h-2.55694v5.67856Z"/>
      <path class="cls-1" d="m38.0121,23.39587c0-1.82366,1.39737-2.94346,3.87517-3.08224l2.854-.16841v-.80267c0-1.15957-.78298-1.85329-2.09089-1.85329-1.23909,0-2.01214.59451-2.20024,1.52621h-2.0217c.1189-1.88311,1.72425-3.27054,4.30107-3.27054,2.52712,0,4.14241,1.33792,4.14241,3.42901v7.18509h-2.05151v-1.7145h-.04932c-.60444,1.15957-1.92267,1.89285-3.29023,1.89285-2.04157,0-3.46876-1.26853-3.46876-3.1415Zm6.72917-.94146v-.82255l-2.56688.15847c-1.27847.08927-2.00181.65414-2.00181,1.54609,0,.91164.75317,1.50633,1.9028,1.50633,1.49639,0,2.6659-1.03073,2.6659-2.38834Z"/>
      <path class="cls-1" d="m48.80874,30.19443v-1.73438c.15828.03957.51498.03957.69352.03957.99097,0,1.52621-.41615,1.85309-1.48645,0-.01988.18848-.63427.18848-.6442l-3.76583-10.43574h2.31875l2.63646,8.48343h.03938l2.63646-8.48343h2.2595l-3.90499,10.97079c-.89156,2.52731-1.92229,3.33993-4.08277,3.33993-.17854,0-.71378-.01988-.87206-.04951Z"/>
    </g>
  </g>
</svg>