<svg id="logo" xmlns="http://www.w3.org/2000/svg" xmlns:xlink="http://www.w3.org/1999/xlink" viewBox="0 0 70 40"><defs><style>.cls-1{fill:#fff;}.cls-2{fill:#1e3764;}.cls-3{fill:url(#linear-gradient);}.cls-4{fill:url(#linear-gradient-2);}</style><linearGradient id="linear-gradient" x1="15.95309" y1="81.11378" x2="33.41979" y2="87.6014" gradientTransform="matrix(1, 0, 0, -1, 0, 101.12134)" gradientUnits="userSpaceOnUse"><stop offset="0" stop-color="#005ab9"/><stop offset="1" stop-color="#1e3764"/></linearGradient><linearGradient id="linear-gradient-2" x1="36.44582" y1="85.52166" x2="54.99183" y2="91.84912" gradientTransform="matrix(1, 0, 0, -1, 0, 101.12134)" gradientUnits="userSpaceOnUse"><stop offset="0" stop-color="#fba900"/><stop offset="1" stop-color="#ffd800"/></linearGradient></defs><path id="rounded_white_background" data-name="rounded white background" class="cls-1" d="M7.95018,0H62.04986a2,2,0,0,1,2,2h0V38a2,2,0,0,1-2,2H7.95018a2,2,0,0,1-2-2V2A2,2,0,0,1,7.95018,0Z"/><path id="Bancontact" class="cls-2" d="M11.12362,34.70843v-6.8978h2.12847c1.54708,0,2.54234.58139,2.54234,1.78358a1.604,1.604,0,0,1-.75876,1.42882,1.70887,1.70887,0,0,1,1.01495,1.64561c0,1.38945-1.01495,2.03979-2.59159,2.03979Zm1.3697-4.03031h1.015a.77.77,0,0,0,.88687-.86713c0-.60112-.48287-.79816-1.13324-.79816h-.76861Zm0,2.82811h.84744c.82775,0,1.31059-.20694,1.31059-.85728,0-.6405-.41385-.90656-1.19233-.90656h-.9657Zm6.21352,1.32044c-1.35,0-2.02995-.6602-2.02995-1.54706,0-.97557.79819-1.54711,1.98067-1.557a6.17185,6.17185,0,0,1,.877.07886V31.565c0-.60107-.34489-.88687-1.0051-.88687a3.45715,3.45715,0,0,0-1.30074.23652l-.24635-1.06422a4.88491,4.88491,0,0,1,1.70475-.29563,1.91321,1.91321,0,0,1,2.16787,2.0989V34.3931a4.93464,4.93464,0,0,1-2.14815.43357Zm.82772-1.1135V32.65879a3.30965,3.30965,0,0,0-.69962-.07885c-.4533,0-.808.1774-.808.64055,0,.41387.29561.63065.81787.63065a1.54256,1.54256,0,0,0,.68978-.138Zm2.27783.99526V29.98835a6.01733,6.01733,0,0,1,2.227-.43357c1.43867,0,2.26642.70947,2.26642,2.02v3.1336H24.946v-3.035c0-.67993-.31533-.99525-.91642-.99525a2.06667,2.06667,0,0,0-.86716.1774v3.8529Zm9.24564-4.858-.25622,1.07407a3.00149,3.00149,0,0,0-1.11349-.24637c-.79817,0-1.23176.5617-1.23176,1.488,0,1.01495.45328,1.53722,1.30075,1.53722a2.78969,2.78969,0,0,0,1.09378-.25622l.21678,1.09381a3.31656,3.31656,0,0,1-1.419.28574,2.398,2.398,0,0,1-2.58175-2.62117,2.40081,2.40081,0,0,1,2.50294-2.65071,3.79822,3.79822,0,0,1,1.48794.29564Zm2.93772,4.97625a2.39367,2.39367,0,0,1-2.46351-2.64087,2.46423,2.46423,0,1,1,4.91715,0,2.38139,2.38139,0,0,1-2.45365,2.64087Zm0-1.12334c.69964,0,1.06422-.58139,1.06422-1.51753,0-.92629-.36458-1.50768-1.06422-1.50768-.68978,0-1.07409.58139-1.07409,1.50768,0,.93614.38431,1.51753,1.07408,1.51753Zm3.24057,1.0051V29.98835a6.01733,6.01733,0,0,1,2.227-.43357c1.43867,0,2.26642.70947,2.26642,2.02v3.1336H40.36988v-3.035c0-.67993-.31533-.99525-.91643-.99525a2.06662,2.06662,0,0,0-.86715.1774v3.8529Zm7.56021.11824c-1.17261,0-1.77371-.64051-1.77371-1.94125V30.757h-.67008V29.673h.67008v-1.0938l1.35984-.069V29.673h1.09379v1.084h-1.0938v2.10875c0,.57154.23652.8376.67993.8376a2.3895,2.3895,0,0,0,.52227-.05912l.069,1.0938a3.759,3.759,0,0,1-.85732.08866Zm3.43237,0c-1.35,0-2.02994-.6602-2.02994-1.54706,0-.97557.79819-1.54711,1.98067-1.557a6.172,6.172,0,0,1,.877.07886V31.565c0-.60107-.34489-.88687-1.0051-.88687a3.45724,3.45724,0,0,0-1.30075.23652l-.24634-1.06422a4.88491,4.88491,0,0,1,1.70475-.29563,1.91321,1.91321,0,0,1,2.16787,2.0989V34.3931a4.93477,4.93477,0,0,1-2.14816.43357Zm.82773-1.1135V32.65879a3.30993,3.30993,0,0,0-.69965-.07885c-.45327,0-.808.1774-.808.64055,0,.41387.29562.63065.81789.63065a1.5425,1.5425,0,0,0,.68976-.138Zm5.973-3.86275-.25621,1.07407a3.00149,3.00149,0,0,0-1.11349-.24637c-.79817,0-1.23175.5617-1.23175,1.488,0,1.01495.45327,1.53722,1.30074,1.53722a2.78987,2.78987,0,0,0,1.09378-.25622l.2168,1.09381a3.31686,3.31686,0,0,1-1.419.28574,2.398,2.398,0,0,1-2.58177-2.62117,2.4008,2.4008,0,0,1,2.50292-2.65071,3.79827,3.79827,0,0,1,1.48795.29564Zm2.98978,4.97625c-1.17261,0-1.77371-.64051-1.77371-1.94125V30.757h-.67009V29.673h.67009v-1.0938l1.35983-.069V29.673h1.09381v1.084H57.6055v2.10875c0,.57154.23652.8376.67994.8376a2.3894,2.3894,0,0,0,.52226-.05912l.069,1.0938a3.759,3.759,0,0,1-.85732.08866Z"/><path id="blue-symbol" class="cls-3" d="M20.60888,24.36175c7.19563,0,10.79345-4.79711,14.39127-9.59421H11.12362v9.59421Z"/><path id="yellow-symbol" class="cls-4" d="M49.39142,5.17334c-7.19563,0-10.79345,4.7971-14.39126,9.5942H58.87668V5.17334Z"/></svg>