<svg width="70" height="40" viewBox="0 0 70 40" xmlns="http://www.w3.org/2000/svg"><title>banktransfer-es</title><desc>Created with Sketch.</desc><path d="M6.765 19v-6.05h2.212v-.996h-5.522v.996h2.217v6.05h1.094zm2.693 0h1.05v-3.14c0-.747.562-1.25 1.357-1.25.186 0 .498.034.586.063v-1.035c-.112-.029-.313-.044-.469-.044-.693 0-1.284.381-1.436.903h-.078v-.815h-1.011v5.317zm5.467-.796c-.571 0-.986-.278-.986-.757 0-.469.332-.718 1.064-.767l1.299-.083v.444c0 .659-.586 1.162-1.377 1.162zm-.269.884c.698 0 1.279-.303 1.597-.835h.083v.747h1.011v-3.633c0-1.123-.752-1.787-2.085-1.787-1.206 0-2.065.586-2.173 1.499h1.016c.117-.376.522-.591 1.108-.591.718 0 1.089.317 1.089.879v.459l-1.44.083c-1.265.078-1.978.63-1.978 1.587 0 .972.747 1.592 1.772 1.592zm3.943-.088h1.05v-3.11c0-.83.493-1.348 1.27-1.348.776 0 1.147.425 1.147 1.279v3.179h1.05v-3.442c0-1.265-.654-1.978-1.841-1.978-.801 0-1.328.356-1.587.947h-.078v-.845h-1.011v5.317zm5.628-3.813c0 .791.469 1.245 1.479 1.484l.928.215c.532.127.781.332.781.649 0 .425-.464.718-1.118.718-.635 0-1.025-.254-1.157-.664h-1.05c.093.942.918 1.514 2.183 1.514 1.27 0 2.202-.669 2.202-1.67 0-.781-.474-1.216-1.484-1.45l-.884-.205c-.576-.132-.845-.332-.845-.649 0-.415.444-.693 1.03-.693.596 0 .977.249 1.074.64h1.006c-.103-.938-.884-1.494-2.08-1.494-1.201 0-2.065.664-2.065 1.606zm5.647 3.813h1.05v-4.409h1.172v-.884h-1.187v-.449c0-.522.264-.752.767-.752.176 0 .361.02.464.039v-.84c-.205-.034-.361-.049-.566-.049-1.108 0-1.699.449-1.699 1.533v.518h-.874v.884h.874v4.409zm5.145-4.526c.776 0 1.284.542 1.309 1.377h-2.686c.059-.83.601-1.377 1.377-1.377zm1.304 3.091c-.195.415-.63.645-1.265.645-.84 0-1.382-.591-1.416-1.523v-.059h3.755v-.366c0-1.67-.894-2.681-2.373-2.681-1.499 0-2.451 1.079-2.451 2.778s.933 2.744 2.456 2.744c1.216 0 2.065-.586 2.305-1.538h-1.011zm2.093 1.436h1.05v-3.14c0-.747.562-1.25 1.357-1.25.186 0 .498.034.586.063v-1.035c-.112-.029-.313-.044-.469-.044-.693 0-1.284.381-1.436.903h-.078v-.815h-1.011v5.317zm5.809-4.526c.776 0 1.284.542 1.309 1.377h-2.686c.059-.83.601-1.377 1.377-1.377zm1.304 3.091c-.195.415-.63.645-1.265.645-.84 0-1.382-.591-1.416-1.523v-.059h3.755v-.366c0-1.67-.894-2.681-2.373-2.681-1.499 0-2.451 1.079-2.451 2.778s.933 2.744 2.456 2.744c1.216 0 2.065-.586 2.305-1.538h-1.011zm2.093 1.436h1.05v-3.11c0-.83.493-1.348 1.27-1.348.776 0 1.147.425 1.147 1.279v3.179h1.05v-3.442c0-1.265-.654-1.978-1.841-1.978-.801 0-1.328.356-1.587.947h-.078v-.845h-1.011v5.317zm10.252-3.579c-.137-1.064-.942-1.841-2.275-1.841-1.548 0-2.49 1.04-2.49 2.744 0 1.733.947 2.778 2.495 2.778 1.313 0 2.134-.742 2.271-1.812h-1.021c-.137.571-.591.874-1.255.874-.874 0-1.416-.688-1.416-1.841 0-1.133.537-1.807 1.416-1.807.703 0 1.133.386 1.255.903h1.021zm.975 3.579h1.045v-5.317h-1.045v5.317zm.522-6.25c.391 0 .679-.278.679-.64 0-.366-.288-.645-.679-.645-.391 0-.679.278-.679.645 0 .361.288.64.679.64zm3.563 5.454c-.571 0-.986-.278-.986-.757 0-.469.332-.718 1.064-.767l1.299-.083v.444c0 .659-.586 1.162-1.377 1.162zm-.269.884c.698 0 1.279-.303 1.597-.835h.083v.747h1.011v-3.633c0-1.123-.752-1.787-2.085-1.787-1.206 0-2.065.586-2.173 1.499h1.016c.117-.376.522-.591 1.108-.591.718 0 1.089.317 1.089.879v.459l-1.44.083c-1.265.078-1.978.63-1.978 1.587 0 .972.747 1.592 1.772 1.592zm-54.961 11.912c2.05 0 3.517-1.212 3.517-2.901 0-.946-.609-1.631-1.606-1.809l.025-.108c1.2-.222 2.012-1.168 2.012-2.342 0-1.206-1.028-2-2.596-2h-3.377l-1.949 9.16h3.974zm-.832-7.966h1.663c1.104 0 1.663.375 1.663 1.124 0 .914-.882 1.549-2.152 1.549h-1.758l.584-2.672zm-1.46 6.741l.641-2.952h1.955c1.143 0 1.739.444 1.739 1.289 0 .958-.933 1.663-2.184 1.663h-2.152zm9.202.203c-.717 0-1.219-.394-1.219-.946 0-.641.597-1.06 1.619-1.104l1.682-.076-.159.711c-.184.813-.984 1.416-1.923 1.416zm-.501 1.136c.825 0 1.587-.381 2.038-.997h.108l-.19.882h1.327l.952-4.507c.038-.178.057-.375.057-.559 0-1.193-1.041-1.98-2.615-1.98-1.466 0-2.583.749-2.882 1.942h1.365c.203-.489.705-.755 1.409-.755.851 0 1.358.362 1.358.965l-.038.292-.095.451-1.873.076c-1.923.07-3.009.914-3.009 2.292 0 1.079.895 1.898 2.088 1.898zm4.853-.114h1.377l.889-4.151c.209-.946.889-1.644 1.86-1.644.844 0 1.314.514 1.314 1.257 0 .184-.025.381-.076.609l-.838 3.929h1.377l.882-4.17c.057-.286.089-.559.089-.806 0-1.117-.787-2.05-2.101-2.05-1.009 0-1.663.521-2.101 1.174h-.102l.222-1.06h-1.327l-1.466 6.913zm14.311-4.678l-.025-.292c-.171-1.136-1.238-2.076-2.717-2.076-2.165 0-3.701 1.822-3.701 4.259 0 1.765 1.136 2.92 2.869 2.92 1.625 0 2.831-.952 3.098-2.272h-1.365c-.241.673-.844 1.047-1.631 1.047-.939 0-1.574-.66-1.574-1.841 0-1.638.927-2.895 2.203-2.895.806 0 1.441.463 1.498 1.149h1.346zm2.886 3.656c-.717 0-1.219-.394-1.219-.946 0-.641.597-1.06 1.619-1.104l1.682-.076-.159.711c-.184.813-.984 1.416-1.923 1.416zm-.501 1.136c.825 0 1.587-.381 2.038-.997h.108l-.19.882h1.327l.952-4.507c.038-.178.057-.375.057-.559 0-1.193-1.041-1.98-2.615-1.98-1.466 0-2.583.749-2.882 1.942h1.365c.203-.489.705-.755 1.409-.755.851 0 1.358.362 1.358.965l-.038.292-.095.451-1.873.076c-1.923.07-3.009.914-3.009 2.292 0 1.079.895 1.898 2.088 1.898zm4.809-.114h1.377l.844-3.967c.26-1.181.87-1.739 1.904-1.739.267 0 .711.057.933.127l.286-1.333c-.159-.07-.514-.114-.838-.114-.781 0-1.371.343-1.796 1.022h-.108l.19-.908h-1.32l-1.473 6.913zm5.095 0h1.365l1.466-6.913h-1.365l-1.466 6.913zm2.596-8.125c.508 0 .876-.375.876-.844 0-.463-.368-.825-.876-.825s-.882.375-.882.844c0 .463.375.825.882.825zm3.133 7.103c-.717 0-1.219-.394-1.219-.946 0-.641.597-1.06 1.619-1.104l1.682-.076-.159.711c-.184.813-.984 1.416-1.923 1.416zm-.501 1.136c.825 0 1.587-.381 2.038-.997h.108l-.19.882h1.327l.952-4.507c.038-.178.057-.375.057-.559 0-1.193-1.041-1.98-2.615-1.98-1.466 0-2.583.749-2.882 1.942h1.365c.203-.489.705-.755 1.409-.755.851 0 1.358.362 1.358.965l-.038.292-.095.451-1.873.076c-1.923.07-3.009.914-3.009 2.292 0 1.079.895 1.898 2.088 1.898z" fill="#18799F"/></svg>