<svg width="70" height="40" viewBox="0 0 70 40" xmlns="http://www.w3.org/2000/svg"><title>banktransfer-fr</title><desc>Created with Sketch.</desc><path d="M11.688 19l3.507-9.864h-1.627l-2.646 7.95h-.116l-2.659-7.95h-1.668l3.527 9.864h1.682zm4.741 0h1.463v-7.444h-1.463v7.444zm.731-8.75c.547 0 .95-.39.95-.896 0-.513-.403-.902-.95-.902-.547 0-.95.39-.95.902 0 .506.403.896.95.896zm2.554 8.75h1.47v-4.396c0-1.046.786-1.75 1.9-1.75.26 0 .697.048.82.089v-1.449c-.157-.041-.438-.062-.656-.062-.971 0-1.798.533-2.01 1.265h-.109v-1.142h-1.415v7.444zm8.132-6.337c1.087 0 1.798.759 1.832 1.928h-3.76c.082-1.162.841-1.928 1.928-1.928zm1.825 4.327c-.273.581-.882.902-1.771.902-1.176 0-1.935-.827-1.982-2.133v-.082h5.257v-.513c0-2.338-1.251-3.753-3.322-3.753-2.099 0-3.432 1.511-3.432 3.89 0 2.379 1.306 3.842 3.438 3.842 1.702 0 2.892-.82 3.227-2.153h-1.415zm2.93 2.01h1.47v-4.553c0-.957.677-1.688 1.572-1.688.875 0 1.436.513 1.436 1.354v4.888h1.442v-4.683c0-.875.622-1.559 1.572-1.559.964 0 1.442.492 1.442 1.497v4.744h1.47v-5.127c0-1.552-.875-2.461-2.379-2.461-1.032 0-1.887.526-2.263 1.34h-.116c-.328-.813-1.032-1.34-2.051-1.34-.991 0-1.743.499-2.071 1.34h-.109v-1.196h-1.415v7.444zm15.187-6.337c1.087 0 1.798.759 1.832 1.928h-3.76c.082-1.162.841-1.928 1.928-1.928zm1.825 4.327c-.273.581-.882.902-1.771.902-1.176 0-1.935-.827-1.982-2.133v-.082h5.257v-.513c0-2.338-1.251-3.753-3.322-3.753-2.099 0-3.432 1.511-3.432 3.89 0 2.379 1.306 3.842 3.438 3.842 1.702 0 2.892-.82 3.227-2.153h-1.415zm2.93 2.01h1.47v-4.354c0-1.162.69-1.887 1.777-1.887s1.606.595 1.606 1.791v4.45h1.47v-4.819c0-1.771-.916-2.769-2.577-2.769-1.121 0-1.859.499-2.222 1.326h-.109v-1.183h-1.415v7.444zm8.57-9.297v1.887h-1.183v1.237h1.183v4.204c0 1.436.649 2.01 2.283 2.01.287 0 .561-.034.8-.075v-1.224c-.205.021-.335.034-.561.034-.731 0-1.053-.342-1.053-1.121v-3.828h1.613v-1.237h-1.613v-1.887h-1.47zm-50.048 21.297c2.208 0 3.787-1.306 3.787-3.124 0-1.019-.656-1.757-1.729-1.948l.027-.116c1.292-.239 2.167-1.258 2.167-2.522 0-1.299-1.107-2.153-2.796-2.153h-3.637l-2.099 9.864h4.279zm-.896-8.579h1.791c1.189 0 1.791.403 1.791 1.21 0 .984-.95 1.668-2.317 1.668h-1.894l.629-2.878zm-1.572 7.26l.69-3.179h2.105c1.23 0 1.873.479 1.873 1.388 0 1.032-1.005 1.791-2.352 1.791h-2.317zm9.909.219c-.772 0-1.313-.424-1.313-1.019 0-.69.643-1.142 1.743-1.189l1.812-.082-.171.766c-.198.875-1.06 1.524-2.071 1.524zm-.54 1.224c.889 0 1.709-.41 2.194-1.073h.116l-.205.95h1.429l1.025-4.854c.041-.191.062-.403.062-.602 0-1.285-1.121-2.133-2.816-2.133-1.579 0-2.782.807-3.104 2.092h1.47c.219-.526.759-.813 1.518-.813.916 0 1.463.39 1.463 1.039l-.041.314-.103.485-2.017.082c-2.071.075-3.24.984-3.24 2.468 0 1.162.964 2.044 2.249 2.044zm5.227-.123h1.483l.957-4.471c.226-1.019.957-1.771 2.003-1.771.909 0 1.415.554 1.415 1.354 0 .198-.027.41-.082.656l-.902 4.231h1.483l.95-4.491c.062-.308.096-.602.096-.868 0-1.203-.848-2.208-2.263-2.208-1.087 0-1.791.561-2.263 1.265h-.109l.239-1.142h-1.429l-1.579 7.444zm15.412-5.038l-.027-.314c-.185-1.224-1.333-2.235-2.926-2.235-2.331 0-3.985 1.962-3.985 4.587 0 1.9 1.224 3.145 3.09 3.145 1.75 0 3.049-1.025 3.336-2.447h-1.47c-.26.725-.909 1.128-1.757 1.128-1.012 0-1.695-.711-1.695-1.982 0-1.764.998-3.117 2.372-3.117.868 0 1.552.499 1.613 1.237h1.449zm3.108 3.938c-.772 0-1.313-.424-1.313-1.019 0-.69.643-1.142 1.743-1.189l1.812-.082-.171.766c-.198.875-1.06 1.524-2.071 1.524zm-.54 1.224c.889 0 1.709-.41 2.194-1.073h.116l-.205.95h1.429l1.025-4.854c.041-.191.062-.403.062-.602 0-1.285-1.121-2.133-2.816-2.133-1.579 0-2.782.807-3.104 2.092h1.47c.219-.526.759-.813 1.518-.813.916 0 1.463.39 1.463 1.039l-.041.314-.103.485-2.017.082c-2.071.075-3.24.984-3.24 2.468 0 1.162.964 2.044 2.249 2.044zm5.309-.123h1.47l1.579-7.444h-1.47l-1.579 7.444zm2.796-8.75c.547 0 .943-.403.943-.909 0-.499-.396-.889-.943-.889-.547 0-.95.403-.95.909 0 .499.403.889.95.889zm.469 8.75h1.483l.909-4.272c.28-1.271.937-1.873 2.051-1.873.287 0 .766.062 1.005.137l.308-1.436c-.171-.075-.554-.123-.902-.123-.841 0-1.477.369-1.935 1.101h-.116l.205-.978h-1.422l-1.586 7.444zm8.747.144c1.771 0 2.987-.902 3.309-2.146h-1.49c-.28.526-.827.861-1.723.861-.875 0-1.75-.561-1.75-1.928l.007-.301h5.298c.048-.314.096-.861.096-1.162-.007-1.921-1.319-3.056-2.939-3.056-2.304 0-3.924 1.846-3.924 4.58 0 2.01 1.36 3.151 3.117 3.151zm-1.47-4.594c.314-1.128 1.121-1.887 2.181-1.887 1.025 0 1.579.725 1.579 1.593l-.021.294h-3.739z" fill="#18799F"/></svg>