<svg id="Layer_1" data-name="Layer 1" xmlns="http://www.w3.org/2000/svg" xmlns:xlink="http://www.w3.org/1999/xlink" viewBox="0 0 405.52 74.26"><defs><style>.cls-1,.cls-2{fill:none;}.cls-2{stroke:#1d1d1b;stroke-linecap:round;stroke-miterlimit:10;}.cls-3{clip-path:url(#clip-path);}.cls-4{fill:#e30613;}.cls-5{font-size:34px;fill:#808b94;font-family:SantanderHeadline-Bold, Santander Headline;font-weight:700;}.cls-6{letter-spacing:-0.03em;}</style><clipPath id="clip-path" transform="translate(-101.32 -139.89)"><rect class="cls-1" width="1254.04" height="792"/></clipPath></defs><title>SANT_Pay per Month logo</title><line class="cls-2" x1="243.3" y1="4.48" x2="243.3" y2="66.96"/><g class="cls-3"><path class="cls-4" d="M189.14,196.7l-1.11-.37c-1.45-.5-2.37-.9-2.37-2.21,0-1.15.92-1.74,2.73-1.74a10,10,0,0,1,3.43.59,6.19,6.19,0,0,0,.23-1.39,10.32,10.32,0,0,0-3.71-.61c-2.65,0-4.25,1.11-4.25,3.2,0,1.87,1.15,2.93,3.24,3.56l1.08.33c1.13.36,2.42.85,2.42,2.26s-1.1,1.9-2.91,1.9a8.13,8.13,0,0,1-3.83-.92,4.61,4.61,0,0,0-.23,1.44,8.13,8.13,0,0,0,4.1.91c2.82,0,4.47-1.24,4.47-3.38s-1.44-2.93-3.29-3.57m6.41-18.87h3.82V166.18c0-4.2-2.05-6.66-8.43-6.66a32.33,32.33,0,0,0-6.93,1v17.34h3.81V163.05a19.54,19.54,0,0,1,3-.27c3.81,0,4.71,1.32,4.71,4.05Zm7.21,23.07a4.74,4.74,0,0,1-3.34,1.34c-2.11,0-3.1-1-3.1-3.47v-7.52h-1.64v7.85c0,3.12,1.5,4.55,4.23,4.55a5.14,5.14,0,0,0,3.89-1.34l0,1.06h1.55V191.25h-1.64Zm9.71-23.21a31.37,31.37,0,0,0,.45-3.23,8.67,8.67,0,0,1-3,.52c-1.83,0-2.94-.86-2.94-3.12v-8.49h5.68a28.09,28.09,0,0,0,.35-3.26h-6v-6.56a13.28,13.28,0,0,0-3.82.56v18.2c0,4.23,2.36,5.93,6.07,5.93a8.77,8.77,0,0,0,3.22-.55M127.78,160a8,8,0,0,0-1.07-3.66l-5.78-10a8,8,0,0,1-.91-2.42l-.24.42a8,8,0,0,0,0,8l4.62,8a8,8,0,0,1,0,8l-.24.41a8.08,8.08,0,0,0-.91-2.42L119,159l-2.7-4.68a8,8,0,0,1-.91-2.42l-.25.42a8,8,0,0,0,0,8l4.64,8a8,8,0,0,1,0,8l-.24.42a8.11,8.11,0,0,0-.92-2.42l-5.78-10a8,8,0,0,1-1.06-4.35c-6.19,1.62-10.46,5.05-10.46,9,0,5.53,8.26,10,18.46,10s18.46-4.48,18.46-10c0-4-4.27-7.4-10.46-9m24.43,14.94a16.26,16.26,0,0,1-6.35-1.35,11.72,11.72,0,0,0-.65,3.5,16.67,16.67,0,0,0,7.1,1.32c5.9,0,8.92-2.74,8.92-6.73,0-3.36-1.84-5.34-6.25-7.21l-1.87-.8c-2.42-1-3.78-2.08-3.78-3.88s1.39-3,4.41-3a17.67,17.67,0,0,1,5.68,1,13.45,13.45,0,0,0,.7-3.47,19.12,19.12,0,0,0-6.35-1c-5.62,0-8.36,2.53-8.36,6.48,0,3.68,2.22,5.51,5.48,6.94l1.77.76c3.26,1.42,4.58,2.36,4.58,4.37s-1.8,3.08-5,3.08M176.08,191a17.61,17.61,0,0,0-4.41.66v11.74h1.64V192.76a12.41,12.41,0,0,1,2.73-.33c2.89,0,3.71,1.13,3.71,3.31v7.63h1.64v-7.94c0-2.84-1.34-4.46-5.31-4.46M220,191a9.6,9.6,0,0,0-4.11,1,5.68,5.68,0,0,0-3.69-1,18,18,0,0,0-4.62.66v11.74h1.64V192.76a13,13,0,0,1,2.82-.33c2.51,0,3.45.94,3.45,3.22v7.72h1.64v-7.94a5.93,5.93,0,0,0-.4-2.32,8,8,0,0,1,3.12-.68c2.42,0,3.46,1.13,3.46,3.26v7.68H225v-7.94c0-2.84-1.41-4.46-4.95-4.46m61.84-12.73a13.06,13.06,0,0,0,5.61-1.11c.25-1.14.46-2.46.59-3.47A14.78,14.78,0,0,1,282,175c-3.4,0-5.2-1.49-5.68-4.57h12.16a20.28,20.28,0,0,0,.21-2.95c0-4.37-2.35-7.94-7.8-7.94-6.07,0-8.46,4.09-8.46,9.26,0,5.92,3.09,9.46,9.47,9.46m-1.22-15.53c2.64,0,4.16,1.66,4.16,4.51h-8.59c.31-2.95,1.73-4.51,4.43-4.51M153,188.37a9.31,9.31,0,0,1,3.21.56,5.93,5.93,0,0,0,.29-1.57,9.85,9.85,0,0,0-3.5-.57c-4.93,0-7.77,3.1-7.77,8.46,0,5.09,2.7,8.45,7.6,8.45a9.79,9.79,0,0,0,3.27-.49,10.19,10.19,0,0,0,.26-1.74,8.57,8.57,0,0,1-3.31.66c-3.71,0-6.11-2.56-6.11-6.95s2.4-6.81,6.06-6.81m10.54,2.6c-3.64,0-5.8,2.44-5.8,6.41,0,3.62,1.9,6.27,5.66,6.27s5.82-2.44,5.82-6.46c0-3.56-1.87-6.22-5.68-6.22m-.05,11.2c-2.67,0-4.08-1.76-4.08-4.9,0-2.89,1.34-4.82,4.08-4.82s4.07,1.79,4.07,4.86-1.34,4.86-4.07,4.86m12.67-26.42.2,2.08h3.51V160.49a19.58,19.58,0,0,0-6.56-1c-6.41,0-9.67,3.47-9.67,9.57,0,5.82,3,9.15,7.63,9.15a5.35,5.35,0,0,0,4.89-2.49m-8.64-6.66c0-3.89,1.84-6.31,5.79-6.31A15.58,15.58,0,0,1,176,163v10.88a5.92,5.92,0,0,1-3.71,1.25c-3.4,0-4.82-2.5-4.82-6m101.77-15.54a11.75,11.75,0,0,0-3.78.52v5.73a14.4,14.4,0,0,0-2.84-.28c-6.42,0-9.68,3.47-9.68,9.57,0,5.82,3.06,9.15,7.63,9.15a5.25,5.25,0,0,0,5-2.63l.21,2.22h3.5Zm-3.78,20.25a6.1,6.1,0,0,1-3.81,1.32c-3.4,0-4.82-2.5-4.82-6,0-4,1.8-6.31,5.58-6.31a15.83,15.83,0,0,1,3.05.34ZM272.14,191a17.61,17.61,0,0,0-4.41.66v11.74h1.64V192.76a12.41,12.41,0,0,1,2.73-.33c2.88,0,3.71,1.13,3.71,3.31v7.63h1.64v-7.94c0-2.84-1.34-4.46-5.31-4.46m23.62-28a19,19,0,0,1,2.81-.21,23.34,23.34,0,0,1,2.88.14,14.18,14.18,0,0,0,.34-3.26,29.37,29.37,0,0,0-3.32-.14,23,23,0,0,0-6.52,1v17.34h3.81Zm-15.89,34.42c0,4,2.07,6.24,5.4,6.24a4.73,4.73,0,0,0,3.19-1.2l.05.92H290V191.63a10.62,10.62,0,0,0-3.92-.66c-4.2,0-6.24,2.3-6.24,6.44m8.52,3.68a4.14,4.14,0,0,1-3,1.2c-2.56,0-3.88-1.85-3.88-4.88s1.44-5,4.58-5a8.53,8.53,0,0,1,2.28.28Zm37.52-4.67c0-3-1.5-5.45-5-5.45-3.85,0-5.43,2.77-5.43,6.27,0,4,2.07,6.41,6,6.41a7.18,7.18,0,0,0,3.74-.89,15.74,15.74,0,0,0,.25-1.57,8,8,0,0,1-3.94,1c-2.68,0-4.16-1.51-4.37-4.32h8.69a10,10,0,0,0,.09-1.46m-1.64,0h-7.14c.19-2.45,1.34-4,3.69-4s3.45,1.58,3.45,3.9ZM297.64,191a17.61,17.61,0,0,0-4.41.66v11.74h1.64V192.76a12.48,12.48,0,0,1,2.73-.33c2.88,0,3.71,1.13,3.71,3.31v7.63H303v-7.94c0-2.84-1.34-4.46-5.31-4.46m13.83,1.46a6.46,6.46,0,0,1,2.61.54,11.18,11.18,0,0,0,.19-1.43,6.85,6.85,0,0,0-2.8-.57c-4.18,0-6.19,2.54-6.19,6.39,0,4,2.27,6.29,5.72,6.29a5.21,5.21,0,0,0,3-.82,15.83,15.83,0,0,0,.21-1.57,5.64,5.64,0,0,1-3.1.94c-2.41,0-4.2-1.53-4.2-4.89,0-3.07,1.53-4.88,4.53-4.88m-71.14-.8v11.74H242V192.69a11.34,11.34,0,0,1,2.3-.26,14.41,14.41,0,0,1,1.81.09,6,6,0,0,0,.16-1.41,16.48,16.48,0,0,0-2-.09,13.61,13.61,0,0,0-3.89.61m-9.93-31.14a19.52,19.52,0,0,0-6.55-1c-6.42,0-9.68,3.47-9.68,9.57,0,5.82,3.05,9.15,7.63,9.15a5.32,5.32,0,0,0,4.89-2.49l.21,2.08h3.5Zm-3.81,13.38a5.94,5.94,0,0,1-3.71,1.25c-3.4,0-4.82-2.5-4.82-6,0-3.89,1.83-6.31,5.79-6.31a15.66,15.66,0,0,1,2.74.21Zm14.91-14.35a32.49,32.49,0,0,0-6.94,1v17.34h3.82V163.05a19.41,19.41,0,0,1,3-.27c3.82,0,4.72,1.32,4.72,4.05v11h3.81V166.18c0-4.2-2-6.66-8.42-6.66M232.72,191c-3.85,0-5.43,2.77-5.43,6.27,0,4,2.07,6.41,6,6.41a7.18,7.18,0,0,0,3.74-.89c.11-.52.21-1.15.26-1.57a8.07,8.07,0,0,1-3.95,1c-2.68,0-4.16-1.51-4.37-4.32h8.69a10,10,0,0,0,.09-1.46c0-3-1.5-5.45-5-5.45m3.38,5.43H229c.19-2.45,1.34-4,3.69-4s3.45,1.58,3.45,3.9Zm15.31,7h1.64V196h6.77c.07-.44.14-1.15.16-1.57h-6.93v-5.71h7.4a14.59,14.59,0,0,0,.19-1.57h-9.23Zm11.48,0h1.65V191.25h-1.65Zm.82-16.2a1.07,1.07,0,0,0-1.1,1.1,1.05,1.05,0,0,0,1.1,1.08,1,1,0,0,0,1.08-1.08,1.05,1.05,0,0,0-1.08-1.1" transform="translate(-101.32 -139.89)"/></g><text class="cls-5" transform="translate(258.95 28.76)">Pay</text><text class="cls-5" transform="translate(258.95 63.75)">pe<tspan class="cls-6" x="35.12" y="0">r</tspan><tspan x="46.14" y="0" xml:space="preserve"> Month</tspan></text></svg>