<?xml version="1.0" encoding="utf-8"?>
<!-- Generator: Adobe Illustrator 27.1.0, SVG Export Plug-In . SVG Version: 6.00 Build 0)  -->
<svg version="1.1" id="Layer_1" xmlns="http://www.w3.org/2000/svg" xmlns:xlink="http://www.w3.org/1999/xlink" x="0px" y="0px"
	 viewBox="0 0 405.5 74.3" style="enable-background:new 0 0 405.5 74.3;" xml:space="preserve">
<style type="text/css">
	.st0{fill:none;stroke:#1D1D1B;stroke-linecap:round;stroke-miterlimit:10;}
	.st1{clip-path:url(#SVGID_00000143584088581741793840000008489519903260821439_);}
	.st2{fill:#E30613;}
	.st3{enable-background:new    ;}
	.st4{fill:#808B94;}
</style>
<line class="st0" x1="243.3" y1="4.5" x2="243.3" y2="67"/>
<g>
	<defs>
		<rect id="SVGID_1_" x="-101.3" y="-139.9" width="1254" height="792"/>
	</defs>
	<clipPath id="SVGID_00000178193783671167306270000010633541264981371801_">
		<use xlink:href="#SVGID_1_"  style="overflow:visible;"/>
	</clipPath>
	<g style="clip-path:url(#SVGID_00000178193783671167306270000010633541264981371801_);">
		<path class="st2" d="M87.8,56.8l-1.1-0.4c-1.4-0.5-2.4-0.9-2.4-2.2c0-1.1,0.9-1.7,2.7-1.7c1.2,0,2.3,0.2,3.4,0.6
			c0.1-0.5,0.2-0.9,0.2-1.4c-1.2-0.4-2.4-0.6-3.7-0.6c-2.6,0-4.2,1.1-4.2,3.2c0,1.9,1.1,2.9,3.2,3.6l1.1,0.3
			c1.1,0.4,2.4,0.9,2.4,2.3s-1.1,1.9-2.9,1.9c-1.3,0-2.6-0.3-3.8-0.9c-0.2,0.5-0.2,1-0.2,1.4c1.3,0.7,2.7,1,4.1,0.9
			c2.8,0,4.5-1.2,4.5-3.4S89.7,57.4,87.8,56.8 M94.2,37.9h3.8V26.3c0-4.2-2.1-6.7-8.4-6.7c-2.3,0.1-4.7,0.4-6.9,1V38h3.8V23.2
			c1-0.2,2-0.3,3-0.3c3.8,0,4.7,1.3,4.7,4.1L94.2,37.9z M101.4,61c-0.9,0.9-2.1,1.3-3.3,1.3c-2.1,0-3.1-1-3.1-3.5v-7.5h-1.6v7.9
			c0,3.1,1.5,4.6,4.2,4.6c1.4,0.1,2.8-0.4,3.9-1.3v1.1h1.6V51.4h-1.6L101.4,61z M111.2,37.8c0.2-1.1,0.4-2.1,0.4-3.2
			c-1,0.3-2,0.5-3,0.5c-1.8,0-2.9-0.9-2.9-3.1v-8.5h5.7c0.2-1.1,0.3-2.2,0.4-3.3h-6v-6.6c-1.3,0-2.6,0.2-3.8,0.6v18.2
			c0,4.2,2.4,5.9,6.1,5.9C109,38.4,110.1,38.2,111.2,37.8 M26.5,20.1c-0.1-1.3-0.4-2.5-1.1-3.7l-5.8-10c-0.4-0.8-0.7-1.6-0.9-2.4
			l-0.2,0.4c-1.4,2.5-1.4,5.5,0,8l4.6,8c1.4,2.5,1.4,5.5,0,8l-0.2,0.4c-0.2-0.9-0.5-1.7-0.9-2.4l-4.2-7.3L15,14.4
			c-0.4-0.8-0.7-1.6-0.9-2.4l-0.2,0.4c-1.4,2.5-1.4,5.5,0,8l4.6,8c1.4,2.5,1.4,5.5,0,8l-0.2,0.4c-0.2-0.9-0.5-1.7-0.9-2.4l-5.8-10
			c-0.8-1.3-1.1-2.8-1.1-4.4C4.3,21.7,0,25.1,0,29.1c0,5.5,8.3,10,18.5,10s18.5-4.5,18.5-10C36.9,25.1,32.7,21.7,26.5,20.1 M50.9,35
			c-2.2,0-4.3-0.5-6.4-1.4c-0.4,1.1-0.6,2.3-0.6,3.5c2.2,1,4.7,1.4,7.1,1.3c5.9,0,8.9-2.7,8.9-6.7c0-3.4-1.8-5.3-6.2-7.2l-1.9-0.8
			c-2.4-1-3.8-2.1-3.8-3.9s1.4-3,4.4-3c1.9,0,3.9,0.4,5.7,1c0.4-1.1,0.6-2.3,0.7-3.5c-2-0.7-4.2-1-6.4-1c-5.6,0-8.4,2.5-8.4,6.5
			c0,3.7,2.2,5.5,5.5,6.9l1.8,0.8c3.3,1.4,4.6,2.4,4.6,4.4S54.1,35,50.9,35 M74.8,51.1c-1.5,0-3,0.3-4.4,0.7v11.7H72V52.9
			c0.9-0.2,1.8-0.3,2.7-0.3c2.9,0,3.7,1.1,3.7,3.3v7.6h1.6v-7.9C80.1,52.7,78.7,51.1,74.8,51.1 M118.7,51.1c-1.4,0-2.8,0.4-4.1,1
			c-1.1-0.7-2.4-1.1-3.7-1c-1.6,0-3.1,0.2-4.6,0.7v11.7h1.6V52.9c0.9-0.2,1.9-0.3,2.8-0.3c2.5,0,3.4,0.9,3.4,3.2v7.7h1.6v-7.9
			c0-0.8-0.1-1.6-0.4-2.3c1-0.4,2-0.7,3.1-0.7c2.4,0,3.5,1.1,3.5,3.3v7.7h1.7v-7.9C123.7,52.7,122.3,51.1,118.7,51.1 M180.6,38.3
			c1.9,0,3.8-0.3,5.6-1.1c0.2-1.1,0.5-2.5,0.6-3.5c-1.9,0.9-4,1.3-6.1,1.3c-3.4,0-5.2-1.5-5.7-4.6h12.2c0.1-1,0.2-2,0.2-2.9
			c0-4.4-2.4-7.9-7.8-7.9c-6.1,0-8.5,4.1-8.5,9.3C171.1,34.8,174.2,38.4,180.6,38.3 M179.4,22.8c2.6,0,4.2,1.7,4.2,4.5h-8.6
			C175.2,24.4,176.7,22.8,179.4,22.8 M51.7,48.5c1.1,0,2.2,0.2,3.2,0.6c0.2-0.5,0.3-1,0.3-1.6c-1.1-0.4-2.3-0.6-3.5-0.6
			c-4.9,0-7.8,3.1-7.8,8.5c0,5.1,2.7,8.4,7.6,8.4c1.1,0,2.2-0.1,3.3-0.5c0.1-0.6,0.2-1.2,0.3-1.7c-1,0.4-2.2,0.7-3.3,0.7
			c-3.7,0-6.1-2.6-6.1-6.9S48,48.5,51.7,48.5 M62.2,51.1c-3.6,0-5.8,2.4-5.8,6.4c0,3.6,1.9,6.3,5.7,6.3s5.8-2.4,5.8-6.5
			C67.9,53.7,66,51.1,62.2,51.1 M62.2,62.3c-2.7,0-4.1-1.8-4.1-4.9c0-2.9,1.3-4.8,4.1-4.8s4.1,1.8,4.1,4.9S64.9,62.3,62.2,62.3
			 M74.8,35.9l0.2,2.1h3.5V20.6c-2.1-0.7-4.3-1-6.6-1c-6.4,0-9.7,3.5-9.7,9.6c0,5.8,3,9.1,7.6,9.1C71.9,38.5,73.8,37.5,74.8,35.9
			 M66.2,29.2c0-3.9,1.8-6.3,5.8-6.3c0.9,0,1.8,0.1,2.7,0.3V34c-1.1,0.8-2.4,1.3-3.7,1.2C67.6,35.2,66.1,32.7,66.2,29.2 M167.9,13.7
			c-1.3,0-2.6,0.1-3.8,0.5V20c-0.9-0.2-1.9-0.3-2.8-0.3c-6.4,0-9.7,3.5-9.7,9.6c0,5.8,3.1,9.1,7.6,9.1c2,0.2,4-0.9,5-2.6l0.2,2.2
			h3.5L167.9,13.7z M164.1,34c-1.1,0.9-2.4,1.3-3.8,1.3c-3.4,0-4.8-2.5-4.8-6c0-4,1.8-6.3,5.6-6.3c1,0,2,0.1,3,0.3L164.1,34z
			 M170.8,51.1c-1.5,0-3,0.3-4.4,0.7v11.7h1.6V52.9c0.9-0.2,1.8-0.3,2.7-0.3c2.9,0,3.7,1.1,3.7,3.3v7.6h1.6v-7.9
			C176.1,52.7,174.8,51.1,170.8,51.1 M194.4,23.1c0.9-0.1,1.9-0.2,2.8-0.2c1,0,1.9,0,2.9,0.1c0.2-1.1,0.4-2.2,0.3-3.3
			c-1.1-0.1-2.2-0.2-3.3-0.1c-2.2,0-4.4,0.4-6.5,1v17.3h3.8V23.1z M178.6,57.5c0,4,2.1,6.2,5.4,6.2c1.2,0,2.3-0.4,3.2-1.2l0,0.9h1.5
			V51.7c-1.3-0.5-2.6-0.7-3.9-0.7C180.6,51.1,178.5,53.4,178.6,57.5 M187,61.2c-0.8,0.8-1.9,1.2-3,1.2c-2.6,0-3.9-1.9-3.9-4.9
			s1.4-5,4.6-5c0.8,0,1.5,0.1,2.3,0.3L187,61.2z M224.6,56.5c0-3-1.5-5.4-5-5.4c-3.9,0-5.4,2.8-5.4,6.3c0,4,2.1,6.4,6,6.4
			c1.3,0,2.6-0.3,3.7-0.9c0.1-0.5,0.2-1,0.2-1.6c-1.2,0.7-2.6,1-3.9,1c-2.7,0-4.2-1.5-4.4-4.3h8.7C224.6,57.5,224.6,57,224.6,56.5
			 M222.9,56.5h-7.1c0.2-2.4,1.3-4,3.7-4s3.5,1.6,3.5,3.9V56.5z M196.3,51.1c-1.5,0-3,0.3-4.4,0.7v11.7h1.6V52.9
			c0.9-0.2,1.8-0.3,2.7-0.3c2.9,0,3.7,1.1,3.7,3.3v7.6h1.7v-7.9C201.7,52.7,200.3,51.1,196.3,51.1 M210.2,52.5
			c0.9,0,1.8,0.2,2.6,0.5c0.1-0.5,0.2-0.9,0.2-1.4c-0.9-0.4-1.8-0.6-2.8-0.6c-4.2,0-6.2,2.5-6.2,6.4c0,4,2.3,6.3,5.7,6.3
			c1.1,0,2.1-0.2,3-0.8c0.1-0.5,0.2-1,0.2-1.6c-0.9,0.6-2,0.9-3.1,0.9c-2.4,0-4.2-1.5-4.2-4.9C205.6,54.3,207.2,52.5,210.2,52.5
			 M139,51.7v11.7h1.7V52.8c0.8-0.2,1.5-0.3,2.3-0.3c0.6,0,1.2,0,1.8,0.1c0.1-0.5,0.2-0.9,0.2-1.4c-0.7-0.1-1.3-0.1-2-0.1
			C141.6,51.1,140.3,51.3,139,51.7 M129.1,20.6c-2.1-0.7-4.3-1-6.5-1c-6.4,0-9.7,3.5-9.7,9.6c0,5.8,3.1,9.1,7.6,9.1
			c2,0.1,3.8-0.8,4.9-2.5l0.2,2.1h3.5V20.6z M125.3,34c-1.1,0.8-2.4,1.3-3.7,1.2c-3.4,0-4.8-2.5-4.8-6c0-3.9,1.8-6.3,5.8-6.3
			c0.9,0,1.8,0.1,2.7,0.2L125.3,34z M140.2,19.6c-2.3,0.1-4.7,0.4-6.9,1V38h3.8V23.2c1-0.2,2-0.3,3-0.3c3.8,0,4.7,1.3,4.7,4.1v11
			h3.8V26.3C148.6,22.1,146.6,19.6,140.2,19.6 M131.4,51.1c-3.8,0-5.4,2.8-5.4,6.3c0,4,2.1,6.4,6,6.4c1.3,0,2.6-0.3,3.7-0.9
			c0.1-0.5,0.2-1.1,0.3-1.6c-1.2,0.7-2.6,1-3.9,1c-2.7,0-4.2-1.5-4.4-4.3h8.7c0.1-0.5,0.1-1,0.1-1.5
			C136.4,53.5,134.9,51.1,131.4,51.1 M134.8,56.5h-7.1c0.2-2.4,1.3-4,3.7-4s3.5,1.6,3.5,3.9L134.8,56.5z M150.1,63.5h1.6v-7.4h6.8
			c0.1-0.4,0.1-1.1,0.2-1.6h-6.9v-5.7h7.4c0.1-0.5,0.2-1,0.2-1.6h-9.2V63.5z M161.6,63.5h1.6V51.4h-1.6V63.5z M162.4,47.3
			c-0.6,0-1.1,0.4-1.1,1c0,0,0,0,0,0.1c0,0.6,0.4,1.1,1,1.1c0,0,0.1,0,0.1,0c0.6,0,1-0.4,1.1-0.9c0-0.1,0-0.1,0-0.2
			C163.5,47.9,163.1,47.4,162.4,47.3C162.5,47.3,162.4,47.3,162.4,47.3"/>
	</g>
</g>
<g class="st3">
	<path class="st4" d="M275.2,6.8c1.5,1.5,2.3,3.4,2.3,5.8c0,1.7-0.4,3.1-1.1,4.4c-0.7,1.2-1.8,2.2-3.1,2.9c-1.4,0.7-3,1-5,1h-2.5
		v7.8h-4.4V5.2c0.9-0.2,2-0.3,3.2-0.4c1.2-0.1,2.3-0.2,3.3-0.2C271.3,4.7,273.7,5.4,275.2,6.8z M271.8,16.1c0.8-0.8,1.2-1.9,1.2-3.3
		c0-1.5-0.4-2.6-1.1-3.3c-0.8-0.8-2-1.2-3.7-1.2c-0.8,0-1.5,0-2.3,0.1v8.9h2.4C269.8,17.3,271,16.9,271.8,16.1z"/>
	<path class="st4" d="M294,12.2v16.5h-4l-0.3-2.4c-0.9,1.9-2.3,2.8-4.2,2.8c-2,0-3.6-0.7-4.7-2.2s-1.7-3.6-1.7-6.6
		c0-2.9,0.7-5.1,2-6.7c1.4-1.6,3.5-2.3,6.6-2.3C289.9,11.4,292,11.7,294,12.2z M289.7,24.5v-9.5c-0.6-0.1-1.3-0.2-2.1-0.2
		c-1.5,0-2.6,0.5-3.2,1.4s-0.9,2.3-0.9,4c0,1.9,0.3,3.2,0.9,4.1c0.6,0.9,1.4,1.3,2.5,1.3C288,25.7,288.9,25.3,289.7,24.5z"/>
	<path class="st4" d="M312.2,11.8l-6.1,18.5c-0.6,1.9-1.5,3.4-2.7,4.5s-2.7,1.6-4.5,1.6c-0.6,0-1.2-0.1-1.7-0.2
		c0-1.3,0.1-2.5,0.2-3.5c0.5,0.1,0.8,0.1,1.1,0.1c0.9,0,1.7-0.2,2.3-0.7c0.6-0.5,1.1-1.3,1.5-2.4l-6.7-17.9h4.5l4.1,12.8l3.7-12.8
		H312.2z"/>
</g>
<g class="st3">
	<path class="st4" d="M273.8,48.6c1.4,1.5,2.1,3.6,2.1,6.4c0,1.9-0.3,3.5-1,4.8c-0.6,1.4-1.6,2.4-2.9,3.2c-1.3,0.7-2.9,1.1-4.9,1.1
		c-0.7,0-1.3,0-2-0.1V71h-4.4V47.7c1-0.4,2.1-0.8,3.3-1c1.2-0.2,2.3-0.4,3.5-0.4C270.3,46.4,272.3,47.1,273.8,48.6z M270.5,59.2
		c0.7-1,1-2.3,1-4c0-1.8-0.3-3.1-1-4c-0.7-0.9-1.7-1.3-3.2-1.3c-0.7,0-1.5,0.1-2.2,0.3v10.2c0.7,0.1,1.4,0.2,2.1,0.2
		C268.7,60.6,269.8,60.1,270.5,59.2z"/>
	<path class="st4" d="M292.7,55.5c0,0.5-0.1,0.9-0.1,1.3h-10.5c0.2,1.5,0.7,2.5,1.5,3.1c0.8,0.6,1.9,0.9,3.4,0.9
		c1.8,0,3.6-0.4,5.3-1.3c-0.1,1.4-0.3,2.5-0.5,3.6c-1.5,0.7-3.2,1.1-5.3,1.1c-3,0-5.2-0.8-6.6-2.4c-1.4-1.6-2.1-3.8-2.1-6.7
		c0-1.7,0.3-3.2,0.9-4.5c0.6-1.3,1.4-2.3,2.6-3.1c1.2-0.7,2.6-1.1,4.3-1.1c1.6,0,3,0.3,4.1,1s1.9,1.6,2.4,2.7
		c0.5,1.1,0.8,2.4,0.8,3.9C292.8,54.5,292.8,55,292.7,55.5z M283.1,50.7c-0.6,0.7-0.9,1.6-1,2.9h6.5c0-1.3-0.3-2.3-0.8-2.9
		c-0.5-0.7-1.3-1-2.3-1C284.4,49.7,283.7,50.1,283.1,50.7z"/>
</g>
<g class="st3">
	<path class="st4" d="M305.8,46.7c0,0.6,0,1.3-0.1,1.9c-0.1,0.6-0.2,1.2-0.3,1.7c-0.8-0.1-1.8-0.2-3-0.2c-0.8,0-1.5,0-2.2,0.1v13.6
		h-4.4V47.3c1-0.2,2-0.5,3.1-0.6c1.1-0.2,2.2-0.3,3.2-0.3C303.6,46.4,304.8,46.5,305.8,46.7z"/>
</g>
<g class="st3">
	<path class="st4" d="M338.9,63.8h-4.3l-0.5-9.4c-0.2-3-0.3-5.6-0.3-7.9c-0.8,2.9-1.8,6-3,9.4l-2.7,7.8h-3.7l-2.7-7.9
		c-1-2.7-1.9-5.8-2.9-9.1c-0.1,3.2-0.2,5.9-0.3,8.1l-0.5,8.9h-4.2l1.6-23.3c0.7-0.2,1.5-0.3,2.5-0.4c1-0.1,2-0.2,2.8-0.2l5.5,17.8
		l5.5-17.2c0.8-0.2,1.7-0.4,2.7-0.4c1-0.1,2-0.1,2.9-0.1L338.9,63.8z"/>
	<path class="st4" d="M345.1,63.1c-1.2-0.7-2.1-1.7-2.8-3.1c-0.6-1.3-1-2.9-1-4.8c0-1.9,0.3-3.5,0.9-4.8c0.6-1.3,1.5-2.4,2.8-3.1
		c1.2-0.7,2.7-1.1,4.4-1.1s3.2,0.4,4.4,1.1c1.2,0.7,2.1,1.7,2.8,3.1c0.6,1.3,1,2.9,1,4.8c0,1.8-0.3,3.4-1,4.8
		c-0.6,1.3-1.6,2.4-2.8,3.1c-1.2,0.7-2.7,1.1-4.4,1.1C347.8,64.2,346.3,63.8,345.1,63.1z M352.2,59.3c0.6-0.9,0.9-2.2,0.9-4
		c0-1.8-0.3-3.2-0.9-4.1c-0.6-0.9-1.5-1.3-2.8-1.3c-1.2,0-2.1,0.4-2.7,1.3c-0.6,0.9-0.9,2.2-0.9,4.1c0,1.8,0.3,3.2,0.9,4
		c0.6,0.9,1.5,1.3,2.7,1.3C350.7,60.7,351.6,60.2,352.2,59.3z"/>
	<path class="st4" d="M372.9,48c1.1,1.1,1.7,2.6,1.7,4.6v11.2h-4.4V53c0-1.1-0.2-1.9-0.7-2.4c-0.5-0.5-1.3-0.7-2.5-0.7
		c-0.8,0-1.6,0.1-2.4,0.3v13.7h-4.4V47.5c1.1-0.3,2.3-0.6,3.5-0.8c1.2-0.2,2.3-0.3,3.5-0.3C369.8,46.4,371.7,46.9,372.9,48z"/>
	<path class="st4" d="M382.7,60c0.4,0.4,0.9,0.6,1.7,0.6c0.4,0,0.7-0.1,1.2-0.2c0.4-0.1,0.8-0.2,1.1-0.4c-0.1,1.4-0.3,2.6-0.5,3.5
		c-0.8,0.4-1.8,0.6-3,0.6c-1.8,0-3.1-0.5-4-1.4c-0.9-1-1.4-2.4-1.4-4.3V42.1c1.3-0.4,2.8-0.6,4.4-0.6v5.3h4.7
		c-0.1,1.2-0.2,2.3-0.4,3.4h-4.3V58C382.2,58.9,382.3,59.6,382.7,60z"/>
	<path class="st4" d="M402.3,48c1.1,1.1,1.6,2.6,1.6,4.5v11.2h-4.4V53c0-1.1-0.2-1.9-0.7-2.4c-0.5-0.5-1.3-0.7-2.3-0.7
		c-0.8,0-1.7,0.1-2.6,0.4v13.4h-4.4V40.2c1.4-0.4,2.8-0.6,4.4-0.6V47c1-0.4,2.1-0.5,3.2-0.5C399.5,46.4,401.3,46.9,402.3,48z"/>
</g>
</svg>
