<svg id="Layer_1" data-name="Layer 1" xmlns="http://www.w3.org/2000/svg" viewBox="0 0 409.87 67"><defs><style>.cls-1{fill:none;stroke:#231f20;stroke-linecap:round;stroke-miterlimit:10;}.cls-2{fill:#ed1c24;}.cls-3{fill:#72808a;}</style></defs><title>Santander_ Betaal per Maand logo</title><line class="cls-1" x1="243.3" y1="0.5" x2="243.3" y2="62.98"/><path class="cls-2" d="M303.84,317.14l-1.1-.38c-1.46-.49-2.37-.89-2.37-2.2,0-1.15.91-1.74,2.72-1.74a10,10,0,0,1,3.43.59,6.19,6.19,0,0,0,.23-1.39,10.28,10.28,0,0,0-3.71-.61c-2.65,0-4.25,1.1-4.25,3.19,0,1.88,1.16,2.94,3.24,3.57l1.08.33c1.13.35,2.42.85,2.42,2.25s-1.1,1.91-2.91,1.91a8.28,8.28,0,0,1-3.83-.92,4.91,4.91,0,0,0-.23,1.43,8.07,8.07,0,0,0,4.11.92c2.82,0,4.46-1.25,4.46-3.38s-1.43-2.94-3.29-3.57m6.42-18.88h3.81V286.61c0-4.19-2.05-6.65-8.42-6.65a32.49,32.49,0,0,0-6.94,1v17.33h3.81V283.49a19.61,19.61,0,0,1,3-.28c3.81,0,4.72,1.32,4.72,4.06Zm7.2,23.08a4.72,4.72,0,0,1-3.33,1.34c-2.12,0-3.1-1-3.1-3.47v-7.52h-1.65v7.84c0,3.13,1.51,4.56,4.23,4.56a5.21,5.21,0,0,0,3.9-1.34l.05,1.06h1.54V311.69h-1.64Zm9.72-23.22c.21-1,.34-2.18.45-3.22a8.67,8.67,0,0,1-3,.52c-1.84,0-2.95-.87-2.95-3.12v-8.5h5.69a30.29,30.29,0,0,0,.34-3.26h-6V274a12.83,12.83,0,0,0-3.81.56v18.2c0,4.23,2.35,5.93,6.06,5.93a8.59,8.59,0,0,0,3.23-.56m-84.7-17.71a8,8,0,0,0-1.06-3.66l-5.78-10a8.11,8.11,0,0,1-.92-2.42l-.24.42a8,8,0,0,0,0,8l4.63,8a8,8,0,0,1,0,8l-.25.42a7.73,7.73,0,0,0-.91-2.42l-4.23-7.33L231,274.75a8.08,8.08,0,0,1-.91-2.42l-.24.41a8,8,0,0,0,0,8l4.64,8a8,8,0,0,1,0,8l-.24.42a8,8,0,0,0-.91-2.42l-5.78-10a8,8,0,0,1-1.07-4.35c-6.19,1.61-10.46,5-10.46,9,0,5.53,8.27,10,18.46,10s18.46-4.48,18.46-10c0-4-4.27-7.41-10.46-9m24.43,14.94a16.22,16.22,0,0,1-6.34-1.35,11.72,11.72,0,0,0-.66,3.5,16.72,16.72,0,0,0,7.11,1.32c5.89,0,8.91-2.74,8.91-6.73,0-3.36-1.84-5.34-6.24-7.21l-1.87-.8c-2.43-1-3.78-2.08-3.78-3.88s1.38-3,4.4-3a17.51,17.51,0,0,1,5.69,1,13.48,13.48,0,0,0,.69-3.47,19.11,19.11,0,0,0-6.34-1c-5.62,0-8.36,2.54-8.36,6.49,0,3.67,2.22,5.51,5.48,6.93l1.77.77c3.25,1.42,4.57,2.35,4.57,4.36s-1.8,3.09-5,3.09m23.88,16.06a17.23,17.23,0,0,0-4.42.66v11.74H288V313.19a12.37,12.37,0,0,1,2.72-.32c2.89,0,3.71,1.12,3.71,3.31v7.63h1.64v-7.94c0-2.84-1.33-4.46-5.3-4.46m43.93,0a9.64,9.64,0,0,0-4.11,1,5.61,5.61,0,0,0-3.69-1,17.53,17.53,0,0,0-4.62.66v11.74h1.64V313.19a13.12,13.12,0,0,1,2.82-.32c2.51,0,3.45.93,3.45,3.21v7.73h1.64v-7.94a6.13,6.13,0,0,0-.39-2.32,7.78,7.78,0,0,1,3.12-.68c2.42,0,3.45,1.12,3.45,3.26v7.68h1.64v-7.94c0-2.84-1.4-4.46-4.95-4.46m61.84-12.73a13.1,13.1,0,0,0,5.62-1.11c.24-1.15.45-2.46.59-3.47a14.82,14.82,0,0,1-6.1,1.32c-3.4,0-5.21-1.49-5.69-4.58h12.17a20,20,0,0,0,.21-2.94c0-4.37-2.36-7.94-7.8-7.94-6.07,0-8.46,4.09-8.46,9.25,0,5.93,3.08,9.47,9.46,9.47m-1.21-15.53c2.63,0,4.16,1.66,4.16,4.5h-8.6c.31-2.94,1.73-4.5,4.44-4.5M267.68,308.8a9.18,9.18,0,0,1,3.22.57,6,6,0,0,0,.28-1.58,9.85,9.85,0,0,0-3.5-.56c-4.93,0-7.77,3.1-7.77,8.45,0,5.1,2.7,8.46,7.61,8.46a9.47,9.47,0,0,0,3.26-.5,9.18,9.18,0,0,0,.26-1.73,8.53,8.53,0,0,1-3.31.65c-3.71,0-6.11-2.56-6.11-6.95s2.4-6.81,6.06-6.81m10.55,2.61c-3.64,0-5.8,2.44-5.8,6.41,0,3.62,1.9,6.27,5.65,6.27s5.83-2.44,5.83-6.46c0-3.57-1.88-6.22-5.68-6.22m-.05,11.2c-2.68,0-4.09-1.76-4.09-4.91,0-2.89,1.34-4.81,4.09-4.81s4.06,1.78,4.06,4.86-1.34,4.86-4.06,4.86m12.66-26.43.21,2.08h3.5V280.93a19.27,19.27,0,0,0-6.55-1c-6.42,0-9.68,3.46-9.68,9.56,0,5.83,3.05,9.16,7.63,9.16a5.31,5.31,0,0,0,4.89-2.5m-8.63-6.66c0-3.88,1.83-6.31,5.79-6.31a15.66,15.66,0,0,1,2.74.21v10.89a6,6,0,0,1-3.71,1.25c-3.4,0-4.82-2.5-4.82-6M384,274a11.79,11.79,0,0,0-3.78.52v5.72a15.13,15.13,0,0,0-2.84-.27c-6.41,0-9.67,3.46-9.67,9.56,0,5.83,3.05,9.16,7.63,9.16a5.25,5.25,0,0,0,4.95-2.64l.21,2.22H384Zm-3.78,20.25a6.08,6.08,0,0,1-3.81,1.32c-3.4,0-4.82-2.5-4.82-6,0-3.95,1.8-6.31,5.58-6.31a15,15,0,0,1,3.05.35Zm6.66,17.17a17.23,17.23,0,0,0-4.42.66v11.74h1.65V313.19a12.3,12.3,0,0,1,2.72-.32c2.89,0,3.71,1.12,3.71,3.31v7.63h1.64v-7.94c0-2.84-1.34-4.46-5.3-4.46m23.62-28a18.85,18.85,0,0,1,2.8-.21,25.48,25.48,0,0,1,2.88.14,14,14,0,0,0,.35-3.26,32.42,32.42,0,0,0-3.33-.13,23,23,0,0,0-6.52,1v17.33h3.82Zm-15.9,34.42c0,4,2.07,6.25,5.4,6.25a4.74,4.74,0,0,0,3.2-1.2l0,.92h1.53V312.07a10.69,10.69,0,0,0-3.92-.66c-4.21,0-6.25,2.3-6.25,6.43m8.53,3.69a4.18,4.18,0,0,1-3,1.2c-2.56,0-3.87-1.86-3.87-4.89s1.43-5,4.58-5a8.63,8.63,0,0,1,2.28.28Zm37.52-4.67c0-3-1.5-5.45-5-5.45-3.85,0-5.42,2.77-5.42,6.27,0,4,2.07,6.41,6,6.41a7.12,7.12,0,0,0,3.73-.89,15.67,15.67,0,0,0,.26-1.58,8,8,0,0,1-3.95,1c-2.67,0-4.15-1.5-4.36-4.32h8.68a9.9,9.9,0,0,0,.1-1.45m-1.65,0h-7.13c.18-2.44,1.33-4,3.68-4s3.45,1.58,3.45,3.9Zm-26.62-5.42a17.23,17.23,0,0,0-4.42.66v11.74h1.65V313.19a12.3,12.3,0,0,1,2.72-.32c2.89,0,3.71,1.12,3.71,3.31v7.63h1.64v-7.94c0-2.84-1.34-4.46-5.3-4.46m13.83,1.46a6.45,6.45,0,0,1,2.6.54A8.46,8.46,0,0,0,429,312a6.79,6.79,0,0,0-2.79-.56c-4.18,0-6.2,2.54-6.2,6.39,0,4,2.28,6.29,5.73,6.29a5.32,5.32,0,0,0,3-.82c.09-.52.16-1.11.21-1.58a5.67,5.67,0,0,1-3.1.94c-2.42,0-4.2-1.52-4.2-4.88,0-3.08,1.52-4.88,4.53-4.88m-71.15-.8v11.74h1.64V313.12a12.06,12.06,0,0,1,2.31-.25,14.34,14.34,0,0,1,1.8.09,5.54,5.54,0,0,0,.17-1.41,16.69,16.69,0,0,0-2-.09,13.28,13.28,0,0,0-3.9.61m-9.93-31.14a19.23,19.23,0,0,0-6.55-1c-6.41,0-9.67,3.46-9.67,9.56,0,5.83,3.05,9.16,7.63,9.16a5.33,5.33,0,0,0,4.89-2.5l.2,2.08h3.5Zm-3.81,13.38a6,6,0,0,1-3.71,1.25c-3.4,0-4.82-2.5-4.82-6,0-3.88,1.84-6.31,5.79-6.31a15.58,15.58,0,0,1,2.74.21ZM356.2,280a32.33,32.33,0,0,0-6.93,1v17.33h3.81V283.49a19.5,19.5,0,0,1,3-.28c3.81,0,4.71,1.32,4.71,4.06v11h3.82V286.61c0-4.19-2.05-6.65-8.43-6.65m-8.78,31.45c-3.85,0-5.42,2.77-5.42,6.27,0,4,2.07,6.41,6,6.41a7.15,7.15,0,0,0,3.73-.89,15.67,15.67,0,0,0,.26-1.58,8,8,0,0,1-4,1c-2.67,0-4.15-1.5-4.36-4.32h8.68a9.9,9.9,0,0,0,.1-1.45c0-3-1.5-5.45-5-5.45m3.38,5.42h-7.13c.18-2.44,1.33-4,3.68-4s3.45,1.58,3.45,3.9Zm15.31,7h1.65v-7.4h6.76c.07-.45.14-1.15.16-1.57h-6.92v-5.71h7.39a10.84,10.84,0,0,0,.19-1.57h-9.23Zm11.49,0h1.64V311.69H377.6Zm.82-16.2a1.07,1.07,0,0,0-1.11,1.1,1.06,1.06,0,0,0,1.11,1.08,1,1,0,0,0,1.08-1.08,1.06,1.06,0,0,0-1.08-1.1" transform="translate(-216.02 -264.3)"/><path class="cls-3" d="M492.8,278.85a6.28,6.28,0,0,1,1,3.5,6.68,6.68,0,0,1-.93,3.56,6.07,6.07,0,0,1-2.79,2.34,10.89,10.89,0,0,1-4.5.84h-8.16V265.56a24.11,24.11,0,0,1,3.07-.43c1.21-.1,2.42-.15,3.62-.15q4.53,0,6.7,1.68a5.66,5.66,0,0,1,2.18,4.75,5.85,5.85,0,0,1-.82,3.11,5.64,5.64,0,0,1-2.24,2.09,5.78,5.78,0,0,1,2.9,2.24m-11.1-10.13v6.56h3a4.62,4.62,0,0,0,2.91-.8,3.08,3.08,0,0,0,1-2.6,3,3,0,0,0-1.08-2.45,5.44,5.44,0,0,0-3.33-.85,20.46,20.46,0,0,0-2.49.14m6.55,16a3,3,0,0,0,1.07-2.54c0-2.26-1.44-3.4-4.32-3.4h-3.3v6.74h3.44a5.17,5.17,0,0,0,3.11-.8" transform="translate(-216.02 -264.3)"/><path class="cls-3" d="M510.52,280.79c0,.5-.08.94-.12,1.33H499.89a4.53,4.53,0,0,0,1.46,3.07,5.54,5.54,0,0,0,3.44.9,12.08,12.08,0,0,0,5.3-1.25,22.9,22.9,0,0,1-.54,3.57,11.85,11.85,0,0,1-5.31,1.08c-3,0-5.16-.78-6.59-2.36a9.58,9.58,0,0,1-2.14-6.68,11.25,11.25,0,0,1,.85-4.54,6.75,6.75,0,0,1,2.6-3.08,7.92,7.92,0,0,1,4.33-1.12,7.76,7.76,0,0,1,4.08,1,6.09,6.09,0,0,1,2.42,2.68,9.32,9.32,0,0,1,.78,3.91c0,.5,0,1-.05,1.5m-9.62-4.73a5.29,5.29,0,0,0-1,2.93h6.46a4.94,4.94,0,0,0-.8-2.93,2.79,2.79,0,0,0-2.33-1,2.85,2.85,0,0,0-2.29,1" transform="translate(-216.02 -264.3)"/><path class="cls-3" d="M518.39,285.33a2.13,2.13,0,0,0,1.7.63,4.36,4.36,0,0,0,1.15-.16,6,6,0,0,0,1.13-.39,27.41,27.41,0,0,1-.48,3.47,6.4,6.4,0,0,1-3,.61,5.39,5.39,0,0,1-4-1.42,6,6,0,0,1-1.4-4.32V267.43a15.51,15.51,0,0,1,4.35-.58v5.27h4.7a33.93,33.93,0,0,1-.38,3.43h-4.32v7.76a3.07,3.07,0,0,0,.55,2" transform="translate(-216.02 -264.3)"/><path class="cls-3" d="M538.86,272.56v16.53h-4l-.27-2.38a4.4,4.4,0,0,1-4.25,2.78,5.74,5.74,0,0,1-4.73-2.16c-1.15-1.43-1.73-3.64-1.73-6.61s.68-5.1,2-6.66,3.54-2.35,6.56-2.35a22.84,22.84,0,0,1,6.36.85m-4.32,12.31v-9.45a9.69,9.69,0,0,0-2.14-.21,3.51,3.51,0,0,0-3.18,1.38,7.4,7.4,0,0,0-.9,4,7.57,7.57,0,0,0,.85,4.1,2.81,2.81,0,0,0,2.51,1.27,3.87,3.87,0,0,0,2.86-1.12" transform="translate(-216.02 -264.3)"/><path class="cls-3" d="M556.6,272.56v16.53h-4l-.28-2.38a4.38,4.38,0,0,1-4.25,2.78,5.72,5.72,0,0,1-4.72-2.16c-1.16-1.43-1.74-3.64-1.74-6.61s.68-5.1,2-6.66,3.55-2.35,6.57-2.35a22.77,22.77,0,0,1,6.35.85m-4.31,12.31v-9.45a9.79,9.79,0,0,0-2.15-.21,3.5,3.5,0,0,0-3.17,1.38,7.31,7.31,0,0,0-.91,4,7.67,7.67,0,0,0,.85,4.1,2.84,2.84,0,0,0,2.52,1.27,3.87,3.87,0,0,0,2.86-1.12" transform="translate(-216.02 -264.3)"/><path class="cls-3" d="M560.21,265.56a15.7,15.7,0,0,1,4.35-.61v24.14h-4.35Z" transform="translate(-216.02 -264.3)"/><path class="cls-3" d="M489.79,308.9c1.43,1.47,2.15,3.61,2.15,6.45a11.33,11.33,0,0,1-1,4.84,7.05,7.05,0,0,1-2.93,3.18,9.72,9.72,0,0,1-4.91,1.12,19.05,19.05,0,0,1-2-.1v6.9h-4.35V308.07a18.54,18.54,0,0,1,3.32-1,17.07,17.07,0,0,1,3.45-.36c2.74,0,4.83.73,6.25,2.19m-3.28,10.63a7,7,0,0,0,1-4,6.57,6.57,0,0,0-1-4,3.75,3.75,0,0,0-3.2-1.31,8.36,8.36,0,0,0-2.21.31v10.23a10.13,10.13,0,0,0,2.11.21,3.73,3.73,0,0,0,3.28-1.43" transform="translate(-216.02 -264.3)"/><path class="cls-3" d="M508.75,315.79c0,.5-.07.94-.12,1.33h-10.5a4.49,4.49,0,0,0,1.46,3.07,5.51,5.51,0,0,0,3.43.9,12.08,12.08,0,0,0,5.3-1.25,22.9,22.9,0,0,1-.54,3.57,11.84,11.84,0,0,1-5.3,1.08c-3,0-5.17-.78-6.6-2.36a9.58,9.58,0,0,1-2.14-6.68,11.25,11.25,0,0,1,.85-4.54,6.81,6.81,0,0,1,2.6-3.08,7.94,7.94,0,0,1,4.33-1.12,7.77,7.77,0,0,1,4.09,1,6.06,6.06,0,0,1,2.41,2.68,9.32,9.32,0,0,1,.78,3.91c0,.5,0,1-.05,1.5m-9.62-4.73a5.37,5.37,0,0,0-1,2.93h6.46a4.87,4.87,0,0,0-.8-2.93,2.77,2.77,0,0,0-2.33-1,2.85,2.85,0,0,0-2.29,1" transform="translate(-216.02 -264.3)"/><path class="cls-3" d="M521.82,307a15.15,15.15,0,0,1-.12,1.9c-.08.64-.17,1.19-.28,1.67a17.92,17.92,0,0,0-3-.21,17.35,17.35,0,0,0-2.21.14v13.57h-4.36V307.66q1.47-.37,3.12-.63a20.89,20.89,0,0,1,3.21-.25,23.92,23.92,0,0,1,3.6.24" transform="translate(-216.02 -264.3)"/><path class="cls-3" d="M554.84,324.09h-4.29l-.54-9.36q-.32-4.53-.34-7.89-1.26,4.32-3,9.42L544,324.09h-3.74l-2.71-7.93c-1-2.74-1.94-5.77-2.9-9.08q-.13,4.83-.34,8.13l-.54,8.88h-4.22l1.64-23.26a16.27,16.27,0,0,1,2.55-.43q1.56-.15,2.82-.15l5.54,17.83,5.54-17.25a16.51,16.51,0,0,1,2.67-.44c1-.09,2-.14,2.87-.14Z" transform="translate(-216.02 -264.3)"/><path class="cls-3" d="M572.48,307.56v16.53h-4l-.27-2.38a4.39,4.39,0,0,1-4.25,2.78,5.72,5.72,0,0,1-4.72-2.16c-1.16-1.43-1.74-3.64-1.74-6.61s.68-5.1,2-6.66,3.55-2.35,6.56-2.35a22.79,22.79,0,0,1,6.36.85m-4.32,12.31v-9.45a9.63,9.63,0,0,0-2.14-.21,3.51,3.51,0,0,0-3.18,1.38,7.4,7.4,0,0,0-.9,4,7.67,7.67,0,0,0,.85,4.1,2.84,2.84,0,0,0,2.52,1.27,3.84,3.84,0,0,0,2.85-1.12" transform="translate(-216.02 -264.3)"/><path class="cls-3" d="M590.23,307.56v16.53h-4l-.27-2.38a4.39,4.39,0,0,1-4.25,2.78,5.74,5.74,0,0,1-4.73-2.16c-1.15-1.43-1.73-3.64-1.73-6.61s.68-5.1,2-6.66,3.55-2.35,6.56-2.35a22.79,22.79,0,0,1,6.36.85m-4.32,12.31v-9.45a9.63,9.63,0,0,0-2.14-.21,3.51,3.51,0,0,0-3.18,1.38,7.4,7.4,0,0,0-.9,4,7.57,7.57,0,0,0,.85,4.1,2.82,2.82,0,0,0,2.52,1.27,3.86,3.86,0,0,0,2.85-1.12" transform="translate(-216.02 -264.3)"/><path class="cls-3" d="M606.48,308.31a6,6,0,0,1,1.7,4.56v11.22h-4.35V313.34a3.42,3.42,0,0,0-.73-2.45,3.36,3.36,0,0,0-2.47-.74,11.54,11.54,0,0,0-2.44.27v13.67h-4.36V307.8a25.49,25.49,0,0,1,3.45-.8,21.93,21.93,0,0,1,3.46-.29c2.69,0,4.61.53,5.74,1.6" transform="translate(-216.02 -264.3)"/><path class="cls-3" d="M625.86,307.6v16.49h-4l-.24-2.32a4.34,4.34,0,0,1-4.25,2.72,6.36,6.36,0,0,1-3.45-.93,6.11,6.11,0,0,1-2.31-2.87,12.34,12.34,0,0,1-.83-4.87q0-4.38,2.05-6.75t6.51-2.36c.52,0,1.26,0,2.21.07v-6.22a15.39,15.39,0,0,1,4.32-.61v7.61h0Zm-5.56,13.1a3.94,3.94,0,0,0,1.24-.8v-9.48a9.7,9.7,0,0,0-2.1-.21,3.78,3.78,0,0,0-3.29,1.36,7.1,7.1,0,0,0-1,4.08,7.4,7.4,0,0,0,.86,4.07,3.08,3.08,0,0,0,2.74,1.27,3.76,3.76,0,0,0,1.51-.29" transform="translate(-216.02 -264.3)"/></svg>