<svg width="70" height="40" viewBox="0 0 70 40" xmlns="http://www.w3.org/2000/svg" xmlns:xlink="http://www.w3.org/1999/xlink"><title>cartasi</title><desc>Created with Sketch.</desc><defs><path d="M20.918 4.739c0 .092-.033.165-.089.213l-.052.036-.149.039c-.161.009-.304-.059-.429-.155l-.072-.073c-.119-.135-.256-.267-.417-.396-1.299-1.106-4.105-1.926-6.673-2.033-2.8-.117-5.327.614-5.327 2.746v2.751l-.012.373c-.06.765-.316 1.147-.792 1.298-.226.075-.495.092-.816.08-.87-.04-3.092-.442-4.588-1.652l-.018-.011c-.804-.689-1.382-1.624-1.382-2.885-.001-3.718 6.936-4.978 10.462-4.978 1.996 0 6.22.4 8.783 2.489.328.275.628.579.894.915l.198.274c.155.224.298.462.417.713.048.098.072.184.072.257h-.008z" id="a"/><path d="M13.626.371c-.225.271-.332.705-.332 1.365v2.751c0 .481-.128.89-.359 1.235l-.189.243-.03.034c-2.117 2.426-9.952 1.101-11.824-1.09-.41-.476-1.058-.315-.781.27 1.823 3.814 7.847 4.445 10.352 4.445 3.526 0 10.463-1.256 10.463-4.973 0-3.585-4.696-4.537-6.066-4.6h-.194c-.465 0-.808.092-1.041.333v-.014z" id="c"/></defs><g fill="none"><path d="M32.773 15.29c-.222-.109-1.068-.465-2.617-.465-3.442 0-5.756 2.186-5.756 5.439 0 3.196 2.134 5.261 5.438 5.261 1.387 0 2.429-.266 2.901-.494.062-.03.093-.098.075-.163l-.271-1.048-.086-.099h-.132c-.547.248-1.393.403-2.21.403-2.481 0-3.954-1.462-3.954-3.911 0-2.477 1.543-4.016 4.029-4.016 1.065 0 1.761.254 2.084.403l.127.006.086-.094.351-1.065c.018-.067-.012-.137-.075-.171m3.684 8.97c-.725 0-1.157-.419-1.157-1.114 0-.987.973-1.49 2.884-1.49h.075v1.114c0 .088-.012.226-.058.37-.19.513-.76 1.114-1.75 1.114m3.459-.783v-2.686c0-1.411-.535-3.092-3.08-3.092-.956 0-1.934.243-2.631.65-.063.037-.086.107-.063.171l.317.883.098.089.132-.017c.507-.322 1.232-.513 1.934-.513l.029-.001c1.038 0 1.566.51 1.566 1.517v.006c-2.987.018-4.634 1.024-4.634 2.836 0 1.106.859 2.224 2.506 2.224.904 0 1.736-.337 2.288-.912l.075.621c.009.072.075.127.15.127h1.261l.108-.041.046-.102-.006-.044c-.069-.443-.104-1.026-.104-1.691m5.486-5.769l-.035-.004-.368-.028c-.855 0-1.623.46-2.066 1.205l-.04-.917c-.004-.078-.071-.139-.153-.138h-1.209l-.112.045-.04.108c.043.618.063 1.312.063 2.251v4.982c0 .079.067.143.15.143h1.399l.107-.041.045-.102v-3.859c0-.212.017-.426.046-.588.184-.962.846-1.558 1.727-1.558.184 0 .317 0 .443.026l.128-.027.059-.113v-1.241c0-.075-.058-.136-.136-.143m5.284.117h-1.847v-1.589l-.062-.116-.136-.022-1.367.389c-.063.022-.109.077-.109.138v1.203h-1.036c-.081 0-.15.066-.15.143v1.004c0 .083.069.143.155.143h1.042v3.807c0 .932.19 1.583.581 1.997.38.386.956.601 1.629.601.633 0 1.082-.116 1.295-.188.063-.022.109-.077.104-.143l-.063-.999-.063-.105-.132-.017c-.173.05-.368.083-.766.083-.639 0-.898-.364-.898-1.263v-3.762h1.853c.086 0 .155-.061.155-.143v-1.004c0-.077-.063-.143-.15-.143m3.822 6.432c-.72 0-1.151-.414-1.151-1.114 0-.987.973-1.49 2.884-1.49h.075v1.114c0 .094-.012.232-.058.375-.184.513-.754 1.114-1.75 1.114m3.465-.783v-2.709c0-1.407-.535-3.089-3.08-3.089-.951 0-1.934.243-2.626.651-.06.039-.086.11-.063.171l.317.883.097.094.136-.017c.507-.32 1.23-.513 1.938-.513h.029c1.04 0 1.566.513 1.566 1.517v.006c-2.987.022-4.634 1.026-4.634 2.836 0 1.109.861 2.229 2.51 2.229.904 0 1.735-.337 2.287-.91l.075.618c.007.072.075.127.15.127h1.261c.085 0 .154-.066.154-.143l-.008-.044c-.069-.441-.106-1.026-.106-1.689m4.933-4.115c-1.543-.56-2.038-1.001-2.038-1.809 0-.681.581-1.368 1.871-1.368 1.071 0 1.756.35 1.94.458l.132.014.092-.088.384-1.065c.023-.066-.006-.138-.069-.171-.282-.154-1.082-.513-2.435-.513-2.133 0-3.623 1.183-3.623 2.88 0 1.348.956 2.334 2.93 3.007 1.399.491 1.923.995 1.923 1.854 0 .973-.803 1.578-2.094 1.578-.846 0-1.715-.232-2.386-.636l-.134-.013-.093.094-.364 1.092c-.023.061.004.127.061.166.629.396 1.819.682 2.821.682 2.872 0 3.891-1.649 3.891-3.062 0-1.451-.84-2.378-2.818-3.095m5.215-1.534h-1.407c-.083 0-.152.064-.153.143v7.235c0 .083.067.147.151.147h1.4c.085 0 .153-.066.153-.143v-7.264l-.045-.102-.107-.041m0-3.001h-1.399l-.108.041-.045.102v1.286c0 .079.067.143.151.143h1.4c.085 0 .153-.066.153-.147v-1.289l-.045-.102-.107-.042" id="Shape" fill="#000" fill-rule="nonzero"/><path d="M13.675 9.95c0 1.077-1.31 1.95-2.924 1.95-1.614 0-2.926-.873-2.926-1.95s1.309-1.95 2.924-1.95c1.614 0 2.924.873 2.924 1.95" fill="#EA682A"/><path d="M9.546 8.17c-.213.064-.413.144-.596.238l-.168.094c-.588.357-.957.872-.957 1.443 0 1.08 1.314 1.954 2.934 1.954.758 0 1.448-.192 1.971-.508.129-.081.246-.168.357-.262.142-.124.259-.261.351-.407.123-.192.197-.4.228-.617.031-.283-.031-.55-.154-.787l-.16-.248c-.08-.108-.172-.204-.271-.291-.265-.226-.563-.401-.881-.518-.464-.173-.951-.262-1.442-.262h-.031c-.407 0-.807.054-1.201.171" id="Shape"/><path d="M8.531 19.021v2.798c0 1.453-.491 1.83-1.582 1.776-1.344-.07-5.948-1.039-5.948-4.686 0-3.781 6.802-5.059 10.259-5.059 2.456 0 8.362.642 10.15 4.517.273.589-.362.753-.764.268-2.128-2.585-12.114-3.986-12.114.373" id="Shape" fill="#EA5C19" fill-rule="nonzero"/><g id="Clipped" transform="translate(1 8) translate(0 4.875)"><mask id="b"><use xlink:href="#a"/></mask><path d="M.1 5.064c0 1.263.583 2.2 1.398 2.886l.016.013c1.501 1.209 3.718 1.609 4.594 1.651.322.015.59-.005.816-.075.477-.151.733-.533.786-1.299l.012-.373v-2.749c0-2.132 2.526-2.863 5.327-2.746 2.574.107 5.374.927 6.685 2.033.161.128.298.26.417.395l.072.075c.125.095.268.162.429.154l.149-.039.054-.036c.101-.088.131-.248.024-.47-.119-.251-.256-.489-.411-.713l-.197-.274c-.262-.336-.56-.64-.894-.915-2.592-2.093-6.817-2.489-8.813-2.489-3.527 0-10.464 1.26-10.464 4.973" id="Shape" mask="url(#b)"/></g><path d="M13.945 22.331v-2.8c0-1.454.491-1.831 1.582-1.777 1.343.067 5.947 1.033 5.947 4.684 0 3.779-6.802 5.061-10.259 5.061-2.456 0-8.362-.642-10.15-4.522-.273-.593.362-.757.764-.269 2.128 2.583 12.115 3.984 12.115-.378" id="Shape" fill="#EA682A" fill-rule="nonzero"/><g transform="translate(1 8) translate(0 9.75)"><mask id="d"><use xlink:href="#c"/></mask><path d="M13.626.371c-.225.271-.332.705-.332 1.365v2.751c0 .481-.128.89-.359 1.235l-.189.243-.03.034c-2.117 2.426-9.952 1.101-11.824-1.09-.41-.476-1.058-.315-.781.27 1.823 3.814 7.847 4.445 10.352 4.445 3.526 0 10.463-1.256 10.463-4.973 0-3.585-4.696-4.537-6.066-4.6h-.194c-.465 0-.808.092-1.041.333" mask="url(#d)"/></g></g></svg>