<svg width="70" height="40" viewBox="0 0 70 40" xmlns="http://www.w3.org/2000/svg" xmlns:xlink="http://www.w3.org/1999/xlink"><title>cartebleue</title><desc>Created with Sketch.</desc><defs><path d="M11.897 19.683h50.394v-15.878c0-1.976-1.7-3.659-3.695-3.659h-54.901c-2.069 0-3.695 1.61-3.695 3.659v17.341c0 1.976 1.7 3.659 3.695 3.659h4.507v-1.463c0-2.049 1.7-3.659 3.695-3.659z" id="path-1"/><linearGradient x1="41.399%" y1="99.173%" x2="58.601%" y2=".666%" id="b"><stop stop-color="#00468C" offset="70%"/><stop stop-color="#50B4E6" offset="100%"/></linearGradient></defs><g fill="none"><path d="M12.897 24.683h50.394v-15.878c0-1.976-1.7-3.659-3.695-3.659h-54.901c-2.069 0-3.695 1.61-3.695 3.659v17.341c0 1.976 1.7 3.659 3.695 3.659h4.507v-1.463c0-2.049 1.7-3.659 3.695-3.659z" id="a" fill="#00468C"/><g transform="translate(1 5)"><mask id="c"><use xlink:href="#a"/></mask><ellipse fill="url(#b)" mask="url(#c)" cx="1.182" cy="19.756" rx="22.98" ry="22.683"/></g><path d="M64.547 24.683h-1.256v1.463c0 1.976-1.7 3.659-3.695 3.659h-50.394v1.463c0 1.976 1.7 3.659 3.695 3.659h51.65c2.069 0 3.695-1.61 3.695-3.659v-2.927c0-2.049-1.7-3.659-3.695-3.659z" fill="#AAD7F5"/><path d="M63.291 26.146v-1.463h-50.394c-2.069 0-3.695 1.61-3.695 3.659v1.463h50.394c1.995.073 3.695-1.756 3.695-3.659z" fill="#50B4E6"/><path d="M4.99 11.146c1.182 0 1.552-.585 1.626-1.171h-.591c-.074.293-.222.732-.887.732-.591 0-1.034-.439-1.034-1.024 0-.732.443-1.098.961-1.098.517 0 .887.22.961.659h.665c-.074-.585-.591-1.098-1.626-1.098-1.108 0-1.626.732-1.626 1.537 0 .805.517 1.463 1.552 1.463z" fill="#fff"/><path d="M4.695 12.244l-1.256 2.854h.665l.296-.732h1.33l.296.732h.665l-1.256-2.854h-.739zm-.148 1.683l.517-1.244.517 1.171-1.034.073z" fill="#fff"/><path d="M6.025 17.659c.296-.073.443-.293.443-.659 0-.439-.222-.805-.961-.805h-1.773v2.854h.591v-1.098h1.034c.443 0 .517.293.517.659 0 .22 0 .366.074.439h.665c-.148-.146-.148-.439-.148-.585 0-.439-.074-.732-.443-.805zm-.665-.22h-1.034v-.805h1.034c.296 0 .517.146.517.439 0 .293-.148.366-.517.366z" fill="#fff"/><path fill="#fff" d="M3.734 20.659h1.034v2.341h.591v-2.341h1.108v-.512h-2.734z"/><path id="e" fill="#fff" d="M4.473 25.78h1.847v-.439h-1.847v-.732h1.921v-.439h-2.512v2.854h2.512v-.439h-1.921zM55.163 16.634c-.369 0-.665-.293-.665-.659v-1.683h5.468v-1.976h-5.468v-2.268h5.468v-2.049h-7.463v7.903c0 1.463 1.182 2.634 2.66 2.634h4.803v-1.976h-4.803v.073z"/><path d="M23.167 15.902v-7.902h-1.995v7.976c0 1.463 1.182 2.634 2.66 2.634h4.803v-1.976h-4.803c-.369 0-.665-.293-.665-.732z" fill="#fff"/><path d="M32.478 8h-1.995v7.903c0 1.463 1.182 2.634 2.66 2.634h4.803v-1.976h-4.803c-.369 0-.665-.293-.665-.659v-1.683h5.468v-1.976h-5.468v-2.195h5.468v-2.049h-5.468z" fill="#fff"/><path d="M47.773 14.585c0 1.098-.887 2.049-2.069 2.049h-1.404c-1.108 0-2.069-.878-2.069-2.049v-6.659h-1.995v6.585c0 2.195 1.847 4.024 4.064 4.024h1.404c2.217 0 4.064-1.829 4.064-4.024v-6.585h-1.995v6.659z" fill="#fff"/><path d="M17.552 12.829c.369-.512.591-1.098.591-1.756 0-1.61-1.33-3-3.03-3h-5.985v10.536999999999999h6.281c1.847 0 3.325-1.463 3.325-3.293.074-.951-.443-1.976-1.182-2.488zm-6.355-2.78h3.916c.517 0 1.034.439 1.034 1.024 0 .512-.443 1.024-1.034 1.024h-3.916v-2.049zm4.286 6.659h-4.212v-2.634h4.212c.739 0 1.33.585 1.33 1.317s-.665 1.317-1.33 1.317z" fill="#fff"/></g></svg>