<?xml version="1.0" encoding="UTF-8"?>
<svg id="Layer_1" data-name="Layer 1" xmlns="http://www.w3.org/2000/svg" viewBox="0 0 70 40">
  <defs>
    <style>
      .cls-1 {
        fill: #003664;
      }

      .cls-1, .cls-2 {
        stroke-width: 0px;
      }

      .cls-2 {
        fill: #009fe4;
      }
    </style>
  </defs>
  <g id="Layer_2" data-name="Layer 2">
    <g id="Layer_1-2" data-name="Layer 1-2">
      <circle class="cls-2" cx="35.29942" cy="8.85422" r="8.85463"/>
      <path class="cls-2" d="m41.83026,16.01776c-2.20083,2.33647-5.26904,3.66005-8.47882,3.65766-2.58008-.00498-5.08681-.85896-7.13331-2.43015-9.66711,1.01449-16.8566,2.45215-16.8566,2.45215v3.91454l51.28482-.00558v-8.07061s-8.7874-.05441-18.81608.48199Z"/>
      <path class="cls-1" d="m60.64634,39.30219c-1.63219.46434-3.32104.69934-5.018.69825-6.02731,0-10.45228-1.7131-10.45228-6.6955,0-4.50263,4.28891-6.45893,10.15191-6.45893,1.79701-.02369,3.58811.21098,5.31836.69682l-.00212,4.3612c-1.22661-.79017-2.65923-1.20056-4.11816-1.1797-2.23626,0-4.47109,1.10116-4.47109,2.6997,0,1.60249,2.22493,2.70001,4.47109,2.70001,1.45448.00668,2.88152-.3958,4.11817-1.16149l.00212,4.33964Z"/>
      <path class="cls-1" d="m24.82393,39.30219c-1.63219.46434-3.32104.69934-5.018.69825-6.02731,0-10.45228-1.7131-10.45228-6.6955,0-4.50263,4.28891-6.45893,10.15191-6.45893,1.79701-.02369,3.58811.21098,5.31836.69682l-.00212,4.3612c-1.22661-.79017-2.65923-1.20056-4.11817-1.1797-2.23626,0-4.47109,1.10116-4.47109,2.6997,0,1.60249,2.22494,2.70001,4.47109,2.70001,1.45448.00668,2.88153-.3958,4.11817-1.16149l.00212,4.33964Z"/>
      <path class="cls-1" d="m27.37714,27.13781h12.31511c3.19898,0,4.24743,1.24408,4.24743,3.18086,0,2.16787-1.93731,3.10995-3.92743,3.21631v.03567c2.04348.16008,4.03398.39083,4.03398,2.94987,0,1.67071-1.0486,3.30571-4.56721,3.30571h-12.10188v-12.68842Zm6.09205,10.10888h3.17646c1.19057,0,1.59623-.49293,1.59623-1.22122,0-.72864-.40973-1.25195-1.58263-1.25195h-3.19039l.00033,2.47317Zm0-4.73153h3.03432c1.17281,0,1.632-.47499,1.632-1.20363,0-.83499-.46336-1.25178-1.5473-1.25178h-3.11938l.00036,2.45541Z"/>
    </g>
  </g>
</svg>