<svg xmlns="http://www.w3.org/2000/svg" viewBox="0 0 51.29241 40"><defs><style>.cls-1{fill:#009fe4;}.cls-2{fill:#003664;}</style></defs><g id="Layer_2" data-name="Layer 2"><g id="Layer_1-2" data-name="Layer 1"><circle class="cls-1" cx="25.94557" cy="8.85395" r="8.85456" transform="translate(-0.15977 0.48279) rotate(-1.06285)"/><path class="cls-1" d="M32.47643,16.01746a11.63607,11.63607,0,0,1-8.47878,3.65763A11.75086,11.75086,0,0,1,16.86438,17.245C7.19732,18.25944.00787,19.69709.00787,19.69709V23.6116L51.29241,23.606V15.53547S42.50506,15.48106,32.47643,16.01746Z"/><path class="cls-2" d="M51.29241,39.30176A18.29605,18.29605,0,0,1,46.27444,40c-6.02727,0-10.45222-1.7131-10.45222-6.69546,0-4.5026,4.28892-6.4589,10.15186-6.4589a18.75858,18.75858,0,0,1,5.31833.69682l-.00211,4.36117a7.40892,7.40892,0,0,0-4.11815-1.17969c-2.23624,0-4.47106,1.10116-4.47106,2.69968,0,1.60248,2.22492,2.7,4.47106,2.7a7.7553,7.7553,0,0,0,4.11815-1.16149Z"/><path class="cls-2" d="M15.47019,39.30176A18.29611,18.29611,0,0,1,10.45222,40C4.425,40,0,38.2869,0,33.30454c0-4.5026,4.28892-6.4589,10.15186-6.4589a18.75858,18.75858,0,0,1,5.31833.69682l-.00212,4.36117a7.40886,7.40886,0,0,0-4.11814-1.17969c-2.23625,0-4.47107,1.10116-4.47107,2.69968,0,1.60248,2.22492,2.7,4.47107,2.7a7.75524,7.75524,0,0,0,4.11814-1.16149Z"/><path class="cls-2" d="M18.02339,27.13743H30.33844c3.199,0,4.24738,1.24408,4.24738,3.18085,0,2.16786-1.9373,3.10993-3.92742,3.2163v.03568c2.04347.16007,4.034.39082,4.034,2.94985,0,1.67069-1.0486,3.30568-4.56719,3.30568H18.02339Zm6.092,10.10884h3.17644c1.19056,0,1.59622-.49294,1.59622-1.22122,0-.72863-.40973-1.252-1.58262-1.252h-3.1904Zm0-4.7315h3.03431c1.1728,0,1.632-.475,1.632-1.20363,0-.835-.46335-1.25177-1.54728-1.25177H24.11505Z"/></g></g></svg>