<?xml version="1.0" encoding="utf-8"?>
<!-- Generator: Adobe Illustrator 26.3.1, SVG Export Plug-In . SVG Version: 6.00 Build 0)  -->
<svg version="1.1" id="Layer_1" xmlns="http://www.w3.org/2000/svg" xmlns:xlink="http://www.w3.org/1999/xlink" x="0px" y="0px"
	 viewBox="0 0 70 40" style="enable-background:new 0 0 70 40;" xml:space="preserve">
<style type="text/css">
	.st0{opacity:0.3;enable-background:new    ;}
</style>
<g id="Stockholm-icons-_-Shopping-_-Credit-card" transform="translate(1036.000000, 80.000000)">
	<path id="Combined-Shape" class="st0" d="M-1023.85712-80.00001h45.71423c3.14288,0,5.71429,2.57143,5.71429,5.71429v28.57143
		c0,3.14286-2.57141,5.71429-5.71429,5.71429h-45.71423c-3.14276,0-5.71429-2.57143-5.71429-5.71429v-28.57143
		C-1029.57141-77.42857-1026.99988-80.00001-1023.85712-80.00001z"/>
	<rect id="Rectangle-59" x="-1029.57141" y="-71.42857" width="57.14286" height="8.57143"/>
	<path id="Rectangle-59-Copy" class="st0" d="M-986.71429-54.28571H-981c1.57141,0,2.85712,1.28572,2.85712,2.85714l0,0
		c0,1.57143-1.28571,2.85714-2.85712,2.85714h-5.71429c-1.57141,0-2.85712-1.28572-2.85712-2.85714l0,0
		C-989.57141-53.00001-988.28571-54.28571-986.71429-54.28571z"/>
</g>
</svg>
