<?xml version="1.0" encoding="UTF-8"?>
<svg id="Layer_1" data-name="Layer 1" xmlns="http://www.w3.org/2000/svg" viewBox="0 0 70 40">
  <defs>
    <style>
      .cls-1 {
        fill: #f79e1b;
      }

      .cls-2 {
        fill: #006fcf;
      }

      .cls-3 {
        fill: #f4f4f4;
      }

      .cls-4 {
        fill: #eb001b;
      }

      .cls-5 {
        fill: #fff;
      }

      .cls-6 {
        fill: #ff5f00;
      }

      .cls-7 {
        fill: #00a2e5;
      }

      .cls-8 {
        fill: #7375cf;
      }

      .cls-9 {
        fill: #1c3378;
      }
    </style>
  </defs>
  <rect class="cls-3" x="36" width="34" height="19" rx="2" ry="2"/>
  <g id="Layer_1-2" data-name="Layer 1-2">
    <g id="_Group_" data-name=" Group ">
      <rect class="cls-6" x="50.43093" y="4.78327" width="5.13751" height="9.43371"/>
      <path id="_Path_" data-name=" Path " class="cls-4" d="m50.75713,9.50096c-.00192-1.84117.82508-3.58092,2.24256-4.71769-2.54958-2.04729-6.24073-1.59513-8.24442,1.00991-2.0037,2.60504-1.56117,6.37651.9884,8.4238,2.12925,1.70976,5.12678,1.70976,7.25602,0-1.41705-1.13641-2.24398-2.87544-2.24256-4.71602Z"/>
      <path class="cls-1" d="m62.49999,9.50096c-.00008,3.31325-2.62887,5.99912-5.87157,5.99904-1.31613-.00003-2.59408-.45188-3.62873-1.28302,2.54958-2.04729,2.9921-5.81875.98841-8.4238-.28893-.37565-.62076-.71469-.98841-1.00991,2.5492-2.04777,6.24044-1.59633,8.24461,1.00834.81344,1.05716,1.25566,2.36292,1.2557,3.70768,0,0,0,.00167,0,.00167Z"/>
      <path class="cls-1" d="m61.93895,13.21712v-.19331h.07666v-.03999h-.19408v.03999h.08318v.19331h.03425Zm.37676,0v-.2333h-.05872l-.0685.16664-.0685-.16664h-.0522v.2333h.0424v-.17498l.06361.15164h.04404l.06361-.15164v.17664l.03426-.00167Z"/>
    </g>
  </g>
  <rect class="cls-3" width="34" height="19" rx="2" ry="2"/>
  <g>
    <path class="cls-9" d="m17.43172,8.0572c-.01506,1.11442,1.00402,1.7363,1.76707,2.10448.78815.37811,1.0492.62188,1.0492.96019-.00502.51741-.6275.74625-1.20984.75621-.72162.01422-1.43505-.15355-2.07329-.48756l-.36646,1.69651c.71532.27565,1.47649.41572,2.24398.41293,2.1235,0,3.50904-1.0398,3.51907-2.64675.01004-2.03979-2.85141-2.15422-2.83133-3.06963.00502-.27861.27108-.57213.85843-.64676.68389-.06495,1.37274.05542,1.99298.34826l.35643-1.64178c-.60731-.22389-1.24964-.34009-1.89759-.34329-1.99297,0-3.39859,1.04976-3.40864,2.5572"/>
    <path class="cls-9" d="m27.86847,5.6393h-1.72691c-.37624-.00267-.71621.22195-.85843.56716l-3.03213,7.16912h2.11847l.42169-1.15422h2.59037l.24597,1.15422h1.8725l-1.63153-7.73627Zm-2.48996,4.99998l1.06425-2.90545.61246,2.90545h-1.67671Z"/>
    <polyline class="cls-9" points="14.86149 5.63924 13.18974 13.38049 15.20774 13.38049 16.87949 5.63924 14.86149 5.63924"/>
    <path class="cls-9" d="m11.86947,5.6393l-2.10341,5.26863-.84839-4.47759c-.07256-.4554-.46854-.79086-.93373-.79103h-3.43374l-.0502.22884c.68874.13797,1.35799.3585,1.99298.65672.29618.1592.38153.2985.48192.68158l1.61145,6.1741h2.13354l3.27309-7.74125h-2.1235"/>
  </g>
  <rect class="cls-3" x="36" y="21" width="34" height="19" rx="2" ry="2"/>
  <g>
    <path d="m49.22904,37.92114v-.92512c.02235-.3023-.21938-.56445-.53992-.58553-.02489-.00164-.04986-.00176-.07477-.00037-.22005-.0135-.43049.08691-.5493.26212-.1083-.17003-.3065-.27059-.51662-.26212-.18293-.00866-.35708.07463-.45775.21895v-.18194h-.34006v1.47401h.34332v-.81717c-.02777-.18858.11182-.36269.31176-.38887.02344-.00306.04715-.00399.07079-.00273.2256,0,.34006.13875.34006.38852v.82026h.34332v-.81717c-.02598-.19041.11663-.36463.31852-.38913.02123-.00258.04265-.0034.06403-.00248.23212,0,.3433.13875.3433.38852v.82026h.3433Zm1.91606-.73703v-.73699h-.34007v.17885c-.11778-.14315-.30179-.2236-.49373-.21586-.45326.02098-.80267.38453-.78043.81201.02071.39813.35829.7165.78043.73604.19194.00773.37596-.07273.49373-.21588v.17885h.34007v-.73702Zm-1.26536,0c.01493-.24609.23856-.43417.49949-.42008s.46035.22499.44541.47108c-.01429.23561-.22061.42-.47082.42081-.2589.00329-.4716-.19198-.4751-.43615-.00017-.0119.00017-.02379.00102-.03566Zm8.54153-.77573c.11483-.00105.22877.01909.3354.05928.09939.0374.19003.09283.2668.16315.07555.0699.13549.15338.17626.24549.08492.1974.08492.41823,0,.61564-.04075.09214-.10069.17564-.17626.24554-.07676.07032-.16741.12573-.2668.16311-.21574.07905-.45504.07905-.67078,0-.09923-.03727-.18965-.09271-.26603-.16311-.07512-.0701-.13476-.15355-.17545-.24554-.08482-.19742-.08482-.41822,0-.61564.0407-.09196.10034-.1754.17545-.24549.07639-.07041.16681-.12585.26603-.16315.10662-.04019.22056-.06033.33537-.05928Zm0,.30324c-.0665-.00057-.13249.0112-.19417.03463-.05815.022-.11092.05499-.15505.09694-.04443.04285-.0794.09361-.10283.14932-.05006.12339-.05006.25986,0,.38326.02343.05571.05839.10646.10283.1493.04412.04196.09689.07496.15505.09696.12482.04618.26354.04618.38836,0,.05833-.02213.11134-.05511.15586-.09696.04484-.04269.0801-.09347.10367-.1493.05005-.12339.05005-.25986,0-.38326-.02358-.05584-.05883-.10662-.10367-.14932-.04453-.04184-.09754-.07481-.15586-.09694-.06169-.02343-.12767-.03519-.19419-.03463Zm-5.42583.47249c-.00326-.45945-.30407-.774-.74221-.774-.45302.02241-.80099.38694-.77723.81418.02249.40419.37109.72393.80012.73385.23328.00773.4614-.06583.64085-.20661l-.16675-.23745c-.12913.09759-.28904.15184-.45449.15418-.23359.01853-.44058-.14119-.46759-.36079h1.16077c.00326-.04008.00652-.08015.00652-.12336Zm-1.164-.1295c.01243-.20581.19679-.36463.41524-.3577.21384-.00392.39076.15603.39565.3577h-.81089Zm2.59605-.23126c-.14836-.0805-.31602-.12401-.48717-.12644-.1864,0-.29755.06476-.29755.17271,0,.09868.1177.1264.26485.14489l.1602.02159c.34007.04626.54602.18194.54602.44097,0,.28062-.26155.48109-.71277.48109-.2415.00629-.47876-.06075-.67682-.19123l.1602-.24975c.15005.10494.33317.15925.5199.15419.23212,0,.35639-.06475.35639-.17887,0-.08326-.0883-.12951-.27464-.15418l-.16022-.02158c-.34984-.04628-.53947-.19429-.53947-.43483,0-.29296.25501-.47181.65066-.47181.22381-.00728.44512.04625.6376.1542l-.14716.25904Zm1.63394-.08327h-.55583v.6661c0,.14798.05559.24669.2256.24669.10612-.00333.20962-.03197.30082-.08326l.09807.27446c-.12749.07496-.2748.11451-.42504.11409-.40217,0-.54275-.20352-.54275-.54585v-.67223h-.31716v-.29296h.31717l-.0001-.44712h.3433l.0001.44712h.55583v.29296Zm1.17683-.32997c.08249.00032.16432.01388.24198.04011l-.10463.30219c-.06758-.02537-.13979-.03795-.21253-.03701-.22235,0-.33353.13569-.33353.37929v.82644h-.34003v-1.47401h.33679v.17885c.08499-.13773.24306-.22056.41196-.21586h0Zm2.35417,1.29646c.02114-.00013.0421.00378.06159.01152.01874.00738.03582.01805.05032.03146.0144.01338.02591.02925.03391.04676.01655.03633.01655.07747,0,.1138-.00805.01742-.01956.03322-.03391.04656-.01454.0134-.03161.02414-.05032.03163-.01946.00786-.04043.01184-.06159.01171-.06368.00061-.12157-.0348-.14696-.08988-.0165-.03634-.0165-.07746,0-.1138.00797-.01748.01944-.03335.03376-.04676.01449-.0135.03165-.02419.05051-.03146.01987-.00777.04119-.01169.06269-.01153Zm0,.26104c.01614.00012.03212-.00294.04692-.00898.01421-.00582.02714-.01412.0381-.02444.04739-.04457.0475-.11693.00023-.16161-.01099-.0104-.02401-.0187-.03833-.02445-.01483-.00595-.0308-.00896-.04692-.00883-.01641-.00012-.03269.00289-.04784.00883-.01445.00561-.02759.01384-.03869.02422-.04707.04481-.04707.11703,0,.16183.02298.02155.05412.03358.08652.03343Zm.00915-.18303c.01532-.00094.0305.0032.04291.01172.01003.00779.01561.01956.01505.0318.00035.01046-.00401.02058-.012.02784-.00948.00794-.02148.01269-.03414.01349l.04728.05142h-.03697l-.04384-.05105h-.01411v.05106h-.03088v-.13628h.0667Zm-.03583.02556v.03632h.03547c.00681.00032.01358-.00125.01945-.00452.00486-.00305.00761-.00833.00722-.01382.00032-.00539-.00243-.01055-.00722-.01351-.00589-.00323-.01265-.00478-.01945-.00446h-.03547Z"/>
    <g>
      <rect class="cls-8" x="50.43145" y="24.28303" width="5.13762" height="9.43419"/>
      <path class="cls-4" d="m50.75768,29.00012c-.00164-1.84099.82535-3.58048,2.24259-4.71709-2.54947-2.04774-6.24074-1.59583-8.24469,1.00935-2.00395,2.60517-1.56171,6.37711.98776,8.42485,2.12943,1.71037,5.12749,1.71037,7.25693,0-1.41725-1.13663-2.24423-2.87611-2.24259-4.7171Z"/>
      <path class="cls-7" d="m61.93983,32.71801v-.19315h.07621v-.03935h-.1941v.03935h.07625v.19315h.04164Zm.37683,0v-.23288h-.0595l-.06844.16018-.06845-.16018h-.05953v.23288h.04201v-.17566l.06418.15145h.04356l.06418-.15183v.17604h.04198Z"/>
      <path class="cls-7" d="m62.5,29.00012c.00012,3.31351-2.62847,5.99975-5.87113,5.99987-1.31604.00005-2.59394-.45171-3.62861-1.28277,2.54947-2.04851,2.99109-5.82106.98639-8.42625-.28844-.37484-.61957-.7132-.98639-1.00794,2.54935-2.04769,6.24049-1.59586,8.24439,1.0092.81329,1.05728,1.2554,2.36311,1.25534,3.7079Z"/>
    </g>
  </g>
  <rect class="cls-3" y="21" width="34" height="19" rx="2" ry="2"/>
  <g>
    <polygon class="cls-5" points="24.5 38 17.04491 38 9.5 38 9.5 30.42545 9.5 23 16.94447 23 24.5 23 24.5 30.49925 24.5 38"/>
    <path class="cls-2" d="m24.5,38v-2.37681h-1.80963l-.93168-1.0302-.93639,1.0302h-5.96649v-4.80138h-1.92573l2.38866-5.40579h2.30364l.82233,1.85193v-1.85193h2.85147l.49509,1.39554.49833-1.39554h2.2104v-2.41602h-15v15h15Zm-1.5048-2.97795h1.5048l-1.99059-2.11092,1.99059-2.08692h-1.48086l-1.22931,1.34334-1.21749-1.34334h-1.50516l1.97895,2.09892-1.97895,2.09892h1.46328l1.23534-1.35531,1.2294,1.35531h0Zm.35205-2.10915l1.15275,1.22637v-2.44251l-1.15275,1.21614h0Zm-6.70881,1.13766v-.6537h2.36871v-.94752h-2.36871v-.65361h2.42865v-.97152h-3.57411v4.19784h3.57411v-.97149s-2.42865,0-2.42865,0Zm6.7281-3.83553h1.13346v-4.19784h-1.76313l-.94155,2.61459-.93549-2.61459h-1.79304v4.19784h1.13337v-2.93847l1.07949,2.93847h1.00743l1.07946-2.94453v2.94453h0Zm-5.58909,0h1.28934l-1.85295-4.19784h-1.47528l-1.85313,4.19784h1.25937l.34788-.83955h1.93095l.35382.83955h0Zm-.74955-1.7811h-1.13949l.56976-1.37328.56973,1.37328h0Z"/>
  </g>
</svg>