<svg xmlns="http://www.w3.org/2000/svg" viewBox="0 0 70 53.32772"><defs><style>.cls-1{fill:#f4f4f4;}.cls-2{fill:#eb621d;}.cls-3{fill:#e41522;}.cls-4{fill:#f59e1f;}.cls-5{fill:#0958a0;}.cls-6{fill:#f7a521;}.cls-7{fill:#2a6cb4;}.cls-8{fill:#fff;}.cls-9{fill:#7573b4;}.cls-10{fill:#e41221;}.cls-11{fill:#12a1dc;}</style></defs><g id="Layer_2" data-name="Layer 2"><g id="Layer_1-2" data-name="Layer 1"><g id="Layer_2-2" data-name="Layer 2"><g id="Layer_1-2-2" data-name="Layer 1-2"><rect class="cls-1" x="36.27274" width="33.72726" height="25.45454" rx="4.45454"/><rect class="cls-2" x="49.22788" y="6.17298" width="7.82064" height="12.77341"/><path class="cls-3" d="M50.03341,12.5608A8.10946,8.10946,0,0,1,53.136,6.17523a8.123,8.123,0,1,0,0,12.77341A8.10942,8.10942,0,0,1,50.03341,12.5608Z"/><path class="cls-4" d="M65.50321,17.59481v-.26174H65.616v-.05415h-.26851v.05415h.10608v.26174Zm.52123,0v-.31589h-.08123l-.09477.22564-.09477-.22564h-.08123v.31589h.05867v-.23918l.088.20533H65.88l.088-.20533v.23918Z"/><path class="cls-4" d="M66.2794,12.5608a8.123,8.123,0,0,1-13.14346,6.38559,8.123,8.123,0,0,0,0-12.77341A8.123,8.123,0,0,1,66.2794,12.55855Z"/></g></g><g id="Layer_2-3" data-name="Layer 2"><g id="Layer_1-2-3" data-name="Layer 1-2"><rect class="cls-1" x="0.00003" width="33.72726" height="25.45454" rx="4.45454"/><g id="g4158"><polygon id="polygon9" class="cls-5" points="15.075 16.944 12.901 16.944 14.261 8.538 16.434 8.538 15.075 16.944"/><path id="path11" class="cls-5" d="M22.95414,8.74329a5.35659,5.35659,0,0,0-1.9495-.35788c-2.14644,0-3.65795,1.1446-3.66722,2.781-.01783,1.20735,1.08219,1.87794,1.90493,2.28051.84091.41136,1.12676.67986,1.12676,1.04653-.00856.56315-.67951.82273-1.30531.82273a4.32584,4.32584,0,0,1-2.03935-.44714l-.28621-.13431-.30415,1.887a6.61471,6.61471,0,0,0,2.42409.44738c2.28063,0,3.76539-1.12688,3.783-2.87075.0087-.95691-.57216-1.69012-1.82444-2.28928-.76021-.38463-1.22578-.644-1.22578-1.03751.00892-.35776.39378-.72419,1.25193-.72419a3.69277,3.69277,0,0,1,1.61906.32186l.19659.08927.29561-1.81519Z"/><path id="path13" class="cls-5" d="M25.843,13.96587c.179-.48292.86777-2.352.86777-2.352-.009.01794.17865-.49184.286-.80479l.1519.72431s.41161,2.01214.501,2.43242Zm2.683-5.42809H26.84469a1.07251,1.07251,0,0,0-1.136.69745l-3.22851,7.7085h2.28063s.37547-1.03751.45618-1.261h2.79061c.06241.29512.25935,1.261.25935,1.261H30.2794L28.52593,8.53779h0Z"/><path id="path15" class="cls-5" d="M11.08589,8.53779,8.95727,14.26991l-.2326-1.1625A6.43407,6.43407,0,0,0,5.7196,9.58388l1.94974,7.35105H9.96779l3.41643-8.39714Z"/><path id="path17" class="cls-6" d="M6.98069,8.53779h-3.497l-.03577.16985a7.27275,7.27275,0,0,1,5.27678,4.40009L7.96446,9.24439A.89936.89936,0,0,0,6.98069,8.53779Z"/></g></g></g><g id="Layer_2-4" data-name="Layer 2"><g id="Layer_1-2-4" data-name="Layer 1-2"><rect class="cls-1" y="27.87319" width="33.72726" height="25.45454" rx="4.45454"/><path class="cls-7" d="M29.27333,41.34234V31.59767H4.45256V49.60325H29.27333V44.35c-.05528,0,0-3.00762,0-3.00762"/><path class="cls-8" d="M26.23292,40.21284h1.87953V35.5019H26.06709v.656l-.387-.656h-1.769v.83483l-.33168-.83483H20.318c-.11056,0-.22112.05963-.33168.05963s-.16584.05964-.2764.11926-.16584.05963-.2764.11927V35.5019H10.09113l-.2764.77521-.2764-.77521H7.32713v.83482l-.33169-.83482h-1.769l-.77392,2.02749v2.68344H5.724l.22112-.65595h.44224l.22113.65595h9.72931v-.5963l.387.5963h2.70873v-.35778c.05528.05963.16584.05963.22112.11926s.16584.05963.22112.11927a.65577.65577,0,0,0,.33169.05963h1.99008l.22112-.656h.44224l.22112.656h2.70872V39.5569Zm3.04041,5.96322V41.76328h-15.202l-.387.59631-.38695-.59631H8.87494v4.71095h4.42244l.387-.59631.387.59631h2.764V45.46048h-.11054a2.50307,2.50307,0,0,0,.995-.1789v1.2523H19.7099v-.5963l.387.5963h8.23671a4.48218,4.48218,0,0,0,.93976-.35778Z"/><path class="cls-7" d="M28.33357,45.04305H26.841v.656h1.43725a.94939.94939,0,0,0,.995-1.01375.80143.80143,0,0,0-.88448-.89448h-.66336a.299.299,0,0,1,0-.59631H28.9969l.2764-.656H27.78073a.93461.93461,0,0,0-.99331.872q-.00267.041-.00172.08212a.80142.80142,0,0,0,.88448.89448h.66336a.272.272,0,0,1,.27639.29816C28.66524,44.92379,28.55469,45.04305,28.33357,45.04305Zm-2.70873,0H24.13228v.656h1.43728a.94939.94939,0,0,0,.995-1.01375.80142.80142,0,0,0-.88448-.89448h-.66336a.299.299,0,0,1,0-.5963H26.2882l.2764-.65595H25.072a.93461.93461,0,0,0-.99332.872q-.00267.041-.00173.08211a.80144.80144,0,0,0,.88449.89448h.66336a.33252.33252,0,0,1,0,.656ZM23.69,43.13482v-.65595H21.36827v3.1605H23.69v-.65595H22.03163v-.656h1.60313v-.656H22.03164v-.5963H23.69Zm-3.759,0a.3589.3589,0,1,1,0,.71557h-.82923v-.77522Zm-.82923,1.37154h.33167l.88449,1.133h.8292l-.995-1.19261a.93676.93676,0,0,0,.774-.95408.94937.94937,0,0,0-.995-1.01374H18.38315v3.1605h.66336Zm-1.769-.95409c0,.23853-.11056.41743-.387.41743h-.88445v-.83483h.8292a.407.407,0,0,1,.44224.41738ZM15.398,42.47893v3.1605h.66336V44.56608h.88449a1.00868,1.00868,0,0,0,1.05031-1.07335.9983.9983,0,0,0-.92043-1.07052q-.03725-.0028-.0746-.00282Zm-.995,3.1605h.8292l-1.16089-1.61007L15.23215,42.479H14.403l-.71864,1.01374L12.96569,42.479h-.8292l1.16089,1.55039L12.13649,45.5798h.8292l.71864-1.01375Zm-2.48761-2.50455v-.656H9.59361v3.1605h2.32177v-.65595H10.257v-.656H11.8601v-.65595H10.257v-.59631h1.65841Zm13.43307-5.60543,1.16088,1.90824h.82921V36.27712h-.66337v2.08713l-.16584-.29817-1.05032-1.789h-.88445v3.1605h.66336V37.29086Zm-2.87459-.05963.22112-.65595.22112.65595.2764.71556h-.995Zm1.16088,1.96786h.71864l-1.27144-3.1605h-.88442L20.926,39.43762h.71864l.27639-.656h1.43729Zm-3.09568,0,.27639-.65595h-.16584c-.49752,0-.774-.35778-.774-.89448v-.05964c0-.53669.2764-.89448.774-.89448h.71864v-.65595h-.774a1.38012,1.38012,0,0,0-1.382,1.55043v.05964c.0001.954.49762,1.55037,1.32682,1.55037Zm-2.48761,0h.66336V36.33675h-.66333Zm-1.43728-2.50455a.3589.3589,0,1,1,0,.71557H15.785v-.77522Zm-.8292,1.37154h.33167l.88452,1.133h.82921l-.995-1.1926a.93676.93676,0,0,0,.774-.95409.94936.94936,0,0,0-.995-1.01374H15.06637v3.16043h.66336Zm-1.21617-1.37154v-.65595H12.24705v3.16044h2.32177v-.656H12.91041v-.65595h1.60312v-.656H12.91041v-.5963h1.65841ZM9.53833,39.43762h.60808l.82917-2.56418v2.56418h.66336v-3.1605H10.53337L9.87,38.42388l-.66336-2.14676H8.10105v3.1605h.66336V36.87344ZM5.94512,37.46976l.22111-.656.22113.656.27636.71557h-.995ZM7.106,39.43762h.71862l-1.27144-3.1605H5.724L4.45255,39.43763h.71864l.2764-.656H6.88487Z"/></g></g><g id="Layer_2-5" data-name="Layer 2"><g id="Layer_1-2-5" data-name="Layer 1-2"><rect class="cls-1" x="36.27271" y="27.87319" width="33.72726" height="25.45454" rx="4.45454"/><path d="M47.94006,50.54411V49.19217a.80188.80188,0,0,0-.8472-.85622.83438.83438,0,0,0-.75707.38307.79121.79121,0,0,0-.712-.38307.71244.71244,0,0,0-.63089.32V48.39h-.4687v2.15407h.47319V49.34989a.5038.5038,0,0,1,.52725-.57229c.311,0,.46869.20277.46869.56777v1.19875h.47319V49.34989a.508.508,0,0,1,.52725-.57229c.31992,0,.47316.20277.47316.56777v1.19875Zm2.6408-1.07706V48.39h-.46869v.26138a.81725.81725,0,0,0-.68049-.31546,1.13251,1.13251,0,0,0,0,2.26229.81716.81716,0,0,0,.68049-.31548v.26136h.46869Zm-1.744,0a.646.646,0,1,1-.00141.05212q-.00034-.02609.0014-.05214Zm11.77242-1.13364a1.2139,1.2139,0,0,1,.46226.08662,1.12788,1.12788,0,0,1,.36772.23842,1.09157,1.09157,0,0,1,.24293.35876,1.19652,1.19652,0,0,1,0,.89968,1.09063,1.09063,0,0,1-.24293.35883,1.127,1.127,0,0,1-.36772.23837,1.27623,1.27623,0,0,1-.9245,0,1.11455,1.11455,0,0,1-.36666-.23837,1.10108,1.10108,0,0,1-.24178-.35883,1.19775,1.19775,0,0,1,0-.89968,1.10188,1.10188,0,0,1,.24178-.35876,1.11543,1.11543,0,0,1,.36666-.23842,1.21376,1.21376,0,0,1,.46223-.08664Zm0,.44314a.69932.69932,0,0,0-.26762.05062.63308.63308,0,0,0-.21369.14166.66045.66045,0,0,0-.14173.21822.78371.78371,0,0,0,0,.56009.65971.65971,0,0,0,.14173.21818.63294.63294,0,0,0,.21369.1417.73288.73288,0,0,0,.53524,0,.64563.64563,0,0,0,.21482-.1417.65358.65358,0,0,0,.14288-.21818.78371.78371,0,0,0,0-.56009.65416.65416,0,0,0-.14288-.21822.64587.64587,0,0,0-.21482-.14166.69935.69935,0,0,0-.26763-.05063Zm-7.4782.69049a1.03281,1.03281,0,0,0-.92983-1.12643q-.04642-.00444-.09312-.00468a1.13209,1.13209,0,0,0,.03155,2.26226,1.30933,1.30933,0,0,0,.88325-.30194l-.22978-.347a1.02641,1.02641,0,0,1-.6264.22531.59828.59828,0,0,1-.64446-.52725h1.59982c.00447-.05861.009-.11717.009-.1803Zm-1.60429-.18925a.55461.55461,0,0,1,.57231-.52274.53506.53506,0,0,1,.54531.52274Zm3.578-.338a1.38845,1.38845,0,0,0-.67144-.18479c-.25691,0-.41009.09464-.41009.25239,0,.14421.16222.18471.365.21174l.22079.03155c.4687.06761.75257.26589.75257.64443,0,.4101-.3605.70306-.98239.70306a1.554,1.554,0,0,1-.93283-.27947l.2208-.365a1.14758,1.14758,0,0,0,.71654.22532c.31993,0,.49119-.09461.49119-.26139,0-.12166-.12169-.18927-.37852-.2253l-.22084-.03153c-.48216-.06762-.74353-.28393-.74353-.63545,0-.42812.35146-.68949.89677-.68949a1.61069,1.61069,0,0,1,.87876.22535Zm2.252-.1217h-.76607v.97341c0,.21626.07659.3605.311.3605a.86565.86565,0,0,0,.4146-.12167l.13517.40109a1.10121,1.10121,0,0,1-.58584.16673c-.55428,0-.748-.29743-.748-.79769v-.98238h-.43715V48.39h.43715l-.00013-.65341h.47309l.00013.65341h.76607Zm1.622-.48221a1.00119,1.00119,0,0,1,.3335.05862l-.1442.44163a.76362.76362,0,0,0-.29293-.0541c-.30645,0-.45968.1983-.45968.55428v1.20775h-.46866V48.39H58.411v.2614a.63528.63528,0,0,1,.56778-.31546Zm3.24463,1.89461a.215.215,0,0,1,.0849.01684.22064.22064,0,0,1,.06937.046.21584.21584,0,0,1,.04673.06829.21071.21071,0,0,1,0,.1663.21779.21779,0,0,1-.04673.068.22479.22479,0,0,1-.06937.04621.21171.21171,0,0,1-.0849.0171.21845.21845,0,0,1-.20255-.13134.21131.21131,0,0,1,0-.1663.21743.21743,0,0,1,.04653-.06829.21449.21449,0,0,1,.06962-.046.22137.22137,0,0,1,.08641-.01686Zm0,.38148a.15952.15952,0,0,0,.06466-.01313.1698.1698,0,0,0,.05251-.03572.167.167,0,0,0-.05251-.2719.16135.16135,0,0,0-.06466-.01292.16815.16815,0,0,0-.06593.01292.16464.16464,0,0,0-.05332.0354.16718.16718,0,0,0,.11925.28535Zm.01261-.26748a.09061.09061,0,0,1,.05915.01713.057.057,0,0,1,.02073.04648.05414.05414,0,0,1-.01654.04068.07873.07873,0,0,1-.04706.01973l.06517.07514h-.051l-.06043-.07462h-.01943v.07462h-.04254v-.19916Zm-.04937.03734V50.435h.04891a.04819.04819,0,0,0,.02676-.00661.02248.02248,0,0,0,.00995-.02019.02215.02215,0,0,0-.00995-.01975.04853.04853,0,0,0-.02676-.00653Z"/><rect class="cls-9" x="49.58247" y="31.9496" width="7.10792" height="12.77315"/><path class="cls-10" d="M50.03382,38.33617a8.10923,8.10923,0,0,1,3.10264-6.38657,8.12334,8.12334,0,1,0,0,12.77314A8.10929,8.10929,0,0,1,50.03382,38.33617Z"/><path class="cls-11" d="M61.66508,42.45913V42.2788h.07272v-.03674h-.18518v.03674h.07275v.18033Zm.35955,0V42.2417h-.05677l-.06529.14955-.06531-.14955h-.05681v.21743h.04009v-.164l.06123.1414h.04156l.06123-.14176v.16437Z"/><path class="cls-11" d="M66.2794,38.33617a8.123,8.123,0,0,1-13.14294,6.38657,8.12451,8.12451,0,0,0,0-12.77314A8.123,8.123,0,0,1,66.2794,38.33617Z"/></g></g></g></g></svg>