<?xml version="1.0" encoding="UTF-8"?>
<svg id="Layer_1" data-name="Layer 1" xmlns="http://www.w3.org/2000/svg" viewBox="0 0 70 40">
  <defs>
    <style>
      .cls-1 {
        fill: #fff;
      }

      .cls-2 {
        fill: #dc0d19;
      }

      .cls-3 {
        fill: #2b2523;
      }
    </style>
  </defs>
  <path class="cls-1" d="m21.88083.39816C11.13682.39816,2.39575,9.19117,2.39575,19.99916c0,10.80897,8.74107,19.60282,19.48508,19.60282h26.24098c10.74262,0,19.48244-8.79384,19.48244-19.60282C67.60425,9.19117,58.86443.39816,48.12181.39816c0,0-26.24098,0-26.24098,0Z"/>
  <path class="cls-3" d="m48.12181,40h-26.24098c-10.9623,0-19.88083-8.97225-19.88083-20.00084C2,8.97169,10.91853,0,21.88083,0h26.24098c10.96091,0,19.87819,8.97169,19.87819,19.99916,0,11.02859-8.91728,20.00084-19.87819,20.00084M21.88083.39816C11.13682.39816,2.39575,9.19117,2.39575,19.99916c0,10.80897,8.74107,19.60282,19.48508,19.60282h26.24098c10.74262,0,19.48244-8.79384,19.48244-19.60282C67.60425,9.19117,58.86443.39816,48.12181.39816c0,0-26.24098,0-26.24098,0Z"/>
  <path class="cls-2" d="m52.70889,18.80221l8.72593,10.44071c1.80728-2.6276,2.86861-5.81278,2.86861-9.2437,0-3.62106-1.18241-6.96997-3.17785-9.67679l-8.41669,8.47978Z"/>
  <path class="cls-2" d="m27.98228,9.4411c6.51636,0,11.42623,1.6681,11.93169,7.19183l6.8581-7.19266h13.65566c-2.97067-3.49812-7.38523-5.72029-12.30593-5.72029h-26.24098c-4.92251,0-9.33789,2.22218-12.3087,5.72113,0,0,18.41015,0,18.41015,0Z"/>
  <path class="cls-2" d="m17.24578,16.4046l-2.32705,6.43685h9.38858c2.77543,0,3.61527-1.15593,4.23639-3.3816.61474-2.20108-.9294-3.05525-2.82611-3.05525,0,0-8.47181,0-8.47181,0Z"/>
  <path class="cls-2" d="m46.82897,30.12166l-7.25317-9.22204c-1.34168,6.28778-5.73166,9.22107-13.9613,9.22107H9.21327c2.96706,3.75099,7.54255,6.16037,12.66752,6.16037h26.24098c5.1233,0,9.69769-2.4084,12.66488-6.15939h-13.95768Z"/>
</svg>