<svg width="70" height="40" viewBox="0 0 70 40" xmlns="http://www.w3.org/2000/svg"><title>directdebit-nl</title><desc>Created with Sketch.</desc><path d="M7.2 25v-11.978h-1.859v11.978h1.859zm2.379 0h1.785v-5.288c0-1.411.838-2.291 2.158-2.291 1.32 0 1.951.722 1.951 2.175v5.404h1.785v-5.852c0-2.15-1.112-3.362-3.129-3.362-1.361 0-2.258.606-2.698 1.61h-.133v-1.436h-1.718v9.04zm19.271-8.019h1.851l.008-.183c0-2.324-1.984-4.067-4.632-4.067-3.694 0-6.417 3.204-6.417 7.62 0 2.988 1.901 4.939 4.765 4.939 2.706 0 4.74-1.444 5.313-3.744h-1.901c-.423 1.204-1.702 2-3.229 2-1.859 0-3.03-1.295-3.03-3.362 0-3.229 1.909-5.703 4.366-5.703 1.668 0 2.806.963 2.914 2.44l-.008.058zm5.351 6.682c-.938 0-1.594-.515-1.594-1.237 0-.838.78-1.386 2.117-1.444l2.2-.1-.208.93c-.241 1.063-1.287 1.851-2.515 1.851zm-.656 1.486c1.079 0 2.075-.498 2.665-1.303h.141l-.249 1.154h1.735l1.245-5.894c.05-.232.075-.49.075-.73 0-1.561-1.361-2.59-3.42-2.59-1.917 0-3.378.979-3.769 2.54h1.785c.266-.639.921-.988 1.843-.988 1.112 0 1.776.473 1.776 1.262 0 .108-.017.208-.05.382l-.125.589-2.449.1c-2.515.091-3.935 1.195-3.935 2.997 0 1.411 1.17 2.482 2.731 2.482zm6.38-2.648c.108 1.594 1.585 2.673 3.694 2.673 2.183 0 3.744-1.17 3.744-2.831 0-1.195-.631-1.926-2.133-2.416l-1.303-.448c-.772-.249-1.17-.589-1.17-1.079 0-.672.73-1.162 1.735-1.162.971 0 1.668.432 1.826 1.112h1.71c-.199-1.536-1.502-2.565-3.52-2.565-2.034 0-3.511 1.121-3.511 2.797 0 1.195.697 1.926 2.108 2.399l1.386.465c.789.257 1.054.606 1.054 1.071 0 .714-.764 1.212-1.884 1.212-1.046 0-1.76-.515-1.951-1.229h-1.785zm8.48 0c.108 1.594 1.585 2.673 3.694 2.673 2.183 0 3.744-1.17 3.744-2.831 0-1.195-.631-1.926-2.133-2.416l-1.303-.448c-.772-.249-1.17-.589-1.17-1.079 0-.672.73-1.162 1.735-1.162.971 0 1.668.432 1.826 1.112h1.71c-.199-1.536-1.502-2.565-3.52-2.565-2.034 0-3.511 1.121-3.511 2.797 0 1.195.697 1.926 2.108 2.399l1.386.465c.789.257 1.054.606 1.054 1.071 0 .714-.764 1.212-1.884 1.212-1.046 0-1.76-.515-1.951-1.229h-1.785zm10.954-1.287c0-2.25 1.187-3.843 2.889-3.843 1.278 0 2.042.938 2.042 2.49 0 2.042-1.27 3.719-2.822 3.719-1.278 0-2.108-.93-2.108-2.366zm1.934 3.959c2.814 0 4.881-2.357 4.881-5.562 0-2.291-1.527-3.827-3.793-3.827-2.847 0-4.897 2.333-4.897 5.553 0 2.291 1.544 3.835 3.81 3.835z" fill="#18799F"/></svg>