<svg xmlns="http://www.w3.org/2000/svg" viewBox="0 0 100 35.93954"><defs><style>.cls-1{fill:#56bcdb;}.cls-2{fill:#18799f;}</style></defs><g id="Layer_2" data-name="Layer 2"><g id="Layer_1-2" data-name="Layer 1"><path class="cls-1" d="M1.674,16.92357,4.21255.16924h5.2463a4.82487,4.82487,0,0,1,4.06166,2.03083,6.37418,6.37418,0,0,1,1.01542,5.07707l-.33848,2.70777A8.11267,8.11267,0,0,1,11.65892,15.062a6.85259,6.85259,0,0,1-4.56937,1.86159ZM7.08956,2.70777,5.3972,14.385H7.25879a2.66383,2.66383,0,0,0,2.20006-1.18465A8.02661,8.02661,0,0,0,10.81274,9.9849l.5077-2.877A4.88752,4.88752,0,0,0,10.982,3.89242,1.97512,1.97512,0,0,0,9.12038,2.70777Z"/><path class="cls-1" d="M18.08988,16.92357H14.8744L17.41294.16924h3.21548Z"/><path class="cls-1" d="M24.69008,9.98491l-1.01541,6.93866H20.45919L22.99772.16924H28.0748A5.2684,5.2684,0,0,1,31.798,1.52312,3.76724,3.76724,0,0,1,32.8134,4.90784,5.93371,5.93371,0,0,1,31.798,7.27714a4.62017,4.62017,0,0,1-2.03083,1.52312,3.02687,3.02687,0,0,1,1.69236,1.52312,4.14589,4.14589,0,0,1,.16923,2.53853l-.16923,1.18465a4.60124,4.60124,0,0,0,0,1.52312,2.44593,2.44593,0,0,0,.33847,1.18465v.16924H28.41327a1.97239,1.97239,0,0,1-.33847-1.18465,5.75749,5.75749,0,0,1,.16923-1.69236l.16923-1.18465a3.8097,3.8097,0,0,0-.16923-2.03083,1.37347,1.37347,0,0,0-1.35389-.67694l-2.20006-.16923Zm.33847-2.53854h1.69236a2.17275,2.17275,0,0,0,1.69236-.67694,3.22455,3.22455,0,0,0,.84618-1.69236,2.46091,2.46091,0,0,0-.16924-1.69235,1.64969,1.64969,0,0,0-1.52312-.677H25.87473Z"/><path class="cls-1" d="M42.45984,9.4772H37.38276L36.70582,14.385H42.7983l-.33847,2.53854h-9.308L35.6904.16924h9.308l-.33848,2.53853H38.56741l-.677,4.23089h5.07708Z"/><path class="cls-1" d="M55.66023,11.508h0a6.18885,6.18885,0,0,1-1.8616,4.23089,6.66192,6.66192,0,0,1-4.23089,1.35388,5.4894,5.4894,0,0,1-4.06166-1.52312,6.17024,6.17024,0,0,1-1.01541-4.56936l.67694-4.90784a7.30864,7.30864,0,0,1,2.20007-4.56936A6.62809,6.62809,0,0,1,51.7678,0a5.41386,5.41386,0,0,1,3.89243,1.35388c.84617.84618,1.18465,2.20007.84617,4.06166H53.29093a3.3654,3.3654,0,0,0-.16924-2.3693A2.399,2.399,0,0,0,51.2601,2.3693a2.42455,2.42455,0,0,0-1.86159.84618,5.67586,5.67586,0,0,0-1.01542,2.70777l-.67694,4.90783a4.43759,4.43759,0,0,0,.16923,2.70777A2.18366,2.18366,0,0,0,49.737,14.385a2.31146,2.31146,0,0,0,1.86159-.67694,3.76677,3.76677,0,0,0,.84618-2.20006Z"/><path class="cls-1" d="M68.35291,2.70777H64.46049l-2.20007,14.2158H59.04494L61.245,2.70777H57.35258L57.69106.16924H68.69138Z"/><g id="Send_Money" data-name="Send Money"><path class="cls-1" d="M97.6307,16.92357H74.4454c-.33848,0-.50771-.33847-.50771-.67694L75.63005,2.877a.728.728,0,0,1,.67694-.67694h23.1853c.33847,0,.50771.33847.50771.67694L98.30764,16.24663A.728.728,0,0,1,97.6307,16.92357ZM75.29158,15.56968H97.29223l1.52312-12.185H76.8147Z"/><path class="cls-1" d="M94.246,14.385H78.33782c-.33847,0-.5077-.33847-.5077-.67694a.44875.44875,0,0,0-.50771-.5077c-.33847,0-.50771-.50771-.50771-.84618l.677-5.92325a.728.728,0,0,1,.67694-.67694.728.728,0,0,0,.67694-.67694c0-.33848.33847-.50771.67694-.50771H95.43064a.44875.44875,0,0,1,.5077.50771c0,.33847.16924.67694.50771.67694a.44875.44875,0,0,1,.50771.5077l-.677,6.26172a.728.728,0,0,1-.67694.67694c-.33847,0-.67694.16924-.67694.50771A.61991.61991,0,0,1,94.246,14.385ZM79.01476,13.20038H93.90751a2.04436,2.04436,0,0,1,1.18465-1.18465l.67694-5.07707A1.78929,1.78929,0,0,1,94.75369,5.754H79.86094a2.0443,2.0443,0,0,1-1.18465,1.18465l-.67694,5.07707A1.23619,1.23619,0,0,1,79.01476,13.20038Z"/><path class="cls-1" d="M86.63037,11.67726c-1.35388,0-2.03083-.84617-2.03083-2.20006a2.32638,2.32638,0,0,1,2.53854-2.20006,2.09224,2.09224,0,0,1,2.20007,2.3693A2.60867,2.60867,0,0,1,86.63037,11.67726Zm.50771-3.38471A1.30791,1.30791,0,0,0,85.78419,9.4772c0,.67695.33848,1.18465,1.01542,1.18465A1.3079,1.3079,0,0,0,88.1535,9.4772.95222.95222,0,0,0,87.13808,8.29255Z"/><path class="cls-1" d="M81.38406,10.15414H80.19941c-.33847,0-.5077-.33847-.5077-.67694a.728.728,0,0,1,.67694-.67694H81.5533c.33847,0,.50771.33847.50771.67694A.728.728,0,0,1,81.38406,10.15414Z"/><path class="cls-1" d="M93.569,10.15414H92.38439c-.33847,0-.50771-.33847-.50771-.67694a.728.728,0,0,1,.67694-.67694h1.18465c.33847,0,.50771.33847.50771.67694A.728.728,0,0,1,93.569,10.15414Z"/><path class="cls-1" d="M72.24533,15.56968H69.876c-.33847,0-.50771-.33847-.50771-.67694a.728.728,0,0,1,.677-.67694h2.20006c.33847,0,.50771.33847.50771.67694C72.753,15.40045,72.5838,15.56968,72.24533,15.56968Z"/><path class="cls-1" d="M72.5838,12.01573H67.676c-.33848,0-.50771-.33847-.50771-.67694a.728.728,0,0,1,.67694-.67694H72.753c.33847,0,.50771.33847.50771.67694A.728.728,0,0,1,72.5838,12.01573Z"/><path class="cls-1" d="M73.59922,4.56936H69.876c-.33847,0-.50771-.33847-.50771-.67694a.728.728,0,0,1,.677-.67694h3.72319c.33847,0,.5077.33847.5077.67694A.728.728,0,0,1,73.59922,4.56936Z"/><path class="cls-1" d="M73.09151,8.29255H65.81437c-.33847,0-.5077-.33847-.5077-.67694a.728.728,0,0,1,.67694-.67694h7.27714c.33847,0,.50771.33847.50771.67694A.61992.61992,0,0,1,73.09151,8.29255Z"/></g><path class="cls-2" d="M2.5625,23.33694H7.89409a4.76168,4.76168,0,0,1,1.9477.32888,3.02216,3.02216,0,0,1,1.09078.77842,2.19316,2.19316,0,0,1,.476.95278,4.24432,4.24432,0,0,1,.10412.83048,3.30866,3.30866,0,0,1-.16444,1.0478,2.95768,2.95768,0,0,1-.476.89163,2.67867,2.67867,0,0,1-.75363.65777,2.79742,2.79742,0,0,1-.97756.34624v.03471A2.47206,2.47206,0,0,1,10.99289,31.802a4.3028,4.3028,0,0,1-.19006,1.1511,3.52739,3.52739,0,0,1-.70157,1.28166A4.00477,4.00477,0,0,1,8.6816,35.27351a5.52423,5.52423,0,0,1-2.32782.42391H0ZM2.52779,33.93152h3.0988q.27642,0,.77842-.01735a3.80655,3.80655,0,0,0,1.02219-.1818,2.28991,2.28991,0,0,0,.92551-.56274,1.79091,1.79091,0,0,0,.476-1.15936,3.64767,3.64767,0,0,0-.00827-.55448,1.29823,1.29823,0,0,0-.24212-.64042,1.66477,1.66477,0,0,0-.67512-.528,3.10718,3.10718,0,0,0-1.28993-.2165H3.34092Zm1.12466-5.41835H6.89008a3.29164,3.29164,0,0,0,1.28083-.20824,1.98149,1.98149,0,0,0,.74454-.51068,1.58046,1.58046,0,0,0,.34624-.64042,2.38261,2.38261,0,0,0,.08677-.58009,2.21374,2.21374,0,0,0-.05206-.44127,1.1347,1.1347,0,0,0-.24212-.48424,1.40465,1.40465,0,0,0-.57183-.39,2.80543,2.80543,0,0,0-1.03872-.15535H4.36228Z"/><path class="cls-2" d="M19.09522,35.86186a3.87037,3.87037,0,0,1-.77925.07768,1.15637,1.15637,0,0,1-.83048-.31153,1.20421,1.20421,0,0,1-.36359-.83048,3.60618,3.60618,0,0,1-1.385.86519,4.93334,4.93334,0,0,1-1.6279.27682,3.561,3.561,0,0,1-1.05607-.15535,2.871,2.871,0,0,1-.8908-.45036,2.07018,2.07018,0,0,1-.6148-.74454,2.2878,2.2878,0,0,1-.2256-1.03871,2.83821,2.83821,0,0,1,.31236-1.39322,2.72066,2.72066,0,0,1,.83048-.92634,3.64822,3.64822,0,0,1,1.1949-.53712,7.97142,7.97142,0,0,1,1.41966-.22477q1.00278-.0694,1.97332-.15535a1.02661,1.02661,0,0,0,.78751-.35533,1.29515,1.29515,0,0,0,.25121-.82222.85651.85651,0,0,0-.45036-.85692,2.40735,2.40735,0,0,0-1.05607-.2165,3.27725,3.27725,0,0,0-1.42793.28592,1.56124,1.56124,0,0,0-.80486,1.11639h-1.87a3.66065,3.66065,0,0,1,.53713-1.39322,3.22035,3.22035,0,0,1,.9346-.91807,3.71165,3.71165,0,0,1,1.25522-.50159,7.25764,7.25764,0,0,1,1.49734-.14709,6.10578,6.10578,0,0,1,1.89564.233,2.54821,2.54821,0,0,1,1.004.56274,1.371,1.371,0,0,1,.38921.68421,3.2019,3.2019,0,0,1,.06941.59745,6.20965,6.20965,0,0,1-.17271,1.35025L19.234,33.10022q-.05205.24294-.11321.46771a1.60282,1.60282,0,0,0-.06032.41565.44613.44613,0,0,0,.08677.29418.414.414,0,0,0,.32888.10412M13.29592,33.239a.94489.94489,0,0,0,.14709.54539,1.12045,1.12045,0,0,0,.37185.34624,1.71721,1.71721,0,0,0,.50242.19006,2.52586,2.52586,0,0,0,.55365.06115,2.74767,2.74767,0,0,0,1.22052-.243,2.27241,2.27241,0,0,0,.814-.65777,3.18347,3.18347,0,0,0,.50159-.97757,8.14058,8.14058,0,0,0,.28592-1.20316l-.03471-.0347a1.1656,1.1656,0,0,1-.55365.29418,4.91241,4.91241,0,0,1-.67513.12147q-.41523.03471-.961.06859a4.46784,4.46784,0,0,0-1.02136.18179,2.164,2.164,0,0,0-.814.45036A1.09315,1.09315,0,0,0,13.29592,33.239Z"/><path class="cls-2" d="M22.05519,26.74727h1.85267L23.631,28.04546l.03471.0347a3.753,3.753,0,0,1,3.08145-1.575,2.682,2.682,0,0,1,1.98157.64042,2.35706,2.35706,0,0,1,.63216,1.73119c0,.16114-.00578.34624-.01735.55365a3.60731,3.60731,0,0,1-.06942.55366l-1.19407,5.71335H26.10677l1.142-5.52247q.05205-.22435.095-.433a1.945,1.945,0,0,0,.04379-.3983c0-.06859-.0033-.17519-.00909-.3198a.95777.95777,0,0,0-.12973-.433.99213.99213,0,0,0-.40656-.37186,1.74619,1.74619,0,0,0-.82222-.15618,2.15219,2.15219,0,0,0-1.04781.25121,3.58546,3.58546,0,0,0-.82221.6148,3.19719,3.19719,0,0,0-.59745.85692,4.6905,4.6905,0,0,0-.37186,1.06434l-1.004,4.84734H20.20335Z"/><path class="cls-2" d="M32.00936,23.33694H33.9835L32.52913,30.3303l.03471.03471,4.05075-3.61774h2.49309l-3.94746,3.28886,2.18155,5.66129H35.16022l-1.575-4.34493-1.52378,1.29819L31.421,35.69742H29.44769Z"/><path class="cls-2" d="M38.27637,23.33694H48.45614l-.3983,1.86919H44.12773L41.94618,35.69742H39.7828l2.18073-10.49129h-4.0681Z"/><path class="cls-2" d="M46.89765,26.74727h1.87l-.36359,1.74855.0347.0347a4.95061,4.95061,0,0,1,.51069-.72718,4.41333,4.41333,0,0,1,.666-.64951,3.497,3.497,0,0,1,.78834-.46688,2.232,2.232,0,0,1,.89162-.1818c.16114,0,.3198.00248.476.00826.15535.00579.314.02066.476.043l-.41565,1.88738c-.11569-.02314-.23138-.04049-.34624-.05206-.11569-.01157-.23137-.01736-.34624-.01736a3.04158,3.04158,0,0,0-1.32463.26857,2.78343,2.78343,0,0,0-.952.73544,3.97271,3.97271,0,0,0-.63216,1.07343,7.5014,7.5014,0,0,0-.38012,1.28083l-.8313,3.96481H45.0458Z"/><path class="cls-2" d="M58.92925,35.86186a3.87027,3.87027,0,0,1-.77924.07768,1.15635,1.15635,0,0,1-.83048-.31153,1.20412,1.20412,0,0,1-.36359-.83048,3.60633,3.60633,0,0,1-1.385.86519,4.93334,4.93334,0,0,1-1.6279.27682,3.561,3.561,0,0,1-1.05607-.15535,2.8712,2.8712,0,0,1-.89081-.45036,2.07029,2.07029,0,0,1-.6148-.74454,2.28793,2.28793,0,0,1-.22559-1.03871,2.83821,2.83821,0,0,1,.31236-1.39322,2.72056,2.72056,0,0,1,.83048-.92634,3.64826,3.64826,0,0,1,1.19489-.53712,7.97153,7.97153,0,0,1,1.41967-.22477q1.00276-.0694,1.97331-.15535a1.02659,1.02659,0,0,0,.78751-.35533,1.29515,1.29515,0,0,0,.25121-.82222.8565.8565,0,0,0-.45036-.85692,2.40729,2.40729,0,0,0-1.05607-.2165,3.27728,3.27728,0,0,0-1.42793.28592,1.56126,1.56126,0,0,0-.80486,1.11639h-1.87a3.66049,3.66049,0,0,1,.53713-1.39322,3.22032,3.22032,0,0,1,.93459-.91807,3.71165,3.71165,0,0,1,1.25522-.50159,7.25771,7.25771,0,0,1,1.49734-.14709,6.10569,6.10569,0,0,1,1.89564.233,2.54806,2.54806,0,0,1,1.004.56274,1.3709,1.3709,0,0,1,.38921.68421,3.20117,3.20117,0,0,1,.06942.59745,6.21026,6.21026,0,0,1-.17271,1.35025l-.65777,3.16739q-.05207.24294-.11321.46771a1.60282,1.60282,0,0,0-.06032.41565.44618.44618,0,0,0,.08676.29418.414.414,0,0,0,.32889.10412M53.13,33.239a.945.945,0,0,0,.14709.54539,1.12057,1.12057,0,0,0,.37186.34624,1.7171,1.7171,0,0,0,.50242.19006,2.52573,2.52573,0,0,0,.55365.06115,2.74763,2.74763,0,0,0,1.22051-.243,2.27224,2.27224,0,0,0,.81395-.65777,3.18349,3.18349,0,0,0,.5016-.97757,8.13933,8.13933,0,0,0,.28591-1.20316l-.0347-.0347a1.16563,1.16563,0,0,1-.55366.29418,4.912,4.912,0,0,1-.67512.12147q-.41525.03471-.961.06859a4.468,4.468,0,0,0-1.02137.18179,2.16411,2.16411,0,0,0-.81395.45036A1.09319,1.09319,0,0,0,53.13,33.239Z"/><path class="cls-2" d="M61.88923,26.74727H63.7419l-.27683,1.29819.03471.0347a3.753,3.753,0,0,1,3.08144-1.575,2.68206,2.68206,0,0,1,1.98158.64042,2.35706,2.35706,0,0,1,.63216,1.73119c0,.16114-.00579.34624-.01736.55365a3.60739,3.60739,0,0,1-.06941.55366l-1.19407,5.71335H65.9408l1.142-5.52247q.05206-.22435.095-.433a1.94432,1.94432,0,0,0,.0438-.3983c0-.06859-.0033-.17519-.00909-.3198a.95767.95767,0,0,0-.12974-.433.99213.99213,0,0,0-.40656-.37186,1.74614,1.74614,0,0,0-.82221-.15618,2.15216,2.15216,0,0,0-1.04781.25121,3.58574,3.58574,0,0,0-.82222.6148,3.19694,3.19694,0,0,0-.59744.85692,4.68953,4.68953,0,0,0-.37186,1.06434l-1.004,4.84734H60.03738Z"/><path class="cls-2" d="M75.61732,29.361a1.11933,1.11933,0,0,0-.51068-.98666,2.38582,2.38582,0,0,0-1.2891-.31153,2.94358,2.94358,0,0,0-.56274.05206,1.47885,1.47885,0,0,0-.48507.1818.99231.99231,0,0,0-.34624.34624,1.04511,1.04511,0,0,0-.12973.54538.61374.61374,0,0,0,.23385.5016,2.25075,2.25075,0,0,0,.614.338q.38177.14751.84866.27683.46729.13014.93459.30327.39789.15494.77925.34624a2.68485,2.68485,0,0,1,.66686.46688,2.15674,2.15674,0,0,1,.45862.65777,2.22,2.22,0,0,1,.17271.91807,2.46086,2.46086,0,0,1-.34624,1.3329,2.95942,2.95942,0,0,1-.89989.91724,3.85271,3.85271,0,0,1-1.27258.528,6.44647,6.44647,0,0,1-1.44528.16444,6.80833,6.80833,0,0,1-1.45437-.14709,3.1851,3.1851,0,0,1-1.17754-.50159,2.4801,2.4801,0,0,1-.79577-.95278,3.56674,3.56674,0,0,1-.31153-1.51469h1.86919a1.2381,1.2381,0,0,0,.53713,1.20316,2.67209,2.67209,0,0,0,1.43619.35533,3.4611,3.4611,0,0,0,.64124-.06115,2.2669,2.2669,0,0,0,.60571-.19832,1.25165,1.25165,0,0,0,.45863-.39,1.04642,1.04642,0,0,0,.18179-.63215.73289.73289,0,0,0-.25121-.571,2.29169,2.29169,0,0,0-.64042-.38921,7.43963,7.43963,0,0,0-.88253-.30327q-.49334-.13758-.961-.31153a5.15436,5.15436,0,0,1-.75281-.32888,2.791,2.791,0,0,1-.63215-.45863,1.93207,1.93207,0,0,1-.433-.63215,2.18147,2.18147,0,0,1-.15535-.86519,2.33225,2.33225,0,0,1,.3198-1.24695,2.61254,2.61254,0,0,1,.83956-.84783,3.84628,3.84628,0,0,1,1.17755-.48507,5.8191,5.8191,0,0,1,1.35025-.15535,6.86137,6.86137,0,0,1,1.3676.12974,2.974,2.974,0,0,1,1.1164.45862,2.23241,2.23241,0,0,1,.74453.88253,3.01563,3.01563,0,0,1,.25121,1.385Z"/><path class="cls-2" d="M79.70361,28.219H78.23188l.29418-1.47172h1.47172q.15495-.77966.32889-1.40231a3.28745,3.28745,0,0,1,.50159-1.07342,2.12193,2.12193,0,0,1,.88337-.69248,3.67806,3.67806,0,0,1,1.45437-.24212,6.421,6.421,0,0,1,.76106.043q.36443.04338.70983.07767L84.308,24.964a3.41342,3.41342,0,0,0-.76189-.06941,1.71422,1.71422,0,0,0-.77016.13883,1.00615,1.00615,0,0,0-.41565.38921,1.9421,1.9421,0,0,0-.2165.58835c-.04628.2256-.1033.471-.17271.73628h1.7312L83.40812,28.219h-1.7312l-1.55849,7.47843H78.14512Z"/><path class="cls-2" d="M91.30221,32.92751a3.93539,3.93539,0,0,1-1.57585,2.29394,4.929,4.929,0,0,1-2.7352.71809,4.45541,4.45541,0,0,1-1.56676-.26773,3.48666,3.48666,0,0,1-1.23786-.77925,3.62236,3.62236,0,0,1-.81313-1.2296,4.27157,4.27157,0,0,1-.29418-1.63534,6.35717,6.35717,0,0,1,.32889-2.0262,5.55685,5.55685,0,0,1,.96021-1.76508,4.80194,4.80194,0,0,1,1.55849-1.25522,4.57184,4.57184,0,0,1,2.12041-.476,4.10873,4.10873,0,0,1,1.93943.39747,3.21574,3.21574,0,0,1,1.15937,1.004,3.6077,3.6077,0,0,1,.56274,1.33372,6.96523,6.96523,0,0,1,.14709,1.385,4.88708,4.88708,0,0,1-.03471.60571c-.02314.18428-.04627.352-.06941.50159H85.08725c-.01157.05785-.02066.10991-.02644.15618a1.11851,1.11851,0,0,0-.00826.13883v.27683a2.22084,2.22084,0,0,0,.49333,1.5056,2.05987,2.05987,0,0,0,1.63616.57183,2.49692,2.49692,0,0,0,1.36761-.36359,1.82824,1.82824,0,0,0,.77841-1.09078Zm-1.437-2.49309a.768.768,0,0,0,.01735-.14709v-.40656a1.78781,1.78781,0,0,0-.50242-1.30728,1.85263,1.85263,0,0,0-1.385-.51068,2.36867,2.36867,0,0,0-1.76591.66686,3.86913,3.86913,0,0,0-.95195,1.70475Z"/><path class="cls-2" d="M93.83,26.74727H95.7l-.36359,1.74855.03471.0347a4.95052,4.95052,0,0,1,.51068-.72718,4.4138,4.4138,0,0,1,.666-.64951,3.497,3.497,0,0,1,.78834-.46688,2.232,2.232,0,0,1,.89163-.1818c.16113,0,.31979.00248.476.00826.15536.00579.314.02066.476.043l-.41565,1.88738c-.11569-.02314-.23138-.04049-.34624-.05206-.11569-.01157-.23138-.01736-.34624-.01736a3.0416,3.0416,0,0,0-1.32464.26857,2.78343,2.78343,0,0,0-.95195.73544,3.97242,3.97242,0,0,0-.63215,1.07343,7.4996,7.4996,0,0,0-.38012,1.28083l-.83131,3.96481H91.97816Z"/></g></g></svg>