<?xml version="1.0" encoding="UTF-8"?>
<svg id="Layer_1" data-name="Layer 1" xmlns="http://www.w3.org/2000/svg" viewBox="0 0 70 40">
  <defs>
    <style>
      .cls-1 {
        fill: #002cb8;
      }

      .cls-2 {
        fill: #007cff;
      }

      .cls-3 {
        fill: #6fbaf7;
      }
    </style>
  </defs>
  <g id="_007cffff" data-name="#007cffff">
    <path class="cls-2" d="M7.50217,11.83549c2.05233-.18276,4.16502,.4507,5.76965,1.74416,.22599,.20759,.33257,.5316,.28206,.83335-.04922,.32872-.28977,.61891-.60265,.73062-.3056,.11342-.66514,.05265-.91767-.1528-.97331-.75245-2.17218-1.20872-3.40016-1.28619-1.32942-.09416-2.68708,.2414-3.81062,.95961-1.12354,.71179-2.01724,1.78311-2.50304,3.02222-.50549,1.27848-.57311,2.72346-.19732,4.0456,.34584,1.23097,1.08545,2.34296,2.07374,3.15191,1.03751,.85903,2.35879,1.36451,3.70405,1.42101,1.46595,.07576,2.94946-.38778,4.11366-1.28105,.18961-.15665,.43743-.24311,.68397-.21957,.43058,.02953,.81023,.39163,.86288,.81922,.04451,.31117-.08047,.64117-.32572,.83848-1.34055,1.05934-3.02479,1.66969-4.73171,1.72704-1.61019,.06377-3.23794-.35654-4.60759-1.20786-1.77584-1.09101-3.10825-2.88055-3.62829-4.90035-.43615-1.65856-.33728-3.45409,.28549-5.0523,.52903-1.36751,1.44027-2.58051,2.59335-3.48448,1.24296-.98058,2.77782-1.58195,4.35592-1.70864Z"/>
  </g>
  <g id="_6fbaf7ff" data-name="#6fbaf7ff">
    <path class="cls-3" d="M17.12396,14.43953c.40875-.11942,.88385,.07833,1.07817,.45926,.80981,1.57638,1.22926,3.34922,1.22327,5.12078,0,1.64829-.36809,3.29572-1.07518,4.78479-.08903,.17891-.16222,.3728-.3056,.51747-.21658,.22471-.54957,.32615-.85475,.26451-.31716-.05864-.59366-.29447-.70109-.59879-.09802-.26323-.06506-.56455,.07191-.80809,1.29988-2.56424,1.30887-5.73669,.02397-8.30864-.11642-.20716-.18105-.45027-.13482-.68739,.05607-.3514,.33086-.6523,.67413-.74389Z"/>
    <path class="cls-3" d="M14.55801,16.06171c.40704-.10957,.87144,.09416,1.06233,.47039,1.0221,2.15677,1.0221,4.76767,.00599,6.92701-.13311,.27093-.40533,.46568-.70409,.5072-.35311,.05735-.72977-.11128-.92323-.41218-.18234-.27093-.20588-.63646-.06249-.92965,.76444-1.653,.75502-3.63728-.01626-5.28642-.23241-.50549,.09545-1.15735,.63774-1.27634Z"/>
  </g>
  <g id="_002cb8ff" data-name="#002cb8ff">
    <path class="cls-1" d="M62.649,14.79265c-.00556-.20502,.17463-.39292,.38136-.39121,.37152-.00257,.74347-.00428,1.11541,.00086,.20245,.00342,.37537,.1909,.37023,.39249,.00129,1.03023,.00171,2.06047-.00043,3.0907,.53716-.49607,1.25794-.76187,1.98171-.8128,.73191-.05307,1.4972,.08603,2.11654,.49436,.52132,.33728,.91167,.85646,1.12868,1.43514,.18533,.4858,.25809,1.00883,.25638,1.52716-.00043,1.37136,0,2.74315,0,4.11452,.01669,.21101-.15623,.41689-.37066,.42117-.36039,.00642-.72121,.00257-1.08117,.00214-.20972,.00942-.40362-.17292-.40148-.3835-.00342-1.26907-.00085-2.53856-.00128-3.80763,.00684-.36125-.02354-.7272-.13911-1.07132-.13953-.43615-.43444-.83506-.85218-1.03794-.52817-.25167-1.18175-.24311-1.69922,.0321-.38821,.20844-.66086,.58895-.79654,1.00241-.10658,.31673-.14424,.65272-.14081,.98572,.00086,1.28576,0,2.57152,.00043,3.85728,.01626,.2093-.15451,.41389-.36681,.42031-.37366,.00642-.74774,.00428-1.12097,.00128-.21957,.00128-.40019-.20844-.38136-.42416,.00086-3.28331-.00171-6.56619,.00129-9.84907Z"/>
    <path class="cls-1" d="M5.71135,15.43039c1.50276-.81066,3.41-.82307,4.91576-.01412,.22086,.1237,.4644,.23841,.60907,.45626,.223,.31673,.21957,.773-.00984,1.08588-.20331,.28977-.57525,.44599-.92451,.38907-.16222-.02054-.30732-.10101-.44342-.18576-.72249-.43016-1.6149-.55728-2.4307-.35911-.68568,.16307-1.31315,.55685-1.76171,1.1-.41518,.49821-.67755,1.12183-.74047,1.76728-.07319,.69852,.08988,1.41802,.4537,2.01809,.37066,.61891,.94848,1.11113,1.62004,1.37479,.7563,.30132,1.62518,.30261,2.38319,.00685,.93436-.35696,1.68082-1.16292,1.9663-2.12167-.73448,.00856-1.46895,.00214-2.20343,.00428-.31716,.00514-.6279-.1665-.79739-.43358-.17206-.2628-.19774-.61249-.06891-.89883,.13953-.32187,.47082-.55171,.82265-.5607,1.1137-.00728,2.22739-.00385,3.34066-.00514,.36809-.00428,.72249,.23156,.86374,.57055,.11599,.25938,.07362,.55128,.05821,.82564-.11342,1.41202-.84662,2.75428-1.96117,3.62529-.79226,.62704-1.77156,1.01397-2.77868,1.09358-1.09401,.09245-2.21498-.17377-3.14677-.75459-1.01525-.62447-1.80366-1.60848-2.18716-2.73716-.41175-1.19673-.36125-2.54198,.1237-3.70918,.44556-1.0756,1.27078-1.98856,2.29716-2.5377Z"/>
    <path class="cls-1" d="M28.07474,14.88724c.90054-.11171,1.83447-.02953,2.68366,.30218,.8723,.34113,1.66027,.92152,2.20171,1.69023,.14981,.20887,.08817,.52946-.12584,.6707-.18533,.11856-.38094,.21957-.56926,.33257-.1695,.10058-.35354,.22728-.56156,.17549-.21444-.02825-.3223-.22899-.44942-.37665-.51747-.57996-1.26778-.93093-2.03736-1.00541-.70237-.06763-1.43471,.03895-2.05833,.38051-.71821,.39377-1.27806,1.0709-1.5216,1.85374-.20759,.67798-.21615,1.41716-.02996,2.10113,.20331,.74903,.70794,1.3979,1.35253,1.82206,.46782,.31031,1.01654,.48837,1.57424,.5393,.81238,.09288,1.63374-.17549,2.30786-.62019,.64416-.42459,1.11926-1.10856,1.24253-1.87557-.92794-.00171-1.85545,.00128-2.78338-.00128-.22599,.00428-.43957-.16907-.47852-.39206-.02183-.19731-.00342-.39634-.00942-.59409,.003-.14895-.02054-.30988,.05607-.44556,.0886-.1742,.28591-.27265,.47852-.26152,1.29817,0,2.59677-.00043,3.89537,0,.24911-.01198,.49693,.13012,.60479,.35611,.08389,.16093,.06163,.34755,.05778,.52261-.01755,.38949-.01027,.78413-.09801,1.16634-.14895,.69253-.42502,1.36237-.83977,1.93891-.41346,.57311-.98914,1.01183-1.60806,1.34311-.70023,.36852-1.4758,.61078-2.26891,.64802-.94591,.02996-1.91023-.14724-2.75257-.58938-1.00926-.53117-1.83533-1.40903-2.29716-2.4521-.45327-1.03837-.53159-2.22354-.29362-3.32568,.27778-1.2802,1.10813-2.40588,2.19315-3.12494,.63732-.42202,1.3765-.68397,2.13451-.77856Z"/>
    <path class="cls-1" d="M39.55627,14.87354c.68525-.0702,1.38592-.03339,2.05062,.15451,1.09658,.30689,2.09685,.99214,2.72946,1.9449,.13054,.18148,.06548,.46183-.13269,.56627-.30688,.17934-.6142,.35782-.92237,.53459-.17121,.10486-.41689,.0535-.52389-.11856-.42545-.64887-1.13168-1.09016-1.88926-1.23525-.61592-.11428-1.26179-.07362-1.85802,.11856-.77214,.24868-1.42272,.8265-1.78782,1.54813-.34027,.67241-.42031,1.45397-.31973,2.19401,.08946,.66086,.38179,1.29518,.84447,1.77755,.437,.47039,1.02852,.78755,1.6577,.90953,.69296,.13568,1.43342,.10401,2.08829-.17592,.48237-.2063,.92195-.53416,1.21642-.97202,.107-.23241,.41346-.32315,.62276-.16735,.28891,.16778,.58082,.33,.87016,.49778,.18789,.09844,.26451,.36039,.15066,.54144-.49949,.78327-1.25623,1.38677-2.10412,1.75615-.79611,.34926-1.6821,.46611-2.54499,.3942-.79654-.06078-1.58451-.29319-2.26763-.71179-1.11284-.68183-1.96502-1.79852-2.27276-3.0723-.21914-.90911-.21529-1.87428,.01712-2.78039,.31202-1.2177,1.12354-2.28432,2.1786-2.95802,.65872-.42074,1.42144-.66685,2.19701-.74603Z"/>
    <path class="cls-1" d="M47.17965,17.43607c.72549-.43016,1.60164-.58595,2.43413-.46825,.64459,.09416,1.27805,.39463,1.69409,.90654,.16393,.19946,.28249,.43529,.34113,.68782-.00942-.37237-.00428-.74518-.00428-1.11755-.00728-.20588,.17976-.39078,.38521-.3865,.37366-.00171,.74774-.00342,1.12183,.00086,.20159,.00214,.37708,.18704,.37151,.38864,.00171,2.39774-.00042,4.79592,.00086,7.19409,.00856,.14253-.05907,.28848-.18234,.36381-.10828,.07362-.24482,.06163-.36852,.06335-.31459-.00385-.62875,.003-.94292-.00257-.20202,.003-.38778-.17463-.38521-.37837-.00471-.23412,.00086-.46782-.00128-.70195-.43615,.4614-.96346,.85346-1.57296,1.04949-.78712,.25595-1.66413,.19389-2.42385-.12498-.71051-.29876-1.30888-.83977-1.70607-1.49763-.47638-.78198-.67584-1.71463-.63261-2.62459,.03082-.70109,.21144-1.40132,.56113-2.0121,.31245-.54872,.76486-1.01996,1.31016-1.34012m1.867,1.1809c-.50634,.07704-.9763,.3544-1.28918,.75887-.48494,.61934-.64117,1.45953-.48708,2.22311,.12669,.64459,.48066,1.2665,1.0435,1.62389,.69553,.44556,1.65086,.4079,2.32584-.06121,.53502-.35996,.87016-.96689,.96346-1.59821,.11942-.77385-.0214-1.63117-.54914-2.2351-.48366-.5684-1.27463-.84105-2.00739-.71136Z"/>
    <path class="cls-1" d="M57.44947,16.96611c.86801-.10101,1.80195-.003,2.55268,.47595,.63518,.39891,1.05592,1.10471,1.12996,1.84817,.00642,.21486-.19218,.40661-.40661,.39206-.35953-.00043-.71863,.00086-1.07774-.00043-.16564,.00514-.32786-.10829-.37152-.26922-.05179-.18576-.1284-.3698-.26922-.50591-.28591-.29148-.7165-.37409-1.11027-.36125-.30303,.01241-.62918,.05821-.87187,.25595-.23327,.1849-.29533,.55385-.1237,.79996,.11856,.17121,.30689,.27735,.49265,.36253,.90953,.37708,1.92607,.47595,2.78125,.98829,.34198,.20288,.64802,.48066,.83763,.83378,.36681,.68354,.31887,1.56696-.12242,2.20556-.39206,.57739-1.04179,.93222-1.70992,1.08802-.74218,.1695-1.53058,.15409-2.26035-.06549-.62876-.19047-1.21899-.55086-1.62047-1.07731-.23498-.3086-.40148-.67156-.46739-1.05463-.04665-.22342,.14424-.45455,.37194-.45498,.38436-.00514,.76915-.00171,1.15393-.00128,.17719-.0077,.34455,.11685,.38949,.28848,.07875,.26879,.26751,.49607,.50848,.63646,.39206,.23755,.87443,.2658,1.31743,.19175,.25809-.04708,.52688-.14253,.70066-.34969,.17848-.20844,.20459-.55128,.01112-.75887-.20502-.22214-.5012-.32444-.77941-.42074-.77428-.24739-1.58965-.38436-2.31941-.75545-.47895-.23883-.91681-.61292-1.11455-1.12183-.21229-.55257-.20844-1.19802,.05436-1.73304,.22043-.45327,.60864-.80809,1.04907-1.04436,.3942-.21144,.8312-.33556,1.2742-.39249Z"/>
  </g>
</svg>