<?xml version="1.0" encoding="UTF-8"?>
<svg id="Original" xmlns="http://www.w3.org/2000/svg" viewBox="0 0 70 40">
  <defs>
    <style>
      .cls-1 {
        fill: #5dc4e9;
      }

      .cls-1, .cls-2 {
        stroke-width: 0px;
      }

      .cls-2 {
        fill: #1f3a6a;
      }
    </style>
  </defs>
  <polygon class="cls-2" points="8.60574 15.64178 7.62914 15.64178 7.62914 15.90334 8.39781 15.90334 10.30842 23.76143 .44516 23.76143 2.35577 15.90334 3.12499 15.90334 3.12499 15.64178 2.14784 15.64178 0 24.11092 10.75358 24.11092 8.60574 15.64178"/>
  <path class="cls-1" d="m7.25858,12.2143h-3.76336c-.22931.00024-.41518.18599-.41558.4153v3.69125h.34949v-3.69125c.0006-.0362.02988-.06536.06608-.06581h.75672v2.68203h-.70258l1.00673,1.07508h1.64152l1.00645-1.07508h-.70236v-2.68203h.75689c.0363.00033.06573.02951.06636.06581v3.69125h.349v-3.69125c-.00028-.22927-.18608-.41506-.41536-.4153Z"/>
  <path class="cls-2" d="m4.58617,20.88043h1.58157c.09867.001.17947-.07819.18046-.17686.00005-.00466-.00009-.00932-.0004-.01397l-.06083-1.03621c-.00774-.1065-.09563-.1894-.2024-.19089h-1.41567c-.10677.0015-.19466.0844-.2024.19089l-.06083,1.03621c-.00673.09845.06763.18371.16608.19044.0048.00033.00961.00046.01442.0004Z"/>
  <path class="cls-2" d="m3.79682,19.46249h-1.4285c-.1098.00378-.20351.08052-.22889.18741l-.21014,1.04306c-.02038.08072.02854.16268.10926.18306.01445.00365.02936.00513.04425.00441h1.59263c.10736-.00199.19639-.08371.20754-.19051l.08848-1.03692c.00969-.09504-.0595-.17994-.15453-.18963-.00667-.00068-.01339-.00097-.0201-.00087Z"/>
  <path class="cls-2" d="m4.64993,19.05045h1.45394c.07895.0008.14359-.06256.14438-.14151.00004-.00373-.00007-.00746-.00033-.01118l-.04844-.829c-.00619-.08517-.07647-.15147-.16186-.15268h-1.32139c-.08541.00118-.15573.06749-.16192.15268l-.04844.829c-.00538.07876.05411.14698.13288.15236.00372.00025.00745.00036.01118.00033h0Z"/>
  <path class="cls-2" d="m3.97428,17.91609h-1.33604c-.08784.00305-.1628.06445-.1831.14997l-.16789.83442c-.0163.06458.02285.13015.08744.14645.01154.00291.02344.0041.03533.00352h1.46716c.08585-.00163.15701-.06701.1659-.15241l.071-.8295c.00786-.07595-.04734-.14388-.12329-.15175-.00549-.00057-.011-.00081-.01651-.00071Z"/>
  <path class="cls-2" d="m8.33997,19.05045c.06647.00322.12297-.04804.12619-.11451.00058-.01191-.00061-.02384-.00354-.0354l-.16872-.83453c-.02042-.08552-.09545-.14687-.18332-.14992h-1.33084c-.07634-.00132-.1393.0595-.14062.13584-.00009.00553.00014.01107.00071.01657l.07095.8295c.00891.08539.08006.15075.1659.15241,0,0,1.46329.00006,1.46329.00006Z"/>
  <path class="cls-2" d="m4.71336,17.5531h1.32719c.06908.00068.12564-.05477.12631-.12385.00003-.00325-.00006-.00651-.00028-.00975l-.03738-.64004c-.00529-.0746-.06689-.1327-.14168-.1336h-1.22118c-.07476.00093-.13634.05902-.14162.1336l-.03744.64004c-.00468.06895.04744.12865.11639.13332.00322.00022.00646.00031.00969.00028Z"/>
  <path class="cls-2" d="m8.05938,17.5531c.05814.00285.10759-.04197.11044-.10011.00051-.01045-.00053-.02092-.0031-.03106l-.1304-.64485c-.01786-.07483-.08349-.12853-.16037-.13123h-1.23108c-.06687-.00111-.12199.0522-.1231.11908-.00008.00477.00012.00955.00061.0143l.0548.64054c.00783.07474.07014.13192.14527.13333,0,0,1.33693,0,1.33693,0Z"/>
  <path class="cls-2" d="m4.10877,16.64585h-1.237c-.07692.00262-.14258.05636-.16037.13123l-.12973.64485c-.01421.05654.02011.1139.07666.12811.01008.00253.02047.00356.03085.00306h1.34218c.07514-.0014.13744-.05859.14527-.13333l.0548-.64054c.00679-.06654-.04165-.12598-.10818-.13277-.00481-.00049-.00964-.00069-.01447-.00061Z"/>
  <path class="cls-2" d="m8.66867,20.88043c.08307.00405.15368-.06001.15773-.14308.00072-.01491-.00077-.02986-.00444-.04433l-.21091-1.04312c-.02547-.1069-.11923-.18361-.22905-.18741h-1.42502c-.09549-.0016-.17419.07452-.17579.17001-.00012.00684.00018.01369.00087.0205l.08876,1.03692c.01115.10679.10018.18852.20754.19051,0,0,1.59031,0,1.59031,0Z"/>
  <path class="cls-2" d="m6.15187,21.35014h-1.54994c-.12812.00181-.23357.10131-.24282.22911l-.07681,1.31431c-.0081.11813.0811.22046.19923.22856.0056.00038.01121.00055.01683.00049h1.75709c.1184.00119.21535-.09382.21655-.21222.00006-.00561-.0001-.01123-.00049-.01683l-.07681-1.31431c-.00926-.12779-.1147-.22729-.24282-.22911Z"/>
  <path class="cls-2" d="m3.59011,21.35014h-1.56061c-.13177.00458-.24422.09667-.27467.22496l-.2661,1.3226c-.02443.09687.03429.1952.13116.21963.01733.00437.0352.00615.05304.00528h1.76539c.12878-.00244.23552-.1005.24885-.22861l.11259-1.31525c.01162-.11406-.07143-.21594-.18549-.22756-.00802-.00082-.01609-.00117-.02415-.00104Z"/>
  <path class="cls-2" d="m8.99726,21.57505c-.0306-.12827-.1431-.22032-.27489-.2249h-1.55868c-.11464-.002-.20918.08931-.21118.20395-.00014.00823.0002.01647.00104.02466l.11259,1.31525c.01333.12811.12007.22617.24885.22861h1.76539c.09966.0049.18442-.07192.18932-.17157.00088-.01794-.00092-.03592-.00534-.05333,0,0-.2671-1.32266-.2671-1.32266Z"/>
  <path class="cls-2" d="m28.68152,15.64321h-1.48916v8.46771h1.48917v-8.46771h0Zm-4.83905,4.28965c.01044.63983-.15917,1.26972-.48946,1.81781-.56548,1.07758-1.89745,1.49272-2.97504.92723-.18646-.09785-.35793-.22192-.50918-.36843-.56403-.68404-.84038-1.56039-.77077-2.44425-.07503-.95504.28653-1.89268.98334-2.55009.35569-.34487.83099-.53881,1.32642-.54122.51278.0138,1.00661.19675,1.40461.52037,1.07862.90138,1.03001,2.55639,1.03001,2.6384m.75943,6.54837c.6308-.83303.68063-1.69781.72603-3.47227l-.01891-7.36592h-1.41788v1.30811c-.18656-.29877-.41705-.56775-.68373-.79786-.56963-.46516-1.28985-.70568-2.02469-.67615-1.14076.00131-2.20662.56827-2.84528,1.5135-.58249.86802-.87629,1.89768-.83956,2.94239-.00897.6046.07572,1.20694.25106,1.78563.21025.72145.62152,1.36815,1.18574,1.86448.63127.51435,1.4361.76636,2.24799.70391.73499-.0279,1.44289-.28482,2.02469-.73482.21837-.1857.41022-.40047.5702-.63832l-.012,1.16185c-.01139.3834-.07766.76319-.19681,1.12778-.08116.23782-.21041.45638-.37969.64208-.49319.53171-1.20272.80827-1.92565.75058-.73291-.0027-1.46054-.12409-2.15464-.35945-.29086-.10947-.57084-.2459-.8363-.4075l-.15771,1.47468c.23845.09589.41375.16087.66797.24791.77291.23642,1.5766.35694,2.38485.35762.8401.03034,1.67383-.1563,2.4208-.54194.40011-.21555.74654-.51844,1.01359-.88618m2.49081-12.85264h1.63046v-1.67143h-1.63046v1.67143h0Zm7.11923,3.27164c.3516.00395.69946.0726,1.0262.20251v-1.48745c-.07504,0-.53171-.07067-.91145-.07067-.7634-.03483-1.49988.2859-1.99438.86854-.15183.20453-.29004.41881-.41375.64148l-.07631-1.41158h-1.42424c.0454,1.06175.08389,1.80139.08389,2.84716,0,1.22677-.02334,2.09215-.02334,3.30692v2.3123h1.53777v-4.14432c.04601-.80295.09268-1.86576.91582-2.58803.35067-.31552.80816-.48598,1.2798-.47685m7.78398,2.89516c0,.92527-.28756,2.28073-1.42424,2.9222-.68092.37025-1.49723.39506-2.19938.06686-.14552-.07747-.28435-.16692-.41503-.26743-.3583-.29648-.63509-.67942-.80422-1.11263-.21035-.51925-.3063-1.07774-.28131-1.63742-.01837-.92104.35457-1.8067,1.02625-2.43717.4629-.39643,1.05383-.61157,1.66325-.60553.99559.01091,1.8729.65663,2.17925,1.60397.16833.47087.25472.9671.25543,1.46716m.33113,3.38263c.8536-.92534,1.30209-2.15339,1.24574-3.41105.05039-1.59032-.78361-3.07789-2.16664-3.86456-1.98805-.91551-4.34675-.23948-5.548,1.59014-.39352.74171-.59599,1.5698-.58911,2.40941-.08137,1.27272.39875,2.51722,1.31381,3.40552.16898.14554.34932.27735.53928.39418.68362.41487,1.47668.61341,2.27514.56959.61343.02158,1.22415-.09123,1.78939-.33053.42389-.18172.81052-.44026,1.14039-.76258"/>
  <path class="cls-2" d="m44.88554,17.44327c.0454,1.63687.0454,2.80049.0454,4.44543,0,2.05162-.03406,4.1049-.0454,6.15419h1.51189v-5.07745c.14454.19218.30444.37231.47812.53862.57654.50531,1.31989.77901,2.08646.76822,1.0145.00498,1.98453-.41605,2.67374-1.16052.81503-.96605,1.23-2.20708,1.15997-3.46906-.00622-.63361-.121-1.26146-.33932-1.8563-.48899-1.43273-1.85299-2.38091-3.36631-2.34006-.83761-.01155-1.6473.30097-2.25993.8723-.20036.18245-.37634.38998-.52358.61748l-.06553-1.29296h-1.42491c.03915.67549.04546,1.13088.0694,1.80011Zm1.4854,2.36085c.0013-.39967.05992-.79708.17408-1.1801.26404-1.05929,1.19911-1.81461,2.29024-1.85.90364.01096,1.71374.55954,2.05936,1.39455.24331.54384.35047,1.13876.31222,1.73331.00088.44452-.07354.88597-.22009,1.30563-.27219,1.00449-1.17526,1.70835-2.2158,1.72701-1.06376-.04158-1.97157-.78219-2.22592-1.81593-.12452-.42676-.18322-.87001-.17408-1.31447Z"/>
  <path class="cls-2" d="m68.39592,15.64233l-1.88832,4.58302-.85388,2.2194-.05878.11961c-.21456-.63534-.51025-1.42811-.78022-2.18141l-1.75051-4.74084h-1.62487l3.40092,8.466-1.65722,3.93457h1.51621l5.30074-12.40035s-1.60408,0-1.60408,0Z"/>
  <path class="cls-2" d="m60.32698,16.73992c-.44146-.73914-1.58013-1.25962-2.90971-1.25962-.93754-.03942-1.86454.21033-2.65538.71541v1.33079c.70717-.46848,1.52403-.74496,2.37037-.80229.8448-.04167,1.63926.40259,2.04609,1.14415.11088.36167.16246.7389.15274,1.11705-.39174-.01941-.80937-.03539-1.21621-.03539-.96875-.05318-1.93784.09836-2.84412.44472-.93568.36145-1.54862,1.26583-1.53772,2.26884-.01461.74838.2974,1.46603.85466,1.96579.5068.38337,1.1237.59312,1.75914.59812.77758.03903,1.54889-.15705,2.21343-.56267.33074-.26632.6315-.56786.89696-.89928v1.34378h1.29363v-5.46582c.02758-.66068-.11857-1.31703-.42387-1.90358Zm-.95873,3.55577c.01491.38566-.02843.77136-.12857,1.1441-.08017.26266-.20874.50802-.37908.72343-.46522.58019-1.17344.91152-1.91696.89685-.69633,0-1.62288-.36249-1.62288-1.35661,0-.9871,1.15195-1.50786,1.7906-1.61425.37038-.05488.74478-.07803,1.1191-.06918.37913,0,.75888.01139,1.13779.04341,0,0,0,.23226,0,.23226Z"/>
</svg>