<?xml version="1.0" encoding="UTF-8"?>
<svg id="Layer_1" data-name="Layer 1" xmlns="http://www.w3.org/2000/svg" viewBox="0 0 70 40">
  <defs>
    <style>
      .cls-1 {
        fill: #fabb05;
      }

      .cls-1, .cls-2, .cls-3, .cls-4, .cls-5, .cls-6 {
        stroke-width: 0px;
      }

      .cls-2 {
        fill: #3c4043;
      }

      .cls-3 {
        fill: #34a853;
      }

      .cls-4 {
        fill: #4285f4;
      }

      .cls-5 {
        fill: #fff;
      }

      .cls-6 {
        fill: #e94235;
      }
    </style>
  </defs>
  <g id="Layer_2" data-name="Layer 2">
    <g id="G_Pay_Acceptance_Mark" data-name="G Pay Acceptance Mark">
      <path id="Base" class="cls-5" d="m51.0395,2.09435H18.9605C8.99499,2.03576.85229,10.03502.73379,20h0c.11848,9.96499,8.26119,17.96428,18.22671,17.90569h32.079c9.96552.05859,18.10823-7.9407,18.22672-17.90569h0c-.11851-9.96498-8.2612-17.96424-18.22671-17.90565Z"/>
      <path id="Outline" class="cls-2" d="m51.383,2.891c2.28078-.00287,4.5385.45627,6.637,1.34971,4.10556,1.74741,7.37494,5.01678,9.12234,9.12234,1.79964,4.24165,1.79964,9.03228,0,13.27394-1.74741,4.10556-5.01678,7.37493-9.12234,9.12234-2.0985.89345-4.35622,1.35259-6.637,1.34973H18.617c-2.28078.00286-4.5385-.45628-6.637-1.34973-4.10554-1.74742-7.37489-5.01679-9.12229-9.12233-1.79964-4.24166-1.79964-9.03229,0-13.27394,1.74742-4.10555,5.01679-7.37492,9.12234-9.12234,2.09848-.89344,4.35619-1.35257,6.63695-1.34972h32.766m0-1.508H18.617C8.3476,1.41307.03007,9.7306,0,20h0c.03007,10.26941,8.3476,18.58693,18.617,18.617h32.766c10.26941-.03007,18.58693-8.3476,18.617-18.617h0c-.03007-10.2694-8.3476-18.58693-18.617-18.617Z"/>
      <g id="G_Pay_Lockup" data-name="G Pay Lockup">
        <g id="Pay_Typeface" data-name="Pay Typeface">
          <path id="Letter_p" data-name="Letter p" class="cls-2" d="m33.38032,21.32183v5.63165h-1.78724v-13.90692h4.738c1.14017-.02443,2.2428.40791,3.0625,1.2008,1.62455,1.50524,1.72126,4.04243.21602,5.66698-.06924.07472-.1413.14678-.21602.21602-.82227.7868-1.92484,1.21241-3.0625,1.18218h-2.9508l.00004.00929Zm0-6.5625v4.84974h2.988c.66359.01757,1.30448-.24217,1.76861-.71676.46213-.4457.72121-1.06144.71676-1.70346-.03257-1.34833-1.13665-2.42346-2.48537-2.42021h-2.988v-.00931Z"/>
          <path id="Letter_a" data-name="Letter a" class="cls-2" d="m45.35106,17.12369c1.14049-.06356,2.26132.31672,3.12766,1.06117.78389.75682,1.2015,1.81611,1.14495,2.90426v5.86436h-1.70346v-1.32181h-.07447c-.62621,1.02672-1.74829,1.64617-2.95079,1.629-.96398.03241-1.90471-.3-2.63431-.93085-.68645-.57607-1.07635-1.43111-1.06117-2.32713-.03309-.91741.38393-1.79316,1.117-2.34574.86464-.62165,1.91524-.93026,2.97872-.875.90813-.03618,1.80992.166,2.61569.58643v-.40958c.00591-.61136-.26427-1.19276-.73537-1.58245-.4738-.42859-1.09257-.66146-1.73139-.6516-.95607-.0238-1.85417.45709-2.36436,1.266l-1.57314-.9867c.86527-1.25503,2.32254-1.96781,3.84444-1.88036Zm-2.30851,6.90692c-.00419.46207.21841.89684.59575,1.16356.39523.3097.88496.47403,1.387.46542.75504-.00031,1.47876-.30185,2.01063-.83776.56176-.49835.88358-1.21315.88431-1.9641-.67912-.47615-1.49912-.70903-2.32713-.6609-.64493-.02235-1.28036.16013-1.81516.52127-.44975.28647-.72592.77935-.7354,1.31251Z"/>
          <path id="Letter_y" data-name="Letter y" class="cls-2" d="m59.34176,17.43087l-5.95745,13.70213h-1.84309l2.21543-4.79389-3.92819-8.90824h1.94548l2.82979,6.83245h.03726l2.75532-6.83245h1.94544Z"/>
        </g>
        <g id="G_Mark" data-name="G Mark">
          <path id="Blue_500" data-name="Blue 500" class="cls-4" d="m26.27141,20.18619c.00055-.56215-.0493-1.12321-.14894-1.67646h-7.49147v3.07181l4.3145.00093c-.16755,1.01105-.74741,1.90713-1.60107,2.4742v1.993h2.56822c1.57763-1.53461,2.43419-3.66387,2.35876-5.86348Z"/>
          <path id="Green_500" data-name="Green 500" class="cls-3" d="m21.34535,24.05667c-2.24596,1.44128-5.23506.78897-6.67635-1.45699-.21452-.33429-.38701-.69376-.51355-1.07027h-2.6492v2.05532c1.35452,2.69322,4.11193,4.39248,7.12659,4.39175,1.94184.05535,3.83125-.63441,5.28072-1.92779l-2.56821-1.99202Z"/>
          <path id="Yellow_500" data-name="Yellow 500" class="cls-1" d="m13.906,20.00467c.00033-.51868.08457-1.03389.24947-1.52566v-2.05532h-2.6492c-1.13069,2.25345-1.13069,4.90855,0,7.162l2.6492-2.05532c-.1649-.49178-.24915-1.00701-.24947-1.5257Z"/>
          <path id="Red_500" data-name="Red 500" class="cls-6" d="m18.63284,15.18752c1.13737-.01832,2.23633.4113,3.05971,1.19614l2.27593-2.27406c-1.44316-1.35615-3.35541-2.10077-5.33564-2.07766-3.01459-.00048-5.77188,1.6987-7.12659,4.39175l2.6492,2.05532c.63342-1.94291,2.43399-3.26657,4.47739-3.29149Z"/>
        </g>
      </g>
    </g>
  </g>
</svg>