<svg xmlns="http://www.w3.org/2000/svg" viewBox="0 0 70 37.23404"><defs><style>.cls-1{fill:#fff;}.cls-2{fill:#3c4043;}.cls-3{fill:#4285f4;}.cls-4{fill:#34a853;}.cls-5{fill:#fabb05;}.cls-6{fill:#e94235;}</style></defs><g id="Layer_2" data-name="Layer 2"><g id="G_Pay_Acceptance_Mark" data-name="G Pay Acceptance Mark"><path id="Base" class="cls-1" d="M51.0395.71135H18.9605A18.12145,18.12145,0,0,0,.73379,18.617h0A18.12145,18.12145,0,0,0,18.9605,36.52269h32.079A18.12145,18.12145,0,0,0,69.26621,18.617h0A18.12145,18.12145,0,0,0,51.0395.71135Z"/><path id="Outline" class="cls-2" d="M51.383,1.508A16.88866,16.88866,0,0,1,58.02,2.85771a17.26078,17.26078,0,0,1,9.12234,9.12234,16.99271,16.99271,0,0,1,0,13.27394A17.26078,17.26078,0,0,1,58.02,34.37633a16.88884,16.88884,0,0,1-6.637,1.34973H18.617a16.88884,16.88884,0,0,1-6.637-1.34973A17.26078,17.26078,0,0,1,2.85771,25.254a16.99271,16.99271,0,0,1,0-13.27394,17.26087,17.26087,0,0,1,9.12234-9.12234A16.88884,16.88884,0,0,1,18.617,1.508H51.383m0-1.508H18.617A18.67175,18.67175,0,0,0,0,18.617H0A18.67175,18.67175,0,0,0,18.617,37.234H51.383A18.67175,18.67175,0,0,0,70,18.617h0A18.67175,18.67175,0,0,0,51.383,0Z"/><g id="G_Pay_Lockup" data-name="G Pay Lockup"><g id="Pay_Typeface" data-name="Pay Typeface"><path id="Letter_p" data-name="Letter p" class="cls-2" d="M33.38032,19.93883v5.63165H31.59308V11.66356h4.738a4.27321,4.27321,0,0,1,3.0625,1.2008,4.01007,4.01007,0,0,1,0,5.883,4.26581,4.26581,0,0,1-3.0625,1.18218h-2.9508Zm0-6.5625v4.84974h2.988a2.38548,2.38548,0,0,0,1.76861-.71676,2.344,2.344,0,0,0,.71676-1.70346,2.48011,2.48011,0,0,0-2.48537-2.42021h-2.988Z"/><path id="Letter_a" data-name="Letter a" class="cls-2" d="M45.35106,15.74069a4.42148,4.42148,0,0,1,3.12766,1.06117,3.76535,3.76535,0,0,1,1.14495,2.90426v5.86436H47.92021V24.24867h-.07447a3.39949,3.39949,0,0,1-2.95079,1.629,3.83081,3.83081,0,0,1-2.63431-.93085,2.97225,2.97225,0,0,1-1.06117-2.32713,2.81063,2.81063,0,0,1,1.117-2.34574,4.68615,4.68615,0,0,1,2.97872-.875,5.20637,5.20637,0,0,1,2.61569.58643V19.5758a2.02823,2.02823,0,0,0-.73537-1.58245,2.52286,2.52286,0,0,0-1.73139-.6516,2.71547,2.71547,0,0,0-2.36436,1.266l-1.57314-.9867A4.3654,4.3654,0,0,1,45.35106,15.74069Zm-2.30851,6.90692a1.40924,1.40924,0,0,0,.59575,1.16356,2.18788,2.18788,0,0,0,1.387.46542,2.83442,2.83442,0,0,0,2.01063-.83776,2.629,2.629,0,0,0,.88431-1.9641,3.68154,3.68154,0,0,0-2.32713-.6609,3.05443,3.05443,0,0,0-1.81516.52127A1.58967,1.58967,0,0,0,43.04255,22.64761Z"/><path id="Letter_y" data-name="Letter y" class="cls-2" d="M59.34176,16.04787,53.38431,29.75H51.54122l2.21543-4.79389-3.92819-8.90824h1.94548l2.82979,6.83245H54.641l2.75532-6.83245Z"/></g><g id="G_Mark" data-name="G Mark"><path id="Blue_500" data-name="Blue 500" class="cls-3" d="M26.27141,18.80319a9.407,9.407,0,0,0-.14894-1.67646H18.631v3.07181l4.3145.00093a3.69571,3.69571,0,0,1-1.60107,2.4742v1.993h2.56822A7.80667,7.80667,0,0,0,26.27141,18.80319Z"/><path id="Green_500" data-name="Green 500" class="cls-4" d="M21.34535,22.67367a4.832,4.832,0,0,1-7.1899-2.52726h-2.6492v2.05532a7.975,7.975,0,0,0,7.12659,4.39175,7.606,7.606,0,0,0,5.28072-1.92779Z"/><path id="Yellow_500" data-name="Yellow 500" class="cls-5" d="M13.906,18.62167a4.80839,4.80839,0,0,1,.24947-1.52566V15.04069h-2.6492a7.98491,7.98491,0,0,0,0,7.162l2.6492-2.05532A4.8084,4.8084,0,0,1,13.906,18.62167Z"/><path id="Red_500" data-name="Red 500" class="cls-6" d="M18.63284,13.80452a4.33341,4.33341,0,0,1,3.05971,1.19614l2.27593-2.27406a7.661,7.661,0,0,0-5.33564-2.07766,7.97606,7.97606,0,0,0-7.12659,4.39175l2.6492,2.05532A4.77052,4.77052,0,0,1,18.63284,13.80452Z"/></g></g></g></g></svg>