<svg id="Layer_1" data-name="Layer 1" xmlns="http://www.w3.org/2000/svg" viewBox="0 0 70 40"><defs><style>.cls-1{fill:#fff;}.cls-2{fill:#c06;}</style></defs><path class="cls-1" d="M12.31238,2.96485V37.03519A2.96483,2.96483,0,0,0,15.27721,40H35.63373c15.383,0,22.05389-8.6158,22.05389-20.03928C57.68761,8.58172,51.01675,0,35.63373,0H15.27721A2.96483,2.96483,0,0,0,12.31238,2.96485Z"/><path d="M35.62928,37.27682H17.9248a2.84919,2.84919,0,0,1-2.84623-2.84624V5.56945A2.8492,2.8492,0,0,1,17.9248,2.72321H35.62928c16.79131,0,19.29956,10.7994,19.29956,17.23752C54.92884,31.13073,48.07416,37.27682,35.62928,37.27682ZM17.9248,3.672a1.90045,1.90045,0,0,0-1.899,1.89749V34.43058a1.90045,1.90045,0,0,0,1.899,1.89749H35.62928c11.83264,0,18.35081-5.81254,18.35081-16.36734C53.98009,5.78885,42.48248,3.672,35.62928,3.672Z"/><path class="cls-2" d="M25.93281,8.36528v25.167h10.955c9.95294,0,14.26825-5.62428,14.26825-13.55817,0-7.60034-4.31531-13.50628-14.26825-13.50628H27.8303a1.89749,1.89749,0,0,0-1.89749,1.89749Z"/><polygon class="cls-1" points="46.819 16.576 46.819 21.477 49.748 21.477 49.748 22.589 45.496 22.589 45.496 16.576 46.819 16.576"/><path class="cls-1" d="M42.41726,16.57638l2.24882,6.01267H43.29485l-.4551-1.33417H40.58944l-.4714,1.33417H38.78386l2.274-6.01267Zm.0756,3.68825-.75751-2.20584H41.719l-.78271,2.20584Z"/><polygon class="cls-1" points="37.888 16.576 37.888 17.688 34.715 17.688 34.715 18.976 37.628 18.976 37.628 20.004 34.715 20.004 34.715 21.477 37.957 21.477 37.957 22.589 33.394 22.589 33.394 16.576 37.888 16.576"/><path class="cls-1" d="M29.79005,16.57638a3.09835,3.09835,0,0,1,1.08068.1853,2.35543,2.35543,0,0,1,.86722.55591,2.572,2.572,0,0,1,.57369.92651,3.77426,3.77426,0,0,1,.20605,1.306,4.15052,4.15052,0,0,1-.169,1.21114,2.68609,2.68609,0,0,1-.50847.9606,2.39271,2.39271,0,0,1-.8509.636,2.88051,2.88051,0,0,1-1.19928.23125H27.19583V16.57638Zm-.09339,4.90086a1.721,1.721,0,0,0,.55591-.09191,1.23037,1.23037,0,0,0,.4803-.30834,1.5536,1.5536,0,0,0,.33651-.55887,2.45791,2.45791,0,0,0,.126-.842,3.56976,3.56976,0,0,0-.08746-.82126,1.63079,1.63079,0,0,0-.29648-.62706,1.29566,1.29566,0,0,0-.53516-.40025,2.12134,2.12134,0,0,0-.82125-.13935h-.94282v3.789Z"/><path d="M20.98154,23.95139h0A2.10059,2.10059,0,0,1,23.08212,26.052h0v7.48026h0a4.20265,4.20265,0,0,1-4.20264-4.20265V26.052a2.10059,2.10059,0,0,1,2.10058-2.10059Z"/><circle cx="20.98154" cy="19.58272" r="2.7736"/></svg>