<svg id="Layer_1" data-name="Layer 1" xmlns="http://www.w3.org/2000/svg" viewBox="0 0 70 40"><defs><style>.cls-1{fill:#fff;}.cls-2{fill:#c06;}</style></defs><rect class="cls-1" x="15" width="40" height="40"/><path class="cls-2" d="M53.08028,25.20858V21.11585H51.15947v2.17409H46.98413a11.02839,11.02839,0,0,1-.65223,1.91972Z"/><path class="cls-2" d="M51.15947,16.7068v2.17409h1.92081V14.78381H46.3406a10.84259,10.84259,0,0,1,.65223,1.91973Z"/><polygon class="cls-2" points="18.839 23.289 18.839 18.82 16.919 18.82 16.919 25.209 22.044 25.209 22.044 23.289 18.839 23.289"/><polygon points="18.839 10.527 18.839 3.839 25.527 3.839 25.527 8.785 27.447 8.785 27.447 1.919 16.919 1.919 16.919 12.447 22.044 12.447 22.044 10.527 18.839 10.527"/><polygon points="25.527 36.159 18.839 36.159 18.839 29.473 22.044 29.473 22.044 27.552 16.919 27.552 16.919 38.08 27.447 38.08 27.447 31.215 25.527 31.215 25.527 36.159"/><path d="M44.84265,12.44667h8.23763V1.91863h-10.528V10.5563A9.4117,9.4117,0,0,1,44.84265,12.44667Zm-.36959-8.60723h6.6875v6.6875h-6.6875Z"/><rect x="46.2145" y="5.58089" width="3.20461" height="3.20461"/><rect x="20.58089" y="5.58089" width="3.20461" height="3.20461"/><rect x="20.58089" y="31.2145" width="3.20461" height="3.20461"/><path class="cls-2" d="M40.126,1.91863H29.89252V3.83944h8.30937V9.03769a14.5201,14.5201,0,0,1,1.91972.4533Z"/><path class="cls-2" d="M38.20624,36.16056H34.444V31.21342H32.52426v4.946H29.89252v1.91972H40.12161V30.50466a14.69026,14.69026,0,0,1-1.91972.45547Z"/><rect class="cls-2" x="32.52752" y="5.58089" width="1.92081" height="3.20352"/><rect class="cls-2" x="16.91863" y="14.78707" width="5.12542" height="1.91972"/><path class="cls-2" d="M44.82852,27.55225A9.39789,9.39789,0,0,1,42.55225,29.435v.03805H46.7602v3.34375h1.91972V29.47306h2.47955v6.6875H44.47306V32.81681H42.55225v5.26347h10.528v-10.528Z"/><path d="M35.04511,29.47414H25.38563A1.6023,1.6023,0,0,1,23.7855,27.874V12.12708a1.60122,1.60122,0,0,1,1.60013-1.60014h9.65948c9.204,0,10.578,5.92223,10.578,9.45186C45.62315,26.10213,41.86632,29.47414,35.04511,29.47414ZM25.38563,11.14a.98813.98813,0,0,0-.987.987V27.874a.98813.98813,0,0,0,.987.987h9.65948c6.42661,0,9.965-3.15243,9.965-8.88225,0-7.69084-6.2429-8.83876-9.965-8.83876Z"/><path class="cls-2" d="M29.75446,13.65329V27.38375h5.97875c5.42979,0,7.78433-3.06872,7.78433-7.3919,0-4.146-2.35454-7.36908-7.78433-7.36908H30.79042A1.036,1.036,0,0,0,29.75446,13.65329Z"/><path class="cls-1" d="M32.02639,18.19822a1.6307,1.6307,0,0,1,.56635.09675,1.24039,1.24039,0,0,1,.45221.2935,1.35335,1.35335,0,0,1,.3.48482,1.97529,1.97529,0,0,1,.10871.68376,2.19406,2.19406,0,0,1-.088.63592,1.41317,1.41317,0,0,1-.26633.50221,1.25338,1.25338,0,0,1-.44569.33264,1.49706,1.49706,0,0,1-.62831.12175H30.69693V18.19713Zm-.04892,2.56434a.91415.91415,0,0,0,.29133-.04783.65214.65214,0,0,0,.2511-.16088.7947.7947,0,0,0,.17611-.2935,1.27973,1.27973,0,0,0,.06631-.44134,1.868,1.868,0,0,0-.04566-.43482.86952.86952,0,0,0-.15219-.32611.67618.67618,0,0,0-.28045-.20872,1.11115,1.11115,0,0,0-.42939-.07283h-.46525v1.986Z"/><path class="cls-1" d="M36.30608,18.19822v.58266H34.67552v.67723h1.49577v.53808H34.66791v.76637h1.66752v.58157h-2.36V18.1917Z"/><path class="cls-1" d="M38.64323,18.19822l1.17727,3.15243h-.71962l-.23806-.70114H37.68555l-.24676.70114H36.7409l1.19575-3.15243Zm.03914,1.93168-.39678-1.15553H38.2769l-.40982,1.15553Z"/><path class="cls-1" d="M40.91842,18.20366v2.56651h1.50447v.58266H40.226V18.2004Z"/><path d="M27.05316,22.15615h0A1.14684,1.14684,0,0,1,28.2,23.303h0v4.08076h0a2.29257,2.29257,0,0,1-2.29258-2.29257V23.3019A1.14684,1.14684,0,0,1,27.05316,22.15615Z"/><circle cx="27.05316" cy="19.77335" r="1.51317"/></svg>