<?xml version="1.0" encoding="UTF-8"?>
<svg id="Layer_1" data-name="Layer 1" xmlns="http://www.w3.org/2000/svg" viewBox="0 0 70 40">
  <defs>
    <style>
      .cls-1 {
        fill: #c06;
      }

      .cls-1, .cls-2, .cls-3 {
        stroke-width: 0px;
      }

      .cls-2 {
        fill: #000;
      }

      .cls-3 {
        fill: #fff;
      }
    </style>
  </defs>
  <g>
    <path class="cls-2" d="M58.90618,9.1747h-27.17041c2.41312,2.80184,3.54141,6.55551,3.54141,10.79179s-1.13482,8.05027-3.56098,10.86552h27.18345c7.74155,0,11.10035-4.4977,11.10035-10.85212s-3.3588-10.80519-11.10035-10.80519h.00652Z"/>
    <path class="cls-3" d="M0,6.37285v27.25429c0,1.30708,1.03699,2.37285,2.30877,2.37285h15.84832c11.98081,0,17.17227-6.89066,17.17227-16.03351s-5.19799-15.96649-17.17879-15.96649H2.30877c-1.27178,0-2.30877,1.06577-2.30877,2.37285Z"/>
    <path class="cls-1" d="M10.60468,10.68957v20.14244h8.5307c7.74154,0,11.10034-4.4977,11.10034-10.85212s-3.3588-10.80519-11.10034-10.80519h-7.05022c-.82176,0-1.48048.69041-1.48048,1.51487Z"/>
    <path class="cls-2" d="M18.15056,33.82824H4.37622c-1.22613,0-2.21746-1.01885-2.21746-2.27901V8.45748c0-1.26016.99134-2.27901,2.21746-2.27901h13.78086c13.07649,0,15.02655,8.64684,15.02655,13.79472,0,8.92836-5.34147,13.85505-15.02655,13.85505h-.00652ZM4.37622,6.94261c-.82176,0-1.47396.677-1.47396,1.51487v23.09175c0,.84457.65872,1.52158,1.47396,1.52158h13.78086c9.20898,0,14.28957-4.65186,14.28957-13.09761,0-11.34143-8.95463-13.03729-14.28957-13.03729H4.37622v.0067Z"/>
  </g>
  <g>
    <path class="cls-3" d="M13.60477,17.25848c.30001,0,.57393.04692.84133.14076.2674.09384.48262.24801.67828.43569.18261.20109.33262.4491.45001.73733.10435.29493.16305.64348.16305,1.04566,0,.35526-.04565.677-.12392.97193-.09131.29493-.22175.55635-.39132.77084s-.39132.38207-.65872.50943c-.2674.12065-.57393.18768-.93264.18768h-2.0218v-4.81274h1.99571v.01341ZM13.53303,21.18643c.15,0,.28697-.02681.43697-.07373.13696-.04692.2674-.12736.37175-.24801s.19566-.26142.2674-.4491.10435-.40218.10435-.677c0-.2346-.02609-.46251-.07174-.65019-.04565-.18768-.12392-.36866-.22827-.49602s-.24131-.24801-.4174-.32174-.37827-.10725-.63263-.10725h-.73698v3.03645h.91307v-.01341h-.00652Z"/>
    <path class="cls-3" d="M19.90497,17.25848v.8915h-2.47182v1.03226h2.27616v.81776h-2.27616v1.17302h2.53051v.8915h-3.55446v-4.81274h3.49576v.01341-.0067Z"/>
    <path class="cls-3" d="M23.43986,17.25848l1.7544,4.81274h-1.07612l-.35871-1.06577h-1.7544l-.37175,1.06577h-1.03699l1.76745-4.81274h1.07612ZM23.49855,20.21449l-.58698-1.76958h-.01304l-.61306,1.76958h1.21308Z"/>
    <path class="cls-3" d="M26.86388,17.25848v3.92794h2.28268v.8915h-3.31315v-4.81274h1.02394l.00652-.0067Z"/>
  </g>
  <ellipse class="cls-2" cx="6.75021" cy="19.67155" rx="2.15876" ry="2.21868"/>
  <path class="cls-2" d="M8.3807,30.832h0c-1.8131,0-3.26749-1.50817-3.26749-3.35819v-2.62086c0-.92501.72394-1.68245,1.63701-1.68245h0c.90003,0,1.63701.74403,1.63701,1.68245v5.97905h-.01304.00652Z"/>
  <g>
    <path class="cls-3" d="M41.28389,14.52367c-.52175,0-.92611-.12736-1.22613-.38207-.29349-.25471-.44349-.62338-.44349-1.09929,0-.42899.15-.77754.45001-1.05237s.70437-.40888,1.21308-.40888.92612.12736,1.21308.38207.43697.61667.43697,1.07918-.15001.79765-.44349,1.07248-.69785.40888-1.20656.40888h.00653ZM39.89472,25.8651v-9.4713h2.77835v9.4713h-2.77835Z"/>
    <path class="cls-3" d="M45.2688,25.8584v-9.4713h2.63486l.08478,1.92375-.55436.21449c.13044-.42899.35871-.81776.68481-1.16632s.72394-.63008,1.18699-.84457.94568-.32174,1.4544-.32174c.69132,0,1.2783.14746,1.7544.43569s.83481.72392,1.07612,1.30038.36523,1.28027.36523,2.11144v5.81148h-2.79139v-5.58358c0-.38207-.05218-.69711-.15653-.94512-.10435-.24801-.26088-.43569-.4761-.56305s-.4761-.18098-.78915-.16757c-.24131,0-.46958.04022-.67828.11395-.2087.08044-.38479.18768-.5348.34185-.15001.14746-.2674.31504-.35871.50943s-.13044.39548-.13044.62338v5.67072h-2.77835l.00652.0067Z"/>
    <path class="cls-3" d="M63.92155,20.16087c-.2087-.48261-.49567-.8982-.86742-1.26016-.37175-.35526-.79568-.63678-1.26526-.83787-.31957-.13406-.66524-.20779-1.01742-.25471l3.11749-3.43863-.5348-1.10599h-7.4611v2.54713l3.8936.08044-2.57616,2.87558.63915,1.76288c.22827-.12065.45653-.21449.67828-.28823s.43045-.12736.62611-.16757c.19566-.04022.38479-.06033.55436-.06033.38479,0,.71089.06703.97829.19439s.48262.32174.62611.57646.21523.56975.21523.93842c0,.34185-.08478.65689-.25436.92501-.16957.27482-.38479.48261-.65872.63008-.27392.14746-.56741.2212-.89351.2212s-.63263-.05362-.92611-.16757-.58045-.29493-.84785-.54294c-.27392-.24801-.5348-.58316-.78915-.99874l-2.11963,1.40762c.60002,1.03226,1.27178,1.76288,2.00224,2.18517.73698.42229,1.59136.63008,2.57616.63008.85437,0,1.63049-.18768,2.33486-.56975.69785-.38207,1.25221-.8915,1.6631-1.54168.41088-.65019.61306-1.38752.61306-2.21868,0-.54964-.10435-1.05907-.31306-1.54168l.00652.02011Z"/>
  </g>
</svg>