<svg id="Layer_1" data-name="Layer 1" xmlns="http://www.w3.org/2000/svg" viewBox="0 0 70 40"><defs><style>.cls-1{fill:#102f76;}</style></defs><g id="in3"><g id="IN3-BLUE-RGB"><path id="Path" class="cls-1" d="M3.65659,11.1194h0A3.756,3.756,0,0,0,0,14.984v20.4798a3.756,3.756,0,0,0,3.65659,3.86458,3.756,3.756,0,0,0,3.6566-3.86458V14.984a3.74107,3.74107,0,0,0-3.6566-3.86458"/><path id="Path-2" data-name="Path" class="cls-1" d="M3.65672,7.98507A3.65672,3.65672,0,1,0,0,4.32836,3.64806,3.64806,0,0,0,3.65672,7.98507"/><path id="Path-3" data-name="Path" class="cls-1" d="M26.80773,11.1194a10.74964,10.74964,0,0,0-7.59614,2.77425,11.655,11.655,0,0,0-1.52415-1.12934,3.47875,3.47875,0,0,0-.93415-.51557,3.61114,3.61114,0,0,0-1.37664-.24551,3.88982,3.88982,0,0,0-3.88411,3.879,3.81655,3.81655,0,0,0,2.0158,3.388c.02458,0,.04917.02455.07375.02455a2.46553,2.46553,0,0,1,.59.46647,6.80869,6.80869,0,0,1,1.42581,3.90359c0,.29461.02459.56467.02459.76108V35.44932a3.88411,3.88411,0,0,0,7.76821,0V24.30322h0v-1.694h0v-.02455h0a3.76131,3.76131,0,0,1,7.52239,0h0v.02455h0v1.62036a1.06213,1.06213,0,0,1,.02458.12275v11.097a3.85953,3.85953,0,0,0,7.71906,0V24.25412c0-1.52215-.27042-6.40778-3.56454-9.8449a11.26867,11.26867,0,0,0-8.28445-3.28982"/><path id="Path-4" data-name="Path" class="cls-1" d="M67.3286,19.56663a5.4338,5.4338,0,0,0,.34312-.44575,2.14289,2.14289,0,0,0,.17156-.24765c.14705-.19811.26958-.39622.41663-.6191a.053.053,0,0,1,.049-.04953,3.51348,3.51348,0,0,0,.51468-.941v-.02476A12.345,12.345,0,0,0,69.951,11.9393a10.88385,10.88385,0,0,0-2.76944-7.6521C65.417,2.50418,63.30926.67164,57.08417.67164H45.66334a3.91294,3.91294,0,0,0,0,7.82545H58.50565a3.79589,3.79589,0,0,1,.46565,7.553c-.44114.02476-.93131.02476-1.446.02476H56.8636a1.05194,1.05194,0,0,1-.12254.02477H45.66334a3.85888,3.85888,0,0,0-3.84779,3.888v.04953a3.90093,3.90093,0,0,0,3.8723,3.91272H58.53016a3.78945,3.78945,0,0,1,0,7.57781H56.8881a1.05142,1.05142,0,0,1-.12254.02476H45.68785a3.88817,3.88817,0,0,0,0,7.77592H56.8636c1.51951,0,6.39664-.27241,9.82779-3.59079A11.32792,11.32792,0,0,0,70,27.39207,10.88389,10.88389,0,0,0,67.23057,19.74a.31546.31546,0,0,1,.098-.17335"/></g></g></svg>