<?xml version="1.0" encoding="UTF-8"?>
<svg width="70px" height="40px" viewBox="0 0 70 40" version="1.1" xmlns="http://www.w3.org/2000/svg" xmlns:xlink="http://www.w3.org/1999/xlink">
    <!-- Generator: Sketch 60.1 (88133) - https://sketch.com -->
    <title>in3@1x</title>
    <desc>Created with Sketch.</desc>
    <g id="in3" stroke="none" stroke-width="1" fill="none" fill-rule="evenodd">
        <g id="IN3-BLUE-RGB" transform="translate(2.000000, 1.000000)" fill="#112F77" fill-rule="nonzero">
            <path d="M3.49988368,10 L3.49988368,10 C1.56045769,10 0,11.6492147 0,13.6989529 L0,33.3010471 C0,35.3507853 1.56045769,37 3.49988368,37 C5.43930968,37 6.99976737,35.3507853 6.99976737,33.3010471 L6.99976737,13.6989529 C7.02205962,11.6492147 5.43930968,10 3.49988368,10" id="Path"></path>
            <path d="M3.5,7 C5.43949045,7 7,5.43949045 7,3.5 C7,1.56050955 5.43949045,0 3.5,0 C1.56050955,0 0,1.56050955 0,3.5 C0,5.43949045 1.56050955,7 3.5,7" id="Path"></path>
            <path d="M25.6588235,10 C22.1058824,10 19.8,11.3394256 18.3882353,12.6553525 C17.9411765,12.2558747 17.4470588,11.9033943 16.9294118,11.5744125 C16.6470588,11.3629243 16.3647059,11.1984334 16.0352941,11.0809399 C15.6352941,10.9164491 15.1882353,10.845953 14.7176471,10.845953 C12.6705882,10.845953 11,12.5143603 11,14.5587467 C11,15.9686684 11.7764706,17.1906005 12.9294118,17.8015666 C12.9529412,17.8015666 12.9764706,17.8250653 13,17.8250653 C13.2588235,17.9660574 13.4235294,18.1305483 13.5647059,18.2715405 C14.5058824,19.2349869 14.8352941,20.9503916 14.9294118,22.0078329 C14.9294118,22.2898172 14.9529412,22.5483029 14.9529412,22.7362924 L14.9529412,33.2872063 C14.9529412,35.3315927 16.6235294,37 18.6705882,37 C20.7176471,37 22.3882353,35.3315927 22.3882353,33.2872063 L22.3882353,22.618799 C22.3882353,22.618799 22.3882353,22.618799 22.3882353,22.618799 L22.3882353,20.997389 C22.3882353,20.997389 22.3882353,20.997389 22.3882353,20.997389 C22.3882353,20.997389 22.3882353,20.997389 22.3882353,20.997389 L22.3882353,20.9738903 L22.3882353,20.9738903 C22.4117647,19 24.0117647,17.4020888 25.9882353,17.4020888 C27.9647059,17.4020888 29.5882353,19 29.5882353,20.9738903 L29.5882353,20.9738903 L29.5882353,20.997389 C29.5882353,20.997389 29.5882353,20.997389 29.5882353,20.997389 C29.5882353,20.997389 29.5882353,20.997389 29.5882353,20.997389 L29.5882353,22.5483029 C29.5882353,22.5718016 29.6117647,22.618799 29.6117647,22.6657963 L29.6117647,33.2872063 C29.6117647,35.3315927 31.2588235,36.9765013 33.3058824,36.9765013 C35.3529412,36.9765013 37,35.3315927 37,33.2872063 L37,22.8772846 C37,22.8067885 37,22.7127937 37,22.5718016 C37,21.1148825 36.7411765,16.4386423 33.5882353,13.1488251 C31.5882353,11.1044386 28.8588235,10 25.6588235,10" id="Path"></path>
            <path d="M64.443093,18.0852018 C64.5603823,17.9429853 64.6776716,17.8007687 64.771503,17.6585522 C64.8184188,17.5874439 64.8887924,17.5163357 64.9357081,17.4215247 C65.0764553,17.2319026 65.1937446,17.0422806 65.3344917,16.8289558 C65.3344917,16.805253 65.3579496,16.7815503 65.3814075,16.7815503 C65.5925282,16.4971172 65.7567333,16.2126842 65.8740226,15.8808456 C65.8740226,15.8808456 65.8740226,15.8571429 65.8740226,15.8571429 C66.5777585,14.3638693 66.9530843,12.657271 66.9530843,10.7847534 C66.9530843,7.20563741 65.6159861,4.88276746 64.3023458,3.46060218 C62.6133797,1.75400384 60.5960035,0 54.6377063,0 L43.7063423,0 C41.6655083,0 40,1.68289558 40,3.74503523 C40,5.80717489 41.6655083,7.49007047 43.7063423,7.49007047 L54.356212,7.49007047 L54.356212,7.49007047 L55.9748045,7.49007047 C55.9748045,7.49007047 55.9748045,7.49007047 55.9748045,7.49007047 C55.9748045,7.49007047 55.9748045,7.49007047 55.9748045,7.49007047 L55.9982624,7.49007047 L55.9982624,7.49007047 C57.9687228,7.51377322 59.5638575,9.12556054 59.5638575,11.1165919 C59.5638575,12.9654068 58.2033015,14.4823831 56.4439618,14.7194106 C56.0217202,14.7431134 55.552563,14.7431134 55.0599479,14.7431134 L54.4265856,14.7431134 C54.4031277,14.7431134 54.356212,14.7668161 54.3092963,14.7668161 L43.7063423,14.7668161 C41.6655083,14.7668161 40.0234579,16.426009 40.0234579,18.4881486 C40.0234579,18.4881486 40.0234579,18.4881486 40.0234579,18.5118514 C40.0234579,18.5118514 40.0234579,18.5118514 40.0234579,18.5355541 C40.0234579,20.5976938 41.6889661,22.2805894 43.7298002,22.2805894 L54.3796699,22.2805894 C54.3796699,22.2805894 54.3796699,22.2805894 54.3796699,22.2805894 L55.9982624,22.2805894 C55.9982624,22.2805894 55.9982624,22.2805894 55.9982624,22.2805894 C55.9982624,22.2805894 55.9982624,22.2805894 55.9982624,22.2805894 L56.0217202,22.2805894 L56.0217202,22.2805894 C57.9921807,22.3042921 59.5873154,23.9160794 59.5873154,25.9071108 C59.5873154,27.8981422 57.9921807,29.5336323 56.0217202,29.5336323 L56.0217202,29.5336323 L55.9982624,29.5336323 C55.9982624,29.5336323 55.9982624,29.5336323 55.9982624,29.5336323 C55.9982624,29.5336323 55.9982624,29.5336323 55.9982624,29.5336323 L54.4500434,29.5336323 C54.4265856,29.5336323 54.3796699,29.557335 54.3327541,29.557335 L43.7298002,29.557335 C41.6889661,29.557335 40.0469157,31.2165279 40.0469157,33.2786675 C40.0469157,35.3408072 41.6889661,37 43.7298002,37 L54.1216334,37 C54.192007,37 54.2858384,37 54.4265856,37 C55.8809731,37 60.5490877,36.7392697 63.8331885,33.5631006 C65.8974805,31.5483664 67,28.7988469 67,25.5752723 C67,21.9961563 65.6629018,19.6732864 64.3492615,18.2511211 C64.3492615,18.2037156 64.3961772,18.1326073 64.443093,18.0852018" id="Path"></path>
        </g>
    </g>
</svg>