<?xml version="1.0" encoding="UTF-8"?>
<svg id="Layer_1" data-name="Layer 1" xmlns="http://www.w3.org/2000/svg" viewBox="0 0 70 40">
  <defs>
    <style>
      .cls-1 {
        fill: #102f76;
        stroke-width: 0px;
      }
    </style>
  </defs>
  <g id="in3">
    <g id="IN3-BLUE-RGB">
      <path id="Path" class="cls-1" d="m3.65659,11.11942h0C1.58291,11.17343-.05435,12.89827-.00033,14.97195c.0001.00402.00022.00805.00033.01207v20.4798c-.06067,2.07349,1.57105,3.80358,3.64454,3.86425.00402.00011.00803.00023.01205.00033,2.07368-.05401,3.71094-1.77884,3.65693-3.85252-.0001-.00402-.00022-.00804-.00033-.01206V14.98402c.06871-2.06499-1.54959-3.7947-3.61458-3.86342-.014-.00047-.02801-.00085-.04202-.00116"/>
      <path id="Path-2" class="cls-1" d="m3.65672,7.98509c2.01955,0,3.65672-1.63717,3.65672-3.65672S5.67627.67165,3.65672.67165,0,2.30882,0,4.32837h0c-.00478,2.01477,1.62463,3.65194,3.63939,3.65672.00578.00001.01155.00001.01733,0"/>
      <path id="Path-3" class="cls-1" d="m26.80773,11.11942c-2.79663-.09923-5.52172.89602-7.59614,2.77425-.47652-.41724-.98626-.79493-1.52415-1.12934-.28302-.21887-.59811-.39277-.93415-.51557-.4385-.17075-.90615-.25415-1.37664-.24551-2.14184.00314-3.87815,1.73717-3.88411,3.879-.00851,1.41581.76745,2.71999,2.0158,3.388.02458,0,.04917.02455.07375.02455.21937.1244.41835.28172.59.46647.87047,1.12081,1.36896,2.4856,1.42581,3.90359,0,.29461.02459.56467.02459.76108v11.0234c.00353,2.14513,1.74536,3.88124,3.8905,3.87771,2.14014-.00352,3.87419-1.73757,3.87771-3.87771v-11.1461h0v-1.694h0v-.02455h0c.01624-2.07725,1.71334-3.74803,3.79059-3.7318,2.05433.01606,3.71574,1.67747,3.7318,3.7318h0v.02455h0v1.62036c.0106.0404.01881.08138.02458.12275v11.097c.00101,2.13156,1.72981,3.85871,3.86137,3.85769,2.13012-.00101,3.85668-1.72757,3.85769-3.85769v-11.19521c0-1.52215-.27042-6.40778-3.56454-9.8449-2.19196-2.18861-5.18818-3.37844-8.28445-3.28982"/>
      <path id="Path-4" class="cls-1" d="m67.3286,19.56665c.12199-.14256.23652-.29134.34312-.44575.06293-.07842.12025-.16118.17156-.24765.14705-.19811.26958-.39622.41663-.6191.00166-.02644.02259-.04758.049-.04953.2187-.28548.39229-.60284.51468-.941v-.02476c.7636-1.66123,1.14867-3.47134,1.1274-5.29954.10103-2.81285-.89157-5.55546-2.76944-7.6521-1.76456-1.78302-3.8723-3.61556-10.09739-3.61556h-11.42083c-2.16094.02265-3.89436,1.79279-3.87172,3.95373.02231,2.12898,1.74274,3.8494,3.87172,3.87172h12.84231c2.09605.03918,3.76347,1.77012,3.72429,3.86616-.0348,1.8619-1.41512,3.42359-3.25864,3.68684-.44114.02476-.93131.02476-1.446.02476h-.6617c-.04032.01068-.08124.01895-.12254.02477h-11.07772c-2.13119.00606-3.85395,1.73865-3.84789,3.86984.00002.00605.00005.0121.0001.01816v.04953c-.00655,2.14789,1.72446,3.89697,3.8723,3.91272h12.84231c2.09256.03549,3.76014,1.76061,3.72465,3.85316-.03464,2.04255-1.6821,3.69001-3.72465,3.72465h-1.64206c-.04032.01068-.08124.01894-.12254.02476h-11.07771c-2.14726.02229-3.86989,1.78106-3.8476,3.92833.02197,2.1158,1.73179,3.82563,3.8476,3.8476h11.17575c1.51951,0,6.39664-.27241,9.82779-3.59079,2.20515-2.20745,3.40215-5.22672,3.30861-8.3455.10102-2.81283-.89158-5.55543-2.76943-7.65207.01309-.06685.04747-.12766.098-.17335"/>
    </g>
  </g>
</svg>