<svg id="Capa_1" data-name="Capa 1" xmlns="http://www.w3.org/2000/svg" xmlns:xlink="http://www.w3.org/1999/xlink" viewBox="0 0 70 40"><defs><style>.cls-1{fill:#fff;}.cls-1,.cls-2,.cls-4{fill-rule:evenodd;}.cls-2{fill:#f3db34;}.cls-3{mask:url(#mask);}.cls-4{fill:#232323;}</style><mask id="mask" x="10.43593" y="12.98501" width="15.28131" height="14.72069" maskUnits="userSpaceOnUse"><g id="mmt8j00wab"><path id="hxcg6ite7a" class="cls-1" d="M10.43593,12.985H25.71724V27.70522H10.43593Z"/></g></mask></defs><path id="矩形" class="cls-2" d="M12.83843,5.75975H57.16157C64.294,5.75975,70,12.08875,70,20h0c0,7.91125-5.706,14.24025-12.83843,14.24025H12.83843C5.706,34.12723,0,27.79823,0,20H0C0,12.08875,5.706,5.75975,12.83843,5.75975Z"/><g class="cls-3"><path class="cls-4" d="M18.077,12.985c-4.22044,0-7.6411,2.70195-7.6411,6.03615A5.74777,5.74777,0,0,0,13.56839,23.891l-.89975,3.35942a.36046.36046,0,0,0,.55029.39179l3.90162-2.6344c.31252.03062.63135.04953.95648.04953,4.21864,0,7.64021-2.70194,7.64021-6.03615-.0018-3.3333-3.42247-6.03615-7.64021-6.03615"/></g><path class="cls-4" d="M32.95852,15.83861v5.96023a7.49472,7.49472,0,0,0,.857.05611c1.89621,0,2.62478-1.33109,2.62478-3.42652,0-1.84174-.49195-2.95328-2.00437-2.95328a3.43691,3.43691,0,0,0-1.47826.36346m0,7.81986v3.70786H30.29634V13.61552h1.87751l.32688.87493a3.78126,3.78126,0,0,1,2.80773-1.16684c2.6077,0,3.8461,1.94988,3.82821,5.104,0,3.29968-1.91411,5.41381-4.64866,5.41381a5.78044,5.78044,0,0,1-1.5303-.18214m13.07022-2.65v-1.823H44.80742c-1.36768,0-2.06046.49276-2.06046,1.47664,0,.74727.38217,1.11155,1.16684,1.11155a3.66634,3.66634,0,0,0,2.11413-.76434m-1.51486-3.52h1.514v-.32769c0-1.09366-.6196-1.6043-1.69537-1.6043a6.695,6.695,0,0,0-2.73455.65619l-.72937-1.78563a6.96857,6.96857,0,0,1,3.69973-1.11236c2.55322,0,3.93879,1.349,3.93879,3.91928V23.5617H46.628l-.27321-.84a5.03748,5.03748,0,0,1-2.95328,1.11236,2.81712,2.81712,0,0,1-3.04435-3.1346c0-2.09788,1.45875-3.20942,4.1559-3.20942m11.93428,5.22028c-.93022,2.48-2.04176,4.28356-3.66477,5.287l-1.64007-1.514a9.18132,9.18132,0,0,0,2.20438-2.69633l-3.5371-9.6437,2.64429-.70986,2.25968,7.81985L56.95637,13.396l2.6077.72937Z"/></svg>