<svg xmlns="http://www.w3.org/2000/svg" viewBox="0 0 70 40"><defs><style>.cls-1{fill:#ffb3c7;}.cls-2{fill:#0a0b09;}</style></defs><g id="Layer_2" data-name="Layer 2"><g id="Layer_1-2" data-name="Layer 1"><path class="cls-1" d="M6.72156,0H63.27845A6.8196,6.8196,0,0,1,70,6.9136V33.0864A6.8196,6.8196,0,0,1,63.27845,40H6.72156A6.8196,6.8196,0,0,1,0,33.0864V6.9136A6.8196,6.8196,0,0,1,6.72156,0Z"/><path class="cls-2" d="M63.45671,23.33869A1.67338,1.67338,0,1,0,65.1151,25.012,1.66577,1.66577,0,0,0,63.45671,23.33869ZM58.00091,22.045a2.39623,2.39623,0,1,0-2.39384,2.291A2.34388,2.34388,0,0,0,58.00091,22.045Zm.00889-4.45232h2.642V26.497h-2.642v-.56908a4.603,4.603,0,0,1-2.61909.81559,4.69867,4.69867,0,0,1,0-9.39695,4.6019,4.6019,0,0,1,2.61909.81573v-.5696ZM36.86669,18.75254V17.59281H34.16174V26.497h2.711V22.33974c0-1.40259,1.50654-2.15646,2.55189-2.15646l.0314.00117V17.59351a3.28277,3.28277,0,0,0-2.58938,1.1592Zm-6.738,3.29249a2.39631,2.39631,0,1,0-2.394,2.291A2.344,2.344,0,0,0,30.12865,22.045Zm.00874-4.45231H32.7795V26.497H30.13739v-.56909a4.6029,4.6029,0,0,1-2.61894.8156,4.69867,4.69867,0,0,1,0-9.397,4.60164,4.60164,0,0,1,2.61894.81573v-.56959Zm15.90244-.2395A3.19827,3.19827,0,0,0,43.31776,18.596V17.59324h-2.6306v8.90385h2.663V21.81782a1.86893,1.86893,0,0,1,1.98333-2.01709c1.16116,0,1.82871.69994,1.82871,1.99874v4.69762H49.801V20.83471a3.50658,3.50658,0,0,0-3.76118-3.48133ZM19.01361,26.49709h2.76531V13.62471H19.01361ZM6.86612,26.5006H9.7943V13.62231H6.86612ZM17.1079,13.62231a10.29108,10.29108,0,0,1-2.99538,7.3094l4.04755,5.56936H14.54341l-4.3988-6.05267,1.13526-.85792a7.4176,7.4176,0,0,0,2.96255-5.9682h2.86549Z"/></g></g></svg>