<?xml version="1.0" encoding="UTF-8"?>
<svg id="Layer_1" data-name="Layer 1" xmlns="http://www.w3.org/2000/svg" viewBox="0 0 70 40">
  <defs>
    <style>
      .cls-1 {
        fill: #f79e1b;
      }

      .cls-2 {
        fill: #eb001b;
      }

      .cls-3 {
        fill: #ff5f00;
      }
    </style>
  </defs>
  <rect class="cls-3" x="26.25104" y="4.27677" width="17.49962" height="31.44731"/>
  <path class="cls-2" d="M27.36225,20.00043c-.00559-6.13665,2.81125-11.93493,7.63867-15.72365C26.31698-2.54901,13.74388-1.04266,6.91809,7.64126,.09232,16.32521,1.59866,28.89831,10.28258,35.7241c7.25323,5.7012,17.46512,5.7012,24.71834,0-4.82739-3.78876-7.64423-9.58704-7.63867-15.72367Z"/>
  <path class="cls-1" d="M67.35865,20.00043c.00041,11.04505-8.95303,19.99916-19.99809,19.99956-4.48266,.00017-8.83541-1.5057-12.35965-4.27591,8.68394-6.82835,10.18819-19.40355,3.35984-28.08748-.98248-1.24946-2.11038-2.37737-3.35984-3.35984,8.68352-6.82565,21.2562-5.31952,28.08183,3.364,2.77022,3.52425,4.27608,7.87699,4.27591,12.35967Z"/>
  <path class="cls-1" d="M65.45058,32.39333v-.64382h.2596v-.13117h-.66115v.13117h.25972v.64382h.14184Zm1.28358,0v-.77627h-.20267l-.2331,.53393-.23317-.53393h-.20277v.77627h.14311v-.58553l.2186,.50482h.14838l.21862-.50611v.58682h.14299Z"/>
</svg>