<?xml version="1.0" encoding="UTF-8"?>
<svg id="Layer_1" data-name="Layer 1" xmlns="http://www.w3.org/2000/svg" viewBox="0 0 70 40">
  <defs>
    <style>
      .cls-1 {
        fill: #1d1d1b;
      }

      .cls-1, .cls-2 {
        stroke-width: 0px;
      }

      .cls-2 {
        fill: red;
      }
    </style>
  </defs>
  <path class="cls-2" d="m2.77697,32.675l-.10432.88673v.31296c.05216.10432.05216.20864.15648.2608.05216.05216.15648.15648.20864.20864.10432.05216.15648.05216.2608.10432h29.78364c.10432,0,.20864,0,.31296-.05216.10432-.05216.15648-.10432.2608-.15648.05216-.05216.10432-.15648.15648-.2608s.05216-.20864.05216-.31296v-.10432l-.10432-.93889c-.05216-.36512.05216-.67809.2608-.93889s.5216-.41728.88673-.46945c.15648,0,.31296,0,.5216.05216s.31296.10432.46945.20864.2608.2608.31296.36512c.10432.15648.15648.31296.15648.46945l.10432.88673c.20864,1.9821-.88673,3.70339-2.92099,3.70339H2.98561c-1.9821,0-3.12963-1.7213-2.92099-3.70339l.10432-.88673c0-.15648.05216-.31296.15648-.46945.10432-.15648.20864-.2608.31296-.36512.15648-.05216.31296-.15648.46944-.20864s.31296-.05216.5216-.05216c.36512.05216.67809.20864.88673.46945.20864.31296.31296.62592.2608.99105"/>
  <path class="cls-1" d="m30.21339,25.78981c.62593.05216,1.25185-.20864,1.77346-.62593.46945-.41728.78241-1.04321.78241-1.66914v-.10432c-.05216-1.40833-1.30401-2.34722-2.76451-2.34722h-2.92099c-.31296,0-.62593-.10432-.88673-.36512-.20864-.20864-.36512-.5216-.36512-.88673,0-.31296.10432-.62593.36512-.88673.20864-.20864.5216-.36512.88673-.36512h1.92994c1.30401-.05216,2.29506-.83457,2.39938-2.08642.05216-1.30401-1.09537-2.34722-2.45154-2.34722h-4.69444v11.57963l5.94629.10432m3.54691-9.28457c0,.5216-.10432.99105-.31296,1.46049s-.46945.88673-.83457,1.25185l-.05216.10432.10432.05216c.73025.41728,1.30401.99105,1.7213,1.66914s.67809,1.51266.67809,2.29506c0,1.30401-.46945,2.5037-1.35617,3.44259-.88673.93889-2.13858,1.46049-3.39043,1.46049h-7.30247c-.31296,0-.67809-.15648-.88673-.36512-.2608-.2608-.36512-.57376-.36512-.88673v-13.87469c0-.15648.05216-.36512.10432-.5216.05216-.15648.15648-.31296.2608-.41728.10432-.10432.2608-.20864.41728-.2608s.31296-.10432.5216-.10432h5.89413c1.25185-.05216,2.45154.41728,3.33827,1.25185s1.40833,2.03426,1.46049,3.28611v.15648"/>
  <path class="cls-1" d="m10.6532,23.54691l.05216.10432.05216-.10432c.31296-.93889.73025-1.92994,1.14753-3.02531.41728-1.09537.88673-2.29506,1.30401-3.33827s.83457-2.03426,1.25185-2.86883c.2608-.62593.57377-1.19969.99105-1.77346.20864-.20864.41728-.41728.67809-.5216s.57377-.20864.88673-.15648h.2608c.31296,0,.67809.10432.93889.31296.20864.15648.31296.41728.36512.67809l1.87778,14.34414c0,.15648,0,.31296-.05216.46945-.05216.15648-.15648.31296-.2608.41728-.2608.20864-.57376.31296-.88673.31296s-.67809-.05216-.93889-.2608l-.31296-.31296c-.05216-.10432-.10432-.2608-.15648-.41728-.05216-.46945-.10432-.99105-.15648-1.61697-.05216-.57376-.36512-3.07747-.46945-3.70339-.10432-.62593-.57377-4.69444-.78241-6.15494v-.10432l-.57377,1.25185c-.20864.41728-.41728.93889-.67809,1.56481-.2608.57377-.46944,1.25185-.73025,1.92994-.20864.67809-1.40833,3.91204-1.40833,3.91204-.10432.31296-.31296.88673-.46944,1.46049s-.36512,1.04321-.41728,1.14753c-.20864.41728-.57377.67809-.99105.83457s-.88673.10432-1.25185-.10432c-.31296-.15648-.57377-.41728-.73025-.73025-.05216-.10432-.20864-.57376-.41728-1.14753-.20864-.57376-.36512-1.14753-.46944-1.46049,0,0-1.14753-3.28611-1.40833-3.91204s-.46944-1.30401-.73025-1.92994c-.20864-.62593-.46944-1.09537-.67809-1.56481l-.57377-1.25185v.10432c-.15648,1.35617-.67809,5.42469-.73025,6.10277-.10432.62593-.36512,3.12963-.46944,3.70339-.05216.57376-.10432,1.09537-.15648,1.61697,0,.15648-.05216.2608-.15648.41728-.05216.10432-.15648.20864-.31296.31296-.2608.20864-.57377.31296-.93889.2608-.31296,0-.62593-.10432-.88673-.31296-.10432-.15648-.15648-.2608-.20864-.41728s-.10432-.31296-.05216-.46945l1.82562-14.34413c.05216-.2608.15648-.46944.36512-.62593.2608-.20864.57377-.31296.93889-.31296h.31296c.31296,0,.57377.05216.83457.15648.2608.10432.5216.31296.67809.5216.36512.57377.73025,1.14753.99105,1.77346.41728.83457.83457,1.77346,1.25185,2.86883s.88673,2.19074,1.30401,3.33827c.41728,1.04321.83457,2.08642,1.14753,3.02531"/>
  <path class="cls-2" d="m7.05413,3.1h22.53333c2.13858,0,3.18179,1.61698,3.39043,3.70339l.10432.67809c.05216.36512-.05216.67809-.2608.99105-.20864.2608-.5216.46944-.88673.46944-.36512.05216-.67809-.10432-.93889-.31296-.2608-.20864-.41728-.5216-.46945-.88673l-.10432-.62593c-.10432-.78241-.41728-1.40833-1.25185-1.40833H7.41925c-.83457,0-1.14753.62593-1.25185,1.40833l-.10432.62593c-.05216.36512-.20864.67809-.46944.88673s-.62593.31296-.93889.31296c-.15648,0-.36512-.05216-.46944-.15648-.15648-.10432-.2608-.20864-.41728-.31296-.05216-.15648-.15648-.31296-.20864-.46944-.05216-.20864-.05216-.36512-.05216-.5216l.10432-.67809c.2608-2.08642,1.30401-3.70339,3.44259-3.70339"/>
  <path class="cls-1" d="m47.53067,18.2787c-.15648.57377-.31296,1.25185-.46945,1.92994-.15648.73025-.36512,1.35617-.46945,1.92994-.15648.62593-.31296,1.14753-.46945,1.61697-.10432.31296-.20864.67809-.36512.99105-.10432.15648-.20864.2608-.41729.36512-.15648.10432-.36512.10432-.5216.10432s-.31296-.05216-.46945-.05216l-.31296-.15648c-.10432-.05216-.15648-.15648-.20864-.2608-.15648-.31296-.2608-.67809-.36512-.99105-.15648-.46945-.31296-1.09537-.46945-1.7213-.20864-.67809-.31296-1.35617-.46945-2.08642-.15648-.73025-.31296-1.40833-.41729-2.03426s-.31296-1.25185-.41728-1.66914-.15648-.73025-.15648-.78241v-.15648c0-.10432,0-.15648.05216-.2608s.10432-.15648.15648-.20864c.15648-.10432.31296-.15648.5216-.15648.15648,0,.36512.05216.46945.10432.15648.10432.2608.2608.2608.41728,0,0,.05216.15648.10432.46944s.15648.67809.20864,1.14753c.10432.46944.20864.99105.31296,1.56481s.20864,1.14753.36512,1.7213c.15648.57376.2608,1.14753.36512,1.66914.10432.57376.2608,1.04321.36512,1.40833.10432-.36512.20864-.78241.36512-1.25185.15648-.46945.2608-.99105.41729-1.46049.15648-.46945.2608-1.04321.36512-1.51265.10432-.5216.20864-.99105.36512-1.40833s.20864-.83457.2608-1.14753c.05216-.36512.15648-.57377.15648-.73025.05216-.20864.15648-.36512.31296-.46944.15648-.15648.36512-.20864.5216-.20864.20864,0,.41729.05216.57376.20864.15648.10432.2608.31296.31296.46944.15648.5216.2608,1.14753.41729,1.77346.15648.67809.31296,1.30401.41729,1.9821.15648.67809.31296,1.35617.46945,1.9821.15648.67809.31296,1.25185.46945,1.7213.10432-.41728.20864-.88673.36512-1.40833.10432-.5216.2608-1.09537.36512-1.66914.15648-.57377.2608-1.14753.36512-1.7213.10432-.57377.20864-1.09537.31296-1.51265.10432-.46944.15648-.83457.20864-1.09537s.10432-.41728.10432-.46944c.05216-.15648.10432-.31296.2608-.41728.15648-.10432.31296-.15648.46945-.10432.20864,0,.36512.05216.5216.15648.05216.05216.10432.10432.15648.20864s.05216.15648.05216.2608v.15648c0,.10432-.05216.36512-.15648.78241s-.20864.99105-.31296,1.61698c-.15648.62593-.2608,1.30401-.46945,2.03426-.15648.73025-.31296,1.40833-.46945,2.08642s-.31296,1.25185-.46945,1.7213c-.10432.36512-.20864.67809-.36512.99105-.10432.20864-.2608.36512-.46945.41728-.15648.05216-.31296.10432-.46945.10432h-.20864c-.10432,0-.20864-.05216-.2608-.05216l-.31296-.15648c-.10432-.05216-.20864-.15648-.20864-.31296-.15648-.31296-.2608-.67809-.36512-1.04321-.15648-.46945-.31296-1.04321-.46945-1.61697-.15648-.62593-.31296-1.25185-.46945-1.92994-.05215-.67809-.15647-1.30402-.31295-1.87778"/>
  <path class="cls-1" d="m56.18931,22.19074c-.15648.5216-.31296.99105-.41729,1.46049-.10432.46945-.2608.83457-.36512,1.09537-.05216.20864-.10432.36512-.2608.46945s-.36512.15648-.5216.15648c-.20864,0-.36512-.10432-.46945-.2608-.10432-.15648-.15648-.36512-.15648-.5216,0-.05216,0-.15648.05216-.20864l.20864-.67809c.10432-.36512.2608-.83457.46945-1.40833.20864-.57376.41729-1.19969.62592-1.87778.20864-.67809.46945-1.35617.67809-2.03426.2608-.67809.46945-1.30401.73025-1.82562.20864-.46944.41729-.93889.67809-1.40833.05216-.15648.20864-.31296.36512-.36512.20864-.05216.41729-.10432.62592-.10432s.41729.05216.62592.10432c.10432.05216.15648.10432.20864.15648.05216.05216.10432.15648.15648.20864.15648.31296.36512.78241.57376,1.30401.20864.57377.41729,1.14753.67809,1.77346.20864.62593.46945,1.30401.67809,1.92994.20864.67809.41729,1.30401.62592,1.87778.20864.57376.36512,1.04321.46945,1.46049.15648.41728.20864.67809.2608.78241,0,.05216.05216.15648.05216.20864,0,.10432,0,.15648-.05216.2608s-.10432.15648-.15648.20864c-.05216.05216-.15648.10432-.2608.15648s-.20864.05216-.31296.05216c-.15648,0-.31296-.05216-.41729-.10432-.10432-.10432-.15648-.20864-.20864-.36512-.10432-.31296-.2608-.67809-.36512-1.09537-.15648-.46945-.31296-.93889-.46945-1.46049l-4.32932.05216m3.59907-1.46049c-.20864-.73025-.46945-1.35617-.67809-1.92994s-.41729-1.14753-.62592-1.7213c-.05216-.10432-.10432-.2608-.15648-.41728-.05216-.15648-.10432-.2608-.10432-.2608-.05216.10432-.10432.15648-.10432.2608-.05216.15648-.10432.31296-.15648.41728-.20864.5216-.41729,1.09537-.62592,1.7213-.20864.57377-.41729,1.25185-.62592,1.92994h3.07747Z"/>
  <path class="cls-1" d="m65.42172,21.09537c-.05216-.05216-.10432-.10432-.15648-.20864l-.15648-.20864c-.15648-.20864-.31296-.46945-.46945-.78241-.15648-.31296-.36512-.62593-.5216-.99105-.15648-.31296-.36512-.73025-.5216-1.04321-.15648-.36512-.31296-.67809-.46945-.99105s-.2608-.57377-.36512-.78241c-.05216-.15648-.15648-.31296-.15648-.46944,0-.05216-.05216-.10432-.05216-.10432v-.10432c0-.10432,0-.15648.05216-.2608s.10432-.15648.15648-.20864c.05216-.05216.15648-.10432.2608-.15648.10432-.05216.20864-.05216.31296-.05216s.15648,0,.2608.05216.15648.05216.20864.15648c.10432.10432.15648.20864.20864.31296l.15648.36512c.10432.20864.20864.41728.31296.67809s.2608.57377.41729.88673.31296.62593.46945.99105l.46945.88673c.10432.2608.2608.46944.41729.73025.2608-.36512.46945-.78241.67809-1.19969.2608-.46944.46944-.93889.67809-1.40833.20864-.46944.41729-.88673.57377-1.25185l.31297-.67809c.05216-.10432.10432-.20864.20864-.31296.05216-.05216.15648-.10432.20864-.15648.10432-.05216.15648-.05216.2608,0,.10432,0,.20864,0,.31297.05216.10432.05216.20864.10432.2608.15648.05216.05216.10432.15648.15648.20864.05216.10432.05216.15648.05216.2608v.10432l-.05216.10432-.20864.46944c-.10432.20864-.20864.46944-.36512.78241s-.31297.62593-.46944.99105c-.15648.31296-.36512.73025-.5216,1.04321-.15648.36512-.36512.67809-.5216.99105-.15648.31296-.36512.57376-.46944.78241-.10432.15648-.20864.2608-.31297.36512v3.39043c0,.10432,0,.20864-.05216.31296-.05216.10432-.10432.15648-.15648.2608-.15648.15648-.31296.20864-.5216.20864s-.36512-.05216-.5216-.20864c-.05216-.05216-.15648-.15648-.15648-.2608-.05216-.10432-.05216-.20864-.05216-.31296v-3.39043"/>
</svg>