<?xml version="1.0" encoding="UTF-8"?>
<svg id="svg2" xmlns="http://www.w3.org/2000/svg" viewBox="0 0 70 40">
  <defs>
    <style>
      .cls-1, .cls-2 {
        fill-rule: evenodd;
      }

      .cls-1, .cls-2, .cls-3 {
        stroke-width: 0px;
      }

      .cls-1, .cls-3 {
        fill: #1d1d1b;
      }

      .cls-2 {
        fill: #3d73b9;
      }
    </style>
  </defs>
  <g id="g20">
    <path id="path22" class="cls-2" d="m34.82935,32.21483h13.86125c3.16307,0,3.19604-3.3631,2.87292-5.02267-.17585-1.11664-2.07281-1.09905-2.28163,0v1.29468c-.00121.59435-.48272,1.07586-1.07707,1.07707h-26.57069c-.59435-.00121-1.07586-.48272-1.07707-1.07707v-1.29468c-.20882-1.09905-2.10578-1.11664-2.28163,0-.32312,1.65957-.29015,5.02267,2.87292,5.02267h13.681ZM25.03239-.00499h21.36997c1.50131,0,2.73005,1.30128,2.73005,2.89051v1.38041c0,1.95192-2.63773,1.94312-2.63773.01319v-.75175c0-.48559-.39365-.87924-.87924-.87924h-21.41394c-.48559,0-.87924.39365-.87924.87924v.73856c0,1.94093-2.51903,1.92774-2.51903.04176v-1.41998c.00659-1.58923,1.23314-2.89271,2.73444-2.89271h1.49471Z"/>
  </g>
  <g id="g24">
    <path id="path26" class="cls-1" d="m48.59388,15.86752c1.49804.66898,2.47331,2.14475,2.50144,3.78514,0,2.3256-2.03105,4.22915-4.51271,4.22915h-6.9614c-.62839.01863-1.15521-.47098-1.18258-1.09905v-13.25017c.00242-.64083.52196-1.15939,1.1628-1.1606h5.7964c2.44373-.00567,4.42937,1.97076,4.43505,4.4145.00267,1.14892-.44166,2.25383-1.239,3.08104m-5.19412-1.07707h2.20909v-.02418c1.02402-.1607,1.78013-1.04067,1.78486-2.07721h0c-.00362-1.15906-.94232-2.09777-2.10139-2.10139h-4.45116v10.99052h5.64253c1.1988.03815,2.20156-.90274,2.23971-2.10154.03816-1.19881-.90274-2.20156-2.10154-2.23971-.04605-.00147-.09213-.00147-.13817,0h-3.08394c-.67376.00039-1.22026-.54549-1.22065-1.21925s.54549-1.22026,1.21925-1.22065h.0014"/>
  </g>
  <g id="g28">
    <path id="path30" class="cls-3" d="m25.91383,36.28132c0-.20638.1673-.37368.37368-.37368s.37368.1673.37368.37368v2.01786h0c-.00121.92369-.74907,1.67253-1.67276,1.67495h0c-.92369-.00121-1.67254-.74906-1.67496-1.67276h0v-2.01786c-.01582-.20577.13817-.3854.34394-.40122.20577-.01582.3854.13817.40122.34394.00147.01906.00147.03822,0,.05728v2.01786h0c.00479.51237.41961.92622.932.9298h0c.51337-.00241.9286-.41862.9298-.932h0l-.00659-2.01786Z"/>
  </g>
  <g id="g32">
    <path id="path34" class="cls-3" d="m29.44839,39.22898c.20638-.00039.374.16659.37439.37297.00039.20637-.16659.374-.37297.37439h-1.03893c-.7733,0-1.40019-.62689-1.40019-1.40019h0v-2.29482c0-.20516.16632-.37148.37148-.37148s.37148.16632.37148.37148v2.29042h0c0,.3642.29524.65943.65943.65943h1.03531v-.0022Z"/>
  </g>
  <g id="g36">
    <path id="path38" class="cls-3" d="m37.33299,22.56075c.11049.76414-.41941,1.47317-1.18355,1.58366-.76414.11049-1.47317-.41941-1.58366-1.18355-.00506-.03503-.0088-.07025-.01119-.10556l-1.14961-10.53112-4.04671,10.29812h0v.04836h0v.05495h0v.02198h0c-.08875.15526-.20757.29126-.3495.40006h0l-.02198.01759c-.07359.06644-.15475.12398-.24179.17145h0l-.02638.01319h0l-.02418.01319h-.13848c-.1314.04693-.26937.0729-.40885.07693h-.10111c-.15676-.00448-.31152-.03647-.45721-.09452h-.1143l-.02418-.01319h0l-.02198-.01319h-.01319c-.07802-.0416-.15166-.09094-.21981-.14727h0l-.04616-.04176h0l-.03517-.03297-.08353-.02198h0l-.04176-.04616h0c-.05634-.06815-.10567-.14179-.14727-.21981v-.01319l-.01319-.02198h0l-.01319-.02418h0v-.08353h0v-.01978l-4.12145-10.3223-1.14521,10.53112c-.08134.76663-.76875,1.32217-1.53538,1.24083-.76663-.08134-1.32217-.76875-1.24083-1.53538l1.34964-12.4149h0c.03259-.29238.12062-.57587.25938-.83528.35132-.65752.99758-1.10581,1.7365-1.20456h.07474c.1178-.00875.23609-.00875.35389,0h0c.14217.00565.28348.02479.42204.05715.74033.16954,1.34865.69472,1.6244,1.40239l3.45982,8.74406,3.45322-8.77264c.33183-.8497,1.135-1.42252,2.04643-1.45954h0c.1178-.00875.23609-.00875.35389,0h.07473c.73865.09945,1.38462.54754,1.7365,1.20456.0674.12995.12401.26523.16925.40445.04444.14322.07463.29047.09012.43962h0l1.35623,12.43468Z"/>
  </g>
  <g id="g40">
    <path id="path42" class="cls-3" d="m23.1684,39.56089c.03679.20307-.098.39752-.30107.43431-.20307.03679-.39752-.098-.43431-.30107-.00272-.01499-.00451-.03012-.00538-.04532l-.31873-2.68828-1.14082,2.63773c-.08154.18917-.30079.27668-.49018.19563-.0874-.03767-.15675-.10781-.19343-.19563h0l-1.14082-2.63773-.32092,2.68828c-.01176.20604-.18833.36353-.39437.35177-.20604-.01177-.36353-.18833-.35177-.39437.00087-.0152.00266-.03034.00538-.04532l.37588-3.12131c.0245-.19974.14748-.3739.32752-.4638.02336-.01272.0476-.02374.07254-.03297h.02858c.03556-.01235.07245-.02046.10991-.02418h0c.18962-.02635.38101.03421.52095.16486.02773.02599.05277.05471.07474.08573.01622.02243.03091.04593.04396.07034.00818.01346.01552.0274.02198.04176l.96717,2.24207.96717-2.25965c.08063-.18216.24444-.31403.43962-.35389.03627-.00744.07298-.01258.10991-.01539h.1143c.1928.02171.36478.13122.466.29675h0c.02083.0339.03779.07003.05056.10771.00918.0234.01582.04772.01978.07254.00104.0161.00104.03226,0,.04836h0l.37588,3.14109Z"/>
  </g>
  <g id="g44">
    <path id="path46" class="cls-3" d="m31.07498,39.60266c0,.20638-.1673.37368-.37368.37368s-.37368-.1673-.37368-.37368h0v-2.94766h-1.06168c-.20638-.00039-.37336-.16801-.37297-.37439.00039-.20582.16714-.37257.37297-.37297h2.87073c.20638.00039.37336.16801.37297.37439-.00039.20582-.16715.37257-.37297.37297h-1.06168v2.94766Z"/>
  </g>
  <g id="g48">
    <path id="path50" class="cls-3" d="m33.40497,39.60266c0,.20638-.1673.37368-.37368.37368s-.37368-.1673-.37368-.37368h0v-3.32134c0-.20638.1673-.37368.37368-.37368s.37368.1673.37368.37368v3.32134Z"/>
  </g>
  <g id="g52">
    <path id="path54" class="cls-3" d="m41.05658,39.56089c.01362.20593-.14228.3839-.34821.39752-.19008.01257-.35918-.11985-.39256-.3074l-.13189-1.05509h-1.28369c-.20577.01582-.3854-.13817-.40122-.34394-.01582-.20577.13817-.3854.34394-.40122.01906-.00147.03821-.00147.05728,0h1.20016l-.03517-.27476h0v-.02638c-.00971-.06459-.02366-.12848-.04176-.19123-.02011-.06726-.04584-.1327-.07693-.19563-.13344-.29994-.42794-.49599-.75615-.50336h0c-.06362.00047-.12701.00784-.18904.02198-.05805.01445-.11414.03585-.16706.06374-.30016.17363-.49454.48496-.51875.83088l-.233,2.07501c-.02246.20395-.206.35107-.40995.32862-.20395-.02246-.35108-.206-.32862-.40995h0l.233-2.07501c.05023-.59644.39607-1.128.92101-1.41558.10493-.05275.21556-.09331.32972-.1209.11892-.02765.2406-.04167.36269-.04176h0c.61131.00337,1.1652.36091,1.41998.91661.05094.10191.09357.20776.12749.31653.02864.10016.04994.20228.06375.30554.00208.01089.00208.02208,0,.03297h0l.25498,2.07281Z"/>
  </g>
  <g id="g56">
    <path id="path58" class="cls-3" d="m42.19739,39.60266c.01582.20577-.13817.3854-.34394.40122-.20577.01582-.3854-.13817-.40122-.34394-.00147-.01906-.00147-.03822,0-.05728v-3.07735h0c-.00226-.02119-.00226-.04256,0-.06374.00483-.04126.01442-.08184.02857-.1209h0l.03077-.06594h0c.06433-.11435.16834-.20116.29235-.24399l.05056-.01319h.13848c.15445.00651.29827.08043.39346.20223l1.97829,2.53441v-2.47287c0-.20638.1673-.37368.37368-.37368s.37368.1673.37368.37368v3.07735c-.00071.15808-.07256.30744-.19563.40665-.02385.02007-.04962.03774-.07694.05276-.01473.00863-.03018.01599-.04616.02198h0l-.03077.01319h0c-.13102.04581-.27484.0379-.40005-.02198l-.04836-.02418c-.02612-.01645-.05043-.03561-.07254-.05715-.01721-.015-.03336-.03115-.04836-.04836l-.01319-.01539h0l-1.98269-2.54321v2.45968Z"/>
  </g>
  <g id="g60">
    <path id="path62" class="cls-3" d="m48.02677,39.22898c.20638-.00039.374.16659.37439.37297.00039.20637-.16659.374-.37297.37439h-1.10047c-.81215,0-1.47053-.65838-1.47053-1.47053h0v-1.12323h0c.00241-.81115.65938-1.46812,1.47053-1.47053h1.09905c.20638.00039.37336.16801.37297.37439-.00039.20582-.16715.37257-.37297.37297h-1.09905c-.19379.00229-.37877.08134-.51436.21981-.13896.13435-.21816.31888-.21981.51216h0v1.12323h0c.0024.40083.32674.72517.72757.72757h1.09905l.00659-.01318Z"/>
  </g>
  <g id="g64">
    <path id="path66" class="cls-3" d="m50.18751,36.6528h0c-.26274-.00102-.51565.09983-.70559.28136-.18207.17122-.28612.4095-.28795.65943h0v.6968h0c.001.24965.10428.48798.28575.65943.18995.18153.44285.28238.70559.28136h0c.26274.00102.51565-.09983.70559-.28136.18207-.17122.28612-.4095.28795-.65943h0v-.6968h0c-.00202-.24944-.10513-.48739-.28575-.65943-.19112-.18108-.44451-.28181-.70779-.28136m0-.74516h0c.45518-.00165.89328.17327,1.22215.48798.32838.31124.51504.74333.51656,1.19577h0v.6968h0c-.00152.45244-.18818.88453-.51656,1.19577-.32887.31471-.76696.48963-1.22215.48798h0c-.45518.00165-.89328-.17327-1.22215-.48798-.32693-.31206-.51265-.74382-.51436-1.19577h0v-.6968h0c.00171-.45195.18743-.88371.51436-1.19577.32887-.31471.76696-.48963,1.22215-.48798h0Z"/>
  </g>
  <g id="g68">
    <path id="path70" class="cls-3" d="m34.46226,36.655v2.57398h1.44196c.25858,0,.4682-.20961.4682-.46819,0-.00073,0-.00147,0-.0022h0c.00025-.11724-.04371-.23026-.12309-.31653l-.01539-.01319c-.08632-.08961-.20529-.14037-.32972-.14068h-.49677c-.20638-.00039-.37336-.16801-.37297-.37439.00039-.20582.16715-.37257.37297-.37297h.16925c.10597-.00935.20542-.05518.28136-.12969h0c.08445-.08277.13199-.19608.13189-.31433h0c0-.2428-.19683-.43962-.43962-.43962h-1.08806v-.0022Zm-.74736,1.26391v-1.6222h0c-.00021-.05071.01027-.10089.03077-.14727.02064-.04798.04967-.09189.08573-.12969h0c.06666-.06369.15409-.10116.24619-.10551h1.46174c.65676,0,1.18917.53241,1.18917,1.18918h0c-.00069.22389-.06387.44314-.18244.63306.07947.04701.15324.10307.21981.16705l.02418.02638c.21335.22487.33217.5231.33191.83308h0c-.00121.66961-.54374,1.21214-1.21335,1.21335h-1.82003c-.20638,0-.37368-.1673-.37368-.37368v-1.68375Z"/>
  </g>
</svg>