<?xml version="1.0" encoding="utf-8"?>
<!-- Generator: Adobe Illustrator 26.2.1, SVG Export Plug-In . SVG Version: 6.00 Build 0)  -->
<svg version="1.1" id="Capa_1" xmlns="http://www.w3.org/2000/svg" xmlns:xlink="http://www.w3.org/1999/xlink" x="0px" y="0px"
	 viewBox="0 0 70 40" style="enable-background:new 0 0 70 40;" xml:space="preserve">
<style type="text/css">
	.st0{fill:#334B66;}
	.st1{fill:#2ABAEA;}
</style>
<desc>Created with Sketch.</desc>
<path class="st0" d="M47.4,16.5c-2.6,0-3.8,1.5-3.8,1.5c-0.8,0.8-0.3,2,0.5,2.1c1.1,0.1,1.1-0.8,2.8-1.2c1.5-0.4,1.6,1,1.6,1
	c-6.4-0.2-6.1,5.2-3.9,6.3c2.1,1.1,4-0.3,4-0.3s0.1,0.7,1.1,0.7c1.2,0,1.2-1.2,1.2-1.2v-5.2C50.8,16.4,47.4,16.5,47.4,16.5z
	 M46.9,24c0,0-1.7,0.3-1.7-0.9s3-1.1,3.4-1C48.6,22.2,48.7,23.5,46.9,24L46.9,24z"/>
<path class="st0" d="M68,24.5l-2.6-3.9l1.9-1.8c0,0,0.9-0.8,0.2-1.6c-0.8-0.9-1.8,0-1.8,0l-2.4,2.2v-4.5c0-0.6-0.5-1.2-1.2-1.2
	c-0.6,0-1.2,0.5-1.2,1.2v10.5c0,0.6,0.5,1.2,1.2,1.2c0.6,0,1.2-0.5,1.2-1.2v-2.8l0.4-0.4l2.4,3.7c0,0,0.8,1.3,1.9,0.5
	C68.8,25.7,68,24.5,68,24.5z"/>
<path class="st0" d="M59.7,20.2c0-3.8-3.2-4.3-5.3-3.1c0,0,0,0,0,0c-0.2-0.6-0.9-0.9-1.5-0.7c-0.5,0.2-0.8,0.6-0.8,1.1v7.9
	c0,0.7,0.5,1.2,1.2,1.2c0.7,0,1.2-0.5,1.2-1.2l0-5.3c0.2-0.2,0.5-0.5,0.7-0.7c1.1-0.8,2.2-0.5,2.2,0.8l0,5.2c0,0.6,0.6,1.2,1.2,1.1
	c0.6,0,1.1-0.5,1.1-1.1L59.7,20.2z"/>
<path class="st1" d="M25.6,26.7c0.2-0.2,0.3-0.5,0.3-0.8l-2.7-7c0,0-0.5-1.4,0.6-1.8c1.1-0.4,1.6,0.7,1.6,0.9l1.7,4.5l1.6-4.5
	c0,0,0.4-1.4,1.7-0.9c1,0.4,0.5,1.8,0.5,1.8s-1.6,4.7-2.9,8.1c-0.8,2-1.5,2.2-2.2,2.4c-1,0.2-3,0.1-3-1.2c0-1,1-1.1,1.5-1.1
	C24.2,27.3,25.2,27.4,25.6,26.7z"/>
<path class="st1" d="M19.3,15l-2.4,6.8L14.2,15c0,0-0.4-1.3-1.5-1.3c-1.3,0-1.2,1-1.3,1.3s0,10.5,0,10.5s0,1.1,1.2,1.1
	c1.2,0,1.2-1.1,1.2-1.1v-5.4l2,5.4c0,0,0.3,1.1,1.2,1.1c0.9,0,1.2-1.1,1.2-1.1l1.6-5.4v5.4c0,0,0,1.1,1.2,1.1c1.2,0,1.2-1.1,1.2-1.1
	V15c0,0,0-1.3-1.2-1.3C19.8,13.7,19.4,14.7,19.3,15C19.3,15,19.3,15,19.3,15"/>
<path class="st1" d="M68.4,30.7H47.7H32.5l0,0c-5.9,6.9-16.2,7.7-23.1,1.8S1.7,16.4,7.6,9.5s16.2-7.7,23.1-1.8
	c0.7,0.6,1.3,1.2,1.9,1.9h3.3C30,0.8,18.2-1.5,9.5,4.3S-1.6,22,4.2,30.7s17.6,11.1,26.4,5.2c1.2-0.8,2.4-1.8,3.4-2.9l32.8,0
	L68.4,30.7z"/>
<path class="st0" d="M40.8,19.7c0.1-0.1,0.9-0.7,0.8-2.4c-0.1-3.4-3.1-3.4-3.8-3.4c-1.1,0-1.7,0-3.7,0c-1.7,0-1.6,1.5-1.6,1.5v11.2
	h5.6c3,0,4.1-1.6,4.1-3.9S40.8,19.7,40.8,19.7z M34.9,16.2H38c0.6,0,1.3,0.3,1.3,1.3c0,1-0.6,1.3-1.3,1.3h-3.1V16.2z M38.2,24.3
	h-3.3v-3.2h3.3c0.8,0,1.6,0.4,1.6,1.6C39.8,23.9,39.1,24.3,38.2,24.3z"/>
</svg>
