<?xml version="1.0" encoding="UTF-8"?>
<svg id="Layer_2" data-name="Layer 2" xmlns="http://www.w3.org/2000/svg" viewBox="0 0 40 40">
  <defs>
    <style>
      .cls-1 {
        fill: #fabd00;
      }

      .cls-2 {
        fill: #00abee;
      }

      .cls-3 {
        fill: #006693;
      }
    </style>
  </defs>
  <g id="Layer_1-2" data-name="Layer 1-2">
    <g>
      <path class="cls-1" d="m34.45697,0c-.00485,0-.00971.94424-.01335.94424h-.00482v9.2594c-1.72002-1.0303-3.68001-1.55515-5.84973-1.55515-1.51755,0-2.92969.25455-4.22786.75758-1.4291.55394-2.72242,1.40849-3.87151,2.55758-.16243.16363-.32244.33091-.46789.5006.00364.00364.00607.00607.00849.0097,1.84484,2.08849,2.75394,4.62303,2.75394,7.54304,0-1.69697.53335-3.10182,1.57697-4.20849.01574-.01818.03273-.03515.04972-.05333,1.11515-1.12,2.49817-1.68485,4.17815-1.68485,1.67152,0,3.04972.56485,4.16971,1.68485,1.12,1.11515,1.68001,2.53818,1.68001,4.26182,0,1.72485-.56001,3.14303-1.68001,4.26303-1.12,1.11515-2.49819,1.68-4.16971,1.68-1.67998,0-3.063-.56485-4.17815-1.68-.01699-.01697-.03273-.03516-.04972-.05212-1.04362-1.11152-1.57697-2.51273-1.57697-4.21091,0,2.92-.90909,5.39394-2.75394,7.48364-.01699.01939-.03394.03999-.05211.05939.15758.18788.33333.37212.51151.5503,1.14909,1.1503,2.44241,1.99273,3.87151,2.53334,1.29818.49455,2.71032.73818,4.22786.73818,3.17821,0,5.89456-1.07515,8.08973-3.27151,2.14302-2.14182,3.25938-4.77333,3.31271-7.86666.00849-.07515.00849-.15031.00849-.22667v-11.38061c0-3.85334-2.27151-7.06303-5.54303-8.63636Z"/>
      <path class="cls-2" d="m17.23029,20.01212c0,1.72485-.56605,3.14182-1.64122,4.25697-1.11515,1.12-2.49817,1.68485-4.17815,1.68485-.08851,0-.177-.00121-.26426-.00485-1.55273-.05697-2.84484-.61939-3.90545-1.68-1.12-1.11515-1.68001-2.53818-1.68001-4.26181,0-1.72485.56001-3.14303,1.68001-4.26303,1.06061-1.05576,2.35272-1.61819,3.90545-1.67515.08727-.00364.17575-.00485.26426-.00485,1.67998,0,3.063.56485,4.17815,1.68001,1.07517,1.12,1.64122,2.54303,1.64122,4.26787,0-2.92.89456-5.39879,2.73941-7.48848.01699-.0194.03394-.04.05211-.0594-.15758-.18788-.33333-.37211-.51151-.5503-2.19513-2.19636-4.91273-3.27151-8.09937-3.27151-.08851,0-.17578.00121-.26426.00363-3.06425.05697-5.6909,1.13212-7.82664,3.26788C1.17818,14.05575.06182,16.68727.00849,19.78061c-.00849.07515-.00849.1503-.00849.22667v11.38061c0,3.85333,2.27151,7.03878,5.54303,8.61212.00485,0,.00971-.92.01335-.92h.00482v-9.2594c1.64971.98788,3.52,1.51152,5.58546,1.55273.08727.00121.17575.00243.26426.00243,3.18664,0,5.90424-1.12,8.09937-3.31515.16243-.16364.32244-.33091.46789-.50061-.00364-.00364-.00607-.00606-.00849-.0097-1.84484-2.08848-2.73941-4.61818-2.73941-7.53818Z"/>
      <path class="cls-3" d="m22.78424,20.01697c0,2.92-.90909,5.39394-2.75394,7.48364-.01699.01939-.03394.03999-.05211.05939-.00364-.00364-.00607-.00606-.00849-.0097-1.84484-2.08848-2.73941-4.61818-2.73941-7.53818s.89456-5.39879,2.73941-7.48848c.01699-.0194.03394-.04.05211-.0594.00364.00364.00607.00607.00849.0097,1.84484,2.08849,2.75394,4.62303,2.75394,7.54304Z"/>
    </g>
  </g>
</svg>