<?xml version="1.0" encoding="UTF-8"?>
<svg id="Layer_2" data-name="Layer 2" xmlns="http://www.w3.org/2000/svg" viewBox="0 0 70 40">
  <defs>
    <style>
      .cls-1 {
        fill: #fabd00;
      }

      .cls-2 {
        fill: #00abee;
      }

      .cls-3 {
        fill: #006693;
      }
    </style>
  </defs>
  <g id="Layer_1-2" data-name="Layer 1-2">
    <g>
      <path d="m29.68947,15.93859c0,.59375-.21134,1.0868-.63403,1.46921-.42262.38241-.94589.57361-1.55977.57361h-2.9887v-7.04413h2.77742c.60376,0,1.10694.19114,1.5195.56348.41262.37234.6239.84531.6239,1.41892,0,.58368-.22135,1.05665-.66412,1.40885.61383.3522.92581.8956.92581,1.61006Zm-3.7938-3.70323v1.54977h1.38871c.43269,0,.75468-.33212.75468-.77488s-.31192-.77488-.75468-.77488c0,0-1.38871,0-1.38871,0Zm1.59999,4.4479c.47297,0,.81516-.3522.81516-.83524,0-.47297-.34219-.82517-.81516-.82517h-1.59999v1.66041h1.59999Z"/>
      <path d="m31.30147,15.999c.17106.63397.64404.94589,1.41886.94589.49311,0,.87552-.17106,1.12708-.50312l1.04658.60376c-.49311.71446-1.22772,1.07673-2.1938,1.07673-.83524,0-1.49936-.25156-2.00254-.75468-.50312-.50318-.75474-1.13715-.75474-1.90196,0-.75468.25162-1.38871.74467-1.89183.49311-.51325,1.13715-.76481,1.91203-.76481.7346,0,1.34843.25156,1.82141.76481.48298.51319.72453,1.13715.72453,1.89183,0,.17106-.02014.34219-.05035.53339h-3.79374Zm2.54594-1.00637c-.15092-.68425-.65411-1.01631-1.2478-1.01631-.69439,0-1.16736.37228-1.31828,1.01631h2.56608Z"/>
      <path d="m38.47426,14.19768h-1.13709v2.09311c0,.5434.39242.55347,1.13709.51325v1.17737c-1.78113.20127-2.43523-.31198-2.43523-1.69062v-2.09311h-.87552v-1.2478h.87552v-1.01637l1.29814-.39248v1.40885h1.13709s0,1.2478,0,1.2478Z"/>
      <path d="m42.77312,12.94988h1.29814v5.03152h-1.29814v-.59375c-.39248.49311-.93588.7346-1.64027.7346-.67425,0-1.24786-.25156-1.73084-.76475-.47297-.51325-.71453-1.14722-.71453-1.89189s.24155-1.36857.71453-1.88176c.48298-.51325,1.05659-.77488,1.73084-.77488.70439,0,1.2478.24155,1.64027.7346,0,0,0-.59369,0-.59369Zm-1.39878,3.93465c.40255,0,.7346-.13085.99623-.39248.2717-.2717.40255-.61383.40255-1.02644,0-.41256-.13085-.75468-.40255-1.01637-.26163-.2717-.59369-.40249-.99623-.40249-.40249,0-.7346.13078-.99623.40249-.26163.26169-.39248.60382-.39248,1.01637,0,.41262.13085.75474.39248,1.02644.26163.26163.59375.39248.99623.39248Z"/>
      <path d="m48.66688,12.94988h1.29814v5.03152h-1.29814v-.59375c-.39248.49311-.93588.7346-1.64027.7346-.67425,0-1.24786-.25156-1.73084-.76475-.47297-.51325-.71453-1.14722-.71453-1.89189s.24155-1.36857.71453-1.88176c.48298-.51325,1.05659-.77488,1.73084-.77488.70439,0,1.2478.24155,1.64027.7346,0,0,0-.59369,0-.59369Zm-1.39878,3.93465c.40255,0,.7346-.13085.99623-.39248.2717-.2717.40255-.61383.40255-1.02644,0-.41256-.13085-.75468-.40255-1.01637-.26163-.2717-.59369-.40249-.99623-.40249-.40249,0-.7346.13078-.99623.40249-.26163.26169-.39248.60382-.39248,1.01637,0,.41262.13085.75474.39248,1.02644.26163.26163.59375.39248.99623.39248Z"/>
      <path d="m50.73475,17.9814v-7.34604h1.29808v7.34604h-1.29808Z"/>
      <path d="m59.32841,13.36244c.36227.37234.5434.87552.5434,1.52963v3.08934h-1.29808v-2.92835c0-.67425-.39248-1.03651-.9963-1.03651-.67419,0-1.10694.41262-1.10694,1.24786v2.717h-1.29808v-5.03152h1.29808v.56354c.31198-.47297.81516-.70446,1.49942-.70446.55347,0,1.0063.18113,1.3585.55347h0Z"/>
      <path d="m64.39311,12.94988h1.29814v5.03152h-1.29814v-.59375c-.39248.49311-.93588.7346-1.64027.7346-.67425,0-1.24786-.25156-1.73084-.76475-.47297-.51325-.71453-1.14722-.71453-1.89189s.24155-1.36857.71453-1.88176c.48298-.51325,1.05659-.77488,1.73084-.77488.70439,0,1.2478.24155,1.64027.7346,0,0,0-.59369,0-.59369Zm-1.39878,3.93465c.40255,0,.7346-.13085.99623-.39248.2717-.2717.40255-.61383.40255-1.02644,0-.41256-.13085-.75468-.40255-1.01637-.26163-.2717-.59369-.40249-.99623-.40249-.40249,0-.7346.13078-.99623.40249-.26163.26169-.39248.60382-.39248,1.01637,0,.41262.13085.75474.39248,1.02644.26163.26163.59375.39248.99623.39248Z"/>
      <path d="m27.83785,27.71312c-1.01637,0-1.88182-.3522-2.59629-1.05659-.70439-.71446-1.05665-1.57991-1.05665-2.60636s.35226-1.89183,1.05665-2.59623c.71446-.71453,1.57991-1.06672,2.59629-1.06672s1.88176.3522,2.59623,1.06672c.71453.70439,1.06672,1.56978,1.06672,2.59623s-.3522,1.89189-1.06672,2.60636c-.71446.70439-1.57985,1.05659-2.59623,1.05659Zm0-1.3585c.64404,0,1.18744-.21128,1.62013-.64404.43269-.43269.65411-.98616.65411-1.66041,0-.67419-.22141-1.22766-.65411-1.66041-.43269-.43269-.9761-.65411-1.62013-.65411s-1.18744.22141-1.62019.65411c-.43269.43276-.65411.98623-.65411,1.66041,0,.67425.22141,1.22772.65411,1.66041.43276.43276.97616.64404,1.62019.64404Z"/>
      <path d="m36.2232,22.9533c.36227.37234.5434.87552.5434,1.52963v3.08934h-1.29808v-2.92835c0-.67425-.39248-1.03651-.9963-1.03651-.67419,0-1.10694.41262-1.10694,1.24786v2.717h-1.29808v-5.03152h1.29808v.56354c.31198-.47297.81516-.70446,1.49942-.70446.55347,0,1.0063.18113,1.3585.55347h0Z"/>
      <path d="m40.2745,23.78854h-1.13709v2.09311c0,.5434.39242.55347,1.13709.51325v1.17737c-1.78113.20127-2.43523-.31198-2.43523-1.69062v-2.09311h-.87552v-1.2478h.87552v-1.01637l1.29814-.39248v1.40885h1.13709v1.2478h0Z"/>
      <path d="m44.25337,22.54074h1.42893l-1.91197,5.03152h-1.47928l-1.91197-5.03152h1.42893l1.21765,3.52204,1.22772-3.52204h0Z"/>
      <path d="m49.48696,22.54074h1.29814v5.03152h-1.29814v-.59375c-.39248.49311-.93588.7346-1.64027.7346-.67425,0-1.24786-.25156-1.73084-.76475-.47297-.51325-.71453-1.14722-.71453-1.89189s.24155-1.36857.71453-1.88176c.48298-.51325,1.05659-.77488,1.73084-.77488.70439,0,1.2478.24155,1.64027.7346v-.59369h0Zm-1.39878,3.93465c.40255,0,.7346-.13085.99623-.39248.2717-.2717.40255-.61383.40255-1.02644,0-.41256-.13085-.75468-.40255-1.01637-.26163-.2717-.59369-.40249-.99623-.40249-.40249,0-.7346.13078-.99623.40249-.26163.26169-.39248.60382-.39248,1.01637,0,.41262.13085.75474.39248,1.02644.26163.26163.59375.39248.99623.39248Z"/>
      <path d="m55.71083,22.9533c.36227.37234.5434.87552.5434,1.52963v3.08934h-1.29808v-2.92835c0-.67425-.39248-1.03651-.9963-1.03651-.67419,0-1.10694.41262-1.10694,1.24786v2.717h-1.29808v-5.03152h1.29808v.56354c.31198-.47297.81516-.70446,1.49942-.70446.55347,0,1.0063.18113,1.3585.55347h0Z"/>
      <path d="m60.80568,22.54074h1.26794v4.79003c0,.77482-.26163,1.36857-.77488,1.78113-.51319.41262-1.12702.61389-1.85161.61389-1.0868,0-1.94212-.42269-2.38495-1.22772l1.10694-.63397c.25162.47297.69439.70439,1.31828.70439.8151,0,1.31828-.44276,1.31828-1.23773v-.5434c-.38241.51319-.91574.76475-1.61012.76475-.71446,0-1.30821-.25156-1.7912-.74467-.47297-.50312-.71453-1.11701-.71453-1.83148s.24155-1.31822.72459-1.82141c.48298-.50318,1.07673-.75474,1.78113-.75474.69439,0,1.22772.25156,1.61012.76481v-.6239h0Zm-.40255,1.45914c-.26163-.26163-.59375-.39248-1.0063-.39248-.41262,0-.74467.13085-1.01637.39248-.26163.25156-.39248.58362-.39248.9761,0,.80503.59375,1.37864,1.40885,1.37864s1.40885-.57361,1.40885-1.37864c0-.39248-.13085-.72453-.40255-.9761h0Z"/>
      <path d="m64.94452,24.52314c.7346.15092,1.69056.50318,1.68049,1.57992,0,.51319-.1912.91574-.58362,1.19751-.38241.2717-.86545.41256-1.43906.41256-1.03645,0-1.74091-.40249-2.11325-1.19751l1.12708-.63397c.15092.43276.47297.65411.98616.65411.4629,0,.69439-.14085.69439-.43269,0-.2717-.40255-.42262-.91574-.55347-.74467-.1912-1.68055-.50318-1.68055-1.54971,0-.49311.18113-.88559.5434-1.1673.37234-.29184.82517-.43276,1.36857-.43276.8151,0,1.51956.38241,1.91197,1.06672l-1.10694.60376c-.16099-.34213-.43269-.51319-.80503-.51319-.33206,0-.58362.16099-.58362.41256,0,.2717.40249.42269.91574.55347h0Z"/>
      <path d="m70,23.78854h-1.13709v2.09311c0,.5434.39242.55347,1.13709.51325v1.17737c-1.78113.20127-2.43523-.31198-2.43523-1.69062v-2.09311h-.87552v-1.2478h.87552v-1.01637l1.29814-.39248v1.40885h1.13709v1.2478h0Z"/>
    </g>
    <g>
      <path class="cls-1" d="m17.65795,9.75073c-.00249,0-.00497.48389-.00684.48389h-.00247v4.7451c-.88145-.52799-1.88587-.79696-2.99777-.79696-.77769,0-1.50136.13045-2.16663.38823-.73236.28387-1.39514.7218-1.98401,1.31067-.08324.08386-.16524.16958-.23978.25654.00187.00187.00311.00311.00435.00497.94542,1.07028,1.41129,2.36914,1.41129,3.86553,0-.86964.27332-1.58957.80814-2.1567.00807-.00932.01677-.01801.02548-.02733.57147-.57396,1.28022-.86342,2.14115-.86342.85659,0,1.56287.28947,2.13683.86342.57396.57148.86095,1.30073.86095,2.18403,0,.88392-.28699,1.61069-.86095,2.18465-.57396.57148-1.28023.86094-2.13683.86094-.86093,0-1.56968-.28946-2.14115-.86094-.0087-.0087-.01677-.01802-.02548-.02671-.53482-.56961-.80814-1.28768-.80814-2.15794,0,1.49639-.46588,2.7642-1.41129,3.83509-.0087.00994-.01739.0205-.02671.03044.08075.09628.17082.1907.26213.28201.58887.58949,1.25165,1.0212,1.98401,1.29824.66527.25344,1.38894.37829,2.16663.37829,1.62872,0,3.02075-.55098,4.14569-1.67653,1.09822-1.0976,1.67031-2.44616,1.69764-4.03138.00435-.03851.00435-.07703.00435-.11616v-5.83215c0-1.9747-1.16407-3.61955-2.8406-4.42582Z"/>
      <path class="cls-2" d="m8.8299,20.00621c0,.88392-.29008,1.61007-.84106,2.18154-.57147.57396-1.28022.86343-2.14115.86343-.04536,0-.0907-.00062-.13543-.00249-.79572-.02919-1.45788-.31742-2.0014-.86094-.57396-.57148-.86095-1.30073-.86095-2.18403,0-.88392.28699-1.61069.86095-2.18465.54352-.54104,1.20568-.82926,2.0014-.85845.04472-.00187.09007-.00249.13543-.00249.86093,0,1.56968.28947,2.14115.86094.55098.57396.84106,1.30321.84106,2.18713,0-1.49639.45843-2.76668,1.40385-3.83757.0087-.00994.01739-.0205.02671-.03044-.08075-.09628-.17082-.1907-.26213-.28201-1.12493-1.12556-2.5176-1.67653-4.15063-1.67653-.04536,0-.09008.00062-.13543.00186-1.57031.0292-2.91638.58017-4.01087,1.67467C.60377,16.95379.03168,18.30235.00435,19.88757c-.00435.03851-.00435.07702-.00435.11616v5.83215c0,1.97469,1.16407,3.60712,2.8406,4.4134.00249,0,.00497-.47147.00684-.47147h.00247v-4.7451c.84542.50625,1.80387.7746,2.86235.79572.04472.00062.09007.00124.13543.00124,1.63304,0,3.02571-.57396,4.15063-1.69889.08324-.08386.16524-.16958.23978-.25654-.00187-.00187-.00311-.00311-.00435-.00497-.94542-1.07027-1.40385-2.36665-1.40385-3.86304Z"/>
      <path class="cls-3" d="m11.67609,20.0087c0,1.49639-.46588,2.7642-1.41129,3.83509-.0087.00994-.01739.0205-.02671.03044-.00187-.00187-.00311-.00311-.00435-.00497-.94542-1.07027-1.40385-2.36665-1.40385-3.86304s.45843-2.76668,1.40385-3.83757c.0087-.00994.01739-.0205.02671-.03044.00187.00187.00311.00311.00435.00497.94542,1.07028,1.41129,2.36914,1.41129,3.86553Z"/>
    </g>
  </g>
</svg>