<?xml version="1.0" encoding="UTF-8"?>
<svg id="Layer_2" data-name="Layer 2" xmlns="http://www.w3.org/2000/svg" viewBox="0 0 70 40">
  <defs>
    <style>
      .cls-1 {
        fill: #fabd00;
      }

      .cls-2 {
        fill: #00abee;
      }

      .cls-3 {
        fill: #006693;
      }
    </style>
  </defs>
  <g id="Layer_1-2" data-name="Layer 1-2">
    <g>
      <path d="m29.44139,9.51709c.74364,0,1.37637.25529,1.88696.75478s.76592,1.12108.76592,1.85368-.25533,1.3542-.76592,1.85368c-.51059.49952-1.14332.75481-1.88696.75481h-1.36534v2.55297h-1.53176v-7.76993h2.8971,0Zm0,3.78506c.65487,0,1.13215-.51059,1.13215-1.1766,0-.67708-.47728-1.1766-1.13215-1.1766h-1.36534v2.3532h1.36534Z"/>
      <path d="m36.59068,11.73705h1.4319v5.54998h-1.4319v-.65491c-.43292.5439-1.03235.8103-1.8093.8103-.74371,0-1.37637-.2775-1.90924-.84358-.52169-.56611-.78806-1.2654-.78806-2.0868s.26636-1.50959.78806-2.07566c.53286-.56611,1.16553-.85471,1.90924-.85471.77695,0,1.37637.2664,1.8093.8103v-.65491h0Zm-1.54293,4.3401c.44403,0,.81033-.14432,1.0989-.43293.29968-.29968.44403-.67708.44403-1.13218s-.14435-.83247-.44403-1.12108c-.28857-.29971-.65487-.444-1.0989-.444-.44396,0-.81026.14429-1.0989.444-.28857.28861-.43286.66598-.43286,1.12108s.14429.83251.43286,1.13218c.28864.28861.65494.43293,1.0989.43293Z"/>
      <path d="m42.4911,11.73705h1.53177l-2.02014,5.54998c-.57721,1.59839-1.50962,2.29768-2.93041,2.21998v-1.33199c.76591.0111,1.18774-.31078,1.4541-1.06559l-2.27547-5.37238h1.56508l1.443,3.72957,1.23209-3.72957h0Z"/>
      <path d="m51.93681,17.28702l-.46624-1.39858h-3.09684l-.46617,1.39858h-1.65391l2.7195-7.76993h1.89807l2.73054,7.76993h-1.66495Zm-3.0747-2.83048h2.13118l-1.06559-3.17457-1.06559,3.17457h0Z"/>
      <path d="m56.68954,10.73808c-.78806-.05552-1.17657.25529-1.17657.94348v.05549h1.17657v1.37641h-1.17657v4.17357h-1.4319v-4.17357h-.79916v-1.37641h.79916v-.05549c0-1.56508.87689-2.41979,2.60846-2.31989v1.37641Z"/>
      <path d="m60.33346,13.11345h-1.25429v2.30878c0,.59939.43292.61049,1.25429.56611v1.29868c-1.96469.22202-2.68612-.34409-2.68612-1.86479v-2.30878h-.96572v-1.37641h.96572v-1.12108l1.43183-.43289v1.55397h1.25429v1.37641Z"/>
      <path d="m62.07818,15.10035c.1887.69929.7104,1.04338,1.56514,1.04338.5439,0,.96565-.1887,1.24319-.555l1.15436.66601c-.5439.78809-1.35416,1.18767-2.41976,1.18767-.92131,0-1.65391-.2775-2.20891-.83247-.555-.555-.83247-1.25429-.83247-2.09791,0-.83247.27747-1.5318.82137-2.08677.5439-.56611,1.25429-.84361,2.10898-.84361.81033,0,1.48741.2775,2.00911.84361.5328.56608.79923,1.25429.79923,2.08677,0,.1887-.02221.37741-.05552.58832h-4.18471,0Zm2.80834-1.11001c-.16649-.75478-.7215-1.12108-1.37644-1.12108-.76585,0-1.28754.41068-1.45403,1.12108h2.83047Z"/>
      <path d="m68.31278,12.69166c.26643-.71039.93241-1.06559,1.68722-1.06559v1.59839c-.43293-.05552-.83254.03328-1.17663.2664-.34409.23309-.51059.61049-.51059,1.14329v2.65288h-1.4319v-5.54998h1.4319v.95462h0Z"/>
      <path d="m29.61387,20.65045c1.05999,0,1.94331.37741,2.64997,1.12105.71771.74371,1.07103,1.66501,1.07103,2.76392s-.35333,2.02014-1.07103,2.76385c-.70666.74371-1.58998,1.12111-2.64997,1.12111h-3.06958v-7.76993h3.06958Zm0,6.30472c.67352,0,1.21456-.22195,1.6341-.66598.4196-.45507.6294-1.03228.6294-1.75378s-.2098-1.29871-.6294-1.74267c-.41954-.45513-.96058-.67708-1.6341-.67708h-1.54587v4.83952h1.54587Z"/>
      <path d="m35.1244,26.23368c.18771.69929.70666,1.04338,1.55691,1.04338.54104,0,.96058-.18864,1.23665-.55494l1.14829.66598c-.54104.78806-1.34705,1.18767-2.40703,1.18767-.91646,0-1.64521-.27747-2.1973-.83247s-.8281-1.25429-.8281-2.09787c0-.83254.27601-1.53183.81705-2.08684.54104-.56604,1.2477-.84358,2.09789-.84358.80607,0,1.47959.27754,1.99854.84358.52999.56611.79502,1.2543.79502,2.08684,0,.1887-.02209.37741-.05523.58825h-4.1627,0Zm2.79356-1.10994c-.16562-.75481-.7177-1.12111-1.3692-1.12111-.76182,0-1.28077.41072-1.44639,1.12111h2.81559Z"/>
      <path d="m39.89633,28.42038v-8.10292h1.42436v8.10292h-1.42436Z"/>
      <path d="m42.00848,21.32754c0-.47728.39751-.88799.87228-.88799.48588,0,.88332.41072.88332.88799s-.39745.87689-.88332.87689c-.47477,0-.87228-.39961-.87228-.87689Zm.16562,7.09285v-5.54998h1.42436v5.54998h-1.42436Z"/>
      <path d="m48.06466,22.8704h1.56789l-2.09789,5.54998h-1.62312l-2.09789-5.54998h1.56789l1.336,3.88496,1.34711-3.88496h0Z"/>
      <path d="m50.82594,26.23368c.18764.69929.70666,1.04338,1.55685,1.04338.54104,0,.96058-.18864,1.23665-.55494l1.14829.66598c-.54104.78806-1.34705,1.18767-2.40703,1.18767-.91646,0-1.64521-.27747-2.1973-.83247-.55209-.555-.8281-1.25429-.8281-2.09787,0-.83254.27601-1.53183.81705-2.08684.54104-.56604,1.2477-.84358,2.09789-.84358.80607,0,1.47959.27754,1.99854.84358.52999.56611.79502,1.2543.79502,2.08684,0,.1887-.02209.37741-.05523.58825h-4.16264,0Zm2.7935-1.10994c-.16562-.75481-.7177-1.12111-1.3692-1.12111-.76182,0-1.28077.41072-1.44639,1.12111h2.81559Z"/>
      <path d="m57.02768,23.82502c.26503-.7104.92751-1.06559,1.67835-1.06559v1.59839c-.43065-.05552-.82816.03331-1.17044.26636-.34228.23312-.5079.61053-.5079,1.14332v2.65288h-1.42436v-5.54998h1.42436v.95462Z"/>
      <path d="m62.93027,22.8704h1.52371l-2.00952,5.54998c-.57418,1.59839-1.50169,2.29768-2.915,2.22002v-1.33202c.76189.0111,1.18142-.31078,1.44646-1.06559l-2.2635-5.37238h1.55685l1.43541,3.72957,1.22561-3.72957h0Z"/>
    </g>
    <g>
      <path class="cls-1" d="m19.15197,8.88354c-.0027,0-.0054.52483-.00742.52483h-.00268v5.14658c-.95603-.57267-2.04544-.86439-3.25141-.86439-.84349,0-1.62839.14148-2.34994.42108-.79432.30789-1.51318.78287-2.15187,1.42156-.09029.09095-.17922.18393-.26006.27824.00202.00202.00337.00337.00472.00539,1.02541,1.16083,1.5307,2.56959,1.5307,4.19259,0-.94321.29645-1.72406.87652-2.33917.00875-.01011.01819-.01954.02763-.02964.61982-.62252,1.38854-.93648,2.32231-.93648.92907,0,1.6951.31396,2.31762.93648.62252.61983.93379,1.41078.93379,2.36882,0,.95871-.31127,1.74697-.93379,2.36949-.62252.61983-1.38855.93378-2.31762.93378-.93377,0-1.70249-.31395-2.32231-.93378-.00944-.00943-.01819-.01954-.02763-.02897-.58007-.61781-.87652-1.39663-.87652-2.34052,0,1.623-.50529,2.99808-1.5307,4.15958-.00944.01078-.01887.02223-.02897.03301.08759.10443.18527.20683.28431.30587.63869.63936,1.35755,1.1076,2.15187,1.40809.72156.27488,1.50646.4103,2.34994.4103,1.76652,0,3.27633-.59759,4.49645-1.81838,1.19114-1.19047,1.81164-2.65313,1.84128-4.37247.00472-.04177.00472-.08355.00472-.12599v-6.3256c0-2.14177-1.26256-3.9258-3.08094-4.80029Z"/>
      <path class="cls-2" d="m9.57699,20.00674c0,.95871-.31462,1.74629-.91223,2.36612-.61982.62252-1.38854.93648-2.32231.93648-.0492,0-.09838-.00067-.14688-.0027-.86305-.03166-1.58123-.34427-2.17074-.93378-.62252-.61983-.93379-1.41078-.93379-2.36881,0-.95871.31127-1.74697.93379-2.36949.58951-.58682,1.30769-.89942,2.17074-.93109.04851-.00202.09769-.0027.14688-.0027.93377,0,1.70249.31396,2.32231.93379.5976.62252.91223,1.41347.91223,2.37218,0-1.623.49722-3.00077,1.52262-4.16227.00944-.01078.01887-.02223.02897-.03302-.08759-.10443-.18527-.20683-.28431-.30587-1.22011-1.22079-2.73061-1.81838-4.50182-1.81838-.0492,0-.0977.00067-.14688.00202-1.70318.03167-3.16313.62926-4.35023,1.81636C.65486,16.69605.03436,18.15871.00472,19.87806c-.00472.04177-.00472.08354-.00472.12599v6.3256c0,2.14177,1.26256,3.91232,3.08094,4.78681.0027,0,.0054-.51136.00742-.51136h.00268v-5.14658c.91695.54909,1.9565.84014,3.10453.86304.04851.00067.09769.00135.14688.00135,1.77121,0,3.28171-.62252,4.50182-1.84264.09029-.09096.17922-.18393.26006-.27825-.00202-.00202-.00337-.00337-.00472-.00539-1.02541-1.16083-1.52262-2.56689-1.52262-4.18989Z"/>
      <path class="cls-3" d="m12.664,20.00943c0,1.623-.50529,2.99808-1.5307,4.15958-.00944.01078-.01887.02223-.02897.03301-.00202-.00202-.00337-.00337-.00472-.00539-1.02541-1.16083-1.52262-2.56689-1.52262-4.18989s.49722-3.00077,1.52262-4.16227c.00944-.01078.01887-.02223.02897-.03302.00202.00202.00337.00337.00472.00539,1.02541,1.16083,1.5307,2.56959,1.5307,4.19259Z"/>
    </g>
  </g>
</svg>