<?xml version="1.0" encoding="UTF-8"?>
<svg id="Layer_1" data-name="Layer 1" xmlns="http://www.w3.org/2000/svg" viewBox="0 0 70 40">
  <defs>
    <style>
      .cls-1 {
        fill: #e00d1d;
      }
    </style>
  </defs>
  <path class="cls-1" d="M23.7905,13.08952l1.51855-.51332c.95391-4.39311,4.94493-7.71682,9.67169-7.71682,4.76954,0,8.71779,3.32371,9.67169,7.71682,1.47578,.25665,2.64357,.85124,3.59748,1.70677,.04278-.85124,0-1.66399-.08555-2.42969-.60742-6.6517-6.2881-11.85328-13.18362-11.85328-7.1094,0-12.92268,5.54379-13.22639,12.49492l-.04278,1.87787c.60742-.51332,1.3004-.9368,2.0832-1.27901l-.00428-.00427Zm18.90707,.98385h-15.82718c-.77853,0-1.56133,.17111-2.38691,.51332-.77853,.34221-1.433,.72292-1.95059,1.23623-.99668,1.15068-1.47578,2.85745-1.51855,5.11603v12.19549c.04278,2.25858,.52187,3.92257,1.51855,5.11603,.52187,.51332,1.17207,.89402,1.95059,1.23623,.82558,.34221,1.60411,.51332,2.38691,.51332h15.86996c4.07657-.04278,6.20254-2.26286,6.24532-6.60892v-12.7088c-.08555-4.39311-2.16875-6.56614-6.2881-6.60891Z"/>
</svg>