<?xml version="1.0" encoding="UTF-8"?>
<svg id="Layer_1" data-name="Layer 1" xmlns="http://www.w3.org/2000/svg" viewBox="0 0 70 40">
  <defs>
    <style>
      .cls-1 {
        fill: #3200ff;
      }
    </style>
  </defs>
  <path class="cls-1" d="m12.81614,17.39726h-2.33514c-.76028,0-1.35764.60274-1.35764,1.36986v7.23288h1.52056v-2.35617h2.00931c.81458,0,1.46625-.65753,1.46625-1.47945v-3.39726c.05431-.76712-.54306-1.36986-1.30334-1.36986Zm-.16292,4.27397c0,.21918-.16292.38356-.38014.38356h-1.14042c-.21722,0-.38014-.16438-.38014-.38356v-2.30137c0-.21918.16292-.38356.38014-.38356h1.14042c.21722,0,.38014.16438.38014.38356v2.30137Zm6.51668-4.27397h-3.69278v1.58904h3.14973c.16292,0,.27153.10959.27153.27397v.21918h-2.22653c-.70597,0-1.30334.60274-1.30334,1.31507v1.58904c0,.71233.59736,1.31507,1.30334,1.31507h2.49806c.70597,0,1.30334-.60274,1.30334-1.31507v-3.67123c-.05431-.71233-.59736-1.31507-1.30334-1.31507Zm-.27153,3.89041v.49315c0,.16438-.16292.32877-.32583.32877h-1.30334c-.16292,0-.32583-.16438-.32583-.32877v-.49315c0-.16438.16292-.32877.32583-.32877h1.30334c.16292-.05479.32583.10959.32583.32877Zm18.46393-3.89041h-3.69279v1.58904h3.14973c.16292,0,.27153.10959.27153.27397v.21918h-2.22653c-.70597,0-1.30334.60274-1.30334,1.31507v1.58904c0,.71233.59736,1.31507,1.30334,1.31507h2.49806c.70598,0,1.30334-.60274,1.30334-1.31507v-3.67123c0-.71233-.59737-1.31507-1.30334-1.31507Zm-.21722,3.89041v.49315c0,.16438-.16292.32877-.32583.32877h-1.30334c-.16292,0-.32583-.16438-.32583-.32877v-.49315c0-.16438.16292-.32877.32583-.32877h1.30334c.16291-.05479.32583.10959.32583.32877Zm-4.61598-3.89041v1.58904h-2.8782c-.16292,0-.27153.10959-.27153.27397v.21918c0,.16438.10861.27397.27153.27397h1.57487c.76028,0,1.35764.60274,1.35764,1.36986v1.0411c0,.82192-.65167,1.47945-1.46625,1.47945h-3.20404v-1.58904h2.8239c.16292,0,.27153-.10959.27153-.27397v-.21918c0-.16438-.10861-.27397-.27153-.27397h-1.41195c-.81458,0-1.46625-.65753-1.46625-1.47945v-1.0411c0-.76712.59736-1.36986,1.35764-1.36986h3.31265Zm15.91156,2.79452v-1.47945c0-.71233-.59736-1.31507-1.30334-1.31507h-2.38945c-.76028,0-1.35764.60274-1.35764,1.36986v3.50685c0,.76712.59736,1.36986,1.35764,1.36986h3.63848v-1.58904h-3.14973c-.16292,0-.27153-.10959-.27153-.27397v-.27397s3.47557-1.31507,3.47557-1.31507Zm-3.47556-.16438v-.76712c0-.16438.10861-.27397.27153-.27397h1.41195c.16292,0,.27153.10959.27153.27397l-1.955.76712Zm-18.30101,4.43836v-7.06849h-1.52056v4.27397c0,.21918-.16292.43836-.43444.43836h-1.14042c-.21722,0-.43444-.16438-.43444-.43836v-4.27397h-1.52056v4.71233c0,.76712.54306,1.53425,1.52056,1.53425h1.955v.32877c0,.38356-.27153.43836-.54306.43836h-2.93251v1.58904h3.42126c.9775,0,1.62917-.71233,1.62917-1.53425Zm15.85726-7.89041v-1.53425h-1.14042c-.81458,0-1.52056.65753-1.52056,1.53425v7.12329h1.52056v-4.76712h1.08611v-1.53425h-1.08611v-.38356c0-.27397.21722-.43836.43445-.43836,0,0,.70597,0,.70597,0Zm11.24127,1.47945v-.65753h-2.33515c-.76028,0-1.41195.65753-1.41195,1.42466v3.45205c0,.76712.65167,1.42466,1.41195,1.42466h2.33515v-.65753h-2.28084c-.43445,0-.81458-.38356-.81458-.82192v-3.34246c0-.43836.38014-.82192.81458-.82192,0,0,2.28084,0,2.28084,0Zm10.15516-.65753h-.59736c-.76028,0-1.14042.49315-1.14042,1.15068v5.09589h.65167v-4.93151c0-.38356.10861-.71233.59736-.71233h.48875v-.60274Zm-8.47168,0v.65753h3.47556c.38014,0,.65167.27397.65167.65753v.76712h-2.76959c-.76028,0-1.41195.65753-1.41195,1.42466v1.31507c0,.76712.65167,1.42466,1.41195,1.42466h2.00931c.76028,0,1.41195-.65753,1.41195-1.42466v-3.50685c0-.71233-.59736-1.31507-1.30334-1.31507,0,0-3.47556,0-3.47556,0Zm3.36695,5.58904h-1.955c-.43445,0-.81458-.38356-.81458-.82192v-1.26027c0-.43836.38014-.82192.81458-.82192h2.71528v2.13699c0,.43836-.32584.76712-.76028.76712Zm10.5353-7.94521v2.35616h-2.71528c-.76028,0-1.41195.65753-1.41195,1.42466v3.45205c0,.76712.65167,1.42466,1.41195,1.42466h1.955c.76028,0,1.41195-.65753,1.41195-1.42466v-7.23288h-.65167Zm-.76028,7.94521h-1.84639c-.43445,0-.81458-.38356-.81458-.82192v-3.28767c0-.43836.38014-.82192.81458-.82192h2.66098v4.16438c-.05431.43836-.38014.76712-.81458.76712Z"/>
  <path class="cls-1" d="m5.21334,23.64384H1.35764c-.76028,0-1.35764-.60274-1.35764-1.36986v-3.50685c0-.76712.59736-1.36986,1.35764-1.36986h3.8557c.76028,0,1.35764.60274,1.35764,1.36986v3.50685c0,.76712-.59736,1.36986-1.35764,1.36986Z"/>
  <path class="cls-1" d="m1.03181,17.0137c.16292-1.0411,1.14042-1.86301,2.28084-1.86301s2.11792.82192,2.28084,1.86301c.32583.05479.65167.21918.9232.49315v-.32877c-.05431-1.75342-1.46625-3.17808-3.20403-3.17808S.10861,15.42466.10861,17.17808v.32877c.27153-.21918.54306-.43836.9232-.49315Z"/>
</svg>