<svg width="70" height="40" viewBox="0 0 70 40" xmlns="http://www.w3.org/2000/svg"><title>postepay</title><desc>Created with Sketch.</desc><g fill="none"><path fill="#F3DF2E" d="M1 29.989h68v-19.935h-68z"/><path d="M4.886 26.137l1.902-8.302.165-.959.083-.959h1.323l-.11 1.123c.413-.411.827-.74 1.24-.931.083-.055.193-.082.276-.11v.767c-.193.055-.386.164-.579.274-.358.247-.662.603-.882 1.041-.248.438-.441.959-.579 1.534-.138.603-.165 1.069-.138 1.452.028.438.193.767.469 1.041.276.247.634.384 1.075.384.221 0 .441-.027.634-.082v1.096h-.248c-.524 0-.937-.11-1.323-.301-.358-.192-.689-.493-.965-.877l-.882 3.808h-1.461zm4.879-10.137c.331-.137.717-.192 1.075-.192.717 0 1.323.219 1.764.658.469.438.717 1.069.799 1.836.055.548 0 1.151-.165 1.781-.138.63-.358 1.178-.662 1.644-.331.575-.772 1.014-1.323 1.315-.441.274-.937.411-1.488.466v-1.096c.193-.055.386-.137.551-.219.358-.219.662-.548.91-.986.248-.438.441-.904.579-1.425.138-.521.165-1.014.138-1.479-.055-.493-.22-.877-.496-1.178-.303-.301-.689-.438-1.13-.438-.193 0-.386.027-.551.082v-.767z" fill="#184C8C"/><path d="M44.661 17.15c-.441.137-.827.493-1.13 1.014-.441.74-.606 1.562-.524 2.466.055.466.165.822.414 1.069.22.247.524.384.91.384.11 0 .221-.027.331-.055v1.425c-.414-.027-.772-.137-1.075-.301-.386-.192-.689-.521-.91-.931l-.882 3.918h-2.288l1.764-7.946c.221-1.014.358-1.781.414-2.274h2.067l-.055.904c.331-.301.634-.548.965-.74v1.069zm.469-.055c-.165 0-.303.027-.469.055v-1.069l.193-.082c.386-.192.827-.274 1.296-.274.717 0 1.296.219 1.709.63.413.411.662 1.014.717 1.808.138 1.479-.138 2.74-.855 3.754-.689 1.041-1.626 1.562-2.784 1.562l-.276-.027v-1.425c.165-.027.331-.109.469-.219.248-.192.441-.466.634-.849.193-.411.358-.877.469-1.37.11-.493.138-.904.11-1.26-.028-.411-.165-.712-.358-.904-.22-.219-.496-.329-.854-.329z" fill="#184C8C"/><path d="M52.351 15.862v1.534c-.11.137-.165.329-.22.548h-2.177c.055-.685.386-1.206.937-1.589.413-.246.882-.411 1.461-.493zm0 4.028c-.303.082-.551.192-.772.356-.469.301-.662.685-.606 1.123 0 .246.083.438.248.575.138.137.331.192.579.192.193 0 .386-.027.551-.11v1.151l-.055.027c-.358.192-.744.301-1.213.301-.662 0-1.185-.192-1.599-.548-.413-.356-.634-.822-.689-1.425-.083-.931.276-1.644 1.048-2.137.606-.384 1.433-.63 2.508-.712v1.206zm1.378-.082l-.165-.027h-.248c-.358 0-.689.027-.965.11v-1.206c.303-.027.662-.027 1.02-.027h.634c.055-.274.11-.466.11-.63.028-.137.028-.246.028-.356-.028-.219-.11-.384-.276-.493-.138-.11-.358-.164-.634-.164-.331 0-.579.082-.744.219-.055.055-.11.082-.138.164v-1.534c.276-.055.579-.055.882-.055.965 0 1.681.137 2.205.466.496.329.772.795.827 1.425.028.192.028.384 0 .603-.028.192-.083.438-.138.685l-.579 2.521c-.083.301-.11.603-.165.932-.028.329-.028.63-.028.959h-2.095v-.521l.028-.548c-.276.384-.606.685-.937.849v-1.151c.221-.109.441-.274.662-.521.358-.438.606-1.014.717-1.699z" fill="#184C8C"/><path fill="#184C8C" d="M56.651 26.109l1.819-2.74-1.323-7.507h2.26l.634 5.151 2.922-5.151h2.15l-4.686 7.809-1.351 2.438h-2.426"/><path d="M17.18 16.712c-.193.055-.413.137-.606.246-.331.247-.634.575-.882 1.014-.248.411-.441.904-.579 1.507-.138.603-.165 1.123-.138 1.562.028.493.221.849.496 1.123.303.274.689.411 1.185.411.193 0 .358-.027.524-.055v.959l-.634.027c-.882 0-1.599-.219-2.122-.685-.551-.438-.854-1.069-.91-1.863-.055-.658 0-1.315.22-2.027.193-.712.469-1.315.855-1.836.358-.466.799-.795 1.35-1.041.358-.137.799-.247 1.24-.301v.959zm.551-.082c-.193 0-.358.027-.551.082v-.959c.221-.027.469-.027.717-.027.882 0 1.571.219 2.095.63.551.438.827 1.041.91 1.808.055.603 0 1.26-.193 1.945-.165.685-.413 1.288-.744 1.781-.386.575-.827.986-1.378 1.233-.386.192-.855.301-1.406.356v-.959c.221-.055.441-.137.606-.247.331-.192.606-.493.855-.904.276-.466.469-.986.606-1.562.138-.603.193-1.096.165-1.534-.055-.575-.221-.986-.496-1.233-.276-.274-.661-.411-1.185-.411z" fill="#184C8C"/><path d="M22.417 20.931c-.055.137-.083.247-.083.356-.028.109-.028.192 0 .274.028.301.138.521.358.658.221.164.524.219.965.219.579 0 1.02-.11 1.351-.329.331-.246.469-.548.441-.904 0-.219-.11-.411-.303-.575-.193-.164-.579-.384-1.185-.658-.772-.356-1.323-.685-1.626-.986-.331-.274-.496-.63-.524-1.014-.055-.658.193-1.178.717-1.616.551-.411 1.296-.63 2.233-.63.855 0 1.489.137 1.902.384.441.246.662.603.717 1.123v.274c0 .082 0 .219-.028.411h-1.351v-.41100000000000003c-.028-.274-.138-.493-.358-.63-.193-.137-.496-.219-.91-.219-.469 0-.827.109-1.075.301-.276.192-.386.466-.358.795.028.192.11.384.303.521.165.164.579.384 1.213.685.882.411 1.489.767 1.737 1.041.248.274.414.63.441 1.041.055.685-.221 1.288-.882 1.754-.634.466-1.488.712-2.536.712-.827 0-1.461-.164-1.957-.438-.469-.301-.717-.712-.772-1.26-.028-.11-.028-.247 0-.411l.083-.466h1.488" fill="#184C8C"/><path d="M31.486 23.397l-.744.082-.634.027c-.551 0-.965-.082-1.213-.274-.276-.164-.413-.466-.441-.877-.028-.137 0-.384.028-.685.028-.329.11-.658.165-1.014l.854-3.726h-1.378l.248-.959h1.351l.386-1.699 1.461-.356-.441 2.055h1.626l-.221.959h-1.626l-.827 3.891c-.083.301-.138.521-.138.658-.028.164-.055.274-.028.356 0 .219.083.356.22.438.138.11.386.164.717.164.11 0 .276-.027.441-.055.138 0 .303-.055.441-.082l-.248 1.096" fill="#184C8C"/><path d="M34.325 18.794h1.93v1.014h-2.177c-.083.219-.11.411-.138.63-.028.192-.028.384-.028.548.055.466.22.822.496 1.069.303.247.689.384 1.213.384.221 0 .441-.027.634-.11v1.123c-.248.027-.524.055-.799.055-.882 0-1.571-.219-2.095-.63-.496-.411-.799-1.014-.855-1.781-.055-.575 0-1.233.193-1.973.165-.712.441-1.342.744-1.863.331-.493.772-.904 1.295-1.151.441-.247.937-.356 1.516-.411v.904c-.441.055-.827.219-1.13.548-.386.356-.662.904-.799 1.644zm1.93 4.658v-1.123c.165-.055.331-.137.469-.219.331-.219.579-.548.717-.959h1.626c-.193.74-.606 1.315-1.24 1.726-.441.301-.965.493-1.571.575zm0-4.658h1.874c.028-.247.055-.438.055-.575.028-.137.028-.247 0-.356-.028-.411-.193-.712-.469-.932-.303-.219-.689-.356-1.185-.356l-.276.027v-.904h.303c.965 0 1.709.192 2.205.548.469.356.772.932.827 1.726.028.274.028.575 0 .877 0 .301-.055.63-.138.959h-3.197v-1.014z" fill="#184C8C"/></g></svg>