<?xml version="1.0" encoding="UTF-8"?>
<svg id="Layer_1" data-name="Layer 1" xmlns="http://www.w3.org/2000/svg" viewBox="0 0 70 40">
  <defs>
    <style>
      .cls-1 {
        fill: #0047bb;
      }
    </style>
  </defs>
  <g id="_0047bbff" data-name="#0047bbff">
    <path class="cls-1" d="m0,13h6.22106c1.12687.08758,2.35388.32379,3.15355,1.13991.86313.89972.95199,2.22408.74467,3.36531-.16783.97668-.90121,1.83659-1.88564,2.1909-1.57113.58919-3.30163.40076-4.95457.43791-.00141,1.31507.00141,2.63014-.00141,3.94654H0v-11.08057m3.27907,2.1564v2.78673c.93506-.05308,1.95334.16455,2.81788-.26408.90968-.43924.87724-1.85782-.03949-2.27583-.86314-.39678-1.85461-.20038-2.77839-.24682Z"/>
    <path class="cls-1" d="m30.07858,15.18028c1.03379-.36493,2.06476-.73649,3.09713-1.10275.00564.75773,0,1.51545.00282,2.27318h1.7982v1.85782h-1.7982c0,1.09744,0,2.19488-.00141,3.29365-.00141.32379.03526.73384.38362.89839.46965.05308.94494.01725,1.41599-.01194v1.75829c-1.05635.18313-2.14515.21365-3.20855.05972-.47388-.08095-.9675-.25081-1.27496-.61972-.37374-.43659-.4499-1.0218-.45131-1.56322.06488-1.27128.02116-2.54389.03385-3.81517h-1.6205c-.00141-.61972-.00141-1.2381-.00141-1.85782.54017,0,1.08033,0,1.6205-.00133,0-.38882,0-.77896.00423-1.1691Z"/>
    <path class="cls-1" d="m13.59438,16.27507c1.45407-.2946,3.06328-.20303,4.3735.50692,1.0084.53611,1.6755,1.54863,1.83487,2.6182.14104,1.04303.04936,2.16701-.5585,3.07469-.61632.96739-1.7573,1.5327-2.91097,1.72379-1.34265.21763-2.79532.11545-4.00681-.50559-.97314-.49365-1.68396-1.40531-1.88987-2.42844-.23976-1.15716-.12693-2.44701.59658-3.4436.57965-.82142,1.55703-1.32701,2.5612-1.54597m.86173,1.70389c-.96327.55469-.94494,1.80209-.8998,2.74028.05641.56796.20309,1.18768.67838,1.5818.55145.4472,1.49215.35564,1.92654-.1964.42734-.55735.4908-1.27526.48657-1.94009-.00141-.62635-.07757-1.29649-.47106-1.82332-.36528-.50957-1.15649-.63697-1.72063-.36227Z"/>
    <path class="cls-1" d="m22.2342,16.41308c1.1029-.349,2.3017-.36493,3.44126-.18047.74043.12474,1.48933.43526,1.94064,1.02446.34554.43526.45978.98332.5035,1.51412-.98443.00398-1.96885-.00133-2.95328.00265-.05218-.26142-.04372-.58654-.3131-.74711-.43721-.29194-1.30458-.29725-1.42587.31052-.1227.2999.1904.52682.46119.59981,1.08456.32114,2.24951.41668,3.2833.88512,1.21008.57991,1.35112,2.20152.70376,3.21005-.73056,1.01649-2.14373,1.23014-3.35382,1.27128-1.07469-.00398-2.23964-.03583-3.16483-.61706-.74043-.47109-1.02532-1.35223-.98583-2.15905.97596-.00398,1.95193.00133,2.92789-.00265-.08462.77498.88711,1.34028,1.59088.93422.48939-.17384.51619-.8599.0409-1.06957-1.20021-.58123-2.69518-.52152-3.77833-1.34692-.76723-.56664-.88711-1.6455-.48939-2.44303.30887-.58787.92237-.98597,1.57113-1.18635Z"/>
    <path class="cls-1" d="m38.45043,16.24588c1.471-.2654,3.19163-.17517,4.36645.79621,1.0761.94882,1.2806,2.4364,1.25944,3.75412-1.95756.00133-3.91373-.00133-5.86988.00133.05218.53611.0677,1.15981.52324,1.55128.81095.60379,2.28195.21896,2.4103-.82142.96891-.00133,1.93641-.00265,2.90391,0-.11142,1.11469-1.00558,2.02237-2.08027,2.42578-1.18611.44853-2.51607.41536-3.75436.20436-1.06623-.18445-2.08309-.81081-2.49773-1.78218-.44426-1.01915-.49786-2.16303-.354-3.24588.2454-1.4637,1.56831-2.61554,3.0929-2.8836m.16078,1.90692c-.22142.31052-.25386.69403-.32156,1.051.94917-.00265,1.89974.00663,2.85032-.00663-.06206-.45384-.18052-.93554-.54299-1.26597-.53452-.53346-1.58524-.39147-1.98578.22161Z"/>
    <path class="cls-1" d="m48.20442,16.30427c1.04789-.29858,2.28759-.28929,3.20573.33573.95904.64891,1.44561,1.75697,1.58242,2.83185.14245,1.25668-.03526,2.64076-.90827,3.65062-1.26649,1.45175-4.06181,1.67469-5.30151.07697.01269,1.2673.00282,2.53327.00564,3.80057h-1.58665c0-3.07602-.00141-6.15204.00141-9.22806,0-.47507-.04654-.94749-.07898-1.42123.54157-.00133,1.08174,0,1.62331,0,.00705.40209.02821.80417.03385,1.20626.26797-.58123.77287-1.06161,1.42304-1.2527m.22425.99791c-.94917.26408-1.42446,1.20493-1.56408,2.06085-.15796,1.03109-.10155,2.16967.48939,3.08.72351,1.06559,2.54004.98332,3.32702.02919.54581-.64626.69671-1.50218.6953-2.30635-.00987-.771-.13257-1.59109-.6262-2.23071-.51901-.66085-1.51049-.86654-2.32144-.63299Z"/>
    <path class="cls-1" d="m55.17579,16.75412c.85044-.63962,2.01963-.69536,3.06047-.59848.82365.07431,1.70793.36095,2.18181,1.04038.50914.71659.43157,1.61896.43862,2.44038.01551,1.48095-.03808,2.96322.04231,4.44417-.49785.00133-.9943.00133-1.49074-.00398-.0409-.37024-.07334-.74047-.09873-1.11071-.86455,1.60303-3.37356,1.72246-4.73596.64228-1.14239-.98332-.79403-2.93403.48234-3.67848,1.25098-.76834,2.80096-.61972,4.22118-.62768-.03949-.5746.02257-1.23943-.39772-1.71052-.88429-.73782-2.78263-.43526-2.85456.84929h-1.66703c.06487-.62502.26937-1.28588.818-1.68663m.92378,4.03943c-.70095.45119-.708,1.49555-.12129,2.03166.6671.53611,1.73755.50161,2.42863.02123.78416-.60114.85044-1.63355.86878-2.51336-1.06341.01858-2.2481-.14332-3.17612.46047Z"/>
    <path class="cls-1" d="m61.39685,16.35336c.58812-.00398,1.17624-.00133,1.76435-.00531.85185,2.00379,1.69242,4.01156,2.53722,6.01801.87865-1.99981,1.71922-4.01289,2.59223-6.01403.56978-.00265,1.13957-.00265,1.70935,0-1.61203,3.54711-3.20291,7.10218-4.81776,10.64796h-1.6219c.41464-.9873.81518-1.98123,1.23829-2.96455-1.12405-2.56512-2.27913-5.11697-3.40177-7.68209Z"/>
  </g>
</svg>