<?xml version="1.0" encoding="UTF-8"?>
<svg id="Layer_1" data-name="Layer 1" xmlns="http://www.w3.org/2000/svg" viewBox="0 0 70 40">
  <defs>
    <style>
      .cls-1, .cls-2 {
        fill-rule: evenodd;
      }

      .cls-1, .cls-2, .cls-3 {
        stroke-width: 0px;
      }

      .cls-1, .cls-3 {
        fill: #d13239;
      }

      .cls-2 {
        fill: #b3b2b1;
      }
    </style>
  </defs>
  <path class="cls-1" d="m14.66367,21.80258l5.77824-.00737-.21056,1.31524-4.83246,4.61448,4.05662-.00737-.23644,1.41872-5.97411.00366.25124-1.46672,4.63293-4.43717h-3.69819l.23273-1.43346Z"/>
  <path class="cls-1" d="m8.34227,19.55124c-.12565-.13302-.30667-.23644-.50614-.31775-.21061-.08125-.44335-.14039-.67242-.18102-.28816-.05171-.56894-.07388-.76847-.08131-.18473-.00737-.30295-.00737-.30295-.00737H1.68471l-1.68471,10.17478h1.57387l.62068-3.76841,3.05167.01474s1.18965.04805,2.032-.39901c.84235-.44701,1.06776-1.463,1.06776-1.463,0,0,.09234-.37689.16993-.83498.08497-.50614.16993-1.11205.21427-1.43351.01846-.14039.02954-.22902.02954-.22902,0,0,.02217-.10348.02217-.26604.00371-.22536-.02954-.56528-.2069-.8904-.0628-.11451-.13668-.21793-.23273-.3177Zm-1.21182,1.79555c0,.01846-.14039.83498-.32512,1.80292-.07017.36946-.35467.56894-.67979.63916-.5394.11451-1.11942.09234-1.11942.09234l-2.54925-.00737.56157-3.38049,2.30909.00737s.15519-.00371.37312,0c.24753.00371.57637.0148.84606.05171.23273.0296.41746.0776.4766.15148.07759.09605.10714.2217.11822.33255.0148.16251-.01109.29924-.01109.31033Z"/>
  <path class="cls-1" d="m28.27829,18.96431h1.51477l-1.69579,10.17478-1.51848-.00371,1.6995-10.17107Z"/>
  <path class="cls-1" d="m36.36178,21.80269l1.45192-.00366.51357,5.16496,2.23519-5.17238,1.79184.00371.52831,5.18713,2.23153-5.18342h1.50734l-3.19947,7.33364h-1.78813l-.51723-5.13542-2.25736,5.13542-1.75864.00742-.73888-7.3374Z"/>
  <path class="cls-3" d="m25.48075,21.86167c-.42484-.13673-1.16005-.16627-1.78447-.1589-.60219.00742-.87927.03697-1.10462.08502,0,0-1.07142.15514-1.68104.90886-.60957.75367-.79064,2.40141-.79064,2.40141,0,0-.36204,1.82144-.2549,2.43105.10714.60591.29558,1.17114.98274,1.43346.68716.26604,1.2709.25124,1.2709.25124,0,0,1.22661.09605,2.15022-.12193.92366-.21798,1.41134-.86823,1.41134-.86823,0,0,.21799-.28078.37312-.61328.15519-.3325.20324-.56528.21061-.59482l.09605-.39529-1.57019.00366s-.08497,1.03817-.93469,1.13422c-.84606.09611-1.3005.05914-1.46672.05177-.16256-.00743-1.07142.03325-.99754-.72784,0-.01108,0-.02588.00366-.04805.04068-.86452.13673-1.08988.13673-1.08988l4.93218-.01474.21061-1.21924c.24382-1.38175.07017-2.43466-1.19336-2.84847Zm-.32878,2.67482l-3.38049-.00366.13297-.53574s.11822-.42118.35101-.59848c.23645-.17736.53569-.21061.81647-.23644.28078-.02588,1.0308-.08131,1.64036.04429.20324.04068.39535.15519.44706.32512.11822.39901-.00737,1.00491-.00737,1.00491Z"/>
  <path class="cls-3" d="m21.4017,27.04854c0,.01103-.00366.02201-.00366.03299-.00366.05872.00366-.03665.00366-.03299Z"/>
  <path class="cls-3" d="m30.70573,27.05215c0,.01098-.00366.02196-.00366.03299,0,.05867.00366-.03665.00366-.03299Z"/>
  <path class="cls-3" d="m34.78782,21.86575c-.42484-.13668-1.16005-.16627-1.78442-.15885-.60225.00737-.87932.03692-1.10468.08497,0,0-1.07142.15514-1.68104.90886-.60957.75367-.79059,2.40146-.79059,2.40146,0,0-.36209,1.82138-.25496,2.431.10714.60591.29558,1.17114.98274,1.43346.68721.26604,1.27095.25124,1.27095.25124,0,0,1.22656.09605,2.15022-.12193.92361-.21799,1.41129-.86818,1.41129-.86818,0,0,.21799-.28078.37312-.61333.15519-.3325.20324-.56523.21061-.59482l.09605-.39529-1.57019.00371s-.08497,1.03817-.93469,1.13422c-.84607.09605-1.3005.05909-1.46672.05543-.16256-.00743-1.07142.02954-.99754-.72784,0-.01108,0-.02588.00371-.04805.04063-.86452.13668-1.08988.13668-1.08988l4.93217-.0148.21061-1.21919c.24382-1.38546.07017-2.44209-1.19336-2.85218Zm-.34358,2.67116l-3.38049-.00371.13302-.53569s.11822-.42118.35095-.59854c.23278-.17731.53574-.21056.81652-.23644.28079-.02588,1.03074-.08125,1.64037.04434.20319.04063.39529.15519.44706.32512.11822.39529-.00742,1.00491-.00742,1.00491Z"/>
  <path class="cls-1" d="m48.36526,21.80248l.97166,5.36449,2.7452-5.3682,1.54405.0148-3.95675,7.66618s-.71671,1.38912-1.16005,1.74013c-.44334.35095-.71676.50986-1.07879.54677-.36209.03697-.50986.0628-.85715,0l-.36946-.06651.22907-1.37066s.61328.11451.97537-.02954c.36575-.1441.65762-.76476.65762-.76476l.18473-.31038-1.4298-7.42603,1.54431.00371Z"/>
  <path class="cls-2" d="m54.18774,22.53079l1.59216.00371.09621-.61699s.16993-1.11576.55059-1.33004c.12183-.07017.31738-.13302.54274-.17365.41778-.07388.94588-.08126,1.3783-.06651.66144.02217.91242.0296,1.58483.10714.67242.07759.50249.72784.50249.72784l-.13281.97166s-.05908.43597-.21438.70567c-.13699.24016-.51346.40272-.7315.47289-.52497.16993-2.32052.62808-2.32052.62808l-1.41124.40643s-.86797.25119-1.35215.78693c-.48732.5394-.67974,1.14897-.74614,1.46672s-.43974,2.51597-.43974,2.51597l7.61829.00371.25464-1.52214-6.02561.00737.10719-.62065s.07006-.63916.32889-.84978c.08104-.06651.12183-.15514.60235-.32513.28811-.10342,1.27059-.36575,1.27059-.36575l2.27242-.6207s1.24131-.3177,1.72862-.99749c.48784-.67613.67608-1.97291.67608-1.97291,0,0,.13333-1.25981.0298-1.65516-.09987-.39529-.47268-.86818-.92758-1.07142-.45438-.20319-.92705-.32141-2.29751-.30295-1.37098.01851-2.05071.08131-2.74509.33992-.6949.2549-1.09751.72042-1.35215,1.37804-.27712.62442-.43974,1.9692-.43974,1.9692Z"/>
  <path class="cls-2" d="m68.52968,25.3597l1.06771-6.39894h-1.89176l-5.88914,6.32506-.26562,1.6034h5.1498l-.37647,2.24632,1.58118.00366.37281-2.24998,1.45934.00371.26248-1.53323h-1.47032Zm-1.57386.00366l-3.32862-.00366,4.05281-4.31895-.72419,4.32261Z"/>
  <path class="cls-2" d="m11.68197,19.804h4.85092s1.08617-.87927,1.85835-1.44455c.77218-.56528,2.1761-1.45563,2.1761-1.45563l-2.74138-1.28204s-2.31644,1.43351-3.29919,2.10959c-.9532.62437-2.84481,2.07262-2.84481,2.07262Z"/>
  <path class="cls-2" d="m22.10852,15.99831l-2.24998-1.51477s2.03566-1.15639,4.74378-2.23518c2.70442-1.07881,4.14896-1.52955,4.14896-1.52955l.45809,2.14653s-2.6046.87194-4.0972,1.57756c-1.54431.65762-3.00365,1.5554-3.00365,1.5554Z"/>
  <path class="cls-2" d="m30.87154,12.39558l-.39158-2.19826s2.77824-.73891,5.3201-1.21181c2.54556-.4729,5.91868-.69827,5.91868-.69827l-1.11576,3.39529s-2.96674-.4064-5.75241-.02587c-2.16868.25862-3.97903.73891-3.97903.73891Z"/>
  <path class="cls-2" d="m42.36919,11.97169l1.87686-3.77213s4.11199-.08128,7.65881.46921c3.54666.5468,6.79058,1.38915,6.72051,1.42609l-8.99272,4.70319s-2.10216-1.33009-4.71053-2.14656c-1.4778-.43596-2.55294-.67979-2.55294-.67979Z"/>
  <path class="cls-2" d="m51.24327,15.82084l1.97662,1.50002h16.24468s-.03294-.52465-.46536-1.27095c-.26981-.46552-.7613-.96057-1.27477-1.47414-.18824-.18473-.93438-.76847-1.49595-1.13422-1.43372-.93101-2.23529-1.28938-3.72444-1.96548l-11.26079,4.34477Z"/>
  <path class="cls-3" d="m12.73572,21.79469c-.60957,0-1.18593.24016-1.67733.50986l.08502-.50986h-1.61453l-1.29307,7.30409h1.61819l.71676-4.04554c.14776-.82018.76104-1.83618,1.95806-1.83618l.83498-.00366.25124-1.41872h-.87932Z"/>
</svg>