<svg id="Layer_1" data-name="Layer 1" xmlns="http://www.w3.org/2000/svg" xmlns:xlink="http://www.w3.org/1999/xlink" viewBox="0 0 70 40"><defs><style>.cls-1{fill:none;}.cls-2{clip-path:url(#clip-path);}.cls-3{fill:url(#linear-gradient);}</style><clipPath id="clip-path"><path class="cls-1" d="M45.42572,17.86027a6.59868,6.59868,0,0,0-8.48327,0,5.29291,5.29291,0,0,0-1.78017,4.23548,5.37,5.37,0,0,0,1.78017,4.25712,6.6709,6.6709,0,0,0,8.48327,0,5.31432,5.31432,0,0,0,1.80285-4.25718A5.24114,5.24114,0,0,0,45.42572,17.86027Zm-6.47794,6.5512a3.06257,3.06257,0,0,1-.93591-2.31572,2.97268,2.97268,0,0,1,.93591-2.29408,3.08884,3.08884,0,0,1,2.22455-.882,3.14392,3.14392,0,0,1,2.24817.882,2.92361,2.92361,0,0,1,.9576,2.29408,2.99228,2.99228,0,0,1-.95766,2.31572,3.2157,3.2157,0,0,1-2.24811.86025A3.16439,3.16439,0,0,1,38.94778,24.41147Zm12.49049,3.154V12.42907h-2.805V27.56545Zm9.05453-10.9408V22.664a2.31,2.31,0,1,1-4.61476,0V16.62465h-2.8101v6.50284c0,2.51914,1.60289,4.74649,5.11952,4.74649h.02159c3.49534,0,5.09543-2.27653,5.09543-4.74649V16.62465Zm-28.31661,0L29.37111,24.0361,26.566,16.62465H23.58285l4.476,10.94092H30.6867l4.47518-10.94092Zm-8.57888,5.16181a5.41671,5.41671,0,0,0-1.51375-3.92619,5.13773,5.13773,0,0,0-3.87294-1.54386,5.79916,5.79916,0,0,0-4.14168,1.63217,5.504,5.504,0,0,0-1.66922,4.14717,5.62026,5.62026,0,0,0,1.6474,4.1688A5.55457,5.55457,0,0,0,18.077,27.875,5.33478,5.33478,0,0,0,23.263,24.67654l-2.09184-1.19123a3.255,3.255,0,0,1-3.04951,2.00726,2.894,2.894,0,0,1-3.02774-2.735h8.5027v-.97114Zm-5.4774-3.35271a2.72316,2.72316,0,0,1,2.8941,2.29408H15.09223A3.21634,3.21634,0,0,1,18.11991,18.43375Zm-5.72013,9.13188L8.63616,21.03694c2.38083-.86025,3.56115-2.35989,3.56115-4.544.00256-2.66917-2.13635-4.368-5.542-4.368H0V27.56563H2.93867V21.30119H5.43289l3.60566,6.26444ZM6.65527,14.68325c1.73648,0,2.60518.68355,2.60518,2.029,0,1.34541-.86952,2.029-2.60518,2.029H2.93867v-4.058ZM68.05983,27.87409a3.25615,3.25615,0,0,1-3.2696-3.24276V13.66889h2.80468v2.96H70v2.24986H67.59491V24.453a.95466.95466,0,0,0,.96017.95025H70v2.47083Z"/></clipPath><linearGradient id="linear-gradient" x1="-411.852" y1="-164.26615" x2="-388.67821" y2="-187.11747" gradientTransform="translate(786.87874 368.28252) scale(1.88487 1.9673)" gradientUnits="userSpaceOnUse"><stop offset="0" stop-color="#0d59ec"/><stop offset="0.113" stop-color="#0d59ec"/><stop offset="0.742" stop-color="#008fe1"/><stop offset="1" stop-color="#20afff"/></linearGradient></defs><g class="cls-2"><rect class="cls-3" x="-0.33834" y="11.81" width="70.67667" height="16.38"/></g></svg>