<?xml version="1.0" encoding="UTF-8"?>
<svg id="Layer_1" data-name="Layer 1" xmlns="http://www.w3.org/2000/svg" viewBox="0 0 70 40">
  <defs>
    <style>
      .cls-1 {
        fill: #527a42;
      }
    </style>
  </defs>
  <path class="cls-1" d="m70,16.07671l-3.29947,4.32682v3.51976h-1.81547v-3.51976l-3.29947-4.32682h2.25029l2.00777,2.66535,1.99253-2.66535s2.16382,0,2.16382,0Zm-18.37377,0v1.54947h2.90871v6.30041h1.79982v-6.30371h2.90541v-1.54947s-7.61394.00329-7.61394.00329Zm-9.002,1.54947h2.67729c.79594,0,1.16571.30018,1.16571.93471,0,.63412-.36977.93388-1.16571.93388h-2.67729v-1.869.00041Zm6.0587,6.30041l-2.06665-3.024c1.10724-.29976,1.68494-1.09571,1.68494-2.34212,0-1.61576-.98082-2.48047-2.80371-2.48047h-4.67353v7.84659h1.80024v-2.88894h1.98429l1.95053,2.88565s2.12388.00329,2.12388.00329Zm-19.92323-7.84659v7.84659h7.09594v-1.54947h-5.29324v-1.62729h4.54876v-1.54947h-4.54876v-1.57706h5.29653v-1.54988l-7.09923.00659Zm-5.64529,0l-2.31535,5.80094-2.33141-5.803h-1.95259l3.31182,7.84659h1.84594l3.31224-7.847-1.87065.00206v.00041Zm-12.19729,7.84329h1.79941v-7.84659h-1.79941v7.84659Zm-10.91712,0h1.79941v-6.048H0v6.048Zm1.79941-6.04676h6.04718v-1.80106H1.79941v1.80147-.00041Z"/>
</svg>