<?xml version="1.0" encoding="UTF-8"?>
<svg id="Layer_1" data-name="Layer 1" xmlns="http://www.w3.org/2000/svg" viewBox="0 0 70 40">
  <defs>
    <style>
      .cls-1 {
        fill: #e7e4e2;
      }

      .cls-2 {
        fill: #fff;
      }

      .cls-3 {
        fill: #255a57;
      }

      .cls-4 {
        fill: #282828;
      }
    </style>
  </defs>
  <rect class="cls-4" x="3" width="64" height="40"/>
  <rect class="cls-3" x="3" width="64" height="20"/>
  <path class="cls-2" d="M39.87064,9.46757c-.02171-.09221-.04929-.17043-.069-.24057l-.02172-.06414c-.36271-1.02243-1.20057-1.62386-2.23164-1.61779-.18136,0-.33514,.014-.49479,.05007-.82407,.18443-1.79993,.78786-1.79993,2.61014v2.88086c0,.2065,.04929,.32678,.09857,.425,.06307,.12029,.18136,.2125,.31343,.24857,.0355,.008,.07693,.01407,.11829,.01407,.1045,0,.20307-.02807,.28586-.09229,.21686-.14829,.21686-.40493,.21686-.61743v-2.85879c0-.96421,.29964-1.43336,.99757-1.57571,.46721-.10621,.9285,.05014,1.21436,.397,.14,.17036,.22279,.33279,.25828,.47507,.1045,.51121,.15972,.66757,.23064,.76586l.02171,.028c.15378,.17643,.42579,.22657,.64857,.11429,.31743-.17643,.28193-.59536,.21293-.94221Z"/>
  <path class="cls-2" d="M14.847,5.77876c-.38443-.07819-.77472-.07819-1.15129,0-1.37407,.28267-2.26714,1.38931-2.26714,2.82266v4.49064c0,.18443,.02171,.31272,.07686,.41893l.00793,.00807c.06307,.12029,.18136,.2125,.31343,.24857,.14,.03607,.28586,.008,.40414-.07821,.23064-.15636,.25829-.425,.25829-.61743v-1.80829h3.57221v1.82229c0,.22057,.06307,.34686,.09857,.425,.06307,.12029,.18136,.2125,.31343,.24864,.0355,.008,.07693,.014,.11829,.014,.1045,0,.20307-.02807,.28586-.09221,.209-.14236,.23657-.37686,.23657-.61743v-4.46857c-.00786-1.43343-.893-2.53399-2.26714-2.81666Zm1.20657,4.47659h-3.55843v-1.64593c0-.70964,.24443-1.20686,.78064-1.55966,.37657-.26864,.87136-.36887,1.36029-.27666,.23657,.0421,.44557,.13432,.62693,.26864l.00786,.00802c.53036,.36087,.78071,.85801,.78071,1.55966v1.64593h.002Z"/>
  <path class="cls-2" d="M34.49229,9.92857c-.44557-1.696-2.14886-2.67436-3.87779-2.23529-.88521,.2265-1.60478,.77386-2.02271,1.53964-.41793,.76579-.49479,1.68193-.21686,2.57607,.41793,1.31307,1.61064,2.13507,2.97093,2.13507,.2445,0,.50271-.02807,.75314-.08421,.38443-.08421,.76093-.24857,1.09607-.46914,.25036-.17036,.46136-.35479,.57171-.49714,.1735-.2125,.27993-.38293,.25829-.58136-.01379-.13436-.08279-.25464-.18929-.34086-.11236-.08414-.25821-.12029-.39036-.09221l-.02164,.00807c-.13207,.04207-.23657,.10021-.32136,.18443l-.09071,.11429-.13207,.12021-.00786,.00807c-.29379,.29871-.64864,.50314-1.03307,.58136-1.03893,.24057-2.06407-.31879-2.44057-1.32714-.02764-.08421-.04928-.16236-.069-.23457h4.56186l.09857-.014,.15379-.008c.16757-.01407,.29371-.07821,.37657-.1985,.15371-.2205,.14586-.54729-.02764-1.18479Zm-5.177,.439c.01386-.09221,.04143-.17036,.069-.26257,.35486-1.14871,1.49243-1.76621,2.63778-1.42536,.71765,.2125,1.2775,.80786,1.45886,1.55364,.01379,.05614,.02764,.11429,.0355,.17043l-4.20114-.03614Z"/>
  <path class="cls-2" d="M27.67507,11.32586c-.05521-.12029-.16757-.2125-.29371-.25457-.13207-.04214-.27207-.02207-.39821,.04207-.2445,.12029-.29379,.39093-.30757,.48314l-.04143,.22657-.00786,.07014c-.15971,.70164-.71757,1.08457-1.42928,.97829-.46129-.07014-1.07443-.31871-1.07443-1.60979v-.08421h1.39579c.16757,0,.67622,0,.67622-.51121,0-.25457-.18929-.46907-.41207-.48314-.1045-.014-.19514-.014-.29964-.014h-1.36029v-1.96464c0-.18443-.02172-.31271-.07686-.419v-.008c-.06314-.12029-.18143-.2125-.3135-.24857-.13993-.03614-.28586-.00807-.40414,.07814-.20893,.14236-.23657,.37693-.23657,.6175v2.92886c0,1.668,.59343,2.50393,1.92607,2.7245,.15379,.028,.30757,.04207,.46136,.04207,1.04679,0,1.92607-.65957,2.20407-1.71007,.02164-.08414,.03543-.16236,.04929-.24057v-.004c.04136-.30671,.02757-.47707-.05722-.6395Z"/>
  <path class="cls-2" d="M53.09679,10.43979c-.01379-.25464-.04929-.48314-.11236-.68764-.21685-.76579-.7255-1.40529-1.42929-1.80221-.75307-.419-1.64022-.51121-2.48993-.25464-1.10993,.33279-1.94578,1.24093-2.17643,2.38364-.34107,1.71607,.60722,3.31986,2.20407,3.73886,.29371,.07814,.59335,.11421,.88514,.11421,.44557,0,.87929-.09221,1.26957-.26857,.32136-.14836,.60722-.34686,.83-.58943v.014c0,.1925,0,.30479,.05522,.419l.00786,.00807c.06307,.12029,.18136,.2125,.3135,.24857,.13993,.03607,.28586,.008,.40415-.07821,.21685-.14836,.25035-.39693,.25035-.61743v-2.50793l-.01185-.12029Zm-2.62393,2.41771c-1.15136,.26864-2.21786-.36886-2.52543-1.51757v-.00807c-.04929-.14836-.069-.29871-.08278-.447-.06307-1.01443,.53621-1.92857,1.46479-2.22129,.22271-.07014,.45343-.10621,.67614-.10621,.43179,0,.84379,.12829,1.20064,.38286,.53622,.38293,.85757,1.00643,.87922,1.71007,.04143,1.08657-.60129,1.97464-1.61257,2.20721Z"/>
  <path class="cls-2" d="M45.9385,6.69299c-.5165-.63149-1.29129-.99234-2.12714-.97831-1.56928,.02206-2.62986,1.17678-2.62986,2.88082v4.49057c0,.2065,.04929,.32679,.09857,.425,.06307,.12029,.18136,.2125,.31343,.24864,.0355,.008,.07686,.014,.11829,.014,.1045,0,.20307-.02807,.28586-.09221,.21686-.14836,.24443-.39693,.24443-.61743v-2.03686h1.52786c1.44314,0,2.42686-.76579,2.69893-2.09893,.16164-.80193-.02764-1.60979-.53036-2.23529Zm-2.17643,3.31986h-.02171l-1.48643-.02207v-1.4895c0-.66757,.09857-.97836,.412-1.30507,.30757-.32681,.71171-.48318,1.19271-.47516,.94236,.02205,1.59686,.70966,1.591,1.67394-.01972,.95829-.70972,1.61786-1.68757,1.61786Z"/>
  <path class="cls-2" d="M58.62835,7.96993c-.06307-.12029-.18136-.2125-.31343-.24857-.14-.03607-.28586-.008-.40414,.07821-.209,.14236-.23065,.38293-.23065,.61743v2.85879c0,.56129-.16757,1.01436-.46721,1.283-.26421,.23457-.621,.32679-1.03307,.26864-.71164-.10021-1.102-.61743-1.102-1.46143v-2.963c0-.17643-.01379-.30471-.069-.425-.06307-.12029-.18136-.2125-.3135-.24857-.13993-.03614-.28586-.00807-.40415,.07814-.21685,.14836-.25035,.39693-.25035,.6175v2.965c0,1.18479,.53035,2.02071,1.50028,2.36157,.74714,.26257,1.56336,.13429,2.12715-.29071v.02207c-.09064,.62343-.40415,1.00036-.96207,1.14871-.29964,.08421-.60715,.06414-.84372-.05614-.19521-.10021-.33514-.2125-.418-.33279l-.15372-.1985-.09857-.11421c-.06314-.08421-.11242-.12836-.14-.14836l-.02757-.02807-.02765-.01407c-.13993-.08421-.31343-.09221-.46128-.022-.15379,.07014-.26421,.2125-.29379,.37686-.03543,.22657,.05522,.419,.21686,.66757l.00793,.008c.11828,.17043,.27993,.34086,.45343,.48314,.3765,.30471,.87136,.46114,1.39579,.46114,.22271,0,.4455-.02807,.67029-.08421,1.12371-.29071,1.74471-1.20686,1.74471-2.57607v-4.651c.00786-.2205-.05521-.34079-.09071-.419l-.01186-.01407Z"/>
  <path class="cls-2" d="M22.40171,9.227l-.02164-.06414c-.36279-1.02243-1.20064-1.62386-2.23164-1.61779-.18929,0-.33514,.014-.49486,.05007-.82407,.18443-1.79993,.78786-1.79993,2.61014v2.88086c0,.2205,.06307,.34679,.09857,.419v.008c.06307,.12029,.18136,.2125,.3135,.24857,.03543,.008,.07686,.01407,.11829,.01407,.10443,0,.203-.02807,.28586-.09221,.20893-.14236,.23657-.38293,.23657-.6175v-.68157l-.02171-1.19886h1.48643c.48893,0,.60721-.25457,.621-.47514,.00793-.18443-.06307-.29871-.11829-.36086-.10443-.11429-.272-.17036-.50271-.17036h-1.49236c.00793-.93621,.30757-1.39736,.99757-1.54564,.46721-.10629,.9285,.05007,1.21436,.39693,.14,.17636,.22279,.33279,.25828,.47507,.1045,.51121,.15971,.66757,.23064,.76586l.02171,.02807c.15379,.17636,.42579,.2265,.64857,.11421,.32729-.17636,.29378-.59536,.22279-.94421-.02171-.09421-.04336-.17243-.071-.24257Z"/>
  <path class="cls-2" d="M60.49135,6.1898c-.14585-.14835-.32721-.22654-.54407-.22654-.209,0-.39036,.07016-.54414,.22654-.14586,.15637-.22278,.34081-.22278,.55331s.07693,.39694,.22278,.55332c.14593,.15636,.32728,.23457,.54414,.23457,.20893,0,.39036-.07821,.54407-.23457,.14593-.15638,.22279-.34081,.22279-.55332,0-.22052-.069-.40496-.22279-.55331Zm-.08471,1.02841c-.12621,.13436-.28586,.1985-.46728,.1985-.18136,0-.33514-.06414-.46721-.1985-.13207-.1343-.19514-.29869-.19514-.48312s.069-.34081,.19514-.47513c.13207-.1283,.28586-.19846,.46721-.19846,.18143,0,.33514,.06415,.46728,.19846,.13208,.12831,.19514,.29069,.19514,.47513,0,.19245-.069,.34882-.19514,.48312Z"/>
  <path class="cls-2" d="M60.2885,6.55258c0-.11426-.04929-.18444-.13207-.22052-.04929-.02205-.12615-.02806-.23064-.02806h-.29372v.85801h.15372v-.34079h.11828c.08286,0,.13214,.00802,.16757,.02807,.04928,.03609,.07693,.10024,.07693,.19846v.11425h.13993l-.00786-.008c-.00786-.008-.00786-.02205-.00786-.04209v-.12831c0-.0421-.02171-.09221-.04929-.13431-.0355-.0421-.08286-.07017-.14593-.0842,.05522-.00802,.09857-.02206,.12622-.0421,.05714-.03609,.08471-.09222,.08471-.17041Zm-.23657,.14836c-.02757,.01403-.07686,.02205-.13993,.02205h-.13207v-.31274h.12614c.08278,0,.14586,.01404,.18136,.03609,.04143,.02206,.05522,.06416,.05522,.12029,0,.06415-.0355,.11226-.09071,.13432Z"/>
  <path class="cls-1" d="M58.57143,27.14286l-2.22228,2.75743v2.24257h-1.22014v-2.24257l-2.22229-2.75743h1.51507l1.35207,1.69893,1.344-1.69893h1.45357Zm-12.37464,0v.98521h1.95857v4.01479h1.21222v-4.01479h1.95857v-.98521h-5.12936Zm-6.06264,.98521h1.80271c.53621,0,.78471,.19129,.78471,.59579s-.2485,.59578-.78471,.59578h-1.80271v-1.19157Zm4.08014,4.01479l-1.39121-1.9265c.74636-.19129,1.13471-.69864,1.13471-1.4925,0-1.02979-.66007-1.581-1.88829-1.581h-3.14757v5h1.21222v-1.83807h1.33686l1.31372,1.83807h1.42957Zm-13.41507-5v5h4.77936v-.98521h-3.56714v-1.03657h3.06207v-.98514h-3.06207v-1.00714h3.56714v-.98514h-4.77936v-.00078Zm-3.80129,0l-1.56221,3.69878-1.57014-3.69878h-1.31371l2.23022,5h1.24343l2.23021-5h-1.25778Zm-8.217,5h1.21221v-5h-1.21221v5Zm-7.35236,0h1.21221v-3.853h-1.21221v3.853Zm1.21221-3.853h4.07214v-1.147h-4.07214v1.147Z"/>
</svg>