<?xml version="1.0" encoding="UTF-8"?>
<svg id="Layer_1" data-name="Layer 1" xmlns="http://www.w3.org/2000/svg" viewBox="0 0 70 40">
  <defs>
    <style>
      .cls-1 {
        fill: #2e3235;
      }

      .cls-1, .cls-2 {
        fill-rule: evenodd;
      }

      .cls-2 {
        fill: #e5e5e0;
      }
    </style>
  </defs>
  <path class="cls-1" d="M65.62629,33H0L4.37405,7H70l-4.37371,26Z"/>
  <path class="cls-2" d="M20.93036,22.14693c-1.12054,0-1.90764-.72841-1.90764-1.8656,0-1.25855,.97848-2.43978,2.38458-2.43978,1.12047,0,1.90763,.76174,1.90763,1.89906,0,1.25874-.97854,2.40632-2.38458,2.40632Zm.65596-6.48017c-2.94485,0-5.17356,2.15276-5.17356,4.72495,0,2.32941,1.83517,3.94177,4.33859,3.94177,2.94485,0,5.17349-2.21968,5.17349-4.79187,0-2.32914-1.8351-3.87485-4.33852-3.87485Z"/>
  <path class="cls-2" d="M38.67504,22.14693c-1.12054,0-1.90613-.72841-1.90613-1.8656,0-1.25855,.97697-2.43978,2.38307-2.43978,1.12054,0,1.90763,.76174,1.90763,1.89906,0,1.25874-.97697,2.40632-2.38458,2.40632Zm.65596-6.48017c-2.94485,0-5.17356,2.15276-5.17356,4.72495,0,2.32941,1.83516,3.94177,4.33859,3.94177,2.94485,0,5.17506-2.21968,5.17506-4.79187,0-2.32914-1.83667-3.87485-4.34009-3.87485Z"/>
  <path class="cls-2" d="M48.14389,19.77191h-.38433l.28864-1.73568h.34881c.81646,0,1.2486,.24487,1.2486,.77873,0,.63424-.61272,.95695-1.50172,.95695Zm4.19188-1.36847c0-1.5576-1.22394-2.55892-3.43408-2.55892h-3.12386l-1.36902,8.31081h2.62998l.43214-2.61454h.12041l1.39368,2.61454h3.01431l-1.93393-2.90391c1.4184-.48968,2.27038-1.54629,2.27038-2.84797Z"/>
  <path class="cls-2" d="M13.39845,19.16002c-.99705-.50079-1.22394-.63424-1.22394-.90114,0-.33388,.39512-.50086,.94767-.50086,.63437,0,1.59284,.07064,2.53122,.95989,.23304-.71253,.61115-1.36128,1.10661-1.92004-1.33043-.74279-2.55588-1.13111-3.68564-1.13111-2.24572,0-3.53134,1.19045-3.53134,2.62545,0,1.23483,.93681,1.88011,2.05428,2.44723,.99705,.51197,1.2486,.6679,1.2486,.97963,0,.33369-.41978,.52249-.97233,.52249-.9616,0-2.079-.60058-2.7396-1.21254l-.38433,2.31411c.68533,.48922,1.67002,.98969,3.15938,.98969,2.31825,0,3.56843-1.15647,3.56843-2.64721,0-1.21306-.80567-1.88031-2.079-2.52559Z"/>
  <path class="cls-2" d="M32.84546,19.49351h-3.07912l.24082-1.45728h3.30288c.42756-.87657,1.08967-1.62622,1.91542-2.19171h-5.4051c-1.19922,0-2.21786,.81082-2.39844,1.90828l-1.05572,6.40253h2.63155l.43214-2.61454h3.12386l.22539-1.42095c.01079-.21246,.03238-.42113,.06632-.62633Z"/>
  <path class="cls-2" d="M52.39293,15.84452c.70227,.53536,1.13597,1.28384,1.22859,2.19171h2.19935l-1.00942,6.1191h2.62998l1.01098-6.1191h2.43703l.36117-2.19171h-8.85769Z"/>
</svg>