<svg id="Layer_1" data-name="Layer 1" xmlns="http://www.w3.org/2000/svg" viewBox="0 0 70 40"><defs><style>.cls-1{fill:#fa82a0;}.cls-2{fill:#fdfdfd;}</style></defs><g id="_fa82a0ff" data-name="#fa82a0ff"><path class="cls-1" d="M9.53248,0H60.4433A7.945,7.945,0,0,1,68,7.43788V32.51212A7.9444,7.9444,0,0,1,60.52505,40H9.5567A7.935,7.935,0,0,1,2,32.47121V7.49242A7.93788,7.93788,0,0,1,9.53248,0m1.85587,11.97576a1.74652,1.74652,0,0,0-.44807,1.51363q.29745,2.41818.601,4.83485A1.57867,1.57867,0,0,0,9.699,18.15606a1.67649,1.67649,0,0,0-.49349,2.13485,1.55029,1.55029,0,0,0-1.29123,1.697c.056.78485.73266,1.25757,1.18981,1.81515a5.19421,5.19421,0,0,0,1.158,2.94091,5.83955,5.83955,0,0,0,7.13436.94242,5.46554,5.46554,0,0,0,2.24188-3.91515,4.73431,4.73431,0,0,0-.16954-2.47575c-.28913-.58637-.984-.69849-1.52436-.93788q.69708-3.44545,1.39872-6.8894a1.59027,1.59027,0,0,0-.386-1.497,1.61,1.61,0,0,0-2.3312.08485,3.87368,3.87368,0,0,0-.53133,1.32121c-.37087,1.22728-.70087,2.46667-1.096,3.68637-.31789-1.18182-.5722-2.38031-.85528-3.57122a3.11162,3.11162,0,0,0-.56614-1.45909,1.54818,1.54818,0,0,0-2.1889-.05757m11.99656,4.13485A2.60573,2.60573,0,0,0,23.5272,19.35c.79321.847,2.01028.95152,3.02753,1.3803a1.02793,1.02793,0,0,1,.48742,1.32728,1.31349,1.31349,0,0,1-1.41839.72878,2.72337,2.72337,0,0,1-1.6939-.99242,7.46669,7.46669,0,0,0-1.2428,1.35454,4.26333,4.26333,0,0,0,3.23643,1.39546,3.22647,3.22647,0,0,0,2.8277-1.553,2.79256,2.79256,0,0,0-.32091-3.23788,5.82449,5.82449,0,0,0-2.5401-1.20455c-.41174-.13787-.937-.34393-.98848-.84242a.97081.97081,0,0,1,1.01422-1.09545c.5722-.05455.96275.40606,1.326.76969a17.51567,17.51567,0,0,0,1.49106-.98788,3.24808,3.24808,0,0,0-5.34812-.28181M39.16739,15.55a3.12781,3.12781,0,0,0-1.27,2.61818c-.00454,2.06364-.03936,4.12879.01211,6.19243.607.03939,1.21555.02878,1.82408.01818.12565-1-.01816-2.01061.08023-3.01061a1.74571,1.74571,0,0,1,1.69239-1.27424c.03179-.56364.02876-1.12727.00908-1.68939a2.79339,2.79339,0,0,0-1.72266.5303,2.25532,2.25532,0,0,1,.39055-1.77424,2.18229,2.18229,0,0,1,1.36844-.51819c.0227-.55757.02119-1.11666-.003-1.67424a3.95767,3.95767,0,0,0-2.38114.58182m15.8188.23333c-.07266,1.75758-.02119,3.51819-.02119,5.27728a3.23881,3.23881,0,0,0,.54193,2.04545,3.41923,3.41923,0,0,0,3.08353,1.27273,14.60447,14.60447,0,0,0,.00605-1.64849,1.95151,1.95151,0,0,1-1.45775-.65151c-.51468-.73333-.26793-1.68485-.31335-2.5197A2.816,2.816,0,0,0,58.55716,20.1q.02269-.83864.00454-1.67727a2.43524,2.43524,0,0,1-1.429-.73031c-.43748-.53636-.28762-1.26969-.3406-1.90757-.60248-.02879-1.205-.02727-1.80592-.00152m-22.499,2.04546a3.41216,3.41216,0,0,0-2.51436,4.28788A3.62425,3.62425,0,0,0,34.838,24.25606a3.51794,3.51794,0,0,0,2.11018-2.73333A3.54722,3.54722,0,0,0,34.779,17.98182a3.99575,3.99575,0,0,0-2.29183-.153m12.6838-.06818a3.49147,3.49147,0,0,0-3.03358,2.83787,3.30085,3.30085,0,0,0,1.485,3.34091,3.70136,3.70136,0,0,0,4.17647-.0803,3.33786,3.33786,0,0,0,1.3851-3.10151,3.55108,3.55108,0,0,0-4.013-2.997m6.90276.73484c-.01212-.14545-.03634-.43333-.04844-.57727-.58583-.04242-1.17468-.02879-1.762-.02576a13.7401,13.7401,0,0,0-.05,1.95c.02422,1.5106-.05146,3.02575.03331,4.53333.604.01363,1.20949.02576,1.81348-.01667.10294-1.14242-.08477-2.3.09234-3.43485a1.726,1.726,0,0,1,1.69087-1.19242c-.03633-.64243.18619-1.38485-.11656-1.96515a2.21067,2.21067,0,0,0-1.653.72878m8.25605,3.68485a1.20832,1.20832,0,0,0-.20587,2.06364,1.26157,1.26157,0,0,0,1.97243-.90152A1.24636,1.24636,0,0,0,60.32977,22.1803Z"/><path class="cls-1" d="M11.61693,13.45606a1.06841,1.06841,0,0,1,.54646-1.2197.87492.87492,0,0,1,1.13078.65909c.47078,1.84394.86588,3.70607,1.3412,5.54849a.36335.36335,0,0,0,.53133.23939,3.80736,3.80736,0,0,0,.38449-1.05151c.46776-1.6.92642-3.20455,1.41688-4.79849a.916.916,0,0,1,1.56675-.3106c.32243.36212.17711.86666.09234,1.28636-.45716,2.12121-.83711,4.26061-1.3306,6.3697l-.10445.05454c-1.03239-.16818-2.02693-.55-3.07294-.6303a1.85349,1.85349,0,0,0-1.30183.54545,1.97151,1.97151,0,0,1-.49651-1.04394C12.07105,17.22424,11.8561,15.33788,11.61693,13.45606Z"/><path class="cls-1" d="M9.72624,19.23485a.77038.77038,0,0,1,1.22615-.4697A8.12041,8.12041,0,0,1,12.00445,20.15c.20436.3303.53133.6303.52073,1.04849a2.02129,2.02129,0,0,0,.34817,1.10606.91274.91274,0,0,1-1.27459.21212,18.02274,18.02274,0,0,1-1.20344-1.67425C10.082,20.35758,9.62179,19.86061,9.72624,19.23485Z"/><path class="cls-1" d="M32.9428,19.48333a1.69557,1.69557,0,0,1,2.1117,1.87273,1.67457,1.67457,0,0,1-2.21161,1.4,1.71248,1.71248,0,0,1-.97638-2.41212A1.66745,1.66745,0,0,1,32.9428,19.48333Z"/><path class="cls-1" d="M45.21032,19.47879a1.71272,1.71272,0,1,1-.77505,2.88485A1.75458,1.75458,0,0,1,45.21032,19.47879Z"/><path class="cls-1" d="M13.38046,20.64243c.30578-.48637.9567-.3697,1.429-.26061,1.17014.29394,2.35239.54091,3.52252.83333.52982.11667.713.71818.72812,1.197a6.41379,6.41379,0,0,1-1.1005,3.8697,3.94081,3.94081,0,0,1-2.64152,1.44242,4.87683,4.87683,0,0,1-4.293-1.15909,4.35512,4.35512,0,0,1-1.12927-1.99242,2.01148,2.01148,0,0,0,1.88009.79545,1.642,1.642,0,0,0,1.08537-2.1697c.23614-.16818.436-.55606.77353-.43636a14.45908,14.45908,0,0,0,1.42142.38182,2.682,2.682,0,0,0-1.06871,2.30757c.08779.32122.64789.30607.63578-.05454a2.159,2.159,0,0,1,.81894-1.647c.495-.36061,1.12473-.17576,1.68028-.28485a.38861.38861,0,0,0-.01968-.51666c-1.105-.37122-2.31-.41213-3.38023-.89091A.94843.94843,0,0,1,13.38046,20.64243Z"/><path class="cls-1" d="M9.00417,21.097a.65826.65826,0,0,1,.84014.14242c.43142.5394.73266,1.17273,1.19436,1.6894.28156.33333.7372.37121,1.11716.52424.492.64849-.34968,1.57424-1.05055,1.25455a10.601,10.601,0,0,1-1.19285-1.097,11.90662,11.90662,0,0,1-1.18225-1.24394A.88665.88665,0,0,1,9.00417,21.097Z"/></g><g id="_fdfdfdff" data-name="#fdfdfdff"><path class="cls-2" d="M11.36667,11.97576a1.55061,1.55061,0,0,1,2.19091.05757,3.11,3.11,0,0,1,.56666,1.45909c.28334,1.19091.53788,2.3894.85606,3.57122.39546-1.2197.72576-2.45909,1.097-3.68637a3.87161,3.87161,0,0,1,.53182-1.32121,1.61253,1.61253,0,0,1,2.33333-.08485,1.58924,1.58924,0,0,1,.38637,1.497q-.69773,3.44545-1.4,6.8894c.54091.23939,1.23636.35151,1.52576.93788a4.73021,4.73021,0,0,1,.16969,2.47575,5.46444,5.46444,0,0,1-2.24394,3.91515,5.84891,5.84891,0,0,1-7.14091-.94242A5.1915,5.1915,0,0,1,9.0803,23.803c-.45757-.55758-1.13485-1.0303-1.19091-1.81515a1.55054,1.55054,0,0,1,1.29243-1.697,1.67551,1.67551,0,0,1,.49394-2.13485,1.58126,1.58126,0,0,1,1.84394.16818q-.30683-2.4159-.60152-4.83485a1.74546,1.74546,0,0,1,.44849-1.51363m.22878,1.4803c.2394,1.88182.45455,3.76818.70455,5.64848a1.97071,1.97071,0,0,0,.497,1.04394A1.856,1.856,0,0,1,14.1,19.603c1.047.0803,2.04242.46212,3.07576.6303l.10454-.05454c.49394-2.10909.87425-4.24849,1.33182-6.3697.08485-.4197.2303-.92424-.09242-1.28636a.91724.91724,0,0,0-1.56819.3106c-.4909,1.59394-.95,3.19849-1.41818,4.79849a3.80491,3.80491,0,0,1-.38484,1.05151.36376.36376,0,0,1-.53182-.23939c-.47576-1.84242-.87122-3.70455-1.34243-5.54849a.87579.87579,0,0,0-1.13182-.65909,1.06808,1.06808,0,0,0-.547,1.2197M9.703,19.23485c-.10455.62576.35606,1.12273.6697,1.60757a18.02251,18.02251,0,0,0,1.20454,1.67425.91412.91412,0,0,0,1.27576-.21212,2.0199,2.0199,0,0,1-.34848-1.10606c.0106-.41819-.31667-.71819-.52122-1.04849a8.12054,8.12054,0,0,0-1.053-1.38485.77127.77127,0,0,0-1.22727.4697m3.65758,1.40758a.948.948,0,0,0,.34242,1.41515c1.07121.47878,2.27727.51969,3.38333.89091a.38835.38835,0,0,1,.0197.51666c-.55606.10909-1.18636-.07576-1.68182.28485a2.15827,2.15827,0,0,0-.81969,1.647c.01212.36061-.54849.37576-.63637.05454a2.68109,2.68109,0,0,1,1.0697-2.30757,14.48312,14.48312,0,0,1-1.42273-.38182c-.33788-.1197-.53788.26818-.77424.43636a1.64173,1.64173,0,0,1-1.08636,2.1697,2.01416,2.01416,0,0,1-1.88182-.79545,4.354,4.354,0,0,0,1.1303,1.99242A4.88447,4.88447,0,0,0,15.3,27.72424a3.94539,3.94539,0,0,0,2.64394-1.44242,6.40941,6.40941,0,0,0,1.10151-3.8697c-.01515-.47879-.19848-1.0803-.72878-1.197-1.17121-.29242-2.35455-.53939-3.52576-.83333-.47273-.10909-1.12424-.22576-1.4303.26061M8.9803,21.097a.88617.88617,0,0,0-.27424,1.2697,11.91089,11.91089,0,0,0,1.18333,1.24394,10.607,10.607,0,0,0,1.19394,1.097c.70152.31969,1.54394-.60606,1.05152-1.25455-.3803-.153-.83637-.19091-1.11818-.52424-.46212-.51667-.76364-1.15-1.19546-1.6894A.65928.65928,0,0,0,8.9803,21.097Z"/><path class="cls-2" d="M23.37424,16.11061a3.25274,3.25274,0,0,1,5.353.28181,17.53328,17.53328,0,0,1-1.49242.98788c-.36364-.36363-.75455-.82424-1.32727-.76969a.97118.97118,0,0,0-1.01516,1.09545c.05152.49849.57728.70455.9894.84242A5.832,5.832,0,0,1,28.42424,19.753a2.79051,2.79051,0,0,1,.32121,3.23788,3.23011,3.23011,0,0,1-2.8303,1.553,4.269,4.269,0,0,1-3.23939-1.39546,7.46877,7.46877,0,0,1,1.24394-1.35454,2.72634,2.72634,0,0,0,1.69545.99242,1.315,1.315,0,0,0,1.4197-.72878A1.02752,1.02752,0,0,0,26.547,20.7303c-1.01818-.42878-2.23636-.53333-3.0303-1.3803A2.60386,2.60386,0,0,1,23.37424,16.11061Z"/><path class="cls-2" d="M39.17121,15.55a3.96422,3.96422,0,0,1,2.38334-.58182c.02424.55758.02575,1.11667.003,1.67424a2.18547,2.18547,0,0,0-1.3697.51819,2.25371,2.25371,0,0,0-.39091,1.77424,2.79775,2.79775,0,0,1,1.72424-.5303c.0197.56212.02273,1.12575-.00909,1.68939a1.74708,1.74708,0,0,0-1.69394,1.27424c-.09848,1,.04546,2.01061-.0803,3.01061-.60909.0106-1.21818.02121-1.82576-.01818-.05151-2.06364-.01667-4.12879-.01212-6.19243A3.12682,3.12682,0,0,1,39.17121,15.55Z"/><path class="cls-2" d="M55.00455,15.78333c.60151-.02575,1.20454-.02727,1.80757.00152.053.63788-.097,1.37121.34091,1.90757a2.43828,2.43828,0,0,0,1.4303.73031q.0182.83863-.00454,1.67727a2.82034,2.82034,0,0,1-1.73334-.54091c.04546.83485-.20151,1.78637.31364,2.5197a1.9541,1.9541,0,0,0,1.45909.65151,14.59273,14.59273,0,0,1-.00606,1.64849,3.42385,3.42385,0,0,1-3.08636-1.27273,3.23649,3.23649,0,0,1-.54242-2.04545C54.98334,19.30152,54.93182,17.54091,55.00455,15.78333Z"/><path class="cls-2" d="M32.48485,17.82879a4.00292,4.00292,0,0,1,2.29394.153A3.54689,3.54689,0,0,1,36.95,21.52273a3.51843,3.51843,0,0,1-2.11212,2.73333,3.62858,3.62858,0,0,1-4.8697-2.13939,3.41192,3.41192,0,0,1,2.51667-4.28788m.45606,1.65454a1.66867,1.66867,0,0,0-1.07727.86061,1.712,1.712,0,0,0,.97727,2.41212,1.67608,1.67608,0,0,0,2.21364-1.4A1.69655,1.69655,0,0,0,32.94091,19.48333Z"/><path class="cls-2" d="M45.1803,17.76061a3.55382,3.55382,0,0,1,4.01667,2.997,3.33658,3.33658,0,0,1-1.38637,3.10151,3.70756,3.70756,0,0,1-4.1803.0803,3.29963,3.29963,0,0,1-1.48636-3.34091,3.49334,3.49334,0,0,1,3.03636-2.83787m.0394,1.71818a1.754,1.754,0,0,0-.77576,2.88485,1.71351,1.71351,0,1,0,.77576-2.88485Z"/><path class="cls-2" d="M52.0894,18.49545a2.21363,2.21363,0,0,1,1.65454-.72878c.303.5803.0803,1.32272.11667,1.96515a1.72748,1.72748,0,0,0-1.69243,1.19242c-.17727,1.13485.01061,2.29243-.09242,3.43485-.60455.04243-1.21061.0303-1.81515.01667-.08485-1.50758-.00909-3.02273-.03334-4.53333a13.72826,13.72826,0,0,1,.05-1.95c.58788-.003,1.17728-.01666,1.76364.02576C52.053,18.06212,52.07727,18.35,52.0894,18.49545Z"/><path class="cls-2" d="M60.353,22.1803a1.2474,1.2474,0,0,1,1.76818,1.16212,1.26292,1.26292,0,0,1-1.97424.90152A1.20777,1.20777,0,0,1,60.353,22.1803Z"/></g></svg>