<svg xmlns="http://www.w3.org/2000/svg" viewBox="0 0 70 40"><defs><style>.cls-1{fill:#0ee06e;}.cls-2{fill:none;}</style></defs><g id="Layer_2" data-name="Layer 2"><g id="Layer_1-2" data-name="Layer 1"><path class="cls-1" d="M66.26667,31.66667H3.73333A3.73231,3.73231,0,0,1,0,27.93333V12.06667A3.73231,3.73231,0,0,1,3.73333,8.33333H66.26667A3.73231,3.73231,0,0,1,70,12.06667V27.93333A3.73231,3.73231,0,0,1,66.26667,31.66667Z"/><path d="M25.676,24.66667V17.004H22.91333V15.33333h7.34534v1.68H27.496v7.65334Z"/><path d="M30.05333,24.66667V17.88133h1.68934v1.07334A1.58665,1.58665,0,0,1,33.32,17.88133h.66267V19.58H33.404c-.85867,0-1.61467.49467-1.61467,1.99733v3.08h-1.736Z"/><path d="M34.944,22.212V17.89067H36.68v3.91066c0,.868.448,1.44667,1.24133,1.44667A1.33331,1.33331,0,0,0,39.256,21.81067V17.88133h1.736v6.78534h-1.68V23.808a2.18829,2.18829,0,0,1-1.96,1.008A2.33121,2.33121,0,0,1,34.944,22.212Z"/><path d="M41.916,22.75333l1.53067-.34533c.07466.59733.56.99867,1.372.99867.66267,0,1.04533-.28,1.04533-.644,0-.29867-.17733-.49467-.82133-.65334l-1.10133-.252c-1.288-.29866-1.89467-.90533-1.89467-2.03466,0-1.148.96133-2.06267,2.716-2.06267,1.85734,0,2.62267,1.10133,2.72534,1.89467l-1.53067.336c-.07466-.42-.392-.868-1.232-.868-.55067,0-.96133.252-.96133.616,0,.31733.24267.49466.616.588l1.49333.35466a1.9318,1.9318,0,0,1,1.72667,1.96c0,1.092-.88667,2.16534-2.772,2.16534C42.77467,24.79733,42.00933,23.584,41.916,22.75333Z"/><path d="M51.17467,24.66667a1.73846,1.73846,0,0,1-1.904-1.904V19.39333H48.14133v-1.512h1.12933v-1.54l1.736-.49466v2.044H52.388v1.512H51.00666v3.07066c0,.49467.24267.69067.74667.69067h.756v1.50267Z"/><path d="M53.648,24.66667V15.33333h1.736v9.33334Z"/><path d="M61.13333,17.89067H63l-2.86533,9.212H58.268l.79333-2.42667h-.94266l-1.932-6.78533h1.86666L59.528,23.22933Z"/><polygon points="7 19.421 11.359 19.421 11.359 15.949 14.831 19.421 11.359 22.893 11.359 24.667 15.568 24.667 15.568 19.421 19.441 19.421 19.441 15.333 7 15.333 7 19.421"/><rect class="cls-2" width="70" height="40"/></g></g></svg>