<?xml version="1.0" encoding="UTF-8"?>
<svg id="Layer_1" data-name="Layer 1" xmlns="http://www.w3.org/2000/svg" viewBox="0 0 70 40">
  <defs>
    <style>
      .cls-1 {
        stroke-width: 0px;
      }
    </style>
  </defs>
  <g>
    <path class="cls-1" d="m23.345,24.31083v-9.57833h-3.45333v-2.08833h9.18167v2.1h-3.45333v9.56667h-2.275Z"/>
    <path class="cls-1" d="m28.81667,24.31083v-8.48167h2.11167v1.34167c.54833-1.13167,1.23667-1.34167,1.97167-1.34167h.82833v2.12333h-.72333c-1.07333,0-2.01833.61833-2.01833,2.49667v3.85h-2.17v.01167Z"/>
    <path class="cls-1" d="m34.93,21.2425v-5.40167h2.17v4.88833c0,1.085.56,1.80833,1.55167,1.80833.95667,0,1.66833-.72333,1.66833-1.79667v-4.91167h2.17v8.48167h-2.1v-1.07333c-.54833.85167-1.38833,1.26-2.45,1.26-1.785.01167-3.01-1.19-3.01-3.255Z"/>
    <path class="cls-1" d="m43.645,21.91917l1.91333-.43167c.09333.74667.7,1.24833,1.715,1.24833.82833,0,1.30667-.35,1.30667-.805,0-.37333-.22167-.61833-1.02667-.81667l-1.37667-.315c-1.61-.37333-2.36833-1.13167-2.36833-2.54333,0-1.435,1.20167-2.57833,3.395-2.57833,2.32167,0,3.27833,1.37667,3.40667,2.36833l-1.91333.42c-.09333-.525-.49-1.085-1.54-1.085-.68833,0-1.20167.315-1.20167.77,0,.39667.30333.61833.77.735l1.86667.44333c1.45833.35,2.15833,1.20167,2.15833,2.45,0,1.365-1.10833,2.70667-3.465,2.70667-2.56668-.01167-3.52334-1.52833-3.64001-2.56667Z"/>
    <path class="cls-1" d="m55.21833,24.31083c-1.45833,0-2.38-.82833-2.38-2.38v-4.21167h-1.41166v-1.89h1.41166v-1.925l2.17-.61833v2.555h1.72667v1.89h-1.72667v3.83833c0,.61833.30333.86333.93333.86333h.945v1.87833h-1.66832Z"/>
    <path class="cls-1" d="m58.31,24.31083v-11.66667h2.17v11.66667h-2.17Z"/>
    <path class="cls-1" d="m67.66667,15.84083h2.33333l-3.58167,11.515h-2.33333l.99167-3.03333h-1.17833l-2.415-8.48167h2.33333l1.84333,6.67333,2.00667-6.67333Z"/>
  </g>
  <polygon class="cls-1" points="0 17.75417 5.44833 17.75417 5.44833 13.41417 9.78833 17.75417 5.44833 22.09417 5.44833 24.31083 10.71 24.31083 10.71 17.75417 15.55167 17.75417 15.55167 12.64417 0 12.64417 0 17.75417"/>
</svg>