<?xml version="1.0" encoding="UTF-8"?>
<svg id="svg3355" xmlns="http://www.w3.org/2000/svg" viewBox="0 0 70 40">
  <defs>
    <style>
      .cls-1 {
        fill: #fff;
      }

      .cls-2 {
        fill: #1c3378;
      }
    </style>
  </defs>
  <g id="VPay">
    <path id="path8681" class="cls-2" d="M53.5,0H16.5V40H53.5V0Z"/>
    <path id="path8683" class="cls-1" d="M52.57406,25.97637H17.42594V.92399H52.57406V25.97637Z"/>
    <path id="path8685" class="cls-2" d="M43.89066,5.47139l-6.89611,16.42761h-4.5059l-3.39422-13.11308c-.20456-.8058-.38491-1.10126-1.00938-1.44507-1.02823-.55063-2.71861-1.07172-4.20442-1.39672l.09959-.47274h7.24603c.92325,0,1.75499,.61241,1.96494,1.6707l1.79535,9.50577,4.43053-11.17647h4.47359"/>
    <path id="path8687" class="cls-1" d="M27.22101,32.39592c.16419,.04566,.38222,.05907,.65408,.05907,1.00131,0,1.61233-.51303,1.61233-1.40747,0-.84877-.56526-1.30271-1.49389-1.30271-.36607,0-.62986,.03493-.77252,.06983v2.58128Zm-1.327-3.55628c.47912-.09132,1.14397-.15847,2.04838-.15847,.97977,0,1.69577,.21488,2.16412,.62315,.43606,.37336,.71868,.97234,.71868,1.6895,0,.72254-.21802,1.32151-.63255,1.73247-.53295,.55331-1.37007,.81386-2.31755,.81386-.24763,0-.47912-.01341-.65408-.04566v2.8794h-1.327v-7.53425Z"/>
    <path id="path8689" class="cls-1" d="M35.86403,33.15606l-.57603-1.88021c-.14266-.46468-.26109-.98576-.37145-1.42895h-.02157c-.10767,.44319-.21802,.9777-.34722,1.42895l-.56526,1.88021h1.88153Zm-2.09952,1.05291l-.63255,2.16492h-1.38084l2.34985-7.63631h1.70922l2.38484,7.63631h-1.43736l-.66485-2.16492h-2.32831Z"/>
    <path id="path8691" class="cls-1" d="M41.01324,36.37389v-3.1856l-2.31755-4.45071h1.52081l.88288,1.95809c.25033,.56943,.43336,.99651,.63255,1.52028h.01881c.18573-.48885,.39568-.96427,.64331-1.52028l.88288-1.95809h1.51274l-2.43868,4.41848v3.21783h-1.33774Z"/>
  </g>
</svg>