<?xml version="1.0" encoding="UTF-8"?>
<svg id="svg10306" xmlns="http://www.w3.org/2000/svg" viewBox="0 0 69.99874 40">
  <defs>
    <style>
      .cls-1 {
        fill: #1434cb;
        stroke-width: 0px;
      }
    </style>
  </defs>
  <path class="cls-1" d="m36.27592,15.93186c-.04208,3.14228,2.80561,4.89579,4.93788,5.93387,2.20241,1.06613,2.93186,1.75351,2.93186,2.70742-.01403,1.45892-1.75351,2.10421-3.38076,2.13226-2.83367.04208-4.48898-.77154-5.79359-1.37475l-1.02405,4.78357c1.31864.60321,3.74549,1.13627,6.27054,1.16433,5.93387,0,9.80561-2.93186,9.83367-7.46293.02806-5.7515-7.96793-6.07415-7.91182-8.65531.01403-.78557.75751-1.61323,2.3988-1.82365.81363-.11222,3.04409-.18236,5.56914.98196l.99599-4.62926c-1.37476-.49098-3.12826-.96794-5.30261-.96794-5.56914,0-9.497,2.95992-9.52505,7.21042"/>
  <path class="cls-1" d="m65.44025,9.11423h-4.82565c-1.08016,0-1.99199.63126-2.3988,1.5992l-8.47295,20.21443h5.91984l1.17836-3.25451h7.23848l.68737,3.25451h5.23246l-4.55912-21.81363Zm-6.95792,14.0982l2.97395-8.19238,1.71142,8.19238h-4.68537Z"/>
  <polyline class="cls-1" points="28.95328 9.11423 24.28194 30.94188 29.92121 30.94188 34.59256 9.11423 28.95328 9.11423"/>
  <path class="cls-1" d="m20.59256,9.11423l-5.87776,14.85571-2.37074-12.62525c-.28056-1.40281-1.37475-2.23046-2.60922-2.23046H.13965L-.00063,9.75952c1.97796.43487,4.20842,1.12224,5.56914,1.8517.82766.4489,1.06613.84168,1.34669,1.92184l4.50301,17.40882h5.96192l9.14629-21.82765h-5.93387"/>
</svg>