<svg xmlns="http://www.w3.org/2000/svg" viewBox="0 0 100 32.28916"><defs><style>.cls-1{fill:#1c3378;}</style></defs><g id="Layer_2" data-name="Layer 2"><g id="svg10306"><path class="cls-1" d="M51.72691,10.32129c-.06024,4.498,4.01606,7.008,7.06827,8.494,3.15262,1.5261,4.19679,2.51,4.19679,3.8755-.02008,2.08836-2.51,3.012-4.83936,3.05221a17.0353,17.0353,0,0,1-8.29317-1.96787l-1.46587,6.84739a24.51932,24.51932,0,0,0,8.97591,1.66667c8.494,0,14.03614-4.19679,14.07631-10.68273.04016-8.23293-11.40562-8.69478-11.3253-12.38956.02008-1.1245,1.08433-2.30924,3.43373-2.61044a15.17029,15.17029,0,0,1,7.97189,1.40562l1.42571-6.62651A22.08758,22.08758,0,0,0,65.36145,0C57.38956,0,51.76707,4.237,51.72691,10.32129"/><path class="cls-1" d="M93.4739.56225H86.56627a3.68042,3.68042,0,0,0-3.43374,2.28916L71.004,31.78715h8.4739l1.68674-4.65863H91.52611L92.51,31.78715H100ZM83.51405,20.743l4.257-11.72691L90.22089,20.743Z"/><polyline class="cls-1" points="41.446 0.562 34.759 31.807 42.831 31.807 49.518 0.562 41.446 0.562"/><path class="cls-1" d="M29.47791.56225,21.06426,21.82731,17.67068,3.755A3.78272,3.78272,0,0,0,13.93574.56225H.2008L0,1.48594A34.6425,34.6425,0,0,1,7.97189,4.13655c1.18474.64257,1.5261,1.20482,1.92771,2.751l6.44578,24.91968h8.53414L37.97189.56225h-8.494"/></g></g></svg>