<?xml version="1.0" encoding="UTF-8"?>
<svg id="Capa_1" data-name="Capa 1" xmlns="http://www.w3.org/2000/svg" viewBox="0 0 70 40">
  <defs>
    <style>
      .cls-1, .cls-2 {
        stroke-width: 0px;
      }

      .cls-2 {
        fill: #50be33;
      }
    </style>
  </defs>
  <path class="cls-1" d="m12.54549,24.17801l-2.90002,10.19h-1.39001l-1.27997-5.36005c-.33002-1.28998-.54004-2.35999-.65002-3.32996-.10999.96997-.32001,2.03998-.64996,3.32996l-1.28003,5.36005h-1.39001L.10549,24.17801h1.39996l1.39001,5.03998c.32001,1.28998.64001,2.35999.85999,3.53998.21002-1.07001.42004-2.35999.75-3.53998l1.28003-5.03998h1.07996l1.28003,5.03998c.33002,1.17999.53998,2.46997.75,3.53998.21997-1.17999.53998-2.25.85999-3.53998l1.39001-5.03998h1.40002Z"/>
  <path class="cls-1" d="m12.97356,30.93415c0,1.82236,1.17917,2.57274,2.57274,2.57274.96478,0,1.50077-.2144,2.03675-.42879l.2144.96478c-.42879.2144-1.28637.42879-2.46554.42879-2.25115,0-3.64472-1.50077-3.64472-3.75191s1.28637-3.96631,3.43032-3.96631c2.35835,0,3.00153,2.14395,3.00153,3.43032v.64319c0,.10719-5.14548.10719-5.14548.10719Zm3.96631-.96478c0-.85758-.32159-2.14395-1.82236-2.14395-1.39357,0-1.92956,1.28637-2.03675,2.14395h3.85911Z"/>
  <path class="cls-1" d="m27.12364,34.04288c-.53599.2144-1.50077.53599-2.67994.53599-2.89433,0-5.03828-1.82236-5.03828-5.25268,0-3.21593,2.14395-5.35988,5.35988-5.35988,1.28637,0,2.14395.32159,2.46554.42879l-.32159,1.07198c-.53599-.2144-1.17917-.42879-2.03675-.42879-2.35835,0-3.96631,1.50077-3.96631,4.2879,0,2.46554,1.50077,4.1807,3.96631,4.1807.85758,0,1.60796-.2144,2.14395-.42879l.1072.96478Z"/>
  <path class="cls-1" d="m28.19561,23.53752l1.28637-.00095v4.60949h0c.2144-.42879.64319-.74943,1.07198-.96383.42879-.2144.85758-.42879,1.39357-.42879.96478,0,2.57274.64319,2.57274,3.10873v4.5023h-1.39357v-4.3951c0-1.17917-.42879-2.14395-1.71516-2.14395-.85758,0-1.60796.64319-1.82236,1.39357-.1072.2144-.1072.42879-.1072.64319v4.5023h-1.39357c.1072,0,.1072-10.82695.1072-10.82695Z"/>
  <path class="cls-1" d="m41.16548,32.64798v-2.78998c0-1.5-.53003-3-2.79004-3-.95996,0-1.82001.21997-2.45996.64996l.20996.75c.54004-.32996,1.29004-.53998,1.92999-.53998,1.5,0,1.82001,1.05508,1.82001,1.70504v.10004c-2.78998,0-4.5.9849-4.5,2.80491,0,1.07001.75,2.14001,2.25,2.14001,1.08002,0,1.83002-.53003,2.25-1.07001l.11005.97003h1.27997c-.09998-.51001-.09998-1.12006-.09998-1.72003Zm-1.29004-.75c0,.10999-.09998.32001-.09998.42999-.22003.64001-.85999,1.29004-1.82001,1.29004-.76001,0-1.28998-.43005-1.28998-1.29004,0-1.5,1.60999-1.71997,3.10999-1.71997h.09998v1.28998Z"/>
  <path class="cls-1" d="m44.06085,24.93109v2.03676h1.92955v1.07198h-1.92955v4.0735c0,.96478.2144,1.39357.96478,1.39357.32159,0,.64318,0,.75038-.1072l.1072.96478c-.2144.1072-.64318.2144-1.17917.2144-.64318,0-1.17917-.2144-1.50077-.53599-.42879-.42879-.53599-1.07198-.53599-1.92955v-4.07351h-1.17917v-1.07198h1.17917v-1.82236l1.39357-.2144Z"/>
  <path class="cls-1" d="m50.4927,24.1807c.64318-.1072,1.50077-.2144,2.57274-.2144,1.28637,0,2.25115.32159,2.89433.85758.53599.53599.85758,1.28637.85758,2.14395,0,.96478-.32159,1.71516-.75038,2.25115-.75038.75038-1.82236,1.17917-3.10873,1.17917-.42879,0-.75038,0-1.07198-.1072v4.07351h-1.28637c-.1072,0-.1072-10.18376-.1072-10.18376Zm1.39357,5.06491c.32159.1072.53599.08057.96478.08057,1.60796,0,2.57274-.75038,2.57274-2.14395s-.96478-2.03675-2.46554-2.03675c-.53599,0-.84145.00401-1.07198.03664v4.06349Z"/>
  <path class="cls-1" d="m62.60549,32.64798v-2.78998c0-1.5-.54004-3-2.79004-3-.95996,0-1.82001.21997-2.45996.64996l.20996.75c.54004-.32996,1.29004-.53998,1.92999-.53998,1.5,0,1.82001,1.07861,1.82001,1.72857v.10004c-2.78998,0-4.5.96137-4.5,2.78138,0,1.07001.75,2.14001,2.25,2.14001,1.08002,0,1.83002-.53003,2.25-1.07001l.11005.97003h1.27997c-.09998-.51001-.09998-1.12006-.09998-1.72003Zm-1.29004-.75c0,.10999-.09998.32001-.09998.42999-.22003.64001-.85999,1.29004-1.83002,1.29004-.75,0-1.27997-.43005-1.27997-1.29004,0-1.5,1.60999-1.71997,3.10999-1.71997h.09998v1.28998Z"/>
  <path class="cls-1" d="m64.53557,26.96784l1.60797,4.3951c.21439.53599.3216,1.07198.42879,1.50077h0c.1072-.42879.3216-.96478.42879-1.50077l1.49982-4.39509h1.39357l-1.92862,5.25267c-.96478,2.57274-1.60796,3.85911-2.57274,4.6095-.64318.53599-1.28637.85758-1.60796.85758l-.32159-1.17917c.32159-.1072.75038-.32159,1.17917-.64318.32159-.32159.85758-.85758,1.17917-1.50077.1072-.1072.1072-.2144.1072-.32159s0-.2144-.1072-.32159l-2.67994-6.75344c-.1072,0,1.39357,0,1.39357,0Z"/>
  <path class="cls-2" d="m34.52027,2.31241h1.50077c.42879,0,.96478,0,1.39357.1072,1.71516.2144,3.43032.85758,4.93108,1.71516.85758.53599,1.60796,1.17917,2.14395,1.92956-.32159.21439-.64318.32159-1.07198.42879-3.21593,1.50077-6.43185,2.89433-9.75497,4.2879-.32159.1072-.75038.1072-1.07198-.1072-.64318-.42879-1.28637-.96478-1.92955-1.39357-.1072-.1072-.32159-.21439-.53599-.32159-.1072-.1072-.32159.1072-.42879.21439-.1072.1072,0,.32159.1072.42879.53599,1.17917,1.07198,2.35835,1.60796,3.64472.1072.21439.2144.42879.32159.64319.1072.21439.42879.32159.64318.32159s.42879-.21439.53599-.21439c2.67994-1.50077,5.35988-3.10873,7.93262-4.60949,1.17917-.75038,2.46554-1.39357,3.64472-2.14395.1072-.1072.32159-.21439.42879-.21439.64318,1.07198,1.07198,2.35835,1.17917,3.64472v1.17917c-.1072,1.60796-.75038,3.10873-1.71516,4.2879-.75038.96478-1.82236,1.82236-2.89433,2.46554-1.71516.96478-3.75191,1.50077-5.78867,1.60796h-1.28637c-.75038-.1072-1.39357-.2144-2.14395-.32159-.2144-.1072-.53599-.2144-.75038-.2144s-.53599.1072-.75038.2144c-.53599.32159-1.17917.64319-1.71516.96478-.2144.1072-.42879.2144-.64319.32159-.2144.1072-.42879,0-.42879-.2144-.1072-.2144,0-.53599.1072-.75038.1072-.42879.2144-.85758.32159-1.17917.1072-.2144.1072-.53599,0-.75038s-.32159-.32159-.53599-.53599c-.42879-.32159-.85758-.75038-1.17917-1.17917-.1072-.2144-.32159-.32159-.42879-.53599-.85758-1.07198-1.50077-2.46554-1.60796-3.85911-.1072-.53599-.1072-.96478,0-1.50077.1072-1.17917.42879-2.35835,1.07198-3.43032.53599-.96478,1.28637-1.71516,2.14395-2.46554,1.28637-1.07198,2.78714-1.82236,4.3951-2.14395,1.07198-.21439,1.71516-.32159,2.25115-.32159Z"/>
</svg>