<?xml version="1.0" encoding="utf-8"?>
<!-- Generator: Adobe Illustrator 25.1.0, SVG Export Plug-In . SVG Version: 6.00 Build 0)  -->
<svg version="1.1" id="Capa_1" xmlns="http://www.w3.org/2000/svg" xmlns:xlink="http://www.w3.org/1999/xlink" x="0px" y="0px"
	 viewBox="0 0 70 40" style="enable-background:new 0 0 70 40;" xml:space="preserve">
<style type="text/css">
	.st0{fill:#15C30E;}
</style>
<desc>Created with Sketch.</desc>
<g>
	<path id="XMLID_1499_" class="st0" d="M33.3,14.8c-0.1,0-0.2,0.1-0.3,0.1c-0.2,0-0.5-0.1-0.6-0.3l0-0.1l-1.8-4c0,0,0-0.1,0-0.1
		c0-0.2,0.1-0.3,0.3-0.3c0.1,0,0.1,0,0.2,0.1l2.1,1.5c0.2,0.1,0.3,0.2,0.5,0.2c0.1,0,0.2,0,0.3-0.1l10.1-4.5C42.4,5,39.4,3.6,36,3.6
		c-5.5,0-10,3.7-10,8.3c0,2.5,1.3,4.8,3.4,6.3c0.2,0.1,0.3,0.3,0.3,0.5c0,0.1,0,0.1,0,0.2c-0.2,0.6-0.4,1.6-0.4,1.7
		c0,0.1-0.1,0.2-0.1,0.2c0,0.2,0.1,0.3,0.3,0.3c0.1,0,0.1,0,0.2-0.1l2.2-1.3c0.2-0.1,0.3-0.2,0.5-0.2c0.1,0,0.2,0,0.3,0
		c1,0.3,2.1,0.5,3.3,0.5c5.5,0,10-3.7,10-8.3c0-1.4-0.4-2.7-1.1-3.8L33.3,14.8L33.3,14.8z"/>
	<g id="XMLID_784_">
		<path id="XMLID_1498_" d="M11.2,29.2L11,29.9c-0.2,0.6-0.3,1.1-0.5,1.7c-0.2-0.8-0.4-1.6-0.6-2.4L8.6,24l0-0.1H7.6l-1.5,5.3
			c-0.3,0.9-0.5,1.7-0.7,2.4C5.3,31,5.1,30.4,5,29.7L3.5,24l0-0.1h-1l2.5,9.4l0,0.1h0.9L7.4,28c0.3-0.9,0.5-1.6,0.6-2.3
			c0.1,0.7,0.3,1.4,0.6,2.3l1.4,5.3l0,0.1h0.9l2.8-9.4l0-0.2h-1L11.2,29.2z"/>
		<path id="XMLID_1492_" d="M17,26.4c-1.9,0-3.1,1.5-3.1,3.7c0,2.1,1.3,3.5,3.2,3.5c1.2,0,1.9-0.3,2.1-0.4l0.1-0.1L19,32.2l-0.1,0
			c-0.3,0.2-0.8,0.3-1.7,0.3c-1.4,0-2.2-0.9-2.3-2.6h4.8l0-0.1c0-0.1,0-0.2,0-0.4c0-0.3,0-1.1-0.5-1.9C18.8,26.8,18,26.4,17,26.4
			 M15,29.2c0.3-1.4,1.2-1.9,2-1.9c0.5,0,0.9,0.2,1.2,0.5c0.4,0.4,0.5,1.1,0.6,1.5H15z"/>
		<path id="XMLID_1449_" d="M27.4,32.2L27.4,32.2c-0.5,0.2-1.2,0.4-1.9,0.4c-2.3,0-3.7-1.5-3.7-3.9c0-2.5,1.4-4.1,3.8-4.1
			c0.7,0,1.3,0.1,1.8,0.3l0.1,0l0.5-0.8l-0.1-0.1c-0.2-0.1-0.9-0.4-2.2-0.4c-2.9,0-4.8,2-4.8,5c0,3.6,2.4,4.8,4.5,4.8
			c1.2,0,2.1-0.2,2.6-0.5L28,33l-0.5-0.8L27.4,32.2z"/>
		<path id="XMLID_1448_" d="M32.1,26.4c-0.5,0-1,0.1-1.4,0.4c-0.2,0.1-0.5,0.3-0.6,0.5v-3.6h-1v9.7h1v-4.2c0-0.2,0-0.4,0.1-0.6
			c0.3-0.8,1-1.3,1.8-1.3c1.4,0,1.6,1.3,1.6,2.1v4h1v-4.1C34.6,26.5,32.6,26.4,32.1,26.4"/>
		<path id="XMLID_1035_" d="M43.6,25h-1v1.5h-1.1v0.8h1.1v3.9c0,0.8,0.1,1.3,0.4,1.7c0.3,0.3,0.7,0.5,1.3,0.5c0.4,0,0.7-0.1,1-0.2
			l0.2-0.1L45,32.6l-0.1,0c-0.2,0-0.3,0-0.6,0c-0.5,0-0.8-0.3-0.8-1.2v-4.1h1.9v-0.8h-1.9V25z"/>
		<path id="XMLID_1010_" d="M52.1,23.8c-0.7,0-1.3,0.1-2,0.2l-0.1,0v9.4h1v-3.9c0.3,0.1,0.6,0.1,0.9,0.1c1.2,0,2.2-0.4,2.8-1.1
			c0.5-0.5,0.7-1.1,0.7-2c0-0.8-0.3-1.5-0.8-1.9C54.1,24.1,53.2,23.8,52.1,23.8 M50.9,24.8c0.2,0,0.6-0.1,1.1-0.1
			c1.5,0,2.3,0.7,2.3,1.9c0,1.3-0.9,2.1-2.4,2.1c-0.3,0-0.7,0-1-0.1V24.8z"/>
		<path id="XMLID_792_" d="M66.5,26.5l-1.6,4.3c-0.1,0.3-0.2,0.7-0.3,1c-0.1-0.3-0.2-0.6-0.3-0.9l-1.7-4.3l0-0.1h-1.1l2.5,6.3
			C64,33,64,33,64,33c0,0,0,0.1-0.1,0.2c-0.3,0.8-0.7,1.3-1,1.6c-0.4,0.4-0.9,0.6-1.1,0.7l-0.2,0.1l0.8,0.8l0,0
			c0.2-0.1,0.4-0.3,0.9-0.7c0.9-0.8,1.4-1.9,2.3-4l2-4.9l0.1-0.2H66.5z"/>
		<path id="XMLID_789_" d="M40.7,31.7v-2.6c0-1.8-0.8-2.7-2.4-2.7c-0.7,0-1.5,0.2-2,0.6L36.2,27l0.4,0.8l0.1-0.1
			c0.4-0.3,0.9-0.4,1.5-0.4h0c0.4,0,0.8,0.1,1,0.4c0.3,0.3,0.4,0.7,0.4,1.4c-1.6,0-2.7,0.3-3.3,1c-0.4,0.4-0.6,0.9-0.6,1.6
			c0,1,0.7,2,2.1,2c1,0,1.6-0.5,2-0.8l0.1,0.7h1l0-0.2C40.7,32.7,40.7,32.2,40.7,31.7 M37.1,30.5c0.4-0.4,1.3-0.6,2.5-0.6l0.1,0
			l0,1.2c0,0.1,0,0.2-0.1,0.3c-0.2,0.6-0.8,1.2-1.8,1.2c-0.5,0-1.1-0.3-1.1-1.2C36.8,31.1,36.9,30.8,37.1,30.5"/>
		<path id="XMLID_785_" d="M60.6,31.7v-2.6c0-1.8-0.8-2.7-2.4-2.7c-0.7,0-1.4,0.2-1.9,0.5L56.1,27l0.4,0.8l0.1-0.1
			c0.4-0.2,0.9-0.4,1.4-0.4h0c0.4,0,0.8,0.1,1,0.4c0.3,0.3,0.4,0.7,0.4,1.4c-1.6,0-2.7,0.3-3.3,1c-0.4,0.4-0.6,0.9-0.6,1.6
			c0,0.9,0.7,2,2.1,2c1,0,1.6-0.5,2-0.8l0.1,0.7h1l0-0.2C60.6,32.7,60.6,32.2,60.6,31.7 M59.6,31.1c0,0.1,0,0.2-0.1,0.3
			c-0.2,0.6-0.8,1.2-1.8,1.2c-0.5,0-1.1-0.3-1.1-1.2c0-0.4,0.1-0.7,0.4-0.9c0.4-0.4,1.3-0.6,2.5-0.6l0.1,0L59.6,31.1z"/>
	</g>
</g>
</svg>
