<?xml version="1.0" encoding="UTF-8"?>
<svg id="Layer_1" data-name="Layer 1" xmlns="http://www.w3.org/2000/svg" viewBox="0 0 70 40">
  <defs>
    <style>
      .cls-1 {
        fill-rule: evenodd;
      }

      .cls-1, .cls-2 {
        fill: #053840;
      }

      .cls-1, .cls-2, .cls-3 {
        stroke-width: 0px;
      }

      .cls-3 {
        fill: #ec0000;
      }
    </style>
  </defs>
  <path class="cls-1" d="M4.30649,30.9117c-.18143-.43662-.43859-.76444-.77146-.98184-.33291-.2156-.72216-.3242-1.16603-.3242-.35401,0-.65169.07783-.89299.23189-.2413.15385-.44739.37488-.61823.66107v-3.1736C.52488,27.32501.23778,27.37026,0,27.46077v7.7733c.57244.21741,1.21005.32601,1.91106.32601.90005,0,1.56936-.26447,2.00793-.7936.43859-.52873.65875-1.27507.65875-2.24243,0-.63593-.09159-1.17391-.27124-1.61234ZM3.70764,32.55642c0,.71396-.14445,1.27366-.43331,1.67569-.28886.40404-.7468.60516-1.37562.60516-.40861,0-.75736-.05249-1.0427-.15747v-3.73008c.17789-.20272.36987-.35678.57772-.46176.20784-.10518.43859-.15767.69045-.15767.51784,0,.91063.18844,1.18011.56694.26948.37669.40335.93116.40335,1.6592Z"/>
  <path class="cls-2" d="M8.11251,36.16141l2.22635-6.41999h-.87715l-1.59404,4.92732-1.73667-4.92732h-.91943l2.26861,6.03064c-.11623.3785-.24304.67394-.37867.88752-.13563.21198-.2871.36221-.45443.44567-.16733.08528-.35933.1267-.57774.1267-.08807,0-.19375-.01428-.31704-.04143-.04932.29503-.07221.54341-.07221.74634.14973.04143.31.06315.48084.06315.47732,0,.86835-.15204,1.17481-.45633.30648-.3061.5654-.76625.77676-1.38226Z"/>
  <path class="cls-2" d="M66.52029,3.20309l.00235-.00517.00059-.00251.00117-.00249c.00098-.00165.00176-.00507.00176-.00507.08839-.22229.22058-.43073.39735-.61103.70357-.71881,1.84496-.71881,2.54833,0,.70376.71893.70376,1.88459,0,2.60349-.17677.1803-.38092.31519-.59797.40503l-.00508.00211-.00508.00219-.00528.00211c-.00156.00068-.00254.00139-.0043.00209l-.00508.00219-.00528.00201-.00508.00221c-.00176.00068-.00411.00209-.00411.00209l-.01037.0042-.00528.00219-.00508.00211-.00293.00145-.01173.00485-.00508.00221-.00235.00109-.00195.00101-.01545.00632-.00528.00219c-.00156.00068-.00411.00211-.00411.00211l-.02053.00841s-.00273.00149-.00449.00219l-.01545.00632-.00332.00173-.00587.00247-.00528.00217-.01036.00422-.00332.00175-.00606.00245-.00508.00219-.00528.00211c-.00156.00068-.0043.00209-.0043.00209l-.00508.00219-.00528.00201-.00508.00221-.00508.00209s-.00254.00141-.0043.00211l-.00508.00209-.00508.00219-.00508.00211-.00196.00082-.00254.00127-.01037.0042-.00508.00221c-.00176.00068-.00411.00201-.00411.00201l-.00528.00219-.01544.00632c-.00176.0007-.00254.00147-.0043.00219l-.02053.00841s-.00273.00149-.00449.00219l-.01525.00632-.00196.00101-.00235.00109-.00508.00211-.00508.00217-.01037.00422s-.00274.00149-.00449.00219l-.01525.00632c-.00176.00068-.0043.00209-.0043.00209l-.00528.00211-.00508.00219-.01037.0042s-.00254.00141-.00411.00211l-.01037.0042-.00508.00219-.00235.00109-.00215.00101-.01545.00632c-.00156.0007-.00411.00211-.00411.00211l-.00508.00219-.01545.00632c-.00176.0007-.00449.00219-.00449.00219l-.01017.00418-.00528.00221-.00508.00209s-.00254.00141-.0043.00201l-.00508.00219-.01036.00422-.0043.00219-.00508.00209-.00508.00203-.00528.00219-.00294.00135-.00137.00074-.01037.0042-.00508.00219-.00508.00211c-.00175.00068-.0043.00209-.0043.00209l-.01017.00422-.00528.00219-.00508.00209s-.00274.00141-.0043.00211l-.01037.0042-.00508.00219-.00215.00104-.00215.00105-.00528.00211-.00508.00219-.00528.00201-.00508.00219s-.00254.00141-.00411.00211l-.01037.0042-.00508.00219c-.00176.00062-.00449.00201-.00449.00201l-.00508.00219-.01037.00422-.00508.00217s-.00254.00141-.00411.00211l-.00528.00201-.00508.00219-.00528.00211c-.00156.0007-.00254.00139-.0043.00209l-.00508.00211-.00508.00217-.00528.00213c-.00156.00068-.0043.00209-.0043.00209l-.00508.00209-.00528.00219-.01017.00422-.00254.00113-.00176.00097-.01017.00422-.00508.00219-.00528.00209s-.00254.00141-.0043.00211l-.01037.0042-.00508.00219c-.00176.0007-.00254.00139-.0043.00209l-.01017.00422-.00528.00219-.00508.00209s-.00254.00141-.0043.00211l-.01545.00631-.0043.00219-.02073.00841s-.00235.00149-.00411.00219l-.01545.00632-.00215.00101-.00215.00109-.00528.00211-.00508.00217-.01036.00422s-.00254.00149-.00411.00209l-.00528.00219-.01037.00422c-.00176.0007-.00254.00139-.00411.00209l-.00528.00219-.00508.00203-.00508.00209-.00528.00219-.00235.00131-.00195.0008-.00508.00209-.00528.00221-.00508.00201-.00274.00147-.00137.0007-.01545.00631-.00215.00088-.00235.00131-.00508.00201-.00508.00219-.01037.00422c-.00176.0007-.00254.00149-.0043.00219l-.02073.00841s-.00235.00149-.00411.00219l-.01544.00632c-.00176.0007-.00274.00149-.0043.00209l-.00528.00219-.01545.00632-.00175.00103-.00235.00107-.00508.00211-.00528.00221-.00508.00209-.0043.00209-.00528.00219-.01545.00632s-.00254.00141-.0043.00211l-.00508.00209-.00508.00221-.00528.00209-.00215.00101-.00195.00101-.00528.00219-.01017.0042-.00508.00219s-.00274.00141-.0045.00211l-.01544.00632-.00215.00105-.00195.00105-.00528.00219-.00508.00211-.00508.00219-.00528.00201s-.00254.00149-.0043.00219l-.01544.00632c-.00176.0007-.0043.00219-.0043.00219l-.00508.00201-.00528.00217-.01017.00422s-.00254.00141-.0043.00209l-.00508.00219-.00508.00203-.00528.00219c-.00175.0007-.0043.00209-.0043.00209l-.00508.00211-.00528.00219-.00508.00211-.00508.00201s-.00254.00149-.0043.00219l-.00508.00211-.00528.00219-.00508.00209c-.00176.00062-.0043.00209-.0043.00209l-.01544.00632-.00508.00219s-.00274.00141-.0045.00211l-.00508.00209-.00508.00221-.00528.00201-.00195.00109-.00215.00111-.01544.00632-.00508.00217-.00176.00078-.00274.00123-.00508.00219-.01037.00422c-.00156.0007-.00411.00209-.00411.00209l-.00528.00219-.01545.00632-.00235.00133-.00196.00076-.00508.00213-.00508.00219-.00528.00209c-.00156.0007-.00254.00139-.0043.00209l-.00508.00211-.00528.00219-.01017.0042-.00215.00105-.00215.00107-.00508.00211-.00508.00219-.00528.00209c-.00156.0007-.0043.00209-.0043.00209l-.02053.00843-.00196.00112-.00235.00107-.01037.0042-.00508.00219c-.00176.00062-.0043.00201-.0043.00201l-.00508.00219-.01036.00422-.00352.00153-.00606.00276-.01545.00632-.00215.00097-.00196.00113-.00508.00211-.00528.00219-.01017.0042s-.00273.00149-.00449.00209l-.00508.00219-.01017.00422-.00215.00105-.00235.00105-.01017.00422-.00528.00219-.00508.00209-.00215.00105-.00215.00107-.00508.00217-.00508.00203-.00508.00211c-.00176.00078-.0045.00217-.0045.00217l-.01017.00422-.00528.00219-.00508.00201s-.00254.00149-.0043.00219l-.01545.00632-.0043.00219-.01545.00632c-.37134.15548-.81425.07922-1.11636-.22931-.30192-.30843-.37662-.76098-.22468-1.14087l.00157-.00499.00254-.00517.00175-.00501.00254-.00507.00039-.00221.00137-.00288.00274-.00501s.00058-.00326.00156-.00493c.00078-.00167.00176-.00523.00176-.00523l.00254-.00509.00098-.00249.00078-.00249.00254-.00509s.00078-.00342.00176-.00509c.00078-.00159.00176-.00509.00176-.00509l.00254-.00509c.00098-.00165.00156-.00499.00156-.00499l.00274-.00517c.00078-.00165.00078-.00332.00176-.00499l.00235-.00509s.00098-.00342.00176-.00509l.00117-.00221.00059-.00278.00273-.00509c.00078-.00167.00078-.00342.00157-.00517l.00254-.00499s.00097-.00334.00175-.00501c.00098-.00175.00176-.00509.00176-.00509l.00254-.00507c.00078-.00177.00176-.00509.00176-.00509l.00254-.00501c.00098-.00175.00098-.00342.00156-.00517l.00274-.00499s.00078-.00342.00176-.00517c.00078-.00167.00176-.00501.00176-.00501l.00235-.00499c.00098-.00175.00098-.00342.00176-.00509l.00274-.00509s.00078-.00342.00156-.00509l.00254-.00499.00058-.00272.00118-.00245c.00098-.00167.00176-.00501.00176-.00501l.00254-.00507c.00078-.00167.00078-.00342.00176-.00509l.00254-.00501s.00098-.00342.00176-.00507c.00078-.00167.00156-.00519.00156-.00519l.00273-.00499.00176-.00499.00254-.00509c.00078-.00175.00078-.00342.00157-.00509l.00273-.00509s.00078-.00316.00156-.00483c.00098-.00167.00176-.00533.00176-.00533l.00254-.00501.00098-.00257.00078-.00259.00254-.00499s.00098-.00334.00176-.00501c.00098-.00175.00176-.00509.00176-.00509l.00254-.00507c.00078-.00177.00176-.00509.00176-.00509l.00254-.00509.00098-.00249.00078-.00249.00254-.00509s.00078-.00342.00176-.00509c.00078-.00167.00176-.00509.00176-.00509l.00254-.00499c.00078-.00175.00078-.00342.00156-.00509l.00274-.00517c.00078-.00165.00078-.00332.00175-.00499l.00235-.00509s.00097-.00332.00176-.00501c.00097-.00167.00175-.00515.00175-.00515l.00274-.00501.00078-.0029.00078-.00217.00254-.00509s.00098-.00334.00176-.00501.00176-.00507.00176-.00507l.00254-.00519c.00078-.00167.00176-.00499.00176-.00499l.00254-.00499c.00098-.00177.00098-.00342.00156-.00509l.00274-.00509s.00078-.00342.00176-.00509c.00078-.00167.00176-.00499.00176-.00499l.00235-.00509c.00098-.00175.00098-.00342.00176-.00509l.00274-.00509.00137-.00465c.00098-.00167.00196-.00543.00196-.00543l.00254-.00517c.00098-.00167.00176-.00501.00176-.00501l.00254-.00507.00078-.00251.00097-.00249.00254-.00517s.00098-.00334.00176-.00499c.00078-.00177.00157-.00509.00157-.00509l.00273-.00509c.00078-.00167.00176-.00509.00176-.00509l.00254-.00499s.00078-.00328.00156-.00497l.00274-.00521s.00078-.00332.00176-.00499c.00078-.00169.00156-.00517.00156-.00517l.00254-.00501c.00098-.00175.00098-.00342.00176-.00517l.00254-.00499s.00098-.00334.00176-.00501c.00098-.00175.00176-.00509.00176-.00509l.00254-.00517c.00078-.00167.00176-.00499.00176-.00499l.00254-.00509.00098-.00253.00078-.00255.00254-.00499s.00078-.00342.00176-.00509c.00078-.00167.00175-.00509.00175-.00509l.00254-.00507.00157-.00501.00273-.00509.00059-.00314.00117-.00201c.00078-.00167.00156-.00493.00156-.00493l.00254-.00515c.00098-.00167.00176-.00509.00176-.00509l.00274-.00501.00058-.00253.00098-.00253.00254-.00509s.00098-.00334.00176-.00501c.00098-.00175.00176-.00517.00176-.00517l.00254-.00499.00176-.00501.00254-.00517s.00098-.00342.00156-.00509l.00274-.00499.00039-.00227.00137-.00282c.00078-.00167.00176-.00509.00176-.00509l.00235-.00499c.00098-.00175.00098-.00342.00176-.00509l.00273-.00509s.00059-.00342.00157-.00507c.00078-.00167.00176-.00509.00176-.00509l.00254-.00501.00118-.00274.00058-.00233.00254-.00509.00118-.00372.00313-.00646s.00098-.00332.00176-.00499.00156-.00509.00156-.00509l.00274-.00509c.00078-.00167.00078-.00332.00176-.00509l.00254-.00509s.00078-.00332.00156-.00499l.00274-.00509s.00078-.00332.00156-.00509c.00098-.00165.00176-.00507.00176-.00507l.00254-.00509.00098-.00249.00078-.00249.00254-.00501s.00098-.0035.00176-.00517c.00098-.00167.00176-.00499.00176-.00499l.00254-.00509.00117-.00255.00059-.00253.00254-.00509s.00097-.00332.00175-.00499l.00254-.00517s.00078-.00334.00176-.00501c.00078-.00167.00176-.00509.00176-.00509l.00254-.00507.00078-.00249.00078-.00251.00274-.00509s.00058-.00308.00137-.00467c.00097-.00165.00215-.00549.00215-.00549l.00235-.00507.00156-.00324.0002-.00177.00274-.00509c.00058-.00165.00058-.00332.00156-.00507l.00254-.00519s.00098-.00324.00176-.00491c.00098-.00175.00176-.00507.00176-.00507l.00254-.00501.00098-.00346.00078-.00179.00254-.00491s.00078-.00342.00156-.00509l.00274-.00517s.00078-.00334.00175-.00501c.00079-.00167.00176-.00509.00176-.00509l.00235-.00507c.00097-.00167.00097-.00334.00176-.00501l.00273-.00509s.00059-.00342.00156-.00517c.00078-.00159.00176-.00491.00176-.00491l.00254-.00517c.00098-.00167.00176-.00499.00176-.00499l.00254-.00509s.00078-.00342.00176-.00509l.00254-.00499s.00078-.00342.00176-.00509c.00078-.00167.00156-.00509.00156-.00509l.00274-.00509.00078-.0028.00098-.00229.00254-.00499s.00078-.00334.00156-.00509l.00274-.00509.00078-.00302.00078-.00205c.00098-.00167.00176-.00501.00176-.00501l.00254-.00509.00098-.00253.00078-.00253.00254-.00509s.00097-.00334.00176-.00509c.00097-.00167.00175-.00499.00175-.00499l.00254-.00509.00079-.00253.00097-.00255.00254-.00509s.00098-.00332.00176-.00509l.00254-.00499s.00078-.00342.00176-.00509c.00078-.00167.00176-.00509.00176-.00509l.00235-.00499.00098-.00298.00078-.00211.00274-.00509s.00078-.0034.00176-.00507c.00078-.00165.00156-.00509.00156-.00509l.00254-.00499.00137-.00304.00039-.00205.00274-.00509c.00058-.00175.00058-.00342.00156-.00507l.00254-.00501s.00078-.0033.00156-.00497c.00098-.00165.00176-.00519.00176-.00519l.00274-.00509.00078-.00255.00097-.00253.00254-.00499s.00079-.00334.00157-.00509c.00097-.00169.00176-.00509.00176-.00509l.00273-.00509c.00078-.00167.00156-.00509.00156-.00509l.00254-.00499.00098-.00255.00078-.00253.00274-.00509s.00058-.0032.00156-.00479l.00137-.00318.00039-.00211.00254-.00509.00098-.00253.00078-.00253.00254-.00509.00058-.00263.00118-.00237.00254-.00507s.00078-.00342.00156-.00519c.00098-.00165.00176-.00499.00176-.00499l.00274-.00499.00078-.00259.00098-.00259.00254-.00499s.00078-.00342.00156-.00509c.00098-.00167.00176-.00509.00176-.00509l.00254-.00499c.00097-.00175.00097-.00342.00176-.00509l.00254-.00517s.00097-.00334.00175-.00499l.00254-.00509s.00098-.00334.00176-.00501c.00098-.00175.00176-.00507.00176-.00507l.00254-.00519c.00078-.00165.00078-.00332.00176-.00499l.00254-.00509s.00098-.00332.00176-.00499c.00078-.00175.00156-.00509.00156-.00509l.00274-.00509c.00058-.00159.00176-.00509.00176-.00509l.00235-.00499c.00098-.00173.00098-.0035.00176-.00517l.00274-.00501s.00078-.00332.00176-.00507c.00078-.00165.00156-.00507.00156-.00507l.00254-.00509.00176-.00501.00254-.00517s.00078-.00324.00176-.00491l.00254-.00509s.00097-.0035.00175-.00517c.00098-.00167.00157-.00499.00157-.00499l.00273-.00509.00078-.00251.00098-.00247.00235-.00519s.00097-.00332.00175-.00509c.00098-.00165.00176-.00499.00176-.00499l.00274-.00509c.00078-.00165.00156-.00499.00156-.00499l.00254-.00517c.00098-.00167.00098-.00334.00176-.00509l.00274-.00501s.00058-.00332.00156-.00499c.00078-.00175.00176-.00517.00176-.00517l.00254-.00501c.00098-.00165.00098-.00342.00156-.00507l.00274-.00509s.00078-.00318.00156-.00483l.00137-.00278.00059-.00247.00254-.00517c.00078-.00161.00156-.00501.00156-.00501l.00274-.00509c.00078-.00165.00078-.00332.00175-.00499l.00254-.00509s.00078-.00342.00157-.00509c.00097-.00165.00175-.00499.00175-.00499l.00254-.00517c.00098-.00167.00098-.00334.00176-.00509l.00254-.00499s.00098-.00342.00176-.00509l.00254-.00501s.00098-.0034.00176-.00507c.00098-.00169.00176-.00517.00176-.00517l.00254-.00501c.00078-.00167.00078-.00332.00176-.00499l.00254-.00517s.00098-.00334.00176-.00509c.00078-.00167.00156-.00501.00156-.00501l.00274-.00507c.00078-.00167.00176-.00501.00176-.00501l.00235-.00509s.00098-.00328.00156-.00495l.00294-.00529s.00058-.00312.00156-.00471c.00078-.00169.00176-.00539.00176-.00539l.00254-.00507.00097-.00251.00079-.00249.00254-.00509s.00079-.00318.00157-.00487l.00273-.00529s.00098-.00334.00176-.00501.00156-.00517.00156-.00517l.00274-.00491c.00078-.00175.00078-.00342.00176-.00517l.00235-.00509s.00098-.00332.00176-.00499c.00098-.00167.00176-.00509.00176-.00509l.00274-.00509c.00078-.00175.00078-.00332.00156-.00499l.00254-.00509s.00098-.00342.00176-.00509l.00274-.00499s.00058-.00342.00156-.00517c.00078-.00167.00176-.00509.00176-.00509l.00254-.00509.00098-.00249.00058-.00249.00274-.00509s.00078-.00334.00176-.00499c.00078-.00177.00175-.00519.00175-.00519l.00254-.00499c.00079-.00167.00157-.00509.00157-.00509l.00273-.00509.00078-.00249.00098-.00249Z"/>
  <path class="cls-2" d="M63.51771,4.94523l.00254.00501.00078.00253.00097.00253c.15272.37997.07803.83252-.22409,1.14087-.30192.30845-.74561.38479-1.11714.22931l-.01017-.00422-.0045-.00209-.00508-.00219-.01544-.00632-.00411-.00219-.00528-.00201-.00508-.00219-.00508-.00211-.00235-.00105-.00215-.00107-.00508-.00217-.00508-.00211-.00528-.00203-.00273-.00133-.00137-.00084-.01036-.0042-.00528-.00219-.00508-.00211-.00196-.00109-.00235-.00103-.01545-.00632-.0043-.00219-.01544-.00629-.00508-.00219-.0043-.00211-.01545-.00632-.0043-.00209-.00508-.00219-.01544-.00632-.0043-.00219-.00528-.00201-.00508-.00219-.00508-.00211-.0043-.00209-.00508-.00219-.01544-.00632-.00215-.00101-.00235-.00111-.00508-.00209-.00508-.00219-.00528-.00209-.00411-.00211-.01545-.00632-.00508-.00219-.00449-.00211-.01545-.00631-.0043-.00219-.02053-.00841-.00215-.00109-.00215-.00111-.01545-.00631-.00508-.00219-.00235-.00123-.00196-.00078-.00528-.00217-.01017-.00422-.00235-.00111-.00195-.00099-.00508-.00219-.00508-.00201-.00528-.00221-.00215-.00097-.00215-.00113-.00508-.00219-.01545-.00632-.00156-.00093-.00274-.00119-.01036-.00418-.00508-.00219-.00528-.00211-.00332-.00177-.00587-.00243-.00528-.00211-.00508-.00219-.00449-.00211-.00508-.00209-.00508-.00219-.00508-.00203-.00196-.00086-.00235-.00123-.00508-.00219-.01037-.00422-.00528-.00217-.00215-.00111-.00196-.00101-.01544-.00632-.00294-.00121-.00156-.00088-.00508-.00219-.01545-.00632-.00215-.00109-.00196-.00111-.01545-.00632-.00449-.00209-.00508-.00211-.00508-.00219-.01037-.0042-.0043-.00211-.01017-.00418-.00528-.00221-.00508-.00209-.0043-.00211-.01037-.0042-.00508-.00219-.00215-.00105-.00215-.00107-.01037-.00418-.00508-.00221-.0043-.00211-.02053-.00841-.0043-.00219-.00528-.00201-.00508-.00219-.00508-.00211-.0043-.00209-.00508-.00219-.01565-.00632-.00196-.00101-.00215-.00109-.00528-.00219-.01017-.00422-.00528-.00219-.00215-.00113-.00215-.00088-.00508-.00209-.00528-.00219-.00508-.00211-.00411-.00211-.01037-.00418-.00508-.00221-.00528-.00209-.0043-.00211-.00508-.00219-.00528-.00209-.00508-.00203-.00215-.00109-.00215-.00111-.01037-.00418-.00508-.00221-.0043-.00211-.01544-.00632-.00508-.00217-.0043-.00211-.01545-.00632-.0043-.00209-.00508-.00219-.01544-.00632-.00215-.00105-.00215-.00105-.00508-.00219-.01037-.00422-.0043-.00209-.01036-.0042-.00508-.00219-.00528-.00211-.00196-.00105-.00215-.00107-.00508-.00209-.00528-.00219-.01017-.0042-.0045-.00211-.00508-.00209-.00508-.00219-.00528-.00211-.00254-.00129-.00156-.00082-.01545-.00632-.0043-.00219-.02073-.00841-.00235-.00117-.00195-.00103-.01037-.0042-.00508-.00219-.00411-.00201-.00528-.00211-.00508-.00217-.00508-.00213-.00528-.00219-.0043-.00209-.00508-.00201-.00528-.00211-.00508-.00219-.0043-.00209-.00508-.00211-.00508-.00219-.00528-.00201-.00508-.00219-.0043-.00211-.01037-.0042-.00508-.00219-.00508-.00209-.0045-.00211-.00508-.00209-.00508-.00219-.00528-.00211-.00411-.00211-.01544-.00632-.0043-.00219-.01037-.00418-.00508-.00219-.00528-.00203-.00411-.00209-.00528-.00219-.01037-.00422-.00508-.00219-.0043-.00201-.00508-.00217-.01037-.00422-.0043-.00209-.00508-.00219-.01036-.00422-.00411-.00209-.00528-.00211-.00508-.00219-.01017-.0042-.00215-.00099-.00235-.00113-.00508-.00209-.00528-.00219-.00508-.00211-.0043-.00209-.01545-.00632-.00508-.00219-.0043-.00211-.00508-.00209-.00508-.00219-.00528-.00203-.00508-.00209-.0045-.00218-.01017-.00422-.00508-.00217-.00176-.0008-.00254-.00131-.01545-.00632-.0043-.00209-.00508-.00219-.01545-.00632-.0045-.00219-.02053-.00841-.00411-.00211-.00528-.00219-.01017-.0042-.00254-.00117-.00196-.00095-.01017-.0042-.00528-.00219-.00508-.00209-.00215-.00119-.00196-.00093-.01564-.00632-.00196-.00103-.00235-.00117-.01017-.0042-.00528-.00219-.00508-.00201-.00156-.0009-.00273-.00129-.01545-.00632-.00215-.00109-.00215-.00111-.01545-.00632-.0043-.00209-.00508-.00219-.01544-.00632-.0043-.00209-.00508-.00211-.00528-.00219-.01017-.0042-.0043-.00211-.00528-.00209-.00508-.00221-.00508-.00209-.0045-.00211-.01017-.0042-.00528-.00219-.00411-.00209-.00508-.00211-.00528-.00219-.00508-.00211-.00508-.00201-.0045-.00219-.01017-.0042-.00528-.00219-.00411-.00211c-.21803-.08984-.42218-.22473-.59895-.40503-.70376-.71891-.70376-1.88457,0-2.60349.70455-.71881,1.84476-.71881,2.54931,0,.17599.1803.30798.38865.39637.61103l.00098.00253.00078.00253.00254.00509.00176.00501.00254.00507.00176.00509.00175.00509.00254.00499.00118.00378.00058.00141.00254.00499.00176.00509.00156.00507.00254.00501.00176.00517.00274.00499.00156.00509.00254.00501.00176.00517.00176.00499.00254.00509.00118.00372.00313.00636.00176.00509.00156.00517.00274.00501.00176.00499.00235.00517.00176.00501.00273.00507.00176.00509.00157.00501.00254.00507.00176.00509.00274.00509.00156.00487.00254.00529.00156.00457.00176.00553.00274.00499.00176.00517.00254.00501.00078.00308.00078.00199.00176.00509.00274.00509.00156.00499.00254.00517.00176.00501.00274.00499.00156.00497.00176.00521.00254.00509.00176.00499.00254.00517.00175.00509.00176.00499.00254.00509.00156.00509.00274.00499.00176.00509.00254.00517.00176.00501.00156.00507.00254.00509.00098.00302.00078.00199.00274.00507.00156.00509.00254.00501.00176.00517.00176.00509.00254.00499.00176.00509.00254.00499.00078.00316.00098.00193.00156.00509.00273.00509.00079.00249.00097.00249.00235.00509.00078.00205.00098.00304.00273.00509.00176.00499.00078.00195.00078.00314.00254.00515.00118.00364.00313.00644.00176.00509.00176.00501.00254.00507.00156.00509.00274.00501.00078.00259.00098.00257.00235.00509.00176.00499.00176.00509.00274.00499.00058.00259.00098.00257.00254.00501.00176.00509.00254.00507.00176.00501.00175.00517.00254.00499.00098.00251.00078.00249.00254.00517.00156.00483.00118.00249.00078.00276.00254.00509.00078.00239.00098.00269.00254.00499.00078.00259.00078.00257.00274.00501.00058.00249.00118.00259.00156.00507.00254.00509.00176.00501.00254.00507.00176.00501.00176.00517.00254.00499.00176.00509.00254.00509.00078.00249.00097.00249.00254.00519.00157.00499.00176.00509.00273.00509.00176.00509.00235.00499.00176.00509.00274.00507.00176.00509.00156.00509.00254.00499.00176.00509.00254.00507.00176.00509.00176.00501.00254.00507.00078.00211.00078.00298.00274.00509.00176.00499.00235.00509.00176.00509.00176.00509.00273.00509.00098.00342.00059.00165.00254.00501.00078.00298.00097.00211.00176.00507.00254.00501.00176.00509.00254.00507.00176.00509.00254.00509.00176.00509.00176.00499.00254.00509.00078.00255.00098.00253.00254.00499.00156.00509.00274.00509.00156.00509.00176.00499.00254.00517.00098.00249.00078.00251.00254.00507.00176.00509.00176.00509.00254.00499.00176.00509.00254.00509.00078.00253.00098.00255.00254.00499.00078.0031.00078.00191.00176.00525.00274.00501.00078.00253.00098.00253.00235.00501.00176.00509.00176.00507.00274.00501.00156.00509.00254.00507.00098.00253.00078.00255.00254.00507.00176.00509.00176.00501.00254.00507.00078.00255.00078.00253.00274.00509.00175.00499.00235.00509.00176.00509.00175.00509.00274.00499.00156.00509.00254.00517.00176.00501.00118.00276.00058.00231.00254.00501.00118.00336.00058.00171.00254.00509.00176.00509.00254.00499.00098.00372.00078.00137.00176.00519.00254.00499.00058.00183.00098.00326.00274.00509.00156.00499.00176.00517.00254.00501.00137.00304.00039.00203.00254.00501.00097.00253.00079.00255.00273.00507.00078.00332.00078.00169.00176.00509.00254.00517.00176.00509.00254.00499.00176.00499.00254.00509.00156.00509.00137.00278.00039.00231.00274.00499.00078.00257.00098.00259.00235.00509.00176.00501.00156.00392.00294.00623.00058.00249.00098.00251.00254.00507.00176.00509.00254.00507.00176.00501.00175.00517.00254.00499.00157.00509.00273.00501.00156.00495.00176.00531.00254.00499.00176.00499.00274.00509.00058.00259.00098.00257.00254.00501.00176.00479.00176.00537.00254.00509.00118.00364.00313.00644.00176.00509.00254.00509.00176.00499.00176.00519.00254.00499.00156.00499.00273.00509.00157.00497.00176.00521.00254.00507.00097.00255.00078.00253.00254.00509.00098.00253.00078.00255.00254.00499.00176.00501.00176.00517.00254.00509.00098.00249.00078.00249.00254.00509.00176.00509.00176.00509.00235.00499.00176.00509.00274.00509.00176.00499.00235.00517.00039.00223.00137.00278.00176.00499.00254.00509.00078.00257.00098.00257.00254.00501.00175.00501.00254.00515.00079.00298.00097.00211.00176.00509.00254.00499.00078.00251.00078.00249.00274.00517.00176.00509.00156.00499.00254.00499.00176.00519.00274.00507.00058.00251.00098.00249.00254.00509.00176.00507.00176.00501.00254.00509.00176.00517.00254.00491.00176.00517.00156.00509.00273.00509.00176.00499.00254.00509.00078.00253.00079.00255.00273.00499.00059.0028.00097.00229.00176.00499.00254.00517.00118.00348.00058.00161.00254.00509.00176.00499.00254.00509.00176.00509.00176.00499.00254.00509.00176.00509.00254.00509.00078.00334.00098.00175.00176.00507.00235.00501.00176.00509.00274.00507.00175.00509.00235.00501.00058.00249.00118.00257.00175.00509.00254.00501.00176.00515.00254.00501.00176.00509.00156.00507.00274.00509.00176.00499.00235.00509.00098.00255.00078.00253.00274.00499.00156.00497.00098.00209.00078.00312.00254.00509.00098.00255.00078.00253.00254.00499.00176.00509.00254.00509.00176.00507.00176.00509Z"/>
  <path class="cls-2" d="M68.86878,9.4592l.00508.00219c.21705.08984.4212.22481.59797.40503.70376.71891.70376,1.88459,0,2.60341-.70337.71899-1.84476.71899-2.54833,0-.17677-.18024-.30896-.38865-.39735-.61103l-.00176-.00499-.00176-.00509-.00235-.00509-.00098-.00249-.00078-.00249-.00273-.00509-.00157-.00487-.00254-.00521-.00156-.00497-.00195-.00529-.00274-.00499-.00098-.00374-.00313-.00636-.00098-.00354-.00078-.00155-.00156-.00507-.00274-.00509-.00118-.00259-.00058-.00249-.00254-.00509-.00156-.00499-.00274-.00509-.00176-.00509-.00176-.00499-.00235-.00517-.00176-.00501-.00274-.00509-.00156-.00507-.00176-.00501-.00254-.00509-.00176-.00507-.00254-.00509-.00176-.00509-.00254-.00509-.00157-.00499-.00175-.00509-.00274-.00499-.00176-.00519-.00235-.00499-.00176-.00487-.00274-.00531-.00156-.00507-.00176-.00501-.00254-.00509-.00176-.00507-.00254-.00509-.00058-.00248-.00118-.00253-.00176-.00515-.00254-.00501-.00176-.00509-.00254-.00499-.00078-.00259-.00098-.00257-.00254-.00499-.00058-.00247-.00117-.00261-.00157-.00509-.00254-.00499-.00097-.0028-.00078-.00229-.00274-.00509-.00156-.00487-.00254-.00529-.00176-.00509-.00176-.00501-.00274-.00507-.00058-.00259-.00098-.00249-.00254-.00501-.00176-.00507-.00118-.00265-.00039-.00243-.00274-.00509-.00176-.00509-.00254-.00499-.00156-.00469-.00274-.00549-.00176-.00499-.00175-.00519-.00235-.00499-.00098-.00255-.00078-.00253-.00273-.00507-.00157-.00487-.00175-.00523-.00254-.00517-.00176-.00499-.00254-.00509-.00176-.00509-.00254-.00499-.00156-.00509-.00176-.00509-.00274-.00499-.00078-.00253-.00098-.00255-.00235-.00517-.00176-.00491-.00274-.00519-.00156-.00499-.00176-.00509-.00254-.00507-.00176-.00509-.00254-.00509-.00176-.00499-.00176-.00509-.00254-.00509-.00175-.00507-.00254-.00501-.00176-.00517-.00254-.00499-.00176-.00509-.00156-.00509-.00254-.00499-.00098-.00255-.00078-.00253-.00274-.0051-.00176-.00509-.00078-.00195-.00078-.00304-.00254-.00517-.00176-.00501-.00254-.00507-.00176-.00501-.00254-.00517-.00176-.00499-.00156-.00509-.00274-.00509-.00078-.00278-.00098-.00231-.00254-.00499-.00156-.00509-.00176-.00509-.00273-.00509-.00157-.00507-.00254-.00501-.00097-.00255-.00078-.00253-.00274-.00507-.00156-.00501-.00137-.00284-.00039-.00233-.00254-.00499-.00156-.00509-.00274-.00509-.00176-.00509-.00254-.00499-.00156-.00509-.00176-.00499-.00274-.00519-.00078-.00253-.00098-.00253-.00235-.00501-.00078-.0031-.00098-.00199-.00176-.00507-.00254-.00501-.00176-.00509-.00254-.00507-.00176-.00509-.00254-.00509-.00175-.00499-.00176-.00509-.00254-.00509-.00118-.00342-.00058-.00157-.00254-.00517-.00176-.00499-.00156-.00509-.00274-.00509-.00118-.003-.00039-.00209-.00254-.00499-.00176-.00509-.00274-.00509-.00078-.00332-.00078-.00177-.00118-.00213-.00058-.00294-.00254-.00501-.00176-.00509-.00254-.00507-.00176-.00501-.00254-.00517-.00176-.00499-.00156-.00509-.00273-.00509-.00176-.00499-.00235-.00519-.00176-.00499-.00175-.00499-.00274-.00519-.00156-.00507-.00254-.00501-.00098-.00272-.00078-.00237-.00254-.00507-.00176-.00509-.00176-.00491-.00254-.00517-.00098-.00308-.00058-.00201-.00274-.00509-.00176-.00499-.00235-.00509-.00176-.00509-.00176-.00509-.00274-.00509-.00156-.00499-.00254-.00509-.00176-.00509-.00176-.00507-.00254-.00509-.00137-.00308-.00039-.00193-.00254-.00499-.00176-.00517-.00254-.00509-.00078-.0031-.00098-.00189-.00118-.00245-.00058-.00263-.00254-.00507-.00176-.00501-.00254-.00509-.00176-.00507-.00098-.00235-.00058-.00274-.00274-.00509-.00156-.00509-.00254-.00499-.00176-.00509-.00274-.00509-.00156-.00507-.00176-.00501-.00254-.00509-.00176-.00507-.00254-.00501-.00176-.00517-.00254-.00509-.00039-.00241-.00137-.00257-.00157-.00509-.00273-.00509-.00078-.00255-.00098-.00253-.00235-.00499-.00078-.00275-.00098-.00233-.00176-.00509-.00274-.00499-.00156-.00517-.00254-.00501-.00176-.00509-.00254-.00499-.00176-.00517-.00176-.00499-.00254-.00519-.00156-.00499-.00274-.00499-.00039-.00217-.00137-.00302-.00176-.00499-.00235-.00509-.00176-.00509-.00273-.00509-.00079-.00229-.00078-.0027-.00254-.00517-.00175-.00501-.00176-.00507-.00254-.00501-.00078-.00253-.00098-.00255-.00254-.00507-.00176-.00479-.00254-.00531-.00118-.0039-.00235-.00634-.00254-.00491-.00176-.00517-.00254-.00499-.00156-.00509-.00176-.00509-.00274-.00499-.00156-.00519-.00254-.00499-.00176-.00509-.00273-.00509-.00157-.00487-.00137-.00312-.00039-.00209-.00254-.00517-.00097-.00251-.00078-.00247-.00254-.00509-.00176-.00501-.00254-.00507-.00176-.00519-.00156-.00499-.00274-.00509-.00176-.00509-.00235-.00509-.00059-.00248-.00117-.00251-.00176-.00509-.00274-.00499-.00058-.00259-.00098-.00257-.00254-.00509-.00176-.00499-.00254-.00509-.00176-.00509-.00176-.00499-.00254-.00509-.00078-.00253-.00078-.00255-.00274-.00499-.00175-.00519-.00098-.00223-.00078-.00286-.00235-.00499-.00175-.00499-.00274-.00519-.00156-.00507-.00254-.00501-.00098-.00336-.00078-.00173-.00176-.00499-.00254-.00517-.00078-.00249-.00098-.0025-.00254-.00509-.00176-.00487-.00254-.00529-.00058-.00274-.00118-.00228-.00176-.00509-.00254-.00507-.00176-.00501-.00254-.00509-.00156-.00497-.00176-.00519-.00273-.00501-.00157-.00517-.00254-.00507-.00176-.00501-.00273-.00499-.00156-.00517-.00176-.00509-.00254-.00501-.00176-.00507-.00254-.00509-.00176-.00501-.00176-.00517-.00254-.00499-.00156-.00501-.00274-.00517-.00078-.00255-.00098-.00253-.00235-.00507-.00176-.00457-.00176-.00553-.00274-.00499-.00156-.00517-.00254-.00501-.00176-.00499-.00254-.00517-.00176-.00509-.00175-.00499-.00254-.00509-.00157-.00509-.00273-.00509-.00176-.00499-.00176-.00509-.00235-.00509-.00176-.00499-.00274-.00517-.00156-.00487-.00254-.00523-.00176-.00499-.00176-.00517-.00254-.00501-.00118-.00342-.00058-.00165-.00254-.00509-.00176-.00487-.00156-.00529-.00274-.00509-.00176-.00493-.00254-.00515-.00175-.00501-.00254-.00517-.00157-.00499c-.15193-.37989-.07724-.83244.22468-1.14089.30114-.30851.74502-.38477,1.11636-.22927l.01037.0042.00508.00217.0043.00203.00528.00209.00508.00219.00508.00211.0043.00211.00508.00219.01545.00631.00215.00121.00235.00088.00508.00211.00508.00219.00508.00209.00215.00107.00215.00105.01036.0042.00508.00219.00508.00211.0045.00209.01017.0042.00508.00219.00449.00211.00508.00211.00508.00217.00528.00201.00508.00213.00411.00217.01037.0042.00508.00219.0045.00203.00508.00219.01544.00631.0043.00219.01545.00631.00293.00141.00137.00068.00508.00219.01544.00631.0043.00209.00528.00219.01545.00631.00411.00209.00508.00211.00528.00219.0043.00211.00508.00209.00528.00219.00508.00201.00508.00211.0043.00219.00508.00211.00528.00217.00508.00211.00528.00203.00411.00217.01037.0042.00508.00219.0045.00211.01544.00631.00508.00219.00411.00211.01545.00631.0045.00209.00508.00219.01544.00631.0043.00209.00508.00211.00528.00219.00508.00209.0043.00211.01017.0042.00528.00219.00508.00211.00215.00105.00215.00105.00528.00211.00508.00219.00508.00209.0043.00211.00508.00211.00508.00219.00528.00199.00508.00221.0043.00209.01036.0042.00508.00219.00294.00129.00137.00082.02073.00843.00175.00097.00235.00123.02053.00841.0045.00209.00508.00219.01037.00422.00195.00105.00215.00105.01036.0042.00508.00221.00294.00119.00137.00091.00528.00209.00508.00219.01037.00422.0043.00209.01036.0042.00508.00221.00411.00209.01545.00629.00528.00221.00352.00175.01623.00666.00411.00211.00528.00219.01545.00631.00215.00106.00215.00103.00508.00219.01037.00422.0043.00209.01037.0042.00508.00219.00528.00211.00411.00219.00508.00209.00528.00201.00508.00221.0043.00209.00528.00209.00508.00219.01037.00422.00411.00209.01037.0042.00528.00221.00411.00209.01544.00631.00528.00219.0043.00209.00508.00211.00528.00219.00508.00201.00508.00219.0043.00211.01545.00631.00196.00101.00235.00109.00508.00219.01037.00422.00508.00217.0043.00211.00528.00201.00508.00219.00508.00211.00294.00143.00137.00066.00508.00211.00528.00219.00508.00211.0043.00209.00528.00209.00508.00219.01017.00422.0043.00209.01545.00631.00508.00219.0043.00211.01036.0042.00508.00219.0043.00209.01037.0042.00528.00221.00411.00201.00508.00219.01545.00631.00449.00219.01545.00631.00411.00209.00508.00219.01564.00631.00196.00101.00235.00108.00508.00211.00508.00219.00528.00213.0043.00209.01037.0042.00508.00219.00508.00211.0043.00209.00508.00219.00508.00201.00528.00211.00508.00219.0043.00211.00528.00209.00508.00219.00508.00203.0043.00217.01544.00631.00508.00219.0043.00201.00528.00219.01017.00422.00449.00219.02053.00841.00411.00219.01545.00631.0045.00209.00508.00211.00508.00219.00528.00211.00411.00209.00528.00219.00508.00201.00508.00211.00528.00219.0043.00209.00508.00211.00508.00219.00508.00201.00528.00219.00215.00125.00215.00086.01037.0042.00508.00219.0043.00209.01017.0042.00508.00221.00449.00209.02053.00843.0043.00219.01544.00631.0043.00209.00508.00209.00508.00219.01037.00422.0045.00209.01017.00422.00508.00219.00528.00209.00235.00131.00175.00078.00508.00219.01037.00422.0043.00209.01037.00422.00508.00219.00528.00209.00274.00151.00156.0006.00508.00209.00528.00219.00508.00211.00235.00111.00176.00099.01545.00631.00215.00086.00235.00125.00508.00219.01545.00631.00196.00101.00215.00108.00528.00219.01037.00422.0043.00209.00508.00209.00508.00219.01036.00422.00274.00143.00156.00066.00508.00219.01565.00631.00411.00209.00508.00219.00528.00213.00508.00199.00196.00103.00235.00117.01037.00424Z"/>
  <path class="cls-2" d="M62.8022,11.847l-.00019.00171-.00254.00509-.00078.00253-.00098.00255c-.08839.22235-.22038.43069-.39637.61093-.70455.71899-1.84476.71899-2.54931,0-.70376-.71883-.70376-1.88451,0-2.60341.17677-.18022.38092-.31519.59797-.40503l.00508-.00219.01545-.00631.00215-.00101.00235-.00108.00508-.00213.00508-.00219.01037-.00419s.00254-.00141.00411-.00211l.00528-.00211.00508-.00219.00508-.00209c.00176-.0007.00274-.00141.0045-.00211l.00508-.00211.00508-.00219.00528-.00209c.00156-.0007.0043-.00209.0043-.00209l.01017-.00422.00528-.00219.00508-.00209s.00254-.00141.0043-.00211l.01017-.0042.00528-.00219.00508-.00211s.00274-.00141.0043-.00211l.01545-.00629.00254-.00127.00176-.00084.00508-.00219.01037-.0042c.00175-.0007.0043-.00209.0043-.00209l.00508-.00211.00528-.00219.01017-.0042s.00274-.00141.0043-.00211l.00528-.00211.00508-.00219.01036-.00419s.00254-.00151.00411-.00211l.00528-.00219.01017-.0042.0045-.00211.00508-.00211.00508-.00219.00528-.00209c.00157-.00063.00411-.00209.00411-.00209l.01036-.00422.00508-.00219.00508-.00209.00235-.00111.00215-.00101.01545-.00631c.00156-.0007.0043-.00209.0043-.00209l.00508-.00221.01545-.00629.00294-.00155.00137-.00064.01525-.00631c.00176-.0007.0045-.00219.0045-.00219l.00508-.00201.00528-.00219.01017-.0042.00156-.00093.00274-.00127.00508-.00211.00508-.00201.00528-.00219.00508-.00209s.00254-.00141.0043-.00211l.00508-.00219.00528-.00211.00508-.00201.00235-.00125.00215-.00095.01017-.0042.00508-.00219.00528-.00209s.00235-.00143.00411-.00213l.01036-.00418.00508-.00219.0043-.00211.00528-.00211.00508-.00219.00508-.00201.00528-.00219s.00254-.00141.00411-.00211l.01037-.0042.00528-.00217.00215-.00105.00195-.00099.00528-.00219.01017-.0042.00528-.00219.00137-.00078.00294-.00133.00508-.00201.00528-.00219.00508-.00209c.00176-.0007.00254-.00141.00411-.00211l.00528-.00219.01017-.0042c.00176-.0007.0045-.00209.0045-.00209l.00508-.00211.00508-.00219.01037-.0042c.00175-.0007.0043-.00211.0043-.00211l.01037-.0042.00508-.00219.00508-.00209s.00254-.00143.0043-.00213l.01037-.00418.00508-.00219c.00176-.0007.00273-.00141.0043-.00211l.01036-.0042.00508-.00219.00294-.00117.00137-.00084.00508-.00221.01545-.00629c.00176-.0007.00273-.00151.0043-.00219l.02073-.00841s.00254-.00151.0043-.00221l.01545-.00629.00195-.00109.00215-.00103.00528-.00211.00508-.00219.01037-.00418s.00254-.00151.0043-.00211l.00508-.00211.00528-.00219.00508-.00209c.00176-.0007.00235-.00141.00411-.00211l.00528-.00219.00508-.00201.00508-.00211.00528-.00217.00176-.00103.00254-.00111.00508-.00209.00528-.00219.00508-.00209c.00176-.0007.00254-.00141.0043-.00211l.01544-.00631.00508-.00219s.00254-.00141.0043-.00201l.00508-.00219.01037-.0042.00196-.00103.00235-.00109.00508-.00219.01544-.00629.00254-.00137.00176-.00084.01545-.00629.00313-.00159.00626-.00263.00528-.00219.00508-.00209c.00175-.0007.0043-.00209.0043-.00209l.00528-.00221.00508-.00201.00508-.00209.00528-.00219.00411-.00211.00508-.00219.01037-.0042.00273-.00107.00157-.00103.01036-.00422.00508-.00219.00528-.00209.00235-.00111.00176-.00101.01037-.0042.00528-.00219.00508-.00211s.00254-.00141.0043-.00211l.01545-.00629c.00156-.0007.0043-.00221.0043-.00221l.02053-.00838.0043-.00221.01544-.00629.00294-.00147.00645-.00284.01545-.00629.00293-.00153.00137-.00068.01544-.00629.0043-.00211.00508-.00211.00528-.00219.01017-.00418s.00274-.00143.00449-.00213l.00508-.00209.00508-.00219.00528-.00209c.00156-.00063.00235-.00141.00411-.00211l.01545-.00631.00274-.00115.00156-.00097.00528-.00219.01544-.00629.00254-.00121.00156-.00101.02073-.0084s.00254-.00149.0043-.00209l.00508-.00219.01017-.0042c.00176-.0007.00273-.00141.00449-.00211l.00508-.00219.01545-.00631s.00254-.00139.0043-.00209l.00508-.00211.00508-.00219.00528-.00209.00215-.00105.00215-.00107.01037-.0042.00508-.00219.00508-.00209s.00254-.00143.0043-.00213l.01037-.00419.00508-.00219.0043-.00212.01545-.00631c.00176-.0007.0043-.00211.0043-.00211l.00508-.00219.01037-.0042.00508-.00217c.00176-.00063.0043-.00203.0043-.00203l.00508-.00219.01036-.0042.00508-.00219s.00274-.00141.0043-.00211l.00528-.00201.00508-.00219.00508-.00209.00215-.00106.00235-.00105.00508-.00219.01545-.00631s.00254-.00139.00411-.00209l.00528-.00212.00508-.00219.00508-.00209.00235-.00105.00215-.00107.01016-.0042.00528-.00219.00508-.00209s.00254-.00143.0043-.00213l.01017-.00419.00528-.00219c.00176-.0007.0043-.00211.0043-.00211l.01017-.0042.00528-.00219.00508-.00203s.00274-.00149.0043-.00219l.01037-.0042.00508-.00217c.00176-.00062.0043-.00213.0043-.00213l.00508-.00201.00508-.00217.01036-.00422.00196-.00103.00235-.00117.01545-.00629c.00176-.0007.0043-.00211.0043-.00211l.00508-.00219.01564-.00631s.00254-.00149.00411-.00209l.00528-.00219.01017-.0042.00215-.00107.00235-.00105.01544-.00631c.00157-.00078.00411-.00219.00411-.00219l.01036-.0042.00508-.00219.00508-.00209c.00176-.0007.0045-.00211.0045-.00211l.01017-.0042c.37153-.1555.81523-.07916,1.11714.22927.30212.30845.37681.7609.22409,1.14089-.00097.00167-.00097.00332-.00175.00507l-.00254.00501s-.00078.00334-.00176.00509c-.00078.00173-.00176.00515-.00176.00515l-.00254.00493c-.00078.00167-.00176.00517-.00176.00517l-.00254.00499-.00078.00259-.00098.00257-.00254.00501s-.00078.00318-.00156.00483c-.00078.00167-.00176.00533-.00176.00533l-.00274.00501c-.00078.00165-.00078.00342-.00176.00507l-.00235.00509s-.00098.00334-.00176.00501l-.00274.00507s-.00058.00342-.00156.00519l-.00137.00317-.00039.00181-.00254.00499-.00097.00259-.00079.00259-.00254.00499s-.00078.00342-.00175.00509l-.00137.00302-.00039.00207-.00235.00499-.00097.00255-.00078.00253-.00274.00517-.00078.0028-.00098.00219-.00235.00501s-.00098.00342-.00176.00509c-.00098.00175-.00176.00517-.00176.00517l-.00254.00499c-.00078.00167-.00078.00334-.00176.00501l-.00254.00517s-.00098.00332-.00176.00499-.00176.00509-.00176.00509l-.00254.00509c-.00078.00167-.00176.00499-.00176.00499l-.00254.00509-.00078.00253-.00098.00255-.00254.00509s-.00078.00332-.00176.00499c-.00078.00175-.00156.00517-.00156.00517l-.00273.00501c-.00079.00175-.00079.00342-.00157.00507l-.00254.00509-.00078.00268-.00098.00233-.00273.00507s-.00059.00326-.00156.00493c-.00078.00169-.00176.00533-.00176.00533l-.00254.00491c-.00098.00175-.00098.00342-.00176.00509l-.00254.00517-.00098.0035-.00078.00151c-.00078.00167-.00176.00507-.00176.00507l-.00254.00509-.00078.00215-.00078.00286-.00274.00507c-.00078.00175-.00078.00342-.00176.00517l-.00254.00493s-.00078.0034-.00156.00507c-.00098.00167-.00176.00509-.00176.00509l-.00274.00517-.00078.00251-.00078.00247-.00254.00501s-.00098.00342-.00176.00509c-.00097.00175-.00176.00507-.00176.00507l-.00254.00519-.00117.00244-.00058.00246-.00254.00509c-.00098.00177-.00098.00342-.00176.00519l-.00254.00507-.00078.00275-.00098.00225c-.00078.00167-.00176.00499-.00176.00499l-.00235.00517-.00098.00251-.00078.00249-.00274.00509-.00098.00378-.00313.00629s-.00098.00342-.00176.00509c-.00098.00175-.00176.00507-.00176.00507l-.00254.00509c-.00078.00167-.00078.00334-.00176.00499l-.00254.00509-.00098.00334-.00078.00185c-.00098.00165-.00176.00499-.00176.00499l-.00254.00499-.00117.0036-.00059.00159-.00254.00499c-.00078.00175-.00078.00342-.00175.00517l-.00254.00501s-.00079.00332-.00176.00499c-.00078.00175-.00157.00517-.00157.00517l-.00273.00509-.00078.00249-.00078.0025-.00254.00501-.00137.00417c-.00078.00167-.00215.00599-.00215.00599l-.00254.00509-.00118.00274-.00058.00235-.00254.00509-.00176.00509-.00254.00499s-.00078.00328-.00176.00497c-.00058.00167-.00176.00511-.00176.00511l-.00254.00517-.00098.00253-.00058.00253-.00274.00509-.00137.00459-.00294.00549s-.00078.00334-.00156.00501c-.00098.00175-.00176.00509-.00176.00509l-.00273.00507c-.00078.00167-.00078.00334-.00157.00509l-.00254.00509s-.00097.0032-.00156.00487c-.00098.00167-.00195.00521-.00195.00521l-.00254.00509c-.00078.00167-.00078.00334-.00176.00509l-.00254.00509-.00118.00354-.00039.00145-.00274.00509s-.00078.00342-.00176.00509c-.00058.00165-.00176.00509-.00176.00509l-.00235.00499c-.00098.00175-.00098.00342-.00176.00517l-.00274.00499-.00078.00348-.00098.00161c-.00058.00167-.00156.00501-.00156.00501l-.00254.00517c-.00098.00167-.00176.00499-.00176.00499l-.00254.00509c-.00078.00167-.00078.00334-.00176.00509l-.00254.00509s-.00078.00316-.00176.00483c-.00058.00159-.00156.00525-.00156.00525l-.00273.00509-.00079.00253-.00097.00255-.00254.00499s-.00078.00332-.00176.00509l-.00254.00509s-.00078.00342-.00176.00507c-.00078.00167-.00156.00501-.00156.00501l-.00274.00509-.00078.00253-.00078.00253-.00254.00509-.00078.00274-.00098.00235-.00118.00231-.00058.00268-.00254.00509c-.00098.00167-.00098.0034-.00176.00517l-.00254.00501-.00176.00507-.00254.00501s-.00078.00334-.00176.00499c-.00078.00167-.00176.00517-.00176.00517l-.00254.00509c-.00097.00165-.00078.00332-.00156.00507l-.00274.00501s-.00078.00342-.00175.00509c-.00079.00165-.00176.00507-.00176.00507l-.00235.00509c-.00097.00167-.00175.00501-.00175.00501l-.00274.00507c-.00078.00167-.00078.00342-.00156.00509l-.00254.00509s-.00098.00334-.00176.00499l-.00118.00246-.00058.00263-.00254.00509c-.00078.00167-.00078.00334-.00176.00509l-.00254.00509s-.00098.00332-.00156.00499l-.00274.00509-.00058.00253-.00118.00255c-.00078.00165-.00176.00507-.00176.00507l-.00235.00501c-.00098.00167-.00098.00332-.00176.00509l-.00274.00507s-.00078.00342-.00176.00509c-.00058.00167-.00156.00509-.00156.00509l-.00254.00499-.00098.00253-.00078.00255-.00254.00509-.00176.00509-.00254.00499-.00039.00201-.00137.00308c-.00078.00175-.00176.00517-.00176.00517l-.00254.00501-.00078.00248-.00098.00251-.00254.00517-.00059.00275-.00117.00225c-.00078.00165-.00156.00507-.00156.00507l-.00274.00509-.00118.00272-.00039.00229-.00254.00507-.00098.00255-.00078.00253-.00254.00509s-.00098.00334-.00176.00499c-.00098.00167-.00176.00509-.00176.00509l-.00254.00509-.00176.00509-.00254.00509s-.00098.00332-.00176.00499l-.00254.00509s-.00078.0034-.00176.00507c-.00078.00175-.00175.00509-.00175.00509l-.00254.00501-.00079.00253-.00078.00253-.00273.00509-.00059.00284-.00117.00225-.00118.00272-.00058.00227-.00235.00517c-.00098.00167-.00098.00334-.00176.00501l-.00274.00507-.00058.00249-.00098.00259-.00254.00509s-.00098.00334-.00176.00499c-.00098.00177-.00176.00509-.00176.00509l-.00254.00509-.00078.00251-.00098.00247-.00254.00509-.00039.00243-.00118.00274c-.00098.00167-.00176.00501-.00176.00501l-.00274.00509c-.00078.00165-.00176.00507-.00176.00507l-.00235.00501c-.00098.00175-.00098.00342-.00176.00509l-.00273.00507s-.00079.00334-.00176.00501c-.00059.00175-.00157.00509-.00157.00509l-.00254.00517-.00097.0025-.00078.00249-.00254.00509-.00078.00328-.00098.00181-.00254.00499s-.00098.00342-.00176.00517c-.00078.00167-.00176.00501-.00176.00501l-.00254.00509-.00078.00253-.00098.00253-.00254.00501s-.00078.00342-.00156.00509c-.00098.00175-.00176.00507-.00176.00507l-.00274.00501c-.00078.00175-.00078.00342-.00156.00517l-.00254.00499c-.00098.00167-.00098.00334-.00176.00509l-.00254.00509s-.00098.00334-.00176.00499c-.00098.00167-.00176.00509-.00176.00509l-.00254.00509-.00078.00253-.00098.00255-.00254.00499s-.00097.0035-.00175.00517c-.00079.00167-.00176.00501-.00176.00501l-.00254.00507c-.00078.00167-.00176.00509-.00176.00509l-.00254.00499-.00098.00259-.00058.00257-.00274.00501-.00058.00302-.00118.00207c-.00078.00165-.00176.00499-.00176.00499l-.00235.00517-.00118.0035-.00058.00149-.00274.00509s-.00058.00334-.00156.00501l-.00254.00517s-.00098.00332-.00176.00499c-.00098.00177-.00176.00509-.00176.00509l-.00254.00509-.00078.00255-.00098.00253-.00254.00499s-.00078.00328-.00156.00497c-.00098.00167-.00176.00521-.00176.00521l-.00273.00499-.00079.00259-.00097.00257-.00235.00501-.00097.00253-.00079.00255-.00273.00507s-.00059.0032-.00156.00487c-.00078.00167-.00176.00521-.00176.00521l-.00254.00509c-.00098.00177-.00098.00342-.00176.00509l-.00254.00501s-.00078.00328-.00156.00495c-.00098.00167-.00196.00531-.00196.00531l-.00254.00499c-.00078.00167-.00156.00509-.00156.00509l-.00274.0051-.00078.00247-.00098.00251-.00254.00509s-.00078.00342-.00156.00509c-.00098.00165-.00176.00507-.00176.00507l-.00254.00509c-.00098.00167-.00098.00334-.00176.00509l-.00274.00499s-.00078.00334-.00156.00509l-.00254.00509s-.00097.00334-.00176.00499c-.00097.00167-.00175.00509-.00175.00509l-.00254.00509-.00079.00253-.00097.00255-.00254.00507s-.00098.00334-.00176.00501c-.00078.00167-.00156.00507-.00156.00507l-.00274.00509c-.00078.00167-.00078.00332-.00176.00501l-.00254.00515-.00098.00352-.00058.00149-.00274.00509s-.00078.00342-.00176.00517c-.00078.00167-.00156.00493-.00156.00493l-.00254.00507-.00098.00253-.00078.00253-.00274.00509s-.00058.00342-.00156.00509c-.00078.00167-.00176.00509-.00176.00509l-.00254.00499c-.00098.00167-.00156.00509-.00156.00509l-.00274.00509-.00078.00225-.00098.00274-.00254.00509s-.00079.00342-.00157.00509c-.00097.00175-.00176.00517-.00176.00517l-.00273.00499-.00078.00251-.00098.00249-.00235.00517-.00098.00314-.00078.00185-.00274.00509-.00039.00261-.00117.00247-.00137.00255-.00039.00243-.00254.00509-.00098.00259-.00078.00259-.00254.00499s-.00078.00332-.00176.00499c-.00078.00169-.00176.00519-.00176.00519l-.00254.00499-.00078.00253-.00078.00255-.00274.00509-.00098.00318-.00078.00181-.00254.00509-.00058.00302-.00098.00215c-.00098.00167-.00176.00499-.00176.00499l-.00254.00501-.00098.00257-.00078.00259-.00254.00509s-.00097.00332-.00175.00499l-.00137.00296-.00039.00213-.00254.00509-.00157.00328Z"/>
  <path class="cls-2" d="M16.64845,8.05751h-.12789c-.83243,0-1.50726.68928-1.50726,1.5396v13.58956h3.12441v-13.60815c0-.84006-.66681-1.52101-1.48927-1.52101Z"/>
  <path class="cls-2" d="M18.48461,3.92069c0-.55124-.18362-1.0093-.54948-1.37402-.36665-.36428-.81992-.54667-1.35962-.54667-.54029,0-.99356.18239-1.35962.54667-.36665.36472-.54967.82278-.54967,1.37402,0,.55176.18303,1.00974.54967,1.37402.36606.3648.81933.54667,1.35962.54667.5397,0,.99297-.18187,1.35962-.54667.36586-.36428.54948-.82226.54948-1.37402Z"/>
  <path class="cls-2" d="M34.97292,14.85383c0-2.44238-.55476-4.21529-1.6635-5.31871-1.10893-1.1031-2.5409-1.65486-4.29572-1.65486-2.04422,0-3.62578.71935-4.7441,2.15708v-.42134c0-.86065-.68304-1.55844-1.52544-1.55844h-.00802c-.84651,0-1.53287.70105-1.53287,1.5658v13.5633h3.12421v-7.62356c0-1.5366.35159-2.74303,1.05594-3.61979.70376-.87634,1.67269-1.31495,2.90716-1.31495,1.15704,0,2.03445.37446,2.63242,1.12291.59758.74881.89677,1.84215.89677,3.27997v8.15544h3.15315v-8.33284Z"/>
  <path class="cls-2" d="M39.44247,8.05751h-.12788c-.83243,0-1.50706.68928-1.50706,1.5396v13.58956h3.12363v-13.60815c0-.84006-.66661-1.52101-1.48868-1.52101Z"/>
  <path class="cls-2" d="M41.27883,3.92069c0-.55124-.18362-1.0093-.54987-1.37402-.36645-.36428-.81972-.54667-1.35943-.54667s-.99356.18239-1.35962.54667c-.36645.36472-.54948.82278-.54948,1.37402,0,.55176.18303,1.00974.54948,1.37402.36606.3648.81992.54667,1.35962.54667s.99297-.18187,1.35943-.54667c.36625-.36428.54987-.82226.54987-1.37402Z"/>
  <path class="cls-1" d="M56.58096,19.34537c0,.70913.18362,1.0637.66759,1.0637.70885,0,1.36001.62185,1.36001,1.3889,0,.76685-.60912,1.3887-1.36001,1.3887h-.72508c-.96462,0-1.65861-.20675-2.08255-.62064-.42473-.41349-.63669-1.01422-.63669-1.80239-1.11891,1.73361-2.74837,2.60042-4.88841,2.60042-1.65861,0-2.98948-.39398-3.99282-1.18195-1.00216-.78777-1.50393-1.87138-1.50393-3.25042,0-1.55603.5397-2.75266,1.61989-3.59025,1.08039-.83706,2.65139-1.25576,4.71516-1.25576h3.73177v-.91614c0-.84669-.28921-1.5116-.86744-1.99448-.57842-.48252-1.37898-.72399-2.4009-.72399-.90713,0-1.6545.2022-2.24211.60574-.58878.404-.94057.94094-1.05554,1.61041h-3.06673c.15428-1.51661.80994-2.69357,1.96659-3.5311,1.15763-.83706,2.67133-1.25584,4.54191-1.25584,1.98653,0,3.5198.47288,4.60019,1.41836,1.0794.94558,1.61911,2.30486,1.61911,4.07785v5.9689ZM52.37206,19.81799c.72352-.70913,1.09485-1.65457,1.11382-2.83653v-.53195h-3.87589c-.96462,0-1.70671.19207-2.22764.57619-.52093.38413-.78081.95067-.78081,1.69902,0,.65.24541,1.1723.73701,1.56628.4918.39419,1.16193.59088,2.01059.59088,1.29216,0,2.30038-.35457,3.02292-1.0639Z"/>
  <path class="cls-2" d="M4.19445,20.3793h8.6494v2.80736H1.54875c-.85533,0-1.54875-.70832-1.54875-1.58197,0-.44788.15462-.88129.43685-1.22379l7.83646-9.51622H.17247v-2.80719h10.69231c.88537,0,1.60298.7331,1.60298,1.63742v.05846c0,.37426-.12922.73652-.36512,1.02287l-7.90819,9.60304Z"/>
  <path class="cls-3" d="M20.47095,30.19774c-.01584-.37126-.11615-.73729-.3029-1.07054l-1.64511-2.93105c-.12515-.22284-.21295-.46196-.26066-.70833l-.06883.12308c-.40673.72482-.40673,1.61958,0,2.3442l1.31601,2.344c.40673.72643.40673,1.61958,0,2.3442l-.06883.12328c-.04771-.24657-.13551-.48569-.26066-.70853l-1.20475-2.1465-.7679-1.3714c-.12515-.22263-.21334-.46377-.26086-.70833l-.06864.12328c-.40517.72281-.40693,1.61415-.00352,2.33696l1.3209,2.35124c.40693.72462.40693,1.61938,0,2.344l-.06864.12147c-.04928-.24637-.13551-.48549-.26066-.70833l-1.64511-2.93105c-.22018-.39318-.3205-.83684-.3029-1.27527-1.76127.47282-2.97663,1.4782-2.97663,2.64125,0,1.61938,2.35304,2.93105,5.25395,2.93105,2.90109,0,5.25428-1.31167,5.25428-2.93105-.00176-1.15943-1.21707-2.1648-2.97853-2.63763ZM25.43094,35.20128c.01936-.41671.07939-.70129.18675-1.02549.553.26266,1.26282.39479,1.80526.39479.91769,0,1.43041-.30429,1.43041-.90381,0-.58866-.37349-.86037-1.3035-1.27708l-.50372-.22284c-.92649-.41671-1.55888-.95469-1.55888-2.03066,0-1.15762.78022-1.89853,2.37958-1.89853.64119,0,1.24366.0905,1.80546.29343-.02992.40585-.09875.721-.1973,1.01443-.53364-.20273-1.16427-.29343-1.61852-.29343-.85785,0-1.25422.34431-1.25422.8841,0,.52712.38561.83141,1.07628,1.13771l.53364.23349c1.25227.54703,1.77535,1.12685,1.77535,2.1105,0,1.16667-.85766,1.96912-2.53621,1.96912-.80682,0-1.46717-.12127-2.02036-.38574ZM35.28911,30.34999v5.07393h-.99689l-.05984-.60857c-.2765.44567-.70102.73005-1.39149.73005-1.3035,0-2.17172-.9748-2.17172-2.67925,0-1.7863.92825-2.80053,2.75307-2.80053.71315,0,1.29626.08145,1.86686.28438ZM34.20423,34.26811v-3.18828c-.22722-.03962-.4738-.06154-.77846-.06154-1.12555,0-1.64863.71014-1.64863,1.84785,0,1.03433.40517,1.76619,1.37213,1.76619.42433,0,.76966-.14138,1.05496-.36422ZM40.84629,32.01482v3.4091h-1.08507v-3.21724c0-.80245-.25714-1.18658-1.34202-1.18658-.25558,0-.562.03077-.85785.08145v4.32417h-1.08488v-5.07574c.69027-.17216,1.45133-.28438,1.97441-.28438,1.81407,0,2.39542.721,2.39542,1.94921ZM43.85631,34.59251c.31541,0,.61127-.06154.84905-.15224-.02992.30449-.07059.6504-.12847.94383-.29606.12147-.61127.1629-.91789.1629-1.05496,0-1.72607-.49615-1.72607-1.73522v-5.32955c.33653-.11041.7503-.16129,1.08507-.16129v1.91844h1.71727c-.01936.34592-.04928.65945-.09875.95469h-1.61852v2.48719c0,.65765.31522.91125.8383.91125ZM49.67942,30.34999v5.07393h-.99708l-.05789-.60857c-.27669.44567-.70102.73005-1.39168.73005-1.30154,0-2.17172-.9748-2.17172-2.67925,0-1.7863.92649-2.80053,2.75307-2.80053.70983,0,1.29274.08145,1.8653.28438ZM48.59434,34.26811v-3.18828c-.22722-.03962-.4738-.06154-.78022-.06154-1.12556,0-1.64863.71014-1.64863,1.84785,0,1.03433.40517,1.76619,1.37213,1.76619.42433,0,.76966-.14138,1.05672-.36422ZM55.23464,32.01482v3.4091h-1.08488v-3.21724c0-.80245-.25714-1.18658-1.34222-1.18658-.25714,0-.56356.03077-.85942.08145v4.32417h-1.08508v-5.07574c.69047-.17216,1.45134-.28438,1.97441-.28438,1.81602,0,2.39718.721,2.39718,1.94921ZM60.74234,28.31933v7.10459h-.99688l-.05984-.64859c-.2767.47664-.70102.77168-1.41085.77168-1.3033,0-2.17171-.9746-2.17171-2.67905,0-1.7863.92805-2.80052,2.75287-2.80052.2855,0,.553.03057.81034.08125v-1.67549c.33634-.12328.72038-.15385,1.07608-.15385ZM59.66626,34.24639v-3.12473c-.28725-.06154-.58311-.10156-.86841-.10156-1.07608,0-1.5888.69043-1.5888,1.84784,0,1.03434.40517,1.7662,1.37213,1.7662.43509-.00181.78922-.15385,1.08508-.38775ZM66.199,33.25208h-3.46289c.13923.90381.65175,1.34043,1.61871,1.34043.59191,0,1.19439-.13214,1.73683-.38594-.04048.29524-.09875.67937-.16739,1.01443-.49492.23369-1.01644.3244-1.59935.3244-1.81602,0-2.69304-1.03433-2.69304-2.76996,0-1.51259.68167-2.70982,2.40774-2.70982,1.55008,0,2.22099,1.04519,2.22099,2.32409-.00176.31515-.02112.56875-.0616.86238ZM62.71519,32.3191h2.44821c0-.83342-.43333-1.32072-1.18382-1.32072-.76966,0-1.17464.45834-1.26439,1.32072ZM70,30.10543c0,.33506-.04048.74071-.09875.95469-.25518-.03097-.51233-.04002-.81894-.04002-.26594,0-.53364.02011-.79958.06154v4.34408h-1.08664v-5.07574c.46305-.16311,1.24347-.28438,1.85631-.28438.33458,0,.70983.01066.94761.03982Z"/>
</svg>