<?xml version="1.0" encoding="UTF-8"?>
<svg id="Capa_1" data-name="Capa 1" xmlns="http://www.w3.org/2000/svg" viewBox="0 0 70 40">
  <defs>
    <style>
      .cls-1 {
        fill: #053840;
      }
    </style>
  </defs>
  <path class="cls-1" d="M14.77359,31.87108c-.01018-.26354-.08144-.51695-.22397-.75008l-1.19111-2.05765c-.09162-.15204-.15271-.32436-.19343-.49667l-.0509.09123c-.29523.50681-.29523,1.13526,0,1.6522l.95696,1.6522c.29523.50681.29523,1.13526,0,1.6522l-.0509.08109c-.03054-.17232-.1018-.34463-.19343-.49667l-.87552-1.51029-.55992-.96294c-.09162-.16218-.15271-.32436-.19343-.49667l-.0509.08109c-.29523.50681-.29523,1.13526,0,1.64207h0l.95696,1.6522c.29523.50681.29523,1.13526,0,1.6522l-.0509.08109c-.03054-.17232-.1018-.34463-.19343-.49667l-1.17075-2.06778c-.16289-.27368-.23415-.5879-.22397-.89199-1.28273.33449-2.15825,1.03389-2.15825,1.85492,0,1.13526,1.71031,2.05765,3.81765,2.05765s3.81765-.9224,3.81765-2.05765c-.01018-.82103-.89588-1.53057-2.16843-1.86506M18.37745,35.38834c.01018-.29395.06108-.49667.13235-.71967.39704.18245.91624.27368,1.31327.27368.66173,0,1.0384-.21286,1.0384-.63858,0-.41559-.27487-.60817-.94678-.90212l-.3665-.16218c-.67191-.29395-1.13003-.66899-1.13003-1.42921,0-.8109.5701-1.33798,1.73067-1.33798.4683,0,.90606.06082,1.31327.20272-.02036.28381-.07126.50681-.14253.70953-.38686-.14191-.84497-.20272-1.17075-.20272-.62101,0-.90606.24327-.90606.61831s.27487.5879.78389.80076l.38686.16218c.90606.38517,1.29291.79062,1.29291,1.47989,0,.82103-.62101,1.38866-1.84266,1.38866-.61082.03041-1.0893-.05068-1.48634-.24327M25.53428,31.98258v3.56795h-.72281l-.04072-.42572c-.20361.31422-.50902.51695-1.00786.51695-.94678,0-1.57796-.68926-1.57796-1.88534,0-1.25689.67191-1.96642,1.99536-1.96642.50902-.01014.9366.05068,1.35399.19259M24.74021,34.73963v-2.2401c-.16289-.03041-.34613-.04054-.5701-.04054-.81443,0-1.20129.49667-1.20129,1.29743,0,.72981.29523,1.23662.99768,1.23662.31559,0,.5701-.10136.77371-.25341M29.56572,33.14824v2.39215h-.78389v-2.26038c0-.56763-.18325-.83117-.97732-.83117-.18325,0-.40722.02027-.62101.06082v3.04086h-.78389v-3.56795c.49884-.12164,1.04858-.20272,1.43544-.20272,1.31328,0,1.73067.50681,1.73067,1.36839M31.75451,34.96262c.23415,0,.44794-.04054.62101-.1115-.02036.21286-.0509.45613-.09162.65885-.21379.09123-.44794.1115-.66173.1115-.76353,0-1.25219-.34463-1.25219-1.21634v-3.7504c.24433-.08109.54974-.1115.78389-.1115v1.34811h1.24201c-.01018.24327-.04072.46627-.07126.66899h-1.17075v1.74343c-.01018.48654.21379.65885.60064.65885M35.97938,31.98258v3.56795h-.72281l-.04072-.42572c-.20361.31422-.50902.51695-1.00786.51695-.94678,0-1.57796-.68926-1.57796-1.88534,0-1.25689.67191-1.96642,1.99536-1.96642.5192-.01014.9366.05068,1.35399.19259M35.19549,34.73963v-2.2401c-.16289-.03041-.34613-.04054-.5701-.04054-.81443,0-1.20129.49667-1.20129,1.29743,0,.72981.29523,1.23662.99768,1.23662.31559,0,.55992-.10136.77371-.25341M40.01082,33.14824v2.39215h-.78389v-2.26038c0-.56763-.18325-.83117-.97732-.83117-.18325,0-.40722.02027-.62101.06082v3.04086h-.78389v-3.56795c.49884-.12164,1.04858-.20272,1.43544-.20272,1.31328,0,1.73067.50681,1.73067,1.36839M44.01172,30.55337v4.99715h-.72281l-.04072-.45613c-.20361.33449-.50902.53722-1.02822.53722-.94678,0-1.57796-.68926-1.57796-1.88534,0-1.25689.67191-1.96642,1.99536-1.96642.20361,0,.39704.02027.59046.06082v-1.1758c.24433-.09123.52938-.1115.78389-.1115M43.22783,34.71936v-2.19956c-.20361-.04054-.42758-.07095-.63119-.07095-.78389,0-1.15039.48654-1.15039,1.29743,0,.72981.29523,1.23662.99768,1.23662.31559.01014.5701-.09123.78389-.26354M47.97191,34.01996h-2.51456c.1018.63858.47848.94267,1.17075.94267.42758,0,.86533-.09123,1.26237-.27368-.03054.20272-.07126.4764-.12217.70953-.35631.16218-.74317.23313-1.16057.23313-1.32345,0-1.95464-.72981-1.95464-1.94615,0-1.0643.49884-1.90561,1.75103-1.90561,1.13003,0,1.6085.73994,1.6085,1.63193.01018.223-.01018.40545-.04072.60818M45.44716,33.37124h1.78157c0-.5879-.31559-.93253-.85515-.93253-.5701,0-.86533.32436-.92642.93253M50.7308,31.81026c0,.23313-.03054.51695-.07126.66899-.18325-.02027-.37668-.03041-.59046-.03041-.19343,0-.38685.01014-.58028.04054v3.051h-.78389v-3.56795c.33595-.1115.90606-.20272,1.34382-.20272.24433.01014.5192.02027.68209.04054M3.39188,34.14159c0,.89199-.55992,1.40893-1.85283,1.40893H.10361v-4.91606c.37668-.06082.80425-.10136,1.20129-.10136,1.33363,0,1.86302.49667,1.86302,1.29743,0,.49667-.30541.96294-.83479,1.14539.65155.12164,1.05876.56763,1.05876,1.16567M.60245,31.03991v1.72316h.89588c.77371,0,1.16057-.3649,1.16057-.88185s-.28505-.89199-1.34381-.89199c-.23415.01014-.45812.02027-.71263.05068M2.88286,34.16186c0-.57777-.44794-.93253-1.34381-.93253h-.9366v1.85492h.8857c.95696,0,1.39472-.29395,1.39472-.92239M7.13828,31.87108l-1.59832,4.08489c-.27487.71967-.63119,1.04403-1.25219,1.04403-.11198,0-.23415-.01014-.32577-.04054.01018-.15204.02036-.30409.04072-.43586.07126.01014.15271.03041.23415.03041.47848,0,.70245-.20272.94678-.91226l-1.53724-3.77067h.53956l1.24201,3.13209,1.18093-3.13209h.52938Z"/>
  <g>
    <path class="cls-1" d="M57.21572,20.95438c-.48866,0-.6719-.34463-.6719-1.03389v-5.81818c0-1.72316-.53956-3.051-1.61869-3.97339-1.06894-.92239-2.60618-1.37852-4.59137-1.37852-1.8732,0-3.3799.40545-4.54046,1.22648-1.16057.8109-1.81211,1.96642-1.96482,3.43617h3.0643c.11199-.64872.4683-1.1758,1.05876-1.57111s1.33363-.5879,2.23969-.5879c1.01804,0,1.82229.23313,2.40257.70953.58028.46627.86533,1.11498.86533,1.94615v.89199h-3.72603c-2.06662,0-3.63441.40545-4.71353,1.22648-1.07912.8109-1.61868,1.97656-1.61868,3.49699,0,1.34812.49884,2.40228,1.5067,3.1625.99768.77035,2.33131,1.15553,3.99072,1.15553,2.13789,0,3.76675-.84131,4.8866-2.53405,0,.77035.21379,1.35825.63119,1.75356.42758.40545,1.11985.60817,2.07681.60817h.72281c.75335,0,1.35399-.60817,1.35399-1.34812.01018-.76022-.64136-1.36839-1.35399-1.36839M53.45914,17.61957c-.02036,1.15553-.38685,2.06779-1.10967,2.76719-.72281.68926-1.73067,1.03389-3.02358,1.03389-.84497,0-1.51688-.19259-2.00554-.57776-.48866-.38518-.73299-.89199-.73299-1.53057,0-.72981.26469-1.27716.78389-1.6522s1.26237-.55749,2.22951-.55749h3.87874v.51695h-.02036Z"/>
    <g>
      <path class="cls-1" d="M33.33247,10.33164c1.10966,1.08457,1.66959,2.80773,1.66959,5.19987v8.12924h-3.15593v-7.95692c0-1.40893-.29523-2.4631-.90606-3.19291-.60064-.73994-1.47616-1.10485-2.63673-1.10485-1.24201,0-2.20915.42572-2.90142,1.2873-.71263.86158-1.05876,2.03738-1.05876,3.53754v7.43998h-3.11521v-13.24802c0-.85144.69227-1.53057,1.53724-1.53057h.01018c.84497,0,1.52706.68926,1.52706,1.52043v.40545c1.11985-1.40893,2.69781-2.10833,4.75425-2.10833,1.74085.02027,3.16611.55749,4.27577,1.62179"/>
      <path class="cls-1" d="M66.49007,4.19923c-.03054.07095-.06108.14191-.09163.21286-.01018.01014-.01018.02027-.01018.03041-.03054.07095-.06108.13177-.08144.20272-.0509.1115-.09163.21286-.13234.32436-.03054.07095-.0509.13177-.08144.20272-.06108.14191-.12217.28381-.18325.42572-.01018.01014-.01018.02027-.01018.03041-.24433.4764-.31559.99335.1018,1.40893s.9366.34463,1.4049.10136c.01018,0,.02036-.01014.03054-.01014.07126-.03041.13234-.06082.20361-.08109.19343-.08109.38685-.16218.59046-.24327.12217-.05068.24433-.10136.36649-.15204,1.34382-.38518,1.8732-2.01711.86533-3.03073-.8857-.96294-2.52474-.60817-2.97268.57776"/>
      <path class="cls-1" d="M63.50721,5.89198c-.03054-.08109-.07126-.16218-.1018-.24327-.03054-.07095-.06108-.13177-.08144-.20272-.06108-.14191-.12217-.28381-.18325-.42572-.0509-.1115-.09163-.21286-.13234-.32436,0-.01014-.01018-.02027-.01018-.03041-.02036-.05068-.0509-.1115-.07126-.16218-.03054-.08109-.07126-.16218-.1018-.23313-.40722-1.24675-2.07681-1.66234-2.99304-.70953-.97732.92239-.5192,2.61514.75335,2.98005.07126.03041.13234.06082.20361.08109.16288.07095.32577.13177.48866.20272.07126.03041.13234.05068.20361.08109.0509.02027.11198.05068.16288.07095.14253.06082.28505.12163.42758.17232.77371.51695,1.83247-.40545,1.43544-1.25689"/>
      <path class="cls-1" d="M68.84175,10.28096c-.04072-.02027-.08144-.03041-.11198-.05068-.03054-.01014-.07126-.03041-.1018-.04054-.17307-.07095-.34614-.14191-.5192-.21286-.12217-.05068-.23415-.10136-.35631-.15204-.04072-.02027-.09163-.03041-.13234-.05068-.07126-.03041-.13234-.05068-.20361-.08109s-.15271-.06082-.22397-.09123c-.97732-.46627-1.8732.59804-1.33363,1.5103.0509.1115.09163.223.14253.34463,0,.01014.01018.02027.01018.03041.02036.05068.0509.1115.07126.16218.0509.1115.09163.21286.13234.32436,0,.01014.01018.02027.01018.03041.04072.1115.09163.223.13234.32436,1.39471,3.48686,5.68066-.23313,2.48402-2.04751"/>
      <path class="cls-1" d="M62.77422,12.62242c.03054-.08109.07126-.16218.1018-.24327.02036-.05068.0509-.1115.07126-.16218.01018-.01014.01018-.02027.01018-.03041.1018-.24327.21379-.49667.31559-.75008.03054-.07095.0509-.13177.08144-.20272s.06108-.14191.09163-.21286c.48866-.82103-.45812-1.85493-1.32345-1.44948-.01018.01014-.02036.01014-.03054.01014-.12217.05068-.23415.10136-.35631.15204-.07126.03041-.13234.05068-.20361.08109-.25451.10136-.49884.21286-.75335.31422-.07126.03041-.13234.06082-.20361.08109-1.27255.37504-1.75103,2.06779-.77371,2.99018.90606.9224,2.53492.5879,2.97268-.57776"/>
      <path class="cls-1" d="M17.92951,3.55052c1.75103,1.81438-.90606,4.35857-2.71817,2.67596-1.74085-1.81438.89587-4.35857,2.71817-2.67596M16.50426,8.92271c.86533-.06082,1.62887.60817,1.61868,1.49002v13.25816h-3.11521v-13.25816c0-.8109.68209-1.49002,1.49652-1.49002"/>
      <path class="cls-1" d="M40.71327,3.55052c1.75103,1.81438-.90606,4.35857-2.71817,2.67596-1.75103-1.81438.90606-4.35857,2.71817-2.67596M39.30838,8.92271c.86533-.06082,1.62887.60817,1.61868,1.49002v13.25816h-3.11521v-13.25816c-.02036-.8109.66173-1.49002,1.49652-1.49002"/>
      <path class="cls-1" d="M12.83931,20.93411H4.18596l7.9-9.35572c.86533-.99335.1018-2.6861-1.24201-2.64555H.17488v2.73678h8.09343L.42939,20.93411c-.90606.98321-.30541,2.75705,1.11985,2.73678h11.30026l-.01018-2.73678h0Z"/>
    </g>
  </g>
</svg>