<?xml version="1.0" encoding="UTF-8"?>
<svg id="Layer_1" data-name="Layer 1" xmlns="http://www.w3.org/2000/svg" viewBox="0 0 70 40">
  <defs>
    <style>
      .cls-1 {
        fill: none;
      }

      .cls-2 {
        fill: #053840;
        fill-rule: evenodd;
      }
    </style>
  </defs>
  <g id="_-SYMBOLS-RWD-APP-LIBRARY" data-name="📚-SYMBOLS-RWD-APP-LIBRARY">
    <g id="_01.CL-PRIMITIVES_01.icons_A.FINANCE_01.Branding_01.Logos_Zinia_01.lightbg" data-name="01.CL-PRIMITIVES/01.icons/A.FINANCE/01.Branding/01.Logos/Zinia/01.lightbg">
      <polygon id="Path" class="cls-1" points="0 9.5 70 9.5 70 30.5 0 30.5 0 9.5"/>
      <path id="_-COLOR-FILL" data-name="🎨-COLOR-FILL" class="cls-2" d="m50.36196,15.28004c1.98646,0,3.51985.46482,4.60017,1.3942,1.07947.92947,1.6192,2.26559,1.6192,4.00839h0v5.86715c0,.69701.18363,1.04561.66759,1.04561.70877,0,1.36006.61129,1.36006,1.36525,0,.75388-.60923,1.36508-1.36006,1.36508h-.72508c-.96448,0-1.65867-.20333-2.08256-.60999-.42475-.40658-.6367-.99701-.6367-1.77174-1.11894,1.70411-2.74843,2.55603-4.88848,2.55603-1.65867,0-2.98955-.3871-3.99265-1.16175-1.00224-.77438-1.50422-1.83946-1.50422-3.19506,0-1.52947.53973-2.70586,1.62006-3.52909,1.08032-.8228,2.65147-1.23438,4.71515-1.23438h3.73179v-.90052c0-.83228-.28917-1.48587-.86752-1.96051-.57834-.4743-1.37894-.71166-2.40091-.71166-.90699,0-1.65438.19877-2.24217.59543-.58864.3971-.94046.9249-1.05544,1.58297h-3.06678c.15445-1.49078.81003-2.6477,1.96672-3.47094,1.15755-.8228,2.67121-1.23446,4.54182-1.23446Zm-33.71348.1743c.82238,0,1.48903.66936,1.48903,1.49509v13.37628h-3.12427v-13.35801c0-.83581.67479-1.51335,1.50713-1.51335h.12811Zm12.36554-.1743c1.75469,0,3.18665.54236,4.29581,1.62665,1.10873,1.08464,1.66339,2.82734,1.66339,5.22812v8.1909h-3.1531v-8.01651c0-1.41333-.2993-2.48805-.89686-3.2241-.59791-.7357-1.4753-1.10376-2.63242-1.10376-1.23435,0-2.20347.43113-2.90726,1.29253-.70414.86183-1.05587,2.0477-1.05587,3.55813v7.49371h-3.12419v-13.33225c0-.85003.68629-1.53912,1.53288-1.53912h.00789c.84255,0,1.52558.6859,1.52558,1.53188v.41416c1.11825-1.41324,2.69978-2.12033,4.74416-2.12033Zm10.42886.1743c.82204,0,1.48877.66936,1.48877,1.49509v13.37628h-3.12384v-13.35801c0-.83581.67471-1.51335,1.50722-1.51335h.12785Zm-28.57804,0c.88537,0,1.60298.72062,1.60298,1.60951h0v.05747c0,.36789-.12923.72398-.36511,1.00546h0l-7.90824,9.43957h8.64945v2.75936H1.54875c-.85533,0-1.54875-.69624-1.54875-1.55505,0-.44018.15463-.86614.43685-1.20293H.43685l7.83651-9.35402H.17247v-2.75936h10.69237Zm42.62139,8.24897h-3.87595c-.96448,0-1.70672.18886-2.22758.5664-.52085.37754-.78085.93446-.78085,1.67007,0,.63903.24541,1.15227.73709,1.53946.49168.38754,1.16184.58096,2.01049.58096,1.29227,0,2.30051-.34859,3.02302-1.04569.72336-.6971,1.09491-1.62656,1.11379-2.78831h0v-.52289Zm12.54085-7.37111c.30119-.30327.74482-.37823,1.11637-.22539.00172.00069.00343.00138.00515.00207s.00343.00138.00515.00207h0c.00686.00276.00772.00353.00944.00414.00172.00069.00343.00146.00515.00207.00172.00078.00343.00146.00515.00215l.00258.00103.00257.00103.00944.00422c.00172.0006.00343.00138.00515.00207.00172.0006.00343.00138.00515.00207l.00257.00103c.00343.00172.00515.00241.00687.0031.00171.00069.00343.00138.00515.00207h0c.00687.00276.00858.00353.0103.00422.00172.00069.00258.00138.00429.00207l.00257.00107c.00429.00169.00601.00238.00773.00307h0c.00686.00284.00858.00353.0103.00422s.00258.00138.00429.00207c.00172.00069.00343.00146.00515.00207.00172.00069.00343.00146.00515.00207.00172.00069.00343.00138.00515.00215.00172.00069.00343.00138.00429.00207.00172.00069.00343.00138.00515.00207.00172.00069.00343.00138.00515.00215.00171.0006.00343.00138.00515.00198.00172.00069.00343.00146.00515.00207.00085.00078.00257.00146.00429.00215h0c.00687.00276.00858.00345.0103.00414.00172.00069.00343.00146.00515.00215.00172.0006.00257.00138.00429.00198.00172.00069.00343.00146.00515.00215h0c.00686.00276.00858.00345.0103.00414s.00343.00138.00515.00207c.00172.00069.00258.00146.00429.00215.00172.0006.00343.00138.00515.00207.00172.00069.00343.00138.00515.00207h0c.00686.00276.00772.00345.00944.00414.00172.00069.00343.00146.00515.00215l.00257.001c.00429.00167.00601.00244.00773.00313s.00343.00138.00515.00207c.00086.00069.00258.00146.00429.00207.00172.00069.00343.00138.00515.00215.00172.00069.00343.00138.00515.00207l.00258.00103c.00429.00172.006.00241.00772.0031.00086.00069.00258.00146.00429.00207h0c.00687.00276.00858.00353.0103.00422.00172.00069.00343.00138.00429.00207.00172.00069.00343.00138.00515.00207.00172.00069.00343.00138.00515.00215h0c.00686.00267.00858.00345.0103.00405.00172.00078.00343.00146.00429.00215.00171.00069.00343.00138.00515.00207.00172.00069.00343.00138.00515.00215h0c.00686.00267.00858.00345.0103.00405.00086.00069.00257.00147.00429.00215s.00343.00138.00515.00207.00343.00138.00515.00207c.00172.00069.00343.00138.00515.00215.00172.0006.00258.00138.00429.00207.00172.0006.00343.00138.00515.00207.00172.00069.00343.00138.00515.00207.00171.00069.00343.00138.00515.00207.00172.00069.00343.00138.00515.00215.00171.0006.00257.00138.00429.00207h0c.00686.00267.00858.00345.0103.00414.00172.00069.00343.00138.00515.00207.00172.00069.00343.00146.00429.00207.00172.00069.00343.00138.00515.00215.00172.00069.00343.00138.00515.00207h0c.00687.00276.00858.00345.0103.00414l.00687.00313h0c.00429.00169.006.00247.00772.00316h0c.00686.00276.00858.00345.00944.00414.00172.00069.00343.00138.00515.00207.00171.00069.00343.00146.00515.00207l.00258.00108c.00429.00177.006.00246.00772.00314h0c.006.00276.00772.00345.00944.00414s.00343.00138.00515.00215l.00258.001.00257.00107.00687.0031h0l.00257.00103c.00687.00276.00858.00345.0103.00413.00172.00069.00343.00147.00515.00215.00086.0006.00258.00138.00429.00207.00172.00069.00343.00138.00515.00207s.00343.00138.00515.00207h0c.00686.00284.00858.00353.00944.00422.00171.0006.00343.00138.00515.00207.00172.0006.00343.00138.00515.00207.00172.00069.00343.00138.00515.00207h0c.00687.00276.00772.00345.00944.00422.00172.0006.00343.00138.00515.00207s.00343.00138.00515.00207c.00172.00069.00343.00138.00515.00207.00172.00069.00343.00146.00515.00207.00086.00069.00258.00146.00429.00207.00172.00069.00343.00146.00515.00215.00172.00069.00343.00138.00515.00207.00172.00069.00343.00138.00515.00207.00172.00069.00258.00138.00429.00207.00172.00069.00343.00147.00515.00207h0c.00686.00276.00858.00353.0103.00422.00171.00069.00343.00138.00429.00207.00172.00069.00343.00138.00515.00207.00171.00069.00343.00138.00515.00215h0c.00687.00276.00858.00345.0103.00414.00172.00069.00258.00138.00429.00207s.00343.00138.00515.00207l.00258.00103c.00429.00172.00601.0025.00772.00319h0c.00601.00276.00773.00345.00944.00414.00172.00069.00343.00146.00515.00207l.00258.00103c.00429.00172.006.0025.00772.00319h0c.006.00267.00772.00345.00944.00414s.00343.00138.00515.00207.00343.00146.00515.00207l.00687.00318h0l.00257.00105c.00687.00276.00858.00345.0103.00413.00172.00069.00343.00147.00515.00207.00172.00069.00258.00147.00429.00207.00172.00069.00343.00147.00515.00215s.00343.00138.00515.00207h0c.00687.00276.00858.00353.00944.00414.00171.00069.00343.00146.00515.00207.00172.00069.00343.00146.00515.00207.00171.00078.00343.00146.00515.00215.00172.00069.00343.00138.00515.00207.00171.00069.00257.00138.00429.00215.00172.0006.00343.00138.00515.00207.00172.0006.00343.00138.00515.00198.00172.00069.00343.00146.00515.00215.00172.00069.00343.00138.00429.00207h0c.00687.00276.00858.00353.0103.00422.00172.0006.00343.00138.00515.00207.00172.0006.00343.00138.00515.00207l.00215.00103c.00386.00172.00558.0025.00729.0031h0c.00687.00276.00858.00353.0103.00422.00171.0006.00343.00138.00429.00207.00172.0006.00343.00138.00515.00207.00171.00069.00343.00146.00515.00207.00172.00069.00343.00146.00515.00207h0c.00686.00284.00772.00353.00944.00422s.00343.00138.00515.00207l.00258.00104c.00429.00171.00601.00249.00772.00309h0l.00944.00422c.00172.00069.00343.00138.00515.00207.00172.00069.00343.00138.00515.00207l.00258.00103c.00429.00172.00515.0025.00687.0031h0c.00686.00284.00858.00353.0103.00422.00171.00069.00343.00138.00515.00207l.00258.00104c.00343.00171.00515.00249.00686.00318.00172.0006.00343.00138.00515.00198h0c.00686.00284.00858.00362.0103.00422.00172.00069.00258.00138.00429.00207.00172.00069.00343.00138.00515.00207.00172.00069.00343.00147.00515.00215h0c.00687.00276.00858.00345.00944.00414.00171.00069.00343.00138.00515.00207s.00343.00138.00515.00215c.00172.00069.00343.00138.00515.00207.00172.0006.00343.00138.00515.00207.00171.00069.00257.00138.00429.00207.00172.00069.00343.00138.00515.00207.00171.00069.00343.00147.00515.00207.00172.00069.00343.00147.00515.00207.00172.00078.00343.00147.00515.00215.00086.00069.00258.00138.00429.00207.00172.00069.00343.00138.00515.00207.00172.00069.00343.00146.00515.00207.00172.00069.00343.00146.00515.00215l.00215.00103c.00386.00172.00558.00241.00729.0031h0c.00687.00276.00858.00353.0103.00422.00171.0006.00343.00138.00429.00198.00172.00069.00343.00146.00515.00215l.00257.00103c.00429.00172.00601.00241.00773.0031h0l.00944.00422c.00172.0006.00343.00138.00515.00207l.00258.00103c.00429.00172.006.0025.00772.0031h0l.00944.00422c.00172.0006.00343.00138.00515.00207.00172.0006.00343.00138.00515.00207l.00258.00103c.00429.00172.00515.0025.00687.0031.00171.00069.00343.00138.00515.00207h0c.00686.00276.00858.00353.0103.00422l.00247.00103c.00354.00172.00526.00241.00697.0031s.00343.00146.00515.00207h0c.00686.00284.00858.00353.0103.00422.00086.00069.00257.00138.00429.00207.00172.00069.00343.00138.00515.00215.00172.0006.00343.00138.00515.00198.00172.00069.00343.00147.00515.00207h0c.006.00284.00772.00353.00944.00422s.00343.00138.00515.00207c.00172.00069.00343.00146.00515.00215.00172.0006.00343.00138.00515.00198.00171.00069.00257.00146.00429.00215.00172.00069.00343.00138.00515.00207.00171.00069.00343.00138.00515.00207.00172.00069.00343.00138.00515.00207l.00257.00108c.00343.00168.00515.00246.00687.00306h0c.00686.00284.00858.00362.0103.00422.00172.00069.00343.00138.00515.00207.00086.00069.00258.00146.00429.00215.00172.0006.00343.00138.00515.00207h0c.00687.00276.00858.00345.0103.00414.00172.00069.00343.00146.00515.00207.00086.00069.00258.00146.00429.00215l.00257.00103c.00429.00164.00601.00241.00773.0031h0c.00686.00276.00772.00353.00944.00414.00172.00069.00343.00146.00515.00207.00172.00069.00343.00147.00515.00215l.00257.00103.00258.00103.00944.00422c.00172.0006.00343.00138.00515.00198.00172.00069.00343.00146.00515.00207l.00258.00111c.00429.00173.00515.00242.00686.00311.00172.00069.00343.00138.00515.00207h0c.00686.00276.00858.00353.0103.00414.00172.00069.00343.00147.00515.00215.00085.00069.00257.00138.00429.00207s.00343.00138.00515.00207h0c.00686.00276.00858.00353.0103.00422.00172.0006.00257.00138.00429.00207l.00258.00103c.00429.00172.006.00241.00772.0031h0c.00687.00276.00858.00353.00944.00422.00172.0006.00343.00138.00515.00207.00172.0006.00343.00138.00515.00207.00172.00069.00343.00138.00515.00207.00172.00069.00343.00146.00515.00207.00086.00069.00258.00138.00429.00215.00172.00069.00343.00138.00515.00207.00171.0006.00343.00138.00515.00207.00172.00069.00343.00138.00515.00207l.00247.00107c.00354.00169.00526.00247.00697.00307h0c.00686.00284.00858.00353.0103.00422.00172.00069.00343.00138.00515.00207.00172.00069.00258.00138.00429.00207.00172.00069.00343.00146.00515.00207.00172.00069.00343.00146.00515.00207h0c.00686.00284.00858.00353.0103.00422.00086.00069.00258.00138.00429.00207l.00258.00108c.00429.00168.00601.00246.00772.00314h0l.00944.00414c.00171.00069.00343.00138.00515.00207.00172.00069.00343.00138.00515.00207l.00257.00108c.00429.00168.00601.00246.00773.00314.00086.00069.00257.00138.00429.00207s.00343.00138.00515.00207.00343.00138.00515.00215l.00258.001c.00429.00167.00515.00244.00686.00313.00172.0006.00343.00138.00515.00207h0c.00686.00276.00858.00353.0103.00414.00172.00069.00343.00138.00429.00207.00171.00078.00343.00147.00515.00215.00172.0006.00343.00138.00515.00207.00171.00069.00343.00138.00515.00207h0c.00686.00276.00772.00353.00944.00414.00172.00069.00343.00146.00515.00215.00172.00069.00343.00138.00515.00207.00172.00069.00343.00138.00515.00207.00172.00069.00343.00138.00429.00207.00172.00069.00343.00147.00515.00207.00172.00069.00343.00146.00515.00215.00172.00069.00343.00138.00515.00207.00172.00069.00343.00138.00515.00207.00172.00069.00258.00138.00429.00207h0c.00686.00276.00858.00353.0103.00422.00172.00069.00343.00138.00515.00207l.00258.00103c.00343.00172.00515.00241.00687.0031h0c.00686.00276.00858.00353.0103.00422.00171.0006.00343.00138.00515.00198.00172.00078.00258.00146.00429.00215.00172.00069.00343.00146.00515.00207.00172.00069.00343.00138.00515.00207h0c.22224.09047.42646.22315.60323.40029.70362.70666.70362,1.85247,0,2.55905-.70363.70675-1.84487.70675-2.5485,0-.17676-.17714-.3089-.38202-.39729-.6006,0-.00164-.00086-.00327-.00172-.00491h0c-.00258-.00663-.00343-.00827-.00429-.00999l-.00086-.00246c-.00172-.00409-.00258-.00582-.00343-.00745h0c-.00258-.00663-.00343-.00827-.00429-.00991,0-.00172-.00086-.00336-.00172-.00508l-.00118-.00247-.00053-.00253c-.00343-.00655-.00343-.00819-.00429-.00991-.00086-.00164-.00172-.00327-.00258-.00491,0-.00172-.00086-.00336-.00172-.005h0c-.00257-.00663-.00343-.00827-.00429-.00999l-.00118-.0025c-.00139-.00414-.00225-.00577-.00311-.0075h0c-.00258-.00655-.00343-.00827-.00429-.00991,0-.00164-.00086-.00336-.00172-.005l-.00118-.00246c-.00139-.00418-.00225-.00582-.00311-.00754h0c-.00257-.00655-.00343-.00818-.00429-.00991,0-.00164-.00086-.00336-.00172-.005l-.00118-.00246-.00053-.00246-.00375-.00753h0c-.0014-.00419-.00226-.00574-.00311-.00746h0l-.00172-.005c-.00258-.00663-.00343-.00827-.00429-.00991l-.00118-.0025c-.0014-.00413-.00225-.00577-.00311-.00741h0c-.00258-.00672-.00343-.00836-.00429-.00999,0-.00164-.00086-.00327-.00172-.005-.00258-.00663-.00343-.00836-.00429-.00999-.00086-.00164-.00172-.00327-.00172-.00491-.00086-.00164-.00172-.00336-.00258-.005h0l-.00172-.005c-.00258-.00663-.00343-.00827-.00429-.00991l-.00118-.00254c-.00139-.00418-.00225-.00573-.00311-.00745h0c-.00258-.00663-.00343-.00827-.00429-.00991-.00086-.00172-.00086-.00336-.00172-.00508-.00257-.00663-.00343-.00827-.00429-.00991-.00086-.00164-.00172-.00336-.00172-.005-.00086-.00164-.00172-.00327-.00258-.00491-.00086-.00172-.00086-.00336-.00172-.005-.00085-.00164-.00171-.00336-.00257-.005,0-.00164-.00086-.00327-.00172-.005-.00258-.00663-.00343-.00827-.00429-.00999h0c-.00257-.00655-.00343-.00827-.00429-.00991-.00086-.00172-.00086-.00336-.00172-.005h0c-.00258-.00663-.00343-.00827-.00429-.00991-.00086-.00172-.00172-.00336-.00172-.005-.00086-.00172-.00171-.00327-.00257-.005-.00086-.00164-.00172-.00327-.00172-.005-.00086-.00164-.00172-.00327-.00258-.00491,0-.00172-.00086-.00327-.00172-.005-.00257-.00663-.00343-.00827-.00429-.00991h0c-.00258-.00672-.00343-.00836-.00429-.00999-.00086-.00172-.00086-.00336-.00172-.005h0c-.00258-.00663-.00343-.00827-.00429-.00999-.00086-.00164-.00172-.00327-.00172-.00491h0c-.00343-.00672-.00429-.00836-.00429-.00999h0c-.00343-.00663-.00343-.00827-.00429-.00999h0c-.00258-.00663-.00343-.00827-.00429-.00991-.00086-.00172-.00172-.00336-.00172-.005-.00086-.00164-.00172-.00327-.00258-.00491-.00086-.00172-.00086-.00336-.00171-.005h0c-.00258-.00672-.00343-.00827-.00429-.00991h0c-.00258-.00672-.00343-.00836-.00429-.00999-.00086-.00172-.00171-.00336-.00171-.005h0c-.00343-.00672-.00343-.00827-.00429-.00999h0c-.00258-.00663-.00343-.00827-.00429-.00991-.00086-.00172-.00172-.00336-.00172-.005h0c-.00343-.00663-.00429-.00827-.00429-.00999h0c-.00343-.00663-.00343-.00827-.00429-.00999h0c-.00257-.00655-.00343-.00818-.00429-.00991-.00086-.00164-.00172-.00327-.00172-.005h0c-.00343-.00663-.00343-.00827-.00429-.00991h0c-.00258-.00663-.00343-.00827-.00429-.00999-.00086-.00164-.00172-.00327-.00172-.00491h0c-.00343-.00672-.00429-.00836-.00429-.00999h0c-.00343-.00663-.00343-.00827-.00429-.00991-.00086-.00172-.00172-.00336-.00258-.00508,0-.00164-.00086-.00327-.00172-.00491-.00086-.00172-.00172-.00336-.00172-.005h0c-.00343-.00663-.00343-.00827-.00429-.00999h0c-.00258-.00663-.00343-.00827-.00429-.00991-.00086-.00172-.00172-.00327-.00172-.005h0c-.00343-.00663-.00429-.00827-.00429-.00999h0c-.00343-.00663-.00343-.00827-.00429-.00991h0c-.00258-.00663-.00343-.00827-.00429-.00991-.00086-.00172-.00171-.00336-.00171-.00508h0c-.00343-.00663-.00343-.00818-.00429-.00991h0l-.00343-.00746h0c-.00172-.00417-.00257-.00581-.00343-.00744h0c-.00258-.00663-.00343-.00827-.00343-.00991h0c-.00343-.00672-.00343-.00836-.00429-.01008h0c-.00257-.00655-.00343-.00827-.00429-.00991s-.00172-.00327-.00172-.005h0l-.00375-.00744h0l-.00054-.00247-.00343-.0075h0c-.00172-.00414-.00258-.00577-.00343-.0075h0c-.00258-.00663-.00343-.00827-.00343-.00991h0c-.00343-.00663-.00343-.00827-.00429-.00991h0c-.00258-.00672-.00343-.00836-.00429-.00999-.00086-.00172-.00172-.00327-.00172-.005h0l-.00375-.00746h0l-.00053-.00253-.00343-.00741h0l-.00086-.0025-.00258-.005c-.00257-.00672-.00343-.00836-.00343-.00999h0l-.00376-.00741h0l-.00053-.0025c-.00258-.00663-.00343-.00827-.00429-.00991-.00085-.00172-.00171-.00336-.00257-.00508,0-.00164-.00086-.00327-.00172-.00491l-.00118-.0025-.00053-.0025-.00343-.00745h0l-.00086-.00246c-.00257-.00672-.00343-.00836-.00429-.00999-.00086-.00164-.00172-.00327-.00172-.00491h0l-.00375-.00755h0c-.0014-.00417-.00225-.00581-.00311-.00744h0c-.00258-.00663-.00343-.00827-.00429-.00999,0-.00172-.00086-.00336-.00172-.005l-.00118-.00241-.00054-.00241-.00343-.00761h0c-.00172-.00419-.00258-.00583-.00343-.00746,0-.00164-.00086-.00327-.00172-.00491l-.00129-.00253c-.00129-.00419-.00215-.00583-.003-.00746l-.00118-.0025c-.00139-.00414-.00225-.00577-.00311-.0075h0c-.00258-.00655-.00343-.00827-.00429-.00991,0-.00172-.00085-.00336-.00171-.005l-.00118-.0025-.00053-.0025-.00375-.00745h0c-.0014-.00409-.00226-.00573-.00311-.00737,0-.00172-.00086-.00345-.00172-.00508l-.00128-.00253c-.00129-.0041-.00215-.00574-.003-.00738l-.00118-.0025c-.0014-.00422-.00226-.00586-.00311-.0075h0c-.00257-.00663-.00343-.00827-.00429-.00991,0-.00172-.00086-.00336-.00172-.005l-.00118-.00253c-.0014-.00419-.00226-.00583-.00311-.00746l-.00118-.00247c-.00139-.00417-.00225-.0058-.00311-.00744-.00086-.00172-.00086-.00327-.00172-.005l-.00129-.0025c-.00129-.00422-.00215-.00586-.003-.0075l-.00118-.00246-.00054-.00246-.00257-.005c-.00258-.00672-.00343-.00827-.00429-.00991,0-.00172-.00086-.00336-.00172-.00508-.00258-.00663-.00343-.00818-.00429-.00991h0c-.00258-.00672-.00343-.00836-.00429-.00999-.00086-.00164-.00086-.00327-.00172-.005l-.00129-.00246c-.00129-.00409-.00214-.00573-.003-.00745l-.00118-.0025c-.00139-.00414-.00225-.00577-.00311-.00741l-.00118-.00254c-.0014-.00418-.00226-.00582-.00311-.00745-.00085-.00172-.00085-.00336-.00171-.005-.00086-.00172-.00172-.00327-.00258-.00491,0-.00172-.00086-.00336-.00172-.00508h0c-.00258-.00655-.00343-.00827-.00429-.00999-.00086-.00164-.00086-.00327-.00171-.00491l-.00129-.00246c-.00129-.00418-.00215-.00582-.003-.00754l-.00118-.00246c-.0014-.00418-.00226-.00582-.00311-.00745l-.00118-.0025c-.00139-.00414-.00225-.00577-.00311-.0075-.00086-.00164-.00086-.00327-.00172-.00491h0c-.00258-.00672-.00343-.00836-.00429-.00999h0c-.00257-.00663-.00343-.00827-.00429-.00991s-.00086-.00327-.00172-.005l-.00129-.00253-.00129-.00247-.00172-.00491c-.00257-.00672-.00343-.00836-.00429-.00999l-.00118-.00254c-.00139-.00418-.00225-.00573-.00311-.00737-.00086-.00172-.00086-.00336-.00172-.00508h0c-.00257-.00655-.00343-.00827-.00429-.00991h0c-.00258-.00663-.00343-.00827-.00429-.00991l-.00118-.00254c-.0014-.00418-.00226-.00582-.00311-.00745h0l-.00172-.005c-.00258-.00663-.00343-.00827-.00429-.00999l-.00118-.00246c-.0014-.00409-.00226-.00582-.00311-.00754-.00085-.00164-.00085-.00327-.00171-.00491h0c-.00258-.00663-.00343-.00827-.00429-.00991-.00258-.00672-.00343-.00836-.00429-.01008-.00086-.00164-.00172-.00319-.00172-.00491h0c-.00343-.00663-.00343-.00827-.00429-.00999h0c-.00258-.00663-.00343-.00827-.00429-.00991-.00086-.00164-.00171-.00336-.00171-.005-.00086-.00164-.00172-.00327-.00258-.00491h0l-.00172-.00508c-.00258-.00663-.00343-.00818-.00429-.00991-.00257-.00663-.00343-.00827-.00429-.00999-.00086-.00164-.00172-.00327-.00172-.00491h0c-.00343-.00672-.00343-.00836-.00429-.00999h0c-.00257-.00663-.00343-.00827-.00429-.00999-.00086-.00164-.00172-.00327-.00172-.005-.00086-.00164-.00172-.00327-.00258-.00491h0l-.00172-.00491c-.00343-.00672-.00343-.00836-.00429-.01008-.00258-.00655-.00343-.00827-.00429-.00991-.00086-.00164-.00172-.00327-.00172-.00491h0c-.00343-.00672-.00343-.00836-.00429-.00999h0c-.00258-.00663-.00343-.00827-.00429-.00999h0c-.00258-.00663-.00343-.00827-.00429-.00991h0l-.00172-.005c-.00343-.00663-.00343-.00827-.00429-.00991l-.00258-.005c-.00257-.00672-.00343-.00836-.00343-.00999h0c-.00343-.00663-.00343-.00827-.00429-.00999-.00086-.00164-.00172-.00327-.00258-.005,0-.00164-.00086-.00327-.00172-.00491h0c-.00257-.00663-.00343-.00827-.00429-.00999-.00086-.00164-.00172-.00336-.00172-.005h0c-.00343-.00655-.00343-.00827-.00429-.00991-.00257-.00663-.00343-.00827-.00429-.00991-.00086-.00172-.00172-.00336-.00172-.00508h0c-.00343-.00663-.00429-.00818-.00429-.00982-.00085-.00172-.00171-.00336-.00257-.00508-.00086-.00164-.00086-.00327-.00172-.005h0c-.00258-.00663-.00343-.00818-.00429-.00991-.00086-.00164-.00172-.00327-.00172-.005h0l-.00343-.00745h0l-.00086-.00254c-.00258-.00663-.00343-.00818-.00429-.00982h0c-.00258-.00672-.00343-.00844-.00429-.01008-.00086-.00164-.00172-.00327-.00172-.00491h0c-.00343-.00663-.00343-.00827-.00429-.00999h0c-.00258-.00663-.00343-.00827-.00429-.00991-.00086-.00172-.00172-.00336-.00172-.005h0l-.00343-.00745h0l-.00086-.00246-.00258-.00508c-.00257-.00663-.00343-.00827-.00429-.00991,0-.00164-.00086-.00327-.00172-.00491l-.00118-.00257-.00054-.00251c-.00343-.00663-.00343-.00818-.00429-.00991h0c-.00258-.00663-.00343-.00827-.00429-.00999-.00086-.00164-.00172-.00327-.00172-.005h0l-.00375-.00741h0l-.00054-.00241c-.00343-.00672-.00343-.00836-.00429-.00999h0c-.00258-.00672-.00343-.00836-.00429-.00999-.15188-.37341-.07722-.81824.22482-1.12142Zm-3.84592-.22539c.37155-.15284.81518-.0778,1.11722.22539.30204.30319.3767.74793.22396,1.12142-.00086.00164-.00086.00327-.00172.005l-.00129.00246c-.00129.00409-.00215.00573-.003.00745l-.00118.00254c-.0014.00418-.00226.00573-.00311.00737l-.00118.00254c-.00139.00418-.00225.00582-.00311.00745-.00086.00164-.00086.00336-.00172.00508h0c-.00258.00655-.00343.00818-.00429.00991h0c-.00258.00663-.00343.00819-.00429.00991-.00086.00164-.00086.00336-.00172.005-.00258.00663-.00343.00827-.00429.00991-.00257.00672-.00343.00836-.00429.01008l-.00118.00246c-.00139.00409-.00225.00573-.00311.00737-.00086.00172-.00086.00336-.00172.00508h0c-.00257.00655-.00343.00827-.00429.00991h0c-.00258.00663-.00343.00827-.00429.00991-.00086.00164-.00086.00336-.00172.005-.00343.00672-.00343.00836-.00429.00999h0c-.00258.00663-.00343.00827-.00429.00991l-.00118.00254c-.0014.00418-.00225.00582-.00311.00745s-.00086.00327-.00172.00491h0c-.00258.00672-.00343.00836-.00429.00999h0c-.00258.00663-.00343.00836-.00429.00999s-.00172.00327-.00172.00491c-.00086.00172-.00172.00336-.00258.005h0l-.00172.005c-.00258.00672-.00343.00827-.00429.00991l-.00118.00254-.00182.005c-.00215.00418-.00215.00582-.003.00745h0c-.00258.00663-.00343.00827-.00429.00991-.00258.00672-.00343.00836-.00429.01008-.00086.00164-.00172.00327-.00172.005-.00086.00164-.00172.00319-.00258.00482h0l-.00171.005c-.00258.00672-.00343.00836-.00429.00999s-.00172.00327-.00172.005h0c-.00343.00663-.00343.00827-.00429.00991h0c-.00343.00672-.00343.00836-.00429.01008h0c-.00258.00655-.00343.00818-.00429.00982-.00086.00172-.00172.00336-.00172.005h0c-.00343.00672-.00343.00836-.00429.00999h0c-.00258.00663-.00343.00827-.00429.00991-.00086.00172-.00172.00336-.00172.005h0c-.00343.00672-.00429.00827-.00429.00991h0c-.00343.00672-.00343.00836-.00429.01008-.00257.00663-.00343.00818-.00429.00991-.00086.00164-.00172.00327-.00172.00491h0c-.00343.00672-.00343.00836-.00429.00999h0c-.00258.00663-.00343.00836-.00429.00999h0c-.00258.00663-.00343.00827-.00429.00991h0l-.00172.005c-.00343.00663-.00343.00827-.00429.00991l-.00258.005c-.00258.00672-.00343.00836-.00343.00999h0c-.00343.00663-.00343.00827-.00429.00999h0l-.00343.00745h0c-.00172.00418-.00258.00573-.00343.00745,0,.00164-.00086.00327-.00172.00491h0l-.00171.00508c-.00343.00663-.00343.00827-.00429.00991h0l-.00258.00491c-.00258.00672-.00343.00836-.00343.00999h0c-.00343.00663-.00429.00827-.00429.00999-.00086.00164-.00172.00327-.00258.005-.00086.00172-.00086.00327-.00172.005h0c-.00257.00663-.00343.00827-.00429.00999-.00086.00164-.00172.00319-.00172.00483h0l-.00343.00758h0l-.00086.0025-.00257.005c-.00258.00655-.00343.00818-.00429.00991,0,.00164-.00086.00327-.00172.00491-.00086.00172-.00172.00336-.00172.005h0c-.00343.00663-.00343.00827-.00429.00999h0c-.00258.00663-.00343.00827-.00429.00999-.00086.00164-.00172.00327-.00172.00491h0l-.00343.00746h0l-.00086.00253-.00258.005c-.00258.00655-.00343.00818-.00429.00991,0,.00164-.00086.00336-.00172.005l-.00118.00253-.00053.00247-.00258.00491c-.00258.00672-.00343.00836-.00429.00999,0,.00164-.00086.00336-.00172.005-.00085.00164-.00171.00327-.00171.00491h0l-.00376.00754h0l-.00053.00246-.00258.005c-.00258.00663-.00343.00827-.00429.00999,0,.00164-.00086.00327-.00172.005l-.00118.00242-.00053.00249-.00258.005c-.00258.00663-.00343.00827-.00429.00991,0,.00164-.00086.00327-.00172.005-.00086.00164-.00172.00327-.00258.005h0c-.00258.00663-.00343.00827-.00343.00991h0c-.00343.00663-.00343.00836-.00429.00999-.00086.00164-.00172.00336-.00258.005,0,.00164-.00086.00327-.00172.005l-.00118.00246-.00054.00246-.00257.005c-.00258.00672-.00343.00836-.00429.00999-.00086.00164-.00086.00327-.00172.005l-.00129.00246-.00129.00246c-.00257.00663-.00343.00827-.00343.00999h0c-.00343.00663-.00343.00827-.00429.00999-.00086.00164-.00172.00327-.00258.00491l-.00053.0025-.00236.00496-.00053.00253-.00258.005c-.00258.00655-.00343.00818-.00429.00991l-.00086.0025c-.00171.00414-.00257.00577-.00343.0075h0c-.00258.00663-.00343.00827-.00343.00991h0c-.00343.00663-.00343.00827-.00429.00999-.00085.00164-.00171.00327-.00257.005,0,.00164-.00086.00327-.00172.00491l-.00129.0025c-.00129.00414-.00215.00577-.003.0075h0c-.00257.00663-.00343.00827-.00429.00991l-.00086.00247c-.00172.00425-.00258.00589-.00343.00753h0c-.00258.00672-.00343.00836-.00343.00999-.00086.00164-.00171.00327-.00257.00491s-.00086.00336-.00172.005c-.00086.00164-.00172.00327-.00258.005h0c-.00258.00663-.00343.00827-.00429.00991,0,.00164-.00085.00327-.00171.005l-.00118.00254c-.00139.00418-.00225.00573-.00311.00745l-.00086.00246c-.00172.00418-.00258.00582-.00343.00754h0c-.00257.00655-.00343.00819-.00343.00991-.00086.00164-.00172.00336-.00258.005l-.00118.00246c-.0014.00418-.00226.00582-.00311.00745h0l-.00171.005c-.00258.00663-.00343.00827-.00429.00991l-.00118.00253c-.0014.00419-.00226.00583-.00311.00746l-.00086.00253c-.00171.00419-.00257.00574-.00343.00746,0,.00164-.00086.00327-.00172.00491-.00086.00172-.00172.00336-.00258.005,0,.00172-.00086.00336-.00172.005l-.00118.00253c-.00139.0041-.00225.00574-.00311.00738h0c-.00258.00672-.00343.00836-.00429.00999,0,.00172-.00086.00336-.00172.005l-.00118.00246c-.00139.00418-.00225.00582-.00311.00754l-.00086.00246c-.00172.00418-.00258.00582-.00343.00745s-.00086.00336-.00172.005l-.00129.0025c-.00128.00414-.00214.00577-.003.00741l-.00118.00253c-.00139.00419-.00225.00583-.00311.00746h0c-.00258.00663-.00343.00827-.00429.00991,0,.00172-.00086.00336-.00172.00508l-.00118.00246c-.00139.00409-.00225.00573-.00311.00745l-.00118.00247c-.0014.00417-.00226.0058-.00311.00744-.00085.00172-.00085.00336-.00171.005-.00258.00663-.00343.00827-.00429.00991l-.00118.00253c-.0014.00419-.00226.00583-.00311.00755h0l-.00171.00491c-.00258.00663-.00343.00827-.00429.00999-.00258.00663-.00343.00827-.00429.00999-.00085.00164-.00171.00327-.00171.00491h0c-.00343.00663-.00343.00827-.00429.00999-.00258.00663-.00343.00827-.00429.00991l-.00118.0025c-.00139.00414-.00225.00577-.00311.00741h0l-.00172.00508c-.00343.00655-.00343.00818-.00429.00991h0c-.00257.00663-.00343.00827-.00429.00991-.00086.00172-.00172.00336-.00172.005h0c-.00343.00672-.00343.00836-.00429.00999-.00257.00663-.00343.00836-.00429.00999-.00086.00164-.00172.00327-.00172.00491-.00086.00164-.00172.00327-.00258.005-.00086.00164-.00172.00336-.00172.005h0c-.00343.00663-.00343.00827-.00429.00999h0c-.00258.00655-.00343.00827-.00429.00991h0l-.00172.00491c-.00343.00672-.00343.00836-.00429.00999-.00258.00663-.00343.00827-.00429.00991-.00258.00672-.00343.00836-.00429.00999-.00085.00172-.00171.00327-.00171.005h0c-.00343.00663-.00343.00827-.00429.00999h0c-.00258.00663-.00343.00827-.00429.00999-.00085.00164-.00171.00327-.00171.00491-.00086.00164-.00172.00327-.00258.00491-.00086.00172-.00086.00345-.00172.00508-.00343.00663-.00343.00827-.00429.00991h0c-.00257.00663-.00343.00827-.00429.00999-.00086.00164-.00172.00327-.00172.00491h0l-.00343.00753h0l-.00086.00247c-.00257.00663-.00343.00827-.00429.00999h0l-.00172.005c-.00343.00655-.00429.00818-.00429.00991h0c-.00343.00663-.00343.00827-.00429.00991h0c-.00258.00672-.00343.00836-.00429.00999s-.00172.00327-.00172.005l-.00129.00247-.00214.005-.00086.00253c-.00258.00655-.00343.00818-.00429.00991h0c-.00258.00663-.00343.00827-.00429.00991-.00086.00172-.00172.00336-.00172.005h0c-.00343.00663-.00343.00836-.00429.00999h0c-.00258.00663-.00343.00827-.00429.00991-.00086.00172-.00172.00336-.00172.005-.00086.00172-.00172.00327-.00258.005-.00086.00164-.00086.00327-.00172.00491h0c-.00343.00672-.00343.00836-.00429.00999h0c-.00258.00663-.00343.00836-.00429.01008-.00086.00164-.00172.00319-.00172.00482h0c-.00343.00672-.00343.00836-.00429.00999h0c-.00257.00672-.00343.00836-.00429.00999s-.00172.00327-.00172.005h0c-.00343.00655-.00429.00818-.00429.00991h0c-.00343.00672-.00343.00827-.00429.00991h0c-.00258.00672-.00343.00836-.00429.00999l-.00118.00254-.00054.00254c-.00343.00655-.00343.00818-.00429.00982h0c-.00258.00672-.00343.00836-.00429.00999-.00086.00172-.00172.00327-.00258.005,0,.00164-.00085.00336-.00171.005s-.00172.00327-.00172.00491h0c-.00343.00663-.00343.00836-.00429.01008-.00086.00164-.00172.00327-.00258.00491,0,.00164-.00085.00327-.00171.00491l-.00118.00254-.00053.00254c-.00343.00663-.00343.00827-.00429.00991h0l-.00343.00745h0c-.00172.00418-.00258.00582-.00343.00745,0,.00164-.00086.00336-.00172.00508-.00086.00164-.00172.00327-.00172.00491h0c-.00343.00663-.00343.00827-.00429.00999-.00086.00164-.00172.00327-.00258.005h0c-.00258.00655-.00343.00818-.00343.00991h0l-.00375.00745h0c-.00139.00418-.00225.00582-.00311.00745l-.00086.00253c-.08924.22105-.22138.42584-.39729.60298-.70448.70675-1.84487.70675-2.54936,0-.70363-.70658-.70363-1.85238,0-2.55905.17676-.17714.38099-.30982.59808-.39813h0c.00686-.00284.00858-.00353.0103-.00422.00171-.0006.00343-.00138.00515-.00207l.00258-.00103c.00429-.00172.00515-.0025.00686-.0031.00172-.00069.00343-.00147.00515-.00207h0c.00686-.00284.00858-.00353.0103-.00422.00172-.00069.00343-.00138.00515-.00207.00086-.00069.00258-.00138.00429-.00207.00172-.00069.00343-.00146.00515-.00207h0c.00687-.00284.00858-.00353.0103-.00422.00172-.00069.00258-.00138.00429-.00207.00172-.00069.00343-.00138.00515-.00207l.00257-.00108c.00429-.00168.00601-.00246.00773-.00314.00171-.00069.00343-.00138.00429-.00207.00172-.00069.00343-.00138.00515-.00207.00172-.00069.00343-.00138.00515-.00207l.00258-.00108c.00429-.00168.006-.00246.00772-.00314.00086-.0006.00258-.00138.00429-.00207s.00343-.00138.00515-.00207.00343-.00146.00515-.00207c.00172-.00069.00343-.00138.00515-.00215l.00258-.00103c.00343-.00164.00515-.00241.00686-.0031h0c.00687-.00276.00858-.00353.0103-.00413.00172-.00069.00343-.00147.00515-.00207.00172-.00069.00258-.00147.00429-.00207.00171-.00078.00343-.00147.00515-.00215s.00343-.00138.00515-.00207h0c.00686-.00276.00858-.00353.00944-.00414.00172-.00069.00343-.00146.00515-.00207l.00258-.00111c.00429-.00173.006-.00242.00772-.00311.00172-.00069.00343-.00138.00515-.00207.00086-.00069.00258-.00138.00429-.00207.00172-.00069.00343-.00147.00515-.00207.00172-.00078.00343-.00147.00515-.00215l.00258-.00103c.00429-.00172.00601-.00241.00772-.0031.00086-.00069.00258-.00146.00429-.00207.00172-.00069.00343-.00146.00515-.00215.00171-.0006.00343-.00138.00515-.00207l.00258-.00103c.00429-.00172.00515-.00241.00686-.0031.00172-.00069.00343-.00138.00515-.00207h0c.00686-.00276.00858-.00353.0103-.00422.00172-.0006.00343-.00138.00429-.00207l.00258-.00103c.00429-.00172.00601-.0025.00772-.0031h0c.00687-.00284.00858-.00353.0103-.00422.00172-.0006.00258-.00138.00429-.00207.00172-.00069.00343-.00138.00515-.00207l.00258-.00107c.00429-.00169.00601-.00247.00773-.00307.00171-.00069.00343-.00146.00429-.00207h0c.00686-.00284.00858-.00353.0103-.00422.00172-.00069.00343-.00138.00515-.00207l.00257-.00107c.00429-.00169.00515-.00247.00687-.00316h0c.00686-.00276.00858-.00345.0103-.00414s.00343-.00138.00515-.00207l.00247-.00108c.00354-.00168.00526-.00246.00697-.00306h0c.00687-.00284.00858-.00353.0103-.00422l.00515-.00207c.00086-.00069.00258-.00138.00429-.00215l.00257-.001c.00429-.00167.00601-.00245.00773-.00305h0c.00686-.00284.00858-.00353.0103-.00422.00086-.00069.00257-.00138.00429-.00207l.00258-.00108c.00429-.00168.006-.00246.00772-.00314.00172-.0006.00343-.00138.00515-.00198h0c.006-.00284.00772-.00362.00944-.00422.00172-.00069.00343-.00138.00515-.00207l.00258-.00108c.00429-.00168.00601-.00246.00772-.00314.00086-.00069.00258-.00138.00429-.00207h0c.00686-.00276.00858-.00353.0103-.00414.00172-.00078.00343-.00146.00515-.00215.00171-.00069.00257-.00138.00429-.00207.00172-.0006.00343-.00138.00515-.00207h0c.00686-.00276.00858-.00353.0103-.00414.00171-.00069.00343-.00146.00515-.00215.00086-.00069.00258-.00138.00429-.00207.00172-.00069.00343-.00138.00515-.00207.00172-.00069.00343-.00138.00515-.00207h0c.00686-.00276.00772-.00353.00944-.00414.00172-.00069.00343-.00146.00515-.00215.00172-.00069.00343-.00138.00515-.00207s.00343-.00138.00515-.00207h0c.00601-.00276.00773-.00353.00944-.00422.00171-.0006.00343-.00138.00515-.00198.00172-.00078.00343-.00146.00515-.00215l.00257-.00103c.00429-.00172.00515-.00241.00687-.0031h0c.00686-.00276.00858-.00353.0103-.00422s.00343-.00138.00515-.00207.00343-.00138.00429-.00207c.00172-.00069.00343-.00146.00515-.00207h0c.00687-.00284.00858-.00353.0103-.00422.00172-.0006.00343-.00138.00515-.00207.00172-.00069.00343-.00138.00429-.00207.00172-.00069.00343-.00147.00515-.00207.00172-.00069.00343-.00147.00515-.00207h0c.00686-.00284.00858-.00353.0103-.00422.00085-.0006.00257-.00138.00429-.00207s.00343-.00138.00515-.00207l.00257-.00107c.00429-.00169.00601-.00247.00773-.00316h0c.006-.00276.00772-.00345.00944-.00414.00172-.00069.00343-.00138.00515-.00207l.00258-.00108.00258-.00108.00686-.00306h0l.00258-.00108c.00686-.00276.00858-.00345.0103-.00414.00172-.00069.00343-.00138.00515-.00207.00172-.00069.00258-.00146.00429-.00215.00172-.0006.00343-.00138.00515-.00207.00171-.00069.00343-.00138.00515-.00207h0c.00686-.00276.00858-.00345.0103-.00414.00086-.00069.00258-.00146.00429-.00215.00172-.0006.00343-.00138.00515-.00207.00172-.00069.00343-.00138.00515-.00207h0c.00686-.00276.00772-.00353.00944-.00414.00172-.00069.00343-.00138.00515-.00207.00172-.00078.00343-.00146.00515-.00215s.00343-.00138.00515-.00207c.00172-.00069.00343-.00138.00515-.00207.00086-.00069.00258-.00146.00429-.00207.00172-.00069.00343-.00146.00515-.00207.00172-.00069.00343-.00146.00515-.00215l.00257-.00103c.00429-.00172.00515-.00241.00687-.0031h0c.00686-.00276.00858-.00353.0103-.00413.00171-.00069.00343-.00147.00515-.00207.00172-.00078.00343-.00147.00515-.00215.00086-.00069.00257-.00138.00429-.00207s.00343-.00138.00515-.00207h0c.00686-.00276.00858-.00353.0103-.00422.00172-.00069.00258-.00138.00429-.00207.00172-.00069.00343-.00138.00515-.00207.00172-.00069.00343-.00138.00515-.00207.00172-.00069.00343-.00138.00515-.00207.00172-.00069.00343-.00147.00515-.00215.00086-.0006.00258-.00138.00429-.00198.00172-.00078.00343-.00147.00515-.00215l.00257-.00103c.00429-.00172.00601-.00241.00773-.0031.00171-.00069.00257-.00146.00429-.00207h0c.00687-.00284.00858-.00353.0103-.00422.00172-.00069.00343-.00147.00515-.00207l.00257-.00107c.00343-.00169.00515-.00247.00687-.00316h0c.00686-.00267.00858-.00345.0103-.00414.00172-.00069.00343-.00138.00515-.00207.00172-.00069.00258-.00146.00429-.00207.00172-.00069.00343-.00146.00515-.00207.00172-.00078.00343-.00146.00515-.00215h0c.00686-.00276.00858-.00345.00944-.00414.00172-.00069.00343-.00147.00515-.00215.00171-.0006.00343-.00138.00515-.00198.00172-.00069.00343-.00146.00515-.00207h0c.00686-.00284.00772-.00353.00944-.00422.00172-.00069.00343-.00138.00515-.00215.00172-.0006.00343-.00138.00515-.00207l.00258-.001c.00429-.00167.006-.00244.00686-.00313h0c.00686-.00276.00858-.00345.0103-.00414s.00343-.00146.00515-.00215l.00258-.001c.00429-.00167.00515-.00244.00687-.00313.00171-.00069.00343-.00138.00515-.00207h0c.00686-.00276.00858-.00345.0103-.00422.00172-.00069.00343-.00138.00515-.00207.00086-.0006.00257-.00138.00429-.00207s.00343-.00138.00515-.00207.00343-.00146.00515-.00207c.00172-.00069.00343-.00146.00515-.00207.00172-.00069.00343-.00146.00429-.00215.00172-.00069.00343-.00138.00515-.00207l.00258-.001c.00429-.00176.006-.00253.00772-.00313h0l.00944-.00422c.00172-.00069.00343-.00138.00515-.00207l.00257-.00103c.00429-.00172.00601-.00241.00773-.0031.00171-.00069.00257-.00138.00429-.00207h0c.00686-.00284.00858-.00353.0103-.00422.00172-.00069.00343-.00138.00515-.00207l.00257-.00103c.00429-.00172.00515-.0025.00687-.00319h0c.00686-.00267.00858-.00345.0103-.00414.00172-.00069.00343-.00138.00515-.00207.00172-.00069.00258-.00138.00429-.00207.00172-.00069.00343-.00138.00515-.00207.00172-.00078.00343-.00146.00515-.00215h0c.00686-.00267.00858-.00345.0103-.00414.00086-.00069.00258-.00138.00429-.00207.00171-.00069.00343-.00138.00515-.00207l.00258-.00108c.00429-.00177.006-.00246.00772-.00314.00172-.0006.00258-.00138.00429-.00207.00172-.00069.00343-.00138.00515-.00207.00172-.00069.00343-.00146.00515-.00207l.00258-.00107c.00429-.00169.006-.00238.00686-.00307h0c.00686-.00284.00858-.00353.0103-.00422s.00343-.00138.00515-.00207c.00172-.00069.00343-.00146.00515-.00207l.00247-.00108c.00354-.00177.00526-.00246.00697-.00314h0c.00686-.00276.00858-.00345.0103-.00413.00172-.00069.00343-.00138.00515-.00207.00085-.00069.00257-.00147.00429-.00207l.00258-.00108c.00429-.00177.006-.00246.00772-.00314h0c.00687-.00276.00772-.00345.00944-.00414s.00343-.00146.00515-.00215l.00258-.001c.00429-.00176.006-.00244.00772-.00313.00172-.00069.00343-.00138.00515-.00207.00086-.00069.00258-.00138.00429-.00207.00172-.00069.00343-.00147.00515-.00207.00172-.00069.00343-.00147.00515-.00215l.00258-.001c.00429-.00176.00515-.00245.00686-.00313h0c.00686-.00276.00858-.00345.0103-.00414.00172-.00078.00343-.00146.00515-.00215.00171-.0006.00343-.00138.00515-.00207.00086-.00069.00258-.00138.00429-.00207.00172-.00069.00343-.00147.00515-.00207h0c.00687-.00276.00858-.00353.0103-.00422.00172-.00069.00258-.00138.00429-.00207.00172-.00069.00343-.00138.00515-.00207.00172-.00069.00343-.00138.00515-.00207.00172-.00069.00343-.00146.00515-.00207.00172-.00069.00343-.00146.00429-.00207.00172-.00078.00343-.00146.00515-.00215.00171-.00069.00343-.00138.00515-.00207l.00258-.00103c.00429-.00172.006-.0025.00772-.00319.00172-.0006.00343-.00138.00429-.00198h0c.00686-.00284.00858-.00353.0103-.00422.00172-.00069.00343-.00138.00515-.00207l.00258-.00104c.00343-.00171.00515-.00249.00686-.00318h0c.00687-.00276.00858-.00345.0103-.00414s.00343-.00138.00515-.00207l.00215-.00103c.00386-.00172.00558-.0025.00729-.00319h0c.00686-.00276.00858-.00345.0103-.00413.00172-.00069.00343-.00138.00515-.00207.00086-.00069.00258-.00138.00429-.00207l.00258-.00103c.00429-.00181.006-.0025.00772-.00319h0c.00686-.00276.00772-.00345.00944-.00414s.00343-.00146.00515-.00207c.00172-.00069.00343-.00146.00515-.00207l.00258-.00108c.00429-.00177.006-.00246.00772-.00314.00086-.0006.00258-.00138.00429-.00207.00172-.00069.00343-.00147.00515-.00207.00172-.00069.00343-.00147.00515-.00207l.00258-.00108.00257-.00108.00687-.0031h0l.00258-.00103c.00686-.00276.00858-.00353.0103-.00422.00171-.0006.00343-.00138.00515-.00198.00086-.00069.00258-.00146.00429-.00215.00171-.00069.00343-.00138.00515-.00207h0c.00687-.00276.00858-.00353.0103-.00422.00172-.0006.00343-.00138.00429-.00207.00172-.0006.00343-.00138.00515-.00198l.00258-.00111c.00429-.00173.00601-.00242.00772-.00311h0c.00687-.00284.00773-.00353.00944-.00422.00172-.0006.00343-.00138.00515-.00207l.00258-.001c.00429-.00175.006-.00244.00772-.00313s.00343-.00138.00429-.00207h0c.00686-.00284.00858-.00353.0103-.00422.00171-.0006.00343-.00138.00515-.00207l.00258-.00103c.00343-.00172.00515-.0025.00686-.0031h0c.00687-.00284.00858-.00353.0103-.00422s.00343-.00138.00515-.00207.00258-.00138.00429-.00207c.00172-.00069.00343-.00146.00515-.00207.00172-.00069.00343-.00146.00515-.00207h0c.00687-.00284.00858-.00353.00944-.00422.00171-.00069.00343-.00138.00515-.00207l.00258-.00103c.00429-.00172.006-.0025.00772-.00319h0c.00686-.00276.00858-.00345.00944-.00414.00172-.00069.00343-.00138.00515-.00207s.00343-.00138.00515-.00207Zm4.74261-6.03972c.70363-.70658,1.84487-.70658,2.5485,0,.70362.70666.70362,1.85247,0,2.55913-.17677.17723-.38099.30982-.59808.39813-.00172.00069-.00343.00146-.00515.00207-.00172.00069-.00343.00146-.00515.00215h0c-.00686.00276-.00772.00345-.00944.00414-.00172.00069-.00343.00146-.00515.00215-.00172.0006-.00343.00138-.00515.00198l-.00258.00108c-.00429.00177-.006.00246-.00686.00314h0c-.00686.00276-.00858.00345-.0103.00414s-.00343.00146-.00515.00215l-.00257.001c-.00429.00176-.00515.00244-.00687.00313-.00171.00069-.00343.00138-.00515.00207s-.00343.00138-.00515.00207c-.00172.00078-.00343.00146-.00515.00215-.00172.0006-.00258.00138-.00429.00207-.00172.0006-.00343.00138-.00515.00207s-.00343.00138-.00515.00207-.00343.00146-.00515.00207c-.00172.00069-.00343.00138-.00515.00215-.00172.00069-.00343.00138-.00429.00207-.00172.0006-.00343.00138-.00515.00207l-.00258.00103c-.00429.00172-.006.0025-.00772.0031-.00172.00069-.00343.00146-.00515.00207-.00086.00069-.00258.00146-.00429.00215-.00172.00069-.00343.00138-.00515.00207l-.00257.00103c-.00429.00172-.00601.00241-.00773.0031-.00171.00069-.00257.00146-.00429.00207h0c-.00687.00276-.00858.00353-.0103.00422-.00172.00069-.00343.00138-.00515.00207l-.00257.00103c-.00343.00172-.00515.00241-.00687.00319-.00172.0006-.00343.00138-.00515.00198h0c-.00687.00284-.00858.00353-.0103.00422-.00172.00069-.00343.00138-.00429.00207-.00172.00069-.00343.00138-.00515.00215-.00171.0006-.00343.00138-.00515.00198h0c-.00686.00284-.00858.00353-.0103.00422-.00086.00069-.00258.00138-.00429.00207-.00172.00069-.00343.00138-.00515.00207l-.00258.00111c-.00429.00165-.006.00242-.00772.00311-.00172.0006-.00258.00138-.00429.00207-.00172.00069-.00343.00146-.00515.00207-.00172.00069-.00343.00146-.00515.00207l-.00258.00108c-.00429.00177-.006.00246-.00686.00306h0c-.00686.00284-.00858.00353-.0103.00422s-.00343.00146-.00515.00207c-.00172.00069-.00343.00146-.00515.00207-.00172.00069-.00258.00146-.00429.00215-.00171.00069-.00343.00138-.00515.00207h0c-.00686.00276-.00858.00345-.0103.00414-.00172.00069-.00343.00146-.00515.00207-.00085.00069-.00257.00146-.00429.00215s-.00343.00138-.00515.00207-.00343.00138-.00515.00207c-.00172.00069-.00343.00138-.00515.00207-.00172.00069-.00257.00146-.00429.00207-.00172.00069-.00343.00146-.00515.00207l-.00258.00111c-.00429.00173-.006.00242-.00772.00311-.00172.00069-.00343.00138-.00515.00207-.00086.00069-.00258.00146-.00429.00215-.00172.0006-.00343.00138-.00515.00207-.00171.0006-.00343.00138-.00515.00207l-.00258.00103c-.00429.00172-.006.0025-.00686.0031h0c-.00687.00276-.00858.00353-.0103.00422-.00172.0006-.00343.00138-.00515.00207l-.00257.00103c-.00343.00172-.00515.00241-.00687.0031-.00172.00069-.00343.00146-.00515.00207h0c-.00687.00284-.00858.00353-.0103.00422-.00172.0006-.00258.00138-.00429.00207-.00172.00069-.00343.00138-.00515.00207-.00172.00069-.00343.00138-.00515.00207-.00172.00069-.00343.00146-.00515.00207-.00172.00069-.00343.00138-.00429.00207-.00172.00078-.00343.00146-.00515.00215-.00171.00069-.00343.00138-.00515.00207l-.00258.00103c-.00429.00172-.006.0025-.00772.0031-.00172.00069-.00343.00146-.00429.00215-.00172.00069-.00343.00138-.00515.00207-.00172.00069-.00343.00138-.00515.00207l-.00258.00104c-.00429.00171-.006.00249-.00772.00318-.00086.0006-.00257.00138-.00429.00198-.00172.00069-.00343.00146-.00515.00215s-.00343.00138-.00515.00207c-.00172.00069-.00343.00138-.00515.00207l-.00215.00108c-.00386.00168-.00558.00246-.00729.00314-.00172.0006-.00343.00138-.00515.00198-.00171.00078-.00343.00146-.00515.00215s-.00343.00146-.00429.00207c-.00171.00069-.00343.00138-.00515.00207l-.00258.00103c-.00429.00172-.006.0025-.00772.00319-.00172.0006-.00343.00138-.00515.00207-.00172.00069-.00343.00146-.00429.00207-.00172.00069-.00343.00146-.00515.00207-.00172.00069-.00343.00138-.00515.00207l-.00258.00111c-.00429.00165-.006.00242-.00772.00311-.00086.00069-.00258.00138-.00429.00207-.00172.00069-.00343.00138-.00515.00207-.00172.00069-.00343.00146-.00515.00207l-.00258.00111c-.00429.00173-.00515.00242-.00686.00311h0c-.00686.00276-.00858.00353-.0103.00422-.00172.0006-.00343.00138-.00515.00198-.00171.00069-.00343.00146-.00515.00215-.00086.00069-.00258.00138-.00429.00207-.00172.00069-.00343.00138-.00515.00207h0c-.00687.00276-.00858.00353-.0103.00422-.00172.0006-.00343.00138-.00429.00198-.00172.00069-.00343.00146-.00515.00215l-.00258.00103c-.00429.00172-.00601.00241-.00772.0031h0c-.00601.00276-.00773.00353-.00944.00422-.00172.0006-.00343.00138-.00515.00198l-.00258.00111c-.00429.00173-.006.00251-.00772.00311-.00172.00069-.00258.00138-.00429.00207-.00171.00069-.00343.00138-.00515.00207s-.00343.00146-.00515.00215c-.00172.00069-.00343.00138-.00515.00207l-.00247.00103c-.00354.00172-.00526.0025-.00697.0031h0c-.00687.00284-.00858.00353-.0103.00422-.00172.0006-.00343.00138-.00515.00207l-.00247.00103c-.00354.00172-.00526.0025-.00697.0031-.00172.00069-.00343.00146-.00515.00207-.00171.00078-.00343.00146-.00515.00215s-.00343.00138-.00515.00207c-.00086.00069-.00258.00138-.00429.00207l-.00258.00103c-.00429.00172-.006.0025-.00772.0031-.00172.00069-.00343.00146-.00515.00215-.00171.00069-.00257.00138-.00429.00207-.00172.00069-.00343.00138-.00515.00207-.00172.00069-.00343.00138-.00515.00207l-.00258.00108c-.00429.00168-.006.00246-.00772.00314-.00086.00069-.00258.00138-.00429.00207-.00172.00069-.00343.00138-.00515.00207-.00172.00069-.00343.00138-.00515.00207-.00172.00069-.00343.00138-.00515.00207-.00172.00069-.00258.00146-.00429.00215-.00172.00069-.00343.00138-.00515.00207h0c-.00686.00276-.00858.00353-.0103.00414-.00171.00069-.00343.00138-.00515.00207-.00086.00069-.00258.00146-.00429.00215-.00171.0006-.00343.00138-.00515.00207h0c-.00687.00276-.00858.00353-.0103.00414-.00172.00069-.00258.00146-.00429.00207-.00172.00069-.00343.00138-.00515.00207l-.00258.00111c-.00429.00173-.00601.00242-.00772.00311h0c-.00601.00276-.00773.00353-.00944.00414-.00172.00069-.00343.00146-.00515.00215l-.00258.00103c-.00429.00172-.006.00241-.00772.0031-.00172.00069-.00258.00138-.00429.00207h0c-.00686.00276-.00858.00353-.0103.00414-.00172.00069-.00343.00146-.00515.00207l-.00258.00111c-.00343.00173-.00515.00242-.00686.00311s-.00343.00138-.00515.00207-.00343.00146-.00515.00215c-.00172.0006-.00343.00138-.00515.00198-.00172.00078-.00258.00146-.00429.00215-.00172.00069-.00343.00138-.00515.00207s-.00343.00138-.00515.00207c-.00172.00069-.00343.00138-.00515.00207-.00172.00069-.00343.00146-.00429.00215-.00171.0006-.00343.00138-.00515.00198l-.00258.00111c-.00429.00173-.006.00251-.00772.00311-.00172.00069-.00343.00138-.00515.00207-.00171.00069-.00257.00146-.00429.00215-.00172.0006-.00343.00138-.00515.00207-.00172.00069-.00343.00138-.00515.00207l-.00258.00107c-.00429.00169-.006.00247-.00772.00307-.00086.00069-.00258.00146-.00429.00215-.00172.00069-.00343.00138-.00515.00207-.00172.00069-.00343.00138-.00515.00207-.00172.00069-.00343.00138-.00515.00207-.00172.00069-.00258.00146-.00429.00207-.00172.00069-.00343.00146-.00515.00215h0c-.00687.00276-.00858.00345-.0103.00414-.00171.00069-.00343.00138-.00515.00207-.00086.00069-.00258.00138-.00429.00207-.00171.00069-.00343.00146-.00515.00207-.00172.00069-.00343.00146-.00515.00215h0c-.00686.00276-.00772.00345-.00944.00414-.00172.00069-.00343.00138-.00515.00215l-.00258.001c-.00429.00167-.00601.00244-.00772.00313h0c-.00601.00276-.00773.00345-.00944.00414-.00172.00069-.00343.00138-.00515.00207l-.00258.00111c-.00429.00165-.006.00242-.00772.00311-.00172.0006-.00258.00138-.00429.00198h0c-.00686.00284-.00858.00362-.0103.00422-.00171.00069-.00343.00138-.00515.00207l-.00258.00108c-.00343.00168-.00515.00246-.00686.00314s-.00343.00138-.00515.00207-.00343.00146-.00515.00207c-.00172.00069-.00343.00146-.00515.00207-.00172.00069-.00257.00138-.00429.00207-.00172.00078-.00343.00146-.00515.00215-.00172.0006-.00343.00138-.00515.00207-.00172.00069-.00343.00146-.00515.00215-.00172.0006-.00343.00138-.00515.00198-.00086.00069-.00258.00146-.00429.00215s-.00343.00138-.00515.00207l-.00258.00103c-.00429.00172-.00601.00241-.00773.0031h0c-.006.00276-.00772.00353-.00944.00414-.00171.00078-.00343.00146-.00515.00215l-.00258.00103c-.00429.00172-.006.00241-.00772.0031-.00086.00069-.00258.00138-.00429.00207h0c-.00686.00276-.00858.00353-.0103.00414-.00172.00069-.00343.00146-.00515.00215-.00172.00069-.00343.00138-.00429.00207-.00172.00069-.00343.00138-.00515.00207h0c-.00687.00276-.00858.00353-.0103.00422-.00172.0006-.00343.00138-.00515.00198-.00086.00078-.00258.00146-.00429.00215-.00171.00069-.00343.00146-.00515.00207-.00172.00069-.00343.00146-.00515.00215h0c-.00686.00267-.00858.00345-.00944.00414-.00171.00069-.00343.00138-.00515.00207l-.00258.00107c-.00429.00169-.006.00247-.00772.00307-.00172.00069-.00343.00146-.00515.00215-.00086.00069-.00257.00138-.00429.00207-.00172.0006-.00343.00138-.00515.00207s-.00343.00138-.00515.00215l-.00258.00099c-.00429.00168-.00515.00246-.00686.00314h0c-.00687.00276-.00858.00345-.0103.00414-.00172.00069-.00343.00138-.00515.00207s-.00343.00146-.00515.00215c-.00171.0006-.00257.00138-.00429.00198-.00172.00069-.00343.00146-.00515.00215-.00171.00069-.00343.00138-.00515.00207s-.00343.00138-.00515.00207c-.00172.00069-.00343.00138-.00429.00207-.00172.00069-.00343.00146-.00515.00215-.00172.0006-.00343.00138-.00515.00207s-.00343.00138-.00515.00207c-.00172.00069-.00343.00138-.00515.00207-.00086.00069-.00258.00138-.00429.00207-.00172.00069-.00343.00146-.00515.00207l-.00258.00108c-.00429.00177-.00601.00246-.00773.00314-.00171.00069-.00257.00138-.00429.00207h0c-.00686.00276-.00858.00353-.0103.00422-.00172.00069-.00343.00138-.00515.00207l-.00257.001c-.00429.00176-.00515.00244-.00687.00313h0c-.00686.00276-.00858.00353-.0103.00422-.00172.00069-.00343.00138-.00515.00207l-.00687.00307h0c-.00429.00176-.006.00244-.00772.00313h0c-.00686.00276-.00858.00353-.0103.00414-.00086.00078-.00258.00146-.00429.00215-.00172.00069-.00343.00138-.00515.00207-.00172.00069-.00343.00138-.00515.00207h0c-.00686.00276-.00858.00353-.00944.00414-.00171.00069-.00343.00146-.00515.00215-.00172.00069-.00343.00138-.00515.00207l-.00257.00103c-.00429.00172-.00601.00241-.00687.0031h0c-.00686.00276-.00858.00353-.0103.00422-.00172.00069-.00343.00138-.00515.00207s-.00343.00138-.00515.00207l-.00247.00103c-.00354.00172-.00526.0025-.00697.0031-.00172.00069-.00343.00146-.00515.00215-.00172.00069-.00343.00138-.00515.00207s-.00343.00138-.00515.00207c-.00085.00069-.00257.00146-.00429.00207-.00172.00069-.00343.00146-.00515.00215-.00171.00069-.00343.00138-.00515.00207-.00172.0006-.00343.00138-.00515.00207-.00171.00069-.00257.00138-.00429.00207-.00172.00069-.00343.00146-.00515.00207l-.00257.00107c-.00429.00169-.00601.00247-.00773.00316-.00172.00069-.00343.00138-.00515.00207-.00172.00069-.00258.00138-.00429.00207-.00172.00069-.00343.00138-.00515.00215l-.00258.00099c-.00429.00168-.00601.00246-.00772.00306-.00172.00078-.00343.00146-.00429.00215h0c-.00686.00276-.00858.00345-.0103.00414-.00172.00069-.00343.00146-.00515.00215l-.00257.00099c-.00343.00177-.00515.00246-.00687.00314-.00171.00069-.00343.00138-.00515.00207h0c-.00687.00276-.00858.00345-.0103.00414-.00172.00069-.00258.00146-.00429.00215-.00172.0006-.00343.00138-.00515.00207-.00172.00069-.00343.00138-.00515.00207h0c-.3767.15491-.81946.07995-1.12151-.22332-.30204-.30319-.3767-.74802-.22482-1.12142.00086-.00172.00172-.00327.00172-.00491h0c.00343-.00672.00343-.00836.00429-.00999h0c.00257-.00672.00343-.00827.00429-.00999.00086-.00164.00172-.00327.00258-.00491,0-.00172.00086-.00336.00172-.00508l.00118-.00246.00054-.00246.00258-.005c.00257-.00663.00343-.00827.00429-.00991,0-.00172.00086-.00336.00172-.005l.00118-.0025.00054-.0025c.00343-.00663.00429-.00827.00429-.00991h0c.00343-.00672.00343-.00836.00429-.00999.00086-.00164.00172-.00336.00258-.005,0-.00164.00086-.00336.00172-.005l.00118-.00246.00053-.00246.00258-.005c.00258-.00672.00343-.00836.00429-.00999,0-.00164.00086-.00327.00172-.00491l.00118-.00253.00053-.00247.00258-.005c.00258-.00663.00343-.00827.00429-.00991.00086-.00172.00086-.00336.00172-.00508l.00129-.00246.00128-.00246c.00258-.00672.00343-.00836.00343-.00999.00086-.00164.00172-.00327.00258-.00491.00086-.00172.00086-.00336.00172-.005.00086-.00164.00172-.00336.00257-.005,0-.00172.00086-.00336.00172-.005l.00129-.00246c.00129-.00418.00215-.00582.003-.00754h0c.00258-.00655.00343-.00827.00429-.00991l.00086-.0025c.00172-.00414.00258-.00577.00343-.00741h0c.00258-.00663.00343-.00836.00343-.01008.00086-.00164.00172-.00327.00257-.00491l.00118-.00249c.00139-.00415.00225-.00578.00311-.00742.00086-.00172.00086-.00336.00172-.005.00086-.00172.00172-.00336.00258-.005,0-.00164.00086-.00327.00171-.005h0c.00258-.00663.00343-.00827.00429-.00991l.00086-.00251c.00172-.00421.00258-.00585.00343-.00748h0c.00257-.00663.00343-.00827.00343-.00991h0l.00375-.00753h0c.0014-.0041.00226-.00583.00311-.00746h0c.00257-.00663.00343-.00827.00429-.00991,0-.00164.00086-.00336.00172-.005l.00118-.00253c.00139-.00419.00225-.00574.00311-.00738l.00086-.00253c.00172-.00419.00257-.00583.00343-.00755h0l.00172-.00491c.00258-.00663.00343-.00827.00429-.00991l.00118-.00254c.00139-.00418.00225-.00582.00311-.00745h0l.00172-.005c.00258-.00663.00343-.00827.00429-.00991l.00118-.00253c.0014-.00419.00226-.00583.00311-.00755l.00118-.00246c.00139-.00409.00225-.00573.00311-.00737h0l.00172-.005c.00258-.00672.00343-.00836.00429-.00999l.00118-.00246c.00139-.00418.00225-.00582.00311-.00745h0l.00172-.005c.00258-.00672.00343-.00827.00429-.00999l.00118-.00246c.00139-.00418.00225-.00582.00311-.00754l.00118-.00246c.0014-.00409.00226-.00582.00311-.00745.00086-.00164.00086-.00327.00171-.00491.00086-.00172.00172-.00336.00258-.00508,0-.00164.00086-.00327.00172-.00491l.00118-.00253c.0014-.0041.00226-.00583.00311-.00746h0c.00257-.00663.00343-.00827.00429-.00991,0-.00172.00086-.00336.00172-.00508.00258-.00655.00343-.00819.00429-.00982.00086-.00172.00172-.00336.00172-.00508.00085-.00164.00171-.00327.00257-.00491.00086-.00172.00086-.00336.00172-.00508.00258-.00655.00343-.00819.00429-.00982l.00118-.00253.00054-.00247c.00343-.00672.00429-.00836.00429-.00999h0c.00343-.00663.00343-.00827.00429-.00999h0c.00258-.00663.00343-.00827.00429-.00991.00086-.00164.00172-.00327.00172-.005h0c.00343-.00663.00343-.00827.00429-.00991.00258-.00672.00343-.00836.00429-.01008.00086-.00164.00172-.00319.00172-.00482.00086-.00172.00172-.00336.00258-.00508.00086-.00164.00172-.00327.00172-.005h0c.00343-.00655.00343-.00819.00429-.00991h0c.00258-.00663.00343-.00827.00429-.00991.00086-.00172.00172-.00336.00172-.00508h0c.00343-.00655.00343-.00818.00429-.00982.00258-.00672.00343-.00844.00429-.01008h0c.00258-.00655.00343-.00827.00429-.00991.00086-.00164.00171-.00336.00171-.005h0c.00343-.00663.00343-.00827.00429-.00991h0c.00258-.00663.00343-.00836.00429-.00999.00086-.00164.00171-.00327.00171-.005h0c.00343-.00663.00429-.00827.00429-.00991h0c.00343-.00663.00343-.00827.00429-.00999h0c.00257-.00663.00343-.00827.00429-.00991.00086-.00164.00172-.00327.00172-.005h0c.00343-.00663.00343-.00827.00429-.00999h0c.00257-.00663.00343-.00827.00429-.00991.00086-.00164.00172-.00327.00258-.005l.00054-.00247c.00204-.00417.00289-.0058.00289-.00753h0c.00343-.00663.00343-.00827.00429-.00991h0c.00258-.00663.00343-.00836.00429-.00999.00086-.00164.00172-.00327.00172-.00491h0c.00343-.00663.00429-.00836.00429-.00999h0c.00258-.00663.00343-.00827.00429-.00991h0c.00258-.00672.00343-.00836.00429-.00999.00086-.00164.00171-.00327.00171-.005h0c.00343-.00663.00343-.00827.00429-.00991h0c.00258-.00672.00343-.00827.00429-.00999.00085-.00164.00171-.00336.00171-.005h0l.00376-.00745h0l.00053-.00246c.00343-.00663.00343-.00827.00429-.00999h0c.00257-.00672.00343-.00827.00429-.00991.00086-.00172.00172-.00336.00172-.005h0l.00258-.00491c.00258-.00672.00343-.00836.00429-.00999,0-.00172.00086-.00336.00172-.005.00086-.00172.00172-.00336.00258-.00508h0c.00258-.00655.00343-.00819.00343-.00991h0c.00343-.00663.00343-.00827.00429-.00991h0c.00258-.00663.00343-.00836.00429-.01008l.00118-.00241.00054-.00241.00375-.00754h0l.00053-.00246c.00258-.00663.00343-.00836.00429-.00999.00086-.00164.00172-.00327.00258-.00491,0-.00172.00086-.00336.00172-.005.00085-.00164.00171-.00327.00171-.005h0c.00343-.00672.00343-.00836.00429-.00999.00086-.00164.00172-.00327.00258-.00491,0-.00164.00086-.00327.00171-.005.00086-.00164.00172-.00336.00258-.005,0-.00172.00086-.00327.00172-.005l.00118-.00246.00054-.00246.00343-.0075h0c.00171-.00414.00257-.00577.00343-.0075,0-.00164.00086-.00327.00172-.005.00086-.00164.00172-.00327.00172-.00491h0c.00343-.00672.00343-.00836.00429-.00999.00085-.00172.00171-.00327.00257-.005,0-.00164.00086-.00327.00172-.005l.00129-.00246c.00129-.00409.00215-.00582.003-.00745l.00118-.00253c.0014-.00419.00225-.00574.00311-.00738l.00086-.0025c.00172-.00422.00258-.00586.00343-.0075,0-.00172.00086-.00336.00172-.005.00086-.00164.00172-.00336.00172-.005h0l.00375-.00744h0c.00139-.0041.00225-.00583.00311-.00746h0c.00258-.00663.00343-.00827.00429-.00991,0-.00172.00085-.00336.00171-.00508l.00118-.00246.00053-.00246.00343-.0075h0c.00172-.00414.00258-.00577.00343-.00741,0-.00172.00086-.00327.00171-.005.00086-.00172.00172-.00336.00172-.005h0l.00375-.00746h0c.0014-.00417.00226-.0058.00311-.00744h0c.00257-.00672.00343-.00836.00429-.00999,0-.00172.00086-.00327.00172-.00491l.00118-.00253c.0014-.00419.00226-.00583.00311-.00746.00086-.00172.00086-.00336.00172-.005.00085-.00164.00171-.00336.00257-.005,0-.00164.00086-.00327.00172-.00491l.00129-.00253c.00129-.0041.00215-.00583.003-.00755l.00118-.00246c.00139-.00409.00225-.00573.00311-.00737h0c.00258-.00672.00343-.00836.00429-.00999,0-.00172.00086-.00336.00172-.005l.00118-.0025c.0014-.00414.00225-.00577.00311-.00741h0c.00258-.00672.00343-.00836.00429-.01008,0-.00164.00086-.00327.00172-.00491.00257-.00663.00343-.00827.00429-.00991l.00118-.00253c.00139-.00419.00225-.00583.00311-.00755h0c.00258-.00655.00343-.00819.00429-.00991,0-.00164.00085-.00327.00171-.00491l.00118-.00253c.00139-.00419.00225-.00583.00311-.00746h0c.00258-.00663.00343-.00827.00429-.00991.00085-.00172.00085-.00345.00171-.00508.00258-.00655.00343-.00818.00429-.00991l.00118-.00247c.0014-.00417.00226-.0058.00311-.00753h0l.00171-.00491c.00258-.00672.00343-.00827.00429-.00991.00258-.00672.00343-.00844.00429-.01008h0c.00257-.00655.00343-.00827.00429-.00991.00086-.00164.00086-.00327.00172-.00491.00258-.00672.00343-.00836.00429-.01008.00086-.00164.00172-.00327.00172-.00491.00085-.00164.00171-.00336.00257-.005.00086-.00164.00172-.00327.00172-.00491l.00129-.00254c.00215-.00418.00215-.00582.003-.00754h0c.00257-.00655.00343-.00818.00429-.00982h0c.00258-.00672.00343-.00836.00429-.00999.00086-.00164.00086-.00336.00172-.005.00257-.00663.00343-.00827.00429-.00999.00086-.00164.00172-.00327.00172-.00491.00086-.00172.00172-.00336.00258-.00508.00086-.00164.00172-.00319.00172-.00491.00086-.00164.00172-.00327.00257-.005.00086-.00164.00086-.00327.00172-.00491h0c.00258-.00672.00343-.00836.00429-.00999h0c.00258-.00663.00343-.00827.00429-.00999.00086-.00164.00086-.00327.00172-.005h0c.00258-.00655.00343-.00827.00429-.00991h0c.00258-.00663.00343-.00827.00429-.00991.00085-.00172.00171-.00336.00171-.00508h0c.00343-.00655.00343-.00818.00429-.00982h0c.00258-.00672.00343-.00836.00429-.01008h0c.00257-.00655.00343-.00827.00429-.00991s.00172-.00327.00172-.00491h0c.00258-.00672.00343-.00836.00429-.01008h0c.00257-.00663.00343-.00818.00429-.00982.00086-.00172.00172-.00336.00172-.00508h0c.00343-.00663.00343-.00827.00429-.00991h0c.00257-.00663.00343-.00827.00429-.00999.00258-.00663.00343-.00827.00429-.00991.00086-.00172.00172-.00336.00172-.00508h0c.00343-.00655.00343-.00818.00429-.00991h0c.00258-.00663.00343-.00827.00429-.00991s.00172-.00327.00172-.005h0c.00343-.00672.00343-.00827.00429-.00991h0c.00258-.00672.00343-.00836.00429-.00999h0l.00258-.00491c.00257-.00672.00343-.00836.00343-.01008h0c.00343-.00663.00343-.00827.00429-.00991s.00172-.00327.00258-.005c0-.00164.00086-.00327.00171-.00491.00086-.00172.00172-.00336.00172-.00508h0c.00343-.00655.00429-.00818.00429-.00991h0c.00343-.00663.00343-.00827.00429-.00991h0l.00257-.00508c.00258-.00655.00343-.00818.00343-.00991.08838-.2185.22053-.42338.39729-.6006Zm-7.07144,0c.70449-.70658,1.84487-.70658,2.54936,0,.17591.17723.30805.38202.39644.6006.00086.00164.00086.00336.00172.005.00086.00172.00172.00336.00258.005l.00053.00246c.00204.00418.00289.00582.00375.00745,0,.00172.00086.00336.00172.005.00086.00172.00172.00336.00172.005h0l.00343.00745h0c.00172.00418.00258.00582.00343.00745h0c.00258.00663.00343.00836.00343.00999h0c.00343.00663.00343.00827.00429.00999.00086.00164.00172.00319.00258.00491h0c.00258.00663.00343.00827.00429.00991,0,.00172.00086.00336.00172.00508l.00118.00246.00053.00246.00343.0075h0c.00172.00414.00258.00577.00343.00741h0c.00258.00663.00343.00836.00343.01008h0l.00376.00737h0l.00053.00246.00258.00508c.00258.00663.00343.00827.00429.00991,0,.00164.00086.00327.00172.005l.00118.00246.00053.00246.00343.0075h0c.00172.00414.00258.00586.00343.0075h0c.00258.00663.00343.00827.00429.00999,0,.00164.00086.00319.00172.00491l.00118.00253c.0014.00419.00226.00574.00311.00738h0c.00258.00672.00343.00836.00429.00999,0,.00172.00086.00336.00172.005l.00118.0025.00054.0025.00343.00745h0c.00172.00409.00258.00582.00343.00754.00086.00164.00086.00327.00172.00491.00086.00172.00172.00327.00258.00491,0,.00172.00086.00336.00172.00508l.00118.00246c.00139.00418.00225.00582.00311.00745h0c.00258.00663.00343.00827.00429.00999,0,.00164.00086.00327.00172.005l.00118.00246.00053.00246.00376.00753h0c.00139.0041.00225.00574.00311.00738.00086.00172.00086.00336.00172.005l.00128.00254c.00129.00418.00215.00582.003.00745l.00118.00247c.00139.00417.00225.0058.00311.00753h0c.00258.00663.00343.00827.00429.00991,0,.00172.00086.00336.00172.005l.00129.00246.00129.00246c.00258.00672.00343.00836.00343.01008.00086.00164.00171.00327.00257.00491.00086.00164.00086.00327.00172.005l.00129.00246c.00129.00418.00215.00582.003.00745l.00118.00247c.0014.00417.00226.00589.00311.00753h0c.00258.00663.00343.00827.00429.00991.00086.00172.00086.00336.00172.005h0c.00258.00663.00343.00827.00429.00991.00086.00172.00172.00336.00172.005.00086.00172.00172.00336.00258.00508.00086.00164.00086.00327.00172.00491l.00129.00247c.00129.00417.00215.0058.003.00753l.00118.00246c.00139.00418.00225.00582.00311.00745l.00118.00253c.0014.0041.00226.00574.00311.00738.00086.00172.00086.00336.00172.00508h0c.00257.00663.00343.00827.00429.00991.00086.00164.00172.00327.00172.005.00086.00164.00172.00327.00258.00491.00086.00172.00086.00336.00172.00508l.00128.00246c.00129.00409.00215.00582.003.00745.00258.00663.00343.00827.00429.00991l.00118.00254c.0014.00418.00225.00582.00311.00745.00086.00164.00086.00327.00172.00491h0c.00258.00672.00343.00836.00429.01008h0c.00258.00655.00343.00819.00429.00991.00086.00164.00086.00336.00172.005l.00129.00246.00129.00246.00172.00508c.00258.00655.00343.00818.00429.00991l.00118.00247.00053.00253c.00343.00663.00343.00827.00429.00991h0c.00258.00663.00343.00827.00429.00991h0c.00258.00672.00343.00836.00429.00999.00086.00172.00172.00336.00172.005h0c.00343.00663.00343.00827.00429.00991h0c.00258.00672.00343.00836.00429.00999.00086.00164.00172.00327.00172.005h0c.00343.00672.00343.00836.00429.00999h0c.00258.00663.00343.00827.00429.00991.00258.00663.00343.00827.00429.00999.00086.00164.00172.00327.00172.005h0c.00343.00663.00343.00818.00429.00991h0c.00258.00672.00343.00836.00429.00999.00086.00164.00172.00327.00172.00491l.00128.00247c.00215.00417.00215.0058.003.00753h0c.00343.00663.00343.00827.00429.00991.00257.00672.00343.00836.00429.00999.00086.00164.00172.00327.00172.005h0c.00343.00663.00343.00827.00429.00999h0c.00258.00655.00343.00819.00429.00991s.00172.00336.00172.005c.00086.00164.00172.00327.00258.00491.00086.00172.00172.00336.00172.005h0c.00343.00663.00343.00836.00429.00999h0c.00258.00663.00343.00827.00429.00999.00086.00164.00172.00327.00172.00491h0c.00343.00672.00343.00836.00429.00999h0c.00258.00663.00343.00827.00429.00991h0c.00258.00663.00343.00836.00429.00999.00086.00164.00171.00327.00171.00491h0c.00343.00672.00343.00836.00429.00999h0c.00258.00672.00343.00836.00429.00999.00086.00164.00171.00327.00171.005h0c.00343.00655.00343.00827.00429.00991h0l.00343.0075h0l.00086.0025c.00257.00655.00343.00818.00429.00982h0l.00172.00517c.00343.00655.00343.00819.00429.00991h0l.00257.00491c.00258.00672.00343.00836.00343.00999h0c.00343.00663.00429.00827.00429.00991h0l.00343.00753h0l.00086.00247c.00258.00663.00343.00827.00429.00999.00086.00164.00172.00327.00172.00491h0c.00343.00672.00343.00836.00429.00999h0c.00258.00663.00343.00827.00429.00991h0c.00258.00672.00343.00836.00429.00999l.00118.00253c.00139.0041.00225.00574.00311.00738l.00086.00253.00086.00247c.00258.00672.00343.00836.00429.00999.00085.00172.00171.00336.00171.005h0l.00343.00744h0l.00086.00247.00258.005c.00257.00663.00343.00827.00429.00991,0,.00172.00086.00336.00172.005l.00118.00254c.00139.00418.00225.00582.00311.00745.00086.00164.00086.00327.00172.005.00086.00164.00171.00327.00257.005,0,.00164.00086.00319.00172.00491s.00172.00336.00172.00508h0l.00375.00738h0l.00054.00253.00257.00491c.00258.00672.00343.00836.00429.00999,0,.00164.00086.00327.00172.00491l.00118.00253.00054.00247.00257.00508.00172.005c.00258.00655.00343.00819.00429.00982.00086.00172.00172.00336.00258.005,0,.00172.00086.00336.00171.005l.00118.0025.00053.0025.00258.00491c.00258.00672.00343.00836.00429.01008,0,.00164.00086.00327.00171.00491l.00118.0025.00053.0025.00258.005c.00258.00663.00343.00827.00429.00991.00086.00172.00086.00336.00171.005l.00129.00247.00129.00253c.00258.00655.00343.00827.00343.00999.00086.00164.00172.00327.00258.00491h0c.00257.00663.00343.00827.00429.00991,0,.00172.00086.00336.00172.00508l.00118.00247c.0014.00417.00226.0058.00311.00744.00086.00164.00172.00327.00172.00491h0c.00343.00672.00343.00836.00429.01008l.00129.00246.00129.00246c.00258.00663.00343.00827.00343.00999.00085.00164.00171.00327.00257.005.00086.00164.00086.00327.00172.00491.00086.00164.00172.00336.00258.005,0,.00172.00086.00336.00172.005.00258.00663.00343.00827.00429.00991h0c.00258.00672.00343.00836.00429.00999l.00086.00246c.00172.00409.00258.00582.00343.00745h0c.00257.00672.00343.00836.00343.00999.00086.00164.00172.00327.00258.005.00086.00164.00086.00327.00172.005l.00129.00247.00129.00253c.00257.00663.00343.00819.00429.00991,0,.00164.00086.00327.00172.00491h0c.00258.00672.00343.00836.00429.01008l.00086.00246c.00171.00409.00257.00573.00343.00745h0c.00258.00663.00343.00827.00343.00999.00086.00164.00172.00327.00258.00491l.00118.0025c.00139.00414.00225.00577.00311.0075h0l.00172.00491c.00258.00672.00343.00836.00429.00999l.00118.00246c.00139.00418.00225.00582.00311.00745l.00086.00254.00086.00254.00258.00491.00172.00491c.00257.00681.00343.00844.00429.01008.00086.00164.00172.00327.00172.005.00086.00164.00172.00319.00258.00491h0l.00172.00491c.00257.00672.00343.00836.00429.01008l.00118.00246c.00139.00418.00225.00573.00311.00737l.00086.00254.00086.00254c.00343.00663.00343.00827.00429.00991h0c.00258.00672.00343.00836.00429.00999l.00118.00246c.0014.00418.00226.00582.00311.00745h0c.00257.00672.00343.00827.00429.00991,0,.00172.00086.00336.00172.00508l.00118.00247c.0014.00417.00226.00581.00311.00753.00085.00164.00171.00319.00171.00491h0c.00343.00672.00343.00836.00429.00999h0c.00258.00663.00343.00827.00429.00991l.00118.00249c.00139.00415.00225.00587.00311.00751h0l.00172.005c.00258.00663.00343.00827.00429.00991.00257.00672.00343.00836.00429.00999.00086.00164.00172.00327.00172.00491.00086.00164.00172.00336.00258.005.00086.00172.00086.00336.00172.005.00257.00663.00343.00827.00429.00999l.00118.00247c.00139.00417.00225.00581.00311.00744h0l.00172.005c.00343.00663.00343.00827.00429.00999h0c.00258.00655.00343.00827.00429.00991.00086.00172.00172.00336.00172.005.00086.00164.00172.00327.00257.00491.00086.00172.00086.00336.00172.00508.00258.00655.00343.00827.00429.00991.00086.00164.00172.00327.00172.005h0c.00343.00663.00429.00827.00429.00991h0l.00343.00753h0l.00086.00247c.00258.00663.00343.00827.00429.00999.00085.00164.00171.00327.00171.00491h0c.00343.00663.00343.00827.00429.00999.00258.00663.00343.00827.00429.00991h0c.00257.00663.00343.00836.00429.00999s.00172.00336.00172.005h0c.00343.00655.00343.00827.00429.00991.15274.37349.07808.81832-.22396,1.12142-.30205.30319-.74567.37823-1.11722.22539h0c-.00686-.00276-.00858-.00345-.0103-.00414-.00086-.00069-.00258-.00138-.00429-.00207-.00172-.00069-.00343-.00146-.00515-.00215-.00172-.00069-.00343-.00138-.00515-.00207h0c-.00687-.00276-.00858-.00345-.0103-.00414-.00086-.00069-.00258-.00146-.00429-.00215-.00172-.0006-.00343-.00138-.00515-.00198l-.00257-.00108c-.00429-.00177-.00601-.00246-.00773-.00314-.00171-.00069-.00257-.00138-.00429-.00207-.00172-.00069-.00343-.00138-.00515-.00215-.00172-.0006-.00343-.00138-.00515-.00207-.00172-.0006-.00343-.00138-.00515-.00198l-.00247-.00111c-.00354-.00173-.00526-.00242-.00697-.00311h0c-.00686-.00276-.00858-.00353-.0103-.00422-.00172-.0006-.00343-.00138-.00515-.00207-.00086-.0006-.00258-.00138-.00429-.00207-.00172-.00069-.00343-.00138-.00515-.00207-.00171-.00069-.00343-.00146-.00515-.00207-.00172-.00069-.00343-.00138-.00515-.00207-.00171-.00069-.00343-.00146-.00429-.00215-.00172-.0006-.00343-.00138-.00515-.00207l-.00257-.00103c-.00429-.00172-.00601-.00241-.00773-.0031s-.00343-.00146-.00515-.00215c-.00172-.0006-.00258-.00138-.00429-.00207s-.00343-.00138-.00515-.00207l-.00258-.00103c-.00429-.00172-.00601-.00241-.00772-.0031-.00172-.00069-.00343-.00146-.00429-.00207h0c-.00686-.00284-.00858-.00353-.0103-.00422s-.00343-.00138-.00515-.00207l-.00258-.00103c-.00343-.00172-.00515-.0025-.00687-.00319-.00171-.0006-.00343-.00138-.00515-.00198h0c-.00686-.00284-.00858-.00353-.0103-.00422-.00172-.00069-.00258-.00138-.00429-.00207-.00172-.00069-.00343-.00138-.00515-.00215-.00172-.0006-.00343-.00138-.00515-.00207h0c-.00686-.00276-.00858-.00345-.0103-.00414-.00172-.00069-.00258-.00146-.00429-.00207-.00172-.00069-.00343-.00138-.00515-.00207l-.00258-.00104c-.00429-.00171-.006-.00249-.00772-.00318-.00172-.00069-.00343-.00138-.00429-.00207-.00171-.00069-.00343-.00138-.00515-.00207-.00172-.00069-.00343-.00146-.00515-.00207l-.00257-.00103c-.00429-.00172-.00601-.0025-.00773-.00319-.00171-.0006-.00257-.00138-.00429-.00207-.00172-.00069-.00343-.00138-.00515-.00207-.00172-.00069-.00343-.00138-.00515-.00207-.00172-.00069-.00343-.00146-.00515-.00207l-.00247-.00108c-.00354-.00177-.00526-.00246-.00697-.00314h0c-.00686-.00276-.00858-.00345-.0103-.00414s-.00343-.00146-.00515-.00207c-.00172-.00069-.00258-.00146-.00429-.00215-.00172-.00069-.00343-.00138-.00515-.00207-.00172-.00069-.00343-.00138-.00515-.00207s-.00343-.00138-.00515-.00207c-.00172-.00069-.00343-.00146-.00515-.00215-.00086-.0006-.00258-.00138-.00429-.00198l-.00257-.00108c-.00429-.00177-.00601-.00246-.00773-.00314-.00171-.00069-.00343-.00138-.00515-.00207h0c-.00601-.00276-.00772-.00353-.00944-.00422-.00172-.0006-.00343-.00138-.00515-.00198l-.00258-.00111c-.00429-.00173-.006-.00242-.00686-.00311h0c-.00686-.00276-.00858-.00353-.0103-.00422-.00172-.0006-.00343-.00138-.00515-.00207-.00172-.0006-.00343-.00138-.00515-.00207-.00086-.00069-.00258-.00138-.00429-.00207-.00171-.00069-.00343-.00146-.00515-.00207h0c-.00686-.00276-.00858-.00353-.0103-.00422-.00172-.0006-.00343-.00138-.00515-.00207-.00085-.00069-.00257-.00138-.00429-.00215-.00172-.0006-.00343-.00138-.00515-.00198-.00172-.00069-.00343-.00146-.00515-.00207h0c-.00687-.00284-.00772-.00353-.00944-.00422-.00172-.00069-.00343-.00138-.00515-.00207l-.00258-.00108c-.00429-.00168-.006-.00246-.00772-.00306-.00172-.00069-.00343-.00146-.00429-.00207h0c-.00687-.00284-.00858-.00353-.0103-.00422-.00172-.00069-.00343-.00138-.00515-.00207l-.00258-.00104c-.00429-.00171-.00515-.00249-.00686-.00318h0c-.00686-.00276-.00858-.00345-.0103-.00414-.00172-.00069-.00343-.00138-.00515-.00207l-.00247-.00103c-.00354-.00172-.00526-.0025-.00697-.00319h0c-.00686-.00276-.00858-.00345-.0103-.00414-.00172-.00069-.00343-.00146-.00515-.00207-.00172-.00069-.00258-.00146-.00429-.00215-.00172-.0006-.00343-.00138-.00515-.00207-.00172-.0006-.00343-.00138-.00515-.00207h0c-.00686-.00276-.00858-.00345-.00944-.00414-.00172-.00069-.00343-.00146-.00515-.00207-.00171-.00069-.00343-.00146-.00515-.00215l-.00258-.00103c-.00429-.00164-.006-.00241-.00772-.0031-.00086-.0006-.00258-.00138-.00429-.00207-.00172-.00069-.00343-.00146-.00515-.00207-.00172-.00069-.00343-.00146-.00515-.00207-.00172-.00069-.00343-.00138-.00515-.00215l-.00258-.00103c-.00343-.00172-.00515-.00241-.00686-.0031h0c-.00687-.00276-.00858-.00353-.0103-.00414-.00172-.00069-.00343-.00146-.00515-.00215-.00172-.00069-.00258-.00138-.00429-.00207-.00172-.00069-.00343-.00138-.00515-.00207h0c-.00686-.00276-.00858-.00353-.0103-.00422-.00172-.0006-.00343-.00138-.00429-.00207-.00171-.00069-.00343-.00138-.00515-.00207-.00172-.00069-.00343-.00138-.00515-.00207-.00171-.00069-.00343-.00138-.00515-.00207h0c-.00601-.00276-.00772-.00353-.00944-.00422-.00172-.0006-.00343-.00138-.00515-.00198l-.00258-.00111c-.00429-.00173-.006-.00251-.00772-.00311-.00172-.00069-.00258-.00138-.00429-.00207h0c-.00687-.00276-.00858-.00353-.0103-.00422-.00172-.0006-.00343-.00138-.00515-.00207l-.00258-.00103c-.00429-.00172-.00515-.0025-.00686-.0031h0c-.00686-.00284-.00858-.00353-.0103-.00422-.00172-.0006-.00343-.00138-.00515-.00207-.00171-.00069-.00343-.00138-.00515-.00215-.00086-.0006-.00258-.00138-.00429-.00198-.00172-.00069-.00343-.00146-.00515-.00207h0c-.00687-.00284-.00858-.00353-.0103-.00422s-.00258-.00138-.00429-.00207-.00343-.00138-.00515-.00207c-.00172-.00069-.00343-.00146-.00515-.00207h0c-.00686-.00284-.00858-.00353-.0103-.00422-.00086-.00069-.00258-.00138-.00429-.00207-.00172-.00069-.00343-.00138-.00515-.00215l-.00258-.001c-.00429-.00167-.006-.00244-.00772-.00305h0c-.006-.00284-.00772-.00353-.00944-.00422-.00172-.00069-.00343-.00138-.00515-.00207l-.00257-.00108-.00258-.00108-.00687-.00307h0l-.00257-.00107c-.00687-.00276-.00858-.00345-.0103-.00414-.00172-.00069-.00343-.00138-.00515-.00215-.00172-.00069-.00258-.00138-.00429-.00207-.00172-.0006-.00343-.00138-.00515-.00207-.00172-.00069-.00343-.00138-.00515-.00207h0c-.00687-.00276-.00858-.00353-.00944-.00414-.00171-.00069-.00343-.00138-.00515-.00215l-.00258-.00103c-.00429-.00164-.006-.00241-.00772-.0031h0c-.00686-.00276-.00772-.00345-.00944-.00414-.00172-.00069-.00343-.00146-.00515-.00215l-.00257-.00103c-.00429-.00172-.00601-.00241-.00773-.0031-.00172-.00069-.00343-.00138-.00429-.00207h0c-.00687-.00276-.00858-.00353-.0103-.00414-.00172-.00069-.00343-.00146-.00515-.00215l-.00258-.00103c-.00429-.00172-.00515-.00241-.00686-.0031-.00172-.00069-.00343-.00138-.00515-.00207-.00172-.00069-.00343-.00146-.00515-.00215-.00172-.0006-.00343-.00138-.00515-.00207-.00171-.00069-.00343-.00138-.00515-.00207-.00086-.00069-.00258-.00138-.00429-.00207-.00171-.00069-.00343-.00138-.00515-.00207h0c-.00686-.00276-.00858-.00353-.0103-.00422-.00172-.0006-.00258-.00138-.00429-.00207s-.00343-.00138-.00515-.00207l-.00258-.00107c-.00429-.00169-.006-.00238-.00772-.00307h0c-.00601-.00276-.00773-.00353-.00944-.00422-.00172-.00069-.00343-.00138-.00515-.00207l-.00258-.00103c-.00429-.00172-.006-.0025-.00772-.0031h0c-.006-.00284-.00772-.00353-.00944-.00422s-.00343-.00138-.00515-.00207c-.00171-.00069-.00343-.00146-.00515-.00215l-.00686-.00305h0l-.00258-.001c-.00687-.00284-.00858-.00353-.0103-.00422-.00172-.00069-.00343-.00138-.00515-.00215-.00172-.0006-.00257-.00138-.00429-.00207-.00172-.0006-.00343-.00138-.00515-.00198-.00172-.00069-.00343-.00146-.00515-.00207h0c-.00687-.00284-.00858-.00353-.00944-.00422-.00172-.00069-.00343-.00138-.00515-.00207l-.00258-.00108c-.00429-.00168-.006-.00246-.00772-.00306-.00172-.00069-.00343-.00146-.00515-.00215-.00085-.00069-.00257-.00138-.00429-.00207-.00172-.00069-.00343-.00138-.00515-.00207-.00171-.00069-.00343-.00138-.00515-.00207l-.00258-.00108c-.00429-.00177-.006-.00246-.00772-.00314-.00086-.00069-.00258-.00138-.00429-.00207-.00172-.00069-.00343-.00146-.00515-.00207-.00172-.00069-.00343-.00138-.00515-.00215l-.00258-.00103c-.00429-.00164-.00515-.00241-.00686-.0031-.00172-.0006-.00343-.00138-.00515-.00207h0c-.00687-.00276-.00858-.00353-.0103-.00414-.00172-.00069-.00343-.00146-.00429-.00215-.00172-.00069-.00343-.00138-.00515-.00207-.00171-.0006-.00343-.00138-.00515-.00207h0c-.00686-.00276-.00858-.00353-.0103-.00414-.00086-.00069-.00258-.00146-.00429-.00207-.00172-.00078-.00343-.00146-.00515-.00215l-.00258-.00103c-.00429-.00172-.006-.00241-.00772-.0031s-.00343-.00146-.00515-.00215c-.00086-.0006-.00258-.00138-.00429-.00198-.00172-.00069-.00343-.00146-.00515-.00215s-.00343-.00138-.00515-.00207l-.00258-.00103c-.00429-.00172-.00515-.00241-.00686-.0031h0c-.00687-.00276-.00858-.00353-.0103-.00422-.00171-.00069-.00343-.00138-.00515-.00207l-.00686-.0031h0l-.00258-.00103c-.00686-.00276-.00858-.00353-.0103-.00422-.00172-.0006-.00343-.00138-.00515-.00207-.00172-.00069-.00257-.00138-.00429-.00207-.00172-.00069-.00343-.00146-.00515-.00207-.00172-.00069-.00343-.00138-.00515-.00215h0c-.00687-.00267-.00773-.00345-.00944-.00414-.00172-.0006-.00343-.00138-.00515-.00207l-.00258-.00107c-.00429-.00169-.006-.00247-.00772-.00307-.00172-.00069-.00343-.00146-.00515-.00215-.00172-.00069-.00343-.00138-.00429-.00207-.00172-.0006-.00343-.00138-.00515-.00207-.00171-.00069-.00343-.00138-.00515-.00215l-.00258-.00099c-.00429-.00168-.006-.00246-.00772-.00306-.00086-.00069-.00258-.00146-.00429-.00215-.00172-.00069-.00343-.00138-.00515-.00207-.00172-.00069-.00343-.00138-.00515-.00207-.00172-.00069-.00343-.00138-.00515-.00215l-.00215-.001c-.00386-.00167-.00558-.00244-.00729-.00313h0c-.00687-.00276-.00858-.00345-.0103-.00414-.00172-.00069-.00343-.00138-.00429-.00207-.00172-.00069-.00343-.00146-.00515-.00215l-.00258-.001c-.00429-.00176-.00601-.00244-.00773-.00313-.00171-.00069-.00343-.00138-.00515-.00207s-.00343-.00138-.00429-.00215c-.00171-.0006-.00343-.00138-.00515-.00207l-.00258-.001c-.00429-.00167-.006-.00244-.00772-.00313s-.00343-.00138-.00515-.00207c-.00086-.00069-.00257-.00146-.00429-.00207-.00172-.00069-.00343-.00138-.00515-.00215-.00172-.00069-.00343-.00138-.00515-.00207l-.00258-.001c-.00429-.00167-.00515-.00244-.00686-.00313h0c-.00687-.00276-.00858-.00353-.0103-.00414-.00172-.00069-.00343-.00146-.00515-.00215l-.00258-.00103c-.00343-.00172-.00515-.00241-.00686-.0031-.00172-.00069-.00343-.00138-.00515-.00207h0c-.00686-.00276-.00858-.00353-.0103-.00414-.00171-.00078-.00257-.00146-.00429-.00215-.00172-.00069-.00343-.00138-.00515-.00207-.00172-.00069-.00343-.00138-.00515-.00207h0c-.00687-.00276-.00858-.00353-.0103-.00414-.00086-.00069-.00258-.00146-.00429-.00215-.00172-.00069-.00343-.00138-.00515-.00207l-.00258-.00103c-.00429-.00172-.00601-.00241-.00772-.0031-.00172-.00069-.00258-.00146-.00429-.00215-.00172-.0006-.00343-.00138-.00515-.00207-.00171-.00069-.00343-.00138-.00515-.00207-.00172-.00069-.00343-.00138-.00515-.00207l-.00247-.00103c-.00354-.00172-.00526-.0025-.00697-.00319h0c-.00686-.00267-.00858-.00345-.0103-.00414-.00172-.00069-.00343-.00138-.00515-.00207l-.00215-.00107c-.00386-.00169-.00558-.00238-.00729-.00307h0c-.00687-.00276-.00858-.00353-.0103-.00422s-.00343-.00138-.00515-.00207c-.00086-.00069-.00258-.00146-.00429-.00207l-.00258-.00107c-.00429-.00169-.00601-.00238-.00772-.00316-.00172-.00069-.00343-.00138-.00515-.00207s-.00258-.00138-.00429-.00207c-.00171-.00069-.00343-.00138-.00515-.00207-.00172-.00069-.00343-.00146-.00515-.00207l-.00257-.00108c-.00429-.00177-.00601-.00246-.00687-.00314h0c-.00686-.00276-.00858-.00345-.0103-.00422-.00172-.0006-.00343-.00138-.00515-.00207l-.00258-.00099c-.00429-.00168-.006-.00246-.00686-.00314-.00172-.00069-.00343-.00138-.00515-.00207h0c-.00686-.00276-.00858-.00353-.0103-.00422-.00172-.0006-.00343-.00138-.00429-.00207-.21796-.08831-.42218-.22091-.59894-.39813-.70363-.70666-.70363-1.85247,0-2.55913Zm-43.27696-.56709c.53973,0,.99306.17929,1.35963.53736.36606.3585.5496.80876.5496,1.3506,0,.54236-.18354.99253-.5496,1.3506-.36657.35859-.8199.53736-1.35963.53736-.54016,0-.99349-.17878-1.35963-.53736-.36657-.35807-.5496-.80824-.5496-1.3506,0-.54184.18303-.9921.5496-1.3506.36614-.35807.81947-.53736,1.35963-.53736Zm22.79457,0c.53973,0,.9928.17929,1.3592.53736.3664.3585.55003.80876.55003,1.3506,0,.54236-.18363.99253-.55003,1.3506-.3664.35859-.81947.53736-1.3592.53736s-.99357-.17878-1.35972-.53736c-.36649-.35807-.5496-.80824-.5496-1.3506,0-.54184.18311-.9921.5496-1.3506.36614-.35807.81998-.53736,1.35972-.53736Z"/>
    </g>
  </g>
</svg>