<svg width="70" height="40" viewBox="0 0 70 40" xmlns="http://www.w3.org/2000/svg"><title>adventurecard</title><desc>Created with Sketch.</desc><g fill="#040606" fill-rule="nonzero"><path d="M46.741 26.991c.304 0 .488.158.488.6v3.207c0 .44-.184.599-.488.599h-.54v-4.406h.54zm-1.498 5.287h1.515c.958 0 1.429-.537 1.429-1.525v-3.119c0-.986-.471-1.524-1.429-1.524h-1.515v6.168zm-6.43-5.287c.339 0 .488.193.488.635v.607c0 .494-.218.652-.576.652h-.374v-1.894h.461zm1.559 5.287c-.096-.229-.105-.449-.105-.749v-.952c0-.643-.157-1.101-.636-1.304v-.017c.427-.202.627-.607.627-1.242v-.485c0-.952-.427-1.418-1.42-1.418h-1.446v6.168h.959v-2.511h.33c.435 0 .627.212.627.784v.969c0 .503.035.6.086.758h.976zm-9.504-5.075h.017l.452 3.119h-.923l.454-3.119zm.758-1.092h-1.403l-.976 6.168h.88l.165-1.12h1.176l.165 1.12h.967l-.975-6.168zm-7.972 3.868v.88c0 .441-.191.6-.497.6-.304 0-.497-.158-.497-.6v-3.331c0-.44.192-.607.497-.607.306 0 .497.167.497.607v.661h.906v-.599c0-.988-.488-1.551-1.429-1.551-.94 0-1.429.564-1.429 1.551v3.207c0 .986.488 1.55 1.429 1.55.94 0 1.429-.564 1.429-1.55v-.819h-.906zm-16.632-3.201c18.442-3.602 37.413-3.602 55.855 0l-1.843 9.33c-17.225-3.365-34.944-3.365-52.168 0l-1.843-9.33z" id="Shape"/><g id="Group"><path d="M10.136 10.125h-2.695l-1.87 11.846h1.689l.315-2.15h2.259l.32 2.15h1.857l-1.874-11.846zm-1.456 2.097h.035l.868 5.991h-1.771l.868-5.991zM12.863 21.971h2.911c1.84 0 2.743-1.031 2.743-2.928v-5.991c0-1.896-.903-2.928-2.743-2.928h-2.911v11.846zm2.877-10.155c.587 0 .937.306.937 1.154v6.157c0 .848-.35 1.154-.937 1.154h-1.037v-8.464h1.037zM21.061 10.125h-1.857l1.805 11.846h2.743l1.805-11.846h-1.689l-1.386 9.661h-.035zM28.252 11.816h3.179v-1.691h-5.019v11.846h5.019v-1.691h-3.179v-3.47h2.527v-1.695h-2.527z" id="Shape"/></g><g id="Group"><path id="Shape" d="M36.498 21.971h1.892v-11.846h-1.641v7.092h-.035l-1.853-7.092h-2.311v11.846h1.654v-8.582h.035zM39.175 11.816h1.922v10.155h1.84v-10.155h1.926v-1.691h-5.688z"/></g><g><path d="M45.583 10.125v9.019c0 1.896.933 2.98 2.743 2.98 1.805 0 2.743-1.084 2.743-2.98v-9.019h-1.741v9.137c0 .848-.367 1.154-.955 1.154-.583 0-.95-.306-.95-1.154v-9.137h-1.84zM58.04 21.971c-.181-.441-.199-.865-.199-1.438v-1.827c0-1.237-.302-2.119-1.222-2.508v-.031c.821-.393 1.205-1.171 1.205-2.39v-.931c0-1.827-.821-2.722-2.725-2.722h-2.777v11.846h1.84v-4.824h.635c.838 0 1.205.406 1.205 1.508v1.861c0 .966.065 1.149.168 1.455h1.87zm-2.993-10.155c.652 0 .937.371.937 1.219v1.167c0 .948-.419 1.254-1.106 1.254h-.717v-3.64h.885zM60.887 11.816h3.179v-1.691h-5.019v11.846h5.019v-1.691h-3.179v-3.47h2.527v-1.695h-2.527z" id="Shape"/></g><path d="M40.187 7.838c-.087-.114-.182-.169-.366-.261-.182-.093-.274-.131-.404-.245-.128-.114-.171-.236-.258-.404-.087-.168-.411-.543-.512-.652-.099-.11-.483-.417-.736-.463-.254-.047-.707-.324-.736-.333-.029-.008-.166-.143-.166-.232 0-.088-.271-.218-.316-.273l-.166-.19c-.038-.08-.421-.454-.458-.488-.038-.034-.13-.273-.13-.273-.117.13-.454.357-.678.484-.225.127-.279.333-.308.395-.029.063-.225.072-.346.354-.121.282-.637.69-.97.897-.229.142-.41.189-.513.208l-.036-.052c-.094-.14-.225-.24-.294-.285-.068-.044-.084-.097-.096-.176-.013-.08-.125-.168-.203-.18-.078-.013-.109-.17-.109-.17s-.175.057-.307.268c-.131.212-.667.698-.796.771-.127.072-.319.072-.387.101-.069.028-.172.395-.231.439-.059.044-.609.022-.789.262-.181.239-.361.319-.361.319s.382-.045.567-.092c.184-.047.324-.057.455-.139.132-.082.166-.108.244-.114.078-.007.112.097.127.101l.116-.082.163-.054s.046.028-.056.157c-.104.13-.128.282-.128.282l.181-.17c.181-.17.368-.202.552-.392l.282-.444c.212-.22.221-.103.312-.238l.124-.205c-.009.12.181.341.456.676.275.334.35.35.422.533.071.184.309.329.461.347.153.019.369.101.369.101s-.15-.204-.371-.398c-.222-.192-.244-.312-.384-.64l-.062-.139c.133-.052.368-.141.42-.144.076-.003.283-.147.375-.239.092-.093.188-.224.251-.343.062-.119.32-.129.32-.116 0 .012-.058.139-.158.214l-.108.19c-.076.096-.071.193-.071.193s.287-.109.412-.206c.124-.097.195-.274.245-.434.05-.159.175-.611.375-.627.2-.017.333-.299.333-.299l-.075.366c-.033.156-.112.245-.191.379-.08.134-.08.156-.084.34-.003.184-.003.166-.041.418s-.242.518-.242.518-.124.202-.158.299c-.033.096-.045.429-.045.429s.099-.076.108-.168c.008-.093.274-.409.341-.522l.382-.54c.051-.096.004-.168.004-.193 0-.025.13-.093.141-.193.013-.102-.008-.261.042-.324s.121-.05.153-.202c.033-.152.029-.543.029-.543l.112.101c.038.056.201.304.251.501.05.198.283.341.299.345.017.004.233.088.354.232.121.143.262.363.321.501.057.139.428.463.532.584.104.122.566.143.566.143l-.241-.18s-.292-.35-.363-.456c-.07-.105-.037-.357-.037-.357s.349.214.382.32c.033.105.312.261.474.387.163.127.292.35.479.547.187.198.487.283.669.324.184.043.479.021.479.021s-.109-.062-.197-.176M6.328 26.356c-1.781.355-3.558.744-5.328 1.167.957 1.402 1.895 2.811 2.815 4.229-.215 1.674-.408 3.346-.582 5.016 1.653-.394 3.313-.757 4.978-1.089l-1.883-9.323M61.69 35.679c1.665.332 3.324.695 4.978 1.09-.174-1.671-.368-3.344-.582-5.018.92-1.418 1.858-2.828 2.815-4.229-1.771-.423-3.547-.812-5.329-1.167l-1.882 9.323"/></g></svg>