<svg xmlns="http://www.w3.org/2000/svg" viewBox="0 0 70 40.00004"><defs><style>.cls-1{fill:#fff;}.cls-2{fill:#007789;}.cls-3{fill:#18eb33;}.cls-4{fill:none;}</style></defs><g id="Layer_2" data-name="Layer 2"><g id="Layer_1-2" data-name="Layer 1"><rect class="cls-1" y="0.00002" width="70" height="40" rx="3.70584"/><g id="Logo_blauw" data-name="Logo blauw"><rect id="Rectangle_32-2" data-name="Rectangle 32-2" class="cls-1" x="11.24614" y="1.53764" width="47.50772" height="36.92477" rx="5.52333" transform="translate(-1.6076 3.1215) rotate(-4.99208)"/><path id="Path_103" data-name="Path 103" class="cls-2" d="M25.012,21.67645a8.13754,8.13754,0,0,0-3.46683-5.51013,5.18285,5.18285,0,0,0,1.402-4.92553c-.62607-2.87047-2.56742-5.58225-6.1505-5.07808-.79629.10908-1.16255.37087-1.08205,1.075.12741,1.75677,1.91269,22.20567,1.94476,22.26415a1.67871,1.67871,0,0,0,1.40693,1.08339,5.13364,5.13364,0,0,0,1.32009.05414,5.3184,5.3184,0,0,0,4.02419-2.45216C25.62131,26.25686,25.35478,23.8158,25.012,21.67645Zm-2.97527-.1562c.34308,1.78451.41782,4.33088-.50212,5.63406a1.96116,1.96116,0,0,1-1.06669.78778l-1.01563-9.947a4.81813,4.81813,0,0,1,2.584,3.524Zm-2.94524-7.03833-.56-5.48124a4.01725,4.01725,0,0,1,1.54672,2.68375,2.752,2.752,0,0,1-.987,2.79506Z"/><path id="Path_104" data-name="Path 104" class="cls-2" d="M32.57947,6.08627a2.918,2.918,0,0,0-2.75993-1.06172c-2.34359.36159-3.31434,3.12827-3.44067,5.5966a1.24324,1.24324,0,0,0,.6061,1.116,1.80605,1.80605,0,0,0,1.71823.1223A1.15192,1.15192,0,0,0,29.343,10.85,5.76966,5.76966,0,0,1,29.931,8.331c.19994-.35235.40316-.6811.53974-.62929.24822.09168.56233,5.58182.63549,6.479-2.95175,1.018-4.82108,4.04517-4.67271,7.61337.08565,2.03281.30228,4.341,1.80717,5.95659a5.63953,5.63953,0,0,0,6.04921,1.49106,1.05916,1.05916,0,0,0,.77139-1.17991c-.00388-.04439-.78041-9.23249-.78041-9.23249l-.846-9.13822S33.25869,6.91,32.57947,6.08627ZM32.03814,27.0212a1.69646,1.69646,0,0,1-1.24922-.45649c-1.2936-1.16805-1.4776-4.24964-1.39431-5.71291h0a5.08465,5.08465,0,0,1,1.93085-3.68027Z"/><path id="Path_105" data-name="Path 105" class="cls-2" d="M44.584,19.9932a7.72623,7.72623,0,0,0-5.84631-6.46781c-.13276-1.3059-.28079-2.77256-.42736-4.23659s-.294-2.9243-.426-4.21067c-.07695-.76172-1.35629-.64752-1.53675-.62992-.7659.07824-1.13472.30716-1.09837.6637.37047,3.62387.934,11.08563.934,11.08563s1.01433,11.5422,1.04754,11.59967a1.67471,1.67471,0,0,0,1.40655,1.07913,5.12111,5.12111,0,0,0,1.32009.05413,5.32755,5.32755,0,0,0,4.02483-2.44486C45.191,24.56124,44.93042,22.12487,44.584,19.9932Zm-3.47545,5.46146a1.96818,1.96818,0,0,1-1.0678.78573l-1.01253-9.91508a4.80316,4.80316,0,0,1,2.58424,3.5123c.34227,1.77875.41627,4.31659-.50273,5.61664Z"/><path id="Path_106" data-name="Path 106" class="cls-2" d="M53.12541,23.73276,51.45776,4.641A1.463,1.463,0,0,0,50.524,3.47464a2.1638,2.1638,0,0,0-1.85161.07655,1.01307,1.01307,0,0,0-.403.97093l1.19985,11.75794a4.76717,4.76717,0,0,1-2.61238-3.51535,52.04048,52.04048,0,0,1-.744-7.6372,1.58674,1.58674,0,0,0-1.73217-1.37639A1.144,1.144,0,0,0,43.1444,4.94376c.03994,1.50949.27456,3.69045.41314,4.99279.02716.25132.05033.50605.07482.7619a12.63915,12.63915,0,0,0,.82027,4.00986,7.503,7.503,0,0,0,5.29926,4.34754l.604,4.95008c.08152.78951.16566,1.395-.10966,1.30533-.11352-.037-.1462-.06719-.30121-.22126a5.21075,5.21075,0,0,1-1.16133-2.57922,1.54594,1.54594,0,0,0-1.90526-1.01473,1.17452,1.17452,0,0,0-.9603,1.46909c.52548,2.29068,1.93949,4.8126,4.333,5.02267a3.04983,3.04983,0,0,0,.52081-.00076,2.88206,2.88206,0,0,0,2.17651-1.27476C53.45778,26.06114,53.12541,23.73276,53.12541,23.73276Z"/><path id="Path_107" data-name="Path 107" class="cls-3" d="M19.66387,32.96153a1.63249,1.63249,0,0,1,1.14656.31593.22588.22588,0,1,1-.26559.36544,1.221,1.221,0,0,0-.84317-.24868,1.28351,1.28351,0,0,0,.22311,2.55425,1.22088,1.22088,0,0,0,.78734-.39048.22588.22588,0,1,1,.32493.31386,1.63273,1.63273,0,0,1-1.07445.50963,1.7206,1.7206,0,0,1-.29936-3.42724Z"/><path id="Path_108" data-name="Path 108" class="cls-3" d="M25.17143,35.59681a.22465.22465,0,1,1-.39851.20119l-.34027-.70348-1.42.124-.2171.75218a.22587.22587,0,0,1-.27827.15684l-.00128-.00036a.22161.22161,0,0,1-.15581-.27192l.004-.01325.83588-2.95315a.31073.31073,0,0,1,.29045-.24567l.02372-.00207a.31073.31073,0,0,1,.31953.19239Zm-.9318-.8951-.68913-1.51927-.41627,1.61491Z"/><path id="Path_109" data-name="Path 109" class="cls-3" d="M26.671,35.7517a.19381.19381,0,0,1-.20577-.17751l-.2578-2.95136a.19382.19382,0,0,1,.17188-.2105l1.10532-.09655a1.68556,1.68556,0,0,1,.29172,3.33968Zm1.06853-.5177c.6936-.06059,1.00443-.63066.94331-1.33035s-.46789-1.22455-1.16119-1.164l-.84715.074.21814,2.49738Z"/><path id="Path_110" data-name="Path 110" class="cls-3" d="M31.09106,33.92769l.08808,1.00831,1.39632-.122a.21138.21138,0,1,1,.03678.42115l-1.61921.14144a.23534.23534,0,0,1-.24835-.21239l-.25113-2.875a.235.235,0,0,1,.20776-.25223l1.56143-.13639a.21138.21138,0,1,1,.03679.42115L30.958,32.4389l.0932,1.067,1.15367-.10078a.21183.21183,0,0,1,.03686.42206Z"/><path id="Path_111" data-name="Path 111" class="cls-3" d="M37.05868,34.55846a.22162.22162,0,0,1-.08766.30089l-.01236.00628a.22588.22588,0,0,1-.30187-.10444L36.65621,34.76l-.33905-.70359-1.41183.12332-.218.75226a.22466.22466,0,1,1-.42736-.12906l.83709-2.95325a.31073.31073,0,0,1,.29046-.24567l.02067-.0018a.31072.31072,0,0,1,.31953.19238Zm-.933-.895-.689-1.51836L35.02033,33.76Z"/><path id="Path_112" data-name="Path 112" class="cls-3" d="M40.28379,31.40491a.22679.22679,0,1,1,.44844-.06809l.00251.0287.17363,1.98774a1.22674,1.22674,0,0,1-2.44386.21347L38.29088,31.579a.22679.22679,0,0,1,.44844-.06808l.00251.02869.17363,1.98775a.77377.77377,0,0,0,1.54167-.13467Z"/><path id="Path_113" data-name="Path 113" class="cls-3" d="M42.97951,34.32716a.19382.19382,0,0,1-.20578-.17751l-.2578-2.95136a.19382.19382,0,0,1,.17188-.2105l1.07127-.09357a.82748.82748,0,0,1,.98241.78342.69226.69226,0,0,1-.36113.73442.84156.84156,0,0,1,.67177.76278.93771.93771,0,0,1-.81877,1.04313q-.03492.0042-.07008.00578Zm.90061-2.04726a.45786.45786,0,0,0,.40829-.50256q-.00236-.02271-.00695-.04509a.44353.44353,0,0,0-.53465-.41718l-.75532.066.08472.97Zm-.76938.46643.09915,1.13511.89156-.07788a.53446.53446,0,0,0,.48747-.57763l-.00163-.01632a.57994.57994,0,0,0-.59862-.53937Z"/><path id="Path_114" data-name="Path 114" class="cls-3" d="M47.8937,30.49568a1.72061,1.72061,0,1,1-1.53507,1.888l-.00234-.0244a1.69985,1.69985,0,0,1,1.52054-1.862Zm.26141,2.99271a1.28351,1.28351,0,1,0-1.353-1.21l.00309.04259a1.24931,1.24931,0,0,0,1.3257,1.16795l.02412-.00175Z"/><path id="Path_115" data-name="Path 115" class="cls-3" d="M51.81379,31.02251l.202,2.31281a.22679.22679,0,1,1-.44844.06808l-.0025-.02869-.25664-2.938a.22679.22679,0,0,1,.20342-.24235l.06295-.0055a.23407.23407,0,0,1,.2395.11115l1.64827,2.26429-.20029-2.293a.22679.22679,0,1,1,.44844-.06808l.0025.02869.25746,2.94741a.21641.21641,0,0,1-.19427.23145l-.06294.0055a.22708.22708,0,0,1-.22909-.11113Z"/></g><rect class="cls-4" y="0.00002" width="70" height="40"/></g></g></svg>