<svg id="Layer_1" data-name="Layer 1" xmlns="http://www.w3.org/2000/svg" viewBox="0 0 70 40"><defs><style>.cls-1{fill:#fff;}</style></defs><rect width="70" height="40" rx="3.70584"/><g id="_000000ff" data-name="#000000ff"><path class="cls-1" d="M20.0625,5h29.875V35H20.0625V5m1.14688,1.14063c.00374,9.2075-.00938,18.415.00687,27.62249q13.78593-.00468,27.5725,0c.01875-1.79687.0025-3.59437.00813-5.39187q0-11.115-.00063-22.23062Q35.0028,6.14156,21.20938,6.14063Z"/><path class="cls-1" d="M28.31938,9.3475q7.02373.00093,14.04749.00062c0,.36688-.00062.73438,0,1.10126q-7.02374.00093-14.04749.00062Q28.31844,9.89875,28.31938,9.3475Z"/><path class="cls-1" d="M22.58063,13.90187c.55687.00313,1.11437-.00312,1.67124.00188a1.84015,1.84015,0,0,1,1.56875.85125,2.44885,2.44885,0,0,1,.19063,1.70562,1.35789,1.35789,0,0,1-.63812.8575,1.5782,1.5782,0,0,1,.73812.97876,2.73237,2.73237,0,0,1-.16687,1.96374,1.65979,1.65979,0,0,1-1.50813.82c-.61812-.00313-1.23563-.00188-1.85375-.00063-.00688-2.39312-.0025-4.78562-.00187-7.17813m1.15562,1.13125c.00063.59626.00313,1.19313-.00125,1.78938a1.79012,1.79012,0,0,0,.78125-.0625.86042.86042,0,0,0,.4-.75125.98131.98131,0,0,0-.27438-.83562c-.25062-.21688-.60312-.13126-.90562-.14m0,2.86313c.00125.69375.00313,1.38813-.00125,2.08187a2.51191,2.51191,0,0,0,.75625-.03374,1.016,1.016,0,0,0,.53-.94438,1.2607,1.2607,0,0,0-.315-.95625C24.43875,17.81063,24.05875,17.90563,23.73625,17.89625Z"/><path class="cls-1" d="M26.92312,13.90563q1.54782-.00845,3.09688,0c0,.36062-.00375.72062.00437,1.08124-.66312.07063-1.33374.01375-2,.03125.00188.64438-.00374,1.28938.00313,1.93375.4825-.00187.965,0,1.4475-.00124V18.0425c-.4825-.00125-.965.00063-1.44688-.00125-.00749.64625-.00187,1.29188-.00375,1.93812.665,0,1.32938-.00187,1.99438.00126q.00187.54843,0,1.09687-1.54687.00375-3.095.00062Q26.92188,17.49219,26.92312,13.90563Z"/><path class="cls-1" d="M31.93688,13.915c.50249-.00062,1.00562-.00375,1.50812.00187.37125,2.39063.81,4.77063,1.18187,7.16188-.38.00062-.75937,0-1.13875.00062-.07812-.54187-.17312-1.08062-.24562-1.62312-.375-.01062-.75063-.00687-1.12625-.00313-.07312.54438-.16687,1.08563-.26,1.62625-.37875-.00125-.7575,0-1.13563-.00062q.6075-3.58218,1.21626-7.16375m.34562,4.44125c.25812.01.51625.00938.775.0075-.105-.90562-.24562-1.80687-.36813-2.71063C32.53063,16.55062,32.43188,17.4575,32.2825,18.35625Z"/><path class="cls-1" d="M35.25688,13.91125c.34562.00375.69124.00313,1.03687.00188.00875,1.82187-.00187,3.64375.005,5.46562a.66355.66355,0,0,0,.35.60812.58217.58217,0,0,0,.84813-.48874q-.00094-2.03157-.00063-4.0625c.03687-.50688.02875-1.015.0325-1.5225q.56625.00187,1.13312,0c.00688,1.8-.00062,3.6.00375,5.4a1.85224,1.85224,0,0,1-.18062.92751,1.7423,1.7423,0,0,1-1.73625.91187,1.72222,1.72222,0,0,1-1.44938-1.21438,3.05744,3.05744,0,0,1-.0625-.87749q0-2.37469-.00062-4.74938C35.23625,14.1775,35.24562,14.04438,35.25688,13.91125Z"/><path class="cls-1" d="M39.38812,13.91063q1.67625.00843,3.35313.00062a4.9362,4.9362,0,0,1-.0075,1.11187c-.37125-.0075-.7425-.005-1.11375-.00312-.0025,2.02.0025,4.03937-.0025,6.05937q-.54563-.00093-1.09125,0-.00469-3.02906-.00062-6.05812c-.37813-.00375-.75626-.005-1.13376.00063A5.0431,5.0431,0,0,1,39.38812,13.91063Z"/><path class="cls-1" d="M46.2425,13.90687c.40125-.00812.80187-.00437,1.20313-.00312-.1325.50125-.3375.98-.49938,1.47187-.2675.79751-.55438,1.58875-.83,2.38313a1.253,1.253,0,0,0-.09875.48875q.00187,1.35.00063,2.70125c.0375.09625-.06875.13938-.14.13-.32124.00563-.64187-.00313-.9625-.00063-.00312-.94437-.00062-1.88812-.00062-2.83187a1.0443,1.0443,0,0,0-.07687-.385c-.46188-1.31812-.91126-2.64063-1.37813-3.95687.40875-.00126.8175-.00875,1.22563.00625.21624.85374.54437,1.67624.75874,2.53062C45.74187,15.6075,45.98875,14.755,46.2425,13.90687Z"/><path class="cls-1" d="M27.25437,22.615a1.72756,1.72756,0,0,1,1.2425.38875c.17813.125.16626.4775-.06812.52937-.1875.05-.33438-.09312-.48313-.17749a1.08688,1.08688,0,0,0-1.34125.17687,1.33569,1.33569,0,0,0-.18374,1.3725,1.05609,1.05609,0,0,0,1.08187.62125c.31-.00563.52875-.24938.8025-.35375a.29565.29565,0,0,1,.20313.52688,1.74049,1.74049,0,0,1-2.58938-.37126,1.95618,1.95618,0,0,1,.17313-2.17124A1.72717,1.72717,0,0,1,27.25437,22.615Z"/><path class="cls-1" d="M39.72375,22.79812c.06188-.17874.27313-.17437.425-.135a1.3194,1.3194,0,0,1,.24562.42813c.37438.87438.79313,1.73,1.15876,2.60813.13687.26375-.25688.53874-.46188.32812a7.26161,7.26161,0,0,1-.3775-.72625c-.49062.0075-.98125-.0025-1.47188.00687a4.28764,4.28764,0,0,1-.35062.71063.29814.29814,0,0,1-.48812-.13937,1.19166,1.19166,0,0,1,.16687-.53813c.39375-.84312.75438-1.7025,1.15375-2.54313m-.23438,1.97q.50251.00281,1.00563.00062c-.14687-.43-.34688-.83938-.505-1.265C39.82125,23.92438,39.63187,24.33813,39.48937,24.76813Z"/><path class="cls-1" d="M30.144,22.79812c.06187-.17874.27312-.17437.425-.135a1.3194,1.3194,0,0,1,.24562.42813c.37438.87438.79313,1.73,1.15875,2.60813.13688.26375-.25687.53874-.46187.32812a7.25743,7.25743,0,0,1-.3775-.72625c-.49063.0075-.98125-.0025-1.47188.00687a4.28921,4.28921,0,0,1-.35062.71063.29815.29815,0,0,1-.48813-.13937,1.1918,1.1918,0,0,1,.16688-.53813c.39375-.84312.75437-1.7025,1.15375-2.54313m-.23438,1.97q.5025.00281,1.00563.00062c-.14688-.43-.34688-.83938-.505-1.265C30.24146,23.92438,30.05208,24.33813,29.90958,24.76813Z"/><path class="cls-1" d="M41.96125,22.65812a.3186.3186,0,0,1,.43625.27376c.01313.60687-.00437,1.21437.005,1.82124a.78349.78349,0,0,0,.31187.65438.85055.85055,0,0,0,1.3025-.46438c.04125-.685-.00812-1.37312.02188-2.05812a.32066.32066,0,0,1,.54062-.15062c.1075.10187.07688.26.085.39249-.00688.56188.00312,1.12438-.00438,1.68626a1.3029,1.3029,0,0,1-.70875,1.14937,1.86354,1.86354,0,0,1-1.29375.07125,1.27141,1.27141,0,0,1-.87375-1.155c-.02625-.60625-.00437-1.21375-.01187-1.82C41.76312,22.9075,41.8,22.71375,41.96125,22.65812Z"/><path class="cls-1" d="M32.46375,22.72688a1.0474,1.0474,0,0,1,.47625-.05563,2.7679,2.7679,0,0,1,1.56875.2575,1.78526,1.78526,0,0,1,.55313,2.25563A1.59488,1.59488,0,0,1,33.63,26.05c-.33813,0-.67562.00812-1.01313-.00312a.2859.2859,0,0,1-.28625-.29376c-.00875-.87625.00188-1.75312-.005-2.63-.00063-.1425-.01-.32.13812-.39625m.5.51124c-.01375.74313-.005,1.48625-.005,2.23A1.872,1.872,0,0,0,34.28,25.21188a1.19608,1.19608,0,0,0-.14812-1.80125A2.7709,2.7709,0,0,0,32.96375,23.23812Z"/><path class="cls-1" d="M35.77625,22.77625a.53375.53375,0,0,1,.40687-.10562c.52251.00437,1.045.00062,1.56751.00125.14625-.0075.3375.03937.37062.20687a.297.297,0,0,1-.30563.38125c-.495.00875-.99062-.00063-1.48625.00188q-.00093.39186,0,.78312c.28876.00438.57875-.015.8675.00687a.29155.29155,0,0,1,.21625.42751.30888.30888,0,0,1-.285.15562c-.26624.0125-.5325,0-.79875.0025-.00062.27688-.00125.55375.00188.83125.53625.0025,1.07313-.00937,1.60875.00312a.29066.29066,0,0,1,.22813.445c-.06688.12937-.22813.135-.355.135-.46.00063-.92-.00312-1.37938,0-.24688-.00687-.53063.05376-.72125-.145-.00875-.94876,0-1.89751-.005-2.84563C35.71562,22.96437,35.6925,22.84687,35.77625,22.77625Z"/><path class="cls-1" d="M28.29813,29.58813c4.68937-.0075,9.37874-.00063,14.06812-.00313.00062.35937,0,.71875.00062,1.07875q-7.03405-.00095-14.06812-.00188C28.29875,30.30375,28.29937,29.94625,28.29813,29.58813Z"/></g></svg>