<svg xmlns="http://www.w3.org/2000/svg" viewBox="0 0 70 40"><defs><style>.cls-1{fill:#fff;}</style></defs><g id="Layer_2" data-name="Layer 2"><g id="Layer_1-2" data-name="Layer 1"><rect width="70" height="40" rx="3.70584"/><path class="cls-1" d="M8.22949,17.63379a1.22462,1.22462,0,0,1-.51416,1.02832,1.79255,1.79255,0,0,1-.59863.2793,2.94857,2.94857,0,0,1-.79.09765H4.71338V14.26562H5.9707a4.44173,4.44173,0,0,1,.77295.06348,1.95983,1.95983,0,0,1,.61865.21192,1.09115,1.09115,0,0,1,.41016.39746,1.20361,1.20361,0,0,1,.148.625,1.00731,1.00731,0,0,1-.70605.98828,1.43435,1.43435,0,0,1,.48388.18457,1.2369,1.2369,0,0,1,.313.27539,1.004,1.004,0,0,1,.168.3164A1.04487,1.04487,0,0,1,8.22949,17.63379ZM6.89844,15.6709a.554.554,0,0,0-.23731-.51465,1.22667,1.22667,0,0,0-.63818-.14453H5.78223v1.27734h.40771a.7754.7754,0,0,0,.50781-.16406A.557.557,0,0,0,6.89844,15.6709Zm.24218,1.9834a.59029.59029,0,0,0-.25439-.48438,1.353,1.353,0,0,0-.81641-.19531H5.78223v1.25781H6.3374a1.10438,1.10438,0,0,0,.56885-.13769A.47331.47331,0,0,0,7.14062,17.6543Z"/><path class="cls-1" d="M8.88184,19.03906V14.26562h2.77v.874H9.95068v1.05566h1.57325v.85352H9.95068V18.1582h1.88916l-.06054.88086Z"/><path class="cls-1" d="M15.2417,18.03027H13.54736l-.34961,1.00879H12.14258l1.66015-4.75976L15.02,14.252l1.78125,4.78711H15.61816Zm-1.46582-.80664h1.21045l-.63233-1.835Z"/><path class="cls-1" d="M21.13086,16.86719a2.40734,2.40734,0,0,1-.52393,1.65722,2.03723,2.03723,0,0,1-1.604.58887,2.01108,2.01108,0,0,1-1.59082-.56152,2.5233,2.5233,0,0,1-.49023-1.69727V14.26562h1.06933v2.60157a1.67667,1.67667,0,0,0,.24756.98535,1.01018,1.01018,0,0,0,.87842.3457.87528.87528,0,0,0,.77392-.332,1.64881,1.64881,0,0,0,.231-.94531V14.26562h1.00879Z"/><path class="cls-1" d="M23.96826,15.14648v3.89258H22.89893V15.14648H21.561v-.88086h3.82568l-.06055.88086Z"/><path class="cls-1" d="M26.83838,17.12305l-1.79492-2.85743h1.21045L27.44727,16.168,28.627,14.26562h1.1294l-1.84864,2.85059v1.92285H26.83838Z"/><path class="cls-1" d="M31.55811,19.10645a1.94892,1.94892,0,0,1-.7129-.11817,1.49256,1.49256,0,0,1-.501-.30859,1.20834,1.20834,0,0,1-.29248-.4375,1.389,1.389,0,0,1-.09375-.501,1.296,1.296,0,0,1,.20849-.706,1.92167,1.92167,0,0,1,.73243-.61133,2.39182,2.39182,0,0,1-.46534-.6084,1.209,1.209,0,0,1-.126-.52148,1.102,1.102,0,0,1,.084-.4336,1.02137,1.02137,0,0,1,.23877-.3457A1.12288,1.12288,0,0,1,31,14.28223a1.32865,1.32865,0,0,1,.48389-.084,1.29826,1.29826,0,0,1,.4707.08106,1.017,1.017,0,0,1,.353.22461,1.00137,1.00137,0,0,1,.22168.33691,1.0875,1.0875,0,0,1,.07763.41309,1.41972,1.41972,0,0,1-.03076.27539,1.05022,1.05022,0,0,1-.13183.32617,1.62611,1.62611,0,0,1-.29151.34961,2.15626,2.15626,0,0,1-.50732.33984q.32226.33545.66553.65528.34277.31934.68554.60156a1.90468,1.90468,0,0,0,.269-.61133,2.9949,2.9949,0,0,0,.08057-.71289,3.92984,3.92984,0,0,0-.02344-.41992q-.02343-.21826-.05713-.38672h.46387a2.14356,2.14356,0,0,1,.084.37012,2.90816,2.90816,0,0,1,.03027.416,3.30878,3.30878,0,0,1-.104.83692,2.84286,2.84286,0,0,1-.3667.81054q.22193.18165.46728.35254.24537.17286.54785.34668l-.39648.34961a5.846,5.846,0,0,1-.49414-.32617q-.23218-.17139-.45361-.3457a1.889,1.889,0,0,1-.68262.46679A2.136,2.136,0,0,1,31.55811,19.10645Zm.04-.4375a1.428,1.428,0,0,0,.58838-.124,1.59315,1.59315,0,0,0,.50782-.36621q-.36328-.30907-.72608-.66211-.36329-.353-.7666-.77637a1.21176,1.21176,0,0,0-.56152.43946.98264.98264,0,0,0-.15772.51465.96235.96235,0,0,0,.07031.36328.88579.88579,0,0,0,.21192.30957,1.09721,1.09721,0,0,0,.34961.21777A1.2748,1.2748,0,0,0,31.59814,18.669ZM31.34668,16.249a1.72462,1.72462,0,0,0,.40478-.25586,1.27738,1.27738,0,0,0,.23389-.26562.79617.79617,0,0,0,.11035-.24512.86045.86045,0,0,0,.02686-.19433.67419.67419,0,0,0-.18067-.49414.63925.63925,0,0,0-.48144-.18555.61579.61579,0,0,0-.669.666,1.164,1.164,0,0,0,.01661.19825.68672.68672,0,0,0,.07714.208,1.68956,1.68956,0,0,0,.17041.249A4.13939,4.13939,0,0,0,31.34668,16.249Z"/><path class="cls-1" d="M38.812,19.0459l-.9541-2.85742-.90137,2.84375-.585.01367L34.812,14.26562h.54444l1.352,4.21583.91406-2.98536-.41016-1.23047h.53711l1.37207,4.20215,1.28418-4.20215h.51074L39.397,19.03223Z"/><path class="cls-1" d="M41.40771,19.03906V14.26562h2.34571v.4502h-1.835v1.6748h1.69433v.43653H41.91846v1.76172H43.895l-.04.45019Z"/><path class="cls-1" d="M44.79639,19.03906V14.26562h.51074v4.32325h1.96973l-.04.45019Z"/><path class="cls-1" d="M48.00244,19.03906V14.26562h.51074v4.32325h1.96973l-.04.45019Z"/><path class="cls-1" d="M51.07471,14.26562h.55078l2.67578,3.93946V14.26562h.48437v4.77344h-.53808l-2.68945-3.97363v3.97363h-.4834Z"/><path class="cls-1" d="M56.023,19.03906V14.26562h2.3457v.4502h-1.835v1.6748H58.228v.43653H56.53369v1.76172h1.97656l-.04.45019Z"/><path class="cls-1" d="M61.87842,17.73438a1.52929,1.52929,0,0,1-.08692.50488,1.163,1.163,0,0,1-.27929.44043,1.42764,1.42764,0,0,1-.48731.30859,1.91469,1.91469,0,0,1-.71289.11817,3.17586,3.17586,0,0,1-.56152-.05079,2.97954,2.97954,0,0,1-.58789-.17089l-.01367-.498a4.10346,4.10346,0,0,0,.64941.18848,2.87168,2.87168,0,0,0,.51367.04687,1.35478,1.35478,0,0,0,.4707-.07031.86017.86017,0,0,0,.30567-.18457.64481.64481,0,0,0,.168-.26563.99409.99409,0,0,0,.05078-.31933,1.07028,1.07028,0,0,0-.02637-.24219.64685.64685,0,0,0-.1084-.22559,1.07148,1.07148,0,0,0-.22168-.21875,2.1882,2.1882,0,0,0-.36328-.21484l-.36914-.17481a3.025,3.025,0,0,1-.4541-.27246,1.29068,1.29068,0,0,1-.292-.292,1.04086,1.04086,0,0,1-.15528-.33008,1.4418,1.4418,0,0,1-.04687-.376,1.252,1.252,0,0,1,.09082-.47754,1.10789,1.10789,0,0,1,.27539-.39356,1.31338,1.31338,0,0,1,.46387-.26855,1.98358,1.98358,0,0,1,.64941-.09766,3.3456,3.3456,0,0,1,.45313.03418,2.80277,2.80277,0,0,1,.52148.127l-.04.4707a3.11091,3.11091,0,0,0-.52148-.13379,2.78618,2.78618,0,0,0-.40625-.03418,1.0238,1.0238,0,0,0-.72656.209.698.698,0,0,0-.21485.52442.89015.89015,0,0,0,.03027.23828.60136.60136,0,0,0,.11036.21484,1.03657,1.03657,0,0,0,.22168.20508,2.48455,2.48455,0,0,0,.37011.209l.37012.1748a1.73656,1.73656,0,0,1,.75586.57422A1.30917,1.30917,0,0,1,61.87842,17.73438Z"/><path class="cls-1" d="M65.28662,17.73438a1.52954,1.52954,0,0,1-.08691.50488,1.1632,1.1632,0,0,1-.2793.44043,1.42769,1.42769,0,0,1-.4873.30859,1.91475,1.91475,0,0,1-.7129.11817,3.17586,3.17586,0,0,1-.56152-.05079,2.97954,2.97954,0,0,1-.58789-.17089l-.01367-.498a4.10346,4.10346,0,0,0,.64941.18848,2.87176,2.87176,0,0,0,.51367.04687,1.35484,1.35484,0,0,0,.47071-.07031.86013.86013,0,0,0,.30566-.18457.64471.64471,0,0,0,.168-.26563.99409.99409,0,0,0,.05078-.31933A1.07028,1.07028,0,0,0,64.689,17.54a.64681.64681,0,0,0-.10839-.22559,1.07173,1.07173,0,0,0-.22168-.21875,2.18861,2.18861,0,0,0-.36328-.21484l-.36915-.17481a3.02552,3.02552,0,0,1-.4541-.27246,1.29088,1.29088,0,0,1-.292-.292,1.04105,1.04105,0,0,1-.15527-.33008,1.44179,1.44179,0,0,1-.04688-.376A1.25222,1.25222,0,0,1,62.769,14.958a1.108,1.108,0,0,1,.27539-.39356,1.31338,1.31338,0,0,1,.46387-.26855,1.98358,1.98358,0,0,1,.64941-.09766,3.34548,3.34548,0,0,1,.45313.03418,2.80277,2.80277,0,0,1,.52148.127l-.04.4707a3.11124,3.11124,0,0,0-.52149-.13379,2.78607,2.78607,0,0,0-.40625-.03418,1.0238,1.0238,0,0,0-.72656.209.698.698,0,0,0-.21485.52442.88974.88974,0,0,0,.03028.23828.60117.60117,0,0,0,.11035.21484,1.03657,1.03657,0,0,0,.22168.20508,2.48471,2.48471,0,0,0,.37012.209l.37011.1748a1.73656,1.73656,0,0,1,.75586.57422A1.30917,1.30917,0,0,1,65.28662,17.73438Z"/><path class="cls-1" d="M26.752,25.80176a.78374.78374,0,0,1-.59961-.22364.88282.88282,0,0,1-.20947-.62695,2.49016,2.49016,0,0,1,.53858-1.43164q.53832-.75439,1.00146-.75391a.43641.43641,0,0,1,.36279.22754.85705.85705,0,0,1,.15235.4834.50822.50822,0,0,1-.06641.26367c-.04443.07325-.08887.11036-.13428.11036q-.15087,0-.21289-.30469c-.04687-.21778-.11474-.32715-.20312-.32715q-.27027,0-.63965.64258a2.29345,2.29345,0,0,0-.36963,1.085q0,.44091.502.44141a1.66192,1.66192,0,0,0,.89991-.3584.577.577,0,0,1,.26806-.12793c.05908,0,.08838.03418.08838.10156q0,.19776-.46533.498A1.68306,1.68306,0,0,1,26.752,25.80176Z"/><path class="cls-1" d="M30.49512,24.70605a3.18333,3.18333,0,0,1-.72071.73438,1.18035,1.18035,0,0,1-.65283.24414.44412.44412,0,0,1-.3457-.169.6434.6434,0,0,1-.146-.43457,2.47029,2.47029,0,0,1,.61133-1.47363,1.64476,1.64476,0,0,1,1.21484-.78906.34773.34773,0,0,1,.3252.249.11329.11329,0,0,0,.10645.084q.20874,0,.20849.16113a1.27277,1.27277,0,0,1-.02637.2207,7.058,7.058,0,0,0-.14013,1.082c0,.41993.07959.6709.23926.75489a.1792.1792,0,0,1,.11425.15332c0,.05371-.03711.10742-.11181.16211a.36821.36821,0,0,1-.21582.082q-.20068,0-.33057-.27539A1.89613,1.89613,0,0,1,30.49512,24.70605Zm-.15869-1.46386q-.34351,0-.79834.64355a2.01618,2.01618,0,0,0-.45557,1.06738c0,.2002.06592.29981.19775.29981q.28638,0,.79346-.57813a1.68183,1.68183,0,0,0,.50732-1.06054Q30.58105,23.24219,30.33643,23.24219Z"/><path class="cls-1" d="M33.7334,24.57617a3.25539,3.25539,0,0,1-.73877.86231,1.20987,1.20987,0,0,1-.71777.30371.47583.47583,0,0,1-.39942-.19434.831.831,0,0,1-.147-.5166,2.22181,2.22181,0,0,1,.53467-1.34961,1.48772,1.48772,0,0,1,1.15381-.69238.70227.70227,0,0,1,.502.23242l.36377-1.70117a.33727.33727,0,0,1,.14453-.23438.37.37,0,0,1,.165-.05957q.18237,0,.18213.32227a2.68871,2.68871,0,0,1-.11963.42676,12.50807,12.50807,0,0,0-.36035,1.40527,7.05491,7.05491,0,0,0-.16993,1.33887q0,.52.22608.51953a.57171.57171,0,0,0,.30176-.09571.21252.21252,0,0,1,.12207-.04687c.05566,0,.08349.03613.08349.10937,0,.0879-.07763.19043-.23291.30665a.79018.79018,0,0,1-.47754.1748q-.42919,0-.4292-.82715Q33.72021,24.71973,33.7334,24.57617Zm-.34082-1.21679a1.1129,1.1129,0,0,0-.835.57031,1.84629,1.84629,0,0,0-.41358,1.05469c0,.21679.07227.32519.21582.32519a.89177.89177,0,0,0,.49317-.21289,2.64046,2.64046,0,0,0,.59668-.68066,1.5094,1.5094,0,0,0,.30713-.7002.36319.36319,0,0,0-.10547-.23535A.32878.32878,0,0,0,33.39258,23.35938Z"/><path class="cls-1" d="M37.6167,24.77148c0,.17676-.15625.39063-.46875.63965a1.54127,1.54127,0,0,1-.96973.375.83705.83705,0,0,1-.646-.24707.97946.97946,0,0,1-.22754-.68945,2.32322,2.32322,0,0,1,.502-1.415,1.39634,1.39634,0,0,1,1.09717-.6709.42732.42732,0,0,1,.44238.43457,1.05542,1.05542,0,0,1-.39258.7666,4.99571,4.99571,0,0,1-1.05078.72071.20753.20753,0,0,0-.13525.18261.47792.47792,0,0,0,.125.34571.489.489,0,0,0,.36963.12988,1.62763,1.62763,0,0,0,1.1416-.61914c.05664-.05762.10058-.08594.12988-.08594C37.58936,24.63867,37.6167,24.68262,37.6167,24.77148Zm-1.80762-.40527q1.103-.65625,1.10254-1.05371c0-.10449-.0459-.15625-.13965-.15625a.79993.79993,0,0,0-.54.35156A2.02089,2.02089,0,0,0,35.80908,24.36621Z"/><path class="cls-1" d="M39.91455,24.70605a3.203,3.203,0,0,1-.7207.73438,1.183,1.183,0,0,1-.65332.24414.44271.44271,0,0,1-.34571-.169.64071.64071,0,0,1-.1455-.43457,2.4642,2.4642,0,0,1,.61132-1.47363,1.644,1.644,0,0,1,1.21485-.78906.34772.34772,0,0,1,.32519.249.11286.11286,0,0,0,.10645.084q.208,0,.208.16113a1.27277,1.27277,0,0,1-.02637.2207,7.0139,7.0139,0,0,0-.14063,1.082c0,.41993.08008.6709.23926.75489a.17876.17876,0,0,1,.11524.15332c0,.05371-.03809.10742-.11231.16211a.367.367,0,0,1-.21582.082q-.20068,0-.33008-.27539A1.88829,1.88829,0,0,1,39.91455,24.70605Zm-.15918-1.46386q-.34276,0-.79883.64355a2.02272,2.02272,0,0,0-.45508,1.06738c0,.2002.06641.29981.19825.29981q.28564,0,.793-.57813a1.68339,1.68339,0,0,0,.50683-1.06054Q39.99951,23.24219,39.75537,23.24219Z"/><path class="cls-1" d="M43.12354,24.52148a3.60562,3.60562,0,0,1-.68165.86622,1.01948,1.01948,0,0,1-.64746.30761.49312.49312,0,0,1-.35058-.20019.91313.91313,0,0,1-.17774-.61719,4.59424,4.59424,0,0,1,.16407-1.00391,3.81748,3.81748,0,0,0,.13769-.77734.24714.24714,0,0,1,.23633-.15625.21882.21882,0,0,1,.1748.07617.24753.24753,0,0,1,.06446.16016,1.58949,1.58949,0,0,1-.127.51758,3.33012,3.33012,0,0,0-.24218,1.12109c0,.28516.0664.42676.19824.42676q.252,0,.6416-.42871a3.57517,3.57517,0,0,0,.669-1.19727,1.81008,1.81008,0,0,1,.17773-.39844.22258.22258,0,0,1,.18652-.09277c.11817,0,.17676.07812.17676.23438a1.17089,1.17089,0,0,1-.0498.18945A4.10433,4.10433,0,0,0,43.519,24.626a1.08829,1.08829,0,0,0,.2002.78808c.06933.06446.10351.11621.10351.15625,0,.04785-.03515.09278-.10546.13281a.40258.40258,0,0,1-.19043.05958c-.12207,0-.21973-.08985-.294-.27051a2.1752,2.1752,0,0,1-.1123-.79883v-.08594C43.12061,24.58008,43.12158,24.55176,43.12354,24.52148Z"/></g></g></svg>