<svg id="Layer_1" data-name="Layer 1" xmlns="http://www.w3.org/2000/svg" viewBox="0 0 70 40"><defs><style>.cls-1{fill:#fff;}</style></defs><rect width="70" height="40" rx="3.70584"/><g id="_000000ff" data-name="#000000ff"><path class="cls-1" d="M35.25222,9.83573A1.12,1.12,0,0,1,35.259,8.74145a6.501,6.501,0,0,1,1.432.00967c.14319.1432.09965.34928.08417.53021a.58372.58372,0,0,1-.119.53408,27.33394,27.33394,0,0,1,.35508,2.99646,1.49064,1.49064,0,0,0,.148.70243c.21769.268.55729.4054.76241.68792a1.86155,1.86155,0,0,1,.3638,1.20942c-.00678,3.06515.0029,6.1303-.00581,9.19546a.69987.69987,0,0,1-.70243.7479c-1.06332.00968-2.12664.00581-3.19.00194a.68991.68991,0,0,1-.72468-.73727q-.0029-4.69932-.001-9.39767a1.58942,1.58942,0,0,1,.61439-1.27328c.24962-.20221.58729-.39088.596-.75467.09-1.12331.179-2.24856.38024-3.35832Zm.26607,1.05171c-.09094.6705-.15287,1.34488-.19253,2.02021a1.12495,1.12495,0,0,1-.21286.72953,4.40838,4.40838,0,0,0-.70824.6318,1.86473,1.86473,0,0,0-.33186,1.1475c.0058,2.90164-.00484,5.80424.0058,8.70588-.04741.47506.38411.75952.804.806a2.7162,2.7162,0,0,1-.37927-.45087,3.56761,3.56761,0,0,1-.04547-.83789q.00724-4.20877.00193-8.41659a1.61551,1.61551,0,0,1,.64922-1.30811c.24865-.18674.55536-.38121.5602-.73146.08127-1.14943.06676-2.30467.10643-3.45507A3.51,3.51,0,0,0,35.51829,10.88744Z"/><path class="cls-1" d="M39.44939,8.8798c1.50742-.04257,3.01871-.00774,4.52807-.01644A.58391.58391,0,0,1,44.6141,9.41c.01548.419.01935.83982-.00387,1.25877a.5632.5632,0,0,1-.54086.4857c-.746.02612-1.49387-.01354-2.23984.00968a.60284.60284,0,0,0-.57085.66566c-.0029,1.19684,0,2.39368-.00193,3.59053a.631.631,0,0,0,.39669.68114c.41313.05128.83111-.01935,1.24328.0387a.57543.57543,0,0,1,.48086.52054c.02129.39572.01646.79144.00485,1.18716a.5611.5611,0,0,1-.47893.57085c-.41024.059-.82628-.01064-1.23652.03773a.59154.59154,0,0,0-.41023.63761c.00387,1.101-.00581,2.20308.00484,3.30413a.57407.57407,0,0,0,.57858.60955c.71017.01935,1.42131-.01161,2.13245.00677a.6171.6171,0,0,1,.50312.21383c.23124.27284.12.66179.149.98882-.02516.299.07063.656-.15.90271a.85858.85858,0,0,1-.69759.2177c-1.39035-.00484-2.77973,0-4.16911-.00194-.31348.03-.67921-.16835-.64535-.5244-.00871-4.80672,0-9.61441-.00484-14.42112a6.50587,6.50587,0,0,1,.04258-1.06332A.5597.5597,0,0,1,39.44939,8.8798Z"/><path class="cls-1" d="M45.47521,9.46323a.61528.61528,0,0,1,.61244-.59794c.87369-.01354,1.74834.00387,2.623-.0058a3.91892,3.91892,0,0,1,3.61277,2.17405,7.12994,7.12994,0,0,1,.62019,3.81209,5.30879,5.30879,0,0,1-1.21038,3.09224c.61148,2.1847,1.2336,4.36553,1.849,6.54925a.64707.64707,0,0,1-.5515.86111,9.193,9.193,0,0,1-1.26457-.00677.624.624,0,0,1-.56891-.5186c-.46539-1.71641-.93851-3.43088-1.4-5.14826a.88824.88824,0,0,0-.32413-.58826c-.41991.00774-.83885.03289-1.2578.03967a.41243.41243,0,0,0-.42571.44893c-.00291,1.68158.0029,3.36316,0,5.04473a.64626.64626,0,0,1-.4412.67728,6.16384,6.16384,0,0,1-1.24618.031.60709.60709,0,0,1-.60858-.47506,7.09212,7.09212,0,0,1-.029-1.014q.00145-5.08246,0-10.164a.68648.68648,0,0,1,.43926-.76145,6.82277,6.82277,0,0,1,1.2578-.03193.61842.61842,0,0,1,.62406.60761c.01354,1.00721-.0029,2.01538.00484,3.02355a3.08041,3.08041,0,0,0,2.17115-.50892,2.205,2.205,0,0,0,.83014-1.84122A3.4225,3.4225,0,0,0,50.13,11.96044a1.95286,1.95286,0,0,0-1.41164-.78951c-.87562-.03193-1.75317.0058-2.62879-.01258a.59086.59086,0,0,1-.60568-.55149A7.39842,7.39842,0,0,1,45.47521,9.46323Z"/><path class="cls-1" d="M17.57438,16.78457a.7634.7634,0,0,1,.93077-.27671,2.21586,2.21586,0,0,1,.86788.48473.84293.84293,0,0,1-.03483.97431,6.8099,6.8099,0,0,0-.716,5.08634,6.59066,6.59066,0,0,0,3.814,4.48162c.00773.76242.0029,1.5258.0029,2.28822a8.4875,8.4875,0,0,1-4.69836-3.56537A9.08515,9.08515,0,0,1,17.57438,16.78457Z"/><path class="cls-1" d="M23.87981,25.92294a2.051,2.051,0,0,1,2.16824.55053,2.3919,2.3919,0,0,1,.43733,1.80833c-.17028.14609-.4083.09288-.61245.10836a1.38279,1.38279,0,0,1-.61245-.0774c-.08031-.41508.01161-.97141-.42862-1.21039a.63049.63049,0,0,0-.93077.54666c-.02709,1.17846.00194,2.35788-.01257,3.53731a1.74858,1.74858,0,0,0,.12674.895.71136.71136,0,0,0,.955.13642c.327-.30864.19931-.80112.27865-1.19684.20125-.15771.4857-.08611.72372-.10643.17028.01548.447-.0329.508.1819A2.0024,2.0024,0,0,1,23.0187,32.8892a1.974,1.974,0,0,1-.41314-1.31391c.00968-1.32649-.0087-2.653.00871-3.97851A1.80559,1.80559,0,0,1,23.87981,25.92294Z"/><path class="cls-1" d="M33.65,25.91424c.923-.05225,1.849-.00871,2.77393-.02613a2.65293,2.65293,0,0,1,.88336.07063,3.09573,3.09573,0,0,1-.00581,1.06429.94707.94707,0,0,1-.39959.05709c-.66857-.00194-1.33713-.00581-2.0057-.00194q0,1.19733,0,2.39465a12.60351,12.60351,0,0,1,1.56547.031,1.80873,1.80873,0,0,1,.03,1.07977,6.65938,6.65938,0,0,1-1.59062.07064c-.00677.53214-.00484,1.06525-.00484,1.59836.78757.01452,1.57708-.02709,2.36272.01645.21383.1461.10643.44216.13546.66083.001.20028.01741.566-.28833.50505-1.102.00194-2.206.01645-3.307-.00774-.20318.00677-.178-.26317-.18673-.39862q.00435-2.80538.00193-5.61074A13.921,13.921,0,0,1,33.65,25.91424Z"/><path class="cls-1" d="M39.4581,26.101a2.84041,2.84041,0,0,1,2.37336-.0358,1.70105,1.70105,0,0,1,.90949,1.09912,5.28651,5.28651,0,0,1,.09095,1.31392c-.00678,1.03042.0058,2.06085-.00484,3.09224a2.794,2.794,0,0,1-.31252,1.16781c.31445.38315.76629.68018.9269,1.16879a5.42427,5.42427,0,0,1-1.50742.0803c-.16157-.18286-.32509-.36476-.48763-.54665a3.02135,3.02135,0,0,1-2.12375-.238,1.85071,1.85071,0,0,1-.774-1.62836c.001-1.29069-.00387-2.58138.00193-3.87208A1.77594,1.77594,0,0,1,39.4581,26.101Zm.95109.95012a.62833.62833,0,0,0-.56988.68018c-.02226,1.21716,0,2.43625-.01064,3.65438.01451.27091-.00581.61729.22446.80789a1.48484,1.48484,0,0,0,1.30134-.03676,1.39467,1.39467,0,0,0,.17222-.87078c-.01354-1.22878.00871-2.45851-.00968-3.68632C41.49379,27.06173,40.82329,26.97853,40.40919,27.05109Z"/><path class="cls-1" d="M44.56088,25.88715a4.14987,4.14987,0,0,1,1.1059.01451,1.58232,1.58232,0,0,1,.06966.54762c-.00871,1.67674.001,3.35445-.00581,5.03119a.84774.84774,0,0,0,.18867.655.68083.68083,0,0,0,1.09912-.42185c.06289-1.91281-.02515-3.83337.0416-5.74619.1819-.16448.45475-.08417.67825-.10836.19061.02322.53408-.06966.57375.19931.02225,1.77446-.001,3.55085.01161,5.32531a2.075,2.075,0,0,1-.60858,1.6216,2.16653,2.16653,0,0,1-1.91572.40926A1.703,1.703,0,0,1,44.5454,32.2603a5.479,5.479,0,0,1-.12-1.55483q.00145-2.17549-.00194-4.351C44.43607,26.19386,44.40124,25.9868,44.56088,25.88715Z"/><path class="cls-1" d="M49.87072,26.24707a.28255.28255,0,0,1,.28155-.35025c1.00333-.01935,2.00667.001,3.01-.00871.13933.01548.33283-.029.42185.11417a6.04579,6.04579,0,0,1,.04257.96464.94673.94673,0,0,1-.46829.1132c-.66953-.001-1.3381-.00581-2.00763-.00194,0,.79822.00193,1.59644-.001,2.39465.50118.00774,1.0043-.031,1.50355.01355.2235.06482.15287.36186.17513.53892-.02419.20124.05708.47409-.14513.60374-.507.06773-1.02366.00871-1.53452.031q.00436.79531.00194,1.59256c.70146.00291,1.40292-.00387,2.10439-.001.13061.00871.29026-.01548.388.09869a2.90733,2.90733,0,0,1-.02806,1.043,8.989,8.989,0,0,1-1.42615.0445c-.71307-.01354-1.42808.029-2.14019-.01645-.22447-.04256-.16157-.32605-.18286-.4915C49.87362,30.70257,49.863,28.47434,49.87072,26.24707Z"/><path class="cls-1" d="M26.68082,27.68966a7.86354,7.86354,0,0,0,1.10686-.4944c-.0058.79918.00194,1.59836-.00483,2.39755a8.72648,8.72648,0,0,1-3.724.53988c-.001-.72565.00387-1.4513-.0029-2.177.31929.02612.64051.0416.96173.04547.04354.19931.07063.46829.31251.52537a3.9225,3.9225,0,0,0,1.08558-.00483C26.74952,28.39306,26.65373,27.96832,26.68082,27.68966Z"/></g><path class="cls-1" d="M32.08354,25.77782a9.53274,9.53274,0,0,0,.75855-7.17138,9.11091,9.11091,0,0,0-4.0143-5.0128,6.13805,6.13805,0,0,0,.65308-3.68631A4.79367,4.79367,0,0,0,28.612,7.45946a3.4882,3.4882,0,0,0-2.93453-1.45421c-1.54806.01162-3.09515-.00967-4.64224.00871a.69535.69535,0,0,0-.65405.78855c.04064.49054-.17416,1.16491.34057,1.47162.54859.25543,1.19781-.03967,1.75028.19641.19543.07159.18673.28735.18673.45958q-.00726,5.37127-.00194,10.74448c.05612,1.67771,0,3.35832.03386,5.036-.01257.268.09773.60955.41024.63567.50119.029,1.00624.02225,1.50936.00291a.54082.54082,0,0,0,.44313-.64148c-.00484-1.42034-.0416-2.84069-.02612-4.262.02322-1.51419-.0629-3.02935-.00678-4.54354a1.6936,1.6936,0,0,1,.16062-.89788c.1548-.19931.44312-.17512.66566-.13835a6.38878,6.38878,0,0,1,3.9756,2.52043,6.80491,6.80491,0,0,1-.06192,8.078c-.03677-.67535-.06676-1.35165-.11707-2.026l.09058-.13971a.07287.07287,0,0,0,.00495-.07016q-.04749-.1043-.09458-.20821a.045.045,0,0,0-.07984-.00416q-.047.08079-.09333.16293-.20812-.017-.41459-.03639a.06618.06618,0,0,1-.05758-.04773,2.10916,2.10916,0,0,1-.06369-.7299.27526.27526,0,0,0-.05281-.18784c-.04275-.05689-.08477-.11362-.12634-.17079a.67406.67406,0,0,0,.15-.60084c.07643-.04741.15383-.09385.23123-.14029-.08227-.01273-.16456-.02619-.24618-.0404a.09829.09829,0,0,1-.05694-.03357.64067.64067,0,0,0-.04831-.05066.33866.33866,0,0,0-.55554.18393.73579.73579,0,0,0,.09134.5425c-.123.03311-.25014.04922-.37489.07346a.6655.6655,0,0,0-.43.28852c-.035.05364-.06745.1089-.0969.16561a.87256.87256,0,0,0-.09909.37573,3.80414,3.80414,0,0,0,.126.89084.15764.15764,0,0,0,.15838.12577c.11722-.00343.2342-.00746.35171-.011a3.27846,3.27846,0,0,1,.09965,1.191,31.84986,31.84986,0,0,0-.10353,3.60891c-.001,1.4513.00291,2.90164-.0029,4.35294a.9373.9373,0,0,0,.07257.46152,3.35184,3.35184,0,0,0,1.04977.03193c.13642-.01162.17126-.18384.16448-.29511.00484-.82336-.00483-1.64674.001-2.46914.51376-.00194,1.02849-.001,1.54322-.00194.03483.90948-.06,1.82864.04837,2.73232a5.15216,5.15216,0,0,0,1.09479.051l.13786-.135c.01451-2.42951-.00871-4.859.01161-7.28855a1.92119,1.92119,0,0,0-1.134-.10353c-.16157.029-.15674.21673-.15674.34251-.00193,1.073.00291,2.146,0,3.219-.51569-.00581-1.03139-.00387-1.54708-.0029q.00144-1.79963-.001-3.6002c.0387.04837.11707.14513.15577.1935.03677.88239-.001,1.76866.01548,2.652a6.83932,6.83932,0,0,0,1.192-1.00721,15.90559,15.90559,0,0,1,.07353-1.78994C31.03764,25.56205,31.62783,25.75072,32.08354,25.77782ZM27.25747,10.77037a1.73707,1.73707,0,0,1-.69275,1.47162,2.44568,2.44568,0,0,1-1.51226.38024c.0029-1.41744-.00677-2.83391.00484-4.25135a2.05941,2.05941,0,0,1,1.30037.2622A2.56086,2.56086,0,0,1,27.25747,10.77037ZM28.52785,25.891c-.0416-.05419-.12384-.16449-.16545-.21964a5.44919,5.44919,0,0,0,.19641-1.32745,5.00666,5.00666,0,0,0,.45474.51666c.01064.34444.02129.68888.01742,1.03333C28.86262,25.892,28.69523,25.892,28.52785,25.891Zm.93056-.285c-.01843-.241-.02947-.48194-.0443-.72222-.00193-.34541-.29993-.60181-.32315-.94238-.01342-.15023-.012-.30045-.01395-.44991a.03572.03572,0,0,1,.03614-.03634c.15141.00166.30359.00255.45577.00345.02946.71295.10377,1.4259.09851,2.13884Z"/></svg>