<svg width="70" height="40" viewBox="0 0 70 40" xmlns="http://www.w3.org/2000/svg"><title>bioscoopbn</title><desc>Created with Sketch.</desc><g fill-rule="nonzero" fill="none"><path d="M57.938 20.03c0 10.478-10.282 18.97-22.969 18.97-12.685 0-22.969-8.492-22.969-18.97 0-10.478 10.284-18.972 22.969-18.972 12.686 0 22.969 8.494 22.969 18.972" id="Shape" fill="#fff"/><path id="Shape" fill="#FFF101" d="M46.247 7.078l-29.059 14.084 6.582 7.94 30.738.529"/><path d="M50.245 33.006l1.402.054-.859-17.303-12.744.427-.107-8.116-16.523.5v.427c0 .376-.306.682-.684.682h-1.418c-.378 0-.683-.306-.683-.682v-.342l-1.845.056.643 8.275 11.194-1.014-.965 8.012 6.319-.535.216 8.97 13.279.49v-.555c0-.378.305-.682.682-.682h1.419c.379 0 .683.304.683.682v.56l-.007.096m-.676-2.442h-1.419c-.377 0-.682-.306-.682-.682v-.558c0-.375.305-.682.682-.682h1.419c.379 0 .683.307.683.682v.558c0 .376-.304.682-.683.682m-28.136-18.518c0 .376-.307.682-.684.682h-1.419c-.376 0-.682-.306-.682-.682v-.56c0-.377.306-.682.682-.682h1.419c.377 0 .684.306.684.682v.56m0 3.027c0 .377-.307.682-.684.682h-1.419c-.376 0-.682-.305-.682-.682v-.561c0-.375.306-.679.682-.679h1.419c.377 0 .684.304.684.679v.561m28.819 11.221v.561c0 .376-.304.682-.683.682h-1.419c-.377 0-.682-.306-.682-.682v-.561c0-.375.305-.68.682-.68h1.419c.379 0 .683.305.683.68" id="Shape" fill="#0C0A09"/><path d="M26.413 17.301s.037.923.04 1.429c.001.505-.086 3.845-.086 3.845l.985.036s-.013-1.138-.002-1.799c.021-1.449.069-3.611.069-3.611l-.638.023-.369.077zm21.272-5.085c.053-.128.239-.237.427-.252.09-.006.181.01.258.055.236.141.245.565.245.565l-.262.032-.733.085s0-.329.066-.485zm.876.963l.731-.093s.036-.283-.079-.884c-.144-.77-.888-.932-1.179-.89l-.155.022c-.355.058-.603.147-.859.512-.356.509-.339 1.504-.11 2.126.209.57.809.794 1.246.764.279-.02.657-.14.897-.224l.233-.086-.224-.729-.272.104-.114.043c-.233.094-.324.138-.713.091-.393-.048-.346-.635-.346-.635l.942-.122.001.001zm-9.878-1.958s.061.4.054.686c-.009.372-.018.606-.048 1.067-.049.816-.148 1.678-.148 1.678l.993-.032.05-2.266s.726-.391.846-.099c.116.295.042.962.013 1.424l-.063.923.926-.08v-2.186s-.016-.749-.381-.928c-.208-.103-.666-.181-.957-.027-.249.132-.41.241-.41.241l-.061-.479-.813.076v.001zm4.711 1.62c-.112.022-.719.122-.842.387-.141.306.01.607.321.579.273-.026.578-.322.578-.322l-.056-.644zm-.817-1.703c.344-.116.802-.165 1.13-.083.325.083.488.544.504.825.018.282.034 1.19.067 1.634.031.445.187.724.187.724l-.818.265-.096-.315s-.228.141-.514.256c-.292.116-.779-.023-1.057-.271-.278-.246-.254-1.032.123-1.46.375-.429 1.274-.469 1.274-.469s.067-.503-.18-.488c-.243.018-1.124.34-1.124.34l-.099-.758.606-.199h-.001zm2.701-1.643l.889-.033s-.157 2.168-.157 3.054v2.042l-.921.078s.141-2.68.141-3.179c0-.498.048-1.962.048-1.962z" id="Shape" fill="#0C0A09"/><path d="M23.161 15.048c.01-.224.047-1.157.072-2.959l.027-2.135.008-.447.003-.09.034-.004c.164-.024.565-.106.69-.132l1.115 3.123.087-.015-.007-2.968.784-.031c-.014.244-.075 1.365-.075 2.786 0 1.424.028 2.435.034 2.648l-.761.065-.401-1.274c-.497-1.568-.659-1.942-.66-1.944l-.085.017v3.243l-.864.119m4.11-.354h-.002c-.163-.001-.315-.062-.442-.243-.157-.228-.217-.452-.217-.66 0-.203.058-.39.142-.546.084-.156.194-.279.296-.353.157-.114.395-.218.592-.292l.252-.087.076-.024.027-.008.033-.01v-.034l-.04-.191-.094-.138c-.045-.039-.108-.066-.184-.066h-.001l-.044.003c-.257.031-.66.149-.798.19l-.131-.703c.14-.05.676-.228 1.13-.228h.004c.197 0 .376.035.499.12.121.084.204.17.264.268.09.145.129.317.152.543l.059.852c.049.58.202 1.207.245 1.377l-.745.175-.104-.451-.056.054-.005.005c-.026.024-.152.137-.322.243-.169.106-.383.203-.581.203m.783-1.663c-.002 0-.2.045-.402.146-.101.051-.203.116-.282.199-.079.083-.135.188-.135.311 0 .13.03.222.085.283.055.06.129.081.201.081h.002c.11 0 .22-.044.296-.082l.357-.221.022-.016-.1-.71-.047.01m4.956-2.104l-.062-1.096.88-.047v1.097l-.818.046m-2.13 3.77h-.001l-.064-.003c-.099-.013-.204-.038-.305-.086-.137-.064-.265-.168-.362-.333-.096-.166-.159-.395-.159-.713v-.044c.005-.302.028-.771.054-1.263l.003-.047-.637.004-.02-.712.713.009.002-.043c.03-.719.031-.734.07-1.267l.768.056-.123 1.25-.004.048.917.013-.046.63-.927.005-.003.041-.027.496-.008.401c0 .204.01.386.056.524l.103.171c.048.043.11.067.182.067h.002l.095-.011c.307-.068.504-.169.593-.223l.085.322.043-.012-.043.011.107.398c-.072.032-.25.109-.453.178-.205.07-.438.132-.607.132m2.095-.01l.09-2.556-.65.135.068-.668 1.31-.148-.104 3.138-.714.098m2.921.22l-.135-.007c-.389-.04-.699-.242-.915-.548-.216-.306-.336-.716-.336-1.166l.013-.26v-.001l.023-.149v-.001c.144-.815.751-1.338 1.43-1.338l.132.007c.237.024.448.117.628.263l.028-.035-.028.035c.39.314.627.879.626 1.48l-.012.236c-.092.903-.733 1.483-1.454 1.483m-.086-.719l.071.003c.21 0 .411-.096.564-.26.154-.164.262-.398.29-.677l.007-.141c0-.262-.073-.496-.198-.67-.124-.174-.303-.29-.51-.311l-.065-.003c-.212 0-.408.105-.555.277-.147.173-.248.415-.276.695l-.006.127c0 .249.073.478.195.651.121.173.291.29.484.309h-.002" id="Shape" fill="#D8232A"/><path d="M37.715 22.645h-.001c-.39 0-.807-.103-1.129-.446-.322-.343-.554-.933-.555-1.922l.003-.2c.036-1.23.337-1.946.719-2.353.383-.407.851-.513 1.24-.513.211 0 .398.032.532.063l.157.043.02.007-.186.883c-.077-.027-.234-.073-.421-.073h-.003c-.229 0-.506.073-.724.334-.218.263-.375.708-.382 1.449h.044-.044v.055c0 .672.116 1.087.29 1.339.173.25.407.332.619.332h.004c.25-.001.472-.104.569-.155l.29.946c-.125.051-.558.211-1.04.211m-3.849-.096c-.337 0-.665-.093-.907-.188l-.29-.131-.065-.036.023-.036c.117-.189.389-.691.473-.847l.236.162c.16.097.361.197.542.198.067 0 .133-.015.189-.052.057-.037.102-.096.131-.176v-.001.001l.029-.168c0-.185-.089-.385-.216-.599-.192-.321-.475-.675-.71-1.039-.235-.364-.419-.738-.419-1.088 0-.195.055-.384.191-.569l.001-.001-.001.001c.404-.549.804-.722 1.164-.723h.003c.538 0 1.002.401 1.231.599l-.602.749-.189-.221-.223-.188c-.081-.052-.168-.089-.257-.09h-.001l-.163.051-.134.162-.032.136c.002.154.1.319.239.506.209.281.518.61.774.974s.457.761.457 1.173c0 .178-.037.359-.123.544-.165.351-.378.574-.611.711-.233.136-.487.187-.737.187m6.903-.009c-.267 0-.5-.08-.701-.22-.302-.21-.534-.559-.689-.98-.155-.42-.234-.911-.234-1.4 0-.584.112-1.166.337-1.623.225-.458.558-.789 1.002-.887l-.009-.043.01.043c.136-.03.265-.044.388-.044.586 0 1.039.319 1.353.805.312.486.479 1.138.478 1.79 0 .54-.114 1.08-.349 1.522-.235.442-.591.788-1.076.949-.181.06-.35.088-.507.088m.099-4.181l-.204.037c-.115.04-.213.114-.295.212-.245.294-.353.797-.354 1.306 0 .402.069.809.202 1.119.067.155.149.287.25.382.1.095.221.152.356.152h.001l.114-.013-.01-.043.01.043c.132-.029.247-.1.342-.199.143-.148.245-.359.313-.6s.1-.514.1-.786c0-.396-.069-.792-.204-1.094-.068-.151-.152-.278-.255-.37-.103-.091-.226-.146-.364-.146h-.001m-10.701 4.099c-.252 0-.467-.063-.65-.174-.274-.167-.476-.444-.609-.789-.134-.345-.199-.756-.198-1.183 0-.666.157-1.372.448-1.93.145-.279.323-.521.531-.703.207-.182.443-.304.706-.347l.224-.018c.501 0 .884.288 1.149.736.264.448.403 1.055.403 1.675 0 .607-.133 1.226-.405 1.719-.273.494-.681.86-1.239.975-.127.026-.246.039-.358.039m.251-4.203c-.143.032-.267.119-.372.241-.313.366-.47 1.051-.471 1.684 0 .363.053.709.164.969.056.13.126.239.215.317.088.078.196.123.317.123h.001l.053-.003c.15-.016.281-.097.391-.218.166-.182.29-.456.375-.768.084-.312.128-.662.128-.994 0-.354-.049-.688-.157-.94-.054-.126-.122-.231-.209-.306-.086-.075-.191-.119-.31-.119h-.001l-.124.014m14.5 4.071c-.585 0-1.012-.281-1.301-.716-.288-.435-.431-1.025-.431-1.632 0-.63.155-1.279.455-1.787.301-.509.744-.877 1.325-.961l.213-.016c.265 0 .496.075.697.208.301.199.532.529.688.929.156.4.235.869.235 1.342 0 .626-.14 1.258-.423 1.744s-.704.825-1.275.88l-.183.009m.231-4.193h-.001l-.16.019c-.145.033-.272.116-.379.232-.322.349-.488.993-.489 1.592 0 .351.058.687.182.94.062.126.141.233.24.308.098.075.216.118.35.118h.001l.071-.004c.162-.017.305-.091.425-.202.181-.168.316-.42.407-.706.091-.287.137-.61.137-.921 0-.353-.06-.691-.186-.946-.063-.127-.144-.234-.244-.309-.1-.076-.219-.119-.354-.119m2.308 4.42l.096-1.337-.057-4.015.091-.014c.242-.035.772-.104 1.123-.104h.001l.155.006c.201.018.363.054.494.113.196.088.324.224.416.435.092.212.143.501.174.884l.008.187c0 .748-.379 1.206-.761 1.483-.191.138-.383.23-.526.287l-.173.061-.048.014-.016.004-.035.008.001.036.044-.001-.045.001.038 1.935-.979.018m.848-4.673l-.044.002.085 1.857.059-.025c.002 0 .148-.063.316-.172.168-.11.359-.265.446-.463.056-.128.079-.282.079-.437 0-.161-.024-.321-.065-.452l-.072-.17-.102-.105c-.08-.038-.198-.056-.319-.067l-.314-.012-.07.001-.046.001.002.045.044-.002.001.045-.001-.044" id="Shape" fill="#FFF101"/><path d="M36.38 30.557c-.386 0-.698-.143-.945-.382-.247-.239-.429-.577-.545-.965-.107-.355-.16-.753-.16-1.153 0-.656.141-1.321.409-1.826.134-.253.299-.465.493-.618.194-.153.416-.247.667-.263l.119-.003c.62.001 1.081.317 1.394.801.312.484.47 1.134.47 1.786 0 .462-.079.924-.236 1.329-.126.326-.302.614-.529.834-.227.221-.503.374-.83.433l-.308.029m-.015-1.02l-.005.044.058.003c.213 0 .392-.117.53-.3.262-.347.399-.934.399-1.494 0-.37-.06-.729-.191-1-.066-.135-.15-.249-.254-.33-.104-.081-.23-.127-.373-.127h-.002l-.037.001c-.152.008-.287.072-.4.174-.17.153-.295.39-.38.665-.084.275-.127.589-.127.897 0 .459.093.906.295 1.198.118.171.28.29.479.315h.001l.004-.044m4.477 1.245l-.492-1.452-.501-1.487-.012 2.87h-1.04l.053-1.423.105-2.918-.197-1.23 1.105-.181.818 2.372-.073-2.274 1.06-.083.01 4.767.112.848-.946.193" id="Shape" fill="#00A3DA"/><path d="M23.881 21.998l.026-2.056c.015.003.929.11.937 1.022.009.941-.963 1.035-.963 1.035zm-.025-4.24l.249.008c.292.028.722.138.605.549-.176.61-.787.517-.787.517l-.059-.949-.007-.125zm.953 1.681s.786-.398.76-1.274c-.014-.421-.229-.686-.532-.85-.775-.421-2.119-.183-2.119-.183l.03 1.194c.01.493.022 1.039.025 1.435.008.912-.051 3.147-.051 3.147s.618.177 1.151.039c.738-.19 1.437-.53 1.659-1.616.283-1.382-.924-1.892-.924-1.892h.001zm7.065 10.547l-.052-.811-.08-1.218c.015 0 .956-.043.955.961l-.026.271c-.141.695-.796.798-.796.798zm.559-3.669c-.101.627-.788.528-.788.528l-.067-1.039c.545-.062.927.054.855.511zm.134 1.104s.758-.448.678-1.32c-.139-1.489-2.71-.867-2.71-.867l.217 3.081.053.842c.049.872.095 1.841.095 1.841s.81.066 1.333-.104c.724-.235 1.281-.54 1.371-1.646l.003-.045c.111-1.597-1.041-1.784-1.041-1.784v.001z" fill="#0C0A09"/></g></svg>