<svg id="Layer_1" data-name="Layer 1" xmlns="http://www.w3.org/2000/svg" viewBox="0 0 70 40"><defs><style>.cls-1{fill:#e3232a;}.cls-2{fill:#fff;}</style></defs><rect class="cls-1" width="70" height="40" rx="3.70584"/><g id="_000000ff" data-name="#000000ff"><path class="cls-2" d="M18.69354,15.75756c.43721-.08889.88165-.13437,1.31783-.22635.001,1.27338-.0062,2.5478.00413,3.82118.43515-.47028.86822-.9447,1.27442-1.44186.08476-.08475.16021-.23255.307-.20155.47752-.00413.95607.0031,1.43463,0-.614.68011-1.21654,1.37261-1.87908,2.00724a11.186,11.186,0,0,1,1.937,2.64289c-.50026.0031-.99949-.001-1.49975.00207a8.896,8.896,0,0,0-1.57829-2.07959c-.0031.69251-.001,1.385,0,2.07752-.43928.00207-.87855.001-1.3168,0Q18.693,19.05835,18.69354,15.75756Z"/><path class="cls-2" d="M52.7876,15.75549c.43514-.08475.87648-.13023,1.31059-.22532q.00156,3.33333.001,6.6677a5.07968,5.07968,0,0,1-2.96951.07339A2.09059,2.09059,0,0,1,49.846,20.61544a3.05772,3.05772,0,0,1,.50956-2.37,2.09757,2.09757,0,0,1,2.432-.44238q.00309-1.0248,0-2.04755m-1.12972,3.06667a.91709.91709,0,0,0-.48579.74212,1.73361,1.73361,0,0,0,.34006,1.51525,1.51848,1.51848,0,0,0,1.26718.214c.01757-.79793.01137-1.59587.00413-2.3938A1.45391,1.45391,0,0,0,51.65788,18.82216Z"/><path class="cls-2" d="M63.96486,15.75756c.43721-.08785.88165-.1354,1.31783-.22635-.00414,1.65581.00207,3.31266-.0031,4.96847.0062.22946-.00414.51163.20361.66253a1.19263,1.19263,0,0,0,.5168.186q-.09458.55814-.17777,1.11835a2.06706,2.06706,0,0,1-1.54523-.50336,1.92214,1.92214,0,0,1-.31007-1.25995C63.96382,19.05472,63.96693,17.40614,63.96486,15.75756Z"/><path class="cls-2" d="M4,16.4356a7.99623,7.99623,0,0,1,3.22171-.02791,1.55128,1.55128,0,0,1,1.28475,1.31266,1.29,1.29,0,0,1-.71214,1.36228A1.64694,1.64694,0,0,1,8.33178,21.802a3.05268,3.05268,0,0,1-1.91834.65633,10.14,10.14,0,0,1-2.41137-.17055C4.0031,20.33637,4.00724,18.386,4,16.4356m1.3478.96331q-.00155.62014-.001,1.24031A4.25672,4.25672,0,0,0,6.87442,18.509a.54268.54268,0,0,0,.03824-.96744,4.08553,4.08553,0,0,0-1.56486-.14263m0,2.37726c0,.50956-.00516,1.01912.00414,1.52765a3.73508,3.73508,0,0,0,1.70956-.14988.6961.6961,0,0,0,.0155-1.2217A4.51984,4.51984,0,0,0,5.3478,19.77617Z"/><path class="cls-2" d="M31.40259,16.26609c.50852-.001,1.01808-.01861,1.52661.0093.48889,1.50491,1.00672,3.00362,1.58553,4.47649.585-1.4739,1.09767-2.97675,1.5938-4.48269.48992-.01447.97984-.00517,1.46977-.00724a62.5363,62.5363,0,0,1-2.43308,6.0982c-.44238-.001-.88372.00206-1.3261-.00207A62.885,62.885,0,0,1,31.40259,16.26609Z"/><path class="cls-2" d="M10.79587,17.66971a2.28059,2.28059,0,0,1,2.18811.60155,2.56887,2.56887,0,0,1,.62946,1.92248,2.42587,2.42587,0,0,1-.72972,1.71886A2.35376,2.35376,0,0,1,9.691,21.77307a2.78378,2.78378,0,0,1-.26874-3.107,2.14379,2.14379,0,0,1,1.37365-.99638m.20671,1.13488a1.11022,1.11022,0,0,0-.57984.97571,1.72081,1.72081,0,0,0,.29147,1.26615.8434.8434,0,0,0,1.3323-.08372,1.98055,1.98055,0,0,0,.11576-1.66A.87231.87231,0,0,0,11.00258,18.80459Z"/><path class="cls-2" d="M14.493,18.36738a2.23136,2.23136,0,0,1,2.337-.6708,1.83455,1.83455,0,0,1,1.27752,1.199,3.98286,3.98286,0,0,1,.14367,1.60413c-.99638.00207-1.99276-.00413-2.98914.0031a.93161.93161,0,0,0,.57881.70078,3.15709,3.15709,0,0,0,1.98966-.08579c.05788.35142.11473.70284.17261,1.05426a4.15634,4.15634,0,0,1-2.49509.17778,2.03605,2.03605,0,0,1-1.43462-1.36021,2.87124,2.87124,0,0,1,.41963-2.62222m.77933,1.2q.87442.00465,1.74987,0a.84179.84179,0,0,0-.90026-.83A.891.891,0,0,0,15.27235,19.56738Z"/><path class="cls-2" d="M23.48527,18.25265a2.21309,2.21309,0,0,1,3.1969.06409,3.08967,3.08967,0,0,1,.45788,2.18294c-.99638.00207-1.99276-.00413-2.99018.0031a.93719.93719,0,0,0,.57158.69768,3.18175,3.18175,0,0,0,2-.08062c.05581.34522.10749.69147.17261,1.03565a4.13812,4.13812,0,0,1-1.88424.30181,2.19245,2.19245,0,0,1-1.99173-1.31266,2.83337,2.83337,0,0,1,.46718-2.892m.676,1.31576q.87443.0031,1.7509-.001a.84322.84322,0,0,0-.90335-.83A.89246.89246,0,0,0,24.16124,19.56841Z"/><path class="cls-2" d="M27.68062,17.89916a6.20354,6.20354,0,0,1,1.66408-.29457,2.49482,2.49482,0,0,1,1.754.42894,2.0164,2.0164,0,0,1,.57674,1.537c.00207.93023,0,1.85943,0,2.78967H30.37416c-.0062-.89716.01137-1.79329-.00827-2.68941-.0155-.32765-.07649-.75659-.43617-.87959a1.60618,1.60618,0,0,0-.93127.02068c.01034,1.18242,0,2.36485.00517,3.54728-.43928.00207-.87855.001-1.3168,0C27.68165,20.87281,27.69509,19.38547,27.68062,17.89916Z"/><path class="cls-2" d="M38.81034,17.66867a2.27476,2.27476,0,0,1,2.23359.65633,2.68321,2.68321,0,0,1,.5602,2.1075,2.315,2.315,0,0,1-.76589,1.52868,2.34961,2.34961,0,0,1-3.18863-.24806,2.79835,2.79835,0,0,1-.21809-3.045,2.14621,2.14621,0,0,1,1.37882-.99949m.19948,1.137a1.10693,1.10693,0,0,0-.57571.96641,1.72472,1.72472,0,0,0,.2894,1.27339.84322.84322,0,0,0,1.33334-.08269,1.978,1.978,0,0,0,.11576-1.65891A.87136.87136,0,0,0,39.00982,18.80562Z"/><path class="cls-2" d="M43.56279,17.66867a2.28536,2.28536,0,0,1,2.18708.60362,2.60428,2.60428,0,0,1,.62326,2.01137,2.25229,2.25229,0,0,1-3.92248,1.48424,2.78772,2.78772,0,0,1-.26253-3.10388,2.15147,2.15147,0,0,1,1.37467-.99535m.20362,1.13592a1.10712,1.10712,0,0,0-.57778.96951,1.6526,1.6526,0,0,0,.34419,1.33127.8457.8457,0,0,0,1.31679-.20569,1.92484,1.92484,0,0,0-.031-1.79948A.86793.86793,0,0,0,43.76641,18.80459Z"/><path class="cls-2" d="M46.91473,17.94051a5.11254,5.11254,0,0,1,2.99742-.18295c-.04651.37726-.13644.74626-.20569,1.11938a2.98383,2.98383,0,0,0-1.4801-.06925c.0031,1.18346-.001,2.36693.00206,3.55142-.43927.00207-.87855.001-1.31679,0C46.9137,20.88624,46.90646,19.41338,46.91473,17.94051Z"/><path class="cls-2" d="M55.12042,18.35911a2.22811,2.22811,0,0,1,3.14-.20568,2.86408,2.86408,0,0,1,.61292,2.34418c-.99741.00724-1.99483-.0031-2.99121.00517a.94819.94819,0,0,0,.66563.73385,3.29665,3.29665,0,0,0,1.90181-.11989c.06.34728.11163.69664.17468,1.04289a4.20916,4.20916,0,0,1-2.06409.2801,2.14012,2.14012,0,0,1-1.80878-1.292,2.87285,2.87285,0,0,1,.369-2.78863m.77209,1.2093q.87442.0031,1.74987,0a.843.843,0,0,0-.90853-.831A.89323.89323,0,0,0,55.89251,19.56841Z"/><path class="cls-2" d="M59.723,18.41906a2.225,2.225,0,0,1,2.37933-.72145,1.83393,1.83393,0,0,1,1.27752,1.2,4.00842,4.00842,0,0,1,.14367,1.60207c-.99742.00207-1.9938-.00413-2.99019.0031a.94386.94386,0,0,0,.66564.73282,3.26384,3.26384,0,0,0,1.89974-.1199c.062.34729.11266.69664.17674,1.0429a4.168,4.168,0,0,1-2.063.2801,2.14113,2.14113,0,0,1-1.80982-1.28889,2.89929,2.89929,0,0,1,.32042-2.73075m.82067,1.14935q.87443.0031,1.74884,0a.84008.84008,0,0,0-.89716-.831A.89222.89222,0,0,0,60.54367,19.56841Z"/></g></svg>