<svg id="Layer_1" data-name="Layer 1" xmlns="http://www.w3.org/2000/svg" viewBox="0 0 70 40"><defs><style>.cls-1{fill:#ffdc00;}.cls-2{fill:#bf006f;}.cls-3{fill:#019bdd;}.cls-4{fill:#6ba339;}</style></defs><rect class="cls-1" width="70" height="40" rx="3.70584"/><g id="_c0006fff" data-name="#c0006fff"><path class="cls-2" d="M27.94938,8.08066a6.13959,6.13959,0,0,1,3.65675.50823,5.4783,5.4783,0,0,1,2.65,2.76527,6.553,6.553,0,0,1,.3575,3.82874A5.70941,5.70941,0,0,1,32.91179,18.314a6.22034,6.22034,0,0,1-6.01686,1.23545A5.53523,5.53523,0,0,1,23.881,17.21192a6.2692,6.2692,0,0,1,.65251-7.34443,5.71848,5.71848,0,0,1,3.41585-1.78683m.125.70018a3.38766,3.38766,0,0,0-2.26478,2.1804,8.00449,8.00449,0,0,0-.28471,4.364,5.395,5.395,0,0,0,1.62837,3.06415,2.97689,2.97689,0,0,0,2.88766.59068,3.05107,3.05107,0,0,0,1.60776-1.41839,6.51527,6.51527,0,0,0,.72852-3.02486,8.86712,8.86712,0,0,0-.4831-3.26577,4.26978,4.26978,0,0,0-1.39648-1.96268A2.99673,2.99673,0,0,0,28.07434,8.78084Z"/><path class="cls-2" d="M12.0051,8.24234c1.67539.00193,3.35079-.00258,5.02618.00193a4.86816,4.86816,0,0,1,2.65191.60871,2.44649,2.44649,0,0,1,.45154,3.49379,3.92867,3.92867,0,0,1-2.10633,1.11242,6.82749,6.82749,0,0,1,1.94851.572,2.37272,2.37272,0,0,1,1.27668,1.52725,2.885,2.885,0,0,1-.38133,2.2403,3.61691,3.61691,0,0,1-1.76493,1.32434,8.70561,8.70561,0,0,1-3.173.45219q-2.029.001-4.058.00064c-.00129-.19582-.00129-.39035.00193-.58552a2.73817,2.73817,0,0,0,1.18392-.24348c.32787-.237.32593-.68472.344-1.04994q-.001-3.83389-.00193-7.66779a1.342,1.342,0,0,0-.275-.93206,2.34389,2.34389,0,0,0-1.124-.28278q-.001-.286,0-.572m3.53759.954a1.339,1.339,0,0,0-.11015.64155c.00258,1.13626.00064,2.27316.00064,3.40941a5.57673,5.57673,0,0,0,1.79907-.17392,1.75091,1.75091,0,0,0,.91532-.63833,2.36227,2.36227,0,0,0,.34719-1.44351,2.20843,2.20843,0,0,0-.58037-1.52467,2.12484,2.12484,0,0,0-1.79456-.52368.83032.83032,0,0,0-.57714.25315m-.10951,4.726c.00322,1.23351-.00515,2.46768.00387,3.7012.01932.44445.13656,1.001.61,1.16975a2.352,2.352,0,0,0,2.6094-.885,2.97976,2.97976,0,0,0,.33366-2.15656A2.02425,2.02425,0,0,0,18.02,14.3758,4.88755,4.88755,0,0,0,15.43318,13.92233Z"/><path class="cls-2" d="M36.04938,8.24234q4.03,0,8.06006-.00064c.06441.86507.11917,1.73079.18036,2.59651-.20161.02834-.40323.058-.60484.08567a3.13654,3.13654,0,0,0-.82707-1.67154A2.59147,2.59147,0,0,0,41.444,8.9612c-.5488.01223-1.10018-.02-1.6477.01481-.20548.01224-.26667.23253-.2583.40452q.00193,1.98362.00129,3.96658c.64542-.00451,1.29085.00773,1.93627-.00579a1.30824,1.30824,0,0,0,.99905-.34462,2.45975,2.45975,0,0,0,.324-.97264q.29469,0,.59.00064v3.45837q-.29565,0-.59067.00064a2.10753,2.10753,0,0,0-.37682-1.0274,1.39275,1.39275,0,0,0-.95138-.28406c-.6435-.01675-1.28763-.00258-1.93112-.00773q.001,1.70148,0,3.403a1.84356,1.84356,0,0,0,.20354.92433.93505.93505,0,0,0,.668.32207,10.43,10.43,0,0,0,1.54722.05411,2.94878,2.94878,0,0,0,1.29149-.26474,1.79,1.79,0,0,0,.5926-.57006,7.36449,7.36449,0,0,0,.735-1.40937c.19517.03478.391.07021.58681.105-.16039.95719-.35879,1.90922-.61129,2.84644q-4.36434,0-8.72932,0-.001-.2802-.00064-.55911a3.0652,3.0652,0,0,0,1.35655-.30726,1.33606,1.33606,0,0,0,.31691-1.01322q.00483-3.77109.00064-7.54218a1.58348,1.58348,0,0,0-.275-1.05509,2.28227,2.28227,0,0,0-1.17168-.28407Z"/><path class="cls-2" d="M46.72334,8.243q2.46285,0,4.92635.00064c-.00129.19-.00129.38-.00193.5707a2.72792,2.72792,0,0,0-1.06154.23833c-.31756.21643-.32335.64092-.35041.98553-.009,1.16846-.00451,2.33757-.00193,3.506a3.23307,3.23307,0,0,0,1.06476-.6815,27.49034,27.49034,0,0,0,2.7292-3.00038,1.92446,1.92446,0,0,0,.38-.61128c.02447-.14751-.11337-.248-.2364-.28858a5.144,5.144,0,0,0-.77812-.14621l-.00193-.57264q2.20488-.00289,4.41039-.00129.001.286,0,.57264a4.77148,4.77148,0,0,0-1.55107.36651,5.01713,5.01713,0,0,0-1.2361.89213c-.93786.88439-1.82741,1.8171-2.726,2.74079,1.15622,1.62516,2.39554,3.1904,3.6632,4.72989a4.84072,4.84072,0,0,0,1.296,1.2187,2.49222,2.49222,0,0,0,.82707.25315c0,.18615-.00065.37295-.00065.55911q-1.61548.001-3.23033.00064c-1.229-1.55494-2.4168-3.14145-3.59041-4.7389-.25444-.34655-.53657-.782-1.02032-.78391-.0045,1.04092-.00064,2.08184-.00193,3.12341a4.00464,4.00464,0,0,0,.10693,1.2303.66064.66064,0,0,0,.40129.42512,3.97864,3.97864,0,0,0,1.02289.181v.56233q-2.488.001-4.97465,0-.001-.28213.00064-.56362a2.25984,2.25984,0,0,0,1.14914-.30081,1.47812,1.47812,0,0,0,.28664-1.01967q-.001-3.80007-.00129-7.60015c-.02512-.35492-.02577-.79422-.34848-1.02224a2.821,2.821,0,0,0-1.15107-.25508Q46.72238,8.52769,46.72334,8.243Z"/></g><g id="_019cdeff" data-name="#019cdeff"><path class="cls-3" d="M41.89941,22.33924a4.99206,4.99206,0,0,1,3.04612.54236,4.506,4.506,0,0,1,2.02065,2.29506,5.5138,5.5138,0,0,1,.16168,3.33211,4.56328,4.56328,0,0,1-2.18362,2.86253,5.11093,5.11093,0,0,1-5.44359-.33108,4.61277,4.61277,0,0,1-1.71533-2.77687,5.1995,5.1995,0,0,1,.65251-3.76754,4.65516,4.65516,0,0,1,3.46158-2.15657m-.10564.61386a2.48672,2.48672,0,0,0-1.35332.95654,5.03331,5.03331,0,0,0-.82127,2.92567,5.976,5.976,0,0,0,.86764,3.28122,2.768,2.768,0,0,0,1.85254,1.26379,2.22393,2.22393,0,0,0,1.8725-.55073A3.70724,3.70724,0,0,0,45.256,28.73615a7.92409,7.92409,0,0,0-.087-3.10731,3.90208,3.90208,0,0,0-1.30888-2.23322A2.44468,2.44468,0,0,0,41.79377,22.9531Z"/><path class="cls-3" d="M54.6636,22.49126q1.7295.001,3.46029,0,0,.23767.00065.47666a1.5081,1.5081,0,0,0-.905.25894,1.0291,1.0291,0,0,0-.266.68536A40.24309,40.24309,0,0,0,56.853,27.9999v3.92794c-.20483-.00065-.40838-.00065-.61257.00064q-3.00778-3.62518-6.00592-7.2594c-.00257,1.10984-.00064,2.21969-.00064,3.32953a22.00829,22.00829,0,0,0,.0934,2.31309.998.998,0,0,0,.306.72852,2.01636,2.01636,0,0,0,1.0654.27054q.001.23478.00258.46957c-1.14978.00258-2.29956.00065-3.4487.00129,0-.15653-.00065-.31305.00064-.46893a1.731,1.731,0,0,0,.88891-.2525.80422.80422,0,0,0,.28922-.5443,34.66307,34.66307,0,0,0,.14364-4.45033c-.01031-.62416.02319-1.249-.02126-1.87185a1.23777,1.23777,0,0,0-.90565-1.12788,3.39284,3.39284,0,0,0-.58939-.0992c.00065-.15846,0-.31692.00065-.47537q1.228.001,2.45609.00064c1.88474,2.20294,3.763,4.41233,5.6555,6.60883-.0103-1.73595.06377-3.47576-.09017-5.20783a.85785.85785,0,0,0-.33495-.67892,2.33168,2.33168,0,0,0-1.08409-.24606Q54.6636,22.72927,54.6636,22.49126Z"/><path class="cls-3" d="M28.60575,22.4919q1.61935-.001,3.23871,0a10.15933,10.15933,0,0,1,2.1804.13334,2.19231,2.19231,0,0,1,1.28183.74655,2.1031,2.1031,0,0,1,.33882,1.79134,2.033,2.033,0,0,1-1.08666,1.25027,4.83975,4.83975,0,0,1-1.00356.35427,3.91877,3.91877,0,0,1,2.172.887,2.20439,2.20439,0,0,1-.00129,2.87541,3.77086,3.77086,0,0,1-2.3717,1.1543,9.19884,9.19884,0,0,1-1.44544.0979q-1.69956-.00192-3.39846-.00064c.00064-.16168.00129-.32271.00322-.48375a1.7875,1.7875,0,0,0,1.06025-.28341,1.89925,1.89925,0,0,0,.19259-1.08022c-.00258-1.953.00129-3.906-.00193-5.859-.02255-.30532.00386-.68086-.25572-.896a2.05225,2.05225,0,0,0-.90308-.21192q.001-.23865,0-.47537m3.10216.64864c-.23.06635-.27763.33174-.28214.5385-.00322.97329,0,1.94722-.00064,2.92116a3.33349,3.33349,0,0,0,1.92854-.38133,1.67566,1.67566,0,0,0,.57264-1.49826,1.67476,1.67476,0,0,0-.73045-1.42418,1.85642,1.85642,0,0,0-1.488-.15589m-.28278,4.00331q-.001,1.457-.00065,2.91406a1.38983,1.38983,0,0,0,.27054.92563,1.05688,1.05688,0,0,0,.79165.22158,1.82774,1.82774,0,0,0,1.54849-.75879,2.41632,2.41632,0,0,0,.28471-1.85769,1.65216,1.65216,0,0,0-.85863-1.11178A4.21766,4.21766,0,0,0,31.42513,27.14385Z"/></g><g id="_6ba439ff" data-name="#6ba439ff"><path class="cls-4" d="M19.44743,22.41525c.20613-.02706.3021.16876.42.29759q2.61068,3.08991,5.22458,6.17726c.239.28084.44317.58809.66861.87989a23.95578,23.95578,0,0,1-.06763-2.545q.001-2.35851.00129-4.71636c.30983-.00193.621-.00193.93142,0q.001,4.68511-.00065,9.37152c-.0438,0-.132-.00064-.17585-.00064q-2.315-2.7276-4.62167-5.461c-.51079-.61708-1.05316-1.20969-1.51693-1.86413.02.333.07149.66411.06827.99777-.00257,2.07733.00194,4.154-.00193,6.23072q-.4657-.00194-.93077,0Q19.44422,27.09875,19.44743,22.41525Z"/><path class="cls-4" d="M11.89237,22.50929q2.82518-.00483,5.65036-.00128.0029.45024,0,.90114-2.32662-.00193-4.65324,0-.001,1.64157,0,3.28444,2.06961.00194,4.13857.00065.00193.43479-.00064.86894-2.06865.00193-4.13728.00064c-.00258,1.11114-.00065,2.22162-.00065,3.33276,1.61034.00257,3.22068-.00193,4.831.00193q0,.44155-.00065.88375-2.91407-.001-5.82684,0Q11.892,27.14546,11.89237,22.50929Z"/></g></svg>