<svg width="70" height="40" viewBox="0 0 70 40" xmlns="http://www.w3.org/2000/svg"><title>brouwmarkt</title><desc>Created with Sketch.</desc><g fill-rule="nonzero" fill="none"><path fill="#265D38" d="M1 17.618h13.172v14.123h-13.172z"/><path fill="#265D38" d="M55.776 17.618h13.172v14.123h-13.172z"/><path fill="#265D38" d="M42.146 17.618h13.172v14.123h-13.172z"/><path fill="#265D38" d="M14.727 17.618h13.172v14.123h-13.172z"/><path fill="#265D38" d="M28.406 17.618h13.172v14.123h-13.172z"/><path d="M39.408 22.692c-.06-.337-.186-.66-.37-.95-.197.083-.383.19-.553.32.132.324.201.669.203 1.019.22-.162.462-.293.719-.388zM35.911 22.334c.266.146.505.334.707.559.058-.325.173-.637.34-.923-.155-.179-.335-.336-.534-.466-.221.244-.395.525-.513.83zM37.019 24.849c.143-.171.31-.322.495-.448.176.172.327.367.449.579.354-.447.566-.988.607-1.553.068-.796-.218-1.581-.783-2.154-.651.475-1.059 1.206-1.117 2.001-.039.547.083 1.093.349 1.574zM35.216 24.282c.587.134 1.112.454 1.497.911l.219-.299c-.274-.496-.395-1.059-.349-1.622l.027-.221c-.36-.404-.837-.69-1.366-.821-.275.656-.285 1.39-.027 2.052zM39.824 24.712c.377-.61.5-1.34.346-2.037-.534.034-1.046.225-1.469.547v.215c-.046.58-.268 1.132-.638 1.586l.152.299c.455-.369 1.02-.582 1.609-.609zM38.358 27.015c.418-.287.909-.454 1.418-.481.348-.492.526-1.082.507-1.682h-.097c-.713-.059-1.42.162-1.967.615.155.397.217.822.182 1.246l-.042.302zM34.964 26.107c.513.143.973.429 1.324.824v-.4c.033-.43.166-.847.389-1.219-.454-.544-1.109-.89-1.821-.962h-.094c-.129.592-.057 1.208.203 1.756zM40.152 26.683h.082c.032.791-.282 1.557-.862 2.104-.581.547-1.372.823-2.173.757h-.039c-.015-.809.316-1.587.911-2.145.558-.525 1.319-.788 2.089-.723l-.006.006zM34.493 26.16c.77.078 1.469.476 1.922 1.093.482.656.663 1.48.501 2.273h-.039c-.794-.084-1.515-.493-1.988-1.126-.481-.645-.656-1.462-.48-2.243l.085.003zM36.506 27.173c.321.433.514.945.559 1.479l.079.09c.13-.548.42-1.046.835-1.434l.261-.215.052-.361c.071-.796-.215-1.583-.783-2.154-.651.474-1.059 1.206-1.114 2.001-.011.15-.011.301 0 .451l.112.143zM52.896 23.956c.268.65.401 1.347.392 2.049.018.809-.164 1.609-.531 2.333v.015c-.085.23-.553.466-1.245.633-.897.198-1.813.292-2.732.281-.285 0-.568 0-.847-.024-.129-.735-.196-1.479-.2-2.225.001-.715.066-1.429.194-2.133.279.018.565.024.853.024 1.803.003 3.719-.329 4.116-.953zM52.765 20.186c-.004.117-.04.23-.103.329-.166.218-.362.412-.583.576-.076.048-.139.112-.185.188l-.191-.137-.219-.099c.043-.078.068-.165.073-.254.03-.274.099-.543.206-.798.054-.101.134-.188.231-.251.158-.077.347-.059.486.048.161.072.27.224.285.397zM52.759 23.678v.036c0 .466-1.639.989-3.989.989-.243 0-.486 0-.726-.018l.804-.896v-.078h-.07l-2.869.765c-.683-.188-1.093-.433-1.093-.663v-.08399999999999999c.188-.442 1.764-.896 3.968-.896.48 0 .947.024 1.39.066-.15.397-.245.812-.282 1.234l.026.082.08.035h.656l.067-.024c.338-.279.623-.614.841-.992l.049-.093c.735.191 1.066.421 1.144.597v.042l.003-.102zM51.879 21.59v.051l-.152.155-.058-.096-.191-.149c-.104-.073-.231-.106-.358-.093 0-.075.018-.148.052-.215v-.021c.027-.021.188-.024.407.105.125.055.23.147.301.263zM51.362 22.322s.279.218 0 .699c-.198.34-.456.644-.762.896h-.501c.041-.405.143-.802.304-1.177.094-.274.287-.504.543-.645l.067-.066.146.063.152.125.039.102.012.003zM48.457 23.908l-.701.783-.024.048c-.147.752-.22 1.516-.219 2.282.002.486.03.972.085 1.455l-1.657.454c-.207-.59-.323-1.207-.346-1.831l.082.051c.048-.008.083-.049.083-.097s-.035-.089-.083-.097l-.085.057v-.32c-.018-.722.107-1.44.367-2.115l2.498-.669zm-.968 1.604c0-.074-.061-.134-.137-.134-.075 0-.137.06-.137.134l.037.097.097.041.102-.038.041-.099h-.003zm-.243 2.688c.069.001.132-.039.159-.101.027-.062.013-.135-.035-.183-.048-.048-.122-.063-.186-.038-.064.026-.106.087-.106.155l.045.12.118.053.003-.006zm.036-3.426l-.045-.118-.116-.052c-.093 0-.168.073-.17.164-.002.091.071.167.164.17.091.002.167-.069.17-.158l-.003-.006zm-.267 1.278c0-.13-.107-.235-.239-.236-.132-.001-.24.104-.241.234-.001.13.105.236.237.238.132.002.241-.1.246-.23l-.003-.006zm-.237 1.494l-.026-.065-.065-.027c-.051.002-.091.043-.091.093 0 .049.041.09.091.09.047.004.088-.029.094-.075l-.003-.015zm-.058-2.228l-.054-.085-.1.017-.021.098.084.056c.046.004.086-.027.094-.072l-.003-.015zm-.064 2.957c-.002-.074-.064-.133-.139-.131-.075.001-.135.062-.135.135.001.074.062.133.137.133.072 0 .132-.052.14-.122l-.003-.015zm-.455-1.954l-.026-.067-.068-.028-.092.057.019.105.106.022.061-.089zm0 1.383c-.002-.13-.11-.234-.242-.233-.132.001-.238.107-.238.237.001.13.108.235.24.235.131.003.241-.096.249-.224l-.009-.015zM45.725 24.556c-.254.684-.376 1.408-.358 2.136-.009.747.102 1.492.331 2.204-.507-.158-.832-.349-.911-.538v-.015c-.367-.724-.549-1.524-.531-2.333-.01-.702.123-1.399.392-2.049.182.272.65.466 1.078.594zM66.244 21.689v-.09c-.036-.699-.182-1.84-.422-2.354-.034-.08-.116-.13-.203-.125h-6.017c-.088-.004-.169.046-.203.125-.252.514-.398 1.703-.422 2.39v.251c-.024 1.919 1.468 3.528 3.412 3.68v3.369h-1.308c-.126.002-.228.103-.228.227 0 .125.101.227.228.23h3.06c.127-.003.228-.105.228-.23 0-.124-.101-.225-.228-.227h-1.308v-3.372c1.944-.152 3.436-1.761 3.412-3.68v-.194zm-.786-2.124c.169.608.271 1.232.304 1.861h-6.329c.036-.63.143-1.254.319-1.861h5.707zM7.487 28.78v.167h-1.548v-2.169l-.34-.585v3.363h.097v.158h-.176v.111h.486v-.111h-.179v-.158h.112v-.385h3.33v.385h.112v.158h-.176v.111h.471v-.111h-.176v-.158h.1v-3.363l-.331.585v2.169h-1.557v-.167zM5.429 22.146v2.658l2.101 3.623h.143l2.095-3.629v-2.652c-1.442-.155-2.896-.155-4.338 0zM10.144 20.413v4.481l-2.256 3.901h-.577l-2.265-3.895v-4.481s.243-.167.243-.203c0-.176.173-.335.464-.457l.222-.081c.417-.122.849-.189 1.284-.197h.669c.435.013.866.079 1.284.197l.222.081c.304.122.464.281.464.457.006.03.246.197.246.197zm-.219 4.421v-4.31c-.188-.134-.243-.212-.243-.314 0-.102-.085-.14-.249-.218l-.216-.087c-.416-.128-.848-.197-1.284-.206h-.6809999999999999c-.436.011-.868.08-1.284.206l-.216.087c-.164.078-.249.152-.249.212 0 .111-.046.176-.24.323v4.322l2.171 3.731h.343l2.146-3.746zM20.292 19.201c-.875.018-1.592.688-1.654 1.547-.338.265-.536.668-.537 1.093v7.701c.005.117.099.212.219.218h5.261c.121-.005.217-.102.219-.221v-1.329c.506-.1.961-.371 1.284-.768.565-1.159.467-2.509.446-3.683-.167-.389-.568-.629-.996-.597-.249.001-.497.039-.735.114v-1.434c-.013-.479-.334-.897-.798-1.039-.004-.657-.529-1.196-1.196-1.228-.128.002-.255.024-.376.066-.317-.268-.717-.423-1.135-.439zm0 .439c.347.002.678.147.911.4.067.067.168.086.255.048.105-.048.219-.072.334-.072.199-.006.391.067.535.201.144.135.228.32.233.515l-.021.158c-.024.118.047.234.164.269.272.034.504.21.607.46h-4.742c.055-.234.195-.439.395-.576.064-.041.102-.11.103-.185.02-.656.548-1.186 1.214-1.219h.012zm3.066 2.419v.881h-4.821v-.875l4.821-.006zm-4.821 1.32h4.821v5.063h-4.821v-5.063zm5.996.221c.231 0 .489.06.571.269 0 1.108.067 2.593-.407 3.354-.229.28-.552.47-.911.538v-4.018c.235-.089.483-.137.735-.143h.012zm-5.996 5.281h4.821v.433h-4.821v-.439.006z" id="Shape" fill="#fff"/><path fill="#fff" d="M19.078 23.317h4.047v4.899h-4.362v-4.899h.316"/><path fill="#265D38" d="M18.537 22.851h4.821v1h-4.821z"/><path d="M31.202 20.691s-.911-.096-.024-1.765c0 0 1.609 1.592.024 1.765zM32.429 29.739l-.115-.032-.058-.103-.984-8.591c-.009-.084.051-.161.137-.173l.114.034.056.104.987 8.606c.001.078-.058.145-.137.155zM31.913 21.904s-.543-.759 1.299-1.195c0 .003-.121 2.27-1.299 1.195zM32.064 23.353s-.54-.759 1.299-1.195c.012.006-.106 2.27-1.299 1.195zM32.259 24.945s-.54-.759 1.299-1.195c0 .006-.118 2.27-1.299 1.195zM31.172 21.916s.355-.863-1.518-.863c-.018 0 .613 2.181 1.518.863zM31.339 23.365s.355-.863-1.536-.863c0 0 .628 2.181 1.536.863zM31.521 24.957s.355-.863-1.536-.86c0 0 .631 2.178 1.536.86zM32.453 26.522s-.543-.762 1.296-1.195c0 .003-.118 2.27-1.296 1.195zM31.712 26.534s.355-.863-1.533-.863c0 0 .628 2.181 1.533.863z" id="Shape" fill="#fff"/><path d="M42.501 9.119l-.44 1.861h.628l-1.569 5.43h2.004l.258-1.034h2.556l.27 1.034h2.067l-2.164-7.285-3.609-.006zm1.26 4.725l.862-3.584.911 3.584h-1.773zM35.747 10.992l-1.524-1.861-2.092.006-.507 1.861h.58l.009 5.427 1.885-.003-.009-4.845 1.67 2.166 1.697-2.288.009 4.961 1.891-.003-.012-7.288-2.061.003zM17.581 9.161l-.44 1.861h.625l-1.569 5.418h2.004l.258-1.034h2.556l.27 1.034h2.067l-2.164-7.285-3.606.006zm1.26 4.725l.862-3.584.911 3.584h-1.773zM28.218 13.364v.284c.019.286-.071.57-.252.795-.191.203-.463.312-.744.299-.265.017-.523-.084-.704-.275-.18-.209-.272-.479-.255-.753v-4.573h-1.955l-.489 1.861h.537v2.419c-.014.443.035.885.146 1.314.104.327.271.631.492.896.17.203.375.374.607.505.231.14.485.241.75.299.299.065.605.096.911.093 1.129 0 1.939-.375 2.429-1.126.177-.255.302-.541.37-.842.069-.385.1-.777.091-1.168v-4.263h-1.909l-.024 4.236zM14.384 13.454c.368-.461.561-1.033.546-1.619.002-.457-.108-.908-.322-1.314-.202-.385-.508-.709-.883-.935-.174-.108-.36-.194-.556-.257-.215-.062-.436-.105-.659-.128-.246-.024-.54-.036-.88-.036h-2.459l-.504 1.864h.58v5.43h1.885v-2.151h.467l1.047 2.148h2.259l-1.387-2.148c.312-.26.602-.546.865-.854zm-1.606-.896c-.239.184-.538.275-.841.257h-.801v-1.927h.801c.307-.017.61.073.856.254.392.392.392 1.021 0 1.413l-.015.003zM62.765 9.084l-2.082.006-1.749 3.256-.006-3.253-1.955.003-.507 1.861h.583l.009 5.427 1.885-.003-.006-3.265 1.876 3.262 2.259-.003-2.292-3.737zM67.236 9.078l-2.671.006-.507 1.861 1.29-.003.012 5.43 1.891-.003-.009-5.43 1.245-.003.455-1.861-1.706.003zM54.75 13.391c.369-.46.561-1.033.543-1.619.004-.457-.106-.909-.322-1.314-.202-.384-.506-.707-.88-.935-.174-.108-.36-.194-.556-.257-.215-.063-.436-.105-.659-.125-.293-.028-.586-.041-.88-.039h-2.459l-.507 1.861h.583v5.427h1.885v-2.148h.471l1.047 2.148h2.256l-1.384-2.148c.311-.259.6-.544.862-.851zm-1.606-.896c-.239.185-.538.277-.841.26h-.811v-1.924h.804c.306-.016.608.075.853.257.39.391.39 1.018 0 1.41l-.006-.003zM5.918 12.65c.81-.319 1.214-.873 1.214-1.664.003-.312-.072-.62-.219-.896-.134-.25-.337-.457-.586-.597-.209-.111-.434-.191-.668-.236-.314-.049-.632-.07-.95-.063h-3.036l-.519 1.87h.58v5.43h2.838c.4.009.801-.026 1.193-.105.283-.051.555-.152.801-.299.526-.348.825-.945.786-1.568.006-.953-.486-1.568-1.436-1.873zm-2.298-1.885h.683c.71 0 1.066.248 1.066.747s-.352.759-1.063.759h-.683l-.003-1.505zm1.694 3.674c-.089.135-.218.24-.37.299-.232.07-.474.099-.716.087h-.607v-1.67h.841c.261-.009.516.074.719.236.174.15.27.37.261.597.002.158-.042.314-.128.448v.003z" stroke="#265D38" stroke-width=".5" fill="#265D38"/></g></svg>