<?xml version="1.0" encoding="UTF-8"?>
<svg id="Capa_1" data-name="Capa 1" xmlns="http://www.w3.org/2000/svg" viewBox="0 0 70 40">
  <defs>
    <style>
      .cls-1 {
        fill: #55b274;
      }

      .cls-1, .cls-2, .cls-3, .cls-4, .cls-5, .cls-6, .cls-7 {
        stroke-width: 0px;
      }

      .cls-2 {
        fill: #038ad1;
      }

      .cls-3 {
        fill: #0c0603;
      }

      .cls-4 {
        fill: #fdd494;
      }

      .cls-5 {
        fill: #ffd790;
      }

      .cls-6 {
        fill: #e72a73;
      }

      .cls-7 {
        fill: #fff;
      }
    </style>
  </defs>
  <rect class="cls-3" width="70" height="40" rx="3.70584" ry="3.70584"/>
  <g>
    <path class="cls-4" d="M42.799,13.03265c-.63659-2.11874-.77112-2.56042-1.39132-2.69325-.44298-.09632-2.47746-.01992-6.53657,1.0162.87942-.7472,1.99182-1.97594,1.94916-3.05191-.01969-.49481-.26908-.89997-.71863-1.16896-.67597-.40184-1.56196-.35866-2.2609.1096-1.15835.77708-1.68665,2.17519-1.60133,4.49649-1.12552-.98299-3.49143-2.61355-5.02056-2.6368-.50207-.00995-.8991.14612-1.18459.45496-.44957.48818-.59395,1.05937-.40691,1.60733.31502.92985,1.5915,1.69698,3.25189,1.95602.01969.0033.03938.00663.05906.00663-1.40772.47489-2.9467,1.02617-4.62352,1.66377-.44627.16937-.73175.60773-.73175,1.06934,0,.10625.0164.21252.04594.31547.0689.23579.1575.53798.25922.89332.16736-.02988.338-.04648.51518-.04648s.34783.0166.5119.04648c-.1411-.47821-.25594-.8767-.34126-1.17227-.01969-.07307.01969-.14944.08858-.17602,2.28716-.87007,4.31507-1.5741,6.09687-2.14199-1.87041,2.01249-2.30682,3.49359-2.33308,3.57994-.02297.08635-.02297.17269,0,.25239.31174-.15277.6694-.24907,1.06317-.27232.25268-.58781.99428-1.98922,2.80232-3.68952.0558.14944.11158.31879.16407.50146.15095.99295.36752,2.11209.66285,3.36075.38066.08633.75144.20922,1.1124.36862l-.12798-.48486v-.00995c-.06563-.51474-.2986-2.14199-.67925-3.43715-.01969-.14612-.03938-.28559-.05906-.42506,1.39132.10295,2.88435.37194,4.32818,1.08925.24282.12287.53816.01992.65957-.22582.11813-.24907.0164-.54794-.22642-.6675-1.18787-.59111-2.38559-.89995-3.53409-1.066,4.02302-1.06269,6.11327-1.20549,6.5858-1.14239.12798.176.34783.91325.67597,2.00914.30845,1.02617.73175,2.4309,1.38477,4.45002.04266.1428.0853.28559.12796.42506.22642-.30884.49878-.56456.80067-.75385-.64643-2.00249-1.06317-3.39395-1.36834-4.41015ZM31.20905,12.25223c-.84661-.00995-1.57836-.01992-2.17886-.1129-1.40772-.22249-2.31011-.82027-2.47418-1.29848-.02626-.07637-.09515-.28227.19688-.60108.03283-.0332.13126-.13947.43315-.13947h.01969c1.10912.0166,3.02219,1.26859,4.10505,2.15194h-.10172ZM33.79481,10.94049c-.20016.1428-.39049.28559-.57425.42506-.00657-1.70362.37737-2.76299,1.1649-3.291.21658-.14612.45941-.21919.69566-.21919.18704,0,.36425.0465.51847.13949.20016.11955.23299.24242.23627.34869.02624.60773-.88927,1.77335-2.04105,2.59695ZM39.40275,29.98253c-.39706.1262-.8138.24907-1.24367.37859-.16407.04982-.32814.09962-.49876.14944l-.70551-2.63347c-.44955-.08302-.84004-.25904-1.15833-.51806l.91879,3.44045c-3.82942,1.15899-6.13953,1.61728-7.26505,1.43796-.04594-.00665-.0886-.04317-.10172-.09632-.41675-1.37816-.84661-2.82277-1.26991-4.2574-.27236.09964-.56441.14944-.86958.14944-.03938,0-.07875,0-.11813-.00332.43972,1.48445.88599,2.97886,1.31585,4.40019.1247.42176.46595.72395.89253.79038.1969.03322.4266.05315.71535.05315,1.10912,0,3.08454-.32214,7.42912-1.65713.00657,0,.00985,0,.0164-.00332.33143-.10295.65957-.20259.97787-.29889.34454-.10295.68252-.20589,1.01395-.30884-.03281-.13615-.04921-.28227-.04921-.43171v-.59113Z"/>
    <g>
      <g>
        <path class="cls-7" d="M41.51916,28.97925l1.26225-1.26317c.1003-.10151.20669-.1521.31917-.1521.10639,0,.19483.03405.26501.10216.0705.0681.10575.15437.10575.2588,0,.12356-.0548.23447-.16439.33241l-.98987.90222,1.13087,1.13021c.10607.10767.15926.21696.15926.32787,0,.11707-.03813.21372-.11472.28961-.07691.07589-.17304.11383-.28873.11383-.12209,0-.23297-.05513-.33327-.16605l-1.35583-1.42954h-.00961v1.14934c0,.16799-.0423.28409-.12658.34895-.0846.06486-.17368.09729-.26758.09729-.03749,0-.07595-.00551-.11504-.01654s-.08107-.03081-.12658-.05935-.08204-.07524-.11023-.1401-.0423-.14172-.0423-.23026v-2.56429c0-.16799.0423-.28409.1269-.34928.08428-.06486.17336-.09729.26726-.09729.03749,0,.07595.00551.11504.01654.03909.01135.08139.03113.12658.05935.0455.02854.08236.07524.11023.1401.0282.06519.0423.14172.0423.23058v.9687h.0141Z"/>
        <path class="cls-7" d="M46.11314,30.71267l-.15958-.3989h-1.43113l-.16439.40344c-.08428.20269-.21566.30388-.39415.30388-.10959,0-.20156-.0347-.27687-.10443-.07499-.0694-.11248-.16442-.11248-.28474,0-.06973.01698-.14561.05159-.22799l1.09786-2.44106c.11889-.26593.29578-.3989.53035-.3989s.40986.13297.52554.3989l1.08857,2.43165c.0314.07589.04711.14886.04711.21826,0,.12356-.03909.22247-.11728.29674-.07819.07459-.17208.11156-.28168.11156-.18778,0-.32205-.10281-.40345-.30842ZM45.24023,28.54695l-.45504,1.11594h.90559l-.45055-1.11594Z"/>
        <path class="cls-7" d="M49.41635,30.71267l-.15958-.3989h-1.43113l-.16407.40344c-.0846.20269-.21598.30388-.39415.30388-.10959,0-.20188-.0347-.27687-.10443-.07499-.0694-.1128-.16442-.1128-.28474,0-.06973.0173-.14561.05159-.22799l1.09818-2.44106c.11889-.26593.29578-.3989.53035-.3989s.40954.13297.52554.3989l1.08857,2.43165c.03108.07589.04679.14886.04679.21826,0,.12356-.03909.22247-.11728.29674-.07819.07459-.17208.11156-.28136.11156-.18778,0-.32237-.10281-.40377-.30842ZM48.54376,28.54695l-.45536,1.11594h.90559l-.45023-1.11594Z"/>
        <path class="cls-7" d="M52.33533,30.81223l-.77453-1.17302h-.28616v.93563c0,.16799-.0423.28409-.12658.34895-.0846.06486-.17368.09729-.26758.09729s-.18298-.03243-.26726-.09729c-.0846-.06486-.1269-.18096-.1269-.34895v-2.49781c0-.31036.15318-.46538.45985-.46538h.80721c.43485,0,.7553.09405.96199.28247.20637.18842.30956.43295.30956.73358,0,.22183-.05928.4109-.17817.56754s-.28488.2682-.49734.33468l.61462.8312c.06858.09502.10319.18842.10319.2802,0,.10767-.03749.19783-.11248.2708-.07531.07264-.1676.10897-.27687.10897-.13779,0-.25187-.0694-.34256-.20885ZM52.23182,28.64197c0-.25004-.17817-.37522-.53483-.37522h-.42684v.78385h.38005c.38775,0,.58162-.13621.58162-.40863Z"/>
        <path class="cls-7" d="M54.04333,28.30502h-.60533c-.1442,0-.24354-.03665-.29802-.10929-.0548-.07297-.08204-.1521-.08204-.23739,0-.05059.00769-.09891.02339-.14497.01538-.04573.05384-.09113.11504-.13524.06089-.04443.14132-.06648.24162-.06648h2.01307c.14356,0,.2429.03632.2977.10897.0548.07297.08236.1521.08236.23772,0,.05059-.00801.09891-.02371.14464-.0157.04605-.05384.09113-.11472.13556-.06121.04411-.14164.06648-.24162.06648h-.60533v2.26042c0,.17091-.04326.28961-.12914.35609-.0862.06648-.17593.09956-.26982.09956-.0971,0-.18842-.03308-.27463-.09956-.08588-.06648-.12882-.18518-.12882-.35609v-2.26042Z"/>
      </g>
      <g>
        <path class="cls-7" d="M15.58543,16.8758h-.63193c-.24867,0-.373-.12583-.373-.37749v-1.97243c0-.25166.12433-.37749.373-.37749h.60149c.1599,0,.31148.01362.45488.04054s.28232.07394.41675.14042c.13459.06681.25059.15048.34833.25036.09774.10021.17577.22928.23409.38722s.08748.33728.08748.53738c0,.23123-.0431.43684-.1293.61651-.08636.17967-.20236.32366-.34833.43133-.14597.10799-.30635.18875-.48148.24291-.17513.05383-.35922.08075-.55198.08075ZM16.41908,15.5043c0-.14626-.02419-.27274-.07242-.37944-.04823-.10637-.11472-.1894-.1998-.24842s-.17769-.10151-.27783-.12713c-.1003-.02562-.21006-.03859-.32926-.03859h-.32349v1.59494h.30827c.26133,0,.47587-.06292.6433-.18875s.25123-.33014.25123-.61262Z"/>
        <path class="cls-7" d="M18.05963,15.21924h.8564c.1168,0,.19612.02757.23793.08302.04198.05513.06281.1148.06281.17902,0,.03859-.00561.07524-.01714.10994-.01138.03438-.04118.06908-.08941.10378s-.11296.05221-.19419.05221h-.8564v.56624h.98202c.1168,0,.1974.02951.24178.08854s.06665.12324.06665.19264c0,.04119-.00641.0801-.01907.1174-.01282.0373-.04374.07394-.09325.10994s-.11488.05383-.19612.05383h-1.2371c-.24867,0-.373-.12583-.373-.37749v-1.97243c0-.25166.12433-.37749.373-.37749h1.16868c.11664,0,.19724.02951.24162.08854.04438.05935.06665.12226.06665.18875,0,.04119-.00641.08043-.01907.11772s-.04374.07362-.09325.10962-.11488.05383-.19596.05383h-.9136v.5124Z"/>
      </g>
      <g>
        <path class="cls-4" d="M19.02963,20.47982c-.27126-.16896-.59139-.25328-.96007-.25328-.61911,0-1.12863.21631-1.52871.64926-.40008.43327-.59988.9807-.59988,1.64229,0,.67586.19467,1.22685.58434,1.65267.38951.42614.89374.63888,1.51301.63888.39656,0,.7513-.10897,1.06438-.32723.2296-.16183.43822-.24291.626-.24291.22255,0,.4105.07556.56351.22701s.2296.34668.2296.58602c0,.28182-.13571.53186-.40697.7498-.22271.18323-.52698.33987-.91296.46992-.38614.13037-.79488.19556-1.2262.19556-1.14785,0-2.09735-.36776-2.84864-1.10362-.7513-.73553-1.12702-1.68445-1.12702-2.84612,0-1.17561.38086-2.12421,1.14257-2.84612.76187-.72158,1.71665-1.08221,2.86451-1.08221.38246,0,.76331.05092,1.14257.15307.37909.10216.66942.22701.8713.3749.2852.21112.4278.4683.4278.77088,0,.2322-.07819.42614-.23473.58083-.15654.15502-.34961.2322-.57921.2322-.17384,0-.37557-.07394-.60517-.22183Z"/>
        <path class="cls-4" d="M26.31315,25.68624l-.35474-.88698h-3.18255l-.36531.89768c-.18778.45046-.48003.67586-.87643.67586-.2437,0-.44879-.07783-.61575-.23253s-.25043-.36582-.25043-.6337c0-.15469.03813-.32366.11472-.50689l2.44183-5.42792c.26437-.59154.6574-.88698,1.1791-.88698.52185,0,.91136.29544,1.16868.88698l2.421,5.40684c.06938.16896.10431.33112.10431.48581,0,.27469-.087.49489-.26085.65996-.174.1654-.38262.24842-.62616.24842-.41739,0-.71653-.22896-.89742-.68656ZM24.37234,20.87061l-1.01214,2.48192h2.01387l-1.00173-2.48192Z"/>
        <path class="cls-4" d="M31.44709,26.26707h-1.73219c-.68192,0-1.02272-.34474-1.02272-1.03486v-5.40717c0-.6898.3408-1.03486,1.02272-1.03486h1.64872c.43822,0,.85384.03697,1.24687.11091s.77389.20237,1.14273.3856c.36852.18291.68689.41187.95478.68623.26758.27469.48164.62851.6417,1.06146.1599.43295.23986.92395.23986,1.47333,0,.63337-.11825,1.19669-.35474,1.68964-.23649.49262-.5547.88698-.95478,1.18275-.40008.29544-.8399.51727-1.31994.66515s-.98442.22183-1.51301.22183ZM33.73222,22.50771c0-.40149-.06617-.74818-.1982-1.04038-.13219-.2922-.31484-.51922-.54781-.68104-.23313-.16183-.48708-.27826-.76171-.34863-.27495-.07037-.57585-.10572-.90271-.10572h-.88701v4.3723h.84535c.71637,0,1.30423-.17253,1.76344-.51759.45905-.34474.68865-.90449.68865-1.67894Z"/>
        <path class="cls-4" d="M38.22942,21.72613h2.34794c.31981,0,.5374.07556.65212.22701s.1724.31523.1724.491c0,.10572-.0157.20593-.04711.30096s-.11312.19004-.24514.28507c-.13235.09502-.30956.14269-.53227.14269h-2.34794v1.55246h2.69242c.31981,0,.5406.08108.66237.24291s.18266.33793.18266.52797c0,.11253-.0173.2202-.05223.32204-.03461.10216-.11985.20237-.2554.30096-.13587.09859-.315.14788-.5374.14788h-3.39133c-.68192,0-1.02288-.34474-1.02288-1.03486v-5.40717c0-.6898.34096-1.03486,1.02288-1.03486h3.20322c.32013,0,.54092.08108.66269.24291.12177.16215.18266.33468.18266.51759,0,.11253-.0173.2202-.05223.32204-.03493.10216-.11985.20237-.25572.30096-.13555.09859-.31468.14788-.5374.14788h-2.50432v1.40457Z"/>
        <path class="cls-4" d="M47.5478,25.68624l-.35474-.88698h-3.18271l-.36531.89768c-.18778.45046-.48003.67586-.87643.67586-.24354,0-.44863-.07783-.61559-.23253s-.25059-.36582-.25059-.6337c0-.15469.03813-.32366.11472-.50689l2.44183-5.42792c.26437-.59154.65756-.88698,1.17926-.88698s.91136.29544,1.16868.88698l2.421,5.40684c.06922.16896.10415.33112.10415.48581,0,.27469-.08684.49489-.26085.65996-.174.1654-.38262.24842-.62616.24842-.41723,0-.71653-.22896-.89726-.68656ZM45.60683,20.87061l-1.01198,2.48192h2.01371l-1.00173-2.48192Z"/>
        <path class="cls-4" d="M54.21573,23.29966v-3.6118c0-.38009.09389-.64245.28168-.78677s.39287-.21631.61559-.21631c.21566,0,.41755.072.60533.21631s.28168.40668.28168.78677v3.75969c0,.90125-.29033,1.62997-.8713,2.18583-.58098.55619-1.35134.83444-2.31109.83444-.96007,0-1.72563-.27631-2.29571-.82925-.57072-.55229-.85592-1.28296-.85592-2.19102v-3.75969c0-.38009.09389-.64245.282-.78677.18778-.14432.38935-.21631.60501-.21631s.41755.072.60533.21631.28168.40668.28168.78677v3.6118c0,.44333.11472.81142.34448,1.10362.22944.2922.57713.43814,1.04339.43814.47298,0,.8226-.14594,1.04883-.43814.22592-.2922.33904-.66029.33904-1.10362Z"/>
      </g>
    </g>
    <g>
      <path class="cls-1" d="M24.2001,12.16945l-3.81176-3.93027c-.19051-.19588-.50231-.19977-.69602-.00649-.19403.19264-.19692.50819-.00641.70439l3.81176,3.93027c.0963.09924.22367.14918.35121.14918.1245,0,.24899-.04735.3448-.14269.19403-.19264.19692-.50819.00641-.70439Z"/>
      <path class="cls-1" d="M24.71282,28.49992c-.13331-.23934-.43341-.32333-.67054-.18907l-5.36194,3.0621c-.23665.13524-.32029.43911-.18666.67877.09037.16215.25716.25328.42908.25328.08188,0,.16503-.02076.24146-.06421l5.36194-3.0621c.23665-.13524.32029-.43911.18666-.67877Z"/>
      <path class="cls-1" d="M47.75705,35.9606l-1.96917-3.43668c-.13651-.23837-.43774-.31782-.67295-.18096-.23489.13815-.315.443-.17881.68104l1.96917,3.43668c.09133.15923.25668.24809.4262.24809.08396,0,.16888-.02173.24675-.06713.23489-.13815.315-.443.17881-.68104Z"/>
      <path class="cls-1" d="M40.43508,3.59283c-.26053-.07783-.53419.07524-.60982.33955l-.98603,3.43668c-.07595.26399.07434.54062.33551.61716.04582.01362.09197.01978.13747.01978.21342,0,.40986-.1414.47234-.35933l.98603-3.43668c.07595-.26399-.07434-.54062-.33551-.61716Z"/>
      <path class="cls-1" d="M31.85262,34.01411c-.26149-.07783-.53435.07524-.60998.33955l-.37044,1.29074c-.07579.26399.07434.5403.33535.61716.04582.01362.09213.01978.13747.01978.21342,0,.41002-.1414.4725-.35933l.37044-1.29074c.07579-.26399-.07434-.5403-.33535-.61716Z"/>
      <path class="cls-2" d="M27.87166,33.77444c-.23377-.1401-.53579-.06292-.67487.17318l-.92995,1.58067c-.13908.23642-.06233.54224.17112.68299.07899.04735.16583.07005.25139.07005.16776,0,.33135-.08691.42348-.24323l.92995-1.58067c.13908-.23642.06233-.54224-.17112-.68299Z"/>
      <path class="cls-2" d="M39.152,35.7138l-.29001-2.0814c-.03781-.27242-.28776-.46019-.55598-.42387-.26918.03827-.45664.29025-.41883.56267l.29001,2.0814c.03461.24907.24547.42873.48676.42873.02275,0,.04614-.00162.06922-.00486.26918-.03827.45664-.29025.41883-.56267Z"/>
      <path class="cls-2" d="M50.32418,15.07589c-.07691-.26399-.35089-.41479-.61078-.33793l-3.50509,1.0407c-.26085.07751-.4105.35414-.33391.61813.06313.21729.25924.35803.47202.35803.04582,0,.09261-.00649.13876-.02011l3.50509-1.0407c.26085-.07751.4105-.35414.33391-.61813Z"/>
      <path class="cls-2" d="M30.40658,7.50041l-1.51958-3.2301c-.11696-.24842-.41034-.35317-.65612-.23577-.2453.11837-.34961.41544-.23281.66386l1.51958,3.2301c.08444.17934.26085.28409.44479.28409.07098,0,.14292-.01557.21134-.04832.2453-.11837.34961-.41544.23281-.66386Z"/>
      <path class="cls-5" d="M25.40227,7.53348l-.75979-1.97211c-.0987-.2562-.3839-.38365-.63738-.28312-.25332.09989-.37845.38884-.27975.64505l.75979,1.97211c.07579.19685.26181.31717.45872.31717.05944,0,.11985-.0107.17865-.03405.25332-.09989.37845-.38884.27975-.64505Z"/>
      <path class="cls-5" d="M36.1074,3c-.27174,0-.49221.22312-.49221.49814v2.2442c0,.27501.22047.49814.49221.49814s.49221-.22312.49221-.49814v-2.2442c0-.27501-.22047-.49814-.49221-.49814Z"/>
      <path class="cls-5" d="M50.89458,8.60921c-.12722-.24291-.4246-.33533-.66558-.20658l-5.49316,2.94795c-.24002.12875-.33135.43036-.20413.67359.08844.16864.25892.26463.43517.26463.07787,0,.1567-.01849.2304-.05805l5.49316-2.94795c.24002-.12875.33135-.43036.20413-.67359Z"/>
      <path class="cls-5" d="M25.73442,31.70602c-.1849-.20139-.49638-.21339-.6957-.02594l-2.60366,2.44754c-.19916.18713-.21054.50235-.02564.70375.09694.10572.22864.15923.36083.15923.11985,0,.24002-.04411.33487-.13329l2.60366-2.44754c.19916-.18713.21054-.50235.02564-.70375Z"/>
      <path class="cls-5" d="M42.91633,36.37506l-.84054-3.23334c-.0689-.26593-.33775-.42614-.60117-.35479-.26277.06973-.41979.34214-.35057.6084l.84054,3.23334c.058.22345.25732.37133.47555.37133.04134,0,.08364-.00519.12562-.01654.26277-.06973.41979-.34214.35057-.6084Z"/>
      <path class="cls-6" d="M32.66672,5.54548l-.47651-1.76715c-.07162-.26561-.34288-.42225-.60453-.3496-.26229.07264-.41675.34636-.34529.61164l.47651,1.76715c.05976.2215.25812.36712.47459.36712.04294,0,.08652-.00551.12994-.01751.26229-.07264.41675-.34636.34529-.61164Z"/>
      <path class="cls-6" d="M46.47846,5.04119c-.21214-.17318-.52169-.13978-.69217.07459l-2.72191,3.41398c-.1708.21437-.13779.52797.0737.7005.09133.07459.20028.11059.30891.11059.14356,0,.28616-.06324.38326-.18518l2.72191-3.41398c.1708-.21437.13779-.52797-.0737-.7005Z"/>
      <path class="cls-6" d="M35.50559,33.3762c-.27046-.02076-.50727.18518-.52778.45922l-.19628,2.62883c-.02051.27436.18266.5137.45376.53446.0125.00097.02516.0013.03749.0013.25508,0,.4709-.19912.49045-.46052l.19612-2.62883c.02051-.27436-.18266-.5137-.45376-.53446Z"/>
    </g>
  </g>
</svg>