<svg width="70" height="40" viewBox="0 0 70 40" xmlns="http://www.w3.org/2000/svg"><title>doenkado</title><desc>Created with Sketch.</desc><g fill="none"><g><path d="M46.622 38.586l-30.377-16.071c-1.173-.621-1.63-2.098-1.015-3.282l8.77-16.899c.615-1.185 2.078-1.646 3.251-1.025l30.377 16.071c1.173.621 1.63 2.098 1.015 3.282l-8.77 16.899c-.615 1.185-2.078 1.646-3.251 1.025" fill="#8FCAAA"/><path d="M46.921 38.8l-32.57-10.841c-1.258-.419-1.948-1.8-1.533-3.071l5.916-18.12c.415-1.27 1.783-1.967 3.041-1.548l32.57 10.841c1.258.419 1.948 1.8 1.533 3.071l-5.916 18.12c-.415 1.27-1.783 1.967-3.041 1.548" fill="#55B689"/><path d="M47.273 38.888l-33.936-4.99c-1.311-.193-2.227-1.433-2.036-2.757l2.723-18.88c.191-1.323 1.419-2.248 2.73-2.056l33.936 4.99c1.311.193 2.227 1.433 2.036 2.757l-2.723 18.88c-.191 1.323-1.419 2.248-2.73 2.056" fill="#477F62"/><path d="M47.702 39h-34.294c-1.324 0-2.408-1.094-2.408-2.432v-19.079c0-1.337 1.084-2.432 2.408-2.432h34.294c1.325 0 2.408 1.094 2.408 2.432v19.079c0 1.337-1.084 2.432-2.408 2.432" fill="#000105"/></g><path d="M18.849 25.873h1.176c.858 0 1.591-.307 2.199-.92.607-.613.911-1.353.911-2.22 0-.867-.304-1.607-.911-2.22-.608-.613-1.34-.92-2.199-.92h-1.176v6.28zm-.694.701v-7.682h1.87c1.049 0 1.946.376 2.691 1.129.742.749 1.113 1.653 1.113 2.712 0 1.059-.371 1.963-1.113 2.712-.745.753-1.642 1.129-2.691 1.129h-1.87z" fill="#FFFFFE"/><path d="M25.742 20.47c-.622.628-.932 1.384-.932 2.268 0 .884.311 1.641.932 2.268.622.628 1.37.942 2.246.942.876 0 1.625-.314 2.246-.942.622-.628.932-1.384.932-2.268 0-.884-.311-1.64-.932-2.268-.622-.628-1.37-.942-2.246-.942-.876 0-1.625.314-2.246.942zm-.493 5.034c-.759-.763-1.139-1.685-1.139-2.766s.38-2.004 1.139-2.771c.756-.763 1.669-1.145 2.739-1.145 1.07 0 1.985.382 2.744 1.145.756.767 1.134 1.69 1.134 2.771s-.378 2.003-1.134 2.766c-.759.767-1.674 1.15-2.744 1.15-1.07 0-1.983-.383-2.739-1.15z" fill="#FFFFFE"/><path fill="#FFFFFE" d="M36.364 18.892v.706h-3.184v2.771h2.517v.706h-2.517v2.792h3.184v.706h-3.883v-7.682h3.883"/><path fill="#FFFFFE" d="M42.309 18.892v7.682h-.752l-3.793-6.403v6.403h-.699v-7.682h.758l3.788 6.403v-6.403h.699"/><path fill="#FFFFFE" d="M22.923 27.9l-3.041 3.825 3.142 3.857h-.901l-2.691-3.295-.641.808v2.482h-.699v-7.671h.699v4.066l3.237-4.071h.895"/><path d="M24.669 32.955h2.58v-4.114l-2.58 4.114zm3.274-5.055v7.682h-.694v-1.92h-3.02l-1.203 1.92h-.827l4.811-7.682h.932z" fill="#FFFFFE"/><path d="M29.326 34.881h1.176c.858 0 1.591-.307 2.199-.92.608-.613.911-1.353.911-2.22 0-.867-.304-1.607-.911-2.22-.608-.613-1.34-.92-2.199-.92h-1.176v6.28zm-.694.701v-7.682h1.87c1.049 0 1.946.376 2.691 1.129.742.749 1.113 1.653 1.113 2.712 0 1.059-.371 1.963-1.113 2.712-.745.753-1.642 1.129-2.691 1.129h-1.87z" fill="#FFFFFE"/><path d="M36.219 29.478c-.622.628-.932 1.384-.932 2.268 0 .885.311 1.641.932 2.268.622.628 1.37.941 2.246.941.876 0 1.625-.314 2.246-.941.622-.628.932-1.384.932-2.268 0-.884-.311-1.64-.932-2.268-.622-.628-1.37-.942-2.246-.942-.876 0-1.625.314-2.246.942zm-.493 5.034c-.759-.763-1.139-1.685-1.139-2.766s.38-2.004 1.139-2.771c.756-.763 1.669-1.145 2.739-1.145 1.07 0 1.985.382 2.744 1.145.756.767 1.134 1.69 1.134 2.771s-.378 2.003-1.134 2.766c-.76.767-1.674 1.15-2.744 1.15-1.07 0-1.983-.383-2.739-1.15z" fill="#FFFFFE"/></g></svg>