<svg id="Layer_1" data-name="Layer 1" xmlns="http://www.w3.org/2000/svg" viewBox="0 0 70 40"><defs><style>.cls-1{fill:#d52b1e;}.cls-2{fill:#162056;}</style></defs><path class="cls-1" d="M48.2109,12.36549a8.25029,8.25029,0,0,1,4.63566-.44189A7.84866,7.84866,0,0,1,56.129,13.40485a8.08485,8.08485,0,0,1,2.14732,2.505,8.73986,8.73986,0,0,1,1.0255,3.40691c-.02072.02242-.03166.04708-.05034.07018a1.419,1.419,0,0,0-.5319-.89229,2.19463,2.19463,0,0,0-1.3189-.35392,2.16715,2.16715,0,0,0-1.23534.339,1.32945,1.32945,0,0,0-.53055.79,2.95168,2.95168,0,0,0-.04891.74623q-.00051.98994,0,1.98055h1.09948V20.18783a1.48127,1.48127,0,0,1,.13043-.78869A.61756.61756,0,0,1,57.293,19.105a.79055.79055,0,0,1,.66811.18.99932.99932,0,0,1,.2184.69766q.001,1.00674.00034,2.01383h1.09947V20.25406a6.0022,6.0022,0,0,0-.02785-.86714c.01495-.02786.03125-.05537.04857-.08254l.019.13315a1.29531,1.29531,0,0,1,.39638-.87259,1.68327,1.68327,0,0,1,.98366-.411,3.31343,3.31343,0,0,1,1.02033.06215q-.105.48453-.20957.969a1.07771,1.07771,0,0,0-.75914-.02615.543.543,0,0,0-.29482.35052,2.691,2.691,0,0,0-.05978.77952v1.71188q-.55637,0-1.112,0A8.18407,8.18407,0,0,1,57.69484,25.172a8.25224,8.25224,0,0,1-6.74969,3.04742,8.2354,8.2354,0,0,1-7.72146-6.55575c-.03057-.14741-.05163-.29652-.071-.44563a.90484.90484,0,0,0,.34747.57334,1.52466,1.52466,0,0,0,.95682.20515q.97211-.00051,1.9442-.00034c.05435-.32675.106-.65384.159-.98059-.66641-.00068-1.33248.002-1.99889-.00136a.39694.39694,0,0,1-.39706-.31962,5.92887,5.92887,0,0,1-.02513-.83352c.63856-.00068,1.27745.00034,1.91635-.00034q.079-.47127.15828-.94221-1.03731-.00051-2.07463-.00034.00051-.52223.00034-1.04411,1.14584-.00051,2.292-.00034c.04926-.32574.10088-.65113.14979-.97686q-1.45968.00153-2.91937.00034A8.2655,8.2655,0,0,1,48.2109,12.36549Zm1.592,4.53207c.00068.55874-.001,1.11747.001,1.67621a1.5986,1.5986,0,0,0-1.03461-.42966,2.175,2.175,0,0,0-1.30768.32267A1.7722,1.7722,0,0,0,46.729,19.479a1.96046,1.96046,0,0,0,1.83994,2.58243,2.29045,2.29045,0,0,0,1.71391-.52885,2.1545,2.1545,0,0,0,.6192-1.54477c.0017-1.03018,0-2.06.00068-3.09021Q50.353,16.89705,49.80288,16.89756Zm2.28386,1.57669a1.81078,1.81078,0,0,0-.79684,1.24112,2.05375,2.05375,0,0,0,.46194,1.70474,2.1828,2.1828,0,0,0,1.53831.64366,3.06478,3.06478,0,0,0,1.22005-.176c.03057-.28939.06046-.57911.09137-.8685a1.8426,1.8426,0,0,1-1.5502.08593.98178.98178,0,0,1-.57538-.72993c.9558-.002,1.91194.00034,2.86808-.00136a2.73983,2.73983,0,0,0-.24626-1.2479,1.71424,1.71424,0,0,0-1.12936-.90349A2.41159,2.41159,0,0,0,52.08674,18.47425Z"/><path class="cls-1" d="M68.8832,16.89314c.37227.002.74454-.00441,1.1168.00374v3.03926a3.87446,3.87446,0,0,1-.0805.61988,1.88671,1.88671,0,0,1-.71125,1.11646,2.42474,2.42474,0,0,1-1.61745.38891,2.046,2.046,0,0,1-1.4663-.74861,2.105,2.105,0,0,1-.2201-2.09841,1.79624,1.79624,0,0,1,1.24892-1.01286,1.87559,1.87559,0,0,1,1.73056.35732C68.88252,18.00349,68.88354,17.44848,68.8832,16.89314ZM67.63835,19.124a.90964.90964,0,0,0-.56145.35053,1.11285,1.11285,0,0,0,.03125,1.29512A1.03362,1.03362,0,0,0,68.709,20.697a1.105,1.105,0,0,0-.07677-1.28357A1.05605,1.05605,0,0,0,67.63835,19.124Z"/><path class="cls-1" d="M62.35768,18.46033a2.43606,2.43606,0,0,1,1.8671-.24456,1.71776,1.71776,0,0,1,1.14941.92829,2.712,2.712,0,0,1,.23267,1.23466c-.95478.00068-1.9099-.00068-2.86469.001a.98887.98887,0,0,0,.59508.7306,1.84208,1.84208,0,0,0,1.53119-.09985c-.03159.2938-.06148.5876-.09273.88141a3.10223,3.10223,0,0,1-1.26251.17458,2.16774,2.16774,0,0,1-1.50673-.64467,2.06143,2.06143,0,0,1-.45922-1.71222A1.81526,1.81526,0,0,1,62.35768,18.46033Zm.662.6586a.98455.98455,0,0,0-.305.52069q.8488.001,1.69761,0a.81384.81384,0,0,0-.36547-.60017A.917.917,0,0,0,63.01967,19.11893Z"/><path class="cls-1" d="M52.8795,19.02688a.9376.9376,0,0,1,.95377.037.83172.83172,0,0,1,.32335.5798q-.85493.00153-1.7095,0A.93651.93651,0,0,1,52.8795,19.02688Z"/><path class="cls-1" d="M48.51625,19.12708a1.07078,1.07078,0,0,1,1.03392.28056,1.11635,1.11635,0,0,1,.09069,1.27406,1.03791,1.03791,0,0,1-1.63886.07064,1.12285,1.12285,0,0,1-.001-1.29953A.90237.90237,0,0,1,48.51625,19.12708Z"/><path class="cls-2" d="M23.25447,14.53693q2.093-.001,4.18562-.00068c-.03737.2775-.07609.555-.11379.8325q-.75352.001-1.5074.00034v4.27529h-.95954q-.00051-2.13782-.00034-4.27563-.80193,0-1.60455,0Q23.254,14.953,23.25447,14.53693Z"/><path class="cls-2" d="M27.704,14.53693q.45192-.00051.90417,0,0,.39486,0,.78937-.45191.00051-.90417,0Q27.70349,14.93144,27.704,14.53693Z"/><path class="cls-2" d="M32.24626,19.64336q.00255-2.55356.001-5.10677.4519.00051.90383.00034.00051,1.27983,0,2.55967a.88478.88478,0,0,0,.0214.287c.43476-.51221.84167-1.04819,1.2693-1.56617.33966.0034.67932.00034,1.01864.0017q-.64757.78564-1.29886,1.56821a.7112.7112,0,0,1,.61546.25474,3.97843,3.97843,0,0,1,.3794.97584,4.00756,4.00756,0,0,0,.486,1.02645q-.51406,0-1.0278-.00034a11.41645,11.41645,0,0,1-.46364-1.27712c-.04823-.1396-.127-.304-.29108-.32607-.23539-.02242-.47281-.00408-.70853-.00951q-.00051.80652-.00034,1.613C32.84949,19.644,32.54787,19.6454,32.24626,19.64336Z"/><path class="cls-2" d="M39.62263,14.8698c.30025-.11617.59915-.235.89907-.35223.00068.44529,0,.89024.00034,1.3352h.769c-.04416.24489-.08933.48979-.13349.73468-.21195,0-.42389-.00034-.63584.00034.00068.38551-.001.771.001,1.15654a2.65438,2.65438,0,0,0,.32268,1.20035,6.4166,6.4166,0,0,0,.45072.69936c-.3383.00068-.67626,0-1.01456.00034a5.61815,5.61815,0,0,1-.34407-.57436,3.01252,3.01252,0,0,1-.31622-1.362C39.623,16.762,39.62025,15.81574,39.62263,14.8698Z"/><path class="cls-2" d="M30.11456,15.9a2.39795,2.39795,0,0,1,1.94692.12873c-.09986.24456-.20447.48707-.30569.731a1.33825,1.33825,0,0,0-.81926-.22758,1.0816,1.0816,0,0,0-.76932.37295,1.29822,1.29822,0,0,0-.27071.90791,1.223,1.223,0,0,0,.29278.77748,1.07038,1.07038,0,0,0,.67593.32981,1.4731,1.4731,0,0,0,.99757-.23437c-.02174.28056-.04551.56112-.06725.84168a2.25667,2.25667,0,0,1-1.45782.10767,1.77812,1.77812,0,0,1-1.11-.82605A2.29023,2.29023,0,0,1,29.048,17.067,1.77527,1.77527,0,0,1,30.11456,15.9Z"/><path class="cls-2" d="M36.37447,16.01377a2.254,2.254,0,0,1,1.66433-.179,1.67784,1.67784,0,0,1,1.04784.82707,2.607,2.607,0,0,1,.27683,1.28832q-1.48873.001-2.97677.00068a1.13165,1.13165,0,0,0,.30535.66064,1.3645,1.3645,0,0,0,1.04173.3529,1.596,1.596,0,0,0,.80194-.24693c-.02242.26833-.03872.53734-.06216.80567a2.60942,2.60942,0,0,1-1.52847.12635,1.87718,1.87718,0,0,1-1.26726-.90824,2.20562,2.20562,0,0,1-.19462-1.55089A1.84154,1.84154,0,0,1,36.37447,16.01377Zm.4351.63618a1.0965,1.0965,0,0,0-.41336.61206q.99961.00153,1.99957.00034a.93866.93866,0,0,0-.4796-.6912A1.139,1.139,0,0,0,36.80957,16.65Z"/><path class="cls-2" d="M27.70366,15.81982c.30162-.002.60324-.001.90485-.00034q-.001,1.91211-.00034,3.8249H27.704Q27.70349,17.73227,27.70366,15.81982Z"/><path class="cls-2" d="M2.03158,20.35426a3.162,3.162,0,0,1,2.11947.29483q-.19972.38058-.3974.76253a2.01862,2.01862,0,0,0-1.68675-.13756,1.52622,1.52622,0,0,0-.89941.93848A2.2121,2.2121,0,0,0,1.178,23.65575a1.55971,1.55971,0,0,0,.86715.90723,2.143,2.143,0,0,0,1.89733-.16c-.02887.30942-.06046.61885-.09069.92862a3.06338,3.06338,0,0,1-1.7866.17832A2.548,2.548,0,0,1,.6349,24.7413a2.52178,2.52178,0,0,1-.62157-1.49892A2.85534,2.85534,0,0,1,.48375,21.322,2.47629,2.47629,0,0,1,2.03158,20.35426Z"/><path class="cls-2" d="M36.48452,20.71091c.30162-.11787.60255-.23709.90417-.35461q-.00051.66693,0,1.33418c.25644.001.51288-.00136.76933.00136-.0462.24421-.08933.48877-.13383.73332-.21195.00068-.42389,0-.6355.00034,0,.38654-.001.77307.00034,1.15926a2.69662,2.69662,0,0,0,.37328,1.29274c.11753.21127.2629.40487.39876.60459-.3349-.002-.6698.0051-1.00437-.00306a3.23745,3.23745,0,0,1-.62565-1.40211,7.23226,7.23226,0,0,1-.04687-1.17284Q36.48418,21.80716,36.48452,20.71091Z"/><path class="cls-2" d="M19.39086,20.37464H20.291q0,2.55356,0,5.10745-.44988.00051-.90009.00034Z"/><path class="cls-2" d="M20.83882,20.37464q.45192,0,.90417,0c.00068.26256-.00136.52512.001.788-.30162.00442-.60323,0-.90485.00238C20.83814,20.90145,20.83882,20.63822,20.83882,20.37464Z"/><path class="cls-2" d="M6.02291,21.60217a2.32266,2.32266,0,0,1,1.56854.39842,1.83172,1.83172,0,0,1,.70242,1.11306,2.08643,2.08643,0,0,1-.34917,1.69354,1.96641,1.96641,0,0,1-1.29.70989,2.42861,2.42861,0,0,1-1.65379-.31283,1.80023,1.80023,0,0,1-.77375-1.11476,2.08015,2.08015,0,0,1,.29856-1.67961A2.07493,2.07493,0,0,1,6.02291,21.60217Zm-.03261.8128a1.09959,1.09959,0,0,0-.49488.24558,1.27291,1.27291,0,0,0-.33626,1.29512,1.04933,1.04933,0,0,0,.53258.66471,1.29821,1.29821,0,0,0,1.09676.01494,1.04646,1.04646,0,0,0,.56689-.68033,1.31671,1.31671,0,0,0-.29075-1.25572A1.20175,1.20175,0,0,0,5.9903,22.415Z"/><path class="cls-2" d="M9.69428,21.66093a1.91973,1.91973,0,0,1,1.20409.05774,1.23921,1.23921,0,0,1,.62225.56554,1.18591,1.18591,0,0,1,.56112-.53938,1.88451,1.88451,0,0,1,1.0971-.123,1.39526,1.39526,0,0,1,.82163.42593,1.52981,1.52981,0,0,1,.35529,1.02815q-.00051,1.2029-.00034,2.40614-.44785.00051-.896,0,0-1.13616,0-2.272a.88212.88212,0,0,0-.24116-.65453.79978.79978,0,0,0-.62362-.1593.64235.64235,0,0,0-.467.24354,1.01227,1.01227,0,0,0-.16269.60493q.00051,1.11883.00034,2.23767c-.29449-.00034-.589.00034-.88346-.00034-.00067-.768.0017-1.53594-.001-2.3039a.78753.78753,0,0,0-.33593-.69325.89987.89987,0,0,0-.78733-.01256.81176.81176,0,0,0-.36309.73943c-.00611.75676-.001,1.51352-.00272,2.27028q-.44784.00051-.896.00034V23.45059a2.45,2.45,0,0,1,.145-1.076A1.28349,1.28349,0,0,1,9.69428,21.66093Z"/><path class="cls-2" d="M15.74937,21.91466a2.34451,2.34451,0,0,1,1.46359-.30977,2.03927,2.03927,0,0,1,1.35015.66913,2.06791,2.06791,0,0,1-.12432,2.76923,1.9378,1.9378,0,0,1-1.49721.4959,1.7481,1.7481,0,0,1-1.15145-.51594q.001.87072,0,1.74143c-.2989-.00068-.59746.001-.896-.001q.00153-1.48668.00034-2.974a2.71936,2.71936,0,0,1,.1002-.8899A1.78385,1.78385,0,0,1,15.74937,21.91466Zm1,.49046a1.11224,1.11224,0,0,0-.59984.28294,1.27384,1.27384,0,0,0-.31452,1.20307,1.06461,1.06461,0,0,0,.62225.76016,1.32713,1.32713,0,0,0,1.00947-.00306,1.03993,1.03993,0,0,0,.56859-.62124,1.282,1.282,0,0,0-.29109-1.342A1.186,1.186,0,0,0,16.74933,22.40512Z"/><path class="cls-2" d="M22.584,22.12151a1.35171,1.35171,0,0,1,.84507-.49353,1.82073,1.82073,0,0,1,1.19322.15421,1.21651,1.21651,0,0,1,.49047.50269,1.18926,1.18926,0,0,1,.47008-.49216,1.82517,1.82517,0,0,1,1.182-.17221,1.364,1.364,0,0,1,.91708.53734,1.78691,1.78691,0,0,1,.26833,1.12088q-.00051,1.102,0,2.2037-.44835-.00051-.896,0,0-1.11986,0-2.239a.93431.93431,0,0,0-.22859-.67524.8435.8435,0,0,0-.76389-.14979.61005.61005,0,0,0-.429.3794,1.462,1.462,0,0,0-.0771.54821q0,1.06788,0,2.13611-.43969.00051-.879.00034,0-1.11986-.00034-2.23971a.92713.92713,0,0,0-.22859-.67592.82094.82094,0,0,0-.68033-.16507.61981.61981,0,0,0-.446.28735,1.19969,1.19969,0,0,0-.13518.65792q.00153,1.06788.00034,2.13509-.44784.00051-.896,0V23.10958A1.60491,1.60491,0,0,1,22.584,22.12151Z"/><path class="cls-2" d="M29.11528,21.93028a2.21548,2.21548,0,0,1,1.69218-.28226,1.69792,1.69792,0,0,1,1.0149.64536,2.42393,2.42393,0,0,1,.40793,1.49891q-1.4877.001-2.97541.00068a1.11763,1.11763,0,0,0,.35936.70853,1.48212,1.48212,0,0,0,1.19832.28089,1.66394,1.66394,0,0,0,.58965-.22349c-.01767.266-.0411.53157-.05707.79752a2.49492,2.49492,0,0,1-1.28425.17254,1.96093,1.96093,0,0,1-1.394-.76049,2.13906,2.13906,0,0,1-.34611-1.5913A1.855,1.855,0,0,1,29.11528,21.93028Zm.48266.62056a1.13965,1.13965,0,0,0-.33355.54922c.66675-.00033,1.3335.002,2.00025-.00135a.93841.93841,0,0,0-.5-.69834A1.1266,1.1266,0,0,0,29.59794,22.55084Z"/><path class="cls-2" d="M32.98366,22.0298a2.13668,2.13668,0,0,1,2.58718.01427,1.51306,1.51306,0,0,1,.42491,1.09913q.001,1.16979.00034,2.33923c-.2989-.00034-.59746.00034-.896-.00034q0-.98382,0-1.9673a1.40806,1.40806,0,0,0-.14911-.8145.73136.73136,0,0,0-.58251-.30671.87317.87317,0,0,0-.70548.214.95982.95982,0,0,0-.22281.66947q-.00051,1.10253,0,2.20506-.44835.00051-.896,0c.00034-.79106-.001-1.58213.00068-2.37319A1.48813,1.48813,0,0,1,32.98366,22.0298Z"/><path class="cls-2" d="M38.59448,21.93232a1.441,1.441,0,0,1,.80465-.32234,3.03474,3.03474,0,0,1,1.64429.29211c-.10462.24489-.21059.48911-.31588.73366a1.77519,1.77519,0,0,0-1.05669-.3152.66065.66065,0,0,0-.35086.09816.23475.23475,0,0,0-.05639.31181.61186.61186,0,0,0,.23063.18069c.35223.1807.72857.31589,1.06314.53021a1.16125,1.16125,0,0,1,.51084.61988,1.13012,1.13012,0,0,1-.14843.98025,1.16862,1.16862,0,0,1-.60629.41473A3,3,0,0,1,38.281,25.2372q.14776-.37244.29755-.74385a2.1693,2.1693,0,0,0,1.15687.31656.50115.50115,0,0,0,.38484-.1627.39383.39383,0,0,0-.0394-.48945,2.06165,2.06165,0,0,0-.6012-.35188,3.13915,3.13915,0,0,1-.92082-.5404A.94917.94917,0,0,1,38.59448,21.93232Z"/><path class="cls-2" d="M20.83814,21.65787c.30162-.00271.60323-.00067.90485-.001v3.82523q-.45243.00051-.90417,0Q20.8378,23.57,20.83814,21.65787Z"/></svg>