<svg id="Layer_1" data-name="Layer 1" xmlns="http://www.w3.org/2000/svg" viewBox="0 0 70 40"><defs><style>.cls-1{fill:#071a57;}.cls-2{fill:#d42b1e;}</style></defs><path class="cls-1" d="M17.62322,14.004q2.35332-.00237,4.70585-.00079c-.04667.322-.09019.644-.1337.96681-.54828.00474-1.09656.00079-1.64484.00237v4.62832q-.57438,0-1.148-.00079.00237-2.31416.00079-4.62753H17.62322Z"/><path class="cls-1" d="M22.66769,14.8537c-.00158-.28324-.00158-.56727,0-.85051h1.08706v.85051Z"/><path class="cls-1" d="M27.81027,19.60069q-.00237-2.79836,0-5.5975h1.06728c.00554,1.05621-.01186,2.11321.0087,3.16941a2.00146,2.00146,0,0,0,.50477-.56331c.2951-.39479.59021-.79037.88927-1.18358.39716.00237.79354.00158,1.1915.00158-.46442.576-.92409,1.15668-1.3972,1.72553a.81338.81338,0,0,1,.79354.42961,16.08243,16.08243,0,0,0,.76822,2.02063c-.39084-.00395-.78168-.00237-1.17251-.00237-.21757-.47786-.33466-.99291-.523-1.48106-.18039-.41695-.71363-.2152-1.06333-.25871q-.00118.86988,0,1.73977Z"/><path class="cls-1" d="M36.036,14.44545q.53285-.21954,1.06886-.42881c.00159.47074-.00078.9407.00159,1.41144.28165-.00079.56331-.00079.84576-.00237q-.076.41536-.15033.83151-.3489.00118-.69622.00079a7.33323,7.33323,0,0,0,.14794,2.13457,4.36611,4.36611,0,0,0,.65509,1.20811q-.58981,0-1.17963-.00079a3.71209,3.71209,0,0,1-.69069-1.99532C36.03444,16.55154,36.04077,15.4985,36.036,14.44545Z"/><path class="cls-1" d="M22.6669,15.42729c.36235,0,.7255-.00079,1.08785.00079v4.17261H22.66769C22.66532,18.20982,22.66769,16.819,22.6669,15.42729Z"/><path class="cls-1" d="M24.72,15.89724a2.57928,2.57928,0,0,1,2.754-.26266c-.10364.28007-.21519.55777-.326.83547a1.47064,1.47064,0,0,0-1.25874-.11472,1.33364,1.33364,0,0,0-.20017,2.22,1.635,1.635,0,0,0,1.576.02215,7.09065,7.09065,0,0,1-.11235.91538,2.56568,2.56568,0,0,1-1.67173.06488A1.93276,1.93276,0,0,1,24.16853,18.266,2.33491,2.33491,0,0,1,24.72,15.89724Z"/><path class="cls-1" d="M32.08415,15.9012a2.28181,2.28181,0,0,1,1.62031-.53641,2.05837,2.05837,0,0,1,1.57521.66537,2.56122,2.56122,0,0,1,.52533,1.75006c-1.07836.00237-2.15672-.00238-3.23508.00316a1.27824,1.27824,0,0,0,.47708.79671,1.9123,1.9123,0,0,0,1.8893.0538c-.03086.288-.05538.57755-.07753.86711a2.97772,2.97772,0,0,1-2.57841-.22785A2.231,2.231,0,0,1,32.08415,15.9012Zm1.12029.33229a1.18785,1.18785,0,0,0-.64717.79433q1.05856.00474,2.11715-.00079a1.34438,1.34438,0,0,0-.28323-.58547A1.11575,1.11575,0,0,0,33.20444,16.23349Z"/><path class="cls-1" d="M0,20.43141c1.05542.00079,2.11083-.00158,3.16625,0a1.69432,1.69432,0,0,1,1.27931.56015,1.79307,1.79307,0,0,1,.07595,2.15672,1.48613,1.48613,0,0,1-.96047.59021,1.39093,1.39093,0,0,1,.84654.84734,6.591,6.591,0,0,0,.6994,1.44546c-.45651-.02057-.917.03164-1.3703-.02611-.42961-.51663-.41537-1.27457-.88374-1.76272-.36631-.34258-.898-.17643-1.3434-.26029-.16851-.02532-.265-.178-.37263-.29194.02294.77929.00474,1.55859.01028,2.33868H0Zm1.14719.9494c.01266.45413-.02769.91143.01978,1.36318.07516.32438.45808.35365.731.35761a3.69924,3.69924,0,0,0,1.27377-.10285.91036.91036,0,0,0,.38372-1.12029.70988.70988,0,0,0-.70493-.49448C2.28251,21.37211,1.71525,21.38556,1.14719,21.38081Z"/><path class="cls-1" d="M12.97512,20.86735c.35761-.13767.712-.28324,1.06886-.42249q-.00119.69545-.00079,1.39087.426,0,.85209.00079c-.05222.28324-.10523.56569-.15665.84972q-.34772,0-.69465-.00079a6.78512,6.78512,0,0,0,.17406,2.20577,4.51763,4.51763,0,0,0,.62819,1.13769c-.39163,0-.78247-.00079-1.1733.00079a3.70575,3.70575,0,0,1-.697-2.0151C12.97354,22.96552,12.9767,21.91643,12.97512,20.86735Z"/><path class="cls-1" d="M36.0376,20.86656c.35682-.13767.71205-.28087,1.06728-.42249.00159.46442,0,.928.00159,1.39245.28323-.00079.56726-.00079.85129-.00158-.05222.28324-.10522.56648-.15586.85051q-.3489.00119-.69543.00079a6.96163,6.96163,0,0,0,.16377,2.17887,4.58886,4.58886,0,0,0,.63847,1.16459q-.58745-.00118-1.17409,0a3.70667,3.70667,0,0,1-.697-2.01668C36.036,22.96394,36.03839,21.91485,36.0376,20.86656Z"/><path class="cls-1" d="M5.694,22.346a2.24216,2.24216,0,0,1,1.58312-.55382,2.07931,2.07931,0,0,1,1.60053.62344A2.56713,2.56713,0,0,1,9.441,24.20844c-1.08152.00316-2.16225-.00237-3.24378.00237a1.33409,1.33409,0,0,0,.47945.79433,1.86868,1.86868,0,0,0,1.88851.0451c-.02611.29194-.05142.58309-.07912.875A2.94965,2.94965,0,0,1,5.90843,25.695,2.2321,2.2321,0,0,1,5.694,22.346Zm.82993.51742a1.52074,1.52074,0,0,0-.337.59021q1.05977.0095,2.12111.00079a1.37072,1.37072,0,0,0-.28482-.58705A1.10592,1.10592,0,0,0,6.524,22.86346Z"/><path class="cls-1" d="M10.153,21.9821a3.2743,3.2743,0,0,1,2.50721.12738c-.11393.27849-.22786.55777-.33942.83784a1.92162,1.92162,0,0,0-1.428-.303.27143.27143,0,0,0-.12105.4842,11.77577,11.77577,0,0,1,1.62268.90588,1.164,1.164,0,0,1-.09889,1.7469,2.42449,2.42449,0,0,1-1.60607.31409,3.63473,3.63473,0,0,1-1.16618-.30064q.159-.42723.31726-.85446a2.124,2.124,0,0,0,1.52141.303.38453.38453,0,0,0,.10206-.66854c-.519-.3758-1.20732-.4834-1.66065-.95415A1.05509,1.05509,0,0,1,10.153,21.9821Z"/><path class="cls-1" d="M14.95382,23.14432A2.13137,2.13137,0,0,1,16.6216,21.8294a2.72922,2.72922,0,0,1,2.06178.42486,2.14255,2.14255,0,0,1,.79591,1.68439c.0095.69623,0,1.39325.00317,2.09026H18.43337c.00079-.18513.00079-.36947.00317-.55381a2.186,2.186,0,0,1-3.20106-.15745A2.3207,2.3207,0,0,1,14.95382,23.14432Zm1.76747-.36156a1.27736,1.27736,0,0,0-.63452,1.83471,1.25764,1.25764,0,0,0,1.94944.18909,1.34567,1.34567,0,0,0-.0095-1.72632A1.28541,1.28541,0,0,0,16.72129,22.78276Z"/><path class="cls-1" d="M22.7658,21.83652c.34969-.00158.69859-.00079,1.04829-.00079-.00316.91143.00475,1.82285-.00237,2.73427a1.50309,1.50309,0,0,1-.97472,1.37663,2.84141,2.84141,0,0,1-2.027-.03639A1.5,1.5,0,0,1,19.92,24.56605c-.00791-.90984,0-1.81969-.00237-2.73032h1.04829c.0008.72392-.00158,1.44863,0,2.17334a1.37276,1.37276,0,0,0,.25159.93357.91031.91031,0,0,0,1.54594-.77771C22.77054,23.38879,22.76342,22.61266,22.7658,21.83652Z"/><path class="cls-1" d="M24.951,22.05489a2.538,2.538,0,0,1,1.85844-.16615q-.1068.46164-.21678.92329a1.15032,1.15032,0,0,0-.932.02611.90476.90476,0,0,0-.3046.77376c-.00079.80541.00238,1.61161,0,2.417H24.28879c.00158-.88452-.00316-1.76825.00079-2.652A1.53261,1.53261,0,0,1,24.951,22.05489Z"/><path class="cls-1" d="M26.74694,23.0747a2.12876,2.12876,0,0,1,1.652-1.24609,2.77707,2.77707,0,0,1,1.97317.36948,2.12934,2.12934,0,0,1,.87186,1.73028c.01741.70018.00158,1.40036.00712,2.10054H30.202q0-.2777.00475-.553a2.19484,2.19484,0,0,1-3.20185-.15191A2.3073,2.3073,0,0,1,26.74694,23.0747Zm1.68677-.27533a1.28921,1.28921,0,0,0-.51268,1.92491,1.27375,1.27375,0,0,0,1.67886.254,1.31239,1.31239,0,0,0,.23576-1.84579A1.2745,1.2745,0,0,0,28.43371,22.79937Z"/><path class="cls-1" d="M32.26849,22.17356a2.51938,2.51938,0,0,1,1.76509-.35444,1.72606,1.72606,0,0,1,1.29909.71838,1.65612,1.65612,0,0,1,.25.91221q0,1.29-.00079,2.58-.534-.00118-1.06728-.00079,0-1.16775.00158-2.33473a.99065.99065,0,0,0-.31409-.80778,1.08872,1.08872,0,0,0-.947-.10839.879.879,0,0,0-.51267.84813c-.02215.80066.00079,1.6029-.01029,2.40435-.35523-.00237-.71047-.00158-1.0657-.00237.00475-.85525-.0087-1.71129.00554-2.56654A1.58564,1.58564,0,0,1,32.26849,22.17356Z"/><path class="cls-2" d="M46.67166,11.1136A9.02276,9.02276,0,0,1,54.361,12.51a9.25753,9.25753,0,0,1,3.69158,6.75339,1.53087,1.53087,0,0,1,.68515-1.05542,2.86519,2.86519,0,0,1,2.0238-.20966c-.07911.36394-.159.72788-.235,1.09181a1.26119,1.26119,0,0,0-.90193.00158.90121.90121,0,0,0-.345.8062c-.00317.78405.00079,1.56888-.00079,2.35372H58.036a9.21968,9.21968,0,0,1-18.0639-.92962,1.29587,1.29587,0,0,0,.398.66379,1.71659,1.71659,0,0,0,1.0657.24684c.72787-.00316,1.455.00317,2.18282-.00395.05459-.36236.11393-.72313.17327-1.08469-.7342-.00238-1.46761.004-2.20182-.00158a.44877.44877,0,0,1-.46046-.30619,4.42329,4.42329,0,0,1-.04667-.99766c.71521.0008,1.42964-.00079,2.14564.00159.06013-.34258.11709-.68594.17406-1.02931-.77376-.00237-1.54674,0-2.32049-.00079-.0008-.39558,0-.79117,0-1.18675.85445.00079,1.7097-.00079,2.565.00079.05854-.36235.11155-.7255.1701-1.08864-1.091-.00079-2.18125.00158-3.27148-.00079A9.25331,9.25331,0,0,1,46.67166,11.1136Zm.75952,5.42186c.00159.62423-.00474,1.24925.004,1.87348A2.181,2.181,0,0,0,44.515,21.64322a2.38012,2.38012,0,0,0,1.59419.66063,2.25228,2.25228,0,0,0,2.546-2.40752c.00713-1.12029,0-2.24058.00238-3.36087ZM49.51986,18.723a2.29848,2.29848,0,0,0-.3315,2.12744,2.04165,2.04165,0,0,0,1.26033,1.2809,3.45288,3.45288,0,0,0,2.23425-.01978c.03165-.31567.06646-.63135.09731-.947a2.00814,2.00814,0,0,1-1.90433-.019,1.20552,1.20552,0,0,1-.485-.72787c1.07678-.01424,2.15356-.00079,3.22954-.00712a2.67517,2.67517,0,0,0-.58625-1.82443,2.30024,2.30024,0,0,0-1.85687-.65271A2.24939,2.24939,0,0,0,49.51986,18.723Zm5.41-.61869a1.56166,1.56166,0,0,0-1.02456,1.40748c-.01661.90668-.00079,1.81335-.00633,2.72h1.20653c.02532-.879-.05617-1.76588.04984-2.64012a.84974.84974,0,0,1,1.39087-.4027,1.20376,1.20376,0,0,1,.25951.86078c.00237.72788-.0008,1.455.00079,2.182H58.013c-.00238-.88452.00316-1.76826-.00159-2.65278a1.55573,1.55573,0,0,0-.90509-1.42093A2.99549,2.99549,0,0,0,54.92985,18.10434Z"/><path class="cls-2" d="M68.7531,16.51568h1.24609C70,17.67,69.9976,18.8243,70,19.97861a2.365,2.365,0,0,1-.65825,1.71841,2.54379,2.54379,0,0,1-1.95181.62423,2.33071,2.33071,0,0,1-1.69151-.80936,2.36437,2.36437,0,0,1-.2777-2.39644,2.23326,2.23326,0,0,1,3.33476-.7611C68.74993,17.742,68.75469,17.12883,68.7531,16.51568Zm-1.42647,2.5254a1.12627,1.12627,0,1,0,1.0119,1.96921,1.12575,1.12575,0,0,0-1.0119-1.96921Z"/><path class="cls-2" d="M60.97277,18.70721a2.23606,2.23606,0,0,1,1.68519-.79433,2.31077,2.31077,0,0,1,1.86715.65192,2.76364,2.76364,0,0,1,.595,1.86557c-1.07678.00474-2.15356-.00238-3.23033.00395a1.1843,1.1843,0,0,0,.5728.74924,2.02626,2.02626,0,0,0,1.8181-.06013c-.03639.33387-.07358.66774-.10285,1.0024a3.48378,3.48378,0,0,1-2.28251.02216,2.04015,2.04015,0,0,1-1.288-1.38613A2.33614,2.33614,0,0,1,60.97277,18.70721Zm1.20812.3402a1.49985,1.49985,0,0,0-.31726.5285q.95058.013,1.90275-.00079a1.36715,1.36715,0,0,0-.23339-.481A.98492.98492,0,0,0,62.18089,19.04741Z"/><path class="cls-2" d="M50.78256,18.95484a1.02146,1.02146,0,0,1,1.33074.159,1.39307,1.39307,0,0,1,.20333.485q-.97788.00592-1.95655.00079A1.26525,1.26525,0,0,1,50.78256,18.95484Z"/><path class="cls-2" d="M45.818,19.06956a1.22281,1.22281,0,0,1,1.36793.30223,1.26585,1.26585,0,0,1,.053,1.42014A1.156,1.156,0,1,1,45.818,19.06956Z"/></svg>