<svg id="Layer_1" data-name="Layer 1" xmlns="http://www.w3.org/2000/svg" viewBox="0 0 70 40"><defs><style>.cls-1{fill:#d42b1e;}</style></defs><path class="cls-1" d="M16.93574.69292A19.60335,19.60335,0,0,1,33.642,3.72683a20.11347,20.11347,0,0,1,8.02053,14.67279,3.326,3.326,0,0,1,1.48859-2.29306,6.225,6.225,0,0,1,4.397-.45551c-.17189.79071-.3455,1.58141-.51052,2.37212a2.74,2.74,0,0,0-1.95958.00344,1.958,1.958,0,0,0-.74945,1.75159c-.00688,1.70346.00172,3.40863-.00172,5.11381H41.62645a20.03117,20.03117,0,0,1-39.2466-2.01974,2.81557,2.81557,0,0,0,.86462,1.44218,3.7296,3.7296,0,0,0,2.3154.53631c1.58141-.00688,3.16111.00688,4.74252-.00859.11861-.78727.24753-1.57111.37645-2.35666-1.59517-.00515-3.18861.0086-4.78378-.00343a.975.975,0,0,1-1.00042-.66523,9.61073,9.61073,0,0,1-.10142-2.16757c1.55392.00172,3.10611-.00172,4.66174.00344.13064-.7443.2544-1.49031.37817-2.23633-1.68112-.00516-3.36051,0-5.04162-.00172-.00172-.85946,0-1.71893,0-2.57839,1.85644.00171,3.7146-.00172,5.57277.00171.1272-.78726.24236-1.57625.36957-2.36524-2.37041-.00172-4.73909.00344-7.10778-.00172A20.10423,20.10423,0,0,1,16.93574.69292Zm1.65018,11.77983c.00343,1.35623-.01032,2.71419.00859,4.07042a4.855,4.855,0,0,0-5.69653-.24752,4.87631,4.87631,0,0,0-.648,7.2745,5.17125,5.17125,0,0,0,3.46365,1.43531A5.50609,5.50609,0,0,0,19.772,23.66985a5.45508,5.45508,0,0,0,1.47312-3.89509c.01547-2.434,0-4.868.00516-7.302Zm4.538,4.75284a4.99374,4.99374,0,0,0-.72023,4.6222,4.43582,4.43582,0,0,0,2.73825,2.78295,7.50208,7.50208,0,0,0,4.85426-.043c.06876-.68585.14439-1.3717.21143-2.05756a4.363,4.363,0,0,1-4.13746-.04125,2.6191,2.6191,0,0,1-1.05371-1.58142c2.33947-.03094,4.67893-.00172,7.01667-.01547a5.81221,5.81221,0,0,0-1.27372-3.96385,4.99764,4.99764,0,0,0-4.03433-1.41811A4.88715,4.88715,0,0,0,23.12389,17.22559Zm11.754-1.34421a3.39292,3.39292,0,0,0-2.226,3.058c-.0361,1.96989-.00172,3.93979-.01375,5.90968h2.62136c.055-1.90973-.122-3.83665.1083-5.73607.18908-1.37171,2.10053-1.73268,3.02188-.87493a2.61539,2.61539,0,0,1,.56381,1.87019c.00515,1.58142-.00172,3.16111.00171,4.74081H41.5766c-.00515-1.92176.00688-3.84181-.00344-5.76357a3.38007,3.38007,0,0,0-1.96645-3.0872A6.50822,6.50822,0,0,0,34.87793,15.88138Z"/><path class="cls-1" d="M64.91107,12.42977h2.70732c.00172,2.50792-.00344,5.01584.00172,7.52376A5.13833,5.13833,0,0,1,66.19,23.687a5.52682,5.52682,0,0,1-4.24061,1.35624,5.06386,5.06386,0,0,1-3.67506-1.75847,5.13694,5.13694,0,0,1-.60335-5.20663,4.85212,4.85212,0,0,1,7.24529-1.65362C64.9042,15.09411,64.91451,13.76194,64.91107,12.42977ZM61.81184,17.9166A2.447,2.447,0,1,0,64.01036,22.195a2.44587,2.44587,0,0,0-2.19852-4.27841Z"/><path class="cls-1" d="M48.00712,17.19121a4.85813,4.85813,0,0,1,3.66132-1.72581,5.0206,5.0206,0,0,1,4.05667,1.4164A6.0044,6.0044,0,0,1,57.01775,20.935c-2.33947.01031-4.67893-.00516-7.01839.00859a2.573,2.573,0,0,0,1.2445,1.62783,4.40231,4.40231,0,0,0,3.9501-.13064c-.07907.72539-.15986,1.45078-.22346,2.17788a7.56911,7.56911,0,0,1-4.95911.04813A4.43255,4.43255,0,0,1,47.213,21.65527,5.07565,5.07565,0,0,1,48.00712,17.19121Zm2.6248.73914a3.25914,3.25914,0,0,0-.68929,1.14824q2.06529.02837,4.134-.00172a2.97039,2.97039,0,0,0-.50709-1.04511A2.13991,2.13991,0,0,0,50.63192,17.93035Z"/><path class="cls-1" d="M25.8673,17.72923a2.21931,2.21931,0,0,1,2.89124.34551,3.02668,3.02668,0,0,1,.44177,1.0537q-2.1246.0129-4.25091.00172A2.749,2.749,0,0,1,25.8673,17.72923Z"/><path class="cls-1" d="M15.081,17.97848a2.65671,2.65671,0,0,1,2.972.65663,2.75028,2.75028,0,0,1,.11517,3.08548,2.51149,2.51149,0,1,1-3.0872-3.74211Z"/></svg>