<svg id="Layer_1" data-name="Layer 1" xmlns="http://www.w3.org/2000/svg" viewBox="0 0 70 40"><defs><style>.cls-1{fill:#d42b1e;}.cls-2{fill:#071a57;}</style></defs><path class="cls-1" d="M50.3301,12.5072a7.60778,7.60778,0,0,1,6.48347,1.17741,7.80571,7.80571,0,0,1,3.11265,5.6943,1.2908,1.2908,0,0,1,.5777-.8899,2.41588,2.41588,0,0,1,1.70643-.17678c-.06671.30687-.13409.61373-.19813.92059a1.0634,1.0634,0,0,0-.76049.00133.75992.75992,0,0,0-.29085.67977c-.00267.66109.00067,1.32285-.00066,1.9846h-1.048a7.77381,7.77381,0,0,1-15.23105-.78383,1.09279,1.09279,0,0,0,.33555.55969,1.44745,1.44745,0,0,0,.89857.20813c.61373-.00267,1.22679.00267,1.84051-.00333.046-.30553.09606-.60973.1461-.91459-.61907-.002-1.23746.00334-1.85652-.00133a.37838.37838,0,0,1-.38825-.25817,3.72977,3.72977,0,0,1-.03936-.8412c.60305.00067,1.20544-.00067,1.80916.00133.0507-.28885.09873-.57837.14676-.86788-.65242-.002-1.30417,0-1.95658-.00067-.00067-.33355,0-.66709,0-1.00064.72045.00067,1.44158-.00067,2.16271.00067.04936-.30553.09406-.61173.14342-.91792-.91991-.00067-1.83917.00133-2.75842-.00067A7.80213,7.80213,0,0,1,50.3301,12.5072Zm.64041,4.57158c.00134.52634-.004,1.05334.00334,1.57967a1.839,1.839,0,0,0-2.46224,2.72708,2.00693,2.00693,0,0,0,1.34419.557,1.89905,1.89905,0,0,0,2.1467-2.03c.006-.94461,0-1.88921.002-2.83381Zm1.76113,1.84451a1.938,1.938,0,0,0-.27952,1.79381,1.72147,1.72147,0,0,0,1.06268,1.08,2.91145,2.91145,0,0,0,1.88387-.01667c.02668-.26617.056-.53234.082-.79851a1.69323,1.69323,0,0,1-1.60569-.016,1.01647,1.01647,0,0,1-.40893-.61373c.90792-.012,1.81583-.00067,2.72307-.006a2.25565,2.25565,0,0,0-.49431-1.53832,1.93955,1.93955,0,0,0-1.56567-.55035A1.89662,1.89662,0,0,0,52.73164,18.92329Zm4.56157-.52167a1.31674,1.31674,0,0,0-.86388,1.18676c-.014.76449-.00067,1.529-.00534,2.29346H57.4413c.02135-.74114-.04736-1.48895.042-2.22608a.71648.71648,0,0,1,1.17275-.33955,1.015,1.015,0,0,1,.21881.72579c.002.61373-.00067,1.22679.00066,1.83984h1.01732c-.002-.7458.00267-1.491-.00134-2.23676a1.31174,1.31174,0,0,0-.76315-1.19809A2.52571,2.52571,0,0,0,57.29321,18.40162Z"/><path class="cls-1" d="M68.94864,17.0621h1.05067C70,18.03539,69.998,19.00868,70,19.982a1.99406,1.99406,0,0,1-.555,1.44892,2.14488,2.14488,0,0,1-1.64571.52634,1.96526,1.96526,0,0,1-1.42625-.68244,1.99359,1.99359,0,0,1-.23415-2.02062,1.883,1.883,0,0,1,2.8118-.64175C68.946,18.0961,68.95,17.5791,68.94864,17.0621Zm-1.20276,2.12936a.94965.94965,0,1,0,.85321,1.66039.94921.94921,0,0,0-.85321-1.66039Z"/><path class="cls-1" d="M62.38846,18.90995a1.88533,1.88533,0,0,1,1.42091-.66976,1.9484,1.9484,0,0,1,1.57433.54968,2.33023,2.33023,0,0,1,.50166,1.573c-.90792.004-1.81583-.002-2.72374.00334a.99857.99857,0,0,0,.483.63174,1.7085,1.7085,0,0,0,1.533-.0507c-.03068.28151-.062.563-.08672.8452a2.93745,2.93745,0,0,1-1.92456.01868,1.72022,1.72022,0,0,1-1.086-1.16874A1.9698,1.9698,0,0,1,62.38846,18.90995Zm1.01865.28685a1.26485,1.26485,0,0,0-.26751.44561q.80152.011,1.60436-.00066a1.1528,1.1528,0,0,0-.19679-.40559A.83047.83047,0,0,0,63.40711,19.1968Z"/><path class="cls-1" d="M53.79631,19.11875a.86129.86129,0,0,1,1.12205.13408,1.17444,1.17444,0,0,1,.17144.40893q-.82452.005-1.64971.00067A1.06685,1.06685,0,0,1,53.79631,19.11875Z"/><path class="cls-1" d="M49.61031,19.21548a1.031,1.031,0,0,1,1.1534.25483,1.06734,1.06734,0,0,1,.0447,1.19743.97467.97467,0,1,1-1.1981-1.45226Z"/><path class="cls-2" d="M26.088,14.89405q1.97927,0,3.9592.00067c-.034.27217-.074.54435-.11208.81652-.46563,0-.93059-.00067-1.39555.00067v3.90182h-.96729V15.71124H26.088Z"/><path class="cls-2" d="M30.2573,14.89405h.91725v.71713H30.2573Z"/><path class="cls-2" d="M34.41,14.89405h.90057c.00534.8899-.01067,1.78047.008,2.67037a1.73992,1.73992,0,0,0,.43227-.48231q.36924-.49532.74114-.988c.33488.00133.6691.00067,1.004.00067q-.57837.73247-1.17208,1.45359c.20479.03469.45028.0467.58437.23215a2.92668,2.92668,0,0,1,.3142.81385,5.286,5.286,0,0,0,.41493,1.022c-.32954-.004-.65976-.00267-.9893-.002-.18812-.40826-.28084-.85055-.44962-1.26481-.1641-.32621-.59771-.16811-.8879-.2028v1.46694H34.41Z"/><path class="cls-2" d="M41.34837,15.26629q.4503-.17811.89991-.35956c0,.39625-.00067.7925,0,1.18809h.71512c-.04269.23281-.08605.4663-.12808.69978q-.29418.001-.587.00067c.00667.41893-.01668.8392.01268,1.25813a3.10243,3.10243,0,0,0,.66508,1.561c-.33154-.00134-.66242-.00067-.99329-.00067a3.07462,3.07462,0,0,1-.585-1.69708Q41.34671,16.59181,41.34837,15.26629Z"/><path class="cls-2" d="M32.11515,16.38767a2.23021,2.23021,0,0,1,2.19674-.11474c-.0934.23415-.18812.46763-.27885.70245a1.23255,1.23255,0,0,0-1.0927-.08339,1.12659,1.12659,0,0,0-.17211,1.83117,1.34411,1.34411,0,0,0,1.36354.044c-.02735.25883-.05137.51833-.07738.77783a2.15514,2.15514,0,0,1-1.87987-.16077A1.91893,1.91893,0,0,1,32.11515,16.38767Z"/><path class="cls-2" d="M38.02025,16.49174a1.94589,1.94589,0,0,1,1.36287-.44895,1.73487,1.73487,0,0,1,1.34686.587,2.18179,2.18179,0,0,1,.42227,1.44892c-.91058.00267-1.82116-.002-2.73174.00267a1.109,1.109,0,0,0,.42894.69111,1.61342,1.61342,0,0,0,1.57033.02535q-.04.36323-.06471.72846a2.47568,2.47568,0,0,1-2.18739-.19612A1.87978,1.87978,0,0,1,38.02025,16.49174Zm.67043.46363a1.34018,1.34018,0,0,0-.27818.48764c.59571.00467,1.19143.00334,1.78714.00067a1.15488,1.15488,0,0,0-.24816-.501A.93528.93528,0,0,0,38.69068,16.95537Z"/><path class="cls-2" d="M30.2573,16.09482h.91725v3.51891H30.2573Z"/><path class="cls-2" d="M1.20477,20.37488a3.557,3.557,0,0,1,2.14337.29152c-.11408.2655-.22948.531-.34089.79851a2.05446,2.05446,0,0,0-1.5123-.31353.46968.46968,0,0,0-.38558.30686c-.082.2128.09406.40959.26684.50832a12.03965,12.03965,0,0,1,1.61436.85655,1.31883,1.31883,0,0,1-.03268,2.03,2.39357,2.39357,0,0,1-1.537.34556A3.939,3.939,0,0,1,0,24.85374c.11741-.27284.23215-.547.34889-.81986a2.37414,2.37414,0,0,0,1.70442.31354.52274.52274,0,0,0,.15543-.88857c-.54368-.45362-1.31284-.537-1.8265-1.03666a1.168,1.168,0,0,1-.11207-1.52964A1.59307,1.59307,0,0,1,1.20477,20.37488Z"/><path class="cls-2" d="M23.42694,20.90655a2.91,2.91,0,0,1,3.10665-.26817q-.19013.38224-.38158.76382a1.81826,1.81826,0,0,0-1.75378.012,1.65528,1.65528,0,0,0-.0447,2.64836,2.00168,2.00168,0,0,0,1.98527.05537c-.04069.29619-.07271.593-.1094.8899a3.00806,3.00806,0,0,1-2.34216-.08072,2.179,2.179,0,0,1-1.0947-1.24346A2.61893,2.61893,0,0,1,23.42694,20.90655Z"/><path class="cls-2" d="M17.34039,20.82984a1.568,1.568,0,0,1,1.0967-.455,1.72776,1.72776,0,0,1,1.23879.37624A1.13268,1.13268,0,0,1,19.888,22.174a1.2583,1.2583,0,0,1-.58571.445,1.38187,1.38187,0,0,1,.86589.72513,1.98833,1.98833,0,0,1,1.19876-.77783q.003.37625,0,.75315a2.56471,2.56471,0,0,0-.80785.66909,5.9854,5.9854,0,0,0,.91525,1.12872c-.36823,0-.7358-.00133-1.104.002a5.28,5.28,0,0,1-.41493-.521,2.37779,2.37779,0,0,1-1.32485.59371,1.851,1.851,0,0,1-1.47828-.46229,1.36252,1.36252,0,0,1-.26683-1.36687,1.274,1.274,0,0,1,.81518-.75648,1.5117,1.5117,0,0,1-.42493-.33088A1.1238,1.1238,0,0,1,17.34039,20.82984Zm.98263.24482a.62447.62447,0,0,0-.08806,1.10871.61411.61411,0,1,0,.08806-1.10871Zm-.26417,2.00195A.7356.7356,0,0,0,17.80869,24.14a.93742.93742,0,0,0,.96062.29619,1.85692,1.85692,0,0,0,.81718-.469,2.66342,2.66342,0,0,0-.54368-.79917A.91536.91536,0,0,0,18.05885,23.07661Z"/><path class="cls-2" d="M30.29065,20.39756q.45829,0,.91726.00067v4.719h-.91726Z"/><path class="cls-2" d="M14.08031,20.77514q.44929-.18212.90058-.36023v1.18342H15.704c-.04336.23348-.08673.4663-.12875.70045h-.59371a8.52334,8.52334,0,0,0,.0647,1.555,3.38352,3.38352,0,0,0,.61706,1.26347c-.33287-.00067-.66509.002-.9973-.00334a3.18372,3.18372,0,0,1-.5837-1.7311C14.07631,22.51358,14.08232,21.64436,14.08031,20.77514Z"/><path class="cls-2" d="M31.60816,20.77047q.45028-.17911.90058-.36023v1.18809c.23881,0,.4783.00067.71779-.00134-.0447.23349-.08672.46764-.13142.70112-.19613.00067-.39092.00067-.58637.00067.01.45228-.02535.90657.024,1.35686a3.18928,3.18928,0,0,0,.65309,1.4616q-.49632,0-.99264.00067a3.1197,3.1197,0,0,1-.58371-1.66573C31.60616,22.55827,31.60883,21.66437,31.60816,20.77047Z"/><path class="cls-2" d="M4.32342,21.95189a2.23264,2.23264,0,0,1,1.77113-.36223A1.78484,1.78484,0,0,1,7.41473,22.593a1.90808,1.90808,0,0,1-.52233,2.25678,1.84175,1.84175,0,0,1-2.30614-.12808c.01.53767.00267,1.07535.00467,1.613H3.69035c.00067-1.00664-.002-2.01328.00067-3.01992A1.74411,1.74411,0,0,1,4.32342,21.95189Zm1.06268.40092a1.04465,1.04465,0,1,0,1.00264,1.7271,1.111,1.111,0,0,0,.11808-1.23745A1.02075,1.02075,0,0,0,5.3861,22.35281Z"/><path class="cls-2" d="M8.9944,21.62768a2.307,2.307,0,0,1,1.9299.3162,1.86919,1.86919,0,0,1,.17411,2.7104,2.03465,2.03465,0,0,1-1.47427.533,2.04394,2.04394,0,0,1-1.46894-.53635,1.79874,1.79874,0,0,1,.8392-3.02326Zm.39225.72646a1.0664,1.0664,0,0,0-.66375,1.52564,1.055,1.055,0,0,0,1.67306.20747,1.152,1.152,0,0,0,.0934-1.29616A1.02023,1.02023,0,0,0,9.38665,22.35414Z"/><path class="cls-2" d="M12.3292,21.81847a2.03783,2.03783,0,0,1,1.63437-.18745q-.08906.38925-.18145.77716a.87834.87834,0,0,0-.85187.07872,1.187,1.187,0,0,0-.20213.82652c.00267.60105.00067,1.2021.00133,1.80315q-.45029.001-.90057.00067c.00267-.71245-.00534-1.42491.00333-2.13736A1.39358,1.39358,0,0,1,12.3292,21.81847Z"/><path class="cls-2" d="M26.58829,21.59833q.44229,0,.8839.00067c.00067.61772-.00133,1.23612.00067,1.85451a1.09807,1.09807,0,0,0,.2128.75182.85671.85671,0,0,0,.86722.14809.77884.77884,0,0,0,.43294-.77316c.01134-.66042,0-1.32151.004-1.98193q.44229,0,.8839.00067c-.00333.77249.006,1.54565-.00333,2.31881a1.29534,1.29534,0,0,1-1.038,1.2061,2.30429,2.30429,0,0,1-1.6724-.20146,1.26562,1.26562,0,0,1-.571-1.068C26.58629,23.102,26.58963,22.35014,26.58829,21.59833Z"/><path class="cls-2" d="M33.52605,21.59833q.44228,0,.8839.00067c.00067.61706-.00067,1.23412,0,1.85184a1.10527,1.10527,0,0,0,.2108.75115.85335.85335,0,0,0,.86655.15276.77817.77817,0,0,0,.43628-.77382c.01134-.66109,0-1.32151.004-1.9826h.8839c-.00334.77449.006,1.549-.00334,2.32348a1.26665,1.26665,0,0,1-.8352,1.13739,2.50288,2.50288,0,0,1-1.56566.01535,1.27224,1.27224,0,0,1-.87789-1.16074C33.52071,23.142,33.52939,22.37016,33.52605,21.59833Z"/><path class="cls-2" d="M37.77009,21.77244a2.10622,2.10622,0,0,1,1.56633-.13942c-.05937.2595-.12207.51833-.17878.77849a1.02113,1.02113,0,0,0-.74581-.00467.69171.69171,0,0,0-.29819.63641c-.00533.69111.00067,1.38288-.00133,2.074h-.90058c.00067-.73447-.00133-1.4696,0-2.20407A1.30147,1.30147,0,0,1,37.77009,21.77244Z"/><path class="cls-2" d="M39.71667,21.98925a1.96188,1.96188,0,0,1,1.40156-.44162,1.71977,1.71977,0,0,1,1.33552.62907,2.38012,2.38012,0,0,1,.40092,1.40623c-.91459.00267-1.8285-.00534-2.74242.004a1.07578,1.07578,0,0,0,.39826.67043,1.58365,1.58365,0,0,0,1.595.044c-.02268.24549-.04336.49164-.066.7378a2.54579,2.54579,0,0,1-2.1407-.17478A1.87778,1.87778,0,0,1,39.71667,21.98925Zm.66709.46362a1.40212,1.40212,0,0,0-.28552.495c.59772.00133,1.19543.004,1.79315-.002a1.17172,1.17172,0,0,0-.27618-.52234A.94529.94529,0,0,0,40.38376,22.45287Z"/></svg>