<svg id="Layer_1" data-name="Layer 1" xmlns="http://www.w3.org/2000/svg" viewBox="0 0 70 40"><defs><style>.cls-1{fill:#162056;}.cls-2{fill:#d42b1e;}</style></defs><path class="cls-1" d="M19.0676,14.053q2.27981-.00167,4.55962-.00074-.0605.45341-.12394.90682-.82136.00056-1.642.00037-.00111,2.32864-.00074,4.65692c-.34815-.00074-.69667.00111-1.04482-.00074q-.00055-2.32865-.00111-4.65692-.87353.00111-1.74667.00037Q19.06741,14.50564,19.0676,14.053Z"/><path class="cls-1" d="M23.91469,14.05259c.3278-.00074.65635.00037.98452-.00037.00074.28673.00037.57384.00037.86057-.32817.00037-.65635-.00037-.98452.00037C23.91358,14.62643,23.91469,14.33932,23.91469,14.05259Z"/><path class="cls-1" d="M28.86316,14.05259q.49226,0,.98488,0,.00111,1.54.00037,3.0797c.06142.00851.0888-.05327.12432-.0899.427-.532.85169-1.06591,1.28234-1.59461.37.0037.74033.00037,1.11031.00185q-.707.8541-1.41554,1.70782a.86736.86736,0,0,1,.57347.17426,1.43846,1.43846,0,0,1,.33742.62638A5.84737,5.84737,0,0,0,32.5611,19.616c-.37442-.00185-.74884.00481-1.12289-.00333a8.18694,8.18694,0,0,1-.36406-.97193,3.39661,3.39661,0,0,0-.23567-.62379.35186.35186,0,0,0-.31116-.15687c-.22642-.0037-.45285,0-.67891-.00111-.00074.58568.00037,1.17136-.00037,1.757q-.49281.00055-.98488.00037Q28.86205,16.83428,28.86316,14.05259Z"/><path class="cls-1" d="M36.89577,14.4185q.49-.19368.98081-.38552c.00037.4843-.00037.96861.00037,1.45291.279.00074.5583,0,.83764.00074-.04773.26638-.09694.53277-.145.79915-.23086.00148-.46173,0-.6926.00074.00038.42326-.00184.84651.00075,1.26977a2.994,2.994,0,0,0,.46691,1.50322c.11506.19165.249.37146.37442.55645-.36887,0-.73737.00148-1.10587-.00074a3.831,3.831,0,0,1-.65005-1.42738,5.73409,5.73409,0,0,1-.067-1.22093Q36.89558,15.6927,36.89577,14.4185Z"/><path class="cls-1" d="M26.5667,15.52881a2.6189,2.6189,0,0,1,2.09371.14836c-.10692.26786-.22162.53277-.33372.79878a1.41473,1.41473,0,0,0-1.0944-.219,1.1315,1.1315,0,0,0-.7259.50133,1.555,1.555,0,0,0-.17721,1.09328,1.1622,1.1622,0,0,0,.53091.81248,1.543,1.543,0,0,0,1.585-.091c-.02774.30782-.04328.61713-.07991.92384a2.48,2.48,0,0,1-1.86581.01517,1.91619,1.91619,0,0,1-1.07071-1.11179,2.56027,2.56027,0,0,1-.00518-1.72373A1.92343,1.92343,0,0,1,26.5667,15.52881Z"/><path class="cls-1" d="M33.8908,15.45222a2.48172,2.48172,0,0,1,1.575.12209,1.82864,1.82864,0,0,1,.90608.90867,2.93347,2.93347,0,0,1,.24234,1.29271q-1.62051.00056-3.24065.00037a1.17732,1.17732,0,0,0,.60381.92051,1.77809,1.77809,0,0,0,1.7352-.08917c-.02368.2871-.03922.57532-.06623.86242a1.13982,1.13982,0,0,1-.36591.13911,2.76179,2.76179,0,0,1-1.92352-.22014,1.97882,1.97882,0,0,1-.94048-1.20021,2.3544,2.3544,0,0,1,.15687-1.72706A2.03816,2.03816,0,0,1,33.8908,15.45222Zm.05809.83245a1.16342,1.16342,0,0,0-.56533.73589q1.0883.00278,2.17622.00037a1.02768,1.02768,0,0,0-.478-.72775A1.25244,1.25244,0,0,0,33.94889,16.28467Z"/><path class="cls-1" d="M23.914,15.45c.32854-.00185.65709-.00037.98563-.00074q-.00055,2.0839-.00074,4.16744c-.32818-.00111-.65635,0-.98415-.00074Q23.91358,17.53316,23.914,15.45Z"/><path class="cls-1" d="M14.2612,20.39551a3.47347,3.47347,0,0,1,2.33494.31374c-.1417.27748-.29043.55164-.42954.8306a2.21794,2.21794,0,0,0-1.85249-.14244,1.6432,1.6432,0,0,0-.90867.86908,2.39257,2.39257,0,0,0-.11691,1.49693,1.731,1.731,0,0,0,.90793,1.16359,2.32031,2.32031,0,0,0,2.17288-.12616c-.03255.33668-.06622.67373-.09878,1.01041a3.31242,3.31242,0,0,1-1.88282.20645A2.646,2.646,0,0,1,12.082,23.44006a3.07105,3.07105,0,0,1,.52611-2.00491A2.69251,2.69251,0,0,1,14.2612,20.39551Z"/><path class="cls-1" d="M0,20.41142H3.8685q-.07881.44674-.16094.89276-1.33082.00056-2.662.00037-.00055.73034,0,1.46067c.80174.00074,1.60386-.00037,2.406.00074q-.07491.43011-.15169.85946c-.75143.00111-1.50322-.00037-2.25465.00074q.00056.46339-.00037.92643a.61529.61529,0,0,0,.12172.42363.40952.40952,0,0,0,.316.10692q1.16987-.00111,2.34011,0-.07992.44619-.16057.89165-1.22037.00111-2.44112.00037A1.23011,1.23011,0,0,1,.30338,25.617,1.30931,1.30931,0,0,1,0,24.85856Z"/><path class="cls-1" d="M16.8296,20.41179q.48782-.00056.97563,0c-.00037.58049.00148,1.16136-.00111,1.74186a1.502,1.502,0,0,1,.989-.41031,1.87126,1.87126,0,0,1,1.21057.29931,1.43469,1.43469,0,0,1,.53462.88018,4.08811,4.08811,0,0,1,.05105.88943q0,1.08108,0,2.1629-.48837,0-.976-.00037,0-1.22982,0-2.46a1.02,1.02,0,0,0-.259-.74588.9844.9844,0,0,0-.82061-.17241.82613.82613,0,0,0-.62378.441,1.19911,1.19911,0,0,0-.10471.55164v2.38525c-.3241.00259-.6482-.00111-.97267.00185C16.82516,24.12156,16.83108,22.26649,16.8296,20.41179Z"/><path class="cls-1" d="M5.13124,21.91353a2.60042,2.60042,0,0,1,2.15808.12616c-.11173.26528-.22235.53092-.3352.79583a1.45423,1.45423,0,0,0-.848-.25011,1.18029,1.18029,0,0,0-.90275.43436,1.463,1.463,0,0,0-.26675,1.05407,1.212,1.212,0,0,0,.522.93271,1.53349,1.53349,0,0,0,1.61348-.074c-.024.30523-.04958.61083-.07363.91644a2.44557,2.44557,0,0,1-1.59276.11691,1.936,1.936,0,0,1-1.252-.98451A2.52732,2.52732,0,0,1,4.0028,23.18,1.93451,1.93451,0,0,1,5.13124,21.91353Z"/><path class="cls-1" d="M9.15957,21.76554a2.5446,2.5446,0,0,1,1.85433.42769,2.00113,2.00113,0,0,1,.76031,1.2398,2.2989,2.2989,0,0,1-.3119,1.70339,2.10989,2.10989,0,0,1-1.43921.87167,2.65755,2.65755,0,0,1-1.85175-.34,1.96812,1.96812,0,0,1-.84688-1.26348A2.29536,2.29536,0,0,1,7.589,22.73747,2.21422,2.21422,0,0,1,9.15957,21.76554Zm.09508.87056a1.16971,1.16971,0,0,0-.57754.3056,1.40637,1.40637,0,0,0-.2945,1.46586,1.13514,1.13514,0,0,0,.717.7,1.41005,1.41005,0,0,0,1.121-.1036,1.13932,1.13932,0,0,0,.52426-.69186,1.42786,1.42786,0,0,0-.32522-1.37373A1.303,1.303,0,0,0,9.25465,22.6361Z"/><path class="cls-1" d="M21.84466,22.12294a2.41054,2.41054,0,0,1,1.91316-.31189,1.83955,1.83955,0,0,1,1.08367.7259,2.66174,2.66174,0,0,1,.41882,1.59756q-1.62.00111-3.23954.00037a1.179,1.179,0,0,0,.59826.91866,1.776,1.776,0,0,0,1.74112-.08657q-.03275.43731-.06512.87426a2.78438,2.78438,0,0,1-1.53578.16686,2.08553,2.08553,0,0,1-1.4444-.90275,2.36041,2.36041,0,0,1-.31152-1.6453A2.02026,2.02026,0,0,1,21.84466,22.12294Zm.79583.50058a1.14868,1.14868,0,0,0-.609.75624q1.08774.00222,2.17548.00037a1.02959,1.02959,0,0,0-.478-.727A1.2513,1.2513,0,0,0,22.64049,22.62352Z"/><path class="cls-1" d="M25.934,22.443a2.24887,2.24887,0,0,1,1.51617-.697,2.41758,2.41758,0,0,1,1.78145.54276,2.07613,2.07613,0,0,1,.66707,1.52357q.00055,1.77978,0,3.5592-.48782.00111-.97526,0-.00111-.94623-.00037-1.89244a1.94692,1.94692,0,0,1-1.43441.56643,2.0773,2.0773,0,0,1-1.49656-.59122A2.25123,2.25123,0,0,1,25.934,22.443Zm1.38631.205a1.20043,1.20043,0,0,0-.48541.2501,1.38695,1.38695,0,0,0-.11211,1.90059,1.33864,1.33864,0,0,0,1.41961.2945,1.15446,1.15446,0,0,0,.72442-.82949,1.37534,1.37534,0,0,0-.40217-1.38927A1.34219,1.34219,0,0,0,27.32035,22.64794Z"/><path class="cls-1" d="M35.56866,22.08446a2.42969,2.42969,0,0,1,1.90465-.26046,1.82938,1.82938,0,0,1,1.11548.83837,2.75558,2.75558,0,0,1,.33742,1.47214q-1.61994.00111-3.23953.00074a1.17867,1.17867,0,0,0,.61861.92939,1.77881,1.77881,0,0,0,1.7204-.09767q-.03219.43731-.06512.875a2.80239,2.80239,0,0,1-1.59831.15465,2.06154,2.06154,0,0,1-1.41813-.95011,2.38,2.38,0,0,1-.27045-1.61015A2.01437,2.01437,0,0,1,35.56866,22.08446Zm.70074.55719a1.15369,1.15369,0,0,0-.572.73848q1.08829.00166,2.17584,0a1.02692,1.02692,0,0,0-.48985-.7333A1.24989,1.24989,0,0,0,36.2694,22.64165Z"/><path class="cls-1" d="M30.49551,21.80883c.32521,0,.65079-.003.97637.00148q-.00111,1.1854,0,2.37045a1.05425,1.05425,0,0,0,.26787.78288,1.02256,1.02256,0,0,0,.84836.19683.75158.75158,0,0,0,.56977-.387,1.20943,1.20943,0,0,0,.12172-.55793c.00037-.80249-.00111-1.605.00074-2.40745q.48726.00055.97489.00037,0,1.29807-.00037,2.59651a1.611,1.611,0,0,1-.52167,1.2102,2.13394,2.13394,0,0,1-1.50544.427,1.85421,1.85421,0,0,1-1.35893-.58012,1.83042,1.83042,0,0,1-.37368-1.279Q30.4957,22.99591,30.49551,21.80883Z"/><path class="cls-2" d="M47.263,11.33886a8.794,8.794,0,0,1,7.49443,1.361,9.02287,9.02287,0,0,1,3.598,6.5822,1.49205,1.49205,0,0,1,.66779-1.02866,2.79252,2.79252,0,0,1,1.9725-.20435c-.07711.35471-.155.70942-.229,1.06414a1.22914,1.22914,0,0,0-.87907.00154.87834.87834,0,0,0-.3362.78576c-.00309.76417.00077,1.52911-.00077,2.294H58.33924a8.986,8.986,0,0,1-17.606-.90605,1.26309,1.26309,0,0,0,.38787.647,1.6731,1.6731,0,0,0,1.03868.24059c.70943-.00309,1.41808.00308,2.1275-.00386.05321-.35317.111-.70479.16887-1.05719-.71559-.00231-1.43041.00385-2.146-.00154a.43737.43737,0,0,1-.44878-.29842,4.31091,4.31091,0,0,1-.0455-.97237c.69708.00077,1.39339-.00077,2.09125.00154.05861-.33389.11412-.66855.16964-1.00322-.75414-.00231-1.50752,0-2.26166-.00077-.00077-.38555,0-.77111,0-1.15666.8328.00077,1.66637-.00077,2.49994.00077.05706-.35317.10872-.70711.16579-1.061-1.06336-.00077-2.126.00154-3.18855-.00077A9.01874,9.01874,0,0,1,47.263,11.33886Zm.74027,5.28442c.00154.60841-.00463,1.21758.00386,1.826a2.12573,2.12573,0,0,0-2.84617,3.1523,2.3198,2.3198,0,0,0,1.55379.64388A2.19519,2.19519,0,0,0,49.19618,19.899c.00694-1.0919,0-2.18379.00231-3.27568ZM50.039,18.7554a2.2402,2.2402,0,0,0-.3231,2.07352,1.9899,1.9899,0,0,0,1.22838,1.24843,3.36551,3.36551,0,0,0,2.17761-.01928c.03085-.30768.06478-.61535.09485-.923a1.95722,1.95722,0,0,1-1.85606-.01851,1.17492,1.17492,0,0,1-.47269-.70942c1.04948-.01388,2.099-.00077,3.14767-.00694a2.60733,2.60733,0,0,0-.57139-1.77818,2.24193,2.24193,0,0,0-1.8098-.63617A2.19235,2.19235,0,0,0,50.039,18.7554Zm5.27285-.603a1.522,1.522,0,0,0-.99859,1.37181c-.01619.88369-.00077,1.76738-.00617,2.65108h1.176c.02467-.85671-.05475-1.72112.04858-2.5732a.8282.8282,0,0,1,1.35561-.3925,1.17326,1.17326,0,0,1,.25292.839c.00232.70942-.00077,1.41807.00077,2.12673h1.176c-.00232-.86211.00308-1.72344-.00154-2.58554a1.51629,1.51629,0,0,0-.88215-1.38491A2.91957,2.91957,0,0,0,55.31186,18.15239Z"/><path class="cls-2" d="M68.78471,16.604h1.2145C70,17.72905,69.99766,18.8541,70,19.97915a2.30507,2.30507,0,0,1-.64156,1.67486,2.47932,2.47932,0,0,1-1.90234.6084,2.27163,2.27163,0,0,1-1.64863-.78884,2.30445,2.30445,0,0,1-.27066-2.3357,2.17666,2.17666,0,0,1,3.25023-.74181C68.78162,17.79922,68.78625,17.20161,68.78471,16.604Zm-1.39032,2.46139a1.09772,1.09772,0,1,0,.98625,1.91929,1.09721,1.09721,0,0,0-.98625-1.91929Z"/><path class="cls-2" d="M61.20161,18.74a2.17933,2.17933,0,0,1,1.64246-.7742,2.25225,2.25225,0,0,1,1.81982.6354,2.69351,2.69351,0,0,1,.57987,1.81828c-1.04948.00462-2.099-.00232-3.14844.00385a1.15427,1.15427,0,0,0,.55829.73024,1.97486,1.97486,0,0,0,1.772-.0586c-.03547.32541-.07172.65082-.10024.977a3.39559,3.39559,0,0,1-2.22466.02159,1.98845,1.98845,0,0,1-1.25537-1.351A2.27691,2.27691,0,0,1,61.20161,18.74Zm1.17748.33158a1.462,1.462,0,0,0-.30922.5151q.92649.01272,1.85453-.00077a1.33268,1.33268,0,0,0-.22748-.46884A.96.96,0,0,0,62.37909,19.07156Z"/><path class="cls-2" d="M51.2697,18.98134a.99557.99557,0,0,1,1.297.155,1.35769,1.35769,0,0,1,.19818.47269q-.95309.00577-1.907.00077A1.23326,1.23326,0,0,1,51.2697,18.98134Z"/><path class="cls-2" d="M46.431,19.09315a1.1918,1.1918,0,0,1,1.33325.29456,1.23377,1.23377,0,0,1,.05166,1.38414,1.12665,1.12665,0,1,1-1.38491-1.6787Z"/></svg>