<svg xmlns="http://www.w3.org/2000/svg" xmlns:xlink="http://www.w3.org/1999/xlink" viewBox="0 0 70 40"><defs><style>.cls-1{fill:#fff;}.cls-2{mask:url(#mask);}.cls-3{fill:url(#linear-gradient);}</style><mask id="mask" x="6.54279" y="6.5448" width="56.91441" height="22.07207" maskUnits="userSpaceOnUse"><path class="cls-1" d="M19.77566,10.45816s-.63063-.94594-1.1036,0a18.39236,18.39236,0,0,1-1.41892,2.20721s0,.15766-.94595.473c-1.08886.363-2.52252.31532-2.04955.78829s.473.78829.78829.78829,1.26126-.473.78829.15766-3.15316,4.57207-3.15316,4.57207-.63063.15766-.31531.31531c0,.31532-2.04955,3.62613-2.9955,6.464-.31531.94594.63063.63063.63063.63063a35.50567,35.50567,0,0,1,3.31082-6.30631A11.98692,11.98692,0,0,1,18.5144,18.814c.473,0,.63063-.63063-.473-.63063a11.23962,11.23962,0,0,0-3.62613.78829c0-.31532,3.62613-5.20271,3.62613-5.20271a1.72563,1.72563,0,0,1,.63063-.31531,25.05189,25.05189,0,0,1,6.62162-1.41892c2.04955-.15766.31531-.94595-.78829-.94595a27.69581,27.69581,0,0,0-5.2027,1.10361C19.30269,11.71942,20.24863,10.93114,19.77566,10.45816Z"/><path class="cls-1" d="M29.70809,16.92213c-.78829.15765-2.68018.94594-3.15315,2.52252a11.72053,11.72053,0,0,1-3.31081,2.04955c-.473.15766-.78829.15766-.473-.473s1.26127-2.20721.94595-2.68018-.31531-.473-.63063-.15766c-.15766-.15766-.31532-1.26126-.94595-.94595a12.42189,12.42189,0,0,0-4.09909,4.25676c0,.473.63063,1.1036,1.57657.473a25.58382,25.58382,0,0,0,2.52252-1.89189c0,.473-.78828,2.68018.63063,2.36486a11.38662,11.38662,0,0,0,4.0991-2.52252c.15766,0,2.52253.473,1.8919.94595a10.80579,10.80579,0,0,1-3.31081,1.57657c.15765.31532.78828.63064,2.2072,0s2.20721-.94594,2.20721-1.57657-.63063-1.26126-2.04955-1.57658c0-.63063,1.89189-1.89189,2.68018-1.89189C30.96935,17.23744,30.49638,16.76447,29.70809,16.92213Zm-7.56757,2.2072a13.60766,13.60766,0,0,1-2.83783,1.8919,10.45429,10.45429,0,0,1,2.99549-2.83784S22.6135,18.814,22.14052,19.12933Z"/><path class="cls-1" d="M60.29368,20.86357c-1.26126,0-2.83784.78829-4.0991.78829-.473,0-.78829-.473-.78829-1.41892s.63063-2.20721-.473-2.20721c-1.06893,0-2.87726,1.92343-2.99076,2.04324a10.39091,10.39091,0,0,0,1.25652-2.35856c0-.473-.31531-.63063-.78829,0a9.77854,9.77854,0,0,1-4.72973,2.68019c0-.31532.94595-1.41892.94595-2.52253s-1.57658-.94594-2.20721-.31531a23.20543,23.20543,0,0,1-6.14865,4.25675c-.15765,0-.63063-.31531.78829-2.83783.473-.78829,0-1.41892-.63063-.473s-2.2072,2.9955-3.78378,2.9955c-.78829,0-.63063-1.1036-.63063-1.1036s.31531-1.57658-.946-1.57658c-1.24234,0-3.85788,2.74955-3.93986,2.83626a66.18949,66.18949,0,0,1,3.7822-5.83176c1.8919-2.68018,2.52253-3.46847,2.52253-3.46847a.458.458,0,0,0-.15766-.78828c-.31532-.31532-1.26126,1.1036-1.26126,1.1036a56.47132,56.47132,0,0,0-5.991,9.61712.46864.46864,0,0,0,.473.63063s.473.31531,1.26126-.473A11.4297,11.4297,0,0,1,34.91079,19.76c.15766.15766-.31531,1.57658.31532,2.04955a3.85612,3.85612,0,0,0,3.78378-.63063c0,.31532.15766,2.04955,2.04955,1.10361s2.68018-1.89189,2.36487-.78829,0,1.41892.78829,1.41892a2.77531,2.77531,0,0,0,2.04955-.94595c.63063-.63063.473-.94594,1.26126-.94594a7.48691,7.48691,0,0,0,3.78378-1.57658c0,.473-1.26126,2.20721-1.26126,3.31081,0,.31532-.15766.78829.78829-.15766A16.80038,16.80038,0,0,1,54.618,18.97168c.31532.94594,0,.63063,0,1.73423s.63063,1.89189,1.41892,1.89189,1.41892-.94594,4.25676-1.1036C61.39728,21.4942,61.55494,20.86357,60.29368,20.86357Zm-14.97748.78829c-.78829.94594-.946.78828-.946.473a4.6186,4.6186,0,0,1,1.10361-2.52252s.15766.78829.473.94594S45.94683,21.02123,45.3162,21.65186Zm2.04955-2.68018c-.78829,1.26126-1.1036,1.41892-1.1036,1.1036,0-.94595,1.41891-2.36487,1.41891-2.36487S48.154,17.71041,47.36575,18.97168Z"/><path class="cls-1" d="M42.16305,15.50321a2.656,2.656,0,0,0-.63063,1.26126c0,.31531.473,0,1.26126-.94595s1.26126-1.41892.78829-1.57657-.94595.63063-.94595.63063Z"/></mask><linearGradient id="linear-gradient" x1="23.10695" y1="38.1802" x2="46.89305" y2="-3.01852" gradientUnits="userSpaceOnUse"><stop offset="0.2089" stop-color="#b9994e"/><stop offset="0.32" stop-color="#e5d8be"/><stop offset="0.34" stop-color="#b9994e"/><stop offset="0.4" stop-color="#e5d8be"/><stop offset="0.425" stop-color="#b9994e"/><stop offset="0.49" stop-color="#f7f4ec"/><stop offset="1" stop-color="#b9994e"/></linearGradient></defs><g id="Layer_2" data-name="Layer 2"><g id="Layer_1-2" data-name="Layer 1"><rect width="70" height="40" rx="3.70584"/><path class="cls-1" d="M17.9739,28.25891v-.24234h.9424V29.4552h-.28852v-.26928a.74579.74579,0,0,1-.5809.26928c-.2231,0-.83464-.03849-.83464-1.3772,0-1.09621.33456-1.50021.87313-1.50021a.68057.68057,0,0,1,.69621.76166h-.28852c.02309-.25389-.09992-.51932-.3923-.51932-.577,0-.60014.804-.60014,1.21569,0,.3846.01924,1.177.56165,1.177.26928,0,.56551-.21539.56551-.76935v-.1846Z"/><path class="cls-1" d="M23.15766,26.874h-.3769v2.285h.3769v.24233H22.119V29.159h.37321V26.874H22.119v-.24234h1.03863Z"/><path class="cls-1" d="M28.16837,26.874H26.97193v.96165h.89637V28.078h-.89637v1.32331h-.28837V26.63168h1.48481Z"/><path class="cls-1" d="M32.79449,26.874h-.7886v2.52729h-.28853V26.874h-.7732v-.24234h1.85033Z"/><path class="cls-1" d="M36.982,27.23183a.40087.40087,0,0,0-.40384-.4117c-.58475,0-.62324.79245-.62324,1.21954,0,.40384.04234,1.17319.59629,1.17319a.45864.45864,0,0,0,.46543-.48852h.28853a.71616.71616,0,0,1-.7655.73086c-.76166,0-.87313-.83479-.87313-1.42323,0-.60784.12687-1.45418.90777-1.45418a.67512.67512,0,0,1,.69622.654Z"/><path class="cls-1" d="M42.0812,29.40131h-.31147l-.24618-.81554h-.84249l-.24618.81554h-.31162l.977-3.00042Zm-1.33085-1.05787h.70391l-.354-1.11931Z"/><path class="cls-1" d="M45.06084,26.63168h.71931a.73279.73279,0,0,1,.754.78475.82653.82653,0,0,1-.49237.7655l.74626,1.21938h-.35011l-.67313-1.15395c-.13841.00385-.277.00385-.41539.0077v1.14625h-.28852Zm.56165,1.37719a.5525.5525,0,0,0,.62309-.60784c0-.3692-.15381-.527-.61154-.527h-.28468v1.13485Z"/><path class="cls-1" d="M49.60227,26.63168h.70392c.53471,0,.89252.30392.89252,1.38489,0,1.06542-.33087,1.38474-.93471,1.38474h-.66173Zm.28853,2.5273h.354c.4,0,.66542-.11163.66542-1.14241,0-1.06172-.30392-1.14255-.67312-1.14255H49.8908Z"/><g class="cls-2"><rect class="cls-3" x="6.54279" y="6.5448" width="56.91441" height="22.07207"/></g></g></g></svg>