<svg xmlns="http://www.w3.org/2000/svg" viewBox="0 0 70 40"><defs><style>.cls-1{fill:#fff;}.cls-2{fill:#009fe3;}.cls-3{fill:#3aaa35;}.cls-4{fill:#f39200;}</style></defs><g id="Layer_2" data-name="Layer 2"><g id="Layer_1-2" data-name="Layer 1"><rect class="cls-1" width="70" height="40" rx="3.70584"/><g id="Layer_2-2" data-name="Layer 2"><g id="Layer_1-2-2" data-name="Layer 1-2"><path class="cls-2" d="M37.50069,22.34926a.64081.64081,0,0,1-.14571,0,.75373.75373,0,0,1-.60117-.88023l.00155-.008.84059-4.29542L34.3877,15.86551a.75652.75652,0,0,1-.28019-1.20765l3.19144-3.5585a.7481.7481,0,0,1,.622-.24937.76494.76494,0,0,1,.57721.339L39.972,13.4306l2.15191,1.06755a.75686.75686,0,0,1-.67247,1.35615l-2.33684-1.15721a.74819.74819,0,0,1-.297-.26339l-1.04793-1.59151-1.82689,2.009,2.802,1.12078a.75653.75653,0,0,1,.45952.84059l-.96107,4.91185a.75652.75652,0,0,1-.74252.61083Z"/><path class="cls-2" d="M41.19648,10.20834a1.19083,1.19083,0,1,1-1.19363-1.188h.0056A1.19084,1.19084,0,0,1,41.19648,10.20834Z"/><path class="cls-2" d="M43.01216,23.641a3.64256,3.64256,0,1,1,3.64255-3.64256A3.64256,3.64256,0,0,1,43.01216,23.641Zm0-6.66588a3.01772,3.01772,0,1,0,3.01772,3.01772V19.99A3.02053,3.02053,0,0,0,43.01216,16.97509Z"/><path class="cls-2" d="M32.48236,23.641a3.64256,3.64256,0,1,1,3.64256-3.64256A3.64256,3.64256,0,0,1,32.48236,23.641Zm0-6.66588a3.01772,3.01772,0,1,0,3.01772,3.01772V19.99A3.02052,3.02052,0,0,0,32.48236,16.97509Z"/><path class="cls-3" d="M8.14167,23.94078a.821.821,0,0,1-.5604.20174H7.1946c-.37266,0-.61363.24658-.7201.74252l-.06725.30542h.56039a.58562.58562,0,0,1,.45953.18773.524.524,0,0,1,.13169.35025.64166.64166,0,0,1-.19614.48754.74249.74249,0,0,1-.51556.19053H6.17749l-.75373,3.86111a.72291.72291,0,0,1-.75653.67808.68645.68645,0,0,1-.47073-.17933A.62478.62478,0,0,1,4.00036,30.29v-.07845a.80179.80179,0,0,1,.01681-.09807l.72851-3.707h-.1429a.57719.57719,0,0,1-.45952-.18773.51273.51273,0,0,1-.1429-.36145.61925.61925,0,0,1,.21855-.47354.73134.73134,0,0,1,.51556-.19333h.241l.10928-.58a1.87161,1.87161,0,0,1,1.9978-1.75963h.64726a.608.608,0,0,1,.49034.19613.51556.51556,0,0,1,.1429.38387A.66408.66408,0,0,1,8.14167,23.94078Z"/><path class="cls-3" d="M10.07783,25.86853a.20768.20768,0,0,1-.01681.09807l-.84059,4.301a.71863.71863,0,0,1-.74533.67808.68369.68369,0,0,1-.47633-.17372A.62766.62766,0,0,1,7.80543,30.29a.67252.67252,0,0,1,.014-.17652L8.66,25.80409a.72291.72291,0,0,1,.75653-.67808.66125.66125,0,0,1,.47073.18213.622.622,0,0,1,.19614.47633C10.08343,25.80969,10.08063,25.83211,10.07783,25.86853Zm.311-1.7176a.78736.78736,0,0,1-.57721.23816.81814.81814,0,0,1-.58841-.23816.79017.79017,0,0,1-.24658-.58.80135.80135,0,0,1,.24658-.59121.81815.81815,0,0,1,.58841-.241.7733.7733,0,0,1,.57721.24657.80981.80981,0,0,1,.241.58561A.7958.7958,0,0,1,10.38885,24.15093Z"/><path class="cls-3" d="M15.5865,27.31435a2.11118,2.11118,0,0,1-.03363.2802l-.06444.37546a.5828.5828,0,0,1-.64418.51416l-.01148-.0014H12.38105v.10087c-.02242.19614-.03363.30822-.03363.339a.84058.84058,0,0,0,.213.60522.73688.73688,0,0,0,.56039.22416,2.24155,2.24155,0,0,0,.636-.10927,2.24152,2.24152,0,0,1,.49315-.10928.50064.50064,0,0,1,.56039.56039c0,.29981-.18773.51-.56039.62484a4.54746,4.54746,0,0,1-1.401.21856,1.73442,1.73442,0,0,1-1.45142-.594,2.1968,2.1968,0,0,1-.46232-1.45423,2.75443,2.75443,0,0,1,.01681-.297,2.52616,2.52616,0,0,1,.03923-.31382l.13169-.76494a3.11023,3.11023,0,0,1,.78735-1.68118,2.37607,2.37607,0,0,1,1.78486-.7117,1.83246,1.83246,0,0,1,1.401.524,1.995,1.995,0,0,1,.48754,1.401A1.24108,1.24108,0,0,1,15.5865,27.31435Zm-1.93616-1.03953c-.5604,0-.91905.33343-1.05074,1.00591l-.02242.10927h1.65316v-.10927a.84927.84927,0,0,1,.014-.19614.48338.48338,0,0,0,0-.1429C14.264,26.49617,14.05942,26.27482,13.65034,26.27482Z"/><path class="cls-3" d="M19.87911,26.20477a.79292.79292,0,0,1-.52957.19053H18.551l-.38387,1.93616a2.97,2.97,0,0,0-.07565.622.56038.56038,0,0,0,.622.62484H18.834a.60522.60522,0,0,1,.49314.19614.51556.51556,0,0,1,.1429.38387.67525.67525,0,0,1-.21855.51836.8098.8098,0,0,1-.56039.20455h-.325q-1.73162,0-1.72882-1.642a4.42159,4.42159,0,0,1,.09807-.90783l.39228-1.939h-.08686a.51557.51557,0,0,1-.59122-.538.61924.61924,0,0,1,.20735-.47353.73132.73132,0,0,1,.51276-.19053H17.377l.15411-.80977a.72292.72292,0,0,1,.75934-.67808.67529.67529,0,0,1,.47073.18213.61365.61365,0,0,1,.19613.47353.75615.75615,0,0,1-.01961.17653l-.12048.65566h.68928a.636.636,0,0,1,.47073.17652.56044.56044,0,0,1,.12889.36146A.59963.59963,0,0,1,19.87911,26.20477Z"/><path class="cls-3" d="M23.86631,26.48217c.05324,0-.10087-.03363-.45952-.09807l-.2802-.03923a1.68015,1.68015,0,0,0-.22416,0c-.61363,0-.919.16532-.919.50155,0,.19054.19894.36426.60242.52677a6.44411,6.44411,0,0,1,1.12079.53518,1.401,1.401,0,0,1,.59962,1.202,1.59152,1.59152,0,0,1-.74252,1.401,3.23634,3.23634,0,0,1-1.79326.4371,4.30659,4.30659,0,0,1-.93025-.09807c-.54078-.12608-.80977-.35865-.80977-.70049a.538.538,0,0,1,.60242-.61363.71747.71747,0,0,1,.23817.04483,1.96068,1.96068,0,0,0,.33063.09807,2.80131,2.80131,0,0,0,.61923.07565c.73692,0,1.10678-.19053,1.10678-.56039,0-.17652-.12889-.325-.38387-.44831l-.44831-.18774c-.16252-.08686-.30261-.1457-.44271-.20454a1.5822,1.5822,0,0,1-1.06195-1.457,1.53829,1.53829,0,0,1,.7061-1.345,2.93929,2.93929,0,0,1,1.66156-.4259,3.55578,3.55578,0,0,1,.86581.09807c.44551.10928.66687.32783.66687.65566C24.49115,26.28323,24.2838,26.48217,23.86631,26.48217Z"/><path class="cls-3" d="M29.91576,27.31435a2.08557,2.08557,0,0,1-.03082.2802l-.056.37266a.58.58,0,0,1-.63855.51485L29.17324,28.48H26.71031v.10087c-.01961.19614-.03082.30822-.03082.339a.84058.84058,0,0,0,.21295.60522.73688.73688,0,0,0,.56039.22416,2.22479,2.22479,0,0,0,.63325-.10927,2.28617,2.28617,0,0,1,.49314-.10928.50064.50064,0,0,1,.5604.56039c0,.29981-.18493.51-.5604.62484a4.5336,4.5336,0,0,1-1.401.21856,1.73723,1.73723,0,0,1-1.43181-.60243,2.19675,2.19675,0,0,1-.45952-1.45422,2.75605,2.75605,0,0,1,.0084-.2858,2.088,2.088,0,0,1,.03923-.31382l.11768-.76494a3.113,3.113,0,0,1,.79016-1.68118,2.37044,2.37044,0,0,1,1.782-.7117,1.84088,1.84088,0,0,1,1.4178.524,1.99224,1.99224,0,0,1,.48474,1.401A2.68945,2.68945,0,0,1,29.91576,27.31435ZM27.9796,26.27482c-.56039,0-.919.33343-1.04793,1.00591l-.02242.10927h1.65036v-.10927a.71137.71137,0,0,1,.01681-.19614.40385.40385,0,0,0,0-.1429C28.59323,26.49617,28.37748,26.27482,27.9796,26.27482Z"/><path class="cls-3" d="M35.76907,27.0958a2.45577,2.45577,0,0,1-.06445.42589l-.524,2.74593a.84057.84057,0,0,1-.2802.49875.74813.74813,0,0,1-.48754.17933.66406.66406,0,0,1-.47073-.18493.636.636,0,0,1-.19614-.48194.728.728,0,0,1,0-.17652l.51556-2.61424a1.63548,1.63548,0,0,0,.04483-.35024c0-.41469-.17932-.622-.53517-.622a1.8885,1.8885,0,0,0-1.01712.35025c-.01681.09526-.028.18212-.03922.26058s-.02522.15131-.03923.21015l-.56039,2.93085a.72011.72011,0,0,1-.75373.67808.68644.68644,0,0,1-.46233-.17933.61645.61645,0,0,1-.19894-.47633v-.07845a.21334.21334,0,0,1,.01681-.09807l.62484-3.2699a.63041.63041,0,0,0-.10927-.56039.5884.5884,0,0,1-.16252-.50155.70619.70619,0,0,1,.807-.594.891.891,0,0,1,.75373.38387,3.79681,3.79681,0,0,1,1.61953-.44832c1.03113,0,1.54389.54078,1.54389,1.61674A3.40959,3.40959,0,0,1,35.76907,27.0958Z"/><path class="cls-3" d="M41.75408,27.19947c-.014.1485-.03643.30261-.06725.46513l-.16252.88542a3.53566,3.53566,0,0,1-.77054,1.83249,2.03425,2.03425,0,0,1-1.53828.56039,2.39288,2.39288,0,0,1-1.359-.4287,1.28894,1.28894,0,0,1-.95828.4287c-.51276,0-.74532-.19614-.70329-.59122a.96671.96671,0,0,1,.43991-.58841,1.12074,1.12074,0,0,0,.30541-.66967L37.991,23.63537a.71731.71731,0,0,1,.75373-.67528.66405.66405,0,0,1,.47633.17653.61362.61362,0,0,1,.19334.47913.68894.68894,0,0,1,0,.17653L39.109,25.37819a2.76843,2.76843,0,0,1,1.07315-.25218,1.43646,1.43646,0,0,1,1.61954,1.63075C41.77649,26.90246,41.76808,27.051,41.75408,27.19947Zm-2.10148-.82658a1.54385,1.54385,0,0,0-.81817.28019l-.52677,2.78236a.94426.94426,0,0,0,.66686.2802,1.03548,1.03548,0,0,0,1.08436-.9947l.23817-1.29171a1.74287,1.74287,0,0,0,.04484-.37266.60243.60243,0,0,0-.68929-.68368Z"/><path class="cls-3" d="M47.11424,28.847A2.38672,2.38672,0,0,1,44.5,30.9457a1.86331,1.86331,0,0,1-1.47664-.56039,1.995,1.995,0,0,1-.41469-1.31413V28.805a2.00787,2.00787,0,0,1,.03362-.2802,1.4364,1.4364,0,0,1,.01682-.15131,1.89744,1.89744,0,0,1,.06164-.33063l.1513-.821a2.37534,2.37534,0,0,1,2.62545-2.08746,1.86885,1.86885,0,0,1,1.47663.58,1.96136,1.96136,0,0,1,.4175,1.30011,4.12287,4.12287,0,0,1-.01681.45112,1.93919,1.93919,0,0,1-.09247.45952ZM45.95983,27.348v-.12328c0-.51837-.21856-.77615-.65566-.77615a.99949.99949,0,0,0-1.02832.96388l-.19614,1.05914a1.1203,1.1203,0,0,0-.028.19334.49112.49112,0,0,1-.01681.15691c-.02242.56039.19894.84059.66687.84059.52677,0,.8602-.33063,1.0059-.98629l.17653-.84059a.28017.28017,0,0,1,0-.05324.35841.35841,0,0,1,.01681-.12049c.02242-.10927.03082-.16811.03082-.17652A1.01442,1.01442,0,0,0,45.95983,27.348Z"/><path class="cls-3" d="M53.371,27.0958a2.22875,2.22875,0,0,1-.06725.42589l-.524,2.74593a.79857.79857,0,0,1-.2802.49875.74813.74813,0,0,1-.48754.17933.664.664,0,0,1-.47073-.18493.636.636,0,0,1-.19614-.48194.728.728,0,0,1,0-.17652l.50155-2.61424a1.63612,1.63612,0,0,0,.04483-.35025q0-.622-.538-.622a1.91094,1.91094,0,0,0-1.01712.35024c-.014.09527-.02522.18213-.03643.26059a1.57649,1.57649,0,0,1-.03922.21014l-.5604,2.93086a.72011.72011,0,0,1-.75373.67808.68649.68649,0,0,1-.47073-.17933.61641.61641,0,0,1-.19613-.47633v-.07846a.21332.21332,0,0,1,.01681-.09806l.62484-3.2699a.62207.62207,0,0,0-.10928-.56039.59967.59967,0,0,1-.16532-.50156.71382.71382,0,0,1,.80977-.594.8994.8994,0,0,1,.75653.38387,3.77418,3.77418,0,0,1,1.61674-.44832c1.03112,0,1.54388.54078,1.54388,1.61674A3.40646,3.40646,0,0,1,53.371,27.0958Z"/><path class="cls-4" d="M55.64343,30.72715a.8807.8807,0,1,1,0-1.25248.88262.88262,0,0,1,0,1.24127Z"/><path class="cls-3" d="M62.50545,27.0958c-.014.12889-.03643.28019-.06445.42589l-.52677,2.74593a.79856.79856,0,0,1-.26618.49875.74813.74813,0,0,1-.48755.17933.66408.66408,0,0,1-.47073-.18493.636.636,0,0,1-.19613-.48194.728.728,0,0,1,0-.17652l.50155-2.61424a1.63676,1.63676,0,0,0,.04483-.35025c0-.41469-.17932-.622-.53518-.622a1.90534,1.90534,0,0,0-1.01991.35024c-.014.09527-.02522.18213-.03643.26059s-.02522.1513-.03923.21014l-.56039,2.93086a.72011.72011,0,0,1-.75373.67808.68649.68649,0,0,1-.47073-.17933.61645.61645,0,0,1-.19894-.47633.44311.44311,0,0,1,0-.07846v-.09806l.65286-3.2699a.622.622,0,0,0-.10928-.56039.608.608,0,0,1-.16531-.50156.71381.71381,0,0,1,.80977-.594.89943.89943,0,0,1,.75653.38387,3.76568,3.76568,0,0,1,1.61673-.44832c1.02832,0,1.54389.54078,1.54389,1.61674A3.40959,3.40959,0,0,1,62.50545,27.0958Z"/><path class="cls-3" d="M65.97428,23.79228l-1.06194,5.50306a.4374.4374,0,0,0,0,.10087.56128.56128,0,0,0,0,.09527.63882.63882,0,0,0,.17092.40348.56042.56042,0,0,1,.12889.48194c-.07285.37827-.34464.56039-.81817.56039a.92184.92184,0,0,1-.64726-.25217,1.12081,1.12081,0,0,1-.30541-.84059,5.65077,5.65077,0,0,1,.1401-1.04794l.9975-5.164a.72291.72291,0,0,1,.75653-.67807.6613.6613,0,0,1,.46793.17932.61643.61643,0,0,1,.19613.47634A.75653.75653,0,0,1,65.97428,23.79228Z"/></g></g></g></g></svg>