<svg id="Layer_1" data-name="Layer 1" xmlns="http://www.w3.org/2000/svg" viewBox="0 0 70 40"><defs><style>.cls-1{fill:#fff;}.cls-2{fill:#fffffd;}.cls-3{fill:#202542;}.cls-4{fill:#25253e;}.cls-5{fill:#00a2d8;}.cls-6{fill:#202541;}.cls-7{fill:#e6bb39;}.cls-8{fill:#c6603c;}.cls-9{fill:#fefffd;}.cls-10{fill:#feffff;}.cls-11{fill:#3e6996;}.cls-12{fill:#fefffb;}.cls-13{fill:#2f2d5e;}.cls-14{fill:#312c5f;}.cls-15{fill:#fffdfa;}.cls-16{fill:#fffffc;}.cls-17{fill:#c65f3c;}.cls-18{fill:#43734b;}.cls-19{fill:#f9e2c2;}.cls-20{fill:#fefffc;}.cls-21{fill:#fcebdf;}.cls-22{fill:#fcfffd;}.cls-23{fill:#fff139;}.cls-24{fill:#fce9dc;}.cls-25{fill:#fce6df;}.cls-26{fill:#4e5782;}.cls-27{fill:#fcfdff;}.cls-28{fill:#b9dae1;}.cls-29{fill:#fef16f;}.cls-30{fill:#fdffff;}.cls-31{fill:#e7bb38;}.cls-32{fill:#fefefd;}.cls-33{fill:#5e3148;}.cls-34{fill:#fffefe;}.cls-35{fill:#fefefe;}.cls-36{fill:#a8c64a;}.cls-37{fill:#862637;}.cls-38{fill:#fdfffd;}.cls-39{fill:#442c5e;}.cls-40{fill:#642c69;}.cls-41{fill:#852737;}.cls-42{fill:#822837;}.cls-43{fill:#aa292e;}.cls-44{fill:#ebffff;}.cls-45{fill:#3da4c6;}.cls-46{fill:#00a7de;}.cls-47{fill:#3aa1c6;}.cls-48{fill:#00a4e2;}.cls-49{fill:#00a6e5;}.cls-50{fill:#00aae8;}.cls-51{fill:#aa282e;}.cls-52{fill:#00a9e8;}.cls-53{fill:#00aaec;}.cls-54{fill:#00aaeb;}.cls-55{fill:#16a9fb;}.cls-56{fill:#52abc6;}.cls-57{fill:#4fa5c1;}.cls-58{fill:#ffef4c;}.cls-59{fill:#fcfffc;}.cls-60{fill:#bcd4bf;}.cls-61{fill:#82a387;}.cls-62{fill:#a8c649;}.cls-63{fill:#e7bb39;}.cls-64{fill:#fcffff;}.cls-65{fill:#fffffa;}.cls-66{fill:#202643;}.cls-67{fill:#202642;}.cls-68{fill:#0f2767;}.cls-69{fill:#ab292f;}.cls-70{fill:#fff9f3;}.cls-71{fill:#b3252d;}.cls-72{fill:#fffcff;}.cls-73{fill:#a77c7b;}.cls-74{fill:#b1262c;}.cls-75{fill:#aa2a2d;}.cls-76{fill:#fff8ff;}.cls-77{fill:#fefeff;}.cls-78{fill:#fdfffe;}.cls-79{fill:#c85f3e;}.cls-80{fill:#fdfbfa;}.cls-81{fill:#6f806c;}.cls-82{fill:#587e5d;}.cls-83{fill:#40734c;}.cls-84{fill:#909a8d;}.cls-85{fill:#fffdff;}.cls-86{fill:#442c5f;}.cls-87{fill:#f0f7fd;}.cls-88{fill:#d5dee0;}.cls-89{fill:#42734b;}.cls-90{fill:#fdf9b2;}.cls-91{fill:#fefefc;}.cls-92{fill:#fefdff;}</style></defs><rect class="cls-1" width="70" height="40" rx="3.70584"/><g id="_fffffdff" data-name="#fffffdff"><path class="cls-2" d="M26.10326,6.97828c.19963-.00919.39926-.0147.59949-.02082a2.378,2.378,0,0,1,.13962,1.70478,1.83208,1.83208,0,0,1-.87015.04347A6.64452,6.64452,0,0,1,25.98937,7.263C26.02182,7.16627,26.06468,7.07319,26.10326,6.97828Z"/><path class="cls-2" d="M43.86259,7.48836c.14636-.00061.2927-.00061.44028-.00122,0,.2082,0,.4164-.00122.62521-.14574-.00123-.29148-.00184-.43661-.00368Q43.86045,7.79913,43.86259,7.48836Z"/><path class="cls-2" d="M24.96246,11.30452c.16717-.03429.31046.08144.45436.147.14635-.07225.29944-.19656.47212-.13716a1.84632,1.84632,0,0,1,.3668.41027,1.90358,1.90358,0,0,1-.38088.12615c-.00429.22473-.00551.44946-.008.67419-.29883.00674-.59827.00857-.89709-.00857.00061-.20759.00061-.41456-.00368-.62154a2.353,2.353,0,0,1-.39864-.1739A1.46434,1.46434,0,0,1,24.96246,11.30452Z"/><path class="cls-2" d="M20.515,12.4092c.46294-.00919.9271-.01654,1.39.00612-.03857.16717-.0845.33312-.1243.5009a1.921,1.921,0,0,0,.22963-.15982c.02327-.11329-.05511-.22106-.07165-.33189.06981.08205.207.14635.17942.27433-.03184.25535-.35271.24922-.49784.41394-.177.19534-.466.11451-.69869.11268A1.00848,1.00848,0,0,1,20.515,12.4092Z"/><path class="cls-2" d="M30.511,25.43262a.27413.27413,0,0,1,.24922-.30188,3.01118,3.01118,0,0,1,.66012.00857c.12491.02817.16043.1684.22044.26392-.131.09124-.33067.15676-.346.34292a4.99739,4.99739,0,0,0-.00061.71644c-.25045-.03674-.63011.10349-.76421-.188A5.08262,5.08262,0,0,1,30.511,25.43262Z"/><path class="cls-2" d="M43.39782,26.33094c.29332.02511.42313.338.41762.597A2.35012,2.35012,0,0,0,43.39782,26.33094Z"/><path class="cls-2" d="M43.87545,26.74489a.61281.61281,0,0,1,.23147-.44886c-.00429.12247.04654.275-.0496.376A1.78883,1.78883,0,0,1,43.87545,26.74489Z"/><path class="cls-2" d="M32.78521,30.52675c.00612-.08144.07593-.161.15982-.11267.1188.11083.27923.23208.26637.41333.03185.2033-.15676.32638-.26147.47212-.05388-.019-.10655-.03735-.15982-.05572A3.59812,3.59812,0,0,1,32.78521,30.52675Z"/><path class="cls-2" d="M25.19883,31.94923c.06552.03491.21738.00123.21493.10533.03245.12614-.12982.14023-.21555.15064C25.19821,32.14151,25.19883,32.01353,25.19883,31.94923Z"/><path class="cls-2" d="M24.78182,32.47892a6.392,6.392,0,0,1,1.02139-.00062l-.14941.08573a6.62043,6.62043,0,0,1-.74768-.00367C24.87551,32.54015,24.81305,32.49973,24.78182,32.47892Z"/><path class="cls-2" d="M31.01185,34.1194a1.95838,1.95838,0,0,1,.447.02633,3.12688,3.12688,0,0,0,.73543-.05634.74246.74246,0,0,1-.52172,1.12979.71911.71911,0,0,1-.78932-.71951A.4258.4258,0,0,1,31.01185,34.1194Z"/><path class="cls-2" d="M37.9222,34.92892q.21311-.00091.42742-.00122c-.022.22351-.0349.44762-.04776.67174-.11084,0-.22106,0-.33128.00062C37.95711,35.37594,37.9418,35.15182,37.9222,34.92892Z"/><path class="cls-2" d="M37.96813,35.665c.11144-.00061.22289-.00061.33434.00062-.00551.07654-.01164.1537-.01715.23085l-.30188-.00184C37.97792,35.81744,37.973,35.7409,37.96813,35.665Z"/></g><g id="_202542ff" data-name="#202542ff"><path class="cls-3" d="M18.19356,18.87192a1.50238,1.50238,0,0,1,1.00609-.82483,1.79516,1.79516,0,0,1,1.4231.2578.19972.19972,0,0,1,.04776.28229c-.0594.10961-.14268.3025-.29822.218a1.33859,1.33859,0,0,0-.99139-.20147,1.08329,1.08329,0,0,0-.77952,1.07467,1.17077,1.17077,0,0,0,.63746,1.11019.96152.96152,0,0,0,1.13529-.27923c.01347-.10961.01164-.21983.01654-.32883a4.21822,4.21822,0,0,1-.44763-.03919c-.019-.1635-.10839-.39619.05756-.50886a4.673,4.673,0,0,1,.81748-.00245l.07594.06613c.02633.46416.00245.93077.01224,1.39554-.00979.10227.02511.24127-.0943.29087a.78908.78908,0,0,1-.2627.00919c-.11879-.02572-.11695-.16044-.15615-.25046a1.44864,1.44864,0,0,1-2.085-.33985A2.00535,2.00535,0,0,1,18.19356,18.87192Z"/><path class="cls-3" d="M32.79684,18.16772c.087-.20085.36925-.08083.5401-.08879.01959,1.09121.00979,2.183.00551,3.27423a.683.683,0,0,1-.46906.00551,1.49789,1.49789,0,0,1-.08451-.21187.9075.9075,0,0,1-1.35145-.00368,1.663,1.663,0,0,1-.25106-1.39493.98416.98416,0,0,1,.91668-.815.88615.88615,0,0,1,.6791.25657c.011-.34047-.019-.68277.01469-1.022m-.60561,1.29879c-.44579.10655-.55295.665-.4268,1.04589a.51575.51575,0,0,0,.67848.36925.83259.83259,0,0,0,.31107-.99384A.53518.53518,0,0,0,32.19123,19.46651Z"/><path class="cls-3" d="M33.89846,18.33428c-.00612-.11512.011-.29209.169-.27494.14757-.00184.40537-.05389.40415.16594a10.38716,10.38716,0,0,1-.00061,1.11325.91577.91577,0,0,1,.75624-.406.67088.67088,0,0,1,.70359.4213,7.10686,7.10686,0,0,0-.01714,1.97421l-.01776.03919c-.14329.05879-.43538.07961-.45375-.13043-.03735-.47763.011-.95832-.02021-1.436a.31418.31418,0,0,0-.26576-.30127.627.627,0,0,0-.63133.458c-.10838.44824.02021.91974-.0796,1.37043-.14819.11573-.54806.13533-.54377-.12859C33.8954,20.24419,33.90213,19.28893,33.89846,18.33428Z"/><path class="cls-3" d="M41.51546,18.06913a2.55815,2.55815,0,0,1,.51682.00919c.02021,1.09059.00919,2.18241.00552,3.27361a.6941.6941,0,0,1-.46907.00858,1.75668,1.75668,0,0,1-.0845-.21616.9037.9037,0,0,1-1.32144.03061,1.62058,1.62058,0,0,1-.28046-1.42738.98234.98234,0,0,1,.91668-.81442.88577.88577,0,0,1,.67971.25718,7.13079,7.13079,0,0,1,.03674-1.12121m-.62827,1.39677c-.4464.10777-.55356.6644-.42742,1.04712a.51278.51278,0,0,0,.67849.36741.82764.82764,0,0,0,.31046-.99262A.53824.53824,0,0,0,40.88719,19.4659Z"/><path class="cls-3" d="M44.60292,18.07832c.38517-.038.77278-.01837,1.15918-.01776a.87731.87731,0,0,1,.8034.44824.97828.97828,0,0,1-.22045,1.11692.98255.98255,0,0,1,.17146,1.48311,1.35455,1.35455,0,0,1-.99813.28719c-.28106-.00918-.56336.01715-.84259-.01286-.139-.06246-.07838-.23391-.09369-.35332.01592-.98343-.02327-1.96931.02082-2.95152m.54989.51437q.00183.40875.00122.81687a4.13711,4.13711,0,0,0,.6344-.01653.4213.4213,0,0,0,.04776-.76176,2.47428,2.47428,0,0,0-.68338-.03858m.00062,1.32757c-.00062.3074.0006.6148,0,.9222a3.72092,3.72092,0,0,0,.76237-.03.48245.48245,0,0,0-.04593-.8781A6.07472,6.07472,0,0,0,45.15343,19.92026Z"/><path class="cls-3" d="M26.73582,18.96133a1.27906,1.27906,0,0,1,1.109.26453,1.31849,1.31849,0,0,1-.08022,1.99136,1.26749,1.26749,0,0,1-1.75009-.28474A1.40076,1.40076,0,0,1,25.884,19.7041a1.17241,1.17241,0,0,1,.85178-.74277m.19228.504a.70316.70316,0,0,0-.51989.52662.73956.73956,0,0,0,.49845.913.67345.67345,0,0,0,.76544-.673A.69448.69448,0,0,0,26.9281,19.46529Z"/><path class="cls-3" d="M29.192,19.35935a.89151.89151,0,0,1,1.35635-.20452,1.6511,1.6511,0,0,1,.20024,1.01282,7.966,7.966,0,0,1-.03735,1.15979c-.14942.11573-.54744.13717-.545-.12859-.011-.44579.00673-.8922-.0049-1.338a.34332.34332,0,0,0-.2725-.36007.64685.64685,0,0,0-.66072.55173c-.06859.41211,0,.83279-.04042,1.24735-.08756.15187-.29147.09063-.43476.08818-.13227-.03919-.12186-.18921-.12125-.2976.00612-.64848-.00612-1.29757.00551-1.946.02449-.248.349-.13288.51376-.1286C29.16929,19.12911,29.18215,19.24423,29.192,19.35935Z"/><path class="cls-3" d="M42.96856,18.9748a1.2363,1.2363,0,0,1,.93629.11267c.20758.09246.10287.40476-.05267.48681-.24983-.01224-.49477-.23085-.74706-.10165a.18433.18433,0,0,0-.03552.32149c.25229.17513.58541.19962.81442.41395a.71393.71393,0,0,1,.16289.74584.77535.77535,0,0,1-.62643.48314,1.301,1.301,0,0,1-.91791-.21616c-.24249-.11083-.01837-.57989.2131-.45375.21983.09124.47395.267.71277.12982a.18483.18483,0,0,0,.03184-.32026c-.23943-.1684-.54989-.20085-.77768-.38823a.70912.70912,0,0,1-.16227-.87443A.723.723,0,0,1,42.96856,18.9748Z"/><path class="cls-3" d="M47.98431,18.96133a1.29,1.29,0,0,1,1.0759.23636,1.32913,1.32913,0,0,1,.08511,1.9093,1.2817,1.2817,0,0,1-1.67967.05144,1.34,1.34,0,0,1-.316-1.49658,1.16724,1.16724,0,0,1,.83463-.70052m.19228.504a.69877.69877,0,0,0-.51928.52662.7383.7383,0,0,0,.49846.913.67291.67291,0,0,0,.76482-.673A.69362.69362,0,0,0,48.17659,19.46529Z"/><path class="cls-3" d="M23.64285,19.0195c.61908-.05511,1.24429-.02388,1.86521-.01837.01225.15125.05511.327-.06123.45007-.3521.4709-.69134.951-1.05753,1.41085.38088.00858.763-.01592,1.14264.01776a1.541,1.541,0,0,1,.01776.43416c-.08757.109-.23882.07409-.36006.08266-.488-.00979-.97608.01042-1.4629-.00857-.21065-.02021-.169-.30433-.079-.42925.35393-.4856.71583-.96629,1.079-1.44576a10.15733,10.15733,0,0,1-1.08386-.02755A2.75305,2.75305,0,0,1,23.64285,19.0195Z"/></g><g id="_25253eff" data-name="#25253eff"><path class="cls-4" d="M38.91727,19.006a2.34512,2.34512,0,0,1,.4862-.0049c.04531.7342.01286,1.47269.019,2.20813.02817.19411-.20085.20268-.33617.1886a.18816.18816,0,0,1-.22535-.1984c-.00551-.6099.00245-1.2198-.00367-1.82909A.62811.62811,0,0,1,38.91727,19.006Z"/><path class="cls-4" d="M25.26863,31.89963a.18249.18249,0,0,1,.06859.357c-.23086.06981-.29944-.34046-.06859-.357m-.0698.0496c0,.0643-.00062.19228-.00062.256.08573-.01041.248-.0245.21555-.15064C25.41621,31.95046,25.26435,31.98414,25.19883,31.94923Z"/></g><g id="_00a2d8ff" data-name="#00a2d8ff"><path class="cls-5" d="M34.57939,10.348a1.325,1.325,0,0,1,1.49046.834,1.32332,1.32332,0,1,1-2.51921.1439,1.31784,1.31784,0,0,1,1.02875-.97792m.05879.47886a.84472.84472,0,1,0,1.03793.76972A.85737.85737,0,0,0,34.63818,10.82689Z"/><path class="cls-5" d="M42.11127,30.24446a1.08961,1.08961,0,1,1-.673.60867,1.09353,1.09353,0,0,1,.673-.60867m.31108.42742a1.24269,1.24269,0,0,0-.4513.88178.45026.45026,0,0,0,.477.41394.477.477,0,0,0,.44211-.58479A1.52484,1.52484,0,0,0,42.42235,30.67188Z"/></g><g id="_202541ff" data-name="#202541ff"><path class="cls-6" d="M50.438,19.3618a.91283.91283,0,0,1,1.26144-.29515c.3025.22351.28474.64113.2976.97853a9.63157,9.63157,0,0,1-.03735,1.28287c-.15.11451-.54683.13594-.54561-.12859-.01163-.447.008-.89464-.0049-1.341a.344.344,0,0,0-.27-.35762.65791.65791,0,0,0-.67175.60807c-.05205.39435.00674.79421-.03245,1.18979-.07042.14268-.25474.09124-.3815.09675a.17789.17789,0,0,1-.17084-.19595c-.00551-.6099.00306-1.2198-.00245-1.82909A.604.604,0,0,1,49.942,19.006a1.36567,1.36567,0,0,1,.45987.00979C50.4184,19.13033,50.43,19.24545,50.438,19.3618Z"/></g><g id="_e6bb39ff" data-name="#e6bb39ff"><path class="cls-7" d="M32.43433,3.22581A1.71733,1.71733,0,1,1,31.19984,5.276a1.72622,1.72622,0,0,1,1.23449-2.05014m-.55111.88668a.60384.60384,0,0,0-.06613.48988,2.63956,2.63956,0,0,1,.03674,1.049c.22228-.071.10287-.32026.10532-.48621a1.80821,1.80821,0,0,1,.12247-.73726c.03-.14635-.10961-.22841-.1984-.31536m1.34043.04654a.75651.75651,0,0,0-.635.44089.715.715,0,1,0,1.338.49355.74036.74036,0,0,0-.703-.93444m-1.0465.05572a4.91968,4.91968,0,0,0,.06123.50947,7.35259,7.35259,0,0,1,.019.9369c.04409-.0196.13289-.05879.17759-.07777a1.66438,1.66438,0,0,1-.041-.8034,2.06212,2.06212,0,0,0,.07593-.57683C32.37187,4.20679,32.27451,4.21108,32.17715,4.21475Z"/><path class="cls-7" d="M33.05281,4.34089a.57613.57613,0,1,1-.24862.92587.58758.58758,0,0,1,.24862-.92587m.05939.05083a.528.528,0,0,0-.37843.57193.51294.51294,0,0,0,.5952.42252.50367.50367,0,0,0,.35762-.7489A.52918.52918,0,0,0,33.1122,4.39172Z"/><path class="cls-7" d="M49.34005,11.87278a.60934.60934,0,1,1-.376.80156A.614.614,0,0,1,49.34005,11.87278Z"/><path class="cls-7" d="M28.69717,12.28734a.98771.98771,0,1,1-.687.78564A.99912.99912,0,0,1,28.69717,12.28734Z"/><path class="cls-7" d="M44.80806,23.99728a.54648.54648,0,1,1-.20391.88117A.552.552,0,0,1,44.80806,23.99728Z"/><path class="cls-7" d="M37.15432,25.173a1.705,1.705,0,0,1,1.20938.19105,1.65618,1.65618,0,0,1,.774,1.714,1.6737,1.6737,0,0,1-.77707,1.12121,1.70719,1.70719,0,0,1-1.19775.19289,1.65063,1.65063,0,0,1-.00857-3.21911m.19656.72624c-.10655.10594-.1984.28535-.0845.42069a.288.288,0,0,0,.51376-.06307c.07287-.12554-.04348-.25168-.07349-.37231a2.37492,2.37492,0,0,0-.35577.01469m-.55234.289q-.07349.147-.15064.2927c.08573.1041.12921.29209.29454.28229.23576.049.447-.30066.26331-.47763-.07409-.15186-.27249-.0796-.40721-.09736m1.082-.00245a2.07164,2.07164,0,0,0-.12369.289,2.069,2.069,0,0,0,.14574.30434,2.11629,2.11629,0,0,0-.14942.3123,1.84863,1.84863,0,0,0,.14268.28229c.11635-.00184.2333-.00184.35026-.00184a1.72949,1.72949,0,0,0,.101-.28107,1.75089,1.75089,0,0,0-.10716-.31168c.05082-.15248.1684-.33128.05389-.48376-.07961-.1537-.27556-.0894-.41334-.10961m-.60745.54989c.05266.09736.10533.19534.15921.29332.11818-.06185.35088-.10717.29638-.28964-.01592-.13778-.18554-.14452-.28229-.20269q-.08727.0992-.1733.199m-.35271.06552c-.15493.00307-.19105.18554-.27372.28658q.079.14053.15554.28474c.13043-.02021.30984.041.39374-.09124a.29273.29273,0,0,0-.27556-.48008m.3472.444a.2423.2423,0,0,0-.00061.30434c.07409.18187.29454.10655.447.12615a.5544.5544,0,0,0,.00306-.50948C37.57377,27.0976,37.3472,27.07188,37.2676,27.24517Z"/></g><g id="_c6603cff" data-name="#c6603cff"><path class="cls-8" d="M29.43444,30.90885a.77842.77842,0,1,1-.51866.77156A.77862.77862,0,0,1,29.43444,30.90885Z"/></g><g id="_fefffdff" data-name="#fefffdff"><path class="cls-9" d="M37.03185,3.92327a.76611.76611,0,0,1,.75012.1586.54008.54008,0,0,1-.35087.8677c-.3968.01408-.66624-.32945-.98343-.51438-.166-.07776-.12921-.28657-.03674-.40721a3.06109,3.06109,0,0,1,.62092-.10471m-.54989.16962c-.01592.07042-.03123.14145-.04654.21249.24371.1488.45987.33985.70787.48192a.42545.42545,0,1,0,.338-.77218A5.2871,5.2871,0,0,0,36.482,4.09289Z"/><path class="cls-9" d="M44.009,6.52759c.1739-.12369.2878.09859.39006.2082a.93676.93676,0,0,1,.259-.256.26639.26639,0,0,1,.22229.16043.35861.35861,0,0,1-.3472.31046A.60372.60372,0,0,1,43.99,6.81233c-.08205-.07532-.10165-.23636.019-.28474m.03918.06613c-.11083.17942.1733.24739.29454.29883-.06919-.11512-.11634-.3472-.29454-.29883m.40477.297a.58056.58056,0,0,0,.37353-.26147C44.62068,6.50187,44.52209,6.73946,44.4529,6.89071Z"/><path class="cls-9" d="M44.49515,7.04564c.177-.00368.35394-.00368.53152.00122-.00245.12063-.00429.24188-.00674.36312q-.26178-.00091-.52294,0C44.49637,7.28874,44.49515,7.16688,44.49515,7.04564Z"/><path class="cls-9" d="M44.49637,7.489q.22137-.00093.44457,0c-.00123.20513-.00123.41027-.00306.61541-.147.00367-.29454.00612-.44151.00673C44.49637,7.90415,44.497,7.69656,44.49637,7.489Z"/><path class="cls-9" d="M37.63623,9.4785a.72018.72018,0,0,1,.77218.18186.319.319,0,0,1-.20269.45437,1.211,1.211,0,0,1-.85974-.08267c-.0992-.05695-.25535-.12431-.226-.26392A.80882.80882,0,0,1,37.63623,9.4785Z"/><path class="cls-9" d="M43.2729,11.44781a.39108.39108,0,0,1,.17636-.52784c.1886-.0741.37353.04653.54009.12369a.705.705,0,0,1,.53152-.12737.39255.39255,0,0,1,.19166.54132,2.34978,2.34978,0,0,1-.71522.79789A2.43246,2.43246,0,0,1,43.2729,11.44781Z"/><path class="cls-9" d="M20.36617,13.30935a14.5456,14.5456,0,0,1,1.62579.00122c-.218.18493-.52662.06859-.78687.09982C20.92769,13.37732,20.60131,13.49979,20.36617,13.30935Z"/><path class="cls-9" d="M50.23775,24.95254c.10349-.09307.20269-.19044.30618-.28413-.05818.13594-.11941.27066-.18126.406C50.32042,25.03337,50.27878,24.993,50.23775,24.95254Z"/><path class="cls-9" d="M31.702,25.58387c.1935-.04225.48743-.05143.56274.18064a1.76222,1.76222,0,0,1-.00673.62338c-.08818.22228-.37782.20513-.56949.15921-.20636-.07287-.18921-.3221-.188-.49907C31.49438,25.87658,31.49989,25.64143,31.702,25.58387Z"/><path class="cls-9" d="M47.01925,28.60091c.128-.19166.38394-.13961.58112-.14451a.33734.33734,0,0,1,.34842.19044c.04287.13962-.05021.27066-.09552.398a.59368.59368,0,0,1,.03123.78013.53131.53131,0,0,1-.88913-.17942.7221.7221,0,0,1,.109-.58847c-.06124-.14084-.16963-.30188-.08512-.4562m.15921.01654c-.13043.08756.00857.23024.03429.33985.17452-.00673.349-.01041.52417-.00735.02572-.10777.15983-.24616.03429-.33312A1.49749,1.49749,0,0,0,47.17846,28.61745Z"/><path class="cls-9" d="M30.83855,33.72566a.74048.74048,0,0,1,.5799-.20024.54.54,0,0,1-.05205.53948c-.08328-.03674-.16595-.07226-.24861-.10777q.15981-.06522.31964-.13227c-.06123-.06062-.09308-.18371-.19473-.18187A2.93836,2.93836,0,0,0,30.83855,33.72566Z"/></g><g id="_feffffff" data-name="#feffffff"><path class="cls-10" d="M37.2676,27.24517c.0796-.17329.30617-.14757.44946-.079a.5544.5544,0,0,1-.00306.50948c-.15247-.0196-.37292.05572-.447-.12615A.2423.2423,0,0,1,37.2676,27.24517Z"/><path class="cls-10" d="M31.86118,30.88375a.48486.48486,0,0,1,.39374-.49784,3.04012,3.04012,0,0,1,.02449.8628c-.05389.01653-.10716.03307-.16043.05021C32.02957,31.16482,31.85566,31.06072,31.86118,30.88375Z"/></g><g id="_3e6996ff" data-name="#3e6996ff"><path class="cls-11" d="M33.84151,7.2122a1.06187,1.06187,0,1,1-.82851.83708A1.06392,1.06392,0,0,1,33.84151,7.2122Z"/><path class="cls-11" d="M38.06549,11.7399a1.00829,1.00829,0,1,1-.793,1.07222A1.01124,1.01124,0,0,1,38.06549,11.7399Z"/><path class="cls-11" d="M23.7396,14.01232a1.00923,1.00923,0,1,1-.73788,1.12121A1.01085,1.01085,0,0,1,23.7396,14.01232Z"/><path class="cls-11" d="M32.3137,29.754a1.11353,1.11353,0,1,1-.87749,1.24918A1.11712,1.11712,0,0,1,32.3137,29.754m-.45252,1.12978c-.00552.177.16839.28107.2578.41517.05327-.01714.10654-.03368.16043-.05021a3.04012,3.04012,0,0,0-.02449-.8628.48486.48486,0,0,0-.39374.49784m.924-.357a3.59812,3.59812,0,0,0,.0049.71706c.05327.01837.10594.03674.15982.05572.10471-.14574.29332-.26882.26147-.47212.01286-.18125-.14757-.3025-.26637-.41333-.08389-.04838-.1537.03123-.15982.11267m-.43477.22534c.00061.04716.00123.14146.00184.18861.12063-.00062.24127-.00062.36251-.00062l.00245-.18676C32.59477,30.75209,32.4723,30.75209,32.35044,30.75209Z"/><path class="cls-11" d="M34.57633,34.46292a1.22156,1.22156,0,1,1-.8775,1.20021A1.22215,1.22215,0,0,1,34.57633,34.46292Z"/></g><g id="_fefffbff" data-name="#fefffbff"><path class="cls-12" d="M31.05839,8.61876a1.39742,1.39742,0,0,0,.65521.071,2.34,2.34,0,0,1-.26147.4115c-.12921.0447-.26392.071-.39252.117-.09614-.10226-.19289-.20391-.289-.30556Q30.91479,8.76572,31.05839,8.61876Z"/><path class="cls-12" d="M46.84657,9.43931a.36433.36433,0,0,1,.54805.03674c.10226.11389.06552.27494.05511.41272.25351-.00061.507-.00123.76115,0a7.753,7.753,0,0,1-.564.59643c-.34231.02082-.68645.00918-1.02875.00306A.37357.37357,0,0,1,46.3328,9.909a4.919,4.919,0,0,1,.51377-.46967m-.31843.40231a.29735.29735,0,1,0,.41763.286.3.3,0,0,0-.41763-.286m.36558.56458a5.90213,5.90213,0,0,0,.72869-.00612,4.10914,4.10914,0,0,0,.38823-.42436,4.87631,4.87631,0,0,0-.64848.00674A4.20555,4.20555,0,0,0,46.89372,10.4062Z"/><path class="cls-12" d="M28.94211,27.93406a1.84953,1.84953,0,0,1,.36129.50887.928.928,0,0,1-1.188.85116A1.71306,1.71306,0,0,1,27.824,29.111c.0049-.03674.01409-.11022.019-.147.31229-.04042.6846-.00919.92219-.256C28.97334,28.50784,28.93293,28.19615,28.94211,27.93406Z"/></g><g id="_2f2d5eff" data-name="#2f2d5eff"><path class="cls-13" d="M36.84569,3.18478a1.20417,1.20417,0,1,1-.88729,1.12427,1.20075,1.20075,0,0,1,.88729-1.12427m.18616.73849a3.06109,3.06109,0,0,0-.62092.10471c-.09247.12064-.12921.32945.03674.40721.31719.18493.58663.52846.98343.51438a.54008.54008,0,0,0,.35087-.8677A.76611.76611,0,0,0,37.03185,3.92327Z"/><path class="cls-13" d="M31.08227,10.44111a.95455.95455,0,1,1-.6993,1.09059A.95412.95412,0,0,1,31.08227,10.44111Z"/><path class="cls-13" d="M43.58826,14.76a.64723.64723,0,1,1-.376.67726A.65.65,0,0,1,43.58826,14.76Z"/><path class="cls-13" d="M26.67887,23.9985a1.00712,1.00712,0,1,1-.69012,1.24123A1.00737,1.00737,0,0,1,26.67887,23.9985Z"/><path class="cls-13" d="M39.2908,28.82993a1.22506,1.22506,0,1,1-.90811.97731A1.22618,1.22618,0,0,1,39.2908,28.82993Z"/></g><g id="_312c5fff" data-name="#312c5fff"><path class="cls-14" d="M36.482,4.09289a5.2871,5.2871,0,0,1,.99935-.07777.42545.42545,0,1,1-.338.77218c-.248-.14207-.46416-.33312-.70787-.48192.01531-.071.03062-.14207.04654-.21249m.54621.11206c-.17329.0643-.09124.28842.03613.35578.16044.128.49294.17268.56152-.07655C37.6742,4.17862,37.24127,4.08922,37.02817,4.205Z"/></g><g id="_fffdfaff" data-name="#fffdfaff"><path class="cls-15" d="M31.88322,4.11249c.08879.08695.22841.169.1984.31536a1.80821,1.80821,0,0,0-.12247.73726c-.00245.16595.117.41518-.10532.48621a2.63956,2.63956,0,0,0-.03674-1.049A.60384.60384,0,0,1,31.88322,4.11249Z"/></g><g id="_fffffcff" data-name="#fffffcff"><path class="cls-16" d="M33.22365,4.159a.74036.74036,0,0,1,.703.93444.715.715,0,1,1-1.338-.49355.75651.75651,0,0,1,.635-.44089m-.17084.18186a.58758.58758,0,0,0-.24862.92587.57613.57613,0,1,0,.24862-.92587Z"/><path class="cls-16" d="M40.77207,5.16389c-.01224-.131-.04286-.29025.12125-.33373.01469.09246.02878.18554.04347.27862C40.89515,5.12225,40.8131,5.14981,40.77207,5.16389Z"/><path class="cls-16" d="M41.096,5.30289a.64916.64916,0,0,1,.39374-.39435A.41864.41864,0,0,1,41.096,5.30289Z"/><path class="cls-16" d="M40.15911,5.4719c.1041.038.207.079.308.12553-.11083.03368-.22228.06369-.33434.09124C40.13952,5.63417,40.15237,5.5264,40.15911,5.4719Z"/><path class="cls-16" d="M41.32135,5.46761c.10042.03981.199.08267.297.13105-.10778.03245-.21555.06184-.32394.09Z"/><path class="cls-16" d="M41.11009,5.95872a.95175.95175,0,0,1,.10042-.10471c.12309.10348.32761.23453.22473.42129A1.73128,1.73128,0,0,1,41.11009,5.95872Z"/><path class="cls-16" d="M46.50365,9.95184c.1041-.11634.256-.019.37047.02327-.1041.00061-.207-.00061-.30985-.00183-.0349.06123-.06919.12308-.10287.18492.07164.04226.1439.08573.22044.12247a2.58747,2.58747,0,0,0,.19228-.30556c-.019.12247.00184.3-.14941.34353A.2186.2186,0,0,1,46.50365,9.95184Z"/><path class="cls-16" d="M46.60591,10.07c.08512-.0294.11513,0,.09.087C46.60959,10.18576,46.57958,10.157,46.60591,10.07Z"/><path class="cls-16" d="M49.94015,25.17972a.43815.43815,0,0,1,.316-.65888c.06308.00122.12676.00551.191.011a1.49337,1.49337,0,0,0,.40477.01347c-.11635.22167.03735.5009-.13717.69991a.467.467,0,0,1-.77462-.06552m.31475-.57989a.37138.37138,0,0,0-.16717.61174.36549.36549,0,1,0,.16717-.61174Z"/><path class="cls-16" d="M22.40407,24.89314a.52625.52625,0,0,0,.18309-.011l.04593-.01041a3.34342,3.34342,0,0,1,.48559.88913,3.33751,3.33751,0,0,1-.33741-.51927,7.18262,7.18262,0,0,1-.55172.46784c-.17391.0992-.22045.34536-.4262.3968a.45064.45064,0,0,1-.55785-.28536.439.439,0,0,1,.39191-.57561.8033.8033,0,0,1,.45007.1984.86466.86466,0,0,0-.34046-.47089q.19564.00826.39251.02449c-.04715.04348-.09491.08634-.14145.12982.23392-.00857.46845-.008.70359-.008-.01592-.0349-.04715-.1041-.06246-.139-.09736-.02878-.19534-.05511-.29025-.08879l.05511.00183m-.35088.305c.0643.13962.12921.27862.19595.41762.15554-.13533.31046-.27249.46049-.41394-.21922-.00551-.43783-.0049-.65644-.00368m-.73482.48315a.3522.3522,0,0,0,.46049.33618c.13778-.04471.20207-.18738.28535-.29332-.14022-.00551-.28045-.00735-.42068-.00857l.0049-.068c.18187-.00062.36373-.00184.5456-.01164-.12614-.0894-.24433-.18921-.37292-.27494A.35254.35254,0,0,0,21.31837,25.68124Z"/><path class="cls-16" d="M22.94416,25.252a.48334.48334,0,0,1,.50151.21065.43294.43294,0,1,1-.81014.21738.63367.63367,0,0,1,.14758-.346c-.01531.18186-.13778.38394-.01225.55233a.36169.36169,0,1,0,.537-.47518A2.52694,2.52694,0,0,0,22.94416,25.252Z"/><path class="cls-16" d="M43.21167,26.91451c.15614-.08941.32638.01163.48436.04041.218.06675.42681-.147.64113-.0545a.60574.60574,0,0,1,.297.60867,1.15759,1.15759,0,0,1-.38394.77095c-.10655.098-.25841.03736-.38578.04226-.1984-.02817-.44456.09185-.59582-.09063a1.10877,1.10877,0,0,1-.308-.93751A.52953.52953,0,0,1,43.21167,26.91451Z"/><path class="cls-16" d="M42.42235,30.67188a1.52484,1.52484,0,0,1,.46783.71093.477.477,0,0,1-.44211.58479.45026.45026,0,0,1-.477-.41394A1.24269,1.24269,0,0,1,42.42235,30.67188Z"/></g><g id="_c65f3cff" data-name="#c65f3cff"><path class="cls-17" d="M40.51672,4.15841a1.46469,1.46469,0,1,1-1.10406,1.72376,1.46921,1.46921,0,0,1,1.10406-1.72376m.25535,1.00548c.041-.01408.12308-.04164.16472-.05511-.01469-.09308-.02878-.18616-.04347-.27862-.16411.04348-.13349.20269-.12125.33373m.32393.139a.41864.41864,0,0,0,.39374-.39435.64916.64916,0,0,0-.39374.39435m-.89158-.36128a.42781.42781,0,0,0,.37721.37965.47761.47761,0,0,0-.37721-.37965m.564.319a.33587.33587,0,0,0-.10961.60316.33073.33073,0,1,0,.10961-.60316m-.60929.21126c-.00674.0545-.01959.16227-.02633.21677.11206-.02755.22351-.05756.33434-.09124-.101-.04654-.20391-.08756-.308-.12553m1.16224-.00429-.02695.22106c.10839-.02817.21616-.05756.32394-.09-.098-.04838-.19657-.09124-.297-.13105m-1.16714.77218c.21187-.00919.46232-.18616.3668-.4213a.93819.93819,0,0,0-.3668.4213m.95588-.28107a1.73128,1.73128,0,0,0,.32515.31658c.10288-.18676-.10164-.31781-.22473-.42129a.95175.95175,0,0,0-.10042.10471m-.32761.01592A1.21794,1.21794,0,0,0,40.788,6.38.217.217,0,0,0,40.78248,5.97464Z"/><path class="cls-17" d="M30.413,6.854a1.56444,1.56444,0,1,1-1.15489,1.56026A1.56292,1.56292,0,0,1,30.413,6.854m.03919.63929c-.08573.14268-.16962.28658-.25045.43171q.18647.10839.376.21371c.08145-.13594.16166-.27311.24372-.40905a2.4692,2.4692,0,0,1,.04593.31475q.20482.056.40966.11634a2.43226,2.43226,0,0,0,.10593-.3968,1.98856,1.98856,0,0,0-.32148-.3123.74553.74553,0,0,0-.428.06675c-.06062-.00919-.12186-.01408-.18126-.02511m.68216.81871a2.50944,2.50944,0,0,0,.20146.3319.5065.5065,0,0,0,.44824-.08206c-.08879-.1586-.18-.316-.27678-.46967-.12492.07226-.24923.14513-.37292.21983m-1.1849-.07409c-.01408.139-.05756.27249-.0747.41089a2.73669,2.73669,0,0,0,.22534.43231c.02695-.06062.0545-.12124.08206-.18186,0,.09675.00122.1935.00306.29086.17513.00122.35026.00061.526,0,.00367-.14451.00551-.28841.00673-.43232-.158-.00367-.316-.0049-.47334-.00857.07532-.07593.15431-.14941.23514-.21983q-.05235-.19657-.10226-.39313c-.14329.03245-.28536.06736-.428.10165m1.109.38088q-.14329.147-.28781.29393c.09614.10165.19289.2033.289.30556.1286-.04593.26331-.07226.39252-.117a2.34,2.34,0,0,0,.26147-.4115A1.39742,1.39742,0,0,1,31.05839,8.61876Z"/><path class="cls-17" d="M47.32175,13.967a1.04027,1.04027,0,1,1-.71339,1.06,1.05934,1.05934,0,0,1,.71339-1.06m-.09247.56887a.7738.7738,0,0,0-.1886.455.77414.77414,0,0,0,.64174-.64113.77514.77514,0,0,0-.45314.18615m.57929-.17145a1.65949,1.65949,0,0,1-.30556.50518,1.895,1.895,0,0,1-.44824.24127.93155.93155,0,0,0,.42986.447,1.59267,1.59267,0,0,1,.2823-.48559,1.43436,1.43436,0,0,1,.46967-.267.88489.88489,0,0,0-.428-.44089m-.19963,1.19836a.74365.74365,0,0,0,.46049-.18677.78672.78672,0,0,0,.18125-.45926A.8051.8051,0,0,0,47.60894,15.56279Z"/><path class="cls-17" d="M35.4973,14.13663a.951.951,0,1,1-.6693.95159A.95737.95737,0,0,1,35.4973,14.13663Z"/><path class="cls-17" d="M40.7586,23.98809a.81749.81749,0,1,1-.59581.77462A.82121.82121,0,0,1,40.7586,23.98809Z"/><path class="cls-17" d="M47.0713,27.9108a1.38349,1.38349,0,1,1-.924,1.61537,1.38822,1.38822,0,0,1,.924-1.61537m-.05205.69011c-.08451.15432.02388.31536.08512.4562a.7221.7221,0,0,0-.109.58847.53131.53131,0,0,0,.88913.17942.59368.59368,0,0,0-.03123-.78013c.04531-.12737.13839-.25841.09552-.398a.33734.33734,0,0,0-.34842-.19044C47.40319,28.4613,47.14723,28.40925,47.01925,28.60091Z"/><path class="cls-17" d="M39.90989,32.3889a.65362.65362,0,1,1-.50029.64113A.65206.65206,0,0,1,39.90989,32.3889Z"/></g><g id="_43734bff" data-name="#43734bff"><path class="cls-18" d="M28.82332,4.21108a.96275.96275,0,1,1-.5505,1.29695A.96232.96232,0,0,1,28.82332,4.21108Z"/><path class="cls-18" d="M45.23793,13.22117a.55758.55758,0,1,1-.10594.9669A.56031.56031,0,0,1,45.23793,13.22117Z"/><path class="cls-18" d="M40.21545,13.9615a1.02908,1.02908,0,1,1-.80708,1.11815,1.03357,1.03357,0,0,1,.80708-1.11815m.2878,1.01772-.11512-.21309c.00367-.13227-.12737-.22351-.19534-.32516.03429.11451.07348.22779.11267.34108-.14207-.04164-.28413-.08389-.42619-.12554.05878.06185.11818.12309.17635.18616.06.15737.11574.3172.16656.47763.02021.08573.04041.17207.06.25841.11329.0049.22718.008.34108.01225.02143-.08389.04348-.16717.06613-.25045.08083-.1586.169-.31291.25352-.46967-.09492.06919-.18555.14451-.27679.218.0643-.15615.13656-.30862.20024-.46477a3.404,3.404,0,0,0-.24984.27311c.00184-.16962,0-.33924-.01408-.50825C40.562,14.58487,40.5406,14.78327,40.50325,14.97922Z"/><path class="cls-18" d="M49.34434,26.39585a.73665.73665,0,1,1-.45192.38884A.75068.75068,0,0,1,49.34434,26.39585Z"/><path class="cls-18" d="M21.905,28.17288a1.029,1.029,0,1,1-.74094.94118,1.029,1.029,0,0,1,.74094-.94118m.08083.6148a1.42358,1.42358,0,0,0-.42619.8181,1.358,1.358,0,0,0,.9075-.15187c.248-.188.13778-.55723.35639-.76788C22.55287,28.8085,22.23873,28.61806,21.98583,28.78768Z"/><path class="cls-18" d="M21.93807,28.93893q.16624.03858.3325.08267a.47969.47969,0,0,1-.4464.15186C21.86091,29.09447,21.89888,29.01609,21.93807,28.93893Z"/><path class="cls-18" d="M21.77457,29.239c.11512-.09246.19534.09492.06614.13962C21.72191,29.4778,21.66435,29.29348,21.77457,29.239Z"/></g><g id="_f9e2c2ff" data-name="#f9e2c2ff"><path class="cls-19" d="M32.17715,4.21475c.09736-.00367.19472-.008.2927-.01163a2.06212,2.06212,0,0,1-.07593.57683,1.66438,1.66438,0,0,0,.041.8034c-.0447.019-.1335.05817-.17759.07777a7.35259,7.35259,0,0,0-.019-.9369A4.91968,4.91968,0,0,1,32.17715,4.21475Z"/></g><g id="_fefffcff" data-name="#fefffcff"><path class="cls-20" d="M37.02817,4.205c.2131-.11573.646-.02633.59765.27923-.06858.24923-.40108.20453-.56152.07655C36.93693,4.49337,36.85488,4.26925,37.02817,4.205Z"/><path class="cls-20" d="M29.94942,8.23788c.14268-.03429.28475-.0692.428-.10165q.04959.19656.10226.39313c-.08083.07042-.15982.1439-.23514.21983.15737.00367.31535.0049.47334.00857-.00122.14391-.00306.28781-.00673.43232-.17575.00061-.35088.00122-.526,0-.00184-.09736-.00306-.19411-.00306-.29086-.02756.06062-.05511.12124-.08206.18186a2.73669,2.73669,0,0,1-.22534-.43231C29.89186,8.51037,29.93534,8.37688,29.94942,8.23788Z"/></g><g id="_ffffffff" data-name="#ffffffff"><path class="cls-1" d="M33.1122,4.39172a.52918.52918,0,0,1,.57439.24555.50367.50367,0,0,1-.35762.7489.51294.51294,0,0,1-.5952-.42252A.528.528,0,0,1,33.1122,4.39172Z"/><path class="cls-1" d="M35.14214,31.22728a3.62761,3.62761,0,0,1,.04348.92525,1.74674,1.74674,0,0,1,.92893.19228,4.84286,4.84286,0,0,1-1.00119.01776A5.02628,5.02628,0,0,1,35.14214,31.22728Z"/></g><g id="_fcebdfff" data-name="#fcebdfff"><path class="cls-21" d="M40.20442,4.94161a.47761.47761,0,0,1,.37721.37965A.42781.42781,0,0,1,40.20442,4.94161Z"/></g><g id="_fcfffdff" data-name="#fcfffdff"><path class="cls-22" d="M40.7684,5.26064a.33073.33073,0,1,1-.10961.60316A.33587.33587,0,0,1,40.7684,5.26064Z"/></g><g id="_fff139ff" data-name="#fff139ff"><path class="cls-23" d="M26.31269,5.79522a1.76521,1.76521,0,0,1,1.131.30128,1.92683,1.92683,0,0,1,.8181,1.567,1.94456,1.94456,0,0,1-.44089,1.12A1.83452,1.83452,0,0,1,24.79161,8.443a1.85488,1.85488,0,0,1,.21188-1.98952,1.71966,1.71966,0,0,1,1.3092-.65828m.02449.55356c-.00918.07042-.01776.14146-.02633.21188-.11206.04592-.2229.09307-.3325.14329l-.0392-.01837c.05512.09675.10962.19472.16411.2927-.03858.09491-.08144.188-.11389.28474-.03429.01653-.10349.0496-.13839.06552-.008.38272-.03246.76666-.00245,1.14938.01408.10287.02082.25841.15064.28229a1.94344,1.94344,0,0,0,.766.01347.206.206,0,0,0,.17758-.1886c.0545-.41456-.01163-.83341.00552-1.24919a1.3668,1.3668,0,0,1,.17513-.47763c-.08145-.03184-.158-.09737-.24862-.0943a1.538,1.538,0,0,1-.42007-.395Z"/><path class="cls-23" d="M31.20964,32.88674a1.67653,1.67653,0,0,1,1.12856.15493A1.55189,1.55189,0,0,1,32.68785,35.45a1.54016,1.54016,0,1,1-1.47821-2.56329m-.37109.83892a2.93836,2.93836,0,0,1,.40415-.08267c.10165-.00184.1335.12125.19473.18187q-.15982.067-.31964.13227c.08266.03551.16533.071.24861.10777a.54.54,0,0,0,.05205-.53948.74048.74048,0,0,0-.5799.20024m.76728.36006a.73692.73692,0,0,0,.5009-.13349,1.0112,1.0112,0,0,0-.42375-.07839q-.16716.05236-.07715.21188m-.594.03368a.4258.4258,0,0,0-.1286.38027.71911.71911,0,0,0,.78932.71951.74246.74246,0,0,0,.52172-1.12979,3.12688,3.12688,0,0,1-.73543.05634A1.95838,1.95838,0,0,0,31.01185,34.1194Z"/></g><g id="_fce9dcff" data-name="#fce9dcff"><path class="cls-24" d="M40.15421,6.23979a.93819.93819,0,0,1,.3668-.4213C40.61653,6.05363,40.36608,6.2306,40.15421,6.23979Z"/></g><g id="_fce6dfff" data-name="#fce6dfff"><path class="cls-25" d="M40.78248,5.97464A.217.217,0,0,1,40.788,6.38,1.21794,1.21794,0,0,1,40.78248,5.97464Z"/></g><g id="_4e5782ff" data-name="#4e5782ff"><path class="cls-26" d="M44.13142,6.12405A1.23067,1.23067,0,1,1,43.186,7.49449a1.2349,1.2349,0,0,1,.94547-1.37044m-.12247.40354c-.12064.04838-.101.20942-.019.28474a.60372.60372,0,0,0,.54316.13839.35861.35861,0,0,0,.3472-.31046.26639.26639,0,0,0-.22229-.16043.93676.93676,0,0,0-.259.256c-.10226-.10961-.21616-.33189-.39006-.2082m-.23086.51927c.00061.12125.00245.24249.00673.36374q.25719-.00093.51438.00061c.00183-.12308.00306-.24678.00429-.36925q-.26271-.00183-.5254.0049m.71706-.00122c0,.12124.00122.2431.00184.36434q.26085-.00091.52294,0c.00245-.12124.00429-.24249.00674-.36312-.17758-.0049-.35455-.0049-.53152-.00122m-.63256.44272q-.00183.31047.00245.62031c.14513.00184.29087.00245.43661.00368.00122-.20881.00122-.417.00122-.62521-.14758.00061-.29392.00061-.44028.00122m.63378.00062c.00062.20758,0,.41517,0,.62214.147-.00061.29454-.00306.44151-.00673.00183-.20514.00183-.41028.00306-.61541Q44.71774,7.48805,44.49637,7.489Z"/><path class="cls-26" d="M44.04813,6.59372c.1782-.04837.22535.18371.29454.29883C44.22143,6.84111,43.9373,6.77314,44.04813,6.59372Z"/><path class="cls-26" d="M44.4529,6.89071c.06919-.15125.16778-.38884.37353-.26147A.58056.58056,0,0,1,44.4529,6.89071Z"/><path class="cls-26" d="M41.86083,33.23149a1.00731,1.00731,0,1,1-.725,1.18183A1.00908,1.00908,0,0,1,41.86083,33.23149Z"/></g><g id="_fcfdffff" data-name="#fcfdffff"><path class="cls-27" d="M26.33718,6.34878l.11757.02021a1.538,1.538,0,0,0,.42007.395,1.26519,1.26519,0,0,1-.89647-.06c.1096-.05022.22044-.09737.3325-.14329C26.31942,6.49024,26.328,6.4192,26.33718,6.34878Z"/></g><g id="_b9dae1ff" data-name="#b9dae1ff"><path class="cls-28" d="M36.22967,6.40573a.53059.53059,0,1,1-.16656.92649A.53381.53381,0,0,1,36.22967,6.40573Z"/><path class="cls-28" d="M40.76227,11.43985a.75834.75834,0,0,1,.91669.76972.75.75,0,0,1-.95282.69073.76606.76606,0,0,1-.45007-1.0961A.77419.77419,0,0,1,40.76227,11.43985Z"/><path class="cls-28" d="M26.74194,14.31972a.864.864,0,1,1,.335,1.67539.85181.85181,0,0,1-.89219-.73911A.87594.87594,0,0,1,26.74194,14.31972Z"/><path class="cls-28" d="M50.37859,14.50282a.75348.75348,0,1,1-.45742.27555A.747.747,0,0,1,50.37859,14.50282Z"/><path class="cls-28" d="M19.15188,23.99483a.48425.48425,0,1,1-.06429.86953A.48484.48484,0,0,1,19.15188,23.99483Z"/><path class="cls-28" d="M47.928,23.9887a.53217.53217,0,1,1-.20147.88669A.53259.53259,0,0,1,47.928,23.9887Z"/><path class="cls-28" d="M35.80164,30.11525a1.63474,1.63474,0,0,1,1.8744.95465,1.66412,1.66412,0,0,1-.3521,1.7899,1.63092,1.63092,0,1,1-1.5223-2.74455m.22779,1.01527a2.65408,2.65408,0,0,0-.64358-.0796c.22963.07532.46478.1341.69747.199q.01377.42619-.00061.85362c-.24249-.03185-.4856-.06124-.7287-.08573-.011-.32945-.00735-.6595-.03184-.98833a3.26982,3.26982,0,0,0-.04593,1.06732,1.98148,1.98148,0,0,1,.84137.169,2.26749,2.26749,0,0,0,1.131.09981,7.22511,7.22511,0,0,0,.00061-.92832.52629.52629,0,0,0-.278-.3919c-.31842-.07409-.62337.16411-.94179.08511m-.88729.09676a5.02628,5.02628,0,0,0-.02878,1.13529,4.84286,4.84286,0,0,0,1.00119-.01776,1.74674,1.74674,0,0,0-.92893-.19228A3.62761,3.62761,0,0,0,35.14214,31.22728Z"/><path class="cls-28" d="M36.2609,31.245a2.1893,2.1893,0,0,1,.73176-.13165q.022.45192.00122.90505c-.24433.022-.488.05021-.73175.08267C36.24988,31.81574,36.2511,31.53039,36.2609,31.245Z"/></g><g id="_fef16fff" data-name="#fef16fff"><path class="cls-29" d="M25.93915,6.68558l.0392.01837a1.26519,1.26519,0,0,0,.89647.06c.09063-.00307.16717.06246.24862.0943a1.3668,1.3668,0,0,0-.17513.47763c-.01715.41578.049.83463-.00552,1.24919a.206.206,0,0,1-.17758.1886,1.94344,1.94344,0,0,1-.766-.01347c-.12982-.02388-.13656-.17942-.15064-.28229-.03-.38272-.00551-.76666.00245-1.14938.0349-.01592.1041-.049.13839-.06552a6.64452,6.64452,0,0,0-.01715,1.44269,1.83208,1.83208,0,0,0,.87015-.04347,2.378,2.378,0,0,0-.13962-1.70478c-.20023.00612-.39986.01163-.59949.02082C26.04877,6.8803,25.99427,6.78233,25.93915,6.68558Z"/></g><g id="_fdffffff" data-name="#fdffffff"><path class="cls-30" d="M43.77809,7.04686q.2627-.00643.5254-.0049c-.00123.12247-.00246.24617-.00429.36925q-.25719-.00184-.51438-.00061C43.78054,7.28935,43.7787,7.16811,43.77809,7.04686Z"/></g><g id="_e7bb38ff" data-name="#e7bb38ff"><path class="cls-31" d="M39.89825,7.399a.54586.54586,0,0,1,.56275.58357.557.557,0,0,1-.57806.5107.57719.57719,0,0,1-.46967-.35027A.54808.54808,0,0,1,39.89825,7.399Z"/></g><g id="_fefefdff" data-name="#fefefdff"><path class="cls-32" d="M30.45216,7.49326c.0594.011.12064.01592.18126.02511a.74553.74553,0,0,1,.428-.06675,1.98856,1.98856,0,0,1,.32148.3123,2.43226,2.43226,0,0,1-.10593.3968q-.20484-.06062-.40966-.11634a2.4692,2.4692,0,0,0-.04593-.31475c-.08206.13594-.16227.27311-.24372.40905q-.18921-.10563-.376-.21371C30.28254,7.77984,30.36643,7.63594,30.45216,7.49326Z"/></g><g id="_5e3148ff" data-name="#5e3148ff"><path class="cls-33" d="M37.33741,7.89986a1.439,1.439,0,1,1-.9669,1.70539,1.44377,1.44377,0,0,1,.9669-1.70539m-.0943.70543a.61832.61832,0,0,0,.76788.06736.20056.20056,0,0,0-.07409-.338.67076.67076,0,0,0-.69379.27066m.15125.25473a.28119.28119,0,0,0-.17207.36925.42952.42952,0,0,0,.45252.1684.83207.83207,0,0,0,.54377-.26821c.0545-.1188-.08451-.18432-.1684-.23024a.8742.8742,0,0,0-.65582-.0392m.24187.61848a.80882.80882,0,0,0-.51621.28964c-.02939.13961.12676.207.226.26392a1.211,1.211,0,0,0,.85974.08267.319.319,0,0,0,.20269-.45437A.72018.72018,0,0,0,37.63623,9.4785Z"/><path class="cls-33" d="M46.52814,9.84162a.29735.29735,0,1,1-.02081.53336.29824.29824,0,0,1,.02081-.53336m-.02449.11022a.2186.2186,0,0,0,.22106.3668c.15125-.04348.13043-.22106.14941-.34353C46.75961,9.93286,46.60775,9.8355,46.50365,9.95184Z"/><path class="cls-33" d="M31.1435,23.9783a1.751,1.751,0,1,1-1.48678,1.883,1.75467,1.75467,0,0,1,1.48678-1.883m-.39312.81932c-.00429.06613-.00735.13226-.0098.199a5.78229,5.78229,0,0,0,.635.00368l.01225-.19534a4.61239,4.61239,0,0,0-.63745-.00735m-.23943.635a5.08262,5.08262,0,0,0,.019.842c.1341.29148.51376.15125.76421.188a4.99739,4.99739,0,0,1,.00061-.71644c.01531-.18616.21494-.25168.346-.34292-.06-.09552-.09553-.23575-.22044-.26392a3.01118,3.01118,0,0,0-.66012-.00857.27413.27413,0,0,0-.24922.30188m1.23143-.08818.00306.11023c.09675,0,.1935.00061.29026.00122l.00489-.11145c-.09981-.00061-.199-.00061-.29821,0m-.04041.23943c-.20208.05756-.20759.29271-.20147.46416-.00122.177-.01837.4262.188.49907.19167.04592.48131.06307.56949-.15921a1.76222,1.76222,0,0,0,.00673-.62338C32.1894,25.53244,31.89547,25.54162,31.702,25.58387Z"/><path class="cls-33" d="M28.08727,33.18067A1.10294,1.10294,0,1,1,27.271,34.3129,1.104,1.104,0,0,1,28.08727,33.18067Z"/></g><g id="_fffefeff" data-name="#fffefeff"><path class="cls-34" d="M31.13432,8.312c.12369-.0747.248-.14757.37292-.21983.09675.1537.188.31107.27678.46967a.5065.5065,0,0,1-.44824.08206A2.50944,2.50944,0,0,1,31.13432,8.312Z"/></g><g id="_fefefeff" data-name="#fefefeff"><path class="cls-35" d="M37.24311,8.60529a.67076.67076,0,0,1,.69379-.27066.20056.20056,0,0,1,.07409.338A.61832.61832,0,0,1,37.24311,8.60529Z"/><path class="cls-35" d="M47.80857,14.36443a.88489.88489,0,0,1,.428.44089,1.43436,1.43436,0,0,0-.46967.267,1.59267,1.59267,0,0,0-.2823.48559.93155.93155,0,0,1-.42986-.447,1.895,1.895,0,0,0,.44824-.24127A1.65949,1.65949,0,0,0,47.80857,14.36443Z"/><path class="cls-35" d="M36.9204,26.80122a.29273.29273,0,0,1,.27556.48008c-.0839.13227-.26331.071-.39374.09124q-.07624-.14421-.15554-.28474C36.72935,26.98676,36.76547,26.80429,36.9204,26.80122Z"/></g><g id="_a8c64aff" data-name="#a8c64aff"><path class="cls-36" d="M41.06539,8.73633a.83332.83332,0,1,1-.59766.77952A.83465.83465,0,0,1,41.06539,8.73633Z"/><path class="cls-36" d="M25.14984,10.59848a1.33906,1.33906,0,1,1-1.02507.973,1.34124,1.34124,0,0,1,1.02507-.973m-.18738.706a1.46434,1.46434,0,0,0-.395.4164,2.353,2.353,0,0,0,.39864.1739c.00429.207.00429.414.00368.62154.29882.01714.59826.01531.89709.00857.00245-.22473.00367-.44946.008-.67419a1.90358,1.90358,0,0,0,.38088-.12615,1.84632,1.84632,0,0,0-.3668-.41027c-.17268-.0594-.32577.06491-.47212.13716C25.27292,11.386,25.12963,11.27023,24.96246,11.30452Z"/><path class="cls-36" d="M35.12744,23.98993a.73288.73288,0,1,1-.43476.35761A.748.748,0,0,1,35.12744,23.98993Z"/><path class="cls-36" d="M46.93168,25.40507a.59433.59433,0,0,1,.63991.58111.58087.58087,0,0,1-.4262.59643.594.594,0,0,1-.755-.48743A.60306.60306,0,0,1,46.93168,25.40507Z"/><path class="cls-36" d="M28.2079,27.29661a1.45289,1.45289,0,0,1,.82484,2.78557,1.45274,1.45274,0,1,1-.82484-2.78557m.73421.63745c-.00918.26209.03123.57378-.177.774-.23759.24678-.6099.21555-.92219.256-.0049.03674-.01409.11022-.019.147a1.71306,1.71306,0,0,0,.29148.18309.928.928,0,0,0,1.188-.85116A1.84953,1.84953,0,0,0,28.94211,27.93406Z"/></g><g id="_862637ff" data-name="#862637ff"><path class="cls-37" d="M46.82268,8.79818a1.256,1.256,0,1,1-.91056,1.14509,1.25806,1.25806,0,0,1,.91056-1.14509m.02389.64113a4.919,4.919,0,0,0-.51377.46967.37357.37357,0,0,0,.28536.57928c.3423.00612.68644.01776,1.02875-.00306a7.753,7.753,0,0,0,.564-.59643c-.25413-.00123-.50764-.00061-.76115,0,.01041-.13778.04715-.29883-.05511-.41272A.36433.36433,0,0,0,46.84657,9.43931Z"/></g><g id="_fdfffdff" data-name="#fdfffdff"><path class="cls-38" d="M37.39436,8.86a.8742.8742,0,0,1,.65582.0392c.08389.04592.2229.11144.1684.23024a.83207.83207,0,0,1-.54377.26821.42952.42952,0,0,1-.45252-.1684A.28119.28119,0,0,1,37.39436,8.86Z"/></g><g id="_442c5eff" data-name="#442c5eff"><path class="cls-39" d="M22.57307,8.92126a1.029,1.029,0,1,1-.77278.70114A1.03061,1.03061,0,0,1,22.57307,8.92126Z"/><path class="cls-39" d="M43.33475,25.58755a1.84731,1.84731,0,1,1-1.32818,1.35206,1.84782,1.84782,0,0,1,1.32818-1.35206m.06307.74339a2.35012,2.35012,0,0,1,.41762.597c.00551-.259-.1243-.57193-.41762-.597m.47763.414a1.78883,1.78883,0,0,0,.18187-.07287c.09614-.101.04531-.25352.0496-.376a.61281.61281,0,0,0-.23147.44886m-.66378.16962a.52953.52953,0,0,0-.25106.37965,1.10877,1.10877,0,0,0,.308.93751c.15126.18248.39742.06246.59582.09063.12737-.0049.27923.05572.38578-.04226a1.15759,1.15759,0,0,0,.38394-.77095.60574.60574,0,0,0-.297-.60867c-.21432-.09246-.42313.12125-.64113.0545C43.53805,26.92614,43.36781,26.8251,43.21167,26.91451Z"/><path class="cls-39" d="M24.9643,29.69824a1.79973,1.79973,0,1,1-1.406,1.5076,1.7981,1.7981,0,0,1,1.406-1.5076m-.10533.71155c.03674.38333.10533.76237.13962,1.1457a7.10331,7.10331,0,0,1-.13472.84566q.43079.00367.8628.00061c-.03674-.26392-.09369-.52478-.13411-.78809a4.67334,4.67334,0,0,1,.08941-.714c.03613.02143.109.06368.14513.0845a.69939.69939,0,0,1-.12431.66012.51341.51341,0,0,0,.2082-.74094,1.10563,1.10563,0,0,0-.22718-.11268c.01959-.12614.03735-.25167.052-.37782a1.70964,1.70964,0,0,0-.87688-.00306m-.07715,2.06913c.03123.02081.09369.06123.1243.08144a6.62043,6.62043,0,0,0,.74768.00367l.14941-.08573A6.392,6.392,0,0,0,24.78182,32.47892Z"/></g><g id="_642c69ff" data-name="#642c69ff"><path class="cls-40" d="M27.96235,9.77916a.7764.7764,0,1,1-.49539.49172A.78788.78788,0,0,1,27.96235,9.77916Z"/><path class="cls-40" d="M46.70756,11.75276a.53874.53874,0,1,1-.229.9026A.54158.54158,0,0,1,46.70756,11.75276Z"/><path class="cls-40" d="M40.21545,26.56485a.598.598,0,1,1-.35027.64236A.59956.59956,0,0,1,40.21545,26.56485Z"/><path class="cls-40" d="M24.66241,26.75775a.77592.77592,0,1,1-.52968.4415A.791.791,0,0,1,24.66241,26.75775Z"/><path class="cls-40" d="M38.24736,33.782a1.36053,1.36053,0,1,1-1.06794,1.39065A1.3597,1.3597,0,0,1,38.24736,33.782m.13227.53826c.06307.3723.06674.75074.0943,1.1261.1788,0,.35761,0,.537-.00183a10.765,10.765,0,0,1,.087-1.12366c-.23943.00061-.47886.00122-.71828-.00061m-.45743.60867c.0196.2229.03491.447.04838.67114.11022-.00062.22044-.00062.33128-.00062.01286-.22412.02572-.44823.04776-.67174q-.214,0-.42742.00122m.54866.5897q.00367.1846.01164.37047a4.87156,4.87156,0,0,0,.518-.00246c.00367-.12247.00551-.24432.00857-.36557q-.26913-.0055-.53826-.00244m-.50273.14634c.00489.07594.00979.15248.01531.22963l.30188.00184c.00551-.07715.01164-.15431.01715-.23085C38.191,35.66435,38.07957,35.66435,37.96813,35.665Z"/></g><g id="_852737ff" data-name="#852737ff"><path class="cls-41" d="M46.56427,9.97328c.10288.00122.20575.00244.30985.00183a2.58747,2.58747,0,0,1-.19228.30556c-.07654-.03674-.1488-.08021-.22044-.12247.03368-.06184.068-.12369.10287-.18492m.04164.09675c-.02633.087.00368.11573.09.087C46.721,10.07,46.691,10.04063,46.60591,10.07Z"/><path class="cls-41" d="M32.55558,13.15749a1.0975,1.0975,0,1,1-.81014,1.25164A1.09946,1.09946,0,0,1,32.55558,13.15749Z"/><path class="cls-41" d="M34.084,27.2911a1.07171,1.07171,0,1,1-.78932,1.0857A1.07332,1.07332,0,0,1,34.084,27.2911Z"/></g><g id="_822837ff" data-name="#822837ff"><path class="cls-42" d="M46.89372,10.4062a4.20555,4.20555,0,0,1,.46844-.42374,4.87631,4.87631,0,0,1,.64848-.00674,4.10914,4.10914,0,0,1-.38823.42436A5.90213,5.90213,0,0,1,46.89372,10.4062Z"/></g><g id="_aa292eff" data-name="#aa292eff"><path class="cls-43" d="M43.75849,10.14351a1.3736,1.3736,0,1,1-.98588.7342,1.3765,1.3765,0,0,1,.98588-.7342m-.48559,1.3043a2.43246,2.43246,0,0,0,.72441.80769,2.34978,2.34978,0,0,0,.71522-.79789.39255.39255,0,0,0-.19166-.54132.705.705,0,0,0-.53152.12737c-.16656-.07716-.35149-.19779-.54009-.12369A.39108.39108,0,0,0,43.2729,11.44781Z"/><path class="cls-43" d="M22.08136,23.98564a1.59655,1.59655,0,1,1-1.3,1.63681,1.593,1.593,0,0,1,1.3-1.63681m.32271.9075-.05511-.00183c.09491.03368.19289.06.29025.08879.01531.0349.04654.1041.06246.139-.23514,0-.46967-.00061-.70359.008.04654-.04348.0943-.08634.14145-.12982q-.19656-.01653-.39251-.02449a.86466.86466,0,0,1,.34046.47089.8033.8033,0,0,0-.45007-.1984.439.439,0,0,0-.39191.57561.45064.45064,0,0,0,.55785.28536c.20575-.05144.25229-.2976.4262-.3968a7.18262,7.18262,0,0,0,.55172-.46784,3.33751,3.33751,0,0,0,.33741.51927,3.34342,3.34342,0,0,0-.48559-.88913l-.04593.01041c.02694-.12308-.22228-.10838-.18309.011m.54009.35884a2.52694,2.52694,0,0,1,.36373.15921.36169.36169,0,1,1-.537.47518c-.12553-.16839-.00306-.37047.01225-.55233a.63367.63367,0,0,0-.14758.346.43294.43294,0,1,0,.81014-.21738A.48334.48334,0,0,0,22.94416,25.252Z"/><path class="cls-43" d="M44.92686,29.98788a.72442.72442,0,1,1-.43784.53826A.72764.72764,0,0,1,44.92686,29.98788Z"/></g><g id="_ebffffff" data-name="#ebffffff"><path class="cls-44" d="M34.63818,10.82689a.84457.84457,0,1,1-.64848.891.85229.85229,0,0,1,.64848-.891m-.29209.29209q.101.067.20391.1341c.02939-.09675.06-.1935.08879-.29025-.0992.0496-.19656.10226-.2927.15615m.28535.16043c.14023-.00245.28107-.00857.4213-.022-.06491-.1139-.13227-.226-.20392-.33495a.70129.70129,0,0,0-.21738.357m.39619-.32026c.02572.09737.05266.19473.08083.29271.06981-.04409.13961-.08818.21-.13288-.09676-.05511-.1929-.10839-.29087-.15983m-.91179.64358q.19105.00552.38272.00735c.01041-.09246.02143-.18431.03307-.27678q-.124-.07257-.24739-.14329a3.83552,3.83552,0,0,0-.1684.41272m1.02324-.26392c.008.09.01653.18064.0251.27127.12982-.00122.25964-.00306.39007-.00735a3.50742,3.50742,0,0,0-.18432-.42007c-.07777.05144-.15431.10349-.23085.15615m-.54377.02756c-.00367.0796-.00735.15982-.0098.24q.24342.00275.48682.00306c-.0049-.08267-.0098-.16472-.01408-.24617q-.23239.0046-.46294.00307m-.47457.33556c.0447.13594.09492.27.1488.40354.08206-.02572.16472-.0496.24372-.08328a2.79529,2.79529,0,0,0,.00122-.32822c-.13165.00062-.26331.00307-.39374.008m.46171-.00612c.0049.08695.0098.17391.01592.26086.15248.00184.30556.00429.45865.00551.00551-.09.011-.17942.01715-.26882-.16411,0-.32822.00123-.49172.00245m.56765-.00184c-.00367.08941-.00367.17942-.00061.26944a.88229.88229,0,0,0,.20268.17758,2.99187,2.99187,0,0,0,.20024-.43967c-.1341-.00551-.26821-.00735-.40231-.00735m-.52662.368c.05817.10962.101.24739.23085.29271a2.13753,2.13753,0,0,0,.19657-.29209,2.76722,2.76722,0,0,0-.42742-.00062m-.26821.11451q.1433.08727.29209.16718c-.02878-.09124-.05878-.18187-.08879-.2725-.068.0349-.13594.06981-.2033.10532m.74217-.09858c-.02695.08817-.05328.177-.07838.26637q.14421-.08084.28535-.16779C35.23522,12.14344,35.166,12.11037,35.09744,12.07792Z"/></g><g id="_3da4c6ff" data-name="#3da4c6ff"><path class="cls-45" d="M34.34609,11.119c.09614-.05389.1935-.10655.2927-.15615-.02878.09675-.0594.1935-.08879.29025Q34.44711,11.186,34.34609,11.119Z"/></g><g id="_00a7deff" data-name="#00a7deff"><path class="cls-46" d="M34.63144,11.27941a.70129.70129,0,0,1,.21738-.357c.07165.109.139.221.20392.33495C34.91251,11.27084,34.77167,11.277,34.63144,11.27941Z"/></g><g id="_3aa1c6ff" data-name="#3aa1c6ff"><path class="cls-47" d="M35.02763,10.95915c.098.05144.19411.10472.29087.15983-.07043.0447-.14023.08879-.21.13288C35.08029,11.15388,35.05335,11.05652,35.02763,10.95915Z"/></g><g id="_00a4e2ff" data-name="#00a4e2ff"><path class="cls-48" d="M34.11584,11.60273a3.83552,3.83552,0,0,1,.1684-.41272q.12308.07073.24739.14329c-.01164.09247-.02266.18432-.03307.27678Q34.30659,11.60825,34.11584,11.60273Z"/></g><g id="_00a6e5ff" data-name="#00a6e5ff"><path class="cls-49" d="M35.13908,11.33881c.07654-.05266.15308-.10471.23085-.15615a3.50742,3.50742,0,0,1,.18432.42007c-.13043.00429-.26025.00613-.39007.00735C35.15561,11.51945,35.147,11.42883,35.13908,11.33881Z"/></g><g id="_00aae8ff" data-name="#00aae8ff"><path class="cls-50" d="M34.59531,11.36637q.23055.00183.46294-.00307c.00428.08145.00918.1635.01408.24617q-.24341,0-.48682-.00306C34.588,11.52619,34.59164,11.446,34.59531,11.36637Z"/></g><g id="_aa282eff" data-name="#aa282eff"><path class="cls-51" d="M20.92463,11.57334a1.3398,1.3398,0,1,1-.96506.91669,1.34393,1.34393,0,0,1,.96506-.91669m-.40966.83586a1.00848,1.00848,0,0,0,.4066.81626c.23269.00183.52172.08266.69869-.11268.14513-.16472.466-.15859.49784-.41394.02756-.128-.10961-.19228-.17942-.27433.01654.11083.09492.2186.07165.33189a1.921,1.921,0,0,1-.22963.15982c.0398-.16778.08573-.33373.1243-.5009-.46293-.02266-.92709-.01531-1.39-.00612m-.1488.90015c.23514.19044.56152.068.83892.101.26025-.03123.56887.08511.78687-.09982A14.5456,14.5456,0,0,0,20.36617,13.30935Z"/></g><g id="_00a9e8ff" data-name="#00a9e8ff"><path class="cls-52" d="M34.12074,11.70193c.13043-.00489.26209-.00734.39374-.008a2.79529,2.79529,0,0,1-.00122.32822c-.079.03368-.16166.05756-.24372.08328C34.21566,11.972,34.16544,11.83787,34.12074,11.70193Z"/></g><g id="_00aaecff" data-name="#00aaecff"><path class="cls-53" d="M34.58245,11.69581c.1635-.00122.32761-.00245.49172-.00245-.00612.0894-.01164.17881-.01715.26882-.15309-.00122-.30617-.00367-.45865-.00551C34.59225,11.86972,34.58735,11.78276,34.58245,11.69581Z"/></g><g id="_00aaebff" data-name="#00aaebff"><path class="cls-54" d="M35.1501,11.694c.1341,0,.26821.00184.40231.00735a2.99187,2.99187,0,0,1-.20024.43967.88229.88229,0,0,1-.20268-.17758C35.14643,11.87339,35.14643,11.78338,35.1501,11.694Z"/></g><g id="_16a9fbff" data-name="#16a9fbff"><path class="cls-55" d="M34.62348,12.062a2.76722,2.76722,0,0,1,.42742.00062,2.13753,2.13753,0,0,1-.19657.29209C34.72452,12.30938,34.68165,12.17161,34.62348,12.062Z"/></g><g id="_52abc6ff" data-name="#52abc6ff"><path class="cls-56" d="M34.35527,12.1765c.06736-.03551.13533-.07042.2033-.10532.03.09063.06.18126.08879.2725Q34.49856,12.26376,34.35527,12.1765Z"/></g><g id="_4fa5c1ff" data-name="#4fa5c1ff"><path class="cls-57" d="M35.09744,12.07792c.06858.03245.13778.06552.207.09858q-.14145.08727-.28535.16779C35.04416,12.25488,35.07049,12.16609,35.09744,12.07792Z"/></g><g id="_ffef4cff" data-name="#ffef4cff"><path class="cls-58" d="M42.41561,13.1532a.5915.5915,0,0,1,.665.32577.59916.59916,0,0,1-.504.85361.62487.62487,0,0,1-.6399-.53213A.61127.61127,0,0,1,42.41561,13.1532Z"/></g><g id="_fcfffcff" data-name="#fcfffcff"><path class="cls-59" d="M47.22928,14.53588a.77514.77514,0,0,1,.45314-.18615.77414.77414,0,0,1-.64174.64113A.7738.7738,0,0,1,47.22928,14.53588Z"/></g><g id="_bcd4bfff" data-name="#bcd4bfff"><path class="cls-60" d="M40.50325,14.97922c.03735-.19595.05878-.39435.0992-.5903.01408.169.01592.33863.01408.50825a3.404,3.404,0,0,1,.24984-.27311c-.06368.15615-.13594.30862-.20024.46477.09124-.07348.18187-.1488.27679-.218-.08451.15676-.17269.31107-.25352.46967-.038-.08267-.07531-.16534-.11206-.24739-.117.07593-.23636.15247-.35516.22718-.05082-.16043-.10655-.32026-.16656-.47763.08818.09369.17146.19228.25351.29209.02695-.12308.05634-.24494.079-.36863Z"/></g><g id="_82a387ff" data-name="#82a387ff"><path class="cls-61" d="M40.19279,14.441c.068.10165.199.19289.19534.32516-.02266.12369-.052.24555-.079.36863-.08205-.09981-.16533-.1984-.25351-.29209-.05817-.06307-.11757-.12431-.17635-.18616.14206.04165.28412.0839.42619.12554C40.26627,14.66876,40.22708,14.55548,40.19279,14.441Z"/></g><g id="_a8c649ff" data-name="#a8c649ff"><path class="cls-62" d="M30.17722,14.81879a.599.599,0,0,1,.55356.11206.61487.61487,0,0,1-.11022.99812.60012.60012,0,1,1-.44334-1.11018Z"/></g><g id="_e7bb39ff" data-name="#e7bb39ff"><path class="cls-63" d="M19.21006,14.93207a.54676.54676,0,1,1-.21249.89648A.55207.55207,0,0,1,19.21006,14.93207Z"/></g><g id="_fcffffff" data-name="#fcffffff"><path class="cls-64" d="M47.60894,15.56279a.8051.8051,0,0,1,.64174-.646.78672.78672,0,0,1-.18125.45926A.74365.74365,0,0,1,47.60894,15.56279Z"/></g><g id="_fffffaff" data-name="#fffffaff"><path class="cls-65" d="M40.22218,15.3203c.1188-.07471.23821-.15125.35516-.22718.03675.082.0741.16472.11206.24739-.02265.08328-.0447.16656-.06613.25045-.1139-.00429-.22779-.00735-.34108-.01225C40.26259,15.49237,40.24239,15.406,40.22218,15.3203Z"/></g><g id="_202643ff" data-name="#202643ff"><path class="cls-66" d="M38.88971,18.07219a2.50362,2.50362,0,0,1,.51131.00062,1.0131,1.0131,0,0,1,.00123.51866,3.59564,3.59564,0,0,1-.51376-.00062A1.23409,1.23409,0,0,1,38.88971,18.07219Z"/></g><g id="_202642ff" data-name="#202642ff"><path class="cls-67" d="M21.755,19.12605a1.02543,1.02543,0,0,1,1.646.97179.19285.19285,0,0,1-.18.19228c-.45436.01225-.90934-.00673-1.3637.00919a.699.699,0,0,0,.52233.60438c.27985.06246.52417-.11144.77462-.2033.08941.128.23392.29332.14268.45682a1.25784,1.25784,0,0,1-1.79357-.18677,1.40475,1.40475,0,0,1,.25168-1.84439m.10532.77584c.32945.01286.6595.01409.98833-.00061-.04164-.22657-.17146-.47763-.42742-.50213C22.1279,19.38385,21.94174,19.65328,21.8603,19.90189Z"/><path class="cls-67" d="M36.54625,19.41079a1.11544,1.11544,0,0,1,1.44208-.35333,1.145,1.145,0,0,1,.4709,1.08937c-.02694.06981-.09185.14819-.17391.1439-.45436.01225-.90933-.00673-1.36431.008a.68636.68636,0,0,0,.57744.613,1.56417,1.56417,0,0,0,.7189-.21126c.08879.1286.23514.29332.14329.45682a1.26919,1.26919,0,0,1-1.74029-.11451,1.47312,1.47312,0,0,1-.0741-1.63191m.379.49171c.32822.01225.657.01286.98527-.00061a.5479.5479,0,0,0-.42559-.50274C37.19228,19.38507,37.00429,19.65205,36.9253,19.9025Z"/></g><g id="_0f2767ff" data-name="#0f2767ff"><path class="cls-68" d="M35.93084,19.35384a5.4387,5.4387,0,0,1,.08451,1.42922c-.0196.17758.0545.3919-.06675.54315l-.0349.00184A7.10686,7.10686,0,0,1,35.93084,19.35384Z"/></g><g id="_ab292fff" data-name="#ab292fff"><path class="cls-69" d="M50.06874,24.04259a.868.868,0,1,1-.57989.90567.87.87,0,0,1,.57989-.90567m.16228.26515c.008.07042.01592.14145.0251.2131a.43815.43815,0,0,0-.316.65888.467.467,0,0,0,.77462.06552c.17452-.199.02082-.47824.13717-.69991a1.49337,1.49337,0,0,1-.40477-.01347c.008-.07532.01654-.15125.02573-.226C50.39145,24.3059,50.31123,24.30713,50.231,24.30774Z"/></g><g id="_fff9f3ff" data-name="#fff9f3ff"><path class="cls-70" d="M50.231,24.30774c.08021-.00061.16043-.00184.24188-.00184-.00919.07471-.01776.15064-.02573.226-.06429-.00551-.128-.0098-.191-.011C50.24694,24.44919,50.239,24.37816,50.231,24.30774Z"/></g><g id="_b3252dff" data-name="#b3252dff"><path class="cls-71" d="M50.2549,24.59983a.36549.36549,0,1,1-.16717.61174.36773.36773,0,0,1,.16717-.61174m-.01715.35271c.041.04042.08267.08083.12492.12186.06185-.13533.12308-.27005.18126-.406C50.44044,24.7621,50.34124,24.85947,50.23775,24.95254Z"/></g><g id="_fffcffff" data-name="#fffcffff"><path class="cls-72" d="M30.75038,24.79762a4.61239,4.61239,0,0,1,.63745.00735l-.01225.19534a5.78229,5.78229,0,0,1-.635-.00368C30.743,24.92988,30.74609,24.86375,30.75038,24.79762Z"/></g><g id="_a77c7bff" data-name="#a77c7bff"><path class="cls-73" d="M22.40407,24.89314c-.03919-.1194.21-.1341.18309-.011A.52625.52625,0,0,1,22.40407,24.89314Z"/></g><g id="_b1262cff" data-name="#b1262cff"><path class="cls-74" d="M22.05319,25.19809c.21861-.00122.43722-.00183.65644.00368-.15.14145-.305.27861-.46049.41394C22.1824,25.47671,22.11749,25.33771,22.05319,25.19809Z"/></g><g id="_aa2a2dff" data-name="#aa2a2dff"><path class="cls-75" d="M21.31837,25.68124a.35254.35254,0,0,1,.50274-.32026c.12859.08573.24678.18554.37292.27494-.18187.0098-.36373.011-.5456.01164l-.0049.068c.14023.00122.28046.00306.42068.00857-.08328.10594-.14757.24861-.28535.29332A.3522.3522,0,0,1,21.31837,25.68124Z"/></g><g id="_fff8ffff" data-name="#fff8ffff"><path class="cls-76" d="M31.74238,25.34444c.0992-.00061.1984-.00061.29821,0l-.00489.11145c-.09676-.00061-.19351-.00122-.29026-.00122Z"/></g><g id="_fefeffff" data-name="#fefeffff"><path class="cls-77" d="M37.35088,25.89923a2.37492,2.37492,0,0,1,.35577-.01469c.03.12063.14636.24677.07349.37231a.288.288,0,0,1-.51376.06307C37.15248,26.18458,37.24433,26.00517,37.35088,25.89923Z"/><path class="cls-77" d="M36.79854,26.18826c.13472.01776.33312-.0545.40721.09736.18371.177-.02755.52662-.26331.47763-.16533.0098-.20881-.17819-.29454-.28229Q36.72506,26.33492,36.79854,26.18826Z"/><path class="cls-77" d="M37.27311,26.7357q.08634-.10013.1733-.199c.09675.05817.26637.06491.28229.20269.0545.18247-.1782.22779-.29638.28964C37.37844,26.931,37.32577,26.83306,37.27311,26.7357Z"/></g><g id="_fdfffeff" data-name="#fdfffeff"><path class="cls-78" d="M37.88056,26.18581c.13778.02021.33373-.04409.41334.10961.11451.15248-.00307.33128-.05389.48376a1.75089,1.75089,0,0,1,.10716.31168,1.72949,1.72949,0,0,1-.101.28107c-.117,0-.23391,0-.35026.00184a1.84863,1.84863,0,0,1-.14268-.28229,2.11629,2.11629,0,0,1,.14942-.3123,2.069,2.069,0,0,1-.14574-.30434A2.07164,2.07164,0,0,1,37.88056,26.18581Z"/></g><g id="_c85f3eff" data-name="#c85f3eff"><path class="cls-79" d="M47.17846,28.61745a1.49749,1.49749,0,0,1,.59275-.00062c.12554.087-.00857.22535-.03429.33312-.17513-.00306-.34965.00062-.52417.00735C47.187,28.84769,47.048,28.705,47.17846,28.61745Z"/></g><g id="_fdfbfaff" data-name="#fdfbfaff"><path class="cls-80" d="M21.98583,28.78768c.2529-.16962.567.02082.8377-.10165-.21861.21065-.10839.57989-.35639.76788a1.358,1.358,0,0,1-.9075.15187,1.42358,1.42358,0,0,1,.42619-.8181m.08206.041a3.089,3.089,0,0,0,.33556.13778c.02389-.04348.07165-.12982.09492-.17269a4.21779,4.21779,0,0,0-.43048.03491m-.12982.11022c-.03919.07716-.07716.15554-.1139.23453a.47969.47969,0,0,0,.4464-.15186q-.16624-.0441-.3325-.08267m.49478.41884a.77394.77394,0,0,0,.14757-.43047c-.1935.0649-.15737.27-.14757.43047m-.38088.10472.25045.00367c.01286-.12.02143-.24.02755-.35945a.52882.52882,0,0,0-.278.35578m-.2774-.22351c-.11022.0545-.05266.23882.06614.13962.1292-.0447.049-.23208-.06614-.13962m.18922.14206c-.07348-.008-.19963.06737-.15431.15126C21.89765,29.62109,22.09483,29.449,21.96379,29.381Z"/></g><g id="_6f806cff" data-name="#6f806cff"><path class="cls-81" d="M22.06789,28.82871a4.21779,4.21779,0,0,1,.43048-.03491c-.02327.04287-.071.12921-.09492.17269A3.089,3.089,0,0,1,22.06789,28.82871Z"/></g><g id="_587e5dff" data-name="#587e5dff"><path class="cls-82" d="M22.43285,29.35777c-.0098-.16043-.04593-.36557.14757-.43047A.77394.77394,0,0,1,22.43285,29.35777Z"/></g><g id="_40734cff" data-name="#40734cff"><path class="cls-83" d="M22.052,29.46249a.52882.52882,0,0,1,.278-.35578c-.00612.11941-.01469.23943-.02755.35945Z"/></g><g id="_909a8dff" data-name="#909a8dff"><path class="cls-84" d="M21.96379,29.381c.131.068-.06614.24005-.15431.15126C21.76416,29.44841,21.89031,29.37308,21.96379,29.381Z"/></g><g id="_fffdffff" data-name="#fffdffff"><path class="cls-85" d="M24.859,30.40979a1.70964,1.70964,0,0,1,.87688.00306c-.01469.12615-.03245.25168-.052.37782a1.10563,1.10563,0,0,1,.22718.11268.51341.51341,0,0,1-.2082.74094.69939.69939,0,0,0,.12431-.66012c-.03613-.02082-.109-.06307-.14513-.0845a4.67334,4.67334,0,0,0-.08941.714c.04042.26331.09737.52417.13411.78809q-.4317.00367-.8628-.00061a7.10331,7.10331,0,0,0,.13472-.84566c-.03429-.38333-.10288-.76237-.13962-1.1457m.09369.11573c.05389.38027.10165.76177.15,1.14326.12737.00122.25535.00184.38271.00368.0545-.38211.10349-.76483.15-1.14816-.22779-.00061-.45559-.00061-.68277.00122m.316,1.37411c-.23085.01654-.16227.42681.06859.357A.18249.18249,0,0,0,25.26863,31.89963Z"/><path class="cls-85" d="M32.35044,30.75209c.12186,0,.24433,0,.3668.00123l-.00245.18676c-.12124,0-.24188,0-.36251.00062C32.35167,30.89355,32.35105,30.79925,32.35044,30.75209Z"/></g><g id="_442c5fff" data-name="#442c5fff"><path class="cls-86" d="M24.95266,30.52552c.22718-.00183.455-.00183.68277-.00122-.04654.38333-.09553.766-.15,1.14816-.12736-.00184-.25534-.00246-.38271-.00368C25.05431,31.28729,25.00655,30.90579,24.95266,30.52552Z"/></g><g id="_f0f7fdff" data-name="#f0f7fdff"><path class="cls-87" d="M36.02943,31.13052c.31842.079.62337-.1592.94179-.08511a.52629.52629,0,0,1,.278.3919,7.22511,7.22511,0,0,1-.00061.92832,2.26749,2.26749,0,0,1-1.131-.09981,1.98148,1.98148,0,0,0-.84137-.169,3.26982,3.26982,0,0,1,.04593-1.06732c.02449.32883.02082.65888.03184.98833.2431.02449.48621.05388.7287.08573q.01377-.42712.00061-.85362c-.23269-.06491-.46784-.12369-.69747-.199a2.65408,2.65408,0,0,1,.64358.0796m.23147.11451c-.0098.28536-.011.57071.00123.85607.24371-.03246.48742-.06063.73175-.08267q.02114-.45284-.00122-.90505a2.1893,2.1893,0,0,0-.73176.13165m.83892.05206c-.01592.26208-.02266.52478-.03123.78747-.17636.0196-.35272.041-.52723.06981.19534.01225.3919.01715.58785.019A5.58183,5.58183,0,0,0,37.09982,31.29709Z"/></g><g id="_d5dee0ff" data-name="#d5dee0ff"><path class="cls-88" d="M37.09982,31.29709a5.58183,5.58183,0,0,1,.02939.87627c-.196-.00184-.39251-.00674-.58785-.019.17451-.02878.35087-.05021.52723-.06981C37.07716,31.82187,37.0839,31.55917,37.09982,31.29709Z"/></g><g id="_42734bff" data-name="#42734bff"><path class="cls-89" d="M44.56373,32.13661a.73363.73363,0,1,1-.42864.77218A.74308.74308,0,0,1,44.56373,32.13661Z"/></g><g id="_fdf9b2ff" data-name="#fdf9b2ff"><path class="cls-90" d="M31.60583,34.08572q-.09-.15982.07715-.21188a1.0112,1.0112,0,0,1,.42375.07839A.73692.73692,0,0,1,31.60583,34.08572Z"/></g><g id="_fefefcff" data-name="#fefefcff"><path class="cls-91" d="M38.37963,34.32025c.23942.00183.47885.00122.71828.00061a10.765,10.765,0,0,0-.087,1.12366c-.17942.00183-.35823.00183-.537.00183C38.44637,35.071,38.4427,34.69255,38.37963,34.32025Z"/></g><g id="_fefdffff" data-name="#fefdffff"><path class="cls-92" d="M38.47086,35.51862q.26913-.00276.53826.00244c-.00306.12125-.0049.2431-.00857.36557a4.87156,4.87156,0,0,1-.518.00246Q38.47424,35.70354,38.47086,35.51862Z"/></g></svg>