<svg xmlns="http://www.w3.org/2000/svg" viewBox="0 0 70 40"><defs><style>.cls-1{fill:#316992;}.cls-2{fill:#fff;}.cls-3{fill:#ed6965;}</style></defs><g id="Layer_2" data-name="Layer 2"><g id="Layer_1-2" data-name="Layer 1"><rect class="cls-1" width="70" height="40" rx="3.70584"/><path class="cls-2" d="M12.88568,32.55385a3.375,3.375,0,0,1,1.69659-6.299,3.15253,3.15253,0,0,1,.418.02808.17959.17959,0,0,1,.1586.223l-.14868.80947a.16784.16784,0,0,1-.185.14868l-.24119-.00991a2.12036,2.12036,0,0,0-1.087.2924,2.16931,2.16931,0,0,0-.79461.79461,2.16669,2.16669,0,0,0,0,2.174,2.16923,2.16923,0,0,0,.79461.79461,2.1247,2.1247,0,0,0,1.087.2924,1.92421,1.92421,0,0,0,1.18943-.38491,2.2582,2.2582,0,0,0,.75331-1.02754H15.32732a.192.192,0,0,1-.18668-.18667v-.679a.17779.17779,0,0,1,.05617-.1305.17517.17517,0,0,1,.13051-.05617h1.98073a.65922.65922,0,0,1,.34361.07434.23533.23533,0,0,1,.1206.2131,3.582,3.582,0,0,1-.40969,1.70155,3.14419,3.14419,0,0,1-1.13822,1.22247,3.06114,3.06114,0,0,1-1.64043.451A3.26363,3.26363,0,0,1,12.88568,32.55385Z"/><path class="cls-2" d="M19.16984,32.833a.15843.15843,0,0,1-.05121-.11564V26.54392a.16236.16236,0,0,1,.05616-.12555.17491.17491,0,0,1,.1206-.05121h.96641a.1558.1558,0,0,1,.11564.05121.16947.16947,0,0,1,.05121.12555v6.17347a.16368.16368,0,0,1-.04625.11564.15388.15388,0,0,1-.1206.05121h-.96641A.17326.17326,0,0,1,19.16984,32.833Z"/><path class="cls-2" d="M27.03,26.49766a.22414.22414,0,0,1-.00991.07434l-1.69163,6.19165a.14238.14238,0,0,1-.06443.09746.33426.33426,0,0,1-.13877.02313H23.98208a.36077.36077,0,0,1-.14373-.02313.12879.12879,0,0,1-.06938-.09746L22.0856,26.572a.26424.26424,0,0,1-.00992-.08425.10616.10616,0,0,1,.1206-.12059h.84582a.40522.40522,0,0,1,.15363.02312.12886.12886,0,0,1,.06939.09747q.17593.65915.5848,2.15749.40887,1.4967.6228,2.31444c.03139.11233.05616.16685.07434.16685.02478,0,.04956-.05617.07434-.16685q.2131-.81774.62279-2.31444.40887-1.4967.58646-2.15749a.15677.15677,0,0,1,.0793-.09747.37234.37234,0,0,1,.14372-.02312h.85573C26.98869,26.36716,27.03,26.41011,27.03,26.49766Z"/><path class="cls-3" d="M31.72329,32.84129a.19666.19666,0,0,1-.07434-.09746l-.46421-1.72963a.27467.27467,0,0,0-.10242-.13877.25509.25509,0,0,0-.1586-.05617H29.51954a.14564.14564,0,0,1-.10738-.0413.13379.13379,0,0,1-.0413-.09746v-.71531a.14777.14777,0,0,1,.0413-.10243.13542.13542,0,0,1,.10738-.04625h1.11509a.1671.1671,0,0,0,.13546-.06113.139.139,0,0,0,.02313-.14372l-.52038-1.89648a.24084.24084,0,0,0-.09251-.1305.25506.25506,0,0,0-.15859-.05617h-.06443a.24264.24264,0,0,0-.14868.05617.23267.23267,0,0,0-.09251.1305l-.34361,1.2456a.14521.14521,0,0,1-.185.09416l-.8739-.2131a.129.129,0,0,1-.08921-.06443.12432.12432,0,0,1-.01322-.11234l.58481-2.14758a.217.217,0,0,1,.07929-.10242.18909.18909,0,0,1,.11564-.04626h1.9989a.22031.22031,0,0,1,.1206.0413.20246.20246,0,0,1,.08425.09747l1.70981,6.24781v.01652a.09973.09973,0,0,1-.11234.11233h-.94824A.19934.19934,0,0,1,31.72329,32.84129Z"/><path class="cls-2" d="M35.25689,32.52081a3.36524,3.36524,0,0,1,0-5.777,3.14463,3.14463,0,0,1,1.64538-.451,3.18386,3.18386,0,0,1,1.34306.28744,3.32789,3.32789,0,0,1,1.0837.78965.12717.12717,0,0,1,.038.09251.12337.12337,0,0,1-.04626.10242l-.66905.57655a.14.14,0,0,1-.10242.04625.11125.11125,0,0,1-.09251-.04625,2.11883,2.11883,0,0,0-.7021-.50716,2.0609,2.0609,0,0,0-.85077-.18172,2.03,2.03,0,0,0-1.06388.2924,2.19314,2.19314,0,0,0-1.06388,1.88161A2.19314,2.19314,0,0,0,35.84,31.50814a2.03423,2.03423,0,0,0,1.06388.2924,2.065,2.065,0,0,0,.80947-.16189,2.12352,2.12352,0,0,0,.679-.46091.26247.26247,0,0,1,.17676-.07434.17513.17513,0,0,1,.13051.04626l.17676.14868.3717.33535a.206.206,0,0,1,.09251.17676.15345.15345,0,0,1-.04626.11234,3.236,3.236,0,0,1-2.38877,1.04075A3.14065,3.14065,0,0,1,35.25689,32.52081Z"/><path class="cls-2" d="M40.62089,32.85616a.10146.10146,0,0,1-.01818-.08425l1.64538-6.25607a.22191.22191,0,0,1,.06939-.09747.17746.17746,0,0,1,.11564-.0413h1.93447a.20364.20364,0,0,1,.11234.038.19032.19032,0,0,1,.07434.09251l1.64538,6.25607v.02808c0,.06774-.03139.10243-.09251.10243h-.91025a.19818.19818,0,0,1-.11564-.0413.15561.15561,0,0,1-.06938-.09747l-.456-1.72963a.2325.2325,0,0,0-.09251-.13877.25511.25511,0,0,0-.15859-.05616h-1.804a.25511.25511,0,0,0-.15859.05616.23477.23477,0,0,0-.09251.13877l-.456,1.71972a.15869.15869,0,0,1-.06938.10738.20205.20205,0,0,1-.11564.0413h-.91025A.094.094,0,0,1,40.62089,32.85616Zm3.39318-3.02148a.17261.17261,0,0,0,.17676-.21311l-.52038-1.91465a.19707.19707,0,0,0-.08425-.13051.25511.25511,0,0,0-.15859-.05616h-.05617a.25513.25513,0,0,0-.15859.05616.1971.1971,0,0,0-.08425.13051l-.51046,1.91465-.00991.04626a.16181.16181,0,0,0,.04625.12059.17513.17513,0,0,0,.13051.04626Z"/><path class="cls-2" d="M47.551,32.84129a.15843.15843,0,0,1-.05121-.11564V26.54392a.1558.1558,0,0,1,.05121-.11564.16947.16947,0,0,1,.12555-.05121h1.95265a2.127,2.127,0,0,1,1.06388.27423,2.05874,2.05874,0,0,1,.77147.74835,1.99438,1.99438,0,0,1,.28415,1.04075,1.88985,1.88985,0,0,1-.223.902,2.33112,2.33112,0,0,1-.60463.72522.15286.15286,0,0,0-.05617.12059.096.096,0,0,0,.00991.04626.07091.07091,0,0,1,.00992.02808l1.07874,2.407a.31729.31729,0,0,1,.02809.12059c0,.06773-.0413.10242-.1206.10242h-.81773a.51.51,0,0,1-.15363-.01817.16629.16629,0,0,1-.08756-.09251l-.97632-2.17567a.11555.11555,0,0,0-.06939-.07433.74076.74076,0,0,0-.18172-.02809h-.74339a.34035.34035,0,0,0-.19.038.15988.15988,0,0,0-.05121.13876v2.04516a.1558.1558,0,0,1-.05121.11564.16947.16947,0,0,1-.12555.05121h-.7434A.16928.16928,0,0,1,47.551,32.84129Zm2.0782-3.5369a.85973.85973,0,0,0,.6228-.25606.8462.8462,0,0,0,0-1.22247.86848.86848,0,0,0-.6228-.2511h-.864c-.11068,0-.16685.06277-.16685.18667v1.39428a.15783.15783,0,0,0,.038.10738.12975.12975,0,0,0,.10242.0413Z"/><path class="cls-2" d="M53.6022,32.767a.25825.25825,0,0,1-.0793-.19V26.60835a.19946.19946,0,0,1,.05617-.14373.18655.18655,0,0,1,.13876-.06112h1.85849a3.125,3.125,0,0,1,1.61234.43282,3.23141,3.23141,0,0,1,1.60408,2.79351,3.125,3.125,0,0,1-.43282,1.61234,3.22394,3.22394,0,0,1-1.17126,1.17126,3.14532,3.14532,0,0,1-1.61234.43282H53.79218A.25824.25824,0,0,1,53.6022,32.767Zm1.97577-1.12a1.97738,1.97738,0,0,0,1.01267-.26928,2.00764,2.00764,0,0,0,.73844-.73513,2.0069,2.0069,0,0,0,0-2.02534,2.05459,2.05459,0,0,0-.73844-.73844,1.95432,1.95432,0,0,0-1.01267-.27423h-.74339a.11281.11281,0,0,0-.11234.11234v3.93172H55.578Z"/><path class="cls-3" d="M37.77121,19.09346a.26465.26465,0,0,1-.109-.12225l-.80287-2.26652a.39182.39182,0,0,0-.152-.17677.34348.34348,0,0,0-.21806-.05782l-1.88.147a.19.19,0,0,1-.147-.0446.17891.17891,0,0,1-.06608-.12555l-.07434-.95816a.20444.20444,0,0,1,.04626-.14207.17909.17909,0,0,1,.13876-.07268l1.4934-.11564a.225.225,0,0,0,.17346-.09417.19043.19043,0,0,0,.01652-.19493l-.89538-2.48459a.31871.31871,0,0,0-.13711-.1652.34615.34615,0,0,0-.21807-.05782l-.08755.00661a.33319.33319,0,0,0-.19329.08921.31047.31047,0,0,0-.11068.18337l-.3304,1.7032a.19519.19519,0,0,1-.08425.11894.20483.20483,0,0,1-.15528.02478l-1.19274-.19493a.16608.16608,0,0,1-.12555-.07765.17505.17505,0,0,1-.02973-.14868l.56-2.93558a.30615.30615,0,0,1,.09417-.14537.25328.25328,0,0,1,.15033-.07434l2.67621-.20815a.30991.30991,0,0,1,.16685.04295.25.25,0,0,1,.12225.12225l2.94219,8.18559.00165.02478a.13117.13117,0,0,1-.13711.16024l-1.26873.09912A.27989.27989,0,0,1,37.77121,19.09346Z"/><path class="cls-2" d="M46.06583,19.0439l-.77147-9.90862a2.31957,2.31957,0,0,0-2.4879-2.12776L26.84,8.25147a2.31813,2.31813,0,0,0-2.12776,2.48789l.77148,9.907a2.3188,2.3188,0,0,0,2.30617,2.136c.05948,0,.1206-.00166.18172-.00661l15.96811-1.24395A2.318,2.318,0,0,0,46.06583,19.0439Zm-2.2087,1.44549L27.889,21.73333a1.26732,1.26732,0,0,1-1.36454-1.1663l-.77148-9.907a1.26222,1.26222,0,0,1,.24119-.84417l.299,3.84418.11564-.00992.28084-.02147-.30727-3.935-.01652-.21806a1.29069,1.29069,0,0,1,.51707-.17511l.02809.35188L27.144,12.654l1.02918-.0793-.23458-3.00331-.02808-.35188.51377-.03964.02643.35187.42621,5.45816.91686-.071L29.3692,9.46072l-.02808-.35352.38657-.02974.02808.35353.266,3.41961.13381-.00991-.266-3.42127-.02808-.35187.38656-.02973.02808.35352.31058,3.98955.52533-.0413L30.80148,9.35,30.775,8.99817l.72853-.05617.02643.35353.31057,3.98954.21972-.01652.47081-2.46806a.91244.91244,0,0,1,.1586-.3304l-.09747-1.25716-.02808-.35353.64923-.05121.02643.35187.07269.92512c.01982-.00331.03634-.005.05286-.00661l.34361-.02643-.07268-.92346L33.6082,8.7768l.52533-.0413L34.16,9.089l.071.92181,1.02919-.0793-.071-.92346-.02808-.35187L35.8103,8.605l.02808.35352.071.92181.1305-.00991a.9656.9656,0,0,1,.21807.00991l-.07434-.94989-.02644-.35188.55342-.04295.02808.35188.10243,1.31663a.89948.89948,0,0,1,.14868.23293l.01321.03469.84252,2.34252.17511-.01322-.31058-3.98955L37.682,8.45962l.32379-.02478.02643.35187.26762,3.43118.31388-.02313L38.3461,8.76193l-.02644-.35187.42622-.033.02808.35187.2511,3.21642.13216-.00991L38.90612,8.719l-.02643-.35352.42621-.033.02643.35352.31058,3.98955.674-.05286-.31058-3.98955-.02808-.35187.52533-.0413.02808.35187.27754,3.565.13381-.00992-.27753-3.565L40.6374,8.23l.63106-.04956.02643.35188.26763,3.43283.31553-.02478-.26432-3.43614-.02643-.35187L42.22,8.10279l.02643.35187.42621,5.45982,1.08206-.08425-.42622-5.45982L43.307,8.08958a1.25963,1.25963,0,0,1,.5022.26431c.01817.01652.03634.033.05451.05122l.2445,3.2032.13381-.00991-.23128-3.02479a1.26013,1.26013,0,0,1,.24119.64593l.77148,9.907A1.27,1.27,0,0,1,43.85713,20.48939Z"/></g></g></svg>