<svg xmlns="http://www.w3.org/2000/svg" viewBox="0 0 70 40"><defs><style>.cls-1{fill:#fcc60c;}.cls-2{fill:#fff;}</style></defs><g id="Layer_2" data-name="Layer 2"><g id="Layer_1-2" data-name="Layer 1"><rect class="cls-1" width="70" height="40" rx="3.70584"/><path class="cls-2" d="M28.38214,16.30451v-.49805c0-.668-.37109-1.07128-.9331-1.07128-.55176,0-.92285.40332-.92285,1.07128v4.18848c0,.66895.37109,1.07129.9331,1.07129a.94585.94585,0,0,0,.94385-1.07129V18.42561h-.668a.26613.26613,0,0,1-.25439-.28614.28453.28453,0,0,1,.31836-.29687h.9541a.33121.33121,0,0,1,.33935.34961v1.80273a1.62161,1.62161,0,0,1-1.65429,1.71875,1.57987,1.57987,0,0,1-1.62256-1.69726V15.79572A1.62134,1.62134,0,0,1,27.47,14.078a1.57907,1.57907,0,0,1,1.62256,1.69629v.53027a.35526.35526,0,0,1-.71045,0Z"/><path class="cls-2" d="M30.42707,15.79572A1.62133,1.62133,0,0,1,32.08136,14.078a1.57907,1.57907,0,0,1,1.62256,1.69629v4.2207a1.62161,1.62161,0,0,1-1.6543,1.71875,1.57987,1.57987,0,0,1-1.62255-1.69726Zm.71044,4.18946c0,.668.3711,1.07031.92286,1.07031.562,0,.9331-.40235.9331-1.07031V15.80646c0-.668-.37109-1.07128-.9331-1.07128-.55176,0-.92286.40332-.92286,1.07128Z"/><path class="cls-2" d="M34.826,15.79572A1.62145,1.62145,0,0,1,36.48078,14.078a1.579,1.579,0,0,1,1.62207,1.69629v4.2207a1.62134,1.62134,0,0,1-1.6543,1.71875A1.57987,1.57987,0,0,1,34.826,20.01643Zm.71045,4.18946c0,.668.37109,1.07031.92285,1.07031.56153,0,.9336-.40235.9336-1.07031V15.80646c0-.668-.37207-1.07128-.9336-1.07128-.55176,0-.92285.40332-.92285,1.07128Z"/><path class="cls-2" d="M40.848,14.18342a1.60605,1.60605,0,0,1,1.707,1.77148v3.84961a1.64611,1.64611,0,0,1-1.72852,1.80274H39.681a.33659.33659,0,0,1-.34961-.36036V14.534a.334.334,0,0,1,.34961-.35058Zm.99707,1.81347c0-.75293-.39257-1.166-1.03906-1.166H40.0423v6.12988H40.806c.64649,0,1.03906-.41406,1.03906-1.167Z"/><path class="cls-2" d="M46.56183,15.75373a.89476.89476,0,0,0-.87988-1.01855c-.52051,0-.87012.38183-.87012,1.01855v4.28418c0,.63574.34961,1.01758.87012,1.01758a.89442.89442,0,0,0,.87988-1.01758v-.78516a.3449.3449,0,0,1,.68945,0v.80664a1.5583,1.5583,0,0,1-1.58007,1.6543,1.52956,1.52956,0,0,1-1.56934-1.64453V15.743a1.55936,1.55936,0,0,1,1.60059-1.665,1.50493,1.50493,0,0,1,1.54882,1.63281v.71094a.3449.3449,0,0,1-.68945,0Z"/><path class="cls-2" d="M48.11847,21.15119l1.37891-6.62793c.06347-.26562.20117-.39258.41406-.39258.21191,0,.34961.127.41309.39258l1.36816,6.5957c.01074.09571.02148.15918.02148.19141a.34275.34275,0,0,1-.36132.34961c-.20118,0-.32813-.11621-.36035-.34961l-.30762-1.59082H49.09406l-.31739,1.60156c-.03222.22266-.14843.33887-.35058.33887a.30564.30564,0,0,1-.32813-.32812C48.098,21.29963,48.10773,21.23615,48.11847,21.15119Zm1.07129-2.01465h1.40039l-.70019-3.627Z"/><path class="cls-2" d="M52.69855,14.534a.334.334,0,0,1,.34961-.35058h1.14551a1.62655,1.62655,0,0,1,1.72851,1.80371v.7207a1.54535,1.54535,0,0,1-.87988,1.5586l1.0498,2.82128a.92586.92586,0,0,1,.05274.2334.31988.31988,0,0,1-.34961.33887c-.15918,0-.27539-.09473-.34961-.29687l-1.04-2.88477c-.09473.01074-.17969.02148-.23242.02148h-.76367v2.79981c.042.4668-.76367.4668-.71094,0Zm.71094,3.37207h.76367c.64648,0,1.03906-.41308,1.03906-1.166v-.74317c0-.75293-.39258-1.166-1.03906-1.166h-.76367Z"/><path class="cls-2" d="M59.00617,14.18342a1.606,1.606,0,0,1,1.707,1.77148v3.84961a1.64611,1.64611,0,0,1-1.72852,1.80274H57.83917a.33658.33658,0,0,1-.3496-.36036V14.534a.334.334,0,0,1,.3496-.35058Zm.99707,1.81347c0-.75293-.39258-1.166-1.03907-1.166H58.2005v6.12988h.76367c.64649,0,1.03907-.41406,1.03907-1.167Z"/><path class="cls-2" d="M27.66584,25.51838a.08975.08975,0,0,1-.02833.0664.21233.21233,0,0,1-.0664.0459.43925.43925,0,0,1-.08447.03223.697.697,0,0,1-.07422.01367c-.08887.0166-.17676.03028-.26367.042a2.36087,2.36087,0,0,1-.26416.02832c-.07471.00489-.14991.01172-.2251.02149-.07715.00879-.15381.0166-.22852.02051a.36811.36811,0,0,1-.05664.0039.53122.53122,0,0,1-.05615.00391.20585.20585,0,0,1-.09131-.02149.08135.08135,0,0,1-.04248-.08105.413.413,0,0,1,.00732-.07715.39883.39883,0,0,0,.00684-.07422,5.83063,5.83063,0,0,1,.0459-.73535c.02832-.24121.05127-.48535.07031-.73144a.2551.2551,0,0,0,.00342-.043v-.03809c0-.04492-.001-.08887-.00342-.13379a1.22837,1.22837,0,0,1-.00684-.13379.83511.83511,0,0,1,.00684-.09863.41476.41476,0,0,1,.02441-.11621.33615.33615,0,0,1,.04932-.09473.10289.10289,0,0,1,.08447-.03906.1284.1284,0,0,1,.11963.06738.28786.28786,0,0,1,.03516.13672.64835.64835,0,0,1-.01758.15137,1.03951,1.03951,0,0,0-.02441.15137q-.0315.40869-.06006.8125-.0315.40869-.04932.8164c.1294-.00879.2583-.01758.38721-.02441s.2583-.01758.38721-.03125a.60932.60932,0,0,0,.14062-.03223.43012.43012,0,0,1,.14453-.02441.15253.15253,0,0,1,.09131.02832A.10669.10669,0,0,1,27.66584,25.51838Z"/><path class="cls-2" d="M28.41876,23.74885a.53574.53574,0,0,1-.01757.13672.6964.6964,0,0,0-.02832.13769q-.03808.29883-.07032.59766a5.129,5.129,0,0,0-.03515.59863,1.35728,1.35728,0,0,0,.00732.14063c.002.04882.00342.09668.00342.14355a.61508.61508,0,0,1-.00732.09863.218.218,0,0,1-.02784.085.147.147,0,0,1-.06006.05957.18573.18573,0,0,1-.102.02442c-.05615,0-.09033-.01953-.10205-.05957a.35362.35362,0,0,1-.021-.123.72549.72549,0,0,1,.00342-.07422c0-.02344.00146-.04785.0039-.07324q.02784-.34131.07373-.67969a5.42373,5.42373,0,0,0,.042-.67871v-.01465a1.25745,1.25745,0,0,0-.00683-.13672.83379.83379,0,0,1-.01074-.13378.3472.3472,0,0,1,.01074-.084.25442.25442,0,0,1,.02832-.08105.19456.19456,0,0,1,.05615-.06055.16405.16405,0,0,1,.08447-.02051.15294.15294,0,0,1,.12989.05957A.21968.21968,0,0,1,28.41876,23.74885Z"/><path class="cls-2" d="M30.40314,23.45686a.4667.4667,0,0,1-.01758.126c-.01416.042-.02588.084-.03515.123a3.25943,3.25943,0,0,1-.09522.34863c-.03955.11231-.07959.22656-.11963.3418a4.80687,4.80687,0,0,1-.18652.47461q-.10546.23144-.2041.46777a1.49826,1.49826,0,0,0-.05274.15137,1.08821,1.08821,0,0,1-.06689.165.425.425,0,0,1-.09473.13379.21028.21028,0,0,1-.15137.05664h-.021a.08331.08331,0,0,1-.06006-.03516.12481.12481,0,0,1-.02783-.05957.36911.36911,0,0,1-.01416-.07422.33846.33846,0,0,0-.01416-.07031c-.01416-.04-.02832-.07813-.042-.11621-.0166-.03711-.03173-.07617-.04589-.11621-.03077-.084-.0586-.16992-.08448-.25684-.02832-.084-.05517-.1709-.08105-.25976a2.73506,2.73506,0,0,1-.06348-.27149c-.01855-.08887-.042-.17773-.07031-.26758-.00684-.02343-.01758-.05273-.03174-.08789-.01611-.03515-.03125-.07129-.04541-.10937a.70641.70641,0,0,1-.03857-.1084.25665.25665,0,0,1-.01758-.08789.09952.09952,0,0,1,.04541-.085.164.164,0,0,1,.0918-.02832.11646.11646,0,0,1,.07373.02539.3029.3029,0,0,1,.05615.05566.7616.7616,0,0,1,.03857.07422c.01172.02539.02246.04883.03174.07031a1.352,1.352,0,0,1,.07422.21094l.05615.21875c.04.14258.07617.28613.10889.42871.0332.14551.07275.28906.11963.42969a5.37361,5.37361,0,0,0,.34131-.7041,7.73267,7.73267,0,0,0,.24658-.73535c.00928-.03028.021-.07032.03516-.11914.01171-.04981.02441-.09961.03857-.15137s.0293-.10156.0459-.14844a.923.923,0,0,1,.04541-.10547.12718.12718,0,0,1,.11621-.0664.09649.09649,0,0,1,.0918.05273A.259.259,0,0,1,30.40314,23.45686Z"/><path class="cls-2" d="M32.19464,25.42658a.14214.14214,0,0,1-.08789.12012.84135.84135,0,0,1-.20068.07715,1.54844,1.54844,0,0,1-.2251.0459c-.07519.01171-.12793.01855-.15869.0205a2.05467,2.05467,0,0,0-.26025.0459.76524.76524,0,0,1-.26368.02539.58273.58273,0,0,1-.0747.10547.15984.15984,0,0,1-.1211.05274.1156.1156,0,0,1-.11718-.06348.30837.30837,0,0,1-.02832-.13379c0-.02832.001-.05664.00341-.085l.00684-.084q.011-.28563.04053-.56347.02564-.27686.04394-.5586a.21467.21467,0,0,1,.00342-.03515v-.03223c0-.05371-.00195-.10644-.00684-.1582-.00488-.04883-.00683-.10059-.00683-.15527a.76723.76723,0,0,1,.01367-.14356.28714.28714,0,0,1,.05225-.13086.10811.10811,0,0,1,.04541-.03516.38884.38884,0,0,1,.05517-.00976.38331.38331,0,0,1,.05908-.00391.29507.29507,0,0,0,.05225-.0039c.08691-.01172.17334-.02051.26025-.02735.08448-.00488.16993-.01367.25684-.02539a1.88679,1.88679,0,0,0,.22168-.04883.8943.8943,0,0,1,.229-.02832.40888.40888,0,0,1,.11573.01758.0872.0872,0,0,1,.06006.0918v.01074l-.00342.00977a.10034.10034,0,0,1-.03516.06738.24207.24207,0,0,1-.0708.03809.32236.32236,0,0,1-.084.01757c-.03077.00489-.05762.00977-.08106.01465a.92.92,0,0,1-.16211.02051c-.05615.00293-.11133.00781-.165.01465-.06347.00976-.12549.02148-.18652.03515a.74786.74786,0,0,1-.18994.02442c-.02393,0-.0459-.001-.0669-.00293-.02343-.00293-.04736-.00586-.07031-.01074a.50561.50561,0,0,0-.02148.14746c0,.05371-.001.10547-.00342.15527-.00244.03516-.00488.07031-.00684.10547a.76624.76624,0,0,0-.00732.10547.53039.53039,0,0,0,.01074.1084.2961.2961,0,0,0,.05274.00781,1.10434,1.10434,0,0,0,.21093-.02148,1.05333,1.05333,0,0,1,.20752-.02149c.02149,0,.0459.002.07422.00391.02783.00488.05518.01074.08106.01758a.2199.2199,0,0,1,.063.03906.10146.10146,0,0,1,.02491.07031.05685.05685,0,0,1-.01758.0459.09724.09724,0,0,1-.04248.02441.23526.23526,0,0,1-.05615.01367.29218.29218,0,0,0-.05274.01075,1.35321,1.35321,0,0,1-.21142.0459,1.556,1.556,0,0,1-.21436.01367h-.06006a.57339.57339,0,0,1-.05957-.00293.70239.70239,0,0,0-.02832.1582c-.00537.06348-.00879.12891-.01025.19727-.00244.06738-.00391.13476-.00391.20019-.002.06836-.00439.127-.00684.17578a.61379.61379,0,0,1,.14795-.03125.96289.96289,0,0,0,.15088-.02539c.106-.02344.21-.043.31348-.05957.10058-.0166.2041-.03125.30957-.0459a.37131.37131,0,0,0,.10205-.02734.301.301,0,0,1,.102-.01758.11.11,0,0,1,.07031.02442A.08412.08412,0,0,1,32.19464,25.42658Z"/><path class="cls-2" d="M34.85089,25.08869a.63441.63441,0,0,1-.02783.18652.995.995,0,0,1-.081.17969.90832.90832,0,0,1-.11621.16211.81813.81813,0,0,1-.148.123.52909.52909,0,0,1-.10547.04883.84786.84786,0,0,1-.12988.03906.949.949,0,0,1-.13038.02441,1.12291,1.12291,0,0,1-.123.00684.66156.66156,0,0,1-.48584-.2002.59911.59911,0,0,1-.15479-.25293,1.015,1.015,0,0,1-.042-.29589,1.46055,1.46055,0,0,1,.03516-.292,2.83475,2.83475,0,0,1,.09326-.34179,2.41381,2.41381,0,0,1,.13867-.31934.91479.91479,0,0,1,.16943-.23633c.04493-.04394.08692-.083.127-.11621a.67912.67912,0,0,1,.12011-.07715.54125.54125,0,0,1,.13428-.042.91927.91927,0,0,1,.17627-.01465.62376.62376,0,0,1,.17285.02832.81229.81229,0,0,1,.17285.085.61673.61673,0,0,1,.13428.12989.28785.28785,0,0,1,.05274.165.17749.17749,0,0,1-.00684.04589.50259.50259,0,0,1-.01758.04981.1398.1398,0,0,1-.03174.03808.07029.07029,0,0,1-.0459.01758.08773.08773,0,0,1-.05957-.02441A.44353.44353,0,0,1,34.619,24.16a.19808.19808,0,0,1-.03516-.0459l-.02832-.04883c-.00976-.0166-.02-.0332-.03173-.0498a.17338.17338,0,0,0-.0459-.042.39576.39576,0,0,0-.09912-.042.55776.55776,0,0,0-.106-.01074.45274.45274,0,0,0-.332.1377,1.15774,1.15774,0,0,0-.25049.39062,1.54961,1.54961,0,0,0-.1167.4502q-.00659.05273-.01025.10547c-.00245.03515-.00342.07031-.00342.10547a.78.78,0,0,0,.02441.2041.40917.40917,0,0,0,.08106.16211.34429.34429,0,0,0,.1416.10839.48817.48817,0,0,0,.208.03907.58985.58985,0,0,0,.21533-.042.67413.67413,0,0,0,.19092-.11622.62176.62176,0,0,0,.13769-.17285.43317.43317,0,0,0,.0459-.21093l-.00342-.02051a.10046.10046,0,0,0-.04931-.01074.28045.28045,0,0,0-.08448.01367q-.04248.01758-.08789.03515c-.03076.01172-.061.02246-.09179.03223a.29.29,0,0,1-.09864.01758.11817.11817,0,0,1-.1333-.13379.06727.06727,0,0,1,.02783-.05664.16727.16727,0,0,1,.06006-.03125.44.44,0,0,1,.07373-.01758.49363.49363,0,0,0,.0669-.01074.92367.92367,0,0,0,.09131-.03906c.04-.01661.08105-.03418.12353-.05274.042-.01855.082-.03516.11963-.04883a.23444.23444,0,0,1,.07031-.02148.09307.09307,0,0,1,.07715.042.32213.32213,0,0,1,.04932.09863c.01172.04.021.07911.02832.11621A.928.928,0,0,1,34.85089,25.08869Z"/><path class="cls-2" d="M36.90949,24.42365c0,.04492-.00293.09278-.00782.14453-.0039.05371-.01171.10645-.0205.15821-.01172.05371-.02442.10547-.03907.15527a.90282.90282,0,0,1-.05566.13672.91486.91486,0,0,1-.06348.10547c-.02832.04-.05761.0791-.08789.11621a1.25847,1.25847,0,0,1-.0957.10547.61811.61811,0,0,1-.09473.08105.66788.66788,0,0,1-.27441.10938,1.48246,1.48246,0,0,1-.2959.03125,1.35379,1.35379,0,0,1-.14014-.00684,1.003,1.003,0,0,1-.14453-.02441.56753.56753,0,0,1-.313-.19336.99911.99911,0,0,1-.1831-.32422,1.12814,1.12814,0,0,1-.0459-.22852,2.20349,2.20349,0,0,1-.01367-.23242,1.13873,1.13873,0,0,1,.10889-.52051,1.23509,1.23509,0,0,1,.34814-.40136c.03516-.02832.06592-.05176.0918-.07032a.56961.56961,0,0,1,.07715-.042.63823.63823,0,0,1,.08447-.02441c.03076-.00684.06787-.01563.1123-.02442a1.18934,1.18934,0,0,1,.127-.02148,1.01712,1.01712,0,0,1,.123-.00684c.02832,0,.05957.001.09473.00293.03613.00489.07129.01074.10644.01758.03516.00977.06836.02051.10157.03223a.29827.29827,0,0,1,.07715.04883.23165.23165,0,0,1,.03906.05664.2205.2205,0,0,0,.03906.0664l.03516.03223.03125.03516c.02343.02832.04785.05957.07422.09472.02539.03516.0498.07129.07324.10938.02344.04.04492.0791.06347.11914a1.16091,1.16091,0,0,1,.03907.11621.74113.74113,0,0,1,.02441.123C36.90753,24.3426,36.90949,24.38459,36.90949,24.42365Zm-.24317.05664a1.21085,1.21085,0,0,0-.01757-.19726.88754.88754,0,0,0-.05958-.18653.35806.35806,0,0,0-.1123-.12988.87648.87648,0,0,1-.13086-.1123.27553.27553,0,0,1-.03516-.06055.12673.12673,0,0,0-.03808-.04883.26474.26474,0,0,0-.0918-.03516.77311.77311,0,0,0-.09863-.00683c-.02539,0-.05078.001-.07422.00293-.02539.00293-.05176.00586-.07715.01074a1.44657,1.44657,0,0,0-.144.02832.50053.50053,0,0,0-.09522.042.42907.42907,0,0,0-.081.07032c-.02588.02832-.05713.06347-.09473.10546a.8261.8261,0,0,0-.17627.28907,1.06046,1.06046,0,0,0-.05273.33789.79354.79354,0,0,0,.02832.22168,1.18627,1.18627,0,0,0,.07764.207.84023.84023,0,0,0,.063.11328.3205.3205,0,0,0,.0669.07715.336.336,0,0,0,.08447.05273.8861.8861,0,0,0,.11963.04883.57623.57623,0,0,0,.17578.02832.7391.7391,0,0,0,.22168-.03516.64749.64749,0,0,0,.19727-.09472.57773.57773,0,0,0,.09179-.0918,1.23651,1.23651,0,0,0,.09473-.13379,1.48249,1.48249,0,0,0,.08105-.14062.68409.68409,0,0,0,.04883-.11914.654.654,0,0,0,.02442-.123C36.66535,24.56037,36.66632,24.52033,36.66632,24.48029Zm2.08985-.00683a1.47909,1.47909,0,0,1-.01075.17578c-.00683.06543-.01562.13281-.02734.20019a1.73392,1.73392,0,0,1-.0459.20118,1.08452,1.08452,0,0,1-.06738.16113.84971.84971,0,0,1-.31641.32812.87233.87233,0,0,1-.22558.09082.902.902,0,0,1-.24219.03516.59525.59525,0,0,1-.37988-.12988.77489.77489,0,0,1-.25-.32422.79011.79011,0,0,1-.05957-.23145,1.6754,1.6754,0,0,1-.01758-.23633c0-.05371.002-.10742.00683-.1621a.92558.92558,0,0,1,.02051-.15821,1.01213,1.01213,0,0,1,.043-.14355,1.4139,1.4139,0,0,1,.06641-.14844,1.3026,1.3026,0,0,1,.08789-.14063.75982.75982,0,0,1,.0957-.10937c.04883-.04395.0918-.082.12988-.1123a.61156.61156,0,0,1,.11231-.07325.49821.49821,0,0,1,.127-.043,1.40311,1.40311,0,0,1,.16895-.0205.14372.14372,0,0,1,.03515-.00391h.03125a1.077,1.077,0,0,1,.166.01367.90566.90566,0,0,1,.1582.04981.45918.45918,0,0,1,.17188.12988.88192.88192,0,0,1,.123.20117,1.161,1.161,0,0,1,.07422.23145A1.08521,1.08521,0,0,1,38.75617,24.47346Zm-.26367.05566c0-.03516-.002-.07812-.00684-.12988s-.01172-.10449-.02149-.15821a.89344.89344,0,0,0-.04589-.14746.26775.26775,0,0,0-.07715-.10254.57332.57332,0,0,0-.14746-.07714.584.584,0,0,0-.166-.02442.51438.51438,0,0,0-.17871.03125.721.721,0,0,0-.17285.08789.90346.90346,0,0,0-.14453.127.61078.61078,0,0,0-.09766.15429.86331.86331,0,0,0-.06055.18653.90587.90587,0,0,0-.0205.19726,1.12375,1.12375,0,0,0,.00976.14063,1.11045,1.11045,0,0,0,.02832.16894,1.02537,1.02537,0,0,0,.0459.16211.35162.35162,0,0,0,.07031.123.40525.40525,0,0,0,.166.11621.53905.53905,0,0,0,.19629.03516.43563.43563,0,0,0,.23242-.05957.94177.94177,0,0,0,.18652-.14844.46755.46755,0,0,0,.09473-.14063,1.04488,1.04488,0,0,0,.06348-.17871,1.28449,1.28449,0,0,0,.03515-.19433A1.58261,1.58261,0,0,0,38.4925,24.52912Z"/><path class="cls-2" d="M40.62433,24.241a1.56546,1.56546,0,0,1-.00976.17579,1.84809,1.84809,0,0,1-.03223.19043,1.53554,1.53554,0,0,1-.05957.18261.82662.82662,0,0,1-.08106.15528,1.36042,1.36042,0,0,1-.10156.12988c-.043.04687-.08691.09277-.13379.13672a1.50661,1.50661,0,0,1-.1416.127c-.04883.04-.09473.07422-.13672.10254q-.05273.03516-.15527.09082c-.07031.04-.14356.0791-.22168.11621-.07715.04-.15137.07422-.22168.10254a.50178.50178,0,0,1-.165.042.05629.05629,0,0,1-.05957-.03906.66527.66527,0,0,1-.02441-.07031.07935.07935,0,0,1-.02832.0039.06948.06948,0,0,1-.07032-.042.18842.18842,0,0,1-.02148-.08789v-.01465c0-.27929.01465-.55566.042-.83008q.04248-.41161.0918-.82714v-.02149a.2955.2955,0,0,0-.01367-.08789.199.199,0,0,1-.01758-.084.2128.2128,0,0,1,.00293-.03516.07863.07863,0,0,1,.01465-.02832.21238.21238,0,0,1,.09472-.07031,1.18935,1.18935,0,0,1,.165-.06348,1.749,1.749,0,0,1,.17285-.0459c.05567-.01172.09864-.01953.126-.02441.03613-.00488.07227-.00781.10937-.01074q.05274-.00294.10547-.00293a.78382.78382,0,0,1,.21875.02734.68644.68644,0,0,1,.17578.08106.753.753,0,0,1,.14454.13085,1.64922,1.64922,0,0,1,.123.18262.74436.74436,0,0,1,.084.19727A.856.856,0,0,1,40.62433,24.241Zm-.25293.03516a.65152.65152,0,0,0-.14844-.415.45958.45958,0,0,0-.17285-.14746.57456.57456,0,0,0-.22656-.03906h-.05566a.39561.39561,0,0,0-.06055.0039.32986.32986,0,0,0-.085.01758l-.084.02735c-.02832.00976-.05664.01757-.085.02539a.2254.2254,0,0,1-.08886.00293c-.00391.14062-.01465.28027-.03125.41894-.01563.14063-.03125.28125-.04786.42188-.01757.14062-.03222.28222-.04394.42285q-.02051.21093-.02051.42187v.04883c.04883-.01855.10449-.043.165-.07324.06152-.02832.123-.05859.18652-.0918.06055-.03222.1211-.06836.17969-.10547a1.57328,1.57328,0,0,0,.14453-.10156c.03906-.03125.07617-.06055.1084-.08887q.04541-.041.08789-.08789a1.01079,1.01079,0,0,0,.07813-.09472,1.22722,1.22722,0,0,0,.07324-.11621,1.0824,1.0824,0,0,0,.0918-.21778A.87913.87913,0,0,0,40.3714,24.27619Z"/><path class="cls-2" d="M41.35285,25.54963a.14366.14366,0,0,1-.00391.03515.341.341,0,0,1-.03809.10938.67249.67249,0,0,1-.07617.127.53664.53664,0,0,1-.09765.10547.17909.17909,0,0,1-.1084.042.15433.15433,0,0,1-.084-.02832.08663.08663,0,0,1-.042-.07714.16077.16077,0,0,1,.02832-.0879c.01856-.03027.03906-.0625.0625-.09472.02149-.03125.041-.0625.06055-.09571a.17848.17848,0,0,0,.02832-.09472.13052.13052,0,0,0-.02539-.084.69779.69779,0,0,0-.05957-.06054.40637.40637,0,0,1-.05664-.05957.0995.0995,0,0,1-.02735-.07422.12259.12259,0,0,1,.04883-.11231.2107.2107,0,0,1,.12012-.03125.14587.14587,0,0,1,.08594.02832.34274.34274,0,0,1,.07031.07032.57642.57642,0,0,1,.05469.08789.82855.82855,0,0,1,.03222.084.64276.64276,0,0,1,.02735.17578Z"/><path class="cls-2" d="M44.16144,23.62189a.08936.08936,0,0,1-.01465.05664.11018.11018,0,0,1-.042.03125.19071.19071,0,0,1-.05273.01368.51662.51662,0,0,1-.05957.01074.73478.73478,0,0,1-.19043.01074,1.48575,1.48575,0,0,0-.19727.00684,1.38458,1.38458,0,0,0-.2002.03515,1.06287,1.06287,0,0,1-.2041.03516.83619.83619,0,0,0-.04883.21875,2.26408,2.26408,0,0,0-.01074.22852v.06347c0,.02051.001.042.00293.06348a.65473.65473,0,0,0,.17969-.02539.65832.65832,0,0,1,.17578-.02442.15738.15738,0,0,1,.09863.03223.10463.10463,0,0,1,.042.09082.07685.07685,0,0,1-.03809.06738.33921.33921,0,0,1-.0957.042.64106.64106,0,0,1-.11231.02441l-.084.01074c-.03125.00488-.06055.00781-.08789.01074-.03125.00489-.06153.01075-.0918.01758-.01172.10547-.02539.21-.03906.3125-.0166.10645-.03125.21192-.043.31738a1.066,1.066,0,0,0-.01074.126,1.30963,1.30963,0,0,1-.01758.166.52532.52532,0,0,1-.04981.14355.11512.11512,0,0,1-.10351.06055.0994.0994,0,0,1-.07031-.02149.12558.12558,0,0,1-.043-.05273.265.265,0,0,1-.01758-.07031q-.00292-.03516-.00293-.07032a1.35789,1.35789,0,0,1,.03125-.28906,2.557,2.557,0,0,0,.0498-.28125c.01856-.16211.03223-.32129.042-.47851.00879-.15723.01367-.31641.01367-.47852v-.1084q0-.03222-.00293-.06738a.28235.28235,0,0,1-.00781-.06348v-.02832a.05824.05824,0,0,1,.00781-.02734.159.159,0,0,1,.08887-.08887,1.05626,1.05626,0,0,1,.18164-.0625c.06836-.0166.14355-.03125.22558-.043.0791-.01172.15821-.0205.23535-.02734.0752-.00781.14454-.01172.208-.01465.06055-.002.10645-.00293.13672-.00293q.03222,0,.07031.00293a.3052.3052,0,0,1,.07422.01758.14334.14334,0,0,1,.05274.03906A.10791.10791,0,0,1,44.16144,23.62189Z"/><path class="cls-2" d="M45.762,25.36311a.07571.07571,0,0,1-.01758.0498.16438.16438,0,0,1-.042.03516.38517.38517,0,0,1-.05664.02832l-.05274.01757a3.08445,3.08445,0,0,1-.48144.10157c-.16211.02343-.32422.05566-.48633.09472a.32565.32565,0,0,1-.04492.07813.09569.09569,0,0,1-.07813.03515.14324.14324,0,0,1-.1084-.03906.1456.1456,0,0,1-.03906-.10937.53712.53712,0,0,1,.01074-.10157c.00488-.0332.00879-.06542.01367-.09863.01465-.17383.03321-.3457.05469-.51758.01953-.17089.03418-.34277.04395-.5166.00488-.09863.00781-.19726.01074-.2959,0-.09863.00488-.19726.01367-.29589.00293-.0254.00586-.05567.01074-.09082a.11494.11494,0,0,1,.04492-.08106.13807.13807,0,0,1,.08008-.02148.4687.4687,0,0,0,.08692-.00684c.084-.01172.168-.02441.25293-.03906.084-.01367.167-.02735.249-.042a.45573.45573,0,0,0,.07813-.01758c.03222-.00684.0664-.01367.10156-.02051.0332-.00781.06445-.01465.0957-.02148a.45965.45965,0,0,1,.07031-.00684.36844.36844,0,0,1,.11914.02051.09577.09577,0,0,1,.05664.0957v.01367a.11048.11048,0,0,1-.01464.06738.07915.07915,0,0,1-.042.02735.20991.20991,0,0,1-.05957.00781c-.02343.002-.04687.00586-.07031.00977-.06152.01172-.127.02246-.19726.03222-.07227.01172-.14454.02344-.21485.03516-.07226.01172-.14258.02539-.21094.042a1.104,1.104,0,0,0-.18652.05957c.002.02149.00488.043.00684.06348v.06348c0,.05859-.002.11621-.00684.17285a1.41138,1.41138,0,0,0-.01074.17187.46316.46316,0,0,0,.0039.06348c0,.02148.001.042.00293.06347.06836-.01464.13868-.02929.21192-.04589a1.08767,1.08767,0,0,1,.207-.02149h.05664c.02344.00293.04688.00586.07031.01074a.20539.20539,0,0,1,.05664.02832.06774.06774,0,0,1,.02442.05274.075.075,0,0,1-.03906.05957.44429.44429,0,0,1-.10547.05664c-.042.0166-.08887.03125-.14063.0459-.05176.01367-.10058.02539-.14746.03515-.04687.00879-.08984.01661-.127.02051a.85242.85242,0,0,1-.085.00781,1.09855,1.09855,0,0,0-.05567.33008c-.00293.11524-.00976.2295-.02148.3418h.03222a1.698,1.698,0,0,0,.36524-.042c.12207-.02832.24121-.0586.35547-.0918.0332-.00976.06836-.01953.10547-.03223a.4743.4743,0,0,1,.10547-.01367.16314.16314,0,0,1,.10253.03516A.11707.11707,0,0,1,45.762,25.36311Zm1.79785.06347a.14216.14216,0,0,1-.08789.12012.82185.82185,0,0,1-.2002.07715,1.54146,1.54146,0,0,1-.22558.0459q-.1128.01757-.15821.0205a2.03206,2.03206,0,0,0-.25976.0459.77079.77079,0,0,1-.26465.02539.53492.53492,0,0,1-.07422.10547.15982.15982,0,0,1-.12109.05274.11476.11476,0,0,1-.11719-.06348.30163.30163,0,0,1-.02832-.13379q0-.04248.00293-.085l.00781-.084q.01026-.28563.04-.56347c.0166-.18457.03223-.3711.044-.5586a.14376.14376,0,0,1,.0039-.03515v-.03223c0-.05371-.00293-.10644-.00781-.1582-.00391-.04883-.00684-.10059-.00684-.15527a.73139.73139,0,0,1,.01465-.14356.28676.28676,0,0,1,.05176-.13086.10672.10672,0,0,1,.04492-.03516.40978.40978,0,0,1,.05567-.00976.38135.38135,0,0,1,.05957-.00391.293.293,0,0,0,.05175-.0039c.08692-.01172.17383-.02051.26075-.02735.084-.00488.16992-.01367.25683-.02539a1.95449,1.95449,0,0,0,.22168-.04883.89328.89328,0,0,1,.22852-.02832.4147.4147,0,0,1,.11621.01758.08792.08792,0,0,1,.05957.0918v.01074l-.00391.00977a.10034.10034,0,0,1-.03515.06738.22251.22251,0,0,1-.07032.03809.32236.32236,0,0,1-.084.01757c-.03125.00489-.05762.00977-.08106.01465a.91989.91989,0,0,1-.16211.02051c-.05664.00293-.11132.00781-.165.01465-.06348.00976-.126.02148-.18653.03515a.74875.74875,0,0,1-.19043.02442c-.02344,0-.0459-.001-.0664-.00293-.02344-.00293-.04688-.00586-.07032-.01074a.49.49,0,0,0-.02148.14746c0,.05371-.001.10547-.00391.15527-.002.03516-.0039.07031-.00683.10547a.764.764,0,0,0-.00684.10547.5672.5672,0,0,0,.01074.1084.2961.2961,0,0,0,.05274.00781,1.10452,1.10452,0,0,0,.21094-.02148,1.05808,1.05808,0,0,1,.208-.02149c.02051,0,.0459.002.07325.00391.02832.00488.05566.01074.081.01758a.22247.22247,0,0,1,.06348.03906.10118.10118,0,0,1,.02441.07031.05685.05685,0,0,1-.01758.0459.09555.09555,0,0,1-.042.02441.228.228,0,0,1-.05664.01367.31094.31094,0,0,0-.05273.01075,1.35991,1.35991,0,0,1-.21094.0459,1.558,1.558,0,0,1-.21485.01367h-.05957a.58047.58047,0,0,1-.05957-.00293.67648.67648,0,0,0-.02832.1582c-.00488.06348-.00879.12891-.01074.19727-.002.06738-.00293.13476-.00293.20019-.00293.06836-.00488.127-.00781.17578a.61754.61754,0,0,1,.14844-.03125.97868.97868,0,0,0,.15136-.02539c.10547-.02344.21-.043.3125-.05957.10157-.0166.2041-.03125.30957-.0459a.37933.37933,0,0,0,.10254-.02734.30034.30034,0,0,1,.10157-.01758.10816.10816,0,0,1,.07031.02442A.08114.08114,0,0,1,47.55988,25.42658Z"/><path class="cls-2" d="M49.17511,25.47932a.10212.10212,0,0,1-.03906.08789.25217.25217,0,0,1-.09863.03906.4566.4566,0,0,1-.11621.01367c-.04.00293-.07227.00488-.09864.00781-.13867.01368-.27441.03028-.4082.04883-.13379.02149-.26953.03711-.4082.04883h-.02051a.08477.08477,0,0,1-.02539.00391.29545.29545,0,0,1-.123-.02832.10223.10223,0,0,1-.06347-.10157.19605.19605,0,0,1,.02539-.08789.38158.38158,0,0,0,.02832-.08789,2.55422,2.55422,0,0,0,.03808-.2959c.00488-.09668.01172-.19336.02149-.292q.02782-.30615.03515-.6123c.002-.20215.0127-.4043.03125-.6084.00293-.02832.00586-.05762.01074-.08789a.23207.23207,0,0,1,.02149-.08106.12761.12761,0,0,1,.12988-.08789.08213.08213,0,0,1,.06641.02735.25531.25531,0,0,1,.03906.07421.51494.51494,0,0,1,.01367.0879v.07714c0,.06836-.002.13379-.00683.19727a1.83443,1.83443,0,0,0-.01075.19727,2.91894,2.91894,0,0,1-.02441.37988c-.0166.127-.03027.2539-.042.37988-.00977.09863-.01953.19629-.03125.292a2.41611,2.41611,0,0,0-.01758.292.16481.16481,0,0,0,.00293.03222v.03516a.5055.5055,0,0,0,.05273.00293h.04981a1.18221,1.18221,0,0,0,.18652-.01367c.0586-.00977.11817-.01954.17871-.03125.0586-.01172.11914-.02247.17969-.03223a1.206,1.206,0,0,1,.17969-.01367h.01074a.38668.38668,0,0,1,.07031.00683.4556.4556,0,0,1,.07715.02149.2246.2246,0,0,1,.05957.042A.09724.09724,0,0,1,49.17511,25.47932Z"/><path class="cls-2" d="M52.11652,24.00568a.26316.26316,0,0,1-.02149.10157.08979.08979,0,0,1-.08789.0498.0759.0759,0,0,1-.05957-.02832.23279.23279,0,0,1-.043-.06055.50387.50387,0,0,1-.03515-.07324c-.00879-.02637-.01758-.04687-.02442-.06348a.20587.20587,0,0,0-.084-.085.72975.72975,0,0,0-.13379-.05957.81737.81737,0,0,0-.14844-.03515.92429.92429,0,0,0-.123-.01075.52535.52535,0,0,0-.126.01758.86943.86943,0,0,0-.12012.03907.56.56,0,0,0-.22851.16894,1.05347,1.05347,0,0,0-.15528.25684,1.56125,1.56125,0,0,0-.08789.2959,1.4159,1.4159,0,0,0-.03125.28125,1.23082,1.23082,0,0,0,.03125.2705.67434.67434,0,0,0,.10547.24707.45009.45009,0,0,0,.0918.09082.67261.67261,0,0,0,.11621.07422.7216.7216,0,0,0,.12988.04883.4073.4073,0,0,0,.127.02148.587.587,0,0,0,.29589-.081.62612.62612,0,0,0,.21778-.21094.43566.43566,0,0,0,.03906-.07715c.00879-.02832.01855-.06054.02832-.0957.00684-.03223.0127-.06543.01758-.09863.0039-.03028.00879-.05664.01367-.08008a.0848.0848,0,0,1-.02441-.00391h-.02832a.91142.91142,0,0,0-.17969.01758c-.06055.01367-.12207.02735-.18262.03906a.70053.70053,0,0,0-.11328.03125.3225.3225,0,0,1-.1123.02149.08289.08289,0,0,1-.07325-.03516.12953.12953,0,0,1-.02539-.08105.145.145,0,0,1,.0918-.127,1.00346,1.00346,0,0,1,.21484-.07421,1.6704,1.6704,0,0,1,.23926-.03809c.07715-.00684.13477-.01074.17188-.01074.02636,0,.05566.001.08789.0039a.21759.21759,0,0,1,.085.02051.10119.10119,0,0,1,.0664.07031c.00489.03028.00977.06348.01465.09864a.66905.66905,0,0,1,.01074.1123.77441.77441,0,0,1-.02539.19727,1.12688,1.12688,0,0,1-.07324.19043.74223.74223,0,0,1-.08789.126,1.26615,1.26615,0,0,1-.124.127c-.04688.04-.09375.07617-.14063.10937a.75788.75788,0,0,1-.13379.07422.39649.39649,0,0,1-.126.03516c-.04688.0039-.0918.00683-.13379.00683a1.01343,1.01343,0,0,1-.17969-.01465.69348.69348,0,0,1-.22559-.07714.748.748,0,0,1-.18261-.14063.71562.71562,0,0,1-.14063-.18652,1.11552,1.11552,0,0,1-.08789-.22168,1.42022,1.42022,0,0,1-.042-.34863,1.74224,1.74224,0,0,1,.03125-.334,1.89171,1.89171,0,0,1,.085-.32031.78219.78219,0,0,1,.11523-.21094,1.36188,1.36188,0,0,1,.17969-.19726,1.2184,1.2184,0,0,1,.21485-.15821.62847.62847,0,0,1,.22168-.084c.0332-.00489.0664-.00977.10253-.01465q.05274-.00292.10547-.00293a1.00586,1.00586,0,0,1,.18946.02051,1.15789,1.15789,0,0,1,.208.06347.72573.72573,0,0,1,.17872.10938.31054.31054,0,0,1,.10253.1582A.51239.51239,0,0,1,52.11652,24.00568Z"/><path class="cls-2" d="M53.98078,25.51447a.12522.12522,0,0,1-.02735.08106.10579.10579,0,0,1-.081.03515.21334.21334,0,0,1-.11328-.03515.5484.5484,0,0,1-.09473-.07325,3.02081,3.02081,0,0,1-.22852-.23242,2.25773,2.25773,0,0,0-.23242-.22168c-.02539-.02148-.05176-.041-.07715-.06054a.64133.64133,0,0,1-.08105-.05274.4795.4795,0,0,1-.07715-.0625.31982.31982,0,0,1-.06055-.07422.20283.20283,0,0,0-.042-.0039.30952.30952,0,0,0-.09472.01465.26291.26291,0,0,1-.09473.01757.15963.15963,0,0,1-.043-.0039.42574.42574,0,0,0-.01758.12011q-.00292.063-.00293.123,0,.07032.00293.14063v.23535a.64409.64409,0,0,1-.00976.11621.34493.34493,0,0,1-.03516.09863.10844.10844,0,0,1-.07129.05664.14438.14438,0,0,1-.03516.00293.1043.1043,0,0,1-.08007-.02832.15762.15762,0,0,1-.04981-.0625.24668.24668,0,0,1-.02051-.085.53767.53767,0,0,1-.00781-.084,1.56127,1.56127,0,0,1,.02539-.27832,2.38263,2.38263,0,0,0,.03125-.27442c.01172-.18262.02149-.36621.02832-.54883.00684-.18066.0166-.3623.02832-.54589.00391-.04395.00684-.09375.00684-.14747a.3521.3521,0,0,1,.01758-.14062.12179.12179,0,0,1,.05957-.05957.18468.18468,0,0,1,.07715-.01758.14808.14808,0,0,1,.08789.02442c.07519-.01661.15332-.03028.23242-.042a1.55176,1.55176,0,0,1,.23242-.01758.71271.71271,0,0,1,.42188.11622.59335.59335,0,0,1,.21875.376.85308.85308,0,0,1,.0205.18653.50869.50869,0,0,1-.04492.21093.73424.73424,0,0,1-.12012.18653.74822.74822,0,0,1-.16894.14453.67885.67885,0,0,1-.2002.084,1.56919,1.56919,0,0,1,.19336.20117,1.50751,1.50751,0,0,0,.18653.207.80695.80695,0,0,0,.127.09863.90028.90028,0,0,1,.123.10547c.0205.02343.042.0498.06347.07812A.16.16,0,0,1,53.98078,25.51447Zm-.457-1.44238a.406.406,0,0,0-.03809-.17578.30264.30264,0,0,0-.12305-.12988.61994.61994,0,0,0-.18554-.07422,1.0374,1.0374,0,0,0-.19629-.02149.86074.86074,0,0,0-.13282.01074.43.43,0,0,0-.127.04981,3.58748,3.58748,0,0,0-.03125.418c-.00488.14062-.01269.28222-.02441.42285a.58606.58606,0,0,0,.1123.00977,1.38942,1.38942,0,0,0,.29395-.03809,1.1159,1.1159,0,0,0,.15039-.0459.46788.46788,0,0,0,.11914-.05957.36971.36971,0,0,0,.13672-.1582A.49324.49324,0,0,0,53.52375,24.07209Z"/><path class="cls-2" d="M55.71906,25.42658a.14216.14216,0,0,1-.08789.12012.82969.82969,0,0,1-.20117.07715,1.5293,1.5293,0,0,1-.22461.0459q-.1128.01757-.15821.0205a2.04728,2.04728,0,0,0-.26074.0459.76515.76515,0,0,1-.26367.02539.5795.5795,0,0,1-.07422.10547.16132.16132,0,0,1-.12109.05274.11706.11706,0,0,1-.11817-.06348.31573.31573,0,0,1-.02832-.13379.82434.82434,0,0,1,.00391-.085l.00683-.084c.00782-.19042.02051-.37792.041-.56347q.0249-.27686.04394-.5586a.21386.21386,0,0,1,.00293-.03515v-.03223c0-.05371-.002-.10644-.00683-.1582-.00488-.04883-.00684-.10059-.00684-.15527a.81168.81168,0,0,1,.01367-.14356.27755.27755,0,0,1,.05274-.13086.101.101,0,0,1,.04492-.03516.36183.36183,0,0,1,.05566-.00976.37694.37694,0,0,1,.0586-.00391.30435.30435,0,0,0,.05273-.0039c.08594-.01172.17285-.02051.25977-.02735.085-.00488.16992-.01367.25683-.02539a1.86523,1.86523,0,0,0,.22168-.04883.89334.89334,0,0,1,.22852-.02832.40951.40951,0,0,1,.11621.01758.08685.08685,0,0,1,.05957.0918v.01074l-.00293.00977a.10034.10034,0,0,1-.03515.06738.246.246,0,0,1-.07032.03809.32942.32942,0,0,1-.085.01757c-.03027.00489-.05762.00977-.08105.01465a.9092.9092,0,0,1-.16114.02051c-.05664.00293-.11132.00781-.166.01465-.06348.00976-.125.02148-.18652.03515a.74141.74141,0,0,1-.18946.02442q-.03516,0-.06738-.00293c-.02344-.00293-.04688-.00586-.07031-.01074a.522.522,0,0,0-.02051.14746c0,.05371-.002.10547-.00391.15527-.002.03516-.00488.07031-.00683.10547a.764.764,0,0,0-.00684.10547.56637.56637,0,0,0,.00977.1084.29589.29589,0,0,0,.05273.00781,1.10646,1.10646,0,0,0,.21191-.02148,1.0409,1.0409,0,0,1,.207-.02149c.02148,0,.04589.002.07421.00391.02833.00488.05469.01074.08106.01758a.23679.23679,0,0,1,.06348.03906.106.106,0,0,1,.02441.07031.05685.05685,0,0,1-.01758.0459.10135.10135,0,0,1-.042.02441.25083.25083,0,0,1-.05664.01367.27529.27529,0,0,0-.05274.01075,1.35954,1.35954,0,0,1-.21093.0459,1.568,1.568,0,0,1-.21485.01367h-.05957a.59976.59976,0,0,1-.06054-.00293.67944.67944,0,0,0-.02735.1582c-.00586.06348-.00879.12891-.01074.19727-.00293.06738-.00391.13476-.00391.20019-.002.06836-.00488.127-.00683.17578a.60964.60964,0,0,1,.14746-.03125.95946.95946,0,0,0,.15137-.02539c.10547-.02344.21-.043.31347-.05957.10059-.0166.2041-.03125.30957-.0459a.36363.36363,0,0,0,.10157-.02734.30584.30584,0,0,1,.10253-.01758.112.112,0,0,1,.07032.02442A.08416.08416,0,0,1,55.71906,25.42658Z"/><path class="cls-2" d="M57.54914,25.47932a.26775.26775,0,0,1-.03516.14062.14235.14235,0,0,1-.13086.05664.1301.1301,0,0,1-.08789-.02832.12027.12027,0,0,1-.03125-.0664.60223.60223,0,0,1-.01465-.10254q-.00293-.05274-.00293-.10547c-.00293-.03223-.00488-.05957-.00781-.08106-.01172-.07226-.02637-.14355-.04492-.21386a.8255.8255,0,0,1-.03516-.21875c-.11035.02343-.21875.04785-.32422.07421a1.29794,1.29794,0,0,1-.32715.03516.24994.24994,0,0,0-.05957.08106,1.51816,1.51816,0,0,0-.07422.14355c-.02343.05469-.04492.10645-.06347.15527l-.0459.10938a.96879.96879,0,0,0-.03516.11914,1.3729,1.3729,0,0,1-.042.14453.40452.40452,0,0,1-.07031.11914.13369.13369,0,0,1-.10938.05274.13539.13539,0,0,1-.09472-.03125.11727.11727,0,0,1-.03907-.09473.3264.3264,0,0,1,.01856-.10254.65445.65445,0,0,1,.03809-.1084c.01464-.03808.02929-.07519.04589-.11328.01661-.03516.03028-.06641.042-.09473.06152-.1455.123-.29.18652-.43261a4.02493,4.02493,0,0,0,.166-.43653q.02052-.07324.05274-.17285c.02051-.0625.043-.127.06641-.19336.02343-.06543.04785-.1289.07421-.18945a.77031.77031,0,0,1,.08106-.15137.36889.36889,0,0,1,.05566-.06348.10011.10011,0,0,1,.07422-.02441.29219.29219,0,0,1,.05957.00684.26237.26237,0,0,1-.01074-.07422.1822.1822,0,0,1,.043-.11621A.12717.12717,0,0,1,56.972,23.453a.15664.15664,0,0,1,.07715.02148.16276.16276,0,0,1,.05664.05567,1.60214,1.60214,0,0,1,.15039.35156c.03808.13184.07129.26758.09863.4082.02637.14356.0498.28516.07031.42578.01953.14161.03906.27051.06055.3877.01172.06055.02539.123.042.18652A.89474.89474,0,0,1,57.54914,25.47932Zm-.44336-.8086a2.495,2.495,0,0,0-.06739-.40136,3.37257,3.37257,0,0,0-.123-.3877q-.08056.208-.17578.40527a1.97694,1.97694,0,0,0-.15137.41114,1.923,1.923,0,0,0,.21094-.01758,1.62919,1.62919,0,0,1,.208-.01367H57.056A.28548.28548,0,0,1,57.10578,24.67072Z"/><path class="cls-2" d="M59.73371,23.62189a.11213.11213,0,0,1-.0459.10157.30729.30729,0,0,1-.123.0498,1.38421,1.38421,0,0,1-.16894.01758c-.06055.002-.12012.00586-.17872.01074a.89826.89826,0,0,0-.1582.02442.22356.22356,0,0,0-.11328.0664c-.002.11524-.00781.22852-.01758.3418-.01172.11523-.02344.22851-.03515.34082-.01172.11328-.02247.22559-.03125.33789-.00977.11523-.01465.23047-.01465.34473,0,.04.002.0791.0039.11621.002.04.00391.08008.00391.12011a.55424.55424,0,0,1-.01465.126.15885.15885,0,0,1-.07422.10254.30339.30339,0,0,1-.05957.02832.19975.19975,0,0,1-.07031.01367.1278.1278,0,0,1-.09863-.042.14825.14825,0,0,1-.03809-.10254.22774.22774,0,0,1,.01758-.08789.5185.5185,0,0,0,.02051-.08105c.01172-.07422.02343-.14942.03515-.22461.01172-.07325.02051-.14649.02539-.22168.00879-.12207.01954-.24414.03125-.36621.01172-.11914.01758-.24024.01758-.36231,0-.06055-.001-.12109-.0039-.17969a1.35879,1.35879,0,0,0-.02442-.17578l-.17578.00684a1.19969,1.19969,0,0,0-.17578.02148.64707.64707,0,0,0-.14453.04883.31866.31866,0,0,1-.14453.03906.11481.11481,0,0,1-.09473-.0459.143.143,0,0,1-.03906-.09863.11.11,0,0,1,.06054-.08789.66759.66759,0,0,1,.14356-.06348c.05859-.01562.125-.03027.19726-.042.07325-.00879.14356-.01758.21094-.02441.06641-.00684.127-.0127.1836-.01758.05371-.002.09277-.00488.11621-.00684q.11573-.01757.23144-.03222a.98188.98188,0,0,0,.22949-.04883.92723.92723,0,0,1,.17579-.042,1.10319,1.10319,0,0,1,.17578-.01465.37407.37407,0,0,1,.1123.01758A.08865.08865,0,0,1,59.73371,23.62189Z"/><path class="cls-2" d="M60.304,25.54279a.45226.45226,0,0,1-.00977.0918.48241.48241,0,0,1-.03906.09863.286.286,0,0,1-.05957.08106.1663.1663,0,0,1-.085.042.174.174,0,0,1-.02832.00293h-.03125a.1587.1587,0,0,1-.14063-.05567.24625.24625,0,0,1-.042-.15136.33176.33176,0,0,1,.01758-.10547.29609.29609,0,0,1,.05273-.0957.2407.2407,0,0,1,.07715-.06641.21574.21574,0,0,1,.10547-.02441.19127.19127,0,0,1,.13379.04882A.187.187,0,0,1,60.304,25.54279Zm.13086-2.07226a.91766.91766,0,0,1-.01465.16211c-.01172.05371-.02051.10742-.02734.16113-.01661.1084-.03125.21582-.043.32422-.01172.10742-.02442.21679-.03809.32715a1.107,1.107,0,0,0-.01074.12988,1.67051,1.67051,0,0,1-.01758.17285.525.525,0,0,1-.05273.14746.1119.1119,0,0,1-.10254.06348.08854.08854,0,0,1-.08106-.03906.20092.20092,0,0,1-.03808-.08789.50715.50715,0,0,1-.01075-.10547c-.002-.03516-.0039-.06543-.0039-.09082v-.0459a1.65245,1.65245,0,0,1,.01074-.1836q.01026-.08788.01758-.17871c.00488-.05175.00879-.12109.01074-.208s.00684-.17579.01367-.26758a2.326,2.326,0,0,1,.02832-.25977.5515.5515,0,0,1,.05274-.18652.115.115,0,0,1,.10547-.06055.26355.26355,0,0,1,.10937.02832.15081.15081,0,0,1,.07715.085A.36857.36857,0,0,1,60.43488,23.47053Z"/><path class="cls-2" d="M15.85541,21.34979A7.09582,7.09582,0,0,1,11.011,19.72623a3.48874,3.48874,0,0,1-1.18847-2.14617c-.04555-.2949-.05814-.61849.30818-.69263.40711-.0824.427.24514.47567.54173a2.83523,2.83523,0,0,0,.8351,1.59638c2.0075,1.97218,6.4603,2.04283,8.53046.13495a2.61177,2.61177,0,0,0,.97356-1.77218c.01841-.27942.116-.54875.47323-.50584.33481.04023.32319.32348.31354.5684a3.05019,3.05019,0,0,1-.99415,2.10049A6.76953,6.76953,0,0,1,15.85541,21.34979Z"/><path class="cls-2" d="M20.46057,14.95268a1.63241,1.63241,0,0,0-1.11644.44723c-.18392.14066-.40574.27867-.6013.07959-.20166-.2053-.02005-.422.101-.60161a2.02654,2.02654,0,0,1,3.28876.03963c.11226.18079.29342.40768.0812.60517-.20833.19387-.41726.02316-.59542-.11818A1.6598,1.6598,0,0,0,20.46057,14.95268Z"/><path class="cls-2" d="M11.041,14.03143a2.189,2.189,0,0,1,1.7312.90583c.11059.16648.22368.37919.03052.55345a.36506.36506,0,0,1-.50076-.04509,1.696,1.696,0,0,0-2.42267.01071c-.14641.1217-.33291.20985-.49521.05507a.38834.38834,0,0,1-.00409-.50763A2.07606,2.07606,0,0,1,11.041,14.03143Z"/></g></g></svg>