<svg width="70" height="40" viewBox="0 0 70 40" xmlns="http://www.w3.org/2000/svg"><title>intratuin</title><desc>Created with Sketch.</desc><g fill-rule="nonzero" fill="none"><path d="M17.67 25.722c0-.146-.022-.188-.194-.188h-.87v-5.093c0-.146-.032-.188-.193-.188h-2.439c-.172 0-.193.042-.193.188v.858c0 .146.022.188.193.188h.892v4.048h-.881c-.161 0-.193.042-.193.188v.858c0 .147.032.189.193.189h3.493c.172 0 .194-.042.194-.189v-.858zm-.817-7.415c0-.607-.516-1.077-1.128-1.077-.634 0-1.139.471-1.139 1.077 0 .607.505 1.098 1.139 1.098.622-.004 1.125-.493 1.128-1.098zm8.898 7.415c0-.146-.022-.188-.193-.188h-.699v-3.42c0-1.151-.323-2.081-1.784-2.081-1.085 0-1.687.565-2.095.91-.096-.293-.108-.69-.441-.69h-1.902c-.172 0-.193.042-.193.188v.858c0 .136.022.188.193.188h.656c.086.272.14.46.14 1.119v2.929h-.699c-.172 0-.193.042-.193.188v.858c0 .147.022.189.193.189h3.138c.161 0 .193-.042.193-.189v-.858c0-.146-.032-.188-.193-.188h-.699v-3.577c.172-.157.602-.544 1.182-.544.699 0 .763.607.763 1.108v4.058c0 .147.032.189.193.189h2.246c.172 0 .193-.042.193-.189v-.858zm3.31-4.235h1.333c.129 0 .215-.021.258-.188l.193-.774.022-.136c0-.104-.108-.136-.247-.136h-1.558v-1.841c0-.157-.011-.22-.14-.22l-.172.01-1.214.157c-.194.031-.215.063-.215.241v1.652h-.978c-.161 0-.193.042-.193.188v.858c0 .146.032.188.193.188h.978v2.96c0 1.213 0 2.541 1.762 2.541.935 0 1.934-.251 1.934-.492l-.022-.115-.28-1.077c-.009-.05-.055-.086-.107-.083-.193 0-.538.251-1.085.251-.462 0-.462-.376-.462-.805v-3.179zm6.34 4.235c0-.146-.031-.188-.193-.188h-.741v-3.357c.172-.178.612-.627 1.042-.627.312 0 .559.146.645.146.053 0 .096-.083.107-.125l.43-1.098.021-.136c0-.167-.397-.303-.795-.303-.935 0-1.44.742-1.697 1.046-.097-.335-.151-.826-.506-.826h-1.784c-.172 0-.193.042-.193.188v.858c0 .146.022.188.193.188h.656c.064.272.14.46.14 1.119v2.929h-.699c-.172 0-.193.042-.193.188v.858c0 .147.022.189.193.189h3.181c.161 0 .193-.042.193-.189v-.858zm6.867-3.566c0-1.37-.645-2.123-2.353-2.123-1.064 0-2.418.314-2.418.617l.043.157.268.805c.022.052.075.136.14.136.182 0 .934-.397 1.697-.397.87 0 .978.376.978.973v.408c-1.086 0-3.578 0-3.578 2.228 0 1.234.795 2.029 2.052 2.029 1.021 0 1.493-.523 1.773-.795.053.241.086.575.408.575h1.719c.161 0 .194-.042.194-.189v-.858c0-.146-.043-.188-.194-.188h-.59c-.065-.262-.14-.481-.14-1.098v-2.279zm-1.644 3.106c-.161.157-.516.502-1.032.502s-.903-.387-.903-.9c0-1.161 1.591-1.056 1.934-1.056v1.454zm5.706-3.775h1.333c.14 0 .215-.021.258-.188l.194-.774.032-.136c0-.104-.118-.136-.247-.136h-1.569v-1.841c0-.157-.01-.22-.14-.22l-.172.01-1.215.157c-.182.031-.215.063-.215.241v1.652h-.978c-.161 0-.194.042-.194.188v.858c0 .146.032.188.194.188h.978v2.96c0 1.213 0 2.541 1.773 2.541.925 0 1.935-.251 1.935-.492l-.032-.115-.269-1.077c-.021-.052-.064-.083-.118-.083-.182 0-.527.251-1.075.251-.473 0-.473-.376-.473-.805v-3.179h.001zm9.629 4.235c0-.136-.022-.188-.194-.188h-.57c-.086-.272-.14-.461-.14-1.119v-3.974c0-.146-.032-.188-.194-.188h-2.246c-.172 0-.194.042-.194.188v.858c0 .146.022.188.194.188h.699v3.639c-.182.157-.602.544-1.182.544-.699 0-.762-.669-.762-1.172v-4.058c0-.146-.032-.188-.194-.188h-2.256c-.161 0-.183.042-.183.188v.858c0 .146.022.188.183.188h.709v3.42c0 1.151.323 2.082 1.773 2.082 1.333 0 1.688-.502 2.107-.847.096.293.107.628.441.628h1.816c.172 0 .194-.042.194-.189v-.858h.001zm4.642 0c0-.146-.032-.188-.194-.188h-.881v-5.093c0-.146-.022-.188-.194-.188h-2.439c-.161 0-.194.042-.194.188v.858c0 .146.032.188.194.188h.891v4.048h-.881c-.161 0-.183.042-.183.188v.858c0 .147.022.189.183.189h3.503c.161 0 .194-.042.194-.189v-.858zm-.827-7.415c0-.607-.505-1.077-1.117-1.077-.634 0-1.139.471-1.139 1.077 0 .607.505 1.098 1.139 1.098.612 0 1.117-.492 1.117-1.098zm8.909 7.415c0-.146-.032-.188-.194-.188h-.699v-3.42c0-1.151-.333-2.081-1.784-2.081-1.085 0-1.687.565-2.106.91-.086-.293-.108-.69-.43-.69h-1.912c-.161 0-.194.042-.194.188v.858c0 .136.032.188.194.188h.656c.086.272.14.46.14 1.119v2.929h-.699c-.161 0-.194.042-.194.188v.858c0 .147.032.189.194.189h3.138c.172 0 .193-.042.193-.189v-.858c0-.146-.021-.188-.193-.188h-.699v-3.577c.182-.157.612-.544 1.181-.544.699 0 .774.607.774 1.108v4.058c0 .147.022.189.183.189h2.256c.161 0 .194-.042.194-.189v-.858z" id="Shape" fill="#56A233"/><path d="M2.934 13.238c.814 0 1.473.649 1.473 1.451s-.659 1.451-1.473 1.451c-.814 0-1.473-.649-1.473-1.451s.659-1.451 1.473-1.451z" id="Shape" fill="#02B5E3"/><path d="M11.677 22.954v3.841h-5.293c.548-.466.792-1.261.733-1.968-.067-.845-.007-1.465.326-1.757.17-.146.355-.277.703-.19.266.066.141.7-.111 1.611-.311 1.115.548 1.924 1.88 1.779.688-.27.792-.744.807-1.094.015-.401-.074-.627-.326-.948-.333-.43-.755-.933-.947-1.261-.052-.095-.052-.292-.015-.401.052-.138.237-.233.429-.117.452.277 1.222.663 1.814.503zm-1.162-5.846h1.162v3.521c-.141-.029-.266-.066-.444-.058-.111.007-.222.051-.333.102-.215.087-.37.153-.511.248-.592.379-1.051.313-1.14.168-.229-.233.2-.7.977-1.297.489-.387.57-.882.637-1.181.125-.518-.015-1.108-.348-1.502zm-4.146 0h2.724c-.237.204-.444.488-.629.824-.066.117-.096.547-.082.824.03.583.118 1.144-.022 1.502-.096.255-.341.408-.518.415-.688-.19-.681-1.028-.763-1.851-.052-.547-.281-1.108-.518-1.458l-.192-.255z" id="Shape" fill="#56A233"/><path d="M4.274 17.108h-3.265v1.735h1.347v6.305h-1.347v1.647h3.457c-.43-.408-.407-1.137.252-2.413.252-.488.933-1.006 1.473-1.691.215-.27-.081-.554-.378-.43-1.022.423-2.583.583-2.695-.831-.17-1.122.881-1.421 2.502-.751.178.073.363.029.407-.117.082-.35-.422-.554-.822-.838-.858-.597-1.428-1.837-.933-2.616z" fill="#02B5E3"/></g></svg>