<svg id="Layer_1" data-name="Layer 1" xmlns="http://www.w3.org/2000/svg" viewBox="0 0 70 40"><defs><style>.cls-1{fill:#fff;}.cls-2{fill:#de0f80;}</style></defs><rect class="cls-1" width="70" height="40" rx="3.70584"/><g id="_000000ff" data-name="#000000ff"><path d="M20.0625,5h29.875V35H20.0625V5m1.1469,1.14063c.00375,9.2075-.0094,18.415.00685,27.62249q13.78593-.00468,27.5725,0c.01875-1.79687.0025-3.59437.00813-5.39187q0-11.115-.00068-22.23062Q35.00275,6.14156,21.2094,6.14063Z"/><path d="M28.31938,9.3475q7.02373.00093,14.04749.00062c0,.36688-.00062.73438,0,1.10126q-7.02374.00093-14.04749.00062Q28.31844,9.89875,28.31938,9.3475Z"/><path d="M28.29813,29.58813c4.68937-.0075,9.37874-.00063,14.06812-.00313.00062.35937,0,.71875.00062,1.07875q-7.03405-.00095-14.06812-.00188C28.29875,30.30375,28.29937,29.94625,28.29813,29.58813Z"/><path d="M27.09,22.615a1.72758,1.72758,0,0,1,1.2425.38875c.17813.125.16625.4775-.06812.52937-.1875.05-.33438-.09312-.48313-.17749A1.08688,1.08688,0,0,0,26.44,23.5325a1.33569,1.33569,0,0,0-.18375,1.3725,1.05611,1.05611,0,0,0,1.08188.62125c.31-.00563.52875-.24938.8025-.35375a.29565.29565,0,0,1,.20312.52688,1.74047,1.74047,0,0,1-2.58937-.37126,1.95619,1.95619,0,0,1,.17312-2.17124A1.72721,1.72721,0,0,1,27.09,22.615Z"/><path d="M39.55937,22.79812c.06188-.17874.27313-.17437.425-.135a1.3194,1.3194,0,0,1,.24562.42813c.37437.87438.79313,1.73,1.15875,2.60813.13688.26375-.25687.53874-.46187.32812a7.25743,7.25743,0,0,1-.3775-.72625c-.49063.0075-.98125-.0025-1.47188.00687a4.28921,4.28921,0,0,1-.35062.71063.29815.29815,0,0,1-.48813-.13937,1.1918,1.1918,0,0,1,.16688-.53813c.39375-.84312.75437-1.7025,1.15374-2.54313m-.23437,1.97q.5025.00281,1.00563.00062c-.14688-.43-.34688-.83938-.505-1.265C39.65688,23.92438,39.4675,24.33813,39.325,24.76813Z"/><path d="M29.97958,22.79812c.06188-.17874.27313-.17437.425-.135a1.31924,1.31924,0,0,1,.24563.42813c.37437.87438.79312,1.73,1.15875,2.60813.13687.26375-.25688.53874-.46188.32812a7.25944,7.25944,0,0,1-.37749-.72625c-.49063.0075-.98126-.0025-1.47188.00687a4.28847,4.28847,0,0,1-.35063.71063.29814.29814,0,0,1-.48812-.13937,1.19179,1.19179,0,0,1,.16687-.53813c.39376-.84312.75438-1.7025,1.15375-2.54313m-.23437,1.97q.5025.00281,1.00563.00062c-.14688-.43-.34688-.83938-.505-1.265C30.07709,23.92438,29.88771,24.33813,29.74521,24.76813Z"/><path d="M41.79688,22.65812a.31859.31859,0,0,1,.43624.27376c.01313.60687-.00437,1.21437.005,1.82124a.78349.78349,0,0,0,.31187.65438.85055.85055,0,0,0,1.3025-.46438c.04125-.685-.00812-1.37312.02188-2.05812a.32066.32066,0,0,1,.54062-.15062c.1075.10187.07688.26.085.39249-.00688.56188.00313,1.12438-.00437,1.68626a1.3029,1.3029,0,0,1-.70875,1.14937,1.86356,1.86356,0,0,1-1.29376.07125,1.2714,1.2714,0,0,1-.87374-1.155c-.02625-.60625-.00438-1.21375-.01188-1.82C41.59875,22.9075,41.63562,22.71375,41.79688,22.65812Z"/><path d="M32.29938,22.72688a1.04739,1.04739,0,0,1,.47625-.05563,2.7679,2.7679,0,0,1,1.56875.2575,1.78526,1.78526,0,0,1,.55312,2.25563,1.59487,1.59487,0,0,1-1.43187.86562c-.33813,0-.67563.00812-1.01313-.00312a.2859.2859,0,0,1-.28625-.29376c-.00875-.87625.00188-1.75312-.005-2.63-.00062-.1425-.01-.32.13813-.39625m.5.51124c-.01375.74313-.005,1.48625-.005,2.23a1.872,1.872,0,0,0,1.32125-.25624,1.19607,1.19607,0,0,0-.14813-1.80125A2.77083,2.77083,0,0,0,32.79938,23.23812Z"/><path d="M35.61188,22.77625a.53373.53373,0,0,1,.40687-.10562c.5225.00437,1.045.00062,1.5675.00125.14625-.0075.3375.03937.37063.20687a.297.297,0,0,1-.30563.38125c-.495.00875-.99062-.00063-1.48625.00188q-.00093.39186,0,.78312c.28875.00438.57875-.015.8675.00687a.29155.29155,0,0,1,.21625.42751.30888.30888,0,0,1-.285.15562c-.26625.0125-.5325,0-.79875.0025-.00062.27688-.00125.55375.00187.83125.53626.0025,1.07313-.00937,1.60876.00312a.29066.29066,0,0,1,.22812.445c-.06687.12937-.22812.135-.355.135-.46.00063-.92-.00312-1.37937,0-.24688-.00687-.53063.05376-.72125-.145-.00875-.94876,0-1.89751-.005-2.84563C35.55125,22.96437,35.52813,22.84687,35.61188,22.77625Z"/></g><path class="cls-2" d="M28.5957,16.793h.01953l1.74707-2.74609h1.49708l-1.86231,2.9375,2.07422,3.917H30.51562l-1.41113-2.8125-.50879.77734v2.03516H27.21387V14.04688H28.5957Z"/><path class="cls-2" d="M32.10547,14.04688h1.38281v6.85449H32.10547Z"/><path class="cls-2" d="M36.29492,14.04688a2.4686,2.4686,0,0,1,1.16211.23535,1.67851,1.67851,0,0,1,.68652.67187,2.98925,2.98925,0,0,1,.33106,1.05078,9.93452,9.93452,0,0,1,.08594,1.373,9.79723,9.79723,0,0,1-.11035,1.57031,3.00108,3.00108,0,0,1-.37891,1.09864,1.66565,1.66565,0,0,1-.71973.64355,2.7011,2.7011,0,0,1-1.14258.21094H34.0293V14.04688Zm-.26855,5.83691a1.19138,1.19138,0,0,0,.58593-.125.86079.86079,0,0,0,.35059-.41309,2.40972,2.40972,0,0,0,.17188-.75781q.04393-.47022.04394-1.1709c0-.39062-.01367-.7334-.03906-1.02734a2.523,2.523,0,0,0-.1582-.73438.91553.91553,0,0,0-.35547-.44238,1.167,1.167,0,0,0-.62793-.14844h-.58594v4.81934Z"/><path class="cls-2" d="M40.08887,18.96191a2.31716,2.31716,0,0,0,.03808.4375.75379.75379,0,0,0,.14453.33106.69789.69789,0,0,0,.28321.21094,1.133,1.133,0,0,0,.44629.07714.88491.88491,0,0,0,.57129-.207.77512.77512,0,0,0,.2539-.63769,1.13034,1.13034,0,0,0-.0625-.39844.78309.78309,0,0,0-.206-.30273,1.477,1.477,0,0,0-.37891-.24512,5.62987,5.62987,0,0,0-.58105-.22559,4.916,4.916,0,0,1-.79688-.33593,2.12875,2.12875,0,0,1-.56152-.42676,1.53194,1.53194,0,0,1-.33106-.56641,2.39289,2.39289,0,0,1-.10547-.74414,1.91379,1.91379,0,0,1,.56641-1.5166,2.26726,2.26726,0,0,1,1.55469-.5,3.36642,3.36642,0,0,1,.84961.10156,1.77573,1.77573,0,0,1,.67187.32617,1.5304,1.5304,0,0,1,.44141.57618,2.01392,2.01392,0,0,1,.15918.83984v.19238H41.7207a1.37355,1.37355,0,0,0-.17285-.7539.63771.63771,0,0,0-.57617-.26465.97543.97543,0,0,0-.38379.06738.65789.65789,0,0,0-.24512.17773.60424.60424,0,0,0-.124.25489,1.29939,1.29939,0,0,0-.03418.29687.98684.98684,0,0,0,.13477.53321,1.19857,1.19857,0,0,0,.57617.39843l1.06543.46094a3.31106,3.31106,0,0,1,.64258.35938,1.745,1.745,0,0,1,.39843.40332,1.3546,1.3546,0,0,1,.207.47558,2.67691,2.67691,0,0,1,.05762.57617,1.8883,1.8883,0,0,1-.6289,1.57911,2.77161,2.77161,0,0,1-1.752.49414A2.29348,2.29348,0,0,1,39.21,20.49805a1.98485,1.98485,0,0,1-.50391-1.459v-.27832h1.38282Z"/></svg>