<svg id="Layer_1" data-name="Layer 1" xmlns="http://www.w3.org/2000/svg" viewBox="0 0 70 40"><defs><style>.cls-1{fill:#faca27;}.cls-2{fill:#2b1b21;}</style></defs><rect class="cls-1" width="70" height="40" rx="3.70584"/><path class="cls-2" d="M8.17112,18.1309c.14492-.01834.29133-.029.43441-.05676a.40526.40526,0,0,0,.36924-.44116q.00267-2.07277.01608-4.14554c.00274-.51752-.00855-1.03629.02441-1.55207.0209-.32715-.12294-.43352-.41108-.44071-.41655-.01041-.568-.154-.57288-.56741-.00816-.69-.00924-1.38013-.00774-2.07019a.45666.45666,0,0,1,.52533-.50743c.87347.00613,1.747.0185,2.62041.01271.92624-.00614,1.85236-.03984,2.77856-.04081a6.01962,6.01962,0,0,1,.82683.05216.47506.47506,0,0,1,.41822.53441c-.025.7115-.00814,1.42491-.049,2.1352a.52793.52793,0,0,1-.5273.49966c-.38527.02418-.53015.20881-.51861.58965.0185.61109.00105,1.22322.00483,1.83487.00062.09862-.0363.22279.09434.27975.12753.0556.20223-.04755.27574-.11361.82953-.74537,1.65383-1.49654,2.48286-2.24246.17051-.15342.11913-.25815-.0664-.31025a.66448.66448,0,0,1-.50838-.75035q.017-.97455.0152-1.94938a.454.454,0,0,1,.52115-.51054c1.06221.01356,2.12445.01233,3.18688.0382.72708.0177,1.45829-.02379,2.18768.0018.41294.01449.58058.1892.57062.58419-.0164.65036-.03635,1.30064-.05507,1.95095-.01417.4921-.12267.62961-.60869.63892a1.212,1.212,0,0,0-.86763.40645c-.50448.49071-1.0378.952-1.56387,1.42023-.5269.469-.5277.51847-.09457,1.07725.70638.91128,1.39881,1.83337,2.10578,2.74419.29414.379.51193.836,1.071.94182.193.03652.27656.27146.274.48819-.00775.64856-.00185,1.29775-.0298,1.94546-.02223.51523-.2782.71188-.79438.70962-1.20643-.00526-2.413.01047-3.61937.00225-.62384-.00424-1.24732-.04648-1.87121-.06168a.4617.4617,0,0,1-.4917-.50833c-.01906-.70286-.0136-1.40636-.019-2.1096a.60239.60239,0,0,1,.2415-.5224c.22436-.16294.15219-.3025.01191-.48365-.68047-.87865-1.34612-1.76877-2.02676-2.64729-.07951-.10263-.156-.29106-.338-.21534-.15863.066-.08154.23959-.08342.36028-.01306.837-.00382,1.67437-.02133,2.51122-.00618.29516.11657.40445.39507.41853.543.02746.59372.15856.61966.72154.02946.63961.00146,1.2738-.0188,1.91049-.014.43918-.14644.57633-.57388.5756-1.96856-.00339-3.93717-.01336-5.90565-.00187-.37237.00218-.58012-.1633-.58937-.495-.02149-.77051.00091-1.5424.01493-2.31356a1.178,1.178,0,0,1,.09-.30318A.07125.07125,0,0,0,8.17112,18.1309Z"/><path class="cls-2" d="M36.30824,16.38122c.01435,1.47494.03893,2.94991.03552,4.42481a.562.562,0,0,1-.592.61246c-.6767.01165-1.35362.02073-2.03037.01694-1.2495-.007-2.499-.02364-3.74841-.03709-1.82128-.01959-3.64261-.03617-5.46378-.06311a.52472.52472,0,0,1-.562-.587c-.01084-.69117-.013-1.38255-.0111-2.07382.00107-.388.17135-.53273.6165-.54759.41458-.01384.55-.13568.55561-.54381q.03747-2.71409.06309-5.42831c.00428-.43363-.14195-.60168-.59542-.58428-.423.01624-.55625-.22277-.56352-.55629-.01537-.70481.00814-1.41042.0108-2.11572a.50036.50036,0,0,1,.385-.49543c2.05357-.00515,4.107.06092,6.16079.00951a5.06752,5.06752,0,0,1,.57119.03594.24765.24765,0,0,1,.17785.09745,1.09114,1.09114,0,0,1,.17412.71665c-.01812.557-.03387,1.11648-.001,1.672a.63754.63754,0,0,1-.76957.70948c-.38419-.02639-.50915.07194-.50449.4463.01171.93994.02736,1.87984.03735,2.81979q.01478,1.39086.0205,2.78181c.00137.33681.149.52787.61256.44771a4.51845,4.51845,0,0,1,1.4995.00582c.50391.08248.76489.00925.745-.4205-.01651-.35742-.00047-.71673.01033-1.07494.01183-.39263.1849-.54305.5794-.53309.63478.016,1.27107.055,1.904.02546a.82593.82593,0,0,1,.67578.23078Z"/><path class="cls-2" d="M50.15029,11.095c.07113.4228-.14467.64978-.57546.637-.48194-.01359-.55387.07113-.55387.53069-.0016,1.52415.03117,3.04991-.04156,4.57086a4.74848,4.74848,0,0,1-1.38029,3.38319,5.0979,5.0979,0,0,1-1.7991,1.055,7.80706,7.80706,0,0,1-2.6223.38044,7.97372,7.97372,0,0,1-3.93786-.824,4.1125,4.1125,0,0,1-1.55772-1.70079c-.15346-.27334-.27014-.56746-.40362-.85119a.04489.04489,0,0,0-.01439-.05755l-.14705-.75368-.01444-.12591c-.01362-.34486-.04789-.68972-.03672-1.03379.04716-1.40666.02638-2.81412.01758-4.22079-.00079-.12948.03517-.27574-.14546-.32449a1.03584,1.03584,0,0,0-.22138-.08712c-.641-.09911-.69455-.14866-.70973-.79365-.0123-.5287-.01085-1.05741-.014-1.58611a.75233.75233,0,0,1,.04852-.27635c.1-.2585.13757-.56714.56252-.54485.45077.02318.90394-.01358,1.35551.0016,1.49858.04716,2.99716.05595,4.49573.0008.61782-.02317.91833.167.90714.71532a19.16934,19.16934,0,0,1-.04875,2.30741l-.0008-.0016q-.15465.12468-.30931.24776c-.07513.03517-.15026.07034-.22618.1055-.19342.27734-.05915.58265-.06154.87278a5.59065,5.59065,0,0,0,.04315,1.44263l.0048.01278a11.40623,11.40623,0,0,0,.15425,3.63895c.1071.39482.66737.67056,1.19487.71053a1.05863,1.05863,0,0,0,1.0566-.6402,2.88157,2.88157,0,0,0,.16064-1.01663c.07593-.96708.0016-1.93576.04556-2.90125.02717-.597-.01838-1.19087.01758-1.7855.01519-.24137-.02717-.40042-.3093-.45957a.49054.49054,0,0,1-.37-.54987c.03756-.7393-.08552-1.4786.02238-2.22109a.4229.4229,0,0,1,.47075-.41881q1.96734-.01078,3.93307-.0008a3.64034,3.64034,0,0,1,.67216.06315c.30051.05754.33408.32528.34367.55787a7.62114,7.62114,0,0,1-.02557,1.19326A2.5749,2.5749,0,0,0,50.15029,11.095Z"/><path class="cls-2" d="M59.72,12.38883c-.31848.01444-.56613.01475-.88473.02523a.81944.81944,0,0,1-.83665-.47938,2.01985,2.01985,0,0,0-2.363-.99969.50483.50483,0,0,0-.402.4388.68577.68577,0,0,0,.256.70049,15.19755,15.19755,0,0,0,2.27393,1.13765A12.765,12.765,0,0,1,60.451,14.64916a3.84391,3.84391,0,0,1,1.05748,4.9203,4.481,4.481,0,0,1-4.05611,2.15707,6.16147,6.16147,0,0,1-3.10256-.74833c-.21474-.118-.38256-.16466-.44488.18409a.44442.44442,0,0,1-.4838.33572c-.76946-.00458-1.539.003-2.30845-.00237-.378-.00262-.45833-.27941-.46263-.57524-.01078-.74277-.00314-1.48583-.00058-2.22876.00114-.33135.006-.66271.01253-.994a.40658.40658,0,0,1,.44813-.44719c.77129-.004,1.5431-.01563,2.31371.00807a.82657.82657,0,0,1,.7624.54832,1.9961,1.9961,0,0,0,2.17479,1.1106.73978.73978,0,0,0,.32267-1.3599,10.48474,10.48474,0,0,0-1.70218-.85586,15.12994,15.12994,0,0,1-2.75843-1.40862,3.8344,3.8344,0,0,1-1.63076-2.33146,3.46811,3.46811,0,0,1,1.19688-3.44519A5.18221,5.18221,0,0,1,56.221,8.5271a5.395,5.395,0,0,1,1.51328.55989c.17214.08814.27278.063.34435-.11056.12762-.30945.36964-.36373.68048-.35313.63765.02175,1.27661.00113,1.91483.01088.63979.00976.714.048.71787.67565a23.77348,23.77348,0,0,1,.03127,2.532c-.04459.445-.15506.56039-.59383.55358-.34571-.00537-.69158-.00108-1.03737-.00108C59.79147,12.38671,59.72038,12.39641,59.72,12.38883Z"/><path class="cls-2" d="M27.75476,28.1564c-.29173-.27414-.69534-.38684-.93512.13827a3.01408,3.01408,0,0,1-.63779.90713,1.24269,1.24269,0,0,1-1.42185.34288,1.1694,1.1694,0,0,1-.61382-1.16849,5.10773,5.10773,0,0,1,.14866-1.06459c.11829-.58265.38364-.98307,1.0494-.97747a1.81007,1.81007,0,0,0,.4292-.08632,3.17679,3.17679,0,0,0,2.25546-1.4762,1.15192,1.15192,0,0,0-.39563-1.77272,2.55277,2.55277,0,0,0-2.38334-.12068,4.17285,4.17285,0,0,0-2.23308,2.3146c-.11029.25576-.231.46516-.55546.36446A2.84,2.84,0,0,1,20.544,23.90763V23.902l-.11668-.33089c-.33569-.71052-.38124-.72171-.99506-.25415-.01918.01438,0,0-.06868.04976a1.04654,1.04654,0,0,1-.10555.0949c-1.05181.85918-.76887,1.46021.02877,2.03167a1.50727,1.50727,0,0,0,.2078.11668,9.13522,9.13522,0,0,0,2.6287.75849c.24058.04315.52511.05594.4292.4132a4.26278,4.26278,0,0,0-.06874,1.06539,4.00583,4.00583,0,0,0,1.0574,2.83331,2.9497,2.9497,0,0,0,2.6319.64019,3.13277,3.13277,0,0,0,1.87182-2.02767A1.04128,1.04128,0,0,0,27.75476,28.1564Zm-2.48325-2.67986a1.32772,1.32772,0,0,1,.70494-.44038c.16544-.0024.26614.01279.33248.11749.07433.11669-.01279.20461-.05915.28852a1.47932,1.47932,0,0,1-.95828.30612C25.1748,25.674,25.19719,25.57,25.27151,25.47654Z"/><path class="cls-2" d="M32.2998,28.12368a2.80486,2.80486,0,0,0-.14359,1.11076,2.006,2.006,0,0,0,.405,1.22643c.21615.28918.07.46538-.14266.58568a.93405.93405,0,0,1-1.419-.44449c-.13349-.26692-.29629-.25754-.53186.03064a1.20619,1.20619,0,0,1-1.55112.40287,1.184,1.184,0,0,1-.51127-.63679,3.5164,3.5164,0,0,1,1.19038-3.76573,1.19517,1.19517,0,0,1,1.61866.19916.81.81,0,0,0,.34486.25709C32.28554,27.32645,32.28593,27.32527,32.2998,28.12368Zm-1.59674.41906a2.03265,2.03265,0,0,0-.0027-.27917c-.01518-.12186.04339-.2941-.13462-.33388-.14227-.03178-.21561.10868-.26332.20565A2.73675,2.73675,0,0,0,29.9,29.63517c.00869.08352-.02849.19911.09813.23134a.25.25,0,0,0,.24416-.10625A1.46522,1.46522,0,0,0,30.70306,28.54274Z"/><path class="cls-2" d="M37.12026,30.49018a2.026,2.026,0,0,1-.239-.75129,15.25441,15.25441,0,0,1-.01119-3.10345,21.03493,21.03493,0,0,0,.179-2.38414c-.00719-.43158-.231-.68095-.61542-.64818-.86957.07273-1.2612.33568-1.19566.80164.00559.03916.02238.07753.02717.11669a14.22906,14.22906,0,0,1,.09511,1.75034c.0024.36206-.12788.53868-.53629.46516a1.25057,1.25057,0,0,0-1.14052.33727,3.16889,3.16889,0,0,0-.96707,2.66947,1.41585,1.41585,0,0,0,.9407,1.38668h.0008l.01039.0032a.915.915,0,0,0,.66017.024c.016-.00879.032-.01759.048-.028a4.11918,4.11918,0,0,0,.67776-.52031c.28532-.26135.378-.22938.54108.13667a.92358.92358,0,0,0,1.44343.25016A.399.399,0,0,0,37.12026,30.49018ZM35.30279,28.11a3.63481,3.63481,0,0,1-.33089,1.38589c-.07033.17423-.18222.4172-.40681.37164-.25016-.05115-.155-.32369-.19422-.46675.06474-.56667.06953-1.11335.56267-1.4738.08871-.06474.16864-.14067.28453-.09511C35.35314,27.88625,35.302,28.00854,35.30279,28.11Z"/><path class="cls-2" d="M50.9719,30.79629a2.92688,2.92688,0,0,1-.76247-2.37055,9.3315,9.3315,0,0,1,.29412-2.55837c.08232-.33568-.08232-.5283-.40522-.613-.56026-.14546-.84719-.01758-1.23.56027-.032.036-.06394.07273-.09511.1087,0,.06154-.0008.12308-.0008.18462V26.255c-.00239.71452-.00319,1.429-.008,2.14437a.34638.34638,0,0,1-.044.15185c-.06953.12549-.13187.29013-.29652.28693-.17663-.0032-.21979-.17184-.25335-.3149a5.32526,5.32526,0,0,1-.05116-1.461,12.65524,12.65524,0,0,0,.09032-2.02848,1.43175,1.43175,0,0,0-1.78151-1.19167,5.14592,5.14592,0,0,0-1.46261.70893,3.1341,3.1341,0,0,1-3.82277.044c-.26455-.19182-.46836-.04476-.62741.13427A1.55207,1.55207,0,0,0,40.06147,26c.048.33729-.09032.44039-.40841.474a2.71047,2.71047,0,0,0-2.2203,2.58314A2.87532,2.87532,0,0,0,38.188,30.8866a1.42428,1.42428,0,0,0,.64738.33249l.0016.0008s.28373.02957.4148.04555a2.30493,2.30493,0,0,0,1.90859-.45556.483.483,0,0,0,.08952-.76248c-.24377-.27094-.474-.27334-.78645-.01838a3.50284,3.50284,0,0,1-.39163.27334.63233.63233,0,0,1-.88876-.235c-.2038-.35246-.12708-.50192.27894-.5307.13187-.00959.26534.0032.398.0032,1.11494,0,2.13637-1.1557,1.63444-2.13877-.11828-.23018.0008-.30371.19582-.36445a7.93879,7.93879,0,0,0,1.33473-.50672,24.9644,24.9644,0,0,1,2.23548-1.20525c.77606-.30611,1.28837.01758,1.31235.85439.0048.17183-.0024.34447-.01119.5163-.05115.92952-.15025,1.85744-.11589,2.78856a1.30052,1.30052,0,0,0,.71692,1.27479,1.0104,1.0104,0,0,0,1.28918-.49234.51964.51964,0,0,1,.07912-.08871c.19981-.179.34288-.187.41321.11908.04476.19342.11749.38044.18063.56906a1.0223,1.0223,0,0,0,1.50177.69215C51.01906,31.39012,51.20768,31.00169,50.9719,30.79629ZM40.03029,28.00854c-.03676.3125-.38043.70253-.645.68894a.27261.27261,0,0,1-.21819-.29731.79341.79341,0,0,1,.67855-.61782C40.00632,27.78555,40.04788,27.86148,40.03029,28.00854Z"/><path class="cls-2" d="M41.79188,29.47818A3.33718,3.33718,0,0,1,43.002,26.85151c.58482-.46885,1.15681-.60152,1.72651.02225a.88.88,0,0,0,.61487.31c.39847.03389.5327.24681.51555.65045a8.50254,8.50254,0,0,0-.07453,1.821,1.88463,1.88463,0,0,0,.33648.8396.36384.36384,0,0,1-.09789.57815.88621.88621,0,0,1-1.41845-.33368c-.151-.32415-.27423-.35057-.49382-.06574a1.57353,1.57353,0,0,1-.40869.36737,1.14376,1.14376,0,0,1-1.7969-.73871A2.60494,2.60494,0,0,1,41.79188,29.47818Zm2.48663-.92053c0-.11977.00316-.23964-.001-.35925-.00342-.09879-.03437-.18764-.14756-.20624a.18465.18465,0,0,0-.19876.10535,4.4199,4.4199,0,0,0-.47893,1.50956.23561.23561,0,0,0,.1664.28414.25311.25311,0,0,0,.301-.1365A1.92379,1.92379,0,0,0,44.27851,28.55765Z"/></svg>