<?xml version="1.0" encoding="UTF-8"?>
<svg id="Layer_1" data-name="Layer 1" xmlns="http://www.w3.org/2000/svg" viewBox="0 0 70 40">
  <defs>
    <style>
      .cls-1 {
        fill: #f19100;
      }

      .cls-2 {
        fill: #ff8c00;
      }
    </style>
  </defs>
  <path class="cls-2" d="M41.74058,39.1899c-1.05107,.349-2.1291,.57517-3.22733,.69933-1.73494,.19664-3.46113,.13356-5.18462-.20604-.00606-.05436-.01482-.09799-.01617-.14228-.0155-.58255-.02965-1.1651-.04514-1.74765-.01078-.39933-.02291-.79933-.03504-1.19866-.01145-.37651-.02291-.75369-.03369-1.13021-.01145-.38792-.02291-.77651-.03436-1.16443-.01145-.38255-.02291-.7651-.03436-1.14765-.01145-.39396-.02291-.78792-.03504-1.18188-.01145-.38255-.02291-.7651-.03436-1.14765s-.02291-.7651-.03436-1.14765c-.01145-.38792-.02291-.77651-.03436-1.16443-.01145-.38255-.02291-.7651-.03436-1.14765-.01213-.39933-.02223-.79933-.03571-1.19866-.00741-.22215-.02021-.4443-.03099-.6745,.06333-.04228,.11791-.08121,.17518-.11611,.31128-.19262,.62862-.37718,.93451-.57987,.30656-.20268,.5855-.44094,.81526-.73155,.2183-.27651,.33958-.58322,.36181-.94161,.0411-.6745,.02897-1.34765,.01617-2.02148-.01078-.5651-.0411-1.1302-.06738-1.69464-.01752-.38188-.0411-.76376-.0667-1.14564-.02762-.41007-.06199-.81946-.09096-1.22953-.0155-.21611-.02425-.43289-.04043-.64967-.02965-.39866-.06266-.79665-.09365-1.19463-.01415-.18188-.02762-.36443-.04177-.54631-.03167-.39262-.06401-.78524-.09635-1.17719-.0128-.15906-.02762-.31812-.03975-.47785-.03841-.52349-.07479-1.04765-.11454-1.57115-.01752-.23356-.03841-.46644-.06266-.69866-.00808-.07919-.02695-.15772-.04919-.23423-.01887-.0651-.04312-.13222-.12397-.15705-.09837-.00067-.14014,.07114-.15564,.15101-.0283,.14497-.04514,.29262-.06199,.4396-.00674,.06242-.00135,.1255-.00135,.18859v8.50405c0,.06846,.00135,.13691-.00135,.20604-.00808,.18792-.10241,.3094-.28163,.36376-.04379,.01342-.08894,.02215-.14149,.0349-.04851-.01141-.10645-.01879-.15968-.03758-.15766-.05772-.26142-.1604-.27018-.33893-.00741-.14832-.01819-.29597-.02493-.4443-.02223-.46779-.04312-.93557-.06468-1.40336-.00067-.01745-.00135-.03423-.00202-.05168-.01482-.45638-.0283-.91342-.04514-1.3698-.02156-.57047-.04649-1.14094-.07007-1.71141-.02223-.54228-.04514-1.0839-.06738-1.62618-.02358-.5651-.04649-1.12953-.07007-1.69464-.00943-.23356-.0155-.46779-.03234-.70134-.00876-.12416-.03571-.24765-.05997-.37047-.01348-.0698-.04986-.12819-.13004-.14497-.08624,.01678-.12195,.08524-.13475,.15839-.0283,.15638-.05862,.31477-.06401,.47316-.02021,.57651-.02762,1.15369-.04514,1.73021-.01752,.58792-.04379,1.17584-.06131,1.76376-.01684,.54228-.02695,1.08524-.0411,1.62752-.01011,.38792-.02291,.77651-.03436,1.16443-.01078,.3651-.02291,.73088-.03369,1.09598-.01213,.38792-.02223,.77651-.03571,1.16443-.00337,.10805-.01482,.21611-.02223,.32483-.01213,.18792-.10511,.30403-.28905,.35906-.04379,.01342-.08894,.02215-.13475,.03356-.04379-.01074-.08894-.01946-.13273-.03222-.19202-.05503-.2877-.17114-.29646-.36913-.01145-.25101-.02021-.50202-.02762-.75302-.0155-.53691-.02897-1.07383-.04379-1.61007-.01011-.34832-.02156-.69665-.03234-1.0443-.01213-.40537-.02426-.81074-.03638-1.21611-.01078-.35973-.02223-.71947-.03301-1.0792-.01213-.40537-.02358-.81074-.03571-1.21611-.01078-.35973-.02223-.71947-.03301-1.0792-.01011-.31409-.0155-.62819-.03301-.94161-.00741-.13557-.03571-.27114-.06468-.40403-.01819-.08255-.03167-.08591-.13138-.14295-.08287,.0094-.11724,.0698-.13071,.13893-.0256,.13423-.05457,.26913-.06131,.4047-.02021,.41611-.02897,.83356-.04447,1.24967-.02156,.5651-.04582,1.12953-.06872,1.69464-.02223,.54228-.04582,1.0839-.06805,1.62618-.02358,.5651-.04582,1.12953-.0694,1.69464-.02223,.54228-.04379,1.0839-.06872,1.62618-.0155,.34765-.03369,.69597-.05592,1.04296-.01482,.22819-.09904,.32282-.32004,.38389-.03301,.0094-.06603,.01812-.08826,.02349-.02358-.00134-.03504,0-.04649-.00201-.32947-.06711-.40359-.21879-.40359-.51342,.00472-2.88055,.00337-5.76042,.00135-8.64097,0-.14832-.00943-.29732-.03032-.44363-.0155-.10872-.02358-.23222-.15362-.28658-.10915,.00873-.14486,.09195-.16238,.1745-.03301,.15571-.06199,.31409-.07479,.47248-.04177,.52349-.07479,1.04765-.11387,1.57115-.03167,.42685-.0667,.85369-.10241,1.27987-.0411,.49463-.08692,.98927-.12599,1.4839-.03032,.38725-.05188,.7745-.08018,1.16175-.02762,.38121-.06064,.76242-.08759,1.14363-.01887,.26175-.03234,.52416-.04649,.78658s-.02493,.52483-.03908,.78658c-.01954,.37047-.04447,.74094-.06131,1.11141-.03706,.82752-.05053,1.65638-.03167,2.48457,.00404,.17651,.01348,.35436,.03436,.52953,.02695,.22483,.12128,.42752,.24525,.61544,.18192,.27584,.42178,.49598,.67916,.69866,.36181,.28389,.75933,.51208,1.15551,.74296,.05862,.03423,.11589,.07181,.18326,.11342,0,.13893,.00337,.27517-.00067,.41141-.00876,.31409-.02089,.62752-.03234,.94161-.01819,.51342-.03638,1.02685-.0539,1.54094-.00472,.14832-.00674,.29732-.01011,.44564-.01348,.55369-.02628,1.10806-.04043,1.66175-.01011,.39396-.02291,.78792-.03436,1.18188-.01145,.38255-.02291,.7651-.03436,1.14765-.01145,.38255-.02291,.7651-.03436,1.14765s-.02291,.7651-.03436,1.14765c-.01145,.39933-.02291,.79933-.03504,1.19866-.01078,.37114-.02291,.74228-.03369,1.11343-.01145,.39396-.02223,.78792-.03571,1.18188-.00135,.04832-.01684,.09664-.03032,.16577-1.61097-.64832-3.06563-1.51477-4.38823-2.60068-2.04892-1.68188-3.62149-3.72887-4.71164-6.14163-1.02817-2.27517-1.52742-4.66646-1.46746-7.15505,.1105-4.60337,1.8003-8.5564,5.10107-11.78527,2.82712-2.76578,6.24445-4.35169,10.19069-4.72015,4.3377-.4047,8.29337,.68188,11.77876,3.29464,3.48606,2.61343,5.632,6.08995,6.48566,10.35506,1.47892,8.10337-2.95984,15.03695-8.5723,17.92622-.0027-.05436-.00674-.10403-.00741-.15436-.00337-.29128-.00741-.58255-.00876-.8745-.00674-1.38255-.01887-2.76511-.01684-4.14766,.00202-1.17719,.01482-2.3537,.03369-3.53088,.05794-3.62283,.0256-7.24566,.02897-10.86849,.00067-.61141-.00539-1.22282-.01213-1.83423-.00741-.61678-.01887-1.23356-.03099-1.85034-.00808-.40537-.01887-.81074-.03369-1.21611-.01887-.50806-.03571-1.01611-.06872-1.52282-.0283-.43222-.04716-.86645-.12936-1.29396-.02021-.10336-.02291-.21812-.13071-.30201-.04245,.01544-.09028,.02953-.13543,.04966-.34699,.15839-.65625,.37383-.93788,.62886-.52419,.47517-.92373,1.0443-1.25994,1.66041-.42649,.78054-.74182,1.60672-1.00324,2.45504-.28433,.92349-.50196,1.86242-.67309,2.81209-.11252,.62282-.20011,1.25034-.29039,1.87719-.06131,.42349-.11185,.84833-.15968,1.27383-.03301,.29463-.05525,.5906-.08085,.88658-.03099,.35839-.06266,.71611-.09096,1.0745-.01684,.21611-.03032,.43289-.04043,.64967-.01617,.32483-.02897,.65034-.04245,.97584-.02156,.51342-.04245,1.02685-.06266,1.54027-.00472,.1255-.00337,.25168-.00472,.37718-.00808,.74228-.02291,1.48524-.02156,2.22752,.00135,.67383,.01954,1.34833,.03369,2.02215,.00606,.29665,.01617,.59396,.03301,.88994,.00876,.14765,.02762,.29597,.05794,.44027,.0411,.19597,.16305,.34228,.34362,.42416,.13408,.06107,.27961,.09866,.4211,.14363,.13071,.04161,.26479,.07248,.39348,.11947,.32678,.11879,.56731,.3396,.73306,.64161,.1927,.35101,.29107,.72752,.316,1.12819,.04784,.77114,.02965,1.54229,.02695,2.31343-.00202,.49128-.02021,.98255-.03369,1.47316-.00606,.21141-.01819,.42215-.02897,.63289-.00269,.03892-.0101,.07785-.01684,.1302Z"/>
  <g>
    <path class="cls-1" d="M16.5,9.49183l.70678-.93624c.4238-.56175,1.03153-.8,1.66016-.32953,.36316,.27181,.49454,.71007,.34497,1.13759l1.78009,.08725-.3133,.72483-2.28272-.15705-.00606,.00873,1.46611,1.09732-.39011,.58792-2.96591-2.22081Zm1.75381,.43356l.15429-.20403c.20887-.27651,.33014-.60604,.00067-.85235-.33756-.25302-.56866-.02617-.77752,.25101l-.16372,.21745,.78628,.58792Z"/>
    <path class="cls-1" d="M21.42522,9.17773l-2.57715-2.59732,1.40278-1.38054,.56057,.39866-.98437,.96913,.51476,.51812,.79033-.77853,.47703,.48121-.791,.77853,.63132,.63557,1.10632-1.08859,.31734,.63826-1.44792,1.42551Z"/>
    <path class="cls-1" d="M24.11556,6.75759l-.54036,.45436-2.21669-2.9631,.84018-.62349c.67242-.5,1.35696-.16443,1.64129,.21544,.44401,.59329,.31061,1.27047-.27624,1.70672-.07748,.05705-.15362,.10671-.23717,.15638l.78898,1.05369Zm-1.18515-1.5839l.13745-.10201c.33823-.25168,.43054-.51208,.22234-.78994-.20752-.27718-.48444-.26443-.82334-.01275l-.13745,.10134,.601,.80336Z"/>
    <path class="cls-1" d="M25.24412,5.82403l-.1361-4.13894,.00943-.00537,3.44765,2.36913-.6111,.45369-.82604-.61007-1.23905,.66175,.06266,1.01745-.70745,.25235Zm.59628-1.94497l.72497-.38792-.84221-.67383,.11724,1.06175Z"/>
    <path class="cls-1" d="M28.97004,2.93207c.23784,.13289,.4211,.27248,.79504,.14497,.23784-.08121,.38068-.33758,.30791-.54967-.23514-.68457-1.61299,.21879-2.0341-1.00403-.22706-.65906,.13206-1.22618,.81862-1.46041,.34362-.11745,.8294-.0698,1.13193,.13691l-.24862,.62483c-.22032-.11544-.51678-.17248-.70341-.10873-.23245,.07919-.41032,.25235-.30117,.5698,.20213,.58859,1.56785-.34967,2.03544,1.0094,.21628,.62886-.17046,1.21141-.82267,1.43356-.43458,.14832-.86107,.09128-1.27678-.16577l.2978-.63088Z"/>
  </g>
</svg>