<?xml version="1.0" encoding="UTF-8"?>
<svg id="Calque_1" data-name="Calque 1" xmlns="http://www.w3.org/2000/svg" viewBox="0 0 70 40">
  <defs>
    <style>
      .cls-1 {
        fill: #f59100;
      }

      .cls-2 {
        fill: #fff;
      }

      .cls-3 {
        fill: #4f5d5b;
      }
    </style>
  </defs>
  <rect class="cls-1" y="14.68622" width="11.01958" height="11.05555"/>
  <g>
    <path class="cls-2" d="M4.37534,20.19986c0,.56998-.12471,1.00783-.76201,1.00783-.7136,0-.78979-.51441-.78979-.93139v-3.26736l-.91454,.20225v3.19721c0,1.21628,.84522,1.68194,1.66266,1.68194,1.06704,0,1.71812-.68802,1.71812-1.54993v-3.53146l-.91443,.20225v2.98868Z"/>
    <path class="cls-2" d="M7.5961,18.34074c-.3684,0-.70415,.11168-.98903,.31045v-.51966l-.88227,.21413v4.88463l.87984-.20239v-1.25011c.28404,.19691,.62488,.31193,.99145,.31193,.99146,0,1.79523-.83921,1.79523-1.8745s-.80377-1.87447-1.79523-1.87447m-.05626,2.94343c-.58882,0-1.01834-.49354-1.01834-1.07037,0-.57691,.42952-1.07044,1.01834-1.07044,.58889,0,1.01849,.49353,1.01849,1.07044,0,.57683-.4296,1.07037-1.01849,1.07037"/>
  </g>
  <g>
    <path class="cls-3" d="M13.77567,25.7423l2.05504-11.30738h.03212l3.58028,7.40937,3.58027-7.40937h.03212l2.10318,11.30738-2.08716,.2577-.88303-5.62147h-.03212l-2.69724,5.62147h-.03212l-2.74537-5.62147h-.03212l-.8349,5.62147-2.03895-.2577Z"/>
    <path class="cls-3" d="M30.08749,17.30202c2.40826,0,4.52746,1.88457,4.52746,4.34901s-2.1192,4.34897-4.52746,4.34897-4.52754-1.88456-4.52754-4.34897,2.11928-4.34901,4.52754-4.34901Zm0,6.82957c1.38074,0,2.60088-1.07924,2.60088-2.48056s-1.22015-2.48056-2.60088-2.48056-2.60096,1.07917-2.60096,2.48056,1.22022,2.48056,2.60096,2.48056Z"/>
    <path class="cls-3" d="M35.72288,17.55976l1.92658-.19329v1.1275h.03212c.69033-.93421,1.36464-1.19195,2.50461-1.19195,1.68573,0,2.80961,1.07921,2.80961,2.81881v5.62147l-2.03903,.12889v-5.20274c0-.86976-.40135-1.5946-1.3165-1.5946-1.28438,0-1.87843,.98254-1.87843,2.01341v4.65504l-2.03896,.12889v-8.31143Z"/>
    <path class="cls-3" d="M46.92936,15.36912l-1.38074,1.36913-1.38074-1.36913,1.38074-1.36912,1.38074,1.36912Zm-2.44038,2.19064l2.03895-.19329v8.37583l-2.03895,.12889v-8.31143Z"/>
    <path class="cls-3" d="M48.22961,17.55976h5.90828l-3.74078,6.41072h3.74078l-.35321,1.77182h-6.45412l3.74086-6.41075h-3.25917l.41737-1.77179Z"/>
    <path class="cls-3" d="M55.26154,17.55976h5.90828l-3.74078,6.41072h3.74078l-.35322,1.77182h-6.45412l3.74086-6.41075h-3.25918l.41737-1.77179Z"/>
    <path class="cls-3" d="M69.53441,24.92084c-.99541,.69258-2.21563,1.07916-3.41976,1.07916-2.40826,0-4.52746-1.88456-4.52746-4.34897s2.1192-4.34901,4.52746-4.34901c1.68581,0,3.1629,1.01476,3.88535,2.52886l-5.58719,3.47924c.16059,.33821,.61008,.82146,1.58946,.82146,1.04362,0,1.81421-.40274,2.66512-.96643l.86702,1.75568Zm-2.10326-5.37988c-.38526-.38659-.88295-.53155-1.42887-.53155-1.28438,0-2.31191,1.04699-2.42428,2.30333,0,.17718,0,.35437,.03212,.5477l3.82104-2.31948Z"/>
  </g>
</svg>