<?xml version="1.0" encoding="UTF-8"?>
<svg id="Layer_1" data-name="Layer 1" xmlns="http://www.w3.org/2000/svg" viewBox="0 0 70 40">
  <defs>
    <style>
      .cls-1 {
        fill: #7ec225;
      }
    </style>
  </defs>
  <path class="cls-1" d="M34.9234,32.65423c-4.50532-.07099-8.43005-1.66625-11.66834-4.86811-2.90778-2.87506-4.76803-7.03239-4.755-11.56168C18.52543,7.4104,25.82564-.07192,35.14519,.00052c8.93016,.06941,16.39702,7.2504,16.35463,16.46774-.09843,4.42894-1.67564,8.26096-4.84473,11.39378-3.20859,3.17187-7.12876,4.73166-11.73169,4.79219Zm-3.28849-10.38862c.0826,0,.14886-.00343,.21464,.00062,.23416,.0144,.46828,.04599,.70221,.04434,.52657-.0037,1.04696-.07056,1.56271-.17835,1.2828-.26809,2.48197-.73926,3.58177-1.44694,1.54393-.99347,2.59999-2.36277,3.1844-4.08837,.30028-.88666,.45072-1.80231,.49667-2.73342,.03494-.70795,.01845-1.41719-.06801-2.12147-.06124-.49882-.13598-.99698-.23015-1.49068-.165-.86507-.39622-1.71383-.70297-2.54128-.02029-.05473-.04949-.10623-.0746-.15934-.03321,.01184-.0512,.01415-.06377,.02355-.03112,.02326-.06091,.04859-.08925,.07515-.45609,.4274-.98248,.74728-1.55397,.99946-.62886,.27749-1.28039,.49592-1.92836,.72292-1.41,.49396-2.77894,1.07902-4.09252,1.78787-.34855,.18809-.69812,.37625-1.03355,.58581-.93894,.58662-1.61918,1.40377-2.10559,2.38208-.54184,1.08981-.78966,2.25216-.83036,3.46003-.00948,.28125,.01259,.56373,.02465,.84545,.01945,.4547,.09619,.90135,.21221,1.34088,.1208,.45765,.29137,.89531,.56971,1.28499,.04407,.0617,.09827,.11633,.15279,.18008,.08088-.04339,.15119-.0765,.21682-.11704,.47645-.29435,.91091-.64441,1.32478-1.01686,.84443-.75989,1.68204-1.52732,2.51476-2.29977,.63274-.58694,1.25352-1.1865,1.87988-1.78017,.03018-.0286,.06291-.05457,.09445-.08176-.06383,.2414-.16478,.4613-.2772,.6759-.33588,.64114-.74402,1.23572-1.19524,1.80208-.95025,1.19276-2.0505,2.23801-3.22802,3.20686-.24499,.20157-.49453,.39772-.74166,.5961-.01331,.04561-.02921,.08727-.03739,.13036-.03608,.19009-.06895,.38077-.10479,.57091-.12802,.67907-.24978,1.35945-.43028,2.02768-.01215,.04498-.01062,.09358-.01525,.13854,.18501,.03861,1.6246,.03321,1.76599-.00723,.01371-.06182,.03847-.13036,.04283-.20015,.02654-.42499,.0418-.85075,.07397-1.27528,.02587-.34144,.06673-.68193,.10864-1.02192,.01325-.10746,.05134-.21192,.07905-.32167Z"/>
  <g>
    <path class="cls-1" d="M23.13325,37.12963l1.50494-2.87496,1.56333,.80077-.18536,.58002-1.09732-.56213-.30052,.57418,.88115,.45141-.27849,.53237-.88133-.45141-.36858,.70404,1.2329,.63158-.45652,.44095-1.61419-.82681Z"/>
    <path class="cls-1" d="M28.04227,39.15989c-.15725,.03047-.40529-.01028-.54481-.05846-.95404-.32987-1.33838-1.25695-1.02389-2.14719,.31145-.88137,1.21266-1.37388,2.135-1.05499,.14847,.0512,.36088,.16476,.46028,.28399l-.15116,.74195c-.11641-.18513-.29193-.34582-.54839-.4344-.54445-.18832-1.09231,.16175-1.2748,.67817-.2013,.56975,.0797,1.14641,.59728,1.32534,.24751,.08557,.48499,.02781,.69256-.04535l-.34207,.71095Z"/>
    <path class="cls-1" d="M31.74705,36.63181c.93309,.1458,1.58679,1.01247,1.43868,1.94009s-1.04001,1.55281-1.9731,1.40701-1.58679-1.01247-1.43868-1.94009,1.04001-1.55281,1.9731-1.40701Zm-.43395,2.71782c.5749,.08982,1.13153-.31056,1.22233-.87925,.0908-.56886-.31396-1.1193-.88885-1.20912s-1.13153,.31039-1.22233,.87925c-.0908,.56869,.31396,1.1193,.88885,1.20912Z"/>
  </g>
</svg>