<?xml version="1.0" encoding="UTF-8"?>
<svg id="Layer_1" data-name="Layer 1" xmlns="http://www.w3.org/2000/svg" viewBox="0 0 70 40">
  <defs>
    <style>
      .cls-1 {
        fill: #f59100;
      }

      .cls-2 {
        fill: #fff;
      }

      .cls-3 {
        fill: #f39200;
      }

      .cls-4 {
        fill: #e5e5e5;
      }

      .cls-5 {
        fill: #7ec225;
      }

      .cls-6 {
        fill: #d70000;
      }

      .cls-7 {
        fill: #515d5c;
      }
    </style>
  </defs>
  <rect class="cls-4" y="2.5" width="70" height="35"/>
  <rect class="cls-2" y="2.5" width="70" height="35"/>
  <path class="cls-3" d="M13.28811,5.8306H3.32027V15.82943H13.28811V5.8306Z"/>
  <path class="cls-2" d="M7.27364,10.81237c0,.51512-.11256,.91027-.68939,.91027-.64716,0-.71751-.46572-.71751-.83971v-2.9566l-.83006,.18347v2.8931c0,1.10078,.76675,1.52417,1.50538,1.52417,.96372,0,1.55462-.62096,1.55462-1.40421v-3.19652l-.83007,.18347v2.70257h.00704Z"/>
  <path class="cls-2" d="M10.19294,9.13298c-.33061,0-.64014,.0988-.89337,.28225v-.47277l-.79491,.19051v4.41727l.79491-.18346v-1.12902c.26027,.1764,.56276,.28225,.90041,.28225,.90041,0,1.62497-.76209,1.62497-1.69352-.01407-.93143-.73863-1.69352-1.63201-1.69352Zm-.05627,2.66024c-.53462,0-.92152-.44454-.92152-.96671s.3869-.96671,.92152-.96671,.92151,.44454,.92151,.96671-.38689,.96671-.92151,.96671Z"/>
  <path class="cls-7" d="M15.77828,15.82943l1.8571-10.23169h.02814l3.23596,6.70352,3.23582-6.70352h.02814l1.90624,10.23169-1.88524,.23285-.80192-5.08761h-.02814l-2.4409,5.08761h-.02114l-2.48318-5.08761h-.02814l-.75264,5.08761-1.8501-.23285Z"/>
  <path class="cls-7" d="M30.53666,8.19447c2.18064,0,4.09402,1.70764,4.09402,3.93743s-1.92038,3.93744-4.09402,3.93744-4.09402-1.70764-4.09402-3.93744,1.92038-3.93743,4.09402-3.93743Zm0,6.18135c1.25216,0,2.35648-.97377,2.35648-2.24392s-1.10432-2.24391-2.35648-2.24391-2.35662,.97377-2.35662,2.24391c.00714,1.26309,1.11146,2.24392,2.35662,2.24392Z"/>
  <path class="cls-7" d="M35.63658,8.42733l1.74454-.17641v1.02318h.02814c.62608-.84676,1.23816-1.07962,2.2652-1.07962,1.52642,0,2.53932,.97377,2.53932,2.54734v5.08761l-1.84296,.11995v-4.70658c0-.7903-.36582-1.43949-1.18888-1.43949-1.1606,0-1.70226,.8891-1.70226,1.82055v4.21263l-1.8431,.11995v-7.5291Z"/>
  <path class="cls-7" d="M45.78028,6.44449l-1.25202,1.24191-1.25216-1.24191,1.25216-1.23486,1.25202,1.23486Zm-2.20878,1.98283l1.8431-.17641v7.57851l-1.8431,.11995v-7.52205Z"/>
  <path class="cls-7" d="M46.95502,8.42731h5.34632l-3.38366,5.8003h3.38366l-.31668,1.6018h-5.83856l3.38366-5.80031h-2.94756l.37282-1.60178Z"/>
  <path class="cls-7" d="M53.31424,8.42731h5.34618l-3.38352,5.8003h3.38352l-.31654,1.6018h-5.83856l3.38352-5.80031h-2.94742l.37282-1.60178Z"/>
  <path class="cls-7" d="M66.22952,15.08849c-.90034,.62801-2.0048,.97377-3.09512,.97377-2.18078,0-4.09416-1.70764-4.09416-3.93743s1.92052-3.93743,4.09416-3.93743c1.52642,0,2.863,.91732,3.51722,2.28624l-5.05778,3.14713c.1477,.30342,.54866,.74092,1.435,.74092,.94262,0,1.63898-.36694,2.4129-.87499l.78778,1.60178Zm-1.90638-4.86886c-.35168-.35283-.80192-.47984-1.2943-.47984-1.16074,0-2.08922,.94555-2.19478,2.08162,0,.1623,0,.31753,.02814,.49395l3.46094-2.09573Z"/>
  <path class="cls-5" d="M39.89818,32.91206c-1.72942-.028-3.23554-.65534-4.47916-1.91338-.73178-.75166-1.2691-1.67454-1.5645-2.68702-.29526-1.01248-.3395-2.08306-.12852-3.11696,.21084-1.03376,.67018-1.99906,1.33756-2.80994,.66724-.81088,1.52166-1.44256,2.48752-1.83876,.96586-.39634,2.01334-.54502,3.04962-.43302,1.03614,.11214,2.02902,.48146,2.89058,1.07534,.86156,.59388,1.5652,1.39384,2.04848,2.32918s.73136,1.97708,.72212,3.03268c-.03738,1.7409-.6433,3.24688-1.8599,4.47832-1.2313,1.2467-2.7363,1.8599-4.5038,1.88356Zm-1.26182-4.08338h.0819c.09002,.0056,.18004,.01792,.26992,.01736,.20174-.00322,.40264-.0266,.59976-.07,.4893-.1015,.95564-.29456,1.37522-.56924,.58002-.37492,1.0129-.94304,1.22402-1.60636,.11074-.34692,.17374-.7077,.18718-1.07198,.01456-.27832,.00574-.5572-.02632-.83398-.02324-.19586-.05194-.39186-.08806-.5859-.063-.33978-.1533-.67382-.26992-.99876-.00798-.0217-.0189-.04158-.0287-.06202-.00854,.00224-.01666,.00532-.0245,.00924-.01162,.00938-.02324,.01932-.0343,.02982-.17528,.16436-.37716,.29722-.59668,.39242-.24122,.1092-.48958,.1953-.7399,.28462-.54124,.19152-1.06666,.42644-1.57108,.70252-.13398,.07378-.26796,.14756-.39718,.23002-.3507,.2289-.6307,.55342-.8078,.93618-.20132,.4249-.3101,.88886-.31892,1.36024-.00364,.11032,.0049,.22134,.00924,.33236,.0084,.17808,.0357,.35476,.08134,.52696,.04228,.18032,.11648,.35126,.2191,.5047,.01652,.02422,.03738,.04592,.05824,.0707,.03122-.0168,.06118-.02982,.08316-.04592,.18116-.11718,.3514-.25074,.50862-.39928,.32438-.2989,.64624-.60018,.96572-.90398,.24472-.23058,.48104-.4662,.72156-.7,.01162-.01106,.0245-.021,.03612-.0322-.02534,.09254-.06104,.18172-.10654,.266-.1302,.25018-.28364,.48734-.45836,.70798-.36848,.46298-.78386,.8855-1.23928,1.26056-.09422,.07924-.1897,.15624-.28462,.23436-.00588,.0168-.01078,.03402-.0147,.05138-.01344,.07448-.02632,.14938-.04032,.22442-.049,.2667-.09548,.53382-.16464,.79674-.00364,.01792-.0056,.03626-.00616,.0546,.22638,.01344,.45332,.01148,.67928-.0063,.00742-.02576,.01288-.05208,.01652-.07868,.0098-.16674,.01596-.33418,.02814-.50092,.0098-.13398,.02576-.26782,.04172-.4018,.00756-.042,.01778-.08344,.03052-.12404"/>
  <path class="cls-6" d="M58.96394,20.07798c1.26924-.00028,2.51006,.37562,3.56552,1.08052,1.05546,.70476,1.87824,1.70674,2.36432,2.87924,.48594,1.1725,.61334,2.46274,.3661,3.70762-.24724,1.24474-.8582,2.3884-1.75546,3.28608-.89726,.89768-2.0405,1.50906-3.28524,1.757-1.24474,.2478-2.53498,.1211-3.70776-.36442-1.17264-.48538-2.17504-1.30774-2.88036-2.36278-.70532-1.05518-1.08192-2.29586-1.0822-3.56496v-.05516c.01554-1.6919,.69804-3.30918,1.89924-4.50058,1.2012-1.19154,2.82408-1.86088,4.51584-1.86256Zm0,3.67598l-.0315-.04774c-.1141-.19558-.24304-.3822-.3857-.55804-.1638-.20692-.35112-.3941-.55804-.5579-.119-.09548-.2492-.17626-.38752-.24066-.12978-.06048-.26992-.09618-.41286-.10528-.21518-.01358-.42714,.05684-.5915,.19642-.13846,.11368-.24668,.25984-.315,.42532-.0756,.1729-.09044,.36638-.04214,.5488,.03836,.13874,.10612,.26768,.19838,.37814,.1134,.13482,.24654,.25172,.39494,.34664,.17752,.1141,.36638,.20958,.56364,.28448,.4606,.18242,.9485,.2863,1.4434,.30758,.13636,.00532,.273,.00266,.40922-.00812,.53578-.04256,1.05938-.18186,1.5456-.41104,.19698-.09268,.37996-.21294,.54306-.35714,.1197-.10374,.2177-.23016,.2884-.37198,.09254-.18242,.11452-.39256,.06202-.59024-.04648-.17066-.13538-.32676-.25858-.45374-.1022-.11718-.2345-.20398-.38276-.25102-.14812-.04704-.30632-.0525-.45738-.01568-.17066,.03976-.33236,.11102-.4767,.21028-.16058,.1036-.30926,.2247-.44338,.36078-.2548,.25634-.4767,.54334-.66094,.85442l-.04466,.05572Zm-.4004,4.18502c-.0658-.01246-2.26114-.01862-2.54702-.00812-.01666,.00126-.03332,.00378-.04956,.00756v1.59208c-.0007,.09254,.03024,.18256,.08764,.25508,.05726,.07266,.13776,.12348,.22792,.1442,.04494,.00812,.09072,.0112,.13636,.00938h2.10056l.0441-.0063v-1.99388Zm3.39626,0c-.02772-.01176-.05824-.01554-.08806-.0112h-2.4626c-.01414,.0014-.02828,.00364-.04214,.00686-.00056,.00784-.00056,.01568,0,.02352v1.93564c-.00056,.00896-.00056,.01778,0,.02674l.00868,.00924h2.15208c.03878,.00098,.0777-.0021,.11592-.00924,.09002-.02086,.17038-.07168,.22764-.14434,.05726-.07252,.08806-.16254,.08722-.25494v-1.53076l.00126-.05152Zm-3.39444-2.81414h-2.20542c-.05558,.00252-.11004,.01638-.16002,.04074-.05012,.0245-.0945,.05894-.13076,.10122-.0644,.07448-.09926,.16996-.09786,.26838v1.53272c-.00252,.01148-.00238,.02338,.00014,.03472,.00252,.01148,.00756,.02226,.0147,.03164h2.53764l.0441-.00742-.00252-2.002Zm.79982,0v1.9635c-.0007,.0161,.00182,.03206,.00742,.04718h2.54198c.0161,.00084,.03206-.00168,.04718-.00756v-1.60258c-.0007-.08666-.02912-.1708-.08106-.24024-.05208-.0693-.12488-.11998-.2079-.1449-.04816-.01358-.09814-.01988-.14826-.01848h-2.15936v.00308Z"/>
  <path class="cls-6" d="M58.4556,24.08254l-.22624-.04396c-.28182-.05866-.55552-.15064-.81536-.27412-.12012-.05572-.23408-.12404-.33978-.20398-.05768-.04312-.11004-.09282-.15624-.14812-.05642-.05474-.08904-.1295-.09072-.20804-.00154-.07868,.02786-.1547,.08204-.21168,.0203-.02842,.04354-.05474,.06944-.07812,.028-.02576,.06146-.0448,.09786-.05544,.03654-.01078,.0749-.01302,.11228-.00658,.07756,.01316,.15218,.03962,.22078,.07812,.11816,.06454,.2275,.14392,.3255,.23618,.26096,.24024,.48538,.51744,.66584,.82278,.01428,.02296,.03038,.05138,.0546,.09296Z"/>
  <path class="cls-6" d="M59.48292,24.07638c.00448-.01316,.01008-.02576,.0168-.0378,.18536-.32018,.41678-.61138,.68698-.86436,.08652-.08218,.18158-.15512,.28322-.21756,.0847-.05278,.17878-.08834,.2772-.10472,.03542-.00616,.07168-.0042,.10626,.0056,.03444,.0098,.06636,.02702,.09338,.05082,.06202,.05194,.11032,.11844,.1407,.19334,.01484,.03332,.02198,.06944,.02086,.10584-.00098,.0364-.01022,.0721-.02702,.10444-.03626,.07014-.08498,.13314-.14378,.18592-.08568,.07714-.18018,.14378-.28154,.19838-.23212,.12628-.47922,.22288-.73528,.2877-.13216,.03472-.2667,.06202-.39998,.08806-.01232,.00294-.02506,.00448-.0378,.00434Z"/>
  <path class="cls-1" d="M27.30816,26.49684c.00014-1.16522-.3129-2.30846-.90552-3.30708-.59262-.99876-1.44256-1.81496-2.4584-2.36138-1.01584-.54642-2.1595-.80234-3.30806-.74018s-2.25862,.43988-3.21132,1.09284c-.9527,.65282-1.71192,1.55624-2.19618,2.6131-.4844,1.05686-.6755,2.2274-.55286,3.38604,.12264,1.15864,.5544,2.26142,1.2488,3.19032,.69454,.9289,1.62554,1.64864,2.69318,2.08208,.07224-2.44902,.14812-5.07094,.14812-5.07094-.20258-.1302-.82012-.42658-.84952-.84392-.07406-1.02858,.18354-3.71994,.2485-4.68342,0,0,.01036-.22134,.07154-.2226,.06118-.00126,.06118,.2226,.06118,.2226v3.38338c.00616,.042,.02688,.08036,.05852,.10808,.03178,.02772,.07224,.04298,.1141,.04298,.04186,0,.08246-.01526,.1141-.04298,.03164-.02772,.0525-.06608,.05852-.10808l.13776-3.38338s0-.2226,.06118-.2226c.06118,0,.06118,.2226,.06118,.2226l.10038,3.38338c.0056,.04228,.02604,.08106,.05782,.1092,.03164,.028,.07224,.04354,.11438,.04354,.04214,0,.08288-.01554,.11452-.04354,.03164-.02814,.05222-.06692,.05782-.1092l.10038-3.38338s0-.2226,.06118-.22316c.06118-.0007,.06118,.22316,.06118,.22316l.13832,3.38338c.00602,.042,.02688,.08036,.05852,.10808,.03164,.02772,.07224,.04298,.1141,.04298,.04186,0,.08232-.01526,.11396-.04298,.03178-.02772,.0525-.06608,.05852-.10808v-3.38338s0-.22316,.06552-.2226c.0539,0,.06678,.2226,.06678,.2226,.06118,.96096,.32312,3.65484,.24906,4.68342-.02996,.41734-.64694,.71372-.85008,.84392,0,0,.08386,2.87056,.15848,5.41002,1.0563,.21252,2.14872,.1484,3.1738-.18592,.03066-.92512,.03864-1.69764-.0049-1.88972-.1554-.68208-.59108-.48734-.7539-.67704-.04284-.05026-.06552-.08932-.07168-.24808-.05446-1.33168-.20188-7.29988,1.75042-8.14366,.24472-.10724,.11928,9.12016,.11928,9.12016,0,.29694,.00616,.798,.0147,1.38572,1.008-.54894,1.85038-1.3643,2.43754-2.35956,.58702-.99512,.89698-2.1329,.8967-3.29238"/>
</svg>