<?xml version="1.0" encoding="UTF-8"?>
<svg id="Layer_1" data-name="Layer 1" xmlns="http://www.w3.org/2000/svg" viewBox="0 0 70 40">
  <defs>
    <style>
      .cls-1 {
        fill: #d70000;
      }
    </style>
  </defs>
  <g>
    <path class="cls-1" d="M35.63748,7.01211c9.16129-.0016,16.44143,7.56553,16.36188,16.64212-.07856,8.96317-7.34514,16.38526-16.44057,16.3456-9.06545-.03953-16.35991-7.53184-16.28646-16.63467,.0721-8.93552,7.28524-16.35503,16.36516-16.35306Zm.00008,9.43995c-.03231-.05063-.05736-.08701-.07956-.12509-.2925-.50166-.62038-.97868-.98374-1.43073-.42344-.52678-.8872-1.01328-1.41892-1.43106-.3068-.24106-.63222-.45198-.98633-.61637-.33503-.15554-.68465-.2608-1.05351-.28044-.56579-.03013-1.07149,.13824-1.50925,.50231-.3572,.29707-.62296,.66558-.80241,1.09433-.19094,.45619-.23372,.9273-.10789,1.40964,.09463,.36272,.27206,.68211,.50519,.97163,.28574,.35484,.63131,.64122,1.00867,.89081,.45095,.29827,.93245,.5365,1.43447,.7326,1.18123,.46141,2.40308,.72806,3.67072,.78021,.34978,.01439,.69857,.00441,1.04627-.02143,.50266-.03734,1.00068-.11439,1.49369-.2225,.84679-.18568,1.66698-.4503,2.44697-.83441,.49994-.24619,.97051-.53837,1.38445-.91638,.30238-.27613,.55956-.58864,.73703-.96203,.23136-.48677,.28818-.99261,.15092-1.51632-.11718-.44711-.34566-.83414-.65798-1.16801-.58611-.62656-1.29975-.86203-2.14164-.68543-.4402,.09234-.83725,.28516-1.21361,.52585-.41367,.26456-.78597,.58122-1.13226,.92914-.65512,.65819-1.20843,1.39606-1.68332,2.19486-.03352,.05639-.06779,.11233-.10796,.17882Zm-1.02159,10.76153c-.16838-.03351-5.76692-.05076-6.4967-.02282-.03732,.00143-.07432,.01141-.12499,.01959,0,.06144,0,.11651,0,.17159,0,.29038,0,.58076,0,.87115,.00002,1.01634,.00497,2.03271-.00228,3.049-.00305,.42778,.27845,.91217,.81206,1.02764,.11219,.02427,.23092,.02442,.34664,.02452,1.75081,.00143,3.50161,.001,5.25242,.00099,.03324,0,.06669,.00222,.09967-.00076,.03652-.0033,.07262-.01141,.11317-.01812v-5.12277Zm8.66035,.00626c-.08114-.04311-.15443-.02933-.22493-.02936-2.06108-.00072-4.12215-.00058-6.18323-.00057-.03324,0-.06676-.00246-.09965,.00101-.03681,.00388-.07306,.0132-.10707,.01968-.00526,.02643-.01134,.04271-.01135,.05899-.00077,1.65852-.0011,3.31704-.0012,4.97556,0,.02221,.00312,.04445,.00554,.06659,.00055,.00508,.00369,.01015,.00657,.01461,.003,.00463,.00713,.00852,.02132,.02499,.05453,.00115,.11996,.00371,.18539,.00372,1.15243,.00024,2.30486,.00018,3.45729,.00017,.615,0,1.23,.00099,1.84499-.00108,.09912-.00034,.20067-.00289,.29687-.02399,.53426-.1172,.81389-.60162,.81178-1.02831-.0065-1.31227-.00235-2.6246-.00233-3.93691,0-.04945,0-.0989,0-.14511Zm-8.65991-7.23877c-.07658-.00273-.1362-.00669-.19583-.0067-1.76779-.00033-3.53558-.00028-5.30337-.00018-.04432,0-.08879-.00085-.13294,.00236-.29515,.02146-.5462,.13642-.74073,.36434-.16929,.19833-.25034,.42918-.2499,.69204,.00165,.98862,.00064,1.97724,.00064,2.96586,0,.32395-.00075,.64791,.00077,.97186,.00025,.05358-.01588,.11186,.03606,.1714h.17172c2.07258,0,4.14516,0,6.21775,0,.02771,0,.05566,.00224,.08306-.00072,.03652-.00395,.07261-.01196,.11277-.01891v-5.14133Zm2.03832-.00697c-.00255,.08852-.00609,.15426-.00611,.21999-.00031,1.57509-.00024,3.15017-.00023,4.72526,0,.03351-.0021,.06721,.00073,.10049,.00317,.03712,.01087,.07386,.01838,.1222h.18873c2.07258,0,4.14515,0,6.21773,0,.02771,0,.05564,.00211,.08307-.0007,.03673-.00377,.07306-.01138,.1193-.01894,0-.07516,0-.1417,0-.20824,0-.75962,.00001-1.51923,0-2.27885-.00001-.54178-.00274-1.08359,.0008-1.62535,.0026-.39845-.25681-.8413-.73584-.98786-.12279-.03757-.24912-.0486-.37749-.04854-1.77333,.00082-3.54666,.00055-5.31998,.00055-.05488,0-.10977,0-.1891,0Z"/>
    <path class="cls-1" d="M34.33576,17.30193c-.21941-.04267-.39847-.07433-.57612-.1126-.72201-.15556-1.42119-.38068-2.08758-.70401-.30499-.14798-.59746-.31715-.86643-.52552-.14535-.1126-.28102-.23552-.39731-.37913-.30915-.38178-.31692-.694-.02286-1.09084,.05274-.07118,.11157-.13963,.17667-.19928,.15227-.13953,.33213-.18963,.53772-.15936,.20062,.02954,.38422,.10368,.56076,.19846,.30497,.16375,.57722,.37419,.83215,.60745,.67385,.61656,1.22647,1.33254,1.69866,2.11389,.04282,.07085,.08268,.14353,.14434,.25094Z"/>
    <path class="cls-1" d="M36.95459,17.2861c.01787-.03999,.02809-.0703,.04394-.09724,.48296-.82115,1.05239-1.57339,1.75042-2.22229,.22438-.20859,.46313-.39918,.72556-.55777,.21969-.13276,.44818-.24297,.70573-.28024,.1922-.02782,.36408,.01764,.51058,.14455,.15764,.13655,.27728,.3032,.35866,.49668,.07821,.18594,.07141,.36956-.01705,.55031-.08961,.18311-.21949,.33445-.36731,.47156-.21734,.20161-.46121,.36583-.7179,.51079-.5925,.3346-1.22325,.57489-1.87816,.74871-.33661,.08934-.67966,.15407-1.02002,.22893-.02612,.00574-.05393,.00367-.09446,.006Z"/>
  </g>
  <g>
    <path class="cls-1" d="M21.23748,9.43785c-.02983,.15732-.15963,.3719-.25605,.48304-.66002,.76009-1.66453,.76671-2.37587,.13924-.70424-.62121-.82871-1.64259-.19053-2.37763,.10281-.1183,.28677-.27239,.43451-.31946l.63392,.42004c-.21521,.03794-.42954,.14013-.60693,.34452-.37662,.43382-.2541,1.07382,.15857,1.43767,.45529,.40161,1.0956,.35866,1.45358-.05351,.17118-.19723,.20545-.43919,.2145-.65933l.5343,.58541Z"/>
    <path class="cls-1" d="M21.74515,8.90076l-.80953-3.61664,.00728-.00609,3.39209,1.5055-.45546,.50112-.81966-.39785-.96615,.7898,.22462,.88447-.57319,.33969Zm.1939-1.80975l.56573-.46264-.84452-.45136,.27878,.914Z"/>
    <path class="cls-1" d="M23.41731,3.56349l.86103-.47821c.69962-.38837,1.65032-.10058,2.07897,.68385,.52454,.95964,.04865,1.86577-.62202,2.23803l-.75342,.41843-1.56456-2.8621Zm2.11111,1.86792c.50092-.27812,.50625-.8902,.25765-1.34496-.26689-.48823-.81238-.69655-1.26766-.44367l-.26493,.14711,.98515,1.80241,.28979-.16089Z"/>
    <path class="cls-1" d="M28.02024,4.86085l-1.10394-3.07311,1.6402-.59866,.30204,.53333-1.15118,.42004,.22054,.61387,.92442-.33754,.20438,.56895-.92442,.33736,.27026,.75275,1.29341-.47195,.01776,.63696-1.69347,.61799Z"/>
    <path class="cls-1" d="M30.35918,3.97906l1.00877-3.56402,.00923-.00161,2.26045,2.95839-.63783,.21978-.53004-.74488-1.22291,.22658-.22338,.88429-.66428,.02148Zm1.03043-1.49423l.71596-.13262-.52614-.80376-.18982,.93637Z"/>
    <path class="cls-1" d="M36.60319,0l.03853,2.35865c.00959,.59096-.42723,1.07007-1.15526,1.08206-.55792,.00931-1.13981-.30049-1.15348-1.13432l-.03569-2.19185,.62273-.08662,.03551,2.17754c.00479,.286,.0625,.63767,.5494,.62962,.43504-.00716,.5153-.30872,.50891-.69942l-.03338-2.04904L36.60319,0Z"/>
  </g>
</svg>