<?xml version="1.0" encoding="UTF-8"?>
<svg id="Layer_1" data-name="Layer 1" xmlns="http://www.w3.org/2000/svg" viewBox="0 0 70 40">
  <defs>
    <style>
      .cls-1 {
        fill: #f59100;
      }

      .cls-2 {
        fill: #fff;
      }

      .cls-3 {
        fill: #f39200;
      }

      .cls-4 {
        fill: #e5e5e5;
      }

      .cls-5 {
        fill: #d70000;
      }

      .cls-6 {
        fill: #515d5c;
      }
    </style>
  </defs>
  <rect class="cls-4" y="2.5" width="70" height="35"/>
  <rect class="cls-2" y="2.5" width="70" height="35"/>
  <path class="cls-3" d="M13.286,5.832H3.318V15.828H13.286s0-9.996,0-9.996Z"/>
  <path class="cls-2" d="M7.28,10.816c0,.518-.112,.91-.686,.91-.644,0-.714-.462-.714-.84v-2.954l-.84,.182v2.898c0,1.106,.77,1.526,1.512,1.526,.966,0,1.554-.616,1.554-1.4v-3.206l-.826,.182v2.702h0Z"/>
  <path class="cls-2" d="M10.192,9.136c-.336,0-.644,.098-.896,.28v-.476l-.798,.196v4.424l.798-.182v-1.134c.266,.182,.56,.28,.896,.28,.896,0,1.624-.756,1.624-1.694s-.728-1.694-1.624-1.694Zm-.056,2.66c-.532,0-.924-.448-.924-.966s.392-.966,.924-.966,.924,.448,.924,.966-.392,.966-.924,.966Z"/>
  <path class="cls-6" d="M15.778,15.828l1.862-10.234h.028l3.234,6.706,3.234-6.706h.028l1.904,10.234-1.89,.238-.798-5.096h-.028l-2.436,5.082h-.028l-2.478-5.082h-.028l-.756,5.082-1.848-.224Z"/>
  <path class="cls-6" d="M30.534,8.198c2.184,0,4.088,1.708,4.088,3.934s-1.918,3.934-4.088,3.934-4.088-1.708-4.088-3.934c0-2.226,1.918-3.934,4.088-3.934Zm0,6.174c1.246,0,2.352-.98,2.352-2.24,0-1.274-1.106-2.24-2.352-2.24s-2.352,.98-2.352,2.24,1.106,2.24,2.352,2.24Z"/>
  <path class="cls-6" d="M35.63,8.422l1.75-.182v1.022h.028c.63-.84,1.232-1.078,2.268-1.078,1.526,0,2.534,.98,2.534,2.548v5.082l-1.848,.126v-4.704c0-.784-.364-1.442-1.19-1.442-1.162,0-1.708,.896-1.708,1.82v4.214l-1.848,.126v-7.532h.014Z"/>
  <path class="cls-6" d="M45.78,6.448l-1.246,1.246-1.246-1.246,1.246-1.232,1.246,1.232Zm-2.212,1.974l1.848-.182v7.574l-1.848,.126v-7.518Z"/>
  <path class="cls-6" d="M46.956,8.422h5.348l-3.388,5.796h3.388l-.322,1.596h-5.838l3.388-5.796h-2.954l.378-1.596Z"/>
  <path class="cls-6" d="M53.312,8.422h5.348l-3.388,5.796h3.388l-.322,1.596h-5.838l3.388-5.796h-2.954l.378-1.596Z"/>
  <path class="cls-6" d="M66.234,15.086c-.896,.63-2.002,.98-3.094,.98-2.184,0-4.088-1.708-4.088-3.934s1.918-3.934,4.088-3.934c1.526,0,2.87,.924,3.514,2.282l-5.054,3.136c.154,.308,.546,.742,1.428,.742,.938,0,1.638-.364,2.408-.868l.798,1.596Zm-1.904-4.872c-.35-.35-.798-.476-1.288-.476-1.162,0-2.086,.952-2.198,2.086,0,.168,0,.322,.028,.49l3.458-2.1Z"/>
  <path class="cls-1" d="M46.256,26.496c0-1.162-.308-2.31-.91-3.304-.588-.994-1.442-1.82-2.464-2.366-1.022-.546-2.156-.798-3.304-.742s-2.254,.434-3.206,1.092c-.952,.658-1.708,1.554-2.198,2.618-.49,1.05-.672,2.226-.546,3.388,.126,1.162,.56,2.268,1.246,3.192,.7,.924,1.624,1.652,2.688,2.086,.07-2.45,.154-5.068,.154-5.068-.196-.126-.826-.42-.854-.84-.07-1.022,.182-3.724,.252-4.69,0,0,.014-.224,.07-.224s.056,.224,.056,.224v3.388c0,.042,.028,.084,.056,.112,.028,.028,.07,.042,.112,.042s.084-.014,.112-.042c.028-.028,.056-.07,.056-.112l.14-3.388s0-.224,.056-.224,.056,.224,.056,.224l.098,3.388c0,.042,.028,.084,.056,.112,.028,.028,.07,.042,.112,.042s.084-.014,.112-.042c.028-.028,.056-.07,.056-.112l.098-3.388s0-.224,.056-.224,.056,.224,.056,.224l.14,3.388c0,.042,.028,.084,.056,.112,.028,.028,.07,.042,.112,.042s.084-.014,.112-.042c.028-.028,.056-.07,.056-.112v-3.388s0-.224,.07-.224c.056,0,.07,.224,.07,.224,.056,.966,.322,3.654,.252,4.69-.028,.42-.644,.714-.854,.84,0,0,.084,2.87,.154,5.404,1.05,.21,2.142,.154,3.178-.182,.028-.924,.042-1.694,0-1.89-.154-.686-.588-.49-.756-.672-.042-.056-.07-.084-.07-.252-.056-1.33-.196-7.294,1.75-8.148,.238-.112,.126,9.114,.126,9.114,0,.294,0,.798,.014,1.386,1.008-.546,1.848-1.358,2.436-2.366,.63002-.994,.93802-2.128,.93802-3.29"/>
  <g>
    <path class="cls-5" d="M58.968,20.084c1.274,0,2.506,.378,3.57,1.078,1.05,.7,1.876,1.708,2.366,2.884,.49,1.176,.616,2.464,.364,3.71s-.854,2.394-1.75,3.29-2.044,1.512-3.29,1.75c-1.246,.252-2.534,.126-3.71-.364s-2.17-1.302-2.884-2.366c-.7-1.05-1.078-2.296-1.078-3.57v-.056c.014-1.694,.7-3.304,1.904-4.494,1.19-1.19,2.814-1.862,4.508-1.862Zm0,3.668l-.028-.042c-.112-.196-.238-.378-.392-.56-.168-.21-.35-.392-.56-.56-.112-.098-.252-.182-.392-.238-.126-.056-.266-.098-.406-.112-.21-.014-.434,.056-.588,.196-.14,.112-.252,.266-.308,.42-.07,.168-.084,.364-.042,.546,.042,.14,.112,.266,.196,.378,.112,.14,.252,.252,.392,.35,.182,.112,.364,.21,.56,.28,.462,.182,.952,.28,1.442,.308,.14,0,.266,0,.406-.014,.532-.042,1.064-.182,1.54-.406,.196-.098,.378-.21,.546-.364,.126-.098,.224-.224,.294-.378,.098-.182,.112-.392,.056-.588-.042-.168-.14-.322-.252-.448-.098-.112-.238-.21-.378-.252-.154-.042-.308-.056-.462-.014-.168,.042-.336,.112-.476,.21-.154,.098-.308,.224-.448,.364-.252,.252-.476,.546-.658,.854l-.04199,.07Zm-.406,4.186c-.07-.014-2.268-.014-2.548-.014-.014,0-.028,0-.056,.014v1.596c0,.098,.028,.182,.084,.252s.14,.126,.224,.14c.042,.014,.084,.014,.14,.014h2.142v-2.002h.014Zm3.402,0c-.028-.014-.056-.014-.084-.014h-2.506v1.988l.014,.014h2.156c.042,0,.084,0,.112-.014,.084-.014,.168-.07,.224-.14s.084-.168,.084-.252v-1.582Zm-3.402-2.814h-2.212c-.056,0-.112,.014-.154,.042-.056,.028-.098,.056-.126,.098-.07,.07-.098,.168-.098,.266v1.554c0,.014,.014,.028,.014,.028h2.534l.042-.014v-1.974Zm.798,0v1.96c0,.014,0,.028,.014,.042h2.548c.014,0,.028,0,.042-.014v-1.596c0-.084-.028-.168-.084-.238s-.126-.126-.21-.14c-.042-.014-.098-.014-.154-.014h-2.156Z"/>
    <path class="cls-5" d="M58.45,24.088l-.224-.042c-.28-.056-.56-.154-.812-.28-.126-.056-.238-.126-.336-.21-.056-.042-.112-.098-.154-.154-.056-.056-.084-.126-.084-.21s.028-.154,.084-.21c.014-.028,.042-.056,.07-.084,.028-.028,.056-.042,.098-.056,.042-.014,.07-.014,.112,0,.084,.014,.154,.042,.224,.084,.112,.07,.224,.14,.322,.238,.266,.238,.49,.518,.672,.826,0,.028,.014,.056,.028,.098Z"/>
    <path class="cls-5" d="M59.486,24.074c0-.014,.014-.028,.014-.042,.182-.322,.42-.616,.686-.868,.084-.084,.182-.154,.28-.224,.084-.056,.182-.084,.28-.098h.112c.028,.014,.07,.028,.098,.056,.056,.056,.112,.112,.14,.196,.014,.028,.028,.07,.014,.112,0,.042-.014,.07-.028,.098-.042,.07-.084,.14-.14,.182-.084,.084-.182,.14-.28,.196-.238,.126-.476,.224-.742,.294-.126,.028-.266,.056-.406,.084,0,.014-.014,.014-.028,.014Z"/>
  </g>
</svg>