<?xml version="1.0" encoding="UTF-8"?>
<svg id="Layer_1" data-name="Layer 1" xmlns="http://www.w3.org/2000/svg" viewBox="0 0 70 40">
  <defs>
    <style>
      .cls-1 {
        fill: #f19100;
      }

      .cls-2 {
        fill: #ff8c00;
      }
    </style>
  </defs>
  <path class="cls-2" d="M41.68996,39.17402c-1.05354,.35074-2.14049,.58976-3.2432,.71318-1.73695,.20273-3.4946,.13187-5.20996-.21004-.00787-.04797-.01332-.09631-.01634-.14483-.01588-.59214-.03109-1.18452-.04561-1.77711-.01089-.40704-.02383-.81339-.0354-1.21975-.01135-.38301-.02269-.76626-.03404-1.14973l-.03472-1.18474-.03472-1.16689-.03472-1.20259-.03472-1.16689c-.01135-.38897-.02269-.77793-.03404-1.16689l-.03472-1.18405-.03472-1.16689c-.01157-.40635-.02179-.81271-.0354-1.21906-.00749-.22651-.02042-.45234-.03131-.68641,.06399-.04324,.11914-.08237,.17632-.11806,.31316-.19631,.63176-.38439,.93879-.58962,.31007-.20259,.58588-.45404,.81693-.74475,.21965-.2733,.34786-.60969,.36626-.96097,.04153-.68641,.02927-1.37282,.01634-2.05923-.01089-.57521-.04085-1.14973-.06808-1.72426-.0177-.38851-.04153-.77702-.06808-1.16689-.02791-.41734-.06195-.8333-.0919-1.25064-.01566-.21965-.02451-.44068-.04085-.66032-.02927-.40567-.06263-.81065-.09395-1.21563-.0143-.18533-.02723-.37066-.04221-.5553-.03131-.39949-.06331-.79875-.09599-1.19778-.01362-.16199-.02791-.32398-.04017-.48598-.0388-.53265-.07489-1.06599-.11437-1.59865-.0177-.23681-.0388-.47431-.06331-.71043-.00908-.0808-.02572-.16055-.0497-.23818-.00879-.07231-.05645-.13382-.1239-.15993-.09939,0-.14092,.07276-.15658,.15376-.02859,.14758-.04561,.29722-.06195,.44685-.00375,.06401-.00375,.12819,0,.19219v8.8581c.00385,.17535-.11406,.32968-.2832,.37066-.04357,.01304-.08918,.02197-.14228,.03501-.05415-.00904-.10761-.02188-.15998-.03844-.15862-.05835-.26278-.16337-.27231-.3432-.00749-.15032-.01838-.30133-.02519-.45166-.02224-.47591-.04493-.95182-.06808-1.42773v-.05217c-.01566-.46401-.02859-.92871-.04561-1.39341-.02179-.5807-.04697-1.16072-.06808-1.74073-.02269-.55187-.04538-1.10329-.06808-1.65425-.02315-.57475-.04584-1.14928-.06808-1.72357-.01021-.23818-.01566-.47637-.03268-.71318-.01216-.12698-.03217-.25306-.05991-.37752-.00722-.07257-.06001-.13217-.13071-.14758-.07591,.01726-.1314,.08299-.13615,.16131-.03264,.15845-.05425,.319-.06467,.48049-.02042,.58619-.02791,1.17307-.04561,1.75995-.0177,.59786-.04357,1.19572-.06127,1.79359-.01702,.54913-.02723,1.10375-.04153,1.65562-.01021,.39468-.02246,.78937-.03472,1.18405-.01089,.37203-.02224,.74384-.03404,1.11541-.01157,.39468-.02246,.78937-.0354,1.18405-.00408,.11051-.01566,.22034-.02246,.33016,.00056,.17535-.12018,.32739-.29001,.36517-.04425,.01304-.08918,.02265-.13615,.03432-.04425-.01098-.08918-.02059-.13615-.03295-.17721-.03491-.30318-.19419-.2975-.37615-.01089-.25466-.02042-.51069-.02723-.76603-.01566-.54913-.02927-1.09208-.04425-1.63777-.01021-.35419-.02179-.70837-.03268-1.06256-.01225-.41185-.02428-.82369-.03608-1.23554-.01089-.36609-.02201-.73217-.03336-1.09825-.01225-.41185-.02428-.82369-.03608-1.23554-.01089-.36609-.02224-.73217-.03404-1.09825-.00953-.31918-.01498-.63836-.03268-.96097-.01211-.13885-.03487-.27654-.06808-.41185-.01838-.08374-.032-.08786-.13207-.14552-.07157,.00963-.12652,.06876-.13139,.1414-.02982,.13569-.05029,.2733-.06127,.41185-.02042,.42351-.02927,.84772-.04493,1.27192-.02179,.57475-.04448,1.14928-.06808,1.72357-.02224,.54913-.04493,1.10031-.06808,1.65356-.02315,.5743-.04584,1.14882-.06808,1.72357-.02247,.54913-.04425,1.10306-.06808,1.65425-.01634,.3535-.03404,.70769-.0565,1.06119-.01498,.23201-.09939,.3281-.32201,.38988l-.0885,.02471h-.04697c-.33086-.06864-.40846-.2224-.40846-.52236,.00454-2.92868,.00454-5.85735,0-8.78603,.00069-.15088-.00955-.3016-.03063-.45097-.01566-.11051-.02383-.23612-.15385-.29172-.11028,.00892-.14569,.09404-.16339,.17778-.03511,.15839-.06012,.31888-.07489,.48049-.04221,.53197-.07489,1.06531-.11437,1.59796-.03222,.43381-.06649,.86853-.1028,1.30418-.04085,.50314-.08714,1.00559-.12662,1.5101-.02995,.39331-.05174,.788-.08033,1.18131s-.06059,.77564-.08782,1.16346c-.01906,.26633-.03268,.53334-.04697,.80035s-.02519,.53334-.03948,.80035c-.01974,.37684-.04493,.75505-.06127,1.13052-.03744,.84154-.05106,1.68445-.032,2.52736,.00408,.17984,.01293,.35968,.03404,.53814,.03253,.22542,.11693,.44004,.24644,.62669,.1871,.27256,.41704,.51253,.68077,.71043,.3681,.2782,.75479,.53049,1.15731,.75505,.05923,.03501,.11641,.07276,.18449,.11532v.41871c-.00885,.31918-.0211,.63836-.03268,.95754-.0177,.52259-.03563,1.04517-.05378,1.56776-.00477,.15101-.00681,.30202-.01021,.45303-.01362,.56331-.02723,1.12686-.04085,1.69062-.01021,.40018-.02315,.80104-.03472,1.2019-.0118,.38897-.02315,.77793-.03404,1.16689l-.03472,1.16689-.03472,1.16689-.03472,1.21975c-.0118,.37752-.02315,.75482-.03404,1.13189-.01225,.40086-.02247,.80172-.03608,1.20259-.00644,.05669-.01667,.11287-.03063,.16817-1.596-.64756-3.0833-1.53964-4.40937-2.64473-2.03851-1.68256-3.65971-3.82132-4.73478-6.24632-1.03034-2.28185-1.53448-4.76945-1.47455-7.27593,.11029-4.68268,1.80881-8.70366,5.12622-11.98813,2.84087-2.81428,6.27468-4.42734,10.24087-4.80143,4.35695-.41185,8.33402,.69396,11.8366,3.35173s5.65995,6.19484,6.51772,10.53294c1.48613,8.24583-2.9743,15.29799-8.6145,18.23719,0-.05491-.00681-.10639-.00749-.15719-.0034-.29653-.00749-.59306-.00885-.89233-.00681-1.40645-.01906-2.81428-.01702-4.21935,0-1.1971,.01135-2.39419,.03404-3.59129,.05855-3.68533,.02587-7.37066,.02927-11.05598,0-.62189-.00545-1.24377-.01225-1.86566s-.01906-1.25544-.03131-1.88282c-.00817-.41184-.01951-.82369-.03404-1.23554-.01906-.51618-.03608-1.02961-.06808-1.54922-.02791-.4393-.04697-.88135-.12935-1.31585-.02042-.10502-.02315-.22171-.13139-.30682-.04289,.01579-.09122,.02952-.13615,.05079-.34551,.16226-.66366,.37813-.94287,.63973-.52692,.48049-.92858,1.06187-1.26624,1.68857-.41836,.79615-.75614,1.63276-1.00822,2.49715-.28246,.93882-.50844,1.89398-.67669,2.86027-.11301,.63356-.20423,1.27192-.29205,1.90959-.06127,.43038-.11233,.86282-.16066,1.29525-.03336,.29996-.05514,.60129-.08101,.90194-.03131,.36448-.06263,.72828-.09122,1.09276-.01702,.22034-.02995,.44068-.04085,.66101-.01634,.33085-.02859,.6617-.04221,.99255-.02179,.52167-.04289,1.0438-.06331,1.56638-.00477,.12767,0,.25603-.00408,.3837-.00817,.75505-.02315,1.5101-.02179,2.26515,0,.68641,.01974,1.37282,.03404,2.05923,.00613,.30202,.01634,.60404,.03336,.90537,.008,.15044,.02734,.30005,.05787,.44754,.0377,.19257,.16706,.35406,.34583,.43175,.13811,.05745,.27951,.1065,.42344,.14689,.13139,.04187,.26618,.07345,.39553,.12149,.31799,.11646,.58093,.34922,.7366,.65209,.18879,.35413,.29715,.74614,.31724,1.14767,.04833,.78388,.02927,1.56844,.02655,2.35301,0,.49971-.01974,.99941-.03336,1.49843-.00613,.21485-.01906,.42969-.02927,.64454,.0034,.03706-.00273,.07687-.0109,.13041Z"/>
  <path class="cls-1" d="M19.04337,11.44586l-2.54337-2.89047,.00681-.00892,2.68361,.58963-1.20565-2.49029,.00681-.00824,3.40386,1.78466-.36353,.60747-1.65972-.9294-.0034,.00618,.91836,1.88213-.00613,.00824-2.04232-.43724-.00613,.00892,1.30232,1.38723-.49152,.49009Z"/>
  <path class="cls-1" d="M22.01767,7.87105l-2.45078-2.77103,1.47455-1.33095,.54462,.43381-1.03954,.9342,.49016,.55325,.83327-.75024,.45408,.51275-.83327,.75024,.60112,.67886,1.16548-1.04952,.28592,.66444-1.52561,1.37419Z"/>
  <path class="cls-1" d="M23.99191,6.03285l-.40846-4.19121,.00885-.00549,3.61354,2.17454-.58274,.50108-.86867-.56423-1.19816,.75505,.13071,1.02961-.69507,.30065Zm.46973-2.01324l.7012-.44342-.88909-.62806,.18789,1.07148Z"/>
  <path class="cls-1" d="M27.88593,3.78554l-1.41124-3.43204,.62223-.3535,1.1825,2.87605,1.24037-.51824,.09735,.70357-1.73121,.72416Z"/>
</svg>