<?xml version="1.0" encoding="UTF-8"?>
<svg id="Layer_1" data-name="Layer 1" xmlns="http://www.w3.org/2000/svg" viewBox="0 0 70 40">
  <defs>
    <style>
      .cls-1 {
        fill: #d70000;
      }
    </style>
  </defs>
  <g>
    <path class="cls-1" d="M35.0016,6.83143c9.23736-.00161,16.57796,7.60698,16.49774,16.73328-.07921,9.01227-7.40613,16.47501-16.57709,16.43513-9.14073-.03974-16.49576-7.57309-16.4217-16.72578,.0727-8.98446,7.34573-16.44462,16.50105-16.44263Zm.00008,9.49166c-.03258-.0509-.05784-.08749-.08022-.12578-.29493-.50441-.62553-.98404-.99191-1.43856-.42695-.52966-.89457-1.01883-1.4307-1.4389-.30935-.24238-.63747-.45445-.99452-.61975-.33781-.15639-.69033-.26223-1.06226-.28198-.57049-.03029-1.08039,.13899-1.52179,.50507-.36017,.2987-.62813,.66923-.80907,1.10032-.19253,.45869-.23566,.93238-.10878,1.41736,.09541,.36471,.27432,.68585,.50939,.97695,.28811,.35679,.63656,.64473,1.01704,.89569,.4547,.2999,.94019,.53944,1.44639,.73661,1.19103,.46394,2.42304,.73205,3.7012,.78448,.35269,.01447,.70437,.00443,1.05496-.02154,.50683-.03755,1.00899-.11502,1.5061-.22371,.85382-.18669,1.68083-.45277,2.46729-.83898,.50409-.24754,.97857-.54132,1.39595-.9214,.30489-.27764,.56421-.59187,.74315-.9673,.23328-.48944,.29057-.99805,.15217-1.52463-.11816-.44956-.34853-.83871-.66344-1.17441-.59098-.62999-1.31055-.86676-2.15942-.68919-.44386,.09285-.8442,.28672-1.22369,.52873-.4171,.266-.79249,.5844-1.14166,.93423-.66056,.66179-1.21847,1.4037-1.6973,2.20689-.0338,.0567-.06836,.11295-.10885,.1798Zm-1.03007,10.82048c-.16978-.03369-5.8148-.05104-6.55064-.02295-.03763,.00144-.07493,.01147-.12603,.0197,0,.06177,0,.11715,0,.17253,0,.29197,0,.58395,0,.87592,.00002,1.02191,.00501,2.04385-.0023,3.06571-.00308,.43012,.28076,.91717,.81881,1.03326,.11312,.02441,.23283,.02456,.34952,.02465,1.76535,.00144,3.53069,.001,5.29604,.001,.03352,0,.06725,.00223,.1005-.00077,.03683-.00332,.07323-.01147,.11411-.01822v-5.15083Zm8.73227,.00629c-.08181-.04334-.15572-.02949-.2268-.02952-2.07819-.00072-4.15638-.00059-6.23457-.00057-.03352,0-.06732-.00247-.10048,.00101-.03712,.0039-.07367,.01328-.10796,.01979-.00531,.02658-.01143,.04294-.01144,.05931-.00078,1.66761-.00111,3.33521-.00121,5.00282,0,.02233,.00315,.04469,.00558,.06696,.00056,.0051,.00372,.01021,.00663,.01469,.00302,.00466,.00719,.00857,.0215,.02513,.05498,.00115,.12096,.00373,.18693,.00374,1.162,.00024,2.324,.00018,3.486,.00017,.62011,0,1.24021,.001,1.86031-.00109,.09994-.00034,.20234-.0029,.29933-.02412,.5387-.11784,.82065-.60492,.81852-1.03395-.00656-1.31946-.00237-2.63898-.00235-3.95847,0-.04972,0-.09945,0-.1459Zm-8.73183-7.27843c-.07721-.00274-.13733-.00673-.19745-.00674-1.78247-.00033-3.56494-.00029-5.3474-.00018-.04469,0-.08953-.00086-.13404,.00237-.2976,.02158-.55073,.13717-.74689,.36633-.17069,.19942-.25242,.43153-.25198,.69583,.00167,.99403,.00065,1.98807,.00064,2.98211,0,.32573-.00076,.65146,.00078,.97718,.00025,.05388-.01601,.11247,.03636,.17234h.17314c2.08979,0,4.17958,0,6.26938,0,.02794,0,.05613,.00225,.08375-.00073,.03682-.00397,.07321-.01203,.11371-.01901v-5.16949Zm2.05525-.00701c-.00257,.08901-.00614,.1551-.00616,.2212-.00031,1.58371-.00024,3.16743-.00023,4.75114,0,.0337-.00212,.06758,.00074,.10104,.0032,.03733,.01096,.07426,.01853,.12287h.1903c2.08979,0,4.17957,0,6.26936,0,.02794,0,.0561,.00212,.08376-.00071,.03703-.00379,.07367-.01145,.12029-.01904,0-.07557,0-.14248,0-.20938,0-.76378,.00001-1.52755,0-2.29133-.00001-.54475-.00276-1.08952,.00081-1.63425,.00262-.40063-.25894-.84591-.74195-.99327-.12381-.03777-.25118-.04887-.38062-.04881-1.78805,.00082-3.57611,.00056-5.36416,.00055-.05534,0-.11068,0-.19067,0Z"/>
    <path class="cls-1" d="M33.68908,17.17761c-.22123-.0429-.40178-.07473-.58091-.11322-.72801-.15641-1.43299-.38277-2.10491-.70787-.30752-.14879-.60242-.31889-.87362-.5284-.14655-.11322-.28336-.23681-.40061-.3812-.31172-.38387-.31955-.6978-.02305-1.09682,.05318-.07157,.1125-.1404,.17814-.20037,.15354-.14029,.33489-.19067,.54218-.16023,.20229,.0297,.38741,.10424,.56542,.19955,.3075,.16464,.58202,.37624,.83906,.61078,.67944,.61994,1.23665,1.33984,1.71277,2.12547,.04317,.07124,.08336,.14431,.14554,.25232Z"/>
    <path class="cls-1" d="M36.32966,17.16169c.01802-.04021,.02833-.07069,.04431-.09778,.48697-.82565,1.06113-1.58201,1.76496-2.23446,.22624-.20973,.46698-.40136,.73159-.56082,.22152-.13349,.4519-.2443,.71159-.28178,.1938-.02797,.3671,.01774,.51482,.14534,.15895,.1373,.27958,.30486,.36164,.4994,.07886,.18696,.072,.37158-.01719,.55333-.09036,.18412-.22131,.33628-.37036,.47415-.21915,.20272-.46504,.36783-.72386,.51359-.59742,.33644-1.23341,.57804-1.89376,.75281-.33941,.08983-.68531,.15491-1.02849,.23019-.02633,.00578-.05438,.00369-.09524,.00604Z"/>
  </g>
  <g>
    <path class="cls-1" d="M23.92972,5.89736c-.02427,.34944-.41468,.98031-.84175,1.30124-.82487,.62013-1.99134,.47657-2.62075-.36906-.64154-.86259-.3883-2.03392,.3912-2.61959,.49329-.37078,.9747-.45323,1.44583-.41068l-.01345,.68535c-.37379,.00172-.67794-.01644-1.05542,.26698-.5223,.39265-.57427,1.13952-.16513,1.68979,.42787,.5748,1.1889,.55518,1.62415,.22814,.20734-.15589,.38276-.42407,.46796-.65699l-.36588-.49168-.82909,.62318-.21947-.66017,1.20235-.90342,.97945,1.31689Z"/>
    <path class="cls-1" d="M25.17164,5.79899l-1.69669-3.18047,.56293-.39756,1.71621,3.21692-.58245,.3611Z"/>
    <path class="cls-1" d="M25.51746,1.59487l1.69907-.67223,.38038,.55889-1.20341,.4763,.29755,.75972,.89055-.35249,.24084,.6143-.89082,.35262,.52125,1.33041-.60487,.32902-1.33055-3.39654Z"/>
    <path class="cls-1" d="M28.37931,.54616l2.3071-.54616,.15062,.64267-.86127,.20428,.66343,2.8297-.65525,.19805-.67293-2.8704-.94199,.22324,.01029-.68138Z"/>
  </g>
</svg>