<?xml version="1.0" encoding="UTF-8"?>
<svg id="Layer_1" data-name="Layer 1" xmlns="http://www.w3.org/2000/svg" viewBox="0 0 70 40">
  <defs>
    <style>
      .cls-1 {
        fill: #f59100;
      }

      .cls-2 {
        fill: #fff;
      }

      .cls-3 {
        fill: #f39200;
      }

      .cls-4 {
        fill: #e5e5e5;
      }

      .cls-5 {
        fill: #7ec225;
      }

      .cls-6 {
        fill: #515d5c;
      }
    </style>
  </defs>
  <rect class="cls-4" y="2.5" width="70" height="35"/>
  <rect class="cls-2" y="2.5" width="70" height="35"/>
  <path class="cls-3" d="M13.28811,5.8306H3.32027V15.82943H13.28811V5.8306Z"/>
  <path class="cls-2" d="M7.27364,10.81237c0,.51512-.11256,.91027-.68939,.91027-.64716,0-.71751-.46572-.71751-.83971v-2.9566l-.83006,.18347v2.8931c0,1.10078,.76675,1.52417,1.50536,1.52417,.96373,0,1.55463-.62096,1.55463-1.40421v-3.19652l-.83007,.18347v2.70257h.00704Z"/>
  <path class="cls-2" d="M10.19294,9.13298c-.33062,0-.64014,.0988-.89338,.28225v-.47277l-.79489,.19051v4.41727l.79489-.18346v-1.12902c.26029,.1764,.56276,.28225,.90042,.28225,.90041,0,1.62495-.76209,1.62495-1.69352-.01406-.93143-.73861-1.69352-1.63199-1.69352Zm-.05628,2.66024c-.53462,0-.92151-.44454-.92151-.96671s.38689-.96671,.92151-.96671,.92152,.44454,.92152,.96671-.38689,.96671-.92152,.96671Z"/>
  <path class="cls-6" d="M15.77828,15.82943l1.8571-10.23169h.02814l3.23596,6.70352,3.23582-6.70352h.02814l1.90624,10.23169-1.88524,.23285-.80192-5.08761h-.02814l-2.4409,5.08761h-.02114l-2.48318-5.08761h-.02814l-.75264,5.08761-1.8501-.23285Z"/>
  <path class="cls-6" d="M30.53666,8.19447c2.18064,0,4.09402,1.70764,4.09402,3.93743s-1.92038,3.93744-4.09402,3.93744-4.09402-1.70764-4.09402-3.93744,1.92038-3.93743,4.09402-3.93743Zm0,6.18135c1.25216,0,2.35648-.97377,2.35648-2.24392s-1.10432-2.24391-2.35648-2.24391-2.35662,.97377-2.35662,2.24391c.00714,1.26309,1.11146,2.24392,2.35662,2.24392Z"/>
  <path class="cls-6" d="M35.63658,8.42733l1.74454-.17641v1.02318h.02814c.62608-.84676,1.23816-1.07962,2.2652-1.07962,1.52642,0,2.53932,.97377,2.53932,2.54734v5.08761l-1.84296,.11995v-4.70658c0-.7903-.36582-1.43949-1.18888-1.43949-1.1606,0-1.70226,.8891-1.70226,1.82055v4.21263l-1.8431,.11995v-7.5291Z"/>
  <path class="cls-6" d="M45.78028,6.44449l-1.25202,1.24191-1.25216-1.24191,1.25216-1.23486,1.25202,1.23486Zm-2.20878,1.98283l1.8431-.17641v7.57851l-1.8431,.11995v-7.52205Z"/>
  <path class="cls-6" d="M46.95502,8.42731h5.34632l-3.38366,5.8003h3.38366l-.31654,1.6018h-5.8387l3.38366-5.80031h-2.94756l.37282-1.60178Z"/>
  <path class="cls-6" d="M53.31424,8.42731h5.34618l-3.38352,5.8003h3.38352l-.31654,1.6018h-5.83856l3.38352-5.80031h-2.94742l.37282-1.60178Z"/>
  <path class="cls-6" d="M66.22952,15.08849c-.90034,.62801-2.0048,.97377-3.09512,.97377-2.18064,0-4.09402-1.70764-4.09402-3.93743s1.92038-3.93743,4.09402-3.93743c1.52642,0,2.863,.91732,3.51722,2.28624l-5.05778,3.14713c.1477,.30342,.54866,.74092,1.435,.74092,.94262,0,1.63898-.36694,2.4129-.87499l.78778,1.60178Zm-1.90638-4.86886c-.35168-.35283-.80192-.47984-1.2943-.47984-1.1606,0-2.08922,.94555-2.19478,2.08162,0,.1623,0,.31753,.02814,.49395l3.46094-2.09573Z"/>
  <path class="cls-1" d="M46.26244,26.49684c.00014-1.16522-.3129-2.30846-.90552-3.30708-.59262-.99876-1.44256-1.81496-2.4584-2.36138-1.01584-.54642-2.1595-.80234-3.30806-.74018s-2.25862,.43988-3.21132,1.09284c-.9527,.65282-1.71192,1.55624-2.19618,2.6131-.4844,1.05686-.6755,2.2274-.55286,3.38604,.12264,1.15864,.5544,2.26142,1.2488,3.19032,.69454,.9289,1.62554,1.64864,2.69318,2.08208,.07224-2.44902,.14812-5.07094,.14812-5.07094-.20258-.1302-.82012-.42658-.84952-.84392-.07406-1.02858,.18354-3.71994,.2485-4.68342,0,0,.01036-.22134,.07154-.2226,.06118-.00126,.06118,.2226,.06118,.2226v3.38338c.00616,.042,.02688,.08036,.05852,.10808,.03178,.02772,.07224,.04298,.1141,.04298,.04186,0,.08246-.01526,.1141-.04298,.03164-.02772,.0525-.06608,.05852-.10808l.13776-3.38338s0-.2226,.06118-.2226c.06118,0,.06118,.2226,.06118,.2226l.10038,3.38338c.0056,.04228,.02604,.08106,.05782,.1092,.03164,.028,.07224,.04354,.11438,.04354,.04214,0,.08288-.01554,.11452-.04354,.03164-.02814,.05222-.06692,.05782-.1092l.10038-3.38338s0-.2226,.06118-.22316c.06118-.0007,.06118,.22316,.06118,.22316l.13832,3.38338c.00602,.042,.02688,.08036,.05852,.10808,.03164,.02772,.07224,.04298,.1141,.04298,.04186,0,.08232-.01526,.11396-.04298,.03178-.02772,.0525-.06608,.05852-.10808v-3.38338s0-.22316,.06552-.2226c.0539,0,.06678,.2226,.06678,.2226,.06118,.96096,.32312,3.65484,.24906,4.68342-.02996,.41734-.64694,.71372-.85008,.84392,0,0,.08386,2.87056,.15848,5.41002,1.0563,.21252,2.14872,.1484,3.1738-.18592,.03066-.92512,.03864-1.69764-.0049-1.88972-.1554-.68208-.59108-.48734-.7539-.67704-.04284-.05026-.06552-.08932-.07168-.24808-.05446-1.33168-.20188-7.29988,1.75042-8.14366,.24472-.10724,.11928,9.12016,.11928,9.12016,0,.29694,.00616,.798,.0147,1.38572,1.008-.54894,1.85038-1.3643,2.43754-2.35956,.58702-.99512,.89698-2.1329,.8967-3.29238"/>
  <path class="cls-5" d="M58.93552,32.91206c-1.7521-.028-3.27796-.65534-4.53782-1.91338-.7413-.75166-1.28576-1.67454-1.58494-2.68702-.29918-1.01248-.34398-2.08306-.13034-3.11696,.21364-1.03376,.67914-1.99906,1.35506-2.80994,.67606-.81088,1.54168-1.44256,2.52014-1.83876,.97846-.39634,2.03966-.54502,3.08938-.43302,1.04986,.11214,2.05576,.48146,2.92852,1.07534,.8729,.59388,1.58564,1.39384,2.07522,2.32918,.48958,.93534,.74088,1.97708,.7315,3.03268-.0378,1.7409-.65156,3.24688-1.88412,4.47832-1.24754,1.2467-2.77214,1.8599-4.5626,1.88356Zm-1.27848-4.08338h.08302c.09114,.0056,.18228,.01792,.27342,.01736,.2044-.00322,.40796-.0266,.6076-.07,.49574-.1015,.96824-.29456,1.39314-.56924,.58772-.37492,1.0262-.94304,1.24012-1.60636,.11214-.34692,.17598-.7077,.1897-1.07198,.0147-.27832,.00574-.5572-.02674-.83398-.02352-.19586-.05264-.39186-.08918-.5859-.06384-.33978-.15526-.67382-.27342-.99876-.00812-.0217-.01932-.04158-.02926-.06202-.00854,.00224-.0168,.00532-.02478,.00924-.01176,.00938-.02352,.01932-.03472,.02982-.17752,.16436-.38206,.29722-.60452,.39242-.24416,.1092-.49588,.1953-.74956,.28462-.54824,.19152-1.08052,.42644-1.59152,.70252-.1358,.07378-.2716,.14756-.40236,.23002-.35532,.2289-.63896,.55342-.81844,.93618-.20398,.4249-.31416,.88886-.32298,1.36024-.00378,.11032,.0049,.22134,.00924,.33236,.00854,.17808,.03626,.35476,.08246,.52696,.04284,.18032,.11802,.35126,.22204,.5047,.01666,.02422,.0378,.04592,.05894,.0707,.0315-.0168,.06188-.02982,.08428-.04592,.18354-.11718,.35602-.25074,.5152-.39928,.32858-.2989,.65478-.60018,.97832-.90398,.24808-.23058,.48734-.4662,.73108-.7,.01176-.01106,.02478-.021,.03654-.0322-.02562,.09254-.06188,.18172-.10794,.266-.13188,.25018-.28742,.48734-.46438,.70798-.37324,.46298-.79394,.8855-1.25552,1.26056-.09548,.07924-.19208,.15624-.28826,.23436-.00602,.0168-.01092,.03402-.01484,.05138-.01372,.07448-.02674,.14938-.04088,.22442-.0497,.2667-.09674,.53382-.16688,.79674-.00364,.01792-.0056,.03626-.00616,.0546,.22932,.01344,.4592,.01148,.68824-.0063,.00742-.02576,.01302-.05208,.01666-.07868,.00994-.16674,.0161-.33418,.02856-.50092,.00994-.13398,.02604-.26782,.04214-.4018,.0077-.042,.01806-.08344,.03108-.12404"/>
</svg>