<?xml version="1.0" encoding="UTF-8"?>
<svg id="Layer_1" data-name="Layer 1" xmlns="http://www.w3.org/2000/svg" viewBox="0 0 70 40">
  <defs>
    <style>
      .cls-1 {
        fill: #f19100;
      }

      .cls-2 {
        fill: #ff8c00;
      }
    </style>
  </defs>
  <path class="cls-2" d="M42.5787,39.20221c-1.02118,.34408-2.06841,.56645-3.13453,.68881-1.68482,.19342-3.36182,.13158-5.03557-.20329-.00651-.05329-.01433-.09671-.01563-.14013-.01498-.57368-.02866-1.14737-.04429-1.72105-.01042-.39342-.02279-.7875-.03386-1.18092-.01107-.37105-.02214-.74211-.03322-1.11316-.01107-.38224-.02214-.76513-.03386-1.14737-.01107-.37697-.02214-.75329-.03322-1.13026-.01107-.38816-.02279-.77632-.03386-1.16382-.01107-.37697-.02214-.75329-.03322-1.13026-.01107-.37697-.02214-.75329-.03322-1.13026-.01107-.38224-.02214-.76513-.03322-1.14737-.01107-.37697-.02214-.75329-.03322-1.13026-.01172-.39342-.02149-.7875-.03452-1.18092-.00716-.21908-.01954-.4375-.02996-.66448,.06122-.04145,.11462-.0796,.17063-.11447,.30284-.19013,.61089-.37171,.90721-.57105,.29763-.2,.5692-.43421,.79194-.7204,.21166-.27237,.33019-.57434,.35168-.92763,.04038-.66448,.02866-1.32763,.01563-1.99145-.01042-.55658-.03973-1.11316-.06513-1.66908-.01693-.37632-.03973-.75263-.06447-1.12829-.0267-.40395-.05992-.80724-.08857-1.21119-.01498-.21316-.0241-.42697-.03973-.64013-.02866-.39276-.06057-.78487-.09118-1.17698-.01368-.17961-.0267-.35855-.04103-.53816-.03061-.38684-.06187-.77303-.09313-1.15987-.01237-.15658-.0267-.31382-.03842-.47039-.03712-.51579-.07294-1.03224-.11072-1.54803-.01693-.22961-.03712-.45921-.06057-.68816-.00781-.07763-.02605-.15526-.04754-.23092-.01889-.06382-.04168-.13026-.12048-.15461-.09574-.00066-.13611,.06974-.15109,.14868-.02735,.14276-.04429,.28816-.05992,.4329-.00716,.06118-.0013,.12368-.0013,.18553v8.37698c0,.06776,.0013,.13487-.0013,.20263-.00781,.18487-.09964,.30461-.27353,.35855-.04233,.01316-.08662,.02171-.13742,.03421-.04754-.01119-.1029-.01842-.155-.0375-.15305-.05658-.25399-.15855-.26246-.33355-.00716-.14605-.01758-.29211-.02475-.4375-.02149-.46053-.04233-.92105-.06317-1.38224-.00065-.01711-.0013-.03355-.00195-.05066-.01433-.45-.02735-.9-.04429-1.34934-.02084-.56184-.04494-1.12434-.06838-1.68619-.02149-.53421-.04364-1.06776-.06578-1.60132-.02279-.55658-.04559-1.1125-.06838-1.66908-.00977-.23026-.01498-.46118-.03126-.69079-.00847-.12237-.03452-.24408-.05796-.36513-.01368-.06908-.04819-.12632-.12635-.14276-.08401,.01645-.11853,.08421-.1309,.15592-.02735,.15461-.05731,.30987-.06252,.46645-.01954,.56776-.02735,1.13619-.04364,1.70461-.01693,.57895-.04233,1.1579-.05992,1.73684-.01628,.53421-.02605,1.06908-.03973,1.60329-.00977,.38224-.02214,.76513-.03386,1.14737-.01107,.35987-.02214,.71974-.03322,1.07961-.01172,.38224-.02149,.76513-.03452,1.14737-.00326,.10658-.01498,.21316-.02149,.31974-.01172,.18487-.10225,.29934-.28069,.35329-.04233,.01316-.08597,.02171-.1309,.03289-.04298-.01053-.08662-.01974-.12895-.03158-.18626-.05395-.27939-.16908-.28786-.36382-.01107-.24737-.01954-.49474-.0267-.74211-.01498-.52895-.028-1.05724-.04298-1.58619-.00977-.34276-.02149-.68618-.03126-1.02895-.01172-.39934-.02345-.79869-.03517-1.19803-.01042-.35395-.02149-.70855-.03191-1.0625-.01172-.39934-.02279-.79869-.03517-1.19803-.01042-.35395-.02149-.70855-.03256-1.0625-.00977-.30921-.01498-.61842-.03191-.92763-.00716-.13355-.03452-.26711-.06317-.39803-.01758-.08092-.03061-.08487-.12765-.14079-.08011,.00921-.11397,.06908-.127,.13684-.02475,.13224-.0534,.26513-.05927,.39868-.01954,.40987-.028,.82105-.04363,1.23158-.02084,.55658-.04429,1.11316-.06708,1.66908-.02149,.53421-.04429,1.06776-.06643,1.60132-.02279,.55658-.04494,1.1125-.06773,1.66908-.02149,.53421-.04298,1.06777-.06708,1.60132-.01563,.34276-.03256,.68553-.05471,1.02763-.01433,.225-.09639,.31842-.3113,.37829-.03191,.00921-.06448,.01776-.08532,.02303-.02279-.00132-.03452,0-.04494-.00197-.31977-.06579-.39206-.21513-.39206-.50592,.00456-2.8375,.00326-5.67435,.0013-8.51185,0-.14605-.00912-.29276-.02931-.43684-.01563-.10724-.02279-.22895-.14914-.28224-.10616,.00855-.14067,.09079-.15761,.17171-.03191,.15329-.05992,.30921-.07229,.46513-.04103,.51579-.07229,1.03158-.11006,1.54737-.03061,.4204-.06448,.84079-.09899,1.26119-.03973,.4875-.08466,.97434-.12244,1.46184-.02931,.38092-.05015,.76316-.0775,1.14408-.0267,.37566-.05927,.75066-.08532,1.12632-.01824,.2579-.03126,.51645-.04494,.775s-.0241,.51711-.03777,.775c-.01954,.36513-.04363,.72961-.05927,1.09474-.03582,.81513-.0495,1.63158-.03126,2.44737,.00391,.17434,.01303,.34868,.03321,.52171,.02605,.22171,.11723,.42105,.23771,.60658,.17649,.27171,.40964,.48882,.65973,.68816,.35103,.27961,.73788,.50395,1.12213,.73158,.05731,.03355,.11267,.0704,.17779,.11184,0,.13684,.00326,.27105-.00065,.40526-.00847,.30921-.02019,.61842-.03126,.92763-.01758,.50592-.03517,1.01184-.0521,1.51777-.00456,.14605-.00651,.29276-.00977,.43882-.01303,.5454-.0254,1.09145-.03973,1.63684-.00977,.38816-.02214,.77632-.03321,1.16382-.01107,.37697-.02214,.75329-.03321,1.13026-.01107,.37697-.02214,.75329-.03321,1.13027-.01107,.37697-.02214,.75329-.03321,1.13026-.01172,.39342-.02214,.7875-.03387,1.18092-.01042,.36579-.02214,.73092-.03256,1.09671-.01172,.38816-.02149,.77632-.03452,1.16382-.0013,.04803-.01628,.0954-.02931,.16316-1.56499-.63882-2.97823-1.49211-4.26252-2.56185-1.99026-1.65724-3.51747-3.67369-4.57643-6.05001-.99839-2.24013-1.48293-4.59671-1.42561-7.04803,.10681-4.53422,1.74864-8.42896,4.95481-11.60923,2.74638-2.725,6.06521-4.28685,9.89855-4.64935,4.21367-.39868,8.05547,.67171,11.44139,3.2454,3.38592,2.57435,5.47061,5.99935,6.29967,10.20067,1.43603,7.98488-2.87533,14.81515-8.3264,17.66055-.00261-.05329-.00651-.10263-.00716-.15197-.00326-.28684-.00716-.57434-.00912-.86119-.00651-1.36184-.01824-2.72369-.01628-4.08619,.00195-1.15921,.01433-2.31842,.03256-3.47764,.05666-3.56843,.02475-7.13751,.028-10.70659,.00065-.60263-.00521-1.20461-.01172-1.80724-.00716-.60789-.01824-1.21513-.02996-1.82303-.00781-.39934-.01824-.79869-.03256-1.19803-.01824-.5-.03452-1.00066-.06708-1.5-.02735-.42566-.04559-.85329-.12569-1.27434-.01954-.10197-.02214-.21447-.127-.29737-.04103,.01513-.08792,.02895-.13155,.04934-.33735,.15592-.63759,.36776-.91112,.61908-.50929,.46776-.89744,1.02895-1.22437,1.63553-.4142,.76908-.7203,1.5829-.97494,2.41842-.27679,.90921-.48715,1.83487-.65387,2.76974-.10941,.61382-.19408,1.23158-.282,1.84869-.05927,.41711-.10811,.83553-.155,1.25461-.03256,.29013-.0534,.58224-.07815,.87303-.02996,.35263-.06122,.70526-.08857,1.05855-.01628,.21316-.02931,.42632-.03973,.64013-.01563,.32039-.028,.64079-.04103,.96118-.02084,.50592-.04168,1.01119-.06057,1.51711-.00456,.12368-.00326,.24737-.00456,.37171-.00781,.73158-.02214,1.46316-.02084,2.19474,.0013,.66382,.01889,1.32763,.03256,1.99145,.00586,.29211,.01563,.58487,.03256,.87697,.00847,.14539,.0267,.29145,.05601,.43355,.04038,.19342,.15826,.33684,.3341,.41776,.13025,.06053,.27158,.09737,.40899,.14211,.127,.04079,.25725,.07171,.38229,.11776,.31782,.11711,.55162,.33487,.71183,.63224,.18691,.34605,.28265,.71645,.30674,1.11119,.04624,.75921,.02866,1.51908,.02605,2.27895-.00195,.48355-.01954,.96777-.03256,1.45132-.00586,.20789-.01824,.41579-.02866,.62368,0,.03816-.00716,.07632-.01368,.12829Z"/>
  <g>
    <path class="cls-1" d="M18.73726,16.10415l-2.73726-2.01974,.00391-.00855,2.42856-.00197-1.50572-1.92434,.00391-.00855,3.2726,.90066-.20059,.5954-1.60601-.49145-.00391,.00855,1.14492,1.45526-.00391,.00855-1.84633,.00921-.00391,.00855,1.38459,.95395-.33084,.51447Z"/>
    <path class="cls-1" d="M20.47027,12.55612l-1.66137-3.3329,.00586-.00789,3.66791,.63684-.32303,.60132-.89484-.1875-.75091,1.00855,.43244,.80855-.47607,.47303Zm-.24813-1.81513l.4396-.59079-.93196-.23355,.49235,.82434Z"/>
    <path class="cls-1" d="M22.75881,9.54296l-1.02444-3.58619,.00716-.00658,3.49012,1.30987-.42723,.53092-.84534-.35066-.92219,.85197,.27744,.87566-.55553,.375Zm.08857-1.83027l.5399-.49869-.87334-.40329,.33345,.90197Z"/>
    <path class="cls-1" d="M25.86533,6.88309l-1.80139-2.74343,.48063-.41447,1.50963,2.29935,.98992-.66316,.20254,.5954-1.38133,.92632Z"/>
    <path class="cls-1" d="M26.11802,2.81071l1.94272-.99079,.27158,.54408-.72551,.36974,1.19702,2.39606-.54315,.31974-1.21395-2.43027-.79324,.40461-.13546-.61316Z"/>
    <path class="cls-1" d="M30.25941,4.52914l-1.15274-3.11908,.56074-.29342,1.16641,3.15527-.57441,.25724Z"/>
    <path class="cls-1" d="M32.06471,.38637l.61805,2.32698c.16672,.62566-.10095,1.10066-.7203,1.26908-.08727,.02368-.19538,.04276-.27809,.04605l-.29828-.60461c.13286,.01842,.21687,.02039,.37773-.02303,.21557-.05855,.38294-.26316,.27418-.67105l-.55943-2.10461,.58614-.23882Z"/>
    <path class="cls-1" d="M33.55675,.13045l.9808-.12039c.79715-.09803,1.57671,.53158,1.68482,1.42698,.13221,1.09605-.64931,1.7625-1.41324,1.85658l-.85836,.10592-.39401-3.26908Zm1.27387,2.54606c.57051-.07039,.80366-.64079,.74114-1.15987-.06708-.5579-.49822-.95921-1.01727-.8954l-.30219,.03684,.24813,2.05856,.33019-.04013Z"/>
  </g>
</svg>