<?xml version="1.0" encoding="UTF-8"?>
<svg id="Layer_1" data-name="Layer 1" xmlns="http://www.w3.org/2000/svg" viewBox="0 0 70 40">
  <defs>
    <style>
      .cls-1 {
        fill: #fff;
      }

      .cls-2 {
        fill: #f39200;
      }

      .cls-3 {
        fill: #e5e5e5;
      }

      .cls-4 {
        fill: #7ec225;
      }

      .cls-5 {
        fill: #515d5c;
      }
    </style>
  </defs>
  <rect class="cls-3" y="2.5" width="70" height="35"/>
  <rect class="cls-1" y="2.5" width="70" height="35"/>
  <path class="cls-2" d="M13.28811,5.8306H3.32027V15.82943H13.28811V5.8306Z"/>
  <path class="cls-1" d="M7.27364,10.81237c0,.51512-.11256,.91027-.68939,.91027-.64716,0-.71751-.46572-.71751-.83971v-2.9566l-.83006,.18347v2.8931c0,1.10078,.76675,1.52417,1.50538,1.52417,.96372,0,1.55462-.62096,1.55462-1.40421v-3.19652l-.83007,.18347v2.70257h.00704Z"/>
  <path class="cls-1" d="M10.19294,9.13298c-.33061,0-.64014,.0988-.89337,.28225v-.47277l-.79491,.19051v4.41727l.79491-.18346v-1.12902c.26027,.1764,.56276,.28225,.90041,.28225,.90041,0,1.62497-.76209,1.62497-1.69352-.01407-.93143-.73863-1.69352-1.63201-1.69352Zm-.05627,2.66024c-.53462,0-.92152-.44454-.92152-.96671s.3869-.96671,.92152-.96671,.92151,.44454,.92151,.96671-.38689,.96671-.92151,.96671Z"/>
  <path class="cls-5" d="M15.77828,15.82943l1.8571-10.23169h.02814l3.23596,6.70352,3.23582-6.70352h.02814l1.90624,10.23169-1.88524,.23285-.80192-5.08761h-.02814l-2.4409,5.08761h-.02114l-2.48318-5.08761h-.02814l-.75264,5.08761-1.8501-.23285Z"/>
  <path class="cls-5" d="M30.53666,8.19447c2.18064,0,4.09402,1.70764,4.09402,3.93743s-1.92038,3.93744-4.09402,3.93744-4.09402-1.70764-4.09402-3.93744,1.92038-3.93743,4.09402-3.93743Zm0,6.18135c1.25216,0,2.35648-.97377,2.35648-2.24392s-1.10432-2.24391-2.35648-2.24391-2.35662,.97377-2.35662,2.24391c.00714,1.26309,1.11146,2.24392,2.35662,2.24392Z"/>
  <path class="cls-5" d="M35.63658,8.42733l1.74454-.17641v1.02318h.02814c.62608-.84676,1.23816-1.07962,2.2652-1.07962,1.52642,0,2.53932,.97377,2.53932,2.54734v5.08761l-1.84296,.11995v-4.70658c0-.7903-.36582-1.43949-1.18888-1.43949-1.1606,0-1.70226,.8891-1.70226,1.82055v4.21263l-1.8431,.11995v-7.5291Z"/>
  <path class="cls-5" d="M45.78028,6.44449l-1.25202,1.24191-1.25216-1.24191,1.25216-1.23486,1.25202,1.23486Zm-2.20878,1.98283l1.8431-.17641v7.57851l-1.8431,.11995v-7.52205Z"/>
  <path class="cls-5" d="M46.95502,8.42731h5.34632l-3.38366,5.8003h3.38366l-.31668,1.6018h-5.83856l3.38366-5.80031h-2.94756l.37282-1.60178Z"/>
  <path class="cls-5" d="M53.31424,8.42731h5.34618l-3.38352,5.8003h3.38352l-.31654,1.6018h-5.83856l3.38352-5.80031h-2.94742l.37282-1.60178Z"/>
  <path class="cls-5" d="M66.22952,15.08849c-.90034,.62801-2.0048,.97377-3.09512,.97377-2.18078,0-4.09416-1.70764-4.09416-3.93743s1.92052-3.93743,4.09416-3.93743c1.52642,0,2.863,.91732,3.51722,2.28624l-5.05778,3.14713c.1477,.30342,.54866,.74092,1.435,.74092,.94262,0,1.63898-.36694,2.4129-.87499l.78778,1.60178Zm-1.90638-4.86886c-.35168-.35283-.80192-.47984-1.2943-.47984-1.16074,0-2.08922,.94555-2.19478,2.08162,0,.1623,0,.31753,.02814,.49395l3.46094-2.09573Z"/>
  <path class="cls-4" d="M59.07832,32.91206c-1.72956-.028-3.23568-.65534-4.4793-1.91338-.73178-.75166-1.2691-1.67454-1.5645-2.68702-.29526-1.01248-.3395-2.08306-.12852-3.11696,.21084-1.03376,.67018-1.99906,1.33756-2.80994,.66724-.81088,1.52166-1.44256,2.48752-1.83876,.96586-.39634,2.01334-.54502,3.04962-.43302,1.03614,.11214,2.02902,.48146,2.89058,1.07534,.86156,.59388,1.5652,1.39384,2.04848,2.32918s.73136,1.97708,.72212,3.03268c-.03738,1.7409-.6433,3.24688-1.8599,4.47832-1.2313,1.2467-2.7363,1.8599-4.50366,1.88356Zm-1.26196-4.08338h.0819c.09002,.0056,.18004,.01792,.26992,.01736,.20174-.00322,.40264-.0266,.59976-.07,.4893-.1015,.95564-.29456,1.37522-.56924,.58002-.37492,1.0129-.94304,1.22402-1.60636,.11074-.34692,.17374-.7077,.18718-1.07198,.01456-.27832,.00574-.5572-.02632-.83398-.02324-.19586-.05194-.39186-.08806-.5859-.063-.33978-.1533-.67382-.26992-.99876-.00798-.0217-.0189-.04158-.0287-.06202-.00854,.00224-.01666,.00532-.0245,.00924-.01162,.00938-.02324,.01932-.0343,.02982-.17528,.16436-.37716,.29722-.59668,.39242-.24122,.1092-.48958,.1953-.7399,.28462-.54124,.19152-1.06666,.42644-1.57108,.70252-.13398,.07378-.26796,.14756-.39718,.23002-.3507,.2289-.6307,.55342-.8078,.93618-.20132,.4249-.3101,.88886-.31892,1.36024-.00364,.11032,.0049,.22134,.00924,.33236,.0084,.17808,.0357,.35476,.08134,.52696,.04228,.18032,.11648,.35126,.2191,.5047,.01652,.02422,.03738,.04592,.05824,.0707,.03122-.0168,.06118-.02982,.08316-.04592,.18116-.11718,.3514-.25074,.50862-.39928,.32438-.2989,.64624-.60018,.96572-.90398,.24486-.23058,.48104-.4662,.72156-.7,.01162-.01106,.0245-.021,.03612-.0322-.02534,.09254-.06104,.18172-.10654,.266-.1302,.25018-.28364,.48734-.45836,.70798-.36848,.46298-.78386,.8855-1.23928,1.26056-.09422,.07924-.1897,.15624-.28462,.23436-.00588,.0168-.01078,.03402-.0147,.05138-.01344,.07448-.02632,.14938-.04032,.22442-.049,.2667-.09548,.53382-.16464,.79674-.00364,.01792-.0056,.03626-.00616,.0546,.22638,.01344,.45332,.01148,.67928-.0063,.00742-.02576,.01288-.05208,.01652-.07868,.0098-.16674,.01596-.33418,.02814-.50092,.0098-.13398,.02576-.26782,.04172-.4018,.00756-.042,.01778-.08344,.03052-.12404"/>
</svg>