<svg xmlns="http://www.w3.org/2000/svg" xmlns:xlink="http://www.w3.org/1999/xlink" viewBox="0 0 70 40"><defs><style>.cls-1{fill:#fff;}.cls-2{fill:#c6c6c6;}.cls-3{fill:url(#linear-gradient);}.cls-4{fill:url(#linear-gradient-2);}.cls-5{fill:url(#linear-gradient-3);}.cls-6{fill:url(#linear-gradient-4);}.cls-7{fill:url(#linear-gradient-5);}.cls-8{fill:url(#linear-gradient-6);}.cls-9{fill:url(#linear-gradient-7);}.cls-10{fill:url(#linear-gradient-8);}.cls-11{fill:url(#linear-gradient-9);}.cls-12{fill:url(#linear-gradient-10);}.cls-13{fill:url(#linear-gradient-11);}.cls-14{fill:url(#linear-gradient-12);}.cls-15{fill:url(#linear-gradient-13);}.cls-16{fill:url(#linear-gradient-14);}.cls-17{fill:url(#linear-gradient-15);}.cls-18{fill:url(#linear-gradient-16);}.cls-19{fill:url(#linear-gradient-17);}</style><linearGradient id="linear-gradient" x1="41.90654" y1="18.67741" x2="41.90654" y2="32.85563" gradientUnits="userSpaceOnUse"><stop offset="0" stop-color="#8cbd39"/><stop offset="1" stop-color="#256032"/></linearGradient><linearGradient id="linear-gradient-2" x1="50.33896" y1="21.87423" x2="50.33896" y2="32.81118" xlink:href="#linear-gradient"/><linearGradient id="linear-gradient-3" x1="58.82679" y1="21.8974" x2="58.82679" y2="32.63332" xlink:href="#linear-gradient"/><linearGradient id="linear-gradient-4" x1="33.4355" y1="21.89703" x2="33.4355" y2="32.63321" xlink:href="#linear-gradient"/><linearGradient id="linear-gradient-5" x1="21.40011" y1="21.90675" x2="21.40011" y2="32.65763" xlink:href="#linear-gradient"/><linearGradient id="linear-gradient-6" x1="14.53783" y1="21.89857" x2="14.53783" y2="32.62412" xlink:href="#linear-gradient"/><linearGradient id="linear-gradient-7" x1="27.4128" y1="21.89969" x2="27.4128" y2="32.63287" xlink:href="#linear-gradient"/><linearGradient id="linear-gradient-8" x1="50.32909" y1="20.67484" x2="50.32909" y2="9.75105" gradientUnits="userSpaceOnUse"><stop offset="0" stop-color="#fec324"/><stop offset="1" stop-color="#f19024"/></linearGradient><linearGradient id="linear-gradient-9" x1="62.08084" y1="20.67204" x2="62.08084" y2="9.74606" xlink:href="#linear-gradient-8"/><linearGradient id="linear-gradient-10" x1="16.22117" y1="20.68851" x2="16.22117" y2="9.74073" xlink:href="#linear-gradient-8"/><linearGradient id="linear-gradient-11" x1="33.43575" y1="20.67946" x2="33.43575" y2="9.74842" xlink:href="#linear-gradient-8"/><linearGradient id="linear-gradient-12" x1="7.70525" y1="20.49315" x2="7.70525" y2="9.7574" xlink:href="#linear-gradient-8"/><linearGradient id="linear-gradient-13" x1="41.90518" y1="20.49297" x2="41.90518" y2="9.76362" xlink:href="#linear-gradient-8"/><linearGradient id="linear-gradient-14" x1="56.21354" y1="20.49209" x2="56.21354" y2="6.95173" xlink:href="#linear-gradient-8"/><linearGradient id="linear-gradient-15" x1="23.10009" y1="20.48966" x2="23.10009" y2="9.76409" xlink:href="#linear-gradient-8"/><linearGradient id="linear-gradient-16" x1="27.41348" y1="20.49255" x2="27.41348" y2="9.76348" xlink:href="#linear-gradient-8"/><linearGradient id="linear-gradient-17" x1="27.40889" y1="8.55666" x2="27.40889" y2="6.94453" xlink:href="#linear-gradient-8"/></defs><g id="Layer_2" data-name="Layer 2"><g id="Layer_1-2" data-name="Layer 1"><rect class="cls-1" width="70" height="40" rx="3.70584"/><path class="cls-2" d="M45.81521,25.62161a2.93217,2.93217,0,0,0-.51834-1.7344,2.85527,2.85527,0,0,0-1.555-1.04661c-.76748-.21933-1.52505-.50837-2.26266-.79742-.08974-.02993-.17948-.06978-.27913-.09971a.79388.79388,0,0,1-.52827-.82735c.00992-.46846.00992-.95688.00992-1.41542,0-.15946,0-.319-.00992-.46846a.68148.68148,0,0,0-.11967-.48842.62974.62974,0,0,0-.47843-.12958H38.98725a.58069.58069,0,0,0-.4785.14948.65774.65774,0,0,0-.11961.48841V30.55571A2.53706,2.53706,0,0,0,40.02389,32.948a6.15956,6.15956,0,0,0,2.05338.3688,6.04636,6.04636,0,0,0,2.03342-.3688,2.436,2.436,0,0,0,1.70452-2.43216V30.4361C45.82519,28.86116,45.83517,27.22642,45.81521,25.62161ZM43.5326,30.147a.962.962,0,0,1-.85729,1.00676,3.76784,3.76784,0,0,1-.57809.04989,2.80639,2.80639,0,0,1-.64793-.06978.83848.83848,0,0,1-.76755-.85728c-.04983-.59805-.03985-1.1961-.03985-1.77425.01-.35883.01-.69776,0-1.02672V26.439c0-.82735,0-1.61479.02993-2.39231.54822.21932,1.15625.44857,1.90384.69776a1.16446,1.16446,0,0,1,.947,1.246C43.5326,27.26633,43.54251,28.63192,43.5326,30.147Z"/><path class="cls-2" d="M54.258,27.32613h-.00992V24.6348A2.46534,2.46534,0,0,0,52.35413,22.083a5.77712,5.77712,0,0,0-1.76433-.26915,7.04873,7.04873,0,0,0-1.66462.20935,2.84019,2.84019,0,0,0-1.59483.9868,2.62814,2.62814,0,0,0-.50837,1.65464c-.01,2.06336-.01,4.10681,0,5.84121a2.41175,2.41175,0,0,0,.27907,1.216,2.88249,2.88249,0,0,0,2.05337,1.4055,7.65556,7.65556,0,0,0,1.41549.13951,6.23285,6.23285,0,0,0,1.36559-.14949,3.116,3.116,0,0,0,1.69455-.89713,2.61841,2.61841,0,0,0,.62792-1.92379c-.0199-.618-.0199-1.256-.00992-1.864,0-.27913.00992-.5582.00992-.84724Zm-2.30258,2.75114c0,.618-.17941.85722-.74759,1.0067a3.43174,3.43174,0,0,1-.74759.09972,2.01218,2.01218,0,0,1-.87711-.18939.74314.74314,0,0,1-.4785-.75757V24.90395a.77218.77218,0,0,1,.54822-.8473,2.73387,2.73387,0,0,1,.89713-.16944,2.10645,2.10645,0,0,1,1.05659.289.6839.6839,0,0,1,.34885.64793Z"/><path class="cls-2" d="M62.77056,32.51935a.59539.59539,0,0,1-.14954.42867.50431.50431,0,0,1-.39868.14948h-.03991c-.16944-.01-.34885-.01-.54822-.01h-.68779a.48842.48842,0,0,1-.35882-.11961.52452.52452,0,0,1-.12959-.38876V29.858c0-1.555,0-3.1598.02-4.73473a1.20486,1.20486,0,0,0-.27912-.87718,1.26575,1.26575,0,0,0-.927-.309c-.16944-.01-.35883-.01-.57815-.01-.20929,0-.40866,0-.618.01h-.4984v8.4627c0,.25917,0,.41869-.11961.54828-.12958.1395-.309.1395-.53824.1395H55.90269c-.22924,0-.36881,0-.4984-.11961a.63439.63439,0,0,1-.1196-.48841v-5.273h.01V22.45184c0-.21927,0-.36881.11961-.48842.11961-.12958.27907-.12958.4984-.12958h1.97361c.52833,0,.96692,0,1.37557.01a4.14168,4.14168,0,0,1,2.40229.638,2.29956,2.29956,0,0,1,1.05659,1.88388c.05981,1.18618.04983,2.39231.03985,3.54855,0,.64794-.01,1.31577,0,1.9637.01.43859,0,.88715,0,1.31577S62.76058,32.08076,62.77056,32.51935Z"/><path class="cls-2" d="M37.36249,29.70846v2.86077a.53918.53918,0,0,1-.13957.3887.49076.49076,0,0,1-.36881.12959H35.638a.60686.60686,0,0,1-.45848-.11961.59553.59553,0,0,1-.11961-.45848V25.00361A.92043.92043,0,0,0,34.103,23.947c-.23921-.02-.49839-.02-.81737-.02H32.16921V23.977c.01,1.09644.01,2.37229.02993,3.63823.01989,1.1563.00992,2.32253.00992,3.45888v1.41541a.62123.62123,0,0,1-.11961.47844.65769.65769,0,0,1-.48842.11961h-.67781c-.16943,0-.309,0-.43859.01h-.03984a.52827.52827,0,0,1-.38877-.13957.60408.60408,0,0,1-.14954-.43858c.01-1.28584.01-2.58164.01-3.84758V22.44186a.62123.62123,0,0,1,.11961-.47844.58657.58657,0,0,1,.4785-.12958h1.95366c.5582,0,1.00676,0,1.43537.01a4.50519,4.50519,0,0,1,2.03349.43859,2.3894,2.3894,0,0,1,1.41542,2.21284C37.36249,26.23961,37.36249,27.994,37.36249,29.70846Z"/><path class="cls-2" d="M25.32129,27.22642v5.35273a.5568.5568,0,0,1-.12959.40872.53428.53428,0,0,1-.39874.12958H22.62c-.36881,0-.84725,0-1.33566-.01a4.31514,4.31514,0,0,1-2.2129-.56818,2.45809,2.45809,0,0,1-1.19616-2.24277V22.721a1.81,1.81,0,0,0,0-.329.50047.50047,0,0,1,.12959-.38876.50758.50758,0,0,1,.37878-.13956h.02994c.22924,0,.42861.01.628.01s.38876-.01.57809-.01h.02993a.46913.46913,0,0,1,.37879.13956.52758.52758,0,0,1,.13956.40872v2.98038c0,.44856,0,.907.01,1.35561,0,1.03664.00991,2.1032-.02,3.14982a1.01257,1.01257,0,0,0,1.10642,1.10647c.16944.01.34885.01.57815.01h1.216V23.59817c.01-.38877.01-.7875,0-1.18618a.58094.58094,0,0,1,.13957-.40872.53942.53942,0,0,1,.38876-.13956h.299c.34885,0,.70774-.00992,1.02672-.0199h.0199a.35425.35425,0,0,1,.37878.34885v5.03376Z"/><path class="cls-2" d="M16.61936,31.17371c-.13956-.14954-.319-.15946-.628-.18939a.93456.93456,0,0,1-.95693-.83733c-.01-.97683-.01-1.97361-.01-2.93049V25.2528h1.01674a.48357.48357,0,0,0,.34885-.12958.45483.45483,0,0,0,.10969-.35883q-.015-.52336,0-.95694a.49823.49823,0,0,0-.12958-.40865.49111.49111,0,0,0-.38877-.13957h-.96691V23.2094c.01-.16943.01-.34891.01-.50837v-.34885a.51484.51484,0,0,0-.12959-.37878.49565.49565,0,0,0-.36881-.13956h-.01989c-.12959,0-.26915.01-.43859.01h-.32895c-.10964-.01-.21933-.01-.329-.01H13.3399a.62378.62378,0,0,0-.47844.12958.5864.5864,0,0,0-.12959.47844v7.89452a2.28931,2.28931,0,0,0,.77752,1.864,3.93582,3.93582,0,0,0,2.71123.88709h.10964A.42441.42441,0,0,0,16.749,32.629v-.8074C16.749,31.51264,16.749,31.32325,16.61936,31.17371ZM14.5161,22.103c0-.01,0-.01.01-.01a.37336.37336,0,0,1,.11961.01989A.52927.52927,0,0,0,14.5161,22.103Z"/><path class="cls-2" d="M27.01584,32.82835c-.10963,0-.17942-.0199-.20935-.06972A.25332.25332,0,0,0,27.01584,32.82835Z"/><path class="cls-2" d="M28.74026,22.47179V32.49945a.60828.60828,0,0,1-.11961.46846.59715.59715,0,0,1-.46846.11961H27.4843c-.15946,0-.299,0-.41864.01h-.04982a.52823.52823,0,0,1-.38876-.13957.61774.61774,0,0,1-.14955-.43858c.01-1.27586.01-2.58164.01-3.8376V22.50166c0-.24919,0-.40865.12959-.53824s.299-.12958.54822-.12958h.947c.22924.01.38876.01.50837.12958A.6729.6729,0,0,1,28.74026,22.47179Z"/><path class="cls-2" d="M53.63005,10.73961a2.85215,2.85215,0,0,0-1.51514-.8672A7.36159,7.36159,0,0,0,50.53,9.693a5.795,5.795,0,0,0-1.44529.16943,3.0559,3.0559,0,0,0-1.67465.927,2.60661,2.60661,0,0,0-.59805,1.91381.49427.49427,0,0,0,.52833.51834h.01989c.2293-.01.42861-.01.618-.01.19937,0,.36881,0,.54822.01h.02994a.52226.52226,0,0,0,.56817-.49839.92438.92438,0,0,1,.70774-.85722,2.70077,2.70077,0,0,1,.68773-.07976,2.59057,2.59057,0,0,1,.55826.05981c.55819.11961.82728.33893.89707.74758a1.02735,1.02735,0,0,1-.65786,1.31577l-.02.01c-.17941.06978-.36881.13956-.54822.19937-.70774.23921-1.43538.49839-2.14312.75756a2.53229,2.53229,0,0,0-1.71444,1.96364,7.17593,7.17593,0,0,0-.0598,1.77431,2.29429,2.29429,0,0,0,.43858,1.2559,3.12088,3.12088,0,0,0,2.06336,1.1563,5.93844,5.93844,0,0,0,1.13629.10963,5.726,5.726,0,0,0,.70774-.03985,4.30742,4.30742,0,0,0,2.03342-.65791,2.2615,2.2615,0,0,0,.48842-.40865,2.735,2.735,0,0,0,.54828-1.71451v-5.871A2.52547,2.52547,0,0,0,53.63005,10.73961Zm-1.6547,7.29648a.86426.86426,0,0,1-.51835.86719,2.34015,2.34015,0,0,1-.88709.15946,4.70889,4.70889,0,0,1-.51835-.03985c-.08974-.02-.17942-.03985-.27913-.06978h-.02987a.77466.77466,0,0,1-.52833-.49839,1.21373,1.21373,0,0,1,.5582-1.64466,4.33735,4.33735,0,0,1,.73767-.27913c.18939-.05981.3887-.11961.57809-.19937a3.0174,3.0174,0,0,1,.35889-.12959,5.51694,5.51694,0,0,0,.54822-.20928v.309C52.00528,16.89974,52.0152,17.46791,51.97535,18.03609Z"/><path class="cls-2" d="M65.95031,17.98626a.45476.45476,0,0,0-.49839-.34891H64.29561a.65517.65517,0,0,0-.46846.11961.73031.73031,0,0,0-.16943.43858.82569.82569,0,0,1-.44857.67781,1.89439,1.89439,0,0,1-.87718.18939,3.44337,3.44337,0,0,1-.42861-.02987,1.49492,1.49492,0,0,1-.76754-.27913,1.10109,1.10109,0,0,1-.28905-1.16622.86365.86365,0,0,1,.64788-.67781c.23921-.07976.46852-.15946.65791-.22924.58807-.21932,1.226-.44856,2.01347-.70774a2.51006,2.51006,0,0,0,1.67465-1.68457,5.35849,5.35849,0,0,0,.12953-1.94374l-.00992-.13957a2.3003,2.3003,0,0,0-1.52511-2.1032A5.35311,5.35311,0,0,0,62.332,9.683a7.36632,7.36632,0,0,0-1.74437.22924,3.20718,3.20718,0,0,0-1.1164.56817,2.2013,2.2013,0,0,0-.89713,1.80418c-.0199.7277-.01,1.47529-.01,2.20292v1.88394c0,.71766,0,1.46525.01,2.20286a2.24014,2.24014,0,0,0,.52832,1.4055,2.728,2.728,0,0,0,1.21605.84724,5.81715,5.81715,0,0,0,1.874.309,5.30929,5.30929,0,0,0,.68778-.03985,4.51292,4.51292,0,0,0,1.9836-.608A2.42148,2.42148,0,0,0,65.95031,17.98626Zm-5.13347-4.50549c0-.20935,0-.43859.02-.65785a.99641.99641,0,0,1,.97683-1.00677c.20935-.01.36881-.01995.50838-.01995a2.52205,2.52205,0,0,1,.81737.11961.75421.75421,0,0,1,.49839.54822,1.23605,1.23605,0,0,1-.80739,1.64472c-.36881.13956-.74759.27907-1.10642.40865-.2293.06979-.45855.14955-.67781.23928l-.03991.00992c-.05981.02-.12959.04989-.18939.06978Z"/><path class="cls-2" d="M20.128,15.46436v-3.1a2.43609,2.43609,0,0,0-.52827-1.545,2.77136,2.77136,0,0,0-1.27591-.84731,5.49269,5.49269,0,0,0-1.81416-.289,7.04873,7.04873,0,0,0-1.66462.20935,2.57434,2.57434,0,0,0-2.02344,1.7942,2.26331,2.26331,0,0,0-.07976.66783c-.01.10963-.01.21932-.02.319a.48883.48883,0,0,0,.09972.39874.466.466,0,0,0,.37878.14948l.13951-.01h.51834c.20935,0,.38877,0,.5582.01h.03985a.53325.53325,0,0,0,.57816-.55819.82467.82467,0,0,1,.41863-.67781,1.60655,1.60655,0,0,1,.85728-.19937,5.82594,5.82594,0,0,1,.59805.03991.95527.95527,0,0,1,.95694.81731,1.04468,1.04468,0,0,1-.52833,1.22609c-.76755.319-1.57494.58807-2.36238.84724-.12959.03991-.25917.07976-.37878.11961a2.83742,2.83742,0,0,0-1.30579.88716,2.44286,2.44286,0,0,0-.54822,1.46524c-.02.46852-.02.937-.01,1.45533a2.131,2.131,0,0,0,.48842,1.30579,2.91413,2.91413,0,0,0,1.565.97683,6.60894,6.60894,0,0,0,1.67459.21932,5.68364,5.68364,0,0,0,1.874-.309,2.77115,2.77115,0,0,0,1.256-.83733,2.2627,2.2627,0,0,0,.53824-1.555c-.01989-.68778-.01-1.38548-.01-2.06335v-.64788ZM16.41,19.06274a2.535,2.535,0,0,1-.77753-.11961.74575.74575,0,0,1-.53824-.51828c-.18939-.74759-.0598-1.07655.18939-1.33572a1.398,1.398,0,0,1,.52833-.34885c.50831-.17942,1.03663-.36881,1.545-.54828l.2691-.09966h.01a2.32442,2.32442,0,0,0,.23922-.08968v1.82408c-.00991.77752-.25911,1.07654-1.0067,1.19615A2.373,2.373,0,0,1,16.41,19.06274Z"/><path class="cls-2" d="M37.10331,11.29781a2.70525,2.70525,0,0,0-1.92379-1.4254A6.35387,6.35387,0,0,0,33.67436,9.683a6.7696,6.7696,0,0,0-1.52511.17941A2.57575,2.57575,0,0,0,29.91646,12.484c.01,1.14633.01,2.31255.01,3.43893v2.43215a2.606,2.606,0,0,0,.10963.88716,2.52647,2.52647,0,0,0,1.246,1.40544,4.63185,4.63185,0,0,0,1.92379.47844c.17948.01.35889.01.52833.01a4.802,4.802,0,0,0,2.29259-.51834,2.27777,2.27777,0,0,0,1.13636-1.21605,3.41128,3.41128,0,0,0,.18939-1.09644V12.474A2.73847,2.73847,0,0,0,37.10331,11.29781Zm-3.52866,7.755a2.20091,2.20091,0,0,1-.93692-.19937.78893.78893,0,0,1-.46852-.76755c-.01-1.96364-.01-3.708.01-5.3228a.88047.88047,0,0,1,.81738-.91708,3.91509,3.91509,0,0,1,.64787-.05981,2.32486,2.32486,0,0,1,.8074.13957.82231.82231,0,0,1,.60808.84724v3.409c0,.57809-.01,1.16622.00992,1.75429a.875.875,0,0,1-.62792.96691A2.73792,2.73792,0,0,1,33.57465,19.05283Z"/><path class="cls-2" d="M11.6055,12.27464V20.4882a.45223.45223,0,0,1-.11961.34885.4435.4435,0,0,1-.329.11961c-.24919-.01-.47844-.01-.68778-.01-.21927,0-.42861,0-.6379.01h-.01a.48367.48367,0,0,1-.34891-.12959.50964.50964,0,0,1-.12959-.3688c.01-.87718.01-1.78423,0-2.65143,0-1.59489,0-3.23955.02-4.8544a1.04327,1.04327,0,0,0-1.15625-1.14626c-.21932,0-.44856-.01-.73761-.01-.19937,0-.40872.01-.60809.01H6.46211V11.876c-.01,1.95366-.01,3.90738-.01,5.8611V20.4882a.45069.45069,0,0,1-.12959.33887.47448.47448,0,0,1-.33893.12959c-.23922-.01-.47844-.01-.70768-.01s-.42861,0-.618.01a.44448.44448,0,0,1-.329-.11961.53512.53512,0,0,1-.11961-.39874V10.74959c0-.12959-.01-.25918-.01-.38876v-.16944A.44781.44781,0,0,1,4.67782,9.703h.01c.16943.00992.34891.00992.54822.00992.309,0,.638-.00992.947-.00992s.628-.01.947-.01c.73761,0,1.29581.01989,1.83411.06978a3.19733,3.19733,0,0,1,2.06329.99678A2.10773,2.10773,0,0,1,11.6055,12.27464Z"/><path class="cls-2" d="M45.82519,12.484v7.87463a.57443.57443,0,0,1-.12958.46846.65516.65516,0,0,1-.46853.12959h-.06972c-.11967,0-.2293-.01-.34891-.01h-.33887c-.17948,0-.329,0-.45855.01h-.02a.50388.50388,0,0,1-.33887-.11961.49786.49786,0,0,1-.11961-.36881c.00991-2.84087.00991-5.37268,0-7.73506,0-.54822-.37879-.89713-1.01675-.917-.20934-.01-.43858-.01995-.71771-.01995h-.45849c-.14954.01-.309.01-.45854.01h-.19937v5.06368c0,.309,0,.47844-.11961.618a.68264.68264,0,0,1-.58807.17941h-.64793c-.15946,0-.27907,0-.38877.01h-.06972a.44461.44461,0,0,1-.34891-.12959.52231.52231,0,0,1-.12959-.39874V10.28107a.6302.6302,0,0,1,.11961-.45849A.61857.61857,0,0,1,38.9673,9.703h1.93376c.58807,0,1.06657,0,1.50516.00992a4.18452,4.18452,0,0,1,2.30258.60809A2.3992,2.3992,0,0,1,45.82519,12.484Z"/><path class="cls-2" d="M57.54741,7.32064c-.01.10963-.01.22924-.01.37879V20.47822a.532.532,0,0,1-.07976.309.41835.41835,0,0,1-.35883.16944h-.01c-.20935-.01-.43859-.01-.70774-.01h-.65786a.46567.46567,0,0,1-.32895-.10963.4555.4555,0,0,1-.11961-.329c.01-1.77424.01-3.5884.01-5.33277V12.7232c0-1.76433,0-3.57842-.01-5.36271a.4135.4135,0,0,1,.41863-.44856h.86726a4.69809,4.69809,0,0,0,.5582-.0199h.04983a.36789.36789,0,0,1,.26909.10963A.395.395,0,0,1,57.54741,7.32064Z"/><path class="cls-2" d="M25.30133,20.18912a2.42633,2.42633,0,0,1,.01.26915.44251.44251,0,0,1-.44857.48841h-.10963a3.901,3.901,0,0,1-2.62155-.82735,2.19989,2.19989,0,0,1-.82735-1.83405V14.58719h-.00992v-1.256c0-1.00671,0-2.05338-.01-3.09a.55927.55927,0,0,1,.13956-.39874A.48223.48223,0,0,1,21.8026,9.703h.02c.20935,0,.41863.00992.618.00992.20935,0,.41863-.00992.618-.00992h.02a.50421.50421,0,0,1,.37878.13951.56857.56857,0,0,1,.13957.40871c-.01.16944-.01.33888-.01.50837v.36881h.99679a.44781.44781,0,0,1,.48841.47844c-.01.43859,0,.77752,0,1.09644a.35223.35223,0,0,1-.10963.29908.441.441,0,0,1-.33893.11961h-.309c-.11961,0-.23921.01-.35882.01-.13957,0-.25918-.01-.36881-.01v.01c-.02993,1.49518-.04983,3.0302-.02993,4.54534.01.84724.32895,1.15624,1.21611,1.1762a.55073.55073,0,0,1,.40865.15946.53966.53966,0,0,1,.12959.39873C25.30133,19.67083,25.30133,19.93992,25.30133,20.18912Z"/><path class="cls-2" d="M28.74026,10.26117V20.33866c0,.20934,0,.3688-.12959.48841-.11961.12959-.27907.12959-.48841.12959H26.93608a.46586.46586,0,0,1-.329-.11961.433.433,0,0,1-.11961-.33893V10.321c0-.20935,0-.36881.12959-.48842.11961-.12959.27913-.12959.48841-.12959h.33894c.10963,0,.20935.00992.319.00992.15946,0,.289-.00992.40865-.00992H28.212a.491.491,0,0,1,.3887.13951A.56082.56082,0,0,1,28.74026,10.26117Z"/><path class="cls-2" d="M28.65058,7.4801V7.35051a.431.431,0,0,0-.11967-.34885.41929.41929,0,0,0-.299-.11961.219.219,0,0,0-.0797.01c-.14954.01-.30906.0199-.52833.0199h-.309c-.10963,0-.20935,0-.319-.00992a.494.494,0,0,0-.32895.12959.44446.44446,0,0,0-.11961.32889V8.52677a.47683.47683,0,0,0,.11961.35883.45889.45889,0,0,0,.34891.12959H28.212a.4401.4401,0,0,0,.34885-.13957.45411.45411,0,0,0,.10964-.3688A7.00936,7.00936,0,0,1,28.65058,7.4801Zm-.41869-.33887a.08424.08424,0,0,1,.06978.01989.13724.13724,0,0,0-.10963-.00991A.05982.05982,0,0,1,28.23189,7.14123Z"/><path class="cls-3" d="M38.452,24.7272q0-2.8371.00019-5.67419c.00008-.35959.01892-.3768.36859-.37554.3509.00127.70181-.00031,1.0527.00138.32192.00155.34175.02157.34242.352.00128.62775.00759,1.2556-.00137,1.88321a1.03393,1.03393,0,0,0,.69454,1.07095c.84507.3225,1.68961.65543,2.5559.9113a2.44078,2.44078,0,0,1,1.8885,2.531c.02127,1.63024.01222,3.261.00371,4.89145a2.17224,2.17224,0,0,1-1.54047,2.18262,5.54974,5.54974,0,0,1-3.90517-.00138,2.26881,2.26881,0,0,1-1.464-2.14763q-.003-2.81262-.00059-5.62526Zm1.732,2.55625c.0237.84147-.04381,1.8287.03316,2.813a1.11149,1.11149,0,0,0,.97349,1.09267,3.27231,3.27231,0,0,0,1.335.0185,1.20439,1.20439,0,0,0,1.06614-1.2592q.01164-2.07849-.00312-4.15708A1.42461,1.42461,0,0,0,42.464,24.29992c-.67871-.231-1.35482-.47225-2.0196-.73991-.1959-.07887-.22391-.07473-.23166.13264C40.16976,24.84137,40.18858,25.99034,40.184,27.28345Z"/><path class="cls-1" d="M38.79263,18.67741l.02816.00006q.19374.0007.38753.00055l.20532,0q.23,0,.45985.00085c.32192.00155.34175.02157.34242.352.00128.62775.00759,1.2556-.00137,1.88321a1.03392,1.03392,0,0,0,.69454,1.07095c.84507.3225,1.68961.65543,2.5559.9113a2.44079,2.44079,0,0,1,1.8885,2.531c.02127,1.63024.01222,3.261.00372,4.89145a2.17226,2.17226,0,0,1-1.54048,2.18262,5.58682,5.58682,0,0,1-1.9421.35416,5.73006,5.73006,0,0,1-1.96307-.35554,2.26881,2.26881,0,0,1-1.464-2.14763q-.003-2.81263-.00059-5.62526H38.452q0-2.8371.00019-5.67419c.00008-.34967.01794-.37559.34043-.3756m3.10756,12.59a3.32709,3.32709,0,0,0,.62543-.05984,1.20439,1.20439,0,0,0,1.06614-1.2592q.01164-2.07849-.00312-4.15708A1.42461,1.42461,0,0,0,42.464,24.29992c-.67871-.231-1.35482-.47225-2.0196-.73991a.51056.51056,0,0,0-.157-.04737c-.057,0-.06978.05016-.07464.18-.043,1.14873-.02415,2.29769-.02872,3.5908.0237.84146-.04381,1.8287.03316,2.813a1.11149,1.11149,0,0,0,.97349,1.09267,3.26015,3.26015,0,0,0,.70953.07834M38.79263,18.41606h0a.60228.60228,0,0,0-.48613.144.69238.69238,0,0,0-.11566.49287q-.00045,2.105-.00022,4.20995l0,1.20294h-.005v.26136q0,.8223-.00024,1.64461c-.00028,1.30474-.00057,2.6539.00082,3.98093a2.53565,2.53565,0,0,0,1.63623,2.393,6.00808,6.00808,0,0,0,2.05221.37122,5.86507,5.86507,0,0,0,2.03247-.37029,2.43466,2.43466,0,0,0,1.71146-2.42649l.00044-.08541c.00824-1.57649.01675-3.20665-.00418-4.81081a2.98867,2.98867,0,0,0-.51239-1.73887A2.84694,2.84694,0,0,0,43.539,22.6457c-.76054-.22464-1.52068-.51579-2.25581-.79736q-.14049-.0538-.28094-.10747a.77917.77917,0,0,1-.52639-.823c.00677-.47436.00484-.95558.003-1.421q-.00095-.23326-.00157-.46651a.64166.64166,0,0,0-.12484-.48116.6239.6239,0,0,0-.47768-.13171q-.23059-.00111-.46111-.00085h-.20532q-.19327,0-.38659-.00054l-.0291-.00006Zm1.65275,8.86415c.00124-.35664.00072-.70378.00021-1.0395-.00125-.82768-.00243-1.6122.0231-2.38951.54813.21764,1.15968.44035,1.91108.69613a1.17265,1.17265,0,0,1,.94752,1.24617c.0106,1.2758.01162,2.6344.00312,4.15345a.94969.94969,0,0,1-.85383,1.00395,3.08,3.08,0,0,1-.57639.05519,3.01157,3.01157,0,0,1-.65277-.0721.85327.85327,0,0,1-.76969-.85792c-.04662-.59618-.0392-1.19221-.032-1.76862.00448-.36069.00873-.70147-.00033-1.02724Z"/><path class="cls-4" d="M53.7934,27.38893c0,.90476-.0285,1.81063.00641,2.714a2.38153,2.38153,0,0,1-2.11775,2.56408,6.28774,6.28774,0,0,1-2.67071.00132,2.6264,2.6264,0,0,1-1.88259-1.27525,2.20853,2.20853,0,0,1-.24476-1.08591c-.00968-1.948-.014-3.89625.00268-5.8442a2.31915,2.31915,0,0,1,.45109-1.492,2.57938,2.57938,0,0,1,1.44957-.89558,5.985,5.985,0,0,1,3.28574.05775,2.2077,2.2077,0,0,1,1.717,2.29693c-.004.98626-.0008,1.97254-.0008,2.95882Zm-1.776-.05255h.00088c0-.90434-.004-1.80871.00189-2.713a.93114.93114,0,0,0-.48435-.87113,2.48077,2.48077,0,0,0-2.16863-.14418,1.04163,1.04163,0,0,0-.7283,1.09523c.0109.83088.00361,1.662.00407,2.493.00052.94507.0041,1.89016.00032,2.83522a1.00851,1.00851,0,0,0,.635,1.00633,2.66575,2.66575,0,0,0,1.79531.09584,1.09236,1.09236,0,0,0,.94357-1.25537Q52.01841,28.60736,52.01739,27.33638Z"/><path class="cls-1" d="M50.39183,21.87423a5.44645,5.44645,0,0,1,1.68125.25894,2.20772,2.20772,0,0,1,1.717,2.29694c-.004.98626-.0008,1.97254-.0008,2.95882h.0041c0,.90476-.0285,1.81062.00641,2.714a2.38153,2.38153,0,0,1-2.11775,2.56408,5.98946,5.98946,0,0,1-1.314.14413,6.67059,6.67059,0,0,1-1.35675-.14281,2.62634,2.62634,0,0,1-1.88258-1.27525,2.20843,2.20843,0,0,1-.24477-1.08591c-.00968-1.948-.014-3.89625.00268-5.8442a2.31915,2.31915,0,0,1,.45109-1.492,2.57938,2.57938,0,0,1,1.44957-.89558,6.81449,6.81449,0,0,1,1.60449-.2012m-.13163,9.36913a3.29641,3.29641,0,0,0,.81343-.10967,1.09236,1.09236,0,0,0,.94357-1.25537q.0012-1.271.00019-2.54194h.00088c0-.90434-.004-1.8087.00189-2.713a.93114.93114,0,0,0-.48435-.87113,2.31918,2.31918,0,0,0-1.1874-.32522,2.94117,2.94117,0,0,0-.98123.181,1.04163,1.04163,0,0,0-.7283,1.09523c.0109.83087.00361,1.662.00407,2.493.00052.94507.0041,1.89016.00032,2.83522a1.00851,1.00851,0,0,0,.635,1.00633,2.36334,2.36334,0,0,0,.98188.20551m.13163-9.63048a7.09855,7.09855,0,0,0-1.666.20855,2.83451,2.83451,0,0,0-1.59221.98644,2.60638,2.60638,0,0,0-.50824,1.65289c-.01771,2.06709-.0113,4.11606-.0027,5.84775a2.42981,2.42981,0,0,0,.27783,1.21185,2.85528,2.85528,0,0,0,2.05776,1.40392,6.95673,6.95673,0,0,0,1.40987.14826,6.27381,6.27381,0,0,0,1.37117-.15046,3.15151,3.15151,0,0,0,1.695-.90443,2.61109,2.61109,0,0,0,.62673-1.92477c-.02384-.617-.01767-1.24867-.0117-1.85957.0027-.27658.00549-.56257.00549-.84438v-.26136h-.00417q-.00016-.32457-.00054-.64914c-.00067-.67111-.00137-1.36507.00141-2.04726a2.47139,2.47139,0,0,0-1.89816-2.54674,5.72971,5.72971,0,0,0-1.76147-.27155ZM50.2602,30.982a2.08783,2.08783,0,0,1-.87465-.1825.74819.74819,0,0,1-.48092-.76693c.00267-.66785.00165-1.34651.00066-2.00284q-.00062-.41679-.001-.83357-.00021-.37206.001-.74413c.00128-.574.0026-1.16752-.00506-1.75217a.78266.78266,0,0,1,.55415-.84542,2.69259,2.69259,0,0,1,.894-.16606,2.04513,2.04513,0,0,1,1.05579.28966.67491.67491,0,0,1,.35461.64362c-.00421.64476-.00337,1.29983-.00256,1.93332q.00035.27231.00058.54459l-.0008.23681.00012.76724q.00019.88722-.00031,1.77445c-.00059.62238-.17507.85658-.74679,1.00236a3.00918,3.00918,0,0,1-.74885.10157Z"/><path class="cls-5" d="M55.35235,27.26567q0-2.50617.00027-5.01232c.00012-.34976.00441-.35343.35658-.35357,1.11768-.00044,2.2354-.00621,3.353.002a3.9544,3.9544,0,0,1,2.25872.601,2.03622,2.03622,0,0,1,.94129,1.68006c.08465,1.83264.01974,3.6664.03818,5.49956.00885.88013-.00407,1.76047.00515,2.64059.00243.23193-.07391.31863-.31085.30974-.40734-.01527-.81579-.00982-1.22352-.0012-.18336.00387-.25286-.04355-.25208-.24787.00949-2.48576-.01343-4.97184.01985-7.45721a1.3045,1.3045,0,0,0-1.46342-1.45332c-.53838-.00548-1.07688-.00094-1.61532.00014-.33952.00068-.344.00465-.34394.33987q.00078,4.19325.00238,8.38649c.00012.42923-.00017.42905-.43532.42869-.32633-.00026-.65266.0007-.979-.00015-.35673-.00093-.35778-.00184-.35777-.35014q.00007-2.43282.00091-4.86563,0-.07335,0-.1467Z"/><path class="cls-1" d="M57.68907,21.8974q.68659,0,1.37315.00438a3.9544,3.9544,0,0,1,2.25872.601,2.03622,2.03622,0,0,1,.94129,1.68006c.08465,1.83264.01973,3.6664.03818,5.49956.00885.88013-.00408,1.76047.00515,2.64059.00231.22127-.06707.31036-.27921.31036l-.03164-.00061c-.18612-.007-.37252-.00964-.55892-.00964-.22156,0-.44316.00375-.6646.00843l-.01957.00021c-.16876,0-.23327-.0512-.23251-.24808.00949-2.48576-.01343-4.97184.01985-7.45721a1.3045,1.3045,0,0,0-1.46343-1.45332q-.29139-.003-.58293-.00265c-.34415,0-.68823.0021-1.03238.00279-.33952.00069-.344.00465-.34394.33987q.00078,4.19325.00238,8.38649c.00012.41709-.00022.42872-.39953.42872l-.03579,0-.12735-.00005q-.26872,0-.53747.00024-.1571,0-.31417-.00035c-.35673-.00093-.35778-.00184-.35777-.35014q.00007-2.43282.00091-4.86563,0-.07335,0-.1467h.00486q0-2.50617.00027-5.01232c.00012-.34976.00441-.35343.35658-.35357.65994-.00026,1.31993-.00238,1.97987-.00238m0-.26136q-.5275,0-1.055.00121-.46248.00078-.92495.00117c-.21578.00008-.37169.00015-.49407.1213-.12363.12239-.12368.27807-.12376.49353q-.00066,1.84692-.00031,3.69383l0,1.05723h-.00485v.408L55.08583,28.717q-.00043,1.7805-.00061,3.561c0,.21547,0,.37114.1237.49216.121.11837.26968.11876.49475.11935q.15744.00041.31485.00036l.26892-.00013.26855-.00012.12713,0,.036,0c.23053,0,.41262,0,.543-.1436.118-.12991.11792-.28673.11785-.54654l-.00089-2.92228q-.00087-2.73208-.0015-5.46418c0-.02323,0-.05117.00033-.078l.08279-.00052q.20756-.00042.41508-.00129.30837-.00112.61677-.0015c.21621,0,.406.00086.58028.00263a1.27355,1.27355,0,0,1,.929.31174,1.19047,1.19047,0,0,1,.27574.87674c-.02113,1.57834-.0196,3.18244-.01813,4.73373.00085.89357.00173,1.81756-.00173,2.726a.52147.52147,0,0,0,.129.3835.4946.4946,0,0,0,.36481.12694l.02509-.00027c.1958-.00414.42722-.00837.65908-.00837.2,0,.3796.00309.54912.00945l.04144.0008a.53114.53114,0,0,0,.39853-.14191.58555.58555,0,0,0,.142-.43255c-.00463-.44208-.00364-.89247-.00268-1.328.001-.42993.00194-.87448-.00247-1.31247-.00658-.6539-.00244-1.3199.00156-1.964.00721-1.16092.01467-2.36137-.04-3.545a2.29578,2.29578,0,0,0-1.05615-1.88463,4.17323,4.17323,0,0,0-2.403-.64569c-.40741-.003-.84435-.00439-1.37507-.00439Z"/><path class="cls-6" d="M29.97986,27.25975q0-2.50663.00024-5.01328c.0001-.33851.00713-.34589.34-.34607,1.126-.00061,2.25221-.00925,3.37812.00379a4.26678,4.26678,0,0,1,1.91993.41025,2.11982,2.11982,0,0,1,1.26876,1.98744c.01634,2.69.00772,5.38007.01284,8.07012.00037.18817-.06709.2628-.25814.25863-.39963-.00874-.79961-.00139-1.19943-.00247-.30529-.00082-.31841-.01254-.31848-.31552q-.00062-2.77565.00084-5.55129.00019-.97821.00023-1.95641a1.18243,1.18243,0,0,0-1.21034-1.32124c-.651-.03442-1.3051-.00981-1.95782-.01281-.21274-.001-.25.12636-.24906.3059.00657,1.21416.01459,2.42817.0323,3.64233.02366,1.62185.00693,3.24429.00665,4.86647-.00006.33491-.00856.34228-.34209.34286-.37535.00064-.75118-.01159-1.12588.004-.23805.00991-.30827-.07915-.30726-.31054.00735-1.68737.004-3.37478.004-5.06218Z"/><path class="cls-1" d="M32.26674,21.897q.71577,0,1.43146.00717a4.26665,4.26665,0,0,1,1.91994.41024,2.11982,2.11982,0,0,1,1.26876,1.98744c.01634,2.69.00772,5.38007.01284,8.07011.00036.18322-.06361.2588-.24332.2588l-.01482-.00017c-.15333-.00335-.30677-.00433-.46017-.00433-.21792,0-.43582.002-.65375.002l-.08551-.00012c-.30529-.00082-.31841-.01254-.31848-.31552q-.00062-2.77565.00084-5.55129.00019-.97821.00023-1.9564a1.18243,1.18243,0,0,0-1.21035-1.32125c-.27511-.01454-.55087-.01855-.82676-.01855-.33788,0-.676.006-1.01392.006l-.11713-.00026h-.00243c-.21061,0-.24759.127-.24663.3059.00657,1.21416.01459,2.42817.0323,3.64233.02366,1.62185.00693,3.24429.00665,4.86647-.00006.33491-.00856.34228-.34209.34286l-.02943,0c-.21779,0-.43573-.004-.6535-.004-.14776,0-.29544.00184-.44295.008l-.03416.00074c-.21069,0-.27407-.09134-.27311-.31128.00736-1.68737.004-3.37478.004-5.06218h.00464q0-2.50663.00024-5.01328c.0001-.33851.00713-.34589.34-.34607.64887-.00035,1.29778-.00337,1.94665-.00337m0-.26135q-.51684,0-1.0337.0017-.45654.00113-.91309.00167a.61231.61231,0,0,0-.48113.1244.63162.63162,0,0,0-.12008.48294q-.00058,1.85217-.00028,3.70435l0,1.04766h-.00463v.26135q0,.60765.00039,1.21529c.00061,1.26057.00124,2.56406-.00435,3.84575a.5931.5931,0,0,0,.14317.43445.52321.52321,0,0,0,.39129.13933l.045-.001c.1269-.00528.2642-.00775.43209-.00775.10809,0,.21622.001.32435.002.10973.001.21946.002.32915.002l.02987,0a.48607.48607,0,0,0,.603-.60416q.00012-.704.003-1.408c.00353-1.13452.00718-2.30767-.00967-3.46236-.01845-1.26482-.02633-2.54205-.03227-3.63993-.0001-.01748.00031-.03166.001-.04307l.10387.0002c.17012,0,.34255-.00153.5093-.003.1656-.00147.33684-.003.50462-.003.32,0,.57833.00578.813.01818a.92669.92669,0,0,1,.96279,1.05983q-.001.6347-.00036,1.2694.00014.34369.00013.68738l-.0004,1.59855q-.00054,1.97641-.00044,3.95285a.47055.47055,0,0,0,.57913.57682l.08622.00011q.164,0,.32807-.001.16284-.00075.32568-.001c.17665,0,.32106.00136.45446.00427l.02053.00023a.4951.4951,0,0,0,.36988-.133.53858.53858,0,0,0,.1348-.38771c-.00182-.95529-.00191-1.9267-.002-2.86613-.00016-1.70587-.00031-3.46982-.01086-5.20506a2.39285,2.39285,0,0,0-1.4121-2.21907,4.48474,4.48474,0,0,0-2.03492-.43837c-.4227-.0049-.87853-.00718-1.43449-.00718Z"/><path class="cls-7" d="M24.85892,27.29077c0,1.6952-.00371,3.39041.00466,5.08556.00106.21361-.05744.28292-.27384.28127-1.16655-.00891-2.33335.00663-3.49976-.00907a4.02135,4.02135,0,0,1-2.08272-.53554,2.18121,2.18121,0,0,1-1.06842-2.01325c-.00476-2.46945-.00048-4.93891.00034-7.40837.00006-.17114.00724-.34257-.00051-.51335-.00877-.193.07907-.25659.26513-.25267.40772.00857.816.01124,1.22355-.00111.21788-.0066.28323.08229.28193.28848-.00629.99427-.00328,1.98859-.00286,2.98289.00064,1.49961.03451,3.00016-.00892,4.49848a1.26534,1.26534,0,0,0,1.3598,1.37438c.58662.02137,1.17483-.00372,1.76188.0105.2384.00577.30412-.07881.3036-.31035-.00521-2.31459-.00036-4.6292.00145-6.94381.00042-.5379.00655-1.07592-.0032-1.61365-.00381-.21009.06881-.29.28311-.28681.43994.00653.88033-.00389,1.32023-.01741.0899-.00277.12035.02522.12413.10269.00358.07321.0036.14664.0036.22q.00027,2.53059.00014,5.06117Z"/><path class="cls-1" d="M24.736,21.90675c.081,0,.10892.02884.11253.10288.00358.07321.0036.14664.0036.22q.00027,2.53059.00014,5.06117h.00668c0,1.69519-.00371,3.39041.00466,5.08556.001.21113-.05609.2813-.26638.2813l-.00746,0q-.45124-.00345-.90257-.003c-.42246,0-.84495.00133-1.2674.00133-.44332,0-.88655-.00146-1.32979-.00743a4.02137,4.02137,0,0,1-2.08272-.53554,2.18121,2.18121,0,0,1-1.06842-2.01325c-.00476-2.46945-.00048-4.93891.00034-7.40837.00006-.17114.00724-.34258-.00051-.51335-.00852-.18745.07414-.25284.24939-.25284l.01574.00017c.21143.00444.423.0073.6346.0073.19641,0,.39275-.00246.589-.00841l.022-.00034c.20037,0,.26123.08971.26.28882-.0063.99426-.00328,1.98859-.00286,2.98289.00064,1.49961.03451,3.00016-.00892,4.49848a1.26534,1.26534,0,0,0,1.3598,1.37438c.19427.00708.38879.00906.58332.00906.24722,0,.49456-.0032.74182-.0032.14565,0,.29119.00111.43674.00464l.02211.00027c.2204,0,.282-.08639.28149-.31062-.00521-2.31459-.00036-4.6292.00145-6.94381.00042-.53791.00656-1.07592-.0032-1.61365-.00373-.20609.06608-.2869.271-.2869l.01209.00009q.139.00207.27813.002c.34737,0,.69488-.00874,1.0421-.01941l.0116-.00019m0-.26136-.01964.00031c-.32592.01-.67677.0193-1.03406.0193q-.13715,0-.27426-.002l-.016-.00011a.54628.54628,0,0,0-.397.141.56624.56624,0,0,0-.13529.412c.00712.39258.00568.79333.00428,1.18089q-.00077.21392-.00113.42781-.00063.80622-.00159,1.61242c-.00189,1.74758-.00385,3.55466.00014,5.33219.00005.02-.00057.03589-.00146.04834l-.01866.00034-.01582-.0002c-.13265-.00322-.27344-.00471-.443-.00471-.1242,0-.24841.00079-.37263.0016-.12308.00079-.24615.00159-.36919.00159-.22508,0-.40742-.00282-.57381-.00888a1.01507,1.01507,0,0,1-1.10806-1.10563c.03051-1.0525.02293-2.12134.01561-3.155-.00314-.443-.00639-.90114-.00658-1.35118q-.00014-.32529-.00052-.65056c-.00076-.764-.00155-1.55405.00337-2.33056a.56182.56182,0,0,0-.139-.41438.51054.51054,0,0,0-.38233-.13745l-.02987.00046c-.18406.00557-.37412.00828-.581.00828-.19137,0-.39715-.00237-.62911-.00724l-.02123-.00023a.52334.52334,0,0,0-.38724.1416.50084.50084,0,0,0-.12324.38446c.0049.10789.0034.21676.00181.332-.00078.05647-.00155.113-.00157.16939q-.00033,1.02678-.00121,2.05355c-.00126,1.7552-.00257,3.57016.00087,5.35541a2.44583,2.44583,0,0,0,1.19442,2.23633,4.275,4.275,0,0,0,2.21457.57329c.49011.0066.97.00745,1.3333.00745q.317,0,.6341-.00066.31665-.00049.6333-.00066c.35,0,.63618.00094.90057.003l.00946,0a.53583.53583,0,0,0,.39386-.13447.55071.55071,0,0,0,.13388-.40948c-.00641-1.29622-.00573-2.61454-.00508-3.88946q.00031-.59741.00042-1.19481v-.26136H25.1136v-.53568q0-2.13207-.00014-4.26415c0-.07518,0-.15292-.00391-.23271a.34757.34757,0,0,0-.37358-.35148Z"/><path class="cls-8" d="M12.79525,26.20229q0-1.98036.00027-3.96073c.00016-.3348.00681-.3407.34395-.3413.39157-.00071.78322.00476,1.17468-.0016.17644-.00287.25284.06486.24858.2441-.00677.28507.01183.57119-.00486.85543-.01413.2409.06092.34257.31552.3262.29248-.0188.58736.00321.88066-.00733.20706-.00744.29654.06317.28772.28122-.01317.32543-.01039.65211.00153.97767.00593.162-.05332.22071-.20934.21878-.34257-.00423-.68533.00424-1.02781-.00268-.17756-.00359-.24689.06586-.24634.24469.005,1.63806-.0007,3.27617.00946,4.91418a1.191,1.191,0,0,0,1.20347,1.0923c.5126.04683.5128.04683.51256.57418q-.00016.40339-.00177.8068c-.00034.10858-.029.1973-.16009.19919a3.81872,3.81872,0,0,1-2.648-.82076,2.06455,2.06455,0,0,1-.68124-1.66407c-.00707-1.312-.00212-2.62417-.00212-3.93627Z"/><path class="cls-1" d="M14.32472,21.89857c.16894,0,.24218.06856.238.24419-.00677.28507.01183.57119-.00486.85543-.01316.22429.051.3279.26541.3279.01588,0,.03255-.00057.05011-.0017.09524-.00612.19076-.00791.28637-.00791.13545,0,.27111.0036.40664.0036.0626,0,.12516-.00077.18765-.003l.02825-.00053c.187,0,.26788.07388.25947.28175-.01317.32543-.01039.65211.00153.97767.00584.15946-.05147.21883-.202.21883l-.00734,0q-.11316-.0014-.22634-.00125c-.15892,0-.31786.0014-.47677.0014-.10826,0-.21648-.00065-.3247-.00283l-.0128-.00013c-.16812,0-.23408.07035-.23354.24482.005,1.63806-.0007,3.27616.00946,4.91418a1.191,1.191,0,0,0,1.20346,1.0923c.51261.04683.51281.04683.51257.57418q-.00016.40341-.00177.8068c-.00034.10858-.029.1973-.16009.19919-.03333.00048-.06668.00073-.09987.00073a3.76227,3.76227,0,0,1-2.54818-.82149,2.06455,2.06455,0,0,1-.68124-1.66406c-.00707-1.31206-.00212-2.62418-.00212-3.93628h.00322q0-1.98036.00027-3.96073c.00016-.3348.00681-.3407.34395-.3413l.07358-.00007c.21943,0,.43889.00158.65831.00158.14762,0,.2952-.00071.44279-.00311l.01057-.00009m0-.26136-.01477.00013c-.12939.0021-.26874.00308-.4386.00308q-.16409,0-.3282-.00079-.165-.0006-.3301-.0008l-.07406.00007a.62824.62824,0,0,0-.48177.121.61741.61741,0,0,0-.12306.48155q-.00072,1.44444-.00033,2.88889l0,.81174-.00321.26023q0,.574-.00084,1.148c-.001.9142-.002,1.85953.003,2.78968a2.30523,2.30523,0,0,0,.77347,1.86192,3.96779,3.96779,0,0,0,2.71731.88359q.05167,0,.10365-.00076a.412.412,0,0,0,.41767-.4597q.00127-.40374.00177-.8075c.00014-.30882.00022-.49523-.13037-.64147-.13269-.14861-.316-.16535-.61973-.1931-.566-.05171-.96321-.39452-.96593-.83365-.00607-.97725-.00649-1.97127-.00689-2.93256-.00027-.64334-.00055-1.30835-.00252-1.963.09182.0017.19089.00249.30963.00249q.11976,0,.23953-.0007.11862-.00053.23724-.0007.11155,0,.22311.00123l.01057.00007a.4684.4684,0,0,0,.34639-.1281.48485.48485,0,0,0,.11679-.36165c-.01288-.352-.0134-.66523-.00157-.95753a.531.531,0,0,0-.12929-.41063.51274.51274,0,0,0-.39132-.143l-.03762.00069c-.05328.00192-.1116.00285-.17828.00285s-.13327-.00089-.19991-.00178c-.06894-.00092-.13786-.00182-.20673-.00182-.11707,0-.2134.00269-.30313.00845l-.03335.00116-.00548,0c-.0004-.013-.00027-.02982.001-.05119.01026-.17474.00792-.34831.00567-.51616-.00162-.12033-.00315-.234-.00044-.34838a.4588.4588,0,0,0-.49929-.51175Z"/><path class="cls-9" d="M26.55272,27.26266q0-2.48161.00006-4.96322c0-.39855.00034-.39888.40964-.39943q.47724-.00065.95448.00037c.35918.001.35972.00157.36.37339q.00179,2.7261.00305,5.45221.00127,2.286.00235,4.572c0,.32406-.00546.32885-.32729.32992-.3671.00121-.73464-.01038-1.10116.00424-.234.00933-.31153-.07391-.31048-.30851.00757-1.687.004-3.374.004-5.061Z"/><path class="cls-1" d="M27.39218,21.89969q.26238,0,.52472.00069c.35918.001.35973.00157.36.37339q.00179,2.7261.00305,5.45221.00127,2.286.00235,4.572c0,.32406-.00546.32885-.32729.32992l-.0565.00009c-.20329,0-.40668-.00331-.60995-.00331-.145,0-.28993.00168-.43471.00746l-.03369.00069c-.2078,0-.27779-.08624-.27679-.30919.00757-1.687.004-3.374.004-5.061h.00533q0-2.48161.00006-4.96323c0-.39854.00034-.39887.40964-.39942q.21486-.00029.42976-.00032m0-.26135q-.215,0-.43011.00031c-.24876.00034-.4131.00056-.54041.12471-.13021.127-.13022.28971-.13024.53605l-.00006,3.62282V27.0013H26.286v.26136q0,.60969.00041,1.21939c.00063,1.25884.00129,2.56054-.00446,3.84045a.5879.5879,0,0,0,.14354.4316.52772.52772,0,0,0,.39461.14013l.04411-.0009c.1241-.005.25892-.00726.42429-.00725.10092,0,.20187.00082.30283.00164.10238.00083.20477.00167.30712.00167l.05735-.0001a.47506.47506,0,0,0,.5878-.59131q-.00023-1.62812-.00154-3.25625l-.00081-1.3159-.001-1.80273q-.001-1.82475-.00208-3.6495c-.00016-.23138-.00025-.38423-.11859-.507-.122-.12654-.28138-.127-.502-.12761q-.26275-.00073-.52546-.00068Z"/><path class="cls-10" d="M53.78536,15.15411c0,.986.00424,1.972-.00163,2.958a2.39993,2.39993,0,0,1-.48922,1.553,1.7855,1.7855,0,0,1-.42905.35589,4.063,4.063,0,0,1-1.90815.61943,6.15184,6.15184,0,0,1-1.77589-.06643,2.95043,2.95043,0,0,1-1.89909-1.05558,2.01058,2.01058,0,0,1-.38747-1.11708,6.80641,6.80641,0,0,1,.058-1.70535,2.26237,2.26237,0,0,1,1.53938-1.772q1.06572-.39268,2.141-.75911c.19247-.06554.38212-.136.57254-.20655a1.291,1.291,0,0,0,.82652-1.6115,1.21361,1.21361,0,0,0-1.09842-.958,2.97172,2.97172,0,0,0-1.35883.02366,1.18523,1.18523,0,0,0-.90349,1.0673c-.03632.21979-.13405.28326-.33926.27835-.3913-.00936-.78307-.00712-1.17448-.00031-.19474.00339-.27153-.07091-.28144-.27166A2.37443,2.37443,0,0,1,48.94808,9.913a6.3289,6.3289,0,0,1,2.90929.01591A2.32524,2.32524,0,0,1,53.78869,12.245c-.00423.96968-.00084,1.93939-.00084,2.90909Zm-1.72992.18a4.86786,4.86786,0,0,1-1.2675.55288c-.43635.17866-.904.27407-1.32906.48652a1.48448,1.48448,0,0,0-.68628,1.97728,1.01986,1.01986,0,0,0,.708.65177,3.099,3.099,0,0,0,.3326.077,3.02242,3.02242,0,0,0,1.54086-.12871,1.152,1.152,0,0,0,.68724-1.10237C52.0913,17.03017,52.05544,16.20658,52.05544,15.33415Z"/><path class="cls-1" d="M50.32839,9.75105a6.91872,6.91872,0,0,1,1.529.17785A2.32524,2.32524,0,0,1,53.78869,12.245c-.00423.96968-.00084,1.93939-.00084,2.90909h-.00249c0,.986.00424,1.972-.00163,2.958a2.39993,2.39993,0,0,1-.48922,1.553,1.7855,1.7855,0,0,1-.42905.35589,4.063,4.063,0,0,1-1.90815.61943c-.23025.02231-.46.03443-.68876.03443a5.66776,5.66776,0,0,1-1.08713-.10086,2.95043,2.95043,0,0,1-1.89909-1.05558,2.01058,2.01058,0,0,1-.38747-1.11708,6.80641,6.80641,0,0,1,.058-1.70535,2.26237,2.26237,0,0,1,1.53938-1.772q1.06572-.39268,2.141-.75911c.19247-.06554.38212-.136.57254-.20656a1.291,1.291,0,0,0,.82652-1.61149,1.2136,1.2136,0,0,0-1.09842-.958,2.8097,2.8097,0,0,0-.61642-.0676,3.142,3.142,0,0,0-.74241.09126,1.18521,1.18521,0,0,0-.90349,1.0673c-.035.21206-.12729.27861-.318.27861l-.02121-.00026q-.27618-.0066-.5526-.00624c-.20732,0-.41464.00233-.62188.00593l-.01249.00011c-.18556,0-.25926-.07536-.269-.27177A2.37443,2.37443,0,0,1,48.94808,9.913a5.86345,5.86345,0,0,1,1.38031-.16194m.04032,9.37222a2.7597,2.7597,0,0,0,.98534-.17238,1.152,1.152,0,0,0,.68724-1.10237c.05-.81835.01415-1.64194.01415-2.51436a4.86815,4.86815,0,0,1-1.2675.55287c-.43635.17866-.904.27407-1.32906.48653a1.48446,1.48446,0,0,0-.68628,1.97727,1.01986,1.01986,0,0,0,.708.65177,3.099,3.099,0,0,0,.3326.077,3.71178,3.71178,0,0,0,.55552.04367m-.04025-9.63358h-.00008a6.15173,6.15173,0,0,0-1.44162.16924,3.14386,3.14386,0,0,0-1.67505.92839,2.59977,2.59977,0,0,0-.59632,1.9117.48888.48888,0,0,0,.53.52024l.017-.00015c.22785-.004.42978-.00589.61732-.00589.19413,0,.37284.002.54635.00616l.02746.00034a.531.531,0,0,0,.57591-.49737.9196.9196,0,0,1,.70738-.85594,2.88713,2.88713,0,0,1,.68066-.08386,2.55716,2.55716,0,0,1,.55917.06124c.5645.12674.82481.34394.89851.74969a1.03108,1.03108,0,0,1-.66017,1.31971l-.01845.00684c-.17924.06641-.36458.13508-.54752.19738-.7092.2415-1.4316.49763-2.14713.76128a2.51812,2.51812,0,0,0-1.7053,1.966,7.03134,7.03134,0,0,0-.06276,1.77038,2.27857,2.27857,0,0,0,.4398,1.26069,3.15994,3.15994,0,0,0,2.05773,1.15475,5.95808,5.95808,0,0,0,1.13716.10568c.22964,0,.46985-.012.714-.03564a4.27116,4.27116,0,0,0,2.02761-.6619,2.02605,2.02605,0,0,0,.48813-.40987,2.6553,2.6553,0,0,0,.54683-1.71515c.00413-.69567.00324-1.40253.00237-2.08612q-.00039-.31041-.00065-.62086l.0024-.25255q0-.44784-.00064-.89568c-.00071-.65965-.00145-1.34176.00148-2.01228a2.51367,2.51367,0,0,0-.61911-1.70481A2.82859,2.82859,0,0,0,51.91508,9.674a7.20844,7.20844,0,0,0-1.58662-.18431Zm.04025,9.37223a3.46687,3.46687,0,0,1-.51638-.04073,2.61653,2.61653,0,0,1-.2787-.06426l-.02564-.00685a.75862.75862,0,0,1-.53281-.49652,1.22,1.22,0,0,1,.56056-1.64623,5.12984,5.12984,0,0,1,.7358-.277c.18889-.06052.3842-.12309.57543-.20139.11482-.047.23431-.0867.36081-.12871a4.88331,4.88331,0,0,0,.549-.20813q.00163.15882.00369.31414c.00745.59742.01449,1.16171-.02,1.72638a.88823.88823,0,0,1-.51895.8739,2.51182,2.51182,0,0,1-.89276.15544Z"/><path class="cls-11" d="M58.62767,15.21555c0-1.043-.01528-2.08637.00561-3.129a1.96209,1.96209,0,0,1,.79713-1.60076,2.85633,2.85633,0,0,1,1.01881-.51476,5.69838,5.69838,0,0,1,3.689.16954,2.04471,2.04471,0,0,1,1.36655,1.88311,5.53925,5.53925,0,0,1-.11325,1.98594,2.23108,2.23108,0,0,1-1.50566,1.51219c-.67883.22658-1.35484.46046-2.025.71232-.21209.0797-.42656.15815-.6427.22858a1.12664,1.12664,0,0,0-.82808.8766,1.36739,1.36739,0,0,0,.37841,1.41258,1.673,1.673,0,0,0,.90167.33878,2.45271,2.45271,0,0,0,1.45822-.18641,1.08881,1.08881,0,0,0,.59223-.86885c.05033-.31692.05782-.33758.37969-.33835q.57506-.00138,1.15011.001c.10656.00061.20949.001.24217.14572a2.16762,2.16762,0,0,1-.96125,2.22083,4.368,4.368,0,0,1-1.8714.57425,5.71177,5.71177,0,0,1-2.456-.25756,2.26208,2.26208,0,0,1-1.57076-2.01227c-.01448-1.051-.00332-2.10232-.00332-3.1535Zm1.72514-1.50445c0,.43617-.00084.78622.00041,1.13626.00054.15164.02368.24746.20566.12069a1.6121,1.6121,0,0,1,.37631-.16909c.59656-.21595,1.19866-.41715,1.7914-.643a1.49585,1.49585,0,0,0,.96427-1.96509,1.027,1.027,0,0,0-.66795-.72333,3.44135,3.44135,0,0,0-1.42567-.10744,1.24542,1.24542,0,0,0-1.2217,1.24174C60.34323,13.00109,60.36855,13.39906,60.35281,13.7111Z"/><path class="cls-1" d="M62.13445,9.74606a5.13905,5.13905,0,0,1,2.00379.39453,2.04471,2.04471,0,0,1,1.36655,1.88311,5.539,5.539,0,0,1-.11325,1.98594,2.23108,2.23108,0,0,1-1.50566,1.51219c-.67883.22658-1.35484.46046-2.025.71232-.21209.07971-.42656.15815-.6427.22858a1.12664,1.12664,0,0,0-.82808.8766,1.36739,1.36739,0,0,0,.37841,1.41258,1.67305,1.67305,0,0,0,.90167.33878,3.49911,3.49911,0,0,0,.46439.0331,2.18282,2.18282,0,0,0,.99383-.21951,1.08881,1.08881,0,0,0,.59223-.86885c.05033-.31692.05782-.33758.37969-.33835q.25149-.00061.503-.00068.32358,0,.64711.00168c.10657.00061.2095.001.24218.14572a2.16762,2.16762,0,0,1-.96125,2.22083,4.36792,4.36792,0,0,1-1.8714.57425c-.22244.0217-.4437.03316-.6634.03316a5.42608,5.42608,0,0,1-1.79262-.29072,2.26208,2.26208,0,0,1-1.57076-2.01227c-.01447-1.051-.00332-2.10232-.00332-3.15349h-.00219c0-1.043-.01528-2.08637.00562-3.129a1.96205,1.96205,0,0,1,.79712-1.60076,2.85633,2.85633,0,0,1,1.01881-.51476,6.84433,6.84433,0,0,1,1.68523-.225m-1.7071,5.28078a.26021.26021,0,0,0,.13153-.05879,1.61228,1.61228,0,0,1,.37631-.16909c.59656-.21595,1.19866-.41715,1.7914-.643a1.49585,1.49585,0,0,0,.96427-1.96509,1.027,1.027,0,0,0-.66795-.72333,2.74673,2.74673,0,0,0-.89719-.13325c-.17564,0-.35187.011-.52848.02581a1.24541,1.24541,0,0,0-1.2217,1.24174c-.03231.39922-.007.79719-.02272,1.10923,0,.43617-.00085.78621.0004,1.13626.00036.10248.01106.17948.07413.17948M62.13452,9.4847h-.00008a7.13871,7.13871,0,0,0-1.74959.23305,3.08631,3.08631,0,0,0-1.11252.55993,2.215,2.215,0,0,0-.90035,1.80365c-.01475.73619-.0115,1.48346-.00836,2.20611q.002.46407.00269.92811v.26136h.002q-.00053.347-.00184.69408c-.00232.72129-.00472,1.46715.0054,2.20166a2.26649,2.26649,0,0,0,.53364,1.411,2.75326,2.75326,0,0,0,1.21282.84461,5.71962,5.71962,0,0,0,1.87825.30514c.22309,0,.45483-.01157.68877-.0344a4.57615,4.57615,0,0,0,1.98062-.61033,2.41541,2.41541,0,0,0,1.0816-2.50246.45235.45235,0,0,0-.4953-.34948q-.3248-.00184-.64893-.00169-.2518,0-.50362.00068a.64851.64851,0,0,0-.46875.12033.695.695,0,0,0-.16843.43839.83068.83068,0,0,1-.451.67609,1.91668,1.91668,0,0,1-.87691.1919,3.215,3.215,0,0,1-.42967-.03078,1.4308,1.4308,0,0,1-.76577-.27772,1.10573,1.10573,0,0,1-.29252-1.16451.8662.8662,0,0,1,.65253-.67819c.23343-.07606.46144-.16018.65369-.23243.58789-.22095,1.22842-.44626,2.01579-.709a2.48252,2.48252,0,0,0,1.6723-1.68193,5.36367,5.36367,0,0,0,.13222-1.94391l-.00738-.13424A2.31487,2.31487,0,0,0,64.239,9.89943a5.429,5.429,0,0,0-2.10444-.41473h0m-1.52038,4.23293c.00653-.13444.006-.27971.00544-.43337-.00079-.21554-.00161-.43842.01643-.66131a.99356.99356,0,0,1,.98306-1.00238c.20521-.01722.36146-.0249.50662-.0249a2.46516,2.46516,0,0,1,.813.11931.768.768,0,0,1,.50251.5532,1.2409,1.2409,0,0,1-.80765,1.64357c-.36773.1401-.747.27341-1.11369.40232-.22085.07763-.44922.15791-.67362.23914l-.0356.01281c-.0627.02251-.12951.04649-.19657.07574-.00027-.17794-.00016-.36017,0-.55767l.00015-.36646Z"/><path class="cls-12" d="M19.66156,15.26986c0,.9942-.0232,1.98908.00616,2.98241a2.21725,2.21725,0,0,1-1.61546,2.14057,5.78527,5.78527,0,0,1-3.39575.08,2.6753,2.6753,0,0,1-1.43349-.8845,1.86664,1.86664,0,0,1-.42435-1.14823c-.01389-.48037-.01546-.96186.00011-1.44214A2.35156,2.35156,0,0,1,14.47635,14.886c.92741-.305,1.8626-.59638,2.76308-.97968a1.288,1.288,0,0,0,.6844-1.49843,1.2136,1.2136,0,0,0-1.1879-1.03985,2.49161,2.49161,0,0,0-1.62.19807,1.08037,1.08037,0,0,0-.54136.87744c-.02238.24694-.11338.3231-.34745.31593-.40749-.0125-.81564-.00686-1.22347-.00355-.17615.00143-.24839-.05884-.22607-.2496a5.40946,5.40946,0,0,1,.09458-.94455,2.3266,2.3266,0,0,1,1.837-1.61568,5.87345,5.87345,0,0,1,3.33194.07248A2.21039,2.21039,0,0,1,19.66265,12.165c.00162.52154.00082,1.04309.00094,1.56463q.0002.7701,0,1.54019Zm-1.76682.0934a1.49865,1.49865,0,0,1-.55405.2882c-.60648.2138-1.21322.4269-1.81853.644a1.59694,1.59694,0,0,0-.62544.41193,1.52916,1.52916,0,0,0-.25277,1.58012.99291.99291,0,0,0,.714.70887,2.95458,2.95458,0,0,0,1.35623.0876,1.25733,1.25733,0,0,0,1.223-1.452c.00458-.66841.00263-1.33687.00116-2.00531A.41406.41406,0,0,0,17.89474,15.36326Z"/><path class="cls-1" d="M16.31428,9.74073a5.36525,5.36525,0,0,1,1.72682.27789A2.2104,2.2104,0,0,1,19.66265,12.165c.00162.52154.00082,1.04309.00095,1.56463q.00018.7701,0,1.54019h-.00206c0,.9942-.0232,1.98908.00616,2.98241a2.21725,2.21725,0,0,1-1.61546,2.14057,5.51471,5.51471,0,0,1-1.78893.29566,6.31,6.31,0,0,1-1.60682-.21565,2.6753,2.6753,0,0,1-1.43349-.8845,1.86661,1.86661,0,0,1-.42435-1.14823c-.01389-.48037-.01546-.96186.00011-1.44214A2.35156,2.35156,0,0,1,14.47635,14.886c.92741-.305,1.8626-.59638,2.76308-.97968a1.288,1.288,0,0,0,.6844-1.49843,1.2136,1.2136,0,0,0-1.1879-1.03985,5.63414,5.63414,0,0,0-.62847-.04446,1.88936,1.88936,0,0,0-.99155.24253,1.08037,1.08037,0,0,0-.54136.87744c-.02144.23652-.10586.31638-.31862.31638l-.02883-.00045c-.19074-.00585-.38169-.00773-.57262-.00773-.217,0-.43392.00242-.65085.00418l-.006,0c-.17177,0-.24209-.06106-.22-.24963a5.40925,5.40925,0,0,1,.09458-.94454,2.3266,2.3266,0,0,1,1.837-1.61569,6.66816,6.66816,0,0,1,1.60512-.20541m-.10359,9.38387a3.20091,3.20091,0,0,0,.50351-.04066,1.25733,1.25733,0,0,0,1.223-1.452c.00458-.66841.00263-1.33688.00116-2.0053a.41408.41408,0,0,0-.04359-.26342,1.49876,1.49876,0,0,1-.55406.2882c-.60647.2138-1.21321.4269-1.81852.644a1.59694,1.59694,0,0,0-.62544.41193,1.52916,1.52916,0,0,0-.25277,1.58012.99291.99291,0,0,0,.714.70887,2.85115,2.85115,0,0,0,.85272.12826m.10366-9.64523h-.00008a6.9488,6.9488,0,0,0-1.66806.2131,2.5756,2.5756,0,0,0-2.02471,1.79525,2.60423,2.60423,0,0,0-.084.6698c-.00389.11117-.00757.21618-.01953.31848a.4405.4405,0,0,0,.47961.54135l.00815,0,.13955-.00119c.16707-.00146.33983-.003.50919-.003.21613,0,.39554.00242.56461.0076l.03684.00058a.532.532,0,0,0,.57891-.55416.818.818,0,0,1,.41395-.676,1.62593,1.62593,0,0,1,.85867-.20624,5.47376,5.47376,0,0,1,.59919.04282.9553.9553,0,0,1,.959.82065,1.02982,1.02982,0,0,1-.52857,1.21744c-.76759.32674-1.57875.59162-2.3632.84778q-.18971.06194-.37917.12411a2.79366,2.79366,0,0,0-1.3012.8856,2.43475,2.43475,0,0,0-.55593,1.46614c-.015.46417-.01509.94114-.00013,1.45816a2.11874,2.11874,0,0,0,.48295,1.30574,2.92694,2.92694,0,0,0,1.56969.97221,6.59635,6.59635,0,0,0,1.67326.22424,5.798,5.798,0,0,0,1.87318-.30962,2.85277,2.85277,0,0,0,1.25272-.83734,2.27865,2.27865,0,0,0,.53973-1.55836c-.02022-.68433-.01523-1.38332-.0104-2.05928.00153-.21462.0031-.43443.00387-.654h.00049l.00206-.26136,0-.46918L19.925,13.72961l0-.43275q.00015-.56631-.001-1.13263a2.3923,2.3923,0,0,0-.52635-1.53986A2.757,2.757,0,0,0,18.12473,9.771a5.64483,5.64483,0,0,0-1.81033-.29164h0m-.10371,9.38387a2.59919,2.59919,0,0,1-.77491-.11641.73661.73661,0,0,1-.539-.52559c-.19376-.73971-.06461-1.068.18892-1.33334a1.33853,1.33853,0,0,1,.5247-.34646c.51354-.18416,1.03708-.36861,1.54338-.547l.27381-.09649.01184-.00418c.07632-.02689.15655-.05515.238-.09022.00135.59959.00262,1.21839-.00155,1.82663-.00531.77538-.25833,1.07709-1.00273,1.19564a2.95094,2.95094,0,0,1-.4624.03741Z"/><path class="cls-13" d="M36.88971,15.21421c0,.96183.00341,1.92367-.00182,2.88547a2.86369,2.86369,0,0,1-.16736,1.00665,2.04518,2.04518,0,0,1-1.0151,1.08038,4.87811,4.87811,0,0,1-2.68475.47471,4.4241,4.4241,0,0,1-1.8149-.44293,2.25586,2.25586,0,0,1-1.12318-1.26643,2.40892,2.40892,0,0,1-.09431-.79674c-.00758-1.95623.00636-3.91259-.01018-5.86871a2.31413,2.31413,0,0,1,2.02912-2.37176,6.25891,6.25891,0,0,1,2.90905.00988,2.48486,2.48486,0,0,1,1.75443,1.28668,2.462,2.462,0,0,1,.21629,1.06847c.01172.978.004,1.9562.004,2.93433Zm-1.76585.02217h-.00161c0-.88813.00448-1.77629-.00166-2.66437a1.09368,1.09368,0,0,0-.77857-1.08943,3.00637,3.00637,0,0,0-1.59082-.09568,1.14949,1.14949,0,0,0-1.03606,1.17343q-.02507,2.66415-.00257,5.32865a1.02193,1.02193,0,0,0,.61605.99924,2.61594,2.61594,0,0,0,1.99793.06391,1.12566,1.12566,0,0,0,.8015-1.22256C35.11132,16.89882,35.12386,16.06747,35.12386,15.23638Z"/><path class="cls-1" d="M33.47512,9.74842a5.88948,5.88948,0,0,1,1.44116.17631,2.48484,2.48484,0,0,1,1.75443,1.28668,2.462,2.462,0,0,1,.21629,1.06847c.01172.978.004,1.9562.004,2.93433h-.00128c0,.96183.00341,1.92367-.00182,2.88547a2.864,2.864,0,0,1-.16736,1.00666,2.0452,2.0452,0,0,1-1.0151,1.08037,4.54089,4.54089,0,0,1-2.17491.49275c-.16912,0-.33915-.00643-.50984-.018a4.4241,4.4241,0,0,1-1.8149-.44293,2.25583,2.25583,0,0,1-1.12318-1.26643,2.40892,2.40892,0,0,1-.09431-.79674c-.00758-1.95623.00636-3.91259-.01017-5.86871a2.31412,2.31412,0,0,1,2.02911-2.37176,6.75871,6.75871,0,0,1,1.46789-.16643m-.09877,9.37074a2.94206,2.94206,0,0,0,.9502-.167,1.12566,1.12566,0,0,0,.8015-1.22256c-.01673-.83075-.0042-1.6621-.0042-2.49319h-.0016c0-.88813.00448-1.77629-.00166-2.66437a1.09368,1.09368,0,0,0-.77857-1.08943,2.46684,2.46684,0,0,0-.89979-.15721,4.38906,4.38906,0,0,0-.691.06153,1.14949,1.14949,0,0,0-1.03606,1.17343q-.02507,2.66415-.00256,5.32865a1.02191,1.02191,0,0,0,.616.99924,2.50119,2.50119,0,0,0,1.04773.23094m.09882-9.6321h0a7.044,7.044,0,0,0-1.52467.17267,2.57261,2.57261,0,0,0-2.23373,2.62909c.00968,1.14535.00889,2.31058.00813,3.43744-.00054.79637-.0011,1.61986.002,2.43007a2.65461,2.65461,0,0,0,.10929.883,2.52206,2.52206,0,0,0,1.247,1.41,4.67572,4.67572,0,0,0,1.9197.47284c.18186.01236.35936.01863.52757.01863a4.78311,4.78311,0,0,0,2.29753-.52329A2.28174,2.28174,0,0,0,36.96492,19.199a3.1052,3.1052,0,0,0,.18432-1.09786c.00375-.6905.00305-1.39214.00237-2.07069q-.00028-.28433-.00048-.56866l.00122-.24754q0-.41694.00125-.83388c.00155-.6892.00315-1.40185-.00526-2.10359a2.68126,2.68126,0,0,0-.243-1.18043A2.71756,2.71756,0,0,0,34.98,9.67127a6.17376,6.17376,0,0,0-1.50486-.18421Zm-.09882,9.37074a2.22554,2.22554,0,0,1-.93951-.20747.76537.76537,0,0,1-.46291-.76315c-.0135-1.96488-.01266-3.7065.00256-5.32439a.88627.88627,0,0,1,.81593-.9178,4.1302,4.1302,0,0,1,.64981-.05826,2.2018,2.2018,0,0,1,.80571.13968.83239.83239,0,0,1,.6113.8474c.00431.62355.00336,1.25811.00244,1.87179q-.00059.39538-.00078.79078v.26136h.00123q-.00063.2426-.00188.48523c-.0026.57375-.00529,1.167.00649,1.75187a.87137.87137,0,0,1-.62438.96986,2.697,2.697,0,0,1-.866.1531Z"/><path class="cls-14" d="M4.26729,15.17216q0-2.3103-.00026-4.62061c0-.18691-.00358-.37383-.00567-.56074-.00166-.14885.06342-.22548.22085-.22251,1.41824.0268,2.839-.07258,4.2546.05972a2.9612,2.9612,0,0,1,1.90087.909,1.86219,1.86219,0,0,1,.50523,1.33881q.00243,2.46919.00119,4.9384c.00025,1.092-.00218,2.184.00506,3.27588.001.15305-.05024.20379-.19448.20266-.44047-.00345-.881-.00436-1.32145.00034-.16491.00176-.22408-.05516-.22372-.23021.00515-2.50179-.01434-5.00378.01113-7.50532a1.29412,1.29412,0,0,0-1.40676-1.41317c-.56275-.00786-1.1257-.00341-1.68855-.002-.309.00079-.32829.02095-.32844.33847q-.002,4.18055-.00273,8.3611c0,.08148-.00188.163-.00171.24445.00031.14172-.0688.20573-.21151.20493-.44047-.00247-.881-.00442-1.32144.00088-.19639.00236-.19276-.117-.19254-.25944q.00387-2.53032.00166-5.06066Z"/><path class="cls-1" d="M6.92946,9.75741c.60306,0,1.20559.01437,1.80735.07061a2.9612,2.9612,0,0,1,1.90087.909,1.86219,1.86219,0,0,1,.50523,1.33881q.00243,2.46919.00119,4.9384c.00026,1.092-.00218,2.184.00506,3.27588.001.15139-.04915.20268-.18983.20268l-.00465,0q-.34192-.00268-.68392-.00289-.31879,0-.63753.00323l-.00728,0c-.15939,0-.21679-.0578-.21644-.23025.00515-2.50179-.01434-5.00378.01113-7.50532a1.29412,1.29412,0,0,0-1.40676-1.41317c-.24727-.00345-.49458-.00453-.7419-.00453-.31555,0-.63111.00175-.94665.00256-.309.00078-.32829.02094-.32844.33846q-.002,4.18055-.00273,8.3611c0,.08148-.00188.163-.00171.24445.0003.14084-.068.20494-.20887.20494H5.78094q-.35238-.002-.70483-.00249-.30835,0-.61661.00337l-.00569,0c-.19065,0-.18707-.11843-.18685-.25947q.00387-2.53032.00166-5.06066H4.26729q0-2.3103-.00026-4.62061c0-.18691-.00358-.37383-.00567-.56074-.00162-.14606.061-.22259.21212-.22259l.00873.00008q.277.00523.55428.00484c.63093,0,1.26211-.01573,1.893-.01573m0-.26136c-.31705,0-.63867.004-.94969.00788-.30945.00386-.62944.00785-.94328.00785-.199,0-.37871-.00157-.54934-.00479l-.01367-.00013a.466.466,0,0,0-.34545.13021A.479.479,0,0,0,4,9.99372l.0021.1653c.00173.129.00351.26231.00355.39261q.00054,1.77543.00029,3.55084l0,1.06969v.26136h.00134l.00006.79142c.00015,1.3135.00031,2.67173-.00174,4.00748v.00717a.5126.5126,0,0,0,.12159.39376.44276.44276,0,0,0,.32663.1203l.00877-.00005c.18745-.00226.38811-.00335.61353-.00335q.35166,0,.70336.00249h.00411a.46628.46628,0,0,0,.344-.128.45907.45907,0,0,0,.12625-.33889c-.00009-.04173.00038-.08346.00083-.12519.00044-.03954.00087-.07908.00088-.11862l.00072-2.50235q.00081-2.92935.002-5.8587c0-.01545,0-.04594.00075-.0765.02707-.00064.05333-.0007.067-.00074q.16614-.00042.3323-.00108.30684-.0011.61368-.00147c.28361,0,.51819.00143.73825.0045A1.04637,1.04637,0,0,1,9.1593,12.75492c-.01647,1.61767-.01413,3.26185-.01185,4.85188.00124.87045.00252,1.77054.0007,2.65556a.49791.49791,0,0,0,.12681.36714.48556.48556,0,0,0,.351.125l.01012-.00006c.20263-.00216.41025-.00321.63469-.00321.211,0,.43406.00094.68187.00288l.0067,0a.45621.45621,0,0,0,.33154-.11975.47785.47785,0,0,0,.11964-.346c-.00566-.85321-.00539-1.72121-.00514-2.56063q.00011-.35679.00009-.71358-.00019-.81517-.00012-1.63033,0-1.65414-.00107-3.30827a2.11386,2.11386,0,0,0-.57837-1.51988,3.20366,3.20366,0,0,0-2.06477-.9879c-.53088-.04961-1.09579-.07174-1.83167-.07174Z"/><path class="cls-15" d="M45.36059,16.2q0,1.98088-.00037,3.96178c-.00022.31766-.01274.32884-.33212.32938-.408.00069-.81606-.005-1.22394.00173-.169.0028-.213-.05022-.21244-.22745q.01186-3.86387.00219-7.72779a1.1812,1.1812,0,0,0-1.2624-1.18576c-.62712-.02756-1.25638-.00406-1.88462-.01019-.23539-.0023-.23.15024-.23.31307q.00076,2.50668-.00026,5.01337c0,.54324.00083.54233-.54638.5397-.31821-.00153-.63758-.01568-.95429.00641-.21408.01494-.268-.06142-.26718-.25917.00533-1.2309.00236-2.46184.002-3.69276q-.00041-1.58961-.00063-3.17921c.00018-.29957.01665-.3154.32157-.31539,1.14239,0,2.285-.0129,3.42708.00709a3.94522,3.94522,0,0,1,2.16927.5641,2.15474,2.15474,0,0,1,.99345,1.94822q-.00072,1.95644-.00013,3.91287Z"/><path class="cls-1" d="M40.70483,9.76362c.49813,0,.99606.00245,1.494.01117a3.94522,3.94522,0,0,1,2.16927.5641,2.15477,2.15477,0,0,1,.99346,1.94822q-.00073,1.95644-.00014,3.91286h-.00086q0,1.9809-.00037,3.96179c-.00022.31766-.01274.32884-.33212.32938l-.07258.00006c-.22873,0-.45748-.00166-.6862-.00166-.15509,0-.31012.00076-.46516.00333l-.0123.0001c-.15889,0-.20067-.05469-.20014-.22755q.01186-3.86387.00219-7.72779a1.18121,1.18121,0,0,0-1.26241-1.18576c-.24466-.01075-.48971-.01373-.73483-.01373-.30488,0-.61.00461-.91491.00461q-.11748,0-.23487-.00107l-.00521,0c-.23014,0-.22483.15147-.22478.3131q.00076,2.50668-.00026,5.01337c0,.50713.00072.54-.44438.54l-.102-.00034c-.18183-.00087-.36406-.00587-.54593-.00587-.13641,0-.27262.00281-.40836.01228q-.0259.00182-.04877.00182c-.17369,0-.21919-.0792-.21841-.261.00533-1.2309.00236-2.46184.002-3.69276q-.00041-1.58959-.00062-3.17921c.00017-.29957.01664-.31539.32156-.31539h.00541c.64252,0,1.28511-.00408,1.92764-.00408m0-.26136q-.48233,0-.96466.002-.4815.00155-.963.002h-.00842a.6.6,0,0,0-.455.12.59314.59314,0,0,0-.12494.45657q-.00064,1.09966.00024,2.19932l.00038.98011q.00012.448.00054.896c.00071.91638.00145,1.864-.00258,2.79558a.533.533,0,0,0,.131.39678.4662.4662,0,0,0,.34879.1267c.02111,0,.04364-.00083.067-.00245.11392-.008.2379-.01165.39017-.01165.09768,0,.19809.00151.2952.003.08319.00125.16637.0025.24947.0029h.00368l.09959.00033a.69161.69161,0,0,0,.595-.18027c.11072-.14214.1107-.31145.11069-.61879q-.00008-1.03858.0002-2.07247.00027-1.47165.00006-2.94332v-.01079c0-.01211,0-.02639.00015-.04055.06888.00055.1361.00077.20336.00077.15314,0,.30631-.00115.45948-.00231.15183-.00115.30366-.0023.45543-.0023.28424,0,.5141.00429.72336.01349.63232.02779,1.01083.37375,1.01252.92545.00724,2.36.00653,4.88723-.00219,7.72619a.498.498,0,0,0,.12216.37.459.459,0,0,0,.33934.11972l.01665-.00014c.13583-.00225.28227-.00329.46081-.00329q.171,0,.34193.00083.17214.00062.34427.00083l.073-.00006a.61372.61372,0,0,0,.469-.12123.6024.6024,0,0,0,.124-.46933q.001-1.44888.00046-2.89775l-.00006-.80837L45.62281,16.2l-.00006-1.16112q-.0001-1.37583.00019-2.75164a2.40038,2.40038,0,0,0-1.11162-2.167,4.22836,4.22836,0,0,0-2.30788-.60678c-.43694-.00765-.91313-.01121-1.49861-.01121Z"/><path class="cls-16" d="M55.344,13.708q0-3.27535-.0032-6.55069c-.00027-.12863.039-.17825.162-.182.48065-.01462.962.02467,1.44239-.02248.10151-.01.14588.04942.14072.1521-.00653.1301-.00881.26054-.00883.39084q-.00075,6.392.00234,12.784c.00011.142-.02875.21387-.184.21233-.45668-.00454-.91345-.00327-1.37018-.00174-.12676.00042-.184-.03232-.18357-.18277q.00881-3.29977.004-6.59958Z"/><path class="cls-1" d="M56.96643,6.95173c.08644,0,.12424.058.11945.15318-.00653.1301-.00881.26054-.00882.39084q-.00078,6.392.00232,12.784c.00012.14051-.02815.21234-.17918.21234l-.00486,0q-.35577-.00354-.71165-.00315-.3293,0-.65853.00141h-.00242c-.12508,0-.18155-.03327-.18115-.18277q.00881-3.29977.004-6.59958H55.344q0-3.27535-.0032-6.55069c-.00027-.12863.039-.17825.162-.182.08452-.00258.16913-.00348.25369-.00348.20027,0,.40059.00507.60089.00507.196,0,.392-.00486.58781-.02408l.02127-.00108m0-.26136c-.0153,0-.031.00078-.04682.00233-.16081.01579-.33423.02283-.56226.02283-.099,0-.1981-.00126-.29715-.00251-.10125-.00128-.2025-.00256-.30374-.00256-.09649,0-.18207.00118-.26164.0036a.39992.39992,0,0,0-.41539.44376c.00366,1.78765.00347,3.60538.00329,5.36325L55.08263,13.708v.26024h.00166l.00011,1.0097c.00028,1.74665.00057,3.55276-.00417,5.32894a.45512.45512,0,0,0,.11633.32937.44105.44105,0,0,0,.32618.11546h.0033q.32884-.00109.65765-.0014c.265,0,.49693.001.70906.00313l.00746,0a.415.415,0,0,0,.35735-.16074.51625.51625,0,0,0,.08318-.31318c-.00338-4.09121-.00288-8.251-.00239-12.27375l.00006-.51c0-.14066.0028-.26423.0085-.37776a.40892.40892,0,0,0-.10465-.31442.37514.37514,0,0,0-.27583-.11323Z"/><path class="cls-17" d="M21.35237,14.12618c0-1.36087.00247-2.72176-.00275-4.08261-.00076-.1961.06212-.283.26725-.27869q.62378.01309,1.248-.0006c.20657-.00485.273.08342.26694.27829-.00943.30123.0003.603-.00433.90446-.00271.17675.0743.24659.25166.24255.33427-.00761.66887.00078,1.0033-.00167.15094-.0011.22525.05993.22456.21739-.00162.36666-.00057.73345.00808,1.1.00341.14442-.081.158-.18789.15822-.35077.00062-.70165.00694-1.05226-.00034-.179-.00371-.24565.06921-.24871.24489-.02658,1.5233-.05341,3.0468-.02909,4.57012.016,1.00085.45331,1.4188,1.47078,1.44071.21373.00461.289.07966.28228.2889-.01131.35007-.00439.70074-.00367,1.05116.00027.12911-.03365.22744-.187.22986a3.77222,3.77222,0,0,1-2.56524-.76926,1.99153,1.99153,0,0,1-.73274-1.63277q.00362-1.98029.00071-3.96059Z"/><path class="cls-1" d="M22.88067,9.76409c.19416,0,.257.08868.25111.27849-.00943.30122.0003.603-.00433.90445-.00264.17194.07019.24271.23743.24271l.01423-.00016c.1097-.0025.21944-.00327.3292-.00327.17932,0,.35872.00207.538.00207q.068,0,.13605-.00047h.004c.14827,0,.22126.06134.22057.2174-.00162.36666-.00057.73345.00808,1.1.0034.14442-.081.158-.18789.15823-.22478.00039-.44965.00312-.67441.00312-.126,0-.25191-.00086-.37785-.00347l-.01276-.00013c-.1694,0-.233.07358-.23595.245-.02658,1.52331-.05341,3.04681-.02909,4.57013.016,1.00085.45331,1.4188,1.47078,1.44071.21373.00461.289.07966.28228.2889-.01131.35007-.00439.70074-.00366,1.05116.00026.12911-.03366.22744-.187.22986q-.05418.00085-.1082.00086a3.70893,3.70893,0,0,1-2.457-.77012,1.99152,1.99152,0,0,1-.73274-1.63277q.00362-1.98029.00071-3.96058h-.00984c0-1.36087.00247-2.72176-.00275-4.08261-.00074-.19148.0592-.27884.253-.27884l.01425.00015q.31059.00651.62145.00664.31335,0,.62652-.00724l.01583-.00019m0-.26136-.022.00027c-.20227.00475-.411.00716-.62036.00716-.20064,0-.40788-.00221-.616-.00658l-.01947-.00021a.50356.50356,0,0,0-.3767.13565.55027.55027,0,0,0-.13793.40555c.004,1.02966.00349,2.07684.00305,3.08956q-.00023.496-.0003.992v.2612h.00987q.00006.4477.00026.89541c.00035.91891.00071,1.8691-.001,2.8035a2.25316,2.25316,0,0,0,.82843,1.83538,3.91743,3.91743,0,0,0,2.62271.82935q.056,0,.11232-.00089a.442.442,0,0,0,.44425-.49173q-.00027-.13388-.00135-.26777c-.00167-.25476-.0034-.51818.00488-.77441a.49006.49006,0,0,0-.53787-.55863c-.88348-.019-1.20145-.32876-1.21509-1.18359-.02412-1.51155.00273-3.0507.0287-4.53918l.00017-.01c.11072.00216.22743.00317.36546.00317.12162,0,.24328-.00079.36494-.00159q.155-.001.30992-.00154a.45713.45713,0,0,0,.34027-.11868.40811.40811,0,0,0,.10845-.30706c-.00748-.31683-.00995-.65382-.008-1.09266a.473.473,0,0,0-.1277-.35.47951.47951,0,0,0-.35422-.12993l-.006,0q-.06695.00049-.13405.00046c-.08917,0-.17835-.00052-.26753-.001-.09018-.00052-.18036-.001-.27052-.001-.12172,0-.2237.00095-.3192.003.00162-.12422.001-.249.00037-.36986-.00084-.16712-.00171-.33993.00353-.50733a.55236.55236,0,0,0-.13069-.40776.509.509,0,0,0-.38165-.14026Z"/><path class="cls-18" d="M26.55009,15.16056q0-2.51892.00012-5.03784c.00006-.34673.009-.35527.35781-.35562.359-.00035.7184.00931,1.077-.00313.22358-.00776.29817.07579.29712.29841-.00711,1.50806-.00367,3.01617-.00408,4.52426q-.00075,2.77572-.00235,5.55142c-.00022.34963-.00532.35408-.35589.35433-.39168.00028-.78336-.00236-1.175.00014-.13755.00088-.20058-.03577-.2-.19641.00629-1.71184.00391-3.4237.00391-5.13555Z"/><path class="cls-1" d="M28.01241,9.76348c.20233,0,.27074.08563.26973.2989-.00711,1.50806-.00367,3.01617-.00408,4.52426q-.00075,2.77572-.00235,5.55142c-.00022.34963-.00532.35408-.35589.35433l-.0606,0c-.24318,0-.48641-.001-.72958-.001q-.19245,0-.38484.00108l-.00473,0c-.13427,0-.19585-.03763-.19526-.19643.00629-1.71184.00391-3.4237.00391-5.13555h.00137q0-2.51893.00012-5.03785c.00006-.34673.009-.35527.35782-.35562h.01979c.21077,0,.42165.00324.63241.00324.14168,0,.28329-.00146.42479-.00637l.02739-.00049m0-.26136-.03642.00064c-.12234.00425-.25444.00623-.41576.00623-.1047,0-.20944-.00081-.31418-.00162-.10609-.00082-.21217-.00163-.31823-.00163h-.02a.642.642,0,0,0-.49361.12381.63364.63364,0,0,0-.12532.49312q-.00029,1.859-.00014,3.718l0,1.05929-.00137.26059q0,.55332.00022,1.10665c.0004,1.32026.00081,2.68547-.00413,4.02794a.46893.46893,0,0,0,.11949.33957.45577.45577,0,0,0,.33713.11918l.00642,0q.19158-.00123.38315-.00109.18211,0,.36427.00049.18266.00035.36531.00048l.06079,0c.21524-.00016.37076-.00027.49337-.12213.12346-.1227.12355-.27819.12368-.4934q.00174-2.77575.00236-5.55151.00016-.60458-.00022-1.20917c-.00045-1.08628-.00091-2.20953.00429-3.31393a.57424.57424,0,0,0-.14173-.42253.5205.5205,0,0,0-.38935-.139Z"/><path class="cls-19" d="M26.60778,7.74336c0-.195.00175-.3901-.00062-.58511-.00159-.12992.04856-.18934.18834-.18928a9.54924,9.54924,0,0,0,1.19418-.02173c.12985-.01622.20862.0394.20455.19832a8.93947,8.93947,0,0,0,.01548,1.19322.17343.17343,0,0,1-.19519.21656c-.3986-.00038-.79723-.00224-1.1958.0013-.16078.00143-.21469-.08163-.21271-.22816.00264-.195.00066-.39007.00066-.58512Z"/><path class="cls-1" d="M28.0307,6.94453c.10519,0,.16715.05962.16353.201a8.93947,8.93947,0,0,0,.01548,1.19322.17337.17337,0,0,1-.19481.21656h-.00038q-.31872-.0003-.63751-.00083-.27918,0-.55829.00213l-.00406,0c-.15764,0-.21061-.08289-.20865-.22818.00264-.195.00066-.39007.00066-.58511h.00111c0-.195.00175-.3901-.00062-.58511-.00158-.12985.04851-.18927.18812-.18928h.00022c.21031.0001.42075.00789.63114.00789a4.53179,4.53179,0,0,0,.563-.02963.333.333,0,0,1,.041-.0027m0-.26135a.5949.5949,0,0,0-.0734.00471,4.20445,4.20445,0,0,1-.53066.02762c-.10341,0-.2098-.002-.31269-.00391-.104-.00193-.21145-.00394-.31833-.004a.41575.41575,0,0,0-.4498.45382c.00129.1061.00134.21422.00112.32057h-.00052l-.00111.26136q0,.08831.00036.17662c.00041.13309.00083.27071-.001.40495a.48794.48794,0,0,0,.12735.364.46152.46152,0,0,0,.34263.12907l.00642,0c.16275-.00144.33941-.00212.55592-.00212q.1898,0,.37962.00044l.25766.00038a.43138.43138,0,0,0,.45528-.506A7.62266,7.62266,0,0,1,28.45212,7.278l.00338-.12573a.46148.46148,0,0,0-.12012-.34817.4113.4113,0,0,0-.30468-.12091Z"/></g></g></svg>