<svg id="Layer_1" data-name="Layer 1" xmlns="http://www.w3.org/2000/svg" viewBox="0 0 70 40"><defs><style>.cls-1{fill:#fff;}.cls-2{fill:#f33;}</style></defs><rect class="cls-1" width="70" height="40" rx="3.70584"/><g id="_ff3333ff" data-name="#ff3333ff"><path class="cls-2" d="M63.75924,13.60142a1.47478,1.47478,0,0,1,1.59887-.07928A1.50788,1.50788,0,0,1,66,14.304v.92733a1.45806,1.45806,0,0,1-2.23593.71773,1.46141,1.46141,0,0,1-.00483-2.34763m.54606.08205a1.1345,1.1345,0,1,0,1.412.808A1.14433,1.14433,0,0,0,64.3053,13.68347Z"/><path class="cls-2" d="M64.30943,14.0151a.15975.15975,0,0,1,.21512.21787,1.10049,1.10049,0,0,1-.32818.20477c-.13928.00207-.19443-.12065-.15582-.24062A.60946.60946,0,0,1,64.30943,14.0151Z"/><path class="cls-2" d="M64.77965,13.97856a.72716.72716,0,0,1,.42126.21994c.05861.13582-.062.19443-.15513.25924a3.29256,3.29256,0,0,1-.33783-.22339C64.64934,14.14127,64.741,14.05647,64.77965,13.97856Z"/><path class="cls-2" d="M63.78751,14.81419c-.05378-.17168.24959-.262.2882-.08549a.9661.9661,0,0,0,.15306.40678.51482.51482,0,0,0,.71222.06c.17994-.1241.18822-.36059.23993-.55364.08687.01517.262-.03378.26268.10756a.82881.82881,0,1,1-1.65609.06481Z"/><path class="cls-2" d="M11.067,14.91a3.57945,3.57945,0,0,1,1.86776-.10963c.32542.10135.39437.47849.40333.77427.011.64327.00069,1.28723.00345,1.9305a.72428.72428,0,0,0,.04482.24407,2.71883,2.71883,0,0,1,1.80018-.726,1.67613,1.67613,0,0,1,1.22932.42057,1.91544,1.91544,0,0,1,.45918,1.301q.0031,2.79025.00069,5.58121-1.12.00207-2.24076.00069-.001-2.34557-.00138-4.69111c.00966-.26269-.07032-.595-.364-.666a.99345.99345,0,0,0-.91768.26889c-.02275,1.69539-.00345,3.39216-.00965,5.08824H11.067Q11.067,19.618,11.067,14.91Z"/><path class="cls-2" d="M60.10578,14.9052a4.452,4.452,0,0,1,1.64092-.14961.57394.57394,0,0,1,.48262.291,2.41794,2.41794,0,0,1,.09929.93836q0,4.19469.00069,8.3887a4.84338,4.84338,0,0,1-1.3155.08136.88057.88057,0,0,1-.6412-.29165,2.75609,2.75609,0,0,1-.24269-.53778,2.22961,2.22961,0,0,1-1.11486.76186,1.82059,1.82059,0,0,1-1.82708-.4185,4.04524,4.04524,0,0,1-.88527-2.45863,6.11864,6.11864,0,0,1,.47917-3.28874A2.16265,2.16265,0,0,1,58.531,17.03288a2.10814,2.10814,0,0,1,1.54854.48194c.05929-.86735.00827-1.74021.0262-2.60962m-1.2369,3.88926a7.09048,7.09048,0,0,0-.22683,2.50689,2.46012,2.46012,0,0,0,.27233,1.14382c.26545.40334.90389.26131,1.17968-.049.02688-.98662.00137-1.976.01241-2.96331a1.5758,1.5758,0,0,0-.0262-.40334A1.36051,1.36051,0,0,0,58.86888,18.79446Z"/><path class="cls-2" d="M6.46414,17.07356a3.60732,3.60732,0,0,1,2.13527.25579,2.3581,2.3581,0,0,1,1.0797,1.32722,6.94835,6.94835,0,0,1,.2944,2.5648A3.68255,3.68255,0,0,1,9.08,23.6669a3.29907,3.29907,0,0,1-2.44139.79909,2.32717,2.32717,0,0,1-1.82226-.86045A4.76627,4.76627,0,0,1,4,20.67532a4.55813,4.55813,0,0,1,.62052-2.56,2.60123,2.60123,0,0,1,1.84362-1.04178m-.02206,1.83053a8.42687,8.42687,0,0,0-.18409,2.733,1.711,1.711,0,0,0,.282.92871.85544.85544,0,0,0,1.02455.03171A8.90909,8.90909,0,0,0,7.73,19.68525c-.04137-.31646-.10687-.70877-.42747-.86114A1.1344,1.1344,0,0,0,6.44208,18.90409Z"/><path class="cls-2" d="M18.8214,17.088a2.15308,2.15308,0,0,1,1.15692.02758c.28888.12824.38334.4516.5033.71566a2.87891,2.87891,0,0,1,1.87052-.80736,1.3359,1.3359,0,0,1,1.4396.86252,2.96437,2.96437,0,0,1,2.51585-.81495,1.11856,1.11856,0,0,1,.83494.61087,3.71776,3.71776,0,0,1,.24683,1.463q.00311,2.59065.00069,5.18132H25.16653q0-2.38383,0-4.76764c-.00483-.20477-.03241-.46194-.23649-.56536a1.17516,1.17516,0,0,0-.98938.213c.00414,1.70642.00069,3.41354.00207,5.12q-1.12107,0-2.24145-.00069.001-2.38279.00069-4.76488c-.00482-.20409-.02-.45919-.22269-.56881a1.24639,1.24639,0,0,0-.98456.20822q.00207,2.56274.00069,5.12616H18.25466c.00551-2.34969-.011-4.70076.00758-7.04977A1.509,1.509,0,0,1,18.8214,17.088Z"/><path class="cls-2" d="M33.12914,17.10941a2.59567,2.59567,0,0,1,1.34514.0331q-.001,3.3539-.00069,6.70779a2.9389,2.9389,0,0,1-.65774,2.007,3.15649,3.15649,0,0,1-2.06977.80115,6.12335,6.12335,0,0,1-2.77027-.34473,1.41638,1.41638,0,0,1,1.07763-1.10314c.70188-.25165,1.4658-.14,2.17733-.344.00138-.39438.01172-.78944-.00758-1.18381a2.92089,2.92089,0,0,1-1.259.5364,2.04884,2.04884,0,0,1-1.62989-.45711,2.7882,2.7882,0,0,1-.7598-1.44167,8.47718,8.47718,0,0,1-.17994-2.05667c.06618-1.01558.20545-2.025.35369-3.03157a7.1699,7.1699,0,0,1,1.74227-.11583c.17927.02.3992.07722.46608.26751a1.23481,1.23481,0,0,1,.01931.52951,17.85053,17.85053,0,0,0-.20753,2.13458,8.12538,8.12538,0,0,0,.11169,1.90636.75146.75146,0,0,0,.45987.57915,1.00691,1.00691,0,0,0,.89631-.25372c-.01035-1.20242.00827-2.40485-.01173-3.60658a2.73208,2.73208,0,0,1,.14066-.95008A1.22765,1.22765,0,0,1,33.12914,17.10941Z"/><path class="cls-2" d="M36.2662,17.75958a2.16461,2.16461,0,0,1,2.72407-.41575,3.96545,3.96545,0,0,1,.45711.3468,1.47217,1.47217,0,0,1,.6612-.55088,2.60521,2.60521,0,0,1,1.44994.00069q.001,3.17911.00069,6.35754a3.86168,3.86168,0,0,1-.39024,1.99669A2.26594,2.26594,0,0,1,39.719,26.51094a7.1726,7.1726,0,0,1-2.07046.15582,4.92851,4.92851,0,0,1-1.58714-.34749,1.41341,1.41341,0,0,1,1.099-1.11625c.69429-.24475,1.45132-.1303,2.15251-.3399.00482-.39368.01517-.78806-.00828-1.18174a2.56272,2.56272,0,0,1-1.83328.53778,1.89145,1.89145,0,0,1-1.51751-1.068,6.20427,6.20427,0,0,1-.48055-2.75509,4.121,4.121,0,0,1,.79288-2.63651m1.84156,1.0728a5.00789,5.00789,0,0,0-.26751,1.76848,5.27354,5.27354,0,0,0,.142,1.4196.71107.71107,0,0,0,.44609.51641,1.03625,1.03625,0,0,0,.89216-.25717c-.0062-1.05488-.00068-2.10976-.00345-3.16395A1.18186,1.18186,0,0,0,38.10776,18.83238Z"/><path class="cls-2" d="M45.00584,17.07563a3.707,3.707,0,0,1,2.047.20615,2.28762,2.28762,0,0,1,1.13761,1.27068,6.418,6.418,0,0,1,.34887,2.25868,4.57993,4.57993,0,0,1-.604,2.48207,2.63212,2.63212,0,0,1-1.794,1.10176,3.17626,3.17626,0,0,1-2.15457-.251,2.80418,2.80418,0,0,1-1.201-1.68712A7.081,7.081,0,0,1,42.59,19.90036a3.42187,3.42187,0,0,1,.7984-2.05046,2.6832,2.6832,0,0,1,1.61748-.77427m-.011,1.8257a8.267,8.267,0,0,0-.1834,2.73786,1.377,1.377,0,0,0,.38472,1.01765.94738.94738,0,0,0,.91906-.05654,9.128,9.128,0,0,0,.18064-2.762,1.43822,1.43822,0,0,0-.31509-.93078A.98365.98365,0,0,0,44.99481,18.90133Z"/><path class="cls-2" d="M51.9053,17.07011a3.56262,3.56262,0,0,1,2.10769.26338,2.32384,2.32384,0,0,1,1.05,1.25965,6.4652,6.4652,0,0,1,.32612,2.35038,4.3311,4.3311,0,0,1-.61087,2.36969A2.63969,2.63969,0,0,1,52.98776,24.397a3.18514,3.18514,0,0,1-2.12631-.24269,2.8192,2.8192,0,0,1-1.23138-1.745,7.13141,7.13141,0,0,1-.191-2.42347,3.40332,3.40332,0,0,1,.86183-2.19042,2.71382,2.71382,0,0,1,1.60438-.72532m.0586,1.78571a.19374.19374,0,0,0-.14685.16961,8.46342,8.46342,0,0,0-.171,2.27661,2.604,2.604,0,0,0,.25234,1.20243.70078.70078,0,0,0,.78668.21235c.11445-.03723.28268-.06343.30268-.20891a8.73874,8.73874,0,0,0,.18064-2.45656,2.11685,2.11685,0,0,0-.24683-1.05212A.8216.8216,0,0,0,51.9639,18.85582Z"/></g></svg>