<svg xmlns="http://www.w3.org/2000/svg" viewBox="0 0 70 40"><defs><style>.cls-1{fill:#fff;}.cls-2{fill:#a81715;}</style></defs><g id="Layer_2" data-name="Layer 2"><g id="Layer_1-2" data-name="Layer 1"><rect class="cls-1" width="70" height="40" rx="3.70584"/><path class="cls-2" d="M58.8701,15.84691a.39644.39644,0,0,0,.05561-.17229,3.33592,3.33592,0,0,1,.78855-1.55726,3.52074,3.52074,0,0,1,2.736-1.24636,3.893,3.893,0,0,1,2.1788.76252,3.16819,3.16819,0,0,1,1.33409,2.36575,15.627,15.627,0,0,1,.0326,1.59634q.00591,4.55212.00182,9.10425c0,.30025-.00455.31067-.29884.29453a4.57678,4.57678,0,0,1-2.74889-1.0888,4.94928,4.94928,0,0,1-1.61716-2.58852c-.00643-.0239-.01284-.04784-.02042-.07139-.00366-.0114-.01-.02193-.03291-.07059,0,.09948.00025.16239,0,.2253-.00191.42113.00243.84241-.00711,1.26338a2.337,2.337,0,0,1-2.09061,2.32338,2.36134,2.36134,0,0,1-2.64871-2.0204,6.0421,6.0421,0,0,1-.028-.686c-.00309-.37-.00083-.74-.02153-1.113-.05363.16925-.10335.33986-.16155.50753a5.07021,5.07021,0,0,1-1.11449,1.889,4.63553,4.63553,0,0,1-2.00006,1.204,6.97093,6.97093,0,0,1-1.21737.25245c-.19781.02521-.229-.00128-.23587-.20025-.00129-.03712-.00062-.07432-.00062-.11147q0-5.03518.00109-10.07037a3.80367,3.80367,0,0,1,.41887-1.84677,3.48674,3.48674,0,0,1,2.65132-1.85655,3.35068,3.35068,0,0,1,2.12949.33335,3.50477,3.50477,0,0,1,1.86234,2.421c.00979.04213.01728.08483.02824.12664C58.84745,15.82666,58.85954,15.8346,58.8701,15.84691Z"/><path class="cls-2" d="M34.57657,16.01979q0,2.93544-.00117,5.87088a4.91971,4.91971,0,0,1-2.15413,4.20616,4.43361,4.43361,0,0,1-1.98247.83879A4.33006,4.33006,0,0,1,28.888,26.887a5.22837,5.22837,0,0,1-2.00615-.84447,4.3839,4.3839,0,0,1-1.59346-2.14211,5.34111,5.34111,0,0,1-.3181-1.89294c.01405-1.43041.00668-2.86108.00213-4.29163a4.69578,4.69578,0,0,1,1.192-3.21765,4.63343,4.63343,0,0,1,2.91547-1.5655c.09809-.01386.19647-.02567.29479-.0378.1892-.02333.20773-.04309.21136-.23056.001-.04953.00029-.09909.00029-.14863.00007-.867-.00388-1.734.00153-2.601a2.511,2.511,0,0,1,.59961-1.65928,2.35865,2.35865,0,0,1,1.59978-.851,2.46776,2.46776,0,0,1,2.75231,2.1333,3.75378,3.75378,0,0,1,.03527.574q-.00141,2.954-.00058,5.90805Z"/><path class="cls-2" d="M7.93855,19.97545c-.4876,0-.97524-.00386-1.46278.00131a2.375,2.375,0,0,1-.99572-.19462,2.276,2.276,0,0,1-1.44092-2.04028c-.07168-.98285-.02125-1.96851-.03-2.95289-.00451-.50781.0002-1.01571.00238-1.52356.0015-.35049.01675-.36659.36855-.36709,1.51181-.00212,3.02377-.017,4.53536.00047a4.77578,4.77578,0,0,1,4.676,4.31622c.02665.23884.00888.48259.01259.72406.01065.69329.0043,1.38658.02643,2.08.02587.81077-.017,1.622-.035,2.4327a4.405,4.405,0,0,1-1.11764,2.86484A4.73586,4.73586,0,0,1,9.4774,26.948c-.11026.01563-.22213.02078-.33182.03928-.14283.02409-.14883.03234-.15176.18164-.00327.16716-.00111.33443-.001.50166.00067.76179.00408,1.52359.00149,2.28537a2.49316,2.49316,0,0,1-4.151,1.91282,2.52252,2.52252,0,0,1-.83106-1.91974c-.00886-1.73412-.0144-3.46843.00132-5.20246a4.80424,4.80424,0,0,1,3.64658-4.67688c.09393-.02412.18829-.0466.28245-.06983Z"/><path class="cls-2" d="M46.10656,16.68611a10.16838,10.16838,0,0,1,.41321-1.00064,4.8785,4.8785,0,0,1,3.27236-2.61742,3.36309,3.36309,0,0,1,.92106-.10088c.15987.00353.17882.02279.18581.18378.00161.03709.00066.07431.00066.11147,0,2.96672.00486,5.93345-.00249,8.90015A4.85894,4.85894,0,0,1,49.87408,25.206a4.62367,4.62367,0,0,1-2.92969,1.75134,4.54234,4.54234,0,0,1-2.68011-.263,4.64807,4.64807,0,0,1-2.93108-3.89945,13.50819,13.50819,0,0,1-.05126-1.98384c.0201-.87231.02519-1.74575-.00832-2.61882-.01541-.40164-.01093-.80427.00807-1.20693.01778-.377.00439-.75539.00982-1.1331a6.52607,6.52607,0,0,1,.02867-.89014,2.41477,2.41477,0,0,1,3.95633-1.42138,2.21228,2.21228,0,0,1,.82975,1.77141C46.10786,15.77,46.10656,16.22807,46.10656,16.68611Z"/><path class="cls-2" d="M24.05957,19.14307c0,.56979-.00154,1.13958.001,1.70935.00067.14832.01955.29654.0208.44489a13.85778,13.85778,0,0,1-.05943,1.53925,4.39508,4.39508,0,0,1-.94133,2.30853,4.79571,4.79571,0,0,1-7.04644.58808,4.626,4.626,0,0,1-1.48957-2.8166,4.76736,4.76736,0,0,1-.05492-.70289c.00116-1.5236-.02942-3.04794.00835-4.57059a4.79884,4.79884,0,0,1,5.05342-4.73859A4.63834,4.63834,0,0,1,22.38142,14.034a4.736,4.736,0,0,1,1.5075,2.33882,3.90435,3.90435,0,0,1,.16781,1.06083c.00361.56977.001,1.13959.001,1.70938Z"/><path class="cls-2" d="M40.41184,19.97342c0,1.51068.00515,3.02138-.00233,4.532a2.47931,2.47931,0,0,1-2.22222,2.48986,2.48641,2.48641,0,0,1-2.7112-2.03659,3.018,3.018,0,0,1-.04564-.55434q-.0003-4.38343.00053-8.76686a2.68806,2.68806,0,0,1,.3683-1.43889,2.44932,2.44932,0,0,1,1.71666-1.157,2.485,2.485,0,0,1,2.86627,2.04886,2.59757,2.59757,0,0,1,.03023.40664Q40.41111,17.73527,40.41184,19.97342Z"/><path class="cls-2" d="M37.93128,12.35632a2.48382,2.48382,0,1,1-.004-4.96762,2.48381,2.48381,0,0,1,.004,4.96762Z"/><path class="cls-2" d="M60.56378,30.97405q0-.60366.00025-1.20732a1.59125,1.59125,0,0,1,.00635-.18543c.02287-.19246.10934-.28209.30014-.28683.25991-.00645.52089-.011.78011.005a.942.942,0,0,1,.85227.71481.96171.96171,0,0,1-.40736,1.06968c-.13522.0846-.15094.095-.07009.26451q.19593.41065.39124.82162a1.033,1.033,0,0,1,.05236.11883.226.226,0,0,1-.10277.28677.25634.25634,0,0,1-.3335-.06193.81754.81754,0,0,1-.06792-.13155q-.23884-.50336-.47723-1.00694c-.02911-.06119-.05658-.12236-.13387-.1429-.18422-.049-.27045.01155-.2722.20217-.00234.25382.00024.50769-.00146.76153a1.12533,1.12533,0,0,1-.015.2031.22762.22762,0,0,1-.24274.2081.23786.23786,0,0,1-.252-.22209,1.41,1.41,0,0,1-.00786-.2038q-.00093-.60366-.0003-1.20731Zm.51839-.73436c0,.10518-.0042.21058.00112.31549.006.1182.03.147.14209.1509.15442.0054.30936.0013.46391-.00376a.3011.3011,0,0,0,.22529-.1153.503.503,0,0,0,.08045-.52339.40182.40182,0,0,0-.36794-.26925c-.13508-.0125-.27209-.00355-.40821-.00562a.11854.11854,0,0,0-.13653.13538Q61.08244,30.08191,61.08217,30.23969Z"/><path class="cls-2" d="M33.1535,30.89106q.00008-.59442.00032-1.18885a1.63334,1.63334,0,0,1,.00689-.204.24929.24929,0,0,1,.25613-.24443,7.87588,7.87588,0,0,1,.83568.00481.89324.89324,0,0,1,.83487.909q.0204.71454-.00188,1.43012a.91281.91281,0,0,1-.91993.93995c-.22919.0005-.45841.0024-.68758-.00017-.23825-.00266-.32236-.08749-.32487-.32747-.00234-.22288.00015-.44581.0003-.66872Q33.15366,31.21614,33.1535,30.89106Zm.49775.00623h-.00061q0,.06492,0,.12986c.00007.27826-.00172.55655.00095.8348.00157.16354.01722.178.18312.18114a3.111,3.111,0,0,0,.35229-.00568.39747.39747,0,0,0,.38225-.40337q.01127-.73259.00192-1.46543a.41635.41635,0,0,0-.42689-.42169c-.09256-.0048-.18555-.00274-.27833-.00185-.20392.002-.21247.00787-.214.20611C33.64943,30.26653,33.65125,30.58192,33.65125,30.89729Z"/><path class="cls-2" d="M49.407,30.59985c.12009-.17214.23019-.32794.33815-.48521.15759-.22961.31782-.45759.469-.69141.111-.17163.25738-.21.3904-.12366.13027.08458.13828.23079.02036.4078-.17156.25753-.34.51756-.52312.76676a.31452.31452,0,0,0-.02685.37327c.21261.4194.41311.84493.61792,1.26828a1.3013,1.3013,0,0,1,.06782.15241.22728.22728,0,0,1-.10329.28676.23942.23942,0,0,1-.31855-.04944.80458.80458,0,0,1-.09264-.15994c-.15965-.32833-.31757-.65749-.47649-.98617-.02153-.04452-.04331-.08917-.06875-.1315-.03037-.05052-.06748-.0492-.1019-.00347a.77949.77949,0,0,0-.23578.5645,2.49927,2.49927,0,0,1-.0191.5556c-.01832.15525-.09489.24087-.22456.24826a.25525.25525,0,0,1-.26484-.23411.78323.78323,0,0,1-.00743-.12951q.00084-1.29957.00258-2.59916a.62061.62061,0,0,1,.02348-.20192.23724.23724,0,0,1,.21672-.17449.24649.24649,0,0,1,.24772.15947.561.561,0,0,1,.0303.21921c-.00059.25373-.00225.50747-.00068.76118A.29973.29973,0,0,0,49.407,30.59985Z"/><path class="cls-2" d="M37.10007,30.90446q0-.59466.00006-1.18931c0-.04955-.00137-.09924.0017-.14862a.28789.28789,0,0,1,.31421-.31307c.13611-.00566.27261-.00219.40894-.002q.409.00069.818.00234c.03717.00012.07446-.00091.11151.00152.18076.0119.28456.10854.2779.25744-.00638.1429-.10607.23156-.27913.234-.2912.004-.58249.0014-.87374.0017-.04337,0-.08675.00137-.13011.001a.1121.1121,0,0,0-.12931.12281c-.00117.19815-.0014.39634.00049.59448.0009.09422.06042.129.14649.12957.14872.001.29747-.0004.44614.00246a1.27952,1.27952,0,0,1,.22168.017.22965.22965,0,0,1,.20741.24393.23257.23257,0,0,1-.21525.23835,1.38851,1.38851,0,0,1-.222.01449c-.14868.00257-.29741.00163-.44612.0027a.1251.1251,0,0,0-.14.1364c-.00813.2289.0076.45821-.01581.687-.00846.0827.052.104.12089.10514.11152.00182.22306.00224.3346.00265.1859.00069.37183-.00059.5577.0021a1.078,1.078,0,0,1,.203.01817.244.244,0,0,1,.20839.22835.24946.24946,0,0,1-.20459.25176.74788.74788,0,0,1-.16591.015q-.57632.00091-1.1526-.00178a.92127.92127,0,0,1-.16636-.01338.26178.26178,0,0,1-.23533-.2488,1.27377,1.27377,0,0,1-.00553-.167q-.0006-.61321-.00021-1.22645Z"/><path class="cls-2" d="M52.62762,32.59891a.23539.23539,0,0,1-.23869-.26923.77042.77042,0,0,1,.03672-.14366q.41586-1.30977.83284-2.61918a1.36582,1.36582,0,0,1,.049-.14016.29656.29656,0,0,1,.53393-.003.95217.95217,0,0,1,.04465.12191q.41232,1.32057.82376,2.64141a1.04285,1.04285,0,0,1,.03429.12525.22044.22044,0,0,1-.13921.2697.24527.24527,0,0,1-.29839-.08135.68081.68081,0,0,1-.09222-.22164c-.02959-.09451-.05624-.19-.08745-.28393-.05384-.16209-.05774-.16646-.21952-.1681-.22915-.00232-.45843.00339-.68747-.00205a.17681.17681,0,0,0-.19984.14858c-.03906.14322-.08218.28571-.132.4255A.26528.26528,0,0,1,52.62762,32.59891Zm.97049-2.32547-.05075.00221q-.14065.46011-.28126.92024c-.02146.07032-.01265.12811.07581.13012q.23184.00528.46387.00029c.07439-.00158.09414-.05071.07462-.116Q53.74022,30.74157,53.59811,30.27344Z"/><path class="cls-2" d="M58.72146,32.3678a.21759.21759,0,0,1-.1756.23.24853.24853,0,0,1-.30321-.15022c-.0532-.13845-.09184-.28247-.13731-.42391-.06244-.19419-.06263-.19475-.27209-.19535-.21684-.00061-.43373.00278-.6505-.00082a.16519.16519,0,0,0-.18646.13931c-.03962.14948-.08509.29783-.13664.44363a.25418.25418,0,0,1-.26284.19344.2359.2359,0,0,1-.22315-.31238c.04975-.19157.11327-.37965.173-.56854q.34179-1.08028.68515-2.16006a1.04417,1.04417,0,0,1,.03632-.10523.30972.30972,0,0,1,.29067-.19319.271.271,0,0,1,.27206.21108c.11383.34709.22243.6959.33178,1.04445q.25023.7975.49837,1.59567A.95278.95278,0,0,1,58.72146,32.3678ZM57.5704,30.279l-.04234-.0039c-.02486.07488-.05089.1494-.07437.22471-.07.2244-.14146.44838-.20721.674-.03471.11908-.01323.15157.10336.15608.14209.0055.28462.002.42689-.00081.0717-.00143.10048-.04173.07941-.11131Q57.714,30.74823,57.5704,30.279Z"/><path class="cls-2" d="M30.13911,29.21655a.26518.26518,0,0,1,.267.19141c.05887.163.10938.329.16116.49445q.344,1.099.6863,2.19849a1.13189,1.13189,0,0,1,.04714.17925.2251.2251,0,0,1-.1705.26948.23288.23288,0,0,1-.29271-.13248,3.92337,3.92337,0,0,1-.13018-.38688c-.07411-.24253-.07277-.24314-.33265-.24359-.18586-.00032-.37172-.00118-.55756.00032-.19267.00155-.1971.00534-.25751.19565-.0412.12981-.07554.262-.12159.39a.259.259,0,0,1-.25257.18352.23017.23017,0,0,1-.236-.23434.74646.74646,0,0,1,.0507-.23511q.40845-1.29293.8199-2.58487C29.88348,29.30311,29.98509,29.21655,30.13911,29.21655Zm.01094.99923-.04082-.00217q-.14816.48531-.29623.97064c-.02259.07415.01263.1038.08294.10426q.23151.00147.463.00233c.08833.00045.10343-.0455.08036-.121Q30.29359,30.69315,30.15005,30.21578Z"/><path class="cls-2" d="M43.00308,32.31933a.23731.23731,0,0,1-.18539.24882.24593.24593,0,0,1-.29214-.14042c-.04327-.10221-.07263-.21038-.1069-.31631-.019-.05885-.03739-.118-.05278-.17792a.169.169,0,0,0-.18905-.139q-.36205.00488-.72422-.00027a.15843.15843,0,0,0-.17527.12879c-.04491.15438-.09335.3078-.14338.46062a.24619.24619,0,0,1-.24645.18824.22773.22773,0,0,1-.24307-.27634A2.322,2.322,0,0,1,40.725,32.01q.383-1.21227.76771-2.424a1.14281,1.14281,0,0,1,.07218-.19051.27794.27794,0,0,1,.27424-.156.26294.26294,0,0,1,.25616.18058c.05195.14561.09969.2928.14592.44035q.35789,1.14232.71372,2.28527C42.97511,32.21043,42.99124,32.27634,43.00308,32.31933Zm-1.17968-2.0519-.01764.00627c-.122.29726-.20042.60858-.29315.91524-.02151.07111.02064.10627.08742.10793.13588.00338.272.00676.40775.00178.13328-.00488.14725-.02736.10734-.16412-.0744-.25494-.152-.509-.23-.76283C41.87316,30.33289,41.87131,30.285,41.8234,30.26743Z"/><path class="cls-2" d="M46.77417,30.61272c0,.3466.00379.69327-.001,1.03981a.88027.88027,0,0,1-.5701.85738.95229.95229,0,0,1-1.056-.17451.87051.87051,0,0,1-.28793-.56651,4.85893,4.85893,0,0,1-.02167-.61177c-.00033-.45183-.00161-.90367.001-1.35549a2.55294,2.55294,0,0,1,.02391-.33276.2231.2231,0,0,1,.23055-.21972.2333.2333,0,0,1,.25461.2172,1.26066,1.26066,0,0,1,.00916.20359q-.00046.947-.00224,1.894a.56689.56689,0,0,0,.054.30647.46746.46746,0,0,0,.5168.20368.42073.42073,0,0,0,.34388-.36725,1.45643,1.45643,0,0,0,.00738-.20383q.00171-.92843.00262-1.85684a1.08238,1.08238,0,0,1,.009-.185.23475.23475,0,0,1,.26061-.21009.22941.22941,0,0,1,.22331.22916c.00839.117.00363.23506.00378.35265q.00051.38994.00011.77988Z"/><path class="cls-2" d="M25.87988,30.891c0,.2351-.00274.47024.00073.70529a.4377.4377,0,0,0,.3875.4658.46877.46877,0,0,0,.51979-.32489,1.10083,1.10083,0,0,1,.04243-.12246.22951.22951,0,0,1,.25948-.13391.21856.21856,0,0,1,.19972.20985.63944.63944,0,0,1-.13513.48837,1.0225,1.0225,0,0,1-1.64-.07009.87511.87511,0,0,1-.1317-.45828c-.00211-.5135-.0068-1.02713.00224-1.54048a.92147.92147,0,0,1,.90648-.90006,1.00793,1.00793,0,0,1,.84175.35161.65307.65307,0,0,1,.15982.49852.23324.23324,0,0,1-.20126.23172.23072.23072,0,0,1-.25605-.14069c-.02761-.05493-.04244-.11612-.06726-.17264a.4531.4531,0,0,0-.53438-.26544.40681.40681,0,0,0-.35063.41689c-.00884.25335-.002.50723-.002.76089Z"/><path class="cls-2" d="M64.82915,31.14629c0-.37772.00122-.75544-.00053-1.13315-.00086-.18718-.01315-.198-.20186-.20213A1.10573,1.10573,0,0,1,64.35,29.786a.24222.24222,0,0,1,.01157-.47444.81367.81367,0,0,1,.166-.01518q.54822-.002,1.09645.0002a.70237.70237,0,0,1,.18343.02159.24424.24424,0,0,1,.18556.24715.237.237,0,0,1-.19255.22123,1.12842,1.12842,0,0,1-.22094.023c-.252.00746-.25254.00618-.25294.26627q-.0016,1.04957-.00255,2.09913c-.00007.05572.00194.11167-.00218.16713-.01364.18382-.10493.27628-.26269.2695-.1511-.00649-.22883-.09312-.23042-.27637-.00343-.39626-.001-.79258-.001-1.18888Z"/></g></g></svg>