<svg width="70" height="40" viewBox="0 0 70 40" xmlns="http://www.w3.org/2000/svg"><title>profilefie</title><desc>Created with Sketch.</desc><g fill-rule="nonzero" fill="none"><path d="M7.144 18.997c-.258 0-.634-.02-.981-.04l-.981 5.286h-2.775l2.795-14.99c1.199-.071 2.487-.091 3.974-.091 2.854 0 4.608 1.332 4.608 3.823 0 3.379-2.943 6.022-6.63 6.022l-.01-.01zm1.546-7.485c-.505 0-.803 0-1.13.02l-.912 4.973c.238.071.505.071.783.071 1.903 0 3.449-1.443 3.449-3.218 0-1.089-.585-1.846-2.18-1.846h-.01zM19.313 17.665c.287.484.565 1.089.852 1.644l2.487 4.933h-3.32l-2.834-6.194h-.109l-1.159 6.194h-2.795l2.795-14.99c1.159-.071 2.507-.091 4.083-.091 3.211 0 4.628 1.241 4.628 3.42 0 2.663-1.853 4.489-4.628 5.084zm-.456-6.154c-.525 0-.981.02-1.268.071l-.803 4.328c.198.02.456.04.961.04 1.873 0 3.231-1.15 3.231-2.845 0-1.039-.634-1.604-2.121-1.604v.01z" id="Shape" fill="#006BBA"/><path d="M28.866 24.485c-3.726 0-5.45-2.068-5.45-5.468 0-5.417 3.726-10.017 8.621-10.017 3.558 0 5.43 1.997 5.43 5.488 0 5.77-3.885 9.997-8.592 9.997h-.01zm2.705-12.882c-3.141 0-5.173 3.349-5.173 6.93 0 2.108 1.001 3.329 2.854 3.329 2.993 0 5.212-3.218 5.212-7.041 0-1.937-.912-3.218-2.904-3.218h.01z" id="Shape" fill="#CD0023"/><path fill="#006BBA" d="M46.802 11.693h-4.925l-.723 3.864h4.667l-.456 2.371h-4.648l-1.179 6.315h-2.795l2.795-15h7.73zM48.18 24.243h-2.795l2.795-15h2.795zM57.108 24.243h-7.462l2.785-15h2.795l-2.329 12.468h4.687zM68.564 11.663h-5.064l-.704 3.692h4.826l-.456 2.35h-4.806l-.743 4.065h5.044l-.456 2.471h-7.839l2.795-15h7.839zM2.249 31.95c-.505 0-.882-.02-1.249-.03l.832-4.469c.337-.01.862-.03 1.358-.03 1.249 0 1.863.575 1.863 1.614 0 1.503-.922 2.915-2.804 2.915zm.832-3.803l-.545.02-.565 3.016c.109.02.277.03.396.03 1.328 0 1.794-1.231 1.794-2.088 0-.595-.258-.979-1.09-.979h.01zM9.007 28.167h-1.506l-.218 1.1h1.447l-.139.706h-1.437l-.218 1.211h1.506l-.139.736h-2.339l.832-4.479h2.339zM14.963 28.177h-1.477l-.208 1.15h1.387l-.129.706h-1.387l-.357 1.886h-.832l.832-4.479h2.309zM16.479 31.919h-.832l.832-4.479h.832zM21.255 28.167h-1.506l-.218 1.1h1.447l-.139.706h-1.437l-.218 1.211h1.506l-.139.736h-2.339l.832-4.479h2.339zM25.487 28.177h-1.12l-.704 3.743h-.823l.694-3.743h-1.11l.139-.736h3.052zM28.608 28.197c-.208-.071-.436-.111-.614-.111-.565 0-.793.282-.793.585 0 .676 1.268.696 1.268 1.775 0 .857-.753 1.554-1.833 1.554-.277 0-.565-.03-.793-.081l.149-.817c.208.081.466.141.704.141.565 0 .862-.242.862-.646 0-.646-1.259-.646-1.259-1.715 0-.807.585-1.503 1.734-1.503.258 0 .476.01.723.061l-.139.767-.01-.01zM32.324 28.197c-.208-.071-.436-.111-.614-.111-.565 0-.793.282-.793.585 0 .676 1.268.696 1.268 1.775 0 .857-.753 1.554-1.833 1.554-.277 0-.565-.03-.793-.081l.149-.817c.208.081.466.141.704.141.565 0 .862-.242.862-.646 0-.646-1.259-.646-1.259-1.715 0-.807.585-1.503 1.734-1.503.258 0 .476.01.723.061l-.139.767-.01-.01zM34.752 30.356l-.297-.01-.297 1.574h-.832l.832-4.479c.357-.02.743-.03 1.189-.03.852 0 1.377.393 1.377 1.14 0 1.009-.882 1.796-1.982 1.796l.01.01zm.466-2.239l-.337.01-.277 1.483.238.02c.565 0 1.031-.434 1.031-.958 0-.323-.178-.555-.654-.555zM40.48 28.167h-1.506l-.208 1.1h1.437l-.139.706h-1.427l-.228 1.211h1.506l-.139.736h-2.339l.842-4.479h2.339zM44.731 28.318c-.258-.091-.535-.141-.793-.141-1.159 0-1.556 1.18-1.556 2.068 0 .575.228.948.941.948.327 0 .634-.071.912-.182l-.059.787c-.337.111-.733.182-1.11.182-1.338 0-1.635-.837-1.635-1.564 0-1.523.882-3.006 2.586-3.006.357 0 .664.05.922.121l-.218.787h.01zM46.475 31.919h-.842l.842-4.479h.832zM50.737 31.919l-.129-.918h-1.625l-.466.918h-.862l2.349-4.479h.941l.704 4.479h-.912zm-.406-2.774c-.03-.242-.059-.474-.069-.716h-.01c-.099.232-.208.494-.347.746l-.604 1.14h1.209l-.188-1.17h.01zM55.027 31.919h-2.23l.832-4.479h.832l-.694 3.722h1.397zM57.089 31.919h-.832l.832-4.479h.832zM61.399 28.197c-.208-.071-.436-.111-.614-.111-.565 0-.793.282-.793.585 0 .676 1.268.696 1.268 1.775 0 .857-.753 1.554-1.833 1.554-.277 0-.565-.03-.793-.081l.149-.817c.208.081.466.141.704.141.565 0 .862-.242.862-.646 0-.646-1.259-.646-1.259-1.715 0-.807.585-1.503 1.734-1.503.258 0 .476.01.723.061l-.139.767-.01-.01zM65.611 28.177h-1.12l-.704 3.743h-.823l.694-3.743h-1.11l.129-.736h3.062z"/></g></svg>