<?xml version="1.0" encoding="UTF-8"?>
<svg id="Layer_1" data-name="Layer 1" xmlns="http://www.w3.org/2000/svg" viewBox="0 0 70 40">
  <defs>
    <style>
      .cls-1 {
        fill: #ec2024;
      }

      .cls-2 {
        fill: #ffd400;
      }

      .cls-3 {
        fill: #2f3b96;
      }
    </style>
  </defs>
  <g>
    <path class="cls-3" d="M59.55478,7.0285c.43187-.89555,.86084-1.79205,1.29271-2.6876,.11664,.91193,.22943,1.82387,.348,2.73484,.88109-.30944,1.75928-.62563,2.63844-.94182-.60828,.77987-1.21752,1.55877-1.82676,2.33767,.6613,.52055,1.33223,1.02665,1.99353,1.5472-.89651,.08772-1.79398,.16099-2.68953,.24967-.0347,.92736-.06459,1.85568-.09736,2.78303-.50224-.69504-.99966-1.39393-1.50382-2.088-.71432,.6613-1.42285,1.32934-2.13716,1.98967,.2622-.92832,.53309-1.85375,.79529-2.78111-.84349-.1205-1.68794-.23232-2.53143-.35186,.80782-.46368,1.61661-.92736,2.4254-1.38911-.3239-.8165-.6613-1.62818-.99002-2.44178,.76251,.34222,1.52407,.68829,2.28272,1.03918Z"/>
    <path class="cls-3" d="M34.33588,12.36128c.74998-.06266,1.49804-.13689,2.24802-.20437-.54176,2.81774-1.08063,5.63548-1.62528,8.45322-.26413,1.32066-.87434,2.64518-1.9916,3.45301-1.09124,.80107-2.48998,1.03725-3.81643,1.00448-1.12883-.02892-2.31357-.3133-3.17249-1.08545-.72492-.64876-1.10184-1.62625-1.09316-2.59024,.01446-1.34476,.50609-2.70495,1.45273-3.67569,.80782-.83771,1.89617-1.3573,3.01825-1.62239,1.40357-.3374,2.86015-.24871,4.28879-.19762,.22847-1.17896,.46368-2.35695,.69118-3.53495Zm-4.99924,5.45136c-.89747,.43669-1.5366,1.29078-1.82194,2.23453-.23811,.76059-.42608,1.62528-.08483,2.38491,.26317,.59671,.90711,.91193,1.52599,.98809,.85313,.10989,1.79302,.02314,2.50637-.49838,.58514-.42705,.91579-1.11823,1.06328-1.8123,.26028-1.23873,.51477-2.47938,.77023-3.71907-1.32163-.15231-2.73869-.18412-3.9591,.42223Z"/>
    <path class="cls-3" d="M37.89685,17.50994c1.46719-1.29367,3.51856-1.75446,5.43304-1.57419,.79915,.08387,1.64456,.31522,2.21043,.92061,.56393,.60153,.64684,1.53371,.34993,2.2808-.2863,.72878-.937,1.24547-1.6301,1.56745-1.84218,.81168-3.94464,.7577-5.88419,.36921-.0376,.75095,.09543,1.56166,.62659,2.12945,.70371,.76251,1.77181,1.02954,2.76665,1.14329,.89747,.10025,1.80266,.0482,2.70013-.02699l-.05495,.02988c-1.15871,.70853-2.52372,1.0787-3.88295,1.00351-1.285-.04916-2.63651-.42994-3.54941-1.38043-.54562-.56297-.88012-1.32163-.92736-2.10439-.09929-1.63396,.60153-3.28913,1.84218-4.35819Zm.72781,2.23356c1.04978,.20533,2.13427,.2622,3.19562,.12339,.60249-.09543,1.24355-.24967,1.69758-.68347,.43669-.41355,.49453-1.25801-.04145-1.61275-.4685-.30655-1.0575-.28341-1.59444-.26413-1.4402,.09351-2.73676,1.10184-3.25732,2.43696Z"/>
    <path class="cls-3" d="M61.985,15.97431c1.27439-.15713,2.63072-.09254,3.80101,.48296,.82421,.40391,1.48551,1.15486,1.70433,2.05522,.29209,1.17414,.00482,2.42347-.53405,3.48289-.77119,1.49515-2.22489,2.57096-3.83089,3.01921-1.22137,.34125-2.5324,.40198-3.77112,.11857-.98712-.23136-1.94726-.78372-2.46395-1.68216-.52827-.89362-.54755-2.00028-.29112-2.98451,.3374-1.37272,1.21655-2.59409,2.39262-3.37492,.8888-.60731,1.92991-.97266,2.99318-1.11726Zm.18701,1.54527c-1.38236,.26895-2.60373,1.31295-3.00764,2.67314-.20147,.72396-.36632,1.51443-.10797,2.24513,.17545,.51863,.6237,.91193,1.1404,1.07388,1.36694,.42705,2.94209-.05109,3.88584-1.11726,.66419-.71432,.96881-1.68891,1.03822-2.64518,.03856-.66226-.16581-1.3785-.69504-1.80941-.62081-.51091-1.49225-.58032-2.25381-.4203Z"/>
    <path class="cls-3" d="M7.37408,16.2423c1.89327-.37788,3.84439-.25642,5.74537,.00193-.14942,.4309-.30173,.86084-.45211,1.29174-1.42767-.11086-2.87365-.18701-4.29553,.02988-.52152,.09351-1.07196,.20051-1.50382,.52923-.20919,.15327-.34222,.42512-.26028,.68347,.10122,.33643,.45886,.48681,.76637,.58032,1.13172,.31715,2.35599,.28823,3.43084,.803,.52248,.24196,.94374,.73456,.99676,1.32163,.07134,.79047-.15617,1.62432-.68347,2.22874-.46079,.53598-1.10377,.88012-1.76699,1.09991-1.07292,.35378-2.21428,.42319-3.3354,.40777-1.24933-.03374-2.50251-.17641-3.71136-.50224,.11568-.45018,.23136-.8994,.34704-1.34862,1.46237,.20822,2.94499,.39138,4.42278,.24871,.6131-.07037,1.25222-.18894,1.76506-.55526,.37981-.27377,.61406-.80493,.42415-1.25608-.16388-.32968-.54176-.46271-.87434-.55044-1.01122-.24967-2.07836-.23425-3.06356-.59285-.46271-.16966-.91097-.47717-1.09895-.95049-.29884-.75191-.06266-1.64938,.50031-2.21428,.69889-.72106,1.68987-1.04593,2.64711-1.25608Z"/>
    <path class="cls-3" d="M18.47248,16.0119c1.23776-.14267,2.55746-.07134,3.67954,.51863,.81843,.42223,1.46333,1.19149,1.6677,2.09764,.26702,1.15486-.03374,2.37623-.59189,3.39999-.82325,1.49611-2.33189,2.543-3.97356,2.9527-1.18956,.29498-2.45913,.32872-3.6487,.0135-.94953-.25257-1.85375-.83578-2.3049-1.73229-.49356-.96013-.42319-2.10631-.10893-3.10983,.39716-1.29464,1.28114-2.42154,2.42636-3.13875,.85891-.54562,1.847-.87337,2.85437-1.00158Zm-.06748,1.59829c-1.34476,.30173-2.49191,1.37658-2.82449,2.72134-.19376,.77408-.32486,1.66192,.09447,2.3878,.34511,.59574,1.05653,.84638,1.71108,.88591,1.15486,.10315,2.33864-.3721,3.10597-1.23873,.67094-.7307,.99291-1.72843,1.01219-2.70881,.0106-.66515-.23521-1.37658-.79625-1.77085-.6613-.47621-1.54238-.44825-2.30297-.27666Z"/>
    <path class="cls-3" d="M46.50624,16.04564c.68058-.00096,1.36115,0,2.04173-.00096,.87916,1.16064,1.82676,2.2673,2.78593,3.36239-.46753,.42223-.96977,.80204-1.43056,1.23198l-.03567,.00193c-.12532-.06266-.21979-.17352-.30848-.27859-1.09027-1.38622-2.10053-2.83316-3.05295-4.31674Z"/>
    <path class="cls-3" d="M51.06783,22.07828c.58611-.3104,1.06906-.77697,1.56841-1.20595,1.3062,1.44887,2.63651,2.87654,3.98031,4.29168-.92736,.00096-1.85471,0-2.78207,0-.92254-.90422-1.79302-1.8605-2.65964-2.81774-.02699-.06748-.08001-.20147-.107-.26799Z"/>
  </g>
  <path class="cls-1" d="M51.33389,19.40707c2.22489-1.94533,4.27625-4.08442,6.17435-6.34883-.9476,2.9498-2.57385,5.71645-4.872,7.81409-.49935,.42897-.9823,.89555-1.56841,1.20595-.01542,.02506-.04724,.07423-.06266,.09929-1.94533,1.29464-4.23191,2.17572-6.59079,2.17187l.05495-.02988c1.90966-1.0546,3.69786-2.3155,5.39834-3.67858l.03567-.00193c.46079-.42994,.96302-.80975,1.43056-1.23198Z"/>
  <g>
    <path class="cls-2" d="M1.27589,29.34965c.68347-.15809,1.39971-.07037,2.07065,.10893,0,.29787-.00096,.59574-.00289,.89362-.58514-.09833-1.19727-.25835-1.78627-.10893-.38849,.06941-.48971,.67383-.13978,.85409,.55333,.27666,1.22812,.29691,1.71204,.71432,.455,.35186,.48874,1.01026,.36632,1.52792-.12917,.53309-.63334,.87723-1.14136,1.00255-.77697,.18701-1.58673,.06941-2.35406-.10893-.00096-.3104-.00096-.62081,.00289-.93025,.65166,.15713,1.3438,.31908,2.01088,.16291,.42897-.08869,.52345-.77215,.14074-.97363-.52634-.27474-1.17703-.27281-1.6436-.66804-.49742-.36921-.57261-1.09316-.36728-1.64071,.18123-.46946,.67479-.70757,1.13172-.83385Z"/>
    <path class="cls-2" d="M21.34228,29.67644c.79625-.55044,1.85375-.46271,2.73869-.20147,0,.30751,0,.61406-.00193,.92157-.54176-.11279-1.11148-.27474-1.66095-.12532-.49645,.1446-.43765,.98809,.08387,1.04689,.75191,.05206,1.50864,.00771,2.26248,.02217,.00193,.30366,.00193,.60731,.00096,.91097-.12243,.00096-.24485,.00193-.36632,.00386-.00096,.64105,.00096,1.2821-.00096,1.92316-.96688,.25546-2.06776,.45018-3.0009-.01542-.75191-.34125-.92447-1.43441-.40777-2.04462,.13399-.17834,.33161-.29112,.5273-.38945-.74516-.38367-.85699-1.55877-.17448-2.05233Zm.89651,2.64808c-.44729,.14074-.48778,.85409-.08483,1.07099,.32872,.17834,.71721,.10218,1.06906,.05302,0-.39909,0-.79722-.00096-1.19535-.32679,.00868-.66804-.0376-.98327,.07134Z"/>
    <path class="cls-2" d="M27.6352,29.99167c.86373-.84349,2.22489-.82614,3.31034-.48585-.00193,.46368,0,.92736-.00096,1.39007-.31908,.00096-.63623,.00193-.95435-.00096-.00096-.21304-.00096-.42608,0-.63912-.47717-.11279-1.05653-.08869-1.40453,.30366-.38849,.4444-.30751,1.07678-.30751,1.62336-.00964,.54176,.28823,1.151,.85217,1.28692,.6102,.13689,1.24547,.02217,1.83254-.16484,.00096,.2998,.00096,.60153,.00193,.90229-.81264,.28245-1.72554,.32004-2.54879,.06073-.79625-.25449-1.27921-1.07774-1.30717-1.88556-.03181-.81264-.10025-1.7641,.52634-2.39069Z"/>
    <path class="cls-2" d="M35.66811,29.34579c.56201-.00289,1.12401-.00096,1.68602-.00096,.00193,1.68409,.00096,3.36721,0,5.0513h-1.15582c-.00193-1.39489,.00193-2.78882-.00193-4.18275-.17641-.00096-.35186-.00193-.5273-.00193-.00193-.28823-.00193-.57743-.00096-.86566Z"/>
    <path class="cls-2" d="M54.41865,29.34869c.70371,0,1.40742-.00386,2.11113,0,.46464,.00868,.96688,.1311,1.285,.49453,.34896,.39909,.40391,.96399,.37306,1.47394-.02988,.53887-.26992,1.10184-.74902,1.38718-.54465,.34993-1.21848,.28052-1.83543,.28823-.00096,.47043,0,.94182,0,1.41224-.3962,.00096-.79047,.00096-1.18571,0,0-1.68505,0-3.37107,.00096-5.05612Zm1.1751,.91386c.00096,.59864-.00096,1.19727,.00096,1.79687,.40777-.0241,.92157,.10315,1.23198-.23907,.23136-.3856,.26124-.92736,.03663-1.32066-.31908-.34896-.85024-.21015-1.26957-.23714Z"/>
    <path class="cls-2" d="M16.33147,29.79116h1.15486c.00096,.30462,.00096,.60828,.00096,.9129h.92447c.00096,.2892,.00096,.57839,.00096,.86759h-.92447c.00578,.46657-.01542,.9341,.00868,1.39971,.0106,.1928,.0829,.42223,.28534,.49163,.23329,.07712,.48392,.05109,.72588,.05784,.00096,.28823,.00096,.57647,.00096,.8647-.56683-.01639-1.19824,.09061-1.69662-.24871-.32679-.20919-.45693-.60828-.47332-.97845-.02217-.52827-.00193-1.0575-.00964-1.58673h-.46946c-.00193-.2892-.00289-.57839-.00096-.86759h.46946c.00193-.30462,.00193-.60828,.00289-.9129Z"/>
    <path class="cls-2" d="M38.32872,29.79212c.3856-.00096,.77119-.00193,1.15679,.00096,0,.30366,0,.60731,.00096,.91097,.30655,0,.61502,0,.92254-.00096,.00289,.2892,.00193,.57839,.00096,.86855h-.9235c.00482,.46657-.01542,.93314,.00868,1.39971,.01157,.18798,.07616,.4097,.26992,.48489,.23618,.08676,.49356,.05688,.74131,.06459,.00096,.28823,.00096,.57647,.00096,.8647-.55526-.01735-1.16643,.08676-1.66192-.22557-.34896-.2034-.49356-.61792-.50802-1.00255-.02217-.52827-.00193-1.05653-.00964-1.5848-.15713-.00096-.31426-.00096-.47043-.00193-.00193-.28823-.00193-.57743,0-.86566,.15713-.00096,.3133-.00193,.47043-.00193,.00096-.30366,.00096-.60731,.00096-.91097Z"/>
    <path class="cls-2" d="M5.47599,31.28052c.40006-.33161,.86181-.67286,1.41128-.63238,.53983-.02217,1.03629,.41259,1.06135,.9582,.03856,.66708,.11857,1.43345-.33932,1.98678-.50995,.63141-1.35922,.85409-2.14198,.78083-.00193,.42801,0,.85602-.00096,1.28403-.3827,.00096-.76541,.00193-1.14715,0,.00193-1.65131-.00193-3.30262,.00096-4.95394,.3856,0,.77023-.00096,1.15486,.00096,.00096,.19087,.00096,.3827,.00096,.5755Zm-.00096,.83674c.00193,.46946,.00096,.93989,.00096,1.40935,.35764,.00675,.76348,.01542,1.04014-.25353,.34318-.28823,.32101-.77505,.30944-1.18089,0-.18798-.03181-.42608-.23907-.49453-.45115-.14363-.78854,.27956-1.11148,.51959Z"/>
    <path class="cls-2" d="M9.91227,30.70405c.54658-.08772,1.1404-.07037,1.63974,.19183,.49645,.27184,.74902,.84445,.78758,1.39007,.04242,.59189-.07134,1.24547-.50513,1.6812-.40873,.40873-1.02279,.50127-1.57709,.47139-.48007-.02121-.99773-.1687-1.30235-.5649-.40198-.51284-.45211-1.21463-.36342-1.8364,.10315-.66804,.6478-1.23391,1.32066-1.3332Zm.28534,.86759c-.26606,.04916-.41259,.3104-.45211,.55815-.06459,.37114-.05688,.77697,.11953,1.11823,.16388,.31522,.59382,.34029,.89265,.23136,.28823-.11375,.3827-.44633,.41837-.72492,.03181-.34125,.02217-.72299-.19183-1.00737-.19087-.22172-.52152-.22847-.78661-.17545Z"/>
    <path class="cls-2" d="M14.18852,31.25835c.3104-.43861,.83674-.6613,1.36886-.58225,.00289,.32294,.00193,.64684,.00096,.97074-.4791-.01928-1.01122,.00386-1.36886,.3721,.00193,.79047,.00096,1.58191,.00096,2.37334-.3856,.00096-.77119,.00096-1.15582,0-.00096-1.22716-.00193-2.45431,0-3.68147,.38463-.00096,.77023-.00096,1.15486,0,.00096,.18219,.00096,.36439-.00096,.54755Z"/>
    <path class="cls-2" d="M48.66846,31.26702c.44922-.48199,1.15197-.62948,1.78723-.60442,.44247,.02892,.93025,.13399,1.24162,.47332,.38078,.49838,.27281,1.42574-.38656,1.63203-.58611,.18894-1.2127,.07423-1.81615,.11279,.01832,.21208,.05977,.46657,.2863,.55526,.56875,.25642,1.20981,.04242,1.79013-.06941,.00386,.29884,.00386,.59767,.00193,.89651-.86277,.2275-1.86628,.35378-2.66061-.14653-.40198-.22943-.55815-.71432-.54658-1.15389,.00964-.57068-.10989-1.22812,.30269-1.69566Zm1.044,.47139c-.17352,.13881-.18316,.37403-.21401,.57647,.35186-.00386,.70564,.02506,1.05557-.0241,.31522-.03085,.35089-.54851,.06748-.65262-.29016-.11664-.66419-.11182-.90904,.10025Z"/>
    <path class="cls-2" d="M63.57269,30.94409c.77794-.39909,1.68602-.3239,2.51794-.17255,.00096,.28534,.00096,.57068,0,.85602-.54369-.07037-1.11341-.20437-1.65035-.0347-.1552,.03278-.21208,.26317-.08001,.35764,.55429,.23136,1.22909,.21015,1.69084,.64105,.42415,.48007,.27281,1.40742-.37596,1.61564-.82325,.32101-1.73614,.26702-2.5912,.12243-.00096-.29884-.00096-.59574,0-.89362,.59382,.09254,1.21173,.22365,1.80555,.06362,.19376-.0241,.28245-.31426,.09158-.40584-.45886-.24003-1.02086-.18701-1.45851-.47717-.59478-.34607-.57454-1.36886,.05013-1.67252Z"/>
    <path class="cls-2" d="M67.81038,30.74936c.65262-.17834,1.33609-.08869,1.99256,.02217,0,.28534,0,.56972-.00096,.85506-.53887-.07037-1.10087-.19762-1.63589-.04049-.18219,.03085-.24196,.33643-.04145,.38656,.55044,.20919,1.21559,.2034,1.65902,.64105,.36535,.45886,.26895,1.28789-.29691,1.54817-.84253,.37596-1.80362,.31522-2.69146,.16773-.00096-.29787-.00096-.59574,.00096-.89362,.59864,.09158,1.22619,.22943,1.82387,.05688,.16966-.03181,.25546-.28245,.09736-.38463-.49067-.27088-1.11726-.19183-1.56841-.5514-.36246-.26702-.4203-.80011-.2622-1.19631,.15809-.36824,.56297-.51959,.9235-.61117Z"/>
    <path class="cls-2" d="M31.62032,30.70502c.38849-.00193,.77697-.00193,1.16546,0,.00771,.8165-.01735,1.63492,.01157,2.45142-.00771,.31619,.38463,.4926,.63912,.33161,.22172-.15135,.43669-.33065,.59574-.54755,.01832-.74516,0-1.49033,.00675-2.23549,.38849-.00193,.77697-.00193,1.16643,0v3.68147c-.38945,0-.77794,0-1.16643-.00096-.00096-.21401-.00096-.42801,.00193-.64105-.28052,.30462-.60249,.63238-1.03629,.68154-.41837,.05977-.91193-.02121-1.18089-.37885-.21497-.31715-.19955-.72106-.20533-1.08834,.00193-.75095,0-1.50286,.00193-2.25381Z"/>
    <path class="cls-2" d="M41.02789,30.70502c.38849-.00193,.77697-.00193,1.16643,0,.00771,.81071-.01446,1.62239,.00964,2.43311-.01542,.30848,.34993,.50609,.6131,.36535,.24485-.13592,.42897-.35571,.63141-.54369,0-.75288-.00289-1.50479,.00096-2.2567,.38752,.00096,.77601,0,1.16353,.00193,.00096,1.22716,.00193,2.45431,0,3.68147-.38849,0-.77697,0-1.16546-.00096,0-.21208-.00096-.42512,.00289-.63623-.32968,.36921-.75577,.73552-1.28596,.69407-.52152,.03663-1.07774-.31619-1.10569-.87241-.06844-.95242-.0135-1.91159-.03085-2.86594Z"/>
    <path class="cls-2" d="M45.54032,30.7108c.38463-.00096,.77023-.00096,1.15582,0-.00096,.18316-.00096,.36632-.00289,.55044,.30848-.44247,.83867-.66226,1.37176-.58418,0,.32294,0,.64587-.00096,.96881-.48007-.01832-1.01122,.00578-1.36886,.3721,.00096,.79143,.00193,1.58383,0,2.37527h-1.15486c-.00096-1.22812-.00193-2.45528,0-3.68244Z"/>
    <path class="cls-2" d="M59.91532,30.85347c.77119-.25546,1.59926-.10122,2.39648-.14267,.00096,1.22716,.00096,2.45431,0,3.68244h-1.15486c-.00193-.19087-.00193-.38174-.00096-.57165-.36728,.29112-.76348,.61117-1.25511,.62659-.43379,.04724-.92832-.1446-1.10955-.56393-.1928-.44247-.11471-.93892-.13978-1.40742-.00675-.75384,.58707-1.37561,1.26379-1.62336Zm-.06362,1.37272c-.0723,.37403-.10893,.79047,.01832,1.15486,.40488,.41837,.93603-.08001,1.24933-.3721,.06459-.47332,.00868-.96206,.02506-1.44116-.50899-.05591-1.12883,.11375-1.29271,.6584Z"/>
  </g>
</svg>