<svg id="Layer_1" data-name="Layer 1" xmlns="http://www.w3.org/2000/svg" viewBox="0 0 70 40"><defs><style>.cls-1{fill:#59bbb3;}.cls-2{fill:#010101;isolation:isolate;opacity:0.05;}.cls-3{fill:#e31055;}.cls-4{fill:#e8e6e2;}.cls-5{fill:#fcca0c;}</style></defs><rect class="cls-1" width="70" height="40" rx="3.70584"/><g id="_0101010e" data-name="#0101010e"><path class="cls-2" d="M14.689,10.71933c.30424-.09333.53206.197.73195.37847-.36451.15873-.71211.35054-1.07294.51662C14.36786,11.29989,14.384,10.90011,14.689,10.71933Z"/><path class="cls-2" d="M41.41983,13.87126a7.04793,7.04793,0,0,1,.20724,2.85211A6.55,6.55,0,0,1,41.41983,13.87126Z"/><path class="cls-2" d="M25.41838,15.563a2.19192,2.19192,0,0,1,.03748-.97446,2.40908,2.40908,0,0,1,.12272.83556C25.52714,15.47259,25.47129,15.51668,25.41838,15.563Z"/><path class="cls-2" d="M47.6605,15.9216c.0904.03528.20578.03822.27339.11759a.75191.75191,0,0,1,.01028.4571A2.06479,2.06479,0,0,1,47.6605,15.9216Z"/><path class="cls-2" d="M40.319,19.84664a1.69471,1.69471,0,0,1,.5519-1.77255c.06027.07129.122.1433.183.21532a4.2128,4.2128,0,0,1-.62245,1.56311Z"/><path class="cls-2" d="M30.25394,19.59458a2.02249,2.02249,0,0,1,.363-1.178,1.31591,1.31591,0,0,0,.28072.29763A2.32077,2.32077,0,0,1,30.25394,19.59458Z"/><path class="cls-2" d="M18.0085,19.62691a1.68755,1.68755,0,0,1,.58276-.94139,1.89067,1.89067,0,0,1-.26529,1.27356A1.81316,1.81316,0,0,0,18.0085,19.62691Z"/><path class="cls-2" d="M34.24291,18.88761c.11538.1727.2337.3432.35716.51075a1.24651,1.24651,0,0,1-.363.48062A1.39277,1.39277,0,0,1,34.24291,18.88761Z"/><path class="cls-2" d="M21.56021,19.7636a2.49835,2.49835,0,0,0,.69447-.01617,1.52774,1.52774,0,0,1-.56366.24251C21.64693,19.91425,21.60357,19.83929,21.56021,19.7636Z"/><path class="cls-2" d="M24.65483,19.7636a2.74626,2.74626,0,0,0,.69006-.011,1.57445,1.57445,0,0,1-.56293.23663C24.7386,19.91425,24.69671,19.83929,24.65483,19.7636Z"/><path class="cls-2" d="M37.26992,19.76727a2.53853,2.53853,0,0,0,.69594-.02057,1.26808,1.26808,0,0,1-.54161.22267C37.31769,19.97084,37.31622,19.83415,37.26992,19.76727Z"/><path class="cls-2" d="M39.32761,23.25873c.06393.136.13007.27044.19548.40639a3.82691,3.82691,0,0,1-.32335.46445C39.224,23.83709,39.27763,23.54827,39.32761,23.25873Z"/><path class="cls-2" d="M49.4676,23.78564a.98567.98567,0,0,1,.61877-.44975C50.06506,23.6394,49.71378,23.7342,49.4676,23.78564Z"/><path class="cls-2" d="M53.1222,24.33607a3.18338,3.18338,0,0,0,.75252-.025,1.51024,1.51024,0,0,1-.5666.24839C53.20891,24.52788,53.18319,24.40662,53.1222,24.33607Z"/></g><g id="_e41055ff" data-name="#e41055ff"><path class="cls-3" d="M13.55581,8.99969a2.07817,2.07817,0,0,1,1.75712-.011,3.32888,3.32888,0,0,1,1.43376,1.6072c.04189-.00147.12567-.00515.16682-.00662a.37412.37412,0,0,0,.15947-.06246,6.13185,6.13185,0,0,1,4.10582.22267,3.23787,3.23787,0,0,1,1.48448,1.49035c.05291-.00367.16021-.011.21385-.01543a4.31426,4.31426,0,0,1,2.43028.66581,9.91538,9.91538,0,0,1,1.253-1.54841,4.09167,4.09167,0,0,1,2.26934-1.084,4.59642,4.59642,0,0,1,2.761.35495A3.139,3.139,0,0,1,33.05019,12.4a3.09244,3.09244,0,0,1-.10215,2.31416,3.20213,3.20213,0,0,1-1.9085,1.47639,2.08935,2.08935,0,0,1-1.44406-.02131,1.04238,1.04238,0,0,1-.59158-.66728,2.19013,2.19013,0,0,1,.12052-1.31692,1.43863,1.43863,0,0,1,1.81811-.65772.58154.58154,0,0,1,.097.74591c-.122.26823-.45343.16461-.67537.13375.02867-.03822.08746-.11464.11685-.15286a1.7662,1.7662,0,0,0,.30939-.3013c.06247-.19181-.18519-.26456-.33-.24546a1.22111,1.22111,0,0,0-.89582.71285,1.74274,1.74274,0,0,0-.24178,1.14863.62236.62236,0,0,0,.41668.42329,2.28986,2.28986,0,0,0,1.7946-.40786,2.86929,2.86929,0,0,0,.48576-.49532,3.09684,3.09684,0,0,0,.208-3.39665,2.75259,2.75259,0,0,0-2.43542-1.192,5.57281,5.57281,0,0,0-2.30608.66287,5.447,5.447,0,0,0-1.87764,2.02388,2.33972,2.33972,0,0,1,.6614,2.11942.72408.72408,0,0,1-.66287.63421,1.015,1.015,0,0,1-.92669-.86864,2.92175,2.92175,0,0,1,.402-1.7483,3.00473,3.00473,0,0,0-2.35385-.83777,1.60622,1.60622,0,0,1-.41227,1.15525,1.34075,1.34075,0,0,1-1.24563.59525c-.37921-.15138-.30719-.63935-.25207-.96123a1.89437,1.89437,0,0,1,.85321-.74224c.08818-.03895.1771-.07569.26676-.11317a2.8963,2.8963,0,0,0-1.75344-1.4639,5.31126,5.31126,0,0,0-3.34154-.1264,4.39877,4.39877,0,0,1-.05732,2.78449.7571.7571,0,0,1-.60482.49752,8.40641,8.40641,0,0,0,.12567-1.15745,4.66354,4.66354,0,0,0-.44608-1.749c-.5666.30351-1.1207.63127-1.69979.91126.41447,1.5102.92963,2.98953,1.38747,4.48649a6.7367,6.7367,0,0,1,.399,2.53684A4.1655,4.1655,0,0,1,14.22456,21.786a7.72614,7.72614,0,0,1-7.61933.84365A4.68626,4.68626,0,0,1,4.455,20.79759a2.5,2.5,0,0,1-.03307-2.33915A4.04769,4.04769,0,0,1,7.37172,16.5661a6.304,6.304,0,0,1,3.92945.79809c.39023.29689.948.47033,1.14422.95462-.0801.24545-.3476.07349-.48943-.014a5.55122,5.55122,0,0,0-2.88958-.8782,7.05052,7.05052,0,0,0-3.321.59232,2.22306,2.22306,0,0,0-1.14275,1.11924,1.359,1.359,0,0,0,.269,1.31692,3.49877,3.49877,0,0,0,1.26915.94874,9.66469,9.66469,0,0,0,5.35881.79294,3.44608,3.44608,0,0,0,2.43983-1.14642,2.23792,2.23792,0,0,0,.32335-1.64542,9.79354,9.79354,0,0,0-.49384-1.89748c-.521-1.69171-1.07662-3.37387-1.50432-5.09277a2.855,2.855,0,0,1-1.968-1.641,1.48824,1.48824,0,0,1,0-1.13761c.23075-.33805.58717-.7584,1.04721-.59379l.00368.01764a1.54438,1.54438,0,0,1,.04115.2653c-.133.158-.33731.27631-.37406.49678a1.8594,1.8594,0,0,0,.41889,1.57119,1.92713,1.92713,0,0,0,.75032.4887,4.01216,4.01216,0,0,1,.26309-1.76814,2.55426,2.55426,0,0,1,1.109-1.11409m.66507,1.47125a1.90334,1.90334,0,0,0-.15285,1.26841c.09333-.04115.18666-.0823.28-.12493.36083-.16608.70843-.35789,1.07294-.51662q.15653-.06394.31306-.12714a1.65565,1.65565,0,0,0-.86791-.7856.5835.5835,0,0,0-.64523.28588m6.87929,3.07991c-.08377.13522.01911.27265.07276.39537a1.073,1.073,0,0,0,.64376-.50927,2.89046,2.89046,0,0,0,.14845-.63715,2.051,2.051,0,0,0-.865.75105m3.94782,1.386c.01544.24913.06026.59159.37039.62613.05291-.0463.10876-.09039.1602-.1389a.55855.55855,0,0,0,.15065-.33143,2.70479,2.70479,0,0,0-.35642-1.40658A2.41773,2.41773,0,0,0,25.048,14.93685Z"/><path class="cls-3" d="M50.91018,11.57841a2.42442,2.42442,0,0,1,2.15543-.00588,4.30485,4.30485,0,0,1,1.87617,2.02021,3.91682,3.91682,0,0,1,.35569,2.76318,2.97678,2.97678,0,0,1-1.61676,1.74536,6.61639,6.61639,0,0,1-3.63769.48944c-.26162,1.181-.50561,2.3656-.7687,3.54583a2.15408,2.15408,0,0,0-.05879.51737,5.46672,5.46672,0,0,0,.70476-.45637,1.30346,1.30346,0,0,1,1.02958-.14477.68587.68587,0,0,1,.45857.6004,1.2342,1.2342,0,0,1-.76576,1.22506c-.10949.075-.28.10435-.32775.24031.19547.40786.61436.64156.83629,1.03178a4.59079,4.59079,0,0,1-1.36468-.011c-.3307-.25942-.54676-.63935-.89069-.88775-.10509.26015-.15653.53794-.25133.80177-.02352.12566-.16241.11611-.26015.13081a5.12507,5.12507,0,0,1-.8363-.025,11.75063,11.75063,0,0,1,.25354-1.38967c.37626-1.82473.78191-3.64358,1.14128-5.47051a5.958,5.958,0,0,0-.743-.41889,10.45213,10.45213,0,0,1-.83336.74959,4.63655,4.63655,0,0,1-4.352.71651,2.69829,2.69829,0,0,1-.707-.424c-.11391-.10068-.2234-.2065-.33364-.31012-.52985.4887-.73195,1.24857-1.31765,1.68289a1.21276,1.21276,0,0,1-1.54327-.13375,1.65993,1.65993,0,0,1,.10142-1.96509,2.89688,2.89688,0,0,1,1.9401-1.02664A8.25923,8.25923,0,0,1,40.621,14.8641a6.83853,6.83853,0,0,1,.16461-2.02462,1.337,1.337,0,0,1,.30792-.59085c.23223-.14477.474.07863.62539.24251a4.48108,4.48108,0,0,1,.912,2.81242,7.361,7.361,0,0,1-.34834,2.28477c-.03086.1433-.09994.30351-.0169.44314a1.97687,1.97687,0,0,0,1.42348.93919,4.92635,4.92635,0,0,0,3.14091-.5813,2.36962,2.36962,0,0,0,.70035-.57321c.07423-.10362.14331-.21165.21385-.31821a3.24959,3.24959,0,0,1-.81352-1.45508.80623.80623,0,0,1,.16756-.76722.734.734,0,0,1,1.12438.11317,2.62467,2.62467,0,0,1,.19768,1.99816,4.101,4.101,0,0,0,.63274.43358,5.562,5.562,0,0,1,.24913-1.00165,4.05442,4.05442,0,0,1,1.10233-.13595,11.85547,11.85547,0,0,1-.27044,1.48374,5.226,5.226,0,0,0,3.11593-.43138,3.21732,3.21732,0,0,0,1.64615-1.58148,2.86544,2.86544,0,0,0-.05732-2.16351,3.19383,3.19383,0,0,0-2.05475-1.9695,3.032,3.032,0,0,0-1.68069.03968.95051.95051,0,0,0-.69888.89,1.556,1.556,0,0,0,.995,1.32941.47982.47982,0,0,0,.63127-.37626c-.02278-.21753-.258-.21606-.42183-.22855.02058-.08525.04189-.16976.06394-.255.25794.03087.57542.0463.73268.28881a.54326.54326,0,0,1-.29469.77017,1.736,1.736,0,0,1-1.58-.291,1.44257,1.44257,0,0,1-.66067-1.38379,1.80623,1.80623,0,0,1,1.03987-1.2258m-9.84089,2.17748a9.07,9.07,0,0,0,.18667,2.72864,1.9452,1.9452,0,0,0,.374.95094,1.7877,1.7877,0,0,0,.09848-.36377,12.367,12.367,0,0,0-.02719-3.174,4.7074,4.7074,0,0,0-.36671-1.25519,2.23537,2.23537,0,0,0-.2653,1.11336M47.282,15.67174a2.42764,2.42764,0,0,0,.71064,1.25593,2.10553,2.10553,0,0,0,.15359-1.167c-.10582-.34907-.74-.48429-.86423-.08892M40.44464,17.8a1.87681,1.87681,0,0,0-.55043,1.75932.45405.45405,0,0,0,.33363.40933.4686.4686,0,0,0,.46372-.29469,5.93425,5.93425,0,0,0,.67389-1.60646c.06982-.219-.09847-.40125-.19768-.57836a1.78758,1.78758,0,0,0-.72313.31086m9.28311,5.09277a1.24139,1.24139,0,0,0-.671.65406c-.083.10435-.06613.30644.09774.30938a1.00259,1.00259,0,0,0,1.1604-.68565C50.33991,22.86409,49.949,22.78546,49.72775,22.89275Z"/><path class="cls-3" d="M28.41525,12.31477c.13081-.04409.28.03307.22047.19034q-.57211,3.20337-1.14643,6.40675a2.5193,2.5193,0,0,0-.06393.72607c.03013.18079.24986.14184.36156.06467a1.85781,1.85781,0,0,0,.65773-1.04427c.07422-.16976.21532-.014.2381.09847a.82032.82032,0,0,1-.22782.72754,2.83462,2.83462,0,0,1-1.7483,1.05751.40177.40177,0,0,1-.452-.31968A3.60288,3.60288,0,0,1,26.362,18.8979q.55559-2.91567,1.10674-5.83134a1.78061,1.78061,0,0,1,.158-.5857A4.15688,4.15688,0,0,1,28.41525,12.31477Z"/><path class="cls-3" d="M56.549,16.80567c.21606-.02425.44167-.13228.65552-.04629a2.73624,2.73624,0,0,1-.086.68418c-.37553,2.10178-.75914,4.20282-1.12732,6.30607a1.06873,1.06873,0,0,0,.03013.6129c.449-.025.729-.45049.86717-.8341.06393-.13669.06467-.338.23-.39684.19327.09995.17711.36818.12493.54823a2.21262,2.21262,0,0,1-.72533.8679,2.38217,2.38217,0,0,1-1.21551.5835.4246.4246,0,0,1-.49458-.2234,2.22123,2.22123,0,0,1,.00367-1.0869c.43506-2.251.8488-4.50634,1.28974-6.75583C56.1176,16.841,56.38657,16.84977,56.549,16.80567Z"/><path class="cls-3" d="M64.69669,16.85638c.291-.03454.5982-.19474.887-.10068a1.94245,1.94245,0,0,1-.061.6129q-.54786,3.03031-1.0869,6.06136a1.86135,1.86135,0,0,0-.02792.9289.95045.95045,0,0,0,.7268-.52545c.15286-.23149.16535-.53279.35716-.74224.26823.22635.169.61658.02719.88628A2.42758,2.42758,0,0,1,63.75456,25.129a.46344.46344,0,0,1-.56954-.2359,2.46527,2.46527,0,0,1,0-1.00018q.64377-3.37425,1.28238-6.74922C64.48136,17.01365,64.546,16.86593,64.69669,16.85638Z"/><path class="cls-3" d="M34.675,17.10477a.459.459,0,0,1,.524.2168,1.77964,1.77964,0,0,1,.23517,1.36909c-.07422.1874.08084.338.147.49973-.04336.10435-.1727.12272-.25942.17784-.18886.072-.2697.27264-.39463.41595a1.43146,1.43146,0,0,1-1.30737.62465,1.17267,1.17267,0,0,1-.937-1.12732A1.61047,1.61047,0,0,1,33.447,17.786a3.63619,3.63619,0,0,1,.75106-.30056c.17122-.11024.27264-.31821.47694-.38068m-.0169.57322c-.10877.15873-.03454.35862.00441.52765.05144.13889.08745.35568.28.34172a1.07927,1.07927,0,0,0-.01176-.7393c-.02793-.10215-.18152-.26015-.27264-.13007m-.85835,1.18464c-.083.388-.11391.93037.32923,1.10894a.91225.91225,0,0,0,.6614-.91861,3.87768,3.87768,0,0,1-.56-.96711C33.92838,18.21446,33.87621,18.58116,33.79978,18.86263Z"/><path class="cls-3" d="M18.61772,17.42a.82167.82167,0,0,1,.88848.00882,1.28062,1.28062,0,0,1,.31968,1.29781,2.43558,2.43558,0,0,1-1.09719,1.54988,1.18793,1.18793,0,0,1-1.23021-.02425c-.18.546-.18739,1.13026-.3307,1.6851-.03454.133-.19254.14992-.30571.16976a2.77,2.77,0,0,1-.66948.04336c-.10877-.11612-.0294-.30351-.02646-.44681.22782-1.3.449-2.60151.67536-3.90226.01617-.13816.07937-.29175.23884-.30792a3.06269,3.06269,0,0,1,.8488-.11023c.0022.20209-.01176.40418-.01984.607a2.6059,2.6059,0,0,1,.70843-.57027m-.23076.815a1.49029,1.49029,0,0,0-.7099.97667.96709.96709,0,0,0-.07937.50413,2.58321,2.58321,0,0,0,.28073.0316q.07055.18739.14257.37479c.11464-.00587.255.03087.34246-.0676a1.64289,1.64289,0,0,0,.3645-.69888,1.88234,1.88234,0,0,0,.08011-.93846A.30144.30144,0,0,0,18.387,18.235Z"/><path class="cls-3" d="M20.10146,19.71069a1.98887,1.98887,0,0,1,1.82767-2.48025.98388.98388,0,0,1,1.0428.79147,1.158,1.158,0,0,1-.90465,1.21257,2.30386,2.30386,0,0,1-.862-.03454.7618.7618,0,0,0,.219.79221c.23884.15653.53279.011.75252-.11023.29249-.158.41228-.485.62833-.718.22341.00294.11979.26236.06761.39023a1.79621,1.79621,0,0,1-2.02021.85247,1.09611,1.09611,0,0,1-.751-.69594m1.84383-2.10913c-.35495.13154-.48649.54235-.60187.86864-.06394.13081-.0632.38508.14477.34245a1.06186,1.06186,0,0,0,.68786-.79441C22.21867,17.8573,22.18487,17.52146,21.94529,17.60156Z"/><path class="cls-3" d="M23.13214,19.42923a1.99937,1.99937,0,0,1,1.95113-2.19732.968.968,0,0,1,.99136.86643,1.19238,1.19238,0,0,1-.9774,1.15157,2.97508,2.97508,0,0,1-.79809-.05.73116.73116,0,0,0,.26236.82308.85743.85743,0,0,0,.74885-.16609c.2991-.17637.39022-.55117.68418-.73342a.85958.85958,0,0,1-.35422.85247,1.78853,1.78853,0,0,1-1.85633.37112,1.11033,1.11033,0,0,1-.65184-.91787m1.52563-1.47713a1.31748,1.31748,0,0,0-.23076.87378c.416.01249.68786-.36744.81867-.718.05585-.169.08377-.41816-.09995-.51884C24.915,17.57363,24.76139,17.77426,24.65777,17.9521Z"/><path class="cls-3" d="M37.0884,17.31863a1.17685,1.17685,0,0,1,1.54474.54161,1.15875,1.15875,0,0,1-1.35587,1.38306c-.12787-.00515-.29028-.10656-.38655.02278a.7026.7026,0,0,0,.29689.76943.91921.91921,0,0,0,.75253-.18813c.25941-.17123.36377-.48429.59011-.68639l.08525.04042c.07937.24472-.119.49972-.277.679a1.80618,1.80618,0,0,1-1.86735.49678,1.127,1.127,0,0,1-.72975-.95609,2.06057,2.06057,0,0,1,1.34705-2.10251m.3454.40712a1.69512,1.69512,0,0,0-.4233.95756c.011.21312.28367.12861.39537.04557a1.03706,1.03706,0,0,0,.43726-1.1332A.47227.47227,0,0,0,37.4338,17.72575Z"/><path class="cls-3" d="M31.271,17.60082c.28-.305.71578-.21532,1.08543-.2212.10655.09186.061.23811.04482.35716-.10435.54381-.23222,1.08322-.3035,1.63292.147.05953.3498.0463.44093.19915-.02205.2484-.3138.20136-.48135.28514a2.27658,2.27658,0,0,0-.16976.51516,3.01371,3.01371,0,0,1-.90171,1.56237,1.51182,1.51182,0,0,1-1.04648.37259.48889.48889,0,0,1-.45857-.45343,1.52423,1.52423,0,0,1,.41448-1.00386,5.71938,5.71938,0,0,1,.95168-.82234c.14991-.12566.11684-.34907.14256-.5225-.40492.35495-.75546.87525-1.33823.92669a.66817.66817,0,0,1-.69079-.4593,1.80311,1.80311,0,0,1,.24325-1.64689,1.869,1.869,0,0,1,1.32426-.91861,1.39671,1.39671,0,0,1,.743.19695m-.94066.38288a2.10744,2.10744,0,0,0-.45857,1.372c.00514.17931.16755.38361.363.31526a1.41986,1.41986,0,0,0,.57836-.54749,2.042,2.042,0,0,0,.38067-.90832,1.06567,1.06567,0,0,1-.32849-.06026c-.04189-.14477.04409-.43359-.1874-.42109-.16241-.011-.25794.13963-.3476.24986m-.40419,3.4165c-.086.15947-.1749.488.07863.53059.49826-.26162.64009-.88114.78119-1.3816C30.36785,20.644,30.12681,21.0548,29.92618,21.4002Z"/><path class="cls-3" d="M41.94234,19.45274a.63052.63052,0,1,1-.20136,1.09572A.65094.65094,0,0,1,41.94234,19.45274Z"/><path class="cls-3" d="M39.46062,21.91315c.072-.24178.26089-.52324.54455-.50781.2822-.00588.47327.26162.5475.5056a2.25479,2.25479,0,0,1-.24619,1.59692c.15947.11978.51148.25206.32335.49825-.19769.16535-.40272-.12714-.618-.10435a4.418,4.418,0,0,1-.98034.78853c-.3285.15653-.73195.37112-1.08837.17784-.32409-.19989-.27411-.62171-.2969-.94727a9.58381,9.58381,0,0,1-.92155.80618,1.08053,1.08053,0,0,1-.89877.23957c-.57615-.16976-1.08763-.50634-1.66672-.668a4.56227,4.56227,0,0,0-2.384-.10509,2.39887,2.39887,0,0,0-1.07294.64743,2.662,2.662,0,0,1,.69227,1.49771.60993.60993,0,0,1-.79074.51883,1.27159,1.27159,0,0,1-.998-1.26769,1.46959,1.46959,0,0,1,.23737-.84218,5.03128,5.03128,0,0,0-3.0733-.44314,2.97385,2.97385,0,0,0-1.64248.81279,1.77748,1.77748,0,0,0-.46886,1.66158,2.548,2.548,0,0,0,1.02,1.45214,1.50181,1.50181,0,0,0,1.09278.27485.85314.85314,0,0,0,.56218-.58423,1.38548,1.38548,0,0,0-.55851-1.51975c-.22929-.16388-.67536-.18446-.79588.11611.08965.17931.31306.1727.47253.24839a1.26257,1.26257,0,0,1-.083.35422c-.2484-.11759-.55705-.18593-.71138-.43432a.64541.64541,0,0,1,.47033-.78413,1.32051,1.32051,0,0,1,1.41687.78266,1.77754,1.77754,0,0,1-.19989,1.59911,1.32806,1.32806,0,0,1-1.4029.43359,2.78844,2.78844,0,0,1-2.1275-2.32151,2.015,2.015,0,0,1,.65184-1.64248,3.80141,3.80141,0,0,1,2.248-.98622,4.83519,4.83519,0,0,1,3.45692.607,2.83578,2.83578,0,0,1,1.68363-.85541,8.046,8.046,0,0,1,3.66856.75253,7.20791,7.20791,0,0,1,.1705-1.01636c.10582-.438.15138-.88921.28513-1.32132a5.73019,5.73019,0,0,1,.93772-.07643c.11758-.02278.14992.12493.12125.21017a15.36171,15.36171,0,0,0-.352,1.84237c.00368.22781.2506.16829.3623.05438a3.6471,3.6471,0,0,0,1.0384-1.81811c.03013-.08892.05512-.2043.16168-.23149a4.49413,4.49413,0,0,1,.88848-.07129c-.03528.74665-.31233,1.458-.3454,2.2054-.01176.1073.03674.31086.18739.25648a1.19551,1.19551,0,0,0,.64524-.57027c.06614-.1242.15579-.27559.07569-.41522a2.05893,2.05893,0,0,1-.23884-1.40657m.39758.0779a.97177.97177,0,0,0-.05292.65919c.0294.0948.04557.25427.1852.20063a1.15222,1.15222,0,0,0-.04924-.8951l-.083.03528m-9.39555,3.17251a1.30222,1.30222,0,0,0-.14992,1.08763c.108.20651.35569.4211.60261.32776a.392.392,0,0,0,.13889-.39757A1.87586,1.87586,0,0,0,30.46265,25.16356Z"/><path class="cls-3" d="M45.51978,22.06747a1.255,1.255,0,0,1,.87672-.27558.52584.52584,0,0,1,.42109.48576c.04115.66214-.32262,1.26475-.34246,1.91806-.01984.1749.18593.11464.26235.04263.27559-.20871.305-.59453.546-.826a.37823.37823,0,0,1,.02058.5181,2.59856,2.59856,0,0,1-1.12659,1.00826.64693.64693,0,0,1-.69079-.04629.7338.7338,0,0,1-.14992-.61731,8.68768,8.68768,0,0,0,.28367-1.58736.707.707,0,0,0-.449.205,4.28312,4.28312,0,0,0-1.02811,1.69172,1.42816,1.42816,0,0,1-.1896.39463,1.487,1.487,0,0,1-.85174-.05144,16.2628,16.2628,0,0,1,.22635-1.61381,8.62266,8.62266,0,0,1,.2359-1.23682,2.8487,2.8487,0,0,1,.93184-.19254c.14036-.02572.14992.16535.13522.25868-.03675.31453-.144.618-.15139.937C44.86426,22.78252,45.10824,22.33644,45.51978,22.06747Z"/><path class="cls-3" d="M53.16849,21.786a1.1304,1.1304,0,0,1,1.38527.6467,1.19236,1.19236,0,0,1-1.45214,1.36984c-.1117-.01029-.2991-.1095-.33584.05438a.67021.67021,0,0,0,.33731.7709,1.13764,1.13764,0,0,0,1.06926-.57983c.09039-.11832.14625-.29249.3116-.32482.13521.12052.03527.316-.02573.449a1.84341,1.84341,0,0,1-2.08781.81132,1.13012,1.13012,0,0,1-.765-.86643,2.07585,2.07585,0,0,1,1.5631-2.33107m.29763.366a1.53934,1.53934,0,0,0-.56806.94947c-.05512.12493.01984.32776.18372.266a1.11367,1.11367,0,0,0,.69594-.86937C53.8321,22.30631,53.69982,22.01383,53.46612,22.152Z"/><path class="cls-3" d="M61.7711,21.77425a.55888.55888,0,0,1,.63568.49973,9.27785,9.27785,0,0,1-.3432,1.77108c-.02939.08819-.0169.31086.12861.25207.35275-.13081.41742-.55705.60628-.84.03675.00073.11024.00294.147.00367.12052.29249-.09627.55778-.27558.765a1.84608,1.84608,0,0,1-1.27945.79221.48745.48745,0,0,1-.48135-.52765c-.01029-.6129.32923-1.17582.29029-1.79313a.724.724,0,0,0-.48209.23517,4.45355,4.45355,0,0,0-1.0046,1.70053,1.06587,1.06587,0,0,1-.18151.35275,3.456,3.456,0,0,1-.77457.00661c-.14551-.061-.07055-.23075-.06614-.34834.15653-.86055.25721-1.73139.43652-2.5868a3.1006,3.1006,0,0,1,1.10013-.15727c.01176.3961-.1411.7709-.16609,1.16406a2.45688,2.45688,0,0,0,.53353-.53867A2.13194,2.13194,0,0,1,61.7711,21.77425Z"/><path class="cls-3" d="M41.78875,21.93887a1.471,1.471,0,0,1,.69447-.01249c-.07422.69741-.341,1.361-.46078,2.0518a.27148.27148,0,0,0,.1095.30866c.37333-.06467.51883-.47915.58718-.804.03233-.00441.09774-.01249.13081-.0169l.08819.0022a1.87978,1.87978,0,0,1-1.0046,1.39408.94816.94816,0,0,1-.876.13081.52826.52826,0,0,1-.20356-.50413,10.52056,10.52056,0,0,1,.31747-1.63953A3.12406,3.12406,0,0,1,41.4,22.06233.84511.84511,0,0,1,41.78875,21.93887Z"/><path class="cls-3" d="M57.72627,23.98774a.54854.54854,0,0,1,.68859.16241A.67664.67664,0,0,1,58.37,24.924a.60665.60665,0,0,1-.87967-.14625A.58569.58569,0,0,1,57.72627,23.98774Z"/></g><g id="_e9e7e3ff" data-name="#e9e7e3ff"><path class="cls-4" d="M15.31293,8.98867a2.88231,2.88231,0,0,1,1.60058,1.60058c-.04115.00147-.12493.00515-.16682.00662A3.32888,3.32888,0,0,0,15.31293,8.98867Z"/><path class="cls-4" d="M11.34747,9.06a.60917.60917,0,0,1,.37994.59526c-.02352.24766-.36745.25942-.3939.50854a1.58873,1.58873,0,0,0,.68418,1.63807,3.37094,3.37094,0,0,1,.42917-1.688,4.01216,4.01216,0,0,0-.26309,1.76814,1.92713,1.92713,0,0,1-.75032-.4887A1.8594,1.8594,0,0,1,11.01456,9.822c.03675-.22047.24105-.33878.37406-.49678A1.54438,1.54438,0,0,0,11.34747,9.06Z"/><path class="cls-4" d="M10.13784,11.089a1.55017,1.55017,0,0,1,.15874-1.45288,1.48824,1.48824,0,0,0,0,1.13761,2.855,2.855,0,0,0,1.968,1.641c.4277,1.7189.98328,3.40106,1.50432,5.09277a9.79354,9.79354,0,0,1,.49384,1.89748,2.23792,2.23792,0,0,1-.32335,1.64542,3.63017,3.63017,0,0,0-.09039-2.51258c-.42256-1.26107-.793-2.53831-1.19346-3.806-.197-.60114-.31747-1.22359-.50266-1.8284A3.083,3.083,0,0,1,10.13784,11.089Z"/><path class="cls-4" d="M14.22088,10.47094a.5835.5835,0,0,1,.64523-.28588,1.65565,1.65565,0,0,1,.86791.7856q-.15654.06283-.31306.12714c-.19989-.18152-.42771-.4718-.73195-.37847-.305.18078-.32115.58056-.341.89509-.09333.04263-.18666.08378-.28.12493A1.90334,1.90334,0,0,1,14.22088,10.47094Z"/><path class="cls-4" d="M27.48635,11.1632a5.57281,5.57281,0,0,1,2.30608-.66287,2.75259,2.75259,0,0,1,2.43542,1.192,3.09684,3.09684,0,0,1-.208,3.39665,3.106,3.106,0,0,0,.41447-2.14293,2.264,2.264,0,0,0-.912-1.44038,2.70194,2.70194,0,0,0-2.0158-.43432,4.97538,4.97538,0,0,0-2.38177.97961,7.57263,7.57263,0,0,0-1.12071,1.39187,2.50321,2.50321,0,0,1,.63274,1.78946,1.29612,1.29612,0,0,1-.37406,1.02223.92072.92072,0,0,1-1.0384.11023,1.34841,1.34841,0,0,1-.70108-.97667,2.94405,2.94405,0,0,1,.34467-1.71449,2.844,2.844,0,0,0-1.80269-.67316,2.1694,2.1694,0,0,1-1.1501,1.64689.91733.91733,0,0,1-1.10159-.06394,1.1599,1.1599,0,0,1,.00514-1.3081c-.05512.32188-.12714.80985.25207.96123a1.34075,1.34075,0,0,0,1.24563-.59525,1.60622,1.60622,0,0,0,.41227-1.15525,3.00473,3.00473,0,0,1,2.35385.83777,2.92175,2.92175,0,0,0-.402,1.7483,1.015,1.015,0,0,0,.92669.86864.72408.72408,0,0,0,.66287-.63421,2.33972,2.33972,0,0,0-.6614-2.11942A5.447,5.447,0,0,1,27.48635,11.1632Z"/><path class="cls-4" d="M16.8437,10.82956a5.31126,5.31126,0,0,1,3.34154.1264,2.8963,2.8963,0,0,1,1.75344,1.4639c-.08966.03748-.17858.07422-.26676.11317a3.47324,3.47324,0,0,0-1.98714-1.22065,5.00285,5.00285,0,0,0-2.442-.01763,4.81077,4.81077,0,0,1-.14624,2.70586,1.00868,1.00868,0,0,1-.5688.58864.3355.3355,0,0,1-.47989-.2381,7.55211,7.55211,0,0,1,.10509-.88407,4.43933,4.43933,0,0,0-.3182-1.63366c-.43506.23443-.85909.488-1.30223.70549.40566,1.4176.88114,2.81316,1.31619,4.2212a7.04775,7.04775,0,0,1,.42109,2.73379,4.17353,4.17353,0,0,1-1.4345,2.45893,7.84778,7.84778,0,0,1-8.86275.85394A4.41749,4.41749,0,0,1,4.222,20.96514a2.67625,2.67625,0,0,1,.19989-2.5067A2.5,2.5,0,0,0,4.455,20.79759a4.68626,4.68626,0,0,0,2.15028,1.83207,7.72614,7.72614,0,0,0,7.61933-.84365,4.1655,4.1655,0,0,0,1.72331-2.64633,6.7367,6.7367,0,0,0-.399-2.53684c-.45784-1.497-.973-2.97629-1.38747-4.48649.57909-.28,1.13319-.60775,1.69979-.91126a4.66354,4.66354,0,0,1,.44608,1.749,8.40641,8.40641,0,0,1-.12567,1.15745.7571.7571,0,0,0,.60482-.49752A4.39877,4.39877,0,0,0,16.8437,10.82956Z"/><path class="cls-4" d="M31.5907,10.61277a3.23816,3.23816,0,0,1,1.84825,2.2517,3.27909,3.27909,0,0,1-.17858,2.24214,3.48374,3.48374,0,0,1-2.35091,1.68363,2.0488,2.0488,0,0,1-1.56017-.233,1.307,1.307,0,0,1-.54969-.95682,2.18685,2.18685,0,0,1,.32482-1.4154A2.19013,2.19013,0,0,0,29.0039,15.502a1.04238,1.04238,0,0,0,.59158.66728,2.08935,2.08935,0,0,0,1.44406.02131,3.20213,3.20213,0,0,0,1.9085-1.47639A3.09244,3.09244,0,0,0,33.05019,12.4,3.139,3.139,0,0,0,31.5907,10.61277Z"/><path class="cls-4" d="M21.1788,10.74946a3.50937,3.50937,0,0,1,1.69833,1.47492c-.05364.00441-.16094.01176-.21385.01543A3.23787,3.23787,0,0,0,21.1788,10.74946Z"/><path class="cls-4" d="M50.32227,11.876a2.70552,2.70552,0,0,1,1.73434-.63347,3.05522,3.05522,0,0,1,2.13558.91053,5.22124,5.22124,0,0,1,1.6072,3.36652,2.969,2.969,0,0,1-.70622,2.165,4.53371,4.53371,0,0,1-2.41558,1.31986,7.74743,7.74743,0,0,1-2.3149.13081c-.21532,1.03619-.44461,2.06871-.66654,3.10343a1.71108,1.71108,0,0,1,1.37424-.27778,1.03668,1.03668,0,0,1,.70917.71431A2.275,2.275,0,0,1,53.5161,21.664a1.4359,1.4359,0,0,1,1.39114.78633c.2969-1.702.63862-3.39739.95536-5.09645.03233-.21091.11023-.46371.33731-.5372a6.33881,6.33881,0,0,1,.93845-.18226.43808.43808,0,0,1,.463.49679c-.4086,2.35091-.85908,4.69447-1.2471,7.04905a1.52707,1.52707,0,0,0,.32335-.5034,1.16315,1.16315,0,0,1,.26015-.535.41554.41554,0,0,1,.61436.11832.96214.96214,0,0,1,.0926.65552,1.09436,1.09436,0,0,1,.92522.097c.072-.52838.16021-1.05383.24913-1.57927a.54825.54825,0,0,1,.37553-.48723,5.58087,5.58087,0,0,1,.95315-.15653c.29248.0169.42991.316.43212.57615a2.329,2.329,0,0,1,1.03839-.64156.89006.89006,0,0,1,.96711.31453,1.79294,1.79294,0,0,1,.014,1.422.6279.6279,0,0,1,.47033-.09847c.35862-1.99816.75767-3.98971,1.12511-5.98714.03675-.20871.09259-.45783.3138-.54455a6.1569,6.1569,0,0,1,.9458-.19622.439.439,0,0,1,.48282.51149q-.46518,2.6037-.93184,5.20815c-.10362.60849-.23369,1.2133-.31086,1.82546a1.51314,1.51314,0,0,0,.35128-.5857.72166.72166,0,0,1,.32262-.50854.43371.43371,0,0,1,.56292.24545,1.08814,1.08814,0,0,1-.21018,1.08543,3.26719,3.26719,0,0,1-1.9695,1.22947.73527.73527,0,0,1-.76061-.33217,1.108,1.108,0,0,1-.11758-.6129,2.28512,2.28512,0,0,1-1.15524.79735.81523.81523,0,0,1-.99431-.41374,2.93967,2.93967,0,0,1,.16241-1.65056,4.37666,4.37666,0,0,0-.865,1.53665c-.07864.22194-.18152.50267-.45269.53353a1.93045,1.93045,0,0,1-1.01856-.08451.999.999,0,0,1-1.07294-.02866.8816.8816,0,0,1-.32188-.73048,2.79674,2.79674,0,0,1-1.94672.99063.76911.76911,0,0,1-.68711-.74371,2.0758,2.0758,0,0,1-2.49789.41742,1.51951,1.51951,0,0,1-.6739-1.30149,1.948,1.948,0,0,1-.54749.37921c.2021.24692.46519.43725.64671.70108a.38778.38778,0,0,1-.26456.56807,5.962,5.962,0,0,1-1.17362.02351c-.41962.00368-.61657-.42109-.8804-.67389-.06908.19034-.07569.42624-.24692.55925a1.35978,1.35978,0,0,1-.79515.12861c-.22634-.00368-.50487.01175-.66214-.183-.21091-.28955-.011-.65038.03308-.96124a2.23566,2.23566,0,0,1-1.49771.96271.75523.75523,0,0,1-.80176-.52618,3.17707,3.17707,0,0,1,.19475-1.56311,4.26132,4.26132,0,0,0-.85541,1.50432c-.08378.21679-.16829.51148-.43506.55557a2.32972,2.32972,0,0,1-.93257-.02645c-.30571-.11611-.2991-.50781-.21018-.7687a2.57834,2.57834,0,0,1-1.22285.837.85055.85055,0,0,1-.9289-.27485,1.06065,1.06065,0,0,1-.12493-.66066,1.82243,1.82243,0,0,1-.47548-.1558,3.00463,3.00463,0,0,1-1.70788,1.00827.88423.88423,0,0,1-.98769-.65773,1.996,1.996,0,0,1-1.52048.69741,21.34026,21.34026,0,0,0-2.44865-.84,2.86542,2.86542,0,0,0-2.309.4255,3.34717,3.34717,0,0,1,.58644,1.24563.90412.90412,0,0,1-.449.95168,1.28128,1.28128,0,0,1-1.29635-.16388,1.75526,1.75526,0,0,1-.52544-2.02388,4.73583,4.73583,0,0,0-3.04464-.17049,2.0751,2.0751,0,0,0-1.36322,1.11923,1.54973,1.54973,0,0,0,.15873,1.42568,1.95,1.95,0,0,0,1.156.9436.6065.6065,0,0,0,.48576-.03748.79047.79047,0,0,0,.27853-.57615,1.32424,1.32424,0,0,0-.33732-.82014c-.0191.20357-.0316.46592-.23369.5813-.19768.12493-.41521-.00808-.60334-.08451a.8606.8606,0,0,1-.58644-.63715.98141.98141,0,0,1,.53426-.94948,1.49111,1.49111,0,0,1,1.27135.13081,1.55023,1.55023,0,0,1,.8025,1.33677,1.88484,1.88484,0,0,1-.61657,1.59544,1.7511,1.7511,0,0,1-1.53444.25574,3.0291,3.0291,0,0,1-2.28036-2.80139,2.48488,2.48488,0,0,1,1.1354-1.97906,5.2372,5.2372,0,0,1,2.99908-.81646,4.69179,4.69179,0,0,1,2.4876.59893,3.10049,3.10049,0,0,1,2.14514-.80249,8.03864,8.03864,0,0,1,2.98364.668c.0926-.52618.22855-1.04354.31159-1.57119.0463-.24839.10215-.57689.38582-.65846a7.38476,7.38476,0,0,1,.93772-.08525.45.45,0,0,1,.45122.53133c-.097.50192-.23223.99577-.32923,1.4977a3.85249,3.85249,0,0,0,.80617-1.6197.52537.52537,0,0,1,.46739-.36083A2.37374,2.37374,0,0,1,39.34231,21.8a1.08165,1.08165,0,0,1,.41815-.41742.77505.77505,0,0,1,.93183.21606,1.85016,1.85016,0,0,1,.36377,1.067c.025-.2866.11465-.64523.42624-.74223a6.61515,6.61515,0,0,1,.87452-.13522.4601.4601,0,0,1,.488.27485.74653.74653,0,0,1-.02278.4762c-.09333.35128-.17049.70623-.26382,1.05677l.136-.1749c.00661.01543.01837.0463.025.06173-.06835.32482-.21385.7393-.58718.804a.27148.27148,0,0,1-.1095-.30866c.11979-.69079.38656-1.35439.46078-2.0518a1.471,1.471,0,0,0-.69447.01249.84511.84511,0,0,0-.38876.12346,3.12406,3.12406,0,0,0-.22855.78707,10.52056,10.52056,0,0,0-.31747,1.63953.52826.52826,0,0,0,.20356.50413.94816.94816,0,0,0,.876-.13081,1.87978,1.87978,0,0,0,1.0046-1.39408l-.08819-.0022-.10435-.00515c.10581-.12713.25279-.04042.3814-.03233.061-.37847.10068-.76282.19107-1.1354a.55317.55317,0,0,1,.49825-.38656,4.25472,4.25472,0,0,1,.826-.11243.50082.50082,0,0,1,.38876.57835,1.99868,1.99868,0,0,1,1.372-.67756.81771.81771,0,0,1,.78192.64964,2.63794,2.63794,0,0,1-.11611,1.10968.49119.49119,0,0,1,.621.03013c.316-1.61308.69594-3.2144.99357-4.83042-.11905-.06394-.23663-.13008-.35348-.19548A4.66318,4.66318,0,0,1,45.2295,19.843a3.589,3.589,0,0,1-2.215-.49679,4.63655,4.63655,0,0,0,4.352-.71651,10.45213,10.45213,0,0,0,.83336-.74959,5.958,5.958,0,0,1,.743.41889c-.35937,1.82693-.765,3.64578-1.14128,5.47051a11.75063,11.75063,0,0,0-.25354,1.38967,5.12507,5.12507,0,0,0,.8363.025c.09774-.0147.23663-.00515.26015-.13081.0948-.26383.14624-.54162.25133-.80177.34393.2484.56.62833.89069.88775a4.59079,4.59079,0,0,0,1.36468.011c-.22193-.39022-.64082-.62392-.83629-1.03178.04776-.136.21826-.16535.32775-.24031a1.2342,1.2342,0,0,0,.76576-1.22506.68587.68587,0,0,0-.45857-.6004,1.30346,1.30346,0,0,0-1.02958.14477,5.46672,5.46672,0,0,1-.70476.45637,2.15408,2.15408,0,0,1,.05879-.51737c.26309-1.18023.50708-2.36487.7687-3.54583a6.61639,6.61639,0,0,0,3.63769-.48944,2.97678,2.97678,0,0,0,1.61676-1.74536,3.91682,3.91682,0,0,0-.35569-2.76318,4.30485,4.30485,0,0,0-1.87617-2.02021,2.42442,2.42442,0,0,0-2.15543.00588,1.80623,1.80623,0,0,0-1.03987,1.2258A1.44257,1.44257,0,0,0,50.531,14.188a1.736,1.736,0,0,0,1.58.291.54326.54326,0,0,0,.29469-.77017c-.15726-.24251-.47474-.25794-.73268-.28881-.02205.08525-.04336.16976-.06394.255.16388.01249.39905.011.42183.22855a.47982.47982,0,0,1-.63127.37626,1.556,1.556,0,0,1-.995-1.32941.95051.95051,0,0,1,.69888-.89,3.032,3.032,0,0,1,1.68069-.03968,3.19383,3.19383,0,0,1,2.05475,1.9695,2.86544,2.86544,0,0,1,.05732,2.16351,3.21732,3.21732,0,0,1-1.64615,1.58148,5.226,5.226,0,0,1-3.11593.43138,11.85547,11.85547,0,0,0,.27044-1.48374,4.05442,4.05442,0,0,0-1.10233.13595,5.562,5.562,0,0,0-.24913,1.00165,4.101,4.101,0,0,1-.63274-.43358,2.62467,2.62467,0,0,0-.19768-1.99816.734.734,0,0,0-1.12438-.11317.80623.80623,0,0,0-.16756.76722,3.24959,3.24959,0,0,0,.81352,1.45508c-.07054.10656-.13962.21459-.21385.31821a2.8,2.8,0,0,1-.826-2.01213,1.02626,1.02626,0,0,1,1.39922-.75252,1.27835,1.27835,0,0,1,.6761.8701,3.27438,3.27438,0,0,1,.12567,1.21918c-.011.14845-.07717.30645.00294.44755.11317-.29983.07422-.74518.43872-.87378a7.63685,7.63685,0,0,1,.94507-.122.43566.43566,0,0,1,.496.47473c-.036.35936-.1411.70623-.2065,1.06045a4.84235,4.84235,0,0,0,3.20779-.78927,2.38892,2.38892,0,0,0,1.05529-1.58736,3.11374,3.11374,0,0,0-.57615-2.1422,2.58808,2.58808,0,0,0-1.75124-1.14055,2.5326,2.5326,0,0,0-1.32353.1264.62.62,0,0,0-.40419.58351,1.32212,1.32212,0,0,0,.81426,1.05162.49748.49748,0,0,1,.11979-.85982.97745.97745,0,0,1,1.10453.56219A.86868.86868,0,0,1,52.2124,15.003a2.11836,2.11836,0,0,1-2.52875-1.42421,1.70861,1.70861,0,0,1,.63862-1.70274M56.549,16.80567c-.16241.0441-.43138.03528-.44754.25942-.44094,2.24949-.85468,4.50486-1.28974,6.75583a2.22123,2.22123,0,0,0-.00367,1.0869.4246.4246,0,0,0,.49458.2234,2.38217,2.38217,0,0,0,1.21551-.5835,2.21262,2.21262,0,0,0,.72533-.8679c.05218-.18.06834-.44828-.12493-.54823-.16535.05879-.16609.26015-.23.39684-.13816.38361-.41815.80911-.86717.8341a1.06873,1.06873,0,0,1-.03013-.6129c.36818-2.10325.75179-4.20429,1.12732-6.30607a2.73624,2.73624,0,0,0,.086-.68418c-.21385-.086-.43946.022-.65552.04629m8.14771.05071c-.15065.00955-.21533.15727-.22929.28734Q63.82254,20.518,63.185,23.89294a2.46527,2.46527,0,0,0,0,1.00018.46344.46344,0,0,0,.56954.2359A2.42758,2.42758,0,0,0,65.519,23.97745c.14183-.2697.241-.65993-.02719-.88628-.19181.20945-.2043.51075-.35716.74224a.95045.95045,0,0,1-.7268.52545,1.86135,1.86135,0,0,1,.02792-.9289q.54124-3.03141,1.0869-6.06136a1.94245,1.94245,0,0,0,.061-.6129c-.28881-.09406-.596.06614-.887.10068M39.46062,21.91315a2.05893,2.05893,0,0,0,.23884,1.40657c.0801.13963-.00955.291-.07569.41522a1.19551,1.19551,0,0,1-.64524.57027c-.15065.05438-.19915-.14918-.18739-.25648.03307-.74738.31012-1.45875.3454-2.2054a4.49413,4.49413,0,0,0-.88848.07129c-.10656.02719-.13155.14257-.16168.23149a3.6471,3.6471,0,0,1-1.0384,1.81811c-.1117.11391-.35862.17343-.3623-.05438a15.36171,15.36171,0,0,1,.352-1.84237c.02867-.08524-.00367-.23295-.12125-.21017a5.73019,5.73019,0,0,0-.93772.07643c-.13375.43211-.17931.88333-.28513,1.32132a7.20791,7.20791,0,0,0-.1705,1.01636,8.046,8.046,0,0,0-3.66856-.75253,2.83578,2.83578,0,0,0-1.68363.85541,4.83519,4.83519,0,0,0-3.45692-.607,3.80141,3.80141,0,0,0-2.248.98622,2.015,2.015,0,0,0-.65184,1.64248,2.78844,2.78844,0,0,0,2.1275,2.32151,1.32806,1.32806,0,0,0,1.4029-.43359,1.77754,1.77754,0,0,0,.19989-1.59911,1.32051,1.32051,0,0,0-1.41687-.78266.64541.64541,0,0,0-.47033.78413c.15433.24839.463.31673.71138.43432a1.26257,1.26257,0,0,0,.083-.35422c-.15947-.07569-.38288-.06908-.47253-.24839.12052-.30057.56659-.28.79588-.11611a1.38548,1.38548,0,0,1,.55851,1.51975.85314.85314,0,0,1-.56218.58423,1.50181,1.50181,0,0,1-1.09278-.27485,2.548,2.548,0,0,1-1.02-1.45214,1.77748,1.77748,0,0,1,.46886-1.66158,2.97385,2.97385,0,0,1,1.64248-.81279,5.03128,5.03128,0,0,1,3.0733.44314,1.46959,1.46959,0,0,0-.23737.84218,1.27159,1.27159,0,0,0,.998,1.26769.60993.60993,0,0,0,.79074-.51883,2.662,2.662,0,0,0-.69227-1.49771,2.39887,2.39887,0,0,1,1.07294-.64743,4.56227,4.56227,0,0,1,2.384.10509c.57909.16167,1.09057.49825,1.66672.668a1.08053,1.08053,0,0,0,.89877-.23957,9.58381,9.58381,0,0,0,.92155-.80618c.02279.32556-.02719.74738.2969.94727.35642.19328.75987-.02131,1.08837-.17784a4.418,4.418,0,0,0,.98034-.78853c.21532-.02279.42035.2697.618.10435.18813-.24619-.16388-.37847-.32335-.49825a2.25479,2.25479,0,0,0,.24619-1.59692c-.07423-.244-.2653-.51148-.5475-.5056-.28366-.01543-.47253.266-.54455.50781m6.05916.15432c-.41154.269-.65552.71505-1.03987,1.01268.00735-.31894.11464-.62245.15139-.937.0147-.09333.00514-.2844-.13522-.25868a2.8487,2.8487,0,0,0-.93184.19254,8.62266,8.62266,0,0,0-.2359,1.23682,16.2628,16.2628,0,0,0-.22635,1.61381,1.487,1.487,0,0,0,.85174.05144,1.42816,1.42816,0,0,0,.1896-.39463,4.28312,4.28312,0,0,1,1.02811-1.69172.707.707,0,0,1,.449-.205,8.68768,8.68768,0,0,1-.28367,1.58736.7338.7338,0,0,0,.14992.61731.64693.64693,0,0,0,.69079.04629,2.59856,2.59856,0,0,0,1.12659-1.00826.37823.37823,0,0,0-.02058-.5181c-.241.23149-.27044.61731-.546.826-.07642.072-.28219.13227-.26235-.04263.01984-.65331.38361-1.25592.34246-1.91806a.52584.52584,0,0,0-.42109-.48576,1.255,1.255,0,0,0-.87672.27558m7.64871-.28146a2.07585,2.07585,0,0,0-1.5631,2.33107,1.13012,1.13012,0,0,0,.765.86643,1.84341,1.84341,0,0,0,2.08781-.81132c.061-.133.16094-.32849.02573-.449-.16535.03233-.22121.2065-.3116.32482a1.13764,1.13764,0,0,1-1.06926.57983.67021.67021,0,0,1-.33731-.7709c.03674-.16388.22414-.06467.33584-.05438a1.19236,1.19236,0,0,0,1.45214-1.36984,1.1304,1.1304,0,0,0-1.38527-.6467m8.60261-.01176a2.13194,2.13194,0,0,0-1.17656.75106,2.45688,2.45688,0,0,1-.53353.53867c.025-.39316.17785-.768.16609-1.16406a3.1006,3.1006,0,0,0-1.10013.15727c-.17931.85541-.28,1.72625-.43652,2.5868-.00441.11759-.07937.28734.06614.34834a3.456,3.456,0,0,0,.77457-.00661,1.06587,1.06587,0,0,0,.18151-.35275,4.45355,4.45355,0,0,1,1.0046-1.70053.724.724,0,0,1,.48209-.23517c.03894.61731-.30058,1.18023-.29029,1.79313a.48745.48745,0,0,0,.48135.52765,1.84608,1.84608,0,0,0,1.27945-.79221c.17931-.20724.3961-.47253.27558-.765-.03674-.00073-.11023-.00294-.147-.00367-.18886.28293-.25353.70917-.60628.84-.14551.05879-.158-.16388-.12861-.25207a9.27785,9.27785,0,0,0,.3432-1.77108.55888.55888,0,0,0-.63568-.49973M39.32761,23.25873c-.05.28954-.10362.57836-.12787.87084a3.82691,3.82691,0,0,0,.32335-.46445c-.06541-.136-.13155-.27044-.19548-.40639m18.39866.729a.58569.58569,0,0,0-.2359.79A.60665.60665,0,0,0,58.37,24.924a.67664.67664,0,0,0,.04482-.77384.54854.54854,0,0,0-.68859-.16241m-4.60407.34833c.061.07055.08671.19181.18592.22341a1.51024,1.51024,0,0,0,.5666-.24839A3.18338,3.18338,0,0,1,53.1222,24.33607Z"/><path class="cls-4" d="M40.843,12.44485a.62412.62412,0,0,1,.85688-.24105,2.59552,2.59552,0,0,1,.71063.84292,5.32621,5.32621,0,0,1,.6129,2.47584,8.54548,8.54548,0,0,1-.42035,2.59121,2.33148,2.33148,0,0,0,1.74315.74518,6.4986,6.4986,0,0,0,2.48392-.46959,4.92635,4.92635,0,0,1-3.14091.5813,1.97687,1.97687,0,0,1-1.42348-.93919c-.083-.13963-.014-.29984.0169-.44314a7.361,7.361,0,0,0,.34834-2.28477,4.48108,4.48108,0,0,0-.912-2.81242c-.15138-.16388-.39316-.38728-.62539-.24251a1.337,1.337,0,0,0-.30792.59085A6.83853,6.83853,0,0,0,40.621,14.8641a8.25923,8.25923,0,0,0,.53353,2.30534,2.89688,2.89688,0,0,0-1.9401,1.02664,1.65993,1.65993,0,0,0-.10142,1.96509,1.21276,1.21276,0,0,0,1.54327.13375c.5857-.43432.7878-1.19419,1.31765-1.68289.11024.10362.21973.20944.33364.31012-.08451.13669-.16682.27485-.24986.413a1.119,1.119,0,0,1,.71651.17417.93876.93876,0,1,1-1.2787,1.35366,1.19176,1.19176,0,0,1-.197-.4571,2.05135,2.05135,0,0,1-1.59985.59967,1.2899,1.2899,0,0,1-.95462-.79588,2.20466,2.20466,0,0,1-1.29782.74,1.67244,1.67244,0,0,1-1.57927-.474,1.8977,1.8977,0,0,1-.33144-.63421,3.22155,3.22155,0,0,1-1.00532.94506,1.385,1.385,0,0,1-1.77623-.44093c-.07055-.17931-.26162-.03086-.39243-.03013a3.70893,3.70893,0,0,1-1.04942,2.02315,1.799,1.799,0,0,1-1.37645.47253.79687.79687,0,0,1-.67242-.7393,1.68527,1.68527,0,0,1,.41742-1.11262,1.10179,1.10179,0,0,1-1.00974-.94433,2.93134,2.93134,0,0,1-1.96582,1.04575.74933.74933,0,0,1-.69741-.73489,2.08927,2.08927,0,0,1-2.15837.55337,1.45161,1.45161,0,0,1-.78854-.69447,2.20668,2.20668,0,0,1-1.34778.768,1.51514,1.51514,0,0,1-1.86662-1.095,2.218,2.218,0,0,1-1.15524,1.01194,1.83434,1.83434,0,0,1-.91641.03674c-.06687.41668-.13081.83336-.20871,1.24784a.57423.57423,0,0,1-.55778.45784,1.83386,1.83386,0,0,1-.85835.01029.55719.55719,0,0,1-.208-.64083q.34393-2.01726.69374-4.03306a.58366.58366,0,0,1,.4762-.53794c.38949-.05291.90245-.28587,1.18538.11537a1.50926,1.50926,0,0,1,1.16553-.28219,1.24591,1.24591,0,0,1,.76281.90171,2.14727,2.14727,0,0,1,2.07974-.98035,1.30849,1.30849,0,0,1,1.045.93625,2.13257,2.13257,0,0,1,2.043-.93845,1.38519,1.38519,0,0,1,.98549.7268c.305-1.67554.6342-3.34741.948-5.02222a.56009.56009,0,0,1,.341-.47988,6.91718,6.91718,0,0,1,.87525-.16976.43579.43579,0,0,1,.49385.43725c-.39611,2.31858-.84586,4.62833-1.22506,6.94984a2.21521,2.21521,0,0,0,.427-.83336.42688.42688,0,0,1,.66287-.17784,2.25847,2.25847,0,0,1,1.68877-1.2765,2.24717,2.24717,0,0,1,.72313.10729,2.37943,2.37943,0,0,1,.984-.15139.47812.47812,0,0,1,.524.46225,4.51572,4.51572,0,0,1-.136.71945,2.0738,2.0738,0,0,1,1.2618-.962c.25648-.02792.35716-.29909.57542-.402a.73056.73056,0,0,1,.87158.11244,1.76861,1.76861,0,0,1,.46,1.04575A2.19119,2.19119,0,0,1,37.96,17.15622a1.292,1.292,0,0,1,1.11189,1.06558,2.70921,2.70921,0,0,1,1.7167-1.05015,6.42156,6.42156,0,0,1-.43432-3.36873,3.72286,3.72286,0,0,1,.4887-1.35807m-12.4277-.13008a4.15688,4.15688,0,0,0-.78854.16609,1.78061,1.78061,0,0,0-.158.5857q-.55116,2.91567-1.10674,5.83134a3.60288,3.60288,0,0,0-.10729,1.32427.40177.40177,0,0,0,.452.31968,2.83462,2.83462,0,0,0,1.7483-1.05751.82032.82032,0,0,0,.22782-.72754c-.02278-.11244-.16388-.26823-.2381-.09847a1.85781,1.85781,0,0,1-.65773,1.04427c-.1117.07717-.33143.11612-.36156-.06467a2.5193,2.5193,0,0,1,.06393-.72607q.57321-3.20337,1.14643-6.40675c.05952-.15727-.08966-.23443-.22047-.19034m6.25978,4.79c-.2043.06247-.30572.27044-.47694.38068a3.63619,3.63619,0,0,0-.75106.30056,1.61047,1.61047,0,0,0-.76428,1.4955,1.17267,1.17267,0,0,0,.937,1.12732,1.43146,1.43146,0,0,0,1.30737-.62465c.12493-.14331.20577-.34393.39463-.41595.08672-.05512.21606-.07349.25942-.17784-.06614-.16168-.2212-.31233-.147-.49973a1.77964,1.77964,0,0,0-.23517-1.36909.459.459,0,0,0-.524-.2168M18.61772,17.42a2.6059,2.6059,0,0,0-.70843.57027c.00808-.20283.022-.40492.01984-.607a3.06269,3.06269,0,0,0-.8488.11023c-.15947.01617-.22267.16976-.23884.30792-.22634,1.30075-.44754,2.60224-.67536,3.90226-.00294.1433-.08231.33069.02646.44681a2.77,2.77,0,0,0,.66948-.04336c.11317-.01984.27117-.03675.30571-.16976.14331-.55484.15066-1.13908.3307-1.6851a1.18793,1.18793,0,0,0,1.23021.02425,2.43558,2.43558,0,0,0,1.09719-1.54988,1.28062,1.28062,0,0,0-.31968-1.29781.82167.82167,0,0,0-.88848-.00882m1.48374,2.29065a1.09611,1.09611,0,0,0,.751.69594,1.79621,1.79621,0,0,0,2.02021-.85247c.05218-.12787.1558-.38729-.06761-.39023-.216.233-.33584.56-.62833.718-.21973.12125-.51368.26676-.75252.11023a.7618.7618,0,0,1-.219-.79221,2.30386,2.30386,0,0,0,.862.03454,1.158,1.158,0,0,0,.90465-1.21257.98388.98388,0,0,0-1.0428-.79147,1.98887,1.98887,0,0,0-1.82767,2.48025m3.03068-.28146a1.11033,1.11033,0,0,0,.65184.91787,1.78853,1.78853,0,0,0,1.85633-.37112.85958.85958,0,0,0,.35422-.85247c-.294.18225-.38508.55705-.68418.73342a.85743.85743,0,0,1-.74885.16609.73116.73116,0,0,1-.26236-.82308,2.97508,2.97508,0,0,0,.79809.05,1.19238,1.19238,0,0,0,.9774-1.15157.968.968,0,0,0-.99136-.86643,1.99937,1.99937,0,0,0-1.95113,2.19732m13.95626-2.1106a2.06057,2.06057,0,0,0-1.34705,2.10251,1.127,1.127,0,0,0,.72975.95609,1.80618,1.80618,0,0,0,1.86735-.49678c.158-.17932.35642-.43432.277-.679l-.08525-.04042c-.22634.2021-.3307.51516-.59011.68639a.91921.91921,0,0,1-.75253.18813.7026.7026,0,0,1-.29689-.76943c.09627-.12934.25868-.02793.38655-.02278a1.15875,1.15875,0,0,0,1.35587-1.38306,1.17685,1.17685,0,0,0-1.54474-.54161m-5.81737.28219a1.39671,1.39671,0,0,0-.743-.19695,1.869,1.869,0,0,0-1.32426.91861,1.80311,1.80311,0,0,0-.24325,1.64689.66817.66817,0,0,0,.69079.4593c.58277-.05144.93331-.57174,1.33823-.92669-.02572.17343.00735.39684-.14256.5225a5.71938,5.71938,0,0,0-.95168.82234,1.52423,1.52423,0,0,0-.41448,1.00386.48889.48889,0,0,0,.45857.45343,1.51182,1.51182,0,0,0,1.04648-.37259,3.01371,3.01371,0,0,0,.90171-1.56237,2.27658,2.27658,0,0,1,.16976-.51516c.16755-.08378.4593-.03674.48135-.28514-.09113-.15285-.294-.13962-.44093-.19915.07128-.5497.19915-1.08911.3035-1.63292.01617-.119.06173-.2653-.04482-.35716-.36965.00588-.80544-.08378-1.08543.2212m10.67131,1.85192a.65094.65094,0,0,0-.20136,1.09572.63052.63052,0,1,0,.20136-1.09572m-20.38213.31086c.04336.07569.08672.15065.13081.22634a1.52774,1.52774,0,0,0,.56366-.24251,2.49835,2.49835,0,0,1-.69447.01617m3.09462,0c.04188.07569.08377.15065.12713.22561a1.57445,1.57445,0,0,0,.56293-.23663,2.74626,2.74626,0,0,1-.69006.011m12.61509.00367c.0463.06688.04777.20357.15433.2021a1.26808,1.26808,0,0,0,.54161-.22267A2.53853,2.53853,0,0,1,37.26992,19.76727Z"/><path class="cls-4" d="M41.06929,13.75589a2.23537,2.23537,0,0,1,.2653-1.11336,4.7074,4.7074,0,0,1,.36671,1.25519,12.367,12.367,0,0,1,.02719,3.174,1.7877,1.7877,0,0,1-.09848.36377,1.9452,1.9452,0,0,1-.374-.95094,9.07,9.07,0,0,1-.18667-2.72864m.35054.11537a6.55,6.55,0,0,0,.20724,2.85211A7.04793,7.04793,0,0,0,41.41983,13.87126Z"/><path class="cls-4" d="M21.10017,13.55085a2.051,2.051,0,0,1,.865-.75105,2.89046,2.89046,0,0,1-.14845.63715,1.073,1.073,0,0,1-.64376.50927C21.11928,13.8235,21.0164,13.68607,21.10017,13.55085Z"/><path class="cls-4" d="M30.94253,13.52734a.90214.90214,0,0,1,.45343.38728.85512.85512,0,0,1-.20357.95315.8811.8811,0,0,1-.79294.05585.33937.33937,0,0,1-.03528-.51662c.22194.03086.55337.13448.67537-.13375A.58154.58154,0,0,0,30.94253,13.52734Z"/><path class="cls-4" d="M29.56462,14.42023a1.22111,1.22111,0,0,1,.89582-.71285c.14478-.0191.39244.05365.33.24546a1.7662,1.7662,0,0,1-.30939.3013,1.52551,1.52551,0,0,0-.837,1.19713.71049.71049,0,0,0,.09554.54088.62236.62236,0,0,1-.41668-.42329A1.74274,1.74274,0,0,1,29.56462,14.42023Z"/><path class="cls-4" d="M25.048,14.93685a2.41773,2.41773,0,0,1,.32482-1.25078,2.70479,2.70479,0,0,1,.35642,1.40658.55855.55855,0,0,1-.15065.33143,2.40908,2.40908,0,0,0-.12272-.83556,2.19192,2.19192,0,0,0-.03748.97446C25.10825,15.52844,25.06343,15.186,25.048,14.93685Z"/><path class="cls-4" d="M47.282,15.67174c.1242-.39537.75841-.26015.86423.08892a2.10553,2.10553,0,0,1-.15359,1.167,2.42764,2.42764,0,0,1-.71064-1.25593m.37846.24986a2.06479,2.06479,0,0,0,.28367.57469.75191.75191,0,0,0-.01028-.4571C47.86628,15.95982,47.7509,15.95688,47.6605,15.9216Z"/><path class="cls-4" d="M11.30117,17.36419a4.751,4.751,0,0,1,1.3375.91934.40847.40847,0,0,1-.18519.68713c-.37186.04115-.64377-.28514-.9583-.43065a6.60915,6.60915,0,0,0-3.81995-.52324,4.77988,4.77988,0,0,0-2.26639.8341,1.214,1.214,0,0,0-.52031,1.29561,2.57551,2.57551,0,0,0,1.25225,1.25739,3.49877,3.49877,0,0,1-1.26915-.94874,1.359,1.359,0,0,1-.269-1.31692A2.22306,2.22306,0,0,1,5.74541,18.019a7.05052,7.05052,0,0,1,3.321-.59232,5.55122,5.55122,0,0,1,2.88958.8782c.14183.08745.40933.25941.48943.014C12.24918,17.83452,11.6914,17.66108,11.30117,17.36419Z"/><path class="cls-4" d="M40.44464,17.8a1.78758,1.78758,0,0,1,.72313-.31086c.09921.17711.2675.35936.19768.57836a5.93425,5.93425,0,0,1-.67389,1.60646.4686.4686,0,0,1-.46372.29469.45405.45405,0,0,1-.33363-.40933A1.87681,1.87681,0,0,1,40.44464,17.8M40.319,19.84664l.11244.00588a4.2128,4.2128,0,0,0,.62245-1.56311c-.061-.072-.12272-.144-.183-.21532A1.69471,1.69471,0,0,0,40.319,19.84664Z"/><path class="cls-4" d="M21.94529,17.60156c.23958-.0801.27338.25574.23076.41668a1.06186,1.06186,0,0,1-.68786.79441c-.208.04263-.20871-.21164-.14477-.34245C21.4588,18.14391,21.59034,17.7331,21.94529,17.60156Z"/><path class="cls-4" d="M24.65777,17.9521c.10362-.17784.25721-.37847.488-.363.18372.10068.1558.34981.09995.51884-.13081.35054-.40272.73047-.81867.718A1.31748,1.31748,0,0,1,24.65777,17.9521Z"/><path class="cls-4" d="M37.4338,17.72575a.47227.47227,0,0,1,.40933-.13007,1.03706,1.03706,0,0,1-.43726,1.1332c-.1117.083-.38434.16755-.39537-.04557A1.69512,1.69512,0,0,1,37.4338,17.72575Z"/><path class="cls-4" d="M34.65813,17.678c.09112-.13008.24471.02792.27264.13007a1.07927,1.07927,0,0,1,.01176.7393c-.19254.014-.22855-.20283-.28-.34172C34.62359,18.03661,34.54936,17.83672,34.65813,17.678Z"/><path class="cls-4" d="M30.33037,17.9837c.08966-.11023.18519-.26089.3476-.24986.23149-.0125.14551.27632.1874.42109a1.06567,1.06567,0,0,0,.32849.06026,2.042,2.042,0,0,1-.38067.90832,1.41986,1.41986,0,0,1-.57836.54749c-.19548.06835-.35789-.136-.363-.31526a2.10744,2.10744,0,0,1,.45857-1.372m-.07643,1.61088a2.32077,2.32077,0,0,0,.64376-.8804,1.31591,1.31591,0,0,1-.28072-.29763A2.02249,2.02249,0,0,0,30.25394,19.59458Z"/><path class="cls-4" d="M33.79978,18.86263c.07643-.28147.1286-.64817.43064-.77678a3.87768,3.87768,0,0,0,.56.96711.91225.91225,0,0,1-.6614.91861c-.44314-.17857-.41227-.72092-.32923-1.10894m.44313.025a1.39277,1.39277,0,0,0-.00587.99137,1.24651,1.24651,0,0,0,.363-.48062C34.47661,19.23081,34.35829,19.06031,34.24291,18.88761Z"/><path class="cls-4" d="M18.387,18.235a.30144.30144,0,0,1,.4211.18225,1.88234,1.88234,0,0,1-.08011.93846,1.64289,1.64289,0,0,1-.3645.69888c-.08745.09847-.22782.06173-.34246.0676q-.07165-.18739-.14257-.37479a2.58321,2.58321,0,0,1-.28073-.0316.96709.96709,0,0,1,.07937-.50413,1.49029,1.49029,0,0,1,.7099-.97667m-.37846,1.39188a1.81316,1.81316,0,0,1,.31747.33217,1.89067,1.89067,0,0,0,.26529-1.27356A1.68755,1.68755,0,0,0,18.0085,19.62691Z"/><path class="cls-4" d="M29.92618,21.4002c.20063-.3454.44167-.7562.85982-.851-.1411.50046-.28293,1.12-.78119,1.3816C29.75128,21.88816,29.8402,21.55967,29.92618,21.4002Z"/><path class="cls-4" d="M39.8582,21.99105l.083-.03528a1.15222,1.15222,0,0,1,.04924.8951c-.13963.05364-.1558-.10583-.1852-.20063A.97177.97177,0,0,1,39.8582,21.99105Z"/><path class="cls-4" d="M53.46612,22.152c.2337-.13816.366.15432.3116.34613a1.11367,1.11367,0,0,1-.69594.86937c-.16388.06173-.23884-.1411-.18372-.266A1.53934,1.53934,0,0,1,53.46612,22.152Z"/><path class="cls-4" d="M49.72775,22.89275c.2212-.10729.61216-.02866.58718.27779a1.00259,1.00259,0,0,1-1.1604.68565c-.16387-.00294-.18078-.205-.09774-.30938a1.24139,1.24139,0,0,1,.671-.65406m-.26015.89289c.24618-.05144.59746-.14624.61877-.44975A.98567.98567,0,0,0,49.4676,23.78564Z"/><path class="cls-4" d="M30.46265,25.16356a1.87586,1.87586,0,0,1,.59158,1.01782.392.392,0,0,1-.13889.39757c-.24692.09334-.49458-.12125-.60261-.32776A1.30222,1.30222,0,0,1,30.46265,25.16356Z"/></g><g id="_fdcb0cff" data-name="#fdcb0cff"><path class="cls-5" d="M63.93241,13.29511c.2065.16315.41006.33144.61877.49311.22635-.06761.45122-.13816.679-.20209-.08158.21459-.16535.4277-.241.6445.16167.18886.31967.38214.47547.57615-.258.00147-.5159.00073-.77384.00073-.18519.29249-.36965.585-.55631.87672q-.09039-.47068-.18446-.93992c-.33658-.05658-.671-.12419-1.00459-.197.31674-.17417.643-.33.96123-.50193C63.906,13.79484,63.92285,13.545,63.93241,13.29511Z"/><path class="cls-5" d="M59.71267,15.25579c.1242-.05585.2484-.11243.37333-.16755-.02205.10435-.04263.20944-.06394.3138.11832.08451.23884.16682.35863.25059-.15286.02426-.305.04924-.45637.07717q-.10581.23589-.21311.4718c-.075-.14551-.14772-.29176-.22047-.438-.18519-.00073-.37039-.00073-.55411-.00588.14771-.10876.29984-.21164.45049-.3182-.02058-.11612-.03968-.23223-.05585-.34834C59.45767,15.14483,59.58554,15.19994,59.71267,15.25579Z"/><path class="cls-5" d="M62.29728,15.48655a2.17579,2.17579,0,0,0,.47694.26235c.15506-.02866.30425-.07569.4571-.11611-.05585.12787-.10876.25648-.16314.38508.12272.122.24472.244.366.36818-.194.00147-.38655.00221-.57909.00221q-.194.269-.39317.53426c-.047-.19107-.09186-.38214-.13742-.57321-.24178-.04336-.48429-.08378-.72681-.119.2315-.10215.46152-.20651.693-.30792C62.2914,15.77683,62.29287,15.63206,62.29728,15.48655Z"/><path class="cls-5" d="M20.8606,22.14758c.12346-.122.18813-.34246.36891-.38141.05291.14551.09407.29469.136.44387.24765.061.49678.11612.74591.1705-.21459.12052-.43506.22928-.65993.32849.01764.22341.02939.44608.04042.67022-.18226-.16094-.35495-.33217-.53721-.49311-.17857.04336-.35789.08672-.53646.12934.075-.16388.14991-.327.22708-.4887-.09774-.13228-.19328-.2653-.29028-.39684C20.52328,22.13361,20.69231,22.138,20.8606,22.14758Z"/><path class="cls-5" d="M24.14482,22.25267a.53969.53969,0,0,0,.53867-.12787l.01176.24177c.13081.04924.26162.09774.39316.147-.136.03748-.27191.07423-.40786.1117-.02278.11318-.04557.22635-.06761.34026-.0779-.09774-.15433-.19548-.23076-.294-.111.00735-.22267.01617-.33364.02646C24.17936,22.565,24.30869,22.42316,24.14482,22.25267Z"/><path class="cls-5" d="M19.02044,22.30043c.01763.00147.05291.00368.07055.00441.16167.29763.3013.60555.452.90833.52177.05364,1.045.09627,1.56752.14771-.40419.27191-.815.53279-1.22285.79956.10215.44019.20944.87966.30865,1.32059q-.62061-.41778-1.23167-.84586c-.35055.12788-.69815.26309-1.04648.39611.09627-.33658.18813-.67389.28954-1.009-.23222-.24546-.47694-.47915-.71284-.72093.3454-.025.68932-.06173,1.03472-.08818C18.69488,22.90966,18.84921,22.60027,19.02044,22.30043Z"/><path class="cls-5" d="M22.44943,23.18671c.086-.09407.1727-.18813.26088-.28.0316.10215.0632.2043.09407.30645q.26015.04078.51956.086c-.15873.07422-.3182.14624-.47841.21752.00147.13743.00294.27559.00515.41375-.1242-.1-.24913-.19989-.3748-.2969q-.1929.05181-.38508.10142c.05585-.10583.12273-.20651.1705-.316-.04851-.0823-.10656-.15873-.16168-.23589C22.21573,23.1845,22.33258,23.18524,22.44943,23.18671Z"/><path class="cls-5" d="M16.15878,23.8922c.08819.02793.11024.1264.15359.19769.29837.64082.62245,1.26988.9414,1.90115q1.72735.07386,3.45471.17711c-.8951.657-1.80856,1.289-2.714,1.93129.22635,1.034.463,2.0665.68786,3.10123q-1.35918-.88738-2.70806-1.79019a.20979.20979,0,0,0-.24546-.03748c-.78633.33144-1.56457.68345-2.34944,1.01855.24987-.81792.51-1.63292.76723-2.44864-.52618-.51369-1.0215-1.05751-1.55062-1.56825.78266-.11391,1.57634-.18,2.35238-.32483C15.371,25.34214,15.74651,24.60578,16.15878,23.8922Z"/></g></svg>