<svg id="Layer_1" data-name="Layer 1" xmlns="http://www.w3.org/2000/svg" xmlns:xlink="http://www.w3.org/1999/xlink" viewBox="0 0 70 40"><defs><style>.cls-1{fill:none;}.cls-2{clip-path:url(#clip-path);}.cls-3{clip-path:url(#clip-path-2);}.cls-4{fill:#870053;}.cls-5{fill:#c30056;}.cls-6{fill:#e80028;}.cls-7{fill:#ff4d86;}.cls-8{fill:#ff828e;}.cls-9{fill:#f15800;}.cls-10{fill:#8e0017;}.cls-11{fill:#67116d;}.cls-12{fill:#ffab52;}.cls-13{fill:#ff9b00;}.cls-14{fill:#ff9d00;}.cls-15{fill:#c4e257;}.cls-16{fill:#4ea326;}.cls-17{fill:#763d8e;}.cls-18{fill:#673590;}.cls-19{fill:#05836c;}.cls-20{fill:#349077;}.cls-21{fill:#309696;}.cls-22{fill:#008b92;}.cls-23{fill:#00b5af;}.cls-24{fill:#853791;}.cls-25{fill:#551480;}.cls-26{fill:#422c55;}.cls-27{fill:#293d79;}.cls-28{fill:url(#linear-gradient);}.cls-29{fill:#fff;}</style><clipPath id="clip-path"><rect class="cls-1" width="70" height="40" rx="3.70584"/></clipPath><clipPath id="clip-path-2"><rect class="cls-1" y="-1.71598" width="70" height="43.43195"/></clipPath><linearGradient id="linear-gradient" y1="18.58427" x2="70" y2="18.58427" gradientUnits="userSpaceOnUse"><stop offset="0" stop-color="#21004b" stop-opacity="0.05"/><stop offset="1" stop-color="#21004b" stop-opacity="0.95"/></linearGradient></defs><g class="cls-2"><image width="1183" height="734" transform="translate(0 -2.71598) scale(0.05917)" xlink:href="../../../../../Downloads/sportiefshoppen.jpg"/><g class="cls-3"><polygon class="cls-4" points="3.787 27.16 -2.722 30.533 -2.722 43.609 4.26 43.609 3.787 27.16"/><polygon class="cls-5" points="3.787 27.16 -2.549 22.242 -2.722 30.533 3.787 27.16"/><polygon class="cls-6" points="3.787 27.16 -2.595 17.661 -2.549 22.242 3.787 27.16"/><polygon class="cls-7" points="3.787 27.16 6.949 -2.908 -6 -3.458 -2.595 17.661 3.787 27.16"/><polygon class="cls-8" points="3.787 27.16 15.897 13.08 10.675 -5.565 6.949 -2.908 3.787 27.16"/><polygon class="cls-9" points="3.787 27.16 40.039 14.271 15.897 13.08 3.787 27.16"/><polygon class="cls-10" points="3.787 27.16 47.231 22.15 40.039 14.271 3.787 27.16"/><polygon class="cls-11" points="40.039 14.271 16.172 48.262 4.26 43.609 3.787 27.16 40.039 14.271"/><polygon class="cls-12" points="15.897 13.08 10.675 -5.565 19.699 -1.992 15.897 13.08"/><polygon class="cls-13" points="15.897 13.08 23.273 -4.191 19.699 -1.992 15.897 13.08"/><polygon class="cls-14" points="15.897 13.08 40.039 14.271 24.784 -4.191 23.273 -4.191 15.897 13.08"/><polygon class="cls-15" points="40.039 14.271 39.764 -4.496 24.784 -4.191 40.039 14.271"/><polygon class="cls-16" points="40.039 14.271 47.46 -2.603 39.764 -4.496 40.039 14.271"/><polygon class="cls-17" points="40.039 14.271 68.075 44.047 16.172 48.262 40.039 14.271"/><polygon class="cls-18" points="40.039 14.271 70.915 24.028 70.915 43.223 68.075 44.047 40.039 14.271"/><polygon class="cls-19" points="40.039 14.271 47.46 -2.603 49.018 -2.083 61.521 21.06 40.039 14.271"/><polygon class="cls-20" points="61.521 21.06 57.447 -4.099 49.018 -2.083 61.521 21.06"/><polygon class="cls-21" points="61.521 21.06 65.006 -5.015 57.447 -4.099 61.521 21.06"/><polygon class="cls-22" points="61.521 21.06 76.229 25.632 70 13.309 64.258 0.578 61.521 21.06"/><polygon class="cls-23" points="64.258 0.578 65.006 -5.015 73.801 -3.32 70 13.309 64.258 0.578"/><polygon class="cls-24" points="27.507 32.119 64.033 39.754 68.075 44.047 16.172 48.262 27.507 32.119"/><polygon class="cls-25" points="60.982 43.314 44.38 43.071 70.915 28.495 70.915 31.725 60.982 43.314"/><polygon class="cls-26" points="64.033 39.754 71.923 39.077 72.129 44.047 68.075 44.047 64.033 39.754"/><polygon class="cls-27" points="64.033 39.754 70.915 31.725 71.923 39.077 64.033 39.754"/></g><rect class="cls-28" y="13.80856" width="70" height="9.55142"/><path class="cls-29" d="M6.6614,19.91221c0,.82713-.51784,1.16517-1.50321,1.16517a5.88719,5.88719,0,0,1-1.25148-.11511.63692.63692,0,0,1,0-.36681,8.14621,8.14621,0,0,0,1.25148.09349c.69766,0,1.10045-.17977,1.10045-.81991v-.32365c0-.23015-.02878-.36682-.16544-.46031a1.35612,1.35612,0,0,0-.43154-.19422l-.87029-.28768c-.64011-.20857-.899-.43873-.899-.92062v-.41c0-.76957.53226-1.158,1.58952-1.158a4.8864,4.8864,0,0,1,1.158.12227.58887.58887,0,0,1,0,.35243,6.92982,6.92982,0,0,0-1.158-.10069,1.75033,1.75033,0,0,0-.8343.151.65342.65342,0,0,0-.34523.6545v.28771c0,.38117.15821.50345.59694.6473l.87749.29488a1.874,1.874,0,0,1,.69047.35243.78352.78352,0,0,1,.19419.597Z"/><path class="cls-29" d="M8.12159,16.22248h1.345c1.1292,0,1.74056.36682,1.74056,1.309v.28771c0,.899-.61136,1.26586-1.74056,1.26586H8.53874v1.906a1.01835,1.01835,0,0,1-.41715,0ZM10.79,17.58187a.798.798,0,0,0-.40279-.80555,1.87556,1.87556,0,0,0-.935-.17263H8.53874v2.12174h.91343a2.0883,2.0883,0,0,0,.94221-.16541.79832.79832,0,0,0,.3956-.784Z"/><path class="cls-29" d="M15.2917,19.75394c0,.9494-.60417,1.32344-1.67585,1.32344-1.086,0-1.683-.374-1.683-1.32344V17.43082c0-.94221.597-1.31622,1.683-1.31622,1.07168,0,1.67585.374,1.67585,1.31622Zm-.41715-2.28a.82232.82232,0,0,0-.38121-.81274,1.69416,1.69416,0,0,0-.87749-.17263,1.73834,1.73834,0,0,0-.88465.17263A.82232.82232,0,0,0,12.35,17.474v2.244a.81046.81046,0,0,0,.38121.80557,1.90782,1.90782,0,0,0,.88465.16538,1.8578,1.8578,0,0,0,.87749-.16538.81046.81046,0,0,0,.38121-.80557Z"/><path class="cls-29" d="M16.86691,16.22248h1.345c1.1292,0,1.74056.36682,1.74056,1.28744v.28771q0,1.02492-1.18675,1.18673A9.89091,9.89091,0,0,1,20.01,20.99105a.96561.96561,0,0,1-.45312,0,8.99757,8.99757,0,0,0-1.25147-1.97791H17.28406v1.97791a1.01852,1.01852,0,0,1-.41715,0Zm2.66838,1.3378a.78217.78217,0,0,0-.40278-.79116,1.88063,1.88063,0,0,0-.935-.16543h-.91343v2.04985h.91343a2.09628,2.09628,0,0,0,.94221-.15824.73817.73817,0,0,0,.39559-.74083Z"/><path class="cls-29" d="M22.53456,16.5893H21.08167a.63747.63747,0,0,1,0-.36682h3.31569a.637.637,0,0,1,0,.36682H22.9517v4.40175a1.01831,1.01831,0,0,1-.41714,0Z"/><path class="cls-29" d="M25.56979,16.22248a1.01935,1.01935,0,0,1,.41714,0v4.76857a1.01831,1.01831,0,0,1-.41714,0Z"/><path class="cls-29" d="M27.50451,20.99105V16.22248h2.54611a.63747.63747,0,0,1,0,.36682h-2.129v1.79092h2.057a.61249.61249,0,0,1,0,.35959h-2.057v1.87726h2.129a.66206.66206,0,0,1,0,.374Z"/><path class="cls-29" d="M32.10051,18.80453v2.18652a1.01835,1.01835,0,0,1-.41715,0V16.22248h2.54611a.63747.63747,0,0,1,0,.36682h-2.129v1.85564h1.97791a.61249.61249,0,0,1,0,.35959Z"/><path class="cls-29" d="M38.35683,19.93446c-.10632.8013-.68781,1.14171-1.75862,1.14171a10.29326,10.29326,0,0,1-1.52459-.10638,3.19182,3.19182,0,0,1,.11343-.90058,11.84725,11.84725,0,0,0,1.43243.10633c.41842,0,.65949-.078.68787-.39l.02126-.2553a.348.348,0,0,0-.05674-.28366,1.172,1.172,0,0,0-.3971-.17729l-.92184-.312c-.39716-.13475-.56733-.39-.48932-1.03535l.05674-.4893c.09217-.75877.68787-1.14168,1.787-1.14168a7.4341,7.4341,0,0,1,1.45369.1418,2.67855,2.67855,0,0,1-.11343.87224,7.45524,7.45524,0,0,0-1.34737-.12765c-.45384,0-.66655.078-.72329.39l-.03548.21276a.27535.27535,0,0,0,.05674.26237,1.77365,1.77365,0,0,0,.41836.18437l.929.32619c.4042.14891.56016.38291.48221,1.03536Z"/><path class="cls-29" d="M42.15768,19.01256H40.61887l-.24818,1.97849a5.54247,5.54247,0,0,1-1.085,0l.59565-4.80789a5.547,5.547,0,0,1,1.085,0l-.234,1.88629h1.5388l.234-1.88629a5.54766,5.54766,0,0,1,1.085,0l-.59565,4.80789a5.54236,5.54236,0,0,1-1.085,0Z"/><path class="cls-29" d="M47.96546,19.77133c-.11349.93606-.79426,1.30484-1.95717,1.30484-1.27647,0-1.936-.36878-1.82248-1.30484l.29072-2.38264c.11349-.929.79425-1.2977,1.95723-1.2977,1.2764,0,1.943.36872,1.82952,1.2977ZM47.15705,17.566c.05674-.461-.234-.57441-.76588-.57441-.48927,0-.7942.11346-.85094.57441l-.25529,2.021c-.05669.45384.234.57438.76588.57438.43962.00711.75877-.0709.85093-.57438Z"/><path class="cls-29" d="M52.70947,18.14036c-.11343.88641-.8013,1.24809-2.01391,1.24809h-.57439l-.19854,1.6026a5.53452,5.53452,0,0,1-1.085,0l.59564-4.80789H50.887c1.34026,0,2.021.36167,1.90759,1.26935Zm-1.02822-.468c.04963-.46092-.24819-.58149-.80841-.58149h-.468L50.23461,18.502h.51769c.48926.00711.80841-.0709.90058-.57438Z"/><path class="cls-29" d="M57.22662,18.14036c-.11343.88641-.8013,1.24809-2.01391,1.24809h-.57438l-.19855,1.6026a5.53452,5.53452,0,0,1-1.085,0l.59565-4.80789h1.45369c1.34026,0,2.021.36167,1.90759,1.26935Zm-1.02822-.468c.04964-.46092-.24819-.58149-.80841-.58149h-.468L54.75176,18.502h.51769c.48926.00711.80841-.0709.90058-.57438Z"/><path class="cls-29" d="M57.872,20.99105l.58854-4.80789h2.93581a3.6699,3.6699,0,0,1-.10638.87223H59.43914l-.13475,1.085h1.77988a3.13823,3.13823,0,0,1-.10632.86515H59.20511l-.1418,1.11334H60.9212a3.34815,3.34815,0,0,1-.11348.8722Z"/><path class="cls-29" d="M63.30373,18.00563,62.935,20.99105a3.97049,3.97049,0,0,1-1.085,0l.59564-4.80789a8.05949,8.05949,0,0,1,1.17009,0l1.17,3.05632.37583-3.05632a6.92837,6.92837,0,0,1,1.085,0L65.651,20.99105a8.44757,8.44757,0,0,1-1.1984,0Z"/><path class="cls-29" d="M5.71254,26.93439a.54924.54924,0,0,1-.62277.52018c-.35029,0-.54136-.09558-.57323-.29014H4.49886l-.06015.26182a.46032.46032,0,0,1-.21938,0l.31845-2.56535a.67053.67053,0,0,1,.26538,0l-.08844.71121-.05663.29014h.01768c.07079-.19462.26541-.29014.58738-.29014.37861,0,.598.15567.552.52018Zm-.17693-.74306c.03894-.31492-.09552-.38565-.36445-.38565a.62392.62392,0,0,0-.33261.0672.62772.62772,0,0,0-.19107.25125l-.09554.77842a.42283.42283,0,0,0,.13446.24414.54548.54548,0,0,0,.31845.06726c.26893,0,.414-.07431.45292-.37508Z"/><path class="cls-29" d="M6.42275,25.61811a.56132.56132,0,0,1,.26537,0l-.21938,1.794a.688.688,0,0,1-.26893,0Zm.32908-.39981a.81947.81947,0,0,1-.29369,0l.02476-.276a.92057.92057,0,0,1,.31137,0Z"/><path class="cls-29" d="M7.30136,25.61811a.67053.67053,0,0,1,.26538,0l-.24061,1.95676c-.0566.4635-.30785.6157-.828.6157A.4573.4573,0,0,1,6.53,27.957c.32553,0,.49183-.07431.53075-.38565Zm.32906-.39981a.8195.8195,0,0,1-.29366,0l.02476-.276a.92.92,0,0,1,.31137,0Z"/><path class="cls-29" d="M10.14984,26.18781c.03891-.3114-.09555-.38213-.36445-.38213a.63821.63821,0,0,0-.33617.0672.62762.62762,0,0,0-.19106.25125l-.1557,1.288a.688.688,0,0,1-.26893,0l.31492-2.54767a.56162.56162,0,0,1,.26538,0l-.08844.70769-.05663.29014h.01768c.07079-.19462.26541-.29014.58739-.29014.38216,0,.598.15215.55554.5166l-.16278,1.32338a.68788.68788,0,0,1-.2689,0Z"/><path class="cls-29" d="M12.28391,26.91318q-.069.54138-.74305.54139-.74837,0-.67938-.54139l.09908-.79616c.046-.36445.29369-.54491.74308-.54491.47768,0,.72537.15926.67937.54491Zm-.1769-.74664c.03891-.31845-.15923-.36086-.40337-.36086-.28309,0-.44231.0672-.48123.36086l-.08492.69354c-.03894.31492.15923.35035.41045.35387.28306,0,.44231-.06726.47415-.35387Z"/><path class="cls-29" d="M14.04332,26.18781c.03891-.3114-.09555-.38213-.36445-.38213a.63821.63821,0,0,0-.33617.0672.62762.62762,0,0,0-.19106.25125l-.1557,1.288a.688.688,0,0,1-.26893,0l.22293-1.80461a.46007.46007,0,0,1,.21938,0l-.00708.25477h.01768c.07079-.19462.26541-.29014.58739-.29014.38216,0,.598.15215.55554.5166l-.16278,1.32338a.68788.68788,0,0,1-.2689,0Z"/><path class="cls-29" d="M15.90846,27.16443h-.01415c-.07432.19456-.26893.29014-.58739.29014-.3786,0-.598-.16278-.55554-.52018l.10615-.8421a.54925.54925,0,0,1,.62278-.52018c.34676,0,.53783.09552.57322.29014h.01768l.01416-.29014.08847-.71121a.67053.67053,0,0,1,.26538,0l-.31493,2.56535a.46032.46032,0,0,1-.21938,0Zm.10968-1.0403a.42188.42188,0,0,0-.13447-.25125.53249.53249,0,0,0-.31489-.0672c-.26893,0-.41756.07073-.45648.38565l-.08139.64754c-.03891.30077.10263.37508.37156.37508a.64112.64112,0,0,0,.32906-.06368.57878.57878,0,0,0,.19106-.24772Z"/><path class="cls-29" d="M18.1441,26.60178c-.36445.01768-.73245.02126-1.104.00358l-.03187.25472c-.03892.3114.15923.35387.44232.35387a2.71486,2.71486,0,0,0,.54491-.05663.64186.64186,0,0,1-.02832.23357,2.85563,2.85563,0,0,1-.56259.06368c-.47768,0-.7183-.16278-.6723-.54491l.09907-.79264c.046-.39276.29722-.54491.72538-.54491.43523,0,.68645.16983.64045.56259Zm-.24062-.19462.02476-.24062c.03184-.29366-.10615-.36086-.37152-.36086s-.43169.07431-.46352.36086l-.03187.25836.26185-.01774Z"/><path class="cls-29" d="M18.74,25.60748a.57417.57417,0,0,1,.21938,0l-.00708.276H18.97c.07431-.20877.27248-.3114.59446-.3114a.48888.48888,0,0,1-.03184.24062.758.758,0,0,0-.38216.07431.6165.6165,0,0,0-.2123.26893L18.786,27.41209a.688.688,0,0,1-.26893,0Z"/><path class="cls-29" d="M20.84681,27.16443h-.01416c-.07431.19456-.26893.29014-.58738.29014-.37861,0-.598-.16278-.55555-.52018l.10616-.8421a.54924.54924,0,0,1,.62277-.52018c.34677,0,.53783.09552.57323.29014h.01768l.01415-.29014.08847-.71121a.67053.67053,0,0,1,.26538,0l-.31493,2.56535a.46032.46032,0,0,1-.21938,0Zm.10967-1.0403a.42188.42188,0,0,0-.13446-.25125.53253.53253,0,0,0-.3149-.0672c-.26893,0-.41755.07073-.45647.38565l-.08139.64754c-.03892.30077.10262.37508.37155.37508a.6411.6411,0,0,0,.32906-.06368.57871.57871,0,0,0,.19107-.24772Z"/><path class="cls-29" d="M23.08244,26.60178c-.36445.01768-.73245.02126-1.104.00358l-.03186.25472c-.03892.3114.15922.35387.44231.35387a2.71486,2.71486,0,0,0,.54491-.05663.64186.64186,0,0,1-.02832.23357,2.85547,2.85547,0,0,1-.56259.06368c-.47768,0-.71829-.16278-.67229-.54491l.09907-.79264c.046-.39276.29721-.54491.72537-.54491.43523,0,.68645.16983.64046.56259Zm-.24061-.19462.02476-.24062c.03184-.29366-.10615-.36086-.37153-.36086s-.43168.07431-.46352.36086l-.03187.25836.26185-.01774Z"/><path class="cls-29" d="M24.77172,26.18781c.03892-.3114-.09555-.38213-.36445-.38213a.63819.63819,0,0,0-.33616.0672.62772.62772,0,0,0-.19107.25125l-.1557,1.288a.688.688,0,0,1-.26893,0l.22294-1.80461a.46007.46007,0,0,1,.21938,0l-.00708.25477h.01768c.07079-.19462.26541-.29014.58738-.29014.38216,0,.598.15215.55555.5166l-.16278,1.32338a.68793.68793,0,0,1-.26891,0Z"/><path class="cls-29" d="M27.8396,26.93439a.54924.54924,0,0,1-.62277.52018c-.3503,0-.54136-.09558-.57323-.29014h-.01768l-.06016.26182a.46032.46032,0,0,1-.21938,0l.31846-2.56535a.67048.67048,0,0,1,.26537,0l-.08844.71121-.05663.29014h.01769c.07078-.19462.2654-.29014.58738-.29014.3786,0,.598.15567.552.52018Zm-.17694-.74306c.03895-.31492-.09551-.38565-.36444-.38565a.46408.46408,0,0,0-.52368.31845l-.09555.77842a.42289.42289,0,0,0,.13447.24414.54543.54543,0,0,0,.31845.06726c.26893,0,.414-.07431.45292-.37508Z"/><path class="cls-29" d="M29.76207,26.60178c-.36445.01768-.73245.02126-1.104.00358l-.03186.25472c-.03892.3114.15922.35387.44231.35387a2.71486,2.71486,0,0,0,.54491-.05663.64186.64186,0,0,1-.02832.23357,2.85547,2.85547,0,0,1-.56259.06368c-.47768,0-.71829-.16278-.67229-.54491l.09907-.79264c.046-.39276.29721-.54491.72537-.54491.43523,0,.68645.16983.64046.56259Zm-.24061-.19462.02476-.24062c.03184-.29366-.10615-.36086-.37153-.36086s-.43168.07431-.46352.36086l-.03187.25836.26185-.01774Z"/><path class="cls-29" d="M30.76134,26.50274l-.25122.02473-.10615.88462a.688.688,0,0,1-.26893,0L30.45,24.86442a.56162.56162,0,0,1,.26538,0L30.53844,26.301l.26185-.02473.59091-.6617a.81562.81562,0,0,1,.15214-.01063.708.708,0,0,1,.14507.01063l-.69353.77848.50955,1.019a.74279.74279,0,0,1-.27954,0Z"/><path class="cls-29" d="M33.24505,26.60178c-.36445.01768-.73245.02126-1.104.00358l-.03187.25472c-.03892.3114.15923.35387.44232.35387a2.71486,2.71486,0,0,0,.54491-.05663.64186.64186,0,0,1-.02832.23357,2.85563,2.85563,0,0,1-.56259.06368c-.47768,0-.7183-.16278-.6723-.54491l.09907-.79264c.046-.39276.29722-.54491.72538-.54491.43523,0,.68645.16983.64045.56259Zm-.24062-.19462.02476-.24062c.03184-.29366-.10615-.36086-.37152-.36086s-.43169.07431-.46352.36086l-.03187.25836.26185-.01774Z"/><path class="cls-29" d="M34.93433,26.18781c.03892-.3114-.09555-.38213-.36445-.38213a.63814.63814,0,0,0-.33616.0672.62754.62754,0,0,0-.19107.25125l-.1557,1.288a.688.688,0,0,1-.26893,0l.22293-1.80461a.46007.46007,0,0,1,.21938,0l-.00708.25477h.01769c.07078-.19462.2654-.29014.58738-.29014.38213,0,.598.15215.55554.5166l-.16278,1.32338a.68788.68788,0,0,1-.2689,0Z"/><path class="cls-29" d="M36.79948,27.16443h-.01416c-.07431.19456-.26887.29014-.58738.29014-.37861,0-.598-.16278-.55549-.52018l.10615-.8421a.54921.54921,0,0,1,.62275-.52018c.34676,0,.53786.09552.57322.29014h.01768l.01416-.29014.08847-.71121a.67038.67038,0,0,1,.26535,0l-.31487,2.56535a.46045.46045,0,0,1-.21941,0Zm.10973-1.0403a.42188.42188,0,0,0-.13447-.25125.5326.5326,0,0,0-.31492-.0672c-.26893,0-.41756.07073-.45645.38565l-.08141.64754c-.03889.30077.10262.37508.37155.37508a.64132.64132,0,0,0,.32909-.06368.57943.57943,0,0,0,.191-.24772Z"/><path class="cls-29" d="M39.03511,26.60178c-.36445.01768-.73242.02126-1.104.00358l-.03184.25472c-.03889.3114.15926.35387.44229.35387a2.71543,2.71543,0,0,0,.545-.05663.64381.64381,0,0,1-.02832.23357,2.85635,2.85635,0,0,1-.56265.06368c-.47765,0-.71826-.16278-.67227-.54491l.09905-.79264c.04605-.39276.29724-.54491.72543-.54491.43517,0,.68642.16983.64042.56259Zm-.24062-.19462.02479-.24062c.03184-.29366-.10615-.36086-.37149-.36086-.26541,0-.43171.07431-.46355.36086l-.03184.25836.26182-.01774Z"/><path class="cls-29" d="M41.3528,26.984c-.03895.31492-.25125.4706-.63338.4706a2.232,2.232,0,0,1-.54843-.05663.48722.48722,0,0,1,.02473-.23,2.54792,2.54792,0,0,0,.50249.04953c.21583,0,.368-.053.39629-.26535l.00705-.07079c.01774-.14157-.02831-.18757-.1663-.22646l-.35029-.0991a.33443.33443,0,0,1-.27951-.38924l.01416-.138q.04776-.45643.69-.45644a2.07231,2.07231,0,0,1,.49186.05311.58554.58554,0,0,1-.02831.22645,2.30776,2.30776,0,0,0-.4494-.046c-.26893,0-.41749.046-.4458.2583l-.01064.07431c-.01415.10615.04247.17688.16983.21582l.34677.09552c.22646.06726.31845.18046.28661.40692Z"/><path class="cls-29" d="M41.95578,25.60043a.38624.38624,0,0,1,.21941,0l-.007.26182h.01768c.07073-.19462.26535-.29014.58739-.29014.3786,0,.59443.15567.552.52018l-.10263.8421a.55051.55051,0,0,1-.62627.52018c-.34677,0-.53786-.09558-.5697-.29014h-.01768l-.01416.29014-.092.72889a1.10741,1.10741,0,0,1-.26541,0Zm1.08988.5909c.03889-.31492-.09557-.38565-.36445-.38565a.46412.46412,0,0,0-.5237.31845l-.09552.77842a.42067.42067,0,0,0,.13088.24414.54549.54549,0,0,0,.31846.06726c.26893,0,.41755-.07431.4565-.37508Z"/><path class="cls-29" d="M45.16833,26.91318q-.069.54138-.74306.54139-.74836,0-.67937-.54139l.0991-.79616c.046-.36445.29366-.54491.74305-.54491.47765,0,.72537.15926.67938.54491Zm-.17688-.74664c.03889-.31845-.15926-.36086-.4034-.36086-.28309,0-.44234.0672-.48123.36086l-.08494.69354c-.03889.31492.15925.35035.41044.35387.28309,0,.44234-.06726.47418-.35387Z"/><path class="cls-29" d="M45.83441,25.60748a.574.574,0,0,1,.21935,0l-.007.276h.01769c.07431-.20877.27245-.3114.59443-.3114a.48888.48888,0,0,1-.03184.24062.75789.75789,0,0,0-.38213.07431.61628.61628,0,0,0-.2123.26893l-.15215,1.25612a.688.688,0,0,1-.26893,0Z"/><path class="cls-29" d="M47.15566,25.85167h-.29724a.48254.48254,0,0,1,.02831-.20877l.29725-.01416.06015-.48828a.68613.68613,0,0,1,.26893,0l-.06015.48476h.54843a.49781.49781,0,0,1-.02479.22645h-.552l-.12031.98015c-.03894.35382.13089.38213.27951.38213a1.23576,1.23576,0,0,0,.23-.02126.61416.61416,0,0,1-.02826.23,1.53643,1.53643,0,0,1-.28308.03184.54463.54463,0,0,1-.37508-.12384.47178.47178,0,0,1-.0991-.42107Z"/><path class="cls-29" d="M48.35129,25.61811a.56119.56119,0,0,1,.26534,0l-.21935,1.794a.688.688,0,0,1-.26893,0Zm.329-.39981a.8193.8193,0,0,1-.29366,0l.02473-.276a.92075.92075,0,0,1,.3114,0Z"/><path class="cls-29" d="M50.41842,26.60178c-.36445.01768-.73242.02126-1.104.00358l-.03184.25472c-.03889.3114.15926.35387.44229.35387a2.71526,2.71526,0,0,0,.545-.05663.64359.64359,0,0,1-.02831.23357,2.85643,2.85643,0,0,1-.56265.06368c-.47765,0-.71826-.16278-.67227-.54491l.09905-.79264c.046-.39276.29724-.54491.72543-.54491.43517,0,.68642.16983.64042.56259Zm-.24062-.19462.02479-.24062c.03184-.29366-.10615-.36086-.37149-.36086-.26541,0-.43171.07431-.46355.36086l-.03184.25836.26182-.01774Z"/><path class="cls-29" d="M50.73479,25.61811a.72467.72467,0,0,1,.276,0l.30782,1.48617.65817-1.48617a.59119.59119,0,0,1,.27245,0l-.828,1.794a.839.839,0,0,1-.29724,0Z"/><path class="cls-29" d="M53.78143,26.60178c-.36444.01768-.73242.02126-1.104.00358l-.03184.25472c-.03889.3114.15925.35387.44228.35387a2.71536,2.71536,0,0,0,.545-.05663.64359.64359,0,0,1-.02831.23357,2.85643,2.85643,0,0,1-.56265.06368c-.47765,0-.71827-.16278-.67227-.54491l.099-.79264c.04606-.39276.29725-.54491.72543-.54491.43518,0,.68643.16983.64043.56259Zm-.24061-.19462.02479-.24062c.03184-.29366-.10615-.36086-.3715-.36086-.2654,0-.43171.07431-.46355.36086l-.03184.25836.26182-.01774Z"/><path class="cls-29" d="M56.2088,25.97551l-.59443,1.43658a.87905.87905,0,0,1-.3043,0l-.33261-1.794a.59107.59107,0,0,1,.27246,0l.25119,1.50032.61217-1.50032a.60559.60559,0,0,1,.276,0l.25125,1.52153.62627-1.52153a.59106.59106,0,0,1,.27246,0l-.7749,1.794a.85886.85886,0,0,1-.30077,0Z"/><path class="cls-29" d="M57.88334,25.61811a.56124.56124,0,0,1,.26535,0l-.21935,1.794a.688.688,0,0,1-.26893,0Zm.329-.39981a.8193.8193,0,0,1-.29366,0l.02473-.276a.92075.92075,0,0,1,.3114,0Z"/><path class="cls-29" d="M59.83375,26.18781c.03889-.3114-.09551-.38213-.36445-.38213a.63807.63807,0,0,0-.33613.0672.62738.62738,0,0,0-.19109.25125l-.15568,1.288a.688.688,0,0,1-.26893,0l.22294-1.80461a.45994.45994,0,0,1,.21935,0l-.007.25477h.01768c.07073-.19462.26535-.29014.58738-.29014.38213,0,.598.15215.55549.5166l-.16272,1.32338a.688.688,0,0,1-.26893,0Z"/><path class="cls-29" d="M61.148,26.50274l-.25119.02473-.10615.88462a.688.688,0,0,1-.26893,0l.31493-2.54767a.56149.56149,0,0,1,.26535,0L60.925,26.301l.26188-.02473.59091-.6617A.81562.81562,0,0,1,61.93,25.604a.7085.7085,0,0,1,.1451.01063l-.69353.77848.50949,1.019a.74263.74263,0,0,1-.27951,0Z"/><path class="cls-29" d="M63.6316,26.60178c-.36445.01768-.73242.02126-1.104.00358l-.03184.25472c-.03889.3114.15926.35387.44229.35387a2.71526,2.71526,0,0,0,.545-.05663.64359.64359,0,0,1-.02831.23357,2.85643,2.85643,0,0,1-.56265.06368c-.47765,0-.71826-.16278-.67227-.54491l.099-.79264c.04606-.39276.29725-.54491.72543-.54491.43518,0,.68643.16983.64043.56259Zm-.24062-.19462.02479-.24062c.03184-.29366-.10615-.36086-.3715-.36086s-.43171.07431-.46354.36086l-.03184.25836.26182-.01774Z"/><path class="cls-29" d="M64.31958,24.86442a.56149.56149,0,0,1,.26535,0l-.31134,2.54767a.688.688,0,0,1-.26893,0Z"/><path class="cls-29" d="M65.93062,26.984c-.03894.31492-.25124.4706-.63338.4706a2.23213,2.23213,0,0,1-.54843-.05663.48735.48735,0,0,1,.02473-.23,2.548,2.548,0,0,0,.5025.04953c.21582,0,.368-.053.39629-.26535l.007-.07079c.01774-.14157-.02832-.18757-.16631-.22646l-.35029-.0991a.33443.33443,0,0,1-.27951-.38924l.01416-.138q.04776-.45643.68995-.45644a2.07234,2.07234,0,0,1,.49187.05311.58556.58556,0,0,1-.02832.22645,2.30759,2.30759,0,0,0-.44939-.046c-.26893,0-.4175.046-.44581.2583l-.01063.07431c-.01416.10615.04247.17688.16983.21582l.34676.09552c.22646.06726.31846.18046.28662.40692Z"/></g></svg>