<svg xmlns="http://www.w3.org/2000/svg" viewBox="0 0 70 40"><defs><style>.cls-1{fill:#0d3048;}.cls-2{fill:#ffe800;}.cls-3{fill:#fff;}.cls-4{fill:none;stroke:#1d1d1b;stroke-miterlimit:10;stroke-width:0.02096px;}.cls-5{fill:#ec6a06;}.cls-6{fill:#999;}.cls-7{fill:#c6c6c5;}.cls-8{fill:#71caf3;}</style></defs><g id="Layer_2" data-name="Layer 2"><g id="Layer_1-2" data-name="Layer 1"><rect class="cls-1" width="70" height="40" rx="3.70584"/><path class="cls-2" d="M37.51755,9.37091a1.677,1.677,0,0,0-1.38-.5432A1.30027,1.30027,0,0,0,34.692,9.95564c0,.46968.39416.62624.83233.73078l.64624.14606c1.2925.30261,1.76318.87683,1.76318,1.93174,0,1.67064-1.47857,2.42243-3.1212,2.42243A3.11121,3.11121,0,0,1,32.184,14.16326l1.05141-.87734a2.11919,2.11919,0,0,0,1.70865.67876c.86533,0,1.54409-.46968,1.54409-1.07541,0-.53271-.32862-.70978-.82131-.82482l-.64625-.15656c-1.28149-.30262-1.77418-1.00239-1.77418-1.76468,0-1.42,1.14994-2.51647,3.05567-2.51647a2.85494,2.85494,0,0,1,2.23386.89785Z"/><path class="cls-2" d="M25.13529,11.96041l1.07342,3.16372H24.62059L23.71175,12.117H22.61632l-.64624,3.00716H20.52452l1.5661-7.43436h2.738A1.87091,1.87091,0,0,1,26.95349,9.684,2.43389,2.43389,0,0,1,25.13529,11.96041Zm-.5367-3.04917H23.28408l-.43817,2.05729h1.314a1.23936,1.23936,0,0,0,1.347-1.21147A.79568.79568,0,0,0,24.59859,8.91124Z"/><path class="cls-2" d="M7.00983,9.37091a1.677,1.677,0,0,0-1.38-.5432A1.30027,1.30027,0,0,0,4.18424,9.95564c0,.46968.39415.62624.83232.73078l.64625.14606c1.2925.30261,1.76318.87683,1.76318,1.93174,0,1.67064-1.47857,2.42243-3.1212,2.42243a3.11121,3.11121,0,0,1-2.62851-1.02339l1.0514-.87734a2.1192,2.1192,0,0,0,1.70866.67876c.86533,0,1.54409-.46968,1.54409-1.07541,0-.53271-.32863-.70978-.82131-.82482l-.64625-.15656c-1.28149-.30262-1.77418-1.00239-1.77418-1.76468,0-1.42,1.14994-2.51647,3.05567-2.51647a2.85494,2.85494,0,0,1,2.23386.89785Z"/><path class="cls-2" d="M11.416,12.24252H9.91544l-.60223,2.88161H7.86766l1.5661-7.43436h2.77056a1.892,1.892,0,0,1,2.09181,1.96275A2.63918,2.63918,0,0,1,11.416,12.24252Zm.54721-3.33128h-1.336L10.178,11.02055h1.2925a1.27664,1.27664,0,0,0,1.369-1.253A.78041.78041,0,0,0,11.96323,8.91124Z"/><path class="cls-2" d="M20.11086,11.4067a5.24569,5.24569,0,0,1-1.16094,2.92362,3.01875,3.01875,0,0,1-2.20135.85633,2.128,2.128,0,0,1-2.35441-2.10931,8.28444,8.28444,0,0,1,.21909-1.67064,5.24573,5.24573,0,0,1,1.16094-2.92363A3.01718,3.01718,0,0,1,17.975,7.62724a2.128,2.128,0,0,1,2.35441,2.10931A8.23516,8.23516,0,0,1,20.11086,11.4067ZM17.8765,8.83821a1.34133,1.34133,0,0,0-1.0404.44917,4.26008,4.26008,0,0,0-.77779,2.11932,8.62934,8.62934,0,0,0-.21909,1.5556.95727.95727,0,0,0,1.00739,1.01289A1.34131,1.34131,0,0,0,17.887,13.526a4.21036,4.21036,0,0,0,.7778-2.11981,8.50924,8.50924,0,0,0,.21908-1.5556A.95131.95131,0,0,0,17.8765,8.83821Z"/><path class="cls-2" d="M32.92929,8.91124H31.01255l-1.303,6.21289H28.264l1.3035-6.21289H27.60724l.2521-1.22147h5.32254Z"/><path class="cls-3" d="M10.168,27.40285A.93651.93651,0,0,0,9.14865,26.377a1.43114,1.43114,0,0,0-1.0409.40416c-.31763.29611-.5042.74928-.7778,2.02177a8.69124,8.69124,0,0,0-.21909,1.47957.94062.94062,0,0,0,1.0409.94687,1.53381,1.53381,0,0,0,1.44656-1.0259h1.49007a3.094,3.094,0,0,1-3.04667,2.16984c-1.49007,0-2.38891-.87784-2.38891-1.99227a7.01947,7.01947,0,0,1,.23008-1.57811,4.98461,4.98461,0,0,1,1.16145-2.77106A3.18308,3.18308,0,0,1,9.24719,25.233a2.10225,2.10225,0,0,1,2.36691,2.16984Z"/><path class="cls-3" d="M15.73718,32.31423l-.16456-1.282h-2.641l-.73428,1.282H10.65223l4.25213-7.0222H16.0548l1.15044,7.0222Zm-.64675-5.04944-1.5671,2.70254h1.93975Z"/><path class="cls-3" d="M22.39074,29.32609l1.07391,2.98814H21.87554l-.90935-2.84009H19.87027l-.64675,2.84009H17.777l1.5671-7.0222h2.73956c1.5781,0,2.12582.89735,2.12582,1.88373A2.32448,2.32448,0,0,1,22.39074,29.32609ZM21.854,26.446H20.539l-.43817,1.94275h1.315a1.20983,1.20983,0,0,0,1.348-1.14394C22.76338,26.74209,22.44576,26.446,21.854,26.446Z"/><path class="cls-3" d="M30.45934,28.77387c-.37265,1.71616-.58072,2.26837-1.249,2.8501a3.21589,3.21589,0,0,1-2.14783.69026H24.28947l1.5671-7.0222h2.55348c1.293,0,2.30139.60173,2.30139,1.96275A7.40089,7.40089,0,0,1,30.45934,28.77387ZM28.158,26.43647H27.051l-1.05191,4.73382H27.095a1.65472,1.65472,0,0,0,1.13944-.38464c.31762-.27611.49319-.68076.7778-2.01178a8.20391,8.20391,0,0,0,.2411-1.41054C29.25388,26.73209,28.82621,26.43647,28.158,26.43647Z"/><path class="cls-3" d="M11.50856,19.06114a.98941.98941,0,0,0-1.05591-1.07041,1.49394,1.49394,0,0,0-1.06691.41016c-.37765.35013-.53321.86033-.81131,2.05028a7.104,7.104,0,0,0-.22209,1.50008.96337.96337,0,0,0,1.06691.96037,1.67175,1.67175,0,0,0,1.62263-1.43l.06652-.31012h-1.378L9.95246,20.071h2.84509l-.21108,1.02039a3.913,3.913,0,0,1-1.08892,2.18034,3.14993,3.14993,0,0,1-2.18934.80031c-1.62262,0-2.43394-.96037-2.43394-2.02028a7.30943,7.30943,0,0,1,.2336-1.60062c.37764-1.67014.54471-2.18033,1.20046-2.81058a3.28446,3.28446,0,0,1,2.23386-.81031,2.16159,2.16159,0,0,1,2.43393,2.23036H11.50856Z"/><path class="cls-3" d="M14.63026,24.012H13.16319l1.58911-7.12123h1.46707Z"/><path class="cls-3" d="M22.39724,18.05075H18.92991L18.51875,19.911h2.96714l-.2556,1.16045H18.25215L17.5964,24.012H16.12933l1.58911-7.12124h4.9344Z"/><path class="cls-3" d="M28.314,18.06076H26.36927L25.04676,24.012H23.57969l1.32251-5.95128H22.91294l.2556-1.17045h5.40107Z"/><path class="cls-3" d="M53.86353,18.42665c-.021.27244.08383.79636.08383.985v.021a.794.794,0,0,1,0,.31435,7.78615,7.78615,0,0,1-.08383.94306,1.60109,1.60109,0,0,1-.33531.16765c-.021,0-.04191.021-.06287.021-.04191.04191-.021.08383,0,.12574.021.021.33531.6287.37722.71253.04192.10478.08383,1.29932.08383,1.446l-.04191.85923c.14669.12574.33531.20957.33531.23052a.12605.12605,0,0,1,.02095.08383.157.157,0,0,0,.021.10479l.04192.08382c.02095.04192,0,.06287,0,.06287,0,.021.02095.06288.02095.08383s-.02095,0-.02095.021.02095.02095.02095.04191c.021.021,0,.04191,0,.06287a.50065.50065,0,0,0-.04191.18861,3.22378,3.22378,0,0,1-.16765.39818c-.10479.23053-.20957.35627-.35627.73349a1.74666,1.74666,0,0,0-.08383.31435,1.86093,1.86093,0,0,1-.02095.482c-.021.08383-.021.16766-.04192.27244l.04192-.021c.33531-.10478.482-.02095.52392.021l.12574.12574a.33772.33772,0,0,1,.08382.1467.52509.52509,0,0,0,.1467-.08383,2.21847,2.21847,0,0,0,.25148-.20957l.021-.02095.021-.04192c.021-.06287.29339-.46105.33531-.52392a3.48689,3.48689,0,0,0,.27244-.56583,4.243,4.243,0,0,0,.18861-.69158,1.20166,1.20166,0,0,1,.08382-.29339.40851.40851,0,0,0,.021-.16766.71278.71278,0,0,1,.021-.20956,1.64283,1.64283,0,0,1,.10478-.2934.7445.7445,0,0,0,.04192-.20957c0-.06287.04191-.10478.06287-.16765a1.032,1.032,0,0,0,.12574-.35627A1.28442,1.28442,0,0,0,56.04305,23.1c0-.06287-.04192-.29339-.04192-.29339a1.18133,1.18133,0,0,0,.25149.08382,1.40992,1.40992,0,0,0,.41913.021c.08383-.021.18861-.20957.16766-.16766a4.76359,4.76359,0,0,0,1.34123-2.97586.18892.18892,0,0,1,.021-.10479c.021-.06287.06287-.10478.08383-.16765a2.50326,2.50326,0,0,0,.16765-.33531,1.54325,1.54325,0,0,0,.08382-.2934c.021-.08382.06287-.14669.08383-.23052a.49313.49313,0,0,0,.04192-.16765c.02095-.04192.04191-.10479.06286-.1467.04192-.06287.10479-.12574.1467-.18861a.19025.19025,0,0,0,.06287-.1467.06692.06692,0,0,0-.06287-.06287c-.04191,0-.08382.02095-.12574.02095a.43856.43856,0,0,0-.12574.08383c.021-.02095.04192-.06287.06287-.08383a1.23523,1.23523,0,0,1,.16765-.08382c.04192-.021.04192-.04192.021-.10479-.021-.04191-.1467-.06287-.1467-.06287,0-.02095,0-.06287-.021-.06287l-.12574-.06287a.26592.26592,0,0,0-.12575-.02095.2805.2805,0,0,1-.10478.02095c.04192-.02095.06287-.06287.10478-.08383.04192-.04191.021-.06287.021-.10478,0-.021-.06287-.04191-.06287-.04191l.06287-.12574c.04192-.06287.27244-.39818.35627-.54488a3.1536,3.1536,0,0,0,.20957-.35627c.04192-.10478.1467-.35626.16765-.41913a1.10276,1.10276,0,0,1,.25149-.2934,2.71291,2.71291,0,0,0,.31435-.35626c.06287-.08383.25148-.41914.33531-.52392.06287-.12574.33531-.52392.37722-.58679s.46105-.54488.503-.5868.04192-.021.06287-.04191.021-.06287.04191-.08383.1467-.16765.20957-.23052a2.28792,2.28792,0,0,1,.35627-.27244,1.59922,1.59922,0,0,0,.23053-.16765.969.969,0,0,0,.1467-.1467c.04191-.04192.10478-.08383.12574-.10479a.45676.45676,0,0,0,.08382-.10478.20927.20927,0,0,1,.10479-.08383c.04192-.02095.12574-.04191.10478-.08382,0-.04192-.08382-.08383-.1467-.08383a1.4436,1.4436,0,0,0-.16765.06287l.021-.06287a1.2461,1.2461,0,0,1,.08382-.16766.22485.22485,0,0,0,.021-.23052c-.021-.06287-.16765-.08383-.16765-.08383v-.10478c0-.06287-.06287-.08383-.1467-.12574a.163.163,0,0,0-.16765.04191l-.08383-.04191a.18407.18407,0,0,0-.1467.02095c-.021.04192-.04191.10479-.06287.1467a.38871.38871,0,0,0-.04191.1467c-.021.04191-.04192.04191-.06287.021-.021,0,.04192-.1467.04192-.18861a.08008.08008,0,0,0-.06287-.10479.163.163,0,0,0-.16765.04192c-.021.02095-.04192.14669-.06287.16765a.52561.52561,0,0,1-.08383.1467c-.02095.02095-.06286.12574-.08382.1467s-.10479.16765-.1467.20956a2.2891,2.2891,0,0,0-.16765.31436c-.021.06287-.08383.18861-.08383.20956-.021.04192-.021.08383-.04192.10479a.88666.88666,0,0,0-.10478.1467c-.021.04191-.16765.14669-.35627.3353-.20957.18862-.56584.56584-.6287.62871s-.41914.503-.54488.64966-.39818.482-.41914.482a.211.211,0,0,0-.021.06287c0,.021-.02095.021-.02095.04191s-.021.021-.04192.04191-.021.021-.021.04192-.021.02095-.04191.04191,0,.04192,0,.06287-.04192.021-.06287.04192c-.021,0-.021.021-.04192.04191a.10891.10891,0,0,1-.04191.08383c-.04192.04191-.27244.35626-.35627.44009a2.6104,2.6104,0,0,0-.31436.39818,3.64217,3.64217,0,0,1-.27243.31435,3.85247,3.85247,0,0,0-.25149.37722l-.02095.021c-.021,0-.021,0-.021-.021a.05185.05185,0,0,0-.08383.021.30134.30134,0,0,1-.06287.04191.86051.86051,0,0,1-.08382-.18861,1.24418,1.24418,0,0,0-.27244-.37722,1.64738,1.64738,0,0,0-.54488-.16765,2.23761,2.23761,0,0,0-.52392.06287,1.29933,1.29933,0,0,0-.46105.35626,1.47025,1.47025,0,0,0-.18861.482.73966.73966,0,0,0-.06287.29339,1.02086,1.02086,0,0,1-.04192.31436,1.18162,1.18162,0,0,1-.14669.02095c-.06287,0-.20957-.02095-.23053,0a1.78423,1.78423,0,0,1-.35626.08383.62726.62726,0,0,0-.16766.08383v.02095A.32671.32671,0,0,1,53.86353,18.42665Z"/><path class="cls-3" d="M66.01848,18.44761l.08383-.08383-.08383.08383Z"/><path class="cls-4" d="M66.01848,18.44761l.08383-.08383-.08383.08383Z"/><polygon class="cls-3" points="66.018 18.448 66.018 18.448 66.123 18.364 66.018 18.448"/><polygon class="cls-4" points="66.018 18.448 66.018 18.448 66.123 18.364 66.018 18.448"/><path class="cls-5" d="M55.45625,11.6576a4.15945,4.15945,0,0,1-.29339.85923c-.16766.35627-.37723.482-.503.73349-.12574.27244-.10478.60775-.31435.81731a4.92948,4.92948,0,0,0-.6287.69158c-.04192,0-.08383,0-.08383.021s.021.06287-.06287.08382-.08383,0-.1467.021a.45821.45821,0,0,0-.10478.06287c-.04191.04191-.021.04191-.10479.08383-.08382.02095-.14669.04191-.16765.04191-.021.021-.021.021-.021.06287-.021.04192,0,.06287-.10478.10479s-.1467,0-.1467.06287-.08383.14669-.12574.23052c-.04191.06287,0,.1467-.08383.12574a.45875.45875,0,0,1-.20957-.18861.62444.62444,0,0,1-.14669-.31435c0-.1467.14669-.41914.12574-.52392a2.98958,2.98958,0,0,0-.16766-.46105,1.3556,1.3556,0,0,0-.16765-.18861s.021-.12574-.021-.16766-.021-.04191-.06287-.10478a.78463.78463,0,0,0-.27244-.25148c-.12574-.06287-.10478-.06287-.10478-.06287l.16765.06287a.27635.27635,0,0,0-.18861-.20957,1.06982,1.06982,0,0,0-.6287-.06287.80458.80458,0,0,0-.37723.18861,2.22779,2.22779,0,0,0-.23052.18861.32584.32584,0,0,0-.12574.16765c-.021.06287-.06287.12575-.08383.18862a2.33644,2.33644,0,0,0-.1467.41913,2.27736,2.27736,0,0,0,.021.37722c.021.04192.06287.18862.08383.18862a10.01177,10.01177,0,0,0-.62871-.985c-.16765-.18862-.14669-.39818-.23052-.54488a7.76724,7.76724,0,0,1-.16766-.90114,7.8136,7.8136,0,0,1-.503-1.73942c0-.27244,0-.31435.06287-.33531.08383-.06287.18861-.12574.27244-.18861a37.21021,37.21021,0,0,1,6.287.83827.19026.19026,0,0,0,.06287.1467,2.84472,2.84472,0,0,1,.25148.25148A.36725.36725,0,0,1,55.45625,11.6576ZM60.27632,11.49l-.88019-.16766a2.1451,2.1451,0,0,0-.88019-2.07472h0a1.956,1.956,0,0,0-.69157-.25148l-.06287-.021c-.79636-.1467-1.61368.60775-1.90708,1.71846a.077.077,0,0,1-.06287-.021.15883.15883,0,0,0-.08382-.04191c-.06287,0-.06287,0-.04192-.04192s-.02095-.08382-.08382-.08382c-.04191.021-.16766.06287-.23053.08382s-.06287-.04191-.08382.1467a50.41931,50.41931,0,0,0-6.4547-.964.61209.61209,0,0,0-.04191-.18861C48.72911,9.52,48.51954,9.541,48.49859,9.52s-.1467-.06287-.16766,0,.06287.23052.06287.23052l-.06287-.02095a1.5173,1.5173,0,0,1-.08382-.1467c-.04192-.08383-.18861-.08383-.23053-.12574-.021,0-.04191-.021-.06287,0a.04506.04506,0,0,0-.04191.04191.47556.47556,0,0,0-.08383-.021c-.021,0-.10478,0-.12574.021a.157.157,0,0,1-.10479.021.2659.2659,0,0,0-.12574.021.49313.49313,0,0,0-.16765.04192c-.10479.04191-.10479.10478-.10479.10478h-.04191a2.25695,2.25695,0,0,0-1.17358-2.13759h0a2.92937,2.92937,0,0,0-.71253-.16766h-.06288c-.75444-.021-1.42506.71253-1.63463,1.73942L42.29537,9.059c-.04191,0-.14669.16765-.14669.33531s.06287.37722.12574.37722L43.469,9.8134a2.27485,2.27485,0,0,0,1.06879,2.07473h0c.04192.02095.06287.02095.10479.04191h.021a5.6198,5.6198,0,0,0,.56583.1467c.04191,0,.10478.021.1467.021h.04191c.83827.021,1.5508-.85922,1.67654-2.01185h.08383c0,.04191.021.06287.021.08383a2.59588,2.59588,0,0,0,.37722.46105c.10479.08383.06287.12574.12574.35626s.25148,1.65559.27244,1.9909a9.29026,9.29026,0,0,0,.60775,1.76037c.27244.06287.54488.16766.79636.23053a2.79832,2.79832,0,0,1,.37722.14669c.08383.021.1467.04192.23053.06287a.077.077,0,0,1,.06287.021c.16765.1467.12574.44009.20957.60775.10478.20957.27244.37722.35626.58679.04191.12574.06287.25148.10479.37722a2.2708,2.2708,0,0,0,.16765.39818,1.587,1.587,0,0,0,.18861.37722.55074.55074,0,0,1,.1467.31436.26578.26578,0,0,1-.021.12574c.021.04191.021.06287.04191.10478a.93827.93827,0,0,1,.08383.41914.81612.81612,0,0,1-.27244.67062c-.23053.27243-.52392.482-.7754.73348l-.04191.04192.06287.31435a2.95081,2.95081,0,0,1,.02095.60775,3.817,3.817,0,0,1-.02095.69157,1.07614,1.07614,0,0,1-.12575.52392.86426.86426,0,0,1-.27243.20957h0a.84942.84942,0,0,1,0,.23052.74455.74455,0,0,1-.08383.18862.51074.51074,0,0,1,0,.25148.74491.74491,0,0,1-.04191.20957v.503a.64637.64637,0,0,1-.021.18861c-.021.08383,0,.1467-.021.25148s-.021.12574-.04191.2934c-.021.18861-.06287.52392-.06287.6287a1.22335,1.22335,0,0,1-.16766.46105c-.06287.10479.08383.1467.08383.1467a.80916.80916,0,0,1-.16766.41914,2.32351,2.32351,0,0,0-.35626.6287A3.70655,3.70655,0,0,0,48.792,27.962v.20957c.04191,0,.08383-.021.12574-.021a1.58327,1.58327,0,0,1,.88019.16766c.04191-.08383.06287-.16766.10478-.25149l.18861-.503c.04191-.18861.08383-.35626.10479-.482a4.11285,4.11285,0,0,1,.37722-.81731c.12574-.25148.20957-.2934.25148-.31435a1.36809,1.36809,0,0,1,.41914-.10479c.18861-.021.46105-.08383.52392-.25148S52.166,24.546,52.166,24.546s.04192.27244.06288.35626.06287-.02095.04191.04192a1.858,1.858,0,0,0,.12574.44009c0,.021-.021.44009-.021.69158a2.47267,2.47267,0,0,0,.2934,1.04784.87864.87864,0,0,1,.08382.33531l.04192-.021a4.54567,4.54567,0,0,1,.73348-.31435c.021,0,.06288-.021.08383-.021.021-.08383.021-.18861.04191-.27244a1.8605,1.8605,0,0,0,.021-.482V26.2645a3.00683,3.00683,0,0,0-.08382-.46105,2.57469,2.57469,0,0,1,.04191-.56584,1.182,1.182,0,0,1,.08382-.25148s.25149-.14669.25149-.18861a.53153.53153,0,0,0-.04192-.25148,1.42883,1.42883,0,0,1-.021-.52392v-.08383l.04192-.85923c0-.12574-.06287-1.34123-.08383-1.446-.04191-.10478-.35626-.69157-.37722-.71253-.021-.04191-.04191-.08383,0-.12574a.077.077,0,0,1,.06287-.021,1.18315,1.18315,0,0,0,.33531-.16765c0-.021.06287-.71253.08383-.94306v-.33531a6.40228,6.40228,0,0,1-.08383-.985v-.41913a5.89777,5.89777,0,0,1,0-.62871,8.06185,8.06185,0,0,1,.16765-.985.45886.45886,0,0,1,.20957-.18861.10078.10078,0,0,1,.04192-.12574,4.28607,4.28607,0,0,0,.41913-.64966c.08383-.18861.46105-.81732.52392-.94306s.33531-.54487.4401-.75444a3.92565,3.92565,0,0,0,.25148-1.00593.22782.22782,0,0,1,.021-.10478,1.71228,1.71228,0,0,0,.60774.7754c.021.021.06287.04191.08383.06287l.021.021a4.19942,4.19942,0,0,0,.54487.20957c.04192.02095.10479.02095.1467.04191h.04191c.79636.12574,1.59272-.60775,1.90708-1.6975l.85923.16765a.42052.42052,0,0,0,.18861-.31435C60.33918,11.72047,60.33918,11.49,60.27632,11.49Z"/><path class="cls-1" d="M54.136,29.0308l-.04191.02095c-.16766.06288-.73349.23053-.964.31436l-.06287.021c-.06287.021-.1467.04192-.27244.08383a.43458.43458,0,0,1-.04191.12574.59806.59806,0,0,0,0,.27244.33779.33779,0,0,0,.08383.1467c0,.02095-.021.04191-.021.06287l-.08383.20957a.16361.16361,0,0,1-.08382.08382l-.10479.04192c-.021,0-.08382.12574-.12574.16765a.23062.23062,0,0,0-.06287.12574c-.021.04192-.021.08383-.04191.12574s0,.06287,0,.06287,1.21549.10479,1.2574.10479.04192-.021.10479-.06287a.42126.42126,0,0,0,.08382-.16766c0-.02095.021-.04191.06287-.08383a.13358.13358,0,0,0,0-.12574c0-.02095-.06287-.04191-.06287-.04191V30.414c.04192.02095.06287.04191.10479.04191a.3447.3447,0,0,0,.20957-.04191.22643.22643,0,0,0,.06287-.1467v-.16766a1.02254,1.02254,0,0,0-.06287-.14669,5.14506,5.14506,0,0,0,.20956-.985c-.02095,0-.08382.04191-.14669.06287Z"/><path class="cls-6" d="M39.17281,22.11505s-.10478.1467-.08383.16766a3.06859,3.06859,0,0,1,1.48794-.79636s-1.32028-.482-1.29932-.64966c0,0-.25148-.10479-.33531-.06288s-.20957.12575-.25148.08383a.38654.38654,0,0,1-.021.39818A7.22284,7.22284,0,0,1,39.17281,22.11505Z"/><path class="cls-7" d="M40.053,12.915a.53924.53924,0,0,0,.31436.021,1.54764,1.54764,0,0,1,.39817-.06287.558.558,0,0,0-.06287.25148,1.22692,1.22692,0,0,0-.04191.27244c0,.021.06287.31435.16766.23052a1.80776,1.80776,0,0,0-.08383.58679.37763.37763,0,0,0-.33531-.18861c-.08383-.06287-.16766-.1467-.29339-.12574-.10479-.08383-.1467-.10478-.1467-.23052l-.021-.37723c.04191-.12574.08383-.33531.10478-.37722Zm1.467,8.08933a1.18111,1.18111,0,0,0,.25148-.08383c-.021-.04191-.021-.06287-.04191-.08383a2.01435,2.01435,0,0,0-.16766-.60774,1.02235,1.02235,0,0,0,.021-.35627c0-.021-.06287-.08383-.06287-.08383a.88721.88721,0,0,1,.08383-.25148,2.89589,2.89589,0,0,0,.16765-.56583,1.28969,1.28969,0,0,1,.1467-.482,6.39559,6.39559,0,0,0,.35626-1.0688,7.40208,7.40208,0,0,1,.31436-.964,1.83906,1.83906,0,0,0,.18861-.985,1.46462,1.46462,0,0,0-.20957-.482c.04191,0,.10478-.02095.06287-.08382a.419.419,0,0,1,.04191-.27244c.04192-.04192,0-.10479-.04191-.12574s-.44009-.10479-.44009-.10479a1.74724,1.74724,0,0,0,.16765-.25148c.12574.04191.1467-.06287.18861-.12574.08383.06287,1.25741.94306,2.32621,1.73942.04191-.021.08382-.021.12574-.04192l-2.41-1.86515a1.02447,1.02447,0,0,1,.14669-.23053.06184.06184,0,0,0-.04191-.08383c-.02095,0-.08383.04192-.08383.021a.62729.62729,0,0,0,.08383-.20957,1.03447,1.03447,0,0,1,.06287-.31435.825.825,0,0,0-.54488-.9221c-.58679-.18861-.83827-.021-1.04784.25148a.15507.15507,0,0,0-.08382-.12574.49319.49319,0,0,0-.16766.04192c-.021-.04192-.12574-.12575-.16765-.10479-.021-.04191-.04192-.08383-.08383-.08383a1.05288,1.05288,0,0,0-.10478-.27243.42241.42241,0,0,0-.23053-.06287c-.021-.04192-.12574-.08383-.12574-.08383-.021,0-.06287,0-.06287-.021s-.08383-.04191-.10479-.04191-.04191-.021-.06287-.021a.16006.16006,0,0,0-.10478-.04191.4614.4614,0,0,0-.16766-.021q-.06287.03144-.06287.06287c-.04191,0-.16765.10478-.1467.18861a.666.666,0,0,0-.20956.20957c-.06287,0-.12575.08383-.16766.10478a.157.157,0,0,0-.021.10479c-.06287.08382-.39817.90114-.44009,1.00592s-.23053.482-.27244.5868a4.13872,4.13872,0,0,0-.16765.54487,1.46808,1.46808,0,0,1-.06288.2934c-.02095.06287-.12574.31435-.06287.41913a.53323.53323,0,0,0,.25148.23053c.06288.021.2934.08383.33531.1467.04192.08382.20957.3353.27244.3353a.56967.56967,0,0,0,.18861,0c.06287.08383.16766.18862.16766.23053,0,.06287-.1467.503-.16766.6287s-.06287.52392-.08382.64966a3.81654,3.81654,0,0,0-.31435.56584c-.04192.08383-.1467.461-.18861.58679a1.6701,1.6701,0,0,0-.16766.33531l-.16765.16765v.18861a.31216.31216,0,0,0,.08382.18862l.12574.12574a2.30154,2.30154,0,0,0-.06287.23052,4.50263,4.50263,0,0,1,1.19454.31435A13.98432,13.98432,0,0,1,41.52,21.00434Z"/><path class="cls-6" d="M42.16963,25.32144a1.23148,1.23148,0,0,1-.27244-.75444c0-.31436.12575-1.42507.12575-1.71846a3.74076,3.74076,0,0,0-.04192-.482.29891.29891,0,0,1-.08382-.16765s-.20957,0-.25148-.04192c0,0-.7754.69158-1.0688,1.00593a11.02805,11.02805,0,0,1-1.928,1.86516.47194.47194,0,0,1,.021.14669c0,.08383.04191.35627.06287.64966a4.65153,4.65153,0,0,1,1.32028.04192,7.89411,7.89411,0,0,1,.04191-1.6975c.08383.16765.23053,1.25741.27244,1.36219a2.37959,2.37959,0,0,0,.31436.482,3.7453,3.7453,0,0,1,1.29932.71253,2.30388,2.30388,0,0,1,.60774,1.02688,6.81361,6.81361,0,0,1,.23053-.88018c-.021-.08383-.06287-.16766-.08383-.25148A6.34533,6.34533,0,0,0,42.16963,25.32144Z"/><path class="cls-6" d="M39.25664,28.38114c.06287.23052.12574.44009.16765.67061a.88685.88685,0,0,1,.021.46105.94931.94931,0,0,0-.06287.33531l.06287.25148s0,.31435.04191.31435c0,.08383-.04191.23053.04191.25148a1.41,1.41,0,0,0,.41914.021c.10478-.021.58679-.18861.67062-.18861a8.71354,8.71354,0,0,0,.964-.12574,4.66328,4.66328,0,0,0,.503-.39818c.08383-.06287-.10478-.33531-.23052-.33531a1.09448,1.09448,0,0,0-.4401.08383.56111.56111,0,0,1-.482-.10479.29382.29382,0,0,1-.16766-.31435,3.00728,3.00728,0,0,0-.08382-.46105,3.90133,3.90133,0,0,1-1.446-.54487C39.23568,28.31827,39.25664,28.36018,39.25664,28.38114Z"/><path class="cls-6" d="M43.51087,30.854c.021-.021.04191-.021.10478-.06287.04192-.021.04192-.021.06287-.021s0,0,.021-.04191a.04507.04507,0,0,1,.04191-.04191.29787.29787,0,0,0,.04192-.12574c.04191-.16766.021-.60775.08382-.81732a3.07082,3.07082,0,0,0,.25148-.985.53107.53107,0,0,0-.20956-.37722c-.1467.31435-.35627.58679-.503.90114a5.11929,5.11929,0,0,1-.20956.503c-.021.04192-.04192.10479-.06288.1467a1.5859,1.5859,0,0,1,.021.31435c-.021.10479-.06287.20957-.08382.31436-.04192.18861.04191.31435-.18861.39817a3.41468,3.41468,0,0,0-.64967.23053c-.02095.16765-.02095.33531.06288.37722a1.03215,1.03215,0,0,0,.90114-.12574,3.85353,3.85353,0,0,0,.35626-.461.35671.35671,0,0,1-.14669-.021C43.38513,30.93787,43.48991,30.875,43.51087,30.854Z"/><path class="cls-6" d="M43.67852,30.7283c-.02095.04191,0,.021-.02095.04191s-.021,0-.06288.021a.224.224,0,0,0-.10478.06287c-.021.021-.12574.08383-.10478.10478a.35655.35655,0,0,0,.14669.021c.06287-.10478.12575-.18861.18861-.2934Z"/><path class="cls-3" d="M39.17281,22.136a4.167,4.167,0,0,0-.52392-.83828.3892.3892,0,0,0,.021-.39818c.04191.04192.14669-.04191.25148-.08382s.33531.06287.33531.06287c0,.16765,1.29932.64966,1.29932.64966a2.39552,2.39552,0,0,0-1.38315.60775Zm-4.12849-.16766c-.41914-.08383-2.1376,1.928-2.1376,1.928A2.94135,2.94135,0,0,0,32.55046,23.1a1.01,1.01,0,0,1-.18861-.54488,8.33439,8.33439,0,0,0,.021-1.61367.28833.28833,0,0,0,.23052.021.74032.74032,0,0,0,1.29933.33531c.06287.33531,1.15262.46105,1.15262.46105Zm1.928,4.42189c.25149.06287,1.2155-.33531.94306-.08383a.53826.53826,0,0,0-.021.60775.02052.02052,0,0,0,.021.021c.021.04192.021.04192-.021-.021a3.37349,3.37349,0,0,0-.9221-.52392c-.02095,0-.02095,0-.04191-.021Zm1.76037-.56584a9.81588,9.81588,0,0,0-1.13166.20957,7.92317,7.92317,0,0,1-1.38315-.08382c-.25148-.12575-1.63463-.56584-1.63463-.56584a2.32977,2.32977,0,0,0-.1467-.33531c.021-.08382.482-.33531.482-.33531A9.08938,9.08938,0,0,0,36.679,23.62394c.06287.25148,1.25741,1.04784,1.25741,1.04784a1.54971,1.54971,0,0,0,.64966.33531h.06287a11.02793,11.02793,0,0,0,1.928-1.86516c.2934-.29339,1.0688-1.00592,1.0688-1.00592.021.04191.25148.04191.25148.04191a.25055.25055,0,0,0,.08383.16765c.12574.1467.27244.2934.41914.4401.14669,0,.41913.25148.41913.25148.18861.29339.18861-.08383.18861-.08383a1.44453,1.44453,0,0,1,.16766.06287l.06287-.31435.18861-.503a.21114.21114,0,0,0,.021-.06287c.021-.06288.06287-.10479.08382-.16766-.16765-.06287-.29339-.10478-.29339-.10478a3.44614,3.44614,0,0,0-.46105-.2934.64961.64961,0,0,0,.27244-.12574c.04191,0,.08382.021.08382.06287a2.32384,2.32384,0,0,0,.73349-.16765,1.57044,1.57044,0,0,0,.10479-.33531c.08382-.39818.04191-.81732.10478-1.2155-.18861-.02095-.16765.10479-.16765.10479-.06287.04191-.31436-.08383-.31436-.08383a1.51087,1.51087,0,0,0-1.21549-.2934c-.33531.06287-.503,1.25741-.503,1.25741a.25253.25253,0,0,1-.10479.10479,1.18106,1.18106,0,0,1-.25148.08382c-.20957-.18861-1.9909-1.08975-1.9909-1.08975a6.99379,6.99379,0,0,0-1.19453-.31435,4.82555,4.82555,0,0,0-.54488-.08383,5.79929,5.79929,0,0,0-2.32621-1.42506.338.338,0,0,0,.06287-.18861c.08383-.18862.37723-.08383.37723-.08383a.248.248,0,0,0-.021-.20957c.16765.20957.27244-.1467.27244-.1467a.68245.68245,0,0,0-.25148-.44009c.10478.021.35626.52392.16765.021,0-.021,0-.021-.021-.04192a.66.66,0,0,0-.56583-.46105c-.31435-.33531-.964-.1467-.964-.1467l-.27243-.06287c-1.32028-.41913-1.42507.2934-1.42507.2934-.37722.06287-.54488.79636-.54488.79636-.12574.04191-.02095.27244-.02095.27244-.18861-.021-.18861.73349-.18861.73349a1.71373,1.71373,0,0,0-.83828,2.24237,4.27658,4.27658,0,0,0,0,1.48794,2.10713,2.10713,0,0,1,.12575.9221c.06287.7754,1.08975,1.65559,1.08975,1.65559-.04191.08382.08382.25148.08382.25148-.18861.12574.41914,2.09568.41914,2.09568a4.13873,4.13873,0,0,1,.12574,2.36812c-.10478-.04192-.12574.44009-.12574.44009-.20957.021-.69157.58679-.69157.58679s.02095-.04191-.04192.04191a3.47056,3.47056,0,0,1-.52392.33531c-.482.08383-.37722.4401-.37722.4401.1467.37722,2.22142.25148,2.22142.25148a.18113.18113,0,0,0,.06287-.12574c.2934.08382.88019-.31436.88019-.31436.1467-.18861,0-.67061,0-.67061a1.93107,1.93107,0,0,1-.08383-.60775.68511.68511,0,0,0-.23052-.31435c.08382-.25148.20956-2.20047.20956-2.20047a1.21752,1.21752,0,0,0,.021-1.08975c.06287-.021.04192-.16766.04192-.16766.29339.37723.44009.04192.44009.04192a9.12238,9.12238,0,0,0,1.2155.29339A9.49941,9.49941,0,0,1,38.607,27.83626a6.23862,6.23862,0,0,0,.60775.41913,4.04373,4.04373,0,0,0,1.446.54488,3.01679,3.01679,0,0,0,1.48793-.12574.65522.65522,0,0,0,.23053-.18861l.06287-.12574c.021-.08383.021-.1467.04191-.23053a2.69587,2.69587,0,0,1,.08383-.39818,2.00372,2.00372,0,0,0-.60775-1.02688,3.745,3.745,0,0,0-1.29932-.71253c-.20957-.06288-.39818-.10479-.60775-.1467m0,0a5.57285,5.57285,0,0,0-1.32028-.04191"/><path class="cls-7" d="M65.43169,27.60573l-.06287.04192-.04191-.12574s-.23053-.67062-.2934-.81732a.409.409,0,0,0-.25148-.27244c-.10478-.06287-.27244-.16765-.27244-.16765a2.33733,2.33733,0,0,1-.04191-.27244.68881.68881,0,0,0-.1467-.33531.91438.91438,0,0,0-.20957-.16766c-.08383-.06287-.54488-.37722-.64966-.44009s-.39818-.2934-.64967-.503a2.93166,2.93166,0,0,0-.54487-.33531v-.58679a.66943.66943,0,0,1,.06286-.2934,2.17585,2.17585,0,0,0,.25149-.1467c.1467-.08382.27243-.16765.39818-.25148.12574-.10478.23052-.20957.29339-.25148a2.18993,2.18993,0,0,0,.4401-.44009,3.48682,3.48682,0,0,0,.27243-.56583c.021-.04192.021-.04192.04192-.04192.04191,0,.06287-.021.10478-.021V21.654c0,.04191.06287.20957.08383.2934a5.41431,5.41431,0,0,0,.16765.54487c.04191.08383.23053.62871.35627.9221a4.83715,4.83715,0,0,1,.20957.58679c.02095.12574.1467.482.16765.58679s.20957.482.25148.60775c.06287.12574.31435.46105.37722.58679a6.33189,6.33189,0,0,1,.25149.60775.201.201,0,0,1-.04192.18861,1.6749,1.6749,0,0,1-.27244.27244.35213.35213,0,0,0-.1467.16766.49943.49943,0,0,1-.12574.23052.40439.40439,0,0,0-.06287.20957Zm-1.63463,1.25741s-.12574-.41913-.1467-.482a.65522.65522,0,0,0-.18861-.23053c-.08383-.06287-.54488-.73349-.64967-.88018s-.41913-.67062-.41913-.67062l.25148.12574a.87874.87874,0,0,0,.33531.08383c.06287.02095.16766.02095.16766.04191a1.3355,1.3355,0,0,0,.04191.1467v.10478a.49951.49951,0,0,0,.12574.23052c.04192.021.021.021.021.08383a1.66505,1.66505,0,0,0,.12574.46105,2.663,2.663,0,0,0,.37722.56583l.18861.20957ZM68.219,31.16839a.58008.58008,0,0,0-.1467-.08383A1.5877,1.5877,0,0,0,67.695,30.896a.23794.23794,0,0,1-.16766-.06287c-.02095-.021-.1467-.08383-.16765-.10478s-.04191-.12574-.08382-.16766c-.06287-.02095-.1467-.06287-.1467-.10478s.04191-.08383-.08383-.12574-.1467-.04192-.1467-.08383-.06287-.08383-.1467-.06287-.10479.04191-.1467,0-.06287-.16766-.08383-.16766c-.04191,0-.021-.14669-.06287-.18861a5.4233,5.4233,0,0,0-.37722-.60775,3.37157,3.37157,0,0,1-.35626-.58679c-.06287-.16765-.20957-.58679-.20957-.58679h.06287s.08382.08383.1467.04191a.49952.49952,0,0,0,.23052-.12574.96779.96779,0,0,1,.31435-.18861c.10479-.04191.27244-.02095.31436-.12574a2.19524,2.19524,0,0,0,.10478-.6287,2.3021,2.3021,0,0,0-.021-.58679c-.04191-.10479-.25148-.985-.29339-1.23646a7.52983,7.52983,0,0,0-.25149-.985c-.08382-.23052-.33531-.67061-.39817-.83827-.06287-.20957-.10479-.41913-.1467-.6287a2.92816,2.92816,0,0,0-.18861-.60775c-.10479-.20957-.18861-.31435-.18861-.46105-.021-.1467-.021-.41914-.04192-.503a.533.533,0,0,0-.04192-.1467l.06287-.06287c.021-.021.021-.06287.04192-.08383s.08382-.06287.08382-.10478c.021-.04192.021-.12574.06287-.1467.021-.021.06287,0,.10479,0,.04191.021.08382.04191.12574-.021s.021-.20956.04191-.33531v-.20956c0-.021.04192,0,.04192,0v-.021a.16.16,0,0,1,.04192-.10478c.06286-.04192.18861-.08383.20956-.12574s.06287-.23053.08383-.27244a.94908.94908,0,0,0,.06287-.33531.4614.4614,0,0,1-.021-.16766c0-.04191.04192-.16765-.021-.25148-.04191-.06287-.12574-.08383-.10478-.1467,0-.06287.021-.08382.021-.16765a1.61743,1.61743,0,0,0-.04192-.31435,1.25732,1.25732,0,0,0-.33531-.39818,1.22636,1.22636,0,0,0-.27244-.04192c-.08382-.021-.06286-.04191-.16765-.04191h-.20957a.42851.42851,0,0,0-.23052,0,.58011.58011,0,0,1-.18861.021.71317.71317,0,0,0-.20957.021.75335.75335,0,0,0-.23053.04192l-.12574.06287a.12679.12679,0,0,0-.021-.16766.24931.24931,0,0,0-.23052-.08382.29256.29256,0,0,1-.18861-.06287c-.08383-.04192-.12575-.06287-.16765-.021-.06287.04191-.16766-.08383-.27244-.06287-.04192,0-.06287.021-.08383.06287a.15708.15708,0,0,0-.02095.10478c0,.04192-.14671.18861-.20957.20957-.06287.04192-.021.08383-.04192.12574-.06287.04192-.10478.08383-.16765.12574-.06287.06287-.10479.08383-.06287.12574.04192.021.16765,0,.08383.04192a.23289.23289,0,0,0-.10479.29339c.08383.1467.04192.33531.08383.37722s.1467-.02095.31435-.02095.10479-.021.16765.02095.08383,0,.08383.08383c-.021.06287-.10479.1467-.08383.23053s-.04191.12574.021.16765a.354.354,0,0,0,.20957.06287.79313.79313,0,0,0,.16765-.02095v.08382a.46135.46135,0,0,1-.16765.021,3.23882,3.23882,0,0,0-.482.12574l-.81732.27244c-.12574.04191-.64966.27244-.7754.29339a2.96866,2.96866,0,0,0-.37722.16766c-.06287.04191-.25149.18861-.33531.25148L60.3811,20.69s-.1467.10478-.18861.1467a1.22109,1.22109,0,0,1-.31435.23052l-.56584.25148a1.575,1.575,0,0,0-.46105.27244c-.06287.08383-.06287.20957-.08383.20957a.4112.4112,0,0,0-.18861.18861.53217.53217,0,0,1-.18861.27244.32594.32594,0,0,0-.16765.12574.48946.48946,0,0,1-.1467.1467c-.04192.02095-.06287.04191-.10478.06287l-.25148.12574a.98334.98334,0,0,0-.18861.12574c-.04192.04191-.06288.06287-.10479.06287s-.04191.06287-.06287.06287a.32087.32087,0,0,0-.1467.10479c-.02095.04191-.02095.10478-.04191.14669a.93037.93037,0,0,0-.16765.23053,2.96709,2.96709,0,0,0-.16766.37722.58635.58635,0,0,0-.021.12574.30289.30289,0,0,0-.04191.1467c0,.021-.021.10478-.021.1467a.16011.16011,0,0,1-.04191.10478v.12574c0,.021-.021.06287-.021.08383v.16765c-.04191.10479-.06287.20957-.10478.2934a.126.126,0,0,0-.021.08383v.02095s-.54488.60775-.71253.83828c-.16766.20956-.46105.6287-.56584.79635a2.93791,2.93791,0,0,1-.35626.46105l-.021.021a2.21847,2.21847,0,0,1-.25148.20957.91109.91109,0,0,1-.1467.08383.525.525,0,0,0-.08382-.1467l-.12574-.12574c-.04192-.04191-.18861-.12574-.52393-.021l-.04191.021c-.021,0-.06287.021-.08382.021a4.54539,4.54539,0,0,0-.73349.31435l-.04192.02095a2.3438,2.3438,0,0,0-.37722.16766c-.06287.04191-.56583.33531-.6287.39818-.08383.06287-.4401.27244-.54488.33531s-.41914.23052-.503.29339c-.06287.04192-.23053.1467-.2934.18861A1.61566,1.61566,0,0,1,50.72,30.51872a.37585.37585,0,0,0,.1467-.10478,1.77,1.77,0,0,1,.37722-.31435,1.92391,1.92391,0,0,1,.58679-.27244c.1467-.021.71253-.16766,1.08976-.27244.12574-.04191.23052-.06287.27244-.08383l.06287-.021c.23052-.08383.79636-.25149.964-.31436l.04192-.021a.42634.42634,0,0,0,.18861-.12574l.02095-.021q.03144-.06286.06287-.06287h.10479v-.021a2.4061,2.4061,0,0,0,.39818.021.88948.88948,0,0,0,.39817-.12574,4.50118,4.50118,0,0,0,.54488-.2934c.1467-.10478.60775-.482.79636-.6287s.88019-.73349,1.02689-.85923a8.16409,8.16409,0,0,0,.71253-.75445c.25148-.31435.37722-.503.37722-.503a.16363.16363,0,0,0,.08382-.08383c.021-.02095.04192,0,.08383,0,.20957.10479.44009.20957.64966.2934.27244.08383.60775.20957.67062.23052a2.655,2.655,0,0,1,.37722.12574c.12574.04192.503.12574.503.12574a1.98943,1.98943,0,0,0,.20957.35627c.08383.12574.27244.35627.33531.44009.20957.25148.41914.482.64966.71253a7.06016,7.06016,0,0,1,.71253.75445c.021.08383.04192.10478-.04191.29339a3.8574,3.8574,0,0,1-.18861.39818.612.612,0,0,0-.04192.18862.38845.38845,0,0,1-.04192.14669.20892.20892,0,0,0-.021.08383s-.56584.41914-.83828.62871c-.25148.20956-1.1107.943-1.23645,1.06879l-.20956.20957s-.04192-.021-.021-.08383.10478-.25148.04191-.31435-.23052.04191-.31435.16766a1.41455,1.41455,0,0,0-.27243.73348c0,.31436.04191.39818.16765.39818.1467,0,.16765.06287.52392-.33531a20.38541,20.38541,0,0,1,1.57176-1.446c.39818-.3353.83827-.69157.83827-.69157a.26578.26578,0,0,0,.12574.021c.04192-.021.12575-.08383.16765-.08383a.1903.1903,0,0,0,.14671-.06287c.02095-.021.08382-.06287.10478-.08383l.12574-.12574c0-.021.06287-.04191.08383-.10478s.16765-.1467.16765-.20957c0-.08383-.021-.08383-.021-.08383.021-.021.04192-.04191.04192-.06287a.07314.07314,0,0,1,.021-.04191l.31435-.23053c.1467.18861.29339.37722.41913.56583.08383.1467.2934.482.31436.52392s.08382.08383.08382.12574a.18891.18891,0,0,0,.021.10479.75278.75278,0,0,0-.1467.20957,1.74561,1.74561,0,0,0-.08383.31435c0,.021,0,.04191-.02095.04191-.04192.021-.08383.06287-.06287.10479,0,.08382.021.12574,0,.14669s-.06287.021-.08383.06287-.04191.1467,0,.16766a2.17038,2.17038,0,0,0,.90114.18861c.503,0,.62871-.06287.77541-.04191.16765.02095.964.10478,1.23645.10478s.60774-.02095.60774-.08383v-.12574C68.32373,31.29413,68.30277,31.2103,68.219,31.16839Z"/><path class="cls-8" d="M46.48673,27.29138l-.04191.06287Z"/><path class="cls-8" d="M50.17513,18.762c-.04191.06287-.06287.10478-.10478.16765,0,0-.06287.06287-.08383.06287a.077.077,0,0,0-.02095-.06287c-.021-.12574-.021-.37722-.04192-.503.04192.021.08383.021.12575.04191.06287,0,.12574.021.18861.021a.64524.64524,0,0,1-.06288.27244Zm1.15263-.18861a1.35475,1.35475,0,0,0-.08383-.41914c-.021-.04191-.021-.06287-.04191-.10478a.26576.26576,0,0,0,.021-.12574.55068.55068,0,0,0-.1467-.31435l-.18861-.37723a3.22313,3.22313,0,0,1-.16765-.39818c-.04192-.12574-.06288-.25148-.10479-.39818A4.38965,4.38965,0,0,0,50.259,15.849c-.08383-.18861-.04192-.46105-.20957-.60774a.077.077,0,0,0-.06287-.021c-.06287-.021-.1467-.04191-.23053-.06287a2.79973,2.79973,0,0,0-.37722-.1467c-.27244-.08383-.52392-.16765-.79636-.23052h-.04191a2.05758,2.05758,0,0,0-.60775-.10479l-.12574-.08382a.10889.10889,0,0,0-.08383-.04192.07314.07314,0,0,0-.021-.04191,1.06215,1.06215,0,0,1-.04191-.27244c.18861-.12574.20957-.41914.20957-.6287,0-.06288,0-.23053-.10479-.25149h0v-.37722a1.22214,1.22214,0,0,0-.04191-.482c-.08382-.20956-.25148-.37722-.46105-.3353-.10478-.18862-.54488-.06288-.69157-.021a3.07045,3.07045,0,0,0-.58679.29339c-.1467.08383-.27244.18861-.41914.27244s-.27244.08383-.41914.16766v.02095a.02053.02053,0,0,0,.021.021h.021c.08383,0,.18861.021.27244.021-.08383.04191-.1467.08382-.23053.12574h.04192c.10478-.021.20956-.021.31435-.04192h0v.04192a.43949.43949,0,0,1-.23053.08383h0a.85955.85955,0,0,0,.23053-.021.157.157,0,0,0,.021.10478.49317.49317,0,0,0,.04191.16766,1.33747,1.33747,0,0,0,.04191.14669c-.06287.10479,0,.31436.021.39818a.58418.58418,0,0,0,.25148.37723,1.46477,1.46477,0,0,0,.27244.60774c-.06287.06287-.1467.10479-.20957.16766l-.503.31435a4.50333,4.50333,0,0,1-.54488.2934h0c-.04191.02095-.08382.02095-.12574.04191-.08383.021-.18861.25148-.18861.25148v.021l-.12574.25148a2.3277,2.3277,0,0,0-.1467.33531,1.97728,1.97728,0,0,0-.08383.85923c.021.33531.06288.67062.08383,1.00592v.37723a.16365.16365,0,0,0,.08383.08383,1.58053,1.58053,0,0,1-.12575.27243,2.504,2.504,0,0,0-.23052.54488.077.077,0,0,1-.021.06287c-.06287.39818-.04191.81732-.10478,1.2155a2.06056,2.06056,0,0,1-.10479.3353,3.62094,3.62094,0,0,1-.33531.62871c-.021.06287-.06287.10478-.08382.16765a.21114.21114,0,0,0-.021.06287,2.45682,2.45682,0,0,0-.18861.503l-.06287.31435c-.021.10478-.021.23052-.04192.33531,0,.021,0,.021.021.04191a.029.029,0,0,0,.04191,0c.08383-.021.10479-.1467.12575-.23052.02095.04191.02095.08382.06287.12574a.02052.02052,0,0,0,.021.02095H43.469a.1123.1123,0,0,0,.06287-.08382c0-.021,0-.021.021-.04192l.021.021c.021,0,.021.021.04191,0,.021,0,.021-.021.021-.04191a.42875.42875,0,0,0,0-.23053c.02095-.04191.06287-.08382.08382-.12574l.06287-.12574c0-.02095.021-.02095.021-.04191a.91109.91109,0,0,0,.08383-.1467l.021-.04191a.19024.19024,0,0,0,.14669-.06287,1.11,1.11,0,0,0,.12575-.20957,1.8892,1.8892,0,0,1,.18861-.20957.54085.54085,0,0,0,.06287-.44009c.04191-.06287.08382-.1467.12574-.20957.06287-.12574.1467-.25148.20957-.37722a5.77265,5.77265,0,0,0,.35626-.60775c.021-.06287.04191-.10478.06287-.16765.08383-.27244.20957-.52393.27244-.79636.04191-.1467.021-.27244.06287-.41914a.97877.97877,0,0,0,.06287-.35627.63675.63675,0,0,0,.10479-.14669.298.298,0,0,0,.04191.12574c.021.04191.06287.10478.08383.1467a.5457.5457,0,0,1,.08382.31435v.27244c0,.02095-.021.04191-.021.06287s.021.04191.021.06287a1.91733,1.91733,0,0,1-.021.3353,1.77841,1.77841,0,0,1-.18861.46105.4225.4225,0,0,0-.06287.23053.75323.75323,0,0,0,.04192.23052.18406.18406,0,0,1-.021.1467c-.04191.06287-.12574.10479-.18861.18861L45.397,21.172c0,.06287.04191.10479.04191.1467a.19028.19028,0,0,1-.06287.1467.2258.2258,0,0,0-.04191.16765c0,.021.02095.04192.04191.06287a.63807.63807,0,0,0-.16766.16766c-.12574.16765-.20956.35626-.33531.52392a6.65038,6.65038,0,0,0-.67061,1.02688,3.81778,3.81778,0,0,0-.31436,1.27837,1.90254,1.90254,0,0,1-.25148.64966,1.6706,1.6706,0,0,0-.16765.33531.90728.90728,0,0,1-.021.10478l-.25148.37723a3.816,3.816,0,0,0-.31435.56583c-.021.06287-.06287.12574-.08383.18861a4.54876,4.54876,0,0,0-.23053.88019,2.69481,2.69481,0,0,1-.08382.39818c-.021.08382-.021.14669-.04191.23052l-.06288.37722A4.45669,4.45669,0,0,1,41.981,30.372a.63317.63317,0,0,0-.18861.06287c-.021,0-.04192,0-.04192.021a1.97637,1.97637,0,0,1-.20956.20957.91328.91328,0,0,1-.2934.27244c-.08382.06287-.18861.12574-.27244.18861-.06287.021-.10478.08383-.14669.12574-.06288.12574.06287.18861.16765.20957a2.2286,2.2286,0,0,0,.64966.021.57514.57514,0,0,0,.27244-.04192,3.06526,3.06526,0,0,0,.27244-.18861h.021a3.41411,3.41411,0,0,1,.64966-.23052c.23053-.08383.1467-.20957.18861-.39818.021-.10479.06287-.20957.08383-.31436a.79882.79882,0,0,0-.021-.31435c.021-.04191.04191-.10478.06287-.1467a5.119,5.119,0,0,1,.20957-.503c.12574-.31435.35626-.58679.503-.90114.021-.04192.021-.06287.04191-.08383a2.84113,2.84113,0,0,0,.23053-.9221,5.64817,5.64817,0,0,1,.08383-.58679,2.37272,2.37272,0,0,1,.20956-.27244c.16766-.20957.33531-.39818.482-.60775a3.07992,3.07992,0,0,0,.20957-.27244c.06287-.08382.1467-.20957.20957-.31435l.25148.06287a1.05061,1.05061,0,0,0,.35626.021c.08383-.021.1467-.12574.18861-.20957l.25148-.503c.08383-.16766.20957-.2934.2934-.46105a3.94427,3.94427,0,0,1,.33531-.482,1.468,1.468,0,0,0,.16765-.20957,1.60008,1.60008,0,0,0,.16766.23053,2.41306,2.41306,0,0,0,.35626.29339v.08383a1.19535,1.19535,0,0,0-.02095.27244c-.04192.021-.06287.06287-.08383.08383-.12574.14669-.27244.27244-.39818.41913a1.71329,1.71329,0,0,0-.25148.41914,5.36208,5.36208,0,0,0-.10478.56583,7.857,7.857,0,0,1-.27244,1.2155c-.021.06287-.06287.12574-.08383.18861-.021.021-.021.04191-.04191.06287l-.021.021c-.021.02095-.04191.06287-.06287.08382a.91231.91231,0,0,0-.1467.12574.72985.72985,0,0,0-.23052.27244c-.06287.12574-.12575.23053-.18861.35627a.97007.97007,0,0,1-.31436.33531.748.748,0,0,0-.31435.71253.72883.72883,0,0,0,.20957.41914.5382.5382,0,0,0,.64966.08382.42889.42889,0,0,0,.16766-.16765l.021-.04191.06287-.12575.06287-.06287.021-.04191v-.04191c0-.021.02095-.04192.04191-.06287l.021-.021a2.65352,2.65352,0,0,1,.503-.69158,1.06666,1.06666,0,0,0,.20957-.52392A.45621.45621,0,0,0,47.325,27.962c.06287-.08383.06287-.20957.12575-.2934a4.87648,4.87648,0,0,1,.56583-.73348,4.74861,4.74861,0,0,0,.94305-1.467,2.15137,2.15137,0,0,0,.10479-.503,3.12764,3.12764,0,0,1,.04191-.4401,4.00384,4.00384,0,0,1,.33531-.56583,1.06749,1.06749,0,0,0,.1467-.35626.54011.54011,0,0,0,.16765-.27244.74457.74457,0,0,0,.04192-.20957.51074.51074,0,0,0,0-.25148.74425.74425,0,0,0,.08382-.18861.42855.42855,0,0,0,0-.23053h0a.93989.93989,0,0,0,.27244-.20957,1.076,1.076,0,0,0,.12574-.52392c.021-.23052.021-.46105.021-.69157a5.88845,5.88845,0,0,0-.021-.60775l-.06287-.31435.04192-.04192c.25148-.25148.54487-.46105.7754-.73349A1.14984,1.14984,0,0,0,51.32776,18.57335Z"/><path class="cls-8" d="M50.40566,28.926a1.59213,1.59213,0,0,0-1.48794-.67061.2659.2659,0,0,0-.12574.02095,1.61861,1.61861,0,0,0,.41914,3.20639H49.253a1.53439,1.53439,0,0,0,.52392-.16765,1.40944,1.40944,0,0,0,.23053-.1467,2.00436,2.00436,0,0,0,.482-.54488l.021-.02095c.021-.06287.06287-.12574.08383-.18861a1.58148,1.58148,0,0,0-.18861-1.48794Z"/></g></g></svg>