<svg xmlns="http://www.w3.org/2000/svg" viewBox="0 0 70 40"><defs><style>.cls-1{fill:#fff;}.cls-2{fill:#bc8e39;}</style></defs><g id="Layer_2" data-name="Layer 2"><g id="Layer_1-2" data-name="Layer 1"><rect class="cls-1" width="70" height="40" rx="3.70584"/><g id="_bc8e39ff" data-name="#bc8e39ff"><path class="cls-2" d="M34.75111,7.12912a.30758.30758,0,0,1,.50168.00092A7.297,7.297,0,0,1,36.768,9.68648a6.30459,6.30459,0,0,1-.08038,4.29431,7.06637,7.06637,0,0,1-1.27406,2.0834,5.73446,5.73446,0,0,0,4.48.75483,6.8766,6.8766,0,0,0,3.24013-2.003,5.7558,5.7558,0,0,1-1.16412-.62918,2.32749,2.32749,0,0,0-1.02091-.45179.28715.28715,0,0,1,.0231-.56266,2.90408,2.90408,0,0,1,1.58634.70217,4.27264,4.27264,0,0,0,1.03847.43885.47.47,0,0,1,.09239.74282,7.35116,7.35116,0,0,1-3.38242,2.258,6.29415,6.29415,0,0,1-5.3069-.825,6.30382,6.30382,0,0,1-4.80615.95346,7.20483,7.20483,0,0,1-3.88039-2.38644.48611.48611,0,0,1-.06006-.61439c.11179-.16631.32984-.18478.50353-.25038.77608-.19956,1.30086-.94793,2.12867-1.01168a.29984.29984,0,0,1,.38527.3363c-.036.2393-.31874.23375-.49706.292a3.31663,3.31663,0,0,0-1.02091.5682,4.02919,4.02919,0,0,1-.89619.41483,6.71842,6.71842,0,0,0,3.32606,2.04645,5.73671,5.73671,0,0,0,4.40424-.77331,6.57188,6.57188,0,0,1-1.687-4.10675,6.83271,6.83271,0,0,1,1.8515-4.82832m-1.262,4.93272a6.00715,6.00715,0,0,0,1.51058,3.57643,5.98426,5.98426,0,0,0,1.518-3.67067,6.36484,6.36484,0,0,0-1.51706-4.23795A6.24137,6.24137,0,0,0,33.48906,12.06184Z"/><path class="cls-2" d="M28.49351,10.01909a.47526.47526,0,0,1,.54695-.55065,7.25158,7.25158,0,0,1,3.46372,1.25189c.12934.09054.28271.218.22912.39913a.29629.29629,0,0,1-.49151.13766,6.75738,6.75738,0,0,0-3.16253-1.202,6.72048,6.72048,0,0,0,1.52537,3.76029,5.57832,5.57832,0,0,0,2.10373,1.505c.11641.061.28548.10625.30211.26239a.29432.29432,0,0,1-.42591.32059,6.162,6.162,0,0,1-3.12649-2.68764A7.62536,7.62536,0,0,1,28.49351,10.01909Z"/><path class="cls-2" d="M37.496,10.72125a7.23272,7.23272,0,0,1,3.46741-1.25188.47352.47352,0,0,1,.54418.547,7.2143,7.2143,0,0,1-1.77944,4.31278,5.95339,5.95339,0,0,1-2.38737,1.59466c-.26516.097-.47673-.28272-.28641-.47489a2.76836,2.76836,0,0,1,.43239-.21434,5.59335,5.59335,0,0,0,2.68764-2.574,7.26667,7.26667,0,0,0,.74743-2.60541,6.84843,6.84843,0,0,0-2.7135.90727c-.19772.11826-.377.26609-.58391.36864a.28686.28686,0,0,1-.36217-.29472C37.24842,10.88756,37.39717,10.80256,37.496,10.72125Z"/><path class="cls-2" d="M30.69794,21.66213a2.62965,2.62965,0,0,1,2.185.19217q-.23421.45872-.4675.91743a1.2043,1.2043,0,0,0-.96363-.26885.36821.36821,0,0,0-.26146.52016,1.911,1.911,0,0,0,.77885.33352,1.43057,1.43057,0,0,1,1.00151.74282,1.55246,1.55246,0,0,1-.76038,1.92819,2.68808,2.68808,0,0,1-2.477-.33353c.16353-.31967.3326-.63657.50075-.95439a1.42233,1.42233,0,0,0,1.34613.39173.38045.38045,0,0,0,.09886-.65319c-.51277-.30489-1.25189-.25685-1.60482-.80657A1.50848,1.50848,0,0,1,30.69794,21.66213Z"/><path class="cls-2" d="M34.56818,21.65474a2.64507,2.64507,0,0,1,2.1684.19956q-.23421.45872-.46657.91836a1.07417,1.07417,0,0,0-1.07728-.22081.3222.3222,0,0,0-.02956.571c.52848.25777,1.23249.27255,1.5771.82042a1.52818,1.52818,0,0,1-.729,2.10743,2.695,2.695,0,0,1-2.42341-.36032c.16538-.31783.33354-.6338.49891-.9507a1.69723,1.69723,0,0,0,1.05418.44994.49107.49107,0,0,0,.53956-.38065c.04065-.267-.23745-.40837-.45087-.46934-.46472-.16446-1.05417-.231-1.32026-.70309A1.509,1.509,0,0,1,34.56818,21.65474Z"/><path class="cls-2" d="M54.956,26.08762q1.03662-2.35734,2.07139-4.71468,1.01307,2.356,2.01781,4.71561c-.1894-.00185-.37879-.00185-.56727-.00185-.1737-.41945-.34647-.8389-.522-1.25743q-.94931,0-1.8977,0l-.53494,1.25835q-.2841-.00138-.56728,0m2.05754-3.50806c-.25315.58668-.50075,1.17613-.75391,1.76373q.747.00139,1.4958.00093C57.50779,23.75569,57.26387,23.16624,57.0135,22.57956Z"/><path class="cls-2" d="M3.24876,21.59653c.40929-.00185.81858-.00093,1.22787-.00093.26054.95809.51553,1.9171.77608,2.87519q.47118-1.43714.93961-2.87426c.31228-.00093.62548-.00185.93776-.00093q.43654,1.43853.874,2.878.42131-1.43851.84075-2.877.61533-.00277,1.22972,0-.71234,2.24648-1.433,4.49109-.60008,0-1.20016-.00092c-.26238-.84537-.53494-1.688-.78993-2.53519-.3437.82505-.5682,1.69536-.87124,2.53611q-.59732,0-1.19276-.00092Q3.91813,23.84162,3.24876,21.59653Z"/><path class="cls-2" d="M10.7139,21.5956h2.56291v1.00429q-.69293,0-1.38585.00092V23.327q.65273.00138,1.30547.00185v1.00336c-.43516,0-.87032.00092-1.30455,0,0,.25407-.00092.50814,0,.76222q.69154,0,1.38493.00092v.99227H10.713Q10.71436,23.84116,10.7139,21.5956Z"/><path class="cls-2" d="M14.18963,21.5956h1.178q.00138,1.749,0,3.49883.69846,0,1.39694.00092v.99227H14.18963Q14.191,23.84116,14.18963,21.5956Z"/><path class="cls-2" d="M17.53878,21.5956q.58344,0,1.166.00093c.00092,1.166-.00093,2.33193.00092,3.49882q.69847-.00138,1.39694,0v.99135q-1.28191.00277-2.56383.00092Q17.54016,23.84116,17.53878,21.5956Z"/><path class="cls-2" d="M20.87685,21.59653q.58759-.00277,1.1752.00185,1.06018,1.36229,2.1259,2.719c.00278-.90727.00093-1.81454.00185-2.72089q.58761-.0014,1.17705,0v4.49109H24.1798q-1.06294-1.35813-2.125-2.71627-.00277,1.35813,0,2.71535-.59037.00138-1.1789,0Q20.87732,23.84162,20.87685,21.59653Z"/><path class="cls-2" d="M26.46646,21.5956h2.56291v1.00429q-.69293,0-1.38585.00092,0,.36309.00092.72711H28.949c0,.33446,0,.66983-.00092,1.00429q-.65135,0-1.30363.00092-.00138.37972-.00092.7613.69293,0,1.38678.00092-.00139.49614-.00093.99227H26.46646Z"/><path class="cls-2" d="M38.1751,22.392a2.3937,2.3937,0,0,1,3.05812-.54049,2.97377,2.97377,0,0,1,.69755.64674q-.19125.17184-.37973.34739a2.147,2.147,0,0,0-.86754-.72157,1.87255,1.87255,0,0,0-1.93558.38527,1.93281,1.93281,0,0,0-.22081,2.41231,1.793,1.793,0,0,0,2.45481.45918,1.52015,1.52015,0,0,0,.59961-1.069c-.44994-.00462-.89988-.00277-1.3489-.00185q-.00138-.2439,0-.48505c.631.00093,1.26206-.00185,1.89308.00185a2.36859,2.36859,0,0,1-.7964,1.90324,2.30958,2.30958,0,0,1-3.27986-.60146A2.40722,2.40722,0,0,1,38.1751,22.392Z"/><path class="cls-2" d="M43.20021,21.5956h.50815v4.492c-.17-.00092-.33908-.00092-.50815,0Z"/><path class="cls-2" d="M45.048,21.59653q1.02276-.0014,2.0446,0c-.00093.16076-.00185.32152-.00093.48412H45.55617q-.0014.65136,0,1.30456c.49613.00092.99227,0,1.48933.00092q-.00139.24114,0,.485c-.49614-.00093-.9932-.00185-1.48933,0q-.0014,1.1073,0,2.21644c-.17-.00092-.33907-.00092-.50815,0Z"/><path class="cls-2" d="M47.65805,21.5956q1.34566,0,2.69133.00093c-.00092.16076-.00185.32244-.00185.48412-.36124-.00092-.72249,0-1.08374,0-.00185,1.336.00093,2.67193-.00092,4.0079-.17-.00093-.33907-.00185-.50815-.00185q.00278-2.00256,0-4.00605c-.36494,0-.7308-.00092-1.09575,0C47.65712,21.91805,47.65805,21.75729,47.65805,21.5956Z"/><path class="cls-2" d="M51.28714,22.29315a2.36932,2.36932,0,0,1,3.1034-.34184c-.00093.21249,0,.42407.00461.63749a2.18,2.18,0,0,0-1.04586-.55065,1.75688,1.75688,0,0,0-1.73693.67815,1.93963,1.93963,0,0,0-.12565,2.09541,1.81429,1.81429,0,0,0,2.028.80657,2.29375,2.29375,0,0,0,.88047-.51184c-.00461.21342-.00461.42684-.00369.64026a2.45137,2.45137,0,0,1-1.52444.41669,2.27258,2.27258,0,0,1-1.82841-1.09483A2.42352,2.42352,0,0,1,51.28714,22.29315Z"/><path class="cls-2" d="M59.85358,21.59745a3.75353,3.75353,0,0,1,1.748.20788,1.27922,1.27922,0,0,1,.1081,2.03074,1.66216,1.66216,0,0,1-.66521.2707c.47858.655.94146,1.32119,1.41542,1.98085-.20787-.00092-.41575,0-.62179.00093-.316-.44994-.62825-.90173-.94237-1.3526A2.66248,2.66248,0,0,0,60.37,24.08c-.01848.66891-.00462,1.33874-.00831,2.00764-.17,0-.34-.00092-.50815,0q.00138-2.24646,0-4.49017m.50815.47951c0,.53494-.00093,1.069.00092,1.603a1.87428,1.87428,0,0,0,.92945-.15337.79161.79161,0,0,0,.05543-1.28607A1.78048,1.78048,0,0,0,60.36173,22.077Z"/><path class="cls-2" d="M63.41061,21.5956a6.48794,6.48794,0,0,1,1.87275.134,2.12707,2.12707,0,0,1,1.38586,1.47363,2.37317,2.37317,0,0,1-.27995,1.90047,2.17012,2.17012,0,0,1-1.42373.93776,11.6413,11.6413,0,0,1-1.55493.04619q0-2.24646,0-4.492m.50815,4.007a2.45539,2.45539,0,0,0,1.61775-.33168,1.80907,1.80907,0,0,0-.00646-2.85393,2.564,2.564,0,0,0-1.61129-.33815Q63.91737,23.84161,63.91876,25.60257Z"/><path class="cls-2" d="M18.53937,28.34749c.10163-.25961.39912-.28086.63749-.27162.00739.048.02125.14505.02864.194-.18663.012-.4444.0074-.49151.24022a7.22376,7.22376,0,0,0-.0425,1.24912l.51923.00277c0,.048-.00092.146-.00092.194-.1737,0-.34647,0-.51924.00092q-.00138.93546,0,1.87091h-.20695q-.00139-.93406,0-1.86721l-.2319-.00739v-.1894l.2319-.00739A5.3547,5.3547,0,0,1,18.53937,28.34749Z"/><path class="cls-2" d="M52.89012,28.13222h.219v3.69469c-.05543.00093-.16538.00093-.22081.00185.00185-.07945.00646-.23651.00831-.316a1.0661,1.0661,0,0,1-1.12993.32521,1.14186,1.14186,0,0,1-.15706-2.01688,1.09364,1.09364,0,0,1,1.28514.24946c-.01016-.64674-.00369-1.29255-.00461-1.93836m-.98673,1.80808a.91232.91232,0,0,0,.05081,1.73047.83369.83369,0,0,0,.94608-.95716A.80212.80212,0,0,0,51.90339,29.9403Z"/><path class="cls-2" d="M9.69946,29.02749a1.79322,1.79322,0,0,1,2.282-.36864,2.7595,2.7595,0,0,1,.57005.52293l-.17555.16446a1.57967,1.57967,0,0,0-1.7434-.66614,1.55676,1.55676,0,0,0-.95717,2.09264,1.5161,1.5161,0,0,0,2.17765.68,1.375,1.375,0,0,0,.60515-1.032c-.40467-.00277-.80934-.00277-1.21493-.00277.00092-.05451.00092-.16353.00185-.218.48135,0,.96363-.00185,1.445.00185a1.84162,1.84162,0,0,1-.474,1.25189,1.787,1.787,0,0,1-2.54536-.20788A1.81378,1.81378,0,0,1,9.69946,29.02749Z"/><path class="cls-2" d="M38.86156,28.90276c.1432-.09516.35385.0813.2744.23375-.01478.16168-.26516.17369-.34554.05359A.22392.22392,0,0,1,38.86156,28.90276Z"/><path class="cls-2" d="M25.95647,29.73427c.00185-.23836.00185-.47581.00185-.71325h.218c.00092.24576.00092.49244.00277.74005.11734-.00093.2356-.00093.35386,0,.00184.048.00461.14413.00554.19309-.12011.00093-.24114.00185-.36032.0037-.00185.62363,0,1.24727-.00185,1.87-.05451,0-.16353,0-.219-.00093,0-.62178.00185-1.24264,0-1.86443-.06467-.00555-.19217-.01756-.25684-.0231A.23652.23652,0,0,1,25.95647,29.73427Z"/><path class="cls-2" d="M13.75817,29.84514a.98913.98913,0,0,1,1.20846.1663,1.40546,1.40546,0,0,1,.30212.81027c-.60146.00369-1.20385-.00277-1.80531.00369a.91538.91538,0,0,0,.61994.82967.86272.86272,0,0,0,.96178-.4407c.0425.03049.12658.09054.16815.12011a1.08648,1.08648,0,0,1-1.31656.49059,1.14981,1.14981,0,0,1-.13858-1.97993m-.27533.77793c.52016.00554,1.04124.00647,1.56232,0a.82189.82189,0,0,0-.7807-.704A.838.838,0,0,0,13.48284,30.62307Z"/><path class="cls-2" d="M15.98293,30.1334a.99024.99024,0,0,1,1.49949-.13859,1.334,1.334,0,0,1,.316.8269c-.60054.00369-1.20108-.0037-1.80162.00462a.9061.9061,0,0,0,.67076.84167.8614.8614,0,0,0,.90358-.45086c.04342.03049.13027.09054.17462.121a1.0886,1.0886,0,0,1-1.34706.47489,1.16366,1.16366,0,0,1-.41575-1.67966m.03049.48782c.52292.00924,1.04585.00832,1.56786,0a.7886.7886,0,0,0-1.56786,0Z"/><path class="cls-2" d="M21.67787,29.726a1.0911,1.0911,0,1,1-.21065,2.09634,1.105,1.105,0,0,1-.559-1.56972,1.05778,1.05778,0,0,1,.76961-.52662m.00647.2088a.89854.89854,0,0,0-.45179,1.48287.86659.86659,0,0,0,1.44775-.34A.8805.8805,0,0,0,21.68434,29.93476Z"/><path class="cls-2" d="M23.82225,30.04471a.73439.73439,0,0,1,1.27037.07114,13.066,13.066,0,0,1,.04527,1.71291c-.05174-.00092-.15614-.00092-.20788-.00185-.01571-.52385.036-1.0514-.02864-1.57155-.1044-.48875-.87309-.41669-.9932.02864a6.78384,6.78384,0,0,0-.07576,1.54384c-.05174,0-.15521,0-.20695-.00093.00092-.69015-.00277-1.38031.00185-2.07046l.20787.00739C23.83241,29.83406,23.826,29.97449,23.82225,30.04471Z"/><path class="cls-2" d="M27.05222,30.50112a.52226.52226,0,0,1,.41945-.78625.72369.72369,0,0,1,.63472.29935c-.0425.03233-.1275.09608-.16907.1275-.1312-.10995-.27348-.27348-.46565-.2162a.307.307,0,0,0-.182.51185c.25685.18478.61717.20787.82228.46379a.65475.65475,0,0,1-.21435.89711.76262.76262,0,0,1-1.03292-.2938c-.085-.12565-.01571-.20972.11456-.24576.11364.18941.24576.41669.49706.42685a.45415.45415,0,0,0,.48413-.58853C27.75069,30.77736,27.2795,30.80138,27.05222,30.50112Z"/><path class="cls-2" d="M29.0109,30.06688a1.10459,1.10459,0,0,1,1.29161-.24206,1.15587,1.15587,0,0,1-.08315,1.98454,1.05464,1.05464,0,0,1-1.20662-.2901c.01109.49151.0037.984.00462,1.4764-.05451-.00093-.16353-.00185-.218-.00185.00093-1.0782-.00185-2.1564.00185-3.23459.05451,0,.16261.00092.21712.00092l-.00739.30674m.62363-.1312a.87357.87357,0,0,0-.59222,1.14657.77516.77516,0,0,0,.923.58852.93215.93215,0,0,0,.23929-1.651A.81566.81566,0,0,0,29.63453,29.93568Z"/><path class="cls-2" d="M31.92212,29.81a1.0911,1.0911,0,0,1,1.2639.26609c-.0037-.07946-.01017-.23652-.01294-.315.05544,0,.1663,0,.22174-.00093q0,1.03384,0,2.0677h-.22266c.00369-.08038.01293-.24022.01663-.32059a1.0642,1.0642,0,0,1-1.24912.28641A1.15049,1.15049,0,0,1,31.92212,29.81m.29934.12565A.91851.91851,0,0,0,32.106,31.632a.79814.79814,0,0,0,1.0745-.71972A.82748.82748,0,0,0,32.22146,29.93568Z"/><path class="cls-2" d="M34.4028,30.03916c.31228-.48967,1.239-.425,1.29716.21712.04157.522.00462,1.04771.01663,1.57156h-.20695a11.96575,11.96575,0,0,0-.04712-1.62884.533.533,0,0,0-.96548.05913,6.13506,6.13506,0,0,0-.08593,1.56878c-.05174.00093-.15521.00093-.20695.00093V29.76107h.2088C34.41019,29.83036,34.40557,29.96987,34.4028,30.03916Z"/><path class="cls-2" d="M36.73288,30.02807a.74049.74049,0,0,1,1.25651.0693,12.54545,12.54545,0,0,1,.049,1.72954c-.05174.00093-.15614.00093-.20788.00093-.01663-.52108.03326-1.04678-.02494-1.566-.09424-.48967-.86662-.42869-.99043.01478a7.00393,7.00393,0,0,0-.07114,1.55124h-.218q-.00138-1.03384,0-2.06862c.05543.00092.16538.00185.22081.00277C36.743,29.82851,36.73658,29.96155,36.73288,30.02807Z"/><path class="cls-2" d="M40.07,30.04563a.81133.81133,0,0,1,.69386-.33168.61192.61192,0,0,1,.6107.55434c.03233.51923.00185,1.03939.012,1.55955h-.207c-.01663-.522.03511-1.04771-.02771-1.56694-.09609-.49336-.87125-.425-.99228.02125a6.63179,6.63179,0,0,0-.0776,1.54476c-.05174.00093-.15522.00093-.207.00185q-.00138-1.03523,0-2.06954l.21157.00369C40.083,29.83406,40.07465,29.97541,40.07,30.04563Z"/><path class="cls-2" d="M42.64217,29.811a1.09283,1.09283,0,0,1,1.26206.26146l-.01479-.31135c.05544,0,.16723,0,.22266-.00093q0,.93961.00185,1.88015a1.62629,1.62629,0,0,1-.23467.98026,1.10346,1.10346,0,0,1-1.5346.13119,1.05625,1.05625,0,0,1-.31043-.66613c.29472-.04158.27347.2975.4213.45826a.83475.83475,0,0,0,1.299-.1275,2.00179,2.00179,0,0,0,.15153-.89342,1.10589,1.10589,0,0,1-1.25559.27163,1.136,1.136,0,0,1-.00832-1.98362m.21158.13951a.92836.92836,0,0,0-.03511,1.69074.86912.86912,0,1,0,.03511-1.69074Z"/><path class="cls-2" d="M46.5623,29.85623a1.20352,1.20352,0,0,1,1.28515.09609q.00969.14689.02217.29657a.99064.99064,0,0,0-1.14194-.23282.90958.90958,0,0,0,.07853,1.60666,1.02032,1.02032,0,0,0,1.08466-.303c-.00462.07761-.01478.231-.0194.30766a1.19978,1.19978,0,0,1-1.35352.09239A1.13637,1.13637,0,0,1,46.5623,29.85623Z"/><path class="cls-2" d="M48.92472,29.81465a1.099,1.099,0,0,1,1.27221.25593c-.00276-.07761-.00923-.23191-.012-.30951.05544,0,.16631-.00093.22174-.00093v2.0677h-.22174L50.196,31.51a1.058,1.058,0,0,1-1.19.30673,1.14839,1.14839,0,0,1-.08131-2.0021m.30027.12288a.916.916,0,0,0-.04158,1.71662.86812.86812,0,1,0,.04158-1.71662Z"/><path class="cls-2" d="M54.24826,29.86454a.98226.98226,0,0,1,1.25373.16631,1.39179,1.39179,0,0,1,.28179.79086c-.59961.00462-1.19923-.00555-1.79884.00739a.90415.90415,0,0,0,.655.83613.84635.84635,0,0,0,.911-.44532c.04619.02864.13673.085.18293.11272a1.08546,1.08546,0,0,1-1.28792.5026,1.14549,1.14549,0,0,1-.19771-1.97069m-.24946.75668c.52293.00832,1.04679.01016,1.57064-.00092a.79026.79026,0,0,0-1.57064.00092Z"/><path class="cls-2" d="M56.8703,29.80819a1.10442,1.10442,0,0,1,1.26205.26331l-.01478-.31043c.05543,0,.16722-.00093.22265-.00093v2.0677h-.22173c.00277-.07945.00924-.23744.012-.3169a1.06189,1.06189,0,0,1-1.24635.28179,1.1527,1.1527,0,0,1-.01385-1.98454m.29841.12749a.86084.86084,0,0,0-.60885,1.06342.80132.80132,0,0,0,.93591.6726.91709.91709,0,0,0,.59316-1.1983A.79209.79209,0,0,0,57.16871,29.93568Z"/><path class="cls-2" d="M38.84678,29.76107c.05451-.00093.16353-.00093.218-.00093q.00138,1.03384,0,2.0677h-.218Q38.84538,30.794,38.84678,29.76107Z"/><path class="cls-2" d="M59.14956,29.76014c.05174,0,.15522.00093.207.00093a12.46629,12.46629,0,0,0,.04065,1.5771.52989.52989,0,0,0,.99874-.00924,14.06154,14.06154,0,0,0,.036-1.56694c.05174-.00092.15522-.00185.207-.00185-.01571.53217.03233,1.068-.024,1.59836a.75839.75839,0,0,1-1.42.07576A12.18339,12.18339,0,0,1,59.14956,29.76014Z"/></g></g></g></svg>