<svg xmlns="http://www.w3.org/2000/svg" xmlns:xlink="http://www.w3.org/1999/xlink" viewBox="0 0 70 40"><defs><style>.cls-1{fill:#fff;}.cls-2{fill:url(#linear-gradient);}.cls-3{fill:url(#linear-gradient-2);}.cls-4{fill:url(#linear-gradient-3);}.cls-5{fill:url(#linear-gradient-4);}.cls-6{fill:url(#linear-gradient-5);}.cls-7{fill:url(#linear-gradient-6);}.cls-8{fill:url(#linear-gradient-7);}</style><linearGradient id="linear-gradient" x1="35.57835" y1="5.64071" x2="38.52377" y2="22.34501" gradientUnits="userSpaceOnUse"><stop offset="0" stop-color="#959695"/><stop offset="0.35" stop-color="#e0e0e0"/><stop offset="0.55" stop-color="#9c9c9b"/><stop offset="1" stop-color="#e0e0e0"/></linearGradient><linearGradient id="linear-gradient-2" x1="31.33061" y1="26.77482" x2="32.2063" y2="31.74111" gradientUnits="userSpaceOnUse"><stop offset="0" stop-color="#e0e0e0"/><stop offset="0.35" stop-color="#9c9c9b"/><stop offset="0.55" stop-color="#e0e0e0"/><stop offset="1" stop-color="#9c9c9b"/></linearGradient><linearGradient id="linear-gradient-3" x1="36.2772" y1="26.75216" x2="37.14942" y2="31.69875" xlink:href="#linear-gradient-2"/><linearGradient id="linear-gradient-4" x1="41.78994" y1="24.78663" x2="42.99452" y2="31.61818" xlink:href="#linear-gradient-2"/><linearGradient id="linear-gradient-5" x1="47.3179" y1="26.80531" x2="48.18271" y2="31.70992" xlink:href="#linear-gradient-2"/><linearGradient id="linear-gradient-6" x1="52.23341" y1="26.74261" x2="53.0987" y2="31.64989" xlink:href="#linear-gradient-2"/><linearGradient id="linear-gradient-7" x1="57.81309" y1="26.65314" x2="58.69531" y2="31.65644" xlink:href="#linear-gradient-2"/></defs><g id="Layer_2" data-name="Layer 2"><g id="Layer_1-2" data-name="Layer 1"><rect width="70" height="40" rx="3.70584"/><path d="M44.49631,7.55309c-.003-.967-.08145-1.0425-1.06768-1.03805q-6.35052.02665-12.704.06219c-1.00252.00592-1.05139.03851-1.05879,1.03362-.0311,4.3018-.04,8.60508-.08293,12.90837-.0074.69007.27543.90034.92552.89442,2.16645-.02221,4.33438-.00888,6.50083-.00888v-.00889q3.24968,0,6.50083-.00148c.93885-.00148,1.01733-.074,1.01585-1.00548Q44.51926,13.97175,44.49631,7.55309Zm-6.988,7.92836c-.04294,1.42455-.04887,2.84911-.06664,4.27366-.01185.90035-.06664.95662-.9655.96106-.345.00148-.68858,0-1.03361,0-.29469-.00148-.58937,0-.88554-.00148-1.00992-.00444-1.04546-.0385-1.05583-1.02325-.01333-1.16837-.01333-1.16837,1.19207-1.16837,1.0736,0,1.07211,0,1.06323-1.08841-.01037-1.05583-.04442-2.11314-.0148-3.16749.0148-.5331-.12884-.73745-.696-.73449-1.35939.00592-1.389-.03258-.89294-1.31794a10.01872,10.01872,0,0,0,.66342-4.1863c-.02666-.505.01629-.96253.70487-.9418.64712.02073.67822.47387.63528.93588a9.42865,9.42865,0,0,0,.86776,4.72828A6.20234,6.20234,0,0,1,37.50828,15.48145Zm3.6843,5.18141H38.38493c.02665-.077.02813-.14364.05775-.16141.34948-.20879.98771-.11254,1.06768-.51533a7.77058,7.77058,0,0,0,.003-2.048c-.02221-.308-.35244-.44425-.5864-.62343a3.251,3.251,0,0,1-.60122-3.72132.42643.42643,0,0,1,.36428-.2088q1.03065-.00666,2.06279-.0074c.31986,0,.41167.24582.46054.48572.2858,1.39049.45757,2.75137-1.00548,3.671-.33467.21028-.32874.57012-.33467.92256C39.845,19.94614,39.84058,19.94614,41.19258,20.66286Z"/><path d="M33.70255,30.81541a.41132.41132,0,0,0-.43536-.21767,2.46179,2.46179,0,0,0-.502.10513c-1.315.36132-1.9458-.117-1.9769-1.506-.02962-1.30609.67377-1.8614,1.9073-1.506.09478.02666.18511.06516.27988.08885.2473.06219.54643.114.656-.15105.1229-.29765-.20288-.41315-.39686-.52717a2.30556,2.30556,0,0,0-2.5722-.00889,2.59771,2.59771,0,0,0-.99216,2.741,2.24007,2.24007,0,0,0,1.78292,1.84807,2.35246,2.35246,0,0,0,2.0154-.462C33.59741,31.119,33.78993,31.02569,33.70255,30.81541Zm2.09538-3.91974c-.3243.12883-.88406.29023-.77892.63971.15252.50348.659.154,1.02029.10218a4.36,4.36,0,0,1,.72412-.09774.92159.92159,0,0,1,.87517.6723c.12587.35243.10958.59826-.37613.47978a2.79838,2.79838,0,0,0-1.52525.09923,1.34438,1.34438,0,0,0-1.0662,1.33422,1.42564,1.42564,0,0,0,.9581,1.42751,2.32405,2.32405,0,0,0,3.26671-2.29528C38.90618,27.3488,37.46089,26.23818,35.79793,26.89567Zm.70635,3.97305c-.47386-.02962-.82926-.24137-.77447-.7641.07107-.69451.62787-.70339,1.18614-.72857.25322.13179.78632-.16437.7804.45609A1.1124,1.1124,0,0,1,36.50428,30.86872Zm8.03941-6.1173c.003-.1851-.03258-.29912-.10958-.35687a.44267.44267,0,0,0-.39094-.00889l-.02962.00889c-.813.24729-.72264.91811-.71079,1.54747.01629.94475.02221.93883-.85888.82185a2.14911,2.14911,0,0,0-.58493.00444,2.40251,2.40251,0,0,0-2.00948,2.66253,2.37437,2.37437,0,0,0,2.25826,2.2864,2.24914,2.24914,0,0,0,2.396-2.18422c.06812-.8041.01333-1.61707.01333-2.42708h.02221C44.53925,26.32111,44.53184,25.53626,44.54369,24.75142Zm-2.36488,6.10546c-.659-.00148-1.09434-.64565-1.10914-1.64076-.01481-.99807.46942-1.71035,1.14468-1.68074.64564.02813,1.078.70784,1.06768,1.6837C43.27018,30.22308,42.8437,30.85835,42.17881,30.85688Zm5.25693-1.0973a10.51722,10.51722,0,0,0,1.18171-.14512c.62935-.15252,1.16985-.44573,1.21872-1.18762a1.4355,1.4355,0,0,0-.9966-1.47786,2.39463,2.39463,0,0,0-2.85355.70783,2.70576,2.70576,0,0,0,.1466,3.28,2.33911,2.33911,0,0,0,2.89058.49756c.24729-.13475.66489-.26655.56123-.58493-.12439-.385-.53458-.23989-.83668-.14808a1.856,1.856,0,0,1-1.22315.09774.93418.93418,0,0,1-.67674-.95662C46.93819,29.72553,47.34245,29.79957,47.43574,29.75958Zm.50349-2.205c.422.02073.82778.17918.77.68119-.06812.60713-.55531.6486-1.05435.66932a.73387.73387,0,0,0-.17918.0311c-.21028.05479-.59825.04739-.63527-.39242A1.12931,1.12931,0,0,1,47.93923,27.55463Zm5.77374-.58048a2.38763,2.38763,0,0,0-2.51444.19991c-.151.09625-.39834.194-.2858.44129a.43832.43832,0,0,0,.51829.18954c.31245-.06071.616-.17325.93-.22212a.99407.99407,0,0,1,1.20983.71079c.10811.311.06072.47387-.33022.38057a2.77553,2.77553,0,0,0-1.31349.01777c-.89887.21769-1.37125.75227-1.32683,1.51045A1.60123,1.60123,0,0,0,52.087,31.68022a2.32627,2.32627,0,0,0,2.75433-2.55147A2.15866,2.15866,0,0,0,53.713,26.97415Zm-1.23353,3.91679c-.45609-.01925-.81594-.194-.83518-.72116-.01778-.4872.4013-.77152,1.16541-.77744.19991.037.81149-.228.83815.4324A1.12762,1.12762,0,0,1,52.47944,30.89094Zm7.73437-4.02934a.84814.84814,0,0,0-.69007.19992.93306.93306,0,0,0-.38946.83222c-.00444.58937.01037,1.18022-.01629,1.76959-.037.80113-.388,1.22316-.98475,1.23946-.62935.01777-1.004-.41464-1.0351-1.26167-.02665-.71228.003-1.426-.00592-2.13832-.003-.21175.09329-.50348-.12291-.61306-.2547-.12735-.52717.037-.7567.18362a.85147.85147,0,0,0-.37317.76411,20.121,20.121,0,0,0,.04,2.13535c.117,1.13284.83963,1.69555,2.09538,1.72517,1.36976.03257,2.15756-.4872,2.353-1.61707a11.87771,11.87771,0,0,0,.08885-1.41122c0-.47683.01481-.82186-.00445-1.16541C60.39743,27.27623,60.51886,26.95934,60.21381,26.8616Z"/><path class="cls-1" d="M28.67514,31.10566a12.56408,12.56408,0,0,1-.0074-1.2587,8.07426,8.07426,0,0,0-.08589-1.60522c-.2784-1.121-1.0884-1.63188-2.48631-1.55636a1.91235,1.91235,0,0,0-2.01688,1.83623c-.05479.70783-.0237,1.42308-.01777,2.13387a.8879.8879,0,0,0,.57308.86629c.42944.18214.74781.228.72116-.43388-.03406-.80705-.00592-1.62.02814-2.42856.02517-.60566.29024-1.06323.97587-1.05138.67525.01035.93735.46645.964,1.07211.02962.61306.01333,1.22761.02518,1.84067a1.00678,1.00678,0,0,0,.67229,1.03658C28.44562,31.71131,28.73734,31.698,28.67514,31.10566Zm-5.80188-4.247a.89954.89954,0,0,0-.91811.499,1.95915,1.95915,0,0,0-.16881,1.004c-.00445,1.15209.01481,2.30565-.01481,3.45774-.02666,1.03213-.49608,1.40382-1.51192,1.272-.15253-.01925-.3406-.18213-.43833.06664a.50023.50023,0,0,0,.08441.48719,1.02,1.02,0,0,0,.83519.38946,2.248,2.248,0,0,0,2.32785-2.17089c.05183-.75818.01037-1.52081.01037-2.28048h.01777c0-.6634.02073-1.32534-.01037-1.98726C23.07465,27.34139,23.282,26.92824,22.87326,26.85865ZM22.392,24.21537a.671.671,0,0,0-.67822.78631.58191.58191,0,0,0,.68267.59678.71545.71545,0,0,0,.66637-.72857C23.01246,24.45674,22.78293,24.1976,22.392,24.21537Zm-1.65852,5.1281c0-.61306.01036-1.22465-.00592-1.83623-.00592-.22656.13179-.5479-.14512-.656a.84731.84731,0,0,0-.86777.26951.977.977,0,0,0-.29469.73153c-.01184.90478-.0222,1.80957,0,2.71436a1.15129,1.15129,0,0,0,.6412,1.08248c.39835.191.70784.21472.67822-.39834C20.70978,30.617,20.73347,29.97874,20.73347,29.34347Zm-.60418-5.12218a.65708.65708,0,0,0-.72709.66045.60272.60272,0,0,0,.6412.71672c.425,0,.64564-.2858.70488-.70487A.61917.61917,0,0,0,20.12929,24.22129Zm-1.469,2.61811c-.31394-.24138-.70783-.08146-1.02917.12883a1.42477,1.42477,0,0,0-.44278.7493c-.32133.79223-.63378,1.58892-1.02769,2.58108-.311-1.14913-.58492-2.06576-.79964-2.99571-.13031-.56124-.45165-.62788-.92552-.50794a1.01521,1.01521,0,0,0-.72264.84556c-.21916.82037-.4487,1.63779-.72561,2.6418-.41463-1.04695-.76262-1.90435-1.09285-2.76767a1.07389,1.07389,0,0,0-.90775-.75671c-.50348-.07107-.69895.04295-.46349.58641.55678,1.28388,1.078,2.58405,1.61706,3.87533a.844.844,0,0,0,1.49119.28284,1.9241,1.9241,0,0,0,.462-.90923c.14512-.54051.29765-1.07952.505-1.82586.30061.98475.56864,1.74737.76115,2.52925.14956.60714.52125.6338.99807.50052a1.21945,1.21945,0,0,0,.76855-.8337c.465-1.1358.94181-2.26715,1.39347-3.40739C18.61145,27.32659,18.91205,27.0319,18.66031,26.8394Z"/><path class="cls-2" d="M44.49631,7.55309c-.003-.967-.08145-1.0425-1.06768-1.03805q-6.35052.02665-12.704.06219c-1.00252.00592-1.05139.03851-1.05879,1.03362-.0311,4.3018-.04,8.60508-.08293,12.90837-.0074.69007.27543.90034.92552.89442,2.16645-.02221,4.33438-.00888,6.50083-.00888v-.00889q3.24968,0,6.50083-.00148c.93885-.00148,1.01733-.074,1.01585-1.00548Q44.51926,13.97175,44.49631,7.55309Zm-6.988,7.92836c-.04294,1.42455-.04887,2.84911-.06664,4.27366-.01185.90035-.06664.95662-.9655.96106-.345.00148-.68858,0-1.03361,0-.29469-.00148-.58937,0-.88554-.00148-1.00992-.00444-1.04546-.0385-1.05583-1.02325-.01333-1.16837-.01333-1.16837,1.19207-1.16837,1.0736,0,1.07211,0,1.06323-1.08841-.01037-1.05583-.04442-2.11314-.0148-3.16749.0148-.5331-.12884-.73745-.696-.73449-1.35939.00592-1.389-.03258-.89294-1.31794a10.01872,10.01872,0,0,0,.66342-4.1863c-.02666-.505.01629-.96253.70487-.9418.64712.02073.67822.47387.63528.93588a9.42865,9.42865,0,0,0,.86776,4.72828A6.20234,6.20234,0,0,1,37.50828,15.48145Zm3.6843,5.18141H38.38493c.02665-.077.02813-.14364.05775-.16141.34948-.20879.98771-.11254,1.06768-.51533a7.77058,7.77058,0,0,0,.003-2.048c-.02221-.308-.35244-.44425-.5864-.62343a3.251,3.251,0,0,1-.60122-3.72132.42643.42643,0,0,1,.36428-.2088q1.03065-.00666,2.06279-.0074c.31986,0,.41167.24582.46054.48572.2858,1.39049.45757,2.75137-1.00548,3.671-.33467.21028-.32874.57012-.33467.92256C39.845,19.94614,39.84058,19.94614,41.19258,20.66286Z"/><path class="cls-3" d="M33.70255,30.81541c.08738.21028-.10514.30357-.234.40427a2.35246,2.35246,0,0,1-2.0154.462,2.24007,2.24007,0,0,1-1.78292-1.84807,2.59771,2.59771,0,0,1,.99216-2.741,2.30556,2.30556,0,0,1,2.5722.00889c.194.114.51976.22952.39686.52717-.10958.26507-.40871.21324-.656.15105-.09477-.02369-.1851-.06219-.27988-.08885-1.23353-.3554-1.93692.19991-1.9073,1.506.0311,1.389.66192,1.86732,1.9769,1.506a2.46179,2.46179,0,0,1,.502-.10513A.41132.41132,0,0,1,33.70255,30.81541Z"/><path class="cls-4" d="M35.79793,26.89567c-.3243.12883-.88406.29023-.77892.63971.15252.50348.659.154,1.02029.10218a4.36,4.36,0,0,1,.72412-.09774.92159.92159,0,0,1,.87517.6723c.12587.35243.10958.59826-.37613.47978a2.79838,2.79838,0,0,0-1.52525.09923,1.34438,1.34438,0,0,0-1.0662,1.33422,1.42564,1.42564,0,0,0,.9581,1.42751,2.32405,2.32405,0,0,0,3.26671-2.29528C38.90618,27.3488,37.46089,26.23818,35.79793,26.89567Zm.70635,3.97305c-.47386-.02962-.82926-.24137-.77447-.7641.07107-.69451.62787-.70339,1.18614-.72857.25322.13179.78632-.16437.7804.45609A1.1124,1.1124,0,0,1,36.50428,30.86872Z"/><path class="cls-5" d="M44.54369,24.75142c.003-.1851-.03258-.29912-.10958-.35687h-.42056c-.813.24729-.72264.91811-.71079,1.54747.01629.94475.02221.93883-.85888.82185a2.14911,2.14911,0,0,0-.58493.00444,2.40251,2.40251,0,0,0-2.00948,2.66253,2.37437,2.37437,0,0,0,2.25826,2.2864,2.24914,2.24914,0,0,0,2.396-2.18422c.06812-.8041.01333-1.61707.01333-2.42708h.02221C44.53925,26.32111,44.53184,25.53626,44.54369,24.75142Zm-2.36488,6.10546c-.659-.00148-1.09434-.64565-1.10914-1.64076-.01481-.99807.46942-1.71035,1.14468-1.68074.64564.02813,1.078.70784,1.06768,1.6837C43.27018,30.22308,42.8437,30.85835,42.17881,30.85688Z"/><path class="cls-6" d="M47.43574,29.75958a10.51722,10.51722,0,0,0,1.18171-.14512c.62935-.15252,1.16985-.44573,1.21872-1.18762a1.4355,1.4355,0,0,0-.9966-1.47786,2.39463,2.39463,0,0,0-2.85355.70783,2.70576,2.70576,0,0,0,.1466,3.28,2.33911,2.33911,0,0,0,2.89058.49756c.24729-.13475.66489-.26655.56123-.58493-.12439-.385-.53458-.23989-.83668-.14808a1.856,1.856,0,0,1-1.22315.09774.93418.93418,0,0,1-.67674-.95662C46.93819,29.72553,47.34245,29.79957,47.43574,29.75958Zm.50349-2.205c.422.02073.82778.17918.77.68119-.06812.60713-.55531.6486-1.05435.66932a.73387.73387,0,0,0-.17918.0311c-.21028.05479-.59825.04739-.63527-.39242A1.12931,1.12931,0,0,1,47.93923,27.55463Z"/><path class="cls-7" d="M53.713,26.97415a2.38763,2.38763,0,0,0-2.51444.19991c-.151.09625-.39834.194-.2858.44129a.43832.43832,0,0,0,.51829.18954c.31245-.06071.616-.17325.93-.22212a.99407.99407,0,0,1,1.20983.71079c.10811.311.06072.47387-.33022.38057a2.77553,2.77553,0,0,0-1.31349.01777c-.89887.21769-1.37125.75227-1.32683,1.51045A1.60123,1.60123,0,0,0,52.087,31.68022a2.32627,2.32627,0,0,0,2.75433-2.55147A2.15866,2.15866,0,0,0,53.713,26.97415Zm-1.23353,3.91679c-.45609-.01925-.81594-.194-.83518-.72116-.01778-.4872.4013-.77152,1.16541-.77744.19991.037.81149-.228.83815.4324A1.12762,1.12762,0,0,1,52.47944,30.89094Z"/><path class="cls-8" d="M60.41223,27.50429c.01926.34355.00445.68858.00445,1.16541a11.87771,11.87771,0,0,1-.08885,1.41122c-.19547,1.12987-.98327,1.64964-2.353,1.61707-1.25575-.02962-1.97839-.59233-2.09538-1.72517a20.121,20.121,0,0,1-.04-2.13535.85147.85147,0,0,1,.37317-.76411c.22953-.1466.502-.311.7567-.18362.2162.10958.12.40131.12291.61306.00889.71228-.02073,1.426.00592,2.13832.0311.847.40575,1.27944,1.0351,1.26167.59678-.0163.94773-.43833.98475-1.23946.02666-.58937.01185-1.18022.01629-1.76959a.93306.93306,0,0,1,.38946-.83222.84814.84814,0,0,1,.69007-.19992C60.51886,26.95934,60.39743,27.27623,60.41223,27.50429Z"/></g></g></svg>