<svg xmlns="http://www.w3.org/2000/svg" xmlns:xlink="http://www.w3.org/1999/xlink" viewBox="0 0 92 80"><defs><style>.cls-1{fill:none;}.cls-2{clip-path:url(#clip-path);}.cls-3{fill:url(#linear-gradient);}.cls-4{opacity:0.8;fill:url(#linear-gradient-2);}.cls-5{fill:#ff9d02;}.cls-6{fill:#fff;}.cls-7{fill:#002764;}</style><clipPath id="clip-path" transform="translate(22 28.5)"><rect class="cls-1" width="70" height="40" rx="3.70584"/></clipPath><linearGradient id="linear-gradient" x1="30.58542" y1="74.91458" x2="83.41458" y2="22.08542" gradientUnits="userSpaceOnUse"><stop offset="0" stop-color="#b1d3f1"/><stop offset="1" stop-color="#e9f2fa"/></linearGradient><linearGradient id="linear-gradient-2" x1="11.71573" y1="68.28427" x2="68.28427" y2="11.71573" gradientUnits="userSpaceOnUse"><stop offset="0" stop-color="#b1d3f1" stop-opacity="0"/><stop offset="1" stop-color="#fff"/></linearGradient></defs><g id="Layer_2" data-name="Layer 2"><g id="Layer_1-2" data-name="Layer 1"><g class="cls-2"><rect class="cls-3" x="22" y="28.5" width="70" height="40" rx="3.70584"/><circle class="cls-4" cx="40" cy="40" r="40"/></g><path class="cls-5" d="M41.98447,13.954a6.9541,6.9541,0,0,1-5.77157,6.85331l-1.18246,1.50119L33.848,20.80733A6.95428,6.95428,0,1,1,41.98447,13.954Z" transform="translate(22 28.5)"/><g id="_ecf9f3ff" data-name="#ecf9f3ff"><path class="cls-6" d="M34.21089,9.27545a4.74627,4.74627,0,0,1,4.51166,1.76846c.11952-.23117.24691-.45733.36142-.69135q.18571.24261.37717.48093a5.8616,5.8616,0,0,0-.37144.7207,4.89941,4.89941,0,0,1,.50241,3.59272,4.8075,4.8075,0,0,1-2.26729,2.95935A4.75421,4.75421,0,0,1,30.888,11.55848c-.12524-.24047-.27554-.46806-.37788-.71926.10807-.16747.2419-.31633.36285-.4745.131.22115.24405.45231.375.67346a4.74351,4.74351,0,0,1,2.96293-1.76273m.204.52674a4.26133,4.26133,0,0,0-2.88635,1.76774q1.13041,2.13309,2.27158,4.26046l.048.01932c.30488-.48022.54034-1.00839.82232-1.50508-.55323-1.04489-1.13078-2.07834-1.66325-3.134a3.76237,3.76237,0,0,1,1.33332-.55823,3.37849,3.37849,0,0,1,2.62727.5797q-.85346,1.547-1.66611,3.1168c.25049.51028.54821.99837.7851,1.51653a.601.601,0,0,0,.214-.28055c.69922-1.34548,1.44568-2.66878,2.12486-4.02285a4.17458,4.17458,0,0,0-4.01068-1.75987m-.6706,1.6289c.41653.74359.79656,1.50723,1.2002,2.258l.08016-.00787c.40221-.75648.8123-1.50866,1.21594-2.26442a2.8802,2.8802,0,0,0-2.4963.01431m-2.55141.70709a4.329,4.329,0,0,0-.30917,2.77041,4.235,4.235,0,0,0,2.30664,2.87848,4.21963,4.21963,0,0,0,5.58949-5.661c-.06585.10234-.13026.20683-.18608.31561-.81373,1.54731-1.66038,3.07744-2.46266,4.63047-.37932-.71854-.77509-1.42779-1.14367-2.15277-.38575.71639-.76864,1.43423-1.15582,2.14991C32.96059,15.421,32.07672,13.77924,31.19285,12.13818Z" transform="translate(22 28.5)"/><path class="cls-7" d="M10.76642,24.54384q.4003-.00139.80061.00465c.15529.649.30314,1.30181.504,1.93783q.26221-.96658.48538-1.94434c.23991-.00279.47981-.00372.71972-.00651.16086.64812.32545,1.2953.50491,1.93876.17946-.63788.31894-1.28785.49562-1.92667.265-.026.531-.01209.79689-.01209-.29849,1.03122-.60069,2.0615-.88709,3.09737-.25292.00651-.50585.00558-.75877.00651-.16551-.623-.31057-1.25252-.46772-1.87739-.01581-.00837-.04649-.02418-.06137-.03255-.17574.62952-.32824,1.26462-.48353,1.89878-.25013.00558-.50119.00558-.75132.01023C11.355,26.60906,11.08443,25.56948,10.76642,24.54384Z" transform="translate(22 28.5)"/><path class="cls-7" d="M16.68778,24.53268c.26408-.00465.52909-.00744.7941-.00093.00372,1.03587-.00186,2.07173-.00279,3.10853-.26222-.00186-.52537-.00186-.78759,0C16.68313,26.60441,16.68964,25.56855,16.68778,24.53268Z" transform="translate(22 28.5)"/><path class="cls-7" d="M19.34346,24.5271a3.93188,3.93188,0,0,1,.81921.03627c.41844.56721.78945,1.16976,1.21254,1.73419.0093-.58953-.00093-1.17907.00279-1.76767.26036.00093.52165.00279.782.00372.03162,1.03494-.00651,2.06894-.0093,3.10388-.25757-.00558-.51514-.00558-.77271-.00558-.40635-.59232-.795-1.19859-1.23951-1.76209-.01116.58582-.0093,1.17256.00093,1.7593-.26594.01116-.531.01023-.796.00186Q19.34625,26.08,19.34346,24.5271Z" transform="translate(22 28.5)"/><path class="cls-7" d="M23.96673,24.53454c.26222.00186.52351.00279.78573.00279-.00558.46121-.01116.92335-.00279,1.38549.31709-.4454.58582-.92242.87686-1.38456.30221.00186.60348-.00093.90569,0-.33568.48725-.63975.99588-.98287,1.47848.35056.54676.73924,1.06841,1.09352,1.61238-.3022.00186-.60348,0-.90568.00279-.32359-.48911-.62208-.99774-.98194-1.46174-.02045.48724-.00837.97635-.00929,1.46453q-.38916-.00418-.7783-.00093C23.97789,26.60069,23.97231,25.56762,23.96673,24.53454Z" transform="translate(22 28.5)"/><path class="cls-7" d="M28.31476,24.53733c.66764.00837,1.33621.00558,2.00385.00372-.00186.19992-.00279.40077-.00093.60162-.41286-.0093-.82478-.00279-1.23764-.00651.00186.20457.00372.40914.01023.61371.36636-.01488.73273-.00744,1.1-.01023-.00279.19527-.00186.39148,0,.58767-.371-.00185-.742-.00093-1.11211-.00557.00186.24269.00372.48631.01209.729.42587-.01488.85175-.00651,1.27856-.0093-.00558.19713-.01116.39333-.02511.59046-.676-.00651-1.352-.00465-2.028.00093C28.3222,26.60069,28.31848,25.56948,28.31476,24.53733Z" transform="translate(22 28.5)"/><path class="cls-7" d="M32.12812,24.542c.25571.00372.51236.00372.769.00744-.01116.80433-.01023,1.60959-.00279,2.41392a9.08506,9.08506,0,0,0,1.10188-.03626c-.00279.23339-.00279.46679-.00185.70018-.62022-.00093-1.24044-.00651-1.86066.00465C32.13556,26.60255,32.14021,25.57227,32.12812,24.542Z" transform="translate(22 28.5)"/><path class="cls-7" d="M36.61935,24.83675a1.6498,1.6498,0,0,1,1.83741-.13111c.12367.04.14692.16179.173.27431-.26222-.05394-.4798-.2241-.7411-.279a1.6022,1.6022,0,0,0-.77085.06416,1.66739,1.66739,0,0,0-.74947.75226c-.03068.09856-.06416.19527-.09856.2929-.0093.18969-.00837.38031.00093.57094.03347.092.06509.186.09484.28082a1.39948,1.39948,0,0,0,1.72118.76248c.16458-.08741.32452-.185.4798-.28826.04557.1525.03069.28919-.1339.34963a1.74878,1.74878,0,0,1-1.90621-.21945A1.65786,1.65786,0,0,1,36.61935,24.83675Z" transform="translate(22 28.5)"/><path class="cls-7" d="M42.56489,24.55128c.0623-.00372.1869-.01023.24827-.01395a9.0525,9.0525,0,0,1-.01953,1.37527c.06974.56721.013,1.14094.0372,1.71094-.08834.00465-.17668.01023-.26408.01581.00837-.53374-.00651-1.06655.01115-1.60029q-.89406.0014-1.78719-.00465c.00558.53188,0,1.06283.00558,1.59471l-.25571-.00372c.03719-.87779-.0372-1.76116.0437-2.6343.05394-.15807-.10786-.56628.21387-.44726-.0093.43518-.00744.87128-.00186,1.30739.59139-.01488,1.18371-.014,1.7751-.00372C42.56954,25.41512,42.57605,24.98274,42.56489,24.55128Z" transform="translate(22 28.5)"/><path class="cls-7" d="M44.91465,24.55035c.58209-.013,1.16511-.00465,1.74721-.00744,0,.05393-.00186.1618-.00186.21573-.49655-.00465-.99217-.00093-1.48778-.00744.00651.358.00651.71506.00093,1.07306.44168.01116.88337.00465,1.325.00837-.00186.05393-.00651.1618-.0093.21573-.438-.013-.87686-.00465-1.31575-.01023.00744.46214.00465.92335.00465,1.38549.5077-.0093,1.01541-.00279,1.524-.00837-.00279.05579-.01023.16831-.013.2241-.59139-.00651-1.18278-.00093-1.77324-.00744C44.92116,26.60441,44.92674,25.57692,44.91465,24.55035Z" transform="translate(22 28.5)"/><path class="cls-7" d="M49.12413,24.68425a1.67129,1.67129,0,0,1,2.094.34033,1.70958,1.70958,0,0,1-.04556,2.19819c.1432.13855.28547.279.41472.43146-.05579.03254-.16737.0967-.2241.12925-.12367-.132-.2492-.26222-.3738-.39147a1.95751,1.95751,0,0,1-1.11583.318,1.6016,1.6016,0,0,1-1.3669-.8936,1.65191,1.65191,0,0,1,.61743-2.13217m.50863.06044a1.3178,1.3178,0,0,0-.87314.67787A1.38269,1.38269,0,0,0,50.94108,27.074a1.4757,1.4757,0,0,0,.20735-1.683A1.37377,1.37377,0,0,0,49.63276,24.74469Z" transform="translate(22 28.5)"/><path class="cls-7" d="M53.36243,24.52524c.06974.00186.21108.00744.28082.01023-.01208.61185,0,1.22463-.00651,1.83648a1.32584,1.32584,0,0,0,.16738.80061.86354.86354,0,0,0,1.50173-.40356c.02231-.73738.01859-1.47569.00371-2.21307.0651-.01023.19621-.03162.26129-.04185.01767.61929.0028,1.23951.01024,1.85973a1.53435,1.53435,0,0,1-.16924.888,1.17159,1.17159,0,0,1-2.02152-.32545C53.328,26.13483,53.3801,25.32864,53.36243,24.52524Z" transform="translate(22 28.5)"/><path class="cls-7" d="M57.4436,24.52989c.57837-.00093,1.15768-.00465,1.737,0-.00651.05951-.0186.17854-.02418.238-.4826-.00465-.96427.00558-1.44593-.0093-.014.34684-.01023.69553-.0093,1.0433.43424.01488.86849-.00651,1.30366.01116.00651.05765.02139.173.02883.23061-.44447-.00186-.88895,0-1.33249,0,0,.45284.00186.90475.00093,1.35852.50863.0093,1.01819-.00558,1.52869.01023-.00186.05672-.00372.17017-.00465.22689-.59511.00093-1.19022.00279-1.78533-.00093Q57.44221,26.08462,57.4436,24.52989Z" transform="translate(22 28.5)"/><path class="cls-7" d="M26.85488,31.37832l.19527-.00372c.00186.52816-.00186,1.05725.00372,1.58541l-.20178-.00371C26.85767,32.43,26.853,31.90369,26.85488,31.37832Z" transform="translate(22 28.5)"/><path class="cls-7" d="M42.377,31.36809c.31709.01209.743-.07067.93823.25385a.5106.5106,0,0,1-.30964.67509c.1525.21851.29663.44261.44169.66485-.06881.00092-.20643.00278-.27524.00278-.18876-.2399-.24456-.64346-.58117-.71413-.00465.23805-.00279.47795.00093.71692-.05486-.00185-.16551-.00651-.22037-.00836.01023-.53.00185-1.061.00557-1.591m.20643.16552c.00187.19341.00187.38682.00372.58023.19341-.02232.54955.0279.543-.26036C43.17488,31.54756,42.79735,31.53547,42.58348,31.53361Z" transform="translate(22 28.5)"/><path class="cls-7" d="M23.419,32.8475a.84567.84567,0,0,1,.13762-1.41711,1.01228,1.01228,0,0,1,.98845.16738c-.03627.03254-.10973.0967-.14692.12925a.78259.78259,0,0,0-.742-.15157.676.676,0,0,0-.00279,1.19022.9.9,0,0,0,.70576-.04742l.00837-.43052c-.14692.00185-.29384.00464-.43982.00743l.03719-.17388q.29012.00279.58209.00186c-.03347.24362.13483.62673-.159.7504A.95614.95614,0,0,1,23.419,32.8475Z" transform="translate(22 28.5)"/><path class="cls-7" d="M29.3683,31.41087c.291.00465.583.00186.87406.00279-.00279.03254-.00743.09856-.01022.1311-.2241-.00185-.4482-.00278-.67229-.00464.00279.18969.00279.37938.00186.57.20921-.00372.41936-.00465.62951-.00558.00372.04185.01209.12553.01674.16645-.21759-.00093-.43517-.00093-.65183-.00186.00558.22688.00651.4547.01208.68159-.04928.00186-.14877.0065-.19806.00837C29.37573,32.443,29.37666,31.92694,29.3683,31.41087Z" transform="translate(22 28.5)"/><path class="cls-7" d="M32.23134,31.52152c.093-.15622.28826-.08648.43331-.10415.24177.00187.48353.00187.7253-.00279l.01022.133c-.16365-.00558-.32545-.00837-.48817-.013.0158.47516.00372.95217.00837,1.42826-.03348.00093-.10136.00186-.13483.0028-.00558-.46866.01487-.93824-.00744-1.40689C32.59677,31.53454,32.41266,31.5364,32.23134,31.52152Z" transform="translate(22 28.5)"/><path class="cls-7" d="M35.58535,31.61637a1.02045,1.02045,0,0,1,.71971-.265c.15529.07253.30964.14692.46028.23061-.11065.16087-.26408.01116-.38124-.0344a.75264.75264,0,0,0-.78388.29383,2.76734,2.76734,0,0,0,.0093.66206c.0716.06695.1432.13483.21387.20364.04929.02883.14692.08834.1962.11716a1.10608,1.10608,0,0,0,.68159-.19713c.00558.0465.01674.14041.02325.18691a.88933.88933,0,0,1-1.2953-.29291A.93654.93654,0,0,1,35.58535,31.61637Z" transform="translate(22 28.5)"/><path class="cls-7" d="M39.39127,31.4118c.05672,0,.16831.00093.225.00186.1962.53188.4268,1.05167.63044,1.58169-.28825.03254-.32731-.23526-.39705-.43982-.23432-.00279-.46865-.00372-.702-.00744-.08183.185-.0995.46121-.37195.438.17853-.53467.41751-1.047.61557-1.57425m.053.29941a6.73911,6.73911,0,0,1-.2492.6695c.20085-.00279.4017-.00465.60348-.00744a3.5603,3.5603,0,0,1-.24084-.6416C39.52889,31.72609,39.4731,31.71586,39.44427,31.71121Z" transform="translate(22 28.5)"/><path class="cls-7" d="M45.55625,31.369c.35614.00744.77829-.05951,1.06562.20178a.815.815,0,0,1-.17574,1.32877,3.27616,3.27616,0,0,1-.888.10043c-.00465-.544.00186-1.087-.00186-1.631m.24455.17947c-.00651.41192-.00279.82385-.00279,1.23671.22317-.02882.4919.02232.66764-.15436a.64084.64084,0,0,0-.04556-.95682A1.43987,1.43987,0,0,0,45.8008,31.54849Z" transform="translate(22 28.5)"/><path class="cls-7" d="M10.71342,31.98087c1.95643-.0437,3.91564,0,5.873-.01023,1.32505.0093,2.65011-.01116,3.97516.01767a.2613.2613,0,0,1-.2585.106c-3.13178-.00092-6.26355.0093-9.39532.00651A.1748.1748,0,0,1,10.71342,31.98087Z" transform="translate(22 28.5)"/><path class="cls-7" d="M49.38635,32.07479c.17667-.24827.51235-.0809.76435-.11252.9903-.05672,1.98153.01488,2.97276,0q2.83561-.00139,5.67308-.00093c.16273.01953.37753-.05486.49.11066a6.48933,6.48933,0,0,1-.95031.02975q-3.76734-.0014-7.5356.00558A13.53254,13.53254,0,0,1,49.38635,32.07479Z" transform="translate(22 28.5)"/></g></g></g></svg>