<svg width="70" height="40" viewBox="0 0 70 40" xmlns="http://www.w3.org/2000/svg"><title>yourgift</title><desc>Created with Sketch.</desc><g fill="none"><path d="M60.963 29.084l-4.483-26.082c-.194-1.128-1.171-1.925-2.276-1.933h-.034c-.124.001-.252.011-.379.033l-41.858 7.195c-1.134.194-1.933 1.177-1.934 2.287v.005c0 .13.011.263.034.395l4.483 26.084c.194 1.132 1.181 1.933 2.291 1.932.132 0 .263-.011.396-.033l41.859-7.194c1.134-.194 1.934-1.181 1.934-2.292 0-.131-.012-.263-.034-.396" fill="#225A99"/><path d="M57.413 3.076l1.84 10.708-.734-8.881c-.063-.779-.494-1.437-1.106-1.827" fill="#225A99"/><path d="M12.477 35.168c.064.778.495 1.435 1.107 1.826l-1.84-10.707.733 8.881" fill="#225A99"/><path d="M40.741 35.842l17.207-1.421c1.168-.096 2.069-1.016 2.187-2.138-.298.195-.638.336-1.012.4l-18.382 3.16" fill="#225A99"/><path d="M30.254 4.227l-17.206 1.421c-1.168.096-2.069 1.014-2.187 2.137.298-.194.638-.335 1.012-.399l18.381-3.16" fill="#225A99"/><path d="M21.045 16.914l.779 4.416-1.268.224c-.795.14-1.732-.262-1.921-1.332l-.496-2.812c-1.492-1.313-3.238-3.352-4.394-5.528l1.467-.259c.947-.167 1.624.186 1.901.594.615.9 1.472 1.915 2.219 2.665.493-1.048 1.108-2.653 1.32-4.219l1.375-.243c.672-.119 1.184.28 1.265.738.156.886-1.466 4.465-2.247 5.753" fill="#FFFFFE"/><path d="M27.978 13.631c-.795.14-1.364 1.107-1.162 2.253.286 1.62 1.051 2.21 2.075 2.029.917-.162 1.365-1.107 1.16-2.268-.267-1.513-1.064-2.192-2.073-2.014zm-.221-2.324c2.292-.404 4.662.974 5.12 3.572.485 2.751-.868 4.817-3.771 5.329-2.399.423-4.668-1.005-5.104-3.48-.49-2.781 1.112-4.954 3.755-5.42z" fill="#FFFFFE"/><path d="M39.286 18.427c-2.72.48-4.436-.588-4.911-3.278l-.816-4.63 1.131-.199c1.268-.224 1.894.107 2.12 1.391l.528 2.995c.218 1.238.866 1.517 1.661 1.377.688-.121 1.168-.615.933-1.945l-.811-4.599 1.131-.199c1.161-.205 1.889.171 2.105 1.394l.528 2.995c.474 2.69-1.016 4.244-3.599 4.7" fill="#FFFFFE"/><path d="M49.056 10.136c-.391-.073-.672-.055-1.054.013-.703.124-1.191.572-1.01 1.596l.886 5.027-.795.14c-1.253.221-2.119-.225-2.367-1.631l-.644-3.652c-.299-1.696.61-3.243 2.52-3.58 1.452-.256 2.229.221 2.367 1.001l.189 1.07-.092.016" fill="#FFFFFE"/><path d="M34.967 32.463c-2.98.525-5.86-1.157-6.437-4.427-.552-3.133 1.267-6.037 4.98-6.692 2.078-.366 3.321.517 3.529 1.694l.186 1.054-.076.013c-.639-.407-1.677-.665-3.297-.38-1.574.278-2.812 1.567-2.462 3.554.402 2.277 1.83 3.049 3.404 2.771.84-.148.853-.434.786-.816l-.207-1.177c-.078-.443-.291-1.115-.455-1.417l1.482-.261c.932-.164 1.529.361 1.669 1.155l.248 1.406c.307 1.742-.584 3.034-3.35 3.521" fill="#FFFFFE"/><path d="M43.335 30.861c-1.543.272-2.885-.279-3.236-2.265l-.973-5.516.718-.127c1.65-.291 2.269.088 2.538 1.616l.544 3.087c.132.749.524.916 1.334.773l.352-.062.151.856c.178 1.008-.527 1.479-1.429 1.638zm-2.962-8.758c-.841.148-1.641-.372-1.781-1.167-.14-.795.434-1.558 1.275-1.706.84-.148 1.626.375 1.766 1.17.14.795-.419 1.555-1.259 1.703z" fill="#FFFFFE"/><path d="M49.668 20.133c-.35-.112-.957-.067-1.339 0-.688.121-1.091.602-1.002 1.106l.175.993 1.925-.34.186 1.054c.1.565-.355 1.024-1.089 1.153l-.672.119.978 5.547-.886.156c-1.375.243-2.035-.192-2.259-1.461l-1.021-5.792c-.534-3.026 1.137-4.187 2.726-4.467 1.421-.251 2.083.373 2.236 1.244l.119.672-.077.013" fill="#FFFFFE"/><path d="M51.044 19.182c.331-.358.802-.724 1.413-.832l.306-.054.361 2.048 2.46-.434.181 1.024c.127.718-.54 1.403-1.197 1.519l-1.039.183.536 3.041c.1.565.51.84 1.076.74.688-.121.998-.239 1.282-.415l.076-.013.199 1.131c.124.703-.405 1.458-1.917 1.725-1.436.253-3.101-.162-3.508-2.469l-.919-5.211c-.135-.764.2-1.453.69-1.981" fill="#FFFFFE"/></g></svg>